smf_parser v1.01
Created by Joan Quintana Compte (joanillo)
Licensed under GPL v.3

format type: 1
number of tracks: 64
time division in ticks per beat (0)
Ticks per beat: 192
track #1
track size: 218
Channel Event. t= 0 (0) 
Meta Event. Type: 0x58 (88dec), Time Signature (4 bytes): 4 / 4
Channel Event. t= 0 (0) 
Meta Event. Type: 0x51 (81dec), Set Tempo (3 bytes): 100 bpm
Channel Event. t= 0 (0) 
Meta Event. Type: 0x59 (89dec), Key Signature (2 bytes): 0 (number of sharps or flats); 0 (0: major, 1: minor)
Channel Event. t= 26112 (26112) 
Meta Event. Type: 0x51 (81dec), Set Tempo (3 bytes): 138 bpm
Channel Event. t= 6144 (32256) 
Meta Event. Type: 0x51 (81dec), Set Tempo (3 bytes): 100 bpm
Channel Event. t= 38400 (70656) 
Meta Event. Type: 0x51 (81dec), Set Tempo (3 bytes): 102 bpm
Channel Event. t= 34560 (105216) 
Meta Event. Type: 0x51 (81dec), Set Tempo (3 bytes): 88 bpm
Channel Event. t= 768 (105984) 
Meta Event. Type: 0x51 (81dec), Set Tempo (3 bytes): 93 bpm
Channel Event. t= 768 (106752) 
Meta Event. Type: 0x51 (81dec), Set Tempo (3 bytes): 82 bpm
Channel Event. t= 19968 (126720) 
Meta Event. Type: 0x51 (81dec), Set Tempo (3 bytes): 100 bpm
Channel Event. t= 54528 (181248) 
Meta Event. Type: 0x51 (81dec), Set Tempo (3 bytes): 138 bpm
Channel Event. t= 22272 (203520) 
Meta Event. Type: 0x51 (81dec), Set Tempo (3 bytes): 100 bpm
Channel Event. t= 6144 (209664) 
Meta Event. Type: 0x51 (81dec), Set Tempo (3 bytes): 138 bpm
Channel Event. t= 13824 (223488) 
Meta Event. Type: 0x51 (81dec), Set Tempo (3 bytes): 100 bpm
Channel Event. t= 21504 (244992) 
Meta Event. Type: 0x51 (81dec), Set Tempo (3 bytes): 102 bpm
Channel Event. t= 14592 (259584) 
Meta Event. Type: 0x51 (81dec), Set Tempo (3 bytes): 60 bpm
Channel Event. t= 3072 (262656) 
Meta Event. Type: 0x51 (81dec), Set Tempo (3 bytes): 102 bpm
Channel Event. t= 7680 (270336) 
Meta Event. Type: 0x51 (81dec), Set Tempo (3 bytes): 138 bpm
Channel Event. t= 39168 (309504) 
Meta Event. Type: 0x51 (81dec), Set Tempo (3 bytes): 100 bpm
Channel Event. t= 77568 (387072) 
Meta Event. Type: 0x51 (81dec), Set Tempo (3 bytes): 76 bpm
Channel Event. t= 3072 (390144) 
Meta Event. Type: 0x51 (81dec), Set Tempo (3 bytes): 102 bpm
Channel Event. t= 768 (390912) 
Meta Event. Type: 0x51 (81dec), Set Tempo (3 bytes): 99 bpm
Channel Event. t= 384 (391296) 
Meta Event. Type: 0x51 (81dec), Set Tempo (3 bytes): 110 bpm
Channel Event. t= 384 (391680) 
Meta Event. Type: 0x51 (81dec), Set Tempo (3 bytes): 131 bpm
Channel Event. t= 768 (392448) 
Meta Event. Type: 0x51 (81dec), Set Tempo (3 bytes): 138 bpm
Channel Event. t= 768 (393216) 
Meta Event. Type: 0x51 (81dec), Set Tempo (3 bytes): 130 bpm
Channel Event. t= 0 (393216) 
Meta Event. Type: 0x2f (47dec), End of Track (0 bytes): 
track #2
track size: 33
Channel Event. t= 0 (0) 
Meta Event. Type: 0x21 (33dec), MIDI Port (1 bytes): 0
Channel Event. t= 0 (0) 
Meta Event. Type: 0x3 (3dec), Sequence/Track Name (20 bytes): PETER & THE WOLF    
Channel Event. t= 0 (0) 
Meta Event. Type: 0x2f (47dec), End of Track (0 bytes): 
track #3
track size: 33
Channel Event. t= 0 (0) 
Meta Event. Type: 0x21 (33dec), MIDI Port (1 bytes): 0
Channel Event. t= 0 (0) 
Meta Event. Type: 0x3 (3dec), Sequence/Track Name (20 bytes):     PART ONE        
Channel Event. t= 0 (0) 
Meta Event. Type: 0x2f (47dec), End of Track (0 bytes): 
track #4
track size: 33
Channel Event. t= 0 (0) 
Meta Event. Type: 0x21 (33dec), MIDI Port (1 bytes): 0
Channel Event. t= 0 (0) 
Meta Event. Type: 0x3 (3dec), Sequence/Track Name (20 bytes): INTRODUCTION        
Channel Event. t= 0 (0) 
Meta Event. Type: 0x2f (47dec), End of Track (0 bytes): 
track #5
track size: 33
Channel Event. t= 0 (0) 
Meta Event. Type: 0x21 (33dec), MIDI Port (1 bytes): 0
Channel Event. t= 0 (0) 
Meta Event. Type: 0x3 (3dec), Sequence/Track Name (20 bytes):                     
Channel Event. t= 0 (0) 
Meta Event. Type: 0x2f (47dec), End of Track (0 bytes): 
track #6
track size: 2957
Channel Event. t= 0 (0) 
Meta Event. Type: 0x21 (33dec), MIDI Port (1 bytes): 0
Channel Event. t= 0 (0) 
Meta Event. Type: 0x3 (3dec), Sequence/Track Name (20 bytes): Flute               
Channel Event. t= 0 (0) Program Change ch=1 par1=72 par2=-116
Channel Event. t= 0 (0) Controller ch=1 par1=10 (Pan) par2=120
Channel Event. t= 192 (192) Controller ch=1 par1=7 (Pan) par2=102
Channel Event. t= 564 (756) Program Change ch=1 par1=48 par2=12
Channel Event. t= 2240 (2996) Program Change ch=1 par1=49 par2=0
Channel Event. t= 67 (3063) Program Change ch=1 par1=50 par2=-125
Channel Event. t= 0 (3063) Note Off ch=1 par1=64 par2=64
Channel Event. t= 0 (3063) Note Off ch=1 par1=67 par2=64
Channel Event. t= 0 (3063) Note On ch=1 par1=72 par2=52
Channel Event. t= 0 (3063) Note On ch=1 par1=69 par2=42
Channel Event. t= 268 (3331) Note Off ch=1 par1=72 par2=64
Channel Event. t= 20 (3351) Note Off ch=1 par1=69 par2=64
Channel Event. t= 0 (3351) Note On ch=1 par1=72 par2=21
Channel Event. t= 0 (3351) Note On ch=1 par1=76 par2=59
Channel Event. t= 51 (3402) Note Off ch=1 par1=76 par2=64
Channel Event. t= 7 (3409) Note Off ch=1 par1=72 par2=64
Channel Event. t= 38 (3447) Note On ch=1 par1=79 par2=63
Channel Event. t= 0 (3447) Note On ch=1 par1=76 par2=31
Channel Event. t= 176 (3623) Note Off ch=1 par1=79 par2=64
Channel Event. t= 16 (3639) Note Off ch=1 par1=76 par2=64
Channel Event. t= 0 (3639) Note On ch=1 par1=81 par2=69
Channel Event. t= 0 (3639) Note On ch=1 par1=79 par2=58
Channel Event. t= 170 (3809) Note Off ch=1 par1=79 par2=64
Channel Event. t= 22 (3831) Note Off ch=1 par1=81 par2=64
Channel Event. t= 0 (3831) Note On ch=1 par1=79 par2=84
Channel Event. t= 0 (3831) Note On ch=1 par1=76 par2=77
Channel Event. t= 240 (4071) Note Off ch=1 par1=79 par2=64
Channel Event. t= 10 (4081) Note Off ch=1 par1=76 par2=64
Channel Event. t= 38 (4119) Note On ch=1 par1=76 par2=64
Channel Event. t= 0 (4119) Note On ch=1 par1=72 par2=44
Channel Event. t= 82 (4201) Note Off ch=1 par1=76 par2=64
Channel Event. t= 8 (4209) Note Off ch=1 par1=72 par2=64
Channel Event. t= 6 (4215) Note On ch=1 par1=79 par2=62
Channel Event. t= 0 (4215) Note On ch=1 par1=76 par2=55
Channel Event. t= 180 (4395) Note Off ch=1 par1=79 par2=64
Channel Event. t= 12 (4407) Note Off ch=1 par1=76 par2=64
Channel Event. t= 0 (4407) Note On ch=1 par1=79 par2=70
Channel Event. t= 0 (4407) Note On ch=1 par1=81 par2=69
Channel Event. t= 192 (4599) Note Off ch=1 par1=79 par2=64
Channel Event. t= 0 (4599) Note Off ch=1 par1=81 par2=64
Channel Event. t= 0 (4599) Note On ch=1 par1=83 par2=73
Channel Event. t= 0 (4599) Note On ch=1 par1=78 par2=75
Channel Event. t= 270 (4869) Note Off ch=1 par1=78 par2=64
Channel Event. t= 14 (4883) Note Off ch=1 par1=83 par2=64
Channel Event. t= 4 (4887) Note On ch=1 par1=79 par2=63
Channel Event. t= 0 (4887) Note On ch=1 par1=84 par2=70
Channel Event. t= 60 (4947) Note Off ch=1 par1=84 par2=64
Channel Event. t= 17 (4964) Note Off ch=1 par1=79 par2=64
Channel Event. t= 19 (4983) Note On ch=1 par1=79 par2=67
Channel Event. t= 0 (4983) Note On ch=1 par1=76 par2=62
Channel Event. t= 192 (5175) Note Off ch=1 par1=79 par2=64
Channel Event. t= 0 (5175) Note Off ch=1 par1=76 par2=64
Channel Event. t= 0 (5175) Note On ch=1 par1=76 par2=59
Channel Event. t= 0 (5175) Note On ch=1 par1=72 par2=58
Channel Event. t= 162 (5337) Note Off ch=1 par1=72 par2=64
Channel Event. t= 30 (5367) Note On ch=1 par1=72 par2=58
Channel Event. t= 0 (5367) Note On ch=1 par1=69 par2=62
Channel Event. t= 23 (5390) Note Off ch=1 par1=76 par2=64
Channel Event. t= 121 (5511) Note Off ch=1 par1=72 par2=64
Channel Event. t= 0 (5511) Note Off ch=1 par1=69 par2=64
Channel Event. t= 48 (5559) Note On ch=1 par1=71 par2=70
Channel Event. t= 0 (5559) Note On ch=1 par1=74 par2=78
Channel Event. t= 76 (5635) Note Off ch=1 par1=71 par2=64
Channel Event. t= 6 (5641) Note Off ch=1 par1=74 par2=64
Channel Event. t= 110 (5751) Note On ch=1 par1=72 par2=89
Channel Event. t= 0 (5751) Note On ch=1 par1=75 par2=101
Channel Event. t= 384 (6135) Note Off ch=1 par1=72 par2=64
Channel Event. t= 0 (6135) Note Off ch=1 par1=75 par2=64
Channel Event. t= 0 (6135) Note On ch=1 par1=75 par2=59
Channel Event. t= 0 (6135) Note On ch=1 par1=72 par2=52
Channel Event. t= 192 (6327) Note On ch=1 par1=83 par2=64
Channel Event. t= 0 (6327) Note On ch=1 par1=79 par2=56
Channel Event. t= 31 (6358) Note Off ch=1 par1=72 par2=64
Channel Event. t= 2 (6360) Note Off ch=1 par1=75 par2=64
Channel Event. t= 67 (6427) Note Off ch=1 par1=83 par2=64
Channel Event. t= 7 (6434) Note Off ch=1 par1=79 par2=64
Channel Event. t= 85 (6519) Note On ch=1 par1=75 par2=91
Channel Event. t= 0 (6519) Note On ch=1 par1=72 par2=83
Channel Event. t= 384 (6903) Note Off ch=1 par1=75 par2=64
Channel Event. t= 0 (6903) Note Off ch=1 par1=72 par2=64
Channel Event. t= 0 (6903) Note On ch=1 par1=75 par2=61
Channel Event. t= 0 (6903) Note On ch=1 par1=72 par2=50
Channel Event. t= 192 (7095) Note Off ch=1 par1=75 par2=64
Channel Event. t= 0 (7095) Note Off ch=1 par1=72 par2=64
Channel Event. t= 0 (7095) Note On ch=1 par1=83 par2=66
Channel Event. t= 0 (7095) Note On ch=1 par1=79 par2=53
Channel Event. t= 95 (7190) Note Off ch=1 par1=83 par2=64
Channel Event. t= 3 (7193) Note Off ch=1 par1=79 par2=64
Channel Event. t= 94 (7287) Note On ch=1 par1=72 par2=49
Channel Event. t= 0 (7287) Note On ch=1 par1=75 par2=51
Channel Event. t= 384 (7671) Note On ch=1 par1=70 par2=61
Channel Event. t= 0 (7671) Note On ch=1 par1=67 par2=41
Channel Event. t= 16 (7687) Note Off ch=1 par1=72 par2=64
Channel Event. t= 23 (7710) Note Off ch=1 par1=75 par2=64
Channel Event. t= 345 (8055) Note Off ch=1 par1=70 par2=64
Channel Event. t= 0 (8055) Note Off ch=1 par1=67 par2=64
Channel Event. t= 0 (8055) Note On ch=1 par1=70 par2=30
Channel Event. t= 0 (8055) Note On ch=1 par1=67 par2=40
Channel Event. t= 1 (8056) Note Off ch=1 par1=70 par2=64
Channel Event. t= 0 (8056) Note Off ch=1 par1=67 par2=64
Channel Event. t= 575 (8631) Note On ch=1 par1=57 par2=66
Channel Event. t= 192 (8823) Note On ch=1 par1=58 par2=65
Channel Event. t= 17 (8840) Note Off ch=1 par1=57 par2=64
Channel Event. t= 367 (9207) Note On ch=1 par1=63 par2=67
Channel Event. t= 0 (9207) Note On ch=1 par1=60 par2=66
Channel Event. t= 7 (9214) Note Off ch=1 par1=58 par2=64
Channel Event. t= 274 (9488) Note Off ch=1 par1=60 par2=64
Channel Event. t= 7 (9495) Note Off ch=1 par1=63 par2=64
Channel Event. t= 0 (9495) Note On ch=1 par1=67 par2=73
Channel Event. t= 0 (9495) Note On ch=1 par1=63 par2=70
Channel Event. t= 63 (9558) Note Off ch=1 par1=63 par2=64
Channel Event. t= 25 (9583) Note Off ch=1 par1=67 par2=64
Channel Event. t= 8 (9591) Note On ch=1 par1=70 par2=82
Channel Event. t= 0 (9591) Note On ch=1 par1=67 par2=74
Channel Event. t= 192 (9783) Note Off ch=1 par1=70 par2=64
Channel Event. t= 0 (9783) Note Off ch=1 par1=67 par2=64
Channel Event. t= 0 (9783) Note On ch=1 par1=70 par2=70
Channel Event. t= 0 (9783) Note On ch=1 par1=72 par2=70
Channel Event. t= 169 (9952) Note Off ch=1 par1=70 par2=64
Channel Event. t= 23 (9975) Note On ch=1 par1=70 par2=47
Channel Event. t= 0 (9975) Note On ch=1 par1=67 par2=63
Channel Event. t= 22 (9997) Note Off ch=1 par1=72 par2=64
Channel Event. t= 218 (10215) Note Off ch=1 par1=70 par2=64
Channel Event. t= 0 (10215) Note Off ch=1 par1=67 par2=64
Channel Event. t= 48 (10263) Note On ch=1 par1=63 par2=68
Channel Event. t= 0 (10263) Note On ch=1 par1=67 par2=61
Channel Event. t= 79 (10342) Note Off ch=1 par1=63 par2=64
Channel Event. t= 9 (10351) Note Off ch=1 par1=67 par2=64
Channel Event. t= 8 (10359) Note On ch=1 par1=70 par2=80
Channel Event. t= 0 (10359) Note On ch=1 par1=67 par2=68
Channel Event. t= 164 (10523) Note Off ch=1 par1=67 par2=64
Channel Event. t= 28 (10551) Note Off ch=1 par1=70 par2=64
Channel Event. t= 0 (10551) Note On ch=1 par1=70 par2=63
Channel Event. t= 0 (10551) Note On ch=1 par1=72 par2=69
Channel Event. t= 192 (10743) Note Off ch=1 par1=72 par2=64
Channel Event. t= 0 (10743) Note On ch=1 par1=69 par2=56
Channel Event. t= 0 (10743) Note On ch=1 par1=74 par2=62
Channel Event. t= 13 (10756) Note Off ch=1 par1=70 par2=64
Channel Event. t= 275 (11031) Note Off ch=1 par1=69 par2=64
Channel Event. t= 0 (11031) Note On ch=1 par1=75 par2=79
Channel Event. t= 0 (11031) Note On ch=1 par1=70 par2=69
Channel Event. t= 10 (11041) Note Off ch=1 par1=74 par2=64
Channel Event. t= 69 (11110) Note Off ch=1 par1=70 par2=64
Channel Event. t= 17 (11127) Note On ch=1 par1=70 par2=72
Channel Event. t= 0 (11127) Note On ch=1 par1=67 par2=63
Channel Event. t= 10 (11137) Note Off ch=1 par1=75 par2=64
Channel Event. t= 119 (11256) Note Off ch=1 par1=70 par2=64
Channel Event. t= 63 (11319) Note On ch=1 par1=63 par2=59
Channel Event. t= 164 (11483) Note Off ch=1 par1=63 par2=64
Channel Event. t= 5 (11488) Note Off ch=1 par1=67 par2=64
Channel Event. t= 23 (11511) Note On ch=1 par1=63 par2=72
Channel Event. t= 0 (11511) Note On ch=1 par1=60 par2=62
Channel Event. t= 192 (11703) Note Off ch=1 par1=63 par2=64
Channel Event. t= 0 (11703) Note On ch=1 par1=61 par2=68
Channel Event. t= 0 (11703) Note On ch=1 par1=65 par2=68
Channel Event. t= 16 (11719) Note Off ch=1 par1=60 par2=64
Channel Event. t= 176 (11895) Note On ch=1 par1=66 par2=80
Channel Event. t= 0 (11895) Note On ch=1 par1=62 par2=45
Channel Event. t= 14 (11909) Note Off ch=1 par1=61 par2=64
Channel Event. t= 5 (11914) Note Off ch=1 par1=65 par2=64
Channel Event. t= 210 (12124) Note Off ch=1 par1=62 par2=64
Channel Event. t= 10 (12134) Note Off ch=1 par1=66 par2=64
Channel Event. t= 145 (12279) Note On ch=1 par1=66 par2=80
Channel Event. t= 0 (12279) Note On ch=1 par1=62 par2=52
Channel Event. t= 176 (12455) Note Off ch=1 par1=66 par2=64
Channel Event. t= 16 (12471) Note On ch=1 par1=74 par2=53
Channel Event. t= 0 (12471) Note On ch=1 par1=66 par2=80
Channel Event. t= 24 (12495) Note Off ch=1 par1=62 par2=64
Channel Event. t= 117 (12612) Note Off ch=1 par1=66 par2=64
Channel Event. t= 9 (12621) Note Off ch=1 par1=74 par2=64
Channel Event. t= 42 (12663) Note On ch=1 par1=66 par2=59
Channel Event. t= 0 (12663) Note On ch=1 par1=62 par2=56
Channel Event. t= 307 (12970) Note Off ch=1 par1=62 par2=64
Channel Event. t= 13 (12983) Note Off ch=1 par1=66 par2=64
Channel Event. t= 64 (13047) Note On ch=1 par1=66 par2=65
Channel Event. t= 0 (13047) Note On ch=1 par1=62 par2=68
Channel Event. t= 170 (13217) Note Off ch=1 par1=66 par2=64
Channel Event. t= 22 (13239) Note On ch=1 par1=66 par2=80
Channel Event. t= 0 (13239) Note On ch=1 par1=74 par2=84
Channel Event. t= 20 (13259) Note Off ch=1 par1=62 par2=64
Channel Event. t= 128 (13387) Note Off ch=1 par1=74 par2=64
Channel Event. t= 42 (13429) Note Off ch=1 par1=66 par2=64
Channel Event. t= 2 (13431) Controller ch=1 par1=7 (Main Volume) par2=101
Channel Event. t= 0 (13431) Note On ch=1 par1=67 par2=88
Channel Event. t= 0 (13431) Note On ch=1 par1=62 par2=88
Channel Event. t= 48 (13479) Controller ch=1 par1=7 (Main Volume) par2=100
Channel Event. t= 48 (13527) Controller ch=1 par1=7 (Main Volume) par2=99
Channel Event. t= 24 (13551) Controller ch=1 par1=7 (Main Volume) par2=98
Channel Event. t= 48 (13599) Controller ch=1 par1=7 (Main Volume) par2=97
Channel Event. t= 24 (13623) Controller ch=1 par1=7 (Main Volume) par2=96
Channel Event. t= 48 (13671) Controller ch=1 par1=7 (Main Volume) par2=95
Channel Event. t= 24 (13695) Controller ch=1 par1=7 (Main Volume) par2=94
Channel Event. t= 48 (13743) Controller ch=1 par1=7 (Main Volume) par2=93
Channel Event. t= 24 (13767) Controller ch=1 par1=7 (Main Volume) par2=92
Channel Event. t= 48 (13815) Controller ch=1 par1=7 (Main Volume) par2=91
Channel Event. t= 24 (13839) Controller ch=1 par1=7 (Main Volume) par2=90
Channel Event. t= 48 (13887) Controller ch=1 par1=7 (Main Volume) par2=89
Channel Event. t= 24 (13911) Controller ch=1 par1=7 (Main Volume) par2=88
Channel Event. t= 48 (13959) Controller ch=1 par1=7 (Main Volume) par2=87
Channel Event. t= 24 (13983) Controller ch=1 par1=7 (Main Volume) par2=86
Channel Event. t= 48 (14031) Controller ch=1 par1=7 (Main Volume) par2=85
Channel Event. t= 24 (14055) Controller ch=1 par1=7 (Main Volume) par2=84
Channel Event. t= 48 (14103) Controller ch=1 par1=7 (Main Volume) par2=83
Channel Event. t= 24 (14127) Controller ch=1 par1=7 (Main Volume) par2=82
Channel Event. t= 48 (14175) Controller ch=1 par1=7 (Main Volume) par2=81
Channel Event. t= 24 (14199) Controller ch=1 par1=7 (Main Volume) par2=80
Channel Event. t= 48 (14247) Controller ch=1 par1=7 (Main Volume) par2=79
Channel Event. t= 48 (14295) Controller ch=1 par1=7 (Main Volume) par2=78
Channel Event. t= 24 (14319) Controller ch=1 par1=7 (Main Volume) par2=77
Channel Event. t= 48 (14367) Controller ch=1 par1=7 (Main Volume) par2=76
Channel Event. t= 24 (14391) Controller ch=1 par1=7 (Main Volume) par2=75
Channel Event. t= 48 (14439) Controller ch=1 par1=7 (Main Volume) par2=74
Channel Event. t= 24 (14463) Controller ch=1 par1=7 (Main Volume) par2=73
Channel Event. t= 48 (14511) Controller ch=1 par1=7 (Main Volume) par2=72
Channel Event. t= 24 (14535) Controller ch=1 par1=7 (Main Volume) par2=71
Channel Event. t= 48 (14583) Controller ch=1 par1=7 (Main Volume) par2=70
Channel Event. t= 24 (14607) Controller ch=1 par1=7 (Main Volume) par2=69
Channel Event. t= 48 (14655) Controller ch=1 par1=7 (Main Volume) par2=68
Channel Event. t= 24 (14679) Controller ch=1 par1=7 (Main Volume) par2=67
Channel Event. t= 48 (14727) Controller ch=1 par1=7 (Main Volume) par2=66
Channel Event. t= 24 (14751) Controller ch=1 par1=7 (Main Volume) par2=65
Channel Event. t= 48 (14799) Controller ch=1 par1=7 (Main Volume) par2=64
Channel Event. t= 24 (14823) Controller ch=1 par1=7 (Main Volume) par2=63
Channel Event. t= 48 (14871) Controller ch=1 par1=7 (Main Volume) par2=62
Channel Event. t= 8 (14879) Note Off ch=1 par1=62 par2=64
Channel Event. t= 16 (14895) Controller ch=1 par1=7 (Main Volume) par2=61
Channel Event. t= 2 (14897) Note Off ch=1 par1=67 par2=64
Channel Event. t= 46 (14943) Controller ch=1 par1=7 (Main Volume) par2=60
Channel Event. t= 72 (15015) Controller ch=1 par1=7 (Main Volume) par2=90
Channel Event. t= 144 (15159) Note On ch=1 par1=91 par2=73
Channel Event. t= 0 (15159) Note On ch=1 par1=84 par2=69
Channel Event. t= 30 (15189) Note Off ch=1 par1=84 par2=64
Channel Event. t= 4 (15193) Note Off ch=1 par1=91 par2=64
Channel Event. t= 158 (15351) Note On ch=1 par1=91 par2=84
Channel Event. t= 0 (15351) Note On ch=1 par1=83 par2=81
Channel Event. t= 414 (15765) Note Off ch=1 par1=83 par2=64
Channel Event. t= 0 (15765) Note Off ch=1 par1=91 par2=64
Channel Event. t= 162 (15927) Note On ch=1 par1=91 par2=66
Channel Event. t= 0 (15927) Note On ch=1 par1=84 par2=67
Channel Event. t= 32 (15959) Note Off ch=1 par1=84 par2=64
Channel Event. t= 4 (15963) Note Off ch=1 par1=91 par2=64
Channel Event. t= 156 (16119) Note On ch=1 par1=91 par2=69
Channel Event. t= 0 (16119) Note On ch=1 par1=83 par2=62
Channel Event. t= 395 (16514) Note Off ch=1 par1=83 par2=64
Channel Event. t= 0 (16514) Note Off ch=1 par1=91 par2=64
Channel Event. t= 181 (16695) Note On ch=1 par1=91 par2=64
Channel Event. t= 0 (16695) Note On ch=1 par1=84 par2=58
Channel Event. t= 29 (16724) Note Off ch=1 par1=84 par2=64
Channel Event. t= 8 (16732) Note Off ch=1 par1=91 par2=64
Channel Event. t= 155 (16887) Note On ch=1 par1=83 par2=71
Channel Event. t= 0 (16887) Note On ch=1 par1=91 par2=73
Channel Event. t= 388 (17275) Note Off ch=1 par1=83 par2=64
Channel Event. t= 4 (17279) Note Off ch=1 par1=91 par2=64
Channel Event. t= 184 (17463) Note On ch=1 par1=91 par2=53
Channel Event. t= 0 (17463) Note On ch=1 par1=84 par2=55
Channel Event. t= 37 (17500) Note Off ch=1 par1=84 par2=64
Channel Event. t= 7 (17507) Note Off ch=1 par1=91 par2=64
Channel Event. t= 340 (17847) Note On ch=1 par1=91 par2=62
Channel Event. t= 0 (17847) Note On ch=1 par1=83 par2=60
Channel Event. t= 44 (17891) Note Off ch=1 par1=83 par2=64
Channel Event. t= 5 (17896) Note Off ch=1 par1=91 par2=64
Channel Event. t= 143 (18039) Controller ch=1 par1=7 (Main Volume) par2=75
Channel Event. t= 48 (18087) Program Change ch=1 par1=72 par2=87
Channel Event. t= 2255 (20342) Program Change ch=1 par1=41 par2=14
Channel Event. t= 84 (20426) Program Change ch=1 par1=61 par2=35
Channel Event. t= 88 (20514) Program Change ch=1 par1=74 par2=5
Channel Event. t= 207 (20721) Program Change ch=1 par1=64 par2=0
Channel Event. t= 2267 (22988) Program Change ch=1 par1=72 par2=0
Channel Event. t= 96 (23084) Program Change ch=1 par1=75 par2=3
Channel Event. t= 100 (23184) Program Change ch=1 par1=82 par2=14
Channel Event. t= 212 (23396) Program Change ch=1 par1=64 par2=1
Channel Event. t= 88 (23484) Program Change ch=1 par1=64 par2=4
Channel Event. t= 96 (23580) Program Change ch=1 par1=64 par2=2
Channel Event. t= 91 (23671) Program Change ch=1 par1=64 par2=7
Channel Event. t= 100 (23771) Program Change ch=1 par1=64 par2=-127
Channel Event. t= 36 (23807) Controller ch=1 par1=10 (Pan) par2=20
Channel Event. t= 148 (23955) Note On ch=1 par1=79 par2=40
Channel Event. t= 10 (23965) Note On ch=1 par1=83 par2=74
Channel Event. t= 25 (23990) Note Off ch=1 par1=79 par2=64
Channel Event. t= 3 (23993) Note On ch=1 par1=87 par2=75
Channel Event. t= 4 (23997) Note On ch=1 par1=90 par2=58
Channel Event. t= 2 (23999) Note On ch=1 par1=99 par2=73
Channel Event. t= 2 (24001) Note On ch=1 par1=95 par2=61
Channel Event. t= 8 (24009) Note Off ch=1 par1=83 par2=64
Channel Event. t= 5 (24014) Note Off ch=1 par1=87 par2=64
Channel Event. t= 2 (24016) Note Off ch=1 par1=95 par2=64
Channel Event. t= 3 (24019) Note Off ch=1 par1=90 par2=64
Channel Event. t= 10 (24029) Note Off ch=1 par1=99 par2=64
Channel Event. t= 162 (24191) Controller ch=1 par1=10 (Pan) par2=120
Channel Event. t= 138 (24329) Note On ch=1 par1=79 par2=45
Channel Event. t= 13 (24342) Note On ch=1 par1=84 par2=67
Channel Event. t= 8 (24350) Note Off ch=1 par1=79 par2=64
Channel Event. t= 16 (24366) Note On ch=1 par1=88 par2=73
Channel Event. t= 8 (24374) Note On ch=1 par1=96 par2=83
Channel Event. t= 3 (24377) Note On ch=1 par1=91 par2=64
Channel Event. t= 1 (24378) Note Off ch=1 par1=84 par2=64
Channel Event. t= 5 (24383) Note On ch=1 par1=100 par2=74
Channel Event. t= 4 (24387) Note Off ch=1 par1=88 par2=64
Channel Event. t= 16 (24403) Note Off ch=1 par1=91 par2=64
Channel Event. t= 5 (24408) Note Off ch=1 par1=96 par2=64
Channel Event. t= 10 (24418) Note Off ch=1 par1=100 par2=64
Channel Event. t= 109 (24527) Controller ch=1 par1=10 (Pan) par2=20
Channel Event. t= 170 (24697) Note On ch=1 par1=79 par2=42
Channel Event. t= 15 (24712) Note On ch=1 par1=83 par2=70
Channel Event. t= 3 (24715) Note Off ch=1 par1=79 par2=64
Channel Event. t= 26 (24741) Note On ch=1 par1=87 par2=80
Channel Event. t= 10 (24751) Note Off ch=1 par1=83 par2=64
Channel Event. t= 10 (24761) Note On ch=1 par1=90 par2=65
Channel Event. t= 0 (24761) Note On ch=1 par1=95 par2=63
Channel Event. t= 3 (24764) Note Off ch=1 par1=87 par2=64
Channel Event. t= 3 (24767) Note On ch=1 par1=99 par2=79
Channel Event. t= 10 (24777) Note Off ch=1 par1=90 par2=64
Channel Event. t= 0 (24777) Note Off ch=1 par1=95 par2=64
Channel Event. t= 17 (24794) Note Off ch=1 par1=99 par2=64
Channel Event. t= 165 (24959) Controller ch=1 par1=10 (Pan) par2=120
Channel Event. t= 130 (25089) Note On ch=1 par1=79 par2=11
Channel Event. t= 10 (25099) Note On ch=1 par1=84 par2=69
Channel Event. t= 7 (25106) Note Off ch=1 par1=79 par2=64
Channel Event. t= 19 (25125) Note On ch=1 par1=88 par2=65
Channel Event. t= 9 (25134) Note Off ch=1 par1=84 par2=64
Channel Event. t= 3 (25137) Note On ch=1 par1=96 par2=72
Channel Event. t= 2 (25139) Note On ch=1 par1=91 par2=58
Channel Event. t= 5 (25144) Note Off ch=1 par1=88 par2=64
Channel Event. t= 7 (25151) Note On ch=1 par1=100 par2=71
Channel Event. t= 13 (25164) Note Off ch=1 par1=91 par2=64
Channel Event. t= 3 (25167) Note Off ch=1 par1=96 par2=64
Channel Event. t= 12 (25179) Note Off ch=1 par1=100 par2=64
Channel Event. t= 68 (25247) Controller ch=1 par1=10 (Pan) par2=20
Channel Event. t= 219 (25466) Note On ch=1 par1=79 par2=32
Channel Event. t= 12 (25478) Note On ch=1 par1=83 par2=70
Channel Event. t= 12 (25490) Note Off ch=1 par1=79 par2=64
Channel Event. t= 18 (25508) Note On ch=1 par1=87 par2=77
Channel Event. t= 8 (25516) Note On ch=1 par1=90 par2=60
Channel Event. t= 1 (25517) Note On ch=1 par1=95 par2=63
Channel Event. t= 4 (25521) Note Off ch=1 par1=83 par2=64
Channel Event. t= 8 (25529) Note Off ch=1 par1=87 par2=64
Channel Event. t= 6 (25535) Note On ch=1 par1=99 par2=72
Channel Event. t= 1 (25536) Note Off ch=1 par1=90 par2=64
Channel Event. t= 0 (25536) Note Off ch=1 par1=95 par2=64
Channel Event. t= 29 (25565) Note Off ch=1 par1=99 par2=64
Channel Event. t= 162 (25727) Controller ch=1 par1=10 (Pan) par2=120
Channel Event. t= 120 (25847) Note On ch=1 par1=79 par2=38
Channel Event. t= 13 (25860) Note On ch=1 par1=84 par2=64
Channel Event. t= 13 (25873) Note Off ch=1 par1=79 par2=64
Channel Event. t= 16 (25889) Note On ch=1 par1=96 par2=56
Channel Event. t= 3 (25892) Note On ch=1 par1=91 par2=46
Channel Event. t= 2 (25894) Note On ch=1 par1=88 par2=44
Channel Event. t= 6 (25900) Note Off ch=1 par1=84 par2=64
Channel Event. t= 13 (25913) Note Off ch=1 par1=88 par2=64
Channel Event. t= 6 (25919) Note On ch=1 par1=100 par2=54
Channel Event. t= 2 (25921) Note Off ch=1 par1=96 par2=64
Channel Event. t= 5 (25926) Note Off ch=1 par1=91 par2=64
Channel Event. t= 24 (25950) Note Off ch=1 par1=100 par2=64
Channel Event. t= 113 (26063) Controller ch=1 par1=10 (Pan) par2=20
Channel Event. t= 155 (26218) Note On ch=1 par1=79 par2=37
Channel Event. t= 18 (26236) Note On ch=1 par1=83 par2=60
Channel Event. t= 5 (26241) Note Off ch=1 par1=79 par2=64
Channel Event. t= 25 (26266) Note On ch=1 par1=87 par2=72
Channel Event. t= 7 (26273) Note On ch=1 par1=95 par2=55
Channel Event. t= 0 (26273) Note On ch=1 par1=90 par2=55
Channel Event. t= 8 (26281) Note Off ch=1 par1=83 par2=64
Channel Event. t= 11 (26292) Note Off ch=1 par1=87 par2=64
Channel Event. t= 2 (26294) Note Off ch=1 par1=95 par2=64
Channel Event. t= 1 (26295) Note Off ch=1 par1=90 par2=64
Channel Event. t= 8 (26303) Note On ch=1 par1=99 par2=62
Channel Event. t= 29 (26332) Note Off ch=1 par1=99 par2=64
Channel Event. t= 163 (26495) Controller ch=1 par1=10 (Pan) par2=120
Channel Event. t= 121 (26616) Note On ch=1 par1=79 par2=34
Channel Event. t= 13 (26629) Note On ch=1 par1=84 par2=66
Channel Event. t= 25 (26654) Note Off ch=1 par1=79 par2=64
Channel Event. t= 7 (26661) Note On ch=1 par1=91 par2=49
Channel Event. t= 0 (26661) Note On ch=1 par1=88 par2=69
Channel Event. t= 7 (26668) Note On ch=1 par1=96 par2=52
Channel Event. t= 6 (26674) Note Off ch=1 par1=84 par2=64
Channel Event. t= 4 (26678) Note Off ch=1 par1=88 par2=64
Channel Event. t= 9 (26687) Note On ch=1 par1=100 par2=49
Channel Event. t= 1 (26688) Note Off ch=1 par1=91 par2=64
Channel Event. t= 12 (26700) Note Off ch=1 par1=96 par2=64
Channel Event. t= 15 (26715) Note Off ch=1 par1=100 par2=64
Channel Event. t= 116 (26831) Controller ch=1 par1=10 (Pan) par2=20
Channel Event. t= 167 (26998) Note On ch=1 par1=79 par2=28
Channel Event. t= 10 (27008) Note On ch=1 par1=83 par2=69
Channel Event. t= 10 (27018) Note Off ch=1 par1=79 par2=64
Channel Event. t= 19 (27037) Note On ch=1 par1=87 par2=65
Channel Event. t= 2 (27039) Note On ch=1 par1=90 par2=51
Channel Event. t= 11 (27050) Note On ch=1 par1=95 par2=44
Channel Event. t= 3 (27053) Note Off ch=1 par1=83 par2=64
Channel Event. t= 11 (27064) Note Off ch=1 par1=87 par2=64
Channel Event. t= 7 (27071) Note On ch=1 par1=99 par2=45
Channel Event. t= 2 (27073) Note Off ch=1 par1=90 par2=64
Channel Event. t= 10 (27083) Note Off ch=1 par1=95 par2=64
Channel Event. t= 23 (27106) Note Off ch=1 par1=99 par2=64
Channel Event. t= 157 (27263) Controller ch=1 par1=10 (Pan) par2=120
Channel Event. t= 168 (27431) Note On ch=1 par1=79 par2=61
Channel Event. t= 14 (27445) Note On ch=1 par1=84 par2=71
Channel Event. t= 16 (27461) Note On ch=1 par1=88 par2=73
Channel Event. t= 4 (27465) Note Off ch=1 par1=79 par2=64
Channel Event. t= 5 (27470) Note On ch=1 par1=91 par2=84
Channel Event. t= 4 (27474) Note Off ch=1 par1=84 par2=64
Channel Event. t= 14 (27488) Note Off ch=1 par1=88 par2=64
Channel Event. t= 10 (27498) Note Off ch=1 par1=91 par2=64
Channel Event. t= 101 (27599) Controller ch=1 par1=10 (Pan) par2=20
Channel Event. t= 213 (27812) Note On ch=1 par1=79 par2=63
Channel Event. t= 20 (27832) Note On ch=1 par1=83 par2=68
Channel Event. t= 10 (27842) Note On ch=1 par1=87 par2=76
Channel Event. t= 10 (27852) Note On ch=1 par1=90 par2=85
Channel Event. t= 8 (27860) Note Off ch=1 par1=79 par2=64
Channel Event. t= 5 (27865) Note Off ch=1 par1=83 par2=64
Channel Event. t= 8 (27873) Note Off ch=1 par1=87 par2=64
Channel Event. t= 3 (27876) Note Off ch=1 par1=90 par2=64
Channel Event. t= 155 (28031) Controller ch=1 par1=10 (Pan) par2=120
Channel Event. t= 165 (28196) Note On ch=1 par1=79 par2=56
Channel Event. t= 11 (28207) Note On ch=1 par1=84 par2=73
Channel Event. t= 15 (28222) Note On ch=1 par1=88 par2=63
Channel Event. t= 5 (28227) Note On ch=1 par1=91 par2=86
Channel Event. t= 4 (28231) Note Off ch=1 par1=79 par2=64
Channel Event. t= 5 (28236) Note Off ch=1 par1=84 par2=64
Channel Event. t= 10 (28246) Note Off ch=1 par1=88 par2=64
Channel Event. t= 8 (28254) Note Off ch=1 par1=91 par2=64
Channel Event. t= 137 (28391) Controller ch=1 par1=10 (Pan) par2=20
Channel Event. t= 184 (28575) Note On ch=1 par1=79 par2=63
Channel Event. t= 17 (28592) Note On ch=1 par1=83 par2=69
Channel Event. t= 16 (28608) Note On ch=1 par1=87 par2=68
Channel Event. t= 3 (28611) Note On ch=1 par1=90 par2=80
Channel Event. t= 4 (28615) Note Off ch=1 par1=79 par2=64
Channel Event. t= 8 (28623) Note Off ch=1 par1=83 par2=64
Channel Event. t= 5 (28628) Note Off ch=1 par1=87 par2=64
Channel Event. t= 7 (28635) Note Off ch=1 par1=90 par2=64
Channel Event. t= 164 (28799) Controller ch=1 par1=10 (Pan) par2=120
Channel Event. t= 179 (28978) Note On ch=1 par1=79 par2=49
Channel Event. t= 12 (28990) Note On ch=1 par1=84 par2=61
Channel Event. t= 10 (29000) Note On ch=1 par1=88 par2=71
Channel Event. t= 5 (29005) Note On ch=1 par1=91 par2=79
Channel Event. t= 11 (29016) Note Off ch=1 par1=79 par2=64
Channel Event. t= 7 (29023) Note Off ch=1 par1=84 par2=64
Channel Event. t= 4 (29027) Note Off ch=1 par1=88 par2=64
Channel Event. t= 7 (29034) Note Off ch=1 par1=91 par2=64
Channel Event. t= 125 (29159) Controller ch=1 par1=10 (Pan) par2=20
Channel Event. t= 182 (29341) Note On ch=1 par1=79 par2=68
Channel Event. t= 18 (29359) Note On ch=1 par1=83 par2=71
Channel Event. t= 9 (29368) Note On ch=1 par1=87 par2=75
Channel Event. t= 3 (29371) Note On ch=1 par1=90 par2=80
Channel Event. t= 21 (29392) Note Off ch=1 par1=79 par2=64
Channel Event. t= 3 (29395) Note Off ch=1 par1=83 par2=64
Channel Event. t= 1 (29396) Note Off ch=1 par1=87 par2=64
Channel Event. t= 2 (29398) Note Off ch=1 par1=90 par2=64
Channel Event. t= 169 (29567) Controller ch=1 par1=10 (Pan) par2=120
Channel Event. t= 162 (29729) Note On ch=1 par1=79 par2=66
Channel Event. t= 10 (29739) Note On ch=1 par1=83 par2=78
Channel Event. t= 15 (29754) Note On ch=1 par1=88 par2=71
Channel Event. t= 8 (29762) Note On ch=1 par1=91 par2=78
Channel Event. t= 9 (29771) Note Off ch=1 par1=79 par2=64
Channel Event. t= 5 (29776) Note Off ch=1 par1=83 par2=64
Channel Event. t= 7 (29783) Note Off ch=1 par1=88 par2=64
Channel Event. t= 7 (29790) Note Off ch=1 par1=91 par2=64
Channel Event. t= 330 (30120) Note On ch=1 par1=79 par2=55
Channel Event. t= 9 (30129) Note On ch=1 par1=83 par2=76
Channel Event. t= 9 (30138) Note On ch=1 par1=87 par2=81
Channel Event. t= 17 (30155) Note On ch=1 par1=91 par2=70
Channel Event. t= 5 (30160) Note Off ch=1 par1=79 par2=64
Channel Event. t= 6 (30166) Note Off ch=1 par1=83 par2=64
Channel Event. t= 9 (30175) Note Off ch=1 par1=87 par2=64
Channel Event. t= 6 (30181) Note Off ch=1 par1=91 par2=64
Channel Event. t= 106 (30287) Program Change ch=1 par1=48 par2=36
Channel Event. t= 6279 (36566) Program Change ch=1 par1=60 par2=12
Channel Event. t= 2271 (38837) Program Change ch=1 par1=69 par2=0
Channel Event. t= 83 (38920) Program Change ch=1 par1=63 par2=-123
Channel Event. t= 100 (39020) Note Off ch=1 par1=95 par2=64
Channel Event. t= 0 (39020) Note Off ch=1 par1=83 par2=64
Channel Event. t= 28 (39048) Note On ch=1 par1=93 par2=87
Channel Event. t= 2 (39050) Note On ch=1 par1=81 par2=68
Channel Event. t= 553 (39603) Note Off ch=1 par1=81 par2=64
Channel Event. t= 21 (39624) Note Off ch=1 par1=93 par2=64
Channel Event. t= 96 (39720) Controller ch=1 par1=7 (Main Volume) par2=110
Channel Event. t= 48 (39768) Program Change ch=1 par1=72 par2=48
Channel Event. t= 2269 (42037) Program Change ch=1 par1=74 par2=11
Channel Event. t= 91 (42128) Program Change ch=1 par1=63 par2=12
Channel Event. t= 221 (42349) Program Change ch=1 par1=64 par2=14
Channel Event. t= 91 (42440) Program Change ch=1 par1=64 par2=59
Channel Event. t= 2252 (44692) Program Change ch=1 par1=71 par2=21
Channel Event. t= 204 (44896) Program Change ch=1 par1=64 par2=73
Channel Event. t= 2269 (47165) Program Change ch=1 par1=69 par2=8
Channel Event. t= 92 (47257) Program Change ch=1 par1=70 par2=20
Channel Event. t= 221 (47478) Program Change ch=1 par1=64 par2=6
Channel Event. t= 92 (47570) Program Change ch=1 par1=64 par2=64
Channel Event. t= 2268 (49838) Program Change ch=1 par1=68 par2=16
Channel Event. t= 220 (50058) Program Change ch=1 par1=64 par2=80
Channel Event. t= 2268 (52326) Program Change ch=1 par1=73 par2=20
Channel Event. t= 220 (52546) Program Change ch=1 par1=64 par2=76
Channel Event. t= 2268 (54814) Program Change ch=1 par1=71 par2=21
Channel Event. t= 220 (55034) Program Change ch=1 par1=64 par2=77
Channel Event. t= 2269 (57303) Program Change ch=1 par1=74 par2=4
Channel Event. t= 91 (57394) Program Change ch=1 par1=74 par2=20
Channel Event. t= 221 (57615) Program Change ch=1 par1=64 par2=4
Channel Event. t= 91 (57706) Program Change ch=1 par1=64 par2=66
Channel Event. t= 2252 (59958) Program Change ch=1 par1=79 par2=20
Channel Event. t= 204 (60162) Program Change ch=1 par1=64 par2=83
Channel Event. t= 2250 (62412) Program Change ch=1 par1=64 par2=40
Channel Event. t= 202 (62614) Program Change ch=1 par1=64 par2=3
Channel Event. t= 2251 (64865) Program Change ch=1 par1=63 par2=49
Channel Event. t= 203 (65068) Program Change ch=1 par1=64 par2=1
Channel Event. t= 2249 (67317) Program Change ch=1 par1=58 par2=40
Channel Event. t= 201 (67518) Program Change ch=1 par1=64 par2=4
Channel Event. t= 2248 (69766) Program Change ch=1 par1=52 par2=41
Channel Event. t= 200 (69966) Program Change ch=1 par1=64 par2=3
Channel Event. t= 2259 (72225) Program Change ch=1 par1=91 par2=94
Channel Event. t= 211 (72436) Program Change ch=1 par1=64 par2=0
Channel Event. t= 2257 (74693) Program Change ch=1 par1=49 par2=19
Channel Event. t= 209 (74902) Program Change ch=1 par1=64 par2=19
Channel Event. t= 2259 (77161) Program Change ch=1 par1=49 par2=25
Channel Event. t= 211 (77372) Program Change ch=1 par1=64 par2=3
Channel Event. t= 2257 (79629) Program Change ch=1 par1=31 par2=33
Channel Event. t= 209 (79838) Program Change ch=1 par1=64 par2=7
Channel Event. t= 2255 (82093) Program Change ch=1 par1=83 par2=43
Channel Event. t= 207 (82300) Program Change ch=1 par1=64 par2=49
Channel Event. t= 2243 (84543) Program Change ch=1 par1=61 par2=36
Channel Event. t= 195 (84738) Program Change ch=1 par1=64 par2=60
Channel Event. t= 2248 (86986) Program Change ch=1 par1=73 par2=22
Channel Event. t= 200 (87186) Program Change ch=1 par1=64 par2=74
Channel Event. t= 2252 (89438) Program Change ch=1 par1=74 par2=22
Channel Event. t= 204 (89642) Program Change ch=1 par1=64 par2=74
Channel Event. t= 2269 (91911) Program Change ch=1 par1=74 par2=11
Channel Event. t= 91 (92002) Program Change ch=1 par1=63 par2=12
Channel Event. t= 221 (92223) Program Change ch=1 par1=64 par2=14
Channel Event. t= 91 (92314) Program Change ch=1 par1=64 par2=59
Channel Event. t= 2252 (94566) Program Change ch=1 par1=71 par2=21
Channel Event. t= 204 (94770) Program Change ch=1 par1=64 par2=73
Channel Event. t= 2269 (97039) Program Change ch=1 par1=69 par2=8
Channel Event. t= 92 (97131) Program Change ch=1 par1=70 par2=20
Channel Event. t= 221 (97352) Program Change ch=1 par1=64 par2=6
Channel Event. t= 92 (97444) Program Change ch=1 par1=64 par2=64
Channel Event. t= 2268 (99712) Program Change ch=1 par1=68 par2=16
Channel Event. t= 220 (99932) Program Change ch=1 par1=64 par2=80
Channel Event. t= 2268 (102200) Program Change ch=1 par1=73 par2=20
Channel Event. t= 220 (102420) Program Change ch=1 par1=64 par2=76
Channel Event. t= 2268 (104688) Program Change ch=1 par1=71 par2=21
Channel Event. t= 220 (104908) Program Change ch=1 par1=64 par2=77
Channel Event. t= 2269 (107177) Program Change ch=1 par1=74 par2=4
Channel Event. t= 91 (107268) Program Change ch=1 par1=74 par2=20
Channel Event. t= 221 (107489) Program Change ch=1 par1=64 par2=4
Channel Event. t= 91 (107580) Program Change ch=1 par1=64 par2=66
Channel Event. t= 2252 (109832) Program Change ch=1 par1=79 par2=20
Channel Event. t= 204 (110036) Program Change ch=1 par1=64 par2=28
Channel Event. t= 6282 (116318) Program Change ch=1 par1=20 par2=55
Channel Event. t= 2250 (118568) Program Change ch=1 par1=64 par2=40
Channel Event. t= 202 (118770) Program Change ch=1 par1=64 par2=3
Channel Event. t= 2251 (121021) Program Change ch=1 par1=63 par2=49
Channel Event. t= 203 (121224) Program Change ch=1 par1=64 par2=1
Channel Event. t= 2249 (123473) Program Change ch=1 par1=58 par2=40
Channel Event. t= 201 (123674) Program Change ch=1 par1=64 par2=4
Channel Event. t= 2248 (125922) Program Change ch=1 par1=52 par2=41
Channel Event. t= 200 (126122) Program Change ch=1 par1=64 par2=3
Channel Event. t= 2259 (128381) Program Change ch=1 par1=91 par2=94
Channel Event. t= 211 (128592) Program Change ch=1 par1=64 par2=0
Channel Event. t= 2257 (130849) Program Change ch=1 par1=49 par2=19
Channel Event. t= 209 (131058) Program Change ch=1 par1=64 par2=19
Channel Event. t= 2259 (133317) Program Change ch=1 par1=49 par2=25
Channel Event. t= 211 (133528) Program Change ch=1 par1=64 par2=3
Channel Event. t= 2257 (135785) Program Change ch=1 par1=31 par2=33
Channel Event. t= 209 (135994) Program Change ch=1 par1=64 par2=7
Channel Event. t= 2255 (138249) Program Change ch=1 par1=83 par2=43
Channel Event. t= 207 (138456) Program Change ch=1 par1=64 par2=49
Channel Event. t= 2243 (140699) Program Change ch=1 par1=61 par2=36
Channel Event. t= 195 (140894) Program Change ch=1 par1=64 par2=60
Channel Event. t= 2248 (143142) Program Change ch=1 par1=73 par2=22
Channel Event. t= 200 (143342) Program Change ch=1 par1=64 par2=74
Channel Event. t= 2252 (145594) Program Change ch=1 par1=74 par2=22
Channel Event. t= 204 (145798) Program Change ch=1 par1=64 par2=74
Channel Event. t= 2252 (148050) Program Change ch=1 par1=75 par2=0
Channel Event. t= 6282 (154332) Program Change ch=1 par1=120 par2=44
Channel Event. t= 2267 (156599) Program Change ch=1 par1=70 par2=49
Channel Event. t= 88 (156687) Program Change ch=1 par1=67 par2=12
Channel Event. t= 204 (156891) Program Change ch=1 par1=64 par2=4
Channel Event. t= 91 (156982) Program Change ch=1 par1=64 par2=33
Channel Event. t= 2260 (159242) Program Change ch=1 par1=66 par2=10
Channel Event. t= 216 (159458) Program Change ch=1 par1=64 par2=30
Channel Event. t= 84 (159542) Program Change ch=1 par1=64 par2=10
Channel Event. t= 2251 (161793) Program Change ch=1 par1=77 par2=49
Channel Event. t= 91 (161884) Program Change ch=1 par1=63 par2=24
Channel Event. t= 203 (162087) Program Change ch=1 par1=64 par2=26
Channel Event. t= 2263 (164350) Program Change ch=1 par1=77 par2=6
Channel Event. t= 219 (164569) Program Change ch=1 par1=64 par2=47
Channel Event. t= 2259 (166828) Program Change ch=1 par1=57 par2=14
Channel Event. t= 215 (167043) Program Change ch=1 par1=64 par2=16
Channel Event. t= 83 (167126) Program Change ch=1 par1=64 par2=20
Channel Event. t= 2252 (169378) Program Change ch=1 par1=61 par2=46
Channel Event. t= 91 (169469) Program Change ch=1 par1=72 par2=13
Channel Event. t= 204 (169673) Program Change ch=1 par1=64 par2=36
Channel Event. t= 2264 (171937) Program Change ch=1 par1=60 par2=6
Channel Event. t= 219 (172156) Program Change ch=1 par1=64 par2=43
Channel Event. t= 2260 (174416) Program Change ch=1 par1=59 par2=8
Channel Event. t= 216 (174632) Program Change ch=1 par1=64 par2=27
Channel Event. t= 84 (174716) Program Change ch=1 par1=64 par2=9
Channel Event. t= 2251 (176967) Program Change ch=1 par1=77 par2=49
Channel Event. t= 91 (177058) Program Change ch=1 par1=67 par2=6
Channel Event. t= 203 (177261) Program Change ch=1 par1=64 par2=40
Channel Event. t= 2263 (179524) Program Change ch=1 par1=61 par2=5
Channel Event. t= 219 (179743) Program Change ch=1 par1=64 par2=40
Channel Event. t= 2259 (182002) Program Change ch=1 par1=52 par2=21
Channel Event. t= 215 (182217) Program Change ch=1 par1=64 par2=14
Channel Event. t= 83 (182300) Program Change ch=1 par1=64 par2=11
Channel Event. t= 2252 (184552) Program Change ch=1 par1=63 par2=0
Channel Event. t= 6282 (190834) Program Change ch=1 par1=20 par2=48
Channel Event. t= 2267 (193101) Program Change ch=1 par1=72 par2=5
Channel Event. t= 204 (193305) Program Change ch=1 par1=64 par2=47
Channel Event. t= 2264 (195569) Program Change ch=1 par1=62 par2=7
Channel Event. t= 219 (195788) Program Change ch=1 par1=64 par2=43
Channel Event. t= 2260 (198048) Program Change ch=1 par1=66 par2=7
Channel Event. t= 216 (198264) Program Change ch=1 par1=64 par2=26
Channel Event. t= 84 (198348) Program Change ch=1 par1=64 par2=16
Channel Event. t= 2251 (200599) Program Change ch=1 par1=75 par2=41
Channel Event. t= 91 (200690) Program Change ch=1 par1=69 par2=7
Channel Event. t= 203 (200893) Program Change ch=1 par1=64 par2=38
Channel Event. t= 2263 (203156) Program Change ch=1 par1=67 par2=8
Channel Event. t= 219 (203375) Program Change ch=1 par1=64 par2=45
Channel Event. t= 2259 (205634) Program Change ch=1 par1=58 par2=10
Channel Event. t= 215 (205849) Program Change ch=1 par1=64 par2=22
Channel Event. t= 83 (205932) Program Change ch=1 par1=64 par2=15
Channel Event. t= 2252 (208184) Program Change ch=1 par1=71 par2=48
Channel Event. t= 204 (208388) Program Change ch=1 par1=64 par2=0
Channel Event. t= 2267 (210655) Program Change ch=1 par1=76 par2=50
Channel Event. t= 88 (210743) Program Change ch=1 par1=51 par2=5
Channel Event. t= 219 (210962) Program Change ch=1 par1=64 par2=38
Channel Event. t= 2260 (213222) Program Change ch=1 par1=65 par2=6
Channel Event. t= 216 (213438) Program Change ch=1 par1=64 par2=20
Channel Event. t= 84 (213522) Program Change ch=1 par1=64 par2=24
Channel Event. t= 2251 (215773) Program Change ch=1 par1=87 par2=41
Channel Event. t= 203 (215976) Program Change ch=1 par1=64 par2=7
Channel Event. t= 2267 (218243) Program Change ch=1 par1=73 par2=48
Channel Event. t= 87 (218330) Program Change ch=1 par1=67 par2=7
Channel Event. t= 219 (218549) Program Change ch=1 par1=64 par2=41
Channel Event. t= 2259 (220808) Program Change ch=1 par1=72 par2=7
Channel Event. t= 215 (221023) Program Change ch=1 par1=64 par2=24
Channel Event. t= 83 (221106) Program Change ch=1 par1=64 par2=17
Channel Event. t= 2267 (223373) Program Change ch=1 par1=89 par2=48
Channel Event. t= 86 (223459) Program Change ch=1 par1=69 par2=47
Channel Event. t= 214 (223673) Program Change ch=1 par1=64 par2=1
Channel Event. t= 2259 (225932) Program Change ch=1 par1=71 par2=1
Channel Event. t= 219 (226151) Program Change ch=1 par1=64 par2=47
Channel Event. t= 2255 (228406) Program Change ch=1 par1=73 par2=14
Channel Event. t= 211 (228617) Program Change ch=1 par1=64 par2=30
Channel Event. t= 79 (228696) Program Change ch=1 par1=64 par2=4
Channel Event. t= 2254 (230950) Program Change ch=1 par1=87 par2=48
Channel Event. t= 79 (231029) Program Change ch=1 par1=69 par2=41
Channel Event. t= 206 (231235) Program Change ch=1 par1=64 par2=7
Channel Event. t= 2259 (233494) Program Change ch=1 par1=63 par2=8
Channel Event. t= 207 (233701) Program Change ch=1 par1=64 par2=40
Channel Event. t= 2262 (235963) Program Change ch=1 par1=66 par2=15
Channel Event. t= 211 (236174) Program Change ch=1 par1=64 par2=33
Channel Event. t= 2274 (238448) Program Change ch=1 par1=88 par2=5
Channel Event. t= 214 (238662) Program Change ch=1 par1=64 par2=43
Channel Event. t= 2269 (240931) Program Change ch=1 par1=63 par2=48
Channel Event. t= 90 (241021) Program Change ch=1 par1=71 par2=48
Channel Event. t= 86 (241107) Program Change ch=1 par1=70 par2=48
Channel Event. t= 81 (241188) Program Change ch=1 par1=72 par2=2
Channel Event. t= 214 (241402) Program Change ch=1 par1=64 par2=2
Channel Event. t= 90 (241492) Program Change ch=1 par1=64 par2=6
Channel Event. t= 93 (241585) Program Change ch=1 par1=64 par2=31
Channel Event. t= 98 (241683) Program Change ch=1 par1=64 par2=7
Channel Event. t= 2262 (243945) Program Change ch=1 par1=70 par2=48
Channel Event. t= 90 (244035) Program Change ch=1 par1=78 par2=3
Channel Event. t= 209 (244244) Program Change ch=1 par1=64 par2=9
Channel Event. t= 86 (244330) Program Change ch=1 par1=64 par2=36
Channel Event. t= 2269 (246599) Program Change ch=1 par1=69 par2=47
Channel Event. t= 221 (246820) Program Change ch=1 par1=64 par2=1
Channel Event. t= 90 (246910) Program Change ch=1 par1=64 par2=0
Channel Event. t= 2267 (249177) Program Change ch=1 par1=78 par2=47
Channel Event. t= 219 (249396) Program Change ch=1 par1=64 par2=1
Channel Event. t= 2259 (251655) Program Change ch=1 par1=64 par2=48
Channel Event. t= 86 (251741) Program Change ch=1 par1=71 par2=9
Channel Event. t= 211 (251952) Program Change ch=1 par1=64 par2=37
Channel Event. t= 86 (252038) Program Change ch=1 par1=64 par2=2
Channel Event. t= 2267 (254305) Program Change ch=1 par1=69 par2=48
Channel Event. t= 78 (254383) Program Change ch=1 par1=77 par2=15
Channel Event. t= 219 (254602) Program Change ch=1 par1=64 par2=32
Channel Event. t= 78 (254680) Program Change ch=1 par1=64 par2=1
Channel Event. t= 2255 (256935) Program Change ch=1 par1=64 par2=48
Channel Event. t= 83 (257018) Program Change ch=1 par1=69 par2=16
Channel Event. t= 207 (257225) Program Change ch=1 par1=64 par2=29
Channel Event. t= 83 (257308) Program Change ch=1 par1=64 par2=3
Channel Event. t= 2262 (259570) Program Change ch=1 par1=76 par2=41
Channel Event. t= 214 (259784) Program Change ch=1 par1=64 par2=7
Channel Event. t= 2267 (262051) Program Change ch=1 par1=90 par2=18
Channel Event. t= 219 (262270) Program Change ch=1 par1=64 par2=78
Channel Event. t= 6282 (268552) Program Change ch=1 par1=120 par2=-68
Channel Event. t= 0 (268552) Program Change ch=1 par1=7 par2=85
Channel Event. t= 96 (268648) Note On ch=1 par1=83 par2=90
Channel Event. t= 192 (268840) Note On ch=1 par1=84 par2=89
Channel Event. t= 37 (268877) Note Off ch=1 par1=83 par2=64
Channel Event. t= 77 (268954) Note Off ch=1 par1=84 par2=64
Channel Event. t= 78 (269032) Note On ch=1 par1=86 par2=76
Channel Event. t= 74 (269106) Note Off ch=1 par1=86 par2=64
Channel Event. t= 118 (269224) Note On ch=1 par1=87 par2=101
Channel Event. t= 90 (269314) Note Off ch=1 par1=87 par2=64
Channel Event. t= 102 (269416) Note On ch=1 par1=83 par2=76
Channel Event. t= 192 (269608) Note On ch=1 par1=84 par2=97
Channel Event. t= 7 (269615) Note Off ch=1 par1=83 par2=64
Channel Event. t= 81 (269696) Note Off ch=1 par1=84 par2=64
Channel Event. t= 104 (269800) Note On ch=1 par1=86 par2=54
Channel Event. t= 54 (269854) Note Off ch=1 par1=86 par2=64
Channel Event. t= 138 (269992) Note On ch=1 par1=87 par2=101
Channel Event. t= 88 (270080) Note Off ch=1 par1=87 par2=64
Channel Event. t= 104 (270184) Note On ch=1 par1=83 par2=77
Channel Event. t= 192 (270376) Note On ch=1 par1=84 par2=80
Channel Event. t= 14 (270390) Note Off ch=1 par1=83 par2=64
Channel Event. t= 82 (270472) Note On ch=1 par1=87 par2=87
Channel Event. t= 3 (270475) Note Off ch=1 par1=84 par2=64
Channel Event. t= 78 (270553) Note On ch=1 par1=89 par2=61
Channel Event. t= 9 (270562) Note Off ch=1 par1=87 par2=64
Channel Event. t= 6 (270568) Note On ch=1 par1=88 par2=61
Channel Event. t= 47 (270615) Note Off ch=1 par1=89 par2=64
Channel Event. t= 49 (270664) Note On ch=1 par1=91 par2=81
Channel Event. t= 8 (270672) Note Off ch=1 par1=88 par2=64
Channel Event. t= 88 (270760) Note On ch=1 par1=95 par2=90
Channel Event. t= 14 (270774) Note Off ch=1 par1=91 par2=64
Channel Event. t= 176 (270950) Note Off ch=1 par1=95 par2=64
Channel Event. t= 2 (270952) Note On ch=1 par1=94 par2=97
Channel Event. t= 96 (271048) Note On ch=1 par1=95 par2=85
Channel Event. t= 31 (271079) Note Off ch=1 par1=94 par2=64
Channel Event. t= 65 (271144) Note On ch=1 par1=96 par2=94
Channel Event. t= 14 (271158) Note Off ch=1 par1=95 par2=64
Channel Event. t= 178 (271336) Note On ch=1 par1=100 par2=92
Channel Event. t= 8 (271344) Note Off ch=1 par1=96 par2=64
Channel Event. t= 184 (271528) Note On ch=1 par1=99 par2=91
Channel Event. t= 16 (271544) Note Off ch=1 par1=100 par2=64
Channel Event. t= 244 (271788) Note Off ch=1 par1=99 par2=64
Channel Event. t= 124 (271912) Note On ch=1 par1=96 par2=84
Channel Event. t= 96 (272008) Note Off ch=1 par1=96 par2=64
Channel Event. t= 96 (272104) Note On ch=1 par1=100 par2=72
Channel Event. t= 92 (272196) Note Off ch=1 par1=100 par2=64
Channel Event. t= 100 (272296) Note On ch=1 par1=99 par2=89
Channel Event. t= 96 (272392) Note On ch=1 par1=100 par2=63
Channel Event. t= 8 (272400) Note Off ch=1 par1=99 par2=64
Channel Event. t= 40 (272440) Note On ch=1 par1=99 par2=67
Channel Event. t= 16 (272456) Note Off ch=1 par1=100 par2=64
Channel Event. t= 32 (272488) Note On ch=1 par1=95 par2=72
Channel Event. t= 18 (272506) Note Off ch=1 par1=99 par2=64
Channel Event. t= 71 (272577) Note Off ch=1 par1=95 par2=64
Channel Event. t= 7 (272584) Note On ch=1 par1=90 par2=85
Channel Event. t= 96 (272680) Note On ch=1 par1=91 par2=93
Channel Event. t= 10 (272690) Note Off ch=1 par1=90 par2=64
Channel Event. t= 77 (272767) Note Off ch=1 par1=91 par2=64
Channel Event. t= 105 (272872) Note On ch=1 par1=96 par2=88
Channel Event. t= 63 (272935) Note Off ch=1 par1=96 par2=64
Channel Event. t= 129 (273064) Note On ch=1 par1=95 par2=103
Channel Event. t= 96 (273160) Note On ch=1 par1=96 par2=74
Channel Event. t= 13 (273173) Note Off ch=1 par1=95 par2=64
Channel Event. t= 35 (273208) Note On ch=1 par1=95 par2=63
Channel Event. t= 15 (273223) Note Off ch=1 par1=96 par2=64
Channel Event. t= 33 (273256) Note On ch=1 par1=90 par2=72
Channel Event. t= 9 (273265) Note Off ch=1 par1=95 par2=64
Channel Event. t= 80 (273345) Note Off ch=1 par1=90 par2=64
Channel Event. t= 7 (273352) Note On ch=1 par1=87 par2=56
Channel Event. t= 76 (273428) Note Off ch=1 par1=87 par2=64
Channel Event. t= 20 (273448) Note On ch=1 par1=87 par2=59
Channel Event. t= 0 (273448) Note On ch=1 par1=88 par2=75
Channel Event. t= 20 (273468) Note Off ch=1 par1=87 par2=64
Channel Event. t= 42 (273510) Note Off ch=1 par1=88 par2=64
Channel Event. t= 130 (273640) Note On ch=1 par1=91 par2=81
Channel Event. t= 49 (273689) Note Off ch=1 par1=91 par2=64
Channel Event. t= 143 (273832) Note On ch=1 par1=90 par2=101
Channel Event. t= 150 (273982) Note Off ch=1 par1=90 par2=64
Channel Event. t= 42 (274024) Note On ch=1 par1=86 par2=88
Channel Event. t= 96 (274120) Note On ch=1 par1=87 par2=59
Channel Event. t= 2 (274122) Note Off ch=1 par1=86 par2=64
Channel Event. t= 94 (274216) Note On ch=1 par1=88 par2=65
Channel Event. t= 13 (274229) Note Off ch=1 par1=87 par2=64
Channel Event. t= 51 (274280) Note Off ch=1 par1=88 par2=64
Channel Event. t= 128 (274408) Note On ch=1 par1=91 par2=84
Channel Event. t= 62 (274470) Note Off ch=1 par1=91 par2=64
Channel Event. t= 130 (274600) Note On ch=1 par1=90 par2=103
Channel Event. t= 151 (274751) Note Off ch=1 par1=90 par2=64
Channel Event. t= 41 (274792) Note On ch=1 par1=86 par2=85
Channel Event. t= 96 (274888) Note On ch=1 par1=87 par2=72
Channel Event. t= 13 (274901) Note Off ch=1 par1=86 par2=64
Channel Event. t= 83 (274984) Note Off ch=1 par1=87 par2=64
Channel Event. t= 0 (274984) Note On ch=1 par1=88 par2=88
Channel Event. t= 69 (275053) Note Off ch=1 par1=88 par2=64
Channel Event. t= 123 (275176) Note On ch=1 par1=91 par2=78
Channel Event. t= 61 (275237) Note Off ch=1 par1=91 par2=64
Channel Event. t= 131 (275368) Note On ch=1 par1=90 par2=101
Channel Event. t= 384 (275752) Note On ch=1 par1=83 par2=78
Channel Event. t= 4 (275756) Note Off ch=1 par1=90 par2=64
Channel Event. t= 380 (276136) Note On ch=1 par1=95 par2=74
Channel Event. t= 9 (276145) Note Off ch=1 par1=83 par2=64
Channel Event. t= 935 (277080) Note Off ch=1 par1=95 par2=64
Channel Event. t= 16 (277096) Note On ch=1 par1=95 par2=80
Channel Event. t= 192 (277288) Note On ch=1 par1=96 par2=88
Channel Event. t= 19 (277307) Note Off ch=1 par1=95 par2=64
Channel Event. t= 769 (278076) Note Off ch=1 par1=96 par2=64
Channel Event. t= 0 (278076) 
Meta Event. Type: 0x2f (47dec), End of Track (0 bytes): 
track #7
track size: 1544
Channel Event. t= 0 (0) 
Meta Event. Type: 0x21 (33dec), MIDI Port (1 bytes): 0
Channel Event. t= 0 (0) 
Meta Event. Type: 0x3 (3dec), Sequence/Track Name (20 bytes): Oboe                
Channel Event. t= 0 (0) Program Change ch=2 par1=84 par2=-116
Channel Event. t= 0 (0) Controller ch=2 par1=10 (Pan) par2=30
Channel Event. t= 0 (0) Program Change ch=2 par1=48 par2=48
Channel Event. t= 6407 (6407) Program Change ch=2 par1=80 par2=-123
Channel Event. t= 80 (6487) Note On ch=2 par1=60 par2=77
Channel Event. t= 384 (6871) Note On ch=2 par1=67 par2=80
Channel Event. t= 11 (6882) Note Off ch=2 par1=60 par2=64
Channel Event. t= 277 (7159) Note On ch=2 par1=69 par2=83
Channel Event. t= 5 (7164) Note Off ch=2 par1=67 par2=64
Channel Event. t= 91 (7255) Note On ch=2 par1=72 par2=89
Channel Event. t= 6 (7261) Note Off ch=2 par1=69 par2=64
Channel Event. t= 175 (7436) Note Off ch=2 par1=72 par2=64
Channel Event. t= 11 (7447) Note On ch=2 par1=76 par2=89
Channel Event. t= 192 (7639) Note On ch=2 par1=72 par2=90
Channel Event. t= 14 (7653) Note Off ch=2 par1=76 par2=64
Channel Event. t= 229 (7882) Note Off ch=2 par1=72 par2=64
Channel Event. t= 45 (7927) Note On ch=2 par1=69 par2=74
Channel Event. t= 96 (8023) Note On ch=2 par1=72 par2=86
Channel Event. t= 29 (8052) Note Off ch=2 par1=69 par2=64
Channel Event. t= 163 (8215) Note On ch=2 par1=76 par2=90
Channel Event. t= 11 (8226) Note Off ch=2 par1=72 par2=64
Channel Event. t= 181 (8407) Note On ch=2 par1=75 par2=96
Channel Event. t= 22 (8429) Note Off ch=2 par1=76 par2=64
Channel Event. t= 266 (8695) Note On ch=2 par1=76 par2=83
Channel Event. t= 5 (8700) Note Off ch=2 par1=75 par2=64
Channel Event. t= 91 (8791) Note On ch=2 par1=72 par2=74
Channel Event. t= 1 (8792) Note Off ch=2 par1=76 par2=64
Channel Event. t= 191 (8983) Note On ch=2 par1=69 par2=75
Channel Event. t= 4 (8987) Note Off ch=2 par1=72 par2=64
Channel Event. t= 188 (9175) Note On ch=2 par1=67 par2=70
Channel Event. t= 16 (9191) Note Off ch=2 par1=69 par2=64
Channel Event. t= 176 (9367) Note On ch=2 par1=65 par2=78
Channel Event. t= 18 (9385) Note Off ch=2 par1=67 par2=64
Channel Event. t= 174 (9559) Note On ch=2 par1=63 par2=80
Channel Event. t= 15 (9574) Note Off ch=2 par1=65 par2=64
Channel Event. t= 369 (9943) Note On ch=2 par1=70 par2=87
Channel Event. t= 8 (9951) Note Off ch=2 par1=63 par2=64
Channel Event. t= 181 (10132) Note Off ch=2 par1=70 par2=64
Channel Event. t= 3 (10135) Note On ch=2 par1=74 par2=74
Channel Event. t= 192 (10327) Note On ch=2 par1=63 par2=94
Channel Event. t= 12 (10339) Note Off ch=2 par1=74 par2=64
Channel Event. t= 372 (10711) Note On ch=2 par1=70 par2=72
Channel Event. t= 16 (10727) Note Off ch=2 par1=63 par2=64
Channel Event. t= 176 (10903) Note On ch=2 par1=74 par2=78
Channel Event. t= 1 (10904) Note Off ch=2 par1=70 par2=64
Channel Event. t= 191 (11095) Note On ch=2 par1=70 par2=88
Channel Event. t= 14 (11109) Note Off ch=2 par1=74 par2=64
Channel Event. t= 370 (11479) Note On ch=2 par1=65 par2=79
Channel Event. t= 30 (11509) Note Off ch=2 par1=70 par2=64
Channel Event. t= 354 (11863) Note On ch=2 par1=63 par2=65
Channel Event. t= 47 (11910) Note Off ch=2 par1=65 par2=64
Channel Event. t= 545 (12455) Note Off ch=2 par1=63 par2=64
Channel Event. t= 176 (12631) Note On ch=2 par1=55 par2=82
Channel Event. t= 483 (13114) Note Off ch=2 par1=55 par2=64
Channel Event. t= 189 (13303) Note On ch=2 par1=60 par2=74
Channel Event. t= 96 (13399) Note On ch=2 par1=63 par2=77
Channel Event. t= 1 (13400) Note Off ch=2 par1=60 par2=64
Channel Event. t= 191 (13591) Note On ch=2 par1=67 par2=74
Channel Event. t= 12 (13603) Note Off ch=2 par1=63 par2=64
Channel Event. t= 180 (13783) Note On ch=2 par1=63 par2=76
Channel Event. t= 25 (13808) Note Off ch=2 par1=67 par2=64
Channel Event. t= 223 (14031) Note Off ch=2 par1=63 par2=64
Channel Event. t= 40 (14071) Note On ch=2 par1=60 par2=87
Channel Event. t= 96 (14167) Note On ch=2 par1=63 par2=84
Channel Event. t= 24 (14191) Note Off ch=2 par1=60 par2=64
Channel Event. t= 168 (14359) Note On ch=2 par1=67 par2=72
Channel Event. t= 5 (14364) Note Off ch=2 par1=63 par2=64
Channel Event. t= 187 (14551) Note On ch=2 par1=66 par2=87
Channel Event. t= 13 (14564) Note Off ch=2 par1=67 par2=64
Channel Event. t= 272 (14836) Note Off ch=2 par1=66 par2=64
Channel Event. t= 3 (14839) Note On ch=2 par1=67 par2=80
Channel Event. t= 96 (14935) Note On ch=2 par1=63 par2=88
Channel Event. t= 19 (14954) Note Off ch=2 par1=67 par2=64
Channel Event. t= 173 (15127) Note On ch=2 par1=60 par2=74
Channel Event. t= 20 (15147) Note Off ch=2 par1=63 par2=64
Channel Event. t= 169 (15316) Note Off ch=2 par1=60 par2=64
Channel Event. t= 3 (15319) Note On ch=2 par1=58 par2=74
Channel Event. t= 192 (15511) Note On ch=2 par1=56 par2=80
Channel Event. t= 5 (15516) Note Off ch=2 par1=58 par2=64
Channel Event. t= 187 (15703) Note On ch=2 par1=54 par2=82
Channel Event. t= 25 (15728) Note Off ch=2 par1=56 par2=64
Channel Event. t= 322 (16050) Note Off ch=2 par1=54 par2=64
Channel Event. t= 37 (16087) Note On ch=2 par1=54 par2=81
Channel Event. t= 192 (16279) Note On ch=2 par1=62 par2=72
Channel Event. t= 17 (16296) Note Off ch=2 par1=54 par2=64
Channel Event. t= 175 (16471) Note On ch=2 par1=54 par2=83
Channel Event. t= 27 (16498) Note Off ch=2 par1=62 par2=64
Channel Event. t= 289 (16787) Note Off ch=2 par1=54 par2=64
Channel Event. t= 68 (16855) Note On ch=2 par1=54 par2=81
Channel Event. t= 192 (17047) Note On ch=2 par1=62 par2=71
Channel Event. t= 1 (17048) Note Off ch=2 par1=54 par2=64
Channel Event. t= 191 (17239) Controller ch=2 par1=7 (Main Volume) par2=79
Channel Event. t= 0 (17239) Note On ch=2 par1=59 par2=87
Channel Event. t= 22 (17261) Note Off ch=2 par1=62 par2=64
Channel Event. t= 50 (17311) Controller ch=2 par1=7 (Main Volume) par2=78
Channel Event. t= 48 (17359) Controller ch=2 par1=7 (Main Volume) par2=77
Channel Event. t= 48 (17407) Controller ch=2 par1=7 (Main Volume) par2=76
Channel Event. t= 48 (17455) Controller ch=2 par1=7 (Main Volume) par2=75
Channel Event. t= 48 (17503) Controller ch=2 par1=7 (Main Volume) par2=74
Channel Event. t= 48 (17551) Controller ch=2 par1=7 (Main Volume) par2=73
Channel Event. t= 48 (17599) Controller ch=2 par1=7 (Main Volume) par2=72
Channel Event. t= 72 (17671) Controller ch=2 par1=7 (Main Volume) par2=71
Channel Event. t= 48 (17719) Controller ch=2 par1=7 (Main Volume) par2=70
Channel Event. t= 48 (17767) Controller ch=2 par1=7 (Main Volume) par2=69
Channel Event. t= 48 (17815) Controller ch=2 par1=7 (Main Volume) par2=68
Channel Event. t= 48 (17863) Controller ch=2 par1=7 (Main Volume) par2=67
Channel Event. t= 48 (17911) Controller ch=2 par1=7 (Main Volume) par2=66
Channel Event. t= 48 (17959) Controller ch=2 par1=7 (Main Volume) par2=65
Channel Event. t= 48 (18007) Controller ch=2 par1=7 (Main Volume) par2=64
Channel Event. t= 72 (18079) Controller ch=2 par1=7 (Main Volume) par2=63
Channel Event. t= 48 (18127) Controller ch=2 par1=7 (Main Volume) par2=62
Channel Event. t= 48 (18175) Controller ch=2 par1=7 (Main Volume) par2=61
Channel Event. t= 48 (18223) Controller ch=2 par1=7 (Main Volume) par2=60
Channel Event. t= 48 (18271) Controller ch=2 par1=7 (Main Volume) par2=59
Channel Event. t= 48 (18319) Controller ch=2 par1=7 (Main Volume) par2=58
Channel Event. t= 48 (18367) Controller ch=2 par1=7 (Main Volume) par2=57
Channel Event. t= 72 (18439) Controller ch=2 par1=7 (Main Volume) par2=56
Channel Event. t= 48 (18487) Controller ch=2 par1=7 (Main Volume) par2=55
Channel Event. t= 48 (18535) Controller ch=2 par1=7 (Main Volume) par2=54
Channel Event. t= 48 (18583) Controller ch=2 par1=7 (Main Volume) par2=53
Channel Event. t= 48 (18631) Controller ch=2 par1=7 (Main Volume) par2=52
Channel Event. t= 48 (18679) Controller ch=2 par1=7 (Main Volume) par2=51
Channel Event. t= 9 (18688) Note Off ch=2 par1=59 par2=64
Channel Event. t= 39 (18727) Controller ch=2 par1=7 (Main Volume) par2=50
Channel Event. t= 36 (18763) Controller ch=2 par1=7 (Main Volume) par2=60
Channel Event. t= 16 (18779) Note On ch=2 par1=64 par2=74
Channel Event. t= 44 (18823) Note Off ch=2 par1=64 par2=64
Channel Event. t= 130 (18953) Note On ch=2 par1=67 par2=50
Channel Event. t= 14 (18967) Note On ch=2 par1=72 par2=63
Channel Event. t= 7 (18974) Note On ch=2 par1=76 par2=73
Channel Event. t= 9 (18983) Note On ch=2 par1=79 par2=79
Channel Event. t= 15 (18998) Note Off ch=2 par1=67 par2=64
Channel Event. t= 6 (19004) Note Off ch=2 par1=72 par2=64
Channel Event. t= 0 (19004) Note Off ch=2 par1=76 par2=64
Channel Event. t= 7 (19011) Note Off ch=2 par1=79 par2=64
Channel Event. t= 148 (19159) Note On ch=2 par1=63 par2=80
Channel Event. t= 35 (19194) Note Off ch=2 par1=63 par2=64
Channel Event. t= 137 (19331) Note On ch=2 par1=67 par2=52
Channel Event. t= 12 (19343) Note On ch=2 par1=71 par2=73
Channel Event. t= 5 (19348) Note On ch=2 par1=75 par2=82
Channel Event. t= 6 (19354) Note On ch=2 par1=79 par2=76
Channel Event. t= 17 (19371) Note Off ch=2 par1=67 par2=64
Channel Event. t= 5 (19376) Note Off ch=2 par1=71 par2=64
Channel Event. t= 5 (19381) Note Off ch=2 par1=75 par2=64
Channel Event. t= 9 (19390) Note Off ch=2 par1=79 par2=64
Channel Event. t= 327 (19717) Note On ch=2 par1=67 par2=51
Channel Event. t= 14 (19731) Note On ch=2 par1=72 par2=62
Channel Event. t= 6 (19737) Note On ch=2 par1=76 par2=67
Channel Event. t= 6 (19743) Note On ch=2 par1=79 par2=80
Channel Event. t= 17 (19760) Note Off ch=2 par1=67 par2=64
Channel Event. t= 9 (19769) Note Off ch=2 par1=72 par2=64
Channel Event. t= 0 (19769) Note Off ch=2 par1=76 par2=64
Channel Event. t= 7 (19776) Note Off ch=2 par1=79 par2=64
Channel Event. t= 151 (19927) Note On ch=2 par1=63 par2=81
Channel Event. t= 22 (19949) Note Off ch=2 par1=63 par2=64
Channel Event. t= 145 (20094) Note On ch=2 par1=67 par2=43
Channel Event. t= 12 (20106) Note On ch=2 par1=71 par2=66
Channel Event. t= 4 (20110) Note On ch=2 par1=75 par2=76
Channel Event. t= 7 (20117) Note On ch=2 par1=79 par2=74
Channel Event. t= 24 (20141) Note Off ch=2 par1=67 par2=64
Channel Event. t= 4 (20145) Note Off ch=2 par1=71 par2=64
Channel Event. t= 6 (20151) Note Off ch=2 par1=75 par2=64
Channel Event. t= 8 (20159) Note Off ch=2 par1=79 par2=64
Channel Event. t= 310 (20469) Note On ch=2 par1=67 par2=44
Channel Event. t= 12 (20481) Note On ch=2 par1=72 par2=66
Channel Event. t= 11 (20492) Note On ch=2 par1=76 par2=61
Channel Event. t= 11 (20503) Note On ch=2 par1=79 par2=81
Channel Event. t= 10 (20513) Note Off ch=2 par1=67 par2=64
Channel Event. t= 5 (20518) Note Off ch=2 par1=72 par2=64
Channel Event. t= 2 (20520) Note Off ch=2 par1=76 par2=64
Channel Event. t= 17 (20537) Note Off ch=2 par1=79 par2=64
Channel Event. t= 158 (20695) Note On ch=2 par1=63 par2=75
Channel Event. t= 28 (20723) Note Off ch=2 par1=63 par2=64
Channel Event. t= 122 (20845) Note On ch=2 par1=67 par2=38
Channel Event. t= 14 (20859) Note On ch=2 par1=71 par2=69
Channel Event. t= 5 (20864) Note On ch=2 par1=75 par2=83
Channel Event. t= 23 (20887) Note On ch=2 par1=79 par2=75
Channel Event. t= 5 (20892) Note Off ch=2 par1=67 par2=64
Channel Event. t= 5 (20897) Note Off ch=2 par1=71 par2=64
Channel Event. t= 6 (20903) Note Off ch=2 par1=75 par2=64
Channel Event. t= 20 (20923) Note Off ch=2 par1=79 par2=64
Channel Event. t= 156 (21079) Note On ch=2 par1=64 par2=79
Channel Event. t= 37 (21116) Note Off ch=2 par1=64 par2=64
Channel Event. t= 117 (21233) Note On ch=2 par1=67 par2=45
Channel Event. t= 12 (21245) Note On ch=2 par1=72 par2=64
Channel Event. t= 10 (21255) Note On ch=2 par1=76 par2=64
Channel Event. t= 16 (21271) Note On ch=2 par1=79 par2=73
Channel Event. t= 9 (21280) Note Off ch=2 par1=67 par2=64
Channel Event. t= 5 (21285) Note Off ch=2 par1=72 par2=64
Channel Event. t= 1 (21286) Note Off ch=2 par1=76 par2=64
Channel Event. t= 19 (21305) Note Off ch=2 par1=79 par2=64
Channel Event. t= 158 (21463) Note On ch=2 par1=63 par2=80
Channel Event. t= 34 (21497) Note Off ch=2 par1=63 par2=64
Channel Event. t= 120 (21617) Note On ch=2 par1=67 par2=58
Channel Event. t= 9 (21626) Note On ch=2 par1=71 par2=78
Channel Event. t= 23 (21649) Note On ch=2 par1=75 par2=86
Channel Event. t= 6 (21655) Note On ch=2 par1=79 par2=76
Channel Event. t= 4 (21659) Note Off ch=2 par1=67 par2=64
Channel Event. t= 7 (21666) Note Off ch=2 par1=71 par2=64
Channel Event. t= 21 (21687) Note Off ch=2 par1=75 par2=64
Channel Event. t= 4 (21691) Note Off ch=2 par1=79 par2=64
Channel Event. t= 3948 (25639) Controller ch=2 par1=7 (Main Volume) par2=60
Channel Event. t= 36 (25675) Program Change ch=2 par1=84 par2=12
Channel Event. t= 2380 (28055) Program Change ch=2 par1=92 par2=-127
Channel Event. t= 68 (28123) Note Off ch=2 par1=76 par2=64
Channel Event. t= 188 (28311) Note On ch=2 par1=75 par2=98
Channel Event. t= 243 (28554) Note Off ch=2 par1=75 par2=64
Channel Event. t= 141 (28695) Note On ch=2 par1=76 par2=93
Channel Event. t= 221 (28916) Note Off ch=2 par1=76 par2=64
Channel Event. t= 163 (29079) Note On ch=2 par1=75 par2=97
Channel Event. t= 206 (29285) Note Off ch=2 par1=75 par2=64
Channel Event. t= 178 (29463) Note On ch=2 par1=76 par2=90
Channel Event. t= 226 (29689) Note Off ch=2 par1=76 par2=64
Channel Event. t= 158 (29847) Note On ch=2 par1=75 par2=94
Channel Event. t= 212 (30059) Note Off ch=2 par1=75 par2=64
Channel Event. t= 172 (30231) Note On ch=2 par1=76 par2=91
Channel Event. t= 209 (30440) Note Off ch=2 par1=76 par2=64
Channel Event. t= 175 (30615) Note On ch=2 par1=75 par2=96
Channel Event. t= 241 (30856) Note Off ch=2 par1=75 par2=64
Channel Event. t= 31631 (62487) Controller ch=2 par1=7 (Main Volume) par2=84
Channel Event. t= 72 (62559) Controller ch=2 par1=7 (Main Volume) par2=83
Channel Event. t= 72 (62631) Controller ch=2 par1=7 (Main Volume) par2=82
Channel Event. t= 72 (62703) Controller ch=2 par1=7 (Main Volume) par2=81
Channel Event. t= 48 (62751) Controller ch=2 par1=7 (Main Volume) par2=80
Channel Event. t= 72 (62823) Controller ch=2 par1=7 (Main Volume) par2=79
Channel Event. t= 72 (62895) Controller ch=2 par1=7 (Main Volume) par2=78
Channel Event. t= 72 (62967) Controller ch=2 par1=7 (Main Volume) par2=77
Channel Event. t= 48 (63015) Controller ch=2 par1=7 (Main Volume) par2=76
Channel Event. t= 72 (63087) Controller ch=2 par1=7 (Main Volume) par2=75
Channel Event. t= 72 (63159) Controller ch=2 par1=7 (Main Volume) par2=74
Channel Event. t= 72 (63231) Controller ch=2 par1=7 (Main Volume) par2=73
Channel Event. t= 37 (63268) Note On ch=2 par1=55 par2=56
Channel Event. t= 11 (63279) Controller ch=2 par1=7 (Main Volume) par2=72
Channel Event. t= 72 (63351) Controller ch=2 par1=7 (Main Volume) par2=71
Channel Event. t= 72 (63423) Controller ch=2 par1=7 (Main Volume) par2=70
Channel Event. t= 72 (63495) Controller ch=2 par1=7 (Main Volume) par2=69
Channel Event. t= 48 (63543) Controller ch=2 par1=7 (Main Volume) par2=68
Channel Event. t= 72 (63615) Controller ch=2 par1=7 (Main Volume) par2=67
Channel Event. t= 25 (63640) Note On ch=2 par1=57 par2=54
Channel Event. t= 27 (63667) Note Off ch=2 par1=55 par2=64
Channel Event. t= 20 (63687) Controller ch=2 par1=7 (Main Volume) par2=66
Channel Event. t= 72 (63759) Controller ch=2 par1=7 (Main Volume) par2=65
Channel Event. t= 48 (63807) Controller ch=2 par1=7 (Main Volume) par2=64
Channel Event. t= 72 (63879) Controller ch=2 par1=7 (Main Volume) par2=63
Channel Event. t= 72 (63951) Controller ch=2 par1=7 (Main Volume) par2=62
Channel Event. t= 58 (64009) Note On ch=2 par1=60 par2=83
Channel Event. t= 12 (64021) Note Off ch=2 par1=57 par2=64
Channel Event. t= 2 (64023) Controller ch=2 par1=7 (Main Volume) par2=61
Channel Event. t= 48 (64071) Controller ch=2 par1=7 (Main Volume) par2=60
Channel Event. t= 72 (64143) Controller ch=2 par1=7 (Main Volume) par2=59
Channel Event. t= 72 (64215) Controller ch=2 par1=7 (Main Volume) par2=58
Channel Event. t= 72 (64287) Controller ch=2 par1=7 (Main Volume) par2=57
Channel Event. t= 48 (64335) Controller ch=2 par1=7 (Main Volume) par2=56
Channel Event. t= 69 (64404) Note On ch=2 par1=67 par2=79
Channel Event. t= 3 (64407) Controller ch=2 par1=7 (Main Volume) par2=55
Channel Event. t= 15 (64422) Note Off ch=2 par1=60 par2=64
Channel Event. t= 57 (64479) Controller ch=2 par1=7 (Main Volume) par2=54
Channel Event. t= 48 (64527) Controller ch=2 par1=7 (Main Volume) par2=53
Channel Event. t= 72 (64599) Controller ch=2 par1=7 (Main Volume) par2=52
Channel Event. t= 72 (64671) Controller ch=2 par1=7 (Main Volume) par2=51
Channel Event. t= 18 (64689) Note On ch=2 par1=69 par2=86
Channel Event. t= 22 (64711) Note Off ch=2 par1=67 par2=64
Channel Event. t= 32 (64743) Controller ch=2 par1=7 (Main Volume) par2=50
Channel Event. t= 42 (64785) Note On ch=2 par1=72 par2=93
Channel Event. t= 15 (64800) Note Off ch=2 par1=69 par2=64
Channel Event. t= 171 (64971) Note On ch=2 par1=76 par2=93
Channel Event. t= 12 (64983) Note Off ch=2 par1=72 par2=64
Channel Event. t= 187 (65170) Note On ch=2 par1=72 par2=94
Channel Event. t= 19 (65189) Note Off ch=2 par1=76 par2=64
Channel Event. t= 236 (65425) Note Off ch=2 par1=72 par2=64
Channel Event. t= 50 (65475) Note On ch=2 par1=69 par2=81
Channel Event. t= 80 (65555) Note On ch=2 par1=72 par2=93
Channel Event. t= 18 (65573) Note Off ch=2 par1=69 par2=64
Channel Event. t= 175 (65748) Note On ch=2 par1=76 par2=75
Channel Event. t= 12 (65760) Note Off ch=2 par1=72 par2=64
Channel Event. t= 177 (65937) Note On ch=2 par1=75 par2=92
Channel Event. t= 21 (65958) Note Off ch=2 par1=76 par2=64
Channel Event. t= 268 (66226) Note Off ch=2 par1=75 par2=64
Channel Event. t= 13 (66239) Note On ch=2 par1=76 par2=82
Channel Event. t= 95 (66334) Note On ch=2 par1=72 par2=91
Channel Event. t= 16 (66350) Note Off ch=2 par1=76 par2=64
Channel Event. t= 172 (66522) Note On ch=2 par1=69 par2=86
Channel Event. t= 10 (66532) Note Off ch=2 par1=72 par2=64
Channel Event. t= 178 (66710) Note On ch=2 par1=67 par2=82
Channel Event. t= 21 (66731) Note Off ch=2 par1=69 par2=64
Channel Event. t= 169 (66900) Note On ch=2 par1=65 par2=86
Channel Event. t= 17 (66917) Note Off ch=2 par1=67 par2=64
Channel Event. t= 150 (67067) Note Off ch=2 par1=65 par2=64
Channel Event. t= 35 (67102) Note On ch=2 par1=63 par2=100
Channel Event. t= 374 (67476) Note On ch=2 par1=70 par2=80
Channel Event. t= 9 (67485) Note Off ch=2 par1=63 par2=64
Channel Event. t= 180 (67665) Note On ch=2 par1=74 par2=76
Channel Event. t= 10 (67675) Note Off ch=2 par1=70 par2=64
Channel Event. t= 187 (67862) Note On ch=2 par1=63 par2=92
Channel Event. t= 17 (67879) Note Off ch=2 par1=74 par2=64
Channel Event. t= 370 (68249) Note On ch=2 par1=70 par2=82
Channel Event. t= 17 (68266) Note Off ch=2 par1=63 par2=64
Channel Event. t= 171 (68437) Note On ch=2 par1=74 par2=89
Channel Event. t= 9 (68446) Note Off ch=2 par1=70 par2=64
Channel Event. t= 193 (68639) Note On ch=2 par1=70 par2=88
Channel Event. t= 22 (68661) Note Off ch=2 par1=74 par2=64
Channel Event. t= 340 (69001) Note On ch=2 par1=65 par2=78
Channel Event. t= 21 (69022) Note Off ch=2 par1=70 par2=64
Channel Event. t= 377 (69399) Note On ch=2 par1=63 par2=85
Channel Event. t= 23 (69422) Note Off ch=2 par1=65 par2=64
Channel Event. t= 520 (69942) Note Off ch=2 par1=63 par2=64
Channel Event. t= 16 (69958) Note On ch=2 par1=66 par2=91
Channel Event. t= 201 (70159) Note On ch=2 par1=67 par2=85
Channel Event. t= 1 (70160) Note On ch=2 par1=63 par2=95
Channel Event. t= 21 (70181) Note Off ch=2 par1=66 par2=64
Channel Event. t= 371 (70552) Note On ch=2 par1=70 par2=96
Channel Event. t= 18 (70570) Note Off ch=2 par1=63 par2=64
Channel Event. t= 0 (70570) Note Off ch=2 par1=67 par2=64
Channel Event. t= 270 (70840) Note On ch=2 par1=72 par2=84
Channel Event. t= 3 (70843) Note Off ch=2 par1=70 par2=64
Channel Event. t= 84 (70927) Note On ch=2 par1=75 par2=97
Channel Event. t= 20 (70947) Note Off ch=2 par1=72 par2=64
Channel Event. t= 172 (71119) Note On ch=2 par1=79 par2=84
Channel Event. t= 11 (71130) Note Off ch=2 par1=75 par2=64
Channel Event. t= 186 (71316) Note On ch=2 par1=75 par2=93
Channel Event. t= 22 (71338) Note Off ch=2 par1=79 par2=64
Channel Event. t= 262 (71600) Note On ch=2 par1=72 par2=85
Channel Event. t= 13 (71613) Note Off ch=2 par1=75 par2=64
Channel Event. t= 79 (71692) Note On ch=2 par1=75 par2=91
Channel Event. t= 23 (71715) Note Off ch=2 par1=72 par2=64
Channel Event. t= 178 (71893) Note On ch=2 par1=79 par2=86
Channel Event. t= 12 (71905) Note Off ch=2 par1=75 par2=64
Channel Event. t= 189 (72094) Note On ch=2 par1=78 par2=92
Channel Event. t= 21 (72115) Note Off ch=2 par1=79 par2=64
Channel Event. t= 253 (72368) Note On ch=2 par1=79 par2=80
Channel Event. t= 16 (72384) Note Off ch=2 par1=78 par2=64
Channel Event. t= 88 (72472) Note On ch=2 par1=75 par2=97
Channel Event. t= 19 (72491) Note Off ch=2 par1=79 par2=64
Channel Event. t= 174 (72665) Note On ch=2 par1=72 par2=88
Channel Event. t= 19 (72684) Note Off ch=2 par1=75 par2=64
Channel Event. t= 171 (72855) Note On ch=2 par1=70 par2=90
Channel Event. t= 21 (72876) Note Off ch=2 par1=72 par2=64
Channel Event. t= 171 (73047) Note On ch=2 par1=68 par2=84
Channel Event. t= 15 (73062) Note Off ch=2 par1=70 par2=64
Channel Event. t= 179 (73241) Note On ch=2 par1=66 par2=94
Channel Event. t= 6 (73247) Note Off ch=2 par1=68 par2=64
Channel Event. t= 165 (73412) Note Off ch=2 par1=66 par2=64
Channel Event. t= 22 (73434) Note On ch=2 par1=66 par2=69
Channel Event. t= 92 (73526) Note On ch=2 par1=74 par2=85
Channel Event. t= 12 (73538) Note Off ch=2 par1=66 par2=64
Channel Event. t= 91 (73629) Note On ch=2 par1=66 par2=91
Channel Event. t= 25 (73654) Note Off ch=2 par1=74 par2=64
Channel Event. t= 150 (73804) Note Off ch=2 par1=66 par2=64
Channel Event. t= 18 (73822) Note On ch=2 par1=66 par2=91
Channel Event. t= 89 (73911) Note On ch=2 par1=74 par2=89
Channel Event. t= 13 (73924) Note Off ch=2 par1=66 par2=64
Channel Event. t= 86 (74010) Note On ch=2 par1=67 par2=92
Channel Event. t= 14 (74024) Note Off ch=2 par1=74 par2=64
Channel Event. t= 125 (74149) Note Off ch=2 par1=67 par2=64
Channel Event. t= 1250 (75399) Controller ch=2 par1=7 (Main Volume) par2=56
Channel Event. t= 139 (75538) Note On ch=2 par1=68 par2=91
Channel Event. t= 94 (75632) Note On ch=2 par1=71 par2=76
Channel Event. t= 28 (75660) Note Off ch=2 par1=68 par2=64
Channel Event. t= 22 (75682) Note On ch=2 par1=63 par2=80
Channel Event. t= 21 (75703) Note Off ch=2 par1=71 par2=64
Channel Event. t= 33 (75736) Note On ch=2 par1=68 par2=88
Channel Event. t= 17 (75753) Note Off ch=2 par1=63 par2=64
Channel Event. t= 78 (75831) Note On ch=2 par1=71 par2=78
Channel Event. t= 22 (75853) Note Off ch=2 par1=68 par2=64
Channel Event. t= 28 (75881) Note On ch=2 par1=63 par2=86
Channel Event. t= 28 (75909) Note Off ch=2 par1=71 par2=64
Channel Event. t= 27 (75936) Note On ch=2 par1=68 par2=96
Channel Event. t= 16 (75952) Note Off ch=2 par1=63 par2=64
Channel Event. t= 279 (76231) Note Off ch=2 par1=68 par2=64
Channel Event. t= 84 (76315) Note On ch=2 par1=56 par2=93
Channel Event. t= 97 (76412) Note On ch=2 par1=58 par2=92
Channel Event. t= 15 (76427) Note Off ch=2 par1=56 par2=64
Channel Event. t= 37 (76464) Note Off ch=2 par1=58 par2=64
Channel Event. t= 45 (76509) Note On ch=2 par1=59 par2=95
Channel Event. t= 93 (76602) Note On ch=2 par1=61 par2=92
Channel Event. t= 24 (76626) Note Off ch=2 par1=59 par2=64
Channel Event. t= 33 (76659) Note Off ch=2 par1=61 par2=64
Channel Event. t= 43 (76702) Note On ch=2 par1=62 par2=97
Channel Event. t= 96 (76798) Note On ch=2 par1=64 par2=87
Channel Event. t= 22 (76820) Note Off ch=2 par1=62 par2=64
Channel Event. t= 28 (76848) Note Off ch=2 par1=64 par2=64
Channel Event. t= 49 (76897) Note On ch=2 par1=65 par2=97
Channel Event. t= 88 (76985) Note On ch=2 par1=66 par2=97
Channel Event. t= 22 (77007) Note Off ch=2 par1=65 par2=64
Channel Event. t= 30 (77037) Note Off ch=2 par1=66 par2=64
Channel Event. t= 42 (77079) Note On ch=2 par1=72 par2=109
Channel Event. t= 384 (77463) Note On ch=2 par1=67 par2=110
Channel Event. t= 1 (77464) Note Off ch=2 par1=72 par2=64
Channel Event. t= 95 (77559) Note Off ch=2 par1=67 par2=64
Channel Event. t= 0 (77559) 
Meta Event. Type: 0x2f (47dec), End of Track (0 bytes): 
track #8
track size: 2881
Channel Event. t= 0 (0) 
Meta Event. Type: 0x21 (33dec), MIDI Port (1 bytes): 0
Channel Event. t= 0 (0) 
Meta Event. Type: 0x3 (3dec), Sequence/Track Name (20 bytes): French Horn         
Channel Event. t= 0 (0) Program Change ch=3 par1=92 par2=-116
Channel Event. t= 0 (0) Controller ch=3 par1=10 (Pan) par2=75
Channel Event. t= 0 (0) Program Change ch=3 par1=48 par2=-127
Channel Event. t= 16 (16) Controller ch=3 par1=7 (Main Volume) par2=80
Channel Event. t= 624 (640) Note On ch=3 par1=52 par2=77
Channel Event. t= 180 (820) Note Off ch=3 par1=52 par2=64
Channel Event. t= 12 (832) Note On ch=3 par1=52 par2=67
Channel Event. t= 0 (832) Note On ch=3 par1=55 par2=65
Channel Event. t= 171 (1003) Note Off ch=3 par1=55 par2=64
Channel Event. t= 19 (1022) Note Off ch=3 par1=52 par2=64
Channel Event. t= 2 (1024) Note On ch=3 par1=57 par2=63
Channel Event. t= 0 (1024) Note On ch=3 par1=55 par2=61
Channel Event. t= 144 (1168) Note Off ch=3 par1=57 par2=64
Channel Event. t= 21 (1189) Note Off ch=3 par1=55 par2=64
Channel Event. t= 27 (1216) Note On ch=3 par1=52 par2=43
Channel Event. t= 0 (1216) Note On ch=3 par1=57 par2=56
Channel Event. t= 139 (1355) Note Off ch=3 par1=52 par2=64
Channel Event. t= 17 (1372) Note Off ch=3 par1=57 par2=64
Channel Event. t= 36 (1408) Note On ch=3 par1=52 par2=75
Channel Event. t= 160 (1568) Note Off ch=3 par1=52 par2=64
Channel Event. t= 32 (1600) Note On ch=3 par1=57 par2=63
Channel Event. t= 0 (1600) Note On ch=3 par1=52 par2=55
Channel Event. t= 157 (1757) Note Off ch=3 par1=57 par2=64
Channel Event. t= 4 (1761) Note Off ch=3 par1=52 par2=64
Channel Event. t= 31 (1792) Note On ch=3 par1=55 par2=73
Channel Event. t= 192 (1984) Note On ch=3 par1=52 par2=57
Channel Event. t= 0 (1984) Note On ch=3 par1=57 par2=61
Channel Event. t= 10 (1994) Note Off ch=3 par1=55 par2=64
Channel Event. t= 125 (2119) Note Off ch=3 par1=52 par2=64
Channel Event. t= 2 (2121) Note Off ch=3 par1=57 par2=64
Channel Event. t= 55 (2176) Note On ch=3 par1=52 par2=76
Channel Event. t= 141 (2317) Note Off ch=3 par1=52 par2=64
Channel Event. t= 51 (2368) Note On ch=3 par1=55 par2=62
Channel Event. t= 0 (2368) Note On ch=3 par1=52 par2=65
Channel Event. t= 192 (2560) Note On ch=3 par1=51 par2=73
Channel Event. t= 0 (2560) Note On ch=3 par1=54 par2=80
Channel Event. t= 10 (2570) Note Off ch=3 par1=55 par2=64
Channel Event. t= 23 (2593) Note Off ch=3 par1=52 par2=64
Channel Event. t= 129 (2722) Note Off ch=3 par1=51 par2=64
Channel Event. t= 12 (2734) Note Off ch=3 par1=54 par2=64
Channel Event. t= 18 (2752) Note On ch=3 par1=51 par2=69
Channel Event. t= 0 (2752) Note On ch=3 par1=54 par2=68
Channel Event. t= 184 (2936) Note Off ch=3 par1=54 par2=64
Channel Event. t= 1 (2937) Note Off ch=3 par1=51 par2=64
Channel Event. t= 7 (2944) Note On ch=3 par1=52 par2=90
Channel Event. t= 158 (3102) Note Off ch=3 par1=52 par2=64
Channel Event. t= 34 (3136) Note On ch=3 par1=52 par2=53
Channel Event. t= 0 (3136) Note On ch=3 par1=55 par2=73
Channel Event. t= 162 (3298) Note Off ch=3 par1=55 par2=64
Channel Event. t= 1 (3299) Note Off ch=3 par1=52 par2=64
Channel Event. t= 29 (3328) Note On ch=3 par1=57 par2=64
Channel Event. t= 0 (3328) Note On ch=3 par1=55 par2=55
Channel Event. t= 158 (3486) Note Off ch=3 par1=57 par2=64
Channel Event. t= 16 (3502) Note Off ch=3 par1=55 par2=64
Channel Event. t= 18 (3520) Note On ch=3 par1=52 par2=63
Channel Event. t= 0 (3520) Note On ch=3 par1=57 par2=63
Channel Event. t= 189 (3709) Note Off ch=3 par1=52 par2=64
Channel Event. t= 8 (3717) Note Off ch=3 par1=57 par2=64
Channel Event. t= 187 (3904) Note On ch=3 par1=48 par2=66
Channel Event. t= 0 (3904) Note On ch=3 par1=56 par2=81
Channel Event. t= 183 (4087) Note Off ch=3 par1=48 par2=64
Channel Event. t= 17 (4104) Note Off ch=3 par1=56 par2=64
Channel Event. t= 184 (4288) Note On ch=3 par1=55 par2=56
Channel Event. t= 0 (4288) Note On ch=3 par1=59 par2=68
Channel Event. t= 179 (4467) Note Off ch=3 par1=59 par2=64
Channel Event. t= 8 (4475) Note Off ch=3 par1=55 par2=64
Channel Event. t= 197 (4672) Note On ch=3 par1=48 par2=67
Channel Event. t= 0 (4672) Note On ch=3 par1=56 par2=81
Channel Event. t= 177 (4849) Note Off ch=3 par1=48 par2=64
Channel Event. t= 3 (4852) Note Off ch=3 par1=56 par2=64
Channel Event. t= 204 (5056) Note On ch=3 par1=59 par2=66
Channel Event. t= 0 (5056) Note On ch=3 par1=53 par2=65
Channel Event. t= 176 (5232) Note Off ch=3 par1=59 par2=64
Channel Event. t= 4 (5236) Note Off ch=3 par1=53 par2=64
Channel Event. t= 204 (5440) Note On ch=3 par1=60 par2=73
Channel Event. t= 0 (5440) Note On ch=3 par1=51 par2=75
Channel Event. t= 165 (5605) Note Off ch=3 par1=51 par2=64
Channel Event. t= 2 (5607) Note Off ch=3 par1=60 par2=64
Channel Event. t= 217 (5824) Note On ch=3 par1=50 par2=63
Channel Event. t= 0 (5824) Note On ch=3 par1=58 par2=72
Channel Event. t= 146 (5970) Note Off ch=3 par1=50 par2=64
Channel Event. t= 5 (5975) Note Off ch=3 par1=58 par2=64
Channel Event. t= 233 (6208) Note On ch=3 par1=55 par2=48
Channel Event. t= 0 (6208) Note On ch=3 par1=58 par2=55
Channel Event. t= 215 (6423) Note Off ch=3 par1=55 par2=64
Channel Event. t= 5 (6428) Note Off ch=3 par1=58 par2=64
Channel Event. t= 548 (6976) Note On ch=3 par1=48 par2=53
Channel Event. t= 0 (6976) Note On ch=3 par1=51 par2=66
Channel Event. t= 178 (7154) Note Off ch=3 par1=51 par2=64
Channel Event. t= 6 (7160) Note Off ch=3 par1=48 par2=64
Channel Event. t= 200 (7360) Note On ch=3 par1=53 par2=61
Channel Event. t= 0 (7360) Note On ch=3 par1=58 par2=64
Channel Event. t= 128 (7488) Note Off ch=3 par1=53 par2=64
Channel Event. t= 4 (7492) Note Off ch=3 par1=58 par2=64
Channel Event. t= 60 (7552) Note On ch=3 par1=55 par2=79
Channel Event. t= 144 (7696) Note Off ch=3 par1=55 par2=64
Channel Event. t= 48 (7744) Note On ch=3 par1=55 par2=60
Channel Event. t= 0 (7744) Note On ch=3 par1=60 par2=67
Channel Event. t= 175 (7919) Note Off ch=3 par1=60 par2=64
Channel Event. t= 14 (7933) Note Off ch=3 par1=55 par2=64
Channel Event. t= 3 (7936) Note On ch=3 par1=58 par2=78
Channel Event. t= 159 (8095) Note Off ch=3 par1=58 par2=64
Channel Event. t= 33 (8128) Note On ch=3 par1=55 par2=50
Channel Event. t= 0 (8128) Note On ch=3 par1=58 par2=51
Channel Event. t= 115 (8243) Note Off ch=3 par1=58 par2=64
Channel Event. t= 19 (8262) Note Off ch=3 par1=55 par2=64
Channel Event. t= 58 (8320) Note On ch=3 par1=55 par2=81
Channel Event. t= 172 (8492) Note Off ch=3 par1=55 par2=64
Channel Event. t= 20 (8512) Note On ch=3 par1=58 par2=71
Channel Event. t= 0 (8512) Note On ch=3 par1=55 par2=64
Channel Event. t= 144 (8656) Note Off ch=3 par1=58 par2=64
Channel Event. t= 34 (8690) Note Off ch=3 par1=55 par2=64
Channel Event. t= 14 (8704) Note On ch=3 par1=57 par2=59
Channel Event. t= 0 (8704) Note On ch=3 par1=54 par2=53
Channel Event. t= 150 (8854) Note Off ch=3 par1=57 par2=64
Channel Event. t= 3 (8857) Note Off ch=3 par1=54 par2=64
Channel Event. t= 39 (8896) Note On ch=3 par1=57 par2=55
Channel Event. t= 0 (8896) Note On ch=3 par1=54 par2=65
Channel Event. t= 169 (9065) Note Off ch=3 par1=57 par2=64
Channel Event. t= 10 (9075) Note Off ch=3 par1=54 par2=64
Channel Event. t= 13 (9088) Note On ch=3 par1=55 par2=78
Channel Event. t= 152 (9240) Note Off ch=3 par1=55 par2=64
Channel Event. t= 40 (9280) Note On ch=3 par1=58 par2=79
Channel Event. t= 0 (9280) Note On ch=3 par1=55 par2=69
Channel Event. t= 153 (9433) Note Off ch=3 par1=58 par2=64
Channel Event. t= 9 (9442) Note Off ch=3 par1=55 par2=64
Channel Event. t= 30 (9472) Note On ch=3 par1=55 par2=73
Channel Event. t= 187 (9659) Note Off ch=3 par1=55 par2=64
Channel Event. t= 5 (9664) Note On ch=3 par1=53 par2=73
Channel Event. t= 187 (9851) Note Off ch=3 par1=53 par2=64
Channel Event. t= 5 (9856) Note On ch=3 par1=50 par2=83
Channel Event. t= 765 (10621) Note Off ch=3 par1=50 par2=64
Channel Event. t= 3 (10624) Note On ch=3 par1=50 par2=85
Channel Event. t= 755 (11379) Note Off ch=3 par1=50 par2=64
Channel Event. t= 13 (11392) Controller ch=3 par1=7 (Main Volume) par2=79
Channel Event. t= 0 (11392) Note On ch=3 par1=57 par2=73
Channel Event. t= 72 (11464) Controller ch=3 par1=7 (Main Volume) par2=78
Channel Event. t= 48 (11512) Controller ch=3 par1=7 (Main Volume) par2=77
Channel Event. t= 48 (11560) Controller ch=3 par1=7 (Main Volume) par2=76
Channel Event. t= 24 (11584) Note On ch=3 par1=50 par2=71
Channel Event. t= 11 (11595) Note Off ch=3 par1=57 par2=64
Channel Event. t= 13 (11608) Controller ch=3 par1=7 (Main Volume) par2=75
Channel Event. t= 48 (11656) Controller ch=3 par1=7 (Main Volume) par2=74
Channel Event. t= 48 (11704) Controller ch=3 par1=7 (Main Volume) par2=73
Channel Event. t= 48 (11752) Controller ch=3 par1=7 (Main Volume) par2=72
Channel Event. t= 24 (11776) Note Off ch=3 par1=50 par2=64
Channel Event. t= 0 (11776) Note On ch=3 par1=55 par2=75
Channel Event. t= 48 (11824) Controller ch=3 par1=7 (Main Volume) par2=71
Channel Event. t= 48 (11872) Controller ch=3 par1=7 (Main Volume) par2=70
Channel Event. t= 48 (11920) Controller ch=3 par1=7 (Main Volume) par2=69
Channel Event. t= 30 (11950) Note Off ch=3 par1=55 par2=64
Channel Event. t= 18 (11968) Controller ch=3 par1=7 (Main Volume) par2=68
Channel Event. t= 0 (11968) Note On ch=3 par1=57 par2=76
Channel Event. t= 48 (12016) Controller ch=3 par1=7 (Main Volume) par2=67
Channel Event. t= 48 (12064) Controller ch=3 par1=7 (Main Volume) par2=66
Channel Event. t= 48 (12112) Controller ch=3 par1=7 (Main Volume) par2=65
Channel Event. t= 48 (12160) Controller ch=3 par1=7 (Main Volume) par2=64
Channel Event. t= 0 (12160) Note On ch=3 par1=55 par2=76
Channel Event. t= 11 (12171) Note Off ch=3 par1=57 par2=64
Channel Event. t= 61 (12232) Controller ch=3 par1=7 (Main Volume) par2=63
Channel Event. t= 48 (12280) Controller ch=3 par1=7 (Main Volume) par2=62
Channel Event. t= 48 (12328) Controller ch=3 par1=7 (Main Volume) par2=61
Channel Event. t= 21 (12349) Note Off ch=3 par1=55 par2=64
Channel Event. t= 3 (12352) Note On ch=3 par1=53 par2=79
Channel Event. t= 24 (12376) Controller ch=3 par1=7 (Main Volume) par2=60
Channel Event. t= 48 (12424) Controller ch=3 par1=7 (Main Volume) par2=59
Channel Event. t= 48 (12472) Controller ch=3 par1=7 (Main Volume) par2=58
Channel Event. t= 48 (12520) Controller ch=3 par1=7 (Main Volume) par2=57
Channel Event. t= 24 (12544) Note On ch=3 par1=52 par2=69
Channel Event. t= 19 (12563) Note Off ch=3 par1=53 par2=64
Channel Event. t= 29 (12592) Controller ch=3 par1=7 (Main Volume) par2=56
Channel Event. t= 48 (12640) Controller ch=3 par1=7 (Main Volume) par2=55
Channel Event. t= 48 (12688) Controller ch=3 par1=7 (Main Volume) par2=54
Channel Event. t= 48 (12736) Controller ch=3 par1=7 (Main Volume) par2=53
Channel Event. t= 0 (12736) Note On ch=3 par1=50 par2=67
Channel Event. t= 14 (12750) Note Off ch=3 par1=52 par2=64
Channel Event. t= 34 (12784) Controller ch=3 par1=7 (Main Volume) par2=52
Channel Event. t= 48 (12832) Controller ch=3 par1=7 (Main Volume) par2=51
Channel Event. t= 48 (12880) Controller ch=3 par1=7 (Main Volume) par2=50
Channel Event. t= 48 (12928) Note Off ch=3 par1=50 par2=64
Channel Event. t= 0 (12928) Note On ch=3 par1=48 par2=71
Channel Event. t= 0 (12928) Controller ch=3 par1=7 (Main Volume) par2=60
Channel Event. t= 192 (13120) Note On ch=3 par1=55 par2=69
Channel Event. t= 0 (13120) Note On ch=3 par1=60 par2=71
Channel Event. t= 8 (13128) Note Off ch=3 par1=48 par2=64
Channel Event. t= 149 (13277) Note Off ch=3 par1=55 par2=64
Channel Event. t= 6 (13283) Note Off ch=3 par1=60 par2=64
Channel Event. t= 221 (13504) Note On ch=3 par1=63 par2=68
Channel Event. t= 0 (13504) Note On ch=3 par1=54 par2=59
Channel Event. t= 116 (13620) Note Off ch=3 par1=54 par2=64
Channel Event. t= 6 (13626) Note Off ch=3 par1=63 par2=64
Channel Event. t= 262 (13888) Note On ch=3 par1=64 par2=52
Channel Event. t= 0 (13888) Note On ch=3 par1=55 par2=42
Channel Event. t= 101 (13989) Note Off ch=3 par1=55 par2=64
Channel Event. t= 11 (14000) Note Off ch=3 par1=64 par2=64
Channel Event. t= 272 (14272) Note On ch=3 par1=54 par2=44
Channel Event. t= 0 (14272) Note On ch=3 par1=63 par2=65
Channel Event. t= 83 (14355) Note Off ch=3 par1=54 par2=64
Channel Event. t= 17 (14372) Note Off ch=3 par1=63 par2=64
Channel Event. t= 284 (14656) Note On ch=3 par1=64 par2=46
Channel Event. t= 0 (14656) Note On ch=3 par1=55 par2=47
Channel Event. t= 81 (14737) Note Off ch=3 par1=64 par2=64
Channel Event. t= 10 (14747) Note Off ch=3 par1=55 par2=64
Channel Event. t= 293 (15040) Note On ch=3 par1=59 par2=58
Channel Event. t= 0 (15040) Note On ch=3 par1=54 par2=48
Channel Event. t= 74 (15114) Note Off ch=3 par1=54 par2=64
Channel Event. t= 5 (15119) Note Off ch=3 par1=59 par2=64
Channel Event. t= 305 (15424) Note On ch=3 par1=55 par2=60
Channel Event. t= 0 (15424) Note On ch=3 par1=64 par2=65
Channel Event. t= 68 (15492) Note Off ch=3 par1=55 par2=64
Channel Event. t= 28 (15520) Note Off ch=3 par1=64 par2=64
Channel Event. t= 192 (15712) Program Change ch=3 par1=92 par2=96
Channel Event. t= 2491 (18203) Program Change ch=3 par1=94 par2=-127
Channel Event. t= 15 (18218) Note Off ch=3 par1=59 par2=64
Channel Event. t= 49 (18267) Note On ch=3 par1=60 par2=94
Channel Event. t= 124 (18391) Note Off ch=3 par1=60 par2=64
Channel Event. t= 68 (18459) Note On ch=3 par1=62 par2=95
Channel Event. t= 139 (18598) Note Off ch=3 par1=62 par2=64
Channel Event. t= 53 (18651) Note On ch=3 par1=63 par2=92
Channel Event. t= 135 (18786) Note Off ch=3 par1=63 par2=64
Channel Event. t= 57 (18843) Note On ch=3 par1=59 par2=84
Channel Event. t= 127 (18970) Note Off ch=3 par1=59 par2=64
Channel Event. t= 65 (19035) Note On ch=3 par1=60 par2=89
Channel Event. t= 122 (19157) Note Off ch=3 par1=60 par2=64
Channel Event. t= 70 (19227) Note On ch=3 par1=62 par2=73
Channel Event. t= 106 (19333) Note Off ch=3 par1=62 par2=64
Channel Event. t= 86 (19419) Note On ch=3 par1=63 par2=97
Channel Event. t= 128 (19547) Note Off ch=3 par1=63 par2=64
Channel Event. t= 64 (19611) Note On ch=3 par1=59 par2=84
Channel Event. t= 125 (19736) Note Off ch=3 par1=59 par2=64
Channel Event. t= 67 (19803) Note On ch=3 par1=60 par2=98
Channel Event. t= 77 (19880) Note Off ch=3 par1=60 par2=64
Channel Event. t= 19 (19899) Note On ch=3 par1=63 par2=77
Channel Event. t= 64 (19963) Note Off ch=3 par1=63 par2=64
Channel Event. t= 32 (19995) Note On ch=3 par1=64 par2=81
Channel Event. t= 64 (20059) Note Off ch=3 par1=64 par2=64
Channel Event. t= 32 (20091) Note On ch=3 par1=67 par2=76
Channel Event. t= 57 (20148) Note Off ch=3 par1=67 par2=64
Channel Event. t= 39 (20187) Note On ch=3 par1=71 par2=87
Channel Event. t= 192 (20379) Note Off ch=3 par1=71 par2=64
Channel Event. t= 0 (20379) Note On ch=3 par1=70 par2=96
Channel Event. t= 96 (20475) Note On ch=3 par1=71 par2=79
Channel Event. t= 5 (20480) Note Off ch=3 par1=70 par2=64
Channel Event. t= 71 (20551) Note Off ch=3 par1=71 par2=64
Channel Event. t= 20 (20571) Note On ch=3 par1=72 par2=86
Channel Event. t= 162 (20733) Note Off ch=3 par1=72 par2=64
Channel Event. t= 30 (20763) Note On ch=3 par1=76 par2=83
Channel Event. t= 144 (20907) Note Off ch=3 par1=76 par2=64
Channel Event. t= 48 (20955) Note On ch=3 par1=75 par2=107
Channel Event. t= 334 (21289) Note Off ch=3 par1=75 par2=64
Channel Event. t= 50 (21339) Note On ch=3 par1=72 par2=90
Channel Event. t= 109 (21448) Note Off ch=3 par1=72 par2=64
Channel Event. t= 83 (21531) Note On ch=3 par1=76 par2=86
Channel Event. t= 128 (21659) Note Off ch=3 par1=76 par2=64
Channel Event. t= 64 (21723) Note On ch=3 par1=75 par2=101
Channel Event. t= 87 (21810) Note Off ch=3 par1=75 par2=64
Channel Event. t= 9 (21819) Note On ch=3 par1=76 par2=94
Channel Event. t= 48 (21867) Note On ch=3 par1=75 par2=79
Channel Event. t= 5 (21872) Note Off ch=3 par1=76 par2=64
Channel Event. t= 43 (21915) Note On ch=3 par1=71 par2=81
Channel Event. t= 25 (21940) Note Off ch=3 par1=75 par2=64
Channel Event. t= 50 (21990) Note Off ch=3 par1=71 par2=64
Channel Event. t= 21 (22011) Note On ch=3 par1=66 par2=84
Channel Event. t= 92 (22103) Note Off ch=3 par1=66 par2=64
Channel Event. t= 4 (22107) Note On ch=3 par1=67 par2=77
Channel Event. t= 74 (22181) Note Off ch=3 par1=67 par2=64
Channel Event. t= 118 (22299) Note On ch=3 par1=72 par2=90
Channel Event. t= 109 (22408) Note Off ch=3 par1=72 par2=64
Channel Event. t= 83 (22491) Note On ch=3 par1=71 par2=92
Channel Event. t= 48 (22539) Note Off ch=3 par1=71 par2=64
Channel Event. t= 48 (22587) Note On ch=3 par1=72 par2=77
Channel Event. t= 48 (22635) Note On ch=3 par1=71 par2=72
Channel Event. t= 1 (22636) Note Off ch=3 par1=72 par2=64
Channel Event. t= 47 (22683) Note On ch=3 par1=67 par2=35
Channel Event. t= 16 (22699) Note Off ch=3 par1=71 par2=64
Channel Event. t= 0 (22699) Note On ch=3 par1=66 par2=45
Channel Event. t= 3 (22702) Note Off ch=3 par1=67 par2=64
Channel Event. t= 32 (22734) Note Off ch=3 par1=66 par2=64
Channel Event. t= 45 (22779) Note On ch=3 par1=63 par2=81
Channel Event. t= 63 (22842) Note Off ch=3 par1=63 par2=64
Channel Event. t= 33 (22875) Note On ch=3 par1=64 par2=93
Channel Event. t= 92 (22967) Note Off ch=3 par1=64 par2=64
Channel Event. t= 100 (23067) Note On ch=3 par1=67 par2=83
Channel Event. t= 92 (23159) Note Off ch=3 par1=67 par2=64
Channel Event. t= 100 (23259) Note On ch=3 par1=66 par2=98
Channel Event. t= 150 (23409) Note Off ch=3 par1=66 par2=64
Channel Event. t= 42 (23451) Note On ch=3 par1=62 par2=88
Channel Event. t= 96 (23547) Note On ch=3 par1=63 par2=82
Channel Event. t= 13 (23560) Note Off ch=3 par1=62 par2=64
Channel Event. t= 83 (23643) Note On ch=3 par1=64 par2=88
Channel Event. t= 9 (23652) Note Off ch=3 par1=63 par2=64
Channel Event. t= 84 (23736) Note Off ch=3 par1=64 par2=64
Channel Event. t= 99 (23835) Note On ch=3 par1=67 par2=85
Channel Event. t= 62 (23897) Note Off ch=3 par1=67 par2=64
Channel Event. t= 130 (24027) Note On ch=3 par1=66 par2=98
Channel Event. t= 173 (24200) Note Off ch=3 par1=66 par2=64
Channel Event. t= 19 (24219) Note On ch=3 par1=62 par2=91
Channel Event. t= 96 (24315) Note On ch=3 par1=63 par2=84
Channel Event. t= 33 (24348) Note Off ch=3 par1=62 par2=64
Channel Event. t= 63 (24411) Note On ch=3 par1=64 par2=90
Channel Event. t= 11 (24422) Note Off ch=3 par1=63 par2=64
Channel Event. t= 101 (24523) Note Off ch=3 par1=64 par2=64
Channel Event. t= 80 (24603) Note On ch=3 par1=67 par2=89
Channel Event. t= 83 (24686) Note Off ch=3 par1=67 par2=64
Channel Event. t= 109 (24795) Note On ch=3 par1=66 par2=91
Channel Event. t= 271 (25066) Note Off ch=3 par1=66 par2=64
Channel Event. t= 3137 (28203) Controller ch=3 par1=7 (Main Volume) par2=70
Channel Event. t= 36 (28239) Program Change ch=3 par1=84 par2=15
Channel Event. t= 2504 (30743) Program Change ch=3 par1=66 par2=48
Channel Event. t= 456 (31199) Program Change ch=3 par1=64 par2=45
Channel Event. t= 2499 (33698) Program Change ch=3 par1=58 par2=48
Channel Event. t= 451 (34149) Program Change ch=3 par1=64 par2=48
Channel Event. t= 2505 (36654) Program Change ch=3 par1=87 par2=48
Channel Event. t= 457 (37111) Program Change ch=3 par1=64 par2=-127
Channel Event. t= 16 (37127) Note On ch=3 par1=72 par2=72
Channel Event. t= 48 (37175) Note Off ch=3 par1=72 par2=64
Channel Event. t= 48 (37223) Note On ch=3 par1=67 par2=65
Channel Event. t= 48 (37271) Note Off ch=3 par1=67 par2=64
Channel Event. t= 48 (37319) Note On ch=3 par1=73 par2=91
Channel Event. t= 48 (37367) Note Off ch=3 par1=73 par2=64
Channel Event. t= 142 (37509) Note On ch=3 par1=72 par2=84
Channel Event. t= 50 (37559) Note Off ch=3 par1=72 par2=64
Channel Event. t= 144 (37703) Note On ch=3 par1=70 par2=80
Channel Event. t= 48 (37751) Note Off ch=3 par1=70 par2=64
Channel Event. t= 43 (37794) Note On ch=3 par1=68 par2=84
Channel Event. t= 48 (37842) Note Off ch=3 par1=68 par2=64
Channel Event. t= 53 (37895) Note On ch=3 par1=67 par2=93
Channel Event. t= 337 (38232) Note Off ch=3 par1=67 par2=64
Channel Event. t= 47 (38279) Note On ch=3 par1=72 par2=80
Channel Event. t= 94 (38373) Note On ch=3 par1=67 par2=63
Channel Event. t= 9 (38382) Note Off ch=3 par1=72 par2=64
Channel Event. t= 89 (38471) Note On ch=3 par1=71 par2=78
Channel Event. t= 2 (38473) Note Off ch=3 par1=67 par2=64
Channel Event. t= 92 (38565) Note On ch=3 par1=67 par2=73
Channel Event. t= 4 (38569) Note Off ch=3 par1=71 par2=64
Channel Event. t= 96 (38665) Note On ch=3 par1=72 par2=72
Channel Event. t= 3 (38668) Note Off ch=3 par1=67 par2=64
Channel Event. t= 94 (38762) Note On ch=3 par1=67 par2=64
Channel Event. t= 6 (38768) Note Off ch=3 par1=72 par2=64
Channel Event. t= 91 (38859) Note On ch=3 par1=71 par2=70
Channel Event. t= 7 (38866) Note Off ch=3 par1=67 par2=64
Channel Event. t= 87 (38953) Note On ch=3 par1=67 par2=65
Channel Event. t= 2 (38955) Note Off ch=3 par1=71 par2=64
Channel Event. t= 92 (39047) Note Off ch=3 par1=67 par2=64
Channel Event. t= 963 (40010) Note On ch=3 par1=67 par2=76
Channel Event. t= 42 (40052) Note On ch=3 par1=70 par2=64
Channel Event. t= 11 (40063) Note Off ch=3 par1=67 par2=64
Channel Event. t= 38 (40101) Note On ch=3 par1=71 par2=69
Channel Event. t= 6 (40107) Note Off ch=3 par1=70 par2=64
Channel Event. t= 44 (40151) Note On ch=3 par1=72 par2=61
Channel Event. t= 3 (40154) Note Off ch=3 par1=71 par2=64
Channel Event. t= 43 (40197) Note On ch=3 par1=74 par2=86
Channel Event. t= 1 (40198) Note Off ch=3 par1=72 par2=64
Channel Event. t= 51 (40249) Note Off ch=3 par1=74 par2=64
Channel Event. t= 135 (40384) Note On ch=3 par1=74 par2=87
Channel Event. t= 48 (40432) Note On ch=3 par1=76 par2=63
Channel Event. t= 10 (40442) Note Off ch=3 par1=74 par2=64
Channel Event. t= 42 (40484) Note On ch=3 par1=78 par2=70
Channel Event. t= 7 (40491) Note Off ch=3 par1=76 par2=64
Channel Event. t= 38 (40529) Note On ch=3 par1=81 par2=69
Channel Event. t= 6 (40535) Note Off ch=3 par1=78 par2=64
Channel Event. t= 44 (40579) Note Off ch=3 par1=81 par2=64
Channel Event. t= 4 (40583) Note On ch=3 par1=79 par2=80
Channel Event. t= 87 (40670) Note Off ch=3 par1=79 par2=64
Channel Event. t= 57 (40727) Program Change ch=3 par1=92 par2=47
Channel Event. t= 2493 (43220) Program Change ch=3 par1=95 par2=97
Channel Event. t= 62 (43282) Program Change ch=3 par1=80 par2=6
Channel Event. t= 445 (43727) Program Change ch=3 par1=64 par2=90
Channel Event. t= 2491 (46218) Program Change ch=3 par1=83 par2=5
Channel Event. t= 446 (46664) Program Change ch=3 par1=64 par2=98
Channel Event. t= 59 (46723) Program Change ch=3 par1=64 par2=96
Channel Event. t= 2493 (49216) Program Change ch=3 par1=82 par2=100
Channel Event. t= 62 (49278) Program Change ch=3 par1=79 par2=4
Channel Event. t= 445 (49723) Program Change ch=3 par1=64 par2=91
Channel Event. t= 2491 (52214) Program Change ch=3 par1=89 par2=3
Channel Event. t= 446 (52660) Program Change ch=3 par1=64 par2=-123
Channel Event. t= 35 (52695) Program Change ch=3 par1=59 par2=64
Channel Event. t= 1616 (54311) Note On ch=3 par1=59 par2=79
Channel Event. t= 0 (54311) Note On ch=3 par1=64 par2=68
Channel Event. t= 0 (54311) Note On ch=3 par1=67 par2=69
Channel Event. t= 96 (54407) Note On ch=3 par1=66 par2=86
Channel Event. t= 0 (54407) Note On ch=3 par1=63 par2=52
Channel Event. t= 0 (54407) Note On ch=3 par1=60 par2=76
Channel Event. t= 10 (54417) Note Off ch=3 par1=59 par2=64
Channel Event. t= 2 (54419) Note Off ch=3 par1=67 par2=64
Channel Event. t= 5 (54424) Note Off ch=3 par1=64 par2=64
Channel Event. t= 76 (54500) Note Off ch=3 par1=63 par2=64
Channel Event. t= 3 (54503) Note On ch=3 par1=67 par2=63
Channel Event. t= 0 (54503) Note On ch=3 par1=59 par2=84
Channel Event. t= 0 (54503) Note On ch=3 par1=64 par2=61
Channel Event. t= 10 (54513) Note Off ch=3 par1=66 par2=64
Channel Event. t= 16 (54529) Note Off ch=3 par1=60 par2=64
Channel Event. t= 70 (54599) Note On ch=3 par1=60 par2=87
Channel Event. t= 0 (54599) Note On ch=3 par1=63 par2=68
Channel Event. t= 0 (54599) Note On ch=3 par1=66 par2=86
Channel Event. t= 11 (54610) Note Off ch=3 par1=67 par2=64
Channel Event. t= 6 (54616) Note Off ch=3 par1=59 par2=64
Channel Event. t= 1 (54617) Note Off ch=3 par1=64 par2=64
Channel Event. t= 78 (54695) Note On ch=3 par1=59 par2=87
Channel Event. t= 0 (54695) Note On ch=3 par1=67 par2=66
Channel Event. t= 0 (54695) Note On ch=3 par1=64 par2=76
Channel Event. t= 15 (54710) Note Off ch=3 par1=63 par2=64
Channel Event. t= 8 (54718) Note Off ch=3 par1=60 par2=64
Channel Event. t= 13 (54731) Note Off ch=3 par1=66 par2=64
Channel Event. t= 33 (54764) Note Off ch=3 par1=64 par2=64
Channel Event. t= 11 (54775) Note Off ch=3 par1=67 par2=64
Channel Event. t= 9 (54784) Note Off ch=3 par1=59 par2=64
Channel Event. t= 103 (54887) Note On ch=3 par1=59 par2=86
Channel Event. t= 0 (54887) Note On ch=3 par1=64 par2=76
Channel Event. t= 0 (54887) Note On ch=3 par1=67 par2=76
Channel Event. t= 61 (54948) Note Off ch=3 par1=64 par2=64
Channel Event. t= 4 (54952) Note Off ch=3 par1=59 par2=64
Channel Event. t= 1 (54953) Note Off ch=3 par1=67 par2=64
Channel Event. t= 126 (55079) Note On ch=3 par1=67 par2=81
Channel Event. t= 0 (55079) Note On ch=3 par1=71 par2=85
Channel Event. t= 0 (55079) Note On ch=3 par1=64 par2=95
Channel Event. t= 192 (55271) Note On ch=3 par1=66 par2=88
Channel Event. t= 0 (55271) Note On ch=3 par1=60 par2=78
Channel Event. t= 0 (55271) Note On ch=3 par1=70 par2=79
Channel Event. t= 16 (55287) Note Off ch=3 par1=71 par2=64
Channel Event. t= 10 (55297) Note Off ch=3 par1=64 par2=64
Channel Event. t= 4 (55301) Note Off ch=3 par1=67 par2=64
Channel Event. t= 162 (55463) Note On ch=3 par1=67 par2=77
Channel Event. t= 0 (55463) Note On ch=3 par1=71 par2=61
Channel Event. t= 0 (55463) Note On ch=3 par1=64 par2=69
Channel Event. t= 5 (55468) Note Off ch=3 par1=60 par2=64
Channel Event. t= 9 (55477) Note Off ch=3 par1=66 par2=64
Channel Event. t= 9 (55486) Note Off ch=3 par1=70 par2=64
Channel Event. t= 146 (55632) Note Off ch=3 par1=67 par2=64
Channel Event. t= 23 (55655) Note Off ch=3 par1=64 par2=64
Channel Event. t= 0 (55655) Note On ch=3 par1=64 par2=81
Channel Event. t= 0 (55655) Note On ch=3 par1=67 par2=66
Channel Event. t= 0 (55655) Note On ch=3 par1=59 par2=79
Channel Event. t= 29 (55684) Note Off ch=3 par1=71 par2=64
Channel Event. t= 99 (55783) Note Off ch=3 par1=64 par2=64
Channel Event. t= 8 (55791) Note Off ch=3 par1=67 par2=64
Channel Event. t= 33 (55824) Note Off ch=3 par1=59 par2=64
Channel Event. t= 23 (55847) Note On ch=3 par1=69 par2=87
Channel Event. t= 0 (55847) Note On ch=3 par1=62 par2=82
Channel Event. t= 0 (55847) Note On ch=3 par1=57 par2=92
Channel Event. t= 768 (56615) Note On ch=3 par1=52 par2=61
Channel Event. t= 0 (56615) Note On ch=3 par1=59 par2=85
Channel Event. t= 0 (56615) Note On ch=3 par1=55 par2=81
Channel Event. t= 26 (56641) Note Off ch=3 par1=62 par2=64
Channel Event. t= 3 (56644) Note Off ch=3 par1=69 par2=64
Channel Event. t= 6 (56650) Note Off ch=3 par1=57 par2=64
Channel Event. t= 597 (57247) Note Off ch=3 par1=59 par2=64
Channel Event. t= 11 (57258) Note Off ch=3 par1=52 par2=64
Channel Event. t= 10 (57268) Note Off ch=3 par1=55 par2=64
Channel Event. t= 115 (57383) Note On ch=3 par1=59 par2=91
Channel Event. t= 0 (57383) Note On ch=3 par1=67 par2=79
Channel Event. t= 0 (57383) Note On ch=3 par1=71 par2=78
Channel Event. t= 96 (57479) Note Off ch=3 par1=71 par2=64
Channel Event. t= 0 (57479) Note On ch=3 par1=60 par2=76
Channel Event. t= 0 (57479) Note On ch=3 par1=70 par2=93
Channel Event. t= 0 (57479) Note On ch=3 par1=66 par2=70
Channel Event. t= 5 (57484) Note Off ch=3 par1=59 par2=64
Channel Event. t= 0 (57484) Note Off ch=3 par1=67 par2=64
Channel Event. t= 77 (57561) Note Off ch=3 par1=66 par2=64
Channel Event. t= 11 (57572) Note Off ch=3 par1=70 par2=64
Channel Event. t= 3 (57575) Note On ch=3 par1=59 par2=82
Channel Event. t= 0 (57575) Note On ch=3 par1=71 par2=69
Channel Event. t= 0 (57575) Note On ch=3 par1=67 par2=56
Channel Event. t= 17 (57592) Note Off ch=3 par1=60 par2=64
Channel Event. t= 79 (57671) Note On ch=3 par1=60 par2=74
Channel Event. t= 0 (57671) Note On ch=3 par1=70 par2=88
Channel Event. t= 0 (57671) Note On ch=3 par1=66 par2=69
Channel Event. t= 6 (57677) Note Off ch=3 par1=59 par2=64
Channel Event. t= 19 (57696) Note Off ch=3 par1=71 par2=64
Channel Event. t= 4 (57700) Note Off ch=3 par1=67 par2=64
Channel Event. t= 67 (57767) Note On ch=3 par1=71 par2=71
Channel Event. t= 0 (57767) Note On ch=3 par1=67 par2=69
Channel Event. t= 0 (57767) Note On ch=3 par1=59 par2=80
Channel Event. t= 4 (57771) Note Off ch=3 par1=66 par2=64
Channel Event. t= 2 (57773) Note Off ch=3 par1=70 par2=64
Channel Event. t= 14 (57787) Note Off ch=3 par1=60 par2=64
Channel Event. t= 107 (57894) Note Off ch=3 par1=59 par2=64
Channel Event. t= 37 (57931) Note Off ch=3 par1=71 par2=64
Channel Event. t= 1 (57932) Note Off ch=3 par1=67 par2=64
Channel Event. t= 27 (57959) Note On ch=3 par1=67 par2=81
Channel Event. t= 0 (57959) Note On ch=3 par1=71 par2=63
Channel Event. t= 0 (57959) Note On ch=3 par1=59 par2=89
Channel Event. t= 229 (58188) Note Off ch=3 par1=59 par2=64
Channel Event. t= 8 (58196) Note Off ch=3 par1=71 par2=64
Channel Event. t= 5 (58201) Note Off ch=3 par1=67 par2=64
Channel Event. t= 46 (58247) Note On ch=3 par1=70 par2=99
Channel Event. t= 0 (58247) Note On ch=3 par1=66 par2=86
Channel Event. t= 0 (58247) Note On ch=3 par1=60 par2=97
Channel Event. t= 96 (58343) Note Off ch=3 par1=66 par2=64
Channel Event. t= 0 (58343) Note On ch=3 par1=59 par2=85
Channel Event. t= 0 (58343) Note On ch=3 par1=71 par2=74
Channel Event. t= 0 (58343) Note On ch=3 par1=67 par2=75
Channel Event. t= 9 (58352) Note Off ch=3 par1=60 par2=64
Channel Event. t= 6 (58358) Note Off ch=3 par1=70 par2=64
Channel Event. t= 81 (58439) Note On ch=3 par1=60 par2=86
Channel Event. t= 0 (58439) Note On ch=3 par1=66 par2=73
Channel Event. t= 0 (58439) Note On ch=3 par1=70 par2=90
Channel Event. t= 9 (58448) Note Off ch=3 par1=59 par2=64
Channel Event. t= 3 (58451) Note Off ch=3 par1=71 par2=64
Channel Event. t= 12 (58463) Note Off ch=3 par1=67 par2=64
Channel Event. t= 72 (58535) Note On ch=3 par1=59 par2=91
Channel Event. t= 0 (58535) Note On ch=3 par1=71 par2=66
Channel Event. t= 0 (58535) Note On ch=3 par1=67 par2=76
Channel Event. t= 11 (58546) Note Off ch=3 par1=66 par2=64
Channel Event. t= 9 (58555) Note Off ch=3 par1=60 par2=64
Channel Event. t= 85 (58640) Note Off ch=3 par1=70 par2=64
Channel Event. t= 43 (58683) Note Off ch=3 par1=59 par2=64
Channel Event. t= 22 (58705) Note Off ch=3 par1=71 par2=64
Channel Event. t= 2 (58707) Note Off ch=3 par1=67 par2=64
Channel Event. t= 20 (58727) Note On ch=3 par1=67 par2=83
Channel Event. t= 0 (58727) Note On ch=3 par1=71 par2=66
Channel Event. t= 0 (58727) Note On ch=3 par1=59 par2=98
Channel Event. t= 288 (59015) Note On ch=3 par1=70 par2=96
Channel Event. t= 0 (59015) Note On ch=3 par1=60 par2=94
Channel Event. t= 0 (59015) Note On ch=3 par1=66 par2=87
Channel Event. t= 21 (59036) Note Off ch=3 par1=59 par2=64
Channel Event. t= 0 (59036) Note Off ch=3 par1=67 par2=64
Channel Event. t= 1 (59037) Note Off ch=3 par1=71 par2=64
Channel Event. t= 64 (59101) Note Off ch=3 par1=66 par2=64
Channel Event. t= 10 (59111) Note On ch=3 par1=67 par2=85
Channel Event. t= 0 (59111) Note On ch=3 par1=71 par2=88
Channel Event. t= 11 (59122) Note Off ch=3 par1=70 par2=64
Channel Event. t= 1 (59123) Note Off ch=3 par1=60 par2=64
Channel Event. t= 36 (59159) Note On ch=3 par1=59 par2=102
Channel Event. t= 141 (59300) Note Off ch=3 par1=67 par2=64
Channel Event. t= 8 (59308) Note Off ch=3 par1=71 par2=64
Channel Event. t= 54 (59362) Note Off ch=3 par1=59 par2=64
Channel Event. t= 16441 (75803) Controller ch=3 par1=7 (Main Volume) par2=55
Channel Event. t= 13 (75816) Note On ch=3 par1=55 par2=28
Channel Event. t= 742 (76558) Note Off ch=3 par1=55 par2=64
Channel Event. t= 31 (76589) Note On ch=3 par1=55 par2=45
Channel Event. t= 387 (76976) Note On ch=3 par1=57 par2=45
Channel Event. t= 41 (77017) Note Off ch=3 par1=55 par2=64
Channel Event. t= 302 (77319) Note Off ch=3 par1=57 par2=64
Channel Event. t= 36 (77355) Note On ch=3 par1=52 par2=70
Channel Event. t= 182 (77537) Note Off ch=3 par1=52 par2=64
Channel Event. t= 23 (77560) Note On ch=3 par1=55 par2=63
Channel Event. t= 4 (77564) Note On ch=3 par1=52 par2=64
Channel Event. t= 152 (77716) Note Off ch=3 par1=55 par2=64
Channel Event. t= 5 (77721) Note Off ch=3 par1=52 par2=64
Channel Event. t= 24 (77745) Note On ch=3 par1=55 par2=43
Channel Event. t= 3 (77748) Note On ch=3 par1=57 par2=57
Channel Event. t= 165 (77913) Note Off ch=3 par1=57 par2=64
Channel Event. t= 3 (77916) Note Off ch=3 par1=55 par2=64
Channel Event. t= 17 (77933) Note On ch=3 par1=57 par2=47
Channel Event. t= 3 (77936) Note On ch=3 par1=52 par2=56
Channel Event. t= 164 (78100) Note Off ch=3 par1=52 par2=64
Channel Event. t= 7 (78107) Note Off ch=3 par1=57 par2=64
Channel Event. t= 14 (78121) Note On ch=3 par1=52 par2=75
Channel Event. t= 163 (78284) Note Off ch=3 par1=52 par2=64
Channel Event. t= 31 (78315) Note On ch=3 par1=52 par2=49
Channel Event. t= 0 (78315) Note On ch=3 par1=57 par2=58
Channel Event. t= 175 (78490) Note Off ch=3 par1=52 par2=64
Channel Event. t= 1 (78491) Note Off ch=3 par1=57 par2=64
Channel Event. t= 14 (78505) Note On ch=3 par1=55 par2=69
Channel Event. t= 192 (78697) Note Off ch=3 par1=55 par2=64
Channel Event. t= 0 (78697) Note On ch=3 par1=52 par2=52
Channel Event. t= 1 (78698) Note On ch=3 par1=57 par2=52
Channel Event. t= 151 (78849) Note Off ch=3 par1=52 par2=64
Channel Event. t= 20 (78869) Note Off ch=3 par1=57 par2=64
Channel Event. t= 16 (78885) Note On ch=3 par1=52 par2=71
Channel Event. t= 141 (79026) Note Off ch=3 par1=52 par2=64
Channel Event. t= 45 (79071) Note On ch=3 par1=55 par2=54
Channel Event. t= 1 (79072) Note On ch=3 par1=52 par2=60
Channel Event. t= 191 (79263) Note Off ch=3 par1=52 par2=64
Channel Event. t= 0 (79263) Note On ch=3 par1=54 par2=69
Channel Event. t= 2 (79265) Note On ch=3 par1=51 par2=65
Channel Event. t= 9 (79274) Note Off ch=3 par1=55 par2=64
Channel Event. t= 160 (79434) Note Off ch=3 par1=51 par2=64
Channel Event. t= 4 (79438) Note Off ch=3 par1=54 par2=64
Channel Event. t= 25 (79463) Note On ch=3 par1=54 par2=68
Channel Event. t= 0 (79463) Note On ch=3 par1=51 par2=51
Channel Event. t= 188 (79651) Note Off ch=3 par1=54 par2=64
Channel Event. t= 3 (79654) Note Off ch=3 par1=51 par2=64
Channel Event. t= 5 (79659) Note On ch=3 par1=52 par2=75
Channel Event. t= 155 (79814) Note Off ch=3 par1=52 par2=64
Channel Event. t= 31 (79845) Note On ch=3 par1=52 par2=56
Channel Event. t= 0 (79845) Note On ch=3 par1=55 par2=66
Channel Event. t= 169 (80014) Note Off ch=3 par1=55 par2=64
Channel Event. t= 5 (80019) Note Off ch=3 par1=52 par2=64
Channel Event. t= 20 (80039) Note On ch=3 par1=57 par2=71
Channel Event. t= 1 (80040) Note On ch=3 par1=55 par2=52
Channel Event. t= 158 (80198) Note Off ch=3 par1=57 par2=64
Channel Event. t= 6 (80204) Note Off ch=3 par1=55 par2=64
Channel Event. t= 25 (80229) Note On ch=3 par1=57 par2=65
Channel Event. t= 2 (80231) Note On ch=3 par1=52 par2=70
Channel Event. t= 160 (80391) Note Off ch=3 par1=52 par2=64
Channel Event. t= 27 (80418) Note Off ch=3 par1=57 par2=64
Channel Event. t= 199 (80617) Note On ch=3 par1=56 par2=71
Channel Event. t= 0 (80617) Note On ch=3 par1=48 par2=58
Channel Event. t= 167 (80784) Note Off ch=3 par1=48 par2=64
Channel Event. t= 7 (80791) Note Off ch=3 par1=56 par2=64
Channel Event. t= 205 (80996) Note On ch=3 par1=55 par2=46
Channel Event. t= 1 (80997) Note On ch=3 par1=59 par2=62
Channel Event. t= 140 (81137) Note Off ch=3 par1=59 par2=64
Channel Event. t= 16 (81153) Note Off ch=3 par1=55 par2=64
Channel Event. t= 225 (81378) Note On ch=3 par1=56 par2=76
Channel Event. t= 5 (81383) Note On ch=3 par1=48 par2=52
Channel Event. t= 154 (81537) Note Off ch=3 par1=48 par2=64
Channel Event. t= 16 (81553) Note Off ch=3 par1=56 par2=64
Channel Event. t= 213 (81766) Note On ch=3 par1=59 par2=58
Channel Event. t= 2 (81768) Note On ch=3 par1=53 par2=61
Channel Event. t= 128 (81896) Note Off ch=3 par1=53 par2=64
Channel Event. t= 3 (81899) Note Off ch=3 par1=59 par2=64
Channel Event. t= 254 (82153) Note On ch=3 par1=51 par2=69
Channel Event. t= 1 (82154) Note On ch=3 par1=60 par2=64
Channel Event. t= 123 (82277) Note Off ch=3 par1=60 par2=64
Channel Event. t= 1 (82278) Note Off ch=3 par1=51 par2=64
Channel Event. t= 257 (82535) Note On ch=3 par1=50 par2=49
Channel Event. t= 0 (82535) Note On ch=3 par1=58 par2=63
Channel Event. t= 121 (82656) Note Off ch=3 par1=50 par2=64
Channel Event. t= 11 (82667) Note Off ch=3 par1=58 par2=64
Channel Event. t= 256 (82923) Note On ch=3 par1=58 par2=51
Channel Event. t= 1 (82924) Note On ch=3 par1=55 par2=51
Channel Event. t= 115 (83039) Note Off ch=3 par1=55 par2=64
Channel Event. t= 2 (83041) Note Off ch=3 par1=58 par2=64
Channel Event. t= 655 (83696) Note On ch=3 par1=51 par2=59
Channel Event. t= 1 (83697) Note On ch=3 par1=60 par2=56
Channel Event. t= 145 (83842) Note Off ch=3 par1=51 par2=64
Channel Event. t= 5 (83847) Note Off ch=3 par1=60 par2=64
Channel Event. t= 227 (84074) Note On ch=3 par1=53 par2=65
Channel Event. t= 1 (84075) Note On ch=3 par1=58 par2=66
Channel Event. t= 171 (84246) Note Off ch=3 par1=53 par2=64
Channel Event. t= 4 (84250) Note Off ch=3 par1=58 par2=64
Channel Event. t= 37 (84287) Note On ch=3 par1=55 par2=92
Channel Event. t= 155 (84442) Note Off ch=3 par1=55 par2=64
Channel Event. t= 27 (84469) Note On ch=3 par1=55 par2=53
Channel Event. t= 5 (84474) Note On ch=3 par1=60 par2=56
Channel Event. t= 157 (84631) Note Off ch=3 par1=60 par2=64
Channel Event. t= 14 (84645) Note Off ch=3 par1=55 par2=64
Channel Event. t= 11 (84656) Note On ch=3 par1=58 par2=74
Channel Event. t= 155 (84811) Note Off ch=3 par1=58 par2=64
Channel Event. t= 26 (84837) Note On ch=3 par1=58 par2=67
Channel Event. t= 2 (84839) Note On ch=3 par1=55 par2=63
Channel Event. t= 142 (84981) Note Off ch=3 par1=58 par2=64
Channel Event. t= 11 (84992) Note Off ch=3 par1=55 par2=64
Channel Event. t= 34 (85026) Note On ch=3 par1=55 par2=71
Channel Event. t= 168 (85194) Note Off ch=3 par1=55 par2=64
Channel Event. t= 19 (85213) Note On ch=3 par1=55 par2=73
Channel Event. t= 8 (85221) Note On ch=3 par1=58 par2=69
Channel Event. t= 180 (85401) Note Off ch=3 par1=58 par2=64
Channel Event. t= 7 (85408) Note Off ch=3 par1=55 par2=64
Channel Event. t= 3 (85411) Note On ch=3 par1=57 par2=58
Channel Event. t= 2 (85413) Note On ch=3 par1=54 par2=38
Channel Event. t= 154 (85567) Note Off ch=3 par1=54 par2=64
Channel Event. t= 9 (85576) Note Off ch=3 par1=57 par2=64
Channel Event. t= 30 (85606) Note On ch=3 par1=57 par2=45
Channel Event. t= 1 (85607) Note On ch=3 par1=54 par2=69
Channel Event. t= 152 (85759) Note Off ch=3 par1=54 par2=64
Channel Event. t= 17 (85776) Note Off ch=3 par1=57 par2=64
Channel Event. t= 16 (85792) Note On ch=3 par1=55 par2=68
Channel Event. t= 169 (85961) Note Off ch=3 par1=55 par2=64
Channel Event. t= 24 (85985) Note On ch=3 par1=55 par2=58
Channel Event. t= 2 (85987) Note On ch=3 par1=58 par2=68
Channel Event. t= 165 (86152) Note Off ch=3 par1=55 par2=64
Channel Event. t= 0 (86152) Note Off ch=3 par1=58 par2=64
Channel Event. t= 25 (86177) Note On ch=3 par1=55 par2=63
Channel Event. t= 196 (86373) Note Off ch=3 par1=55 par2=64
Channel Event. t= 1 (86374) Note On ch=3 par1=60 par2=64
Channel Event. t= 2 (86376) Note On ch=3 par1=53 par2=60
Channel Event. t= 170 (86546) Note Off ch=3 par1=60 par2=64
Channel Event. t= 23 (86569) Note Off ch=3 par1=53 par2=64
Channel Event. t= 3 (86572) Note On ch=3 par1=62 par2=53
Channel Event. t= 4 (86576) Note On ch=3 par1=54 par2=56
Channel Event. t= 745 (87321) Note Off ch=3 par1=54 par2=64
Channel Event. t= 1 (87322) Note Off ch=3 par1=62 par2=64
Channel Event. t= 126 (87448) Note On ch=3 par1=55 par2=55
Channel Event. t= 91 (87539) Note On ch=3 par1=53 par2=59
Channel Event. t= 10 (87549) Note Off ch=3 par1=55 par2=64
Channel Event. t= 80 (87629) Note Off ch=3 par1=53 par2=64
Channel Event. t= 5 (87634) Note On ch=3 par1=52 par2=53
Channel Event. t= 93 (87727) Note Off ch=3 par1=52 par2=64
Channel Event. t= 1 (87728) Note On ch=3 par1=50 par2=59
Channel Event. t= 95 (87823) Note Off ch=3 par1=50 par2=64
Channel Event. t= 5 (87828) Note On ch=3 par1=48 par2=47
Channel Event. t= 94 (87922) Note Off ch=3 par1=48 par2=64
Channel Event. t= 0 (87922) Note On ch=3 par1=47 par2=56
Channel Event. t= 88 (88010) Note Off ch=3 par1=47 par2=64
Channel Event. t= 8 (88018) Note On ch=3 par1=45 par2=61
Channel Event. t= 85 (88103) Controller ch=3 par1=7 (Main Volume) par2=54
Channel Event. t= 6 (88109) Note Off ch=3 par1=45 par2=64
Channel Event. t= 1 (88110) Note On ch=3 par1=43 par2=72
Channel Event. t= 93 (88203) Note On ch=3 par1=45 par2=67
Channel Event. t= 17 (88220) Note Off ch=3 par1=43 par2=64
Channel Event. t= 51 (88271) Controller ch=3 par1=7 (Main Volume) par2=53
Channel Event. t= 29 (88300) Note On ch=3 par1=47 par2=77
Channel Event. t= 7 (88307) Note Off ch=3 par1=45 par2=64
Channel Event. t= 85 (88392) Note On ch=3 par1=48 par2=80
Channel Event. t= 1 (88393) Note Off ch=3 par1=47 par2=64
Channel Event. t= 22 (88415) Controller ch=3 par1=7 (Main Volume) par2=52
Channel Event. t= 72 (88487) Note On ch=3 par1=50 par2=69
Channel Event. t= 22 (88509) Note Off ch=3 par1=48 par2=64
Channel Event. t= 69 (88578) Note On ch=3 par1=52 par2=74
Channel Event. t= 5 (88583) Controller ch=3 par1=7 (Main Volume) par2=51
Channel Event. t= 3 (88586) Note Off ch=3 par1=50 par2=64
Channel Event. t= 87 (88673) Note On ch=3 par1=54 par2=73
Channel Event. t= 3 (88676) Note Off ch=3 par1=52 par2=64
Channel Event. t= 51 (88727) Controller ch=3 par1=7 (Main Volume) par2=50
Channel Event. t= 41 (88768) Note On ch=3 par1=55 par2=71
Channel Event. t= 1 (88769) Note Off ch=3 par1=54 par2=64
Channel Event. t= 102 (88871) Controller ch=3 par1=7 (Main Volume) par2=49
Channel Event. t= 4 (88875) Note On ch=3 par1=56 par2=81
Channel Event. t= 10 (88885) Note Off ch=3 par1=55 par2=64
Channel Event. t= 154 (89039) Controller ch=3 par1=7 (Main Volume) par2=48
Channel Event. t= 144 (89183) Controller ch=3 par1=7 (Main Volume) par2=47
Channel Event. t= 52 (89235) Note Off ch=3 par1=56 par2=64
Channel Event. t= 20 (89255) Note On ch=3 par1=56 par2=80
Channel Event. t= 95 (89350) Note On ch=3 par1=59 par2=64
Channel Event. t= 1 (89351) Controller ch=3 par1=7 (Main Volume) par2=46
Channel Event. t= 1 (89352) Note Off ch=3 par1=56 par2=64
Channel Event. t= 42 (89394) Note On ch=3 par1=51 par2=75
Channel Event. t= 10 (89404) Note Off ch=3 par1=59 par2=64
Channel Event. t= 44 (89448) Note On ch=3 par1=56 par2=80
Channel Event. t= 12 (89460) Note Off ch=3 par1=51 par2=64
Channel Event. t= 35 (89495) Controller ch=3 par1=7 (Main Volume) par2=45
Channel Event. t= 53 (89548) Note On ch=3 par1=59 par2=70
Channel Event. t= 17 (89565) Note Off ch=3 par1=56 par2=64
Channel Event. t= 24 (89589) Note On ch=3 par1=51 par2=75
Channel Event. t= 9 (89598) Note Off ch=3 par1=59 par2=64
Channel Event. t= 11 (89609) Note Off ch=3 par1=51 par2=64
Channel Event. t= 30 (89639) Controller ch=3 par1=7 (Main Volume) par2=44
Channel Event. t= 0 (89639) Note On ch=3 par1=47 par2=84
Channel Event. t= 96 (89735) Note On ch=3 par1=49 par2=82
Channel Event. t= 13 (89748) Note Off ch=3 par1=47 par2=64
Channel Event. t= 44 (89792) Note Off ch=3 par1=49 par2=64
Channel Event. t= 15 (89807) Controller ch=3 par1=7 (Main Volume) par2=43
Channel Event. t= 24 (89831) Note On ch=3 par1=51 par2=81
Channel Event. t= 96 (89927) Note On ch=3 par1=52 par2=84
Channel Event. t= 4 (89931) Note Off ch=3 par1=51 par2=64
Channel Event. t= 20 (89951) Controller ch=3 par1=7 (Main Volume) par2=42
Channel Event. t= 55 (90006) Note Off ch=3 par1=52 par2=64
Channel Event. t= 17 (90023) Note On ch=3 par1=54 par2=92
Channel Event. t= 96 (90119) Controller ch=3 par1=7 (Main Volume) par2=41
Channel Event. t= 0 (90119) Note On ch=3 par1=55 par2=80
Channel Event. t= 1 (90120) Note Off ch=3 par1=54 par2=64
Channel Event. t= 58 (90178) Note Off ch=3 par1=55 par2=64
Channel Event. t= 37 (90215) Note On ch=3 par1=56 par2=89
Channel Event. t= 48 (90263) Controller ch=3 par1=7 (Main Volume) par2=40
Channel Event. t= 46 (90309) Note Off ch=3 par1=56 par2=64
Channel Event. t= 2 (90311) Note On ch=3 par1=57 par2=73
Channel Event. t= 68 (90379) Note Off ch=3 par1=57 par2=64
Channel Event. t= 25 (90404) Note On ch=3 par1=57 par2=84
Channel Event. t= 3 (90407) Controller ch=3 par1=7 (Main Volume) par2=39
Channel Event. t= 168 (90575) Controller ch=3 par1=7 (Main Volume) par2=38
Channel Event. t= 144 (90719) Controller ch=3 par1=7 (Main Volume) par2=37
Channel Event. t= 72 (90791) Note On ch=3 par1=55 par2=82
Channel Event. t= 17 (90808) Note Off ch=3 par1=57 par2=64
Channel Event. t= 79 (90887) Note Off ch=3 par1=55 par2=64
Channel Event. t= 0 (90887) Controller ch=3 par1=7 (Main Volume) par2=36
Channel Event. t= 144 (91031) Controller ch=3 par1=7 (Main Volume) par2=55
Channel Event. t= 0 (91031) 
Meta Event. Type: 0x2f (47dec), End of Track (0 bytes): 
track #9
track size: 3268
Channel Event. t= 0 (0) 
Meta Event. Type: 0x21 (33dec), MIDI Port (1 bytes): 0
Channel Event. t= 0 (0) 
Meta Event. Type: 0x3 (3dec), Sequence/Track Name (20 bytes): Bassoon             
Channel Event. t= 0 (0) Program Change ch=4 par1=86 par2=-116
Channel Event. t= 0 (0) Controller ch=4 par1=10 (Pan) par2=90
Channel Event. t= 0 (0) Program Change ch=4 par1=48 par2=96
Channel Event. t= 6663 (6663) Program Change ch=4 par1=102 par2=-123
Channel Event. t= 32 (6695) Note On ch=4 par1=36 par2=87
Channel Event. t= 0 (6695) Note On ch=4 par1=43 par2=74
Channel Event. t= 230 (6925) Note Off ch=4 par1=36 par2=64
Channel Event. t= 0 (6925) Note Off ch=4 par1=43 par2=64
Channel Event. t= 154 (7079) Note On ch=4 par1=47 par2=80
Channel Event. t= 0 (7079) Note On ch=4 par1=40 par2=83
Channel Event. t= 254 (7333) Note Off ch=4 par1=40 par2=64
Channel Event. t= 18 (7351) Note Off ch=4 par1=47 par2=64
Channel Event. t= 112 (7463) Note On ch=4 par1=36 par2=83
Channel Event. t= 0 (7463) Note On ch=4 par1=43 par2=71
Channel Event. t= 220 (7683) Note Off ch=4 par1=43 par2=64
Channel Event. t= 2 (7685) Note Off ch=4 par1=36 par2=64
Channel Event. t= 162 (7847) Note On ch=4 par1=40 par2=86
Channel Event. t= 0 (7847) Note On ch=4 par1=47 par2=82
Channel Event. t= 244 (8091) Note Off ch=4 par1=40 par2=64
Channel Event. t= 8 (8099) Note Off ch=4 par1=47 par2=64
Channel Event. t= 132 (8231) Note On ch=4 par1=43 par2=71
Channel Event. t= 0 (8231) Note On ch=4 par1=36 par2=88
Channel Event. t= 234 (8465) Note Off ch=4 par1=36 par2=64
Channel Event. t= 18 (8483) Note Off ch=4 par1=43 par2=64
Channel Event. t= 132 (8615) Note On ch=4 par1=40 par2=78
Channel Event. t= 0 (8615) Note On ch=4 par1=47 par2=70
Channel Event. t= 265 (8880) Note Off ch=4 par1=47 par2=64
Channel Event. t= 4 (8884) Note Off ch=4 par1=40 par2=64
Channel Event. t= 115 (8999) Note On ch=4 par1=43 par2=71
Channel Event. t= 0 (8999) Note On ch=4 par1=36 par2=66
Channel Event. t= 219 (9218) Note Off ch=4 par1=36 par2=64
Channel Event. t= 21 (9239) Note Off ch=4 par1=43 par2=64
Channel Event. t= 144 (9383) Note On ch=4 par1=47 par2=70
Channel Event. t= 0 (9383) Note On ch=4 par1=40 par2=76
Channel Event. t= 225 (9608) Note Off ch=4 par1=47 par2=64
Channel Event. t= 10 (9618) Note Off ch=4 par1=40 par2=64
Channel Event. t= 149 (9767) Note On ch=4 par1=32 par2=80
Channel Event. t= 0 (9767) Note On ch=4 par1=39 par2=81
Channel Event. t= 247 (10014) Note Off ch=4 par1=39 par2=64
Channel Event. t= 9 (10023) Note Off ch=4 par1=32 par2=64
Channel Event. t= 128 (10151) Note On ch=4 par1=36 par2=80
Channel Event. t= 0 (10151) Note On ch=4 par1=43 par2=69
Channel Event. t= 209 (10360) Note Off ch=4 par1=36 par2=64
Channel Event. t= 0 (10360) Note Off ch=4 par1=43 par2=64
Channel Event. t= 175 (10535) Note On ch=4 par1=32 par2=81
Channel Event. t= 0 (10535) Note On ch=4 par1=39 par2=79
Channel Event. t= 218 (10753) Note Off ch=4 par1=39 par2=64
Channel Event. t= 5 (10758) Note Off ch=4 par1=32 par2=64
Channel Event. t= 161 (10919) Note On ch=4 par1=43 par2=71
Channel Event. t= 0 (10919) Note On ch=4 par1=36 par2=79
Channel Event. t= 194 (11113) Note Off ch=4 par1=36 par2=64
Channel Event. t= 9 (11122) Note Off ch=4 par1=43 par2=64
Channel Event. t= 181 (11303) Note On ch=4 par1=39 par2=80
Channel Event. t= 0 (11303) Note On ch=4 par1=46 par2=78
Channel Event. t= 209 (11512) Note Off ch=4 par1=46 par2=64
Channel Event. t= 9 (11521) Note Off ch=4 par1=39 par2=64
Channel Event. t= 166 (11687) Note On ch=4 par1=43 par2=66
Channel Event. t= 0 (11687) Note On ch=4 par1=36 par2=75
Channel Event. t= 224 (11911) Note Off ch=4 par1=36 par2=64
Channel Event. t= 2 (11913) Note Off ch=4 par1=43 par2=64
Channel Event. t= 158 (12071) Note On ch=4 par1=39 par2=80
Channel Event. t= 0 (12071) Note On ch=4 par1=46 par2=64
Channel Event. t= 218 (12289) Note Off ch=4 par1=46 par2=64
Channel Event. t= 2 (12291) Note Off ch=4 par1=39 par2=64
Channel Event. t= 164 (12455) Note On ch=4 par1=36 par2=79
Channel Event. t= 0 (12455) Note On ch=4 par1=43 par2=61
Channel Event. t= 189 (12644) Note Off ch=4 par1=36 par2=64
Channel Event. t= 12 (12656) Note Off ch=4 par1=43 par2=64
Channel Event. t= 183 (12839) Note On ch=4 par1=46 par2=55
Channel Event. t= 0 (12839) Note On ch=4 par1=39 par2=61
Channel Event. t= 215 (13054) Note Off ch=4 par1=39 par2=64
Channel Event. t= 13 (13067) Note Off ch=4 par1=46 par2=64
Channel Event. t= 156 (13223) Note On ch=4 par1=50 par2=48
Channel Event. t= 0 (13223) Note On ch=4 par1=43 par2=50
Channel Event. t= 208 (13431) Note Off ch=4 par1=43 par2=64
Channel Event. t= 22 (13453) Note Off ch=4 par1=50 par2=64
Channel Event. t= 154 (13607) Note On ch=4 par1=39 par2=68
Channel Event. t= 0 (13607) Note On ch=4 par1=46 par2=68
Channel Event. t= 211 (13818) Note Off ch=4 par1=39 par2=64
Channel Event. t= 6 (13824) Note Off ch=4 par1=46 par2=64
Channel Event. t= 167 (13991) Note On ch=4 par1=50 par2=60
Channel Event. t= 0 (13991) Note On ch=4 par1=43 par2=61
Channel Event. t= 206 (14197) Note Off ch=4 par1=43 par2=64
Channel Event. t= 16 (14213) Note Off ch=4 par1=50 par2=64
Channel Event. t= 162 (14375) Note On ch=4 par1=39 par2=73
Channel Event. t= 0 (14375) Note On ch=4 par1=46 par2=74
Channel Event. t= 204 (14579) Note Off ch=4 par1=46 par2=64
Channel Event. t= 2 (14581) Note Off ch=4 par1=39 par2=64
Channel Event. t= 178 (14759) Note On ch=4 par1=50 par2=61
Channel Event. t= 0 (14759) Note On ch=4 par1=42 par2=81
Channel Event. t= 238 (14997) Note Off ch=4 par1=50 par2=64
Channel Event. t= 0 (14997) Note Off ch=4 par1=42 par2=64
Channel Event. t= 146 (15143) Note On ch=4 par1=39 par2=71
Channel Event. t= 0 (15143) Note On ch=4 par1=46 par2=69
Channel Event. t= 211 (15354) Note Off ch=4 par1=39 par2=64
Channel Event. t= 11 (15365) Note Off ch=4 par1=46 par2=64
Channel Event. t= 162 (15527) Note On ch=4 par1=50 par2=63
Channel Event. t= 0 (15527) Note On ch=4 par1=43 par2=66
Channel Event. t= 207 (15734) Note Off ch=4 par1=43 par2=64
Channel Event. t= 38 (15772) Note Off ch=4 par1=50 par2=64
Channel Event. t= 139 (15911) Note On ch=4 par1=47 par2=71
Channel Event. t= 0 (15911) Note On ch=4 par1=38 par2=56
Channel Event. t= 186 (16097) Note Off ch=4 par1=38 par2=64
Channel Event. t= 6 (16103) Note Off ch=4 par1=47 par2=64
Channel Event. t= 192 (16295) Note On ch=4 par1=47 par2=72
Channel Event. t= 0 (16295) Note On ch=4 par1=38 par2=58
Channel Event. t= 184 (16479) Note Off ch=4 par1=38 par2=64
Channel Event. t= 8 (16487) Note Off ch=4 par1=47 par2=64
Channel Event. t= 192 (16679) Note On ch=4 par1=38 par2=66
Channel Event. t= 0 (16679) Note On ch=4 par1=48 par2=67
Channel Event. t= 199 (16878) Note Off ch=4 par1=38 par2=64
Channel Event. t= 6 (16884) Note Off ch=4 par1=48 par2=64
Channel Event. t= 179 (17063) Note On ch=4 par1=38 par2=66
Channel Event. t= 0 (17063) Note On ch=4 par1=48 par2=67
Channel Event. t= 161 (17224) Note Off ch=4 par1=48 par2=64
Channel Event. t= 21 (17245) Note Off ch=4 par1=38 par2=64
Channel Event. t= 202 (17447) Controller ch=4 par1=7 (Main Volume) par2=101
Channel Event. t= 0 (17447) Note On ch=4 par1=31 par2=78
Channel Event. t= 0 (17447) Note On ch=4 par1=43 par2=72
Channel Event. t= 48 (17495) Controller ch=4 par1=7 (Main Volume) par2=100
Channel Event. t= 48 (17543) Controller ch=4 par1=7 (Main Volume) par2=99
Channel Event. t= 24 (17567) Controller ch=4 par1=7 (Main Volume) par2=98
Channel Event. t= 48 (17615) Controller ch=4 par1=7 (Main Volume) par2=97
Channel Event. t= 2 (17617) Note Off ch=4 par1=31 par2=64
Channel Event. t= 8 (17625) Note Off ch=4 par1=43 par2=64
Channel Event. t= 14 (17639) Controller ch=4 par1=7 (Main Volume) par2=96
Channel Event. t= 0 (17639) Note On ch=4 par1=38 par2=104
Channel Event. t= 48 (17687) Controller ch=4 par1=7 (Main Volume) par2=95
Channel Event. t= 24 (17711) Controller ch=4 par1=7 (Main Volume) par2=94
Channel Event. t= 48 (17759) Controller ch=4 par1=7 (Main Volume) par2=93
Channel Event. t= 24 (17783) Controller ch=4 par1=7 (Main Volume) par2=92
Channel Event. t= 40 (17823) Note Off ch=4 par1=38 par2=64
Channel Event. t= 8 (17831) Controller ch=4 par1=7 (Main Volume) par2=91
Channel Event. t= 0 (17831) Note On ch=4 par1=43 par2=98
Channel Event. t= 24 (17855) Controller ch=4 par1=7 (Main Volume) par2=90
Channel Event. t= 48 (17903) Controller ch=4 par1=7 (Main Volume) par2=89
Channel Event. t= 24 (17927) Controller ch=4 par1=7 (Main Volume) par2=88
Channel Event. t= 48 (17975) Controller ch=4 par1=7 (Main Volume) par2=87
Channel Event. t= 16 (17991) Note Off ch=4 par1=43 par2=64
Channel Event. t= 8 (17999) Controller ch=4 par1=7 (Main Volume) par2=86
Channel Event. t= 24 (18023) Note On ch=4 par1=45 par2=92
Channel Event. t= 24 (18047) Controller ch=4 par1=7 (Main Volume) par2=85
Channel Event. t= 24 (18071) Controller ch=4 par1=7 (Main Volume) par2=84
Channel Event. t= 48 (18119) Controller ch=4 par1=7 (Main Volume) par2=83
Channel Event. t= 24 (18143) Controller ch=4 par1=7 (Main Volume) par2=82
Channel Event. t= 46 (18189) Note Off ch=4 par1=45 par2=64
Channel Event. t= 2 (18191) Controller ch=4 par1=7 (Main Volume) par2=81
Channel Event. t= 24 (18215) Controller ch=4 par1=7 (Main Volume) par2=80
Channel Event. t= 0 (18215) Note On ch=4 par1=43 par2=92
Channel Event. t= 48 (18263) Controller ch=4 par1=7 (Main Volume) par2=79
Channel Event. t= 48 (18311) Controller ch=4 par1=7 (Main Volume) par2=78
Channel Event. t= 24 (18335) Controller ch=4 par1=7 (Main Volume) par2=77
Channel Event. t= 48 (18383) Controller ch=4 par1=7 (Main Volume) par2=76
Channel Event. t= 15 (18398) Note Off ch=4 par1=43 par2=64
Channel Event. t= 9 (18407) Controller ch=4 par1=7 (Main Volume) par2=75
Channel Event. t= 0 (18407) Note On ch=4 par1=41 par2=89
Channel Event. t= 48 (18455) Controller ch=4 par1=7 (Main Volume) par2=74
Channel Event. t= 24 (18479) Controller ch=4 par1=7 (Main Volume) par2=73
Channel Event. t= 48 (18527) Controller ch=4 par1=7 (Main Volume) par2=72
Channel Event. t= 24 (18551) Controller ch=4 par1=7 (Main Volume) par2=71
Channel Event. t= 20 (18571) Note Off ch=4 par1=41 par2=64
Channel Event. t= 28 (18599) Controller ch=4 par1=7 (Main Volume) par2=70
Channel Event. t= 0 (18599) Note On ch=4 par1=40 par2=83
Channel Event. t= 24 (18623) Controller ch=4 par1=7 (Main Volume) par2=69
Channel Event. t= 48 (18671) Controller ch=4 par1=7 (Main Volume) par2=68
Channel Event. t= 24 (18695) Controller ch=4 par1=7 (Main Volume) par2=67
Channel Event. t= 48 (18743) Controller ch=4 par1=7 (Main Volume) par2=66
Channel Event. t= 18 (18761) Note Off ch=4 par1=40 par2=64
Channel Event. t= 6 (18767) Controller ch=4 par1=7 (Main Volume) par2=65
Channel Event. t= 24 (18791) Note On ch=4 par1=38 par2=78
Channel Event. t= 24 (18815) Controller ch=4 par1=7 (Main Volume) par2=64
Channel Event. t= 24 (18839) Controller ch=4 par1=7 (Main Volume) par2=63
Channel Event. t= 48 (18887) Controller ch=4 par1=7 (Main Volume) par2=62
Channel Event. t= 24 (18911) Controller ch=4 par1=7 (Main Volume) par2=61
Channel Event. t= 48 (18959) Note Off ch=4 par1=38 par2=64
Channel Event. t= 0 (18959) Controller ch=4 par1=7 (Main Volume) par2=60
Channel Event. t= 24 (18983) Note On ch=4 par1=43 par2=36
Channel Event. t= 0 (18983) Note On ch=4 par1=36 par2=44
Channel Event. t= 0 (18983) Controller ch=4 par1=7 (Main Volume) par2=70
Channel Event. t= 206 (19189) Note Off ch=4 par1=36 par2=64
Channel Event. t= 5 (19194) Note Off ch=4 par1=43 par2=64
Channel Event. t= 173 (19367) Note On ch=4 par1=39 par2=65
Channel Event. t= 0 (19367) Note On ch=4 par1=47 par2=46
Channel Event. t= 203 (19570) Note Off ch=4 par1=39 par2=64
Channel Event. t= 3 (19573) Note Off ch=4 par1=47 par2=64
Channel Event. t= 178 (19751) Note On ch=4 par1=43 par2=54
Channel Event. t= 0 (19751) Note On ch=4 par1=36 par2=48
Channel Event. t= 175 (19926) Note Off ch=4 par1=36 par2=64
Channel Event. t= 16 (19942) Note Off ch=4 par1=43 par2=64
Channel Event. t= 193 (20135) Note On ch=4 par1=39 par2=65
Channel Event. t= 0 (20135) Note On ch=4 par1=47 par2=58
Channel Event. t= 196 (20331) Note Off ch=4 par1=39 par2=64
Channel Event. t= 7 (20338) Note Off ch=4 par1=47 par2=64
Channel Event. t= 181 (20519) Note On ch=4 par1=43 par2=58
Channel Event. t= 0 (20519) Note On ch=4 par1=36 par2=56
Channel Event. t= 197 (20716) Note Off ch=4 par1=43 par2=64
Channel Event. t= 2 (20718) Note Off ch=4 par1=36 par2=64
Channel Event. t= 185 (20903) Note On ch=4 par1=47 par2=56
Channel Event. t= 0 (20903) Note On ch=4 par1=39 par2=69
Channel Event. t= 201 (21104) Note Off ch=4 par1=39 par2=64
Channel Event. t= 1 (21105) Note Off ch=4 par1=47 par2=64
Channel Event. t= 182 (21287) Note On ch=4 par1=36 par2=56
Channel Event. t= 0 (21287) Note On ch=4 par1=43 par2=56
Channel Event. t= 168 (21455) Note Off ch=4 par1=43 par2=64
Channel Event. t= 2 (21457) Note Off ch=4 par1=36 par2=64
Channel Event. t= 214 (21671) Note On ch=4 par1=39 par2=66
Channel Event. t= 0 (21671) Note On ch=4 par1=47 par2=52
Channel Event. t= 166 (21837) Note Off ch=4 par1=47 par2=64
Channel Event. t= 1 (21838) Note Off ch=4 par1=39 par2=64
Channel Event. t= 121 (21959) Controller ch=4 par1=7 (Main Volume) par2=57
Channel Event. t= 48 (22007) Program Change ch=4 par1=86 par2=48
Channel Event. t= 2596 (24603) Program Change ch=4 par1=64 par2=0
Channel Event. t= 48 (24651) Program Change ch=4 par1=65 par2=-127
Channel Event. t= 62 (24713) Note Off ch=4 par1=48 par2=64
Channel Event. t= 4 (24717) Note Off ch=4 par1=36 par2=64
Channel Event. t= 190 (24907) Note On ch=4 par1=42 par2=85
Channel Event. t= 170 (25077) Note Off ch=4 par1=42 par2=64
Channel Event. t= 214 (25291) Note On ch=4 par1=48 par2=63
Channel Event. t= 0 (25291) Note On ch=4 par1=36 par2=69
Channel Event. t= 170 (25461) Note Off ch=4 par1=48 par2=64
Channel Event. t= 11 (25472) Note Off ch=4 par1=36 par2=64
Channel Event. t= 203 (25675) Note On ch=4 par1=42 par2=84
Channel Event. t= 165 (25840) Note Off ch=4 par1=42 par2=64
Channel Event. t= 219 (26059) Note On ch=4 par1=48 par2=66
Channel Event. t= 0 (26059) Note On ch=4 par1=36 par2=65
Channel Event. t= 138 (26197) Note Off ch=4 par1=48 par2=64
Channel Event. t= 4 (26201) Note Off ch=4 par1=36 par2=64
Channel Event. t= 242 (26443) Note On ch=4 par1=42 par2=80
Channel Event. t= 165 (26608) Note Off ch=4 par1=42 par2=64
Channel Event. t= 219 (26827) Note On ch=4 par1=36 par2=59
Channel Event. t= 0 (26827) Note On ch=4 par1=48 par2=52
Channel Event. t= 154 (26981) Note Off ch=4 par1=48 par2=64
Channel Event. t= 8 (26989) Note Off ch=4 par1=36 par2=64
Channel Event. t= 222 (27211) Note On ch=4 par1=42 par2=74
Channel Event. t= 170 (27381) Note Off ch=4 par1=42 par2=64
Channel Event. t= 214 (27595) Note On ch=4 par1=48 par2=47
Channel Event. t= 0 (27595) Note On ch=4 par1=36 par2=62
Channel Event. t= 151 (27746) Note Off ch=4 par1=48 par2=64
Channel Event. t= 5 (27751) Note Off ch=4 par1=36 par2=64
Channel Event. t= 228 (27979) Note On ch=4 par1=42 par2=80
Channel Event. t= 196 (28175) Note Off ch=4 par1=42 par2=64
Channel Event. t= 188 (28363) Note On ch=4 par1=36 par2=73
Channel Event. t= 0 (28363) Note On ch=4 par1=48 par2=63
Channel Event. t= 198 (28561) Note Off ch=4 par1=48 par2=64
Channel Event. t= 2 (28563) Note Off ch=4 par1=36 par2=64
Channel Event. t= 184 (28747) Note On ch=4 par1=42 par2=86
Channel Event. t= 184 (28931) Note Off ch=4 par1=42 par2=64
Channel Event. t= 200 (29131) Note On ch=4 par1=48 par2=64
Channel Event. t= 0 (29131) Note On ch=4 par1=36 par2=61
Channel Event. t= 164 (29295) Note Off ch=4 par1=48 par2=64
Channel Event. t= 6 (29301) Note Off ch=4 par1=36 par2=64
Channel Event. t= 214 (29515) Note On ch=4 par1=42 par2=80
Channel Event. t= 167 (29682) Note Off ch=4 par1=42 par2=64
Channel Event. t= 217 (29899) Note On ch=4 par1=48 par2=62
Channel Event. t= 0 (29899) Note On ch=4 par1=36 par2=76
Channel Event. t= 162 (30061) Note Off ch=4 par1=48 par2=64
Channel Event. t= 5 (30066) Note Off ch=4 par1=36 par2=64
Channel Event. t= 217 (30283) Note On ch=4 par1=42 par2=77
Channel Event. t= 170 (30453) Note Off ch=4 par1=42 par2=64
Channel Event. t= 214 (30667) Note On ch=4 par1=36 par2=69
Channel Event. t= 0 (30667) Note On ch=4 par1=48 par2=64
Channel Event. t= 166 (30833) Note Off ch=4 par1=36 par2=64
Channel Event. t= 2 (30835) Note Off ch=4 par1=48 par2=64
Channel Event. t= 216 (31051) Note On ch=4 par1=42 par2=75
Channel Event. t= 173 (31224) Note Off ch=4 par1=42 par2=64
Channel Event. t= 211 (31435) Note On ch=4 par1=47 par2=70
Channel Event. t= 0 (31435) Note On ch=4 par1=35 par2=86
Channel Event. t= 45 (31480) Note Off ch=4 par1=47 par2=64
Channel Event. t= 4 (31484) Note Off ch=4 par1=35 par2=64
Channel Event. t= 143 (31627) Note On ch=4 par1=36 par2=90
Channel Event. t= 0 (31627) Note On ch=4 par1=48 par2=77
Channel Event. t= 54 (31681) Note Off ch=4 par1=48 par2=64
Channel Event. t= 6 (31687) Note Off ch=4 par1=36 par2=64
Channel Event. t= 132 (31819) Note On ch=4 par1=50 par2=56
Channel Event. t= 0 (31819) Note On ch=4 par1=38 par2=54
Channel Event. t= 40 (31859) Note Off ch=4 par1=50 par2=64
Channel Event. t= 2 (31861) Note Off ch=4 par1=38 par2=64
Channel Event. t= 150 (32011) Note On ch=4 par1=40 par2=46
Channel Event. t= 0 (32011) Note On ch=4 par1=52 par2=41
Channel Event. t= 38 (32049) Note Off ch=4 par1=52 par2=64
Channel Event. t= 9 (32058) Note Off ch=4 par1=40 par2=64
Channel Event. t= 145 (32203) Note On ch=4 par1=41 par2=42
Channel Event. t= 0 (32203) Note On ch=4 par1=53 par2=41
Channel Event. t= 39 (32242) Note Off ch=4 par1=53 par2=64
Channel Event. t= 4 (32246) Note Off ch=4 par1=41 par2=64
Channel Event. t= 149 (32395) Note On ch=4 par1=42 par2=64
Channel Event. t= 0 (32395) Note On ch=4 par1=54 par2=51
Channel Event. t= 47 (32442) Note Off ch=4 par1=42 par2=64
Channel Event. t= 2 (32444) Note Off ch=4 par1=54 par2=64
Channel Event. t= 143 (32587) Note On ch=4 par1=43 par2=54
Channel Event. t= 0 (32587) Note On ch=4 par1=55 par2=53
Channel Event. t= 40 (32627) Note Off ch=4 par1=55 par2=64
Channel Event. t= 2 (32629) Note Off ch=4 par1=43 par2=64
Channel Event. t= 150 (32779) Note On ch=4 par1=42 par2=65
Channel Event. t= 0 (32779) Note On ch=4 par1=54 par2=48
Channel Event. t= 41 (32820) Note Off ch=4 par1=42 par2=64
Channel Event. t= 10 (32830) Note Off ch=4 par1=54 par2=64
Channel Event. t= 141 (32971) Note On ch=4 par1=43 par2=66
Channel Event. t= 0 (32971) Note On ch=4 par1=55 par2=64
Channel Event. t= 57 (33028) Note Off ch=4 par1=55 par2=64
Channel Event. t= 5 (33033) Note Off ch=4 par1=43 par2=64
Channel Event. t= 3766 (36799) Controller ch=4 par1=7 (Main Volume) par2=63
Channel Event. t= 12 (36811) Note On ch=4 par1=60 par2=84
Channel Event. t= 96 (36907) Note On ch=4 par1=55 par2=68
Channel Event. t= 11 (36918) Note Off ch=4 par1=60 par2=64
Channel Event. t= 85 (37003) Note On ch=4 par1=59 par2=66
Channel Event. t= 1 (37004) Note Off ch=4 par1=55 par2=64
Channel Event. t= 95 (37099) Note On ch=4 par1=55 par2=66
Channel Event. t= 5 (37104) Note Off ch=4 par1=59 par2=64
Channel Event. t= 85 (37189) Note Off ch=4 par1=55 par2=64
Channel Event. t= 6 (37195) Note On ch=4 par1=60 par2=65
Channel Event. t= 96 (37291) Note On ch=4 par1=55 par2=69
Channel Event. t= 6 (37297) Note Off ch=4 par1=60 par2=64
Channel Event. t= 89 (37386) Note Off ch=4 par1=55 par2=64
Channel Event. t= 1 (37387) Note On ch=4 par1=59 par2=67
Channel Event. t= 93 (37480) Note Off ch=4 par1=59 par2=64
Channel Event. t= 3 (37483) Note On ch=4 par1=55 par2=58
Channel Event. t= 96 (37579) Note Off ch=4 par1=55 par2=64
Channel Event. t= 0 (37579) Note On ch=4 par1=43 par2=82
Channel Event. t= 191 (37770) Note Off ch=4 par1=43 par2=64
Channel Event. t= 97 (37867) Note On ch=4 par1=47 par2=84
Channel Event. t= 96 (37963) Note On ch=4 par1=50 par2=83
Channel Event. t= 9 (37972) Note Off ch=4 par1=47 par2=64
Channel Event. t= 115 (38087) Note Off ch=4 par1=50 par2=64
Channel Event. t= 164 (38251) Note On ch=4 par1=54 par2=91
Channel Event. t= 96 (38347) Note On ch=4 par1=55 par2=93
Channel Event. t= 5 (38352) Note Off ch=4 par1=54 par2=64
Channel Event. t= 131 (38483) Note Off ch=4 par1=55 par2=64
Channel Event. t= 56 (38539) Note On ch=4 par1=49 par2=95
Channel Event. t= 96 (38635) Note On ch=4 par1=50 par2=84
Channel Event. t= 3 (38638) Note Off ch=4 par1=49 par2=64
Channel Event. t= 93 (38731) Note On ch=4 par1=47 par2=88
Channel Event. t= 6 (38737) Note Off ch=4 par1=50 par2=64
Channel Event. t= 113 (38850) Note Off ch=4 par1=47 par2=64
Channel Event. t= 73 (38923) Note On ch=4 par1=49 par2=87
Channel Event. t= 96 (39019) Note Off ch=4 par1=49 par2=64
Channel Event. t= 0 (39019) Note On ch=4 par1=50 par2=76
Channel Event. t= 53 (39072) Note Off ch=4 par1=50 par2=64
Channel Event. t= 43 (39115) Note On ch=4 par1=47 par2=87
Channel Event. t= 0 (39115) Note On ch=4 par1=35 par2=97
Channel Event. t= 96 (39211) Note Off ch=4 par1=47 par2=64
Channel Event. t= 0 (39211) Note Off ch=4 par1=35 par2=64
Channel Event. t= 96 (39307) Note On ch=4 par1=48 par2=83
Channel Event. t= 0 (39307) Note On ch=4 par1=36 par2=93
Channel Event. t= 96 (39403) Note Off ch=4 par1=48 par2=64
Channel Event. t= 0 (39403) Note Off ch=4 par1=36 par2=64
Channel Event. t= 96 (39499) Note On ch=4 par1=37 par2=81
Channel Event. t= 0 (39499) Note On ch=4 par1=49 par2=75
Channel Event. t= 96 (39595) Note Off ch=4 par1=37 par2=64
Channel Event. t= 0 (39595) Note Off ch=4 par1=49 par2=64
Channel Event. t= 96 (39691) Note On ch=4 par1=51 par2=68
Channel Event. t= 0 (39691) Note On ch=4 par1=39 par2=74
Channel Event. t= 96 (39787) Note Off ch=4 par1=51 par2=64
Channel Event. t= 0 (39787) Note Off ch=4 par1=39 par2=64
Channel Event. t= 48 (39835) Controller ch=4 par1=7 (Main Volume) par2=65
Channel Event. t= 48 (39883) Note On ch=4 par1=40 par2=61
Channel Event. t= 0 (39883) Note On ch=4 par1=52 par2=69
Channel Event. t= 97 (39980) Note Off ch=4 par1=40 par2=64
Channel Event. t= 2 (39982) Note Off ch=4 par1=52 par2=64
Channel Event. t= 93 (40075) Note On ch=4 par1=54 par2=65
Channel Event. t= 0 (40075) Note On ch=4 par1=42 par2=66
Channel Event. t= 156 (40231) Note Off ch=4 par1=42 par2=64
Channel Event. t= 7 (40238) Note Off ch=4 par1=54 par2=64
Channel Event. t= 29 (40267) Note On ch=4 par1=43 par2=52
Channel Event. t= 0 (40267) Note On ch=4 par1=55 par2=63
Channel Event. t= 130 (40397) Note Off ch=4 par1=55 par2=64
Channel Event. t= 3 (40400) Note Off ch=4 par1=43 par2=64
Channel Event. t= 59 (40459) Note On ch=4 par1=54 par2=63
Channel Event. t= 0 (40459) Note On ch=4 par1=42 par2=63
Channel Event. t= 109 (40568) Note Off ch=4 par1=42 par2=64
Channel Event. t= 16 (40584) Note Off ch=4 par1=54 par2=64
Channel Event. t= 67 (40651) Note On ch=4 par1=40 par2=55
Channel Event. t= 0 (40651) Note On ch=4 par1=52 par2=68
Channel Event. t= 113 (40764) Note Off ch=4 par1=52 par2=64
Channel Event. t= 7 (40771) Note Off ch=4 par1=40 par2=64
Channel Event. t= 72 (40843) Note On ch=4 par1=54 par2=69
Channel Event. t= 0 (40843) Note On ch=4 par1=42 par2=63
Channel Event. t= 132 (40975) Note Off ch=4 par1=54 par2=64
Channel Event. t= 0 (40975) Note Off ch=4 par1=42 par2=64
Channel Event. t= 60 (41035) Note On ch=4 par1=43 par2=52
Channel Event. t= 0 (41035) Note On ch=4 par1=55 par2=61
Channel Event. t= 121 (41156) Note Off ch=4 par1=55 par2=64
Channel Event. t= 8 (41164) Note Off ch=4 par1=43 par2=64
Channel Event. t= 63 (41227) Note On ch=4 par1=54 par2=72
Channel Event. t= 0 (41227) Note On ch=4 par1=42 par2=65
Channel Event. t= 130 (41357) Note Off ch=4 par1=42 par2=64
Channel Event. t= 6 (41363) Note Off ch=4 par1=54 par2=64
Channel Event. t= 56 (41419) Note On ch=4 par1=52 par2=66
Channel Event. t= 0 (41419) Note On ch=4 par1=40 par2=67
Channel Event. t= 121 (41540) Note Off ch=4 par1=52 par2=64
Channel Event. t= 5 (41545) Note Off ch=4 par1=40 par2=64
Channel Event. t= 66 (41611) Note On ch=4 par1=54 par2=70
Channel Event. t= 0 (41611) Note On ch=4 par1=42 par2=68
Channel Event. t= 114 (41725) Note Off ch=4 par1=42 par2=64
Channel Event. t= 6 (41731) Note Off ch=4 par1=54 par2=64
Channel Event. t= 72 (41803) Note On ch=4 par1=55 par2=67
Channel Event. t= 0 (41803) Note On ch=4 par1=43 par2=54
Channel Event. t= 117 (41920) Note Off ch=4 par1=43 par2=64
Channel Event. t= 2 (41922) Note Off ch=4 par1=55 par2=64
Channel Event. t= 73 (41995) Note On ch=4 par1=54 par2=72
Channel Event. t= 0 (41995) Note On ch=4 par1=42 par2=71
Channel Event. t= 114 (42109) Note Off ch=4 par1=42 par2=64
Channel Event. t= 8 (42117) Note Off ch=4 par1=54 par2=64
Channel Event. t= 70 (42187) Note On ch=4 par1=52 par2=67
Channel Event. t= 0 (42187) Note On ch=4 par1=40 par2=66
Channel Event. t= 114 (42301) Note Off ch=4 par1=52 par2=64
Channel Event. t= 5 (42306) Note Off ch=4 par1=40 par2=64
Channel Event. t= 73 (42379) Note On ch=4 par1=42 par2=63
Channel Event. t= 0 (42379) Note On ch=4 par1=54 par2=71
Channel Event. t= 133 (42512) Note Off ch=4 par1=42 par2=64
Channel Event. t= 2 (42514) Note Off ch=4 par1=54 par2=64
Channel Event. t= 57 (42571) Note On ch=4 par1=43 par2=53
Channel Event. t= 0 (42571) Note On ch=4 par1=55 par2=66
Channel Event. t= 125 (42696) Note Off ch=4 par1=55 par2=64
Channel Event. t= 8 (42704) Note Off ch=4 par1=43 par2=64
Channel Event. t= 59 (42763) Note On ch=4 par1=40 par2=64
Channel Event. t= 0 (42763) Note On ch=4 par1=52 par2=64
Channel Event. t= 141 (42904) Note Off ch=4 par1=40 par2=64
Channel Event. t= 6 (42910) Note Off ch=4 par1=52 par2=64
Channel Event. t= 45 (42955) Note On ch=4 par1=42 par2=65
Channel Event. t= 0 (42955) Note On ch=4 par1=54 par2=77
Channel Event. t= 141 (43096) Note Off ch=4 par1=42 par2=64
Channel Event. t= 7 (43103) Note Off ch=4 par1=54 par2=64
Channel Event. t= 44 (43147) Note On ch=4 par1=40 par2=63
Channel Event. t= 0 (43147) Note On ch=4 par1=52 par2=68
Channel Event. t= 129 (43276) Note Off ch=4 par1=52 par2=64
Channel Event. t= 15 (43291) Note Off ch=4 par1=40 par2=64
Channel Event. t= 48 (43339) Note On ch=4 par1=42 par2=65
Channel Event. t= 0 (43339) Note On ch=4 par1=54 par2=78
Channel Event. t= 157 (43496) Note Off ch=4 par1=54 par2=64
Channel Event. t= 13 (43509) Note Off ch=4 par1=42 par2=64
Channel Event. t= 22 (43531) Note On ch=4 par1=51 par2=90
Channel Event. t= 0 (43531) Note On ch=4 par1=39 par2=73
Channel Event. t= 138 (43669) Note Off ch=4 par1=39 par2=64
Channel Event. t= 23 (43692) Note Off ch=4 par1=51 par2=64
Channel Event. t= 31 (43723) Note On ch=4 par1=52 par2=77
Channel Event. t= 0 (43723) Note On ch=4 par1=40 par2=72
Channel Event. t= 120 (43843) Note Off ch=4 par1=40 par2=64
Channel Event. t= 12 (43855) Note Off ch=4 par1=52 par2=64
Channel Event. t= 60 (43915) Note On ch=4 par1=54 par2=79
Channel Event. t= 0 (43915) Note On ch=4 par1=42 par2=80
Channel Event. t= 127 (44042) Note Off ch=4 par1=54 par2=64
Channel Event. t= 8 (44050) Note Off ch=4 par1=42 par2=64
Channel Event. t= 57 (44107) Note On ch=4 par1=43 par2=63
Channel Event. t= 0 (44107) Note On ch=4 par1=55 par2=74
Channel Event. t= 132 (44239) Note Off ch=4 par1=55 par2=64
Channel Event. t= 5 (44244) Note Off ch=4 par1=43 par2=64
Channel Event. t= 55 (44299) Note On ch=4 par1=54 par2=77
Channel Event. t= 0 (44299) Note On ch=4 par1=42 par2=78
Channel Event. t= 102 (44401) Note Off ch=4 par1=42 par2=64
Channel Event. t= 66 (44467) Note Off ch=4 par1=54 par2=64
Channel Event. t= 24 (44491) Note On ch=4 par1=52 par2=80
Channel Event. t= 149 (44640) Note Off ch=4 par1=52 par2=64
Channel Event. t= 43 (44683) Note On ch=4 par1=54 par2=83
Channel Event. t= 143 (44826) Note Off ch=4 par1=54 par2=64
Channel Event. t= 49 (44875) Note On ch=4 par1=55 par2=76
Channel Event. t= 129 (45004) Note Off ch=4 par1=55 par2=64
Channel Event. t= 63 (45067) Note On ch=4 par1=42 par2=73
Channel Event. t= 0 (45067) Note On ch=4 par1=54 par2=80
Channel Event. t= 152 (45219) Note Off ch=4 par1=42 par2=64
Channel Event. t= 7 (45226) Note Off ch=4 par1=54 par2=64
Channel Event. t= 33 (45259) Note On ch=4 par1=52 par2=70
Channel Event. t= 0 (45259) Note On ch=4 par1=40 par2=74
Channel Event. t= 144 (45403) Note Off ch=4 par1=40 par2=64
Channel Event. t= 2 (45405) Note Off ch=4 par1=52 par2=64
Channel Event. t= 46 (45451) Note On ch=4 par1=42 par2=76
Channel Event. t= 0 (45451) Note On ch=4 par1=54 par2=76
Channel Event. t= 150 (45601) Note Off ch=4 par1=54 par2=64
Channel Event. t= 13 (45614) Note Off ch=4 par1=42 par2=64
Channel Event. t= 29 (45643) Note On ch=4 par1=43 par2=75
Channel Event. t= 0 (45643) Note On ch=4 par1=55 par2=65
Channel Event. t= 144 (45787) Note Off ch=4 par1=55 par2=64
Channel Event. t= 45 (45832) Note Off ch=4 par1=43 par2=64
Channel Event. t= 3 (45835) Note On ch=4 par1=52 par2=71
Channel Event. t= 0 (45835) Note On ch=4 par1=40 par2=78
Channel Event. t= 173 (46008) Note Off ch=4 par1=52 par2=64
Channel Event. t= 3 (46011) Note Off ch=4 par1=40 par2=64
Channel Event. t= 16 (46027) Note On ch=4 par1=35 par2=79
Channel Event. t= 0 (46027) Note On ch=4 par1=47 par2=75
Channel Event. t= 165 (46192) Note Off ch=4 par1=47 par2=64
Channel Event. t= 12 (46204) Note Off ch=4 par1=35 par2=64
Channel Event. t= 15 (46219) Note On ch=4 par1=54 par2=86
Channel Event. t= 0 (46219) Note On ch=4 par1=42 par2=79
Channel Event. t= 138 (46357) Note Off ch=4 par1=54 par2=64
Channel Event. t= 19 (46376) Note Off ch=4 par1=42 par2=64
Channel Event. t= 35 (46411) Note On ch=4 par1=47 par2=76
Channel Event. t= 0 (46411) Note On ch=4 par1=59 par2=66
Channel Event. t= 104 (46515) Note Off ch=4 par1=47 par2=64
Channel Event. t= 33 (46548) Note Off ch=4 par1=59 par2=64
Channel Event. t= 55 (46603) Note On ch=4 par1=35 par2=78
Channel Event. t= 0 (46603) Note On ch=4 par1=47 par2=76
Channel Event. t= 143 (46746) Note Off ch=4 par1=35 par2=64
Channel Event. t= 19 (46765) Note Off ch=4 par1=47 par2=64
Channel Event. t= 18 (46783) Controller ch=4 par1=7 (Main Volume) par2=63
Channel Event. t= 12 (46795) Note On ch=4 par1=36 par2=96
Channel Event. t= 382 (47177) Note Off ch=4 par1=36 par2=64
Channel Event. t= 2 (47179) Note On ch=4 par1=42 par2=96
Channel Event. t= 384 (47563) Note On ch=4 par1=48 par2=91
Channel Event. t= 21 (47584) Note Off ch=4 par1=42 par2=64
Channel Event. t= 363 (47947) Note On ch=4 par1=42 par2=94
Channel Event. t= 18 (47965) Note Off ch=4 par1=48 par2=64
Channel Event. t= 366 (48331) Note On ch=4 par1=36 par2=94
Channel Event. t= 16 (48347) Note Off ch=4 par1=42 par2=64
Channel Event. t= 368 (48715) Note On ch=4 par1=42 par2=97
Channel Event. t= 23 (48738) Note Off ch=4 par1=36 par2=64
Channel Event. t= 361 (49099) Note On ch=4 par1=48 par2=91
Channel Event. t= 17 (49116) Note Off ch=4 par1=42 par2=64
Channel Event. t= 367 (49483) Note On ch=4 par1=42 par2=92
Channel Event. t= 18 (49501) Note Off ch=4 par1=48 par2=64
Channel Event. t= 366 (49867) Note On ch=4 par1=36 par2=92
Channel Event. t= 15 (49882) Note Off ch=4 par1=42 par2=64
Channel Event. t= 369 (50251) Note On ch=4 par1=42 par2=90
Channel Event. t= 22 (50273) Note Off ch=4 par1=36 par2=64
Channel Event. t= 362 (50635) Note On ch=4 par1=48 par2=92
Channel Event. t= 18 (50653) Note Off ch=4 par1=42 par2=64
Channel Event. t= 366 (51019) Note On ch=4 par1=42 par2=86
Channel Event. t= 21 (51040) Note Off ch=4 par1=48 par2=64
Channel Event. t= 363 (51403) Note On ch=4 par1=36 par2=90
Channel Event. t= 15 (51418) Note Off ch=4 par1=42 par2=64
Channel Event. t= 369 (51787) Note On ch=4 par1=42 par2=92
Channel Event. t= 21 (51808) Note Off ch=4 par1=36 par2=64
Channel Event. t= 363 (52171) Note On ch=4 par1=48 par2=87
Channel Event. t= 15 (52186) Note Off ch=4 par1=42 par2=64
Channel Event. t= 369 (52555) Note On ch=4 par1=42 par2=91
Channel Event. t= 19 (52574) Note Off ch=4 par1=48 par2=64
Channel Event. t= 365 (52939) Note On ch=4 par1=36 par2=92
Channel Event. t= 1 (52940) Note Off ch=4 par1=42 par2=64
Channel Event. t= 383 (53323) Note On ch=4 par1=42 par2=93
Channel Event. t= 31 (53354) Note Off ch=4 par1=36 par2=64
Channel Event. t= 353 (53707) Note On ch=4 par1=35 par2=77
Channel Event. t= 0 (53707) Note On ch=4 par1=47 par2=80
Channel Event. t= 13 (53720) Note Off ch=4 par1=42 par2=64
Channel Event. t= 739 (54459) Note Off ch=4 par1=47 par2=64
Channel Event. t= 2 (54461) Note Off ch=4 par1=35 par2=64
Channel Event. t= 782 (55243) Note On ch=4 par1=36 par2=57
Channel Event. t= 0 (55243) Note On ch=4 par1=43 par2=66
Channel Event. t= 57 (55300) Note Off ch=4 par1=43 par2=64
Channel Event. t= 4 (55304) Note Off ch=4 par1=36 par2=64
Channel Event. t= 323 (55627) Note On ch=4 par1=43 par2=44
Channel Event. t= 0 (55627) Note On ch=4 par1=36 par2=41
Channel Event. t= 53 (55680) Note Off ch=4 par1=43 par2=64
Channel Event. t= 3 (55683) Note Off ch=4 par1=36 par2=64
Channel Event. t= 328 (56011) Note On ch=4 par1=43 par2=44
Channel Event. t= 0 (56011) Note On ch=4 par1=36 par2=40
Channel Event. t= 57 (56068) Note Off ch=4 par1=43 par2=64
Channel Event. t= 4 (56072) Note Off ch=4 par1=36 par2=64
Channel Event. t= 323 (56395) Note On ch=4 par1=43 par2=51
Channel Event. t= 0 (56395) Note On ch=4 par1=36 par2=27
Channel Event. t= 63 (56458) Note Off ch=4 par1=36 par2=64
Channel Event. t= 1 (56459) Note Off ch=4 par1=43 par2=64
Channel Event. t= 320 (56779) Note On ch=4 par1=43 par2=43
Channel Event. t= 0 (56779) Note On ch=4 par1=36 par2=56
Channel Event. t= 64 (56843) Note Off ch=4 par1=43 par2=64
Channel Event. t= 3 (56846) Note Off ch=4 par1=36 par2=64
Channel Event. t= 317 (57163) Note On ch=4 par1=36 par2=52
Channel Event. t= 0 (57163) Note On ch=4 par1=43 par2=53
Channel Event. t= 63 (57226) Note Off ch=4 par1=43 par2=64
Channel Event. t= 4 (57230) Note Off ch=4 par1=36 par2=64
Channel Event. t= 317 (57547) Note On ch=4 par1=36 par2=57
Channel Event. t= 0 (57547) Note On ch=4 par1=43 par2=62
Channel Event. t= 85 (57632) Note Off ch=4 par1=43 par2=64
Channel Event. t= 5 (57637) Note Off ch=4 par1=36 par2=64
Channel Event. t= 294 (57931) Note On ch=4 par1=41 par2=69
Channel Event. t= 0 (57931) Note On ch=4 par1=48 par2=63
Channel Event. t= 106 (58037) Note Off ch=4 par1=48 par2=64
Channel Event. t= 4 (58041) Note Off ch=4 par1=41 par2=64
Channel Event. t= 274 (58315) Note On ch=4 par1=42 par2=66
Channel Event. t= 0 (58315) Note On ch=4 par1=48 par2=39
Channel Event. t= 102 (58417) Note Off ch=4 par1=48 par2=64
Channel Event. t= 4 (58421) Note Off ch=4 par1=42 par2=64
Channel Event. t= 278 (58699) Note On ch=4 par1=43 par2=56
Channel Event. t= 0 (58699) Note On ch=4 par1=48 par2=52
Channel Event. t= 97 (58796) Note Off ch=4 par1=48 par2=64
Channel Event. t= 9 (58805) Note Off ch=4 par1=43 par2=64
Channel Event. t= 470 (59275) Note On ch=4 par1=36 par2=81
Channel Event. t= 360 (59635) Note Off ch=4 par1=36 par2=64
Channel Event. t= 72 (59707) Controller ch=4 par1=7 (Main Volume) par2=68
Channel Event. t= 96 (59803) Note On ch=4 par1=36 par2=72
Channel Event. t= 48 (59851) Note On ch=4 par1=43 par2=78
Channel Event. t= 1 (59852) Note Off ch=4 par1=36 par2=64
Channel Event. t= 66 (59918) Note Off ch=4 par1=43 par2=64
Channel Event. t= 77 (59995) Note On ch=4 par1=43 par2=68
Channel Event. t= 48 (60043) Note On ch=4 par1=36 par2=88
Channel Event. t= 8 (60051) Note Off ch=4 par1=43 par2=64
Channel Event. t= 327 (60378) Note Off ch=4 par1=36 par2=64
Channel Event. t= 1 (60379) Note On ch=4 par1=39 par2=77
Channel Event. t= 48 (60427) Note On ch=4 par1=40 par2=69
Channel Event. t= 14 (60441) Note Off ch=4 par1=39 par2=64
Channel Event. t= 113 (60554) Note Off ch=4 par1=40 par2=64
Channel Event. t= 17 (60571) Note On ch=4 par1=44 par2=70
Channel Event. t= 48 (60619) Note On ch=4 par1=45 par2=75
Channel Event. t= 1 (60620) Note Off ch=4 par1=44 par2=64
Channel Event. t= 119 (60739) Note Off ch=4 par1=45 par2=64
Channel Event. t= 24 (60763) Note On ch=4 par1=41 par2=81
Channel Event. t= 48 (60811) Note Off ch=4 par1=41 par2=64
Channel Event. t= 0 (60811) Note On ch=4 par1=50 par2=87
Channel Event. t= 86 (60897) Note Off ch=4 par1=50 par2=64
Channel Event. t= 10 (60907) Note On ch=4 par1=50 par2=90
Channel Event. t= 88 (60995) Note Off ch=4 par1=50 par2=64
Channel Event. t= 10 (61005) Note On ch=4 par1=50 par2=94
Channel Event. t= 56 (61061) Note On ch=4 par1=51 par2=84
Channel Event. t= 13 (61074) Note Off ch=4 par1=50 par2=64
Channel Event. t= 39 (61113) Note Off ch=4 par1=51 par2=64
Channel Event. t= 2 (61115) Note On ch=4 par1=52 par2=88
Channel Event. t= 28 (61143) Note Off ch=4 par1=52 par2=64
Channel Event. t= 30 (61173) Note On ch=4 par1=52 par2=97
Channel Event. t= 64 (61237) Note Off ch=4 par1=52 par2=64
Channel Event. t= 0 (61237) Note On ch=4 par1=53 par2=90
Channel Event. t= 72 (61309) Note On ch=4 par1=54 par2=77
Channel Event. t= 11 (61320) Note Off ch=4 par1=53 par2=64
Channel Event. t= 51 (61371) Note Off ch=4 par1=54 par2=64
Channel Event. t= 19 (61390) Note On ch=4 par1=55 par2=102
Channel Event. t= 551 (61941) Note Off ch=4 par1=55 par2=64
Channel Event. t= 23 (61964) Note On ch=4 par1=56 par2=96
Channel Event. t= 57 (62021) Note On ch=4 par1=57 par2=82
Channel Event. t= 6 (62027) Note Off ch=4 par1=56 par2=64
Channel Event. t= 55 (62082) Note On ch=4 par1=58 par2=92
Channel Event. t= 11 (62093) Note Off ch=4 par1=57 par2=64
Channel Event. t= 62 (62155) Note On ch=4 par1=59 par2=85
Channel Event. t= 5 (62160) Note Off ch=4 par1=58 par2=64
Channel Event. t= 379 (62539) Note On ch=4 par1=60 par2=76
Channel Event. t= 17 (62556) Note Off ch=4 par1=59 par2=64
Channel Event. t= 107 (62663) Note Off ch=4 par1=60 par2=64
Channel Event. t= 260 (62923) Note On ch=4 par1=48 par2=63
Channel Event. t= 754 (63677) Note Off ch=4 par1=48 par2=64
Channel Event. t= 782 (64459) Note On ch=4 par1=36 par2=68
Channel Event. t= 0 (64459) Note On ch=4 par1=43 par2=69
Channel Event. t= 119 (64578) Note Off ch=4 par1=36 par2=64
Channel Event. t= 3 (64581) Note Off ch=4 par1=43 par2=64
Channel Event. t= 262 (64843) Note On ch=4 par1=47 par2=81
Channel Event. t= 0 (64843) Note On ch=4 par1=40 par2=85
Channel Event. t= 171 (65014) Note Off ch=4 par1=47 par2=64
Channel Event. t= 5 (65019) Note Off ch=4 par1=40 par2=64
Channel Event. t= 208 (65227) Note On ch=4 par1=36 par2=75
Channel Event. t= 0 (65227) Note On ch=4 par1=43 par2=74
Channel Event. t= 184 (65411) Note Off ch=4 par1=43 par2=64
Channel Event. t= 1 (65412) Note Off ch=4 par1=36 par2=64
Channel Event. t= 199 (65611) Note On ch=4 par1=47 par2=76
Channel Event. t= 0 (65611) Note On ch=4 par1=40 par2=74
Channel Event. t= 222 (65833) Note Off ch=4 par1=47 par2=64
Channel Event. t= 1 (65834) Note Off ch=4 par1=40 par2=64
Channel Event. t= 161 (65995) Note On ch=4 par1=36 par2=77
Channel Event. t= 0 (65995) Note On ch=4 par1=43 par2=79
Channel Event. t= 221 (66216) Note Off ch=4 par1=43 par2=64
Channel Event. t= 1 (66217) Note Off ch=4 par1=36 par2=64
Channel Event. t= 162 (66379) Note On ch=4 par1=47 par2=74
Channel Event. t= 0 (66379) Note On ch=4 par1=40 par2=75
Channel Event. t= 220 (66599) Note Off ch=4 par1=40 par2=64
Channel Event. t= 10 (66609) Note Off ch=4 par1=47 par2=64
Channel Event. t= 154 (66763) Note On ch=4 par1=36 par2=74
Channel Event. t= 0 (66763) Note On ch=4 par1=43 par2=77
Channel Event. t= 203 (66966) Note Off ch=4 par1=36 par2=64
Channel Event. t= 13 (66979) Note Off ch=4 par1=43 par2=64
Channel Event. t= 168 (67147) Note On ch=4 par1=47 par2=80
Channel Event. t= 0 (67147) Note On ch=4 par1=40 par2=81
Channel Event. t= 249 (67396) Note Off ch=4 par1=47 par2=64
Channel Event. t= 10 (67406) Note Off ch=4 par1=40 par2=64
Channel Event. t= 125 (67531) Note On ch=4 par1=39 par2=93
Channel Event. t= 0 (67531) Note On ch=4 par1=32 par2=90
Channel Event. t= 198 (67729) Note Off ch=4 par1=32 par2=64
Channel Event. t= 2 (67731) Note Off ch=4 par1=39 par2=64
Channel Event. t= 184 (67915) Note On ch=4 par1=36 par2=85
Channel Event. t= 0 (67915) Note On ch=4 par1=43 par2=81
Channel Event. t= 222 (68137) Note Off ch=4 par1=43 par2=64
Channel Event. t= 4 (68141) Note Off ch=4 par1=36 par2=64
Channel Event. t= 158 (68299) Note On ch=4 par1=32 par2=87
Channel Event. t= 0 (68299) Note On ch=4 par1=39 par2=93
Channel Event. t= 217 (68516) Note Off ch=4 par1=32 par2=64
Channel Event. t= 2 (68518) Note Off ch=4 par1=39 par2=64
Channel Event. t= 165 (68683) Note On ch=4 par1=43 par2=85
Channel Event. t= 0 (68683) Note On ch=4 par1=36 par2=90
Channel Event. t= 227 (68910) Note Off ch=4 par1=36 par2=64
Channel Event. t= 1 (68911) Note Off ch=4 par1=43 par2=64
Channel Event. t= 156 (69067) Note On ch=4 par1=39 par2=84
Channel Event. t= 0 (69067) Note On ch=4 par1=46 par2=84
Channel Event. t= 217 (69284) Note Off ch=4 par1=39 par2=64
Channel Event. t= 3 (69287) Note Off ch=4 par1=46 par2=64
Channel Event. t= 164 (69451) Note On ch=4 par1=36 par2=85
Channel Event. t= 0 (69451) Note On ch=4 par1=43 par2=87
Channel Event. t= 243 (69694) Note Off ch=4 par1=43 par2=64
Channel Event. t= 10 (69704) Note Off ch=4 par1=36 par2=64
Channel Event. t= 131 (69835) Note On ch=4 par1=39 par2=83
Channel Event. t= 0 (69835) Note On ch=4 par1=46 par2=82
Channel Event. t= 236 (70071) Note Off ch=4 par1=46 par2=64
Channel Event. t= 6 (70077) Note Off ch=4 par1=39 par2=64
Channel Event. t= 142 (70219) Note On ch=4 par1=36 par2=79
Channel Event. t= 0 (70219) Note On ch=4 par1=43 par2=83
Channel Event. t= 223 (70442) Note Off ch=4 par1=36 par2=64
Channel Event. t= 16 (70458) Note Off ch=4 par1=43 par2=64
Channel Event. t= 145 (70603) Note On ch=4 par1=46 par2=97
Channel Event. t= 0 (70603) Note On ch=4 par1=39 par2=98
Channel Event. t= 236 (70839) Note Off ch=4 par1=39 par2=64
Channel Event. t= 2 (70841) Note Off ch=4 par1=46 par2=64
Channel Event. t= 146 (70987) Note On ch=4 par1=43 par2=66
Channel Event. t= 0 (70987) Note On ch=4 par1=50 par2=66
Channel Event. t= 227 (71214) Note Off ch=4 par1=43 par2=64
Channel Event. t= 15 (71229) Note Off ch=4 par1=50 par2=64
Channel Event. t= 142 (71371) Note On ch=4 par1=39 par2=90
Channel Event. t= 0 (71371) Note On ch=4 par1=46 par2=93
Channel Event. t= 245 (71616) Note Off ch=4 par1=39 par2=64
Channel Event. t= 8 (71624) Note Off ch=4 par1=46 par2=64
Channel Event. t= 131 (71755) Note On ch=4 par1=50 par2=71
Channel Event. t= 0 (71755) Note On ch=4 par1=43 par2=66
Channel Event. t= 191 (71946) Note Off ch=4 par1=43 par2=64
Channel Event. t= 13 (71959) Note Off ch=4 par1=50 par2=64
Channel Event. t= 180 (72139) Note On ch=4 par1=39 par2=86
Channel Event. t= 0 (72139) Note On ch=4 par1=46 par2=90
Channel Event. t= 269 (72408) Note Off ch=4 par1=39 par2=64
Channel Event. t= 9 (72417) Note Off ch=4 par1=46 par2=64
Channel Event. t= 106 (72523) Note On ch=4 par1=42 par2=80
Channel Event. t= 0 (72523) Note On ch=4 par1=50 par2=68
Channel Event. t= 204 (72727) Note Off ch=4 par1=42 par2=64
Channel Event. t= 6 (72733) Note Off ch=4 par1=50 par2=64
Channel Event. t= 174 (72907) Note On ch=4 par1=39 par2=91
Channel Event. t= 0 (72907) Note On ch=4 par1=46 par2=90
Channel Event. t= 217 (73124) Note Off ch=4 par1=39 par2=64
Channel Event. t= 10 (73134) Note Off ch=4 par1=46 par2=64
Channel Event. t= 157 (73291) Note On ch=4 par1=50 par2=72
Channel Event. t= 0 (73291) Note On ch=4 par1=43 par2=69
Channel Event. t= 193 (73484) Note Off ch=4 par1=43 par2=64
Channel Event. t= 6 (73490) Note Off ch=4 par1=50 par2=64
Channel Event. t= 185 (73675) Note On ch=4 par1=38 par2=88
Channel Event. t= 0 (73675) Note On ch=4 par1=47 par2=63
Channel Event. t= 192 (73867) Note Off ch=4 par1=38 par2=64
Channel Event. t= 0 (73867) Note Off ch=4 par1=47 par2=64
Channel Event. t= 192 (74059) Note On ch=4 par1=48 par2=87
Channel Event. t= 0 (74059) Note On ch=4 par1=38 par2=85
Channel Event. t= 213 (74272) Note Off ch=4 par1=38 par2=64
Channel Event. t= 10 (74282) Note Off ch=4 par1=48 par2=64
Channel Event. t= 257 (74539) Note On ch=4 par1=55 par2=95
Channel Event. t= 96 (74635) Note On ch=4 par1=53 par2=83
Channel Event. t= 15 (74650) Note Off ch=4 par1=55 par2=64
Channel Event. t= 81 (74731) Note On ch=4 par1=52 par2=78
Channel Event. t= 6 (74737) Note Off ch=4 par1=53 par2=64
Channel Event. t= 90 (74827) Note On ch=4 par1=50 par2=75
Channel Event. t= 2 (74829) Note Off ch=4 par1=52 par2=64
Channel Event. t= 94 (74923) Note On ch=4 par1=48 par2=54
Channel Event. t= 11 (74934) Note Off ch=4 par1=50 par2=64
Channel Event. t= 85 (75019) Note On ch=4 par1=47 par2=69
Channel Event. t= 6 (75025) Note Off ch=4 par1=48 par2=64
Channel Event. t= 85 (75110) Note Off ch=4 par1=47 par2=64
Channel Event. t= 5 (75115) Note On ch=4 par1=45 par2=46
Channel Event. t= 96 (75211) Controller ch=4 par1=7 (Main Volume) par2=54
Channel Event. t= 0 (75211) Note On ch=4 par1=43 par2=63
Channel Event. t= 15 (75226) Note Off ch=4 par1=45 par2=64
Channel Event. t= 81 (75307) Note On ch=4 par1=45 par2=55
Channel Event. t= 8 (75315) Note Off ch=4 par1=43 par2=64
Channel Event. t= 64 (75379) Controller ch=4 par1=7 (Main Volume) par2=53
Channel Event. t= 24 (75403) Note On ch=4 par1=47 par2=60
Channel Event. t= 17 (75420) Note Off ch=4 par1=45 par2=64
Channel Event. t= 77 (75497) Note Off ch=4 par1=47 par2=64
Channel Event. t= 2 (75499) Note On ch=4 par1=48 par2=67
Channel Event. t= 24 (75523) Controller ch=4 par1=7 (Main Volume) par2=52
Channel Event. t= 72 (75595) Note On ch=4 par1=50 par2=78
Channel Event. t= 16 (75611) Note Off ch=4 par1=48 par2=64
Channel Event. t= 80 (75691) Controller ch=4 par1=7 (Main Volume) par2=51
Channel Event. t= 0 (75691) Note On ch=4 par1=52 par2=68
Channel Event. t= 23 (75714) Note Off ch=4 par1=50 par2=64
Channel Event. t= 73 (75787) Note On ch=4 par1=54 par2=78
Channel Event. t= 15 (75802) Note Off ch=4 par1=52 par2=64
Channel Event. t= 33 (75835) Controller ch=4 par1=7 (Main Volume) par2=50
Channel Event. t= 39 (75874) Note Off ch=4 par1=54 par2=64
Channel Event. t= 9 (75883) Note On ch=4 par1=55 par2=65
Channel Event. t= 96 (75979) Controller ch=4 par1=7 (Main Volume) par2=49
Channel Event. t= 0 (75979) Note On ch=4 par1=44 par2=78
Channel Event. t= 0 (75979) Note On ch=4 par1=56 par2=83
Channel Event. t= 6 (75985) Note Off ch=4 par1=55 par2=64
Channel Event. t= 162 (76147) Controller ch=4 par1=7 (Main Volume) par2=48
Channel Event. t= 144 (76291) Controller ch=4 par1=7 (Main Volume) par2=47
Channel Event. t= 28 (76319) Note Off ch=4 par1=56 par2=64
Channel Event. t= 1 (76320) Note Off ch=4 par1=44 par2=64
Channel Event. t= 43 (76363) Note On ch=4 par1=56 par2=92
Channel Event. t= 0 (76363) Note On ch=4 par1=44 par2=95
Channel Event. t= 95 (76458) Note Off ch=4 par1=44 par2=64
Channel Event. t= 1 (76459) Controller ch=4 par1=7 (Main Volume) par2=46
Channel Event. t= 0 (76459) Note On ch=4 par1=47 par2=71
Channel Event. t= 0 (76459) Note On ch=4 par1=59 par2=83
Channel Event. t= 1 (76460) Note Off ch=4 par1=56 par2=64
Channel Event. t= 47 (76507) Note On ch=4 par1=51 par2=81
Channel Event. t= 0 (76507) Note On ch=4 par1=39 par2=78
Channel Event. t= 4 (76511) Note Off ch=4 par1=47 par2=64
Channel Event. t= 16 (76527) Note Off ch=4 par1=59 par2=64
Channel Event. t= 28 (76555) Note On ch=4 par1=44 par2=84
Channel Event. t= 0 (76555) Note On ch=4 par1=56 par2=88
Channel Event. t= 10 (76565) Note Off ch=4 par1=51 par2=64
Channel Event. t= 0 (76565) Note Off ch=4 par1=39 par2=64
Channel Event. t= 38 (76603) Controller ch=4 par1=7 (Main Volume) par2=45
Channel Event. t= 48 (76651) Note On ch=4 par1=47 par2=74
Channel Event. t= 0 (76651) Note On ch=4 par1=59 par2=82
Channel Event. t= 2 (76653) Note Off ch=4 par1=44 par2=64
Channel Event. t= 8 (76661) Note Off ch=4 par1=56 par2=64
Channel Event. t= 38 (76699) Note On ch=4 par1=51 par2=77
Channel Event. t= 0 (76699) Note On ch=4 par1=39 par2=79
Channel Event. t= 9 (76708) Note Off ch=4 par1=47 par2=64
Channel Event. t= 7 (76715) Note Off ch=4 par1=59 par2=64
Channel Event. t= 11 (76726) Note Off ch=4 par1=51 par2=64
Channel Event. t= 4 (76730) Note Off ch=4 par1=39 par2=64
Channel Event. t= 17 (76747) Controller ch=4 par1=7 (Main Volume) par2=44
Channel Event. t= 0 (76747) Note On ch=4 par1=35 par2=94
Channel Event. t= 96 (76843) Note On ch=4 par1=37 par2=75
Channel Event. t= 12 (76855) Note Off ch=4 par1=35 par2=64
Channel Event. t= 52 (76907) Note Off ch=4 par1=37 par2=64
Channel Event. t= 8 (76915) Controller ch=4 par1=7 (Main Volume) par2=43
Channel Event. t= 24 (76939) Note On ch=4 par1=39 par2=91
Channel Event. t= 96 (77035) Note On ch=4 par1=40 par2=80
Channel Event. t= 2 (77037) Note Off ch=4 par1=39 par2=64
Channel Event. t= 22 (77059) Controller ch=4 par1=7 (Main Volume) par2=42
Channel Event. t= 45 (77104) Note Off ch=4 par1=40 par2=64
Channel Event. t= 27 (77131) Note On ch=4 par1=42 par2=101
Channel Event. t= 96 (77227) Controller ch=4 par1=7 (Main Volume) par2=41
Channel Event. t= 0 (77227) Note On ch=4 par1=43 par2=77
Channel Event. t= 7 (77234) Note Off ch=4 par1=42 par2=64
Channel Event. t= 48 (77282) Note Off ch=4 par1=43 par2=64
Channel Event. t= 41 (77323) Note On ch=4 par1=44 par2=96
Channel Event. t= 48 (77371) Controller ch=4 par1=7 (Main Volume) par2=40
Channel Event. t= 48 (77419) Note On ch=4 par1=45 par2=80
Channel Event. t= 4 (77423) Note Off ch=4 par1=44 par2=64
Channel Event. t= 70 (77493) Note Off ch=4 par1=45 par2=64
Channel Event. t= 22 (77515) Controller ch=4 par1=7 (Main Volume) par2=39
Channel Event. t= 0 (77515) Note On ch=4 par1=57 par2=99
Channel Event. t= 168 (77683) Controller ch=4 par1=7 (Main Volume) par2=38
Channel Event. t= 24 (77707) Note On ch=4 par1=50 par2=95
Channel Event. t= 0 (77707) Note On ch=4 par1=38 par2=92
Channel Event. t= 33 (77740) Note Off ch=4 par1=50 par2=64
Channel Event. t= 13 (77753) Note Off ch=4 par1=38 par2=64
Channel Event. t= 74 (77827) Controller ch=4 par1=7 (Main Volume) par2=37
Channel Event. t= 72 (77899) Note Off ch=4 par1=57 par2=64
Channel Event. t= 0 (77899) Note On ch=4 par1=38 par2=89
Channel Event. t= 0 (77899) Note On ch=4 par1=55 par2=99
Channel Event. t= 0 (77899) Note On ch=4 par1=47 par2=89
Channel Event. t= 0 (77899) Note On ch=4 par1=31 par2=80
Channel Event. t= 96 (77995) Note Off ch=4 par1=38 par2=64
Channel Event. t= 0 (77995) Note Off ch=4 par1=55 par2=64
Channel Event. t= 0 (77995) Note Off ch=4 par1=47 par2=64
Channel Event. t= 0 (77995) Note Off ch=4 par1=31 par2=64
Channel Event. t= 0 (77995) Controller ch=4 par1=7 (Main Volume) par2=36
Channel Event. t= 144 (78139) Controller ch=4 par1=7 (Main Volume) par2=35
Channel Event. t= 0 (78139) 
Meta Event. Type: 0x2f (47dec), End of Track (0 bytes): 
track #10
track size: 4226
Channel Event. t= 0 (0) 
Meta Event. Type: 0x21 (33dec), MIDI Port (1 bytes): 0
Channel Event. t= 0 (0) 
Meta Event. Type: 0x3 (3dec), Sequence/Track Name (20 bytes): Strings             
Channel Event. t= 0 (0) Program Change ch=5 par1=48 par2=-127
Channel Event. t= 15872 (15872) Controller ch=5 par1=10 (Pan) par2=45
Channel Event. t= 756 (16628) Controller ch=5 par1=7 (Pan) par2=80
Channel Event. t= 15 (16643) Note On ch=5 par1=47 par2=127
Channel Event. t= 65 (16708) Note On ch=5 par1=48 par2=106
Channel Event. t= 16 (16724) Note Off ch=5 par1=47 par2=64
Channel Event. t= 17 (16741) Note On ch=5 par1=47 par2=98
Channel Event. t= 7 (16748) Note Off ch=5 par1=48 par2=64
Channel Event. t= 20 (16768) Note On ch=5 par1=48 par2=105
Channel Event. t= 16 (16784) Note Off ch=5 par1=47 par2=64
Channel Event. t= 16 (16800) Note On ch=5 par1=47 par2=104
Channel Event. t= 5 (16805) Note Off ch=5 par1=48 par2=64
Channel Event. t= 18 (16823) Note On ch=5 par1=48 par2=106
Channel Event. t= 15 (16838) Note Off ch=5 par1=47 par2=64
Channel Event. t= 15 (16853) Note On ch=5 par1=47 par2=110
Channel Event. t= 5 (16858) Note Off ch=5 par1=48 par2=64
Channel Event. t= 17 (16875) Note On ch=5 par1=48 par2=110
Channel Event. t= 16 (16891) Note Off ch=5 par1=47 par2=64
Channel Event. t= 15 (16906) Note On ch=5 par1=47 par2=108
Channel Event. t= 5 (16911) Note Off ch=5 par1=48 par2=64
Channel Event. t= 17 (16928) Note On ch=5 par1=48 par2=109
Channel Event. t= 17 (16945) Note Off ch=5 par1=47 par2=64
Channel Event. t= 11 (16956) Note On ch=5 par1=47 par2=91
Channel Event. t= 8 (16964) Note Off ch=5 par1=48 par2=64
Channel Event. t= 18 (16982) Note On ch=5 par1=48 par2=105
Channel Event. t= 14 (16996) Note Off ch=5 par1=47 par2=64
Channel Event. t= 12 (17008) Note On ch=5 par1=47 par2=88
Channel Event. t= 7 (17015) Note Off ch=5 par1=48 par2=64
Channel Event. t= 18 (17033) Note On ch=5 par1=48 par2=106
Channel Event. t= 12 (17045) Note Off ch=5 par1=47 par2=64
Channel Event. t= 16 (17061) Note On ch=5 par1=47 par2=98
Channel Event. t= 4 (17065) Note Off ch=5 par1=48 par2=64
Channel Event. t= 18 (17083) Note On ch=5 par1=48 par2=103
Channel Event. t= 13 (17096) Note Off ch=5 par1=47 par2=64
Channel Event. t= 14 (17110) Note On ch=5 par1=47 par2=92
Channel Event. t= 5 (17115) Note Off ch=5 par1=48 par2=64
Channel Event. t= 18 (17133) Note On ch=5 par1=48 par2=106
Channel Event. t= 13 (17146) Note Off ch=5 par1=47 par2=64
Channel Event. t= 10 (17156) Note On ch=5 par1=47 par2=78
Channel Event. t= 5 (17161) Note Off ch=5 par1=48 par2=64
Channel Event. t= 19 (17180) Note On ch=5 par1=48 par2=97
Channel Event. t= 28 (17208) Note Off ch=5 par1=48 par2=64
Channel Event. t= 21 (17229) Note On ch=5 par1=48 par2=83
Channel Event. t= 15 (17244) Note Off ch=5 par1=47 par2=64
Channel Event. t= 20 (17264) Note On ch=5 par1=47 par2=108
Channel Event. t= 5 (17269) Note Off ch=5 par1=48 par2=64
Channel Event. t= 19 (17288) Note Off ch=5 par1=47 par2=64
Channel Event. t= 0 (17288) Note On ch=5 par1=48 par2=84
Channel Event. t= 24 (17312) Note On ch=5 par1=47 par2=84
Channel Event. t= 8 (17320) Note Off ch=5 par1=48 par2=64
Channel Event. t= 16 (17336) Note Off ch=5 par1=47 par2=64
Channel Event. t= 0 (17336) Note On ch=5 par1=48 par2=84
Channel Event. t= 24 (17360) Note On ch=5 par1=47 par2=84
Channel Event. t= 8 (17368) Note Off ch=5 par1=48 par2=64
Channel Event. t= 40 (17408) Note Off ch=5 par1=47 par2=64
Channel Event. t= 8 (17416) Note On ch=5 par1=47 par2=118
Channel Event. t= 65 (17481) Note On ch=5 par1=48 par2=97
Channel Event. t= 8 (17489) Note Off ch=5 par1=47 par2=64
Channel Event. t= 22 (17511) Note On ch=5 par1=47 par2=87
Channel Event. t= 2 (17513) Note Off ch=5 par1=48 par2=64
Channel Event. t= 25 (17538) Note On ch=5 par1=48 par2=89
Channel Event. t= 7 (17545) Note Off ch=5 par1=47 par2=64
Channel Event. t= 18 (17563) Note On ch=5 par1=47 par2=101
Channel Event. t= 4 (17567) Note Off ch=5 par1=48 par2=64
Channel Event. t= 21 (17588) Note On ch=5 par1=48 par2=89
Channel Event. t= 6 (17594) Note Off ch=5 par1=47 par2=64
Channel Event. t= 17 (17611) Note On ch=5 par1=47 par2=102
Channel Event. t= 4 (17615) Note Off ch=5 par1=48 par2=64
Channel Event. t= 23 (17638) Note On ch=5 par1=48 par2=89
Channel Event. t= 5 (17643) Note Off ch=5 par1=47 par2=64
Channel Event. t= 18 (17661) Note On ch=5 par1=47 par2=100
Channel Event. t= 3 (17664) Note Off ch=5 par1=48 par2=64
Channel Event. t= 28 (17692) Note On ch=5 par1=48 par2=69
Channel Event. t= 3 (17695) Note Off ch=5 par1=47 par2=64
Channel Event. t= 13 (17708) Note On ch=5 par1=47 par2=89
Channel Event. t= 2 (17710) Note Off ch=5 par1=48 par2=64
Channel Event. t= 26 (17736) Note On ch=5 par1=48 par2=80
Channel Event. t= 3 (17739) Note Off ch=5 par1=47 par2=64
Channel Event. t= 18 (17757) Note On ch=5 par1=47 par2=98
Channel Event. t= 1 (17758) Note Off ch=5 par1=48 par2=64
Channel Event. t= 28 (17786) Note On ch=5 par1=48 par2=61
Channel Event. t= 3 (17789) Note Off ch=5 par1=47 par2=64
Channel Event. t= 16 (17805) Note On ch=5 par1=47 par2=101
Channel Event. t= 2 (17807) Note Off ch=5 par1=48 par2=64
Channel Event. t= 23 (17830) Note On ch=5 par1=48 par2=67
Channel Event. t= 2 (17832) Note Off ch=5 par1=47 par2=64
Channel Event. t= 17 (17849) Note On ch=5 par1=47 par2=105
Channel Event. t= 2 (17851) Note Off ch=5 par1=48 par2=64
Channel Event. t= 24 (17875) Note On ch=5 par1=48 par2=39
Channel Event. t= 3 (17878) Note Off ch=5 par1=47 par2=64
Channel Event. t= 17 (17895) Note On ch=5 par1=47 par2=104
Channel Event. t= 11 (17906) Note Off ch=5 par1=48 par2=64
Channel Event. t= 20 (17926) Note On ch=5 par1=48 par2=78
Channel Event. t= 1 (17927) Note Off ch=5 par1=47 par2=64
Channel Event. t= 21 (17948) Note On ch=5 par1=47 par2=89
Channel Event. t= 1 (17949) Note Off ch=5 par1=48 par2=64
Channel Event. t= 20 (17969) Note On ch=5 par1=48 par2=89
Channel Event. t= 18 (17987) Note Off ch=5 par1=47 par2=64
Channel Event. t= 22 (18009) Note On ch=5 par1=47 par2=87
Channel Event. t= 12 (18021) Note Off ch=5 par1=48 par2=64
Channel Event. t= 30 (18051) Note Off ch=5 par1=47 par2=64
Channel Event. t= 3 (18054) Note On ch=5 par1=48 par2=84
Channel Event. t= 25 (18079) Note On ch=5 par1=47 par2=84
Channel Event. t= 7 (18086) Note Off ch=5 par1=48 par2=64
Channel Event. t= 18 (18104) Note On ch=5 par1=48 par2=84
Channel Event. t= 7 (18111) Note Off ch=5 par1=47 par2=64
Channel Event. t= 17 (18128) Note On ch=5 par1=47 par2=84
Channel Event. t= 8 (18136) Note Off ch=5 par1=48 par2=64
Channel Event. t= 24 (18160) Note Off ch=5 par1=47 par2=64
Channel Event. t= 12 (18172) Note On ch=5 par1=47 par2=120
Channel Event. t= 54 (18226) Note On ch=5 par1=48 par2=99
Channel Event. t= 4 (18230) Note Off ch=5 par1=47 par2=64
Channel Event. t= 27 (18257) Note Off ch=5 par1=48 par2=64
Channel Event. t= 1 (18258) Note On ch=5 par1=47 par2=90
Channel Event. t= 26 (18284) Note On ch=5 par1=48 par2=87
Channel Event. t= 5 (18289) Note Off ch=5 par1=47 par2=64
Channel Event. t= 21 (18310) Note On ch=5 par1=47 par2=92
Channel Event. t= 2 (18312) Note Off ch=5 par1=48 par2=64
Channel Event. t= 24 (18336) Note On ch=5 par1=48 par2=89
Channel Event. t= 7 (18343) Note Off ch=5 par1=47 par2=64
Channel Event. t= 19 (18362) Note On ch=5 par1=47 par2=98
Channel Event. t= 3 (18365) Note Off ch=5 par1=48 par2=64
Channel Event. t= 22 (18387) Note On ch=5 par1=48 par2=91
Channel Event. t= 6 (18393) Note Off ch=5 par1=47 par2=64
Channel Event. t= 19 (18412) Note On ch=5 par1=47 par2=97
Channel Event. t= 3 (18415) Note Off ch=5 par1=48 par2=64
Channel Event. t= 20 (18435) Note On ch=5 par1=48 par2=91
Channel Event. t= 6 (18441) Note Off ch=5 par1=47 par2=64
Channel Event. t= 19 (18460) Note On ch=5 par1=47 par2=94
Channel Event. t= 3 (18463) Note Off ch=5 par1=48 par2=64
Channel Event. t= 24 (18487) Note On ch=5 par1=48 par2=85
Channel Event. t= 5 (18492) Note Off ch=5 par1=47 par2=64
Channel Event. t= 19 (18511) Note Off ch=5 par1=48 par2=64
Channel Event. t= 1 (18512) Note On ch=5 par1=47 par2=104
Channel Event. t= 28 (18540) Note On ch=5 par1=48 par2=90
Channel Event. t= 1 (18541) Note Off ch=5 par1=47 par2=64
Channel Event. t= 18 (18559) Note Off ch=5 par1=48 par2=64
Channel Event. t= 2 (18561) Note On ch=5 par1=47 par2=93
Channel Event. t= 29 (18590) Note On ch=5 par1=48 par2=86
Channel Event. t= 5 (18595) Note Off ch=5 par1=47 par2=64
Channel Event. t= 14 (18609) Note Off ch=5 par1=48 par2=64
Channel Event. t= 2 (18611) Note On ch=5 par1=47 par2=100
Channel Event. t= 32 (18643) Note On ch=5 par1=48 par2=77
Channel Event. t= 2 (18645) Note Off ch=5 par1=47 par2=64
Channel Event. t= 18 (18663) Note On ch=5 par1=47 par2=96
Channel Event. t= 2 (18665) Note Off ch=5 par1=48 par2=64
Channel Event. t= 29 (18694) Note On ch=5 par1=48 par2=89
Channel Event. t= 25 (18719) Note Off ch=5 par1=48 par2=64
Channel Event. t= 39 (18758) Note On ch=5 par1=48 par2=104
Channel Event. t= 9 (18767) Note Off ch=5 par1=47 par2=64
Channel Event. t= 24 (18791) Note On ch=5 par1=47 par2=101
Channel Event. t= 5 (18796) Note Off ch=5 par1=48 par2=64
Channel Event. t= 126 (18922) Note Off ch=5 par1=47 par2=64
Channel Event. t= 39 (18961) Note On ch=5 par1=47 par2=127
Channel Event. t= 66 (19027) Note On ch=5 par1=48 par2=103
Channel Event. t= 7 (19034) Note Off ch=5 par1=47 par2=64
Channel Event. t= 25 (19059) Note On ch=5 par1=47 par2=85
Channel Event. t= 7 (19066) Note Off ch=5 par1=48 par2=64
Channel Event. t= 23 (19089) Note On ch=5 par1=48 par2=93
Channel Event. t= 11 (19100) Note Off ch=5 par1=47 par2=64
Channel Event. t= 19 (19119) Note On ch=5 par1=47 par2=93
Channel Event. t= 2 (19121) Note Off ch=5 par1=48 par2=64
Channel Event. t= 23 (19144) Note On ch=5 par1=48 par2=90
Channel Event. t= 13 (19157) Note Off ch=5 par1=47 par2=64
Channel Event. t= 17 (19174) Note On ch=5 par1=47 par2=102
Channel Event. t= 3 (19177) Note Off ch=5 par1=48 par2=64
Channel Event. t= 21 (19198) Note On ch=5 par1=48 par2=90
Channel Event. t= 13 (19211) Note Off ch=5 par1=47 par2=64
Channel Event. t= 15 (19226) Note On ch=5 par1=47 par2=94
Channel Event. t= 4 (19230) Note Off ch=5 par1=48 par2=64
Channel Event. t= 24 (19254) Note On ch=5 par1=48 par2=88
Channel Event. t= 10 (19264) Note Off ch=5 par1=47 par2=64
Channel Event. t= 18 (19282) Note On ch=5 par1=47 par2=99
Channel Event. t= 6 (19288) Note Off ch=5 par1=48 par2=64
Channel Event. t= 23 (19311) Note On ch=5 par1=48 par2=93
Channel Event. t= 11 (19322) Note Off ch=5 par1=47 par2=64
Channel Event. t= 18 (19340) Note On ch=5 par1=47 par2=92
Channel Event. t= 2 (19342) Note Off ch=5 par1=48 par2=64
Channel Event. t= 27 (19369) Note On ch=5 par1=48 par2=70
Channel Event. t= 14 (19383) Note Off ch=5 par1=47 par2=64
Channel Event. t= 16 (19399) Note Off ch=5 par1=48 par2=64
Channel Event. t= 1 (19400) Note On ch=5 par1=47 par2=92
Channel Event. t= 31 (19431) Note On ch=5 par1=48 par2=57
Channel Event. t= 8 (19439) Note Off ch=5 par1=47 par2=64
Channel Event. t= 20 (19459) Note On ch=5 par1=47 par2=95
Channel Event. t= 4 (19463) Note Off ch=5 par1=48 par2=64
Channel Event. t= 21 (19484) Note On ch=5 par1=48 par2=93
Channel Event. t= 14 (19498) Note Off ch=5 par1=47 par2=64
Channel Event. t= 32 (19530) Note On ch=5 par1=47 par2=114
Channel Event. t= 1 (19531) Note Off ch=5 par1=48 par2=64
Channel Event. t= 114 (19645) Note Off ch=5 par1=47 par2=64
Channel Event. t= 78 (19723) Note On ch=5 par1=52 par2=127
Channel Event. t= 71 (19794) Note On ch=5 par1=53 par2=104
Channel Event. t= 5 (19799) Note Off ch=5 par1=52 par2=64
Channel Event. t= 23 (19822) Note On ch=5 par1=52 par2=98
Channel Event. t= 4 (19826) Note Off ch=5 par1=53 par2=64
Channel Event. t= 27 (19853) Note On ch=5 par1=53 par2=104
Channel Event. t= 8 (19861) Note Off ch=5 par1=52 par2=64
Channel Event. t= 21 (19882) Note Off ch=5 par1=53 par2=64
Channel Event. t= 0 (19882) Note On ch=5 par1=52 par2=96
Channel Event. t= 25 (19907) Note On ch=5 par1=53 par2=94
Channel Event. t= 10 (19917) Note Off ch=5 par1=52 par2=64
Channel Event. t= 18 (19935) Note Off ch=5 par1=53 par2=64
Channel Event. t= 3 (19938) Note On ch=5 par1=52 par2=93
Channel Event. t= 23 (19961) Note On ch=5 par1=53 par2=90
Channel Event. t= 13 (19974) Note Off ch=5 par1=52 par2=64
Channel Event. t= 16 (19990) Note Off ch=5 par1=53 par2=64
Channel Event. t= 1 (19991) Note On ch=5 par1=52 par2=94
Channel Event. t= 22 (20013) Note On ch=5 par1=53 par2=86
Channel Event. t= 13 (20026) Note Off ch=5 par1=52 par2=64
Channel Event. t= 16 (20042) Note Off ch=5 par1=53 par2=64
Channel Event. t= 4 (20046) Note On ch=5 par1=52 par2=92
Channel Event. t= 19 (20065) Note On ch=5 par1=53 par2=83
Channel Event. t= 17 (20082) Note Off ch=5 par1=52 par2=64
Channel Event. t= 12 (20094) Note Off ch=5 par1=53 par2=64
Channel Event. t= 2 (20096) Note On ch=5 par1=52 par2=89
Channel Event. t= 23 (20119) Note On ch=5 par1=53 par2=70
Channel Event. t= 15 (20134) Note Off ch=5 par1=52 par2=64
Channel Event. t= 21 (20155) Note Off ch=5 par1=53 par2=64
Channel Event. t= 0 (20155) Note On ch=5 par1=52 par2=97
Channel Event. t= 25 (20180) Note On ch=5 par1=53 par2=91
Channel Event. t= 13 (20193) Note Off ch=5 par1=52 par2=64
Channel Event. t= 17 (20210) Note Off ch=5 par1=53 par2=64
Channel Event. t= 2 (20212) Note On ch=5 par1=52 par2=96
Channel Event. t= 36 (20248) Note On ch=5 par1=53 par2=73
Channel Event. t= 18 (20266) Note Off ch=5 par1=52 par2=64
Channel Event. t= 43 (20309) Note On ch=5 par1=52 par2=116
Channel Event. t= 3 (20312) Note Off ch=5 par1=53 par2=64
Channel Event. t= 89 (20401) Note Off ch=5 par1=52 par2=64
Channel Event. t= 85 (20486) Note On ch=5 par1=47 par2=127
Channel Event. t= 65 (20551) Note On ch=5 par1=48 par2=101
Channel Event. t= 7 (20558) Note Off ch=5 par1=47 par2=64
Channel Event. t= 24 (20582) Note Off ch=5 par1=48 par2=64
Channel Event. t= 4 (20586) Note On ch=5 par1=47 par2=90
Channel Event. t= 23 (20609) Note On ch=5 par1=48 par2=75
Channel Event. t= 12 (20621) Note Off ch=5 par1=47 par2=64
Channel Event. t= 21 (20642) Note Off ch=5 par1=48 par2=64
Channel Event. t= 0 (20642) Note On ch=5 par1=47 par2=86
Channel Event. t= 27 (20669) Note On ch=5 par1=48 par2=73
Channel Event. t= 7 (20676) Note Off ch=5 par1=47 par2=64
Channel Event. t= 20 (20696) Note On ch=5 par1=47 par2=91
Channel Event. t= 9 (20705) Note Off ch=5 par1=48 par2=64
Channel Event. t= 24 (20729) Note On ch=5 par1=48 par2=99
Channel Event. t= 4 (20733) Note Off ch=5 par1=47 par2=64
Channel Event. t= 24 (20757) Note On ch=5 par1=47 par2=90
Channel Event. t= 2 (20759) Note Off ch=5 par1=48 par2=64
Channel Event. t= 23 (20782) Note On ch=5 par1=48 par2=40
Channel Event. t= 12 (20794) Note Off ch=5 par1=47 par2=64
Channel Event. t= 23 (20817) Note On ch=5 par1=47 par2=81
Channel Event. t= 4 (20821) Note Off ch=5 par1=48 par2=64
Channel Event. t= 26 (20847) Note On ch=5 par1=48 par2=77
Channel Event. t= 12 (20859) Note Off ch=5 par1=47 par2=64
Channel Event. t= 25 (20884) Note Off ch=5 par1=48 par2=64
Channel Event. t= 1 (20885) Note On ch=5 par1=47 par2=73
Channel Event. t= 24 (20909) Note On ch=5 par1=48 par2=89
Channel Event. t= 9 (20918) Note Off ch=5 par1=47 par2=64
Channel Event. t= 26 (20944) Note On ch=5 par1=47 par2=85
Channel Event. t= 2 (20946) Note Off ch=5 par1=48 par2=64
Channel Event. t= 22 (20968) Note On ch=5 par1=48 par2=72
Channel Event. t= 11 (20979) Note Off ch=5 par1=47 par2=64
Channel Event. t= 21 (21000) Note On ch=5 par1=47 par2=89
Channel Event. t= 5 (21005) Note Off ch=5 par1=48 par2=64
Channel Event. t= 24 (21029) Note On ch=5 par1=48 par2=89
Channel Event. t= 10 (21039) Note Off ch=5 par1=47 par2=64
Channel Event. t= 30 (21069) Note On ch=5 par1=47 par2=92
Channel Event. t= 12 (21081) Note Off ch=5 par1=48 par2=64
Channel Event. t= 152 (21233) Note Off ch=5 par1=47 par2=64
Channel Event. t= 23 (21256) Note On ch=5 par1=47 par2=119
Channel Event. t= 56 (21312) Note On ch=5 par1=48 par2=97
Channel Event. t= 2 (21314) Note Off ch=5 par1=47 par2=64
Channel Event. t= 29 (21343) Note On ch=5 par1=47 par2=87
Channel Event. t= 6 (21349) Note Off ch=5 par1=48 par2=64
Channel Event. t= 21 (21370) Note On ch=5 par1=48 par2=89
Channel Event. t= 14 (21384) Note Off ch=5 par1=47 par2=64
Channel Event. t= 18 (21402) Note On ch=5 par1=47 par2=97
Channel Event. t= 3 (21405) Note Off ch=5 par1=48 par2=64
Channel Event. t= 23 (21428) Note On ch=5 par1=48 par2=88
Channel Event. t= 12 (21440) Note Off ch=5 par1=47 par2=64
Channel Event. t= 18 (21458) Note On ch=5 par1=47 par2=97
Channel Event. t= 3 (21461) Note Off ch=5 par1=48 par2=64
Channel Event. t= 27 (21488) Note On ch=5 par1=48 par2=75
Channel Event. t= 9 (21497) Note Off ch=5 par1=47 par2=64
Channel Event. t= 16 (21513) Note On ch=5 par1=47 par2=97
Channel Event. t= 5 (21518) Note Off ch=5 par1=48 par2=64
Channel Event. t= 25 (21543) Note On ch=5 par1=48 par2=78
Channel Event. t= 9 (21552) Note Off ch=5 par1=47 par2=64
Channel Event. t= 22 (21574) Note On ch=5 par1=47 par2=86
Channel Event. t= 6 (21580) Note Off ch=5 par1=48 par2=64
Channel Event. t= 23 (21603) Note On ch=5 par1=48 par2=90
Channel Event. t= 10 (21613) Note Off ch=5 par1=47 par2=64
Channel Event. t= 19 (21632) Note Off ch=5 par1=48 par2=64
Channel Event. t= 0 (21632) Note On ch=5 par1=47 par2=95
Channel Event. t= 24 (21656) Note On ch=5 par1=48 par2=77
Channel Event. t= 15 (21671) Note Off ch=5 par1=47 par2=64
Channel Event. t= 18 (21689) Note On ch=5 par1=47 par2=98
Channel Event. t= 3 (21692) Note Off ch=5 par1=48 par2=64
Channel Event. t= 20 (21712) Note On ch=5 par1=48 par2=96
Channel Event. t= 12 (21724) Note Off ch=5 par1=47 par2=64
Channel Event. t= 19 (21743) Note On ch=5 par1=47 par2=88
Channel Event. t= 1 (21744) Note Off ch=5 par1=48 par2=64
Channel Event. t= 30 (21774) Note On ch=5 par1=48 par2=77
Channel Event. t= 13 (21787) Note Off ch=5 par1=47 par2=64
Channel Event. t= 17 (21804) Note Off ch=5 par1=48 par2=64
Channel Event. t= 1 (21805) Note On ch=5 par1=47 par2=89
Channel Event. t= 22 (21827) Note On ch=5 par1=48 par2=53
Channel Event. t= 22 (21849) Note Off ch=5 par1=48 par2=64
Channel Event. t= 19 (21868) Note On ch=5 par1=48 par2=106
Channel Event. t= 13 (21881) Note Off ch=5 par1=47 par2=64
Channel Event. t= 43 (21924) Note On ch=5 par1=47 par2=57
Channel Event. t= 18 (21942) Note Off ch=5 par1=47 par2=64
Channel Event. t= 10 (21952) Note Off ch=5 par1=48 par2=64
Channel Event. t= 76 (22028) Note On ch=5 par1=47 par2=127
Channel Event. t= 58 (22086) Note On ch=5 par1=48 par2=94
Channel Event. t= 13 (22099) Note Off ch=5 par1=47 par2=64
Channel Event. t= 25 (22124) Note Off ch=5 par1=48 par2=64
Channel Event. t= 1 (22125) Note On ch=5 par1=47 par2=89
Channel Event. t= 29 (22154) Note On ch=5 par1=48 par2=95
Channel Event. t= 5 (22159) Note Off ch=5 par1=47 par2=64
Channel Event. t= 26 (22185) Note On ch=5 par1=47 par2=91
Channel Event. t= 1 (22186) Note Off ch=5 par1=48 par2=64
Channel Event. t= 25 (22211) Note On ch=5 par1=48 par2=94
Channel Event. t= 8 (22219) Note Off ch=5 par1=47 par2=64
Channel Event. t= 22 (22241) Note Off ch=5 par1=48 par2=64
Channel Event. t= 4 (22245) Note On ch=5 par1=47 par2=86
Channel Event. t= 16 (22261) Note On ch=5 par1=48 par2=98
Channel Event. t= 12 (22273) Note Off ch=5 par1=47 par2=64
Channel Event. t= 20 (22293) Note Off ch=5 par1=48 par2=64
Channel Event. t= 7 (22300) Note On ch=5 par1=47 par2=83
Channel Event. t= 10 (22310) Note On ch=5 par1=48 par2=86
Channel Event. t= 19 (22329) Note Off ch=5 par1=47 par2=64
Channel Event. t= 13 (22342) Note Off ch=5 par1=48 par2=64
Channel Event. t= 6 (22348) Note On ch=5 par1=47 par2=96
Channel Event. t= 13 (22361) Note On ch=5 par1=48 par2=76
Channel Event. t= 21 (22382) Note Off ch=5 par1=47 par2=64
Channel Event. t= 15 (22397) Note On ch=5 par1=47 par2=89
Channel Event. t= 1 (22398) Note Off ch=5 par1=48 par2=64
Channel Event. t= 19 (22417) Note On ch=5 par1=48 par2=87
Channel Event. t= 14 (22431) Note Off ch=5 par1=47 par2=64
Channel Event. t= 20 (22451) Note On ch=5 par1=47 par2=97
Channel Event. t= 1 (22452) Note Off ch=5 par1=48 par2=64
Channel Event. t= 52 (22504) Note On ch=5 par1=48 par2=43
Channel Event. t= 13 (22517) Note Off ch=5 par1=47 par2=64
Channel Event. t= 25 (22542) Note On ch=5 par1=47 par2=89
Channel Event. t= 6 (22548) Note Off ch=5 par1=48 par2=64
Channel Event. t= 36 (22584) Note On ch=5 par1=48 par2=63
Channel Event. t= 13 (22597) Note Off ch=5 par1=47 par2=64
Channel Event. t= 26 (22623) Note On ch=5 par1=47 par2=101
Channel Event. t= 8 (22631) Note Off ch=5 par1=48 par2=64
Channel Event. t= 87 (22718) Note Off ch=5 par1=47 par2=64
Channel Event. t= 66 (22784) Note On ch=5 par1=47 par2=41
Channel Event. t= 73 (22857) Note Off ch=5 par1=47 par2=64
Channel Event. t= 503 (23360) Note On ch=5 par1=71 par2=90
Channel Event. t= 192 (23552) Note On ch=5 par1=72 par2=89
Channel Event. t= 37 (23589) Note Off ch=5 par1=71 par2=64
Channel Event. t= 77 (23666) Note Off ch=5 par1=72 par2=64
Channel Event. t= 39 (23705) Note On ch=5 par1=48 par2=86
Channel Event. t= 23 (23728) Note On ch=5 par1=52 par2=93
Channel Event. t= 10 (23738) Note On ch=5 par1=55 par2=89
Channel Event. t= 6 (23744) Note On ch=5 par1=74 par2=76
Channel Event. t= 7 (23751) Note On ch=5 par1=60 par2=99
Channel Event. t= 2 (23753) Note Off ch=5 par1=48 par2=64
Channel Event. t= 29 (23782) Note Off ch=5 par1=52 par2=64
Channel Event. t= 29 (23811) Note Off ch=5 par1=55 par2=64
Channel Event. t= 7 (23818) Note Off ch=5 par1=74 par2=64
Channel Event. t= 64 (23882) Note Off ch=5 par1=60 par2=64
Channel Event. t= 54 (23936) Note On ch=5 par1=75 par2=101
Channel Event. t= 90 (24026) Note Off ch=5 par1=75 par2=64
Channel Event. t= 78 (24104) Note On ch=5 par1=51 par2=79
Channel Event. t= 9 (24113) Note On ch=5 par1=54 par2=88
Channel Event. t= 14 (24127) Note On ch=5 par1=59 par2=91
Channel Event. t= 1 (24128) Note On ch=5 par1=71 par2=76
Channel Event. t= 9 (24137) Note On ch=5 par1=63 par2=100
Channel Event. t= 10 (24147) Note Off ch=5 par1=51 par2=64
Channel Event. t= 16 (24163) Note Off ch=5 par1=54 par2=64
Channel Event. t= 63 (24226) Note Off ch=5 par1=59 par2=64
Channel Event. t= 50 (24276) Note Off ch=5 par1=63 par2=64
Channel Event. t= 44 (24320) Note On ch=5 par1=72 par2=97
Channel Event. t= 7 (24327) Note Off ch=5 par1=71 par2=64
Channel Event. t= 81 (24408) Note Off ch=5 par1=72 par2=64
Channel Event. t= 78 (24486) Note On ch=5 par1=48 par2=75
Channel Event. t= 17 (24503) Note On ch=5 par1=52 par2=93
Channel Event. t= 9 (24512) Note On ch=5 par1=74 par2=54
Channel Event. t= 3 (24515) Note On ch=5 par1=55 par2=82
Channel Event. t= 13 (24528) Note Off ch=5 par1=48 par2=64
Channel Event. t= 3 (24531) Note On ch=5 par1=60 par2=103
Channel Event. t= 14 (24545) Note Off ch=5 par1=52 par2=64
Channel Event. t= 14 (24559) Note Off ch=5 par1=55 par2=64
Channel Event. t= 7 (24566) Note Off ch=5 par1=74 par2=64
Channel Event. t= 78 (24644) Note Off ch=5 par1=60 par2=64
Channel Event. t= 60 (24704) Note On ch=5 par1=75 par2=101
Channel Event. t= 88 (24792) Note Off ch=5 par1=75 par2=64
Channel Event. t= 67 (24859) Note On ch=5 par1=51 par2=76
Channel Event. t= 20 (24879) Note On ch=5 par1=54 par2=82
Channel Event. t= 15 (24894) Note On ch=5 par1=59 par2=85
Channel Event. t= 2 (24896) Note On ch=5 par1=71 par2=77
Channel Event. t= 5 (24901) Note Off ch=5 par1=51 par2=64
Channel Event. t= 9 (24910) Note On ch=5 par1=63 par2=96
Channel Event. t= 9 (24919) Note Off ch=5 par1=54 par2=64
Channel Event. t= 18 (24937) Note Off ch=5 par1=59 par2=64
Channel Event. t= 104 (25041) Note Off ch=5 par1=63 par2=64
Channel Event. t= 47 (25088) Note On ch=5 par1=72 par2=80
Channel Event. t= 14 (25102) Note Off ch=5 par1=71 par2=64
Channel Event. t= 82 (25184) Note On ch=5 par1=75 par2=87
Channel Event. t= 3 (25187) Note Off ch=5 par1=72 par2=64
Channel Event. t= 59 (25246) Note On ch=5 par1=48 par2=70
Channel Event. t= 22 (25268) Note On ch=5 par1=52 par2=89
Channel Event. t= 6 (25274) Note Off ch=5 par1=75 par2=64
Channel Event. t= 6 (25280) Note On ch=5 par1=55 par2=79
Channel Event. t= 0 (25280) Note On ch=5 par1=76 par2=61
Channel Event. t= 0 (25280) Note On ch=5 par1=77 par2=61
Channel Event. t= 9 (25289) Note Off ch=5 par1=48 par2=64
Channel Event. t= 5 (25294) Note On ch=5 par1=60 par2=104
Channel Event. t= 12 (25306) Note Off ch=5 par1=52 par2=64
Channel Event. t= 15 (25321) Note Off ch=5 par1=55 par2=64
Channel Event. t= 21 (25342) Note Off ch=5 par1=77 par2=64
Channel Event. t= 34 (25376) Note On ch=5 par1=79 par2=81
Channel Event. t= 8 (25384) Note Off ch=5 par1=76 par2=64
Channel Event. t= 69 (25453) Note Off ch=5 par1=60 par2=64
Channel Event. t= 19 (25472) Note On ch=5 par1=83 par2=90
Channel Event. t= 14 (25486) Note Off ch=5 par1=79 par2=64
Channel Event. t= 135 (25621) Note On ch=5 par1=51 par2=67
Channel Event. t= 19 (25640) Note On ch=5 par1=54 par2=81
Channel Event. t= 18 (25658) Note On ch=5 par1=59 par2=78
Channel Event. t= 4 (25662) Note Off ch=5 par1=83 par2=64
Channel Event. t= 1 (25663) Note Off ch=5 par1=51 par2=64
Channel Event. t= 1 (25664) Note On ch=5 par1=82 par2=97
Channel Event. t= 9 (25673) Note On ch=5 par1=63 par2=102
Channel Event. t= 6 (25679) Note Off ch=5 par1=54 par2=64
Channel Event. t= 16 (25695) Note Off ch=5 par1=59 par2=64
Channel Event. t= 17 (25712) Note On ch=5 par1=83 par2=85
Channel Event. t= 79 (25791) Note Off ch=5 par1=82 par2=64
Channel Event. t= 29 (25820) Note Off ch=5 par1=63 par2=64
Channel Event. t= 2 (25822) Note Off ch=5 par1=83 par2=64
Channel Event. t= 34 (25856) Note On ch=5 par1=84 par2=94
Channel Event. t= 167 (26023) Note On ch=5 par1=48 par2=65
Channel Event. t= 21 (26044) Note On ch=5 par1=52 par2=82
Channel Event. t= 4 (26048) Note On ch=5 par1=88 par2=92
Channel Event. t= 8 (26056) Note Off ch=5 par1=84 par2=64
Channel Event. t= 1 (26057) Note On ch=5 par1=55 par2=82
Channel Event. t= 2 (26059) Note Off ch=5 par1=48 par2=64
Channel Event. t= 12 (26071) Note On ch=5 par1=60 par2=99
Channel Event. t= 6 (26077) Note Off ch=5 par1=52 par2=64
Channel Event. t= 18 (26095) Note Off ch=5 par1=55 par2=64
Channel Event. t= 117 (26212) Note Off ch=5 par1=60 par2=64
Channel Event. t= 28 (26240) Note On ch=5 par1=87 par2=91
Channel Event. t= 16 (26256) Note Off ch=5 par1=88 par2=64
Channel Event. t= 138 (26394) Note On ch=5 par1=51 par2=71
Channel Event. t= 19 (26413) Note On ch=5 par1=54 par2=77
Channel Event. t= 15 (26428) Note On ch=5 par1=59 par2=81
Channel Event. t= 5 (26433) Note Off ch=5 par1=51 par2=64
Channel Event. t= 7 (26440) Note On ch=5 par1=63 par2=100
Channel Event. t= 6 (26446) Note Off ch=5 par1=54 par2=64
Channel Event. t= 16 (26462) Note Off ch=5 par1=59 par2=64
Channel Event. t= 38 (26500) Note Off ch=5 par1=87 par2=64
Channel Event. t= 92 (26592) Note Off ch=5 par1=63 par2=64
Channel Event. t= 32 (26624) Note On ch=5 par1=84 par2=84
Channel Event. t= 96 (26720) Note Off ch=5 par1=84 par2=64
Channel Event. t= 59 (26779) Note On ch=5 par1=48 par2=69
Channel Event. t= 22 (26801) Note On ch=5 par1=52 par2=80
Channel Event. t= 8 (26809) Note On ch=5 par1=55 par2=81
Channel Event. t= 7 (26816) Note On ch=5 par1=88 par2=72
Channel Event. t= 1 (26817) Note Off ch=5 par1=48 par2=64
Channel Event. t= 9 (26826) Note On ch=5 par1=60 par2=99
Channel Event. t= 7 (26833) Note Off ch=5 par1=52 par2=64
Channel Event. t= 16 (26849) Note Off ch=5 par1=55 par2=64
Channel Event. t= 59 (26908) Note Off ch=5 par1=88 par2=64
Channel Event. t= 78 (26986) Note Off ch=5 par1=60 par2=64
Channel Event. t= 22 (27008) Note On ch=5 par1=87 par2=89
Channel Event. t= 96 (27104) Note On ch=5 par1=88 par2=63
Channel Event. t= 8 (27112) Note Off ch=5 par1=87 par2=64
Channel Event. t= 40 (27152) Note On ch=5 par1=87 par2=67
Channel Event. t= 4 (27156) Note On ch=5 par1=51 par2=68
Channel Event. t= 12 (27168) Note Off ch=5 par1=88 par2=64
Channel Event. t= 6 (27174) Note On ch=5 par1=54 par2=78
Channel Event. t= 13 (27187) Note On ch=5 par1=59 par2=79
Channel Event. t= 9 (27196) Note Off ch=5 par1=51 par2=64
Channel Event. t= 4 (27200) Note On ch=5 par1=83 par2=72
Channel Event. t= 2 (27202) Note On ch=5 par1=63 par2=97
Channel Event. t= 6 (27208) Note Off ch=5 par1=54 par2=64
Channel Event. t= 10 (27218) Note Off ch=5 par1=87 par2=64
Channel Event. t= 6 (27224) Note Off ch=5 par1=59 par2=64
Channel Event. t= 65 (27289) Note Off ch=5 par1=83 par2=64
Channel Event. t= 7 (27296) Note On ch=5 par1=78 par2=85
Channel Event. t= 77 (27373) Note Off ch=5 par1=63 par2=64
Channel Event. t= 19 (27392) Note On ch=5 par1=79 par2=93
Channel Event. t= 10 (27402) Note Off ch=5 par1=78 par2=64
Channel Event. t= 77 (27479) Note Off ch=5 par1=79 par2=64
Channel Event. t= 54 (27533) Note On ch=5 par1=48 par2=77
Channel Event. t= 19 (27552) Note On ch=5 par1=52 par2=89
Channel Event. t= 19 (27571) Note On ch=5 par1=55 par2=84
Channel Event. t= 4 (27575) Note Off ch=5 par1=48 par2=64
Channel Event. t= 9 (27584) Note On ch=5 par1=84 par2=88
Channel Event. t= 6 (27590) Note On ch=5 par1=60 par2=102
Channel Event. t= 5 (27595) Note Off ch=5 par1=52 par2=64
Channel Event. t= 18 (27613) Note Off ch=5 par1=55 par2=64
Channel Event. t= 34 (27647) Note Off ch=5 par1=84 par2=64
Channel Event. t= 129 (27776) Note On ch=5 par1=83 par2=103
Channel Event. t= 7 (27783) Note Off ch=5 par1=60 par2=64
Channel Event. t= 89 (27872) Note On ch=5 par1=84 par2=74
Channel Event. t= 13 (27885) Note Off ch=5 par1=83 par2=64
Channel Event. t= 34 (27919) Note On ch=5 par1=51 par2=71
Channel Event. t= 1 (27920) Note On ch=5 par1=83 par2=63
Channel Event. t= 15 (27935) Note Off ch=5 par1=84 par2=64
Channel Event. t= 6 (27941) Note On ch=5 par1=54 par2=76
Channel Event. t= 16 (27957) Note On ch=5 par1=59 par2=81
Channel Event. t= 9 (27966) Note Off ch=5 par1=51 par2=64
Channel Event. t= 2 (27968) Note On ch=5 par1=78 par2=72
Channel Event. t= 7 (27975) Note On ch=5 par1=63 par2=103
Channel Event. t= 2 (27977) Note Off ch=5 par1=83 par2=64
Channel Event. t= 2 (27979) Note Off ch=5 par1=54 par2=64
Channel Event. t= 17 (27996) Note Off ch=5 par1=59 par2=64
Channel Event. t= 61 (28057) Note Off ch=5 par1=78 par2=64
Channel Event. t= 7 (28064) Note On ch=5 par1=75 par2=56
Channel Event. t= 66 (28130) Note Off ch=5 par1=63 par2=64
Channel Event. t= 10 (28140) Note Off ch=5 par1=75 par2=64
Channel Event. t= 20 (28160) Note On ch=5 par1=76 par2=75
Channel Event. t= 0 (28160) Note On ch=5 par1=75 par2=59
Channel Event. t= 20 (28180) Note Off ch=5 par1=75 par2=64
Channel Event. t= 42 (28222) Note Off ch=5 par1=76 par2=64
Channel Event. t= 85 (28307) Note On ch=5 par1=48 par2=72
Channel Event. t= 22 (28329) Note On ch=5 par1=52 par2=85
Channel Event. t= 14 (28343) Note On ch=5 par1=55 par2=84
Channel Event. t= 6 (28349) Note Off ch=5 par1=48 par2=64
Channel Event. t= 3 (28352) Note On ch=5 par1=79 par2=81
Channel Event. t= 4 (28356) Note On ch=5 par1=60 par2=99
Channel Event. t= 7 (28363) Note Off ch=5 par1=52 par2=64
Channel Event. t= 17 (28380) Note Off ch=5 par1=55 par2=64
Channel Event. t= 21 (28401) Note Off ch=5 par1=79 par2=64
Channel Event. t= 116 (28517) Note Off ch=5 par1=60 par2=64
Channel Event. t= 27 (28544) Note On ch=5 par1=78 par2=101
Channel Event. t= 149 (28693) Note On ch=5 par1=51 par2=72
Channel Event. t= 1 (28694) Note Off ch=5 par1=78 par2=64
Channel Event. t= 16 (28710) Note On ch=5 par1=54 par2=81
Channel Event. t= 14 (28724) Note On ch=5 par1=59 par2=82
Channel Event. t= 6 (28730) Note Off ch=5 par1=51 par2=64
Channel Event. t= 6 (28736) Note On ch=5 par1=74 par2=88
Channel Event. t= 2 (28738) Note On ch=5 par1=63 par2=99
Channel Event. t= 7 (28745) Note Off ch=5 par1=54 par2=64
Channel Event. t= 15 (28760) Note Off ch=5 par1=59 par2=64
Channel Event. t= 72 (28832) Note On ch=5 par1=75 par2=59
Channel Event. t= 2 (28834) Note Off ch=5 par1=74 par2=64
Channel Event. t= 45 (28879) Note Off ch=5 par1=63 par2=64
Channel Event. t= 49 (28928) Note On ch=5 par1=76 par2=65
Channel Event. t= 13 (28941) Note Off ch=5 par1=75 par2=64
Channel Event. t= 51 (28992) Note Off ch=5 par1=76 par2=64
Channel Event. t= 87 (29079) Note On ch=5 par1=48 par2=55
Channel Event. t= 17 (29096) Note On ch=5 par1=52 par2=82
Channel Event. t= 11 (29107) Note On ch=5 par1=55 par2=85
Channel Event. t= 10 (29117) Note Off ch=5 par1=48 par2=64
Channel Event. t= 3 (29120) Note On ch=5 par1=79 par2=84
Channel Event. t= 3 (29123) Note On ch=5 par1=60 par2=97
Channel Event. t= 10 (29133) Note Off ch=5 par1=52 par2=64
Channel Event. t= 16 (29149) Note Off ch=5 par1=55 par2=64
Channel Event. t= 33 (29182) Note Off ch=5 par1=79 par2=64
Channel Event. t= 78 (29260) Note Off ch=5 par1=60 par2=64
Channel Event. t= 52 (29312) Note On ch=5 par1=78 par2=103
Channel Event. t= 150 (29462) Note On ch=5 par1=51 par2=70
Channel Event. t= 1 (29463) Note Off ch=5 par1=78 par2=64
Channel Event. t= 14 (29477) Note On ch=5 par1=54 par2=82
Channel Event. t= 19 (29496) Note On ch=5 par1=59 par2=75
Channel Event. t= 8 (29504) Note On ch=5 par1=74 par2=85
Channel Event. t= 1 (29505) Note Off ch=5 par1=51 par2=64
Channel Event. t= 4 (29509) Note On ch=5 par1=63 par2=98
Channel Event. t= 9 (29518) Note Off ch=5 par1=54 par2=64
Channel Event. t= 14 (29532) Note Off ch=5 par1=59 par2=64
Channel Event. t= 68 (29600) Note On ch=5 par1=75 par2=72
Channel Event. t= 13 (29613) Note Off ch=5 par1=74 par2=64
Channel Event. t= 62 (29675) Note Off ch=5 par1=63 par2=64
Channel Event. t= 21 (29696) Note Off ch=5 par1=75 par2=64
Channel Event. t= 0 (29696) Note On ch=5 par1=76 par2=88
Channel Event. t= 69 (29765) Note Off ch=5 par1=76 par2=64
Channel Event. t= 79 (29844) Note On ch=5 par1=48 par2=64
Channel Event. t= 18 (29862) Note On ch=5 par1=52 par2=88
Channel Event. t= 14 (29876) Note On ch=5 par1=55 par2=86
Channel Event. t= 8 (29884) Note Off ch=5 par1=48 par2=64
Channel Event. t= 4 (29888) Note On ch=5 par1=79 par2=78
Channel Event. t= 4 (29892) Note On ch=5 par1=60 par2=97
Channel Event. t= 9 (29901) Note Off ch=5 par1=52 par2=64
Channel Event. t= 17 (29918) Note Off ch=5 par1=55 par2=64
Channel Event. t= 31 (29949) Note Off ch=5 par1=79 par2=64
Channel Event. t= 107 (30056) Note Off ch=5 par1=60 par2=64
Channel Event. t= 24 (30080) Note On ch=5 par1=78 par2=101
Channel Event. t= 176 (30256) Note On ch=5 par1=58 par2=93
Channel Event. t= 10 (30266) Note On ch=5 par1=61 par2=95
Channel Event. t= 15 (30281) Note On ch=5 par1=64 par2=85
Channel Event. t= 10 (30291) Note On ch=5 par1=70 par2=99
Channel Event. t= 4 (30295) Note Off ch=5 par1=58 par2=64
Channel Event. t= 14 (30309) Note Off ch=5 par1=61 par2=64
Channel Event. t= 16 (30325) Note Off ch=5 par1=64 par2=64
Channel Event. t= 111 (30436) Note Off ch=5 par1=70 par2=64
Channel Event. t= 28 (30464) Note On ch=5 par1=71 par2=78
Channel Event. t= 4 (30468) Note Off ch=5 par1=78 par2=64
Channel Event. t= 332 (30800) Note On ch=5 par1=59 par2=61
Channel Event. t= 28 (30828) Note On ch=5 par1=63 par2=89
Channel Event. t= 10 (30838) Note Off ch=5 par1=59 par2=64
Channel Event. t= 9 (30847) Note On ch=5 par1=66 par2=90
Channel Event. t= 1 (30848) Note Off ch=5 par1=71 par2=64
Channel Event. t= 0 (30848) Note On ch=5 par1=71 par2=92
Channel Event. t= 0 (30848) Note On ch=5 par1=83 par2=74
Channel Event. t= 20 (30868) Note Off ch=5 par1=63 par2=64
Channel Event. t= 16 (30884) Note Off ch=5 par1=66 par2=64
Channel Event. t= 127 (31011) Note Off ch=5 par1=71 par2=64
Channel Event. t= 221 (31232) Note On ch=5 par1=59 par2=79
Channel Event. t= 16 (31248) Note On ch=5 par1=63 par2=87
Channel Event. t= 16 (31264) Note On ch=5 par1=66 par2=79
Channel Event. t= 8 (31272) Note Off ch=5 par1=59 par2=64
Channel Event. t= 16 (31288) Note Off ch=5 par1=63 par2=64
Channel Event. t= 72 (31360) Note Off ch=5 par1=66 par2=64
Channel Event. t= 256 (31616) Note On ch=5 par1=54 par2=64
Channel Event. t= 21 (31637) Note On ch=5 par1=57 par2=81
Channel Event. t= 11 (31648) Note On ch=5 par1=63 par2=72
Channel Event. t= 14 (31662) Note Off ch=5 par1=54 par2=64
Channel Event. t= 15 (31677) Note Off ch=5 par1=57 par2=64
Channel Event. t= 67 (31744) Note Off ch=5 par1=63 par2=64
Channel Event. t= 48 (31792) Note Off ch=5 par1=83 par2=64
Channel Event. t= 16 (31808) Note On ch=5 par1=83 par2=80
Channel Event. t= 192 (32000) Note On ch=5 par1=84 par2=88
Channel Event. t= 19 (32019) Note Off ch=5 par1=83 par2=64
Channel Event. t= 177 (32196) Note On ch=5 par1=76 par2=79
Channel Event. t= 2 (32198) Note On ch=5 par1=67 par2=61
Channel Event. t= 54 (32252) Note Off ch=5 par1=67 par2=64
Channel Event. t= 41 (32293) Note Off ch=5 par1=76 par2=64
Channel Event. t= 279 (32572) Note On ch=5 par1=88 par2=73
Channel Event. t= 1 (32573) Note On ch=5 par1=79 par2=61
Channel Event. t= 62 (32635) Note Off ch=5 par1=79 par2=64
Channel Event. t= 1 (32636) Note Off ch=5 par1=88 par2=64
Channel Event. t= 132 (32768) Note Off ch=5 par1=84 par2=64
Channel Event. t= 205 (32973) Note On ch=5 par1=79 par2=40
Channel Event. t= 0 (32973) Note On ch=5 par1=88 par2=39
Channel Event. t= 65 (33038) Note Off ch=5 par1=79 par2=64
Channel Event. t= 9 (33047) Note Off ch=5 par1=88 par2=64
Channel Event. t= 295 (33342) Note On ch=5 par1=88 par2=63
Channel Event. t= 1 (33343) Note On ch=5 par1=79 par2=50
Channel Event. t= 1 (33344) Note On ch=5 par1=55 par2=51
Channel Event. t= 56 (33400) Note Off ch=5 par1=55 par2=64
Channel Event. t= 2 (33402) Note Off ch=5 par1=79 par2=64
Channel Event. t= 1 (33403) Note Off ch=5 par1=88 par2=64
Channel Event. t= 37 (33440) Note On ch=5 par1=60 par2=63
Channel Event. t= 44 (33484) Note Off ch=5 par1=60 par2=64
Channel Event. t= 52 (33536) Note On ch=5 par1=64 par2=90
Channel Event. t= 174 (33710) Note Off ch=5 par1=64 par2=64
Channel Event. t= 16 (33726) Note On ch=5 par1=88 par2=66
Channel Event. t= 2 (33728) Note On ch=5 par1=60 par2=66
Channel Event. t= 2 (33730) Note On ch=5 par1=79 par2=46
Channel Event. t= 30 (33760) Note Off ch=5 par1=60 par2=64
Channel Event. t= 51 (33811) Note Off ch=5 par1=79 par2=64
Channel Event. t= 5 (33816) Note Off ch=5 par1=88 par2=64
Channel Event. t= 8 (33824) Note On ch=5 par1=55 par2=64
Channel Event. t= 36 (33860) Note Off ch=5 par1=55 par2=64
Channel Event. t= 60 (33920) Note On ch=5 par1=54 par2=98
Channel Event. t= 177 (34097) Note Off ch=5 par1=54 par2=64
Channel Event. t= 3 (34100) Note On ch=5 par1=88 par2=68
Channel Event. t= 4 (34104) Note On ch=5 par1=79 par2=48
Channel Event. t= 8 (34112) Note On ch=5 par1=55 par2=84
Channel Event. t= 37 (34149) Note Off ch=5 par1=55 par2=64
Channel Event. t= 12 (34161) Note Off ch=5 par1=88 par2=64
Channel Event. t= 20 (34181) Note Off ch=5 par1=79 par2=64
Channel Event. t= 27 (34208) Note On ch=5 par1=60 par2=70
Channel Event. t= 35 (34243) Note Off ch=5 par1=60 par2=64
Channel Event. t= 61 (34304) Note On ch=5 par1=64 par2=83
Channel Event. t= 39 (34343) Note Off ch=5 par1=64 par2=64
Channel Event. t= 57 (34400) Note On ch=5 par1=67 par2=70
Channel Event. t= 55 (34455) Note Off ch=5 par1=67 par2=64
Channel Event. t= 41 (34496) Note On ch=5 par1=66 par2=94
Channel Event. t= 1 (34497) Note On ch=5 par1=81 par2=63
Channel Event. t= 3 (34500) Note On ch=5 par1=72 par2=55
Channel Event. t= 68 (34568) Note Off ch=5 par1=72 par2=64
Channel Event. t= 8 (34576) Note Off ch=5 par1=81 par2=64
Channel Event. t= 208 (34784) Note On ch=5 par1=64 par2=81
Channel Event. t= 7 (34791) Note Off ch=5 par1=66 par2=64
Channel Event. t= 85 (34876) Note On ch=5 par1=81 par2=62
Channel Event. t= 2 (34878) Note On ch=5 par1=72 par2=55
Channel Event. t= 2 (34880) Note On ch=5 par1=60 par2=88
Channel Event. t= 5 (34885) Note Off ch=5 par1=64 par2=64
Channel Event. t= 53 (34938) Note Off ch=5 par1=72 par2=64
Channel Event. t= 4 (34942) Note Off ch=5 par1=81 par2=64
Channel Event. t= 34 (34976) Note On ch=5 par1=62 par2=72
Channel Event. t= 9 (34985) Note Off ch=5 par1=60 par2=64
Channel Event. t= 75 (35060) Note Off ch=5 par1=62 par2=64
Channel Event. t= 12 (35072) Note On ch=5 par1=64 par2=76
Channel Event. t= 96 (35168) Note On ch=5 par1=62 par2=72
Channel Event. t= 5 (35173) Note Off ch=5 par1=64 par2=64
Channel Event. t= 30 (35203) Note Off ch=5 par1=62 par2=64
Channel Event. t= 61 (35264) Note On ch=5 par1=59 par2=79
Channel Event. t= 9 (35273) Note On ch=5 par1=81 par2=59
Channel Event. t= 3 (35276) Note On ch=5 par1=72 par2=50
Channel Event. t= 40 (35316) Note Off ch=5 par1=59 par2=64
Channel Event. t= 24 (35340) Note Off ch=5 par1=72 par2=64
Channel Event. t= 2 (35342) Note Off ch=5 par1=81 par2=64
Channel Event. t= 18 (35360) Note On ch=5 par1=60 par2=77
Channel Event. t= 30 (35390) Note Off ch=5 par1=60 par2=64
Channel Event. t= 66 (35456) Note On ch=5 par1=62 par2=90
Channel Event. t= 96 (35552) Note On ch=5 par1=60 par2=66
Channel Event. t= 19 (35571) Note Off ch=5 par1=62 par2=64
Channel Event. t= 40 (35611) Note Off ch=5 par1=60 par2=64
Channel Event. t= 36 (35647) Note On ch=5 par1=81 par2=66
Channel Event. t= 1 (35648) Note On ch=5 par1=57 par2=80
Channel Event. t= 4 (35652) Note On ch=5 par1=72 par2=58
Channel Event. t= 39 (35691) Note Off ch=5 par1=57 par2=64
Channel Event. t= 25 (35716) Note Off ch=5 par1=81 par2=64
Channel Event. t= 9 (35725) Note Off ch=5 par1=72 par2=64
Channel Event. t= 19 (35744) Note On ch=5 par1=59 par2=79
Channel Event. t= 41 (35785) Note Off ch=5 par1=59 par2=64
Channel Event. t= 55 (35840) Note On ch=5 par1=60 par2=92
Channel Event. t= 192 (36032) Note On ch=5 par1=76 par2=73
Channel Event. t= 3 (36035) Note On ch=5 par1=67 par2=61
Channel Event. t= 49 (36084) Note Off ch=5 par1=76 par2=64
Channel Event. t= 12 (36096) Note Off ch=5 par1=67 par2=64
Channel Event. t= 131 (36227) Note On ch=5 par1=72 par2=82
Channel Event. t= 3 (36230) Note On ch=5 par1=64 par2=69
Channel Event. t= 21 (36251) Note Off ch=5 par1=60 par2=64
Channel Event. t= 42 (36293) Note Off ch=5 par1=64 par2=64
Channel Event. t= 1 (36294) Note Off ch=5 par1=72 par2=64
Channel Event. t= 122 (36416) Note On ch=5 par1=55 par2=84
Channel Event. t= 86 (36502) Note Off ch=5 par1=55 par2=64
Channel Event. t= 10 (36512) Note On ch=5 par1=60 par2=84
Channel Event. t= 96 (36608) Note On ch=5 par1=64 par2=95
Channel Event. t= 4 (36612) Note Off ch=5 par1=60 par2=64
Channel Event. t= 74 (36686) Note Off ch=5 par1=64 par2=64
Channel Event. t= 114 (36800) Note On ch=5 par1=60 par2=78
Channel Event. t= 3 (36803) Note On ch=5 par1=76 par2=58
Channel Event. t= 1 (36804) Note On ch=5 par1=67 par2=49
Channel Event. t= 51 (36855) Note Off ch=5 par1=67 par2=64
Channel Event. t= 4 (36859) Note Off ch=5 par1=76 par2=64
Channel Event. t= 37 (36896) Note On ch=5 par1=55 par2=72
Channel Event. t= 3 (36899) Note Off ch=5 par1=60 par2=64
Channel Event. t= 93 (36992) Note On ch=5 par1=54 par2=94
Channel Event. t= 12 (37004) Note Off ch=5 par1=55 par2=64
Channel Event. t= 80 (37084) Note Off ch=5 par1=54 par2=64
Channel Event. t= 100 (37184) Note On ch=5 par1=55 par2=79
Channel Event. t= 4 (37188) Note On ch=5 par1=76 par2=50
Channel Event. t= 3 (37191) Note On ch=5 par1=67 par2=35
Channel Event. t= 56 (37247) Note Off ch=5 par1=76 par2=64
Channel Event. t= 1 (37248) Note Off ch=5 par1=67 par2=64
Channel Event. t= 32 (37280) Note On ch=5 par1=60 par2=79
Channel Event. t= 4 (37284) Note Off ch=5 par1=55 par2=64
Channel Event. t= 92 (37376) Note On ch=5 par1=64 par2=95
Channel Event. t= 5 (37381) Note Off ch=5 par1=60 par2=64
Channel Event. t= 55 (37436) Note Off ch=5 par1=64 par2=64
Channel Event. t= 36 (37472) Note On ch=5 par1=67 par2=78
Channel Event. t= 43 (37515) Note Off ch=5 par1=67 par2=64
Channel Event. t= 47 (37562) Note On ch=5 par1=81 par2=63
Channel Event. t= 2 (37564) Note On ch=5 par1=72 par2=55
Channel Event. t= 4 (37568) Note On ch=5 par1=65 par2=100
Channel Event. t= 68 (37636) Note Off ch=5 par1=72 par2=64
Channel Event. t= 5 (37641) Note Off ch=5 par1=81 par2=64
Channel Event. t= 211 (37852) Note Off ch=5 par1=65 par2=64
Channel Event. t= 4 (37856) Note On ch=5 par1=64 par2=85
Channel Event. t= 96 (37952) Note On ch=5 par1=67 par2=84
Channel Event. t= 6 (37958) Note Off ch=5 par1=64 par2=64
Channel Event. t= 16 (37974) Note On ch=5 par1=81 par2=56
Channel Event. t= 3 (37977) Note On ch=5 par1=72 par2=49
Channel Event. t= 54 (38031) Note Off ch=5 par1=81 par2=64
Channel Event. t= 3 (38034) Note Off ch=5 par1=72 par2=64
Channel Event. t= 14 (38048) Note On ch=5 par1=65 par2=74
Channel Event. t= 5 (38053) Note Off ch=5 par1=67 par2=64
Channel Event. t= 91 (38144) Note On ch=5 par1=64 par2=73
Channel Event. t= 25 (38169) Note Off ch=5 par1=65 par2=64
Channel Event. t= 71 (38240) Note On ch=5 par1=62 par2=88
Channel Event. t= 3 (38243) Note Off ch=5 par1=64 par2=64
Channel Event. t= 91 (38334) Note Off ch=5 par1=62 par2=64
Channel Event. t= 2 (38336) Note On ch=5 par1=65 par2=85
Channel Event. t= 3 (38339) Note On ch=5 par1=81 par2=61
Channel Event. t= 4 (38343) Note On ch=5 par1=72 par2=50
Channel Event. t= 54 (38397) Note Off ch=5 par1=81 par2=64
Channel Event. t= 2 (38399) Note Off ch=5 par1=72 par2=64
Channel Event. t= 33 (38432) Note On ch=5 par1=64 par2=81
Channel Event. t= 16 (38448) Note Off ch=5 par1=65 par2=64
Channel Event. t= 80 (38528) Note On ch=5 par1=62 par2=74
Channel Event. t= 15 (38543) Note Off ch=5 par1=64 par2=64
Channel Event. t= 43 (38586) Note Off ch=5 par1=62 par2=64
Channel Event. t= 38 (38624) Note On ch=5 par1=60 par2=92
Channel Event. t= 96 (38720) Note On ch=5 par1=64 par2=81
Channel Event. t= 5 (38725) Note On ch=5 par1=81 par2=69
Channel Event. t= 3 (38728) Note On ch=5 par1=72 par2=63
Channel Event. t= 3 (38731) Note Off ch=5 par1=60 par2=64
Channel Event. t= 71 (38802) Note Off ch=5 par1=72 par2=64
Channel Event. t= 1 (38803) Note Off ch=5 par1=81 par2=64
Channel Event. t= 13 (38816) Note On ch=5 par1=62 par2=85
Channel Event. t= 16 (38832) Note Off ch=5 par1=64 par2=64
Channel Event. t= 55 (38887) Note Off ch=5 par1=62 par2=64
Channel Event. t= 216 (39103) Note On ch=5 par1=79 par2=73
Channel Event. t= 1 (39104) Note On ch=5 par1=71 par2=63
Channel Event. t= 2 (39106) Note Off ch=5 par1=71 par2=64
Channel Event. t= 0 (39106) Note On ch=5 par1=71 par2=66
Channel Event. t= 48 (39154) Note Off ch=5 par1=79 par2=64
Channel Event. t= 14 (39168) Note Off ch=5 par1=71 par2=64
Channel Event. t= 128 (39296) Note On ch=5 par1=72 par2=66
Channel Event. t= 0 (39296) Note On ch=5 par1=64 par2=48
Channel Event. t= 13 (39309) Note Off ch=5 par1=72 par2=64
Channel Event. t= 0 (39309) Note On ch=5 par1=72 par2=74
Channel Event. t= 2 (39311) Note Off ch=5 par1=64 par2=64
Channel Event. t= 0 (39311) Note On ch=5 par1=64 par2=68
Channel Event. t= 68 (39379) Note Off ch=5 par1=64 par2=64
Channel Event. t= 4 (39383) Note Off ch=5 par1=72 par2=64
Channel Event. t= 297 (39680) Note On ch=5 par1=52 par2=64
Channel Event. t= 0 (39680) Note On ch=5 par1=55 par2=64
Channel Event. t= 768 (40448) Note Off ch=5 par1=52 par2=64
Channel Event. t= 0 (40448) Note Off ch=5 par1=55 par2=64
Channel Event. t= 0 (40448) Note On ch=5 par1=57 par2=36
Channel Event. t= 0 (40448) Note On ch=5 par1=60 par2=31
Channel Event. t= 337 (40785) Note Off ch=5 par1=60 par2=64
Channel Event. t= 10 (40795) Note Off ch=5 par1=57 par2=64
Channel Event. t= 37 (40832) Note On ch=5 par1=60 par2=58
Channel Event. t= 0 (40832) Note On ch=5 par1=64 par2=58
Channel Event. t= 275 (41107) Note Off ch=5 par1=60 par2=64
Channel Event. t= 15 (41122) Note Off ch=5 par1=64 par2=64
Channel Event. t= 94 (41216) Note On ch=5 par1=67 par2=78
Channel Event. t= 0 (41216) Note On ch=5 par1=64 par2=72
Channel Event. t= 384 (41600) Note Off ch=5 par1=67 par2=64
Channel Event. t= 0 (41600) Note On ch=5 par1=72 par2=84
Channel Event. t= 0 (41600) Note On ch=5 par1=69 par2=83
Channel Event. t= 13 (41613) Note Off ch=5 par1=64 par2=64
Channel Event. t= 233 (41846) Note Off ch=5 par1=72 par2=64
Channel Event. t= 42 (41888) Note Off ch=5 par1=69 par2=64
Channel Event. t= 0 (41888) Note On ch=5 par1=72 par2=74
Channel Event. t= 0 (41888) Note On ch=5 par1=76 par2=82
Channel Event. t= 54 (41942) Note Off ch=5 par1=76 par2=64
Channel Event. t= 17 (41959) Note Off ch=5 par1=72 par2=64
Channel Event. t= 25 (41984) Note On ch=5 par1=76 par2=86
Channel Event. t= 0 (41984) Note On ch=5 par1=79 par2=92
Channel Event. t= 94 (42078) Note Off ch=5 par1=79 par2=64
Channel Event. t= 4 (42082) Note Off ch=5 par1=76 par2=64
Channel Event. t= 94 (42176) Note On ch=5 par1=81 par2=85
Channel Event. t= 0 (42176) Note On ch=5 par1=79 par2=84
Channel Event. t= 72 (42248) Note Off ch=5 par1=79 par2=64
Channel Event. t= 2 (42250) Note Off ch=5 par1=81 par2=64
Channel Event. t= 118 (42368) Note On ch=5 par1=79 par2=70
Channel Event. t= 0 (42368) Note On ch=5 par1=76 par2=96
Channel Event. t= 246 (42614) Note Off ch=5 par1=79 par2=64
Channel Event. t= 4 (42618) Note Off ch=5 par1=76 par2=64
Channel Event. t= 38 (42656) Note On ch=5 par1=76 par2=83
Channel Event. t= 0 (42656) Note On ch=5 par1=72 par2=76
Channel Event. t= 66 (42722) Note Off ch=5 par1=76 par2=64
Channel Event. t= 9 (42731) Note Off ch=5 par1=72 par2=64
Channel Event. t= 21 (42752) Note On ch=5 par1=76 par2=84
Channel Event. t= 0 (42752) Note On ch=5 par1=79 par2=83
Channel Event. t= 114 (42866) Note Off ch=5 par1=76 par2=64
Channel Event. t= 18 (42884) Note Off ch=5 par1=79 par2=64
Channel Event. t= 60 (42944) Note On ch=5 par1=79 par2=80
Channel Event. t= 0 (42944) Note On ch=5 par1=81 par2=80
Channel Event. t= 95 (43039) Note Off ch=5 par1=79 par2=64
Channel Event. t= 67 (43106) Note Off ch=5 par1=81 par2=64
Channel Event. t= 30 (43136) Note On ch=5 par1=83 par2=94
Channel Event. t= 0 (43136) Note On ch=5 par1=77 par2=88
Channel Event. t= 277 (43413) Note Off ch=5 par1=83 par2=64
Channel Event. t= 0 (43413) Note Off ch=5 par1=77 par2=64
Channel Event. t= 11 (43424) Note On ch=5 par1=84 par2=68
Channel Event. t= 0 (43424) Note On ch=5 par1=79 par2=61
Channel Event. t= 80 (43504) Note Off ch=5 par1=84 par2=64
Channel Event. t= 16 (43520) Note On ch=5 par1=76 par2=77
Channel Event. t= 192 (43712) Note Off ch=5 par1=79 par2=64
Channel Event. t= 0 (43712) Note Off ch=5 par1=76 par2=64
Channel Event. t= 0 (43712) Note On ch=5 par1=72 par2=81
Channel Event. t= 0 (43712) Note On ch=5 par1=76 par2=70
Channel Event. t= 144 (43856) Note Off ch=5 par1=72 par2=64
Channel Event. t= 48 (43904) Note On ch=5 par1=72 par2=74
Channel Event. t= 0 (43904) Note On ch=5 par1=69 par2=72
Channel Event. t= 7 (43911) Note Off ch=5 par1=76 par2=64
Channel Event. t= 109 (44020) Note Off ch=5 par1=69 par2=64
Channel Event. t= 17 (44037) Note Off ch=5 par1=72 par2=64
Channel Event. t= 59 (44096) Note On ch=5 par1=71 par2=82
Channel Event. t= 0 (44096) Note On ch=5 par1=74 par2=90
Channel Event. t= 77 (44173) Note Off ch=5 par1=74 par2=64
Channel Event. t= 5 (44178) Note Off ch=5 par1=71 par2=64
Channel Event. t= 110 (44288) Note On ch=5 par1=75 par2=101
Channel Event. t= 0 (44288) Note On ch=5 par1=72 par2=85
Channel Event. t= 359 (44647) Note Off ch=5 par1=72 par2=64
Channel Event. t= 9 (44656) Note Off ch=5 par1=75 par2=64
Channel Event. t= 16 (44672) Note On ch=5 par1=75 par2=82
Channel Event. t= 0 (44672) Note On ch=5 par1=72 par2=72
Channel Event. t= 170 (44842) Note Off ch=5 par1=72 par2=64
Channel Event. t= 9 (44851) Note Off ch=5 par1=75 par2=64
Channel Event. t= 13 (44864) Note On ch=5 par1=83 par2=72
Channel Event. t= 0 (44864) Note On ch=5 par1=79 par2=61
Channel Event. t= 89 (44953) Note Off ch=5 par1=83 par2=64
Channel Event. t= 3 (44956) Note Off ch=5 par1=79 par2=64
Channel Event. t= 100 (45056) Note On ch=5 par1=75 par2=94
Channel Event. t= 0 (45056) Note On ch=5 par1=72 par2=84
Channel Event. t= 336 (45392) Note Off ch=5 par1=75 par2=64
Channel Event. t= 0 (45392) Note Off ch=5 par1=72 par2=64
Channel Event. t= 48 (45440) Note On ch=5 par1=75 par2=74
Channel Event. t= 0 (45440) Note On ch=5 par1=72 par2=69
Channel Event. t= 153 (45593) Note Off ch=5 par1=72 par2=64
Channel Event. t= 29 (45622) Note Off ch=5 par1=75 par2=64
Channel Event. t= 10 (45632) Note On ch=5 par1=79 par2=61
Channel Event. t= 0 (45632) Note On ch=5 par1=83 par2=68
Channel Event. t= 108 (45740) Note Off ch=5 par1=83 par2=64
Channel Event. t= 7 (45747) Note Off ch=5 par1=79 par2=64
Channel Event. t= 77 (45824) Note On ch=5 par1=75 par2=99
Channel Event. t= 0 (45824) Note On ch=5 par1=72 par2=90
Channel Event. t= 384 (46208) Note Off ch=5 par1=72 par2=64
Channel Event. t= 0 (46208) Note On ch=5 par1=67 par2=74
Channel Event. t= 0 (46208) Note On ch=5 par1=70 par2=85
Channel Event. t= 23 (46231) Note Off ch=5 par1=75 par2=64
Channel Event. t= 323 (46554) Note Off ch=5 par1=67 par2=64
Channel Event. t= 22 (46576) Note Off ch=5 par1=70 par2=64
Channel Event. t= 16 (46592) Note On ch=5 par1=70 par2=92
Channel Event. t= 0 (46592) Note On ch=5 par1=67 par2=79
Channel Event. t= 498 (47090) Note Off ch=5 par1=67 par2=64
Channel Event. t= 7 (47097) Note Off ch=5 par1=70 par2=64
Channel Event. t= 71 (47168) Note On ch=5 par1=69 par2=91
Channel Event. t= 192 (47360) Note On ch=5 par1=70 par2=103
Channel Event. t= 20 (47380) Note Off ch=5 par1=69 par2=64
Channel Event. t= 364 (47744) Note On ch=5 par1=75 par2=94
Channel Event. t= 0 (47744) Note On ch=5 par1=72 par2=75
Channel Event. t= 1 (47745) Note Off ch=5 par1=70 par2=64
Channel Event. t= 245 (47990) Note Off ch=5 par1=75 par2=64
Channel Event. t= 42 (48032) Note On ch=5 par1=79 par2=86
Channel Event. t= 0 (48032) Note On ch=5 par1=75 par2=89
Channel Event. t= 12 (48044) Note Off ch=5 par1=72 par2=64
Channel Event. t= 47 (48091) Note Off ch=5 par1=75 par2=64
Channel Event. t= 22 (48113) Note Off ch=5 par1=79 par2=64
Channel Event. t= 15 (48128) Note On ch=5 par1=82 par2=103
Channel Event. t= 0 (48128) Note On ch=5 par1=79 par2=85
Channel Event. t= 176 (48304) Note Off ch=5 par1=82 par2=64
Channel Event. t= 3 (48307) Note Off ch=5 par1=79 par2=64
Channel Event. t= 13 (48320) Note On ch=5 par1=84 par2=88
Channel Event. t= 0 (48320) Note On ch=5 par1=82 par2=75
Channel Event. t= 163 (48483) Note Off ch=5 par1=82 par2=64
Channel Event. t= 29 (48512) Note On ch=5 par1=82 par2=102
Channel Event. t= 0 (48512) Note On ch=5 par1=79 par2=92
Channel Event. t= 3 (48515) Note Off ch=5 par1=84 par2=64
Channel Event. t= 246 (48761) Note Off ch=5 par1=82 par2=64
Channel Event. t= 14 (48775) Note Off ch=5 par1=79 par2=64
Channel Event. t= 25 (48800) Note On ch=5 par1=75 par2=82
Channel Event. t= 0 (48800) Note On ch=5 par1=79 par2=83
Channel Event. t= 68 (48868) Note Off ch=5 par1=79 par2=64
Channel Event. t= 11 (48879) Note Off ch=5 par1=75 par2=64
Channel Event. t= 17 (48896) Note On ch=5 par1=79 par2=67
Channel Event. t= 0 (48896) Note On ch=5 par1=82 par2=79
Channel Event. t= 171 (49067) Note Off ch=5 par1=82 par2=64
Channel Event. t= 21 (49088) Note On ch=5 par1=82 par2=71
Channel Event. t= 0 (49088) Note On ch=5 par1=84 par2=83
Channel Event. t= 16 (49104) Note Off ch=5 par1=79 par2=64
Channel Event. t= 160 (49264) Note Off ch=5 par1=84 par2=64
Channel Event. t= 9 (49273) Note Off ch=5 par1=82 par2=64
Channel Event. t= 7 (49280) Note On ch=5 par1=81 par2=83
Channel Event. t= 0 (49280) Note On ch=5 par1=86 par2=87
Channel Event. t= 281 (49561) Note Off ch=5 par1=86 par2=64
Channel Event. t= 7 (49568) Note On ch=5 par1=82 par2=79
Channel Event. t= 0 (49568) Note On ch=5 par1=87 par2=95
Channel Event. t= 3 (49571) Note Off ch=5 par1=81 par2=64
Channel Event. t= 63 (49634) Note Off ch=5 par1=82 par2=64
Channel Event. t= 30 (49664) Note On ch=5 par1=83 par2=102
Channel Event. t= 0 (49664) Note On ch=5 par1=79 par2=80
Channel Event. t= 34 (49698) Note Off ch=5 par1=87 par2=64
Channel Event. t= 102 (49800) Note Off ch=5 par1=79 par2=64
Channel Event. t= 8 (49808) Note Off ch=5 par1=83 par2=64
Channel Event. t= 48 (49856) Note On ch=5 par1=79 par2=83
Channel Event. t= 0 (49856) Note On ch=5 par1=75 par2=87
Channel Event. t= 154 (50010) Note Off ch=5 par1=75 par2=64
Channel Event. t= 36 (50046) Note Off ch=5 par1=79 par2=64
Channel Event. t= 2 (50048) Note On ch=5 par1=75 par2=84
Channel Event. t= 0 (50048) Note On ch=5 par1=72 par2=86
Channel Event. t= 192 (50240) Note Off ch=5 par1=72 par2=64
Channel Event. t= 0 (50240) Note On ch=5 par1=77 par2=86
Channel Event. t= 0 (50240) Note On ch=5 par1=73 par2=94
Channel Event. t= 3 (50243) Note Off ch=5 par1=75 par2=64
Channel Event. t= 168 (50411) Note Off ch=5 par1=73 par2=64
Channel Event. t= 17 (50428) Note Off ch=5 par1=77 par2=64
Channel Event. t= 4 (50432) Note On ch=5 par1=78 par2=90
Channel Event. t= 0 (50432) Note On ch=5 par1=74 par2=71
Channel Event. t= 169 (50601) Note Off ch=5 par1=74 par2=64
Channel Event. t= 9 (50610) Note Off ch=5 par1=78 par2=64
Channel Event. t= 14 (50624) Note On ch=5 par1=78 par2=88
Channel Event. t= 0 (50624) Note On ch=5 par1=74 par2=87
Channel Event. t= 78 (50702) Note Off ch=5 par1=78 par2=64
Channel Event. t= 18 (50720) Note On ch=5 par1=78 par2=90
Channel Event. t= 0 (50720) Note On ch=5 par1=86 par2=89
Channel Event. t= 13 (50733) Note Off ch=5 par1=74 par2=64
Channel Event. t= 70 (50803) Note Off ch=5 par1=78 par2=64
Channel Event. t= 13 (50816) Note On ch=5 par1=78 par2=99
Channel Event. t= 0 (50816) Note On ch=5 par1=74 par2=80
Channel Event. t= 12 (50828) Note Off ch=5 par1=86 par2=64
Channel Event. t= 150 (50978) Note Off ch=5 par1=74 par2=64
Channel Event. t= 3 (50981) Note Off ch=5 par1=78 par2=64
Channel Event. t= 27 (51008) Note On ch=5 par1=78 par2=76
Channel Event. t= 0 (51008) Note On ch=5 par1=74 par2=76
Channel Event. t= 65 (51073) Note Off ch=5 par1=74 par2=64
Channel Event. t= 2 (51075) Note Off ch=5 par1=78 par2=64
Channel Event. t= 29 (51104) Note On ch=5 par1=86 par2=91
Channel Event. t= 0 (51104) Note On ch=5 par1=78 par2=92
Channel Event. t= 49 (51153) Note Off ch=5 par1=86 par2=64
Channel Event. t= 26 (51179) Note Off ch=5 par1=78 par2=64
Channel Event. t= 21 (51200) Note On ch=5 par1=79 par2=63
Channel Event. t= 0 (51200) Note On ch=5 par1=71 par2=45
Channel Event. t= 78 (51278) Note Off ch=5 par1=79 par2=64
Channel Event. t= 11 (51289) Note Off ch=5 par1=71 par2=64
Channel Event. t= 103 (51392) Note On ch=5 par1=67 par2=83
Channel Event. t= 0 (51392) Note On ch=5 par1=59 par2=92
Channel Event. t= 110 (51502) Note Off ch=5 par1=59 par2=64
Channel Event. t= 2 (51504) Note Off ch=5 par1=67 par2=64
Channel Event. t= 80 (51584) Note On ch=5 par1=67 par2=63
Channel Event. t= 0 (51584) Note On ch=5 par1=59 par2=69
Channel Event. t= 384 (51968) Controller ch=5 par1=7 (Main Volume) par2=79
Channel Event. t= 18 (51986) Note On ch=5 par1=91 par2=75
Channel Event. t= 91 (52077) Note On ch=5 par1=90 par2=79
Channel Event. t= 14 (52091) Note Off ch=5 par1=91 par2=64
Channel Event. t= 21 (52112) Controller ch=5 par1=7 (Main Volume) par2=78
Channel Event. t= 62 (52174) Note On ch=5 par1=88 par2=74
Channel Event. t= 15 (52189) Note Off ch=5 par1=90 par2=64
Channel Event. t= 43 (52232) Controller ch=5 par1=7 (Main Volume) par2=77
Channel Event. t= 31 (52263) Note On ch=5 par1=86 par2=74
Channel Event. t= 6 (52269) Note Off ch=5 par1=88 par2=64
Channel Event. t= 83 (52352) Controller ch=5 par1=7 (Main Volume) par2=76
Channel Event. t= 6 (52358) Note On ch=5 par1=84 par2=68
Channel Event. t= 3 (52361) Note Off ch=5 par1=86 par2=64
Channel Event. t= 83 (52444) Note On ch=5 par1=83 par2=75
Channel Event. t= 5 (52449) Note Off ch=5 par1=84 par2=64
Channel Event. t= 23 (52472) Controller ch=5 par1=7 (Main Volume) par2=75
Channel Event. t= 65 (52537) Note On ch=5 par1=81 par2=68
Channel Event. t= 7 (52544) Note Off ch=5 par1=83 par2=64
Channel Event. t= 48 (52592) Controller ch=5 par1=7 (Main Volume) par2=74
Channel Event. t= 34 (52626) Note On ch=5 par1=79 par2=80
Channel Event. t= 5 (52631) Note Off ch=5 par1=81 par2=64
Channel Event. t= 22 (52653) Note Off ch=5 par1=59 par2=64
Channel Event. t= 36 (52689) Note Off ch=5 par1=67 par2=64
Channel Event. t= 15 (52704) Note Off ch=5 par1=79 par2=64
Channel Event. t= 8 (52712) Controller ch=5 par1=7 (Main Volume) par2=73
Channel Event. t= 14 (52726) Note On ch=5 par1=80 par2=92
Channel Event. t= 10 (52736) Note On ch=5 par1=68 par2=87
Channel Event. t= 0 (52736) Note On ch=5 par1=56 par2=79
Channel Event. t= 89 (52825) Note On ch=5 par1=83 par2=76
Channel Event. t= 7 (52832) Controller ch=5 par1=7 (Main Volume) par2=72
Channel Event. t= 0 (52832) Note On ch=5 par1=71 par2=78
Channel Event. t= 10 (52842) Note Off ch=5 par1=68 par2=64
Channel Event. t= 3 (52845) Note Off ch=5 par1=80 par2=64
Channel Event. t= 26 (52871) Note On ch=5 par1=75 par2=80
Channel Event. t= 9 (52880) Note On ch=5 par1=63 par2=78
Channel Event. t= 2 (52882) Note Off ch=5 par1=83 par2=64
Channel Event. t= 2 (52884) Note Off ch=5 par1=71 par2=64
Channel Event. t= 25 (52909) Note Off ch=5 par1=75 par2=64
Channel Event. t= 16 (52925) Note On ch=5 par1=80 par2=101
Channel Event. t= 3 (52928) Note On ch=5 par1=68 par2=89
Channel Event. t= 1 (52929) Note Off ch=5 par1=63 par2=64
Channel Event. t= 23 (52952) Controller ch=5 par1=7 (Main Volume) par2=71
Channel Event. t= 68 (53020) Note Off ch=5 par1=68 par2=64
Channel Event. t= 4 (53024) Note On ch=5 par1=71 par2=71
Channel Event. t= 0 (53024) Note On ch=5 par1=83 par2=84
Channel Event. t= 7 (53031) Note Off ch=5 par1=80 par2=64
Channel Event. t= 37 (53068) Note On ch=5 par1=75 par2=81
Channel Event. t= 4 (53072) Note On ch=5 par1=63 par2=65
Channel Event. t= 7 (53079) Note Off ch=5 par1=83 par2=64
Channel Event. t= 7 (53086) Note Off ch=5 par1=71 par2=64
Channel Event. t= 2 (53088) Note Off ch=5 par1=56 par2=64
Channel Event. t= 8 (53096) Controller ch=5 par1=7 (Main Volume) par2=70
Channel Event. t= 10 (53106) Note Off ch=5 par1=75 par2=64
Channel Event. t= 14 (53120) Note On ch=5 par1=68 par2=97
Channel Event. t= 0 (53120) Note On ch=5 par1=56 par2=76
Channel Event. t= 0 (53120) Note On ch=5 par1=80 par2=105
Channel Event. t= 6 (53126) Note Off ch=5 par1=63 par2=64
Channel Event. t= 90 (53216) Controller ch=5 par1=7 (Main Volume) par2=69
Channel Event. t= 0 (53216) Note On ch=5 par1=59 par2=74
Channel Event. t= 5 (53221) Note Off ch=5 par1=56 par2=64
Channel Event. t= 43 (53264) Note On ch=5 par1=51 par2=73
Channel Event. t= 15 (53279) Note Off ch=5 par1=59 par2=64
Channel Event. t= 28 (53307) Note Off ch=5 par1=51 par2=64
Channel Event. t= 5 (53312) Note On ch=5 par1=56 par2=92
Channel Event. t= 24 (53336) Controller ch=5 par1=7 (Main Volume) par2=68
Channel Event. t= 36 (53372) Note Off ch=5 par1=68 par2=64
Channel Event. t= 24 (53396) Note Off ch=5 par1=80 par2=64
Channel Event. t= 10 (53406) Note Off ch=5 par1=56 par2=64
Channel Event. t= 2 (53408) Note On ch=5 par1=59 par2=79
Channel Event. t= 48 (53456) Controller ch=5 par1=7 (Main Volume) par2=67
Channel Event. t= 0 (53456) Note On ch=5 par1=51 par2=78
Channel Event. t= 6 (53462) Note Off ch=5 par1=59 par2=64
Channel Event. t= 11 (53473) Note Off ch=5 par1=51 par2=64
Channel Event. t= 31 (53504) Note On ch=5 par1=56 par2=94
Channel Event. t= 0 (53504) Note On ch=5 par1=47 par2=91
Channel Event. t= 4 (53508) Note On ch=5 par1=68 par2=102
Channel Event. t= 68 (53576) Controller ch=5 par1=7 (Main Volume) par2=66
Channel Event. t= 24 (53600) Note On ch=5 par1=58 par2=92
Channel Event. t= 0 (53600) Note On ch=5 par1=49 par2=83
Channel Event. t= 4 (53604) Note Off ch=5 par1=47 par2=64
Channel Event. t= 5 (53609) Note On ch=5 par1=70 par2=92
Channel Event. t= 9 (53618) Note Off ch=5 par1=56 par2=64
Channel Event. t= 6 (53624) Note Off ch=5 par1=68 par2=64
Channel Event. t= 20 (53644) Note Off ch=5 par1=49 par2=64
Channel Event. t= 4 (53648) Note Off ch=5 par1=58 par2=64
Channel Event. t= 10 (53658) Note Off ch=5 par1=70 par2=64
Channel Event. t= 37 (53695) Note On ch=5 par1=71 par2=96
Channel Event. t= 1 (53696) Controller ch=5 par1=7 (Main Volume) par2=65
Channel Event. t= 0 (53696) Note On ch=5 par1=59 par2=90
Channel Event. t= 0 (53696) Note On ch=5 par1=51 par2=93
Channel Event. t= 96 (53792) Note On ch=5 par1=61 par2=91
Channel Event. t= 0 (53792) Note On ch=5 par1=52 par2=79
Channel Event. t= 3 (53795) Note On ch=5 par1=73 par2=92
Channel Event. t= 2 (53797) Note Off ch=5 par1=59 par2=64
Channel Event. t= 4 (53801) Note Off ch=5 par1=51 par2=64
Channel Event. t= 12 (53813) Note Off ch=5 par1=71 par2=64
Channel Event. t= 3 (53816) Controller ch=5 par1=7 (Main Volume) par2=64
Channel Event. t= 20 (53836) Note Off ch=5 par1=61 par2=64
Channel Event. t= 0 (53836) Note Off ch=5 par1=52 par2=64
Channel Event. t= 5 (53841) Note Off ch=5 par1=73 par2=64
Channel Event. t= 43 (53884) Note On ch=5 par1=74 par2=100
Channel Event. t= 4 (53888) Note On ch=5 par1=62 par2=89
Channel Event. t= 0 (53888) Note On ch=5 par1=54 par2=99
Channel Event. t= 48 (53936) Controller ch=5 par1=7 (Main Volume) par2=63
Channel Event. t= 45 (53981) Note On ch=5 par1=76 par2=88
Channel Event. t= 3 (53984) Note On ch=5 par1=64 par2=84
Channel Event. t= 0 (53984) Note On ch=5 par1=55 par2=67
Channel Event. t= 13 (53997) Note Off ch=5 par1=62 par2=64
Channel Event. t= 1 (53998) Note Off ch=5 par1=74 par2=64
Channel Event. t= 1 (53999) Note Off ch=5 par1=54 par2=64
Channel Event. t= 25 (54024) Note Off ch=5 par1=55 par2=64
Channel Event. t= 1 (54025) Note Off ch=5 par1=64 par2=64
Channel Event. t= 15 (54040) Note Off ch=5 par1=76 par2=64
Channel Event. t= 38 (54078) Note On ch=5 par1=77 par2=91
Channel Event. t= 2 (54080) Controller ch=5 par1=7 (Main Volume) par2=62
Channel Event. t= 0 (54080) Note On ch=5 par1=65 par2=90
Channel Event. t= 0 (54080) Note On ch=5 par1=56 par2=89
Channel Event. t= 89 (54169) Note On ch=5 par1=78 par2=83
Channel Event. t= 6 (54175) Note Off ch=5 par1=56 par2=64
Channel Event. t= 1 (54176) Note On ch=5 par1=66 par2=98
Channel Event. t= 0 (54176) Note On ch=5 par1=57 par2=68
Channel Event. t= 2 (54178) Note Off ch=5 par1=65 par2=64
Channel Event. t= 6 (54184) Note Off ch=5 par1=77 par2=64
Channel Event. t= 16 (54200) Controller ch=5 par1=7 (Main Volume) par2=61
Channel Event. t= 4 (54204) Note Off ch=5 par1=57 par2=64
Channel Event. t= 8 (54212) Note Off ch=5 par1=66 par2=64
Channel Event. t= 18 (54230) Note Off ch=5 par1=78 par2=64
Channel Event. t= 39 (54269) Note On ch=5 par1=78 par2=102
Channel Event. t= 3 (54272) Note On ch=5 par1=72 par2=96
Channel Event. t= 0 (54272) Note On ch=5 par1=57 par2=67
Channel Event. t= 48 (54320) Controller ch=5 par1=7 (Main Volume) par2=60
Channel Event. t= 120 (54440) Controller ch=5 par1=7 (Main Volume) par2=59
Channel Event. t= 120 (54560) Controller ch=5 par1=7 (Main Volume) par2=48
Channel Event. t= 96 (54656) Note Off ch=5 par1=72 par2=64
Channel Event. t= 0 (54656) Note Off ch=5 par1=57 par2=64
Channel Event. t= 0 (54656) Note On ch=5 par1=79 par2=95
Channel Event. t= 0 (54656) Note On ch=5 par1=47 par2=63
Channel Event. t= 0 (54656) Note On ch=5 par1=83 par2=96
Channel Event. t= 0 (54656) Note On ch=5 par1=91 par2=102
Channel Event. t= 5 (54661) Note Off ch=5 par1=78 par2=64
Channel Event. t= 19 (54680) Controller ch=5 par1=7 (Main Volume) par2=57
Channel Event. t= 72 (54752) Note Off ch=5 par1=79 par2=64
Channel Event. t= 0 (54752) Note Off ch=5 par1=47 par2=64
Channel Event. t= 0 (54752) Note Off ch=5 par1=83 par2=64
Channel Event. t= 0 (54752) Note Off ch=5 par1=91 par2=64
Channel Event. t= 48 (54800) Controller ch=5 par1=7 (Main Volume) par2=56
Channel Event. t= 120 (54920) Controller ch=5 par1=7 (Main Volume) par2=55
Channel Event. t= 0 (54920) 
Meta Event. Type: 0x2f (47dec), End of Track (0 bytes): 
track #11
track size: 33
Channel Event. t= 0 (0) 
Meta Event. Type: 0x21 (33dec), MIDI Port (1 bytes): 0
Channel Event. t= 0 (0) 
Meta Event. Type: 0x3 (3dec), Sequence/Track Name (20 bytes):                     
Channel Event. t= 0 (0) 
Meta Event. Type: 0x2f (47dec), End of Track (0 bytes): 
track #12
track size: 33
Channel Event. t= 0 (0) 
Meta Event. Type: 0x21 (33dec), MIDI Port (1 bytes): 0
Channel Event. t= 0 (0) 
Meta Event. Type: 0x3 (3dec), Sequence/Track Name (20 bytes):     PART TWO        
Channel Event. t= 0 (0) 
Meta Event. Type: 0x2f (47dec), End of Track (0 bytes): 
track #13
track size: 33
Channel Event. t= 0 (0) 
Meta Event. Type: 0x21 (33dec), MIDI Port (1 bytes): 0
Channel Event. t= 0 (0) 
Meta Event. Type: 0x3 (3dec), Sequence/Track Name (20 bytes): PETER, BIRD & DUCK  
Channel Event. t= 0 (0) 
Meta Event. Type: 0x2f (47dec), End of Track (0 bytes): 
track #14
track size: 33
Channel Event. t= 0 (0) 
Meta Event. Type: 0x21 (33dec), MIDI Port (1 bytes): 0
Channel Event. t= 0 (0) 
Meta Event. Type: 0x3 (3dec), Sequence/Track Name (20 bytes):                     
Channel Event. t= 0 (0) 
Meta Event. Type: 0x2f (47dec), End of Track (0 bytes): 
track #15
track size: 3303
Channel Event. t= 0 (0) 
Meta Event. Type: 0x21 (33dec), MIDI Port (1 bytes): 0
Channel Event. t= 0 (0) 
Meta Event. Type: 0x3 (3dec), Sequence/Track Name (20 bytes): Strings             
Channel Event. t= 0 (0) Program Change ch=7 par1=48 par2=-124
Channel Event. t= 6368 (6368) Controller ch=7 par1=10 (Pan) par2=30
Channel Event. t= 276 (6644) Controller ch=7 par1=7 (Pan) par2=60
Channel Event. t= 12 (6656) Note On ch=7 par1=67 par2=28
Channel Event. t= 192 (6848) Note On ch=7 par1=72 par2=93
Channel Event. t= 144 (6992) Note On ch=7 par1=76 par2=73
Channel Event. t= 1 (6993) Note Off ch=7 par1=72 par2=64
Channel Event. t= 45 (7038) Note Off ch=7 par1=76 par2=64
Channel Event. t= 2 (7040) Note On ch=7 par1=79 par2=95
Channel Event. t= 30 (7070) Note Off ch=7 par1=79 par2=64
Channel Event. t= 66 (7136) Note On ch=7 par1=81 par2=91
Channel Event. t= 24 (7160) Note Off ch=7 par1=81 par2=64
Channel Event. t= 72 (7232) Note On ch=7 par1=79 par2=91
Channel Event. t= 144 (7376) Note On ch=7 par1=76 par2=73
Channel Event. t= 11 (7387) Note Off ch=7 par1=79 par2=64
Channel Event. t= 28 (7415) Note Off ch=7 par1=76 par2=64
Channel Event. t= 9 (7424) Note On ch=7 par1=79 par2=68
Channel Event. t= 18 (7442) Note Off ch=7 par1=79 par2=64
Channel Event. t= 78 (7520) Note On ch=7 par1=81 par2=84
Channel Event. t= 29 (7549) Note Off ch=7 par1=81 par2=64
Channel Event. t= 67 (7616) Note On ch=7 par1=83 par2=91
Channel Event. t= 144 (7760) Note On ch=7 par1=84 par2=79
Channel Event. t= 6 (7766) Note Off ch=7 par1=83 par2=64
Channel Event. t= 42 (7808) Note On ch=7 par1=79 par2=76
Channel Event. t= 3 (7811) Note Off ch=7 par1=84 par2=64
Channel Event. t= 93 (7904) Note On ch=7 par1=76 par2=93
Channel Event. t= 12 (7916) Note Off ch=7 par1=79 par2=64
Channel Event. t= 9 (7925) Note Off ch=7 par1=76 par2=64
Channel Event. t= 75 (8000) Note On ch=7 par1=72 par2=90
Channel Event. t= 27 (8027) Note Off ch=7 par1=72 par2=64
Channel Event. t= 69 (8096) Note On ch=7 par1=74 par2=88
Channel Event. t= 28 (8124) Note Off ch=7 par1=74 par2=64
Channel Event. t= 68 (8192) Note On ch=7 par1=72 par2=76
Channel Event. t= 0 (8192) Note On ch=7 par1=75 par2=102
Channel Event. t= 20 (8212) Note Off ch=7 par1=67 par2=64
Channel Event. t= 124 (8336) Note Off ch=7 par1=75 par2=64
Channel Event. t= 30 (8366) Note Off ch=7 par1=72 par2=64
Channel Event. t= 18 (8384) Note On ch=7 par1=72 par2=80
Channel Event. t= 0 (8384) Note On ch=7 par1=75 par2=88
Channel Event. t= 96 (8480) Note On ch=7 par1=79 par2=82
Channel Event. t= 0 (8480) Note On ch=7 par1=83 par2=84
Channel Event. t= 5 (8485) Note Off ch=7 par1=75 par2=64
Channel Event. t= 1 (8486) Note Off ch=7 par1=72 par2=64
Channel Event. t= 67 (8553) Note Off ch=7 par1=83 par2=64
Channel Event. t= 5 (8558) Note Off ch=7 par1=79 par2=64
Channel Event. t= 18 (8576) Note On ch=7 par1=72 par2=85
Channel Event. t= 0 (8576) Note On ch=7 par1=75 par2=84
Channel Event. t= 176 (8752) Note Off ch=7 par1=72 par2=64
Channel Event. t= 7 (8759) Note Off ch=7 par1=75 par2=64
Channel Event. t= 9 (8768) Note On ch=7 par1=72 par2=86
Channel Event. t= 0 (8768) Note On ch=7 par1=75 par2=100
Channel Event. t= 95 (8863) Note Off ch=7 par1=75 par2=64
Channel Event. t= 1 (8864) Note On ch=7 par1=79 par2=64
Channel Event. t= 0 (8864) Note On ch=7 par1=83 par2=83
Channel Event. t= 13 (8877) Note Off ch=7 par1=72 par2=64
Channel Event. t= 47 (8924) Note Off ch=7 par1=79 par2=64
Channel Event. t= 36 (8960) Note On ch=7 par1=72 par2=77
Channel Event. t= 0 (8960) Note On ch=7 par1=75 par2=94
Channel Event. t= 1 (8961) Note Off ch=7 par1=83 par2=64
Channel Event. t= 191 (9152) Note On ch=7 par1=67 par2=75
Channel Event. t= 0 (9152) Note On ch=7 par1=70 par2=99
Channel Event. t= 1 (9153) Note Off ch=7 par1=72 par2=64
Channel Event. t= 13 (9166) Note Off ch=7 par1=75 par2=64
Channel Event. t= 110 (9276) Note Off ch=7 par1=67 par2=64
Channel Event. t= 46 (9322) Note Off ch=7 par1=70 par2=64
Channel Event. t= 22 (9344) Note On ch=7 par1=67 par2=83
Channel Event. t= 0 (9344) Note On ch=7 par1=70 par2=93
Channel Event. t= 256 (9600) Note Off ch=7 par1=70 par2=64
Channel Event. t= 32 (9632) Note On ch=7 par1=69 par2=83
Channel Event. t= 8 (9640) Note Off ch=7 par1=67 par2=64
Channel Event. t= 73 (9713) Note Off ch=7 par1=69 par2=64
Channel Event. t= 15 (9728) Note On ch=7 par1=70 par2=93
Channel Event. t= 192 (9920) Note On ch=7 par1=75 par2=105
Channel Event. t= 144 (10064) Note On ch=7 par1=79 par2=90
Channel Event. t= 5 (10069) Note Off ch=7 par1=75 par2=64
Channel Event. t= 43 (10112) Note On ch=7 par1=82 par2=98
Channel Event. t= 13 (10125) Note Off ch=7 par1=79 par2=64
Channel Event. t= 25 (10150) Note Off ch=7 par1=82 par2=64
Channel Event. t= 58 (10208) Note On ch=7 par1=84 par2=83
Channel Event. t= 25 (10233) Note Off ch=7 par1=84 par2=64
Channel Event. t= 71 (10304) Note On ch=7 par1=82 par2=101
Channel Event. t= 144 (10448) Note On ch=7 par1=79 par2=86
Channel Event. t= 7 (10455) Note Off ch=7 par1=82 par2=64
Channel Event. t= 41 (10496) Note On ch=7 par1=82 par2=88
Channel Event. t= 8 (10504) Note Off ch=7 par1=79 par2=64
Channel Event. t= 27 (10531) Note Off ch=7 par1=82 par2=64
Channel Event. t= 61 (10592) Note On ch=7 par1=84 par2=92
Channel Event. t= 34 (10626) Note Off ch=7 par1=84 par2=64
Channel Event. t= 62 (10688) Note On ch=7 par1=86 par2=95
Channel Event. t= 144 (10832) Note On ch=7 par1=87 par2=84
Channel Event. t= 4 (10836) Note Off ch=7 par1=86 par2=64
Channel Event. t= 44 (10880) Note On ch=7 par1=82 par2=93
Channel Event. t= 15 (10895) Note Off ch=7 par1=87 par2=64
Channel Event. t= 81 (10976) Note On ch=7 par1=79 par2=76
Channel Event. t= 6 (10982) Note Off ch=7 par1=82 par2=64
Channel Event. t= 59 (11041) Note Off ch=7 par1=79 par2=64
Channel Event. t= 31 (11072) Note On ch=7 par1=75 par2=69
Channel Event. t= 35 (11107) Note Off ch=7 par1=75 par2=64
Channel Event. t= 61 (11168) Note On ch=7 par1=77 par2=87
Channel Event. t= 25 (11193) Note Off ch=7 par1=77 par2=64
Channel Event. t= 25 (11218) Note Off ch=7 par1=70 par2=64
Channel Event. t= 46 (11264) Note On ch=7 par1=74 par2=96
Channel Event. t= 0 (11264) Note On ch=7 par1=78 par2=86
Channel Event. t= 162 (11426) Note Off ch=7 par1=78 par2=64
Channel Event. t= 7 (11433) Note Off ch=7 par1=74 par2=64
Channel Event. t= 23 (11456) Note On ch=7 par1=74 par2=87
Channel Event. t= 0 (11456) Note On ch=7 par1=78 par2=93
Channel Event. t= 91 (11547) Note Off ch=7 par1=78 par2=64
Channel Event. t= 5 (11552) Note On ch=7 par1=83 par2=88
Channel Event. t= 0 (11552) Note On ch=7 par1=86 par2=79
Channel Event. t= 8 (11560) Note Off ch=7 par1=74 par2=64
Channel Event. t= 52 (11612) Note Off ch=7 par1=83 par2=64
Channel Event. t= 36 (11648) Note On ch=7 par1=74 par2=82
Channel Event. t= 0 (11648) Note On ch=7 par1=78 par2=91
Channel Event. t= 23 (11671) Note Off ch=7 par1=86 par2=64
Channel Event. t= 137 (11808) Note Off ch=7 par1=74 par2=64
Channel Event. t= 10 (11818) Note Off ch=7 par1=78 par2=64
Channel Event. t= 22 (11840) Note On ch=7 par1=74 par2=84
Channel Event. t= 0 (11840) Note On ch=7 par1=78 par2=90
Channel Event. t= 96 (11936) Note On ch=7 par1=83 par2=68
Channel Event. t= 0 (11936) Note On ch=7 par1=86 par2=80
Channel Event. t= 11 (11947) Note Off ch=7 par1=74 par2=64
Channel Event. t= 1 (11948) Note Off ch=7 par1=78 par2=64
Channel Event. t= 65 (12013) Note Off ch=7 par1=83 par2=64
Channel Event. t= 19 (12032) Note On ch=7 par1=71 par2=91
Channel Event. t= 0 (12032) Note On ch=7 par1=79 par2=86
Channel Event. t= 3 (12035) Note Off ch=7 par1=86 par2=64
Channel Event. t= 106 (12141) Note Off ch=7 par1=71 par2=64
Channel Event. t= 83 (12224) Note On ch=7 par1=67 par2=86
Channel Event. t= 1 (12225) Note Off ch=7 par1=79 par2=64
Channel Event. t= 170 (12395) Note Off ch=7 par1=67 par2=64
Channel Event. t= 21 (12416) Note On ch=7 par1=59 par2=74
Channel Event. t= 0 (12416) Note On ch=7 par1=67 par2=71
Channel Event. t= 321 (12737) Note Off ch=7 par1=67 par2=64
Channel Event. t= 63 (12800) Note On ch=7 par1=67 par2=45
Channel Event. t= 2 (12802) Note Off ch=7 par1=59 par2=64
Channel Event. t= 1531 (14333) Note Off ch=7 par1=67 par2=64
Channel Event. t= 3 (14336) Note On ch=7 par1=72 par2=86
Channel Event. t= 171 (14507) Note Off ch=7 par1=72 par2=64
Channel Event. t= 21 (14528) Note On ch=7 par1=72 par2=85
Channel Event. t= 95 (14623) Note Off ch=7 par1=72 par2=64
Channel Event. t= 1 (14624) Note On ch=7 par1=79 par2=82
Channel Event. t= 96 (14720) Note On ch=7 par1=84 par2=86
Channel Event. t= 1 (14721) Note Off ch=7 par1=79 par2=64
Channel Event. t= 164 (14885) Note Off ch=7 par1=84 par2=64
Channel Event. t= 27 (14912) Note On ch=7 par1=84 par2=67
Channel Event. t= 92 (15004) Note Off ch=7 par1=84 par2=64
Channel Event. t= 4 (15008) Note On ch=7 par1=91 par2=80
Channel Event. t= 96 (15104) Note On ch=7 par1=84 par2=76
Channel Event. t= 7 (15111) Note Off ch=7 par1=91 par2=64
Channel Event. t= 185 (15296) Note On ch=7 par1=79 par2=77
Channel Event. t= 4 (15300) Note Off ch=7 par1=84 par2=64
Channel Event. t= 182 (15482) Note Off ch=7 par1=79 par2=64
Channel Event. t= 6 (15488) Note On ch=7 par1=67 par2=76
Channel Event. t= 288 (15776) Note On ch=7 par1=69 par2=76
Channel Event. t= 9 (15785) Note Off ch=7 par1=67 par2=64
Channel Event. t= 87 (15872) Note On ch=7 par1=70 par2=80
Channel Event. t= 15 (15887) Note Off ch=7 par1=69 par2=64
Channel Event. t= 177 (16064) Note On ch=7 par1=75 par2=99
Channel Event. t= 144 (16208) Note On ch=7 par1=79 par2=88
Channel Event. t= 10 (16218) Note Off ch=7 par1=75 par2=64
Channel Event. t= 38 (16256) Note On ch=7 par1=82 par2=95
Channel Event. t= 14 (16270) Note Off ch=7 par1=79 par2=64
Channel Event. t= 25 (16295) Note Off ch=7 par1=82 par2=64
Channel Event. t= 57 (16352) Note On ch=7 par1=84 par2=87
Channel Event. t= 44 (16396) Note Off ch=7 par1=84 par2=64
Channel Event. t= 52 (16448) Note On ch=7 par1=82 par2=96
Channel Event. t= 144 (16592) Note On ch=7 par1=81 par2=72
Channel Event. t= 5 (16597) Note Off ch=7 par1=82 par2=64
Channel Event. t= 39 (16636) Note Off ch=7 par1=81 par2=64
Channel Event. t= 4 (16640) Note On ch=7 par1=82 par2=88
Channel Event. t= 96 (16736) Note Off ch=7 par1=82 par2=64
Channel Event. t= 0 (16736) Note On ch=7 par1=84 par2=88
Channel Event. t= 84 (16820) Note Off ch=7 par1=84 par2=64
Channel Event. t= 12 (16832) Note On ch=7 par1=86 par2=86
Channel Event. t= 139 (16971) Note Off ch=7 par1=86 par2=64
Channel Event. t= 5 (16976) Note On ch=7 par1=87 par2=90
Channel Event. t= 48 (17024) Note On ch=7 par1=82 par2=87
Channel Event. t= 6 (17030) Note Off ch=7 par1=87 par2=64
Channel Event. t= 83 (17113) Note Off ch=7 par1=82 par2=64
Channel Event. t= 7 (17120) Note On ch=7 par1=79 par2=84
Channel Event. t= 96 (17216) Note On ch=7 par1=75 par2=96
Channel Event. t= 17 (17233) Note Off ch=7 par1=79 par2=64
Channel Event. t= 79 (17312) Note On ch=7 par1=77 par2=86
Channel Event. t= 9 (17321) Note Off ch=7 par1=75 par2=64
Channel Event. t= 75 (17396) Note Off ch=7 par1=70 par2=64
Channel Event. t= 12 (17408) Note On ch=7 par1=74 par2=92
Channel Event. t= 0 (17408) Note On ch=7 par1=78 par2=80
Channel Event. t= 4 (17412) Note Off ch=7 par1=77 par2=64
Channel Event. t= 51 (17463) Note Off ch=7 par1=78 par2=64
Channel Event. t= 89 (17552) Note Off ch=7 par1=74 par2=64
Channel Event. t= 48 (17600) Note On ch=7 par1=74 par2=91
Channel Event. t= 0 (17600) Note On ch=7 par1=78 par2=90
Channel Event. t= 96 (17696) Note On ch=7 par1=83 par2=83
Channel Event. t= 0 (17696) Note On ch=7 par1=86 par2=84
Channel Event. t= 10 (17706) Note Off ch=7 par1=74 par2=64
Channel Event. t= 4 (17710) Note Off ch=7 par1=78 par2=64
Channel Event. t= 82 (17792) Note On ch=7 par1=74 par2=89
Channel Event. t= 0 (17792) Note On ch=7 par1=78 par2=89
Channel Event. t= 19 (17811) Note Off ch=7 par1=83 par2=64
Channel Event. t= 12 (17823) Note Off ch=7 par1=86 par2=64
Channel Event. t= 129 (17952) Note Off ch=7 par1=74 par2=64
Channel Event. t= 6 (17958) Note Off ch=7 par1=78 par2=64
Channel Event. t= 26 (17984) Note On ch=7 par1=74 par2=89
Channel Event. t= 0 (17984) Note On ch=7 par1=78 par2=84
Channel Event. t= 96 (18080) Note Off ch=7 par1=78 par2=64
Channel Event. t= 0 (18080) Note On ch=7 par1=83 par2=80
Channel Event. t= 0 (18080) Note On ch=7 par1=86 par2=88
Channel Event. t= 17 (18097) Note Off ch=7 par1=74 par2=64
Channel Event. t= 52 (18149) Note Off ch=7 par1=86 par2=64
Channel Event. t= 27 (18176) Note On ch=7 par1=71 par2=90
Channel Event. t= 0 (18176) Note On ch=7 par1=79 par2=57
Channel Event. t= 7 (18183) Note Off ch=7 par1=83 par2=64
Channel Event. t= 89 (18272) Note On ch=7 par1=91 par2=88
Channel Event. t= 25 (18297) Note Off ch=7 par1=91 par2=64
Channel Event. t= 11 (18308) Note Off ch=7 par1=79 par2=64
Channel Event. t= 14 (18322) Note Off ch=7 par1=71 par2=64
Channel Event. t= 142 (18464) Note On ch=7 par1=79 par2=85
Channel Event. t= 29 (18493) Note Off ch=7 par1=79 par2=64
Channel Event. t= 163 (18656) Note On ch=7 par1=67 par2=99
Channel Event. t= 39 (18695) Note Off ch=7 par1=67 par2=64
Channel Event. t= 153 (18848) Note On ch=7 par1=55 par2=93
Channel Event. t= 37 (18885) Note Off ch=7 par1=55 par2=64
Channel Event. t= 5618 (24503) Note On ch=7 par1=67 par2=84
Channel Event. t= 46 (24549) Note On ch=7 par1=70 par2=81
Channel Event. t= 6 (24555) Note Off ch=7 par1=67 par2=64
Channel Event. t= 40 (24595) Note On ch=7 par1=71 par2=73
Channel Event. t= 4 (24599) Note Off ch=7 par1=70 par2=64
Channel Event. t= 39 (24638) Note On ch=7 par1=72 par2=72
Channel Event. t= 4 (24642) Note Off ch=7 par1=71 par2=64
Channel Event. t= 49 (24691) Note On ch=7 par1=74 par2=93
Channel Event. t= 7 (24698) Note Off ch=7 par1=72 par2=64
Channel Event. t= 75 (24773) Note Off ch=7 par1=74 par2=64
Channel Event. t= 120 (24893) Note On ch=7 par1=73 par2=91
Channel Event. t= 45 (24938) Note On ch=7 par1=74 par2=82
Channel Event. t= 14 (24952) Note Off ch=7 par1=73 par2=64
Channel Event. t= 33 (24985) Note On ch=7 par1=78 par2=88
Channel Event. t= 10 (24995) Note Off ch=7 par1=74 par2=64
Channel Event. t= 30 (25025) Note On ch=7 par1=81 par2=74
Channel Event. t= 7 (25032) Note Off ch=7 par1=78 par2=64
Channel Event. t= 51 (25083) Note On ch=7 par1=79 par2=90
Channel Event. t= 4 (25087) Note Off ch=7 par1=81 par2=64
Channel Event. t= 78 (25165) Note Off ch=7 par1=79 par2=64
Channel Event. t= 301 (25466) Note On ch=7 par1=79 par2=82
Channel Event. t= 2 (25468) Note On ch=7 par1=67 par2=75
Channel Event. t= 76 (25544) Note Off ch=7 par1=79 par2=64
Channel Event. t= 1 (25545) Note Off ch=7 par1=67 par2=64
Channel Event. t= 318 (25863) Note On ch=7 par1=69 par2=47
Channel Event. t= 42 (25905) Note On ch=7 par1=62 par2=58
Channel Event. t= 75 (25980) Note On ch=7 par1=66 par2=58
Channel Event. t= 259 (26239) Note On ch=7 par1=71 par2=63
Channel Event. t= 8 (26247) Note On ch=7 par1=65 par2=69
Channel Event. t= 16 (26263) Note Off ch=7 par1=69 par2=64
Channel Event. t= 8 (26271) Note Off ch=7 par1=62 par2=64
Channel Event. t= 11 (26282) Note Off ch=7 par1=66 par2=64
Channel Event. t= 340 (26622) Note On ch=7 par1=72 par2=65
Channel Event. t= 3 (26625) Note On ch=7 par1=64 par2=61
Channel Event. t= 13 (26638) Note Off ch=7 par1=71 par2=64
Channel Event. t= 5 (26643) Note Off ch=7 par1=65 par2=64
Channel Event. t= 383 (27026) Note Off ch=7 par1=64 par2=64
Channel Event. t= 64 (27090) Note On ch=7 par1=81 par2=80
Channel Event. t= 9 (27099) Note Off ch=7 par1=72 par2=64
Channel Event. t= 88 (27187) Note On ch=7 par1=79 par2=78
Channel Event. t= 7 (27194) Note Off ch=7 par1=81 par2=64
Channel Event. t= 85 (27279) Note On ch=7 par1=72 par2=88
Channel Event. t= 3 (27282) Note Off ch=7 par1=79 par2=64
Channel Event. t= 100 (27382) Note On ch=7 par1=74 par2=86
Channel Event. t= 4 (27386) Note On ch=7 par1=71 par2=60
Channel Event. t= 2 (27388) Note On ch=7 par1=65 par2=54
Channel Event. t= 25 (27413) Note Off ch=7 par1=72 par2=64
Channel Event. t= 360 (27773) Note On ch=7 par1=70 par2=69
Channel Event. t= 15 (27788) Note Off ch=7 par1=65 par2=64
Channel Event. t= 0 (27788) Note Off ch=7 par1=71 par2=64
Channel Event. t= 171 (27959) Note On ch=7 par1=76 par2=82
Channel Event. t= 18 (27977) Note Off ch=7 par1=74 par2=64
Channel Event. t= 173 (28150) Note Off ch=7 par1=70 par2=64
Channel Event. t= 4 (28154) Note On ch=7 par1=77 par2=47
Channel Event. t= 3 (28157) Note On ch=7 par1=69 par2=48
Channel Event. t= 1 (28158) Note On ch=7 par1=65 par2=27
Channel Event. t= 19 (28177) Note Off ch=7 par1=76 par2=64
Channel Event. t= 1390 (29567) Note Off ch=7 par1=77 par2=64
Channel Event. t= 10 (29577) Note Off ch=7 par1=65 par2=64
Channel Event. t= 2 (29579) Note Off ch=7 par1=69 par2=64
Channel Event. t= 115 (29694) Note On ch=7 par1=60 par2=94
Channel Event. t= 190 (29884) Note On ch=7 par1=65 par2=88
Channel Event. t= 20 (29904) Note Off ch=7 par1=60 par2=64
Channel Event. t= 121 (30025) Note On ch=7 par1=69 par2=83
Channel Event. t= 8 (30033) Note Off ch=7 par1=65 par2=64
Channel Event. t= 38 (30071) Note On ch=7 par1=72 par2=88
Channel Event. t= 5 (30076) Note Off ch=7 par1=69 par2=64
Channel Event. t= 26 (30102) Note Off ch=7 par1=72 par2=64
Channel Event. t= 62 (30164) Note On ch=7 par1=74 par2=90
Channel Event. t= 31 (30195) Note Off ch=7 par1=74 par2=64
Channel Event. t= 68 (30263) Note On ch=7 par1=72 par2=92
Channel Event. t= 141 (30404) Note On ch=7 par1=69 par2=78
Channel Event. t= 10 (30414) Note Off ch=7 par1=72 par2=64
Channel Event. t= 39 (30453) Note On ch=7 par1=72 par2=90
Channel Event. t= 14 (30467) Note Off ch=7 par1=69 par2=64
Channel Event. t= 18 (30485) Note Off ch=7 par1=72 par2=64
Channel Event. t= 66 (30551) Note On ch=7 par1=74 par2=94
Channel Event. t= 24 (30575) Note Off ch=7 par1=74 par2=64
Channel Event. t= 74 (30649) Note On ch=7 par1=76 par2=92
Channel Event. t= 143 (30792) Note On ch=7 par1=77 par2=84
Channel Event. t= 8 (30800) Note Off ch=7 par1=76 par2=64
Channel Event. t= 48 (30848) Note On ch=7 par1=72 par2=38
Channel Event. t= 7 (30855) Note On ch=7 par1=74 par2=45
Channel Event. t= 7 (30862) Note Off ch=7 par1=77 par2=64
Channel Event. t= 10 (30872) Note Off ch=7 par1=74 par2=64
Channel Event. t= 30 (30902) Note Off ch=7 par1=72 par2=64
Channel Event. t= 34 (30936) Note On ch=7 par1=69 par2=69
Channel Event. t= 32 (30968) Note Off ch=7 par1=69 par2=64
Channel Event. t= 64 (31032) Note On ch=7 par1=65 par2=90
Channel Event. t= 96 (31128) Note On ch=7 par1=67 par2=91
Channel Event. t= 15 (31143) Note Off ch=7 par1=65 par2=64
Channel Event. t= 33 (31176) Note Off ch=7 par1=67 par2=64
Channel Event. t= 45 (31221) Note On ch=7 par1=65 par2=65
Channel Event. t= 4 (31225) Note On ch=7 par1=68 par2=65
Channel Event. t= 210 (31435) Note Off ch=7 par1=68 par2=64
Channel Event. t= 3 (31438) Note Off ch=7 par1=65 par2=64
Channel Event. t= 175 (31613) Note On ch=7 par1=68 par2=55
Channel Event. t= 2 (31615) Note On ch=7 par1=65 par2=49
Channel Event. t= 185 (31800) Note Off ch=7 par1=68 par2=64
Channel Event. t= 4 (31804) Note Off ch=7 par1=65 par2=64
Channel Event. t= 964 (32768) Note On ch=7 par1=65 par2=74
Channel Event. t= 3 (32771) Note On ch=7 par1=68 par2=92
Channel Event. t= 162 (32933) Note Off ch=7 par1=65 par2=64
Channel Event. t= 6 (32939) Note Off ch=7 par1=68 par2=64
Channel Event. t= 12 (32951) Note On ch=7 par1=65 par2=79
Channel Event. t= 2 (32953) Note On ch=7 par1=68 par2=90
Channel Event. t= 86 (33039) Note On ch=7 par1=72 par2=74
Channel Event. t= 8 (33047) Note On ch=7 par1=76 par2=85
Channel Event. t= 1 (33048) Note Off ch=7 par1=65 par2=64
Channel Event. t= 0 (33048) Note Off ch=7 par1=68 par2=64
Channel Event. t= 94 (33142) Note On ch=7 par1=65 par2=81
Channel Event. t= 5 (33147) Note On ch=7 par1=68 par2=90
Channel Event. t= 6 (33153) Note Off ch=7 par1=76 par2=64
Channel Event. t= 3 (33156) Note Off ch=7 par1=72 par2=64
Channel Event. t= 139 (33295) Note Off ch=7 par1=65 par2=64
Channel Event. t= 8 (33303) Note Off ch=7 par1=68 par2=64
Channel Event. t= 23 (33326) Note On ch=7 par1=68 par2=80
Channel Event. t= 3 (33329) Note On ch=7 par1=65 par2=84
Channel Event. t= 94 (33423) Note On ch=7 par1=76 par2=73
Channel Event. t= 1 (33424) Note On ch=7 par1=72 par2=72
Channel Event. t= 1 (33425) Note Off ch=7 par1=68 par2=64
Channel Event. t= 9 (33434) Note Off ch=7 par1=65 par2=64
Channel Event. t= 87 (33521) Note On ch=7 par1=68 par2=89
Channel Event. t= 4 (33525) Note Off ch=7 par1=76 par2=64
Channel Event. t= 1 (33526) Note On ch=7 par1=65 par2=80
Channel Event. t= 7 (33533) Note Off ch=7 par1=72 par2=64
Channel Event. t= 152 (33685) Note Off ch=7 par1=68 par2=64
Channel Event. t= 36 (33721) Note On ch=7 par1=63 par2=78
Channel Event. t= 1 (33722) Note On ch=7 par1=60 par2=62
Channel Event. t= 6 (33728) Note Off ch=7 par1=65 par2=64
Channel Event. t= 147 (33875) Note Off ch=7 par1=63 par2=64
Channel Event. t= 0 (33875) Note On ch=7 par1=63 par2=68
Channel Event. t= 16 (33891) Note On ch=7 par1=68 par2=83
Channel Event. t= 7 (33898) Note Off ch=7 par1=63 par2=64
Channel Event. t= 5 (33903) Note Off ch=7 par1=60 par2=64
Channel Event. t= 15 (33918) Note On ch=7 par1=72 par2=84
Channel Event. t= 8 (33926) Note Off ch=7 par1=68 par2=64
Channel Event. t= 70 (33996) Note Off ch=7 par1=72 par2=64
Channel Event. t= 86 (34082) Note On ch=7 par1=75 par2=67
Channel Event. t= 11 (34093) Note On ch=7 par1=80 par2=84
Channel Event. t= 16 (34109) Note Off ch=7 par1=75 par2=64
Channel Event. t= 6 (34115) Note On ch=7 par1=84 par2=82
Channel Event. t= 12 (34127) Note Off ch=7 par1=80 par2=64
Channel Event. t= 25 (34152) Note Off ch=7 par1=84 par2=64
Channel Event. t= 152 (34304) Note On ch=7 par1=63 par2=81
Channel Event. t= 6 (34310) Note Off ch=7 par1=63 par2=64
Channel Event. t= 0 (34310) Note On ch=7 par1=63 par2=54
Channel Event. t= 180 (34490) Note On ch=7 par1=68 par2=95
Channel Event. t= 15 (34505) Note Off ch=7 par1=63 par2=64
Channel Event. t= 125 (34630) Note On ch=7 par1=72 par2=80
Channel Event. t= 6 (34636) Note Off ch=7 par1=68 par2=64
Channel Event. t= 41 (34677) Note On ch=7 par1=75 par2=97
Channel Event. t= 7 (34684) Note Off ch=7 par1=72 par2=64
Channel Event. t= 22 (34706) Note Off ch=7 par1=75 par2=64
Channel Event. t= 58 (34764) Note On ch=7 par1=77 par2=86
Channel Event. t= 25 (34789) Note Off ch=7 par1=77 par2=64
Channel Event. t= 75 (34864) Note On ch=7 par1=75 par2=96
Channel Event. t= 155 (35019) Note On ch=7 par1=72 par2=87
Channel Event. t= 2 (35021) Note Off ch=7 par1=75 par2=64
Channel Event. t= 41 (35062) Note On ch=7 par1=75 par2=92
Channel Event. t= 16 (35078) Note Off ch=7 par1=72 par2=64
Channel Event. t= 20 (35098) Note Off ch=7 par1=75 par2=64
Channel Event. t= 59 (35157) Note On ch=7 par1=77 par2=87
Channel Event. t= 28 (35185) Note Off ch=7 par1=77 par2=64
Channel Event. t= 67 (35252) Note On ch=7 par1=79 par2=89
Channel Event. t= 136 (35388) Note On ch=7 par1=80 par2=78
Channel Event. t= 15 (35403) Note Off ch=7 par1=79 par2=64
Channel Event. t= 38 (35441) Note On ch=7 par1=75 par2=96
Channel Event. t= 17 (35458) Note Off ch=7 par1=80 par2=64
Channel Event. t= 77 (35535) Note On ch=7 par1=72 par2=82
Channel Event. t= 1 (35536) Note Off ch=7 par1=75 par2=64
Channel Event. t= 66 (35602) Note Off ch=7 par1=72 par2=64
Channel Event. t= 35 (35637) Note On ch=7 par1=68 par2=77
Channel Event. t= 31 (35668) Note Off ch=7 par1=68 par2=64
Channel Event. t= 72 (35740) Note On ch=7 par1=70 par2=89
Channel Event. t= 37 (35777) Note Off ch=7 par1=70 par2=64
Channel Event. t= 65 (35842) Note On ch=7 par1=67 par2=61
Channel Event. t= 1 (35843) Note On ch=7 par1=71 par2=65
Channel Event. t= 160 (36003) Note Off ch=7 par1=67 par2=64
Channel Event. t= 0 (36003) Note Off ch=7 par1=71 par2=64
Channel Event. t= 604 (36607) Note On ch=7 par1=67 par2=77
Channel Event. t= 2 (36609) Note On ch=7 par1=71 par2=95
Channel Event. t= 162 (36771) Note Off ch=7 par1=71 par2=64
Channel Event. t= 9 (36780) Note Off ch=7 par1=67 par2=64
Channel Event. t= 6 (36786) Note On ch=7 par1=71 par2=89
Channel Event. t= 11 (36797) Note On ch=7 par1=67 par2=71
Channel Event. t= 86 (36883) Note On ch=7 par1=79 par2=84
Channel Event. t= 5 (36888) Note On ch=7 par1=76 par2=70
Channel Event. t= 2 (36890) Note Off ch=7 par1=71 par2=64
Channel Event. t= 8 (36898) Note Off ch=7 par1=67 par2=64
Channel Event. t= 84 (36982) Note On ch=7 par1=71 par2=88
Channel Event. t= 4 (36986) Note On ch=7 par1=65 par2=77
Channel Event. t= 7 (36993) Note Off ch=7 par1=79 par2=64
Channel Event. t= 1 (36994) Note Off ch=7 par1=76 par2=64
Channel Event. t= 152 (37146) Note Off ch=7 par1=71 par2=64
Channel Event. t= 11 (37157) Note Off ch=7 par1=65 par2=64
Channel Event. t= 9 (37166) Note On ch=7 par1=71 par2=74
Channel Event. t= 10 (37176) Note On ch=7 par1=65 par2=67
Channel Event. t= 91 (37267) Note On ch=7 par1=79 par2=77
Channel Event. t= 8 (37275) Note Off ch=7 par1=71 par2=64
Channel Event. t= 1 (37276) Note On ch=7 par1=76 par2=71
Channel Event. t= 3 (37279) Note Off ch=7 par1=65 par2=64
Channel Event. t= 91 (37370) Note On ch=7 par1=72 par2=87
Channel Event. t= 6 (37376) Note On ch=7 par1=64 par2=69
Channel Event. t= 1 (37377) Note Off ch=7 par1=76 par2=64
Channel Event. t= 6 (37383) Note Off ch=7 par1=79 par2=64
Channel Event. t= 175 (37558) Note On ch=7 par1=60 par2=79
Channel Event. t= 15 (37573) Note Off ch=7 par1=64 par2=64
Channel Event. t= 16 (37589) Note Off ch=7 par1=72 par2=64
Channel Event. t= 135 (37724) Note Off ch=7 par1=60 par2=64
Channel Event. t= 29 (37753) Note On ch=7 par1=60 par2=88
Channel Event. t= 347 (38100) Note Off ch=7 par1=60 par2=64
Channel Event. t= 43 (38143) Note On ch=7 par1=70 par2=91
Channel Event. t= 0 (38143) Note On ch=7 par1=66 par2=87
Channel Event. t= 172 (38315) Note Off ch=7 par1=70 par2=64
Channel Event. t= 1 (38316) Note Off ch=7 par1=66 par2=64
Channel Event. t= 14 (38330) Note On ch=7 par1=70 par2=90
Channel Event. t= 4 (38334) Note On ch=7 par1=66 par2=82
Channel Event. t= 89 (38423) Note Off ch=7 par1=70 par2=64
Channel Event. t= 0 (38423) Note On ch=7 par1=78 par2=80
Channel Event. t= 2 (38425) Note On ch=7 par1=75 par2=85
Channel Event. t= 9 (38434) Note Off ch=7 par1=66 par2=64
Channel Event. t= 86 (38520) Note On ch=7 par1=70 par2=86
Channel Event. t= 1 (38521) Note On ch=7 par1=64 par2=85
Channel Event. t= 1 (38522) Note Off ch=7 par1=75 par2=64
Channel Event. t= 7 (38529) Note Off ch=7 par1=78 par2=64
Channel Event. t= 157 (38686) Note Off ch=7 par1=70 par2=64
Channel Event. t= 6 (38692) Note Off ch=7 par1=64 par2=64
Channel Event. t= 15 (38707) Note On ch=7 par1=70 par2=80
Channel Event. t= 2 (38709) Note On ch=7 par1=64 par2=89
Channel Event. t= 90 (38799) Note On ch=7 par1=75 par2=83
Channel Event. t= 8 (38807) Note On ch=7 par1=78 par2=84
Channel Event. t= 7 (38814) Note Off ch=7 par1=70 par2=64
Channel Event. t= 0 (38814) Note Off ch=7 par1=64 par2=64
Channel Event. t= 83 (38897) Note On ch=7 par1=63 par2=71
Channel Event. t= 8 (38905) Note On ch=7 par1=71 par2=84
Channel Event. t= 1 (38906) Note Off ch=7 par1=75 par2=64
Channel Event. t= 5 (38911) Note Off ch=7 par1=78 par2=64
Channel Event. t= 185 (39096) Note On ch=7 par1=59 par2=87
Channel Event. t= 3 (39099) Note Off ch=7 par1=63 par2=64
Channel Event. t= 12 (39111) Note Off ch=7 par1=71 par2=64
Channel Event. t= 150 (39261) Note Off ch=7 par1=59 par2=64
Channel Event. t= 27 (39288) Note On ch=7 par1=59 par2=80
Channel Event. t= 381 (39669) Note On ch=7 par1=69 par2=75
Channel Event. t= 12 (39681) Note On ch=7 par1=65 par2=85
Channel Event. t= 7 (39688) Note Off ch=7 par1=59 par2=64
Channel Event. t= 150 (39838) Note Off ch=7 par1=65 par2=64
Channel Event. t= 4 (39842) Note Off ch=7 par1=69 par2=64
Channel Event. t= 19 (39861) Note On ch=7 par1=65 par2=80
Channel Event. t= 1 (39862) Note On ch=7 par1=69 par2=75
Channel Event. t= 95 (39957) Note On ch=7 par1=77 par2=68
Channel Event. t= 3 (39960) Note On ch=7 par1=74 par2=72
Channel Event. t= 3 (39963) Note Off ch=7 par1=69 par2=64
Channel Event. t= 2 (39965) Note Off ch=7 par1=65 par2=64
Channel Event. t= 94 (40059) Note On ch=7 par1=69 par2=74
Channel Event. t= 2 (40061) Note Off ch=7 par1=77 par2=64
Channel Event. t= 3 (40064) Note On ch=7 par1=65 par2=79
Channel Event. t= 13 (40077) Note Off ch=7 par1=74 par2=64
Channel Event. t= 140 (40217) Note Off ch=7 par1=69 par2=64
Channel Event. t= 7 (40224) Note Off ch=7 par1=65 par2=64
Channel Event. t= 14 (40238) Note On ch=7 par1=69 par2=72
Channel Event. t= 6 (40244) Note On ch=7 par1=65 par2=69
Channel Event. t= 93 (40337) Note On ch=7 par1=77 par2=66
Channel Event. t= 3 (40340) Note On ch=7 par1=75 par2=77
Channel Event. t= 1 (40341) Note Off ch=7 par1=69 par2=64
Channel Event. t= 6 (40347) Note Off ch=7 par1=65 par2=64
Channel Event. t= 89 (40436) Note On ch=7 par1=70 par2=81
Channel Event. t= 3 (40439) Note Off ch=7 par1=77 par2=64
Channel Event. t= 4 (40443) Note On ch=7 par1=62 par2=84
Channel Event. t= 9 (40452) Note Off ch=7 par1=75 par2=64
Channel Event. t= 182 (40634) Note On ch=7 par1=58 par2=80
Channel Event. t= 13 (40647) Note Off ch=7 par1=62 par2=64
Channel Event. t= 12 (40659) Note Off ch=7 par1=70 par2=64
Channel Event. t= 136 (40795) Note Off ch=7 par1=58 par2=64
Channel Event. t= 24 (40819) Note On ch=7 par1=58 par2=71
Channel Event. t= 397 (41216) Note Off ch=7 par1=58 par2=64
Channel Event. t= 1 (41217) Note On ch=7 par1=58 par2=74
Channel Event. t= 83 (41300) Note On ch=7 par1=57 par2=64
Channel Event. t= 6 (41306) Note Off ch=7 par1=58 par2=64
Channel Event. t= 91 (41397) Note On ch=7 par1=55 par2=71
Channel Event. t= 9 (41406) Note Off ch=7 par1=57 par2=64
Channel Event. t= 88 (41494) Note On ch=7 par1=57 par2=66
Channel Event. t= 20 (41514) Note Off ch=7 par1=55 par2=64
Channel Event. t= 75 (41589) Note On ch=7 par1=58 par2=80
Channel Event. t= 21 (41610) Note Off ch=7 par1=57 par2=64
Channel Event. t= 145 (41755) Note Off ch=7 par1=58 par2=64
Channel Event. t= 20 (41775) Note On ch=7 par1=58 par2=70
Channel Event. t= 189 (41964) Note On ch=7 par1=53 par2=76
Channel Event. t= 4 (41968) Note Off ch=7 par1=58 par2=64
Channel Event. t= 185 (42153) Note On ch=7 par1=57 par2=64
Channel Event. t= 14 (42167) Note Off ch=7 par1=53 par2=64
Channel Event. t= 183 (42350) Note Off ch=7 par1=57 par2=64
Channel Event. t= 7 (42357) Note On ch=7 par1=58 par2=71
Channel Event. t= 82 (42439) Note On ch=7 par1=57 par2=61
Channel Event. t= 8 (42447) Note Off ch=7 par1=58 par2=64
Channel Event. t= 86 (42533) Note On ch=7 par1=55 par2=68
Channel Event. t= 10 (42543) Note Off ch=7 par1=57 par2=64
Channel Event. t= 84 (42627) Note On ch=7 par1=57 par2=66
Channel Event. t= 9 (42636) Note Off ch=7 par1=55 par2=64
Channel Event. t= 92 (42728) Note On ch=7 par1=58 par2=71
Channel Event. t= 11 (42739) Note Off ch=7 par1=57 par2=64
Channel Event. t= 172 (42911) Note Off ch=7 par1=58 par2=64
Channel Event. t= 19 (42930) Note On ch=7 par1=58 par2=79
Channel Event. t= 189 (43119) Note On ch=7 par1=53 par2=73
Channel Event. t= 12 (43131) Note Off ch=7 par1=58 par2=64
Channel Event. t= 186 (43317) Note On ch=7 par1=57 par2=69
Channel Event. t= 14 (43331) Note Off ch=7 par1=53 par2=64
Channel Event. t= 158 (43489) Note Off ch=7 par1=57 par2=64
Channel Event. t= 21 (43510) Note On ch=7 par1=58 par2=90
Channel Event. t= 85 (43595) Note On ch=7 par1=57 par2=73
Channel Event. t= 10 (43605) Note Off ch=7 par1=58 par2=64
Channel Event. t= 92 (43697) Note On ch=7 par1=55 par2=69
Channel Event. t= 8 (43705) Note Off ch=7 par1=57 par2=64
Channel Event. t= 86 (43791) Note On ch=7 par1=57 par2=63
Channel Event. t= 8 (43799) Note Off ch=7 par1=55 par2=64
Channel Event. t= 90 (43889) Note On ch=7 par1=58 par2=81
Channel Event. t= 8 (43897) Note Off ch=7 par1=57 par2=64
Channel Event. t= 146 (44043) Note Off ch=7 par1=58 par2=64
Channel Event. t= 40 (44083) Note On ch=7 par1=58 par2=82
Channel Event. t= 93 (44176) Note On ch=7 par1=57 par2=58
Channel Event. t= 14 (44190) Note Off ch=7 par1=58 par2=64
Channel Event. t= 82 (44272) Note On ch=7 par1=55 par2=65
Channel Event. t= 13 (44285) Note Off ch=7 par1=57 par2=64
Channel Event. t= 79 (44364) Note On ch=7 par1=57 par2=63
Channel Event. t= 11 (44375) Note Off ch=7 par1=55 par2=64
Channel Event. t= 82 (44457) Note On ch=7 par1=58 par2=73
Channel Event. t= 14 (44471) Note Off ch=7 par1=57 par2=64
Channel Event. t= 170 (44641) Note Off ch=7 par1=58 par2=64
Channel Event. t= 19 (44660) Note On ch=7 par1=58 par2=75
Channel Event. t= 95 (44755) Note On ch=7 par1=57 par2=68
Channel Event. t= 13 (44768) Note Off ch=7 par1=58 par2=64
Channel Event. t= 85 (44853) Note On ch=7 par1=55 par2=70
Channel Event. t= 6 (44859) Note Off ch=7 par1=57 par2=64
Channel Event. t= 85 (44944) Note On ch=7 par1=57 par2=66
Channel Event. t= 11 (44955) Note Off ch=7 par1=55 par2=64
Channel Event. t= 88 (45043) Note On ch=7 par1=58 par2=67
Channel Event. t= 14 (45057) Note Off ch=7 par1=57 par2=64
Channel Event. t= 157 (45214) Note Off ch=7 par1=58 par2=64
Channel Event. t= 24 (45238) Note On ch=7 par1=57 par2=69
Channel Event. t= 88 (45326) Note On ch=7 par1=55 par2=55
Channel Event. t= 13 (45339) Note Off ch=7 par1=57 par2=64
Channel Event. t= 82 (45421) Note On ch=7 par1=53 par2=66
Channel Event. t= 11 (45432) Note Off ch=7 par1=55 par2=64
Channel Event. t= 88 (45520) Note On ch=7 par1=55 par2=58
Channel Event. t= 16 (45536) Note Off ch=7 par1=53 par2=64
Channel Event. t= 82 (45618) Note On ch=7 par1=57 par2=59
Channel Event. t= 11 (45629) Note Off ch=7 par1=55 par2=64
Channel Event. t= 158 (45787) Note Off ch=7 par1=57 par2=64
Channel Event. t= 19 (45806) Note On ch=7 par1=69 par2=46
Channel Event. t= 3 (45809) Note On ch=7 par1=72 par2=46
Channel Event. t= 93 (45902) Note On ch=7 par1=67 par2=55
Channel Event. t= 4 (45906) Note On ch=7 par1=70 par2=49
Channel Event. t= 12 (45918) Note Off ch=7 par1=69 par2=64
Channel Event. t= 9 (45927) Note Off ch=7 par1=72 par2=64
Channel Event. t= 71 (45998) Note On ch=7 par1=69 par2=43
Channel Event. t= 6 (46004) Note On ch=7 par1=65 par2=51
Channel Event. t= 10 (46014) Note Off ch=7 par1=67 par2=64
Channel Event. t= 2 (46016) Note Off ch=7 par1=70 par2=64
Channel Event. t= 79 (46095) Note On ch=7 par1=70 par2=53
Channel Event. t= 4 (46099) Note On ch=7 par1=67 par2=44
Channel Event. t= 9 (46108) Note Off ch=7 par1=65 par2=64
Channel Event. t= 12 (46120) Note Off ch=7 par1=69 par2=64
Channel Event. t= 76 (46196) Note On ch=7 par1=72 par2=28
Channel Event. t= 2 (46198) Note On ch=7 par1=69 par2=29
Channel Event. t= 14 (46212) Note Off ch=7 par1=70 par2=64
Channel Event. t= 9 (46221) Note Off ch=7 par1=67 par2=64
Channel Event. t= 149 (46370) Note Off ch=7 par1=72 par2=64
Channel Event. t= 2 (46372) Note Off ch=7 par1=69 par2=64
Channel Event. t= 21 (46393) Note On ch=7 par1=58 par2=74
Channel Event. t= 92 (46485) Note On ch=7 par1=57 par2=65
Channel Event. t= 14 (46499) Note Off ch=7 par1=58 par2=64
Channel Event. t= 80 (46579) Note On ch=7 par1=55 par2=72
Channel Event. t= 16 (46595) Note Off ch=7 par1=57 par2=64
Channel Event. t= 79 (46674) Note On ch=7 par1=57 par2=77
Channel Event. t= 13 (46687) Note Off ch=7 par1=55 par2=64
Channel Event. t= 83 (46770) Note On ch=7 par1=58 par2=74
Channel Event. t= 13 (46783) Note Off ch=7 par1=57 par2=64
Channel Event. t= 153 (46936) Note Off ch=7 par1=58 par2=64
Channel Event. t= 28 (46964) Note On ch=7 par1=58 par2=71
Channel Event. t= 185 (47149) Note On ch=7 par1=53 par2=67
Channel Event. t= 7 (47156) Note Off ch=7 par1=58 par2=64
Channel Event. t= 194 (47350) Note On ch=7 par1=57 par2=66
Channel Event. t= 11 (47361) Note Off ch=7 par1=53 par2=64
Channel Event. t= 154 (47515) Note Off ch=7 par1=57 par2=64
Channel Event. t= 17 (47532) Note On ch=7 par1=58 par2=75
Channel Event. t= 98 (47630) Note On ch=7 par1=57 par2=66
Channel Event. t= 10 (47640) Note Off ch=7 par1=58 par2=64
Channel Event. t= 88 (47728) Note On ch=7 par1=55 par2=70
Channel Event. t= 14 (47742) Note Off ch=7 par1=57 par2=64
Channel Event. t= 79 (47821) Note On ch=7 par1=57 par2=60
Channel Event. t= 12 (47833) Note Off ch=7 par1=55 par2=64
Channel Event. t= 90 (47923) Note On ch=7 par1=58 par2=70
Channel Event. t= 14 (47937) Note Off ch=7 par1=57 par2=64
Channel Event. t= 147 (48084) Note Off ch=7 par1=58 par2=64
Channel Event. t= 24 (48108) Note On ch=7 par1=58 par2=75
Channel Event. t= 193 (48301) Note On ch=7 par1=53 par2=66
Channel Event. t= 10 (48311) Note Off ch=7 par1=58 par2=64
Channel Event. t= 190 (48501) Note On ch=7 par1=57 par2=67
Channel Event. t= 12 (48513) Note Off ch=7 par1=53 par2=64
Channel Event. t= 169 (48682) Note Off ch=7 par1=57 par2=64
Channel Event. t= 19 (48701) Note On ch=7 par1=58 par2=80
Channel Event. t= 91 (48792) Note On ch=7 par1=57 par2=69
Channel Event. t= 12 (48804) Note Off ch=7 par1=58 par2=64
Channel Event. t= 87 (48891) Note On ch=7 par1=55 par2=63
Channel Event. t= 7 (48898) Note Off ch=7 par1=57 par2=64
Channel Event. t= 79 (48977) Note On ch=7 par1=57 par2=56
Channel Event. t= 11 (48988) Note Off ch=7 par1=55 par2=64
Channel Event. t= 95 (49083) Note On ch=7 par1=58 par2=55
Channel Event. t= 16 (49099) Note Off ch=7 par1=57 par2=64
Channel Event. t= 152 (49251) Note Off ch=7 par1=58 par2=64
Channel Event. t= 25 (49276) Note On ch=7 par1=58 par2=68
Channel Event. t= 90 (49366) Note On ch=7 par1=57 par2=57
Channel Event. t= 9 (49375) Note Off ch=7 par1=58 par2=64
Channel Event. t= 91 (49466) Note On ch=7 par1=55 par2=55
Channel Event. t= 9 (49475) Note Off ch=7 par1=57 par2=64
Channel Event. t= 77 (49552) Note On ch=7 par1=57 par2=54
Channel Event. t= 7 (49559) Note Off ch=7 par1=55 par2=64
Channel Event. t= 95 (49654) Note On ch=7 par1=58 par2=66
Channel Event. t= 14 (49668) Note Off ch=7 par1=57 par2=64
Channel Event. t= 162 (49830) Note Off ch=7 par1=58 par2=64
Channel Event. t= 22 (49852) Note On ch=7 par1=58 par2=74
Channel Event. t= 93 (49945) Note On ch=7 par1=57 par2=64
Channel Event. t= 12 (49957) Note Off ch=7 par1=58 par2=64
Channel Event. t= 86 (50043) Note On ch=7 par1=55 par2=58
Channel Event. t= 11 (50054) Note Off ch=7 par1=57 par2=64
Channel Event. t= 80 (50134) Note On ch=7 par1=57 par2=66
Channel Event. t= 9 (50143) Note Off ch=7 par1=55 par2=64
Channel Event. t= 90 (50233) Note On ch=7 par1=58 par2=63
Channel Event. t= 17 (50250) Note Off ch=7 par1=57 par2=64
Channel Event. t= 148 (50398) Note Off ch=7 par1=58 par2=64
Channel Event. t= 21 (50419) Note On ch=7 par1=57 par2=70
Channel Event. t= 95 (50514) Note On ch=7 par1=55 par2=56
Channel Event. t= 13 (50527) Note Off ch=7 par1=57 par2=64
Channel Event. t= 86 (50613) Note On ch=7 par1=53 par2=66
Channel Event. t= 6 (50619) Note Off ch=7 par1=55 par2=64
Channel Event. t= 96 (50715) Note On ch=7 par1=55 par2=65
Channel Event. t= 15 (50730) Note Off ch=7 par1=53 par2=64
Channel Event. t= 78 (50808) Note On ch=7 par1=57 par2=61
Channel Event. t= 11 (50819) Note Off ch=7 par1=55 par2=64
Channel Event. t= 94 (50913) Note Off ch=7 par1=57 par2=64
Channel Event. t= 77 (50990) Note On ch=7 par1=69 par2=46
Channel Event. t= 1 (50991) Note On ch=7 par1=72 par2=53
Channel Event. t= 3 (50994) Note On ch=7 par1=81 par2=51
Channel Event. t= 87 (51081) Note On ch=7 par1=70 par2=56
Channel Event. t= 3 (51084) Note On ch=7 par1=67 par2=44
Channel Event. t= 9 (51093) Note Off ch=7 par1=69 par2=64
Channel Event. t= 1 (51094) Note On ch=7 par1=79 par2=67
Channel Event. t= 3 (51097) Note Off ch=7 par1=72 par2=64
Channel Event. t= 11 (51108) Note Off ch=7 par1=81 par2=64
Channel Event. t= 65 (51173) Note On ch=7 par1=69 par2=48
Channel Event. t= 11 (51184) Note On ch=7 par1=65 par2=44
Channel Event. t= 3 (51187) Note Off ch=7 par1=70 par2=64
Channel Event. t= 2 (51189) Note Off ch=7 par1=67 par2=64
Channel Event. t= 0 (51189) Note On ch=7 par1=77 par2=50
Channel Event. t= 16 (51205) Note Off ch=7 par1=79 par2=64
Channel Event. t= 62 (51267) Note On ch=7 par1=70 par2=53
Channel Event. t= 3 (51270) Note On ch=7 par1=67 par2=52
Channel Event. t= 4 (51274) Note Off ch=7 par1=67 par2=64
Channel Event. t= 0 (51274) Note On ch=7 par1=67 par2=39
Channel Event. t= 3 (51277) Note On ch=7 par1=79 par2=46
Channel Event. t= 3 (51280) Note Off ch=7 par1=65 par2=64
Channel Event. t= 10 (51290) Note Off ch=7 par1=69 par2=64
Channel Event. t= 4 (51294) Note Off ch=7 par1=77 par2=64
Channel Event. t= 79 (51373) Note Off ch=7 par1=79 par2=64
Channel Event. t= 0 (51373) Note On ch=7 par1=81 par2=33
Channel Event. t= 2 (51375) Note On ch=7 par1=69 par2=35
Channel Event. t= 1 (51376) Note On ch=7 par1=72 par2=41
Channel Event. t= 4 (51380) Note Off ch=7 par1=69 par2=64
Channel Event. t= 0 (51380) Note On ch=7 par1=69 par2=30
Channel Event. t= 3 (51383) Note Off ch=7 par1=70 par2=64
Channel Event. t= 11 (51394) Note Off ch=7 par1=67 par2=64
Channel Event. t= 137 (51531) Note Off ch=7 par1=81 par2=64
Channel Event. t= 32 (51563) Note On ch=7 par1=58 par2=58
Channel Event. t= 1 (51564) Note Off ch=7 par1=72 par2=64
Channel Event. t= 2 (51566) Note Off ch=7 par1=69 par2=64
Channel Event. t= 92 (51658) Note On ch=7 par1=57 par2=67
Channel Event. t= 11 (51669) Note Off ch=7 par1=58 par2=64
Channel Event. t= 90 (51759) Note On ch=7 par1=55 par2=51
Channel Event. t= 6 (51765) Note Off ch=7 par1=57 par2=64
Channel Event. t= 93 (51858) Note On ch=7 par1=57 par2=45
Channel Event. t= 9 (51867) Note Off ch=7 par1=55 par2=64
Channel Event. t= 89 (51956) Note On ch=7 par1=58 par2=61
Channel Event. t= 13 (51969) Note Off ch=7 par1=57 par2=64
Channel Event. t= 140 (52109) Note Off ch=7 par1=58 par2=64
Channel Event. t= 37 (52146) Note On ch=7 par1=57 par2=66
Channel Event. t= 87 (52233) Note On ch=7 par1=55 par2=55
Channel Event. t= 14 (52247) Note Off ch=7 par1=57 par2=64
Channel Event. t= 83 (52330) Note On ch=7 par1=53 par2=60
Channel Event. t= 9 (52339) Note Off ch=7 par1=55 par2=64
Channel Event. t= 88 (52427) Note On ch=7 par1=55 par2=58
Channel Event. t= 9 (52436) Note Off ch=7 par1=53 par2=64
Channel Event. t= 97 (52533) Note On ch=7 par1=57 par2=55
Channel Event. t= 13 (52546) Note Off ch=7 par1=55 par2=64
Channel Event. t= 141 (52687) Note Off ch=7 par1=57 par2=64
Channel Event. t= 36 (52723) Note On ch=7 par1=58 par2=63
Channel Event. t= 88 (52811) Note On ch=7 par1=57 par2=61
Channel Event. t= 10 (52821) Note Off ch=7 par1=58 par2=64
Channel Event. t= 88 (52909) Note On ch=7 par1=55 par2=57
Channel Event. t= 9 (52918) Note Off ch=7 par1=57 par2=64
Channel Event. t= 78 (52996) Note On ch=7 par1=57 par2=52
Channel Event. t= 11 (53007) Note Off ch=7 par1=55 par2=64
Channel Event. t= 94 (53101) Note On ch=7 par1=58 par2=67
Channel Event. t= 13 (53114) Note Off ch=7 par1=57 par2=64
Channel Event. t= 168 (53282) Note Off ch=7 par1=58 par2=64
Channel Event. t= 20 (53302) Note On ch=7 par1=58 par2=70
Channel Event. t= 194 (53496) Note On ch=7 par1=53 par2=66
Channel Event. t= 5 (53501) Note Off ch=7 par1=58 par2=64
Channel Event. t= 190 (53691) Note On ch=7 par1=57 par2=63
Channel Event. t= 14 (53705) Note Off ch=7 par1=53 par2=64
Channel Event. t= 159 (53864) Note Off ch=7 par1=57 par2=64
Channel Event. t= 25 (53889) Note On ch=7 par1=58 par2=65
Channel Event. t= 87 (53976) Note On ch=7 par1=57 par2=59
Channel Event. t= 13 (53989) Note Off ch=7 par1=58 par2=64
Channel Event. t= 83 (54072) Note On ch=7 par1=55 par2=65
Channel Event. t= 12 (54084) Note Off ch=7 par1=57 par2=64
Channel Event. t= 77 (54161) Note On ch=7 par1=57 par2=54
Channel Event. t= 11 (54172) Note Off ch=7 par1=55 par2=64
Channel Event. t= 94 (54266) Note On ch=7 par1=58 par2=61
Channel Event. t= 14 (54280) Note Off ch=7 par1=57 par2=64
Channel Event. t= 145 (54425) Note Off ch=7 par1=58 par2=64
Channel Event. t= 28 (54453) Note On ch=7 par1=57 par2=56
Channel Event. t= 97 (54550) Note On ch=7 par1=55 par2=38
Channel Event. t= 11 (54561) Note Off ch=7 par1=57 par2=64
Channel Event. t= 82 (54643) Note On ch=7 par1=53 par2=40
Channel Event. t= 8 (54651) Note Off ch=7 par1=55 par2=64
Channel Event. t= 86 (54737) Note On ch=7 par1=55 par2=28
Channel Event. t= 18 (54755) Note Off ch=7 par1=53 par2=64
Channel Event. t= 82 (54837) Note On ch=7 par1=57 par2=27
Channel Event. t= 11 (54848) Note Off ch=7 par1=55 par2=64
Channel Event. t= 128 (54976) Note Off ch=7 par1=57 par2=64
Channel Event. t= 62 (55038) Note On ch=7 par1=57 par2=41
Channel Event. t= 84 (55122) Note On ch=7 par1=55 par2=34
Channel Event. t= 12 (55134) Note Off ch=7 par1=57 par2=64
Channel Event. t= 79 (55213) Note On ch=7 par1=53 par2=39
Channel Event. t= 12 (55225) Note Off ch=7 par1=55 par2=64
Channel Event. t= 84 (55309) Note On ch=7 par1=55 par2=41
Channel Event. t= 16 (55325) Note Off ch=7 par1=53 par2=64
Channel Event. t= 84 (55409) Note On ch=7 par1=57 par2=33
Channel Event. t= 9 (55418) Note Off ch=7 par1=55 par2=64
Channel Event. t= 79 (55497) Note Off ch=7 par1=57 par2=64
Channel Event. t= 104 (55601) Note On ch=7 par1=69 par2=44
Channel Event. t= 3 (55604) Note On ch=7 par1=72 par2=38
Channel Event. t= 88 (55692) Note On ch=7 par1=67 par2=48
Channel Event. t= 1 (55693) Note On ch=7 par1=70 par2=59
Channel Event. t= 6 (55699) Note Off ch=7 par1=72 par2=64
Channel Event. t= 1 (55700) Note Off ch=7 par1=69 par2=64
Channel Event. t= 84 (55784) Note On ch=7 par1=69 par2=38
Channel Event. t= 0 (55784) Note On ch=7 par1=65 par2=43
Channel Event. t= 4 (55788) Note Off ch=7 par1=70 par2=64
Channel Event. t= 4 (55792) Note Off ch=7 par1=67 par2=64
Channel Event. t= 82 (55874) Note On ch=7 par1=70 par2=47
Channel Event. t= 5 (55879) Note On ch=7 par1=67 par2=44
Channel Event. t= 3 (55882) Note Off ch=7 par1=65 par2=64
Channel Event. t= 3 (55885) Note Off ch=7 par1=69 par2=64
Channel Event. t= 83 (55968) Note On ch=7 par1=72 par2=5
Channel Event. t= 1 (55969) Note Off ch=7 par1=70 par2=64
Channel Event. t= 9 (55978) Note Off ch=7 par1=67 par2=64
Channel Event. t= 1 (55979) Note On ch=7 par1=69 par2=34
Channel Event. t= 107 (56086) Note Off ch=7 par1=72 par2=64
Channel Event. t= 15 (56101) Note Off ch=7 par1=69 par2=64
Channel Event. t= 81 (56182) Note On ch=7 par1=58 par2=51
Channel Event. t= 87 (56269) Note On ch=7 par1=57 par2=38
Channel Event. t= 2 (56271) Note Off ch=7 par1=58 par2=64
Channel Event. t= 89 (56360) Note On ch=7 par1=55 par2=45
Channel Event. t= 6 (56366) Note Off ch=7 par1=57 par2=64
Channel Event. t= 90 (56456) Note On ch=7 par1=57 par2=54
Channel Event. t= 10 (56466) Note Off ch=7 par1=55 par2=64
Channel Event. t= 85 (56551) Note On ch=7 par1=58 par2=48
Channel Event. t= 11 (56562) Note Off ch=7 par1=57 par2=64
Channel Event. t= 157 (56719) Note Off ch=7 par1=58 par2=64
Channel Event. t= 36 (56755) Note On ch=7 par1=58 par2=72
Channel Event. t= 197 (56952) Note On ch=7 par1=53 par2=70
Channel Event. t= 18 (56970) Note Off ch=7 par1=58 par2=64
Channel Event. t= 177 (57147) Note On ch=7 par1=57 par2=66
Channel Event. t= 11 (57158) Note Off ch=7 par1=53 par2=64
Channel Event. t= 135 (57293) Note Off ch=7 par1=57 par2=64
Channel Event. t= 43 (57336) Note On ch=7 par1=58 par2=66
Channel Event. t= 91 (57427) Note On ch=7 par1=57 par2=52
Channel Event. t= 10 (57437) Note Off ch=7 par1=58 par2=64
Channel Event. t= 84 (57521) Note On ch=7 par1=55 par2=56
Channel Event. t= 4 (57525) Note Off ch=7 par1=57 par2=64
Channel Event. t= 92 (57617) Note On ch=7 par1=57 par2=53
Channel Event. t= 11 (57628) Note Off ch=7 par1=55 par2=64
Channel Event. t= 87 (57715) Note On ch=7 par1=58 par2=58
Channel Event. t= 10 (57725) Note Off ch=7 par1=57 par2=64
Channel Event. t= 140 (57865) Note Off ch=7 par1=58 par2=64
Channel Event. t= 36 (57901) Note On ch=7 par1=57 par2=66
Channel Event. t= 95 (57996) Note On ch=7 par1=55 par2=40
Channel Event. t= 9 (58005) Note Off ch=7 par1=57 par2=64
Channel Event. t= 86 (58091) Note On ch=7 par1=53 par2=54
Channel Event. t= 7 (58098) Note Off ch=7 par1=55 par2=64
Channel Event. t= 86 (58184) Note On ch=7 par1=55 par2=47
Channel Event. t= 11 (58195) Note Off ch=7 par1=53 par2=64
Channel Event. t= 93 (58288) Note On ch=7 par1=57 par2=51
Channel Event. t= 13 (58301) Note Off ch=7 par1=55 par2=64
Channel Event. t= 130 (58431) Note Off ch=7 par1=57 par2=64
Channel Event. t= 41 (58472) Note On ch=7 par1=58 par2=55
Channel Event. t= 96 (58568) Note On ch=7 par1=57 par2=49
Channel Event. t= 9 (58577) Note Off ch=7 par1=58 par2=64
Channel Event. t= 88 (58665) Note On ch=7 par1=55 par2=50
Channel Event. t= 11 (58676) Note Off ch=7 par1=57 par2=64
Channel Event. t= 85 (58761) Note On ch=7 par1=57 par2=47
Channel Event. t= 12 (58773) Note Off ch=7 par1=55 par2=64
Channel Event. t= 86 (58859) Note On ch=7 par1=58 par2=52
Channel Event. t= 7 (58866) Note Off ch=7 par1=57 par2=64
Channel Event. t= 155 (59021) Note Off ch=7 par1=58 par2=64
Channel Event. t= 44 (59065) Note On ch=7 par1=57 par2=48
Channel Event. t= 88 (59153) Note On ch=7 par1=55 par2=46
Channel Event. t= 10 (59163) Note Off ch=7 par1=57 par2=64
Channel Event. t= 92 (59255) Note On ch=7 par1=53 par2=51
Channel Event. t= 7 (59262) Note Off ch=7 par1=55 par2=64
Channel Event. t= 80 (59342) Note On ch=7 par1=55 par2=48
Channel Event. t= 7 (59349) Note Off ch=7 par1=53 par2=64
Channel Event. t= 93 (59442) Note Off ch=7 par1=55 par2=64
Channel Event. t= 3 (59445) Note On ch=7 par1=57 par2=50
Channel Event. t= 164 (59609) Note Off ch=7 par1=57 par2=64
Channel Event. t= 29 (59638) Note On ch=7 par1=58 par2=48
Channel Event. t= 189 (59827) Note On ch=7 par1=57 par2=42
Channel Event. t= 18 (59845) Note Off ch=7 par1=58 par2=64
Channel Event. t= 174 (60019) Note On ch=7 par1=55 par2=49
Channel Event. t= 8 (60027) Note Off ch=7 par1=57 par2=64
Channel Event. t= 90 (60117) Note On ch=7 par1=57 par2=43
Channel Event. t= 4 (60121) Note Off ch=7 par1=55 par2=64
Channel Event. t= 92 (60213) Note On ch=7 par1=58 par2=40
Channel Event. t= 6 (60219) Note Off ch=7 par1=57 par2=64
Channel Event. t= 164 (60383) Note Off ch=7 par1=58 par2=64
Channel Event. t= 23 (60406) Note On ch=7 par1=58 par2=65
Channel Event. t= 2 (60408) Note On ch=7 par1=62 par2=44
Channel Event. t= 1 (60409) Note On ch=7 par1=65 par2=47
Channel Event. t= 1 (60410) Note On ch=7 par1=53 par2=63
Channel Event. t= 137 (60547) Note Off ch=7 par1=53 par2=64
Channel Event. t= 53 (60600) Note On ch=7 par1=50 par2=52
Channel Event. t= 2 (60602) Note On ch=7 par1=70 par2=67
Channel Event. t= 57 (60659) Note Off ch=7 par1=62 par2=64
Channel Event. t= 68 (60727) Note Off ch=7 par1=50 par2=64
Channel Event. t= 68 (60795) Note On ch=7 par1=74 par2=47
Channel Event. t= 14 (60809) Note On ch=7 par1=46 par2=29
Channel Event. t= 9 (60818) Note Off ch=7 par1=70 par2=64
Channel Event. t= 185 (61003) Note Off ch=7 par1=58 par2=64
Channel Event. t= 2 (61005) Note Off ch=7 par1=74 par2=64
Channel Event. t= 0 (61005) Note Off ch=7 par1=46 par2=64
Channel Event. t= 1 (61006) Note Off ch=7 par1=65 par2=64
Channel Event. t= 0 (61006) 
Meta Event. Type: 0x2f (47dec), End of Track (0 bytes): 
track #16
track size: 3071
Channel Event. t= 0 (0) 
Meta Event. Type: 0x21 (33dec), MIDI Port (1 bytes): 0
Channel Event. t= 0 (0) 
Meta Event. Type: 0x3 (3dec), Sequence/Track Name (20 bytes): Strings             
Channel Event. t= 0 (0) Program Change ch=5 par1=48 par2=-124
Channel Event. t= 6608 (6608) Controller ch=5 par1=7 (Main Volume) par2=60
Channel Event. t= 0 (6608) Controller ch=5 par1=10 (Main Volume) par2=80
Channel Event. t= 48 (6656) Note On ch=5 par1=36 par2=61
Channel Event. t= 0 (6656) Note On ch=5 par1=48 par2=52
Channel Event. t= 0 (6656) Note On ch=5 par1=55 par2=52
Channel Event. t= 96 (6752) Note On ch=5 par1=60 par2=35
Channel Event. t= 44 (6796) Note Off ch=5 par1=55 par2=64
Channel Event. t= 52 (6848) Note On ch=5 par1=64 par2=55
Channel Event. t= 14 (6862) Note Off ch=5 par1=60 par2=64
Channel Event. t= 82 (6944) Note On ch=5 par1=60 par2=43
Channel Event. t= 17 (6961) Note Off ch=5 par1=64 par2=64
Channel Event. t= 79 (7040) Note On ch=5 par1=43 par2=63
Channel Event. t= 0 (7040) Note On ch=5 par1=55 par2=54
Channel Event. t= 16 (7056) Note Off ch=5 par1=60 par2=64
Channel Event. t= 2 (7058) Note Off ch=5 par1=48 par2=64
Channel Event. t= 4 (7062) Note Off ch=5 par1=36 par2=64
Channel Event. t= 74 (7136) Note On ch=5 par1=60 par2=46
Channel Event. t= 21 (7157) Note Off ch=5 par1=55 par2=64
Channel Event. t= 75 (7232) Note On ch=5 par1=64 par2=45
Channel Event. t= 15 (7247) Note Off ch=5 par1=60 par2=64
Channel Event. t= 81 (7328) Note On ch=5 par1=60 par2=60
Channel Event. t= 11 (7339) Note Off ch=5 par1=64 par2=64
Channel Event. t= 85 (7424) Note On ch=5 par1=48 par2=50
Channel Event. t= 0 (7424) Note On ch=5 par1=36 par2=47
Channel Event. t= 0 (7424) Note On ch=5 par1=55 par2=63
Channel Event. t= 5 (7429) Note Off ch=5 par1=60 par2=64
Channel Event. t= 17 (7446) Note Off ch=5 par1=43 par2=64
Channel Event. t= 74 (7520) Note On ch=5 par1=60 par2=49
Channel Event. t= 10 (7530) Note Off ch=5 par1=55 par2=64
Channel Event. t= 86 (7616) Note On ch=5 par1=64 par2=50
Channel Event. t= 6 (7622) Note Off ch=5 par1=60 par2=64
Channel Event. t= 90 (7712) Note On ch=5 par1=60 par2=53
Channel Event. t= 29 (7741) Note Off ch=5 par1=64 par2=64
Channel Event. t= 67 (7808) Note On ch=5 par1=43 par2=62
Channel Event. t= 0 (7808) Note On ch=5 par1=55 par2=52
Channel Event. t= 5 (7813) Note Off ch=5 par1=60 par2=64
Channel Event. t= 18 (7831) Note Off ch=5 par1=48 par2=64
Channel Event. t= 0 (7831) Note Off ch=5 par1=36 par2=64
Channel Event. t= 73 (7904) Note On ch=5 par1=60 par2=57
Channel Event. t= 9 (7913) Note Off ch=5 par1=55 par2=64
Channel Event. t= 87 (8000) Note On ch=5 par1=64 par2=60
Channel Event. t= 7 (8007) Note Off ch=5 par1=60 par2=64
Channel Event. t= 89 (8096) Note On ch=5 par1=60 par2=74
Channel Event. t= 9 (8105) Note Off ch=5 par1=64 par2=64
Channel Event. t= 81 (8186) Note Off ch=5 par1=60 par2=64
Channel Event. t= 6 (8192) Note On ch=5 par1=32 par2=68
Channel Event. t= 0 (8192) Note On ch=5 par1=44 par2=58
Channel Event. t= 0 (8192) Note On ch=5 par1=51 par2=89
Channel Event. t= 12 (8204) Note Off ch=5 par1=43 par2=64
Channel Event. t= 84 (8288) Note On ch=5 par1=56 par2=68
Channel Event. t= 26 (8314) Note Off ch=5 par1=51 par2=64
Channel Event. t= 70 (8384) Note On ch=5 par1=60 par2=66
Channel Event. t= 12 (8396) Note Off ch=5 par1=56 par2=64
Channel Event. t= 84 (8480) Note On ch=5 par1=56 par2=71
Channel Event. t= 21 (8501) Note Off ch=5 par1=60 par2=64
Channel Event. t= 75 (8576) Note Off ch=5 par1=56 par2=64
Channel Event. t= 0 (8576) Note On ch=5 par1=39 par2=80
Channel Event. t= 0 (8576) Note On ch=5 par1=51 par2=81
Channel Event. t= 22 (8598) Note Off ch=5 par1=32 par2=64
Channel Event. t= 2 (8600) Note Off ch=5 par1=44 par2=64
Channel Event. t= 72 (8672) Note On ch=5 par1=56 par2=68
Channel Event. t= 8 (8680) Note Off ch=5 par1=51 par2=64
Channel Event. t= 88 (8768) Note On ch=5 par1=60 par2=62
Channel Event. t= 4 (8772) Note Off ch=5 par1=56 par2=64
Channel Event. t= 92 (8864) Note On ch=5 par1=56 par2=72
Channel Event. t= 5 (8869) Note Off ch=5 par1=60 par2=64
Channel Event. t= 71 (8940) Note Off ch=5 par1=39 par2=64
Channel Event. t= 20 (8960) Note On ch=5 par1=39 par2=91
Channel Event. t= 0 (8960) Note On ch=5 par1=46 par2=87
Channel Event. t= 8 (8968) Note Off ch=5 par1=56 par2=64
Channel Event. t= 88 (9056) Note On ch=5 par1=51 par2=78
Channel Event. t= 7 (9063) Note Off ch=5 par1=46 par2=64
Channel Event. t= 89 (9152) Note On ch=5 par1=55 par2=74
Channel Event. t= 10 (9162) Note Off ch=5 par1=51 par2=64
Channel Event. t= 86 (9248) Note On ch=5 par1=51 par2=73
Channel Event. t= 10 (9258) Note Off ch=5 par1=55 par2=64
Channel Event. t= 86 (9344) Note On ch=5 par1=34 par2=82
Channel Event. t= 0 (9344) Note On ch=5 par1=46 par2=80
Channel Event. t= 5 (9349) Note Off ch=5 par1=51 par2=64
Channel Event. t= 7 (9356) Note Off ch=5 par1=39 par2=64
Channel Event. t= 84 (9440) Note On ch=5 par1=51 par2=80
Channel Event. t= 14 (9454) Note Off ch=5 par1=46 par2=64
Channel Event. t= 82 (9536) Note On ch=5 par1=55 par2=61
Channel Event. t= 10 (9546) Note Off ch=5 par1=51 par2=64
Channel Event. t= 86 (9632) Note On ch=5 par1=54 par2=80
Channel Event. t= 6 (9638) Note Off ch=5 par1=55 par2=64
Channel Event. t= 74 (9712) Note Off ch=5 par1=54 par2=64
Channel Event. t= 16 (9728) Note On ch=5 par1=51 par2=71
Channel Event. t= 0 (9728) Note On ch=5 par1=39 par2=71
Channel Event. t= 0 (9728) Note On ch=5 par1=55 par2=76
Channel Event. t= 3 (9731) Note Off ch=5 par1=34 par2=64
Channel Event. t= 93 (9824) Note On ch=5 par1=58 par2=71
Channel Event. t= 17 (9841) Note Off ch=5 par1=55 par2=64
Channel Event. t= 79 (9920) Note On ch=5 par1=63 par2=72
Channel Event. t= 8 (9928) Note Off ch=5 par1=58 par2=64
Channel Event. t= 88 (10016) Note On ch=5 par1=58 par2=65
Channel Event. t= 13 (10029) Note Off ch=5 par1=63 par2=64
Channel Event. t= 74 (10103) Note Off ch=5 par1=58 par2=64
Channel Event. t= 9 (10112) Note On ch=5 par1=46 par2=78
Channel Event. t= 0 (10112) Note On ch=5 par1=58 par2=72
Channel Event. t= 6 (10118) Note Off ch=5 par1=51 par2=64
Channel Event. t= 1 (10119) Note Off ch=5 par1=39 par2=64
Channel Event. t= 89 (10208) Note Off ch=5 par1=58 par2=64
Channel Event. t= 0 (10208) Note On ch=5 par1=63 par2=70
Channel Event. t= 96 (10304) Note On ch=5 par1=67 par2=69
Channel Event. t= 6 (10310) Note Off ch=5 par1=63 par2=64
Channel Event. t= 90 (10400) Note On ch=5 par1=63 par2=69
Channel Event. t= 12 (10412) Note Off ch=5 par1=67 par2=64
Channel Event. t= 84 (10496) Note On ch=5 par1=51 par2=59
Channel Event. t= 0 (10496) Note On ch=5 par1=39 par2=71
Channel Event. t= 0 (10496) Note On ch=5 par1=58 par2=75
Channel Event. t= 5 (10501) Note Off ch=5 par1=63 par2=64
Channel Event. t= 2 (10503) Note Off ch=5 par1=46 par2=64
Channel Event. t= 89 (10592) Note On ch=5 par1=63 par2=72
Channel Event. t= 17 (10609) Note Off ch=5 par1=58 par2=64
Channel Event. t= 79 (10688) Note On ch=5 par1=67 par2=64
Channel Event. t= 5 (10693) Note Off ch=5 par1=63 par2=64
Channel Event. t= 91 (10784) Note On ch=5 par1=63 par2=73
Channel Event. t= 8 (10792) Note Off ch=5 par1=67 par2=64
Channel Event. t= 88 (10880) Note On ch=5 par1=46 par2=73
Channel Event. t= 0 (10880) Note On ch=5 par1=58 par2=76
Channel Event. t= 6 (10886) Note Off ch=5 par1=63 par2=64
Channel Event. t= 18 (10904) Note Off ch=5 par1=51 par2=64
Channel Event. t= 26 (10930) Note Off ch=5 par1=39 par2=64
Channel Event. t= 46 (10976) Note On ch=5 par1=63 par2=78
Channel Event. t= 4 (10980) Note Off ch=5 par1=58 par2=64
Channel Event. t= 92 (11072) Note On ch=5 par1=58 par2=72
Channel Event. t= 11 (11083) Note Off ch=5 par1=63 par2=64
Channel Event. t= 84 (11167) Note Off ch=5 par1=58 par2=64
Channel Event. t= 1 (11168) Note On ch=5 par1=55 par2=73
Channel Event. t= 96 (11264) Note On ch=5 par1=35 par2=50
Channel Event. t= 0 (11264) Note On ch=5 par1=47 par2=64
Channel Event. t= 0 (11264) Note On ch=5 par1=54 par2=75
Channel Event. t= 4 (11268) Note Off ch=5 par1=46 par2=64
Channel Event. t= 22 (11290) Note Off ch=5 par1=55 par2=64
Channel Event. t= 70 (11360) Note On ch=5 par1=59 par2=70
Channel Event. t= 6 (11366) Note Off ch=5 par1=54 par2=64
Channel Event. t= 90 (11456) Note On ch=5 par1=62 par2=74
Channel Event. t= 20 (11476) Note Off ch=5 par1=59 par2=64
Channel Event. t= 76 (11552) Note On ch=5 par1=59 par2=73
Channel Event. t= 12 (11564) Note Off ch=5 par1=62 par2=64
Channel Event. t= 63 (11627) Note Off ch=5 par1=47 par2=64
Channel Event. t= 21 (11648) Note Off ch=5 par1=59 par2=64
Channel Event. t= 0 (11648) Note On ch=5 par1=33 par2=68
Channel Event. t= 0 (11648) Note On ch=5 par1=45 par2=61
Channel Event. t= 0 (11648) Note On ch=5 par1=50 par2=82
Channel Event. t= 31 (11679) Note Off ch=5 par1=35 par2=64
Channel Event. t= 65 (11744) Note On ch=5 par1=54 par2=78
Channel Event. t= 17 (11761) Note Off ch=5 par1=50 par2=64
Channel Event. t= 79 (11840) Note On ch=5 par1=60 par2=76
Channel Event. t= 4 (11844) Note Off ch=5 par1=54 par2=64
Channel Event. t= 92 (11936) Note On ch=5 par1=54 par2=71
Channel Event. t= 21 (11957) Note Off ch=5 par1=60 par2=64
Channel Event. t= 25 (11982) Note Off ch=5 par1=45 par2=64
Channel Event. t= 50 (12032) Note On ch=5 par1=31 par2=71
Channel Event. t= 0 (12032) Note On ch=5 par1=43 par2=54
Channel Event. t= 0 (12032) Note On ch=5 par1=50 par2=82
Channel Event. t= 8 (12040) Note Off ch=5 par1=54 par2=64
Channel Event. t= 5 (12045) Note Off ch=5 par1=33 par2=64
Channel Event. t= 83 (12128) Note On ch=5 par1=55 par2=69
Channel Event. t= 20 (12148) Note Off ch=5 par1=50 par2=64
Channel Event. t= 76 (12224) Note On ch=5 par1=59 par2=74
Channel Event. t= 7 (12231) Note Off ch=5 par1=55 par2=64
Channel Event. t= 89 (12320) Note On ch=5 par1=57 par2=84
Channel Event. t= 26 (12346) Note Off ch=5 par1=59 par2=64
Channel Event. t= 70 (12416) Note On ch=5 par1=55 par2=69
Channel Event. t= 20 (12436) Note Off ch=5 par1=57 par2=64
Channel Event. t= 76 (12512) Note On ch=5 par1=53 par2=56
Channel Event. t= 6 (12518) Note Off ch=5 par1=55 par2=64
Channel Event. t= 90 (12608) Note On ch=5 par1=52 par2=61
Channel Event. t= 3 (12611) Note Off ch=5 par1=53 par2=64
Channel Event. t= 18 (12629) Note Off ch=5 par1=43 par2=64
Channel Event. t= 2 (12631) Note Off ch=5 par1=31 par2=64
Channel Event. t= 73 (12704) Note On ch=5 par1=50 par2=53
Channel Event. t= 3 (12707) Note Off ch=5 par1=52 par2=64
Channel Event. t= 93 (12800) Note Off ch=5 par1=50 par2=64
Channel Event. t= 0 (12800) Note On ch=5 par1=36 par2=71
Channel Event. t= 0 (12800) Note On ch=5 par1=48 par2=60
Channel Event. t= 0 (12800) Note On ch=5 par1=55 par2=27
Channel Event. t= 96 (12896) Note On ch=5 par1=60 par2=61
Channel Event. t= 96 (12992) Note Off ch=5 par1=55 par2=64
Channel Event. t= 0 (12992) Note On ch=5 par1=64 par2=47
Channel Event. t= 6 (12998) Note Off ch=5 par1=60 par2=64
Channel Event. t= 90 (13088) Note On ch=5 par1=60 par2=49
Channel Event. t= 15 (13103) Note Off ch=5 par1=64 par2=64
Channel Event. t= 81 (13184) Note On ch=5 par1=43 par2=59
Channel Event. t= 0 (13184) Note On ch=5 par1=55 par2=56
Channel Event. t= 7 (13191) Note Off ch=5 par1=48 par2=64
Channel Event. t= 4 (13195) Note Off ch=5 par1=60 par2=64
Channel Event. t= 3 (13198) Note Off ch=5 par1=36 par2=64
Channel Event. t= 82 (13280) Note On ch=5 par1=60 par2=53
Channel Event. t= 21 (13301) Note Off ch=5 par1=55 par2=64
Channel Event. t= 75 (13376) Note On ch=5 par1=64 par2=51
Channel Event. t= 8 (13384) Note Off ch=5 par1=60 par2=64
Channel Event. t= 88 (13472) Note On ch=5 par1=60 par2=52
Channel Event. t= 15 (13487) Note Off ch=5 par1=64 par2=64
Channel Event. t= 81 (13568) Note On ch=5 par1=36 par2=67
Channel Event. t= 0 (13568) Note On ch=5 par1=48 par2=56
Channel Event. t= 0 (13568) Note On ch=5 par1=55 par2=63
Channel Event. t= 7 (13575) Note Off ch=5 par1=60 par2=64
Channel Event. t= 15 (13590) Note Off ch=5 par1=43 par2=64
Channel Event. t= 74 (13664) Note On ch=5 par1=60 par2=58
Channel Event. t= 23 (13687) Note Off ch=5 par1=55 par2=64
Channel Event. t= 73 (13760) Note On ch=5 par1=64 par2=61
Channel Event. t= 11 (13771) Note Off ch=5 par1=60 par2=64
Channel Event. t= 85 (13856) Note On ch=5 par1=60 par2=53
Channel Event. t= 11 (13867) Note Off ch=5 par1=64 par2=64
Channel Event. t= 85 (13952) Note On ch=5 par1=43 par2=67
Channel Event. t= 0 (13952) Note On ch=5 par1=55 par2=60
Channel Event. t= 2 (13954) Note Off ch=5 par1=60 par2=64
Channel Event. t= 15 (13969) Note Off ch=5 par1=48 par2=64
Channel Event. t= 14 (13983) Note Off ch=5 par1=36 par2=64
Channel Event. t= 65 (14048) Note On ch=5 par1=60 par2=52
Channel Event. t= 17 (14065) Note Off ch=5 par1=55 par2=64
Channel Event. t= 79 (14144) Note On ch=5 par1=64 par2=53
Channel Event. t= 1 (14145) Note Off ch=5 par1=60 par2=64
Channel Event. t= 95 (14240) Note On ch=5 par1=60 par2=69
Channel Event. t= 13 (14253) Note Off ch=5 par1=64 par2=64
Channel Event. t= 2 (14255) Note Off ch=5 par1=43 par2=64
Channel Event. t= 72 (14327) Note Off ch=5 par1=60 par2=64
Channel Event. t= 9 (14336) Note On ch=5 par1=56 par2=47
Channel Event. t= 0 (14336) Note On ch=5 par1=44 par2=67
Channel Event. t= 0 (14336) Note On ch=5 par1=51 par2=87
Channel Event. t= 117 (14453) Note Off ch=5 par1=51 par2=64
Channel Event. t= 75 (14528) Note On ch=5 par1=60 par2=63
Channel Event. t= 118 (14646) Note Off ch=5 par1=60 par2=64
Channel Event. t= 74 (14720) Note Off ch=5 par1=56 par2=64
Channel Event. t= 0 (14720) Note Off ch=5 par1=44 par2=64
Channel Event. t= 0 (14720) Note On ch=5 par1=39 par2=84
Channel Event. t= 0 (14720) Note On ch=5 par1=51 par2=87
Channel Event. t= 96 (14816) Note On ch=5 par1=56 par2=71
Channel Event. t= 15 (14831) Note Off ch=5 par1=51 par2=64
Channel Event. t= 81 (14912) Note On ch=5 par1=60 par2=58
Channel Event. t= 4 (14916) Note Off ch=5 par1=56 par2=64
Channel Event. t= 92 (15008) Note On ch=5 par1=56 par2=47
Channel Event. t= 32 (15040) Note Off ch=5 par1=60 par2=64
Channel Event. t= 43 (15083) Note Off ch=5 par1=39 par2=64
Channel Event. t= 14 (15097) Note Off ch=5 par1=56 par2=64
Channel Event. t= 7 (15104) Note On ch=5 par1=39 par2=67
Channel Event. t= 0 (15104) Note On ch=5 par1=51 par2=75
Channel Event. t= 0 (15104) Note On ch=5 par1=46 par2=81
Channel Event. t= 101 (15205) Note Off ch=5 par1=46 par2=64
Channel Event. t= 91 (15296) Note On ch=5 par1=55 par2=58
Channel Event. t= 112 (15408) Note Off ch=5 par1=55 par2=64
Channel Event. t= 67 (15475) Note Off ch=5 par1=51 par2=64
Channel Event. t= 13 (15488) Note On ch=5 par1=46 par2=78
Channel Event. t= 4 (15492) Note Off ch=5 par1=39 par2=64
Channel Event. t= 92 (15584) Note On ch=5 par1=51 par2=75
Channel Event. t= 96 (15680) Note On ch=5 par1=55 par2=65
Channel Event. t= 13 (15693) Note Off ch=5 par1=51 par2=64
Channel Event. t= 83 (15776) Note On ch=5 par1=54 par2=64
Channel Event. t= 5 (15781) Note Off ch=5 par1=55 par2=64
Channel Event. t= 64 (15845) Note Off ch=5 par1=54 par2=64
Channel Event. t= 27 (15872) Note On ch=5 par1=39 par2=78
Channel Event. t= 0 (15872) Note On ch=5 par1=51 par2=71
Channel Event. t= 0 (15872) Note On ch=5 par1=55 par2=73
Channel Event. t= 22 (15894) Note Off ch=5 par1=46 par2=64
Channel Event. t= 74 (15968) Note On ch=5 par1=58 par2=71
Channel Event. t= 15 (15983) Note Off ch=5 par1=55 par2=64
Channel Event. t= 81 (16064) Note On ch=5 par1=63 par2=68
Channel Event. t= 4 (16068) Note Off ch=5 par1=58 par2=64
Channel Event. t= 92 (16160) Note On ch=5 par1=58 par2=69
Channel Event. t= 6 (16166) Note Off ch=5 par1=63 par2=64
Channel Event. t= 86 (16252) Note Off ch=5 par1=58 par2=64
Channel Event. t= 4 (16256) Note On ch=5 par1=46 par2=75
Channel Event. t= 0 (16256) Note On ch=5 par1=58 par2=76
Channel Event. t= 14 (16270) Note Off ch=5 par1=51 par2=64
Channel Event. t= 4 (16274) Note Off ch=5 par1=39 par2=64
Channel Event. t= 66 (16340) Note Off ch=5 par1=58 par2=64
Channel Event. t= 12 (16352) Note On ch=5 par1=63 par2=71
Channel Event. t= 96 (16448) Note On ch=5 par1=67 par2=64
Channel Event. t= 3 (16451) Note Off ch=5 par1=63 par2=64
Channel Event. t= 93 (16544) Note On ch=5 par1=63 par2=65
Channel Event. t= 13 (16557) Note Off ch=5 par1=67 par2=64
Channel Event. t= 77 (16634) Note Off ch=5 par1=63 par2=64
Channel Event. t= 6 (16640) Note On ch=5 par1=51 par2=63
Channel Event. t= 0 (16640) Note On ch=5 par1=39 par2=70
Channel Event. t= 0 (16640) Note On ch=5 par1=58 par2=87
Channel Event. t= 15 (16655) Note Off ch=5 par1=46 par2=64
Channel Event. t= 81 (16736) Note On ch=5 par1=63 par2=75
Channel Event. t= 7 (16743) Note Off ch=5 par1=58 par2=64
Channel Event. t= 89 (16832) Note On ch=5 par1=67 par2=68
Channel Event. t= 1 (16833) Note Off ch=5 par1=63 par2=64
Channel Event. t= 95 (16928) Note On ch=5 par1=63 par2=67
Channel Event. t= 13 (16941) Note Off ch=5 par1=67 par2=64
Channel Event. t= 83 (17024) Note On ch=5 par1=46 par2=75
Channel Event. t= 0 (17024) Note On ch=5 par1=58 par2=78
Channel Event. t= 20 (17044) Note Off ch=5 par1=51 par2=64
Channel Event. t= 1 (17045) Note Off ch=5 par1=63 par2=64
Channel Event. t= 13 (17058) Note Off ch=5 par1=39 par2=64
Channel Event. t= 62 (17120) Note On ch=5 par1=63 par2=65
Channel Event. t= 9 (17129) Note Off ch=5 par1=58 par2=64
Channel Event. t= 87 (17216) Note On ch=5 par1=58 par2=74
Channel Event. t= 13 (17229) Note Off ch=5 par1=63 par2=64
Channel Event. t= 79 (17308) Note Off ch=5 par1=58 par2=64
Channel Event. t= 4 (17312) Note On ch=5 par1=55 par2=76
Channel Event. t= 79 (17391) Note Off ch=5 par1=55 par2=64
Channel Event. t= 17 (17408) Note On ch=5 par1=35 par2=59
Channel Event. t= 0 (17408) Note On ch=5 par1=47 par2=53
Channel Event. t= 0 (17408) Note On ch=5 par1=54 par2=80
Channel Event. t= 17 (17425) Note Off ch=5 par1=46 par2=64
Channel Event. t= 79 (17504) Note On ch=5 par1=59 par2=79
Channel Event. t= 1 (17505) Note Off ch=5 par1=54 par2=64
Channel Event. t= 95 (17600) Note On ch=5 par1=62 par2=66
Channel Event. t= 14 (17614) Note Off ch=5 par1=59 par2=64
Channel Event. t= 82 (17696) Note On ch=5 par1=59 par2=69
Channel Event. t= 5 (17701) Note Off ch=5 par1=62 par2=64
Channel Event. t= 72 (17773) Note Off ch=5 par1=47 par2=64
Channel Event. t= 15 (17788) Note Off ch=5 par1=59 par2=64
Channel Event. t= 4 (17792) Note On ch=5 par1=33 par2=75
Channel Event. t= 0 (17792) Note On ch=5 par1=45 par2=66
Channel Event. t= 0 (17792) Note On ch=5 par1=50 par2=83
Channel Event. t= 41 (17833) Note Off ch=5 par1=35 par2=64
Channel Event. t= 55 (17888) Note On ch=5 par1=54 par2=68
Channel Event. t= 9 (17897) Note Off ch=5 par1=50 par2=64
Channel Event. t= 87 (17984) Note On ch=5 par1=60 par2=76
Channel Event. t= 17 (18001) Note Off ch=5 par1=54 par2=64
Channel Event. t= 79 (18080) Note On ch=5 par1=54 par2=70
Channel Event. t= 12 (18092) Note Off ch=5 par1=60 par2=64
Channel Event. t= 41 (18133) Note Off ch=5 par1=45 par2=64
Channel Event. t= 39 (18172) Note Off ch=5 par1=54 par2=64
Channel Event. t= 4 (18176) Note On ch=5 par1=43 par2=61
Channel Event. t= 0 (18176) Note On ch=5 par1=31 par2=74
Channel Event. t= 0 (18176) Note On ch=5 par1=50 par2=88
Channel Event. t= 6 (18182) Note Off ch=5 par1=33 par2=64
Channel Event. t= 90 (18272) Note On ch=5 par1=55 par2=75
Channel Event. t= 13 (18285) Note Off ch=5 par1=50 par2=64
Channel Event. t= 83 (18368) Note On ch=5 par1=59 par2=73
Channel Event. t= 6 (18374) Note Off ch=5 par1=55 par2=64
Channel Event. t= 90 (18464) Note On ch=5 par1=57 par2=69
Channel Event. t= 19 (18483) Note Off ch=5 par1=59 par2=64
Channel Event. t= 77 (18560) Note On ch=5 par1=55 par2=69
Channel Event. t= 16 (18576) Note Off ch=5 par1=57 par2=64
Channel Event. t= 80 (18656) Note On ch=5 par1=53 par2=74
Channel Event. t= 3 (18659) Note Off ch=5 par1=55 par2=64
Channel Event. t= 93 (18752) Note On ch=5 par1=52 par2=74
Channel Event. t= 13 (18765) Note Off ch=5 par1=53 par2=64
Channel Event. t= 53 (18818) Note Off ch=5 par1=43 par2=64
Channel Event. t= 2 (18820) Note Off ch=5 par1=31 par2=64
Channel Event. t= 28 (18848) Note On ch=5 par1=50 par2=72
Channel Event. t= 7 (18855) Note Off ch=5 par1=52 par2=64
Channel Event. t= 86 (18941) Note Off ch=5 par1=50 par2=64
Channel Event. t= 3 (18944) Note On ch=5 par1=43 par2=88
Channel Event. t= 62 (19006) Note Off ch=5 par1=43 par2=64
Channel Event. t= 130 (19136) Note On ch=5 par1=43 par2=62
Channel Event. t= 37 (19173) Note Off ch=5 par1=43 par2=64
Channel Event. t= 155 (19328) Note On ch=5 par1=43 par2=71
Channel Event. t= 291 (19619) Note Off ch=5 par1=43 par2=64
Channel Event. t= 69 (19688) Controller ch=5 par1=7 (Main Volume) par2=70
Channel Event. t= 24 (19712) Note On ch=5 par1=72 par2=58
Channel Event. t= 31 (19743) Note Off ch=5 par1=72 par2=64
Channel Event. t= 65 (19808) Note On ch=5 par1=67 par2=55
Channel Event. t= 31 (19839) Note Off ch=5 par1=67 par2=64
Channel Event. t= 65 (19904) Note On ch=5 par1=73 par2=81
Channel Event. t= 59 (19963) Note Off ch=5 par1=73 par2=64
Channel Event. t= 133 (20096) Note On ch=5 par1=72 par2=74
Channel Event. t= 29 (20125) Note Off ch=5 par1=72 par2=64
Channel Event. t= 67 (20192) Note On ch=5 par1=67 par2=58
Channel Event. t= 33 (20225) Note Off ch=5 par1=67 par2=64
Channel Event. t= 63 (20288) Note On ch=5 par1=73 par2=87
Channel Event. t= 69 (20357) Note Off ch=5 par1=73 par2=64
Channel Event. t= 123 (20480) Note On ch=5 par1=72 par2=81
Channel Event. t= 83 (20563) Note Off ch=5 par1=72 par2=64
Channel Event. t= 109 (20672) Note On ch=5 par1=70 par2=77
Channel Event. t= 41 (20713) Note Off ch=5 par1=70 par2=64
Channel Event. t= 55 (20768) Note On ch=5 par1=68 par2=73
Channel Event. t= 25 (20793) Note Off ch=5 par1=68 par2=64
Channel Event. t= 71 (20864) Note On ch=5 par1=67 par2=94
Channel Event. t= 91 (20955) Note Off ch=5 par1=67 par2=64
Channel Event. t= 293 (21248) Note On ch=5 par1=72 par2=83
Channel Event. t= 36 (21284) Note Off ch=5 par1=72 par2=64
Channel Event. t= 60 (21344) Note On ch=5 par1=67 par2=56
Channel Event. t= 27 (21371) Note Off ch=5 par1=67 par2=64
Channel Event. t= 69 (21440) Note On ch=5 par1=73 par2=93
Channel Event. t= 77 (21517) Note Off ch=5 par1=73 par2=64
Channel Event. t= 115 (21632) Note On ch=5 par1=72 par2=74
Channel Event. t= 35 (21667) Note Off ch=5 par1=72 par2=64
Channel Event. t= 61 (21728) Note On ch=5 par1=67 par2=58
Channel Event. t= 34 (21762) Note Off ch=5 par1=67 par2=64
Channel Event. t= 62 (21824) Note On ch=5 par1=73 par2=93
Channel Event. t= 75 (21899) Note Off ch=5 par1=73 par2=64
Channel Event. t= 117 (22016) Note On ch=5 par1=72 par2=78
Channel Event. t= 73 (22089) Note Off ch=5 par1=72 par2=64
Channel Event. t= 119 (22208) Note On ch=5 par1=70 par2=79
Channel Event. t= 39 (22247) Note Off ch=5 par1=70 par2=64
Channel Event. t= 57 (22304) Note On ch=5 par1=68 par2=76
Channel Event. t= 34 (22338) Note Off ch=5 par1=68 par2=64
Channel Event. t= 62 (22400) Note On ch=5 par1=67 par2=81
Channel Event. t= 290 (22690) Note Off ch=5 par1=67 par2=64
Channel Event. t= 94 (22784) Note On ch=5 par1=72 par2=68
Channel Event. t= 94 (22878) Note Off ch=5 par1=72 par2=64
Channel Event. t= 2 (22880) Note On ch=5 par1=67 par2=50
Channel Event. t= 96 (22976) Note On ch=5 par1=71 par2=65
Channel Event. t= 11 (22987) Note Off ch=5 par1=67 par2=64
Channel Event. t= 85 (23072) Note On ch=5 par1=67 par2=62
Channel Event. t= 1 (23073) Note Off ch=5 par1=71 par2=64
Channel Event. t= 73 (23146) Note Off ch=5 par1=67 par2=64
Channel Event. t= 22 (23168) Note On ch=5 par1=72 par2=86
Channel Event. t= 96 (23264) Note On ch=5 par1=67 par2=60
Channel Event. t= 9 (23273) Note Off ch=5 par1=72 par2=64
Channel Event. t= 87 (23360) Note On ch=5 par1=71 par2=69
Channel Event. t= 5 (23365) Note Off ch=5 par1=67 par2=64
Channel Event. t= 91 (23456) Note On ch=5 par1=67 par2=67
Channel Event. t= 8 (23464) Note Off ch=5 par1=71 par2=64
Channel Event. t= 55 (23519) Note Off ch=5 par1=67 par2=64
Channel Event. t= 33 (23552) Note On ch=5 par1=72 par2=69
Channel Event. t= 96 (23648) Note On ch=5 par1=67 par2=56
Channel Event. t= 6 (23654) Note Off ch=5 par1=72 par2=64
Channel Event. t= 90 (23744) Note On ch=5 par1=71 par2=72
Channel Event. t= 13 (23757) Note Off ch=5 par1=67 par2=64
Channel Event. t= 83 (23840) Note On ch=5 par1=67 par2=63
Channel Event. t= 9 (23849) Note Off ch=5 par1=71 par2=64
Channel Event. t= 55 (23904) Note Off ch=5 par1=67 par2=64
Channel Event. t= 32 (23936) Note On ch=5 par1=72 par2=66
Channel Event. t= 96 (24032) Note Off ch=5 par1=72 par2=64
Channel Event. t= 0 (24032) Note On ch=5 par1=67 par2=58
Channel Event. t= 96 (24128) Note On ch=5 par1=71 par2=70
Channel Event. t= 11 (24139) Note Off ch=5 par1=67 par2=64
Channel Event. t= 81 (24220) Note Off ch=5 par1=71 par2=64
Channel Event. t= 4 (24224) Note On ch=5 par1=67 par2=74
Channel Event. t= 63 (24287) Note Off ch=5 par1=67 par2=64
Channel Event. t= 33 (24320) Note On ch=5 par1=43 par2=83
Channel Event. t= 187 (24507) Note Off ch=5 par1=43 par2=64
Channel Event. t= 101 (24608) Note On ch=5 par1=47 par2=73
Channel Event. t= 80 (24688) Note Off ch=5 par1=47 par2=64
Channel Event. t= 16 (24704) Note On ch=5 par1=50 par2=88
Channel Event. t= 150 (24854) Note Off ch=5 par1=50 par2=64
Channel Event. t= 138 (24992) Note On ch=5 par1=54 par2=79
Channel Event. t= 96 (25088) Note On ch=5 par1=55 par2=88
Channel Event. t= 1 (25089) Note Off ch=5 par1=54 par2=64
Channel Event. t= 96 (25185) Note Off ch=5 par1=55 par2=64
Channel Event. t= 95 (25280) Note On ch=5 par1=61 par2=95
Channel Event. t= 92 (25372) Note Off ch=5 par1=61 par2=64
Channel Event. t= 4 (25376) Note On ch=5 par1=62 par2=89
Channel Event. t= 91 (25467) Note Off ch=5 par1=62 par2=64
Channel Event. t= 389 (25856) Note On ch=5 par1=43 par2=72
Channel Event. t= 0 (25856) Note On ch=5 par1=50 par2=56
Channel Event. t= 96 (25952) Note On ch=5 par1=54 par2=54
Channel Event. t= 95 (26047) Note Off ch=5 par1=50 par2=64
Channel Event. t= 1 (26048) Note On ch=5 par1=57 par2=60
Channel Event. t= 8 (26056) Note Off ch=5 par1=54 par2=64
Channel Event. t= 88 (26144) Note On ch=5 par1=54 par2=41
Channel Event. t= 64 (26208) Note Off ch=5 par1=57 par2=64
Channel Event. t= 32 (26240) Note On ch=5 par1=50 par2=70
Channel Event. t= 1 (26241) Note Off ch=5 par1=54 par2=64
Channel Event. t= 85 (26326) Note Off ch=5 par1=50 par2=64
Channel Event. t= 10 (26336) Note On ch=5 par1=55 par2=69
Channel Event. t= 96 (26432) Note On ch=5 par1=59 par2=65
Channel Event. t= 20 (26452) Note Off ch=5 par1=55 par2=64
Channel Event. t= 76 (26528) Note On ch=5 par1=55 par2=66
Channel Event. t= 23 (26551) Note Off ch=5 par1=59 par2=64
Channel Event. t= 68 (26619) Note Off ch=5 par1=55 par2=64
Channel Event. t= 5 (26624) Note On ch=5 par1=48 par2=83
Channel Event. t= 0 (26624) Note On ch=5 par1=52 par2=37
Channel Event. t= 31 (26655) Note Off ch=5 par1=43 par2=64
Channel Event. t= 65 (26720) Note On ch=5 par1=55 par2=59
Channel Event. t= 34 (26754) Note Off ch=5 par1=52 par2=64
Channel Event. t= 62 (26816) Note On ch=5 par1=60 par2=67
Channel Event. t= 2 (26818) Note Off ch=5 par1=55 par2=64
Channel Event. t= 94 (26912) Note On ch=5 par1=55 par2=49
Channel Event. t= 12 (26924) Note Off ch=5 par1=60 par2=64
Channel Event. t= 84 (27008) Note On ch=5 par1=52 par2=63
Channel Event. t= 2 (27010) Note Off ch=5 par1=55 par2=64
Channel Event. t= 94 (27104) Note On ch=5 par1=55 par2=63
Channel Event. t= 12 (27116) Note Off ch=5 par1=52 par2=64
Channel Event. t= 84 (27200) Note On ch=5 par1=60 par2=69
Channel Event. t= 1 (27201) Note Off ch=5 par1=55 par2=64
Channel Event. t= 95 (27296) Note On ch=5 par1=55 par2=64
Channel Event. t= 5 (27301) Note Off ch=5 par1=60 par2=64
Channel Event. t= 69 (27370) Note Off ch=5 par1=55 par2=64
Channel Event. t= 22 (27392) Note On ch=5 par1=36 par2=66
Channel Event. t= 0 (27392) Note On ch=5 par1=55 par2=79
Channel Event. t= 4 (27396) Note Off ch=5 par1=48 par2=64
Channel Event. t= 92 (27488) Note On ch=5 par1=59 par2=64
Channel Event. t= 6 (27494) Note Off ch=5 par1=55 par2=64
Channel Event. t= 90 (27584) Note On ch=5 par1=62 par2=65
Channel Event. t= 2 (27586) Note Off ch=5 par1=59 par2=64
Channel Event. t= 94 (27680) Note On ch=5 par1=59 par2=63
Channel Event. t= 6 (27686) Note Off ch=5 par1=62 par2=64
Channel Event. t= 90 (27776) Note On ch=5 par1=55 par2=76
Channel Event. t= 8 (27784) Note Off ch=5 par1=59 par2=64
Channel Event. t= 87 (27871) Note Off ch=5 par1=55 par2=64
Channel Event. t= 1 (27872) Note On ch=5 par1=60 par2=71
Channel Event. t= 96 (27968) Note On ch=5 par1=64 par2=71
Channel Event. t= 2 (27970) Note Off ch=5 par1=60 par2=64
Channel Event. t= 94 (28064) Note On ch=5 par1=60 par2=66
Channel Event. t= 8 (28072) Note Off ch=5 par1=64 par2=64
Channel Event. t= 72 (28144) Note Off ch=5 par1=60 par2=64
Channel Event. t= 16 (28160) Note On ch=5 par1=41 par2=69
Channel Event. t= 0 (28160) Note On ch=5 par1=57 par2=74
Channel Event. t= 33 (28193) Note Off ch=5 par1=36 par2=64
Channel Event. t= 58 (28251) Note Off ch=5 par1=57 par2=64
Channel Event. t= 5 (28256) Note On ch=5 par1=60 par2=60
Channel Event. t= 96 (28352) Note On ch=5 par1=57 par2=64
Channel Event. t= 12 (28364) Note Off ch=5 par1=60 par2=64
Channel Event. t= 84 (28448) Note On ch=5 par1=53 par2=71
Channel Event. t= 9 (28457) Note Off ch=5 par1=57 par2=64
Channel Event. t= 65 (28522) Note Off ch=5 par1=53 par2=64
Channel Event. t= 22 (28544) Note On ch=5 par1=57 par2=68
Channel Event. t= 96 (28640) Note On ch=5 par1=60 par2=61
Channel Event. t= 4 (28644) Note Off ch=5 par1=57 par2=64
Channel Event. t= 92 (28736) Note On ch=5 par1=57 par2=58
Channel Event. t= 13 (28749) Note Off ch=5 par1=60 par2=64
Channel Event. t= 83 (28832) Note On ch=5 par1=53 par2=63
Channel Event. t= 11 (28843) Note Off ch=5 par1=57 par2=64
Channel Event. t= 65 (28908) Note Off ch=5 par1=53 par2=64
Channel Event. t= 20 (28928) Note On ch=5 par1=57 par2=78
Channel Event. t= 96 (29024) Note On ch=5 par1=60 par2=71
Channel Event. t= 5 (29029) Note Off ch=5 par1=57 par2=64
Channel Event. t= 91 (29120) Note On ch=5 par1=57 par2=77
Channel Event. t= 9 (29129) Note Off ch=5 par1=60 par2=64
Channel Event. t= 87 (29216) Note On ch=5 par1=53 par2=71
Channel Event. t= 10 (29226) Note Off ch=5 par1=57 par2=64
Channel Event. t= 77 (29303) Note Off ch=5 par1=53 par2=64
Channel Event. t= 9 (29312) Note On ch=5 par1=57 par2=73
Channel Event. t= 96 (29408) Note On ch=5 par1=60 par2=55
Channel Event. t= 7 (29415) Note Off ch=5 par1=57 par2=64
Channel Event. t= 80 (29495) Note Off ch=5 par1=60 par2=64
Channel Event. t= 9 (29504) Note On ch=5 par1=53 par2=82
Channel Event. t= 112 (29616) Note Off ch=5 par1=53 par2=64
Channel Event. t= 43 (29659) Note Off ch=5 par1=41 par2=64
Channel Event. t= 37 (29696) Note On ch=5 par1=41 par2=83
Channel Event. t= 0 (29696) Note On ch=5 par1=48 par2=87
Channel Event. t= 96 (29792) Note On ch=5 par1=53 par2=69
Channel Event. t= 7 (29799) Note Off ch=5 par1=48 par2=64
Channel Event. t= 89 (29888) Note On ch=5 par1=57 par2=71
Channel Event. t= 3 (29891) Note Off ch=5 par1=53 par2=64
Channel Event. t= 93 (29984) Note On ch=5 par1=53 par2=58
Channel Event. t= 19 (30003) Note Off ch=5 par1=57 par2=64
Channel Event. t= 77 (30080) Note On ch=5 par1=36 par2=78
Channel Event. t= 0 (30080) Note On ch=5 par1=48 par2=79
Channel Event. t= 1 (30081) Note Off ch=5 par1=53 par2=64
Channel Event. t= 11 (30092) Note Off ch=5 par1=41 par2=64
Channel Event. t= 84 (30176) Note On ch=5 par1=53 par2=74
Channel Event. t= 2 (30178) Note Off ch=5 par1=48 par2=64
Channel Event. t= 94 (30272) Note Off ch=5 par1=53 par2=64
Channel Event. t= 0 (30272) Note On ch=5 par1=57 par2=72
Channel Event. t= 96 (30368) Note On ch=5 par1=53 par2=63
Channel Event. t= 11 (30379) Note Off ch=5 par1=57 par2=64
Channel Event. t= 66 (30445) Note Off ch=5 par1=53 par2=64
Channel Event. t= 19 (30464) Note On ch=5 par1=41 par2=70
Channel Event. t= 0 (30464) Note On ch=5 par1=48 par2=83
Channel Event. t= 19 (30483) Note Off ch=5 par1=36 par2=64
Channel Event. t= 77 (30560) Note On ch=5 par1=53 par2=73
Channel Event. t= 11 (30571) Note Off ch=5 par1=48 par2=64
Channel Event. t= 85 (30656) Note On ch=5 par1=57 par2=60
Channel Event. t= 5 (30661) Note Off ch=5 par1=53 par2=64
Channel Event. t= 91 (30752) Note On ch=5 par1=53 par2=66
Channel Event. t= 16 (30768) Note Off ch=5 par1=57 par2=64
Channel Event. t= 66 (30834) Note Off ch=5 par1=53 par2=64
Channel Event. t= 14 (30848) Note On ch=5 par1=36 par2=79
Channel Event. t= 0 (30848) Note On ch=5 par1=48 par2=79
Channel Event. t= 23 (30871) Note Off ch=5 par1=41 par2=64
Channel Event. t= 73 (30944) Note On ch=5 par1=53 par2=74
Channel Event. t= 6 (30950) Note Off ch=5 par1=48 par2=64
Channel Event. t= 90 (31040) Note On ch=5 par1=57 par2=69
Channel Event. t= 2 (31042) Note Off ch=5 par1=53 par2=64
Channel Event. t= 94 (31136) Note On ch=5 par1=53 par2=74
Channel Event. t= 11 (31147) Note Off ch=5 par1=57 par2=64
Channel Event. t= 59 (31206) Note Off ch=5 par1=53 par2=64
Channel Event. t= 26 (31232) Note On ch=5 par1=37 par2=84
Channel Event. t= 0 (31232) Note On ch=5 par1=49 par2=89
Channel Event. t= 29 (31261) Note Off ch=5 par1=36 par2=64
Channel Event. t= 67 (31328) Note On ch=5 par1=53 par2=73
Channel Event. t= 7 (31335) Note Off ch=5 par1=49 par2=64
Channel Event. t= 89 (31424) Note On ch=5 par1=56 par2=79
Channel Event. t= 6 (31430) Note Off ch=5 par1=53 par2=64
Channel Event. t= 90 (31520) Note On ch=5 par1=53 par2=78
Channel Event. t= 5 (31525) Note Off ch=5 par1=56 par2=64
Channel Event. t= 57 (31582) Note Off ch=5 par1=53 par2=64
Channel Event. t= 34 (31616) Note On ch=5 par1=44 par2=85
Channel Event. t= 0 (31616) Note On ch=5 par1=56 par2=87
Channel Event. t= 10 (31626) Note Off ch=5 par1=37 par2=64
Channel Event. t= 86 (31712) Note On ch=5 par1=61 par2=73
Channel Event. t= 8 (31720) Note Off ch=5 par1=56 par2=64
Channel Event. t= 88 (31808) Note On ch=5 par1=65 par2=76
Channel Event. t= 1 (31809) Note Off ch=5 par1=61 par2=64
Channel Event. t= 95 (31904) Note On ch=5 par1=61 par2=68
Channel Event. t= 18 (31922) Note Off ch=5 par1=65 par2=64
Channel Event. t= 51 (31973) Note Off ch=5 par1=61 par2=64
Channel Event. t= 27 (32000) Note On ch=5 par1=49 par2=81
Channel Event. t= 0 (32000) Note On ch=5 par1=56 par2=72
Channel Event. t= 17 (32017) Note Off ch=5 par1=44 par2=64
Channel Event. t= 79 (32096) Note On ch=5 par1=61 par2=70
Channel Event. t= 17 (32113) Note Off ch=5 par1=56 par2=64
Channel Event. t= 79 (32192) Note On ch=5 par1=65 par2=63
Channel Event. t= 2 (32194) Note Off ch=5 par1=61 par2=64
Channel Event. t= 94 (32288) Note On ch=5 par1=61 par2=72
Channel Event. t= 7 (32295) Note Off ch=5 par1=65 par2=64
Channel Event. t= 80 (32375) Note Off ch=5 par1=61 par2=64
Channel Event. t= 9 (32384) Note On ch=5 par1=44 par2=84
Channel Event. t= 0 (32384) Note On ch=5 par1=56 par2=83
Channel Event. t= 16 (32400) Note Off ch=5 par1=49 par2=64
Channel Event. t= 80 (32480) Note On ch=5 par1=61 par2=72
Channel Event. t= 11 (32491) Note Off ch=5 par1=56 par2=64
Channel Event. t= 80 (32571) Note Off ch=5 par1=61 par2=64
Channel Event. t= 5 (32576) Note On ch=5 par1=65 par2=56
Channel Event. t= 96 (32672) Note On ch=5 par1=61 par2=70
Channel Event. t= 10 (32682) Note Off ch=5 par1=65 par2=64
Channel Event. t= 61 (32743) Note Off ch=5 par1=61 par2=64
Channel Event. t= 25 (32768) Note On ch=5 par1=37 par2=80
Channel Event. t= 0 (32768) Note On ch=5 par1=49 par2=77
Channel Event. t= 0 (32768) Note On ch=5 par1=53 par2=72
Channel Event. t= 21 (32789) Note Off ch=5 par1=44 par2=64
Channel Event. t= 75 (32864) Note On ch=5 par1=56 par2=73
Channel Event. t= 13 (32877) Note Off ch=5 par1=53 par2=64
Channel Event. t= 83 (32960) Note On ch=5 par1=61 par2=74
Channel Event. t= 11 (32971) Note Off ch=5 par1=56 par2=64
Channel Event. t= 85 (33056) Note On ch=5 par1=56 par2=71
Channel Event. t= 13 (33069) Note Off ch=5 par1=61 par2=64
Channel Event. t= 80 (33149) Note Off ch=5 par1=56 par2=64
Channel Event. t= 3 (33152) Note On ch=5 par1=44 par2=82
Channel Event. t= 0 (33152) Note On ch=5 par1=53 par2=80
Channel Event. t= 10 (33162) Note Off ch=5 par1=37 par2=64
Channel Event. t= 3 (33165) Note Off ch=5 par1=49 par2=64
Channel Event. t= 83 (33248) Note On ch=5 par1=56 par2=70
Channel Event. t= 12 (33260) Note Off ch=5 par1=53 par2=64
Channel Event. t= 80 (33340) Note Off ch=5 par1=56 par2=64
Channel Event. t= 4 (33344) Note On ch=5 par1=61 par2=70
Channel Event. t= 96 (33440) Note On ch=5 par1=56 par2=71
Channel Event. t= 5 (33445) Note Off ch=5 par1=61 par2=64
Channel Event. t= 82 (33527) Note Off ch=5 par1=56 par2=64
Channel Event. t= 9 (33536) Note Off ch=5 par1=44 par2=64
Channel Event. t= 0 (33536) Note On ch=5 par1=44 par2=33
Channel Event. t= 0 (33536) Note On ch=5 par1=51 par2=80
Channel Event. t= 1 (33537) Note Off ch=5 par1=44 par2=64
Channel Event. t= 95 (33632) Note On ch=5 par1=56 par2=65
Channel Event. t= 4 (33636) Note Off ch=5 par1=51 par2=64
Channel Event. t= 92 (33728) Note On ch=5 par1=51 par2=71
Channel Event. t= 12 (33740) Note Off ch=5 par1=56 par2=64
Channel Event. t= 84 (33824) Note On ch=5 par1=48 par2=67
Channel Event. t= 1 (33825) Note Off ch=5 par1=51 par2=64
Channel Event. t= 95 (33920) Note On ch=5 par1=39 par2=79
Channel Event. t= 0 (33920) Note On ch=5 par1=51 par2=70
Channel Event. t= 12 (33932) Note Off ch=5 par1=48 par2=64
Channel Event. t= 84 (34016) Note On ch=5 par1=56 par2=67
Channel Event. t= 97 (34113) Note Off ch=5 par1=56 par2=64
Channel Event. t= 95 (34208) Note On ch=5 par1=48 par2=69
Channel Event. t= 76 (34284) Note Off ch=5 par1=48 par2=64
Channel Event. t= 20 (34304) Note On ch=5 par1=44 par2=85
Channel Event. t= 15 (34319) Note Off ch=5 par1=39 par2=64
Channel Event. t= 2 (34321) Note Off ch=5 par1=51 par2=64
Channel Event. t= 79 (34400) Note On ch=5 par1=56 par2=65
Channel Event. t= 96 (34496) Note On ch=5 par1=60 par2=54
Channel Event. t= 3 (34499) Note Off ch=5 par1=56 par2=64
Channel Event. t= 93 (34592) Note On ch=5 par1=56 par2=65
Channel Event. t= 13 (34605) Note Off ch=5 par1=60 par2=64
Channel Event. t= 76 (34681) Note Off ch=5 par1=56 par2=64
Channel Event. t= 7 (34688) Note On ch=5 par1=39 par2=89
Channel Event. t= 0 (34688) Note On ch=5 par1=51 par2=63
Channel Event. t= 12 (34700) Note Off ch=5 par1=44 par2=64
Channel Event. t= 84 (34784) Note On ch=5 par1=56 par2=61
Channel Event. t= 10 (34794) Note Off ch=5 par1=51 par2=64
Channel Event. t= 86 (34880) Note On ch=5 par1=60 par2=61
Channel Event. t= 3 (34883) Note Off ch=5 par1=56 par2=64
Channel Event. t= 93 (34976) Note On ch=5 par1=56 par2=56
Channel Event. t= 11 (34987) Note Off ch=5 par1=60 par2=64
Channel Event. t= 85 (35072) Note On ch=5 par1=44 par2=88
Channel Event. t= 0 (35072) Note On ch=5 par1=51 par2=71
Channel Event. t= 2 (35074) Note Off ch=5 par1=56 par2=64
Channel Event. t= 4 (35078) Note Off ch=5 par1=39 par2=64
Channel Event. t= 90 (35168) Note On ch=5 par1=56 par2=58
Channel Event. t= 7 (35175) Note Off ch=5 par1=51 par2=64
Channel Event. t= 89 (35264) Note On ch=5 par1=60 par2=62
Channel Event. t= 5 (35269) Note Off ch=5 par1=56 par2=64
Channel Event. t= 91 (35360) Note On ch=5 par1=56 par2=60
Channel Event. t= 5 (35365) Note Off ch=5 par1=60 par2=64
Channel Event. t= 88 (35453) Note Off ch=5 par1=56 par2=64
Channel Event. t= 3 (35456) Note On ch=5 par1=39 par2=93
Channel Event. t= 0 (35456) Note On ch=5 par1=51 par2=76
Channel Event. t= 16 (35472) Note Off ch=5 par1=44 par2=64
Channel Event. t= 80 (35552) Note On ch=5 par1=56 par2=65
Channel Event. t= 11 (35563) Note Off ch=5 par1=51 par2=64
Channel Event. t= 81 (35644) Note Off ch=5 par1=56 par2=64
Channel Event. t= 4 (35648) Note On ch=5 par1=60 par2=63
Channel Event. t= 96 (35744) Note On ch=5 par1=56 par2=65
Channel Event. t= 25 (35769) Note Off ch=5 par1=60 par2=64
Channel Event. t= 71 (35840) Note On ch=5 par1=40 par2=82
Channel Event. t= 0 (35840) Note On ch=5 par1=47 par2=73
Channel Event. t= 8 (35848) Note Off ch=5 par1=56 par2=64
Channel Event. t= 3 (35851) Note Off ch=5 par1=39 par2=64
Channel Event. t= 85 (35936) Note On ch=5 par1=52 par2=64
Channel Event. t= 4 (35940) Note Off ch=5 par1=47 par2=64
Channel Event. t= 92 (36032) Note On ch=5 par1=55 par2=69
Channel Event. t= 3 (36035) Note Off ch=5 par1=52 par2=64
Channel Event. t= 93 (36128) Note On ch=5 par1=52 par2=59
Channel Event. t= 9 (36137) Note Off ch=5 par1=55 par2=64
Channel Event. t= 87 (36224) Note On ch=5 par1=47 par2=59
Channel Event. t= 2 (36226) Note Off ch=5 par1=52 par2=64
Channel Event. t= 94 (36320) Note On ch=5 par1=52 par2=58
Channel Event. t= 5 (36325) Note Off ch=5 par1=47 par2=64
Channel Event. t= 91 (36416) Note Off ch=5 par1=52 par2=64
Channel Event. t= 0 (36416) Note On ch=5 par1=55 par2=66
Channel Event. t= 96 (36512) Note On ch=5 par1=52 par2=61
Channel Event. t= 8 (36520) Note Off ch=5 par1=55 par2=64
Channel Event. t= 76 (36596) Note Off ch=5 par1=40 par2=64
Channel Event. t= 3 (36599) Note Off ch=5 par1=52 par2=64
Channel Event. t= 9 (36608) Note On ch=5 par1=40 par2=83
Channel Event. t= 0 (36608) Note On ch=5 par1=47 par2=75
Channel Event. t= 96 (36704) Note On ch=5 par1=52 par2=68
Channel Event. t= 12 (36716) Note Off ch=5 par1=47 par2=64
Channel Event. t= 84 (36800) Note On ch=5 par1=55 par2=72
Channel Event. t= 1 (36801) Note Off ch=5 par1=52 par2=64
Channel Event. t= 95 (36896) Note On ch=5 par1=52 par2=62
Channel Event. t= 5 (36901) Note Off ch=5 par1=55 par2=64
Channel Event. t= 75 (36976) Note Off ch=5 par1=52 par2=64
Channel Event. t= 16 (36992) Note On ch=5 par1=43 par2=76
Channel Event. t= 0 (36992) Note On ch=5 par1=50 par2=76
Channel Event. t= 16 (37008) Note Off ch=5 par1=40 par2=64
Channel Event. t= 80 (37088) Note On ch=5 par1=55 par2=61
Channel Event. t= 5 (37093) Note Off ch=5 par1=50 par2=64
Channel Event. t= 91 (37184) Note On ch=5 par1=59 par2=74
Channel Event. t= 5 (37189) Note Off ch=5 par1=55 par2=64
Channel Event. t= 91 (37280) Note On ch=5 par1=55 par2=61
Channel Event. t= 28 (37308) Note Off ch=5 par1=59 par2=64
Channel Event. t= 59 (37367) Note Off ch=5 par1=55 par2=64
Channel Event. t= 9 (37376) Note On ch=5 par1=36 par2=79
Channel Event. t= 0 (37376) Note On ch=5 par1=52 par2=73
Channel Event. t= 25 (37401) Note Off ch=5 par1=43 par2=64
Channel Event. t= 64 (37465) Note Off ch=5 par1=52 par2=64
Channel Event. t= 7 (37472) Note On ch=5 par1=55 par2=50
Channel Event. t= 96 (37568) Note On ch=5 par1=52 par2=63
Channel Event. t= 16 (37584) Note Off ch=5 par1=55 par2=64
Channel Event. t= 77 (37661) Note Off ch=5 par1=52 par2=64
Channel Event. t= 3 (37664) Note On ch=5 par1=48 par2=56
Channel Event. t= 90 (37754) Note Off ch=5 par1=48 par2=64
Channel Event. t= 6 (37760) Note On ch=5 par1=52 par2=63
Channel Event. t= 92 (37852) Note Off ch=5 par1=52 par2=64
Channel Event. t= 4 (37856) Note On ch=5 par1=48 par2=49
Channel Event. t= 96 (37952) Note On ch=5 par1=43 par2=61
Channel Event. t= 17 (37969) Note Off ch=5 par1=48 par2=64
Channel Event. t= 77 (38046) Note Off ch=5 par1=43 par2=64
Channel Event. t= 2 (38048) Note On ch=5 par1=40 par2=71
Channel Event. t= 70 (38118) Note Off ch=5 par1=40 par2=64
Channel Event. t= 26 (38144) Note On ch=5 par1=39 par2=83
Channel Event. t= 0 (38144) Note On ch=5 par1=46 par2=74
Channel Event. t= 18 (38162) Note Off ch=5 par1=36 par2=64
Channel Event. t= 78 (38240) Note Off ch=5 par1=46 par2=64
Channel Event. t= 0 (38240) Note On ch=5 par1=51 par2=61
Channel Event. t= 96 (38336) Note On ch=5 par1=54 par2=80
Channel Event. t= 18 (38354) Note Off ch=5 par1=51 par2=64
Channel Event. t= 78 (38432) Note On ch=5 par1=51 par2=68
Channel Event. t= 11 (38443) Note Off ch=5 par1=54 par2=64
Channel Event. t= 85 (38528) Note On ch=5 par1=42 par2=90
Channel Event. t= 0 (38528) Note On ch=5 par1=49 par2=102
Channel Event. t= 18 (38546) Note Off ch=5 par1=51 par2=64
Channel Event. t= 3 (38549) Note Off ch=5 par1=39 par2=64
Channel Event. t= 75 (38624) Note On ch=5 par1=54 par2=79
Channel Event. t= 2 (38626) Note Off ch=5 par1=49 par2=64
Channel Event. t= 94 (38720) Note On ch=5 par1=58 par2=70
Channel Event. t= 3 (38723) Note Off ch=5 par1=54 par2=64
Channel Event. t= 93 (38816) Note On ch=5 par1=54 par2=55
Channel Event. t= 7 (38823) Note Off ch=5 par1=58 par2=64
Channel Event. t= 86 (38909) Note Off ch=5 par1=54 par2=64
Channel Event. t= 3 (38912) Note On ch=5 par1=35 par2=91
Channel Event. t= 0 (38912) Note On ch=5 par1=51 par2=86
Channel Event. t= 19 (38931) Note Off ch=5 par1=42 par2=64
Channel Event. t= 76 (39007) Note Off ch=5 par1=51 par2=64
Channel Event. t= 1 (39008) Note On ch=5 par1=54 par2=68
Channel Event. t= 96 (39104) Note On ch=5 par1=51 par2=78
Channel Event. t= 22 (39126) Note Off ch=5 par1=54 par2=64
Channel Event. t= 71 (39197) Note Off ch=5 par1=51 par2=64
Channel Event. t= 3 (39200) Note On ch=5 par1=47 par2=76
Channel Event. t= 96 (39296) Note On ch=5 par1=51 par2=73
Channel Event. t= 15 (39311) Note Off ch=5 par1=47 par2=64
Channel Event. t= 81 (39392) Note On ch=5 par1=47 par2=71
Channel Event. t= 7 (39399) Note Off ch=5 par1=51 par2=64
Channel Event. t= 89 (39488) Note On ch=5 par1=42 par2=71
Channel Event. t= 6 (39494) Note Off ch=5 par1=47 par2=64
Channel Event. t= 84 (39578) Note Off ch=5 par1=42 par2=64
Channel Event. t= 6 (39584) Note On ch=5 par1=39 par2=86
Channel Event. t= 82 (39666) Note Off ch=5 par1=39 par2=64
Channel Event. t= 14 (39680) Note On ch=5 par1=38 par2=81
Channel Event. t= 0 (39680) Note On ch=5 par1=45 par2=79
Channel Event. t= 17 (39697) Note Off ch=5 par1=35 par2=64
Channel Event. t= 79 (39776) Note On ch=5 par1=50 par2=61
Channel Event. t= 7 (39783) Note Off ch=5 par1=45 par2=64
Channel Event. t= 89 (39872) Note On ch=5 par1=53 par2=44
Channel Event. t= 5 (39877) Note Off ch=5 par1=50 par2=64
Channel Event. t= 91 (39968) Note On ch=5 par1=50 par2=72
Channel Event. t= 14 (39982) Note Off ch=5 par1=53 par2=64
Channel Event. t= 63 (40045) Note Off ch=5 par1=50 par2=64
Channel Event. t= 19 (40064) Note On ch=5 par1=41 par2=76
Channel Event. t= 0 (40064) Note On ch=5 par1=48 par2=57
Channel Event. t= 4 (40068) Note Off ch=5 par1=38 par2=64
Channel Event. t= 92 (40160) Note On ch=5 par1=53 par2=74
Channel Event. t= 2 (40162) Note Off ch=5 par1=48 par2=64
Channel Event. t= 94 (40256) Note On ch=5 par1=57 par2=65
Channel Event. t= 9 (40265) Note Off ch=5 par1=53 par2=64
Channel Event. t= 87 (40352) Note On ch=5 par1=53 par2=69
Channel Event. t= 12 (40364) Note Off ch=5 par1=57 par2=64
Channel Event. t= 73 (40437) Note Off ch=5 par1=53 par2=64
Channel Event. t= 11 (40448) Note On ch=5 par1=34 par2=90
Channel Event. t= 0 (40448) Note On ch=5 par1=50 par2=77
Channel Event. t= 17 (40465) Note Off ch=5 par1=41 par2=64
Channel Event. t= 74 (40539) Note Off ch=5 par1=50 par2=64
Channel Event. t= 5 (40544) Note On ch=5 par1=53 par2=66
Channel Event. t= 96 (40640) Note On ch=5 par1=50 par2=66
Channel Event. t= 9 (40649) Note Off ch=5 par1=53 par2=64
Channel Event. t= 87 (40736) Note On ch=5 par1=46 par2=68
Channel Event. t= 6 (40742) Note Off ch=5 par1=50 par2=64
Channel Event. t= 86 (40828) Note Off ch=5 par1=46 par2=64
Channel Event. t= 4 (40832) Note Off ch=5 par1=34 par2=64
Channel Event. t= 0 (40832) Note On ch=5 par1=41 par2=72
Channel Event. t= 96 (40928) Note On ch=5 par1=46 par2=74
Channel Event. t= 10 (40938) Note Off ch=5 par1=41 par2=64
Channel Event. t= 86 (41024) Note On ch=5 par1=50 par2=75
Channel Event. t= 5 (41029) Note Off ch=5 par1=46 par2=64
Channel Event. t= 91 (41120) Note On ch=5 par1=53 par2=81
Channel Event. t= 18 (41138) Note Off ch=5 par1=50 par2=64
Channel Event. t= 78 (41216) Note Off ch=5 par1=53 par2=64
Channel Event. t= 0 (41216) 
Meta Event. Type: 0x2f (47dec), End of Track (0 bytes): 
track #17
track size: 2997
Channel Event. t= 0 (0) 
Meta Event. Type: 0x21 (33dec), MIDI Port (1 bytes): 0
Channel Event. t= 0 (0) 
Meta Event. Type: 0x3 (3dec), Sequence/Track Name (20 bytes): Flute               
Channel Event. t= 0 (0) Program Change ch=1 par1=72 par2=-124
Channel Event. t= 5888 (5888) Controller ch=1 par1=10 (Pan) par2=120
Channel Event. t= 6900 (12788) Controller ch=1 par1=7 (Pan) par2=60
Channel Event. t= 12 (12800) Note On ch=1 par1=79 par2=110
Channel Event. t= 181 (12981) Note On ch=1 par1=84 par2=106
Channel Event. t= 16 (12997) Note Off ch=1 par1=79 par2=64
Channel Event. t= 130 (13127) Note On ch=1 par1=88 par2=98
Channel Event. t= 4 (13131) Note Off ch=1 par1=84 par2=64
Channel Event. t= 38 (13169) Note Off ch=1 par1=88 par2=64
Channel Event. t= 2 (13171) Note On ch=1 par1=91 par2=100
Channel Event. t= 32 (13203) Note Off ch=1 par1=91 par2=64
Channel Event. t= 63 (13266) Note On ch=1 par1=93 par2=91
Channel Event. t= 25 (13291) Note Off ch=1 par1=93 par2=64
Channel Event. t= 70 (13361) Note On ch=1 par1=91 par2=101
Channel Event. t= 155 (13516) Note On ch=1 par1=88 par2=97
Channel Event. t= 2 (13518) Note Off ch=1 par1=91 par2=64
Channel Event. t= 40 (13558) Note On ch=1 par1=91 par2=99
Channel Event. t= 3 (13561) Note Off ch=1 par1=88 par2=64
Channel Event. t= 24 (13585) Note Off ch=1 par1=91 par2=64
Channel Event. t= 65 (13650) Note On ch=1 par1=93 par2=98
Channel Event. t= 24 (13674) Note Off ch=1 par1=93 par2=64
Channel Event. t= 75 (13749) Note On ch=1 par1=95 par2=102
Channel Event. t= 144 (13893) Note On ch=1 par1=96 par2=97
Channel Event. t= 9 (13902) Note Off ch=1 par1=95 par2=64
Channel Event. t= 40 (13942) Note On ch=1 par1=91 par2=70
Channel Event. t= 19 (13961) Note Off ch=1 par1=96 par2=64
Channel Event. t= 73 (14034) Note On ch=1 par1=88 par2=103
Channel Event. t= 18 (14052) Note Off ch=1 par1=91 par2=64
Channel Event. t= 26 (14078) Note Off ch=1 par1=88 par2=64
Channel Event. t= 53 (14131) Note On ch=1 par1=84 par2=96
Channel Event. t= 28 (14159) Note Off ch=1 par1=84 par2=64
Channel Event. t= 69 (14228) Note On ch=1 par1=86 par2=104
Channel Event. t= 29 (14257) Note Off ch=1 par1=86 par2=64
Channel Event. t= 75 (14332) Note On ch=1 par1=87 par2=111
Channel Event. t= 171 (14503) Note Off ch=1 par1=87 par2=64
Channel Event. t= 22 (14525) Note On ch=1 par1=87 par2=105
Channel Event. t= 90 (14615) Note Off ch=1 par1=87 par2=64
Channel Event. t= 0 (14615) Note On ch=1 par1=91 par2=107
Channel Event. t= 94 (14709) Note Off ch=1 par1=91 par2=64
Channel Event. t= 10 (14719) Note On ch=1 par1=87 par2=107
Channel Event. t= 173 (14892) Note Off ch=1 par1=87 par2=64
Channel Event. t= 18 (14910) Note On ch=1 par1=87 par2=105
Channel Event. t= 85 (14995) Note Off ch=1 par1=87 par2=64
Channel Event. t= 1 (14996) Note On ch=1 par1=91 par2=103
Channel Event. t= 92 (15088) Note Off ch=1 par1=91 par2=64
Channel Event. t= 1 (15089) Note On ch=1 par1=87 par2=107
Channel Event. t= 196 (15285) Note On ch=1 par1=82 par2=112
Channel Event. t= 10 (15295) Note Off ch=1 par1=87 par2=64
Channel Event. t= 187 (15482) Note On ch=1 par1=70 par2=109
Channel Event. t= 7 (15489) Note Off ch=1 par1=82 par2=64
Channel Event. t= 253 (15742) Note Off ch=1 par1=70 par2=64
Channel Event. t= 3706 (19448) Controller ch=1 par1=7 (Main Volume) par2=90
Channel Event. t= 74 (19522) Note On ch=1 par1=67 par2=83
Channel Event. t= 36 (19558) Note Off ch=1 par1=67 par2=64
Channel Event. t= 54 (19612) Note On ch=1 par1=79 par2=79
Channel Event. t= 28 (19640) Note Off ch=1 par1=79 par2=64
Channel Event. t= 66 (19706) Note On ch=1 par1=93 par2=93
Channel Event. t= 10 (19716) Note On ch=1 par1=91 par2=84
Channel Event. t= 27 (19743) Note Off ch=1 par1=93 par2=64
Channel Event. t= 8 (19751) Note Off ch=1 par1=91 par2=64
Channel Event. t= 54 (19805) Note On ch=1 par1=79 par2=79
Channel Event. t= 26 (19831) Note Off ch=1 par1=79 par2=64
Channel Event. t= 73 (19904) Note On ch=1 par1=93 par2=87
Channel Event. t= 14 (19918) Note On ch=1 par1=92 par2=87
Channel Event. t= 22 (19940) Note Off ch=1 par1=93 par2=64
Channel Event. t= 3 (19943) Note Off ch=1 par1=92 par2=64
Channel Event. t= 55 (19998) Note On ch=1 par1=92 par2=94
Channel Event. t= 29 (20027) Note Off ch=1 par1=92 par2=64
Channel Event. t= 65 (20092) Note On ch=1 par1=92 par2=98
Channel Event. t= 25 (20117) Note Off ch=1 par1=92 par2=64
Channel Event. t= 69 (20186) Note On ch=1 par1=92 par2=99
Channel Event. t= 27 (20213) Note Off ch=1 par1=92 par2=64
Channel Event. t= 64 (20277) Note On ch=1 par1=93 par2=86
Channel Event. t= 8 (20285) Note On ch=1 par1=91 par2=97
Channel Event. t= 27 (20312) Note Off ch=1 par1=93 par2=64
Channel Event. t= 3 (20315) Note Off ch=1 par1=91 par2=64
Channel Event. t= 66 (20381) Note On ch=1 par1=79 par2=79
Channel Event. t= 26 (20407) Note Off ch=1 par1=79 par2=64
Channel Event. t= 79 (20486) Note On ch=1 par1=74 par2=93
Channel Event. t= 40 (20526) Note Off ch=1 par1=74 par2=64
Channel Event. t= 3 (20529) Note On ch=1 par1=75 par2=89
Channel Event. t= 37 (20566) Note Off ch=1 par1=75 par2=64
Channel Event. t= 2 (20568) Note On ch=1 par1=74 par2=77
Channel Event. t= 53 (20621) Note Off ch=1 par1=74 par2=64
Channel Event. t= 2 (20623) Note On ch=1 par1=72 par2=91
Channel Event. t= 39 (20662) Note Off ch=1 par1=72 par2=64
Channel Event. t= 17 (20679) Note On ch=1 par1=82 par2=98
Channel Event. t= 9 (20688) Note On ch=1 par1=83 par2=85
Channel Event. t= 29 (20717) Note Off ch=1 par1=82 par2=64
Channel Event. t= 62 (20779) Note Off ch=1 par1=83 par2=64
Channel Event. t= 3 (20782) Note On ch=1 par1=81 par2=79
Channel Event. t= 18 (20800) Note On ch=1 par1=83 par2=64
Channel Event. t= 2 (20802) Note Off ch=1 par1=81 par2=64
Channel Event. t= 25 (20827) Note On ch=1 par1=81 par2=84
Channel Event. t= 13 (20840) Note Off ch=1 par1=83 par2=64
Channel Event. t= 20 (20860) Note On ch=1 par1=79 par2=92
Channel Event. t= 5 (20865) Note Off ch=1 par1=81 par2=64
Channel Event. t= 82 (20947) Note Off ch=1 par1=79 par2=64
Channel Event. t= 10 (20957) Note On ch=1 par1=67 par2=92
Channel Event. t= 34 (20991) Note Off ch=1 par1=67 par2=64
Channel Event. t= 63 (21054) Note On ch=1 par1=72 par2=89
Channel Event. t= 39 (21093) Note Off ch=1 par1=72 par2=64
Channel Event. t= 54 (21147) Note On ch=1 par1=76 par2=89
Channel Event. t= 28 (21175) Note Off ch=1 par1=76 par2=64
Channel Event. t= 25 (21200) Controller ch=1 par1=10 (Pan) par2=20
Channel Event. t= 37 (21237) Note On ch=1 par1=93 par2=87
Channel Event. t= 9 (21246) Note On ch=1 par1=91 par2=98
Channel Event. t= 22 (21268) Note Off ch=1 par1=93 par2=64
Channel Event. t= 12 (21280) Note Off ch=1 par1=91 par2=64
Channel Event. t= 56 (21336) Note On ch=1 par1=76 par2=97
Channel Event. t= 28 (21364) Note Off ch=1 par1=76 par2=64
Channel Event. t= 73 (21437) Note On ch=1 par1=93 par2=93
Channel Event. t= 12 (21449) Note On ch=1 par1=92 par2=93
Channel Event. t= 25 (21474) Note Off ch=1 par1=93 par2=64
Channel Event. t= 6 (21480) Note Off ch=1 par1=92 par2=64
Channel Event. t= 55 (21535) Note On ch=1 par1=92 par2=103
Channel Event. t= 33 (21568) Note Off ch=1 par1=92 par2=64
Channel Event. t= 66 (21634) Note On ch=1 par1=92 par2=102
Channel Event. t= 32 (21666) Note Off ch=1 par1=92 par2=64
Channel Event. t= 62 (21728) Note On ch=1 par1=92 par2=99
Channel Event. t= 33 (21761) Note Off ch=1 par1=92 par2=64
Channel Event. t= 53 (21814) Note On ch=1 par1=93 par2=88
Channel Event. t= 10 (21824) Note On ch=1 par1=91 par2=102
Channel Event. t= 21 (21845) Note Off ch=1 par1=93 par2=64
Channel Event. t= 12 (21857) Note Off ch=1 par1=91 par2=64
Channel Event. t= 62 (21919) Note On ch=1 par1=76 par2=96
Channel Event. t= 23 (21942) Note Off ch=1 par1=76 par2=64
Channel Event. t= 78 (22020) Note On ch=1 par1=74 par2=94
Channel Event. t= 36 (22056) Note Off ch=1 par1=74 par2=64
Channel Event. t= 9 (22065) Note On ch=1 par1=75 par2=93
Channel Event. t= 48 (22113) Note On ch=1 par1=73 par2=94
Channel Event. t= 1 (22114) Note Off ch=1 par1=75 par2=64
Channel Event. t= 41 (22155) Note Off ch=1 par1=73 par2=64
Channel Event. t= 2 (22157) Note On ch=1 par1=71 par2=91
Channel Event. t= 26 (22183) Note Off ch=1 par1=71 par2=64
Channel Event. t= 22 (22205) Note On ch=1 par1=91 par2=102
Channel Event. t= 76 (22281) Note Off ch=1 par1=91 par2=64
Channel Event. t= 24 (22305) Note On ch=1 par1=79 par2=90
Channel Event. t= 9 (22314) Note On ch=1 par1=81 par2=85
Channel Event. t= 19 (22333) Note Off ch=1 par1=79 par2=64
Channel Event. t= 10 (22343) Note Off ch=1 par1=81 par2=64
Channel Event. t= 63 (22406) Note On ch=1 par1=79 par2=98
Channel Event. t= 155 (22561) Note Off ch=1 par1=79 par2=64
Channel Event. t= 39 (22600) Note On ch=1 par1=77 par2=98
Channel Event. t= 95 (22695) Note Off ch=1 par1=77 par2=64
Channel Event. t= 89 (22784) Controller ch=1 par1=10 (Pan) par2=120
Channel Event. t= 58 (22842) Note On ch=1 par1=91 par2=100
Channel Event. t= 46 (22888) Note On ch=1 par1=88 par2=88
Channel Event. t= 19 (22907) Note Off ch=1 par1=91 par2=64
Channel Event. t= 32 (22939) Note On ch=1 par1=84 par2=91
Channel Event. t= 10 (22949) Note Off ch=1 par1=88 par2=64
Channel Event. t= 29 (22978) Note Off ch=1 par1=84 par2=64
Channel Event. t= 56 (23034) Note On ch=1 par1=91 par2=97
Channel Event. t= 36 (23070) Note On ch=1 par1=87 par2=90
Channel Event. t= 23 (23093) Note Off ch=1 par1=91 par2=64
Channel Event. t= 22 (23115) Note On ch=1 par1=83 par2=90
Channel Event. t= 8 (23123) Note Off ch=1 par1=87 par2=64
Channel Event. t= 38 (23161) Note Off ch=1 par1=83 par2=64
Channel Event. t= 57 (23218) Note On ch=1 par1=91 par2=96
Channel Event. t= 44 (23262) Note On ch=1 par1=88 par2=84
Channel Event. t= 16 (23278) Note Off ch=1 par1=91 par2=64
Channel Event. t= 36 (23314) Note On ch=1 par1=84 par2=94
Channel Event. t= 8 (23322) Note Off ch=1 par1=88 par2=64
Channel Event. t= 32 (23354) Note Off ch=1 par1=84 par2=64
Channel Event. t= 64 (23418) Note On ch=1 par1=91 par2=96
Channel Event. t= 42 (23460) Note On ch=1 par1=87 par2=88
Channel Event. t= 9 (23469) Note Off ch=1 par1=91 par2=64
Channel Event. t= 38 (23507) Note On ch=1 par1=83 par2=95
Channel Event. t= 9 (23516) Note Off ch=1 par1=87 par2=64
Channel Event. t= 36 (23552) Note Off ch=1 par1=83 par2=64
Channel Event. t= 0 (23552) Controller ch=1 par1=10 (Pan) par2=20
Channel Event. t= 52 (23604) Note On ch=1 par1=91 par2=102
Channel Event. t= 42 (23646) Note On ch=1 par1=88 par2=83
Channel Event. t= 18 (23664) Note Off ch=1 par1=91 par2=64
Channel Event. t= 28 (23692) Note On ch=1 par1=84 par2=90
Channel Event. t= 12 (23704) Note Off ch=1 par1=88 par2=64
Channel Event. t= 43 (23747) Note Off ch=1 par1=84 par2=64
Channel Event. t= 48 (23795) Note On ch=1 par1=91 par2=96
Channel Event. t= 49 (23844) Note On ch=1 par1=87 par2=94
Channel Event. t= 14 (23858) Note Off ch=1 par1=91 par2=64
Channel Event. t= 36 (23894) Note On ch=1 par1=83 par2=94
Channel Event. t= 4 (23898) Note Off ch=1 par1=87 par2=64
Channel Event. t= 45 (23943) Note Off ch=1 par1=83 par2=64
Channel Event. t= 54 (23997) Note On ch=1 par1=91 par2=94
Channel Event. t= 45 (24042) Note On ch=1 par1=88 par2=87
Channel Event. t= 14 (24056) Note Off ch=1 par1=91 par2=64
Channel Event. t= 36 (24092) Note On ch=1 par1=84 par2=94
Channel Event. t= 12 (24104) Note Off ch=1 par1=88 par2=64
Channel Event. t= 23 (24127) Note Off ch=1 par1=84 par2=64
Channel Event. t= 60 (24187) Note On ch=1 par1=91 par2=83
Channel Event. t= 44 (24231) Note On ch=1 par1=87 par2=94
Channel Event. t= 7 (24238) Note Off ch=1 par1=91 par2=64
Channel Event. t= 40 (24278) Note On ch=1 par1=83 par2=90
Channel Event. t= 3 (24281) Note Off ch=1 par1=87 par2=64
Channel Event. t= 28 (24309) Note Off ch=1 par1=83 par2=64
Channel Event. t= 11 (24320) Controller ch=1 par1=10 (Pan) par2=120
Channel Event. t= 5 (24325) Note On ch=1 par1=91 par2=97
Channel Event. t= 40 (24365) Note On ch=1 par1=86 par2=92
Channel Event. t= 4 (24369) Note Off ch=1 par1=91 par2=64
Channel Event. t= 45 (24414) Note On ch=1 par1=83 par2=94
Channel Event. t= 12 (24426) Note Off ch=1 par1=86 par2=64
Channel Event. t= 32 (24458) Note On ch=1 par1=79 par2=81
Channel Event. t= 4 (24462) Note Off ch=1 par1=83 par2=64
Channel Event. t= 41 (24503) Note On ch=1 par1=78 par2=102
Channel Event. t= 2 (24505) Note Off ch=1 par1=79 par2=64
Channel Event. t= 45 (24550) Note On ch=1 par1=79 par2=73
Channel Event. t= 5 (24555) Note Off ch=1 par1=78 par2=64
Channel Event. t= 44 (24599) Note On ch=1 par1=83 par2=93
Channel Event. t= 5 (24604) Note Off ch=1 par1=79 par2=64
Channel Event. t= 45 (24649) Note On ch=1 par1=86 par2=86
Channel Event. t= 7 (24656) Note Off ch=1 par1=83 par2=64
Channel Event. t= 36 (24692) Note On ch=1 par1=98 par2=93
Channel Event. t= 2 (24694) Note Off ch=1 par1=86 par2=64
Channel Event. t= 43 (24737) Note On ch=1 par1=93 par2=83
Channel Event. t= 1 (24738) Note Off ch=1 par1=98 par2=64
Channel Event. t= 51 (24789) Note On ch=1 par1=90 par2=98
Channel Event. t= 8 (24797) Note Off ch=1 par1=93 par2=64
Channel Event. t= 39 (24836) Note On ch=1 par1=93 par2=90
Channel Event. t= 4 (24840) Note Off ch=1 par1=90 par2=64
Channel Event. t= 44 (24884) Note On ch=1 par1=85 par2=101
Channel Event. t= 5 (24889) Note Off ch=1 par1=93 par2=64
Channel Event. t= 48 (24937) Note On ch=1 par1=86 par2=84
Channel Event. t= 2 (24939) Note Off ch=1 par1=85 par2=64
Channel Event. t= 48 (24987) Note On ch=1 par1=90 par2=101
Channel Event. t= 5 (24992) Note Off ch=1 par1=86 par2=64
Channel Event. t= 42 (25034) Note On ch=1 par1=93 par2=92
Channel Event. t= 4 (25038) Note Off ch=1 par1=90 par2=64
Channel Event. t= 34 (25072) Note Off ch=1 par1=93 par2=64
Channel Event. t= 8 (25080) Note On ch=1 par1=91 par2=92
Channel Event. t= 49 (25129) Note On ch=1 par1=86 par2=100
Channel Event. t= 2 (25131) Note Off ch=1 par1=91 par2=64
Channel Event. t= 48 (25179) Note On ch=1 par1=91 par2=94
Channel Event. t= 10 (25189) Note Off ch=1 par1=86 par2=64
Channel Event. t= 38 (25227) Note On ch=1 par1=95 par2=96
Channel Event. t= 3 (25230) Note Off ch=1 par1=91 par2=64
Channel Event. t= 43 (25273) Note On ch=1 par1=90 par2=99
Channel Event. t= 1 (25274) Note Off ch=1 par1=95 par2=64
Channel Event. t= 46 (25320) Note On ch=1 par1=91 par2=88
Channel Event. t= 8 (25328) Note Off ch=1 par1=90 par2=64
Channel Event. t= 42 (25370) Note On ch=1 par1=95 par2=92
Channel Event. t= 5 (25375) Note Off ch=1 par1=91 par2=64
Channel Event. t= 45 (25420) Note On ch=1 par1=98 par2=91
Channel Event. t= 4 (25424) Note Off ch=1 par1=95 par2=64
Channel Event. t= 49 (25473) Note On ch=1 par1=103 par2=108
Channel Event. t= 4 (25477) Note Off ch=1 par1=98 par2=64
Channel Event. t= 15 (25492) Note Off ch=1 par1=103 par2=64
Channel Event. t= 2932 (28424) Controller ch=1 par1=10 (Pan) par2=20
Channel Event. t= 122 (28546) Note On ch=1 par1=91 par2=95
Channel Event. t= 4 (28550) Note On ch=1 par1=89 par2=100
Channel Event. t= 11 (28561) Note Off ch=1 par1=91 par2=64
Channel Event. t= 5 (28566) Note Off ch=1 par1=89 par2=64
Channel Event. t= 167 (28733) Note On ch=1 par1=91 par2=90
Channel Event. t= 5 (28738) Note On ch=1 par1=89 par2=98
Channel Event. t= 10 (28748) Note Off ch=1 par1=91 par2=64
Channel Event. t= 5 (28753) Note Off ch=1 par1=89 par2=64
Channel Event. t= 391 (29144) Controller ch=1 par1=10 (Pan) par2=120
Channel Event. t= 159 (29303) Note On ch=1 par1=91 par2=94
Channel Event. t= 7 (29310) Note On ch=1 par1=89 par2=98
Channel Event. t= 10 (29320) Note Off ch=1 par1=91 par2=64
Channel Event. t= 6 (29326) Note Off ch=1 par1=89 par2=64
Channel Event. t= 174 (29500) Note On ch=1 par1=91 par2=96
Channel Event. t= 4 (29504) Note On ch=1 par1=89 par2=100
Channel Event. t= 12 (29516) Note Off ch=1 par1=91 par2=64
Channel Event. t= 20 (29536) Note Off ch=1 par1=89 par2=64
Channel Event. t= 1696 (31232) Controller ch=1 par1=10 (Pan) par2=20
Channel Event. t= 189 (31421) Note On ch=1 par1=88 par2=95
Channel Event. t= 4 (31425) Note On ch=1 par1=89 par2=91
Channel Event. t= 29 (31454) Note Off ch=1 par1=88 par2=64
Channel Event. t= 63 (31517) Note On ch=1 par1=80 par2=98
Channel Event. t= 5 (31522) Note Off ch=1 par1=89 par2=64
Channel Event. t= 14 (31536) Note Off ch=1 par1=80 par2=64
Channel Event. t= 30 (31566) Note On ch=1 par1=77 par2=97
Channel Event. t= 20 (31586) Note Off ch=1 par1=77 par2=64
Channel Event. t= 402 (31988) Controller ch=1 par1=10 (Pan) par2=120
Channel Event. t= 12 (32000) Note On ch=1 par1=85 par2=100
Channel Event. t= 48 (32048) Note Off ch=1 par1=85 par2=64
Channel Event. t= 0 (32048) Note On ch=1 par1=89 par2=93
Channel Event. t= 48 (32096) Note On ch=1 par1=85 par2=74
Channel Event. t= 41 (32137) Note Off ch=1 par1=89 par2=64
Channel Event. t= 7 (32144) Note On ch=1 par1=77 par2=91
Channel Event. t= 24 (32168) Note Off ch=1 par1=85 par2=64
Channel Event. t= 16 (32184) Note Off ch=1 par1=77 par2=64
Channel Event. t= 8 (32192) Note On ch=1 par1=85 par2=105
Channel Event. t= 43 (32235) Note Off ch=1 par1=85 par2=64
Channel Event. t= 5 (32240) Note On ch=1 par1=89 par2=87
Channel Event. t= 48 (32288) Note On ch=1 par1=85 par2=95
Channel Event. t= 7 (32295) Note Off ch=1 par1=89 par2=64
Channel Event. t= 41 (32336) Note On ch=1 par1=77 par2=91
Channel Event. t= 24 (32360) Note Off ch=1 par1=85 par2=64
Channel Event. t= 24 (32384) Note On ch=1 par1=85 par2=101
Channel Event. t= 1 (32385) Note Off ch=1 par1=77 par2=64
Channel Event. t= 46 (32431) Note Off ch=1 par1=85 par2=64
Channel Event. t= 1 (32432) Note On ch=1 par1=89 par2=87
Channel Event. t= 48 (32480) Note On ch=1 par1=85 par2=93
Channel Event. t= 6 (32486) Note Off ch=1 par1=89 par2=64
Channel Event. t= 42 (32528) Note On ch=1 par1=80 par2=95
Channel Event. t= 32 (32560) Note Off ch=1 par1=85 par2=64
Channel Event. t= 16 (32576) Note On ch=1 par1=77 par2=84
Channel Event. t= 4 (32580) Note Off ch=1 par1=80 par2=64
Channel Event. t= 44 (32624) Note On ch=1 par1=73 par2=85
Channel Event. t= 8 (32632) Note Off ch=1 par1=77 par2=64
Channel Event. t= 40 (32672) Note On ch=1 par1=68 par2=80
Channel Event. t= 48 (32720) Note Off ch=1 par1=68 par2=64
Channel Event. t= 0 (32720) Note On ch=1 par1=65 par2=88
Channel Event. t= 12 (32732) Note Off ch=1 par1=73 par2=64
Channel Event. t= 36 (32768) Note On ch=1 par1=68 par2=95
Channel Event. t= 1 (32769) Note Off ch=1 par1=65 par2=64
Channel Event. t= 51 (32820) Note Off ch=1 par1=68 par2=64
Channel Event. t= 932 (33752) Controller ch=1 par1=10 (Pan) par2=20
Channel Event. t= 72 (33824) Controller ch=1 par1=7 (Pan) par2=70
Channel Event. t= 103 (33927) Note On ch=1 par1=63 par2=108
Channel Event. t= 25 (33952) Note On ch=1 par1=68 par2=98
Channel Event. t= 32 (33984) Note On ch=1 par1=72 par2=96
Channel Event. t= 5 (33989) Note Off ch=1 par1=63 par2=64
Channel Event. t= 22 (34011) Note Off ch=1 par1=68 par2=64
Channel Event. t= 5 (34016) Note On ch=1 par1=75 par2=111
Channel Event. t= 32 (34048) Note On ch=1 par1=80 par2=106
Channel Event. t= 22 (34070) Note Off ch=1 par1=72 par2=64
Channel Event. t= 10 (34080) Note On ch=1 par1=84 par2=104
Channel Event. t= 6 (34086) Note Off ch=1 par1=75 par2=64
Channel Event. t= 23 (34109) Note Off ch=1 par1=80 par2=64
Channel Event. t= 3 (34112) Note On ch=1 par1=87 par2=99
Channel Event. t= 44 (34156) Note Off ch=1 par1=87 par2=64
Channel Event. t= 6 (34162) Note Off ch=1 par1=84 par2=64
Channel Event. t= 14 (34176) Note On ch=1 par1=87 par2=88
Channel Event. t= 41 (34217) Note Off ch=1 par1=87 par2=64
Channel Event. t= 23 (34240) Note On ch=1 par1=87 par2=92
Channel Event. t= 68 (34308) Note Off ch=1 par1=87 par2=64
Channel Event. t= 1532 (35840) Controller ch=1 par1=10 (Pan) par2=120
Channel Event. t= 96 (35936) Note On ch=1 par1=88 par2=105
Channel Event. t= 24 (35960) Note On ch=1 par1=86 par2=86
Channel Event. t= 24 (35984) Note On ch=1 par1=84 par2=84
Channel Event. t= 3 (35987) Note Off ch=1 par1=88 par2=64
Channel Event. t= 21 (36008) Note On ch=1 par1=83 par2=91
Channel Event. t= 5 (36013) Note Off ch=1 par1=86 par2=64
Channel Event. t= 3 (36016) Note Off ch=1 par1=84 par2=64
Channel Event. t= 16 (36032) Note On ch=1 par1=82 par2=107
Channel Event. t= 3 (36035) Note Off ch=1 par1=83 par2=64
Channel Event. t= 14 (36049) Note Off ch=1 par1=82 par2=64
Channel Event. t= 7 (36056) Note On ch=1 par1=79 par2=89
Channel Event. t= 24 (36080) Note On ch=1 par1=83 par2=85
Channel Event. t= 9 (36089) Note Off ch=1 par1=79 par2=64
Channel Event. t= 15 (36104) Note On ch=1 par1=87 par2=102
Channel Event. t= 17 (36121) Note Off ch=1 par1=83 par2=64
Channel Event. t= 1 (36122) Note Off ch=1 par1=87 par2=64
Channel Event. t= 6 (36128) Note On ch=1 par1=88 par2=112
Channel Event. t= 24 (36152) Note On ch=1 par1=86 par2=93
Channel Event. t= 24 (36176) Note On ch=1 par1=84 par2=103
Channel Event. t= 1 (36177) Note Off ch=1 par1=88 par2=64
Channel Event. t= 20 (36197) Note Off ch=1 par1=86 par2=64
Channel Event. t= 3 (36200) Note On ch=1 par1=83 par2=94
Channel Event. t= 1 (36201) Note Off ch=1 par1=84 par2=64
Channel Event. t= 23 (36224) Note On ch=1 par1=82 par2=99
Channel Event. t= 5 (36229) Note Off ch=1 par1=83 par2=64
Channel Event. t= 15 (36244) Note Off ch=1 par1=82 par2=64
Channel Event. t= 4 (36248) Note On ch=1 par1=79 par2=92
Channel Event. t= 24 (36272) Note On ch=1 par1=83 par2=89
Channel Event. t= 4 (36276) Note Off ch=1 par1=79 par2=64
Channel Event. t= 20 (36296) Note On ch=1 par1=87 par2=91
Channel Event. t= 14 (36310) Note Off ch=1 par1=83 par2=64
Channel Event. t= 5 (36315) Note Off ch=1 par1=87 par2=64
Channel Event. t= 5 (36320) Note On ch=1 par1=88 par2=114
Channel Event. t= 24 (36344) Note On ch=1 par1=86 par2=92
Channel Event. t= 21 (36365) Note Off ch=1 par1=88 par2=64
Channel Event. t= 3 (36368) Note On ch=1 par1=84 par2=93
Channel Event. t= 21 (36389) Note Off ch=1 par1=86 par2=64
Channel Event. t= 3 (36392) Note On ch=1 par1=83 par2=86
Channel Event. t= 2 (36394) Note Off ch=1 par1=84 par2=64
Channel Event. t= 22 (36416) Note On ch=1 par1=82 par2=116
Channel Event. t= 8 (36424) Note Off ch=1 par1=83 par2=64
Channel Event. t= 24 (36448) Note Off ch=1 par1=82 par2=64
Channel Event. t= 8955 (45403) Note On ch=1 par1=90 par2=75
Channel Event. t= 11 (45414) Note On ch=1 par1=89 par2=74
Channel Event. t= 19 (45433) Note Off ch=1 par1=90 par2=64
Channel Event. t= 34 (45467) Note Off ch=1 par1=89 par2=64
Channel Event. t= 48 (45515) Note On ch=1 par1=89 par2=85
Channel Event. t= 29 (45544) Note Off ch=1 par1=89 par2=64
Channel Event. t= 77 (45621) Note On ch=1 par1=89 par2=95
Channel Event. t= 178 (45799) Note Off ch=1 par1=89 par2=64
Channel Event. t= 17 (45816) Note On ch=1 par1=90 par2=80
Channel Event. t= 7 (45823) Note On ch=1 par1=89 par2=75
Channel Event. t= 36 (45859) Note Off ch=1 par1=90 par2=64
Channel Event. t= 28 (45887) Note Off ch=1 par1=89 par2=64
Channel Event. t= 24 (45911) Note On ch=1 par1=89 par2=82
Channel Event. t= 67 (45978) Note Off ch=1 par1=89 par2=64
Channel Event. t= 28 (46006) Note On ch=1 par1=89 par2=84
Channel Event. t= 34 (46040) Note Off ch=1 par1=89 par2=64
Channel Event. t= 5 (46045) Note On ch=1 par1=90 par2=75
Channel Event. t= 35 (46080) Note Off ch=1 par1=90 par2=64
Channel Event. t= 8 (46088) Note On ch=1 par1=89 par2=64
Channel Event. t= 45 (46133) Note Off ch=1 par1=89 par2=64
Channel Event. t= 2 (46135) Note On ch=1 par1=88 par2=70
Channel Event. t= 36 (46171) Note Off ch=1 par1=88 par2=64
Channel Event. t= 29 (46200) Note On ch=1 par1=77 par2=52
Channel Event. t= 96 (46296) Note Off ch=1 par1=77 par2=64
Channel Event. t= 1832 (48128) Controller ch=1 par1=10 (Pan) par2=20
Channel Event. t= 2400 (50528) Controller ch=1 par1=7 (Pan) par2=90
Channel Event. t= 56 (50584) Note On ch=1 par1=90 par2=77
Channel Event. t= 17 (50601) Note On ch=1 par1=89 par2=76
Channel Event. t= 18 (50619) Note Off ch=1 par1=90 par2=64
Channel Event. t= 34 (50653) Note Off ch=1 par1=89 par2=64
Channel Event. t= 52 (50705) Note On ch=1 par1=89 par2=79
Channel Event. t= 29 (50734) Note Off ch=1 par1=89 par2=64
Channel Event. t= 70 (50804) Note On ch=1 par1=89 par2=95
Channel Event. t= 140 (50944) Note Off ch=1 par1=89 par2=64
Channel Event. t= 25 (50969) Note On ch=1 par1=90 par2=71
Channel Event. t= 19 (50988) Note On ch=1 par1=89 par2=68
Channel Event. t= 12 (51000) Note Off ch=1 par1=90 par2=64
Channel Event. t= 34 (51034) Note Off ch=1 par1=89 par2=64
Channel Event. t= 52 (51086) Note On ch=1 par1=89 par2=89
Channel Event. t= 52 (51138) Note Off ch=1 par1=89 par2=64
Channel Event. t= 51 (51189) Note On ch=1 par1=89 par2=88
Channel Event. t= 43 (51232) Note On ch=1 par1=90 par2=78
Channel Event. t= 1 (51233) Note Off ch=1 par1=89 par2=64
Channel Event. t= 45 (51278) Note On ch=1 par1=89 par2=73
Channel Event. t= 18 (51296) Note Off ch=1 par1=90 par2=64
Channel Event. t= 28 (51324) Note On ch=1 par1=88 par2=87
Channel Event. t= 6 (51330) Note Off ch=1 par1=89 par2=64
Channel Event. t= 62 (51392) Note Off ch=1 par1=88 par2=64
Channel Event. t= 96 (51488) Controller ch=1 par1=10 (Pan) par2=120
Channel Event. t= 93 (51581) Note On ch=1 par1=89 par2=94
Channel Event. t= 26 (51607) Note On ch=1 par1=86 par2=66
Channel Event. t= 22 (51629) Note On ch=1 par1=82 par2=75
Channel Event. t= 20 (51649) Note On ch=1 par1=77 par2=75
Channel Event. t= 7 (51656) Note Off ch=1 par1=86 par2=64
Channel Event. t= 4 (51660) Note Off ch=1 par1=82 par2=64
Channel Event. t= 2 (51662) Note Off ch=1 par1=89 par2=64
Channel Event. t= 1 (51663) Note Off ch=1 par1=77 par2=64
Channel Event. t= 6 (51669) Note On ch=1 par1=74 par2=81
Channel Event. t= 25 (51694) Note On ch=1 par1=77 par2=63
Channel Event. t= 15 (51709) Note Off ch=1 par1=74 par2=64
Channel Event. t= 3 (51712) Note On ch=1 par1=82 par2=53
Channel Event. t= 15 (51727) Note Off ch=1 par1=77 par2=64
Channel Event. t= 6 (51733) Note On ch=1 par1=86 par2=68
Channel Event. t= 19 (51752) Note Off ch=1 par1=82 par2=64
Channel Event. t= 0 (51752) Note Off ch=1 par1=86 par2=64
Channel Event. t= 5 (51757) Note On ch=1 par1=89 par2=93
Channel Event. t= 23 (51780) Note On ch=1 par1=86 par2=70
Channel Event. t= 24 (51804) Note On ch=1 par1=82 par2=68
Channel Event. t= 23 (51827) Note On ch=1 par1=77 par2=69
Channel Event. t= 9 (51836) Note Off ch=1 par1=89 par2=64
Channel Event. t= 6 (51842) Note Off ch=1 par1=86 par2=64
Channel Event. t= 6 (51848) Note Off ch=1 par1=82 par2=64
Channel Event. t= 3 (51851) Note Off ch=1 par1=77 par2=64
Channel Event. t= 1 (51852) Note On ch=1 par1=74 par2=85
Channel Event. t= 24 (51876) Note On ch=1 par1=77 par2=72
Channel Event. t= 11 (51887) Note Off ch=1 par1=74 par2=64
Channel Event. t= 14 (51901) Note On ch=1 par1=82 par2=41
Channel Event. t= 21 (51922) Note On ch=1 par1=86 par2=74
Channel Event. t= 17 (51939) Note Off ch=1 par1=77 par2=64
Channel Event. t= 4 (51943) Note Off ch=1 par1=86 par2=64
Channel Event. t= 3 (51946) Note Off ch=1 par1=82 par2=64
Channel Event. t= 3 (51949) Note On ch=1 par1=89 par2=89
Channel Event. t= 23 (51972) Note On ch=1 par1=86 par2=69
Channel Event. t= 27 (51999) Note On ch=1 par1=82 par2=66
Channel Event. t= 25 (52024) Note On ch=1 par1=77 par2=61
Channel Event. t= 25 (52049) Note Off ch=1 par1=82 par2=64
Channel Event. t= 0 (52049) Note Off ch=1 par1=77 par2=64
Channel Event. t= 4 (52053) Note On ch=1 par1=74 par2=87
Channel Event. t= 2 (52055) Note Off ch=1 par1=86 par2=64
Channel Event. t= 6 (52061) Note Off ch=1 par1=89 par2=64
Channel Event. t= 18 (52079) Note On ch=1 par1=77 par2=66
Channel Event. t= 2 (52081) Note Off ch=1 par1=74 par2=64
Channel Event. t= 21 (52102) Note Off ch=1 par1=77 par2=64
Channel Event. t= 2 (52104) Note On ch=1 par1=74 par2=62
Channel Event. t= 20 (52124) Note On ch=1 par1=70 par2=72
Channel Event. t= 2 (52126) Note Off ch=1 par1=74 par2=64
Channel Event. t= 26 (52152) Note Off ch=1 par1=70 par2=64
Channel Event. t= 0 (52152) Note On ch=1 par1=65 par2=83
Channel Event. t= 101 (52253) Note Off ch=1 par1=65 par2=64
Channel Event. t= 77 (52330) Note On ch=1 par1=89 par2=97
Channel Event. t= 27 (52357) Note On ch=1 par1=91 par2=75
Channel Event. t= 1 (52358) Note Off ch=1 par1=89 par2=64
Channel Event. t= 25 (52383) Note On ch=1 par1=89 par2=74
Channel Event. t= 5 (52388) Note Off ch=1 par1=91 par2=64
Channel Event. t= 19 (52407) Note On ch=1 par1=84 par2=69
Channel Event. t= 2 (52409) Note Off ch=1 par1=89 par2=64
Channel Event. t= 25 (52434) Note On ch=1 par1=89 par2=74
Channel Event. t= 4 (52438) Note Off ch=1 par1=84 par2=64
Channel Event. t= 20 (52458) Note On ch=1 par1=91 par2=78
Channel Event. t= 3 (52461) Note Off ch=1 par1=89 par2=64
Channel Event. t= 21 (52482) Note On ch=1 par1=89 par2=62
Channel Event. t= 5 (52487) Note Off ch=1 par1=91 par2=64
Channel Event. t= 20 (52507) Note On ch=1 par1=84 par2=75
Channel Event. t= 4 (52511) Note Off ch=1 par1=89 par2=64
Channel Event. t= 22 (52533) Note On ch=1 par1=89 par2=85
Channel Event. t= 3 (52536) Note Off ch=1 par1=84 par2=64
Channel Event. t= 84 (52620) Note Off ch=1 par1=89 par2=64
Channel Event. t= 1461 (54081) Note On ch=1 par1=89 par2=89
Channel Event. t= 0 (54081) Controller ch=1 par1=10 (Pan) par2=20
Channel Event. t= 25 (54106) Note On ch=1 par1=86 par2=74
Channel Event. t= 20 (54126) Note On ch=1 par1=82 par2=72
Channel Event. t= 11 (54137) Note Off ch=1 par1=89 par2=64
Channel Event. t= 10 (54147) Note Off ch=1 par1=86 par2=64
Channel Event. t= 0 (54147) Note On ch=1 par1=77 par2=74
Channel Event. t= 14 (54161) Note Off ch=1 par1=82 par2=64
Channel Event. t= 2 (54163) Note Off ch=1 par1=77 par2=64
Channel Event. t= 5 (54168) Note On ch=1 par1=74 par2=85
Channel Event. t= 26 (54194) Note On ch=1 par1=77 par2=74
Channel Event. t= 13 (54207) Note Off ch=1 par1=74 par2=64
Channel Event. t= 8 (54215) Note On ch=1 par1=82 par2=50
Channel Event. t= 16 (54231) Note Off ch=1 par1=77 par2=64
Channel Event. t= 12 (54243) Note On ch=1 par1=86 par2=76
Channel Event. t= 11 (54254) Note Off ch=1 par1=82 par2=64
Channel Event. t= 4 (54258) Note Off ch=1 par1=86 par2=64
Channel Event. t= 10 (54268) Note On ch=1 par1=89 par2=100
Channel Event. t= 32 (54300) Note On ch=1 par1=86 par2=68
Channel Event. t= 23 (54323) Note On ch=1 par1=82 par2=68
Channel Event. t= 22 (54345) Note On ch=1 par1=77 par2=74
Channel Event. t= 13 (54358) Note Off ch=1 par1=86 par2=64
Channel Event. t= 1 (54359) Note Off ch=1 par1=82 par2=64
Channel Event. t= 9 (54368) Note Off ch=1 par1=89 par2=64
Channel Event. t= 9 (54377) Note On ch=1 par1=74 par2=74
Channel Event. t= 3 (54380) Note Off ch=1 par1=77 par2=64
Channel Event. t= 26 (54406) Note On ch=1 par1=70 par2=77
Channel Event. t= 3 (54409) Note Off ch=1 par1=74 par2=64
Channel Event. t= 37 (54446) Note Off ch=1 par1=70 par2=64
Channel Event. t= 1 (54447) Note On ch=1 par1=65 par2=93
Channel Event. t= 102 (54549) Note Off ch=1 par1=65 par2=64
Channel Event. t= 97 (54646) Note On ch=1 par1=89 par2=97
Channel Event. t= 23 (54669) Note Off ch=1 par1=89 par2=64
Channel Event. t= 0 (54669) Note On ch=1 par1=91 par2=67
Channel Event. t= 24 (54693) Note On ch=1 par1=89 par2=72
Channel Event. t= 5 (54698) Note Off ch=1 par1=91 par2=64
Channel Event. t= 19 (54717) Note On ch=1 par1=84 par2=81
Channel Event. t= 1 (54718) Note Off ch=1 par1=89 par2=64
Channel Event. t= 25 (54743) Note On ch=1 par1=89 par2=75
Channel Event. t= 6 (54749) Note Off ch=1 par1=84 par2=64
Channel Event. t= 20 (54769) Note On ch=1 par1=91 par2=74
Channel Event. t= 2 (54771) Note Off ch=1 par1=89 par2=64
Channel Event. t= 22 (54793) Note On ch=1 par1=89 par2=63
Channel Event. t= 6 (54799) Note Off ch=1 par1=91 par2=64
Channel Event. t= 19 (54818) Note On ch=1 par1=84 par2=76
Channel Event. t= 1 (54819) Note Off ch=1 par1=89 par2=64
Channel Event. t= 27 (54846) Note On ch=1 par1=89 par2=92
Channel Event. t= 3 (54849) Note Off ch=1 par1=84 par2=64
Channel Event. t= 96 (54945) Note Off ch=1 par1=89 par2=64
Channel Event. t= 143 (55088) Controller ch=1 par1=7 (Main Volume) par2=70
Channel Event. t= 125 (55213) Note On ch=1 par1=90 par2=67
Channel Event. t= 9 (55222) Note On ch=1 par1=89 par2=72
Channel Event. t= 8 (55230) Note Off ch=1 par1=90 par2=64
Channel Event. t= 22 (55252) Note Off ch=1 par1=89 par2=64
Channel Event. t= 61 (55313) Note On ch=1 par1=89 par2=71
Channel Event. t= 16 (55329) Note Off ch=1 par1=89 par2=64
Channel Event. t= 76 (55405) Note On ch=1 par1=89 par2=86
Channel Event. t= 152 (55557) Note Off ch=1 par1=89 par2=64
Channel Event. t= 42 (55599) Note On ch=1 par1=90 par2=83
Channel Event. t= 9 (55608) Note On ch=1 par1=89 par2=75
Channel Event. t= 13 (55621) Note Off ch=1 par1=90 par2=64
Channel Event. t= 8 (55629) Note Off ch=1 par1=89 par2=64
Channel Event. t= 70 (55699) Note On ch=1 par1=89 par2=80
Channel Event. t= 35 (55734) Note Off ch=1 par1=89 par2=64
Channel Event. t= 64 (55798) Note On ch=1 par1=89 par2=91
Channel Event. t= 44 (55842) Note On ch=1 par1=91 par2=69
Channel Event. t= 2 (55844) Note Off ch=1 par1=89 par2=64
Channel Event. t= 37 (55881) Note Off ch=1 par1=91 par2=64
Channel Event. t= 8 (55889) Note On ch=1 par1=89 par2=75
Channel Event. t= 16 (55905) Note Off ch=1 par1=89 par2=64
Channel Event. t= 31 (55936) Note On ch=1 par1=88 par2=71
Channel Event. t= 8 (55944) Note Off ch=1 par1=88 par2=64
Channel Event. t= 63 (56007) Note On ch=1 par1=77 par2=58
Channel Event. t= 83 (56090) Note Off ch=1 par1=77 par2=64
Channel Event. t= 863 (56953) Controller ch=1 par1=10 (Pan) par2=120
Channel Event. t= 487 (57440) Controller ch=1 par1=7 (Pan) par2=75
Channel Event. t= 281 (57721) Note On ch=1 par1=89 par2=83
Channel Event. t= 23 (57744) Note On ch=1 par1=86 par2=70
Channel Event. t= 7 (57751) Note Off ch=1 par1=89 par2=64
Channel Event. t= 18 (57769) Note Off ch=1 par1=86 par2=64
Channel Event. t= 7 (57776) Note On ch=1 par1=82 par2=68
Channel Event. t= 24 (57800) Note On ch=1 par1=77 par2=79
Channel Event. t= 8 (57808) Note Off ch=1 par1=82 par2=64
Channel Event. t= 16 (57824) Note Off ch=1 par1=77 par2=64
Channel Event. t= 0 (57824) Note On ch=1 par1=74 par2=56
Channel Event. t= 24 (57848) Note Off ch=1 par1=74 par2=64
Channel Event. t= 0 (57848) Note On ch=1 par1=77 par2=84
Channel Event. t= 24 (57872) Note On ch=1 par1=74 par2=64
Channel Event. t= 7 (57879) Note Off ch=1 par1=77 par2=64
Channel Event. t= 20 (57899) Note Off ch=1 par1=74 par2=64
Channel Event. t= 9 (57908) Note On ch=1 par1=65 par2=93
Channel Event. t= 77 (57985) Note Off ch=1 par1=65 par2=64
Channel Event. t= 113 (58098) Note On ch=1 par1=89 par2=79
Channel Event. t= 23 (58121) Note On ch=1 par1=91 par2=70
Channel Event. t= 3 (58124) Note Off ch=1 par1=89 par2=64
Channel Event. t= 26 (58150) Note On ch=1 par1=89 par2=82
Channel Event. t= 6 (58156) Note Off ch=1 par1=91 par2=64
Channel Event. t= 17 (58173) Note On ch=1 par1=84 par2=63
Channel Event. t= 1 (58174) Note Off ch=1 par1=89 par2=64
Channel Event. t= 26 (58200) Note On ch=1 par1=89 par2=70
Channel Event. t= 7 (58207) Note Off ch=1 par1=84 par2=64
Channel Event. t= 17 (58224) Note On ch=1 par1=91 par2=61
Channel Event. t= 2 (58226) Note Off ch=1 par1=89 par2=64
Channel Event. t= 22 (58248) Note On ch=1 par1=89 par2=58
Channel Event. t= 6 (58254) Note Off ch=1 par1=91 par2=64
Channel Event. t= 16 (58270) Note Off ch=1 par1=89 par2=64
Channel Event. t= 1 (58271) Note On ch=1 par1=84 par2=57
Channel Event. t= 25 (58296) Note On ch=1 par1=89 par2=80
Channel Event. t= 6 (58302) Note Off ch=1 par1=84 par2=64
Channel Event. t= 100 (58402) Note Off ch=1 par1=89 par2=64
Channel Event. t= 85 (58487) Note On ch=1 par1=89 par2=90
Channel Event. t= 22 (58509) Note On ch=1 par1=86 par2=71
Channel Event. t= 19 (58528) Note On ch=1 par1=82 par2=74
Channel Event. t= 15 (58543) Note Off ch=1 par1=89 par2=64
Channel Event. t= 8 (58551) Note On ch=1 par1=77 par2=65
Channel Event. t= 8 (58559) Note Off ch=1 par1=86 par2=64
Channel Event. t= 5 (58564) Note Off ch=1 par1=82 par2=64
Channel Event. t= 5 (58569) Note Off ch=1 par1=77 par2=64
Channel Event. t= 4 (58573) Note On ch=1 par1=74 par2=77
Channel Event. t= 25 (58598) Note On ch=1 par1=77 par2=66
Channel Event. t= 13 (58611) Note Off ch=1 par1=74 par2=64
Channel Event. t= 8 (58619) Note On ch=1 par1=82 par2=61
Channel Event. t= 24 (58643) Note On ch=1 par1=86 par2=33
Channel Event. t= 5 (58648) Note Off ch=1 par1=77 par2=64
Channel Event. t= 11 (58659) Note Off ch=1 par1=86 par2=64
Channel Event. t= 4 (58663) Note Off ch=1 par1=82 par2=64
Channel Event. t= 3 (58666) Note On ch=1 par1=89 par2=96
Channel Event. t= 24 (58690) Note On ch=1 par1=86 par2=69
Channel Event. t= 23 (58713) Note On ch=1 par1=82 par2=68
Channel Event. t= 23 (58736) Note On ch=1 par1=77 par2=62
Channel Event. t= 2 (58738) Note Off ch=1 par1=89 par2=64
Channel Event. t= 12 (58750) Note Off ch=1 par1=86 par2=64
Channel Event. t= 11 (58761) Note Off ch=1 par1=82 par2=64
Channel Event. t= 1 (58762) Note Off ch=1 par1=77 par2=64
Channel Event. t= 0 (58762) Note On ch=1 par1=74 par2=78
Channel Event. t= 27 (58789) Note On ch=1 par1=77 par2=69
Channel Event. t= 20 (58809) Note On ch=1 par1=82 par2=55
Channel Event. t= 8 (58817) Note Off ch=1 par1=74 par2=64
Channel Event. t= 17 (58834) Note On ch=1 par1=86 par2=73
Channel Event. t= 10 (58844) Note Off ch=1 par1=77 par2=64
Channel Event. t= 8 (58852) Note Off ch=1 par1=86 par2=64
Channel Event. t= 6 (58858) Note On ch=1 par1=89 par2=95
Channel Event. t= 2 (58860) Note Off ch=1 par1=82 par2=64
Channel Event. t= 24 (58884) Note On ch=1 par1=86 par2=66
Channel Event. t= 26 (58910) Note On ch=1 par1=82 par2=70
Channel Event. t= 25 (58935) Note On ch=1 par1=77 par2=68
Channel Event. t= 28 (58963) Note On ch=1 par1=74 par2=84
Channel Event. t= 1 (58964) Note Off ch=1 par1=77 par2=64
Channel Event. t= 6 (58970) Note Off ch=1 par1=82 par2=64
Channel Event. t= 7 (58977) Note Off ch=1 par1=86 par2=64
Channel Event. t= 13 (58990) Note On ch=1 par1=77 par2=66
Channel Event. t= 1 (58991) Note Off ch=1 par1=74 par2=64
Channel Event. t= 4 (58995) Note Off ch=1 par1=89 par2=64
Channel Event. t= 20 (59015) Note On ch=1 par1=74 par2=68
Channel Event. t= 2 (59017) Note Off ch=1 par1=77 par2=64
Channel Event. t= 19 (59036) Note On ch=1 par1=70 par2=75
Channel Event. t= 3 (59039) Note Off ch=1 par1=74 par2=64
Channel Event. t= 24 (59063) Note Off ch=1 par1=70 par2=64
Channel Event. t= 2 (59065) Note On ch=1 par1=65 par2=66
Channel Event. t= 0 (59065) Note On ch=1 par1=67 par2=61
Channel Event. t= 7 (59072) Note Off ch=1 par1=67 par2=64
Channel Event. t= 98 (59170) Note Off ch=1 par1=65 par2=64
Channel Event. t= 80 (59250) Note On ch=1 par1=89 par2=91
Channel Event. t= 24 (59274) Note On ch=1 par1=91 par2=74
Channel Event. t= 1 (59275) Note Off ch=1 par1=89 par2=64
Channel Event. t= 22 (59297) Note On ch=1 par1=89 par2=61
Channel Event. t= 5 (59302) Note Off ch=1 par1=91 par2=64
Channel Event. t= 19 (59321) Note On ch=1 par1=84 par2=64
Channel Event. t= 1 (59322) Note Off ch=1 par1=89 par2=64
Channel Event. t= 23 (59345) Note On ch=1 par1=89 par2=69
Channel Event. t= 1 (59346) Note Off ch=1 par1=84 par2=64
Channel Event. t= 22 (59368) Note On ch=1 par1=91 par2=63
Channel Event. t= 1 (59369) Note Off ch=1 par1=89 par2=64
Channel Event. t= 25 (59394) Note On ch=1 par1=89 par2=64
Channel Event. t= 4 (59398) Note Off ch=1 par1=91 par2=64
Channel Event. t= 19 (59417) Note Off ch=1 par1=89 par2=64
Channel Event. t= 0 (59417) Note On ch=1 par1=84 par2=64
Channel Event. t= 29 (59446) Note On ch=1 par1=89 par2=84
Channel Event. t= 2 (59448) Note Off ch=1 par1=84 par2=64
Channel Event. t= 104 (59552) Note Off ch=1 par1=89 par2=64
Channel Event. t= 88 (59640) Note On ch=1 par1=89 par2=94
Channel Event. t= 8 (59648) Controller ch=1 par1=7 (Main Volume) par2=69
Channel Event. t= 18 (59666) Note On ch=1 par1=86 par2=78
Channel Event. t= 20 (59686) Note On ch=1 par1=82 par2=80
Channel Event. t= 7 (59693) Note Off ch=1 par1=89 par2=64
Channel Event. t= 15 (59708) Note On ch=1 par1=77 par2=66
Channel Event. t= 4 (59712) Note Off ch=1 par1=86 par2=64
Channel Event. t= 8 (59720) Controller ch=1 par1=7 (Main Volume) par2=68
Channel Event. t= 4 (59724) Note Off ch=1 par1=82 par2=64
Channel Event. t= 8 (59732) Note Off ch=1 par1=77 par2=64
Channel Event. t= 0 (59732) Note On ch=1 par1=74 par2=73
Channel Event. t= 26 (59758) Note On ch=1 par1=77 par2=66
Channel Event. t= 21 (59779) Note On ch=1 par1=82 par2=61
Channel Event. t= 6 (59785) Note Off ch=1 par1=74 par2=64
Channel Event. t= 7 (59792) Controller ch=1 par1=7 (Main Volume) par2=67
Channel Event. t= 11 (59803) Note On ch=1 par1=86 par2=74
Channel Event. t= 17 (59820) Note Off ch=1 par1=86 par2=64
Channel Event. t= 1 (59821) Note Off ch=1 par1=77 par2=64
Channel Event. t= 6 (59827) Note Off ch=1 par1=82 par2=64
Channel Event. t= 0 (59827) Note On ch=1 par1=89 par2=92
Channel Event. t= 13 (59840) Controller ch=1 par1=7 (Main Volume) par2=66
Channel Event. t= 12 (59852) Note On ch=1 par1=86 par2=68
Channel Event. t= 23 (59875) Note On ch=1 par1=82 par2=71
Channel Event. t= 25 (59900) Note On ch=1 par1=77 par2=68
Channel Event. t= 8 (59908) Note Off ch=1 par1=89 par2=64
Channel Event. t= 4 (59912) Controller ch=1 par1=7 (Main Volume) par2=65
Channel Event. t= 14 (59926) Note On ch=1 par1=74 par2=82
Channel Event. t= 5 (59931) Note Off ch=1 par1=77 par2=64
Channel Event. t= 1 (59932) Note Off ch=1 par1=86 par2=64
Channel Event. t= 0 (59932) Note Off ch=1 par1=82 par2=64
Channel Event. t= 21 (59953) Note On ch=1 par1=77 par2=64
Channel Event. t= 7 (59960) Controller ch=1 par1=7 (Main Volume) par2=64
Channel Event. t= 16 (59976) Note On ch=1 par1=82 par2=63
Channel Event. t= 6 (59982) Note Off ch=1 par1=74 par2=64
Channel Event. t= 10 (59992) Note Off ch=1 par1=77 par2=64
Channel Event. t= 10 (60002) Note On ch=1 par1=86 par2=75
Channel Event. t= 18 (60020) Note Off ch=1 par1=86 par2=64
Channel Event. t= 6 (60026) Note Off ch=1 par1=82 par2=64
Channel Event. t= 0 (60026) Note On ch=1 par1=89 par2=91
Channel Event. t= 6 (60032) Controller ch=1 par1=7 (Main Volume) par2=63
Channel Event. t= 19 (60051) Note On ch=1 par1=86 par2=74
Channel Event. t= 23 (60074) Note On ch=1 par1=82 par2=71
Channel Event. t= 6 (60080) Controller ch=1 par1=7 (Main Volume) par2=62
Channel Event. t= 16 (60096) Note On ch=1 par1=77 par2=69
Channel Event. t= 22 (60118) Note On ch=1 par1=74 par2=79
Channel Event. t= 4 (60122) Note Off ch=1 par1=77 par2=64
Channel Event. t= 1 (60123) Note Off ch=1 par1=82 par2=64
Channel Event. t= 1 (60124) Note Off ch=1 par1=89 par2=64
Channel Event. t= 0 (60124) Note Off ch=1 par1=86 par2=64
Channel Event. t= 20 (60144) Note On ch=1 par1=77 par2=68
Channel Event. t= 8 (60152) Controller ch=1 par1=7 (Main Volume) par2=61
Channel Event. t= 9 (60161) Note Off ch=1 par1=74 par2=64
Channel Event. t= 5 (60166) Note On ch=1 par1=82 par2=60
Channel Event. t= 14 (60180) Note Off ch=1 par1=77 par2=64
Channel Event. t= 10 (60190) Note On ch=1 par1=86 par2=76
Channel Event. t= 19 (60209) Note Off ch=1 par1=86 par2=64
Channel Event. t= 5 (60214) Note Off ch=1 par1=82 par2=64
Channel Event. t= 0 (60214) Note On ch=1 par1=89 par2=91
Channel Event. t= 10 (60224) Controller ch=1 par1=7 (Main Volume) par2=60
Channel Event. t= 17 (60241) Note On ch=1 par1=86 par2=74
Channel Event. t= 25 (60266) Note On ch=1 par1=82 par2=74
Channel Event. t= 6 (60272) Controller ch=1 par1=7 (Main Volume) par2=59
Channel Event. t= 18 (60290) Note On ch=1 par1=77 par2=73
Channel Event. t= 9 (60299) Note Off ch=1 par1=89 par2=64
Channel Event. t= 14 (60313) Note On ch=1 par1=74 par2=81
Channel Event. t= 5 (60318) Note Off ch=1 par1=77 par2=64
Channel Event. t= 1 (60319) Note Off ch=1 par1=86 par2=64
Channel Event. t= 2 (60321) Note Off ch=1 par1=82 par2=64
Channel Event. t= 20 (60341) Note On ch=1 par1=77 par2=69
Channel Event. t= 3 (60344) Controller ch=1 par1=7 (Main Volume) par2=58
Channel Event. t= 19 (60363) Note On ch=1 par1=82 par2=64
Channel Event. t= 26 (60389) Note On ch=1 par1=86 par2=70
Channel Event. t= 3 (60392) Controller ch=1 par1=7 (Main Volume) par2=57
Channel Event. t= 19 (60411) Note Off ch=1 par1=77 par2=64
Channel Event. t= 3 (60414) Note On ch=1 par1=94 par2=89
Channel Event. t= 3 (60417) Note Off ch=1 par1=86 par2=64
Channel Event. t= 0 (60417) Note Off ch=1 par1=82 par2=64
Channel Event. t= 0 (60417) Note Off ch=1 par1=74 par2=64
Channel Event. t= 21 (60438) Note On ch=1 par1=89 par2=73
Channel Event. t= 24 (60462) Note On ch=1 par1=86 par2=66
Channel Event. t= 2 (60464) Controller ch=1 par1=7 (Main Volume) par2=56
Channel Event. t= 46 (60510) Note On ch=1 par1=74 par2=83
Channel Event. t= 2 (60512) Controller ch=1 par1=7 (Main Volume) par2=55
Channel Event. t= 3 (60515) Note Off ch=1 par1=86 par2=64
Channel Event. t= 6 (60521) Note Off ch=1 par1=89 par2=64
Channel Event. t= 12 (60533) Note Off ch=1 par1=94 par2=64
Channel Event. t= 2 (60535) Note On ch=1 par1=77 par2=63
Channel Event. t= 22 (60557) Note On ch=1 par1=82 par2=71
Channel Event. t= 26 (60583) Note On ch=1 par1=86 par2=80
Channel Event. t= 1 (60584) Controller ch=1 par1=7 (Main Volume) par2=54
Channel Event. t= 19 (60603) Note Off ch=1 par1=86 par2=64
Channel Event. t= 2 (60605) Note Off ch=1 par1=77 par2=64
Channel Event. t= 1 (60606) Note Off ch=1 par1=74 par2=64
Channel Event. t= 0 (60606) Note Off ch=1 par1=82 par2=64
Channel Event. t= 0 (60606) Note On ch=1 par1=94 par2=91
Channel Event. t= 26 (60632) Controller ch=1 par1=7 (Main Volume) par2=53
Channel Event. t= 0 (60632) Note On ch=1 par1=89 par2=79
Channel Event. t= 24 (60656) Note On ch=1 par1=86 par2=63
Channel Event. t= 22 (60678) Note On ch=1 par1=82 par2=68
Channel Event. t= 6 (60684) Note Off ch=1 par1=94 par2=64
Channel Event. t= 15 (60699) Note Off ch=1 par1=86 par2=64
Channel Event. t= 0 (60699) Note Off ch=1 par1=82 par2=64
Channel Event. t= 2 (60701) Note On ch=1 par1=77 par2=78
Channel Event. t= 2 (60703) Note Off ch=1 par1=89 par2=64
Channel Event. t= 1 (60704) Controller ch=1 par1=7 (Main Volume) par2=52
Channel Event. t= 24 (60728) Note On ch=1 par1=82 par2=68
Channel Event. t= 24 (60752) Note On ch=1 par1=86 par2=63
Channel Event. t= 23 (60775) Note Off ch=1 par1=77 par2=64
Channel Event. t= 1 (60776) Controller ch=1 par1=7 (Main Volume) par2=51
Channel Event. t= 3 (60779) Note On ch=1 par1=89 par2=70
Channel Event. t= 3 (60782) Note Off ch=1 par1=82 par2=64
Channel Event. t= 2 (60784) Note Off ch=1 par1=86 par2=64
Channel Event. t= 34 (60818) Note On ch=1 par1=94 par2=83
Channel Event. t= 6 (60824) Controller ch=1 par1=7 (Main Volume) par2=50
Channel Event. t= 2 (60826) Note Off ch=1 par1=89 par2=64
Channel Event. t= 70 (60896) Controller ch=1 par1=7 (Main Volume) par2=49
Channel Event. t= 48 (60944) Controller ch=1 par1=7 (Main Volume) par2=48
Channel Event. t= 72 (61016) Controller ch=1 par1=7 (Main Volume) par2=47
Channel Event. t= 24 (61040) Note Off ch=1 par1=94 par2=64
Channel Event. t= 24 (61064) Controller ch=1 par1=7 (Main Volume) par2=46
Channel Event. t= 72 (61136) Controller ch=1 par1=7 (Main Volume) par2=45
Channel Event. t= 0 (61136) 
Meta Event. Type: 0x2f (47dec), End of Track (0 bytes): 
track #18
track size: 742
Channel Event. t= 0 (0) 
Meta Event. Type: 0x21 (33dec), MIDI Port (1 bytes): 0
Channel Event. t= 0 (0) 
Meta Event. Type: 0x3 (3dec), Sequence/Track Name (20 bytes): Oboe                
Channel Event. t= 0 (0) Program Change ch=2 par1=84 par2=-124
Channel Event. t= 5888 (5888) Controller ch=2 par1=10 (Pan) par2=30
Channel Event. t= 35280 (41168) Controller ch=2 par1=7 (Pan) par2=70
Channel Event. t= 35 (41203) Note On ch=2 par1=66 par2=52
Channel Event. t= 8 (41211) Note On ch=2 par1=65 par2=70
Channel Event. t= 18 (41229) Note Off ch=2 par1=66 par2=64
Channel Event. t= 502 (41731) Note Off ch=2 par1=65 par2=64
Channel Event. t= 29 (41760) Note On ch=2 par1=65 par2=74
Channel Event. t= 15 (41775) Note On ch=2 par1=64 par2=63
Channel Event. t= 27 (41802) Note Off ch=2 par1=65 par2=64
Channel Event. t= 59 (41861) Note On ch=2 par1=63 par2=71
Channel Event. t= 11 (41872) Note Off ch=2 par1=64 par2=64
Channel Event. t= 93 (41965) Note On ch=2 par1=62 par2=75
Channel Event. t= 2 (41967) Note Off ch=2 par1=63 par2=64
Channel Event. t= 94 (42061) Note On ch=2 par1=63 par2=71
Channel Event. t= 6 (42067) Note Off ch=2 par1=62 par2=64
Channel Event. t= 75 (42142) Note On ch=2 par1=64 par2=64
Channel Event. t= 6 (42148) Note Off ch=2 par1=63 par2=64
Channel Event. t= 22 (42170) Note On ch=2 par1=69 par2=61
Channel Event. t= 16 (42186) Note Off ch=2 par1=64 par2=64
Channel Event. t= 82 (42268) Note On ch=2 par1=67 par2=64
Channel Event. t= 8 (42276) Note Off ch=2 par1=69 par2=64
Channel Event. t= 52 (42328) Note Off ch=2 par1=67 par2=64
Channel Event. t= 28 (42356) Note On ch=2 par1=66 par2=86
Channel Event. t= 17 (42373) Note On ch=2 par1=65 par2=69
Channel Event. t= 31 (42404) Note Off ch=2 par1=66 par2=64
Channel Event. t= 489 (42893) Note Off ch=2 par1=65 par2=64
Channel Event. t= 23 (42916) Note On ch=2 par1=65 par2=69
Channel Event. t= 15 (42931) Note On ch=2 par1=64 par2=68
Channel Event. t= 27 (42958) Note Off ch=2 par1=65 par2=64
Channel Event. t= 68 (43026) Note On ch=2 par1=63 par2=70
Channel Event. t= 11 (43037) Note Off ch=2 par1=64 par2=64
Channel Event. t= 85 (43122) Note On ch=2 par1=62 par2=64
Channel Event. t= 1 (43123) Note Off ch=2 par1=63 par2=64
Channel Event. t= 95 (43218) Note Off ch=2 par1=62 par2=64
Channel Event. t= 0 (43218) Note On ch=2 par1=63 par2=71
Channel Event. t= 58 (43276) Note Off ch=2 par1=63 par2=64
Channel Event. t= 3 (43279) Note On ch=2 par1=64 par2=71
Channel Event. t= 27 (43306) Note On ch=2 par1=76 par2=81
Channel Event. t= 4 (43310) Note Off ch=2 par1=64 par2=64
Channel Event. t= 96 (43406) Note Off ch=2 par1=76 par2=64
Channel Event. t= 0 (43406) Note On ch=2 par1=73 par2=77
Channel Event. t= 89 (43495) Note Off ch=2 par1=73 par2=64
Channel Event. t= 10 (43505) Note On ch=2 par1=74 par2=79
Channel Event. t= 202 (43707) Note On ch=2 par1=77 par2=76
Channel Event. t= 4 (43711) Note Off ch=2 par1=74 par2=64
Channel Event. t= 271 (43982) Note On ch=2 par1=74 par2=77
Channel Event. t= 12 (43994) Note Off ch=2 par1=77 par2=64
Channel Event. t= 90 (44084) Note On ch=2 par1=72 par2=74
Channel Event. t= 16 (44100) Note Off ch=2 par1=74 par2=64
Channel Event. t= 181 (44281) Note On ch=2 par1=75 par2=66
Channel Event. t= 9 (44290) Note Off ch=2 par1=72 par2=64
Channel Event. t= 143 (44433) Note Off ch=2 par1=75 par2=64
Channel Event. t= 39 (44472) Note On ch=2 par1=67 par2=71
Channel Event. t= 91 (44563) Note On ch=2 par1=69 par2=74
Channel Event. t= 11 (44574) Note Off ch=2 par1=67 par2=64
Channel Event. t= 90 (44664) Note On ch=2 par1=70 par2=74
Channel Event. t= 19 (44683) Note Off ch=2 par1=69 par2=64
Channel Event. t= 164 (44847) Note On ch=2 par1=74 par2=62
Channel Event. t= 11 (44858) Note Off ch=2 par1=70 par2=64
Channel Event. t= 185 (45043) Note On ch=2 par1=65 par2=60
Channel Event. t= 2 (45045) Note Off ch=2 par1=74 par2=64
Channel Event. t= 174 (45219) Note Off ch=2 par1=65 par2=64
Channel Event. t= 24 (45243) Note On ch=2 par1=65 par2=67
Channel Event. t= 584 (45827) Note Off ch=2 par1=65 par2=64
Channel Event. t= 546 (46373) Note On ch=2 par1=66 par2=44
Channel Event. t= 15 (46388) Note On ch=2 par1=65 par2=68
Channel Event. t= 16 (46404) Note Off ch=2 par1=66 par2=64
Channel Event. t= 510 (46914) Note Off ch=2 par1=65 par2=64
Channel Event. t= 23 (46937) Note On ch=2 par1=65 par2=51
Channel Event. t= 20 (46957) Note On ch=2 par1=64 par2=67
Channel Event. t= 22 (46979) Note Off ch=2 par1=65 par2=64
Channel Event. t= 77 (47056) Note On ch=2 par1=63 par2=60
Channel Event. t= 15 (47071) Note Off ch=2 par1=64 par2=64
Channel Event. t= 82 (47153) Note On ch=2 par1=62 par2=64
Channel Event. t= 3 (47156) Note Off ch=2 par1=63 par2=64
Channel Event. t= 94 (47250) Note On ch=2 par1=63 par2=60
Channel Event. t= 5 (47255) Note Off ch=2 par1=62 par2=64
Channel Event. t= 67 (47322) Note On ch=2 par1=64 par2=63
Channel Event. t= 10 (47332) Note Off ch=2 par1=63 par2=64
Channel Event. t= 7 (47339) Note On ch=2 par1=69 par2=66
Channel Event. t= 15 (47354) Note Off ch=2 par1=64 par2=64
Channel Event. t= 84 (47438) Note On ch=2 par1=67 par2=67
Channel Event. t= 3 (47441) Note Off ch=2 par1=69 par2=64
Channel Event. t= 80 (47521) Note Off ch=2 par1=67 par2=64
Channel Event. t= 10 (47531) Note On ch=2 par1=66 par2=81
Channel Event. t= 16 (47547) Note On ch=2 par1=65 par2=61
Channel Event. t= 18 (47565) Note Off ch=2 par1=66 par2=64
Channel Event. t= 520 (48085) Note Off ch=2 par1=65 par2=64
Channel Event. t= 14 (48099) Note On ch=2 par1=65 par2=68
Channel Event. t= 17 (48116) Note On ch=2 par1=64 par2=69
Channel Event. t= 24 (48140) Note Off ch=2 par1=65 par2=64
Channel Event. t= 68 (48208) Note On ch=2 par1=63 par2=81
Channel Event. t= 9 (48217) Note Off ch=2 par1=64 par2=64
Channel Event. t= 89 (48306) Note On ch=2 par1=64 par2=74
Channel Event. t= 4 (48310) Note Off ch=2 par1=63 par2=64
Channel Event. t= 90 (48400) Note On ch=2 par1=69 par2=65
Channel Event. t= 17 (48417) Note Off ch=2 par1=64 par2=64
Channel Event. t= 79 (48496) Note Off ch=2 par1=69 par2=64
Channel Event. t= 4 (48500) Note On ch=2 par1=76 par2=53
Channel Event. t= 97 (48597) Note On ch=2 par1=79 par2=73
Channel Event. t= 4 (48601) Note Off ch=2 par1=76 par2=64
Channel Event. t= 96 (48697) Note Off ch=2 par1=79 par2=64
Channel Event. t= 9 (48706) Note On ch=2 par1=79 par2=86
Channel Event. t= 190 (48896) Note On ch=2 par1=77 par2=72
Channel Event. t= 11 (48907) Note Off ch=2 par1=79 par2=64
Channel Event. t= 153 (49060) Note Off ch=2 par1=77 par2=64
Channel Event. t= 30 (49090) Note On ch=2 par1=74 par2=89
Channel Event. t= 91 (49181) Note On ch=2 par1=79 par2=52
Channel Event. t= 7 (49188) Note Off ch=2 par1=74 par2=64
Channel Event. t= 89 (49277) Note On ch=2 par1=77 par2=81
Channel Event. t= 18 (49295) Note Off ch=2 par1=79 par2=64
Channel Event. t= 183 (49478) Note On ch=2 par1=75 par2=51
Channel Event. t= 23 (49501) Note Off ch=2 par1=77 par2=64
Channel Event. t= 142 (49643) Note Off ch=2 par1=75 par2=64
Channel Event. t= 17 (49660) Note On ch=2 par1=67 par2=71
Channel Event. t= 85 (49745) Note On ch=2 par1=69 par2=75
Channel Event. t= 19 (49764) Note Off ch=2 par1=67 par2=64
Channel Event. t= 81 (49845) Note On ch=2 par1=70 par2=81
Channel Event. t= 18 (49863) Note Off ch=2 par1=69 par2=64
Channel Event. t= 177 (50040) Note On ch=2 par1=74 par2=66
Channel Event. t= 9 (50049) Note Off ch=2 par1=70 par2=64
Channel Event. t= 176 (50225) Note On ch=2 par1=65 par2=69
Channel Event. t= 12 (50237) Note Off ch=2 par1=74 par2=64
Channel Event. t= 71 (50308) Note Off ch=2 par1=65 par2=64
Channel Event. t= 15 (50323) Note On ch=2 par1=65 par2=78
Channel Event. t= 81 (50404) Note Off ch=2 par1=65 par2=64
Channel Event. t= 19 (50423) Note On ch=2 par1=66 par2=70
Channel Event. t= 20 (50443) Note On ch=2 par1=65 par2=70
Channel Event. t= 10 (50453) Note Off ch=2 par1=66 par2=64
Channel Event. t= 580 (51033) Note Off ch=2 par1=65 par2=64
Channel Event. t= 359 (51392) Note On ch=2 par1=77 par2=47
Channel Event. t= 224 (51616) Note Off ch=2 par1=77 par2=64
Channel Event. t= 1092 (52708) Note On ch=2 par1=66 par2=45
Channel Event. t= 13 (52721) Note On ch=2 par1=65 par2=53
Channel Event. t= 14 (52735) Note Off ch=2 par1=66 par2=64
Channel Event. t= 521 (53256) Note Off ch=2 par1=65 par2=64
Channel Event. t= 22 (53278) Note On ch=2 par1=65 par2=61
Channel Event. t= 24 (53302) Note On ch=2 par1=64 par2=55
Channel Event. t= 27 (53329) Note Off ch=2 par1=65 par2=64
Channel Event. t= 63 (53392) Note On ch=2 par1=63 par2=61
Channel Event. t= 13 (53405) Note Off ch=2 par1=64 par2=64
Channel Event. t= 91 (53496) Note On ch=2 par1=62 par2=66
Channel Event. t= 3 (53499) Note Off ch=2 par1=63 par2=64
Channel Event. t= 97 (53596) Note On ch=2 par1=63 par2=70
Channel Event. t= 13 (53609) Note Off ch=2 par1=62 par2=64
Channel Event. t= 61 (53670) Note On ch=2 par1=64 par2=57
Channel Event. t= 16 (53686) Note Off ch=2 par1=63 par2=64
Channel Event. t= 4 (53690) Note On ch=2 par1=69 par2=66
Channel Event. t= 15 (53705) Note Off ch=2 par1=64 par2=64
Channel Event. t= 79 (53784) Note On ch=2 par1=67 par2=67
Channel Event. t= 5 (53789) Note Off ch=2 par1=69 par2=64
Channel Event. t= 50 (53839) Note Off ch=2 par1=67 par2=64
Channel Event. t= 33 (53872) Note On ch=2 par1=66 par2=79
Channel Event. t= 13 (53885) Note On ch=2 par1=65 par2=71
Channel Event. t= 20 (53905) Note Off ch=2 par1=66 par2=64
Channel Event. t= 194 (54099) Note Off ch=2 par1=65 par2=64
Channel Event. t= 926 (55025) Note On ch=2 par1=65 par2=56
Channel Event. t= 610 (55635) Note Off ch=2 par1=65 par2=64
Channel Event. t= 526 (56161) Note On ch=2 par1=66 par2=64
Channel Event. t= 20 (56181) Note On ch=2 par1=65 par2=63
Channel Event. t= 13 (56194) Note Off ch=2 par1=66 par2=64
Channel Event. t= 480 (56674) Note Off ch=2 par1=65 par2=64
Channel Event. t= 69 (56743) Note On ch=2 par1=65 par2=69
Channel Event. t= 20 (56763) Note On ch=2 par1=64 par2=58
Channel Event. t= 25 (56788) Note Off ch=2 par1=65 par2=64
Channel Event. t= 65 (56853) Note On ch=2 par1=63 par2=65
Channel Event. t= 8 (56861) Note Off ch=2 par1=64 par2=64
Channel Event. t= 82 (56943) Note Off ch=2 par1=63 par2=64
Channel Event. t= 15 (56958) Note On ch=2 par1=63 par2=83
Channel Event. t= 99 (57057) Note On ch=2 par1=69 par2=68
Channel Event. t= 3 (57060) Note Off ch=2 par1=63 par2=64
Channel Event. t= 69 (57129) Note Off ch=2 par1=69 par2=64
Channel Event. t= 33 (57162) Note On ch=2 par1=76 par2=84
Channel Event. t= 95 (57257) Note On ch=2 par1=79 par2=74
Channel Event. t= 7 (57264) Note Off ch=2 par1=76 par2=64
Channel Event. t= 88 (57352) Note Off ch=2 par1=79 par2=64
Channel Event. t= 12 (57364) Note On ch=2 par1=79 par2=84
Channel Event. t= 166 (57530) Note On ch=2 par1=77 par2=76
Channel Event. t= 12 (57542) Note Off ch=2 par1=79 par2=64
Channel Event. t= 226 (57768) Note Off ch=2 par1=77 par2=64
Channel Event. t= 0 (57768) 
Meta Event. Type: 0x2f (47dec), End of Track (0 bytes): 
track #19
track size: 1134
Channel Event. t= 0 (0) 
Meta Event. Type: 0x21 (33dec), MIDI Port (1 bytes): 0
Channel Event. t= 0 (0) 
Meta Event. Type: 0x3 (3dec), Sequence/Track Name (20 bytes): French Horn         
Channel Event. t= 0 (0) Program Change ch=3 par1=92 par2=-124
Channel Event. t= 5888 (5888) Controller ch=3 par1=10 (Pan) par2=75
Channel Event. t= 576 (6464) Controller ch=3 par1=7 (Pan) par2=55
Channel Event. t= 34756 (41220) Note On ch=3 par1=62 par2=69
Channel Event. t= 82 (41302) Note On ch=3 par1=60 par2=70
Channel Event. t= 12 (41314) Note Off ch=3 par1=62 par2=64
Channel Event. t= 81 (41395) Note On ch=3 par1=58 par2=71
Channel Event. t= 11 (41406) Note Off ch=3 par1=60 par2=64
Channel Event. t= 82 (41488) Note On ch=3 par1=60 par2=70
Channel Event. t= 10 (41498) Note Off ch=3 par1=58 par2=64
Channel Event. t= 89 (41587) Note On ch=3 par1=62 par2=75
Channel Event. t= 4 (41591) Note Off ch=3 par1=60 par2=64
Channel Event. t= 157 (41748) Note Off ch=3 par1=62 par2=64
Channel Event. t= 26 (41774) Note On ch=3 par1=61 par2=74
Channel Event. t= 177 (41951) Note On ch=3 par1=59 par2=74
Channel Event. t= 6 (41957) Note Off ch=3 par1=61 par2=64
Channel Event. t= 202 (42159) Note On ch=3 par1=61 par2=61
Channel Event. t= 22 (42181) Note Off ch=3 par1=59 par2=64
Channel Event. t= 147 (42328) Note Off ch=3 par1=61 par2=64
Channel Event. t= 32 (42360) Note On ch=3 par1=62 par2=69
Channel Event. t= 85 (42445) Note On ch=3 par1=60 par2=63
Channel Event. t= 5 (42450) Note Off ch=3 par1=62 par2=64
Channel Event. t= 87 (42537) Note On ch=3 par1=58 par2=69
Channel Event. t= 10 (42547) Note Off ch=3 par1=60 par2=64
Channel Event. t= 87 (42634) Note On ch=3 par1=60 par2=71
Channel Event. t= 11 (42645) Note Off ch=3 par1=58 par2=64
Channel Event. t= 95 (42740) Note Off ch=3 par1=60 par2=64
Channel Event. t= 1 (42741) Note On ch=3 par1=62 par2=65
Channel Event. t= 165 (42906) Note Off ch=3 par1=62 par2=64
Channel Event. t= 24 (42930) Note On ch=3 par1=61 par2=68
Channel Event. t= 193 (43123) Note On ch=3 par1=59 par2=69
Channel Event. t= 4 (43127) Note Off ch=3 par1=61 par2=64
Channel Event. t= 192 (43319) Note On ch=3 par1=61 par2=64
Channel Event. t= 18 (43337) Note Off ch=3 par1=59 par2=64
Channel Event. t= 153 (43490) Note Off ch=3 par1=61 par2=64
Channel Event. t= 23 (43513) Note On ch=3 par1=62 par2=69
Channel Event. t= 88 (43601) Note On ch=3 par1=60 par2=65
Channel Event. t= 16 (43617) Note Off ch=3 par1=62 par2=64
Channel Event. t= 81 (43698) Note On ch=3 par1=58 par2=65
Channel Event. t= 13 (43711) Note Off ch=3 par1=60 par2=64
Channel Event. t= 85 (43796) Note On ch=3 par1=60 par2=64
Channel Event. t= 7 (43803) Note Off ch=3 par1=58 par2=64
Channel Event. t= 98 (43901) Note On ch=3 par1=62 par2=69
Channel Event. t= 4 (43905) Note Off ch=3 par1=60 par2=64
Channel Event. t= 173 (44078) Note Off ch=3 par1=62 par2=64
Channel Event. t= 9 (44087) Note On ch=3 par1=63 par2=75
Channel Event. t= 87 (44174) Note On ch=3 par1=62 par2=69
Channel Event. t= 6 (44180) Note Off ch=3 par1=63 par2=64
Channel Event. t= 91 (44271) Note On ch=3 par1=60 par2=69
Channel Event. t= 8 (44279) Note Off ch=3 par1=62 par2=64
Channel Event. t= 86 (44365) Note On ch=3 par1=62 par2=54
Channel Event. t= 15 (44380) Note Off ch=3 par1=60 par2=64
Channel Event. t= 89 (44469) Note On ch=3 par1=63 par2=71
Channel Event. t= 12 (44481) Note Off ch=3 par1=62 par2=64
Channel Event. t= 160 (44641) Note Off ch=3 par1=63 par2=64
Channel Event. t= 24 (44665) Note On ch=3 par1=62 par2=72
Channel Event. t= 87 (44752) Note On ch=3 par1=60 par2=56
Channel Event. t= 20 (44772) Note Off ch=3 par1=62 par2=64
Channel Event. t= 83 (44855) Note On ch=3 par1=58 par2=64
Channel Event. t= 13 (44868) Note Off ch=3 par1=60 par2=64
Channel Event. t= 77 (44945) Note On ch=3 par1=60 par2=54
Channel Event. t= 8 (44953) Note Off ch=3 par1=58 par2=64
Channel Event. t= 95 (45048) Note On ch=3 par1=62 par2=50
Channel Event. t= 9 (45057) Note Off ch=3 par1=60 par2=64
Channel Event. t= 159 (45216) Note Off ch=3 par1=62 par2=64
Channel Event. t= 23 (45239) Note On ch=3 par1=60 par2=52
Channel Event. t= 88 (45327) Note On ch=3 par1=58 par2=53
Channel Event. t= 9 (45336) Note Off ch=3 par1=60 par2=64
Channel Event. t= 92 (45428) Note Off ch=3 par1=58 par2=64
Channel Event. t= 0 (45428) Note On ch=3 par1=57 par2=46
Channel Event. t= 91 (45519) Note On ch=3 par1=58 par2=48
Channel Event. t= 12 (45531) Note Off ch=3 par1=57 par2=64
Channel Event. t= 95 (45626) Note On ch=3 par1=60 par2=39
Channel Event. t= 5 (45631) Note Off ch=3 par1=58 par2=64
Channel Event. t= 138 (45769) Note Off ch=3 par1=60 par2=64
Channel Event. t= 629 (46398) Note On ch=3 par1=62 par2=65
Channel Event. t= 87 (46485) Note On ch=3 par1=60 par2=50
Channel Event. t= 15 (46500) Note Off ch=3 par1=62 par2=64
Channel Event. t= 76 (46576) Note On ch=3 par1=58 par2=53
Channel Event. t= 13 (46589) Note Off ch=3 par1=60 par2=64
Channel Event. t= 77 (46666) Note On ch=3 par1=60 par2=56
Channel Event. t= 7 (46673) Note Off ch=3 par1=58 par2=64
Channel Event. t= 95 (46768) Note On ch=3 par1=62 par2=50
Channel Event. t= 6 (46774) Note Off ch=3 par1=60 par2=64
Channel Event. t= 161 (46935) Note Off ch=3 par1=62 par2=64
Channel Event. t= 26 (46961) Note On ch=3 par1=61 par2=70
Channel Event. t= 195 (47156) Note On ch=3 par1=59 par2=69
Channel Event. t= 8 (47164) Note Off ch=3 par1=61 par2=64
Channel Event. t= 188 (47352) Note On ch=3 par1=61 par2=59
Channel Event. t= 21 (47373) Note Off ch=3 par1=59 par2=64
Channel Event. t= 142 (47515) Note Off ch=3 par1=61 par2=64
Channel Event. t= 26 (47541) Note On ch=3 par1=62 par2=63
Channel Event. t= 91 (47632) Note On ch=3 par1=60 par2=54
Channel Event. t= 12 (47644) Note Off ch=3 par1=62 par2=64
Channel Event. t= 84 (47728) Note On ch=3 par1=58 par2=58
Channel Event. t= 13 (47741) Note Off ch=3 par1=60 par2=64
Channel Event. t= 86 (47827) Note On ch=3 par1=60 par2=53
Channel Event. t= 8 (47835) Note Off ch=3 par1=58 par2=64
Channel Event. t= 94 (47929) Note On ch=3 par1=62 par2=59
Channel Event. t= 5 (47934) Note Off ch=3 par1=60 par2=64
Channel Event. t= 157 (48091) Note Off ch=3 par1=62 par2=64
Channel Event. t= 25 (48116) Note On ch=3 par1=61 par2=65
Channel Event. t= 188 (48304) Note On ch=3 par1=60 par2=64
Channel Event. t= 6 (48310) Note Off ch=3 par1=61 par2=64
Channel Event. t= 189 (48499) Note On ch=3 par1=61 par2=59
Channel Event. t= 14 (48513) Note Off ch=3 par1=60 par2=64
Channel Event. t= 163 (48676) Note Off ch=3 par1=61 par2=64
Channel Event. t= 22 (48698) Note On ch=3 par1=62 par2=66
Channel Event. t= 89 (48787) Note On ch=3 par1=60 par2=61
Channel Event. t= 17 (48804) Note Off ch=3 par1=62 par2=64
Channel Event. t= 80 (48884) Note On ch=3 par1=58 par2=65
Channel Event. t= 8 (48892) Note Off ch=3 par1=60 par2=64
Channel Event. t= 92 (48984) Note On ch=3 par1=60 par2=61
Channel Event. t= 8 (48992) Note Off ch=3 par1=58 par2=64
Channel Event. t= 89 (49081) Note On ch=3 par1=62 par2=57
Channel Event. t= 4 (49085) Note Off ch=3 par1=60 par2=64
Channel Event. t= 159 (49244) Note Off ch=3 par1=62 par2=64
Channel Event. t= 32 (49276) Note On ch=3 par1=63 par2=63
Channel Event. t= 86 (49362) Note On ch=3 par1=62 par2=56
Channel Event. t= 5 (49367) Note Off ch=3 par1=63 par2=64
Channel Event. t= 87 (49454) Note On ch=3 par1=60 par2=66
Channel Event. t= 7 (49461) Note Off ch=3 par1=62 par2=64
Channel Event. t= 88 (49549) Note On ch=3 par1=62 par2=45
Channel Event. t= 16 (49565) Note Off ch=3 par1=60 par2=64
Channel Event. t= 88 (49653) Note On ch=3 par1=63 par2=61
Channel Event. t= 9 (49662) Note Off ch=3 par1=62 par2=64
Channel Event. t= 151 (49813) Note Off ch=3 par1=63 par2=64
Channel Event. t= 35 (49848) Note On ch=3 par1=62 par2=63
Channel Event. t= 92 (49940) Note On ch=3 par1=60 par2=44
Channel Event. t= 15 (49955) Note Off ch=3 par1=62 par2=64
Channel Event. t= 79 (50034) Note On ch=3 par1=58 par2=53
Channel Event. t= 15 (50049) Note Off ch=3 par1=60 par2=64
Channel Event. t= 79 (50128) Note On ch=3 par1=60 par2=52
Channel Event. t= 7 (50135) Note Off ch=3 par1=58 par2=64
Channel Event. t= 97 (50232) Note On ch=3 par1=62 par2=38
Channel Event. t= 12 (50244) Note Off ch=3 par1=60 par2=64
Channel Event. t= 146 (50390) Note Off ch=3 par1=62 par2=64
Channel Event. t= 32 (50422) Note On ch=3 par1=60 par2=44
Channel Event. t= 89 (50511) Note On ch=3 par1=58 par2=41
Channel Event. t= 13 (50524) Note Off ch=3 par1=60 par2=64
Channel Event. t= 87 (50611) Note On ch=3 par1=57 par2=42
Channel Event. t= 4 (50615) Note Off ch=3 par1=58 par2=64
Channel Event. t= 93 (50708) Note On ch=3 par1=58 par2=51
Channel Event. t= 12 (50720) Note Off ch=3 par1=57 par2=64
Channel Event. t= 95 (50815) Note On ch=3 par1=60 par2=30
Channel Event. t= 1 (50816) Note Off ch=3 par1=58 par2=64
Channel Event. t= 157 (50973) Note Off ch=3 par1=60 par2=64
Channel Event. t= 607 (51580) Note On ch=3 par1=62 par2=55
Channel Event. t= 97 (51677) Note On ch=3 par1=60 par2=50
Channel Event. t= 16 (51693) Note Off ch=3 par1=62 par2=64
Channel Event. t= 78 (51771) Note On ch=3 par1=58 par2=60
Channel Event. t= 15 (51786) Note Off ch=3 par1=60 par2=64
Channel Event. t= 78 (51864) Note Off ch=3 par1=58 par2=64
Channel Event. t= 0 (51864) Note On ch=3 par1=60 par2=48
Channel Event. t= 96 (51960) Note On ch=3 par1=62 par2=49
Channel Event. t= 7 (51967) Note Off ch=3 par1=60 par2=64
Channel Event. t= 172 (52139) Note Off ch=3 par1=62 par2=64
Channel Event. t= 19 (52158) Note On ch=3 par1=60 par2=44
Channel Event. t= 82 (52240) Note On ch=3 par1=58 par2=59
Channel Event. t= 13 (52253) Note Off ch=3 par1=60 par2=64
Channel Event. t= 89 (52342) Note On ch=3 par1=57 par2=52
Channel Event. t= 1 (52343) Note Off ch=3 par1=58 par2=64
Channel Event. t= 89 (52432) Note On ch=3 par1=58 par2=57
Channel Event. t= 14 (52446) Note Off ch=3 par1=57 par2=64
Channel Event. t= 96 (52542) Note On ch=3 par1=60 par2=53
Channel Event. t= 8 (52550) Note Off ch=3 par1=58 par2=64
Channel Event. t= 154 (52704) Note Off ch=3 par1=60 par2=64
Channel Event. t= 20 (52724) Note On ch=3 par1=62 par2=61
Channel Event. t= 90 (52814) Note On ch=3 par1=60 par2=56
Channel Event. t= 12 (52826) Note Off ch=3 par1=62 par2=64
Channel Event. t= 82 (52908) Note On ch=3 par1=58 par2=51
Channel Event. t= 13 (52921) Note Off ch=3 par1=60 par2=64
Channel Event. t= 84 (53005) Note On ch=3 par1=60 par2=53
Channel Event. t= 11 (53016) Note Off ch=3 par1=58 par2=64
Channel Event. t= 91 (53107) Note On ch=3 par1=62 par2=53
Channel Event. t= 8 (53115) Note Off ch=3 par1=60 par2=64
Channel Event. t= 155 (53270) Note Off ch=3 par1=62 par2=64
Channel Event. t= 33 (53303) Note On ch=3 par1=61 par2=65
Channel Event. t= 184 (53487) Note On ch=3 par1=59 par2=69
Channel Event. t= 8 (53495) Note Off ch=3 par1=61 par2=64
Channel Event. t= 195 (53690) Note On ch=3 par1=61 par2=59
Channel Event. t= 23 (53713) Note Off ch=3 par1=59 par2=64
Channel Event. t= 160 (53873) Note Off ch=3 par1=61 par2=64
Channel Event. t= 19 (53892) Note On ch=3 par1=62 par2=65
Channel Event. t= 88 (53980) Note On ch=3 par1=60 par2=62
Channel Event. t= 15 (53995) Note Off ch=3 par1=62 par2=64
Channel Event. t= 75 (54070) Note On ch=3 par1=58 par2=62
Channel Event. t= 13 (54083) Note Off ch=3 par1=60 par2=64
Channel Event. t= 77 (54160) Note On ch=3 par1=60 par2=62
Channel Event. t= 10 (54170) Note Off ch=3 par1=58 par2=64
Channel Event. t= 93 (54263) Note On ch=3 par1=62 par2=61
Channel Event. t= 10 (54273) Note Off ch=3 par1=60 par2=64
Channel Event. t= 141 (54414) Note Off ch=3 par1=62 par2=64
Channel Event. t= 40 (54454) Note On ch=3 par1=60 par2=60
Channel Event. t= 91 (54545) Note On ch=3 par1=58 par2=61
Channel Event. t= 14 (54559) Note Off ch=3 par1=60 par2=64
Channel Event. t= 84 (54643) Note On ch=3 par1=57 par2=60
Channel Event. t= 4 (54647) Note Off ch=3 par1=58 par2=64
Channel Event. t= 91 (54738) Note On ch=3 par1=58 par2=63
Channel Event. t= 13 (54751) Note Off ch=3 par1=57 par2=64
Channel Event. t= 91 (54842) Note On ch=3 par1=60 par2=62
Channel Event. t= 5 (54847) Note Off ch=3 par1=58 par2=64
Channel Event. t= 157 (55004) Note Off ch=3 par1=60 par2=64
Channel Event. t= 33 (55037) Note On ch=3 par1=60 par2=61
Channel Event. t= 77 (55114) Note On ch=3 par1=58 par2=53
Channel Event. t= 10 (55124) Note Off ch=3 par1=60 par2=64
Channel Event. t= 85 (55209) Note On ch=3 par1=57 par2=56
Channel Event. t= 7 (55216) Note Off ch=3 par1=58 par2=64
Channel Event. t= 89 (55305) Note On ch=3 par1=58 par2=58
Channel Event. t= 13 (55318) Note Off ch=3 par1=57 par2=64
Channel Event. t= 93 (55411) Note On ch=3 par1=60 par2=61
Channel Event. t= 9 (55420) Note Off ch=3 par1=58 par2=64
Channel Event. t= 164 (55584) Note Off ch=3 par1=60 par2=64
Channel Event. t= 607 (56191) Note On ch=3 par1=62 par2=56
Channel Event. t= 85 (56276) Note On ch=3 par1=60 par2=53
Channel Event. t= 10 (56286) Note Off ch=3 par1=62 par2=64
Channel Event. t= 82 (56368) Note On ch=3 par1=58 par2=56
Channel Event. t= 9 (56377) Note Off ch=3 par1=60 par2=64
Channel Event. t= 83 (56460) Note On ch=3 par1=60 par2=55
Channel Event. t= 5 (56465) Note Off ch=3 par1=58 par2=64
Channel Event. t= 93 (56558) Note Off ch=3 par1=60 par2=64
Channel Event. t= 0 (56558) Note On ch=3 par1=62 par2=53
Channel Event. t= 160 (56718) Note Off ch=3 par1=62 par2=64
Channel Event. t= 37 (56755) Note On ch=3 par1=61 par2=47
Channel Event. t= 194 (56949) Note On ch=3 par1=60 par2=61
Channel Event. t= 4 (56953) Note Off ch=3 par1=61 par2=64
Channel Event. t= 195 (57148) Note On ch=3 par1=61 par2=61
Channel Event. t= 5 (57153) Note Off ch=3 par1=60 par2=64
Channel Event. t= 143 (57296) Note Off ch=3 par1=61 par2=64
Channel Event. t= 52 (57348) Note On ch=3 par1=62 par2=64
Channel Event. t= 80 (57428) Note On ch=3 par1=60 par2=56
Channel Event. t= 9 (57437) Note Off ch=3 par1=62 par2=64
Channel Event. t= 81 (57518) Note On ch=3 par1=58 par2=71
Channel Event. t= 5 (57523) Note Off ch=3 par1=60 par2=64
Channel Event. t= 98 (57621) Note On ch=3 par1=60 par2=56
Channel Event. t= 5 (57626) Note Off ch=3 par1=58 par2=64
Channel Event. t= 98 (57724) Note On ch=3 par1=62 par2=57
Channel Event. t= 10 (57734) Note Off ch=3 par1=60 par2=64
Channel Event. t= 138 (57872) Note Off ch=3 par1=62 par2=64
Channel Event. t= 38 (57910) Note On ch=3 par1=60 par2=58
Channel Event. t= 91 (58001) Note On ch=3 par1=58 par2=52
Channel Event. t= 5 (58006) Note Off ch=3 par1=60 par2=64
Channel Event. t= 98 (58104) Note On ch=3 par1=57 par2=48
Channel Event. t= 3 (58107) Note Off ch=3 par1=58 par2=64
Channel Event. t= 85 (58192) Note On ch=3 par1=58 par2=60
Channel Event. t= 14 (58206) Note Off ch=3 par1=57 par2=64
Channel Event. t= 89 (58295) Note On ch=3 par1=60 par2=56
Channel Event. t= 7 (58302) Note Off ch=3 par1=58 par2=64
Channel Event. t= 135 (58437) Note Off ch=3 par1=60 par2=64
Channel Event. t= 43 (58480) Note On ch=3 par1=62 par2=56
Channel Event. t= 99 (58579) Note On ch=3 par1=60 par2=52
Channel Event. t= 12 (58591) Note Off ch=3 par1=62 par2=64
Channel Event. t= 86 (58677) Note On ch=3 par1=58 par2=61
Channel Event. t= 13 (58690) Note Off ch=3 par1=60 par2=64
Channel Event. t= 80 (58770) Note On ch=3 par1=60 par2=62
Channel Event. t= 7 (58777) Note Off ch=3 par1=58 par2=64
Channel Event. t= 96 (58873) Note On ch=3 par1=62 par2=69
Channel Event. t= 4 (58877) Note Off ch=3 par1=60 par2=64
Channel Event. t= 139 (59016) Note Off ch=3 par1=62 par2=64
Channel Event. t= 47 (59063) Note On ch=3 par1=60 par2=63
Channel Event. t= 87 (59150) Note On ch=3 par1=58 par2=65
Channel Event. t= 10 (59160) Note Off ch=3 par1=60 par2=64
Channel Event. t= 92 (59252) Note On ch=3 par1=57 par2=58
Channel Event. t= 3 (59255) Note Off ch=3 par1=58 par2=64
Channel Event. t= 92 (59347) Note On ch=3 par1=58 par2=64
Channel Event. t= 12 (59359) Note Off ch=3 par1=57 par2=64
Channel Event. t= 89 (59448) Note On ch=3 par1=60 par2=66
Channel Event. t= 7 (59455) Note Off ch=3 par1=58 par2=64
Channel Event. t= 122 (59577) Note Off ch=3 par1=60 par2=64
Channel Event. t= 62 (59639) Note On ch=3 par1=62 par2=67
Channel Event. t= 194 (59833) Note On ch=3 par1=60 par2=66
Channel Event. t= 13 (59846) Note Off ch=3 par1=62 par2=64
Channel Event. t= 173 (60019) Note On ch=3 par1=58 par2=63
Channel Event. t= 10 (60029) Note Off ch=3 par1=60 par2=64
Channel Event. t= 88 (60117) Note On ch=3 par1=60 par2=58
Channel Event. t= 6 (60123) Note Off ch=3 par1=58 par2=64
Channel Event. t= 98 (60221) Note On ch=3 par1=62 par2=58
Channel Event. t= 3 (60224) Note Off ch=3 par1=60 par2=64
Channel Event. t= 215 (60439) Note Off ch=3 par1=62 par2=64
Channel Event. t= 0 (60439) 
Meta Event. Type: 0x2f (47dec), End of Track (0 bytes): 
track #20
track size: 33
Channel Event. t= 0 (0) 
Meta Event. Type: 0x21 (33dec), MIDI Port (1 bytes): 0
Channel Event. t= 0 (0) 
Meta Event. Type: 0x3 (3dec), Sequence/Track Name (20 bytes):                     
Channel Event. t= 0 (0) 
Meta Event. Type: 0x2f (47dec), End of Track (0 bytes): 
track #21
track size: 33
Channel Event. t= 0 (0) 
Meta Event. Type: 0x21 (33dec), MIDI Port (1 bytes): 0
Channel Event. t= 0 (0) 
Meta Event. Type: 0x3 (3dec), Sequence/Track Name (20 bytes):     PART THREE      
Channel Event. t= 0 (0) 
Meta Event. Type: 0x2f (47dec), End of Track (0 bytes): 
track #22
track size: 33
Channel Event. t= 0 (0) 
Meta Event. Type: 0x21 (33dec), MIDI Port (1 bytes): 0
Channel Event. t= 0 (0) 
Meta Event. Type: 0x3 (3dec), Sequence/Track Name (20 bytes): CAT & GRANDFATHER   
Channel Event. t= 0 (0) 
Meta Event. Type: 0x2f (47dec), End of Track (0 bytes): 
track #23
track size: 33
Channel Event. t= 0 (0) 
Meta Event. Type: 0x21 (33dec), MIDI Port (1 bytes): 0
Channel Event. t= 0 (0) 
Meta Event. Type: 0x3 (3dec), Sequence/Track Name (20 bytes):                     
Channel Event. t= 0 (0) 
Meta Event. Type: 0x2f (47dec), End of Track (0 bytes): 
track #24
track size: 3900
Channel Event. t= 0 (0) 
Meta Event. Type: 0x21 (33dec), MIDI Port (1 bytes): 0
Channel Event. t= 0 (0) 
Meta Event. Type: 0x3 (3dec), Sequence/Track Name (20 bytes): Strings             
Channel Event. t= 0 (0) Program Change ch=5 par1=48 par2=-121
Channel Event. t= 12608 (12608) Controller ch=5 par1=10 (Pan) par2=30
Channel Event. t= 648 (13256) Controller ch=5 par1=7 (Pan) par2=92
Channel Event. t= 120 (13376) Note On ch=5 par1=93 par2=65
Channel Event. t= 0 (13376) Note On ch=5 par1=85 par2=61
Channel Event. t= 106 (13482) Note Off ch=5 par1=93 par2=64
Channel Event. t= 23 (13505) Note Off ch=5 par1=85 par2=64
Channel Event. t= 63 (13568) Note On ch=5 par1=81 par2=61
Channel Event. t= 87 (13655) Note Off ch=5 par1=81 par2=64
Channel Event. t= 105 (13760) Note On ch=5 par1=57 par2=75
Channel Event. t= 144 (13904) Note Off ch=5 par1=57 par2=64
Channel Event. t= 48 (13952) Note On ch=5 par1=50 par2=79
Channel Event. t= 139 (14091) Note Off ch=5 par1=50 par2=64
Channel Event. t= 53 (14144) Note On ch=5 par1=73 par2=59
Channel Event. t= 0 (14144) Note On ch=5 par1=81 par2=61
Channel Event. t= 127 (14271) Note Off ch=5 par1=73 par2=64
Channel Event. t= 3 (14274) Note Off ch=5 par1=81 par2=64
Channel Event. t= 62 (14336) Note On ch=5 par1=69 par2=72
Channel Event. t= 98 (14434) Note Off ch=5 par1=69 par2=64
Channel Event. t= 94 (14528) Note On ch=5 par1=45 par2=44
Channel Event. t= 125 (14653) Note Off ch=5 par1=45 par2=64
Channel Event. t= 67 (14720) Note On ch=5 par1=38 par2=51
Channel Event. t= 133 (14853) Note Off ch=5 par1=38 par2=64
Channel Event. t= 59 (14912) Note On ch=5 par1=86 par2=79
Channel Event. t= 0 (14912) Note On ch=5 par1=79 par2=74
Channel Event. t= 75 (14987) Note Off ch=5 par1=86 par2=64
Channel Event. t= 12 (14999) Note Off ch=5 par1=79 par2=64
Channel Event. t= 105 (15104) Note On ch=5 par1=66 par2=89
Channel Event. t= 0 (15104) Note On ch=5 par1=74 par2=81
Channel Event. t= 110 (15214) Note Off ch=5 par1=66 par2=64
Channel Event. t= 3 (15217) Note Off ch=5 par1=74 par2=64
Channel Event. t= 79 (15296) Note On ch=5 par1=48 par2=25
Channel Event. t= 124 (15420) Note Off ch=5 par1=48 par2=64
Channel Event. t= 68 (15488) Note On ch=5 par1=47 par2=52
Channel Event. t= 118 (15606) Note Off ch=5 par1=47 par2=64
Channel Event. t= 26 (15632) Controller ch=5 par1=7 (Main Volume) par2=75
Channel Event. t= 48 (15680) Note On ch=5 par1=45 par2=54
Channel Event. t= 106 (15786) Note Off ch=5 par1=45 par2=64
Channel Event. t= 86 (15872) Note On ch=5 par1=43 par2=46
Channel Event. t= 122 (15994) Note Off ch=5 par1=43 par2=64
Channel Event. t= 262 (16256) Note On ch=5 par1=43 par2=44
Channel Event. t= 122 (16378) Note Off ch=5 par1=43 par2=64
Channel Event. t= 262 (16640) Note On ch=5 par1=48 par2=57
Channel Event. t= 138 (16778) Note Off ch=5 par1=48 par2=64
Channel Event. t= 246 (17024) Note On ch=5 par1=48 par2=52
Channel Event. t= 124 (17148) Note Off ch=5 par1=48 par2=64
Channel Event. t= 260 (17408) Note On ch=5 par1=49 par2=65
Channel Event. t= 103 (17511) Note Off ch=5 par1=49 par2=64
Channel Event. t= 281 (17792) Note On ch=5 par1=50 par2=57
Channel Event. t= 124 (17916) Note Off ch=5 par1=50 par2=64
Channel Event. t= 452 (18368) Note On ch=5 par1=43 par2=53
Channel Event. t= 101 (18469) Note Off ch=5 par1=43 par2=64
Channel Event. t= 91 (18560) Note On ch=5 par1=43 par2=61
Channel Event. t= 102 (18662) Note Off ch=5 par1=43 par2=64
Channel Event. t= 282 (18944) Note On ch=5 par1=43 par2=46
Channel Event. t= 105 (19049) Note Off ch=5 par1=43 par2=64
Channel Event. t= 279 (19328) Note On ch=5 par1=43 par2=62
Channel Event. t= 123 (19451) Note Off ch=5 par1=43 par2=64
Channel Event. t= 261 (19712) Note On ch=5 par1=48 par2=50
Channel Event. t= 141 (19853) Note Off ch=5 par1=48 par2=64
Channel Event. t= 243 (20096) Note On ch=5 par1=48 par2=61
Channel Event. t= 133 (20229) Note Off ch=5 par1=48 par2=64
Channel Event. t= 251 (20480) Note On ch=5 par1=49 par2=70
Channel Event. t= 127 (20607) Note Off ch=5 par1=49 par2=64
Channel Event. t= 257 (20864) Note On ch=5 par1=50 par2=60
Channel Event. t= 136 (21000) Note Off ch=5 par1=50 par2=64
Channel Event. t= 440 (21440) Note On ch=5 par1=50 par2=58
Channel Event. t= 98 (21538) Note Off ch=5 par1=50 par2=64
Channel Event. t= 94 (21632) Note On ch=5 par1=43 par2=58
Channel Event. t= 139 (21771) Note Off ch=5 par1=43 par2=64
Channel Event. t= 53 (21824) Note On ch=5 par1=86 par2=75
Channel Event. t= 0 (21824) Note On ch=5 par1=79 par2=61
Channel Event. t= 155 (21979) Note Off ch=5 par1=86 par2=64
Channel Event. t= 15 (21994) Note Off ch=5 par1=79 par2=64
Channel Event. t= 22 (22016) Note On ch=5 par1=74 par2=81
Channel Event. t= 157 (22173) Note Off ch=5 par1=74 par2=64
Channel Event. t= 35 (22208) Note On ch=5 par1=50 par2=73
Channel Event. t= 129 (22337) Note Off ch=5 par1=50 par2=64
Channel Event. t= 63 (22400) Note On ch=5 par1=43 par2=78
Channel Event. t= 142 (22542) Note Off ch=5 par1=43 par2=64
Channel Event. t= 50 (22592) Note On ch=5 par1=86 par2=33
Channel Event. t= 0 (22592) Note On ch=5 par1=79 par2=41
Channel Event. t= 154 (22746) Note Off ch=5 par1=86 par2=64
Channel Event. t= 19 (22765) Note Off ch=5 par1=79 par2=64
Channel Event. t= 19 (22784) Note On ch=5 par1=74 par2=57
Channel Event. t= 160 (22944) Note Off ch=5 par1=74 par2=64
Channel Event. t= 32 (22976) Note On ch=5 par1=50 par2=48
Channel Event. t= 107 (23083) Note Off ch=5 par1=50 par2=64
Channel Event. t= 85 (23168) Note On ch=5 par1=43 par2=58
Channel Event. t= 99 (23267) Note Off ch=5 par1=43 par2=64
Channel Event. t= 93 (23360) Note On ch=5 par1=48 par2=77
Channel Event. t= 0 (23360) Note On ch=5 par1=91 par2=85
Channel Event. t= 0 (23360) Note On ch=5 par1=84 par2=90
Channel Event. t= 133 (23493) Note Off ch=5 par1=48 par2=64
Channel Event. t= 35 (23528) Note Off ch=5 par1=91 par2=64
Channel Event. t= 7 (23535) Note Off ch=5 par1=84 par2=64
Channel Event. t= 17 (23552) Note On ch=5 par1=47 par2=84
Channel Event. t= 0 (23552) Note On ch=5 par1=79 par2=84
Channel Event. t= 142 (23694) Note Off ch=5 par1=47 par2=64
Channel Event. t= 22 (23716) Note Off ch=5 par1=79 par2=64
Channel Event. t= 28 (23744) Note On ch=5 par1=41 par2=84
Channel Event. t= 130 (23874) Note Off ch=5 par1=41 par2=64
Channel Event. t= 62 (23936) Note On ch=5 par1=40 par2=81
Channel Event. t= 128 (24064) Note Off ch=5 par1=40 par2=64
Channel Event. t= 64 (24128) Note On ch=5 par1=38 par2=77
Channel Event. t= 78 (24206) Note Off ch=5 par1=38 par2=64
Channel Event. t= 114 (24320) Note On ch=5 par1=36 par2=63
Channel Event. t= 0 (24320) Note On ch=5 par1=52 par2=69
Channel Event. t= 0 (24320) Note On ch=5 par1=43 par2=63
Channel Event. t= 192 (24512) Note On ch=5 par1=76 par2=61
Channel Event. t= 0 (24512) Note On ch=5 par1=67 par2=47
Channel Event. t= 46 (24558) Note Off ch=5 par1=76 par2=64
Channel Event. t= 1 (24559) Note Off ch=5 par1=67 par2=64
Channel Event. t= 71 (24630) Note Off ch=5 par1=52 par2=64
Channel Event. t= 13 (24643) Note Off ch=5 par1=36 par2=64
Channel Event. t= 0 (24643) Note Off ch=5 par1=43 par2=64
Channel Event. t= 61 (24704) Note On ch=5 par1=52 par2=44
Channel Event. t= 0 (24704) Note On ch=5 par1=43 par2=36
Channel Event. t= 0 (24704) Note On ch=5 par1=36 par2=50
Channel Event. t= 192 (24896) Note On ch=5 par1=67 par2=48
Channel Event. t= 0 (24896) Note On ch=5 par1=76 par2=59
Channel Event. t= 31 (24927) Note Off ch=5 par1=36 par2=64
Channel Event. t= 7 (24934) Note Off ch=5 par1=43 par2=64
Channel Event. t= 3 (24937) Note Off ch=5 par1=52 par2=64
Channel Event. t= 33 (24970) Note Off ch=5 par1=67 par2=64
Channel Event. t= 3 (24973) Note Off ch=5 par1=76 par2=64
Channel Event. t= 115 (25088) Note On ch=5 par1=57 par2=53
Channel Event. t= 0 (25088) Note On ch=5 par1=41 par2=48
Channel Event. t= 0 (25088) Note On ch=5 par1=48 par2=49
Channel Event. t= 192 (25280) Note On ch=5 par1=69 par2=49
Channel Event. t= 0 (25280) Note On ch=5 par1=76 par2=60
Channel Event. t= 36 (25316) Note Off ch=5 par1=48 par2=64
Channel Event. t= 4 (25320) Note Off ch=5 par1=41 par2=64
Channel Event. t= 4 (25324) Note Off ch=5 par1=57 par2=64
Channel Event. t= 36 (25360) Note Off ch=5 par1=69 par2=64
Channel Event. t= 5 (25365) Note Off ch=5 par1=76 par2=64
Channel Event. t= 107 (25472) Note On ch=5 par1=57 par2=45
Channel Event. t= 0 (25472) Note On ch=5 par1=41 par2=35
Channel Event. t= 0 (25472) Note On ch=5 par1=48 par2=45
Channel Event. t= 192 (25664) Note On ch=5 par1=69 par2=58
Channel Event. t= 0 (25664) Note On ch=5 par1=76 par2=69
Channel Event. t= 25 (25689) Note Off ch=5 par1=41 par2=64
Channel Event. t= 7 (25696) Note Off ch=5 par1=48 par2=64
Channel Event. t= 7 (25703) Note Off ch=5 par1=57 par2=64
Channel Event. t= 34 (25737) Note Off ch=5 par1=76 par2=64
Channel Event. t= 1 (25738) Note Off ch=5 par1=69 par2=64
Channel Event. t= 118 (25856) Note On ch=5 par1=57 par2=50
Channel Event. t= 0 (25856) Note On ch=5 par1=42 par2=58
Channel Event. t= 0 (25856) Note On ch=5 par1=48 par2=49
Channel Event. t= 192 (26048) Note On ch=5 par1=76 par2=63
Channel Event. t= 0 (26048) Note On ch=5 par1=69 par2=53
Channel Event. t= 66 (26114) Note Off ch=5 par1=42 par2=64
Channel Event. t= 6 (26120) Note Off ch=5 par1=48 par2=64
Channel Event. t= 6 (26126) Note Off ch=5 par1=76 par2=64
Channel Event. t= 2 (26128) Note Off ch=5 par1=69 par2=64
Channel Event. t= 6 (26134) Note Off ch=5 par1=57 par2=64
Channel Event. t= 106 (26240) Note On ch=5 par1=43 par2=48
Channel Event. t= 0 (26240) Note On ch=5 par1=53 par2=55
Channel Event. t= 0 (26240) Note On ch=5 par1=48 par2=47
Channel Event. t= 192 (26432) Note On ch=5 par1=62 par2=61
Channel Event. t= 0 (26432) Note On ch=5 par1=72 par2=69
Channel Event. t= 21 (26453) Note Off ch=5 par1=53 par2=64
Channel Event. t= 1 (26454) Note Off ch=5 par1=48 par2=64
Channel Event. t= 13 (26467) Note Off ch=5 par1=43 par2=64
Channel Event. t= 35 (26502) Note Off ch=5 par1=62 par2=64
Channel Event. t= 5 (26507) Note Off ch=5 par1=72 par2=64
Channel Event. t= 309 (26816) Note On ch=5 par1=52 par2=52
Channel Event. t= 0 (26816) Note On ch=5 par1=43 par2=45
Channel Event. t= 0 (26816) Note On ch=5 par1=36 par2=44
Channel Event. t= 97 (26913) Note Off ch=5 par1=43 par2=64
Channel Event. t= 1 (26914) Note Off ch=5 par1=52 par2=64
Channel Event. t= 3 (26917) Note Off ch=5 par1=36 par2=64
Channel Event. t= 91 (27008) Note On ch=5 par1=52 par2=50
Channel Event. t= 0 (27008) Note On ch=5 par1=43 par2=44
Channel Event. t= 0 (27008) Note On ch=5 par1=36 par2=52
Channel Event. t= 0 (27008) Note On ch=5 par1=72 par2=64
Channel Event. t= 0 (27008) Note On ch=5 par1=64 par2=61
Channel Event. t= 90 (27098) Note Off ch=5 par1=64 par2=64
Channel Event. t= 10 (27108) Note Off ch=5 par1=72 par2=64
Channel Event. t= 41 (27149) Note Off ch=5 par1=36 par2=64
Channel Event. t= 1 (27150) Note Off ch=5 par1=43 par2=64
Channel Event. t= 6 (27156) Note Off ch=5 par1=52 par2=64
Channel Event. t= 236 (27392) Note On ch=5 par1=52 par2=49
Channel Event. t= 0 (27392) Note On ch=5 par1=43 par2=42
Channel Event. t= 0 (27392) Note On ch=5 par1=36 par2=45
Channel Event. t= 192 (27584) Note On ch=5 par1=76 par2=42
Channel Event. t= 0 (27584) Note On ch=5 par1=67 par2=32
Channel Event. t= 13 (27597) Note Off ch=5 par1=52 par2=64
Channel Event. t= 5 (27602) Note Off ch=5 par1=43 par2=64
Channel Event. t= 4 (27606) Note Off ch=5 par1=36 par2=64
Channel Event. t= 61 (27667) Note Off ch=5 par1=67 par2=64
Channel Event. t= 5 (27672) Note Off ch=5 par1=76 par2=64
Channel Event. t= 104 (27776) Note On ch=5 par1=43 par2=48
Channel Event. t= 0 (27776) Note On ch=5 par1=36 par2=48
Channel Event. t= 0 (27776) Note On ch=5 par1=52 par2=68
Channel Event. t= 192 (27968) Note On ch=5 par1=76 par2=38
Channel Event. t= 0 (27968) Note On ch=5 par1=67 par2=31
Channel Event. t= 13 (27981) Note Off ch=5 par1=43 par2=64
Channel Event. t= 0 (27981) Note Off ch=5 par1=36 par2=64
Channel Event. t= 3 (27984) Note Off ch=5 par1=52 par2=64
Channel Event. t= 73 (28057) Note Off ch=5 par1=67 par2=64
Channel Event. t= 5 (28062) Note Off ch=5 par1=76 par2=64
Channel Event. t= 98 (28160) Note On ch=5 par1=57 par2=62
Channel Event. t= 0 (28160) Note On ch=5 par1=48 par2=58
Channel Event. t= 0 (28160) Note On ch=5 par1=41 par2=46
Channel Event. t= 192 (28352) Note On ch=5 par1=76 par2=45
Channel Event. t= 0 (28352) Note On ch=5 par1=69 par2=38
Channel Event. t= 9 (28361) Note Off ch=5 par1=41 par2=64
Channel Event. t= 4 (28365) Note Off ch=5 par1=48 par2=64
Channel Event. t= 11 (28376) Note Off ch=5 par1=57 par2=64
Channel Event. t= 76 (28452) Note Off ch=5 par1=69 par2=64
Channel Event. t= 2 (28454) Note Off ch=5 par1=76 par2=64
Channel Event. t= 90 (28544) Note On ch=5 par1=57 par2=55
Channel Event. t= 0 (28544) Note On ch=5 par1=41 par2=45
Channel Event. t= 0 (28544) Note On ch=5 par1=48 par2=56
Channel Event. t= 192 (28736) Note On ch=5 par1=76 par2=54
Channel Event. t= 0 (28736) Note On ch=5 par1=69 par2=42
Channel Event. t= 20 (28756) Note Off ch=5 par1=41 par2=64
Channel Event. t= 0 (28756) Note Off ch=5 par1=48 par2=64
Channel Event. t= 9 (28765) Note Off ch=5 par1=57 par2=64
Channel Event. t= 52 (28817) Note Off ch=5 par1=69 par2=64
Channel Event. t= 13 (28830) Note Off ch=5 par1=76 par2=64
Channel Event. t= 98 (28928) Note On ch=5 par1=57 par2=53
Channel Event. t= 0 (28928) Note On ch=5 par1=48 par2=54
Channel Event. t= 0 (28928) Note On ch=5 par1=42 par2=60
Channel Event. t= 192 (29120) Note On ch=5 par1=69 par2=42
Channel Event. t= 0 (29120) Note On ch=5 par1=77 par2=55
Channel Event. t= 48 (29168) Note Off ch=5 par1=42 par2=64
Channel Event. t= 5 (29173) Note Off ch=5 par1=48 par2=64
Channel Event. t= 10 (29183) Note Off ch=5 par1=57 par2=64
Channel Event. t= 29 (29212) Note Off ch=5 par1=69 par2=64
Channel Event. t= 4 (29216) Note Off ch=5 par1=77 par2=64
Channel Event. t= 96 (29312) Note On ch=5 par1=57 par2=74
Channel Event. t= 0 (29312) Note On ch=5 par1=42 par2=66
Channel Event. t= 0 (29312) Note On ch=5 par1=48 par2=60
Channel Event. t= 192 (29504) Note On ch=5 par1=76 par2=55
Channel Event. t= 0 (29504) Note On ch=5 par1=69 par2=46
Channel Event. t= 10 (29514) Note Off ch=5 par1=48 par2=64
Channel Event. t= 1 (29515) Note Off ch=5 par1=42 par2=64
Channel Event. t= 10 (29525) Note Off ch=5 par1=57 par2=64
Channel Event. t= 47 (29572) Note Off ch=5 par1=69 par2=64
Channel Event. t= 6 (29578) Note Off ch=5 par1=76 par2=64
Channel Event. t= 310 (29888) Note On ch=5 par1=53 par2=80
Channel Event. t= 0 (29888) Note On ch=5 par1=50 par2=61
Channel Event. t= 0 (29888) Note On ch=5 par1=43 par2=65
Channel Event. t= 119 (30007) Note Off ch=5 par1=43 par2=64
Channel Event. t= 4 (30011) Note Off ch=5 par1=50 par2=64
Channel Event. t= 30 (30041) Note Off ch=5 par1=53 par2=64
Channel Event. t= 39 (30080) Note On ch=5 par1=43 par2=69
Channel Event. t= 0 (30080) Note On ch=5 par1=52 par2=83
Channel Event. t= 0 (30080) Note On ch=5 par1=36 par2=71
Channel Event. t= 187 (30267) Note Off ch=5 par1=52 par2=64
Channel Event. t= 8 (30275) Note Off ch=5 par1=36 par2=64
Channel Event. t= 5 (30280) Note Off ch=5 par1=43 par2=64
Channel Event. t= 136 (30416) Controller ch=5 par1=7 (Main Volume) par2=80
Channel Event. t= 36 (30452) Note On ch=5 par1=66 par2=93
Channel Event. t= 4 (30456) Note On ch=5 par1=58 par2=78
Channel Event. t= 1 (30457) Note On ch=5 par1=61 par2=70
Channel Event. t= 50 (30507) Note Off ch=5 par1=61 par2=64
Channel Event. t= 4 (30511) Note Off ch=5 par1=58 par2=64
Channel Event. t= 4 (30515) Note Off ch=5 par1=66 par2=64
Channel Event. t= 28 (30543) Note On ch=5 par1=66 par2=71
Channel Event. t= 4 (30547) Note On ch=5 par1=58 par2=74
Channel Event. t= 2 (30549) Note On ch=5 par1=61 par2=64
Channel Event. t= 45 (30594) Note Off ch=5 par1=61 par2=64
Channel Event. t= 2 (30596) Note Off ch=5 par1=66 par2=64
Channel Event. t= 2 (30598) Note Off ch=5 par1=58 par2=64
Channel Event. t= 34 (30632) Note On ch=5 par1=66 par2=53
Channel Event. t= 7 (30639) Note On ch=5 par1=61 par2=49
Channel Event. t= 1 (30640) Note On ch=5 par1=58 par2=62
Channel Event. t= 43 (30683) Note Off ch=5 par1=61 par2=64
Channel Event. t= 1 (30684) Note Off ch=5 par1=66 par2=64
Channel Event. t= 5 (30689) Note Off ch=5 par1=58 par2=64
Channel Event. t= 37 (30726) Note On ch=5 par1=66 par2=50
Channel Event. t= 4 (30730) Note On ch=5 par1=58 par2=55
Channel Event. t= 5 (30735) Note On ch=5 par1=61 par2=25
Channel Event. t= 43 (30778) Note Off ch=5 par1=61 par2=64
Channel Event. t= 1 (30779) Note Off ch=5 par1=66 par2=64
Channel Event. t= 4 (30783) Note Off ch=5 par1=58 par2=64
Channel Event. t= 41 (30824) Note On ch=5 par1=66 par2=24
Channel Event. t= 3 (30827) Note On ch=5 par1=58 par2=37
Channel Event. t= 4 (30831) Note On ch=5 par1=61 par2=17
Channel Event. t= 43 (30874) Note Off ch=5 par1=61 par2=64
Channel Event. t= 1 (30875) Note Off ch=5 par1=66 par2=64
Channel Event. t= 1 (30876) Note Off ch=5 par1=58 par2=64
Channel Event. t= 49 (30925) Note On ch=5 par1=66 par2=24
Channel Event. t= 4 (30929) Note On ch=5 par1=58 par2=27
Channel Event. t= 4 (30933) Note On ch=5 par1=61 par2=9
Channel Event. t= 37 (30970) Note Off ch=5 par1=66 par2=64
Channel Event. t= 2 (30972) Note Off ch=5 par1=61 par2=64
Channel Event. t= 2 (30974) Note Off ch=5 par1=58 par2=64
Channel Event. t= 45 (31019) Note On ch=5 par1=66 par2=20
Channel Event. t= 8 (31027) Note On ch=5 par1=58 par2=26
Channel Event. t= 4 (31031) Note On ch=5 par1=61 par2=11
Channel Event. t= 38 (31069) Note Off ch=5 par1=66 par2=64
Channel Event. t= 0 (31069) Note Off ch=5 par1=58 par2=64
Channel Event. t= 0 (31069) Note Off ch=5 par1=61 par2=64
Channel Event. t= 43 (31112) Note On ch=5 par1=66 par2=18
Channel Event. t= 7 (31119) Note On ch=5 par1=58 par2=31
Channel Event. t= 3 (31122) Note On ch=5 par1=61 par2=22
Channel Event. t= 39 (31161) Note Off ch=5 par1=61 par2=64
Channel Event. t= 1 (31162) Note Off ch=5 par1=58 par2=64
Channel Event. t= 2 (31164) Note Off ch=5 par1=66 par2=64
Channel Event. t= 41 (31205) Note On ch=5 par1=66 par2=17
Channel Event. t= 5 (31210) Note On ch=5 par1=58 par2=30
Channel Event. t= 7 (31217) Note On ch=5 par1=61 par2=13
Channel Event. t= 37 (31254) Note Off ch=5 par1=61 par2=64
Channel Event. t= 4 (31258) Note Off ch=5 par1=66 par2=64
Channel Event. t= 1 (31259) Note Off ch=5 par1=58 par2=64
Channel Event. t= 43 (31302) Note On ch=5 par1=66 par2=17
Channel Event. t= 7 (31309) Note On ch=5 par1=58 par2=29
Channel Event. t= 6 (31315) Note On ch=5 par1=61 par2=17
Channel Event. t= 36 (31351) Note Off ch=5 par1=61 par2=64
Channel Event. t= 2 (31353) Note Off ch=5 par1=66 par2=64
Channel Event. t= 3 (31356) Note Off ch=5 par1=58 par2=64
Channel Event. t= 50 (31406) Note On ch=5 par1=66 par2=21
Channel Event. t= 0 (31406) Note On ch=5 par1=58 par2=25
Channel Event. t= 5 (31411) Note On ch=5 par1=61 par2=15
Channel Event. t= 41 (31452) Note Off ch=5 par1=61 par2=64
Channel Event. t= 4 (31456) Note Off ch=5 par1=66 par2=64
Channel Event. t= 0 (31456) Note Off ch=5 par1=58 par2=64
Channel Event. t= 47 (31503) Note On ch=5 par1=66 par2=19
Channel Event. t= 1 (31504) Note On ch=5 par1=58 par2=25
Channel Event. t= 5 (31509) Note On ch=5 par1=61 par2=12
Channel Event. t= 38 (31547) Note Off ch=5 par1=66 par2=64
Channel Event. t= 0 (31547) Note Off ch=5 par1=61 par2=64
Channel Event. t= 2 (31549) Note Off ch=5 par1=58 par2=64
Channel Event. t= 53 (31602) Note On ch=5 par1=66 par2=35
Channel Event. t= 2 (31604) Note On ch=5 par1=58 par2=43
Channel Event. t= 3 (31607) Note On ch=5 par1=61 par2=14
Channel Event. t= 41 (31648) Note Off ch=5 par1=61 par2=64
Channel Event. t= 1 (31649) Note Off ch=5 par1=66 par2=64
Channel Event. t= 1 (31650) Note Off ch=5 par1=58 par2=64
Channel Event. t= 47 (31697) Note On ch=5 par1=66 par2=27
Channel Event. t= 2 (31699) Note On ch=5 par1=58 par2=34
Channel Event. t= 5 (31704) Note On ch=5 par1=61 par2=14
Channel Event. t= 35 (31739) Note Off ch=5 par1=61 par2=64
Channel Event. t= 2 (31741) Note Off ch=5 par1=66 par2=64
Channel Event. t= 3 (31744) Note Off ch=5 par1=58 par2=64
Channel Event. t= 49 (31793) Note On ch=5 par1=66 par2=26
Channel Event. t= 4 (31797) Note On ch=5 par1=58 par2=33
Channel Event. t= 6 (31803) Note On ch=5 par1=61 par2=15
Channel Event. t= 33 (31836) Note Off ch=5 par1=66 par2=64
Channel Event. t= 1 (31837) Note Off ch=5 par1=61 par2=64
Channel Event. t= 5 (31842) Note Off ch=5 par1=58 par2=64
Channel Event. t= 46 (31888) Note On ch=5 par1=66 par2=29
Channel Event. t= 5 (31893) Note On ch=5 par1=58 par2=26
Channel Event. t= 4 (31897) Note On ch=5 par1=61 par2=16
Channel Event. t= 38 (31935) Note Off ch=5 par1=61 par2=64
Channel Event. t= 2 (31937) Note Off ch=5 par1=66 par2=64
Channel Event. t= 3 (31940) Note Off ch=5 par1=58 par2=64
Channel Event. t= 43 (31983) Note On ch=5 par1=66 par2=26
Channel Event. t= 4 (31987) Note On ch=5 par1=58 par2=27
Channel Event. t= 6 (31993) Note On ch=5 par1=61 par2=13
Channel Event. t= 43 (32036) Note Off ch=5 par1=61 par2=64
Channel Event. t= 1 (32037) Note Off ch=5 par1=58 par2=64
Channel Event. t= 1 (32038) Note Off ch=5 par1=66 par2=64
Channel Event. t= 42 (32080) Note On ch=5 par1=66 par2=26
Channel Event. t= 5 (32085) Note On ch=5 par1=58 par2=33
Channel Event. t= 5 (32090) Note On ch=5 par1=61 par2=15
Channel Event. t= 40 (32130) Note Off ch=5 par1=66 par2=64
Channel Event. t= 1 (32131) Note Off ch=5 par1=61 par2=64
Channel Event. t= 2 (32133) Note Off ch=5 par1=58 par2=64
Channel Event. t= 48 (32181) Note On ch=5 par1=66 par2=23
Channel Event. t= 2 (32183) Note On ch=5 par1=58 par2=30
Channel Event. t= 3 (32186) Note On ch=5 par1=61 par2=9
Channel Event. t= 44 (32230) Note Off ch=5 par1=61 par2=64
Channel Event. t= 1 (32231) Note Off ch=5 par1=58 par2=64
Channel Event. t= 1 (32232) Note Off ch=5 par1=66 par2=64
Channel Event. t= 40 (32272) Note On ch=5 par1=66 par2=24
Channel Event. t= 7 (32279) Note On ch=5 par1=58 par2=36
Channel Event. t= 1 (32280) Note On ch=5 par1=61 par2=18
Channel Event. t= 39 (32319) Note Off ch=5 par1=66 par2=64
Channel Event. t= 0 (32319) Note Off ch=5 par1=61 par2=64
Channel Event. t= 1 (32320) Note Off ch=5 par1=58 par2=64
Channel Event. t= 46 (32366) Note On ch=5 par1=66 par2=28
Channel Event. t= 5 (32371) Note On ch=5 par1=58 par2=37
Channel Event. t= 3 (32374) Note On ch=5 par1=61 par2=10
Channel Event. t= 44 (32418) Note Off ch=5 par1=58 par2=64
Channel Event. t= 1 (32419) Note Off ch=5 par1=66 par2=64
Channel Event. t= 0 (32419) Note Off ch=5 par1=61 par2=64
Channel Event. t= 42 (32461) Note On ch=5 par1=66 par2=34
Channel Event. t= 3 (32464) Note On ch=5 par1=58 par2=36
Channel Event. t= 1 (32465) Note On ch=5 par1=61 par2=15
Channel Event. t= 44 (32509) Note Off ch=5 par1=66 par2=64
Channel Event. t= 1 (32510) Note Off ch=5 par1=58 par2=64
Channel Event. t= 0 (32510) Note Off ch=5 par1=61 par2=64
Channel Event. t= 46 (32556) Note On ch=5 par1=66 par2=29
Channel Event. t= 3 (32559) Note On ch=5 par1=58 par2=36
Channel Event. t= 3 (32562) Note On ch=5 par1=61 par2=15
Channel Event. t= 45 (32607) Note Off ch=5 par1=58 par2=64
Channel Event. t= 0 (32607) Note Off ch=5 par1=61 par2=64
Channel Event. t= 2 (32609) Note Off ch=5 par1=66 par2=64
Channel Event. t= 39 (32648) Note On ch=5 par1=66 par2=31
Channel Event. t= 7 (32655) Note On ch=5 par1=58 par2=31
Channel Event. t= 2 (32657) Note On ch=5 par1=61 par2=13
Channel Event. t= 42 (32699) Note Off ch=5 par1=66 par2=64
Channel Event. t= 0 (32699) Note Off ch=5 par1=58 par2=64
Channel Event. t= 0 (32699) Note Off ch=5 par1=61 par2=64
Channel Event. t= 46 (32745) Note On ch=5 par1=66 par2=28
Channel Event. t= 4 (32749) Note On ch=5 par1=61 par2=15
Channel Event. t= 0 (32749) Note On ch=5 par1=58 par2=38
Channel Event. t= 48 (32797) Note Off ch=5 par1=61 par2=64
Channel Event. t= 1 (32798) Note Off ch=5 par1=58 par2=64
Channel Event. t= 5 (32803) Note Off ch=5 par1=66 par2=64
Channel Event. t= 38 (32841) Note On ch=5 par1=66 par2=22
Channel Event. t= 5 (32846) Note On ch=5 par1=58 par2=37
Channel Event. t= 3 (32849) Note On ch=5 par1=61 par2=14
Channel Event. t= 41 (32890) Note Off ch=5 par1=61 par2=64
Channel Event. t= 1 (32891) Note Off ch=5 par1=66 par2=64
Channel Event. t= 2 (32893) Note Off ch=5 par1=58 par2=64
Channel Event. t= 45 (32938) Note On ch=5 par1=66 par2=36
Channel Event. t= 5 (32943) Note On ch=5 par1=58 par2=36
Channel Event. t= 2 (32945) Note On ch=5 par1=61 par2=20
Channel Event. t= 43 (32988) Note Off ch=5 par1=61 par2=64
Channel Event. t= 2 (32990) Note Off ch=5 par1=58 par2=64
Channel Event. t= 2 (32992) Note Off ch=5 par1=66 par2=64
Channel Event. t= 43 (33035) Note On ch=5 par1=66 par2=36
Channel Event. t= 4 (33039) Note On ch=5 par1=58 par2=47
Channel Event. t= 4 (33043) Note On ch=5 par1=61 par2=24
Channel Event. t= 42 (33085) Note Off ch=5 par1=61 par2=64
Channel Event. t= 4 (33089) Note Off ch=5 par1=58 par2=64
Channel Event. t= 4 (33093) Note Off ch=5 par1=66 par2=64
Channel Event. t= 42 (33135) Note On ch=5 par1=66 par2=36
Channel Event. t= 3 (33138) Note On ch=5 par1=58 par2=45
Channel Event. t= 3 (33141) Note On ch=5 par1=61 par2=31
Channel Event. t= 46 (33187) Note Off ch=5 par1=61 par2=64
Channel Event. t= 2 (33189) Note Off ch=5 par1=58 par2=64
Channel Event. t= 5 (33194) Note Off ch=5 par1=66 par2=64
Channel Event. t= 41 (33235) Note On ch=5 par1=66 par2=46
Channel Event. t= 4 (33239) Note On ch=5 par1=58 par2=47
Channel Event. t= 2 (33241) Note On ch=5 par1=61 par2=32
Channel Event. t= 43 (33284) Note Off ch=5 par1=61 par2=64
Channel Event. t= 4 (33288) Note Off ch=5 par1=58 par2=64
Channel Event. t= 5 (33293) Note Off ch=5 par1=66 par2=64
Channel Event. t= 42 (33335) Note On ch=5 par1=66 par2=51
Channel Event. t= 3 (33338) Note On ch=5 par1=58 par2=44
Channel Event. t= 3 (33341) Note On ch=5 par1=61 par2=31
Channel Event. t= 41 (33382) Note Off ch=5 par1=61 par2=64
Channel Event. t= 5 (33387) Note Off ch=5 par1=58 par2=64
Channel Event. t= 5 (33392) Note Off ch=5 par1=66 par2=64
Channel Event. t= 42 (33434) Note On ch=5 par1=66 par2=60
Channel Event. t= 2 (33436) Note On ch=5 par1=58 par2=53
Channel Event. t= 2 (33438) Note On ch=5 par1=61 par2=44
Channel Event. t= 29 (33467) Note Off ch=5 par1=61 par2=64
Channel Event. t= 8 (33475) Note Off ch=5 par1=58 par2=64
Channel Event. t= 25 (33500) Note Off ch=5 par1=66 par2=64
Channel Event. t= 45 (33545) Note On ch=5 par1=59 par2=90
Channel Event. t= 2 (33547) Note On ch=5 par1=50 par2=64
Channel Event. t= 1 (33548) Note On ch=5 par1=53 par2=70
Channel Event. t= 89 (33637) Note On ch=5 par1=67 par2=84
Channel Event. t= 98 (33735) Note On ch=5 par1=66 par2=96
Channel Event. t= 19 (33754) Note Off ch=5 par1=67 par2=64
Channel Event. t= 70 (33824) Note On ch=5 par1=63 par2=91
Channel Event. t= 19 (33843) Note Off ch=5 par1=66 par2=64
Channel Event. t= 76 (33919) Note On ch=5 par1=62 par2=90
Channel Event. t= 7 (33926) Note Off ch=5 par1=63 par2=64
Channel Event. t= 84 (34010) Note On ch=5 par1=63 par2=89
Channel Event. t= 21 (34031) Note Off ch=5 par1=62 par2=64
Channel Event. t= 76 (34107) Note On ch=5 par1=66 par2=91
Channel Event. t= 17 (34124) Note Off ch=5 par1=63 par2=64
Channel Event. t= 73 (34197) Note On ch=5 par1=67 par2=73
Channel Event. t= 17 (34214) Note Off ch=5 par1=66 par2=64
Channel Event. t= 84 (34298) Note On ch=5 par1=60 par2=104
Channel Event. t= 9 (34307) Note Off ch=5 par1=67 par2=64
Channel Event. t= 190 (34497) Note On ch=5 par1=63 par2=104
Channel Event. t= 10 (34507) Note Off ch=5 par1=60 par2=64
Channel Event. t= 78 (34585) Note On ch=5 par1=66 par2=91
Channel Event. t= 13 (34598) Note Off ch=5 par1=63 par2=64
Channel Event. t= 79 (34677) Note On ch=5 par1=67 par2=90
Channel Event. t= 8 (34685) Note Off ch=5 par1=66 par2=64
Channel Event. t= 184 (34869) Note On ch=5 par1=66 par2=86
Channel Event. t= 17 (34886) Note Off ch=5 par1=67 par2=64
Channel Event. t= 90 (34976) Note Off ch=5 par1=53 par2=64
Channel Event. t= 14 (34990) Note Off ch=5 par1=66 par2=64
Channel Event. t= 1 (34991) Note Off ch=5 par1=50 par2=64
Channel Event. t= 1 (34992) Note Off ch=5 par1=59 par2=64
Channel Event. t= 68 (35060) Note On ch=5 par1=59 par2=42
Channel Event. t= 3 (35063) Note On ch=5 par1=50 par2=56
Channel Event. t= 3 (35066) Note On ch=5 par1=53 par2=37
Channel Event. t= 91 (35157) Note On ch=5 par1=67 par2=84
Channel Event. t= 95 (35252) Note On ch=5 par1=66 par2=78
Channel Event. t= 8 (35260) Note Off ch=5 par1=67 par2=64
Channel Event. t= 84 (35344) Note On ch=5 par1=63 par2=80
Channel Event. t= 15 (35359) Note Off ch=5 par1=66 par2=64
Channel Event. t= 79 (35438) Note On ch=5 par1=62 par2=81
Channel Event. t= 1 (35439) Note Off ch=5 par1=63 par2=64
Channel Event. t= 91 (35530) Note On ch=5 par1=63 par2=75
Channel Event. t= 22 (35552) Note Off ch=5 par1=62 par2=64
Channel Event. t= 77 (35629) Note On ch=5 par1=66 par2=86
Channel Event. t= 12 (35641) Note Off ch=5 par1=63 par2=64
Channel Event. t= 86 (35727) Note Off ch=5 par1=66 par2=64
Channel Event. t= 0 (35727) Note On ch=5 par1=67 par2=74
Channel Event. t= 74 (35801) Note Off ch=5 par1=53 par2=64
Channel Event. t= 6 (35807) Note Off ch=5 par1=50 par2=64
Channel Event. t= 17 (35824) Note On ch=5 par1=74 par2=96
Channel Event. t= 11 (35835) Note Off ch=5 par1=67 par2=64
Channel Event. t= 6 (35841) Note On ch=5 par1=50 par2=31
Channel Event. t= 3 (35844) Note On ch=5 par1=53 par2=39
Channel Event. t= 1 (35845) Note On ch=5 par1=60 par2=46
Channel Event. t= 18 (35863) Note Off ch=5 par1=59 par2=64
Channel Event. t= 149 (36012) Note On ch=5 par1=75 par2=93
Channel Event. t= 10 (36022) Note Off ch=5 par1=74 par2=64
Channel Event. t= 85 (36107) Note On ch=5 par1=74 par2=80
Channel Event. t= 5 (36112) Note Off ch=5 par1=75 par2=64
Channel Event. t= 97 (36209) Note On ch=5 par1=72 par2=86
Channel Event. t= 13 (36222) Note Off ch=5 par1=74 par2=64
Channel Event. t= 181 (36403) Note On ch=5 par1=65 par2=89
Channel Event. t= 6 (36409) Note Off ch=5 par1=72 par2=64
Channel Event. t= 151 (36560) Note Off ch=5 par1=50 par2=64
Channel Event. t= 1 (36561) Note Off ch=5 par1=53 par2=64
Channel Event. t= 6 (36567) Note Off ch=5 par1=65 par2=64
Channel Event. t= 30 (36597) Note On ch=5 par1=59 par2=41
Channel Event. t= 0 (36597) Note On ch=5 par1=66 par2=90
Channel Event. t= 13 (36610) Note On ch=5 par1=53 par2=18
Channel Event. t= 5 (36615) Note On ch=5 par1=50 par2=34
Channel Event. t= 32 (36647) Note Off ch=5 par1=60 par2=64
Channel Event. t= 146 (36793) Note On ch=5 par1=67 par2=69
Channel Event. t= 15 (36808) Note Off ch=5 par1=66 par2=64
Channel Event. t= 163 (36971) Note Off ch=5 par1=53 par2=64
Channel Event. t= 7 (36978) Note Off ch=5 par1=59 par2=64
Channel Event. t= 4 (36982) Note Off ch=5 par1=50 par2=64
Channel Event. t= 2 (36984) Note On ch=5 par1=66 par2=65
Channel Event. t= 24 (37008) Note Off ch=5 par1=67 par2=64
Channel Event. t= 98 (37106) Note Off ch=5 par1=66 par2=64
Channel Event. t= 61 (37167) Note On ch=5 par1=42 par2=53
Channel Event. t= 3 (37170) Note On ch=5 par1=54 par2=42
Channel Event. t= 118 (37288) Note Off ch=5 par1=42 par2=64
Channel Event. t= 13 (37301) Note Off ch=5 par1=54 par2=64
Channel Event. t= 50 (37351) Note On ch=5 par1=43 par2=56
Channel Event. t= 13 (37364) Note On ch=5 par1=55 par2=57
Channel Event. t= 113 (37477) Note Off ch=5 par1=55 par2=64
Channel Event. t= 32 (37509) Note Off ch=5 par1=43 par2=64
Channel Event. t= 241 (37750) Note On ch=5 par1=41 par2=55
Channel Event. t= 4 (37754) Note On ch=5 par1=53 par2=59
Channel Event. t= 134 (37888) Note Off ch=5 par1=53 par2=64
Channel Event. t= 4 (37892) Note Off ch=5 par1=41 par2=64
Channel Event. t= 242 (38134) Note On ch=5 par1=40 par2=56
Channel Event. t= 5 (38139) Note On ch=5 par1=52 par2=50
Channel Event. t= 143 (38282) Note Off ch=5 par1=52 par2=64
Channel Event. t= 14 (38296) Note Off ch=5 par1=40 par2=64
Channel Event. t= 222 (38518) Note On ch=5 par1=50 par2=42
Channel Event. t= 13 (38531) Note On ch=5 par1=38 par2=43
Channel Event. t= 149 (38680) Note Off ch=5 par1=50 par2=64
Channel Event. t= 8 (38688) Note Off ch=5 par1=38 par2=64
Channel Event. t= 222 (38910) Note On ch=5 par1=36 par2=41
Channel Event. t= 1 (38911) Note On ch=5 par1=43 par2=49
Channel Event. t= 123 (39034) Note Off ch=5 par1=43 par2=64
Channel Event. t= 1 (39035) Note Off ch=5 par1=36 par2=64
Channel Event. t= 249 (39284) Note On ch=5 par1=36 par2=36
Channel Event. t= 0 (39284) Note On ch=5 par1=43 par2=40
Channel Event. t= 135 (39419) Note Off ch=5 par1=36 par2=64
Channel Event. t= 9 (39428) Note Off ch=5 par1=43 par2=64
Channel Event. t= 246 (39674) Note On ch=5 par1=48 par2=42
Channel Event. t= 1 (39675) Note On ch=5 par1=41 par2=41
Channel Event. t= 122 (39797) Note Off ch=5 par1=41 par2=64
Channel Event. t= 8 (39805) Note Off ch=5 par1=48 par2=64
Channel Event. t= 248 (40053) Note On ch=5 par1=48 par2=43
Channel Event. t= 2 (40055) Note On ch=5 par1=41 par2=43
Channel Event. t= 118 (40173) Note Off ch=5 par1=41 par2=64
Channel Event. t= 5 (40178) Note Off ch=5 par1=48 par2=64
Channel Event. t= 260 (40438) Note On ch=5 par1=42 par2=53
Channel Event. t= 2 (40440) Note On ch=5 par1=48 par2=35
Channel Event. t= 128 (40568) Note Off ch=5 par1=42 par2=64
Channel Event. t= 8 (40576) Note Off ch=5 par1=48 par2=64
Channel Event. t= 252 (40828) Note On ch=5 par1=43 par2=50
Channel Event. t= 2 (40830) Note On ch=5 par1=48 par2=49
Channel Event. t= 116 (40946) Note Off ch=5 par1=43 par2=64
Channel Event. t= 5 (40951) Note Off ch=5 par1=48 par2=64
Channel Event. t= 448 (41399) Note On ch=5 par1=43 par2=49
Channel Event. t= 2 (41401) Note On ch=5 par1=50 par2=44
Channel Event. t= 65 (41466) Note Off ch=5 par1=50 par2=64
Channel Event. t= 25 (41491) Note Off ch=5 par1=43 par2=64
Channel Event. t= 98 (41589) Note On ch=5 par1=43 par2=63
Channel Event. t= 6 (41595) Note On ch=5 par1=36 par2=63
Channel Event. t= 82 (41677) Note Off ch=5 par1=36 par2=64
Channel Event. t= 33 (41710) Note Off ch=5 par1=43 par2=64
Channel Event. t= 79 (41789) Note On ch=5 par1=36 par2=69
Channel Event. t= 138 (41927) Note Off ch=5 par1=36 par2=64
Channel Event. t= 48 (41975) Note On ch=5 par1=35 par2=64
Channel Event. t= 124 (42099) Note Off ch=5 par1=35 par2=64
Channel Event. t= 64 (42163) Note On ch=5 par1=33 par2=66
Channel Event. t= 126 (42289) Note Off ch=5 par1=33 par2=64
Channel Event. t= 65 (42354) Note On ch=5 par1=31 par2=69
Channel Event. t= 149 (42503) Note Off ch=5 par1=31 par2=64
Channel Event. t= 39 (42542) Note On ch=5 par1=42 par2=72
Channel Event. t= 172 (42714) Note Off ch=5 par1=42 par2=64
Channel Event. t= 29 (42743) Note On ch=5 par1=40 par2=63
Channel Event. t= 153 (42896) Note Off ch=5 par1=40 par2=64
Channel Event. t= 37 (42933) Note On ch=5 par1=38 par2=62
Channel Event. t= 137 (43070) Note Off ch=5 par1=38 par2=64
Channel Event. t= 52 (43122) Note On ch=5 par1=37 par2=77
Channel Event. t= 216 (43338) Note Off ch=5 par1=37 par2=64
Channel Event. t= 2124 (45462) Note On ch=5 par1=64 par2=16
Channel Event. t= 55 (45517) Note Off ch=5 par1=64 par2=64
Channel Event. t= 112 (45629) Note On ch=5 par1=61 par2=33
Channel Event. t= 1 (45630) Note On ch=5 par1=64 par2=30
Channel Event. t= 63 (45693) Note Off ch=5 par1=61 par2=64
Channel Event. t= 11 (45704) Note Off ch=5 par1=64 par2=64
Channel Event. t= 116 (45820) Note On ch=5 par1=61 par2=36
Channel Event. t= 0 (45820) Note On ch=5 par1=64 par2=41
Channel Event. t= 73 (45893) Note Off ch=5 par1=61 par2=64
Channel Event. t= 10 (45903) Note Off ch=5 par1=64 par2=64
Channel Event. t= 103 (46006) Note On ch=5 par1=61 par2=41
Channel Event. t= 1 (46007) Note On ch=5 par1=64 par2=44
Channel Event. t= 72 (46079) Note Off ch=5 par1=61 par2=64
Channel Event. t= 10 (46089) Note Off ch=5 par1=64 par2=64
Channel Event. t= 112 (46201) Note On ch=5 par1=61 par2=40
Channel Event. t= 2 (46203) Note On ch=5 par1=64 par2=45
Channel Event. t= 63 (46266) Note Off ch=5 par1=61 par2=64
Channel Event. t= 9 (46275) Note Off ch=5 par1=64 par2=64
Channel Event. t= 121 (46396) Note On ch=5 par1=61 par2=45
Channel Event. t= 0 (46396) Note On ch=5 par1=64 par2=49
Channel Event. t= 54 (46450) Note Off ch=5 par1=61 par2=64
Channel Event. t= 8 (46458) Note Off ch=5 par1=64 par2=64
Channel Event. t= 121 (46579) Note On ch=5 par1=61 par2=58
Channel Event. t= 1 (46580) Note On ch=5 par1=64 par2=58
Channel Event. t= 82 (46662) Note Off ch=5 par1=61 par2=64
Channel Event. t= 8 (46670) Note Off ch=5 par1=64 par2=64
Channel Event. t= 20 (46690) Note On ch=5 par1=41 par2=70
Channel Event. t= 65 (46755) Note On ch=5 par1=42 par2=86
Channel Event. t= 5 (46760) Note Off ch=5 par1=41 par2=64
Channel Event. t= 16 (46776) Note On ch=5 par1=61 par2=56
Channel Event. t= 1 (46777) Note On ch=5 par1=64 par2=59
Channel Event. t= 50 (46827) Note Off ch=5 par1=42 par2=64
Channel Event. t= 21 (46848) Note Off ch=5 par1=61 par2=64
Channel Event. t= 10 (46858) Note Off ch=5 par1=64 par2=64
Channel Event. t= 99 (46957) Note On ch=5 par1=63 par2=65
Channel Event. t= 1 (46958) Note On ch=5 par1=60 par2=53
Channel Event. t= 79 (47037) Note Off ch=5 par1=63 par2=64
Channel Event. t= 6 (47043) Note Off ch=5 par1=60 par2=64
Channel Event. t= 42 (47085) Note On ch=5 par1=41 par2=74
Channel Event. t= 59 (47144) Note On ch=5 par1=63 par2=65
Channel Event. t= 4 (47148) Note On ch=5 par1=42 par2=91
Channel Event. t= 2 (47150) Note On ch=5 par1=60 par2=46
Channel Event. t= 5 (47155) Note Off ch=5 par1=41 par2=64
Channel Event. t= 58 (47213) Note Off ch=5 par1=42 par2=64
Channel Event. t= 1 (47214) Note Off ch=5 par1=63 par2=64
Channel Event. t= 23 (47237) Note Off ch=5 par1=60 par2=64
Channel Event. t= 105 (47342) Note On ch=5 par1=62 par2=60
Channel Event. t= 2 (47344) Note On ch=5 par1=59 par2=52
Channel Event. t= 86 (47430) Note Off ch=5 par1=59 par2=64
Channel Event. t= 6 (47436) Note Off ch=5 par1=62 par2=64
Channel Event. t= 34 (47470) Note On ch=5 par1=41 par2=71
Channel Event. t= 62 (47532) Note On ch=5 par1=62 par2=52
Channel Event. t= 1 (47533) Note On ch=5 par1=59 par2=44
Channel Event. t= 6 (47539) Note On ch=5 par1=42 par2=92
Channel Event. t= 10 (47549) Note Off ch=5 par1=41 par2=64
Channel Event. t= 64 (47613) Note Off ch=5 par1=42 par2=64
Channel Event. t= 2 (47615) Note Off ch=5 par1=59 par2=64
Channel Event. t= 6 (47621) Note Off ch=5 par1=62 par2=64
Channel Event. t= 105 (47726) Note On ch=5 par1=61 par2=53
Channel Event. t= 5 (47731) Note On ch=5 par1=58 par2=59
Channel Event. t= 81 (47812) Note Off ch=5 par1=58 par2=64
Channel Event. t= 8 (47820) Note Off ch=5 par1=61 par2=64
Channel Event. t= 44 (47864) Note On ch=5 par1=41 par2=69
Channel Event. t= 62 (47926) Note On ch=5 par1=42 par2=88
Channel Event. t= 2 (47928) Note On ch=5 par1=58 par2=59
Channel Event. t= 0 (47928) Note On ch=5 par1=61 par2=64
Channel Event. t= 6 (47934) Note Off ch=5 par1=41 par2=64
Channel Event. t= 65 (47999) Note Off ch=5 par1=58 par2=64
Channel Event. t= 5 (48004) Note Off ch=5 par1=42 par2=64
Channel Event. t= 5 (48009) Note Off ch=5 par1=61 par2=64
Channel Event. t= 110 (48119) Note On ch=5 par1=43 par2=91
Channel Event. t= 5 (48124) Note On ch=5 par1=79 par2=98
Channel Event. t= 277 (48401) Note On ch=5 par1=78 par2=93
Channel Event. t= 18 (48419) Note On ch=5 par1=42 par2=89
Channel Event. t= 2 (48421) Note Off ch=5 par1=79 par2=64
Channel Event. t= 1 (48422) Note Off ch=5 par1=43 par2=64
Channel Event. t= 75 (48497) Note On ch=5 par1=76 par2=91
Channel Event. t= 2 (48499) Note Off ch=5 par1=42 par2=64
Channel Event. t= 1 (48500) Note On ch=5 par1=40 par2=80
Channel Event. t= 2 (48502) Note Off ch=5 par1=78 par2=64
Channel Event. t= 82 (48584) Note Off ch=5 par1=40 par2=64
Channel Event. t= 5 (48589) Note On ch=5 par1=74 par2=91
Channel Event. t= 3 (48592) Note On ch=5 par1=38 par2=88
Channel Event. t= 2 (48594) Note Off ch=5 par1=76 par2=64
Channel Event. t= 74 (48668) Note Off ch=5 par1=38 par2=64
Channel Event. t= 14 (48682) Note On ch=5 par1=73 par2=97
Channel Event. t= 13 (48695) Note Off ch=5 par1=74 par2=64
Channel Event. t= 8 (48703) Note On ch=5 par1=37 par2=99
Channel Event. t= 85 (48788) Note Off ch=5 par1=37 par2=64
Channel Event. t= 42 (48830) Note On ch=5 par1=35 par2=88
Channel Event. t= 20 (48850) Note Off ch=5 par1=73 par2=64
Channel Event. t= 29 (48879) Note On ch=5 par1=71 par2=95
Channel Event. t= 7 (48886) Note On ch=5 par1=42 par2=78
Channel Event. t= 20 (48906) Note Off ch=5 par1=35 par2=64
Channel Event. t= 42 (48948) Note Off ch=5 par1=42 par2=64
Channel Event. t= 40 (48988) Note Off ch=5 par1=71 par2=64
Channel Event. t= 22 (49010) Note On ch=5 par1=42 par2=74
Channel Event. t= 60 (49070) Note Off ch=5 par1=42 par2=64
Channel Event. t= 3 (49073) Note On ch=5 par1=78 par2=70
Channel Event. t= 1 (49074) Note On ch=5 par1=83 par2=63
Channel Event. t= 9 (49083) Note On ch=5 par1=35 par2=73
Channel Event. t= 97 (49180) Note Off ch=5 par1=78 par2=64
Channel Event. t= 5 (49185) Note Off ch=5 par1=83 par2=64
Channel Event. t= 85 (49270) Note On ch=5 par1=81 par2=61
Channel Event. t= 1 (49271) Note On ch=5 par1=76 par2=59
Channel Event. t= 93 (49364) Note On ch=5 par1=36 par2=91
Channel Event. t= 3 (49367) Note Off ch=5 par1=35 par2=64
Channel Event. t= 4 (49371) Note Off ch=5 par1=81 par2=64
Channel Event. t= 18 (49389) Note Off ch=5 par1=76 par2=64
Channel Event. t= 68 (49457) Note On ch=5 par1=38 par2=86
Channel Event. t= 2 (49459) Note On ch=5 par1=79 par2=63
Channel Event. t= 2 (49461) Note Off ch=5 par1=36 par2=64
Channel Event. t= 1 (49462) Note On ch=5 par1=74 par2=60
Channel Event. t= 88 (49550) Note Off ch=5 par1=38 par2=64
Channel Event. t= 4 (49554) Note On ch=5 par1=40 par2=79
Channel Event. t= 10 (49564) Note Off ch=5 par1=74 par2=64
Channel Event. t= 8 (49572) Note Off ch=5 par1=79 par2=64
Channel Event. t= 77 (49649) Note On ch=5 par1=78 par2=58
Channel Event. t= 2 (49651) Note On ch=5 par1=73 par2=58
Channel Event. t= 1 (49652) Note On ch=5 par1=42 par2=95
Channel Event. t= 4 (49656) Note Off ch=5 par1=40 par2=64
Channel Event. t= 108 (49764) Note Off ch=5 par1=78 par2=64
Channel Event. t= 3 (49767) Note Off ch=5 par1=42 par2=64
Channel Event. t= 6 (49773) Note Off ch=5 par1=73 par2=64
Channel Event. t= 12 (49785) Note On ch=5 par1=38 par2=82
Channel Event. t= 59 (49844) Note On ch=5 par1=45 par2=90
Channel Event. t= 3 (49847) Note Off ch=5 par1=38 par2=64
Channel Event. t= 0 (49847) Note On ch=5 par1=66 par2=59
Channel Event. t= 59 (49906) Note Off ch=5 par1=45 par2=64
Channel Event. t= 25 (49931) Note On ch=5 par1=45 par2=68
Channel Event. t= 45 (49976) Note Off ch=5 par1=66 par2=64
Channel Event. t= 29 (50005) Note Off ch=5 par1=45 par2=64
Channel Event. t= 24 (50029) Note On ch=5 par1=45 par2=75
Channel Event. t= 7 (50036) Note On ch=5 par1=67 par2=56
Channel Event. t= 66 (50102) Note Off ch=5 par1=45 par2=64
Channel Event. t= 30 (50132) Note On ch=5 par1=45 par2=82
Channel Event. t= 35 (50167) Note Off ch=5 par1=67 par2=64
Channel Event. t= 32 (50199) Note Off ch=5 par1=45 par2=64
Channel Event. t= 25 (50224) Note On ch=5 par1=68 par2=63
Channel Event. t= 1 (50225) Note On ch=5 par1=45 par2=72
Channel Event. t= 61 (50286) Note On ch=5 par1=47 par2=77
Channel Event. t= 20 (50306) Note Off ch=5 par1=45 par2=64
Channel Event. t= 35 (50341) Note On ch=5 par1=48 par2=89
Channel Event. t= 5 (50346) Note Off ch=5 par1=47 par2=64
Channel Event. t= 6 (50352) Note Off ch=5 par1=68 par2=64
Channel Event. t= 56 (50408) Note Off ch=5 par1=48 par2=64
Channel Event. t= 6 (50414) Note On ch=5 par1=69 par2=65
Channel Event. t= 2 (50416) Note On ch=5 par1=49 par2=104
Channel Event. t= 134 (50550) Note Off ch=5 par1=69 par2=64
Channel Event. t= 65 (50615) Note On ch=5 par1=69 par2=61
Channel Event. t= 63 (50678) Note On ch=5 par1=50 par2=90
Channel Event. t= 7 (50685) Note Off ch=5 par1=49 par2=64
Channel Event. t= 49 (50734) Note Off ch=5 par1=69 par2=64
Channel Event. t= 3 (50737) Note On ch=5 par1=51 par2=95
Channel Event. t= 13 (50750) Note Off ch=5 par1=50 par2=64
Channel Event. t= 54 (50804) Note On ch=5 par1=46 par2=102
Channel Event. t= 5 (50809) Note Off ch=5 par1=51 par2=64
Channel Event. t= 106 (50915) Note Off ch=5 par1=46 par2=64
Channel Event. t= 967 (51882) Note On ch=5 par1=63 par2=85
Channel Event. t= 73 (51955) Note On ch=5 par1=61 par2=81
Channel Event. t= 2 (51957) Note On ch=5 par1=64 par2=79
Channel Event. t= 10 (51967) Note Off ch=5 par1=63 par2=64
Channel Event. t= 48 (52015) Note Off ch=5 par1=61 par2=64
Channel Event. t= 18 (52033) Note Off ch=5 par1=64 par2=64
Channel Event. t= 46 (52079) Note On ch=5 par1=41 par2=91
Channel Event. t= 3 (52082) Note On ch=5 par1=63 par2=80
Channel Event. t= 60 (52142) Note On ch=5 par1=42 par2=93
Channel Event. t= 9 (52151) Note Off ch=5 par1=41 par2=64
Channel Event. t= 0 (52151) Note On ch=5 par1=61 par2=80
Channel Event. t= 4 (52155) Note On ch=5 par1=64 par2=78
Channel Event. t= 16 (52171) Note Off ch=5 par1=63 par2=64
Channel Event. t= 32 (52203) Note Off ch=5 par1=61 par2=64
Channel Event. t= 10 (52213) Note Off ch=5 par1=64 par2=64
Channel Event. t= 42 (52255) Note Off ch=5 par1=42 par2=64
Channel Event. t= 17 (52272) Note On ch=5 par1=62 par2=81
Channel Event. t= 73 (52345) Note On ch=5 par1=60 par2=79
Channel Event. t= 0 (52345) Note On ch=5 par1=63 par2=80
Channel Event. t= 26 (52371) Note Off ch=5 par1=62 par2=64
Channel Event. t= 35 (52406) Note Off ch=5 par1=63 par2=64
Channel Event. t= 2 (52408) Note Off ch=5 par1=60 par2=64
Channel Event. t= 57 (52465) Note On ch=5 par1=41 par2=85
Channel Event. t= 0 (52465) Note On ch=5 par1=62 par2=86
Channel Event. t= 59 (52524) Note On ch=5 par1=42 par2=95
Channel Event. t= 4 (52528) Note On ch=5 par1=63 par2=82
Channel Event. t= 1 (52529) Note On ch=5 par1=60 par2=79
Channel Event. t= 4 (52533) Note Off ch=5 par1=41 par2=64
Channel Event. t= 11 (52544) Note Off ch=5 par1=62 par2=64
Channel Event. t= 51 (52595) Note Off ch=5 par1=63 par2=64
Channel Event. t= 1 (52596) Note Off ch=5 par1=60 par2=64
Channel Event. t= 30 (52626) Note Off ch=5 par1=42 par2=64
Channel Event. t= 27 (52653) Note On ch=5 par1=61 par2=80
Channel Event. t= 66 (52719) Note On ch=5 par1=62 par2=77
Channel Event. t= 1 (52720) Note On ch=5 par1=59 par2=84
Channel Event. t= 7 (52727) Note Off ch=5 par1=61 par2=64
Channel Event. t= 59 (52786) Note Off ch=5 par1=59 par2=64
Channel Event. t= 7 (52793) Note Off ch=5 par1=62 par2=64
Channel Event. t= 54 (52847) Note On ch=5 par1=61 par2=87
Channel Event. t= 8 (52855) Note On ch=5 par1=41 par2=85
Channel Event. t= 52 (52907) Note On ch=5 par1=62 par2=74
Channel Event. t= 5 (52912) Note On ch=5 par1=59 par2=84
Channel Event. t= 3 (52915) Note Off ch=5 par1=61 par2=64
Channel Event. t= 6 (52921) Note On ch=5 par1=42 par2=99
Channel Event. t= 11 (52932) Note Off ch=5 par1=41 par2=64
Channel Event. t= 43 (52975) Note Off ch=5 par1=59 par2=64
Channel Event. t= 1 (52976) Note Off ch=5 par1=62 par2=64
Channel Event. t= 61 (53037) Note On ch=5 par1=60 par2=78
Channel Event. t= 41 (53078) Note Off ch=5 par1=42 par2=64
Channel Event. t= 28 (53106) Note On ch=5 par1=58 par2=77
Channel Event. t= 2 (53108) Note On ch=5 par1=61 par2=87
Channel Event. t= 22 (53130) Note Off ch=5 par1=60 par2=64
Channel Event. t= 42 (53172) Note Off ch=5 par1=61 par2=64
Channel Event. t= 4 (53176) Note Off ch=5 par1=58 par2=64
Channel Event. t= 54 (53230) Note On ch=5 par1=41 par2=82
Channel Event. t= 3 (53233) Note On ch=5 par1=59 par2=75
Channel Event. t= 63 (53296) Note On ch=5 par1=42 par2=97
Channel Event. t= 1 (53297) Note Off ch=5 par1=41 par2=64
Channel Event. t= 4 (53301) Note On ch=5 par1=58 par2=86
Channel Event. t= 0 (53301) Note On ch=5 par1=61 par2=89
Channel Event. t= 4 (53305) Note Off ch=5 par1=59 par2=64
Channel Event. t= 67 (53372) Note Off ch=5 par1=58 par2=64
Channel Event. t= 10 (53382) Note Off ch=5 par1=61 par2=64
Channel Event. t= 82 (53464) Note Off ch=5 par1=42 par2=64
Channel Event. t= 142 (53606) Note On ch=5 par1=75 par2=94
Channel Event. t= 12 (53618) Note On ch=5 par1=41 par2=87
Channel Event. t= 59 (53677) Note On ch=5 par1=73 par2=87
Channel Event. t= 1 (53678) Note On ch=5 par1=76 par2=86
Channel Event. t= 4 (53682) Note On ch=5 par1=42 par2=94
Channel Event. t= 9 (53691) Note Off ch=5 par1=75 par2=64
Channel Event. t= 0 (53691) Note Off ch=5 par1=41 par2=64
Channel Event. t= 58 (53749) Note Off ch=5 par1=73 par2=64
Channel Event. t= 3 (53752) Note Off ch=5 par1=76 par2=64
Channel Event. t= 142 (53894) Note Off ch=5 par1=42 par2=64
Channel Event. t= 99 (53993) Note On ch=5 par1=41 par2=79
Channel Event. t= 7 (54000) Note On ch=5 par1=74 par2=93
Channel Event. t= 59 (54059) Note On ch=5 par1=42 par2=94
Channel Event. t= 4 (54063) Note On ch=5 par1=75 par2=95
Channel Event. t= 0 (54063) Note On ch=5 par1=72 par2=83
Channel Event. t= 4 (54067) Note Off ch=5 par1=41 par2=64
Channel Event. t= 11 (54078) Note Off ch=5 par1=74 par2=64
Channel Event. t= 64 (54142) Note Off ch=5 par1=75 par2=64
Channel Event. t= 4 (54146) Note Off ch=5 par1=72 par2=64
Channel Event. t= 107 (54253) Note Off ch=5 par1=42 par2=64
Channel Event. t= 131 (54384) Note On ch=5 par1=73 par2=99
Channel Event. t= 2 (54386) Note On ch=5 par1=41 par2=81
Channel Event. t= 62 (54448) Note On ch=5 par1=42 par2=94
Channel Event. t= 3 (54451) Note On ch=5 par1=74 par2=89
Channel Event. t= 1 (54452) Note On ch=5 par1=71 par2=92
Channel Event. t= 6 (54458) Note Off ch=5 par1=41 par2=64
Channel Event. t= 12 (54470) Note Off ch=5 par1=73 par2=64
Channel Event. t= 54 (54524) Note Off ch=5 par1=71 par2=64
Channel Event. t= 3 (54527) Note Off ch=5 par1=74 par2=64
Channel Event. t= 109 (54636) Note Off ch=5 par1=42 par2=64
Channel Event. t= 126 (54762) Note On ch=5 par1=41 par2=91
Channel Event. t= 4 (54766) Note On ch=5 par1=72 par2=78
Channel Event. t= 63 (54829) Note On ch=5 par1=42 par2=99
Channel Event. t= 1 (54830) Note On ch=5 par1=73 par2=90
Channel Event. t= 1 (54831) Note On ch=5 par1=70 par2=90
Channel Event. t= 8 (54839) Note Off ch=5 par1=41 par2=64
Channel Event. t= 15 (54854) Note Off ch=5 par1=72 par2=64
Channel Event. t= 50 (54904) Note Off ch=5 par1=70 par2=64
Channel Event. t= 4 (54908) Note Off ch=5 par1=73 par2=64
Channel Event. t= 88 (54996) Note Off ch=5 par1=42 par2=64
Channel Event. t= 158 (55154) Note On ch=5 par1=71 par2=86
Channel Event. t= 72 (55226) Note On ch=5 par1=69 par2=82
Channel Event. t= 1 (55227) Note On ch=5 par1=72 par2=84
Channel Event. t= 8 (55235) Note Off ch=5 par1=71 par2=64
Channel Event. t= 62 (55297) Note Off ch=5 par1=69 par2=64
Channel Event. t= 6 (55303) Note Off ch=5 par1=72 par2=64
Channel Event. t= 228 (55531) Note On ch=5 par1=70 par2=92
Channel Event. t= 69 (55600) Note On ch=5 par1=71 par2=82
Channel Event. t= 2 (55602) Note On ch=5 par1=68 par2=84
Channel Event. t= 8 (55610) Note Off ch=5 par1=70 par2=64
Channel Event. t= 65 (55675) Note Off ch=5 par1=68 par2=64
Channel Event. t= 3 (55678) Note Off ch=5 par1=71 par2=64
Channel Event. t= 309 (55987) Note On ch=5 par1=62 par2=103
Channel Event. t= 131 (56118) Note Off ch=5 par1=62 par2=64
Channel Event. t= 5 (56123) Note On ch=5 par1=66 par2=91
Channel Event. t= 47 (56170) Note Off ch=5 par1=66 par2=64
Channel Event. t= 3 (56173) Note On ch=5 par1=69 par2=79
Channel Event. t= 36 (56209) Note Off ch=5 par1=69 par2=64
Channel Event. t= 57 (56266) Note On ch=5 par1=71 par2=75
Channel Event. t= 49 (56315) Note Off ch=5 par1=71 par2=64
Channel Event. t= 48 (56363) Note On ch=5 par1=69 par2=85
Channel Event. t= 2 (56365) Note On ch=5 par1=66 par2=97
Channel Event. t= 503 (56868) Note On ch=5 par1=35 par2=86
Channel Event. t= 64 (56932) Note Off ch=5 par1=35 par2=64
Channel Event. t= 1 (56933) Note On ch=5 par1=42 par2=81
Channel Event. t= 83 (57016) Note Off ch=5 par1=42 par2=64
Channel Event. t= 37 (57053) Note On ch=5 par1=42 par2=84
Channel Event. t= 60 (57113) Note Off ch=5 par1=42 par2=64
Channel Event. t= 2 (57115) Note On ch=5 par1=35 par2=91
Channel Event. t= 460 (57575) Note Off ch=5 par1=66 par2=64
Channel Event. t= 13 (57588) Note Off ch=5 par1=69 par2=64
Channel Event. t= 68 (57656) Note On ch=5 par1=66 par2=81
Channel Event. t= 54 (57710) Note On ch=5 par1=69 par2=87
Channel Event. t= 7 (57717) Note Off ch=5 par1=66 par2=64
Channel Event. t= 55 (57772) Note Off ch=5 par1=69 par2=64
Channel Event. t= 44 (57816) Note On ch=5 par1=71 par2=86
Channel Event. t= 39 (57855) Note Off ch=5 par1=71 par2=64
Channel Event. t= 55 (57910) Note On ch=5 par1=73 par2=104
Channel Event. t= 136 (58046) Note Off ch=5 par1=73 par2=64
Channel Event. t= 3 (58049) Note On ch=5 par1=74 par2=75
Channel Event. t= 40 (58089) Note Off ch=5 par1=74 par2=64
Channel Event. t= 6 (58095) Note On ch=5 par1=69 par2=93
Channel Event. t= 33 (58128) Note Off ch=5 par1=69 par2=64
Channel Event. t= 70 (58198) Note On ch=5 par1=66 par2=79
Channel Event. t= 28 (58226) Note Off ch=5 par1=66 par2=64
Channel Event. t= 74 (58300) Note On ch=5 par1=62 par2=109
Channel Event. t= 277 (58577) Note Off ch=5 par1=35 par2=64
Channel Event. t= 25 (58602) Note On ch=5 par1=37 par2=84
Channel Event. t= 62 (58664) Note Off ch=5 par1=37 par2=64
Channel Event. t= 5 (58669) Note On ch=5 par1=38 par2=90
Channel Event. t= 117 (58786) Note On ch=5 par1=40 par2=83
Channel Event. t= 3 (58789) Note Off ch=5 par1=38 par2=64
Channel Event. t= 63 (58852) Note On ch=5 par1=42 par2=91
Channel Event. t= 4 (58856) Note Off ch=5 par1=40 par2=64
Channel Event. t= 105 (58961) Note Off ch=5 par1=42 par2=64
Channel Event. t= 14 (58975) Note On ch=5 par1=38 par2=75
Channel Event. t= 67 (59042) Note Off ch=5 par1=38 par2=64
Channel Event. t= 2 (59044) Note On ch=5 par1=45 par2=89
Channel Event. t= 84 (59128) Note Off ch=5 par1=45 par2=64
Channel Event. t= 33 (59161) Note On ch=5 par1=45 par2=83
Channel Event. t= 42 (59203) Note Off ch=5 par1=45 par2=64
Channel Event. t= 24 (59227) Note On ch=5 par1=45 par2=78
Channel Event. t= 86 (59313) Note Off ch=5 par1=45 par2=64
Channel Event. t= 42 (59355) Note On ch=5 par1=45 par2=80
Channel Event. t= 44 (59399) Note Off ch=5 par1=45 par2=64
Channel Event. t= 29 (59428) Note On ch=5 par1=45 par2=87
Channel Event. t= 69 (59497) Note On ch=5 par1=47 par2=81
Channel Event. t= 11 (59508) Note Off ch=5 par1=45 par2=64
Channel Event. t= 51 (59559) Note On ch=5 par1=48 par2=87
Channel Event. t= 6 (59565) Note Off ch=5 par1=47 par2=64
Channel Event. t= 74 (59639) Note On ch=5 par1=49 par2=101
Channel Event. t= 10 (59649) Note Off ch=5 par1=48 par2=64
Channel Event. t= 276 (59925) Note On ch=5 par1=64 par2=95
Channel Event. t= 19 (59944) Note Off ch=5 par1=62 par2=64
Channel Event. t= 82 (60026) Note On ch=5 par1=65 par2=99
Channel Event. t= 8 (60034) Note Off ch=5 par1=64 par2=64
Channel Event. t= 167 (60201) Note Off ch=5 par1=65 par2=64
Channel Event. t= 17 (60218) Note On ch=5 par1=65 par2=99
Channel Event. t= 97 (60315) Note On ch=5 par1=73 par2=94
Channel Event. t= 13 (60328) Note Off ch=5 par1=65 par2=64
Channel Event. t= 84 (60412) Note On ch=5 par1=65 par2=89
Channel Event. t= 6 (60418) Note Off ch=5 par1=73 par2=64
Channel Event. t= 149 (60567) Note Off ch=5 par1=65 par2=64
Channel Event. t= 24 (60591) Note On ch=5 par1=65 par2=91
Channel Event. t= 99 (60690) Note On ch=5 par1=73 par2=90
Channel Event. t= 24 (60714) Note Off ch=5 par1=65 par2=64
Channel Event. t= 63 (60777) Note Off ch=5 par1=49 par2=64
Channel Event. t= 8 (60785) Note On ch=5 par1=65 par2=92
Channel Event. t= 7 (60792) Note Off ch=5 par1=73 par2=64
Channel Event. t= 190 (60982) Note On ch=5 par1=60 par2=97
Channel Event. t= 6 (60988) Note Off ch=5 par1=65 par2=64
Channel Event. t= 170 (61158) Note Off ch=5 par1=60 par2=64
Channel Event. t= 21 (61179) Note On ch=5 par1=60 par2=87
Channel Event. t= 127 (61306) Note On ch=5 par1=33 par2=87
Channel Event. t= 63 (61369) Note On ch=5 par1=40 par2=96
Channel Event. t= 9 (61378) Note Off ch=5 par1=33 par2=64
Channel Event. t= 77 (61455) Note Off ch=5 par1=40 par2=64
Channel Event. t= 31 (61486) Note On ch=5 par1=40 par2=89
Channel Event. t= 65 (61551) Note On ch=5 par1=33 par2=88
Channel Event. t= 5 (61556) Note Off ch=5 par1=40 par2=64
Channel Event. t= 183 (61739) Note Off ch=5 par1=33 par2=64
Channel Event. t= 13 (61752) Note On ch=5 par1=32 par2=91
Channel Event. t= 191 (61943) Note Off ch=5 par1=32 par2=64
Channel Event. t= 0 (61943) Note On ch=5 par1=62 par2=100
Channel Event. t= 6 (61949) Note On ch=5 par1=31 par2=87
Channel Event. t= 3 (61952) Note Off ch=5 par1=60 par2=64
Channel Event. t= 179 (62131) Note On ch=5 par1=67 par2=90
Channel Event. t= 17 (62148) Note Off ch=5 par1=62 par2=64
Channel Event. t= 133 (62281) Note Off ch=5 par1=67 par2=64
Channel Event. t= 0 (62281) Note On ch=5 par1=71 par2=84
Channel Event. t= 40 (62321) Note Off ch=5 par1=71 par2=64
Channel Event. t= 3 (62324) Note On ch=5 par1=74 par2=96
Channel Event. t= 44 (62368) Note Off ch=5 par1=74 par2=64
Channel Event. t= 44 (62412) Note On ch=5 par1=76 par2=91
Channel Event. t= 32 (62444) Note Off ch=5 par1=76 par2=64
Channel Event. t= 56 (62500) Note On ch=5 par1=74 par2=99
Channel Event. t= 150 (62650) Note On ch=5 par1=71 par2=86
Channel Event. t= 8 (62658) Note Off ch=5 par1=74 par2=64
Channel Event. t= 36 (62694) Note Off ch=5 par1=71 par2=64
Channel Event. t= 0 (62694) Note On ch=5 par1=74 par2=92
Channel Event. t= 36 (62730) Note Off ch=5 par1=74 par2=64
Channel Event. t= 61 (62791) Note On ch=5 par1=76 par2=82
Channel Event. t= 36 (62827) Note Off ch=5 par1=76 par2=64
Channel Event. t= 60 (62887) Note On ch=5 par1=78 par2=96
Channel Event. t= 95 (62982) Note On ch=5 par1=79 par2=87
Channel Event. t= 7 (62989) Note Off ch=5 par1=78 par2=64
Channel Event. t= 27 (63016) Note Off ch=5 par1=79 par2=64
Channel Event. t= 48 (63064) Note Off ch=5 par1=31 par2=64
Channel Event. t= 20 (63084) Note On ch=5 par1=74 par2=87
Channel Event. t= 32 (63116) Note Off ch=5 par1=74 par2=64
Channel Event. t= 65 (63181) Note On ch=5 par1=71 par2=88
Channel Event. t= 26 (63207) Note Off ch=5 par1=71 par2=64
Channel Event. t= 73 (63280) Note On ch=5 par1=67 par2=89
Channel Event. t= 52 (63332) Note Off ch=5 par1=67 par2=64
Channel Event. t= 135 (63467) Note On ch=5 par1=79 par2=98
Channel Event. t= 16 (63483) Note On ch=5 par1=43 par2=97
Channel Event. t= 5 (63488) Controller ch=5 par1=7 (Main Volume) par2=90
Channel Event. t= 264 (63752) Controller ch=5 par1=7 (Main Volume) par2=91
Channel Event. t= 5 (63757) Note On ch=5 par1=78 par2=95
Channel Event. t= 4 (63761) Note On ch=5 par1=42 par2=92
Channel Event. t= 16 (63777) Note Off ch=5 par1=43 par2=64
Channel Event. t= 1 (63778) Note Off ch=5 par1=79 par2=64
Channel Event. t= 77 (63855) Note On ch=5 par1=76 par2=91
Channel Event. t= 2 (63857) Note On ch=5 par1=40 par2=83
Channel Event. t= 3 (63860) Note Off ch=5 par1=78 par2=64
Channel Event. t= 2 (63862) Note Off ch=5 par1=42 par2=64
Channel Event. t= 84 (63946) Note Off ch=5 par1=76 par2=64
Channel Event. t= 1 (63947) Note On ch=5 par1=74 par2=86
Channel Event. t= 4 (63951) Note On ch=5 par1=38 par2=87
Channel Event. t= 8 (63959) Note Off ch=5 par1=40 par2=64
Channel Event. t= 57 (64016) Controller ch=5 par1=7 (Main Volume) par2=92
Channel Event. t= 26 (64042) Note On ch=5 par1=73 par2=91
Channel Event. t= 9 (64051) Note On ch=5 par1=37 par2=94
Channel Event. t= 1 (64052) Note Off ch=5 par1=38 par2=64
Channel Event. t= 12 (64064) Note Off ch=5 par1=74 par2=64
Channel Event. t= 72 (64136) Note On ch=5 par1=71 par2=85
Channel Event. t= 9 (64145) Note On ch=5 par1=35 par2=84
Channel Event. t= 9 (64154) Note Off ch=5 par1=73 par2=64
Channel Event. t= 1 (64155) Note Off ch=5 par1=37 par2=64
Channel Event. t= 85 (64240) Note On ch=5 par1=69 par2=93
Channel Event. t= 10 (64250) Note On ch=5 par1=47 par2=58
Channel Event. t= 2 (64252) Note On ch=5 par1=45 par2=69
Channel Event. t= 4 (64256) Controller ch=5 par1=7 (Main Volume) par2=93
Channel Event. t= 5 (64261) Note Off ch=5 par1=71 par2=64
Channel Event. t= 1 (64262) Note Off ch=5 par1=35 par2=64
Channel Event. t= 22 (64284) Note Off ch=5 par1=47 par2=64
Channel Event. t= 18 (64302) Note Off ch=5 par1=69 par2=64
Channel Event. t= 35 (64337) Note On ch=5 par1=67 par2=97
Channel Event. t= 10 (64347) Note On ch=5 par1=43 par2=74
Channel Event. t= 20 (64367) Note Off ch=5 par1=45 par2=64
Channel Event. t= 56 (64423) Note On ch=5 par1=65 par2=91
Channel Event. t= 24 (64447) Note Off ch=5 par1=67 par2=64
Channel Event. t= 1 (64448) Note On ch=5 par1=41 par2=82
Channel Event. t= 7 (64455) Note Off ch=5 par1=43 par2=64
Channel Event. t= 27 (64482) Note Off ch=5 par1=65 par2=64
Channel Event. t= 38 (64520) Controller ch=5 par1=7 (Main Volume) par2=94
Channel Event. t= 3 (64523) Note On ch=5 par1=64 par2=102
Channel Event. t= 18 (64541) Note On ch=5 par1=40 par2=76
Channel Event. t= 9 (64550) Note Off ch=5 par1=41 par2=64
Channel Event. t= 68 (64618) Note On ch=5 par1=62 par2=93
Channel Event. t= 18 (64636) Note Off ch=5 par1=64 par2=64
Channel Event. t= 6 (64642) Note On ch=5 par1=38 par2=78
Channel Event. t= 4 (64646) Note Off ch=5 par1=40 par2=64
Channel Event. t= 18 (64664) Note Off ch=5 par1=62 par2=64
Channel Event. t= 50 (64714) Note On ch=5 par1=60 par2=100
Channel Event. t= 17 (64731) Note On ch=5 par1=36 par2=74
Channel Event. t= 18 (64749) Note Off ch=5 par1=38 par2=64
Channel Event. t= 35 (64784) Controller ch=5 par1=7 (Main Volume) par2=95
Channel Event. t= 25 (64809) Note On ch=5 par1=62 par2=96
Channel Event. t= 12 (64821) Note Off ch=5 par1=60 par2=64
Channel Event. t= 11 (64832) Note On ch=5 par1=38 par2=80
Channel Event. t= 11 (64843) Note Off ch=5 par1=36 par2=64
Channel Event. t= 8 (64851) Note Off ch=5 par1=62 par2=64
Channel Event. t= 57 (64908) Note On ch=5 par1=64 par2=100
Channel Event. t= 15 (64923) Note On ch=5 par1=40 par2=79
Channel Event. t= 6 (64929) Note Off ch=5 par1=38 par2=64
Channel Event. t= 32 (64961) Note Off ch=5 par1=64 par2=64
Channel Event. t= 42 (65003) Note On ch=5 par1=65 par2=109
Channel Event. t= 20 (65023) Note On ch=5 par1=33 par2=92
Channel Event. t= 1 (65024) Controller ch=5 par1=7 (Main Volume) par2=96
Channel Event. t= 8 (65032) Note Off ch=5 par1=40 par2=64
Channel Event. t= 184 (65216) Note Off ch=5 par1=65 par2=64
Channel Event. t= 5 (65221) Note Off ch=5 par1=33 par2=64
Channel Event. t= 67 (65288) Controller ch=5 par1=7 (Main Volume) par2=97
Channel Event. t= 109 (65397) Note On ch=5 par1=42 par2=99
Channel Event. t= 155 (65552) Controller ch=5 par1=7 (Main Volume) par2=98
Channel Event. t= 47 (65599) Note Off ch=5 par1=42 par2=64
Channel Event. t= 173 (65772) Note On ch=5 par1=35 par2=102
Channel Event. t= 2 (65774) Note On ch=5 par1=47 par2=94
Channel Event. t= 8 (65782) Note On ch=5 par1=59 par2=121
Channel Event. t= 10 (65792) Controller ch=5 par1=7 (Main Volume) par2=99
Channel Event. t= 264 (66056) Controller ch=5 par1=7 (Main Volume) par2=100
Channel Event. t= 264 (66320) Controller ch=5 par1=7 (Main Volume) par2=101
Channel Event. t= 239 (66559) Controller ch=5 par1=7 (Main Volume) par2=102
Channel Event. t= 1 (66560) Note Off ch=5 par1=59 par2=64
Channel Event. t= 0 (66560) Note Off ch=5 par1=47 par2=64
Channel Event. t= 0 (66560) Note Off ch=5 par1=35 par2=64
Channel Event. t= 0 (66560) 
Meta Event. Type: 0x2f (47dec), End of Track (0 bytes): 
track #25
track size: 2168
Channel Event. t= 0 (0) 
Meta Event. Type: 0x21 (33dec), MIDI Port (1 bytes): 0
Channel Event. t= 0 (0) 
Meta Event. Type: 0x3 (3dec), Sequence/Track Name (20 bytes): Strings             
Channel Event. t= 0 (0) Program Change ch=5 par1=48 par2=-121
Channel Event. t= 13256 (13256) Controller ch=5 par1=7 (Main Volume) par2=92
Channel Event. t= 120 (13376) Note On ch=5 par1=76 par2=66
Channel Event. t= 0 (13376) Note On ch=5 par1=69 par2=58
Channel Event. t= 183 (13559) Note Off ch=5 par1=76 par2=64
Channel Event. t= 9 (13568) Note On ch=5 par1=74 par2=72
Channel Event. t= 0 (13568) Note On ch=5 par1=78 par2=62
Channel Event. t= 1 (13569) Note Off ch=5 par1=69 par2=64
Channel Event. t= 110 (13679) Note Off ch=5 par1=78 par2=64
Channel Event. t= 3 (13682) Note Off ch=5 par1=74 par2=64
Channel Event. t= 78 (13760) Note On ch=5 par1=57 par2=70
Channel Event. t= 133 (13893) Note Off ch=5 par1=57 par2=64
Channel Event. t= 59 (13952) Note On ch=5 par1=50 par2=81
Channel Event. t= 145 (14097) Note Off ch=5 par1=50 par2=64
Channel Event. t= 47 (14144) Note On ch=5 par1=57 par2=45
Channel Event. t= 0 (14144) Note On ch=5 par1=64 par2=53
Channel Event. t= 163 (14307) Note Off ch=5 par1=57 par2=64
Channel Event. t= 8 (14315) Note Off ch=5 par1=64 par2=64
Channel Event. t= 21 (14336) Note On ch=5 par1=66 par2=65
Channel Event. t= 0 (14336) Note On ch=5 par1=62 par2=45
Channel Event. t= 104 (14440) Note Off ch=5 par1=62 par2=64
Channel Event. t= 19 (14459) Note Off ch=5 par1=66 par2=64
Channel Event. t= 453 (14912) Note On ch=5 par1=71 par2=67
Channel Event. t= 0 (14912) Note On ch=5 par1=62 par2=68
Channel Event. t= 0 (14912) Note On ch=5 par1=55 par2=73
Channel Event. t= 137 (15049) Note Off ch=5 par1=71 par2=64
Channel Event. t= 15 (15064) Note Off ch=5 par1=62 par2=64
Channel Event. t= 33 (15097) Note Off ch=5 par1=55 par2=64
Channel Event. t= 7 (15104) Note On ch=5 par1=57 par2=89
Channel Event. t= 0 (15104) Note On ch=5 par1=54 par2=79
Channel Event. t= 142 (15246) Note Off ch=5 par1=57 par2=64
Channel Event. t= 7 (15253) Note Off ch=5 par1=54 par2=64
Channel Event. t= 307 (15560) Controller ch=5 par1=7 (Main Volume) par2=70
Channel Event. t= 120 (15680) Note On ch=5 par1=50 par2=86
Channel Event. t= 43 (15723) Note Off ch=5 par1=50 par2=64
Channel Event. t= 53 (15776) Note On ch=5 par1=55 par2=81
Channel Event. t= 37 (15813) Note Off ch=5 par1=55 par2=64
Channel Event. t= 59 (15872) Note On ch=5 par1=59 par2=94
Channel Event. t= 192 (16064) Note On ch=5 par1=55 par2=79
Channel Event. t= 1 (16065) Note Off ch=5 par1=59 par2=64
Channel Event. t= 37 (16102) Note Off ch=5 par1=55 par2=64
Channel Event. t= 58 (16160) Note On ch=5 par1=50 par2=77
Channel Event. t= 32 (16192) Note Off ch=5 par1=50 par2=64
Channel Event. t= 64 (16256) Note On ch=5 par1=49 par2=91
Channel Event. t= 176 (16432) Note Off ch=5 par1=49 par2=64
Channel Event. t= 16 (16448) Note On ch=5 par1=50 par2=76
Channel Event. t= 41 (16489) Note Off ch=5 par1=50 par2=64
Channel Event. t= 55 (16544) Note On ch=5 par1=55 par2=75
Channel Event. t= 37 (16581) Note Off ch=5 par1=55 par2=64
Channel Event. t= 59 (16640) Note On ch=5 par1=59 par2=82
Channel Event. t= 36 (16676) Note Off ch=5 par1=59 par2=64
Channel Event. t= 60 (16736) Note On ch=5 par1=62 par2=84
Channel Event. t= 27 (16763) Note Off ch=5 par1=62 par2=64
Channel Event. t= 69 (16832) Note On ch=5 par1=60 par2=91
Channel Event. t= 260 (17092) Note Off ch=5 par1=60 par2=64
Channel Event. t= 28 (17120) Note On ch=5 par1=59 par2=96
Channel Event. t= 96 (17216) Note On ch=5 par1=55 par2=80
Channel Event. t= 18 (17234) Note Off ch=5 par1=59 par2=64
Channel Event. t= 35 (17269) Note Off ch=5 par1=55 par2=64
Channel Event. t= 43 (17312) Note On ch=5 par1=57 par2=85
Channel Event. t= 34 (17346) Note Off ch=5 par1=57 par2=64
Channel Event. t= 62 (17408) Note On ch=5 par1=59 par2=92
Channel Event. t= 96 (17504) Note On ch=5 par1=57 par2=79
Channel Event. t= 22 (17526) Note Off ch=5 par1=59 par2=64
Channel Event. t= 33 (17559) Note Off ch=5 par1=57 par2=64
Channel Event. t= 41 (17600) Note On ch=5 par1=54 par2=83
Channel Event. t= 31 (17631) Note Off ch=5 par1=54 par2=64
Channel Event. t= 65 (17696) Note On ch=5 par1=55 par2=74
Channel Event. t= 37 (17733) Note Off ch=5 par1=55 par2=64
Channel Event. t= 59 (17792) Note On ch=5 par1=57 par2=82
Channel Event. t= 96 (17888) Note On ch=5 par1=55 par2=75
Channel Event. t= 34 (17922) Note Off ch=5 par1=57 par2=64
Channel Event. t= 25 (17947) Note Off ch=5 par1=55 par2=64
Channel Event. t= 37 (17984) Note On ch=5 par1=52 par2=78
Channel Event. t= 39 (18023) Note Off ch=5 par1=52 par2=64
Channel Event. t= 57 (18080) Note On ch=5 par1=54 par2=85
Channel Event. t= 35 (18115) Note Off ch=5 par1=54 par2=64
Channel Event. t= 61 (18176) Note On ch=5 par1=55 par2=93
Channel Event. t= 403 (18579) Note Off ch=5 par1=55 par2=64
Channel Event. t= 173 (18752) Note On ch=5 par1=50 par2=56
Channel Event. t= 56 (18808) Note Off ch=5 par1=50 par2=64
Channel Event. t= 40 (18848) Note On ch=5 par1=55 par2=81
Channel Event. t= 31 (18879) Note Off ch=5 par1=55 par2=64
Channel Event. t= 65 (18944) Note On ch=5 par1=59 par2=90
Channel Event. t= 171 (19115) Note Off ch=5 par1=59 par2=64
Channel Event. t= 21 (19136) Note On ch=5 par1=55 par2=83
Channel Event. t= 31 (19167) Note Off ch=5 par1=55 par2=64
Channel Event. t= 65 (19232) Note On ch=5 par1=50 par2=74
Channel Event. t= 26 (19258) Note Off ch=5 par1=50 par2=64
Channel Event. t= 70 (19328) Note On ch=5 par1=49 par2=89
Channel Event. t= 175 (19503) Note Off ch=5 par1=49 par2=64
Channel Event. t= 17 (19520) Note On ch=5 par1=50 par2=77
Channel Event. t= 40 (19560) Note Off ch=5 par1=50 par2=64
Channel Event. t= 56 (19616) Note On ch=5 par1=55 par2=80
Channel Event. t= 31 (19647) Note Off ch=5 par1=55 par2=64
Channel Event. t= 65 (19712) Note On ch=5 par1=59 par2=80
Channel Event. t= 32 (19744) Note Off ch=5 par1=59 par2=64
Channel Event. t= 64 (19808) Note On ch=5 par1=62 par2=76
Channel Event. t= 29 (19837) Note Off ch=5 par1=62 par2=64
Channel Event. t= 67 (19904) Note On ch=5 par1=60 par2=95
Channel Event. t= 255 (20159) Note Off ch=5 par1=60 par2=64
Channel Event. t= 33 (20192) Note On ch=5 par1=59 par2=97
Channel Event. t= 96 (20288) Note On ch=5 par1=62 par2=77
Channel Event. t= 2 (20290) Note Off ch=5 par1=59 par2=64
Channel Event. t= 94 (20384) Note On ch=5 par1=60 par2=69
Channel Event. t= 26 (20410) Note Off ch=5 par1=62 par2=64
Channel Event. t= 70 (20480) Note On ch=5 par1=59 par2=73
Channel Event. t= 20 (20500) Note Off ch=5 par1=60 par2=64
Channel Event. t= 26 (20526) Note Off ch=5 par1=59 par2=64
Channel Event. t= 50 (20576) Note On ch=5 par1=57 par2=85
Channel Event. t= 96 (20672) Note On ch=5 par1=60 par2=80
Channel Event. t= 6 (20678) Note Off ch=5 par1=57 par2=64
Channel Event. t= 90 (20768) Note On ch=5 par1=59 par2=77
Channel Event. t= 14 (20782) Note Off ch=5 par1=60 par2=64
Channel Event. t= 82 (20864) Note On ch=5 par1=57 par2=80
Channel Event. t= 16 (20880) Note Off ch=5 par1=59 par2=64
Channel Event. t= 30 (20910) Note Off ch=5 par1=57 par2=64
Channel Event. t= 50 (20960) Note On ch=5 par1=55 par2=78
Channel Event. t= 96 (21056) Note On ch=5 par1=59 par2=79
Channel Event. t= 4 (21060) Note Off ch=5 par1=55 par2=64
Channel Event. t= 92 (21152) Note On ch=5 par1=57 par2=76
Channel Event. t= 23 (21175) Note Off ch=5 par1=59 par2=64
Channel Event. t= 48 (21223) Note Off ch=5 par1=57 par2=64
Channel Event. t= 25 (21248) Note On ch=5 par1=54 par2=87
Channel Event. t= 384 (21632) Note On ch=5 par1=55 par2=77
Channel Event. t= 13 (21645) Note Off ch=5 par1=54 par2=64
Channel Event. t= 97 (21742) Note Off ch=5 par1=55 par2=64
Channel Event. t= 82 (21824) Note On ch=5 par1=62 par2=96
Channel Event. t= 0 (21824) Note On ch=5 par1=71 par2=103
Channel Event. t= 172 (21996) Note Off ch=5 par1=71 par2=64
Channel Event. t= 10 (22006) Note Off ch=5 par1=62 par2=64
Channel Event. t= 10 (22016) Note On ch=5 par1=71 par2=83
Channel Event. t= 0 (22016) Note On ch=5 par1=67 par2=95
Channel Event. t= 0 (22016) Note On ch=5 par1=59 par2=74
Channel Event. t= 0 (22016) Note On ch=5 par1=50 par2=70
Channel Event. t= 83 (22099) Note Off ch=5 par1=50 par2=64
Channel Event. t= 6 (22105) Note Off ch=5 par1=59 par2=64
Channel Event. t= 70 (22175) Note Off ch=5 par1=71 par2=64
Channel Event. t= 8 (22183) Note Off ch=5 par1=67 par2=64
Channel Event. t= 409 (22592) Note On ch=5 par1=71 par2=58
Channel Event. t= 0 (22592) Note On ch=5 par1=62 par2=50
Channel Event. t= 152 (22744) Note Off ch=5 par1=71 par2=64
Channel Event. t= 9 (22753) Note Off ch=5 par1=62 par2=64
Channel Event. t= 31 (22784) Note On ch=5 par1=71 par2=41
Channel Event. t= 0 (22784) Note On ch=5 par1=67 par2=42
Channel Event. t= 0 (22784) Note On ch=5 par1=59 par2=68
Channel Event. t= 0 (22784) Note On ch=5 par1=50 par2=59
Channel Event. t= 89 (22873) Note Off ch=5 par1=50 par2=64
Channel Event. t= 9 (22882) Note Off ch=5 par1=59 par2=64
Channel Event. t= 40 (22922) Note Off ch=5 par1=67 par2=64
Channel Event. t= 8 (22930) Note Off ch=5 par1=71 par2=64
Channel Event. t= 430 (23360) Note On ch=5 par1=76 par2=89
Channel Event. t= 0 (23360) Note On ch=5 par1=67 par2=89
Channel Event. t= 0 (23360) Note On ch=5 par1=60 par2=69
Channel Event. t= 91 (23451) Note Off ch=5 par1=60 par2=64
Channel Event. t= 82 (23533) Note Off ch=5 par1=76 par2=64
Channel Event. t= 14 (23547) Note Off ch=5 par1=67 par2=64
Channel Event. t= 5 (23552) Note On ch=5 par1=71 par2=92
Channel Event. t= 0 (23552) Note On ch=5 par1=62 par2=92
Channel Event. t= 0 (23552) Note On ch=5 par1=59 par2=64
Channel Event. t= 105 (23657) Note Off ch=5 par1=59 par2=64
Channel Event. t= 47 (23704) Note Off ch=5 par1=71 par2=64
Channel Event. t= 11 (23715) Note Off ch=5 par1=62 par2=64
Channel Event. t= 29 (23744) Note On ch=5 par1=53 par2=68
Channel Event. t= 99 (23843) Note Off ch=5 par1=53 par2=64
Channel Event. t= 93 (23936) Note On ch=5 par1=52 par2=68
Channel Event. t= 123 (24059) Note Off ch=5 par1=52 par2=64
Channel Event. t= 69 (24128) Note On ch=5 par1=55 par2=97
Channel Event. t= 0 (24128) Note On ch=5 par1=50 par2=66
Channel Event. t= 45 (24173) Note Off ch=5 par1=55 par2=64
Channel Event. t= 51 (24224) Note On ch=5 par1=60 par2=93
Channel Event. t= 20 (24244) Note Off ch=5 par1=50 par2=64
Channel Event. t= 14 (24258) Note Off ch=5 par1=60 par2=64
Channel Event. t= 62 (24320) Note On ch=5 par1=64 par2=100
Channel Event. t= 184 (24504) Note Off ch=5 par1=64 par2=64
Channel Event. t= 8 (24512) Note On ch=5 par1=60 par2=92
Channel Event. t= 35 (24547) Note Off ch=5 par1=60 par2=64
Channel Event. t= 61 (24608) Note On ch=5 par1=55 par2=87
Channel Event. t= 38 (24646) Note Off ch=5 par1=55 par2=64
Channel Event. t= 58 (24704) Note On ch=5 par1=54 par2=103
Channel Event. t= 192 (24896) Note On ch=5 par1=55 par2=77
Channel Event. t= 9 (24905) Note Off ch=5 par1=54 par2=64
Channel Event. t= 38 (24943) Note Off ch=5 par1=55 par2=64
Channel Event. t= 49 (24992) Note On ch=5 par1=60 par2=88
Channel Event. t= 28 (25020) Note Off ch=5 par1=60 par2=64
Channel Event. t= 68 (25088) Note On ch=5 par1=64 par2=104
Channel Event. t= 53 (25141) Note Off ch=5 par1=64 par2=64
Channel Event. t= 43 (25184) Note On ch=5 par1=67 par2=85
Channel Event. t= 40 (25224) Note Off ch=5 par1=67 par2=64
Channel Event. t= 56 (25280) Note On ch=5 par1=65 par2=104
Channel Event. t= 288 (25568) Note On ch=5 par1=64 par2=95
Channel Event. t= 16 (25584) Note Off ch=5 par1=65 par2=64
Channel Event. t= 80 (25664) Note On ch=5 par1=60 par2=89
Channel Event. t= 3 (25667) Note Off ch=5 par1=64 par2=64
Channel Event. t= 43 (25710) Note Off ch=5 par1=60 par2=64
Channel Event. t= 50 (25760) Note On ch=5 par1=62 par2=90
Channel Event. t= 33 (25793) Note Off ch=5 par1=62 par2=64
Channel Event. t= 63 (25856) Note On ch=5 par1=64 par2=100
Channel Event. t= 96 (25952) Note On ch=5 par1=62 par2=83
Channel Event. t= 51 (26003) Note Off ch=5 par1=64 par2=64
Channel Event. t= 12 (26015) Note Off ch=5 par1=62 par2=64
Channel Event. t= 33 (26048) Note On ch=5 par1=59 par2=81
Channel Event. t= 30 (26078) Note Off ch=5 par1=59 par2=64
Channel Event. t= 66 (26144) Note On ch=5 par1=60 par2=92
Channel Event. t= 29 (26173) Note Off ch=5 par1=60 par2=64
Channel Event. t= 67 (26240) Note On ch=5 par1=62 par2=103
Channel Event. t= 96 (26336) Note On ch=5 par1=60 par2=83
Channel Event. t= 40 (26376) Note Off ch=5 par1=62 par2=64
Channel Event. t= 8 (26384) Note Off ch=5 par1=60 par2=64
Channel Event. t= 48 (26432) Note On ch=5 par1=57 par2=89
Channel Event. t= 39 (26471) Note Off ch=5 par1=57 par2=64
Channel Event. t= 57 (26528) Note On ch=5 par1=59 par2=92
Channel Event. t= 34 (26562) Note Off ch=5 par1=59 par2=64
Channel Event. t= 62 (26624) Note On ch=5 par1=60 par2=102
Channel Event. t= 504 (27128) Note Off ch=5 par1=60 par2=64
Channel Event. t= 72 (27200) Note On ch=5 par1=55 par2=100
Channel Event. t= 40 (27240) Note Off ch=5 par1=55 par2=64
Channel Event. t= 56 (27296) Note On ch=5 par1=60 par2=85
Channel Event. t= 31 (27327) Note Off ch=5 par1=60 par2=64
Channel Event. t= 65 (27392) Note On ch=5 par1=64 par2=81
Channel Event. t= 189 (27581) Note Off ch=5 par1=64 par2=64
Channel Event. t= 3 (27584) Note On ch=5 par1=60 par2=67
Channel Event. t= 42 (27626) Note Off ch=5 par1=60 par2=64
Channel Event. t= 54 (27680) Note On ch=5 par1=55 par2=59
Channel Event. t= 25 (27705) Note Off ch=5 par1=55 par2=64
Channel Event. t= 71 (27776) Note On ch=5 par1=54 par2=67
Channel Event. t= 192 (27968) Note On ch=5 par1=55 par2=63
Channel Event. t= 12 (27980) Note Off ch=5 par1=54 par2=64
Channel Event. t= 34 (28014) Note Off ch=5 par1=55 par2=64
Channel Event. t= 50 (28064) Note On ch=5 par1=60 par2=69
Channel Event. t= 37 (28101) Note Off ch=5 par1=60 par2=64
Channel Event. t= 59 (28160) Note On ch=5 par1=64 par2=80
Channel Event. t= 33 (28193) Note Off ch=5 par1=64 par2=64
Channel Event. t= 63 (28256) Note On ch=5 par1=67 par2=59
Channel Event. t= 24 (28280) Note Off ch=5 par1=67 par2=64
Channel Event. t= 72 (28352) Note On ch=5 par1=65 par2=80
Channel Event. t= 250 (28602) Note Off ch=5 par1=65 par2=64
Channel Event. t= 38 (28640) Note On ch=5 par1=64 par2=90
Channel Event. t= 96 (28736) Note On ch=5 par1=67 par2=76
Channel Event. t= 17 (28753) Note Off ch=5 par1=64 par2=64
Channel Event. t= 79 (28832) Note On ch=5 par1=65 par2=70
Channel Event. t= 8 (28840) Note Off ch=5 par1=67 par2=64
Channel Event. t= 88 (28928) Note On ch=5 par1=64 par2=78
Channel Event. t= 10 (28938) Note Off ch=5 par1=65 par2=64
Channel Event. t= 36 (28974) Note Off ch=5 par1=64 par2=64
Channel Event. t= 50 (29024) Note On ch=5 par1=62 par2=93
Channel Event. t= 96 (29120) Note On ch=5 par1=65 par2=68
Channel Event. t= 8 (29128) Note Off ch=5 par1=62 par2=64
Channel Event. t= 88 (29216) Note On ch=5 par1=64 par2=91
Channel Event. t= 35 (29251) Note Off ch=5 par1=65 par2=64
Channel Event. t= 61 (29312) Note On ch=5 par1=62 par2=87
Channel Event. t= 18 (29330) Note Off ch=5 par1=64 par2=64
Channel Event. t= 20 (29350) Note Off ch=5 par1=62 par2=64
Channel Event. t= 58 (29408) Note On ch=5 par1=60 par2=88
Channel Event. t= 96 (29504) Note On ch=5 par1=64 par2=77
Channel Event. t= 14 (29518) Note Off ch=5 par1=60 par2=64
Channel Event. t= 82 (29600) Note On ch=5 par1=62 par2=81
Channel Event. t= 11 (29611) Note Off ch=5 par1=64 par2=64
Channel Event. t= 20 (29631) Note Off ch=5 par1=62 par2=64
Channel Event. t= 65 (29696) Note On ch=5 par1=59 par2=93
Channel Event. t= 384 (30080) Note On ch=5 par1=60 par2=84
Channel Event. t= 6 (30086) Note Off ch=5 par1=59 par2=64
Channel Event. t= 39 (30125) Note Off ch=5 par1=60 par2=64
Channel Event. t= 8588 (38713) Note On ch=5 par1=55 par2=76
Channel Event. t= 44 (38757) Note Off ch=5 par1=55 par2=64
Channel Event. t= 57 (38814) Note On ch=5 par1=60 par2=56
Channel Event. t= 25 (38839) Note Off ch=5 par1=60 par2=64
Channel Event. t= 79 (38918) Note On ch=5 par1=52 par2=49
Channel Event. t= 4 (38922) Note On ch=5 par1=64 par2=70
Channel Event. t= 72 (38994) Note Off ch=5 par1=52 par2=64
Channel Event. t= 106 (39100) Note On ch=5 par1=60 par2=69
Channel Event. t= 1 (39101) Note Off ch=5 par1=64 par2=64
Channel Event. t= 35 (39136) Note Off ch=5 par1=60 par2=64
Channel Event. t= 61 (39197) Note On ch=5 par1=55 par2=65
Channel Event. t= 19 (39216) Note Off ch=5 par1=55 par2=64
Channel Event. t= 83 (39299) Note On ch=5 par1=52 par2=43
Channel Event. t= 3 (39302) Note On ch=5 par1=54 par2=80
Channel Event. t= 71 (39373) Note Off ch=5 par1=52 par2=64
Channel Event. t= 101 (39474) Note On ch=5 par1=55 par2=74
Channel Event. t= 5 (39479) Note Off ch=5 par1=54 par2=64
Channel Event. t= 36 (39515) Note Off ch=5 par1=55 par2=64
Channel Event. t= 55 (39570) Note On ch=5 par1=60 par2=62
Channel Event. t= 30 (39600) Note Off ch=5 par1=60 par2=64
Channel Event. t= 60 (39660) Note On ch=5 par1=64 par2=83
Channel Event. t= 7 (39667) Note On ch=5 par1=57 par2=50
Channel Event. t= 26 (39693) Note Off ch=5 par1=64 par2=64
Channel Event. t= 63 (39756) Note On ch=5 par1=67 par2=47
Channel Event. t= 24 (39780) Note Off ch=5 par1=57 par2=64
Channel Event. t= 3 (39783) Note Off ch=5 par1=67 par2=64
Channel Event. t= 72 (39855) Note On ch=5 par1=65 par2=82
Channel Event. t= 191 (40046) Note On ch=5 par1=57 par2=37
Channel Event. t= 50 (40096) Note Off ch=5 par1=65 par2=64
Channel Event. t= 45 (40141) Note On ch=5 par1=64 par2=88
Channel Event. t= 25 (40166) Note Off ch=5 par1=57 par2=64
Channel Event. t= 71 (40237) Note On ch=5 par1=67 par2=74
Channel Event. t= 9 (40246) Note Off ch=5 par1=64 par2=64
Channel Event. t= 84 (40330) Note On ch=5 par1=65 par2=69
Channel Event. t= 15 (40345) Note Off ch=5 par1=67 par2=64
Channel Event. t= 81 (40426) Note On ch=5 par1=64 par2=71
Channel Event. t= 12 (40438) Note On ch=5 par1=57 par2=51
Channel Event. t= 2 (40440) Note Off ch=5 par1=65 par2=64
Channel Event. t= 21 (40461) Note Off ch=5 par1=64 par2=64
Channel Event. t= 63 (40524) Note On ch=5 par1=62 par2=74
Channel Event. t= 21 (40545) Note Off ch=5 par1=57 par2=64
Channel Event. t= 69 (40614) Note On ch=5 par1=65 par2=69
Channel Event. t= 23 (40637) Note Off ch=5 par1=62 par2=64
Channel Event. t= 14 (40651) Note Off ch=5 par1=65 par2=64
Channel Event. t= 61 (40712) Note On ch=5 par1=64 par2=85
Channel Event. t= 91 (40803) Note On ch=5 par1=62 par2=74
Channel Event. t= 22 (40825) Note Off ch=5 par1=64 par2=64
Channel Event. t= 5 (40830) Note On ch=5 par1=57 par2=52
Channel Event. t= 7 (40837) Note Off ch=5 par1=62 par2=64
Channel Event. t= 74 (40911) Note On ch=5 par1=60 par2=76
Channel Event. t= 41 (40952) Note Off ch=5 par1=57 par2=64
Channel Event. t= 54 (41006) Note On ch=5 par1=64 par2=74
Channel Event. t= 14 (41020) Note Off ch=5 par1=60 par2=64
Channel Event. t= 23 (41043) Note Off ch=5 par1=64 par2=64
Channel Event. t= 61 (41104) Note On ch=5 par1=62 par2=82
Channel Event. t= 19 (41123) Note Off ch=5 par1=62 par2=64
Channel Event. t= 83 (41206) Note On ch=5 par1=59 par2=91
Channel Event. t= 185 (41391) Note On ch=5 par1=53 par2=69
Channel Event. t= 123 (41514) Note Off ch=5 par1=53 par2=64
Channel Event. t= 71 (41585) Note On ch=5 par1=52 par2=63
Channel Event. t= 13 (41598) Note On ch=5 par1=60 par2=79
Channel Event. t= 12 (41610) Note Off ch=5 par1=59 par2=64
Channel Event. t= 41 (41651) Note Off ch=5 par1=60 par2=64
Channel Event. t= 37 (41688) Note Off ch=5 par1=52 par2=64
Channel Event. t= 83 (41771) Note On ch=5 par1=48 par2=64
Channel Event. t= 116 (41887) Note Off ch=5 par1=48 par2=64
Channel Event. t= 83 (41970) Note On ch=5 par1=47 par2=65
Channel Event. t= 127 (42097) Note Off ch=5 par1=47 par2=64
Channel Event. t= 63 (42160) Note On ch=5 par1=45 par2=62
Channel Event. t= 112 (42272) Note Off ch=5 par1=45 par2=64
Channel Event. t= 87 (42359) Note On ch=5 par1=43 par2=64
Channel Event. t= 133 (42492) Note Off ch=5 par1=43 par2=64
Channel Event. t= 53 (42545) Note On ch=5 par1=42 par2=78
Channel Event. t= 137 (42682) Note Off ch=5 par1=42 par2=64
Channel Event. t= 57 (42739) Note On ch=5 par1=52 par2=64
Channel Event. t= 150 (42889) Note Off ch=5 par1=52 par2=64
Channel Event. t= 43 (42932) Note On ch=5 par1=50 par2=65
Channel Event. t= 142 (43074) Note Off ch=5 par1=50 par2=64
Channel Event. t= 52 (43126) Note On ch=5 par1=49 par2=77
Channel Event. t= 164 (43290) Note Off ch=5 par1=49 par2=64
Channel Event. t= 153 (43443) Note On ch=5 par1=35 par2=73
Channel Event. t= 58 (43501) Note Off ch=5 par1=35 par2=64
Channel Event. t= 13 (43514) Note On ch=5 par1=54 par2=66
Channel Event. t= 1 (43515) Note On ch=5 par1=50 par2=58
Channel Event. t= 63 (43578) Note Off ch=5 par1=54 par2=64
Channel Event. t= 8 (43586) Note Off ch=5 par1=50 par2=64
Channel Event. t= 120 (43706) Note On ch=5 par1=54 par2=49
Channel Event. t= 4 (43710) Note On ch=5 par1=50 par2=54
Channel Event. t= 53 (43763) Note Off ch=5 par1=54 par2=64
Channel Event. t= 6 (43769) Note Off ch=5 par1=50 par2=64
Channel Event. t= 130 (43899) Note On ch=5 par1=54 par2=44
Channel Event. t= 2 (43901) Note On ch=5 par1=50 par2=45
Channel Event. t= 58 (43959) Note Off ch=5 par1=54 par2=64
Channel Event. t= 3 (43962) Note Off ch=5 par1=50 par2=64
Channel Event. t= 133 (44095) Note On ch=5 par1=54 par2=60
Channel Event. t= 2 (44097) Note On ch=5 par1=50 par2=59
Channel Event. t= 50 (44147) Note Off ch=5 par1=54 par2=64
Channel Event. t= 6 (44153) Note Off ch=5 par1=50 par2=64
Channel Event. t= 126 (44279) Note On ch=5 par1=50 par2=52
Channel Event. t= 0 (44279) Note On ch=5 par1=54 par2=58
Channel Event. t= 67 (44346) Note Off ch=5 par1=54 par2=64
Channel Event. t= 4 (44350) Note Off ch=5 par1=50 par2=64
Channel Event. t= 125 (44475) Note On ch=5 par1=54 par2=56
Channel Event. t= 1 (44476) Note On ch=5 par1=50 par2=50
Channel Event. t= 58 (44534) Note Off ch=5 par1=54 par2=64
Channel Event. t= 6 (44540) Note Off ch=5 par1=50 par2=64
Channel Event. t= 128 (44668) Note On ch=5 par1=54 par2=59
Channel Event. t= 1 (44669) Note On ch=5 par1=50 par2=56
Channel Event. t= 55 (44724) Note Off ch=5 par1=54 par2=64
Channel Event. t= 8 (44732) Note Off ch=5 par1=50 par2=64
Channel Event. t= 124 (44856) Note On ch=5 par1=54 par2=59
Channel Event. t= 2 (44858) Note On ch=5 par1=50 par2=61
Channel Event. t= 61 (44919) Note Off ch=5 par1=54 par2=64
Channel Event. t= 7 (44926) Note Off ch=5 par1=50 par2=64
Channel Event. t= 124 (45050) Note On ch=5 par1=52 par2=71
Channel Event. t= 2 (45052) Note On ch=5 par1=55 par2=58
Channel Event. t= 67 (45119) Note Off ch=5 par1=52 par2=64
Channel Event. t= 4 (45123) Note Off ch=5 par1=55 par2=64
Channel Event. t= 107 (45230) Note On ch=5 par1=52 par2=70
Channel Event. t= 1 (45231) Note On ch=5 par1=55 par2=56
Channel Event. t= 84 (45315) Note Off ch=5 par1=55 par2=64
Channel Event. t= 2 (45317) Note Off ch=5 par1=52 par2=64
Channel Event. t= 2803 (48120) Note On ch=5 par1=67 par2=89
Channel Event. t= 286 (48406) Note On ch=5 par1=66 par2=94
Channel Event. t= 16 (48422) Note Off ch=5 par1=67 par2=64
Channel Event. t= 84 (48506) Note On ch=5 par1=64 par2=80
Channel Event. t= 4 (48510) Note Off ch=5 par1=66 par2=64
Channel Event. t= 89 (48599) Note On ch=5 par1=62 par2=76
Channel Event. t= 13 (48612) Note Off ch=5 par1=64 par2=64
Channel Event. t= 88 (48700) Note On ch=5 par1=61 par2=91
Channel Event. t= 2 (48702) Note Off ch=5 par1=62 par2=64
Channel Event. t= 148 (48850) Note Off ch=5 par1=61 par2=64
Channel Event. t= 35 (48885) Note On ch=5 par1=59 par2=85
Channel Event. t= 87 (48972) Note Off ch=5 par1=59 par2=64
Channel Event. t= 108 (49080) Note On ch=5 par1=74 par2=85
Channel Event. t= 133 (49213) Note Off ch=5 par1=74 par2=64
Channel Event. t= 57 (49270) Note On ch=5 par1=73 par2=76
Channel Event. t= 165 (49435) Note Off ch=5 par1=73 par2=64
Channel Event. t= 31 (49466) Note On ch=5 par1=71 par2=80
Channel Event. t= 157 (49623) Note Off ch=5 par1=71 par2=64
Channel Event. t= 21 (49644) Note On ch=5 par1=69 par2=80
Channel Event. t= 172 (49816) Note Off ch=5 par1=69 par2=64
Channel Event. t= 26 (49842) Note On ch=5 par1=62 par2=81
Channel Event. t= 164 (50006) Note Off ch=5 par1=62 par2=64
Channel Event. t= 33 (50039) Note On ch=5 par1=64 par2=67
Channel Event. t= 172 (50211) Note Off ch=5 par1=64 par2=64
Channel Event. t= 16 (50227) Note On ch=5 par1=65 par2=70
Channel Event. t= 140 (50367) Note Off ch=5 par1=65 par2=64
Channel Event. t= 44 (50411) Note On ch=5 par1=64 par2=72
Channel Event. t= 1 (50412) Note On ch=5 par1=67 par2=63
Channel Event. t= 125 (50537) Note Off ch=5 par1=67 par2=64
Channel Event. t= 9 (50546) Note Off ch=5 par1=64 par2=64
Channel Event. t= 66 (50612) Note On ch=5 par1=64 par2=58
Channel Event. t= 0 (50612) Note On ch=5 par1=67 par2=52
Channel Event. t= 135 (50747) Note Off ch=5 par1=64 par2=64
Channel Event. t= 1 (50748) Note Off ch=5 par1=67 par2=64
Channel Event. t= 52 (50800) Note On ch=5 par1=61 par2=69
Channel Event. t= 3 (50803) Note On ch=5 par1=64 par2=53
Channel Event. t= 129 (50932) Note Off ch=5 par1=61 par2=64
Channel Event. t= 10 (50942) Note Off ch=5 par1=64 par2=64
Channel Event. t= 63 (51005) Note On ch=5 par1=61 par2=63
Channel Event. t= 0 (51005) Note On ch=5 par1=64 par2=58
Channel Event. t= 116 (51121) Note Off ch=5 par1=61 par2=64
Channel Event. t= 1 (51122) Note Off ch=5 par1=64 par2=64
Channel Event. t= 71 (51193) Note On ch=5 par1=61 par2=56
Channel Event. t= 0 (51193) Note On ch=5 par1=64 par2=52
Channel Event. t= 105 (51298) Note Off ch=5 par1=61 par2=64
Channel Event. t= 1 (51299) Note Off ch=5 par1=64 par2=64
Channel Event. t= 87 (51386) Note On ch=5 par1=61 par2=58
Channel Event. t= 4 (51390) Note On ch=5 par1=64 par2=55
Channel Event. t= 98 (51488) Note Off ch=5 par1=61 par2=64
Channel Event. t= 2 (51490) Note Off ch=5 par1=64 par2=64
Channel Event. t= 87 (51577) Note On ch=5 par1=64 par2=59
Channel Event. t= 2 (51579) Note On ch=5 par1=61 par2=63
Channel Event. t= 117 (51696) Note Off ch=5 par1=61 par2=64
Channel Event. t= 3 (51699) Note Off ch=5 par1=64 par2=64
Channel Event. t= 1718 (53417) Note On ch=5 par1=63 par2=84
Channel Event. t= 69 (53486) Note On ch=5 par1=61 par2=85
Channel Event. t= 2 (53488) Note On ch=5 par1=64 par2=79
Channel Event. t= 1 (53489) Note Off ch=5 par1=63 par2=64
Channel Event. t= 70 (53559) Note Off ch=5 par1=61 par2=64
Channel Event. t= 6 (53565) Note Off ch=5 par1=64 par2=64
Channel Event. t= 246 (53811) Note On ch=5 par1=63 par2=78
Channel Event. t= 23 (53834) Note Off ch=5 par1=63 par2=64
Channel Event. t= 45 (53879) Note On ch=5 par1=63 par2=78
Channel Event. t= 3 (53882) Note On ch=5 par1=60 par2=80
Channel Event. t= 79 (53961) Note Off ch=5 par1=63 par2=64
Channel Event. t= 9 (53970) Note Off ch=5 par1=60 par2=64
Channel Event. t= 217 (54187) Note On ch=5 par1=61 par2=88
Channel Event. t= 75 (54262) Note On ch=5 par1=59 par2=85
Channel Event. t= 2 (54264) Note On ch=5 par1=62 par2=80
Channel Event. t= 3 (54267) Note Off ch=5 par1=61 par2=64
Channel Event. t= 58 (54325) Note Off ch=5 par1=62 par2=64
Channel Event. t= 10 (54335) Note Off ch=5 par1=59 par2=64
Channel Event. t= 232 (54567) Note On ch=5 par1=60 par2=83
Channel Event. t= 74 (54641) Note On ch=5 par1=61 par2=81
Channel Event. t= 7 (54648) Note Off ch=5 par1=60 par2=64
Channel Event. t= 1 (54649) Note On ch=5 par1=58 par2=79
Channel Event. t= 61 (54710) Note Off ch=5 par1=58 par2=64
Channel Event. t= 5 (54715) Note Off ch=5 par1=61 par2=64
Channel Event. t= 316 (55031) Note On ch=5 par1=57 par2=78
Channel Event. t= 0 (55031) Note On ch=5 par1=60 par2=82
Channel Event. t= 97 (55128) Note Off ch=5 par1=60 par2=64
Channel Event. t= 4 (55132) Note Off ch=5 par1=57 par2=64
Channel Event. t= 207 (55339) Note On ch=5 par1=58 par2=84
Channel Event. t= 73 (55412) Note On ch=5 par1=56 par2=85
Channel Event. t= 0 (55412) Note On ch=5 par1=59 par2=82
Channel Event. t= 1 (55413) Note Off ch=5 par1=58 par2=64
Channel Event. t= 68 (55481) Note Off ch=5 par1=56 par2=64
Channel Event. t= 6 (55487) Note Off ch=5 par1=59 par2=64
Channel Event. t= 318 (55805) Note On ch=5 par1=54 par2=59
Channel Event. t= 0 (55805) Note On ch=5 par1=57 par2=55
Channel Event. t= 564 (56369) Note On ch=5 par1=50 par2=78
Channel Event. t= 9 (56378) Note Off ch=5 par1=54 par2=64
Channel Event. t= 16 (56394) Note Off ch=5 par1=57 par2=64
Channel Event. t= 172 (56566) Note On ch=5 par1=57 par2=32
Channel Event. t= 1153 (57719) Note On ch=5 par1=62 par2=63
Channel Event. t= 1 (57720) Note On ch=5 par1=54 par2=73
Channel Event. t= 10 (57730) Note Off ch=5 par1=50 par2=64
Channel Event. t= 18 (57748) Note Off ch=5 par1=57 par2=64
Channel Event. t= 319 (58067) Note Off ch=5 par1=54 par2=64
Channel Event. t= 39 (58106) Note On ch=5 par1=54 par2=81
Channel Event. t= 14 (58120) Note Off ch=5 par1=62 par2=64
Channel Event. t= 1909 (60029) Note On ch=5 par1=61 par2=82
Channel Event. t= 5 (60034) Note Off ch=5 par1=54 par2=64
Channel Event. t= 1 (60035) Note On ch=5 par1=53 par2=66
Channel Event. t= 353 (60388) Note Off ch=5 par1=61 par2=64
Channel Event. t= 17 (60405) Note On ch=5 par1=59 par2=77
Channel Event. t= 3 (60408) Note On ch=5 par1=61 par2=83
Channel Event. t= 7 (60415) Note Off ch=5 par1=53 par2=64
Channel Event. t= 293 (60708) Note Off ch=5 par1=59 par2=64
Channel Event. t= 80 (60788) Note On ch=5 par1=57 par2=80
Channel Event. t= 4 (60792) Note On ch=5 par1=48 par2=58
Channel Event. t= 2 (60794) Note Off ch=5 par1=61 par2=64
Channel Event. t= 2 (60796) Note On ch=5 par1=49 par2=44
Channel Event. t= 23 (60819) Note Off ch=5 par1=49 par2=64
Channel Event. t= 1107 (61926) Note Off ch=5 par1=57 par2=64
Channel Event. t= 28 (61954) Note On ch=5 par1=59 par2=64
Channel Event. t= 6 (61960) Note On ch=5 par1=55 par2=66
Channel Event. t= 7 (61967) Note Off ch=5 par1=48 par2=64
Channel Event. t= 1291 (63258) Note Off ch=5 par1=55 par2=64
Channel Event. t= 8 (63266) Note Off ch=5 par1=59 par2=64
Channel Event. t= 212 (63478) Note On ch=5 par1=67 par2=86
Channel Event. t= 10 (63488) Controller ch=5 par1=7 (Main Volume) par2=90
Channel Event. t= 264 (63752) Controller ch=5 par1=7 (Main Volume) par2=91
Channel Event. t= 14 (63766) Note On ch=5 par1=66 par2=98
Channel Event. t= 21 (63787) Note Off ch=5 par1=67 par2=64
Channel Event. t= 76 (63863) Note On ch=5 par1=64 par2=82
Channel Event. t= 14 (63877) Note Off ch=5 par1=66 par2=64
Channel Event. t= 75 (63952) Note On ch=5 par1=62 par2=76
Channel Event. t= 7 (63959) Note Off ch=5 par1=64 par2=64
Channel Event. t= 57 (64016) Controller ch=5 par1=7 (Main Volume) par2=92
Channel Event. t= 29 (64045) Note On ch=5 par1=61 par2=89
Channel Event. t= 19 (64064) Note Off ch=5 par1=62 par2=64
Channel Event. t= 73 (64137) Note On ch=5 par1=59 par2=79
Channel Event. t= 11 (64148) Note Off ch=5 par1=61 par2=64
Channel Event. t= 83 (64231) Note On ch=5 par1=57 par2=77
Channel Event. t= 8 (64239) Note Off ch=5 par1=59 par2=64
Channel Event. t= 17 (64256) Controller ch=5 par1=7 (Main Volume) par2=93
Channel Event. t= 32 (64288) Note Off ch=5 par1=57 par2=64
Channel Event. t= 36 (64324) Note On ch=5 par1=55 par2=87
Channel Event. t= 93 (64417) Note On ch=5 par1=54 par2=94
Channel Event. t= 28 (64445) Note Off ch=5 par1=55 par2=64
Channel Event. t= 28 (64473) Note Off ch=5 par1=54 par2=64
Channel Event. t= 45 (64518) Note On ch=5 par1=52 par2=93
Channel Event. t= 2 (64520) Controller ch=5 par1=7 (Main Volume) par2=94
Channel Event. t= 93 (64613) Note On ch=5 par1=50 par2=70
Channel Event. t= 25 (64638) Note Off ch=5 par1=52 par2=64
Channel Event. t= 47 (64685) Note Off ch=5 par1=50 par2=64
Channel Event. t= 36 (64721) Note On ch=5 par1=48 par2=87
Channel Event. t= 63 (64784) Controller ch=5 par1=7 (Main Volume) par2=95
Channel Event. t= 23 (64807) Note On ch=5 par1=50 par2=89
Channel Event. t= 15 (64822) Note Off ch=5 par1=48 par2=64
Channel Event. t= 54 (64876) Note Off ch=5 par1=50 par2=64
Channel Event. t= 32 (64908) Note On ch=5 par1=52 par2=86
Channel Event. t= 70 (64978) Note Off ch=5 par1=52 par2=64
Channel Event. t= 29 (65007) Note On ch=5 par1=53 par2=96
Channel Event. t= 17 (65024) Controller ch=5 par1=7 (Main Volume) par2=96
Channel Event. t= 138 (65162) Note Off ch=5 par1=53 par2=64
Channel Event. t= 126 (65288) Controller ch=5 par1=7 (Main Volume) par2=97
Channel Event. t= 108 (65396) Note On ch=5 par1=54 par2=94
Channel Event. t= 1 (65397) Note On ch=5 par1=58 par2=103
Channel Event. t= 145 (65542) Note Off ch=5 par1=58 par2=64
Channel Event. t= 5 (65547) Note Off ch=5 par1=54 par2=64
Channel Event. t= 5 (65552) Controller ch=5 par1=7 (Main Volume) par2=98
Channel Event. t= 228 (65780) Note On ch=5 par1=50 par2=92
Channel Event. t= 0 (65780) Note On ch=5 par1=54 par2=101
Channel Event. t= 12 (65792) Controller ch=5 par1=7 (Main Volume) par2=99
Channel Event. t= 264 (66056) Controller ch=5 par1=7 (Main Volume) par2=100
Channel Event. t= 120 (66176) Controller ch=5 par1=10 (Main Volume) par2=80
Channel Event. t= 144 (66320) Controller ch=5 par1=7 (Main Volume) par2=101
Channel Event. t= 239 (66559) Controller ch=5 par1=7 (Main Volume) par2=102
Channel Event. t= 1 (66560) Note Off ch=5 par1=54 par2=64
Channel Event. t= 0 (66560) Note Off ch=5 par1=50 par2=64
Channel Event. t= 0 (66560) 
Meta Event. Type: 0x2f (47dec), End of Track (0 bytes): 
track #26
track size: 629
Channel Event. t= 0 (0) 
Meta Event. Type: 0x21 (33dec), MIDI Port (1 bytes): 0
Channel Event. t= 0 (0) 
Meta Event. Type: 0x3 (3dec), Sequence/Track Name (20 bytes): Flute               
Channel Event. t= 0 (0) Program Change ch=1 par1=72 par2=-121
Channel Event. t= 12656 (12656) Controller ch=1 par1=10 (Pan) par2=120
Channel Event. t= 17796 (30452) Controller ch=1 par1=7 (Pan) par2=90
Channel Event. t= 12 (30464) Note On ch=1 par1=84 par2=89
Channel Event. t= 47 (30511) Note On ch=1 par1=82 par2=72
Channel Event. t= 37 (30548) Note Off ch=1 par1=84 par2=64
Channel Event. t= 24 (30572) Note On ch=1 par1=79 par2=74
Channel Event. t= 6 (30578) Note Off ch=1 par1=82 par2=64
Channel Event. t= 57 (30635) Note On ch=1 par1=76 par2=89
Channel Event. t= 1 (30636) Note Off ch=1 par1=79 par2=64
Channel Event. t= 59 (30695) Note On ch=1 par1=79 par2=68
Channel Event. t= 22 (30717) Note Off ch=1 par1=76 par2=64
Channel Event. t= 37 (30754) Note On ch=1 par1=82 par2=86
Channel Event. t= 11 (30765) Note Off ch=1 par1=79 par2=64
Channel Event. t= 29 (30794) Note Off ch=1 par1=82 par2=64
Channel Event. t= 21 (30815) Note On ch=1 par1=84 par2=93
Channel Event. t= 57 (30872) Note On ch=1 par1=88 par2=75
Channel Event. t= 21 (30893) Note Off ch=1 par1=84 par2=64
Channel Event. t= 30 (30923) Note On ch=1 par1=91 par2=80
Channel Event. t= 4 (30927) Note Off ch=1 par1=88 par2=64
Channel Event. t= 44 (30971) Note On ch=1 par1=94 par2=81
Channel Event. t= 34 (31005) Note Off ch=1 par1=91 par2=64
Channel Event. t= 20 (31025) Note On ch=1 par1=96 par2=86
Channel Event. t= 5 (31030) Note Off ch=1 par1=94 par2=64
Channel Event. t= 38 (31068) Note On ch=1 par1=94 par2=69
Channel Event. t= 39 (31107) Note Off ch=1 par1=96 par2=64
Channel Event. t= 19 (31126) Note On ch=1 par1=91 par2=76
Channel Event. t= 17 (31143) Note Off ch=1 par1=94 par2=64
Channel Event. t= 34 (31177) Note On ch=1 par1=88 par2=89
Channel Event. t= 13 (31190) Note Off ch=1 par1=91 par2=64
Channel Event. t= 35 (31225) Note Off ch=1 par1=88 par2=64
Channel Event. t= 0 (31225) Note On ch=1 par1=91 par2=83
Channel Event. t= 32 (31257) Note Off ch=1 par1=91 par2=64
Channel Event. t= 63 (31320) Note On ch=1 par1=91 par2=87
Channel Event. t= 49 (31369) Note On ch=1 par1=93 par2=80
Channel Event. t= 11 (31380) Note Off ch=1 par1=91 par2=64
Channel Event. t= 32 (31412) Note On ch=1 par1=91 par2=84
Channel Event. t= 9 (31421) Note Off ch=1 par1=93 par2=64
Channel Event. t= 18 (31439) Note Off ch=1 par1=91 par2=64
Channel Event. t= 70 (31509) Note On ch=1 par1=91 par2=84
Channel Event. t= 48 (31557) Note On ch=1 par1=93 par2=61
Channel Event. t= 8 (31565) Note Off ch=1 par1=91 par2=64
Channel Event. t= 37 (31602) Note On ch=1 par1=91 par2=86
Channel Event. t= 7 (31609) Note Off ch=1 par1=93 par2=64
Channel Event. t= 22 (31631) Note Off ch=1 par1=91 par2=64
Channel Event. t= 70 (31701) Note On ch=1 par1=91 par2=88
Channel Event. t= 42 (31743) Note On ch=1 par1=93 par2=79
Channel Event. t= 2 (31745) Note Off ch=1 par1=91 par2=64
Channel Event. t= 46 (31791) Note On ch=1 par1=91 par2=89
Channel Event. t= 21 (31812) Note Off ch=1 par1=93 par2=64
Channel Event. t= 53 (31865) Note Off ch=1 par1=91 par2=64
Channel Event. t= 135 (32000) Controller ch=1 par1=10 (Pan) par2=20
Channel Event. t= 88 (32088) Note On ch=1 par1=91 par2=74
Channel Event. t= 22 (32110) Note Off ch=1 par1=91 par2=64
Channel Event. t= 18 (32128) Note On ch=1 par1=91 par2=86
Channel Event. t= 36 (32164) Note Off ch=1 par1=91 par2=64
Channel Event. t= 18 (32182) Note On ch=1 par1=84 par2=92
Channel Event. t= 555 (32737) Note Off ch=1 par1=84 par2=64
Channel Event. t= 31 (32768) Controller ch=1 par1=10 (Pan) par2=120
Channel Event. t= 76 (32844) Note On ch=1 par1=91 par2=79
Channel Event. t= 20 (32864) Note Off ch=1 par1=91 par2=64
Channel Event. t= 23 (32887) Note On ch=1 par1=91 par2=72
Channel Event. t= 35 (32922) Note Off ch=1 par1=91 par2=64
Channel Event. t= 20 (32942) Note On ch=1 par1=84 par2=89
Channel Event. t= 405 (33347) Note Off ch=1 par1=84 par2=64
Channel Event. t= 189 (33536) Controller ch=1 par1=7 (Main Volume) par2=75
Channel Event. t= 24 (33560) Program Change ch=1 par1=84 par2=77
Channel Event. t= 2255 (35815) Program Change ch=1 par1=85 par2=94
Channel Event. t= 78 (35893) Program Change ch=1 par1=93 par2=13
Channel Event. t= 207 (36100) Program Change ch=1 par1=64 par2=75
Channel Event. t= 2251 (38351) Program Change ch=1 par1=91 par2=14
Channel Event. t= 206 (38557) Program Change ch=1 par1=64 par2=82
Channel Event. t= 2250 (40807) Program Change ch=1 par1=89 par2=4
Channel Event. t= 203 (41010) Program Change ch=1 par1=64 par2=91
Channel Event. t= 2251 (43261) Program Change ch=1 par1=84 par2=24
Channel Event. t= 202 (43463) Program Change ch=1 par1=64 par2=74
Channel Event. t= 2254 (45717) Program Change ch=1 par1=88 par2=16
Channel Event. t= 203 (45920) Program Change ch=1 par1=64 par2=75
Channel Event. t= 2255 (48175) Program Change ch=1 par1=77 par2=6
Channel Event. t= 206 (48381) Program Change ch=1 par1=64 par2=90
Channel Event. t= 2248 (50629) Program Change ch=1 par1=102 par2=7
Channel Event. t= 207 (50836) Program Change ch=1 par1=64 par2=-127
Channel Event. t= 52 (50888) Program Change ch=1 par1=72 par2=64
Channel Event. t= 10 (50898) Note On ch=1 par1=75 par2=103
Channel Event. t= 92 (50990) Note On ch=1 par1=78 par2=93
Channel Event. t= 13 (51003) Note Off ch=1 par1=75 par2=64
Channel Event. t= 76 (51079) Note Off ch=1 par1=78 par2=64
Channel Event. t= 6 (51085) Note On ch=1 par1=79 par2=94
Channel Event. t= 189 (51274) Note On ch=1 par1=78 par2=88
Channel Event. t= 5 (51279) Note Off ch=1 par1=79 par2=64
Channel Event. t= 130 (51409) Note Off ch=1 par1=78 par2=64
Channel Event. t= 162 (51571) Note On ch=1 par1=79 par2=80
Channel Event. t= 94 (51665) Note On ch=1 par1=78 par2=81
Channel Event. t= 10 (51675) Note Off ch=1 par1=79 par2=64
Channel Event. t= 81 (51756) Note On ch=1 par1=75 par2=77
Channel Event. t= 6 (51762) Note Off ch=1 par1=78 par2=64
Channel Event. t= 83 (51845) Note On ch=1 par1=74 par2=77
Channel Event. t= 3 (51848) Note Off ch=1 par1=75 par2=64
Channel Event. t= 97 (51945) Note On ch=1 par1=75 par2=77
Channel Event. t= 21 (51966) Note Off ch=1 par1=74 par2=64
Channel Event. t= 74 (52040) Note On ch=1 par1=78 par2=82
Channel Event. t= 5 (52045) Note Off ch=1 par1=75 par2=64
Channel Event. t= 84 (52129) Note Off ch=1 par1=78 par2=64
Channel Event. t= 3 (52132) Note On ch=1 par1=79 par2=74
Channel Event. t= 100 (52232) Note On ch=1 par1=86 par2=91
Channel Event. t= 11 (52243) Note Off ch=1 par1=79 par2=64
Channel Event. t= 187 (52430) Note On ch=1 par1=87 par2=81
Channel Event. t= 4 (52434) Note Off ch=1 par1=86 par2=64
Channel Event. t= 94 (52528) Note On ch=1 par1=86 par2=74
Channel Event. t= 10 (52538) Note Off ch=1 par1=87 par2=64
Channel Event. t= 90 (52628) Note On ch=1 par1=84 par2=76
Channel Event. t= 5 (52633) Note Off ch=1 par1=86 par2=64
Channel Event. t= 181 (52814) Note On ch=1 par1=77 par2=88
Channel Event. t= 2 (52816) Note Off ch=1 par1=84 par2=64
Channel Event. t= 193 (53009) Note On ch=1 par1=78 par2=84
Channel Event. t= 22 (53031) Note Off ch=1 par1=77 par2=64
Channel Event. t= 173 (53204) Note On ch=1 par1=79 par2=55
Channel Event. t= 14 (53218) Note Off ch=1 par1=78 par2=64
Channel Event. t= 182 (53400) Note On ch=1 par1=78 par2=40
Channel Event. t= 23 (53423) Note Off ch=1 par1=79 par2=64
Channel Event. t= 138 (53561) Note Off ch=1 par1=78 par2=64
Channel Event. t= 1745 (55306) Program Change ch=1 par1=72 par2=109
Channel Event. t= 2267 (57573) Program Change ch=1 par1=84 par2=28
Channel Event. t= 219 (57792) Program Change ch=1 par1=64 par2=16
Channel Event. t= 2267 (60059) Program Change ch=1 par1=75 par2=43
Channel Event. t= 219 (60278) Program Change ch=1 par1=64 par2=2
Channel Event. t= 2260 (62538) Program Change ch=1 par1=98 par2=-127
Channel Event. t= 22 (62560) Note Off ch=1 par1=84 par2=64
Channel Event. t= 135 (62695) Note On ch=1 par1=91 par2=77
Channel Event. t= 18 (62713) Note Off ch=1 par1=91 par2=64
Channel Event. t= 20 (62733) Note On ch=1 par1=91 par2=76
Channel Event. t= 38 (62771) Note Off ch=1 par1=91 par2=64
Channel Event. t= 12 (62783) Note On ch=1 par1=84 par2=90
Channel Event. t= 152 (62935) Note Off ch=1 par1=84 par2=64
Channel Event. t= 177 (63112) Controller ch=1 par1=10 (Pan) par2=20
Channel Event. t= 146 (63258) Note On ch=1 par1=91 par2=82
Channel Event. t= 28 (63286) Note Off ch=1 par1=91 par2=64
Channel Event. t= 14 (63300) Note On ch=1 par1=91 par2=68
Channel Event. t= 44 (63344) Note Off ch=1 par1=91 par2=64
Channel Event. t= 10 (63354) Note On ch=1 par1=84 par2=97
Channel Event. t= 148 (63502) Note Off ch=1 par1=84 par2=64
Channel Event. t= 1146 (64648) Controller ch=1 par1=10 (Pan) par2=120
Channel Event. t= 155 (64803) Note On ch=1 par1=91 par2=80
Channel Event. t= 25 (64828) Note Off ch=1 par1=91 par2=64
Channel Event. t= 17 (64845) Note On ch=1 par1=91 par2=82
Channel Event. t= 42 (64887) Note Off ch=1 par1=91 par2=64
Channel Event. t= 9 (64896) Note On ch=1 par1=84 par2=103
Channel Event. t= 128 (65024) Note Off ch=1 par1=84 par2=64
Channel Event. t= 0 (65024) 
Meta Event. Type: 0x2f (47dec), End of Track (0 bytes): 
track #27
track size: 849
Channel Event. t= 0 (0) 
Meta Event. Type: 0x21 (33dec), MIDI Port (1 bytes): 0
Channel Event. t= 0 (0) 
Meta Event. Type: 0x3 (3dec), Sequence/Track Name (20 bytes): Bassoon             
Channel Event. t= 0 (0) Program Change ch=4 par1=86 par2=-121
Channel Event. t= 12560 (12560) Controller ch=4 par1=10 (Pan) par2=90
Channel Event. t= 30832 (43392) Controller ch=4 par1=7 (Pan) par2=80
Channel Event. t= 51 (43443) Note On ch=4 par1=35 par2=73
Channel Event. t= 58 (43501) Note Off ch=4 par1=35 par2=64
Channel Event. t= 10 (43511) Note On ch=4 par1=42 par2=95
Channel Event. t= 86 (43597) Note Off ch=4 par1=42 par2=64
Channel Event. t= 40 (43637) Note On ch=4 par1=42 par2=80
Channel Event. t= 35 (43672) Note Off ch=4 par1=42 par2=64
Channel Event. t= 25 (43697) Note On ch=4 par1=35 par2=87
Channel Event. t= 321 (44018) Note On ch=4 par1=36 par2=80
Channel Event. t= 10 (44028) Note Off ch=4 par1=35 par2=64
Channel Event. t= 37 (44065) Note Off ch=4 par1=36 par2=64
Channel Event. t= 16 (44081) Note On ch=4 par1=38 par2=90
Channel Event. t= 119 (44200) Note Off ch=4 par1=38 par2=64
Channel Event. t= 12 (44212) Note On ch=4 par1=40 par2=79
Channel Event. t= 39 (44251) Note Off ch=4 par1=40 par2=64
Channel Event. t= 27 (44278) Note On ch=4 par1=42 par2=97
Channel Event. t= 113 (44391) Note Off ch=4 par1=42 par2=64
Channel Event. t= 21 (44412) Note On ch=4 par1=38 par2=74
Channel Event. t= 61 (44473) Note Off ch=4 par1=38 par2=64
Channel Event. t= 4 (44477) Note On ch=4 par1=45 par2=88
Channel Event. t= 89 (44566) Note Off ch=4 par1=45 par2=64
Channel Event. t= 17 (44583) Note On ch=4 par1=45 par2=79
Channel Event. t= 54 (44637) Note Off ch=4 par1=45 par2=64
Channel Event. t= 33 (44670) Note On ch=4 par1=45 par2=72
Channel Event. t= 73 (44743) Note Off ch=4 par1=45 par2=64
Channel Event. t= 21 (44764) Note On ch=4 par1=45 par2=71
Channel Event. t= 71 (44835) Note Off ch=4 par1=45 par2=64
Channel Event. t= 19 (44854) Note On ch=4 par1=45 par2=83
Channel Event. t= 62 (44916) Note On ch=4 par1=47 par2=80
Channel Event. t= 4 (44920) Note Off ch=4 par1=45 par2=64
Channel Event. t= 49 (44969) Note On ch=4 par1=48 par2=84
Channel Event. t= 10 (44979) Note Off ch=4 par1=47 par2=64
Channel Event. t= 29 (45008) Note Off ch=4 par1=48 par2=64
Channel Event. t= 30 (45038) Note On ch=4 par1=49 par2=105
Channel Event. t= 268 (45306) Note On ch=4 par1=50 par2=77
Channel Event. t= 2 (45308) Note Off ch=4 par1=49 par2=64
Channel Event. t= 55 (45363) Note On ch=4 par1=51 par2=87
Channel Event. t= 2 (45365) Note Off ch=4 par1=50 par2=64
Channel Event. t= 66 (45431) Note Off ch=4 par1=51 par2=64
Channel Event. t= 3 (45434) Note On ch=4 par1=46 par2=98
Channel Event. t= 138 (45572) Note Off ch=4 par1=46 par2=64
Channel Event. t= 56 (45628) Note On ch=4 par1=54 par2=93
Channel Event. t= 37 (45665) Note Off ch=4 par1=54 par2=64
Channel Event. t= 21 (45686) Note On ch=4 par1=54 par2=90
Channel Event. t= 33 (45719) Note Off ch=4 par1=54 par2=64
Channel Event. t= 21 (45740) Note On ch=4 par1=54 par2=90
Channel Event. t= 41 (45781) Note Off ch=4 par1=54 par2=64
Channel Event. t= 28 (45809) Note On ch=4 par1=54 par2=104
Channel Event. t= 581 (46390) Note Off ch=4 par1=54 par2=64
Channel Event. t= 119 (46509) Note On ch=4 par1=54 par2=79
Channel Event. t= 69 (46578) Note Off ch=4 par1=54 par2=64
Channel Event. t= 2 (46580) Note On ch=4 par1=55 par2=85
Channel Event. t= 86 (46666) Note Off ch=4 par1=55 par2=64
Channel Event. t= 38 (46704) Note On ch=4 par1=41 par2=66
Channel Event. t= 33 (46737) Note Off ch=4 par1=41 par2=64
Channel Event. t= 144 (46881) Note On ch=4 par1=54 par2=93
Channel Event. t= 71 (46952) Note On ch=4 par1=55 par2=89
Channel Event. t= 6 (46958) Note Off ch=4 par1=54 par2=64
Channel Event. t= 88 (47046) Note Off ch=4 par1=55 par2=64
Channel Event. t= 231 (47277) Note On ch=4 par1=54 par2=83
Channel Event. t= 70 (47347) Note On ch=4 par1=55 par2=88
Channel Event. t= 6 (47353) Note Off ch=4 par1=54 par2=64
Channel Event. t= 103 (47456) Note Off ch=4 par1=55 par2=64
Channel Event. t= 211 (47667) Note On ch=4 par1=54 par2=71
Channel Event. t= 71 (47738) Note Off ch=4 par1=54 par2=64
Channel Event. t= 3 (47741) Note On ch=4 par1=55 par2=85
Channel Event. t= 96 (47837) Note Off ch=4 par1=55 par2=64
Channel Event. t= 280 (48117) Note On ch=4 par1=55 par2=87
Channel Event. t= 288 (48405) Note On ch=4 par1=54 par2=89
Channel Event. t= 17 (48422) Note Off ch=4 par1=55 par2=64
Channel Event. t= 78 (48500) Note On ch=4 par1=52 par2=90
Channel Event. t= 10 (48510) Note Off ch=4 par1=54 par2=64
Channel Event. t= 81 (48591) Note Off ch=4 par1=52 par2=64
Channel Event. t= 5 (48596) Note On ch=4 par1=50 par2=84
Channel Event. t= 93 (48689) Note On ch=4 par1=49 par2=98
Channel Event. t= 4 (48693) Note Off ch=4 par1=50 par2=64
Channel Event. t= 100 (48793) Note Off ch=4 par1=49 par2=64
Channel Event. t= 27 (48820) Note On ch=4 par1=47 par2=73
Channel Event. t= 61 (48881) Note On ch=4 par1=54 par2=85
Channel Event. t= 5 (48886) Note Off ch=4 par1=47 par2=64
Channel Event. t= 77 (48963) Note Off ch=4 par1=54 par2=64
Channel Event. t= 41 (49004) Note On ch=4 par1=54 par2=93
Channel Event. t= 57 (49061) Note Off ch=4 par1=54 par2=64
Channel Event. t= 14 (49075) Note On ch=4 par1=47 par2=97
Channel Event. t= 289 (49364) Note On ch=4 par1=49 par2=91
Channel Event. t= 13 (49377) Note Off ch=4 par1=47 par2=64
Channel Event. t= 82 (49459) Note On ch=4 par1=50 par2=90
Channel Event. t= 2 (49461) Note Off ch=4 par1=49 par2=64
Channel Event. t= 91 (49552) Note On ch=4 par1=52 par2=91
Channel Event. t= 8 (49560) Note Off ch=4 par1=50 par2=64
Channel Event. t= 82 (49642) Note On ch=4 par1=54 par2=96
Channel Event. t= 4 (49646) Note Off ch=4 par1=52 par2=64
Channel Event. t= 107 (49753) Note Off ch=4 par1=54 par2=64
Channel Event. t= 17 (49770) Note On ch=4 par1=50 par2=84
Channel Event. t= 54 (49824) Note Off ch=4 par1=50 par2=64
Channel Event. t= 13 (49837) Note On ch=4 par1=57 par2=96
Channel Event. t= 103 (49940) Note Off ch=4 par1=57 par2=64
Channel Event. t= 21 (49961) Note On ch=4 par1=57 par2=99
Channel Event. t= 43 (50004) Note Off ch=4 par1=57 par2=64
Channel Event. t= 23 (50027) Note On ch=4 par1=57 par2=94
Channel Event. t= 95 (50122) Note Off ch=4 par1=57 par2=64
Channel Event. t= 20 (50142) Note On ch=4 par1=57 par2=87
Channel Event. t= 51 (50193) Note Off ch=4 par1=57 par2=64
Channel Event. t= 18 (50211) Note On ch=4 par1=57 par2=95
Channel Event. t= 59 (50270) Note On ch=4 par1=59 par2=85
Channel Event. t= 14 (50284) Note Off ch=4 par1=57 par2=64
Channel Event. t= 46 (50330) Note On ch=4 par1=60 par2=90
Channel Event. t= 2 (50332) Note Off ch=4 par1=59 par2=64
Channel Event. t= 62 (50394) Note Off ch=4 par1=60 par2=64
Channel Event. t= 9 (50403) Note On ch=4 par1=61 par2=103
Channel Event. t= 283 (50686) Note On ch=4 par1=62 par2=94
Channel Event. t= 8 (50694) Note Off ch=4 par1=61 par2=64
Channel Event. t= 48 (50742) Note On ch=4 par1=63 par2=89
Channel Event. t= 10 (50752) Note Off ch=4 par1=62 par2=64
Channel Event. t= 61 (50813) Note Off ch=4 par1=63 par2=64
Channel Event. t= 2 (50815) Note On ch=4 par1=58 par2=103
Channel Event. t= 116 (50931) Note Off ch=4 par1=58 par2=64
Channel Event. t= 82 (51013) Note On ch=4 par1=54 par2=102
Channel Event. t= 41 (51054) Note Off ch=4 par1=54 par2=64
Channel Event. t= 19 (51073) Note On ch=4 par1=54 par2=94
Channel Event. t= 39 (51112) Note Off ch=4 par1=54 par2=64
Channel Event. t= 21 (51133) Note On ch=4 par1=54 par2=85
Channel Event. t= 47 (51180) Note Off ch=4 par1=54 par2=64
Channel Event. t= 24 (51204) Note On ch=4 par1=54 par2=105
Channel Event. t= 576 (51780) Note Off ch=4 par1=54 par2=64
Channel Event. t= 104 (51884) Note On ch=4 par1=54 par2=70
Channel Event. t= 77 (51961) Note On ch=4 par1=55 par2=97
Channel Event. t= 1 (51962) Note Off ch=4 par1=54 par2=64
Channel Event. t= 82 (52044) Note Off ch=4 par1=55 par2=64
Channel Event. t= 221 (52265) Note On ch=4 par1=54 par2=77
Channel Event. t= 70 (52335) Note On ch=4 par1=55 par2=82
Channel Event. t= 1 (52336) Note Off ch=4 par1=54 par2=64
Channel Event. t= 91 (52427) Note Off ch=4 par1=55 par2=64
Channel Event. t= 218 (52645) Note On ch=4 par1=54 par2=84
Channel Event. t= 72 (52717) Note Off ch=4 par1=54 par2=64
Channel Event. t= 1 (52718) Note On ch=4 par1=55 par2=82
Channel Event. t= 102 (52820) Note Off ch=4 par1=55 par2=64
Channel Event. t= 219 (53039) Note On ch=4 par1=54 par2=94
Channel Event. t= 69 (53108) Note On ch=4 par1=55 par2=81
Channel Event. t= 2 (53110) Note Off ch=4 par1=54 par2=64
Channel Event. t= 98 (53208) Note Off ch=4 par1=55 par2=64
Channel Event. t= 203 (53411) Note On ch=4 par1=54 par2=94
Channel Event. t= 69 (53480) Note On ch=4 par1=55 par2=87
Channel Event. t= 3 (53483) Note Off ch=4 par1=54 par2=64
Channel Event. t= 111 (53594) Note Off ch=4 par1=55 par2=64
Channel Event. t= 206 (53800) Note On ch=4 par1=54 par2=92
Channel Event. t= 68 (53868) Note On ch=4 par1=55 par2=81
Channel Event. t= 3 (53871) Note Off ch=4 par1=54 par2=64
Channel Event. t= 115 (53986) Note Off ch=4 par1=55 par2=64
Channel Event. t= 195 (54181) Note On ch=4 par1=54 par2=88
Channel Event. t= 67 (54248) Note Off ch=4 par1=54 par2=64
Channel Event. t= 2 (54250) Note On ch=4 par1=55 par2=88
Channel Event. t= 93 (54343) Note Off ch=4 par1=55 par2=64
Channel Event. t= 227 (54570) Note On ch=4 par1=54 par2=95
Channel Event. t= 69 (54639) Note Off ch=4 par1=54 par2=64
Channel Event. t= 2 (54641) Note On ch=4 par1=55 par2=87
Channel Event. t= 102 (54743) Note Off ch=4 par1=55 par2=64
Channel Event. t= 8735 (63478) Note On ch=4 par1=55 par2=99
Channel Event. t= 10 (63488) Controller ch=4 par1=7 (Main Volume) par2=90
Channel Event. t= 264 (63752) Controller ch=4 par1=7 (Main Volume) par2=91
Channel Event. t= 16 (63768) Note On ch=4 par1=54 par2=93
Channel Event. t= 17 (63785) Note Off ch=4 par1=55 par2=64
Channel Event. t= 80 (63865) Note On ch=4 par1=52 par2=96
Channel Event. t= 13 (63878) Note Off ch=4 par1=54 par2=64
Channel Event. t= 83 (63961) Note On ch=4 par1=50 par2=86
Channel Event. t= 1 (63962) Note Off ch=4 par1=52 par2=64
Channel Event. t= 54 (64016) Controller ch=4 par1=7 (Main Volume) par2=92
Channel Event. t= 35 (64051) Note On ch=4 par1=49 par2=93
Channel Event. t= 17 (64068) Note Off ch=4 par1=50 par2=64
Channel Event. t= 72 (64140) Note On ch=4 par1=47 par2=80
Channel Event. t= 12 (64152) Note Off ch=4 par1=49 par2=64
Channel Event. t= 79 (64231) Note On ch=4 par1=45 par2=80
Channel Event. t= 7 (64238) Note Off ch=4 par1=47 par2=64
Channel Event. t= 18 (64256) Controller ch=4 par1=7 (Main Volume) par2=93
Channel Event. t= 67 (64323) Note On ch=4 par1=43 par2=81
Channel Event. t= 9 (64332) Note Off ch=4 par1=45 par2=64
Channel Event. t= 91 (64423) Note On ch=4 par1=41 par2=78
Channel Event. t= 8 (64431) Note Off ch=4 par1=43 par2=64
Channel Event. t= 89 (64520) Controller ch=4 par1=7 (Main Volume) par2=94
Channel Event. t= 0 (64520) Note On ch=4 par1=40 par2=78
Channel Event. t= 2 (64522) Note Off ch=4 par1=41 par2=64
Channel Event. t= 99 (64621) Note On ch=4 par1=38 par2=87
Channel Event. t= 7 (64628) Note Off ch=4 par1=40 par2=64
Channel Event. t= 95 (64723) Note On ch=4 par1=36 par2=90
Channel Event. t= 1 (64724) Note Off ch=4 par1=38 par2=64
Channel Event. t= 60 (64784) Controller ch=4 par1=7 (Main Volume) par2=95
Channel Event. t= 41 (64825) Note On ch=4 par1=38 par2=86
Channel Event. t= 22 (64847) Note Off ch=4 par1=36 par2=64
Channel Event. t= 76 (64923) Note On ch=4 par1=40 par2=84
Channel Event. t= 13 (64936) Note Off ch=4 par1=38 par2=64
Channel Event. t= 88 (65024) Controller ch=4 par1=7 (Main Volume) par2=96
Channel Event. t= 1 (65025) Note On ch=4 par1=41 par2=93
Channel Event. t= 2 (65027) Note Off ch=4 par1=40 par2=64
Channel Event. t= 159 (65186) Note Off ch=4 par1=41 par2=64
Channel Event. t= 102 (65288) Controller ch=4 par1=7 (Main Volume) par2=97
Channel Event. t= 104 (65392) Note On ch=4 par1=49 par2=97
Channel Event. t= 159 (65551) Note Off ch=4 par1=49 par2=64
Channel Event. t= 1 (65552) Controller ch=4 par1=7 (Main Volume) par2=98
Channel Event. t= 215 (65767) Note On ch=4 par1=47 par2=97
Channel Event. t= 25 (65792) Controller ch=4 par1=7 (Main Volume) par2=99
Channel Event. t= 264 (66056) Controller ch=4 par1=7 (Main Volume) par2=100
Channel Event. t= 264 (66320) Controller ch=4 par1=7 (Main Volume) par2=101
Channel Event. t= 239 (66559) Controller ch=4 par1=7 (Main Volume) par2=102
Channel Event. t= 1 (66560) Note Off ch=4 par1=47 par2=64
Channel Event. t= 0 (66560) 
Meta Event. Type: 0x2f (47dec), End of Track (0 bytes): 
track #28
track size: 164
Channel Event. t= 0 (0) 
Meta Event. Type: 0x21 (33dec), MIDI Port (1 bytes): 0
Channel Event. t= 0 (0) 
Meta Event. Type: 0x3 (3dec), Sequence/Track Name (20 bytes): Rhythm              
Channel Event. t= 0 (0) Program Change ch=9 par1=0 par2=-121
Channel Event. t= 12608 (12608) Controller ch=9 par1=7 (Main Volume) par2=70
Channel Event. t= 39350 (51958) Note On ch=9 par1=62 par2=111
Channel Event. t= 68 (52026) Note Off ch=9 par1=62 par2=64
Channel Event. t= 53 (52079) Note On ch=9 par1=62 par2=84
Channel Event. t= 31 (52110) Note Off ch=9 par1=62 par2=64
Channel Event. t= 38 (52148) Note On ch=9 par1=62 par2=109
Channel Event. t= 69 (52217) Note Off ch=9 par1=62 par2=64
Channel Event. t= 53 (52270) Note On ch=9 par1=62 par2=90
Channel Event. t= 32 (52302) Note Off ch=9 par1=62 par2=64
Channel Event. t= 42 (52344) Note On ch=9 par1=62 par2=111
Channel Event. t= 45 (52389) Note Off ch=9 par1=62 par2=64
Channel Event. t= 81 (52470) Note On ch=9 par1=62 par2=91
Channel Event. t= 31 (52501) Note Off ch=9 par1=62 par2=64
Channel Event. t= 40 (52541) Note On ch=9 par1=62 par2=108
Channel Event. t= 37 (52578) Note Off ch=9 par1=62 par2=64
Channel Event. t= 84 (52662) Note On ch=9 par1=62 par2=89
Channel Event. t= 29 (52691) Note Off ch=9 par1=62 par2=64
Channel Event. t= 39 (52730) Note On ch=9 par1=62 par2=110
Channel Event. t= 33 (52763) Note Off ch=9 par1=62 par2=64
Channel Event. t= 90 (52853) Note On ch=9 par1=62 par2=88
Channel Event. t= 33 (52886) Note Off ch=9 par1=62 par2=64
Channel Event. t= 35 (52921) Note On ch=9 par1=62 par2=108
Channel Event. t= 35 (52956) Note Off ch=9 par1=62 par2=64
Channel Event. t= 85 (53041) Note On ch=9 par1=62 par2=97
Channel Event. t= 32 (53073) Note Off ch=9 par1=62 par2=64
Channel Event. t= 39 (53112) Note On ch=9 par1=62 par2=109
Channel Event. t= 33 (53145) Note Off ch=9 par1=62 par2=64
Channel Event. t= 95 (53240) Note On ch=9 par1=62 par2=104
Channel Event. t= 31 (53271) Note Off ch=9 par1=62 par2=64
Channel Event. t= 36 (53307) Note On ch=9 par1=62 par2=115
Channel Event. t= 37 (53344) Note Off ch=9 par1=62 par2=64
Channel Event. t= 0 (53344) 
Meta Event. Type: 0x2f (47dec), End of Track (0 bytes): 
track #29
track size: 33
Channel Event. t= 0 (0) 
Meta Event. Type: 0x21 (33dec), MIDI Port (1 bytes): 0
Channel Event. t= 0 (0) 
Meta Event. Type: 0x3 (3dec), Sequence/Track Name (20 bytes):                     
Channel Event. t= 0 (0) 
Meta Event. Type: 0x2f (47dec), End of Track (0 bytes): 
track #30
track size: 33
Channel Event. t= 0 (0) 
Meta Event. Type: 0x21 (33dec), MIDI Port (1 bytes): 0
Channel Event. t= 0 (0) 
Meta Event. Type: 0x3 (3dec), Sequence/Track Name (20 bytes):     PART FOUR       
Channel Event. t= 0 (0) 
Meta Event. Type: 0x2f (47dec), End of Track (0 bytes): 
track #31
track size: 33
Channel Event. t= 0 (0) 
Meta Event. Type: 0x21 (33dec), MIDI Port (1 bytes): 0
Channel Event. t= 0 (0) 
Meta Event. Type: 0x3 (3dec), Sequence/Track Name (20 bytes): !!! THE WOLF !!!    
Channel Event. t= 0 (0) 
Meta Event. Type: 0x2f (47dec), End of Track (0 bytes): 
track #32
track size: 33
Channel Event. t= 0 (0) 
Meta Event. Type: 0x21 (33dec), MIDI Port (1 bytes): 0
Channel Event. t= 0 (0) 
Meta Event. Type: 0x3 (3dec), Sequence/Track Name (20 bytes):                     
Channel Event. t= 0 (0) 
Meta Event. Type: 0x2f (47dec), End of Track (0 bytes): 
track #33
track size: 6447
Channel Event. t= 0 (0) 
Meta Event. Type: 0x21 (33dec), MIDI Port (1 bytes): 0
Channel Event. t= 0 (0) 
Meta Event. Type: 0x3 (3dec), Sequence/Track Name (20 bytes): Strings             
Channel Event. t= 0 (0) Program Change ch=5 par1=48 par2=-117
Channel Event. t= 2272 (2272) Controller ch=5 par1=10 (Pan) par2=45
Channel Event. t= 1044 (3316) Controller ch=5 par1=7 (Pan) par2=60
Channel Event. t= 12 (3328) Note On ch=5 par1=38 par2=84
Channel Event. t= 0 (3328) Note On ch=5 par1=43 par2=86
Channel Event. t= 1 (3329) Note On ch=5 par1=31 par2=74
Channel Event. t= 1 (3330) Note On ch=5 par1=35 par2=76
Channel Event. t= 2255 (5585) Note Off ch=5 par1=38 par2=64
Channel Event. t= 15 (5600) Note Off ch=5 par1=31 par2=64
Channel Event. t= 9 (5609) Note Off ch=5 par1=43 par2=64
Channel Event. t= 11 (5620) Controller ch=5 par1=7 (Main Volume) par2=75
Channel Event. t= 4 (5624) Note Off ch=5 par1=35 par2=64
Channel Event. t= 2 (5626) Note On ch=5 par1=31 par2=64
Channel Event. t= 1 (5627) Note On ch=5 par1=43 par2=78
Channel Event. t= 2 (5629) Note On ch=5 par1=55 par2=62
Channel Event. t= 14 (5643) Note On ch=5 par1=59 par2=62
Channel Event. t= 38 (5681) Note On ch=5 par1=50 par2=89
Channel Event. t= 43 (5724) Note On ch=5 par1=58 par2=62
Channel Event. t= 3 (5727) Note Off ch=5 par1=59 par2=64
Channel Event. t= 6 (5733) Note On ch=5 par1=54 par2=64
Channel Event. t= 7 (5740) Note Off ch=5 par1=55 par2=64
Channel Event. t= 13 (5753) Note On ch=5 par1=51 par2=78
Channel Event. t= 19 (5772) Note Off ch=5 par1=50 par2=64
Channel Event. t= 48 (5820) Note On ch=5 par1=59 par2=68
Channel Event. t= 3 (5823) Note On ch=5 par1=55 par2=66
Channel Event. t= 6 (5829) Note Off ch=5 par1=54 par2=64
Channel Event. t= 3 (5832) Note Off ch=5 par1=58 par2=64
Channel Event. t= 14 (5846) Note On ch=5 par1=50 par2=75
Channel Event. t= 7 (5853) Note Off ch=5 par1=51 par2=64
Channel Event. t= 61 (5914) Note On ch=5 par1=54 par2=65
Channel Event. t= 1 (5915) Note On ch=5 par1=58 par2=72
Channel Event. t= 8 (5923) Note Off ch=5 par1=59 par2=64
Channel Event. t= 7 (5930) Note On ch=5 par1=51 par2=84
Channel Event. t= 8 (5938) Note Off ch=5 par1=55 par2=64
Channel Event. t= 11 (5949) Note Off ch=5 par1=50 par2=64
Channel Event. t= 64 (6013) Note On ch=5 par1=55 par2=70
Channel Event. t= 1 (6014) Note On ch=5 par1=59 par2=71
Channel Event. t= 14 (6028) Note Off ch=5 par1=54 par2=64
Channel Event. t= 0 (6028) Note Off ch=5 par1=58 par2=64
Channel Event. t= 0 (6028) Note On ch=5 par1=50 par2=83
Channel Event. t= 11 (6039) Note Off ch=5 par1=51 par2=64
Channel Event. t= 87 (6126) Note Off ch=5 par1=59 par2=64
Channel Event. t= 1 (6127) Note Off ch=5 par1=55 par2=64
Channel Event. t= 36 (6163) Note Off ch=5 par1=50 par2=64
Channel Event. t= 33 (6196) Note On ch=5 par1=50 par2=80
Channel Event. t= 3 (6199) Note On ch=5 par1=59 par2=69
Channel Event. t= 2 (6201) Note On ch=5 par1=55 par2=61
Channel Event. t= 80 (6281) Note Off ch=5 par1=59 par2=64
Channel Event. t= 11 (6292) Note Off ch=5 par1=55 par2=64
Channel Event. t= 51 (6343) Note Off ch=5 par1=50 par2=64
Channel Event. t= 43 (6386) Note On ch=5 par1=55 par2=86
Channel Event. t= 11 (6397) Note On ch=5 par1=62 par2=72
Channel Event. t= 0 (6397) Note On ch=5 par1=59 par2=67
Channel Event. t= 39 (6436) Note Off ch=5 par1=43 par2=64
Channel Event. t= 6 (6442) Note Off ch=5 par1=31 par2=64
Channel Event. t= 136 (6578) Note On ch=5 par1=51 par2=83
Channel Event. t= 5 (6583) Note On ch=5 par1=57 par2=58
Channel Event. t= 0 (6583) Note On ch=5 par1=61 par2=80
Channel Event. t= 14 (6597) Note Off ch=5 par1=62 par2=64
Channel Event. t= 3 (6600) Note Off ch=5 par1=59 par2=64
Channel Event. t= 5 (6605) Note Off ch=5 par1=55 par2=64
Channel Event. t= 165 (6770) Note On ch=5 par1=55 par2=77
Channel Event. t= 9 (6779) Note On ch=5 par1=59 par2=68
Channel Event. t= 0 (6779) Note On ch=5 par1=62 par2=63
Channel Event. t= 3 (6782) Note Off ch=5 par1=51 par2=64
Channel Event. t= 8 (6790) Note Off ch=5 par1=57 par2=64
Channel Event. t= 7 (6797) Note Off ch=5 par1=61 par2=64
Channel Event. t= 135 (6932) Note Off ch=5 par1=59 par2=64
Channel Event. t= 17 (6949) Note Off ch=5 par1=62 par2=64
Channel Event. t= 11 (6960) Note On ch=5 par1=50 par2=89
Channel Event. t= 10 (6970) Note On ch=5 par1=59 par2=69
Channel Event. t= 1 (6971) Note Off ch=5 par1=55 par2=64
Channel Event. t= 5 (6976) Note On ch=5 par1=55 par2=67
Channel Event. t= 126 (7102) Note Off ch=5 par1=59 par2=64
Channel Event. t= 2 (7104) Note Off ch=5 par1=55 par2=64
Channel Event. t= 30 (7134) Note Off ch=5 par1=50 par2=64
Channel Event. t= 28 (7162) Note On ch=5 par1=60 par2=78
Channel Event. t= 2 (7164) Note On ch=5 par1=53 par2=68
Channel Event. t= 5 (7169) Note On ch=5 par1=48 par2=90
Channel Event. t= 763 (7932) Note On ch=5 par1=41 par2=50
Channel Event. t= 0 (7932) Note On ch=5 par1=44 par2=58
Channel Event. t= 8 (7940) Note On ch=5 par1=36 par2=49
Channel Event. t= 30 (7970) Note Off ch=5 par1=48 par2=64
Channel Event. t= 678 (8648) Note Off ch=5 par1=53 par2=64
Channel Event. t= 22 (8670) Note Off ch=5 par1=36 par2=64
Channel Event. t= 1 (8671) Note Off ch=5 par1=60 par2=64
Channel Event. t= 14 (8685) Note Off ch=5 par1=41 par2=64
Channel Event. t= 5 (8690) Note Off ch=5 par1=44 par2=64
Channel Event. t= 9 (8699) Note On ch=5 par1=60 par2=72
Channel Event. t= 1 (8700) Note On ch=5 par1=65 par2=96
Channel Event. t= 3 (8703) Note On ch=5 par1=56 par2=100
Channel Event. t= 5 (8708) Note On ch=5 par1=36 par2=59
Channel Event. t= 3 (8711) Note On ch=5 par1=48 par2=67
Channel Event. t= 73 (8784) Note On ch=5 par1=61 par2=75
Channel Event. t= 8 (8792) Note Off ch=5 par1=60 par2=64
Channel Event. t= 0 (8792) Note On ch=5 par1=64 par2=86
Channel Event. t= 9 (8801) Note On ch=5 par1=57 par2=78
Channel Event. t= 4 (8805) Note Off ch=5 par1=56 par2=64
Channel Event. t= 5 (8810) Note Off ch=5 par1=65 par2=64
Channel Event. t= 74 (8884) Note On ch=5 par1=60 par2=74
Channel Event. t= 9 (8893) Note On ch=5 par1=65 par2=81
Channel Event. t= 3 (8896) Note Off ch=5 par1=61 par2=64
Channel Event. t= 6 (8902) Note On ch=5 par1=56 par2=85
Channel Event. t= 9 (8911) Note Off ch=5 par1=64 par2=64
Channel Event. t= 3 (8914) Note Off ch=5 par1=57 par2=64
Channel Event. t= 57 (8971) Note On ch=5 par1=61 par2=72
Channel Event. t= 17 (8988) Note Off ch=5 par1=60 par2=64
Channel Event. t= 0 (8988) Note On ch=5 par1=64 par2=83
Channel Event. t= 1 (8989) Note On ch=5 par1=57 par2=74
Channel Event. t= 3 (8992) Note Off ch=5 par1=56 par2=64
Channel Event. t= 15 (9007) Note Off ch=5 par1=65 par2=64
Channel Event. t= 68 (9075) Note On ch=5 par1=60 par2=77
Channel Event. t= 12 (9087) Note On ch=5 par1=65 par2=82
Channel Event. t= 2 (9089) Note On ch=5 par1=56 par2=87
Channel Event. t= 6 (9095) Note Off ch=5 par1=61 par2=64
Channel Event. t= 10 (9105) Note Off ch=5 par1=57 par2=64
Channel Event. t= 2 (9107) Note Off ch=5 par1=64 par2=64
Channel Event. t= 72 (9179) Note Off ch=5 par1=65 par2=64
Channel Event. t= 14 (9193) Note Off ch=5 par1=60 par2=64
Channel Event. t= 16 (9209) Note Off ch=5 par1=56 par2=64
Channel Event. t= 61 (9270) Note On ch=5 par1=60 par2=79
Channel Event. t= 1 (9271) Note On ch=5 par1=56 par2=95
Channel Event. t= 7 (9278) Note On ch=5 par1=65 par2=96
Channel Event. t= 249 (9527) Note Off ch=5 par1=56 par2=64
Channel Event. t= 30 (9557) Note On ch=5 par1=57 par2=92
Channel Event. t= 2 (9559) Note On ch=5 par1=64 par2=86
Channel Event. t= 4 (9563) Note Off ch=5 par1=60 par2=64
Channel Event. t= 5 (9568) Note Off ch=5 par1=65 par2=64
Channel Event. t= 11 (9579) Note On ch=5 par1=60 par2=91
Channel Event. t= 7 (9586) Note Off ch=5 par1=48 par2=64
Channel Event. t= 11 (9597) Note Off ch=5 par1=36 par2=64
Channel Event. t= 16 (9613) Note Off ch=5 par1=60 par2=64
Channel Event. t= 36 (9649) Note On ch=5 par1=65 par2=83
Channel Event. t= 9 (9658) Note On ch=5 par1=56 par2=86
Channel Event. t= 5 (9663) Note Off ch=5 par1=64 par2=64
Channel Event. t= 1 (9664) Note On ch=5 par1=60 par2=41
Channel Event. t= 15 (9679) Note Off ch=5 par1=57 par2=64
Channel Event. t= 9 (9688) Note Off ch=5 par1=60 par2=64
Channel Event. t= 2 (9690) Note On ch=5 par1=61 par2=78
Channel Event. t= 59 (9749) Note On ch=5 par1=64 par2=85
Channel Event. t= 10 (9759) Note On ch=5 par1=57 par2=90
Channel Event. t= 5 (9764) Note Off ch=5 par1=65 par2=64
Channel Event. t= 4 (9768) Note Off ch=5 par1=56 par2=64
Channel Event. t= 2 (9770) Note On ch=5 par1=60 par2=56
Channel Event. t= 6 (9776) Note Off ch=5 par1=61 par2=64
Channel Event. t= 69 (9845) Note On ch=5 par1=65 par2=80
Channel Event. t= 8 (9853) Note On ch=5 par1=56 par2=88
Channel Event. t= 7 (9860) Note Off ch=5 par1=64 par2=64
Channel Event. t= 13 (9873) Note Off ch=5 par1=57 par2=64
Channel Event. t= 1 (9874) Note On ch=5 par1=61 par2=85
Channel Event. t= 1 (9875) Note Off ch=5 par1=60 par2=64
Channel Event. t= 104 (9979) Note Off ch=5 par1=61 par2=64
Channel Event. t= 11 (9990) Note Off ch=5 par1=65 par2=64
Channel Event. t= 9 (9999) Note Off ch=5 par1=56 par2=64
Channel Event. t= 33 (10032) Note On ch=5 par1=56 par2=82
Channel Event. t= 8 (10040) Note On ch=5 par1=65 par2=89
Channel Event. t= 3 (10043) Note On ch=5 par1=61 par2=80
Channel Event. t= 279 (10322) Note On ch=5 par1=54 par2=97
Channel Event. t= 3 (10325) Note Off ch=5 par1=61 par2=64
Channel Event. t= 3 (10328) Note On ch=5 par1=60 par2=77
Channel Event. t= 2 (10330) Note Off ch=5 par1=56 par2=64
Channel Event. t= 5 (10335) Note On ch=5 par1=64 par2=88
Channel Event. t= 4 (10339) Note Off ch=5 par1=65 par2=64
Channel Event. t= 75 (10414) Note Off ch=5 par1=60 par2=64
Channel Event. t= 4 (10418) Note On ch=5 par1=61 par2=71
Channel Event. t= 3 (10421) Note On ch=5 par1=55 par2=87
Channel Event. t= 0 (10421) Note On ch=5 par1=65 par2=81
Channel Event. t= 6 (10427) Note Off ch=5 par1=54 par2=64
Channel Event. t= 2 (10429) Note Off ch=5 par1=64 par2=64
Channel Event. t= 84 (10513) Note On ch=5 par1=60 par2=72
Channel Event. t= 4 (10517) Note On ch=5 par1=64 par2=81
Channel Event. t= 4 (10521) Note Off ch=5 par1=61 par2=64
Channel Event. t= 1 (10522) Note On ch=5 par1=54 par2=91
Channel Event. t= 14 (10536) Note Off ch=5 par1=55 par2=64
Channel Event. t= 4 (10540) Note Off ch=5 par1=65 par2=64
Channel Event. t= 62 (10602) Note On ch=5 par1=61 par2=78
Channel Event. t= 10 (10612) Note Off ch=5 par1=60 par2=64
Channel Event. t= 6 (10618) Note On ch=5 par1=65 par2=88
Channel Event. t= 3 (10621) Note On ch=5 par1=55 par2=93
Channel Event. t= 12 (10633) Note Off ch=5 par1=54 par2=64
Channel Event. t= 1 (10634) Note Off ch=5 par1=64 par2=64
Channel Event. t= 128 (10762) Note Off ch=5 par1=61 par2=64
Channel Event. t= 9 (10771) Note Off ch=5 par1=65 par2=64
Channel Event. t= 14 (10785) Note Off ch=5 par1=55 par2=64
Channel Event. t= 19 (10804) Note On ch=5 par1=61 par2=75
Channel Event. t= 0 (10804) Note On ch=5 par1=65 par2=96
Channel Event. t= 6 (10810) Note On ch=5 par1=55 par2=91
Channel Event. t= 192 (11002) Note Off ch=5 par1=61 par2=64
Channel Event. t= 6 (11008) Note On ch=5 par1=53 par2=74
Channel Event. t= 1 (11009) Note On ch=5 par1=38 par2=74
Channel Event. t= 0 (11009) Note On ch=5 par1=45 par2=77
Channel Event. t= 2 (11011) Note On ch=5 par1=50 par2=69
Channel Event. t= 5 (11016) Note Off ch=5 par1=55 par2=64
Channel Event. t= 2 (11018) Note Off ch=5 par1=65 par2=64
Channel Event. t= 723 (11741) Note Off ch=5 par1=38 par2=64
Channel Event. t= 10 (11751) Note Off ch=5 par1=53 par2=64
Channel Event. t= 0 (11751) Note Off ch=5 par1=45 par2=64
Channel Event. t= 0 (11751) Note Off ch=5 par1=50 par2=64
Channel Event. t= 22 (11773) Note On ch=5 par1=53 par2=70
Channel Event. t= 0 (11773) Note On ch=5 par1=45 par2=69
Channel Event. t= 3 (11776) Note On ch=5 par1=50 par2=66
Channel Event. t= 3 (11779) Note On ch=5 par1=38 par2=69
Channel Event. t= 723 (12502) Note Off ch=5 par1=38 par2=64
Channel Event. t= 17 (12519) Note Off ch=5 par1=50 par2=64
Channel Event. t= 1 (12520) Controller ch=5 par1=7 (Main Volume) par2=87
Channel Event. t= 13 (12533) Note On ch=5 par1=65 par2=77
Channel Event. t= 1 (12534) Note On ch=5 par1=62 par2=75
Channel Event. t= 2 (12536) Note On ch=5 par1=50 par2=88
Channel Event. t= 2 (12538) Note On ch=5 par1=57 par2=90
Channel Event. t= 4 (12542) Note Off ch=5 par1=45 par2=64
Channel Event. t= 1 (12543) Note On ch=5 par1=38 par2=84
Channel Event. t= 21 (12564) Note Off ch=5 par1=53 par2=64
Channel Event. t= 61 (12625) Note On ch=5 par1=58 par2=62
Channel Event. t= 2 (12627) Note On ch=5 par1=64 par2=76
Channel Event. t= 1 (12628) Note On ch=5 par1=61 par2=65
Channel Event. t= 3 (12631) Note Off ch=5 par1=65 par2=64
Channel Event. t= 3 (12634) Note Off ch=5 par1=57 par2=64
Channel Event. t= 1 (12635) Note Off ch=5 par1=62 par2=64
Channel Event. t= 85 (12720) Note On ch=5 par1=62 par2=66
Channel Event. t= 2 (12722) Note Off ch=5 par1=61 par2=64
Channel Event. t= 0 (12722) Note On ch=5 par1=57 par2=69
Channel Event. t= 2 (12724) Note On ch=5 par1=65 par2=69
Channel Event. t= 9 (12733) Note Off ch=5 par1=58 par2=64
Channel Event. t= 12 (12745) Note Off ch=5 par1=64 par2=64
Channel Event. t= 73 (12818) Note On ch=5 par1=58 par2=66
Channel Event. t= 4 (12822) Note On ch=5 par1=61 par2=80
Channel Event. t= 5 (12827) Note On ch=5 par1=64 par2=84
Channel Event. t= 7 (12834) Note Off ch=5 par1=57 par2=64
Channel Event. t= 8 (12842) Note Off ch=5 par1=62 par2=64
Channel Event. t= 3 (12845) Note Off ch=5 par1=65 par2=64
Channel Event. t= 77 (12922) Note On ch=5 par1=62 par2=81
Channel Event. t= 2 (12924) Note On ch=5 par1=65 par2=77
Channel Event. t= 1 (12925) Note On ch=5 par1=57 par2=74
Channel Event. t= 2 (12927) Note Off ch=5 par1=58 par2=64
Channel Event. t= 2 (12929) Note Off ch=5 par1=61 par2=64
Channel Event. t= 23 (12952) Note Off ch=5 par1=64 par2=64
Channel Event. t= 130 (13082) Note Off ch=5 par1=62 par2=64
Channel Event. t= 2 (13084) Note Off ch=5 par1=65 par2=64
Channel Event. t= 1 (13085) Note Off ch=5 par1=57 par2=64
Channel Event. t= 28 (13113) Note On ch=5 par1=65 par2=76
Channel Event. t= 2 (13115) Note On ch=5 par1=57 par2=79
Channel Event. t= 2 (13117) Note On ch=5 par1=62 par2=80
Channel Event. t= 160 (13277) Note Off ch=5 par1=62 par2=64
Channel Event. t= 7 (13284) Note Off ch=5 par1=38 par2=64
Channel Event. t= 4 (13288) Note Off ch=5 par1=50 par2=64
Channel Event. t= 16 (13304) Note On ch=5 par1=62 par2=80
Channel Event. t= 1 (13305) Note Off ch=5 par1=65 par2=64
Channel Event. t= 0 (13305) Note On ch=5 par1=50 par2=73
Channel Event. t= 2 (13307) Note Off ch=5 par1=57 par2=64
Channel Event. t= 0 (13307) Note On ch=5 par1=53 par2=77
Channel Event. t= 4 (13311) Note On ch=5 par1=69 par2=84
Channel Event. t= 1 (13312) Note On ch=5 par1=38 par2=69
Channel Event. t= 1 (13313) Note On ch=5 par1=65 par2=86
Channel Event. t= 1 (13314) Note On ch=5 par1=45 par2=76
Channel Event. t= 160 (13474) Note Off ch=5 par1=62 par2=64
Channel Event. t= 17 (13491) Note On ch=5 par1=68 par2=77
Channel Event. t= 2 (13493) Note Off ch=5 par1=69 par2=64
Channel Event. t= 2 (13495) Note On ch=5 par1=64 par2=75
Channel Event. t= 6 (13501) Note On ch=5 par1=58 par2=81
Channel Event. t= 37 (13538) Note Off ch=5 par1=65 par2=64
Channel Event. t= 121 (13659) Note Off ch=5 par1=58 par2=64
Channel Event. t= 13 (13672) Note Off ch=5 par1=64 par2=64
Channel Event. t= 5 (13677) Note Off ch=5 par1=68 par2=64
Channel Event. t= 13 (13690) Note On ch=5 par1=62 par2=76
Channel Event. t= 2 (13692) Note On ch=5 par1=69 par2=91
Channel Event. t= 2 (13694) Note On ch=5 par1=64 par2=87
Channel Event. t= 142 (13836) Note Off ch=5 par1=62 par2=64
Channel Event. t= 49 (13885) Note On ch=5 par1=57 par2=80
Channel Event. t= 0 (13885) Note On ch=5 par1=65 par2=90
Channel Event. t= 3 (13888) Note Off ch=5 par1=69 par2=64
Channel Event. t= 0 (13888) Note On ch=5 par1=62 par2=87
Channel Event. t= 1 (13889) Note Off ch=5 par1=64 par2=64
Channel Event. t= 146 (14035) Note Off ch=5 par1=57 par2=64
Channel Event. t= 7 (14042) Note Off ch=5 par1=62 par2=64
Channel Event. t= 13 (14055) Note Off ch=5 par1=38 par2=64
Channel Event. t= 16 (14071) Note On ch=5 par1=55 par2=86
Channel Event. t= 6 (14077) Note On ch=5 par1=60 par2=87
Channel Event. t= 4 (14081) Note On ch=5 par1=52 par2=98
Channel Event. t= 2 (14083) Note On ch=5 par1=67 par2=77
Channel Event. t= 2 (14085) Note On ch=5 par1=38 par2=69
Channel Event. t= 2 (14087) Note On ch=5 par1=43 par2=84
Channel Event. t= 3 (14090) Note Off ch=5 par1=45 par2=64
Channel Event. t= 19 (14109) Note Off ch=5 par1=53 par2=64
Channel Event. t= 0 (14109) Note Off ch=5 par1=50 par2=64
Channel Event. t= 8 (14117) Note Off ch=5 par1=65 par2=64
Channel Event. t= 718 (14835) Note On ch=5 par1=36 par2=74
Channel Event. t= 7 (14842) Note Off ch=5 par1=38 par2=64
Channel Event. t= 0 (14842) Note On ch=5 par1=40 par2=81
Channel Event. t= 1 (14843) Note On ch=5 par1=48 par2=84
Channel Event. t= 19 (14862) Note Off ch=5 par1=43 par2=64
Channel Event. t= 637 (15499) Note Off ch=5 par1=67 par2=64
Channel Event. t= 15 (15514) Note Off ch=5 par1=60 par2=64
Channel Event. t= 35 (15549) Note Off ch=5 par1=55 par2=64
Channel Event. t= 49 (15598) Note Off ch=5 par1=36 par2=64
Channel Event. t= 0 (15598) Note Off ch=5 par1=52 par2=64
Channel Event. t= 1 (15599) Note Off ch=5 par1=40 par2=64
Channel Event. t= 7 (15606) Controller ch=5 par1=7 (Main Volume) par2=107
Channel Event. t= 0 (15606) Note On ch=5 par1=72 par2=85
Channel Event. t= 2 (15608) Note On ch=5 par1=64 par2=86
Channel Event. t= 4 (15612) Note On ch=5 par1=60 par2=103
Channel Event. t= 3 (15615) Note On ch=5 par1=52 par2=80
Channel Event. t= 7 (15622) Note On ch=5 par1=40 par2=75
Channel Event. t= 0 (15622) Note On ch=5 par1=36 par2=86
Channel Event. t= 79 (15701) Note On ch=5 par1=62 par2=74
Channel Event. t= 1 (15702) Note On ch=5 par1=59 par2=93
Channel Event. t= 1 (15703) Note On ch=5 par1=71 par2=83
Channel Event. t= 9 (15712) Note Off ch=5 par1=64 par2=64
Channel Event. t= 6 (15718) Note Off ch=5 par1=72 par2=64
Channel Event. t= 4 (15722) Note Off ch=5 par1=60 par2=64
Channel Event. t= 76 (15798) Note On ch=5 par1=60 par2=93
Channel Event. t= 3 (15801) Note On ch=5 par1=72 par2=83
Channel Event. t= 6 (15807) Note On ch=5 par1=64 par2=81
Channel Event. t= 6 (15813) Note Off ch=5 par1=59 par2=64
Channel Event. t= 2 (15815) Note Off ch=5 par1=71 par2=64
Channel Event. t= 2 (15817) Note Off ch=5 par1=62 par2=64
Channel Event. t= 75 (15892) Note On ch=5 par1=59 par2=93
Channel Event. t= 4 (15896) Note On ch=5 par1=62 par2=82
Channel Event. t= 1 (15897) Note On ch=5 par1=71 par2=79
Channel Event. t= 10 (15907) Note Off ch=5 par1=64 par2=64
Channel Event. t= 4 (15911) Note Off ch=5 par1=60 par2=64
Channel Event. t= 5 (15916) Note Off ch=5 par1=72 par2=64
Channel Event. t= 77 (15993) Note On ch=5 par1=72 par2=86
Channel Event. t= 1 (15994) Note On ch=5 par1=60 par2=93
Channel Event. t= 1 (15995) Note On ch=5 par1=64 par2=92
Channel Event. t= 15 (16010) Note Off ch=5 par1=59 par2=64
Channel Event. t= 1 (16011) Note Off ch=5 par1=62 par2=64
Channel Event. t= 5 (16016) Note Off ch=5 par1=71 par2=64
Channel Event. t= 82 (16098) Note Off ch=5 par1=60 par2=64
Channel Event. t= 35 (16133) Note Off ch=5 par1=64 par2=64
Channel Event. t= 2 (16135) Note Off ch=5 par1=72 par2=64
Channel Event. t= 44 (16179) Note On ch=5 par1=60 par2=104
Channel Event. t= 7 (16186) Note On ch=5 par1=72 par2=99
Channel Event. t= 5 (16191) Note On ch=5 par1=64 par2=95
Channel Event. t= 183 (16374) Note Off ch=5 par1=40 par2=64
Channel Event. t= 1 (16375) Note Off ch=5 par1=36 par2=64
Channel Event. t= 1 (16376) Note Off ch=5 par1=52 par2=64
Channel Event. t= 3 (16379) Note Off ch=5 par1=48 par2=64
Channel Event. t= 11 (16390) Note On ch=5 par1=52 par2=92
Channel Event. t= 0 (16390) Note On ch=5 par1=48 par2=73
Channel Event. t= 4 (16394) Note On ch=5 par1=40 par2=87
Channel Event. t= 2 (16396) Note On ch=5 par1=36 par2=96
Channel Event. t= 70 (16466) Note On ch=5 par1=59 par2=86
Channel Event. t= 4 (16470) Note On ch=5 par1=71 par2=97
Channel Event. t= 6 (16476) Note On ch=5 par1=62 par2=90
Channel Event. t= 4 (16480) Note Off ch=5 par1=72 par2=64
Channel Event. t= 0 (16480) Note Off ch=5 par1=60 par2=64
Channel Event. t= 3 (16483) Note Off ch=5 par1=64 par2=64
Channel Event. t= 78 (16561) Note On ch=5 par1=72 par2=89
Channel Event. t= 1 (16562) Note On ch=5 par1=60 par2=90
Channel Event. t= 6 (16568) Note On ch=5 par1=64 par2=91
Channel Event. t= 6 (16574) Note Off ch=5 par1=71 par2=64
Channel Event. t= 2 (16576) Note Off ch=5 par1=59 par2=64
Channel Event. t= 4 (16580) Note Off ch=5 par1=62 par2=64
Channel Event. t= 72 (16652) Note On ch=5 par1=59 par2=89
Channel Event. t= 4 (16656) Note On ch=5 par1=71 par2=92
Channel Event. t= 1 (16657) Note On ch=5 par1=62 par2=89
Channel Event. t= 13 (16670) Note Off ch=5 par1=60 par2=64
Channel Event. t= 0 (16670) Note Off ch=5 par1=64 par2=64
Channel Event. t= 3 (16673) Note Off ch=5 par1=72 par2=64
Channel Event. t= 79 (16752) Note On ch=5 par1=60 par2=96
Channel Event. t= 1 (16753) Note On ch=5 par1=72 par2=92
Channel Event. t= 5 (16758) Note On ch=5 par1=64 par2=93
Channel Event. t= 8 (16766) Note Off ch=5 par1=59 par2=64
Channel Event. t= 3 (16769) Note Off ch=5 par1=71 par2=64
Channel Event. t= 1 (16770) Note Off ch=5 par1=62 par2=64
Channel Event. t= 122 (16892) Note Off ch=5 par1=60 par2=64
Channel Event. t= 20 (16912) Note Off ch=5 par1=72 par2=64
Channel Event. t= 1 (16913) Note Off ch=5 par1=64 par2=64
Channel Event. t= 23 (16936) Note On ch=5 par1=72 par2=94
Channel Event. t= 5 (16941) Note On ch=5 par1=64 par2=90
Channel Event. t= 6 (16947) Note On ch=5 par1=60 par2=102
Channel Event. t= 164 (17111) Note Off ch=5 par1=36 par2=64
Channel Event. t= 6 (17117) Note Off ch=5 par1=52 par2=64
Channel Event. t= 2 (17119) Note Off ch=5 par1=40 par2=64
Channel Event. t= 1 (17120) Note Off ch=5 par1=48 par2=64
Channel Event. t= 15 (17135) Note On ch=5 par1=36 par2=82
Channel Event. t= 1 (17136) Note Off ch=5 par1=64 par2=64
Channel Event. t= 2 (17138) Note On ch=5 par1=40 par2=82
Channel Event. t= 3 (17141) Note On ch=5 par1=48 par2=98
Channel Event. t= 1 (17142) Note Off ch=5 par1=72 par2=64
Channel Event. t= 10 (17152) Controller ch=5 par1=7 (Main Volume) par2=106
Channel Event. t= 8 (17160) Note Off ch=5 par1=60 par2=64
Channel Event. t= 40 (17200) Controller ch=5 par1=7 (Main Volume) par2=105
Channel Event. t= 48 (17248) Controller ch=5 par1=7 (Main Volume) par2=104
Channel Event. t= 48 (17296) Controller ch=5 par1=7 (Main Volume) par2=103
Channel Event. t= 24 (17320) Controller ch=5 par1=7 (Main Volume) par2=102
Channel Event. t= 3 (17323) Note On ch=5 par1=49 par2=97
Channel Event. t= 2 (17325) Note On ch=5 par1=37 par2=77
Channel Event. t= 6 (17331) Note On ch=5 par1=41 par2=82
Channel Event. t= 15 (17346) Note Off ch=5 par1=36 par2=64
Channel Event. t= 3 (17349) Note Off ch=5 par1=48 par2=64
Channel Event. t= 5 (17354) Note Off ch=5 par1=40 par2=64
Channel Event. t= 14 (17368) Controller ch=5 par1=7 (Main Volume) par2=101
Channel Event. t= 48 (17416) Controller ch=5 par1=7 (Main Volume) par2=100
Channel Event. t= 48 (17464) Controller ch=5 par1=7 (Main Volume) par2=99
Channel Event. t= 24 (17488) Controller ch=5 par1=7 (Main Volume) par2=98
Channel Event. t= 35 (17523) Note On ch=5 par1=36 par2=59
Channel Event. t= 3 (17526) Note On ch=5 par1=40 par2=78
Channel Event. t= 4 (17530) Note On ch=5 par1=48 par2=87
Channel Event. t= 6 (17536) Controller ch=5 par1=7 (Main Volume) par2=97
Channel Event. t= 3 (17539) Note Off ch=5 par1=37 par2=64
Channel Event. t= 0 (17539) Note Off ch=5 par1=41 par2=64
Channel Event. t= 3 (17542) Note Off ch=5 par1=49 par2=64
Channel Event. t= 42 (17584) Controller ch=5 par1=7 (Main Volume) par2=96
Channel Event. t= 48 (17632) Controller ch=5 par1=7 (Main Volume) par2=95
Channel Event. t= 24 (17656) Controller ch=5 par1=7 (Main Volume) par2=94
Channel Event. t= 48 (17704) Controller ch=5 par1=7 (Main Volume) par2=93
Channel Event. t= 5 (17709) Note On ch=5 par1=49 par2=96
Channel Event. t= 7 (17716) Note On ch=5 par1=37 par2=75
Channel Event. t= 3 (17719) Note On ch=5 par1=41 par2=75
Channel Event. t= 17 (17736) Note Off ch=5 par1=48 par2=64
Channel Event. t= 5 (17741) Note Off ch=5 par1=40 par2=64
Channel Event. t= 4 (17745) Note Off ch=5 par1=36 par2=64
Channel Event. t= 7 (17752) Controller ch=5 par1=7 (Main Volume) par2=92
Channel Event. t= 24 (17776) Controller ch=5 par1=7 (Main Volume) par2=91
Channel Event. t= 48 (17824) Controller ch=5 par1=7 (Main Volume) par2=90
Channel Event. t= 48 (17872) Controller ch=5 par1=7 (Main Volume) par2=89
Channel Event. t= 31 (17903) Note On ch=5 par1=50 par2=90
Channel Event. t= 7 (17910) Note On ch=5 par1=38 par2=73
Channel Event. t= 1 (17911) Note On ch=5 par1=40 par2=73
Channel Event. t= 1 (17912) Note On ch=5 par1=42 par2=73
Channel Event. t= 8 (17920) Note Off ch=5 par1=40 par2=64
Channel Event. t= 0 (17920) Controller ch=5 par1=7 (Main Volume) par2=88
Channel Event. t= 7 (17927) Note Off ch=5 par1=49 par2=64
Channel Event. t= 4 (17931) Note Off ch=5 par1=37 par2=64
Channel Event. t= 8 (17939) Note Off ch=5 par1=41 par2=64
Channel Event. t= 5 (17944) Controller ch=5 par1=7 (Main Volume) par2=87
Channel Event. t= 48 (17992) Controller ch=5 par1=7 (Main Volume) par2=86
Channel Event. t= 48 (18040) Controller ch=5 par1=7 (Main Volume) par2=85
Channel Event. t= 31 (18071) Note Off ch=5 par1=42 par2=64
Channel Event. t= 17 (18088) Controller ch=5 par1=7 (Main Volume) par2=84
Channel Event. t= 12 (18100) Note On ch=5 par1=52 par2=87
Channel Event. t= 2 (18102) Note Off ch=5 par1=38 par2=64
Channel Event. t= 5 (18107) Note On ch=5 par1=43 par2=73
Channel Event. t= 5 (18112) Controller ch=5 par1=7 (Main Volume) par2=83
Channel Event. t= 13 (18125) Note Off ch=5 par1=50 par2=64
Channel Event. t= 35 (18160) Controller ch=5 par1=7 (Main Volume) par2=82
Channel Event. t= 48 (18208) Controller ch=5 par1=7 (Main Volume) par2=81
Channel Event. t= 24 (18232) Controller ch=5 par1=7 (Main Volume) par2=80
Channel Event. t= 42 (18274) Note Off ch=5 par1=52 par2=64
Channel Event. t= 6 (18280) Controller ch=5 par1=7 (Main Volume) par2=79
Channel Event. t= 13 (18293) Note On ch=5 par1=52 par2=97
Channel Event. t= 2 (18295) Note On ch=5 par1=48 par2=88
Channel Event. t= 4 (18299) Note On ch=5 par1=40 par2=90
Channel Event. t= 12 (18311) Note Off ch=5 par1=43 par2=64
Channel Event. t= 17 (18328) Controller ch=5 par1=7 (Main Volume) par2=78
Channel Event. t= 48 (18376) Controller ch=5 par1=7 (Main Volume) par2=77
Channel Event. t= 24 (18400) Controller ch=5 par1=7 (Main Volume) par2=76
Channel Event. t= 48 (18448) Controller ch=5 par1=7 (Main Volume) par2=75
Channel Event. t= 32 (18480) Note On ch=5 par1=54 par2=88
Channel Event. t= 1 (18481) Note On ch=5 par1=50 par2=78
Channel Event. t= 2 (18483) Note On ch=5 par1=42 par2=91
Channel Event. t= 9 (18492) Note Off ch=5 par1=48 par2=64
Channel Event. t= 1 (18493) Note Off ch=5 par1=52 par2=64
Channel Event. t= 3 (18496) Controller ch=5 par1=7 (Main Volume) par2=74
Channel Event. t= 7 (18503) Note Off ch=5 par1=40 par2=64
Channel Event. t= 41 (18544) Controller ch=5 par1=7 (Main Volume) par2=73
Channel Event. t= 24 (18568) Controller ch=5 par1=7 (Main Volume) par2=72
Channel Event. t= 48 (18616) Controller ch=5 par1=7 (Main Volume) par2=71
Channel Event. t= 42 (18658) Note Off ch=5 par1=50 par2=64
Channel Event. t= 6 (18664) Controller ch=5 par1=7 (Main Volume) par2=70
Channel Event. t= 5 (18669) Note On ch=5 par1=31 par2=77
Channel Event. t= 2 (18671) Note On ch=5 par1=43 par2=91
Channel Event. t= 7 (18678) Note On ch=5 par1=59 par2=61
Channel Event. t= 1 (18679) Note Off ch=5 par1=54 par2=64
Channel Event. t= 0 (18679) Note On ch=5 par1=50 par2=92
Channel Event. t= 4 (18683) Note Off ch=5 par1=42 par2=64
Channel Event. t= 0 (18683) Note On ch=5 par1=55 par2=49
Channel Event. t= 0 (18683) Note On ch=5 par1=33 par2=38
Channel Event. t= 20 (18703) Note Off ch=5 par1=33 par2=64
Channel Event. t= 67 (18770) Note On ch=5 par1=54 par2=38
Channel Event. t= 2 (18772) Note Off ch=5 par1=55 par2=64
Channel Event. t= 2 (18774) Note On ch=5 par1=57 par2=59
Channel Event. t= 0 (18774) Note On ch=5 par1=51 par2=83
Channel Event. t= 5 (18779) Note Off ch=5 par1=59 par2=64
Channel Event. t= 9 (18788) Note Off ch=5 par1=50 par2=64
Channel Event. t= 77 (18865) Note Off ch=5 par1=54 par2=64
Channel Event. t= 0 (18865) Note On ch=5 par1=59 par2=56
Channel Event. t= 1 (18866) Note On ch=5 par1=55 par2=48
Channel Event. t= 8 (18874) Note On ch=5 par1=50 par2=82
Channel Event. t= 7 (18881) Note Off ch=5 par1=57 par2=64
Channel Event. t= 3 (18884) Note Off ch=5 par1=51 par2=64
Channel Event. t= 77 (18961) Note On ch=5 par1=54 par2=53
Channel Event. t= 5 (18966) Note On ch=5 par1=51 par2=89
Channel Event. t= 7 (18973) Note On ch=5 par1=57 par2=65
Channel Event. t= 7 (18980) Note Off ch=5 par1=55 par2=64
Channel Event. t= 4 (18984) Note Off ch=5 par1=59 par2=64
Channel Event. t= 9 (18993) Note Off ch=5 par1=50 par2=64
Channel Event. t= 72 (19065) Note Off ch=5 par1=54 par2=64
Channel Event. t= 1 (19066) Note On ch=5 par1=55 par2=53
Channel Event. t= 2 (19068) Note On ch=5 par1=50 par2=95
Channel Event. t= 3 (19071) Note On ch=5 par1=58 par2=69
Channel Event. t= 8 (19079) Note Off ch=5 par1=51 par2=64
Channel Event. t= 16 (19095) Note Off ch=5 par1=57 par2=64
Channel Event. t= 49 (19144) Note Off ch=5 par1=55 par2=64
Channel Event. t= 6 (19150) Note Off ch=5 par1=58 par2=64
Channel Event. t= 78 (19228) Note Off ch=5 par1=50 par2=64
Channel Event. t= 25 (19253) Note On ch=5 par1=58 par2=61
Channel Event. t= 2 (19255) Note On ch=5 par1=55 par2=56
Channel Event. t= 4 (19259) Note On ch=5 par1=50 par2=94
Channel Event. t= 102 (19361) Note Off ch=5 par1=58 par2=64
Channel Event. t= 27 (19388) Note Off ch=5 par1=55 par2=64
Channel Event. t= 61 (19449) Note Off ch=5 par1=50 par2=64
Channel Event. t= 1 (19450) Note On ch=5 par1=62 par2=68
Channel Event. t= 2 (19452) Note On ch=5 par1=58 par2=74
Channel Event. t= 8 (19460) Note On ch=5 par1=55 par2=98
Channel Event. t= 29 (19489) Note Off ch=5 par1=43 par2=64
Channel Event. t= 2 (19491) Note Off ch=5 par1=31 par2=64
Channel Event. t= 136 (19627) Note Off ch=5 par1=62 par2=64
Channel Event. t= 9 (19636) Note On ch=5 par1=61 par2=58
Channel Event. t= 3 (19639) Note On ch=5 par1=51 par2=97
Channel Event. t= 1 (19640) Note On ch=5 par1=57 par2=53
Channel Event. t= 12 (19652) Note Off ch=5 par1=58 par2=64
Channel Event. t= 9 (19661) Note Off ch=5 par1=55 par2=64
Channel Event. t= 162 (19823) Note Off ch=5 par1=61 par2=64
Channel Event. t= 5 (19828) Note On ch=5 par1=62 par2=42
Channel Event. t= 4 (19832) Note On ch=5 par1=58 par2=68
Channel Event. t= 9 (19841) Note On ch=5 par1=55 par2=90
Channel Event. t= 11 (19852) Note Off ch=5 par1=57 par2=64
Channel Event. t= 1 (19853) Note Off ch=5 par1=51 par2=64
Channel Event. t= 125 (19978) Note Off ch=5 par1=58 par2=64
Channel Event. t= 40 (20018) Note On ch=5 par1=58 par2=71
Channel Event. t= 3 (20021) Note On ch=5 par1=50 par2=95
Channel Event. t= 6 (20027) Note Off ch=5 par1=55 par2=64
Channel Event. t= 16 (20043) Note Off ch=5 par1=62 par2=64
Channel Event. t= 138 (20181) Note Off ch=5 par1=58 par2=64
Channel Event. t= 28 (20209) Note Off ch=5 par1=50 par2=64
Channel Event. t= 4 (20213) Note On ch=5 par1=53 par2=75
Channel Event. t= 5 (20218) Note On ch=5 par1=60 par2=67
Channel Event. t= 4 (20222) Note On ch=5 par1=48 par2=103
Channel Event. t= 772 (20994) Note On ch=5 par1=44 par2=76
Channel Event. t= 3 (20997) Note On ch=5 par1=41 par2=72
Channel Event. t= 3 (21000) Note On ch=5 par1=36 par2=68
Channel Event. t= 33 (21033) Note Off ch=5 par1=48 par2=64
Channel Event. t= 687 (21720) Note Off ch=5 par1=44 par2=64
Channel Event. t= 5 (21725) Note Off ch=5 par1=41 par2=64
Channel Event. t= 42 (21767) Note Off ch=5 par1=60 par2=64
Channel Event. t= 2 (21769) Note On ch=5 par1=31 par2=78
Channel Event. t= 1 (21770) Note Off ch=5 par1=53 par2=64
Channel Event. t= 1 (21771) Note On ch=5 par1=38 par2=81
Channel Event. t= 14 (21785) Note On ch=5 par1=55 par2=86
Channel Event. t= 2 (21787) Note On ch=5 par1=47 par2=74
Channel Event. t= 8 (21795) Note Off ch=5 par1=36 par2=64
Channel Event. t= 726 (22521) Note Off ch=5 par1=47 par2=64
Channel Event. t= 5 (22526) Note Off ch=5 par1=55 par2=64
Channel Event. t= 9 (22535) Note On ch=5 par1=37 par2=79
Channel Event. t= 4 (22539) Note On ch=5 par1=47 par2=84
Channel Event. t= 1 (22540) Note Off ch=5 par1=38 par2=64
Channel Event. t= 1 (22541) Note On ch=5 par1=55 par2=58
Channel Event. t= 7 (22548) Note Off ch=5 par1=31 par2=64
Channel Event. t= 728 (23276) Note Off ch=5 par1=55 par2=64
Channel Event. t= 2 (23278) Note Off ch=5 par1=47 par2=64
Channel Event. t= 14 (23292) Note On ch=5 par1=47 par2=77
Channel Event. t= 2 (23294) Note On ch=5 par1=55 par2=88
Channel Event. t= 1 (23295) Note On ch=5 par1=33 par2=80
Channel Event. t= 21 (23316) Note Off ch=5 par1=37 par2=64
Channel Event. t= 733 (24049) Note Off ch=5 par1=55 par2=64
Channel Event. t= 6 (24055) Note Off ch=5 par1=47 par2=64
Channel Event. t= 9 (24064) Note On ch=5 par1=55 par2=70
Channel Event. t= 1 (24065) Note On ch=5 par1=46 par2=88
Channel Event. t= 1 (24066) Note On ch=5 par1=38 par2=80
Channel Event. t= 27 (24093) Note Off ch=5 par1=33 par2=64
Channel Event. t= 583 (24676) Note Off ch=5 par1=46 par2=64
Channel Event. t= 125 (24801) Note Off ch=5 par1=55 par2=64
Channel Event. t= 21 (24822) Note On ch=5 par1=47 par2=74
Channel Event. t= 7 (24829) Note On ch=5 par1=50 par2=73
Channel Event. t= 0 (24829) Note On ch=5 par1=56 par2=74
Channel Event. t= 13 (24842) Note Off ch=5 par1=38 par2=64
Channel Event. t= 561 (25403) Note On ch=5 par1=52 par2=96
Channel Event. t= 16 (25419) Note Off ch=5 par1=56 par2=64
Channel Event. t= 1 (25420) Note Off ch=5 par1=47 par2=64
Channel Event. t= 6 (25426) Note Off ch=5 par1=50 par2=64
Channel Event. t= 22 (25448) Note Off ch=5 par1=52 par2=64
Channel Event. t= 43 (25491) Note On ch=5 par1=57 par2=91
Channel Event. t= 37 (25528) Note Off ch=5 par1=57 par2=64
Channel Event. t= 64 (25592) Note On ch=5 par1=61 par2=104
Channel Event. t= 10 (25602) Note On ch=5 par1=52 par2=84
Channel Event. t= 76 (25678) Note Off ch=5 par1=52 par2=64
Channel Event. t= 110 (25788) Note On ch=5 par1=57 par2=82
Channel Event. t= 2 (25790) Note On ch=5 par1=49 par2=89
Channel Event. t= 4 (25794) Note Off ch=5 par1=61 par2=64
Channel Event. t= 32 (25826) Note Off ch=5 par1=57 par2=64
Channel Event. t= 43 (25869) Note Off ch=5 par1=49 par2=64
Channel Event. t= 17 (25886) Note On ch=5 par1=52 par2=83
Channel Event. t= 36 (25922) Note Off ch=5 par1=52 par2=64
Channel Event. t= 56 (25978) Note On ch=5 par1=51 par2=104
Channel Event. t= 164 (26142) Note Off ch=5 par1=51 par2=64
Channel Event. t= 23 (26165) Note On ch=5 par1=52 par2=90
Channel Event. t= 12 (26177) Note On ch=5 par1=61 par2=53
Channel Event. t= 33 (26210) Note Off ch=5 par1=61 par2=64
Channel Event. t= 4 (26214) Note Off ch=5 par1=52 par2=64
Channel Event. t= 48 (26262) Note On ch=5 par1=64 par2=50
Channel Event. t= 2 (26264) Note On ch=5 par1=57 par2=90
Channel Event. t= 32 (26296) Note Off ch=5 par1=64 par2=64
Channel Event. t= 4 (26300) Note Off ch=5 par1=57 par2=64
Channel Event. t= 61 (26361) Note On ch=5 par1=62 par2=43
Channel Event. t= 0 (26361) Note On ch=5 par1=57 par2=78
Channel Event. t= 62 (26423) Note Off ch=5 par1=57 par2=64
Channel Event. t= 30 (26453) Note On ch=5 par1=64 par2=78
Channel Event. t= 36 (26489) Note Off ch=5 par1=64 par2=64
Channel Event. t= 60 (26549) Note On ch=5 par1=54 par2=85
Channel Event. t= 6 (26555) Note Off ch=5 par1=62 par2=64
Channel Event. t= 0 (26555) Note On ch=5 par1=62 par2=104
Channel Event. t= 54 (26609) Note Off ch=5 par1=54 par2=64
Channel Event. t= 224 (26833) Note Off ch=5 par1=62 par2=64
Channel Event. t= 11 (26844) Note On ch=5 par1=61 par2=96
Channel Event. t= 91 (26935) Note On ch=5 par1=57 par2=93
Channel Event. t= 27 (26962) Note Off ch=5 par1=61 par2=64
Channel Event. t= 63 (27025) Note Off ch=5 par1=57 par2=64
Channel Event. t= 5 (27030) Note On ch=5 par1=59 par2=96
Channel Event. t= 45 (27075) Note Off ch=5 par1=59 par2=64
Channel Event. t= 63 (27138) Note On ch=5 par1=41 par2=60
Channel Event. t= 80 (27218) Note On ch=5 par1=61 par2=104
Channel Event. t= 53 (27271) Note Off ch=5 par1=61 par2=64
Channel Event. t= 35 (27306) Note On ch=5 par1=56 par2=94
Channel Event. t= 50 (27356) Note Off ch=5 par1=56 par2=64
Channel Event. t= 20 (27376) Note Off ch=5 par1=41 par2=64
Channel Event. t= 27 (27403) Note On ch=5 par1=50 par2=93
Channel Event. t= 41 (27444) Note Off ch=5 par1=50 par2=64
Channel Event. t= 61 (27505) Note On ch=5 par1=46 par2=68
Channel Event. t= 93 (27598) Note On ch=5 par1=61 par2=95
Channel Event. t= 46 (27644) Note Off ch=5 par1=61 par2=64
Channel Event. t= 47 (27691) Note On ch=5 par1=55 par2=91
Channel Event. t= 20 (27711) Note Off ch=5 par1=46 par2=64
Channel Event. t= 33 (27744) Note Off ch=5 par1=55 par2=64
Channel Event. t= 45 (27789) Note On ch=5 par1=51 par2=104
Channel Event. t= 39 (27828) Note Off ch=5 par1=51 par2=64
Channel Event. t= 55 (27883) Note On ch=5 par1=41 par2=53
Channel Event. t= 102 (27985) Note On ch=5 par1=68 par2=87
Channel Event. t= 43 (28028) Note Off ch=5 par1=68 par2=64
Channel Event. t= 44 (28072) Note On ch=5 par1=72 par2=86
Channel Event. t= 21 (28093) Note Off ch=5 par1=41 par2=64
Channel Event. t= 25 (28118) Note Off ch=5 par1=72 par2=64
Channel Event. t= 51 (28169) Note On ch=5 par1=62 par2=84
Channel Event. t= 49 (28218) Note Off ch=5 par1=62 par2=64
Channel Event. t= 63 (28281) Note On ch=5 par1=46 par2=60
Channel Event. t= 89 (28370) Note On ch=5 par1=67 par2=78
Channel Event. t= 48 (28418) Note Off ch=5 par1=67 par2=64
Channel Event. t= 47 (28465) Note On ch=5 par1=73 par2=86
Channel Event. t= 2 (28467) Note Off ch=5 par1=46 par2=64
Channel Event. t= 44 (28511) Note Off ch=5 par1=73 par2=64
Channel Event. t= 51 (28562) Note On ch=5 par1=63 par2=91
Channel Event. t= 38 (28600) Note Off ch=5 par1=63 par2=64
Channel Event. t= 63 (28663) Note On ch=5 par1=54 par2=75
Channel Event. t= 9 (28672) Controller ch=5 par1=7 (Main Volume) par2=70
Channel Event. t= 48 (28720) Controller ch=5 par1=7 (Main Volume) par2=71
Channel Event. t= 48 (28768) Controller ch=5 par1=7 (Main Volume) par2=72
Channel Event. t= 48 (28816) Controller ch=5 par1=7 (Main Volume) par2=73
Channel Event. t= 22 (28838) Note On ch=5 par1=68 par2=86
Channel Event. t= 18 (28856) Note Off ch=5 par1=54 par2=64
Channel Event. t= 3 (28859) Note On ch=5 par1=70 par2=69
Channel Event. t= 5 (28864) Controller ch=5 par1=7 (Main Volume) par2=74
Channel Event. t= 47 (28911) Note Off ch=5 par1=70 par2=64
Channel Event. t= 1 (28912) Controller ch=5 par1=7 (Main Volume) par2=75
Channel Event. t= 48 (28960) Controller ch=5 par1=7 (Main Volume) par2=76
Channel Event. t= 45 (29005) Note Off ch=5 par1=68 par2=64
Channel Event. t= 3 (29008) Controller ch=5 par1=7 (Main Volume) par2=77
Channel Event. t= 26 (29034) Note On ch=5 par1=76 par2=88
Channel Event. t= 22 (29056) Controller ch=5 par1=7 (Main Volume) par2=78
Channel Event. t= 48 (29104) Controller ch=5 par1=7 (Main Volume) par2=79
Channel Event. t= 48 (29152) Controller ch=5 par1=7 (Main Volume) par2=80
Channel Event. t= 27 (29179) Note Off ch=5 par1=76 par2=64
Channel Event. t= 21 (29200) Controller ch=5 par1=7 (Main Volume) par2=81
Channel Event. t= 26 (29226) Note On ch=5 par1=81 par2=88
Channel Event. t= 22 (29248) Controller ch=5 par1=7 (Main Volume) par2=82
Channel Event. t= 48 (29296) Controller ch=5 par1=7 (Main Volume) par2=83
Channel Event. t= 48 (29344) Controller ch=5 par1=7 (Main Volume) par2=84
Channel Event. t= 48 (29392) Controller ch=5 par1=7 (Main Volume) par2=85
Channel Event. t= 4 (29396) Note Off ch=5 par1=81 par2=64
Channel Event. t= 29 (29425) Note On ch=5 par1=88 par2=99
Channel Event. t= 15 (29440) Controller ch=5 par1=7 (Main Volume) par2=86
Channel Event. t= 48 (29488) Controller ch=5 par1=7 (Main Volume) par2=87
Channel Event. t= 48 (29536) Controller ch=5 par1=7 (Main Volume) par2=88
Channel Event. t= 48 (29584) Controller ch=5 par1=7 (Main Volume) par2=89
Channel Event. t= 48 (29632) Controller ch=5 par1=7 (Main Volume) par2=90
Channel Event. t= 48 (29680) Controller ch=5 par1=7 (Main Volume) par2=91
Channel Event. t= 48 (29728) Controller ch=5 par1=7 (Main Volume) par2=92
Channel Event. t= 48 (29776) Controller ch=5 par1=7 (Main Volume) par2=93
Channel Event. t= 48 (29824) Controller ch=5 par1=7 (Main Volume) par2=94
Channel Event. t= 48 (29872) Controller ch=5 par1=7 (Main Volume) par2=95
Channel Event. t= 48 (29920) Controller ch=5 par1=7 (Main Volume) par2=96
Channel Event. t= 48 (29968) Controller ch=5 par1=7 (Main Volume) par2=97
Channel Event. t= 48 (30016) Controller ch=5 par1=7 (Main Volume) par2=98
Channel Event. t= 48 (30064) Controller ch=5 par1=7 (Main Volume) par2=99
Channel Event. t= 48 (30112) Controller ch=5 par1=7 (Main Volume) par2=100
Channel Event. t= 48 (30160) Controller ch=5 par1=7 (Main Volume) par2=101
Channel Event. t= 47 (30207) Controller ch=5 par1=7 (Main Volume) par2=102
Channel Event. t= 1 (30208) Controller ch=5 par1=7 (Main Volume) par2=106
Channel Event. t= 48 (30256) Controller ch=5 par1=7 (Main Volume) par2=105
Channel Event. t= 24 (30280) Controller ch=5 par1=7 (Main Volume) par2=104
Channel Event. t= 26 (30306) Note On ch=5 par1=86 par2=85
Channel Event. t= 17 (30323) Note Off ch=5 par1=88 par2=64
Channel Event. t= 5 (30328) Controller ch=5 par1=7 (Main Volume) par2=103
Channel Event. t= 24 (30352) Controller ch=5 par1=7 (Main Volume) par2=102
Channel Event. t= 43 (30395) Note On ch=5 par1=85 par2=89
Channel Event. t= 5 (30400) Controller ch=5 par1=7 (Main Volume) par2=101
Channel Event. t= 10 (30410) Note Off ch=5 par1=86 par2=64
Channel Event. t= 14 (30424) Controller ch=5 par1=7 (Main Volume) par2=100
Channel Event. t= 48 (30472) Controller ch=5 par1=7 (Main Volume) par2=99
Channel Event. t= 10 (30482) Note On ch=5 par1=84 par2=81
Channel Event. t= 14 (30496) Controller ch=5 par1=7 (Main Volume) par2=98
Channel Event. t= 2 (30498) Note Off ch=5 par1=85 par2=64
Channel Event. t= 46 (30544) Controller ch=5 par1=7 (Main Volume) par2=97
Channel Event. t= 24 (30568) Controller ch=5 par1=7 (Main Volume) par2=96
Channel Event. t= 9 (30577) Note On ch=5 par1=83 par2=82
Channel Event. t= 4 (30581) Note Off ch=5 par1=84 par2=64
Channel Event. t= 35 (30616) Controller ch=5 par1=7 (Main Volume) par2=95
Channel Event. t= 24 (30640) Controller ch=5 par1=7 (Main Volume) par2=94
Channel Event. t= 31 (30671) Note On ch=5 par1=82 par2=83
Channel Event. t= 8 (30679) Note Off ch=5 par1=83 par2=64
Channel Event. t= 9 (30688) Controller ch=5 par1=7 (Main Volume) par2=93
Channel Event. t= 24 (30712) Controller ch=5 par1=7 (Main Volume) par2=92
Channel Event. t= 48 (30760) Controller ch=5 par1=7 (Main Volume) par2=91
Channel Event. t= 3 (30763) Note On ch=5 par1=81 par2=74
Channel Event. t= 5 (30768) Note Off ch=5 par1=82 par2=64
Channel Event. t= 16 (30784) Controller ch=5 par1=7 (Main Volume) par2=90
Channel Event. t= 48 (30832) Controller ch=5 par1=7 (Main Volume) par2=89
Channel Event. t= 24 (30856) Controller ch=5 par1=7 (Main Volume) par2=88
Channel Event. t= 0 (30856) Note On ch=5 par1=82 par2=81
Channel Event. t= 23 (30879) Note Off ch=5 par1=81 par2=64
Channel Event. t= 1 (30880) Controller ch=5 par1=7 (Main Volume) par2=87
Channel Event. t= 48 (30928) Controller ch=5 par1=7 (Main Volume) par2=86
Channel Event. t= 24 (30952) Controller ch=5 par1=7 (Main Volume) par2=85
Channel Event. t= 3 (30955) Note On ch=5 par1=85 par2=85
Channel Event. t= 5 (30960) Note Off ch=5 par1=82 par2=64
Channel Event. t= 40 (31000) Controller ch=5 par1=7 (Main Volume) par2=84
Channel Event. t= 24 (31024) Controller ch=5 par1=7 (Main Volume) par2=83
Channel Event. t= 21 (31045) Note On ch=5 par1=84 par2=79
Channel Event. t= 17 (31062) Note Off ch=5 par1=85 par2=64
Channel Event. t= 10 (31072) Controller ch=5 par1=7 (Main Volume) par2=82
Channel Event. t= 24 (31096) Controller ch=5 par1=7 (Main Volume) par2=81
Channel Event. t= 44 (31140) Note On ch=5 par1=83 par2=75
Channel Event. t= 4 (31144) Controller ch=5 par1=7 (Main Volume) par2=80
Channel Event. t= 1 (31145) Note Off ch=5 par1=84 par2=64
Channel Event. t= 23 (31168) Controller ch=5 par1=7 (Main Volume) par2=79
Channel Event. t= 48 (31216) Controller ch=5 par1=7 (Main Volume) par2=78
Channel Event. t= 18 (31234) Note On ch=5 par1=82 par2=75
Channel Event. t= 6 (31240) Controller ch=5 par1=7 (Main Volume) par2=77
Channel Event. t= 8 (31248) Note Off ch=5 par1=83 par2=64
Channel Event. t= 40 (31288) Controller ch=5 par1=7 (Main Volume) par2=76
Channel Event. t= 24 (31312) Controller ch=5 par1=7 (Main Volume) par2=75
Channel Event. t= 16 (31328) Note On ch=5 par1=81 par2=70
Channel Event. t= 8 (31336) Note Off ch=5 par1=82 par2=64
Channel Event. t= 24 (31360) Controller ch=5 par1=7 (Main Volume) par2=74
Channel Event. t= 24 (31384) Controller ch=5 par1=7 (Main Volume) par2=73
Channel Event. t= 42 (31426) Note On ch=5 par1=80 par2=77
Channel Event. t= 6 (31432) Controller ch=5 par1=7 (Main Volume) par2=72
Channel Event. t= 7 (31439) Note Off ch=5 par1=81 par2=64
Channel Event. t= 17 (31456) Controller ch=5 par1=7 (Main Volume) par2=71
Channel Event. t= 24 (31480) Controller ch=5 par1=7 (Main Volume) par2=70
Channel Event. t= 45 (31525) Note On ch=5 par1=79 par2=76
Channel Event. t= 3 (31528) Controller ch=5 par1=7 (Main Volume) par2=69
Channel Event. t= 1 (31529) Note Off ch=5 par1=80 par2=64
Channel Event. t= 23 (31552) Controller ch=5 par1=7 (Main Volume) par2=68
Channel Event. t= 48 (31600) Controller ch=5 par1=7 (Main Volume) par2=67
Channel Event. t= 23 (31623) Note On ch=5 par1=80 par2=79
Channel Event. t= 1 (31624) Controller ch=5 par1=7 (Main Volume) par2=66
Channel Event. t= 10 (31634) Note Off ch=5 par1=79 par2=64
Channel Event. t= 38 (31672) Controller ch=5 par1=7 (Main Volume) par2=65
Channel Event. t= 24 (31696) Controller ch=5 par1=7 (Main Volume) par2=64
Channel Event. t= 31 (31727) Note On ch=5 par1=75 par2=88
Channel Event. t= 15 (31742) Note Off ch=5 par1=80 par2=64
Channel Event. t= 2 (31744) Controller ch=5 par1=7 (Main Volume) par2=63
Channel Event. t= 24 (31768) Controller ch=5 par1=7 (Main Volume) par2=62
Channel Event. t= 48 (31816) Controller ch=5 par1=7 (Main Volume) par2=61
Channel Event. t= 24 (31840) Controller ch=5 par1=7 (Main Volume) par2=60
Channel Event. t= 48 (31888) Controller ch=5 par1=7 (Main Volume) par2=59
Channel Event. t= 24 (31912) Controller ch=5 par1=7 (Main Volume) par2=58
Channel Event. t= 48 (31960) Controller ch=5 par1=7 (Main Volume) par2=57
Channel Event. t= 24 (31984) Controller ch=5 par1=7 (Main Volume) par2=56
Channel Event. t= 48 (32032) Controller ch=5 par1=7 (Main Volume) par2=55
Channel Event. t= 24 (32056) Controller ch=5 par1=7 (Main Volume) par2=54
Channel Event. t= 24 (32080) Controller ch=5 par1=7 (Main Volume) par2=53
Channel Event. t= 48 (32128) Controller ch=5 par1=7 (Main Volume) par2=52
Channel Event. t= 24 (32152) Controller ch=5 par1=7 (Main Volume) par2=51
Channel Event. t= 48 (32200) Controller ch=5 par1=7 (Main Volume) par2=50
Channel Event. t= 24 (32224) Controller ch=5 par1=7 (Main Volume) par2=49
Channel Event. t= 48 (32272) Controller ch=5 par1=7 (Main Volume) par2=48
Channel Event. t= 24 (32296) Controller ch=5 par1=7 (Main Volume) par2=47
Channel Event. t= 14 (32310) Note On ch=5 par1=63 par2=126
Channel Event. t= 34 (32344) Controller ch=5 par1=7 (Main Volume) par2=46
Channel Event. t= 24 (32368) Controller ch=5 par1=7 (Main Volume) par2=45
Channel Event. t= 4 (32372) Note Off ch=5 par1=63 par2=64
Channel Event. t= 39 (32411) Note On ch=5 par1=56 par2=112
Channel Event. t= 1 (32412) Note On ch=5 par1=60 par2=112
Channel Event. t= 4 (32416) Controller ch=5 par1=7 (Main Volume) par2=44
Channel Event. t= 24 (32440) Controller ch=5 par1=7 (Main Volume) par2=43
Channel Event. t= 3 (32443) Note Off ch=5 par1=56 par2=64
Channel Event. t= 4 (32447) Note Off ch=5 par1=60 par2=64
Channel Event. t= 41 (32488) Controller ch=5 par1=7 (Main Volume) par2=42
Channel Event. t= 17 (32505) Note On ch=5 par1=63 par2=71
Channel Event. t= 7 (32512) Note Off ch=5 par1=75 par2=65
Channel Event. t= 0 (32512) Controller ch=5 par1=7 (Main Volume) par2=80
Channel Event. t= 42 (32554) Note Off ch=5 par1=63 par2=64
Channel Event. t= 45 (32599) Note On ch=5 par1=56 par2=62
Channel Event. t= 0 (32599) Note On ch=5 par1=60 par2=58
Channel Event. t= 24 (32623) Note Off ch=5 par1=56 par2=64
Channel Event. t= 11 (32634) Note Off ch=5 par1=60 par2=64
Channel Event. t= 59 (32693) Note On ch=5 par1=63 par2=90
Channel Event. t= 43 (32736) Note Off ch=5 par1=63 par2=64
Channel Event. t= 47 (32783) Note On ch=5 par1=56 par2=73
Channel Event. t= 6 (32789) Note On ch=5 par1=60 par2=54
Channel Event. t= 19 (32808) Note Off ch=5 par1=56 par2=64
Channel Event. t= 3 (32811) Note Off ch=5 par1=60 par2=64
Channel Event. t= 64 (32875) Note On ch=5 par1=65 par2=82
Channel Event. t= 6 (32881) Note On ch=5 par1=63 par2=90
Channel Event. t= 32 (32913) Note Off ch=5 par1=65 par2=64
Channel Event. t= 7 (32920) Note Off ch=5 par1=63 par2=64
Channel Event. t= 62 (32982) Note On ch=5 par1=60 par2=59
Channel Event. t= 2 (32984) Note On ch=5 par1=57 par2=63
Channel Event. t= 24 (33008) Note Off ch=5 par1=57 par2=64
Channel Event. t= 6 (33014) Note Off ch=5 par1=60 par2=64
Channel Event. t= 63 (33077) Note On ch=5 par1=63 par2=87
Channel Event. t= 31 (33108) Note Off ch=5 par1=63 par2=64
Channel Event. t= 57 (33165) Note On ch=5 par1=57 par2=69
Channel Event. t= 0 (33165) Note On ch=5 par1=60 par2=65
Channel Event. t= 18 (33183) Note On ch=5 par1=63 par2=93
Channel Event. t= 6 (33189) Note Off ch=5 par1=57 par2=64
Channel Event. t= 5 (33194) Note Off ch=5 par1=60 par2=64
Channel Event. t= 19 (33213) Note Off ch=5 par1=63 par2=64
Channel Event. t= 55 (33268) Note On ch=5 par1=63 par2=100
Channel Event. t= 38 (33306) Note Off ch=5 par1=63 par2=64
Channel Event. t= 55 (33361) Note On ch=5 par1=60 par2=79
Channel Event. t= 3 (33364) Note On ch=5 par1=57 par2=69
Channel Event. t= 23 (33387) Note Off ch=5 par1=57 par2=64
Channel Event. t= 4 (33391) Note Off ch=5 par1=60 par2=64
Channel Event. t= 61 (33452) Note On ch=5 par1=77 par2=74
Channel Event. t= 11 (33463) Note On ch=5 par1=75 par2=84
Channel Event. t= 30 (33493) Note Off ch=5 par1=77 par2=64
Channel Event. t= 33 (33526) Note Off ch=5 par1=75 par2=64
Channel Event. t= 35 (33561) Note On ch=5 par1=61 par2=75
Channel Event. t= 2 (33563) Note On ch=5 par1=58 par2=72
Channel Event. t= 27 (33590) Note Off ch=5 par1=61 par2=64
Channel Event. t= 5 (33595) Note Off ch=5 par1=58 par2=64
Channel Event. t= 63 (33658) Note On ch=5 par1=74 par2=80
Channel Event. t= 42 (33700) Note On ch=5 par1=73 par2=76
Channel Event. t= 7 (33707) Note Off ch=5 par1=74 par2=64
Channel Event. t= 44 (33751) Note On ch=5 par1=58 par2=68
Channel Event. t= 1 (33752) Note On ch=5 par1=72 par2=56
Channel Event. t= 1 (33753) Note On ch=5 par1=61 par2=71
Channel Event. t= 6 (33759) Note Off ch=5 par1=73 par2=64
Channel Event. t= 28 (33787) Note Off ch=5 par1=61 par2=64
Channel Event. t= 2 (33789) Note Off ch=5 par1=58 par2=64
Channel Event. t= 2 (33791) Note Off ch=5 par1=72 par2=64
Channel Event. t= 3 (33794) Note On ch=5 par1=71 par2=66
Channel Event. t= 44 (33838) Note Off ch=5 par1=71 par2=64
Channel Event. t= 4 (33842) Note On ch=5 par1=70 par2=71
Channel Event. t= 45 (33887) Note Off ch=5 par1=70 par2=64
Channel Event. t= 4 (33891) Note On ch=5 par1=74 par2=64
Channel Event. t= 39 (33930) Note On ch=5 par1=58 par2=74
Channel Event. t= 0 (33930) Note On ch=5 par1=61 par2=81
Channel Event. t= 7 (33937) Note On ch=5 par1=70 par2=60
Channel Event. t= 9 (33946) Note Off ch=5 par1=74 par2=64
Channel Event. t= 23 (33969) Note Off ch=5 par1=61 par2=64
Channel Event. t= 5 (33974) Note Off ch=5 par1=58 par2=64
Channel Event. t= 24 (33998) Note On ch=5 par1=65 par2=59
Channel Event. t= 8 (34006) Note Off ch=5 par1=70 par2=64
Channel Event. t= 40 (34046) Note Off ch=5 par1=65 par2=64
Channel Event. t= 2 (34048) Note On ch=5 par1=66 par2=90
Channel Event. t= 42 (34090) Note On ch=5 par1=65 par2=66
Channel Event. t= 8 (34098) Note Off ch=5 par1=66 par2=64
Channel Event. t= 34 (34132) Note On ch=5 par1=62 par2=69
Channel Event. t= 4 (34136) Note On ch=5 par1=59 par2=80
Channel Event. t= 4 (34140) Note On ch=5 par1=64 par2=84
Channel Event. t= 8 (34148) Note Off ch=5 par1=65 par2=64
Channel Event. t= 26 (34174) Note Off ch=5 par1=62 par2=64
Channel Event. t= 1 (34175) Note Off ch=5 par1=59 par2=64
Channel Event. t= 15 (34190) Note On ch=5 par1=63 par2=83
Channel Event. t= 21 (34211) Note Off ch=5 par1=64 par2=64
Channel Event. t= 23 (34234) Note Off ch=5 par1=63 par2=64
Channel Event. t= 14 (34248) Note On ch=5 par1=63 par2=108
Channel Event. t= 83 (34331) Note On ch=5 par1=62 par2=67
Channel Event. t= 2 (34333) Note On ch=5 par1=59 par2=72
Channel Event. t= 37 (34370) Note Off ch=5 par1=59 par2=64
Channel Event. t= 3 (34373) Note Off ch=5 par1=62 par2=64
Channel Event. t= 37 (34410) Note Off ch=5 par1=63 par2=64
Channel Event. t= 32 (34442) Note On ch=5 par1=63 par2=102
Channel Event. t= 77 (34519) Note On ch=5 par1=62 par2=76
Channel Event. t= 4 (34523) Note On ch=5 par1=59 par2=75
Channel Event. t= 29 (34552) Note Off ch=5 par1=62 par2=64
Channel Event. t= 5 (34557) Note Off ch=5 par1=59 par2=64
Channel Event. t= 30 (34587) Note Off ch=5 par1=63 par2=64
Channel Event. t= 32 (34619) Note On ch=5 par1=77 par2=73
Channel Event. t= 1 (34620) Note On ch=5 par1=75 par2=93
Channel Event. t= 67 (34687) Note Off ch=5 par1=77 par2=64
Channel Event. t= 29 (34716) Note On ch=5 par1=67 par2=62
Channel Event. t= 3 (34719) Note On ch=5 par1=60 par2=55
Channel Event. t= 0 (34719) Note On ch=5 par1=63 par2=65
Channel Event. t= 37 (34756) Note Off ch=5 par1=63 par2=64
Channel Event. t= 1 (34757) Note Off ch=5 par1=60 par2=64
Channel Event. t= 2 (34759) Note Off ch=5 par1=67 par2=64
Channel Event. t= 65 (34824) Note On ch=5 par1=87 par2=89
Channel Event. t= 11 (34835) Note Off ch=5 par1=75 par2=64
Channel Event. t= 77 (34912) Note On ch=5 par1=67 par2=82
Channel Event. t= 0 (34912) Note On ch=5 par1=60 par2=81
Channel Event. t= 1 (34913) Note On ch=5 par1=63 par2=88
Channel Event. t= 34 (34947) Note Off ch=5 par1=60 par2=64
Channel Event. t= 0 (34947) Note Off ch=5 par1=63 par2=64
Channel Event. t= 8 (34955) Note Off ch=5 par1=67 par2=64
Channel Event. t= 61 (35016) Note On ch=5 par1=75 par2=86
Channel Event. t= 10 (35026) Note Off ch=5 par1=87 par2=64
Channel Event. t= 73 (35099) Note On ch=5 par1=67 par2=79
Channel Event. t= 2 (35101) Note On ch=5 par1=63 par2=83
Channel Event. t= 0 (35101) Note On ch=5 par1=60 par2=74
Channel Event. t= 41 (35142) Note Off ch=5 par1=60 par2=64
Channel Event. t= 1 (35143) Note Off ch=5 par1=63 par2=64
Channel Event. t= 5 (35148) Note Off ch=5 par1=75 par2=64
Channel Event. t= 2 (35150) Note Off ch=5 par1=67 par2=64
Channel Event. t= 39 (35189) Note On ch=5 par1=77 par2=75
Channel Event. t= 3 (35192) Note On ch=5 par1=75 par2=86
Channel Event. t= 30 (35222) Note Off ch=5 par1=77 par2=64
Channel Event. t= 66 (35288) Note On ch=5 par1=69 par2=79
Channel Event. t= 3 (35291) Note On ch=5 par1=61 par2=79
Channel Event. t= 2 (35293) Note On ch=5 par1=64 par2=82
Channel Event. t= 36 (35329) Note Off ch=5 par1=61 par2=64
Channel Event. t= 11 (35340) Note Off ch=5 par1=64 par2=64
Channel Event. t= 3 (35343) Note Off ch=5 par1=69 par2=64
Channel Event. t= 32 (35375) Note Off ch=5 par1=75 par2=64
Channel Event. t= 19 (35394) Note On ch=5 par1=75 par2=88
Channel Event. t= 42 (35436) Note Off ch=5 par1=75 par2=64
Channel Event. t= 41 (35477) Note On ch=5 par1=69 par2=82
Channel Event. t= 2 (35479) Note On ch=5 par1=61 par2=87
Channel Event. t= 2 (35481) Note On ch=5 par1=64 par2=79
Channel Event. t= 0 (35481) Note On ch=5 par1=75 par2=91
Channel Event. t= 34 (35515) Note Off ch=5 par1=61 par2=64
Channel Event. t= 11 (35526) Note Off ch=5 par1=64 par2=64
Channel Event. t= 2 (35528) Note Off ch=5 par1=69 par2=64
Channel Event. t= 6 (35534) Note Off ch=5 par1=75 par2=64
Channel Event. t= 47 (35581) Note On ch=5 par1=75 par2=105
Channel Event. t= 86 (35667) Note On ch=5 par1=69 par2=81
Channel Event. t= 1 (35668) Note On ch=5 par1=61 par2=90
Channel Event. t= 2 (35670) Note On ch=5 par1=64 par2=82
Channel Event. t= 40 (35710) Note Off ch=5 par1=61 par2=64
Channel Event. t= 10 (35720) Note Off ch=5 par1=64 par2=64
Channel Event. t= 8 (35728) Note Off ch=5 par1=75 par2=64
Channel Event. t= 0 (35728) Note Off ch=5 par1=69 par2=64
Channel Event. t= 32 (35760) Note On ch=5 par1=89 par2=85
Channel Event. t= 14 (35774) Note On ch=5 par1=87 par2=93
Channel Event. t= 37 (35811) Note Off ch=5 par1=89 par2=64
Channel Event. t= 57 (35868) Note On ch=5 par1=69 par2=86
Channel Event. t= 1 (35869) Note On ch=5 par1=65 par2=72
Channel Event. t= 3 (35872) Note On ch=5 par1=62 par2=74
Channel Event. t= 38 (35910) Note Off ch=5 par1=62 par2=64
Channel Event. t= 1 (35911) Note Off ch=5 par1=69 par2=64
Channel Event. t= 2 (35913) Note Off ch=5 par1=65 par2=64
Channel Event. t= 48 (35961) Note Off ch=5 par1=87 par2=64
Channel Event. t= 11 (35972) Note On ch=5 par1=89 par2=83
Channel Event. t= 32 (36004) Note Off ch=5 par1=89 par2=64
Channel Event. t= 19 (36023) Note On ch=5 par1=88 par2=72
Channel Event. t= 31 (36054) Note On ch=5 par1=69 par2=77
Channel Event. t= 1 (36055) Note Off ch=5 par1=88 par2=64
Channel Event. t= 0 (36055) Note On ch=5 par1=65 par2=62
Channel Event. t= 2 (36057) Note On ch=5 par1=62 par2=72
Channel Event. t= 11 (36068) Note On ch=5 par1=86 par2=76
Channel Event. t= 32 (36100) Note Off ch=5 par1=69 par2=64
Channel Event. t= 0 (36100) Note Off ch=5 par1=62 par2=64
Channel Event. t= 1 (36101) Note Off ch=5 par1=65 par2=64
Channel Event. t= 23 (36124) Note On ch=5 par1=85 par2=88
Channel Event. t= 6 (36130) Note Off ch=5 par1=86 par2=64
Channel Event. t= 33 (36163) Note Off ch=5 par1=85 par2=64
Channel Event. t= 4 (36167) Note On ch=5 par1=84 par2=63
Channel Event. t= 47 (36214) Note On ch=5 par1=83 par2=77
Channel Event. t= 5 (36219) Note Off ch=5 par1=84 par2=64
Channel Event. t= 19 (36238) Note On ch=5 par1=69 par2=76
Channel Event. t= 1 (36239) Note On ch=5 par1=65 par2=82
Channel Event. t= 2 (36241) Note On ch=5 par1=62 par2=81
Channel Event. t= 18 (36259) Note Off ch=5 par1=83 par2=64
Channel Event. t= 0 (36259) Note On ch=5 par1=82 par2=54
Channel Event. t= 19 (36278) Note Off ch=5 par1=65 par2=64
Channel Event. t= 2 (36280) Note Off ch=5 par1=62 par2=64
Channel Event. t= 7 (36287) Note Off ch=5 par1=69 par2=64
Channel Event. t= 22 (36309) Note Off ch=5 par1=82 par2=64
Channel Event. t= 0 (36309) Note On ch=5 par1=81 par2=73
Channel Event. t= 57 (36366) Note On ch=5 par1=80 par2=96
Channel Event. t= 14 (36380) Note Off ch=5 par1=81 par2=64
Channel Event. t= 18 (36398) Note Off ch=5 par1=80 par2=64
Channel Event. t= 11 (36409) Note On ch=5 par1=79 par2=84
Channel Event. t= 31 (36440) Note On ch=5 par1=73 par2=98
Channel Event. t= 0 (36440) Note On ch=5 par1=66 par2=82
Channel Event. t= 2 (36442) Note On ch=5 par1=63 par2=74
Channel Event. t= 12 (36454) Note On ch=5 par1=78 par2=79
Channel Event. t= 2 (36456) Note Off ch=5 par1=79 par2=64
Channel Event. t= 30 (36486) Note Off ch=5 par1=66 par2=64
Channel Event. t= 2 (36488) Note Off ch=5 par1=73 par2=64
Channel Event. t= 1 (36489) Note Off ch=5 par1=63 par2=64
Channel Event. t= 4 (36493) Note Off ch=5 par1=78 par2=64
Channel Event. t= 3 (36496) Note On ch=5 par1=77 par2=80
Channel Event. t= 56 (36552) Note On ch=5 par1=75 par2=105
Channel Event. t= 6 (36558) Note Off ch=5 par1=77 par2=64
Channel Event. t= 70 (36628) Note On ch=5 par1=73 par2=93
Channel Event. t= 1 (36629) Note On ch=5 par1=66 par2=83
Channel Event. t= 1 (36630) Note On ch=5 par1=63 par2=75
Channel Event. t= 37 (36667) Note Off ch=5 par1=66 par2=64
Channel Event. t= 2 (36669) Note Off ch=5 par1=73 par2=64
Channel Event. t= 4 (36673) Note Off ch=5 par1=63 par2=64
Channel Event. t= 48 (36721) Note Off ch=5 par1=75 par2=64
Channel Event. t= 25 (36746) Note On ch=5 par1=75 par2=102
Channel Event. t= 71 (36817) Note On ch=5 par1=73 par2=85
Channel Event. t= 2 (36819) Note On ch=5 par1=66 par2=80
Channel Event. t= 0 (36819) Note On ch=5 par1=63 par2=74
Channel Event. t= 39 (36858) Note Off ch=5 par1=73 par2=64
Channel Event. t= 2 (36860) Note Off ch=5 par1=66 par2=64
Channel Event. t= 6 (36866) Note Off ch=5 par1=63 par2=64
Channel Event. t= 41 (36907) Note Off ch=5 par1=75 par2=64
Channel Event. t= 16 (36923) Note On ch=5 par1=71 par2=75
Channel Event. t= 53 (36976) Note On ch=5 par1=73 par2=53
Channel Event. t= 3 (36979) Note Off ch=5 par1=71 par2=64
Channel Event. t= 35 (37014) Note On ch=5 par1=71 par2=34
Channel Event. t= 5 (37019) Note Off ch=5 par1=73 par2=64
Channel Event. t= 4 (37023) Note On ch=5 par1=68 par2=27
Channel Event. t= 2 (37025) Note On ch=5 par1=64 par2=35
Channel Event. t= 27 (37052) Note Off ch=5 par1=68 par2=64
Channel Event. t= 4 (37056) Note Off ch=5 par1=64 par2=64
Channel Event. t= 16 (37072) Note On ch=5 par1=73 par2=53
Channel Event. t= 2 (37074) Note Off ch=5 par1=71 par2=64
Channel Event. t= 40 (37114) Note On ch=5 par1=71 par2=15
Channel Event. t= 1 (37115) Note Off ch=5 par1=73 par2=64
Channel Event. t= 54 (37169) Note On ch=5 par1=73 par2=27
Channel Event. t= 3 (37172) Note Off ch=5 par1=71 par2=64
Channel Event. t= 37 (37209) Note On ch=5 par1=68 par2=16
Channel Event. t= 0 (37209) Note On ch=5 par1=71 par2=12
Channel Event. t= 2 (37211) Note Off ch=5 par1=73 par2=64
Channel Event. t= 7 (37218) Note On ch=5 par1=64 par2=24
Channel Event. t= 28 (37246) Note Off ch=5 par1=68 par2=64
Channel Event. t= 7 (37253) Note Off ch=5 par1=64 par2=64
Channel Event. t= 7 (37260) Note On ch=5 par1=73 par2=31
Channel Event. t= 5 (37265) Note Off ch=5 par1=71 par2=64
Channel Event. t= 45 (37310) Note Off ch=5 par1=73 par2=64
Channel Event. t= 0 (37310) Note On ch=5 par1=71 par2=19
Channel Event. t= 88 (37398) Note On ch=5 par1=68 par2=24
Channel Event. t= 8 (37406) Note On ch=5 par1=64 par2=32
Channel Event. t= 28 (37434) Note Off ch=5 par1=68 par2=64
Channel Event. t= 9 (37443) Note Off ch=5 par1=64 par2=64
Channel Event. t= 61 (37504) Note On ch=5 par1=83 par2=41
Channel Event. t= 19 (37523) Note Off ch=5 par1=71 par2=64
Channel Event. t= 68 (37591) Note On ch=5 par1=67 par2=27
Channel Event. t= 1 (37592) Note On ch=5 par1=64 par2=35
Channel Event. t= 41 (37633) Note Off ch=5 par1=64 par2=64
Channel Event. t= 2 (37635) Note Off ch=5 par1=67 par2=64
Channel Event. t= 60 (37695) Note On ch=5 par1=79 par2=31
Channel Event. t= 11 (37706) Note Off ch=5 par1=83 par2=64
Channel Event. t= 73 (37779) Note On ch=5 par1=76 par2=41
Channel Event. t= 4 (37783) Note On ch=5 par1=64 par2=30
Channel Event. t= 3 (37786) Note Off ch=5 par1=79 par2=64
Channel Event. t= 1 (37787) Note On ch=5 par1=67 par2=14
Channel Event. t= 36 (37823) Note Off ch=5 par1=67 par2=64
Channel Event. t= 1 (37824) Note Off ch=5 par1=64 par2=64
Channel Event. t= 60 (37884) Note On ch=5 par1=71 par2=48
Channel Event. t= 28 (37912) Note Off ch=5 par1=76 par2=64
Channel Event. t= 56 (37968) Note On ch=5 par1=64 par2=31
Channel Event. t= 1 (37969) Note On ch=5 par1=67 par2=21
Channel Event. t= 38 (38007) Note Off ch=5 par1=67 par2=64
Channel Event. t= 3 (38010) Note Off ch=5 par1=64 par2=64
Channel Event. t= 48 (38058) Note Off ch=5 par1=71 par2=64
Channel Event. t= 23 (38081) Note On ch=5 par1=71 par2=30
Channel Event. t= 49 (38130) Note On ch=5 par1=73 par2=39
Channel Event. t= 9 (38139) Note Off ch=5 par1=71 par2=64
Channel Event. t= 27 (38166) Note On ch=5 par1=68 par2=32
Channel Event. t= 2 (38168) Note On ch=5 par1=64 par2=39
Channel Event. t= 7 (38175) Note Off ch=5 par1=73 par2=64
Channel Event. t= 2 (38177) Note On ch=5 par1=71 par2=21
Channel Event. t= 20 (38197) Note Off ch=5 par1=68 par2=64
Channel Event. t= 9 (38206) Note Off ch=5 par1=64 par2=64
Channel Event. t= 7 (38213) Note On ch=5 par1=73 par2=46
Channel Event. t= 3 (38216) Note Off ch=5 par1=71 par2=64
Channel Event. t= 43 (38259) Note Off ch=5 par1=73 par2=64
Channel Event. t= 1 (38260) Note On ch=5 par1=71 par2=33
Channel Event. t= 43 (38303) Note On ch=5 par1=73 par2=39
Channel Event. t= 2 (38305) Note Off ch=5 par1=71 par2=64
Channel Event. t= 45 (38350) Note Off ch=5 par1=73 par2=64
Channel Event. t= 2 (38352) Note On ch=5 par1=68 par2=38
Channel Event. t= 1 (38353) Note On ch=5 par1=64 par2=46
Channel Event. t= 1 (38354) Note On ch=5 par1=71 par2=26
Channel Event. t= 31 (38385) Note Off ch=5 par1=68 par2=64
Channel Event. t= 7 (38392) Note On ch=5 par1=73 par2=42
Channel Event. t= 2 (38394) Note Off ch=5 par1=64 par2=64
Channel Event. t= 4 (38398) Note Off ch=5 par1=71 par2=64
Channel Event. t= 46 (38444) Note Off ch=5 par1=73 par2=64
Channel Event. t= 3 (38447) Note On ch=5 par1=71 par2=41
Channel Event. t= 93 (38540) Note On ch=5 par1=68 par2=38
Channel Event. t= 2 (38542) Note On ch=5 par1=64 par2=40
Channel Event. t= 33 (38575) Note Off ch=5 par1=68 par2=64
Channel Event. t= 4 (38579) Note Off ch=5 par1=64 par2=64
Channel Event. t= 64 (38643) Note On ch=5 par1=83 par2=65
Channel Event. t= 7 (38650) Note Off ch=5 par1=71 par2=64
Channel Event. t= 90 (38740) Note On ch=5 par1=67 par2=39
Channel Event. t= 1 (38741) Note On ch=5 par1=64 par2=48
Channel Event. t= 42 (38783) Note Off ch=5 par1=64 par2=64
Channel Event. t= 1 (38784) Note Off ch=5 par1=67 par2=64
Channel Event. t= 52 (38836) Note On ch=5 par1=79 par2=43
Channel Event. t= 6 (38842) Note Off ch=5 par1=83 par2=64
Channel Event. t= 78 (38920) Note Off ch=5 par1=79 par2=64
Channel Event. t= 10 (38930) Note On ch=5 par1=76 par2=28
Channel Event. t= 1 (38931) Note On ch=5 par1=67 par2=36
Channel Event. t= 5 (38936) Note On ch=5 par1=64 par2=41
Channel Event. t= 35 (38971) Note Off ch=5 par1=67 par2=64
Channel Event. t= 1 (38972) Note Off ch=5 par1=64 par2=64
Channel Event. t= 56 (39028) Note On ch=5 par1=71 par2=36
Channel Event. t= 15 (39043) Note Off ch=5 par1=76 par2=64
Channel Event. t= 77 (39120) Note On ch=5 par1=67 par2=38
Channel Event. t= 5 (39125) Note On ch=5 par1=64 par2=43
Channel Event. t= 26 (39151) Note Off ch=5 par1=67 par2=64
Channel Event. t= 7 (39158) Note Off ch=5 par1=64 par2=64
Channel Event. t= 33 (39191) Note Off ch=5 par1=71 par2=64
Channel Event. t= 31 (39222) Note On ch=5 par1=67 par2=40
Channel Event. t= 9 (39231) Note On ch=5 par1=64 par2=36
Channel Event. t= 1 (39232) Note On ch=5 par1=71 par2=23
Channel Event. t= 2 (39234) Note On ch=5 par1=73 par2=22
Channel Event. t= 80 (39314) Note On ch=5 par1=70 par2=33
Channel Event. t= 2 (39316) Note On ch=5 par1=72 par2=21
Channel Event. t= 18 (39334) Note On ch=5 par1=83 par2=11
Channel Event. t= 3 (39337) Note On ch=5 par1=79 par2=6
Channel Event. t= 35 (39372) Note Off ch=5 par1=67 par2=64
Channel Event. t= 12 (39384) Note Off ch=5 par1=64 par2=64
Channel Event. t= 3 (39387) Note Off ch=5 par1=71 par2=64
Channel Event. t= 12 (39399) Note Off ch=5 par1=73 par2=64
Channel Event. t= 6 (39405) Note On ch=5 par1=67 par2=40
Channel Event. t= 4 (39409) Note On ch=5 par1=64 par2=40
Channel Event. t= 15 (39424) Controller ch=5 par1=7 (Main Volume) par2=80
Channel Event. t= 0 (39424) Note On ch=5 par1=75 par2=40
Channel Event. t= 2 (39426) Note On ch=5 par1=71 par2=40
Channel Event. t= 4 (39430) Note Off ch=5 par1=70 par2=64
Channel Event. t= 6 (39436) Note Off ch=5 par1=72 par2=64
Channel Event. t= 3 (39439) Note Off ch=5 par1=83 par2=64
Channel Event. t= 1 (39440) Note Off ch=5 par1=79 par2=64
Channel Event. t= 59 (39499) Note On ch=5 par1=70 par2=41
Channel Event. t= 0 (39499) Note On ch=5 par1=72 par2=41
Channel Event. t= 19 (39518) Note On ch=5 par1=79 par2=41
Channel Event. t= 1 (39519) Note On ch=5 par1=83 par2=41
Channel Event. t= 7 (39526) Note Off ch=5 par1=67 par2=64
Channel Event. t= 17 (39543) Note Off ch=5 par1=64 par2=64
Channel Event. t= 25 (39568) Controller ch=5 par1=7 (Main Volume) par2=81
Channel Event. t= 30 (39598) Note On ch=5 par1=64 par2=43
Channel Event. t= 1 (39599) Note On ch=5 par1=67 par2=43
Channel Event. t= 2 (39601) Note On ch=5 par1=76 par2=43
Channel Event. t= 5 (39606) Note Off ch=5 par1=75 par2=64
Channel Event. t= 1 (39607) Note Off ch=5 par1=70 par2=64
Channel Event. t= 2 (39609) Note Off ch=5 par1=71 par2=64
Channel Event. t= 2 (39611) Note Off ch=5 par1=79 par2=64
Channel Event. t= 1 (39612) Note Off ch=5 par1=72 par2=64
Channel Event. t= 0 (39612) Note Off ch=5 par1=83 par2=64
Channel Event. t= 0 (39612) Note On ch=5 par1=72 par2=43
Channel Event. t= 82 (39694) Note On ch=5 par1=83 par2=44
Channel Event. t= 2 (39696) Note On ch=5 par1=70 par2=44
Channel Event. t= 3 (39699) Note On ch=5 par1=79 par2=45
Channel Event. t= 13 (39712) Controller ch=5 par1=7 (Main Volume) par2=82
Channel Event. t= 21 (39733) Note Off ch=5 par1=67 par2=64
Channel Event. t= 10 (39743) Note Off ch=5 par1=64 par2=64
Channel Event. t= 53 (39796) Note On ch=5 par1=64 par2=46
Channel Event. t= 1 (39797) Note On ch=5 par1=67 par2=46
Channel Event. t= 0 (39797) Note On ch=5 par1=75 par2=46
Channel Event. t= 2 (39799) Note Off ch=5 par1=79 par2=64
Channel Event. t= 1 (39800) Note Off ch=5 par1=83 par2=64
Channel Event. t= 2 (39802) Note Off ch=5 par1=70 par2=64
Channel Event. t= 7 (39809) Note On ch=5 par1=78 par2=47
Channel Event. t= 1 (39810) Note Off ch=5 par1=72 par2=64
Channel Event. t= 5 (39815) Note Off ch=5 par1=76 par2=64
Channel Event. t= 41 (39856) Controller ch=5 par1=7 (Main Volume) par2=83
Channel Event. t= 36 (39892) Note On ch=5 par1=72 par2=48
Channel Event. t= 1 (39893) Note On ch=5 par1=70 par2=48
Channel Event. t= 6 (39899) Note On ch=5 par1=83 par2=48
Channel Event. t= 2 (39901) Note On ch=5 par1=79 par2=48
Channel Event. t= 20 (39921) Note Off ch=5 par1=67 par2=64
Channel Event. t= 11 (39932) Note Off ch=5 par1=64 par2=64
Channel Event. t= 49 (39981) Note Off ch=5 par1=78 par2=64
Channel Event. t= 4 (39985) Note On ch=5 par1=67 par2=50
Channel Event. t= 1 (39986) Note On ch=5 par1=64 par2=50
Channel Event. t= 1 (39987) Note Off ch=5 par1=75 par2=64
Channel Event. t= 3 (39990) Note Off ch=5 par1=83 par2=64
Channel Event. t= 2 (39992) Note Off ch=5 par1=70 par2=64
Channel Event. t= 0 (39992) Note On ch=5 par1=76 par2=50
Channel Event. t= 2 (39994) Note Off ch=5 par1=72 par2=64
Channel Event. t= 6 (40000) Controller ch=5 par1=7 (Main Volume) par2=84
Channel Event. t= 82 (40082) Note On ch=5 par1=70 par2=51
Channel Event. t= 2 (40084) Note On ch=5 par1=72 par2=52
Channel Event. t= 7 (40091) Note On ch=5 par1=83 par2=52
Channel Event. t= 8 (40099) Note Off ch=5 par1=76 par2=64
Channel Event. t= 16 (40115) Note Off ch=5 par1=67 par2=64
Channel Event. t= 10 (40125) Note Off ch=5 par1=64 par2=64
Channel Event. t= 19 (40144) Controller ch=5 par1=7 (Main Volume) par2=85
Channel Event. t= 28 (40172) Note On ch=5 par1=64 par2=53
Channel Event. t= 2 (40174) Note On ch=5 par1=67 par2=53
Channel Event. t= 11 (40185) Note Off ch=5 par1=70 par2=64
Channel Event. t= 3 (40188) Note Off ch=5 par1=72 par2=64
Channel Event. t= 2 (40190) Note On ch=5 par1=72 par2=53
Channel Event. t= 3 (40193) Note On ch=5 par1=75 par2=54
Channel Event. t= 6 (40199) Note Off ch=5 par1=83 par2=64
Channel Event. t= 5 (40204) Note Off ch=5 par1=79 par2=64
Channel Event. t= 67 (40271) Note On ch=5 par1=70 par2=55
Channel Event. t= 12 (40283) Note On ch=5 par1=83 par2=55
Channel Event. t= 5 (40288) Controller ch=5 par1=7 (Main Volume) par2=86
Channel Event. t= 0 (40288) Note On ch=5 par1=79 par2=55
Channel Event. t= 31 (40319) Note Off ch=5 par1=67 par2=64
Channel Event. t= 6 (40325) Note Off ch=5 par1=64 par2=64
Channel Event. t= 16 (40341) Note Off ch=5 par1=75 par2=64
Channel Event. t= 27 (40368) Note On ch=5 par1=67 par2=57
Channel Event. t= 1 (40369) Note On ch=5 par1=64 par2=57
Channel Event. t= 4 (40373) Note On ch=5 par1=78 par2=57
Channel Event. t= 2 (40375) Note On ch=5 par1=75 par2=57
Channel Event. t= 6 (40381) Note Off ch=5 par1=70 par2=64
Channel Event. t= 4 (40385) Note Off ch=5 par1=83 par2=64
Channel Event. t= 0 (40385) Note Off ch=5 par1=79 par2=64
Channel Event. t= 6 (40391) Note Off ch=5 par1=72 par2=64
Channel Event. t= 41 (40432) Controller ch=5 par1=7 (Main Volume) par2=87
Channel Event. t= 38 (40470) Note On ch=5 par1=72 par2=59
Channel Event. t= 1 (40471) Note On ch=5 par1=70 par2=59
Channel Event. t= 1 (40472) Note On ch=5 par1=83 par2=59
Channel Event. t= 1 (40473) Note On ch=5 par1=79 par2=59
Channel Event. t= 41 (40514) Note Off ch=5 par1=67 par2=64
Channel Event. t= 7 (40521) Note Off ch=5 par1=64 par2=64
Channel Event. t= 16 (40537) Note Off ch=5 par1=78 par2=64
Channel Event. t= 24 (40561) Note On ch=5 par1=67 par2=60
Channel Event. t= 1 (40562) Note On ch=5 par1=64 par2=60
Channel Event. t= 5 (40567) Note Off ch=5 par1=70 par2=64
Channel Event. t= 1 (40568) Note Off ch=5 par1=75 par2=64
Channel Event. t= 0 (40568) Note On ch=5 par1=76 par2=60
Channel Event. t= 1 (40569) Note Off ch=5 par1=72 par2=64
Channel Event. t= 4 (40573) Note Off ch=5 par1=83 par2=64
Channel Event. t= 3 (40576) Controller ch=5 par1=7 (Main Volume) par2=88
Channel Event. t= 79 (40655) Note On ch=5 par1=72 par2=62
Channel Event. t= 1 (40656) Note On ch=5 par1=70 par2=62
Channel Event. t= 4 (40660) Note On ch=5 par1=83 par2=62
Channel Event. t= 42 (40702) Note Off ch=5 par1=67 par2=64
Channel Event. t= 6 (40708) Note Off ch=5 par1=64 par2=64
Channel Event. t= 12 (40720) Controller ch=5 par1=7 (Main Volume) par2=89
Channel Event. t= 27 (40747) Note On ch=5 par1=67 par2=64
Channel Event. t= 3 (40750) Note Off ch=5 par1=70 par2=64
Channel Event. t= 0 (40750) Note On ch=5 par1=64 par2=64
Channel Event. t= 5 (40755) Note Off ch=5 par1=72 par2=64
Channel Event. t= 4 (40759) Note On ch=5 par1=78 par2=64
Channel Event. t= 3 (40762) Note On ch=5 par1=75 par2=64
Channel Event. t= 1 (40763) Note Off ch=5 par1=79 par2=64
Channel Event. t= 0 (40763) Note Off ch=5 par1=83 par2=64
Channel Event. t= 2 (40765) Note Off ch=5 par1=76 par2=64
Channel Event. t= 81 (40846) Note On ch=5 par1=70 par2=65
Channel Event. t= 1 (40847) Note On ch=5 par1=72 par2=65
Channel Event. t= 9 (40856) Note On ch=5 par1=83 par2=66
Channel Event. t= 2 (40858) Note On ch=5 par1=79 par2=66
Channel Event. t= 6 (40864) Controller ch=5 par1=7 (Main Volume) par2=90
Channel Event. t= 33 (40897) Note Off ch=5 par1=64 par2=64
Channel Event. t= 1 (40898) Note Off ch=5 par1=67 par2=64
Channel Event. t= 42 (40940) Note On ch=5 par1=67 par2=67
Channel Event. t= 5 (40945) Note On ch=5 par1=64 par2=67
Channel Event. t= 1 (40946) Note Off ch=5 par1=83 par2=64
Channel Event. t= 0 (40946) Note Off ch=5 par1=79 par2=64
Channel Event. t= 4 (40950) Note On ch=5 par1=76 par2=67
Channel Event. t= 3 (40953) Note Off ch=5 par1=70 par2=64
Channel Event. t= 2 (40955) Note Off ch=5 par1=78 par2=64
Channel Event. t= 0 (40955) Note Off ch=5 par1=75 par2=64
Channel Event. t= 2 (40957) Note Off ch=5 par1=72 par2=64
Channel Event. t= 2 (40959) Note On ch=5 par1=73 par2=67
Channel Event. t= 49 (41008) Controller ch=5 par1=7 (Main Volume) par2=91
Channel Event. t= 37 (41045) Note On ch=5 par1=83 par2=69
Channel Event. t= 2 (41047) Note On ch=5 par1=72 par2=69
Channel Event. t= 3 (41050) Note On ch=5 par1=79 par2=69
Channel Event. t= 1 (41051) Note On ch=5 par1=70 par2=69
Channel Event. t= 42 (41093) Note Off ch=5 par1=67 par2=64
Channel Event. t= 4 (41097) Note Off ch=5 par1=64 par2=64
Channel Event. t= 32 (41129) Note Off ch=5 par1=79 par2=64
Channel Event. t= 2 (41131) Note Off ch=5 par1=83 par2=64
Channel Event. t= 0 (41131) Note On ch=5 par1=78 par2=71
Channel Event. t= 4 (41135) Note On ch=5 par1=67 par2=71
Channel Event. t= 4 (41139) Note On ch=5 par1=64 par2=71
Channel Event. t= 4 (41143) Note Off ch=5 par1=70 par2=64
Channel Event. t= 2 (41145) Note On ch=5 par1=75 par2=71
Channel Event. t= 1 (41146) Note Off ch=5 par1=72 par2=64
Channel Event. t= 6 (41152) Note Off ch=5 par1=73 par2=64
Channel Event. t= 0 (41152) Controller ch=5 par1=7 (Main Volume) par2=92
Channel Event. t= 4 (41156) Note Off ch=5 par1=76 par2=64
Channel Event. t= 77 (41233) Note On ch=5 par1=72 par2=72
Channel Event. t= 1 (41234) Note On ch=5 par1=83 par2=72
Channel Event. t= 1 (41235) Note On ch=5 par1=70 par2=72
Channel Event. t= 3 (41238) Note On ch=5 par1=79 par2=73
Channel Event. t= 42 (41280) Note Off ch=5 par1=67 par2=64
Channel Event. t= 1 (41281) Note Off ch=5 par1=64 par2=64
Channel Event. t= 2 (41283) Note Off ch=5 par1=78 par2=64
Channel Event. t= 13 (41296) Controller ch=5 par1=7 (Main Volume) par2=93
Channel Event. t= 33 (41329) Note Off ch=5 par1=83 par2=64
Channel Event. t= 0 (41329) Note On ch=5 par1=67 par2=74
Channel Event. t= 4 (41333) Note On ch=5 par1=64 par2=74
Channel Event. t= 6 (41339) Note On ch=5 par1=76 par2=74
Channel Event. t= 4 (41343) Note Off ch=5 par1=70 par2=64
Channel Event. t= 4 (41347) Note Off ch=5 par1=72 par2=64
Channel Event. t= 1 (41348) Note Off ch=5 par1=75 par2=64
Channel Event. t= 77 (41425) Note On ch=5 par1=83 par2=76
Channel Event. t= 4 (41429) Note On ch=5 par1=72 par2=76
Channel Event. t= 1 (41430) Note On ch=5 par1=70 par2=76
Channel Event. t= 10 (41440) Controller ch=5 par1=7 (Main Volume) par2=94
Channel Event. t= 17 (41457) Note Off ch=5 par1=76 par2=64
Channel Event. t= 22 (41479) Note Off ch=5 par1=67 par2=64
Channel Event. t= 2 (41481) Note Off ch=5 par1=64 par2=64
Channel Event. t= 43 (41524) Note On ch=5 par1=67 par2=78
Channel Event. t= 3 (41527) Note On ch=5 par1=64 par2=78
Channel Event. t= 3 (41530) Note On ch=5 par1=76 par2=78
Channel Event. t= 7 (41537) Note Off ch=5 par1=70 par2=64
Channel Event. t= 1 (41538) Note Off ch=5 par1=83 par2=64
Channel Event. t= 5 (41543) Note Off ch=5 par1=72 par2=64
Channel Event. t= 41 (41584) Controller ch=5 par1=7 (Main Volume) par2=95
Channel Event. t= 35 (41619) Note On ch=5 par1=72 par2=79
Channel Event. t= 5 (41624) Note On ch=5 par1=70 par2=80
Channel Event. t= 0 (41624) Note On ch=5 par1=81 par2=80
Channel Event. t= 41 (41665) Note Off ch=5 par1=67 par2=64
Channel Event. t= 5 (41670) Note Off ch=5 par1=64 par2=64
Channel Event. t= 17 (41687) Note Off ch=5 par1=79 par2=64
Channel Event. t= 11 (41698) Note Off ch=5 par1=76 par2=64
Channel Event. t= 14 (41712) Note On ch=5 par1=79 par2=81
Channel Event. t= 2 (41714) Note On ch=5 par1=67 par2=81
Channel Event. t= 1 (41715) Note On ch=5 par1=76 par2=81
Channel Event. t= 2 (41717) Note Off ch=5 par1=81 par2=64
Channel Event. t= 2 (41719) Note On ch=5 par1=64 par2=81
Channel Event. t= 3 (41722) Note Off ch=5 par1=70 par2=64
Channel Event. t= 5 (41727) Note Off ch=5 par1=72 par2=64
Channel Event. t= 1 (41728) Controller ch=5 par1=7 (Main Volume) par2=96
Channel Event. t= 75 (41803) Note On ch=5 par1=72 par2=83
Channel Event. t= 3 (41806) Note On ch=5 par1=70 par2=83
Channel Event. t= 6 (41812) Note On ch=5 par1=82 par2=83
Channel Event. t= 32 (41844) Note Off ch=5 par1=76 par2=64
Channel Event. t= 10 (41854) Note Off ch=5 par1=67 par2=64
Channel Event. t= 6 (41860) Note Off ch=5 par1=64 par2=64
Channel Event. t= 12 (41872) Controller ch=5 par1=7 (Main Volume) par2=97
Channel Event. t= 26 (41898) Note On ch=5 par1=67 par2=85
Channel Event. t= 3 (41901) Note Off ch=5 par1=70 par2=64
Channel Event. t= 1 (41902) Note On ch=5 par1=64 par2=85
Channel Event. t= 5 (41907) Note Off ch=5 par1=72 par2=64
Channel Event. t= 4 (41911) Note On ch=5 par1=76 par2=85
Channel Event. t= 9 (41920) Note Off ch=5 par1=82 par2=64
Channel Event. t= 68 (41988) Note On ch=5 par1=72 par2=86
Channel Event. t= 1 (41989) Note On ch=5 par1=70 par2=86
Channel Event. t= 10 (41999) Note On ch=5 par1=83 par2=86
Channel Event. t= 17 (42016) Controller ch=5 par1=7 (Main Volume) par2=98
Channel Event. t= 11 (42027) Note Off ch=5 par1=76 par2=64
Channel Event. t= 8 (42035) Note Off ch=5 par1=67 par2=64
Channel Event. t= 30 (42065) Note Off ch=5 par1=70 par2=64
Channel Event. t= 9 (42074) Note Off ch=5 par1=72 par2=64
Channel Event. t= 15 (42089) Note On ch=5 par1=67 par2=88
Channel Event. t= 0 (42089) Note On ch=5 par1=71 par2=88
Channel Event. t= 5 (42094) Note Off ch=5 par1=64 par2=64
Channel Event. t= 1 (42095) Note On ch=5 par1=76 par2=88
Channel Event. t= 34 (42129) Note Off ch=5 par1=83 par2=64
Channel Event. t= 31 (42160) Controller ch=5 par1=7 (Main Volume) par2=99
Channel Event. t= 24 (42184) Note On ch=5 par1=73 par2=90
Channel Event. t= 8 (42192) Note On ch=5 par1=84 par2=90
Channel Event. t= 0 (42192) Note On ch=5 par1=80 par2=90
Channel Event. t= 43 (42235) Note Off ch=5 par1=76 par2=64
Channel Event. t= 2 (42237) Note Off ch=5 par1=79 par2=64
Channel Event. t= 5 (42242) Note Off ch=5 par1=67 par2=64
Channel Event. t= 1 (42243) Note Off ch=5 par1=71 par2=64
Channel Event. t= 34 (42277) Note On ch=5 par1=79 par2=91
Channel Event. t= 3 (42280) Note On ch=5 par1=71 par2=92
Channel Event. t= 1 (42281) Note On ch=5 par1=67 par2=92
Channel Event. t= 1 (42282) Note On ch=5 par1=76 par2=92
Channel Event. t= 10 (42292) Note Off ch=5 par1=80 par2=64
Channel Event. t= 4 (42296) Note Off ch=5 par1=84 par2=64
Channel Event. t= 1 (42297) Note Off ch=5 par1=73 par2=64
Channel Event. t= 7 (42304) Controller ch=5 par1=7 (Main Volume) par2=100
Channel Event. t= 74 (42378) Note On ch=5 par1=73 par2=93
Channel Event. t= 5 (42383) Note On ch=5 par1=85 par2=93
Channel Event. t= 1 (42384) Note On ch=5 par1=82 par2=93
Channel Event. t= 39 (42423) Note Off ch=5 par1=71 par2=64
Channel Event. t= 6 (42429) Note Off ch=5 par1=79 par2=64
Channel Event. t= 0 (42429) Note Off ch=5 par1=76 par2=64
Channel Event. t= 3 (42432) Note Off ch=5 par1=67 par2=64
Channel Event. t= 16 (42448) Controller ch=5 par1=7 (Main Volume) par2=101
Channel Event. t= 23 (42471) Note On ch=5 par1=79 par2=95
Channel Event. t= 3 (42474) Note On ch=5 par1=76 par2=95
Channel Event. t= 1 (42475) Note On ch=5 par1=67 par2=95
Channel Event. t= 1 (42476) Note On ch=5 par1=71 par2=95
Channel Event. t= 9 (42485) Note Off ch=5 par1=73 par2=64
Channel Event. t= 4 (42489) Note Off ch=5 par1=82 par2=64
Channel Event. t= 11 (42500) Note Off ch=5 par1=85 par2=64
Channel Event. t= 67 (42567) Note On ch=5 par1=73 par2=97
Channel Event. t= 10 (42577) Note On ch=5 par1=86 par2=97
Channel Event. t= 0 (42577) Note On ch=5 par1=83 par2=97
Channel Event. t= 9 (42586) Note Off ch=5 par1=67 par2=64
Channel Event. t= 6 (42592) Controller ch=5 par1=7 (Main Volume) par2=102
Channel Event. t= 17 (42609) Note Off ch=5 par1=76 par2=64
Channel Event. t= 5 (42614) Note Off ch=5 par1=71 par2=64
Channel Event. t= 3 (42617) Note Off ch=5 par1=79 par2=64
Channel Event. t= 42 (42659) Note Off ch=5 par1=83 par2=64
Channel Event. t= 3 (42662) Note Off ch=5 par1=73 par2=64
Channel Event. t= 5 (42667) Note On ch=5 par1=71 par2=99
Channel Event. t= 2 (42669) Note On ch=5 par1=73 par2=99
Channel Event. t= 0 (42669) Note On ch=5 par1=79 par2=99
Channel Event. t= 13 (42682) Note On ch=5 par1=83 par2=99
Channel Event. t= 4 (42686) Note Off ch=5 par1=86 par2=64
Channel Event. t= 50 (42736) Controller ch=5 par1=7 (Main Volume) par2=103
Channel Event. t= 34 (42770) Note On ch=5 par1=76 par2=100
Channel Event. t= 2 (42772) Note On ch=5 par1=87 par2=100
Channel Event. t= 5 (42777) Note On ch=5 par1=84 par2=101
Channel Event. t= 10 (42787) Note Off ch=5 par1=83 par2=64
Channel Event. t= 18 (42805) Note Off ch=5 par1=79 par2=64
Channel Event. t= 28 (42833) Note Off ch=5 par1=73 par2=64
Channel Event. t= 7 (42840) Note Off ch=5 par1=71 par2=64
Channel Event. t= 22 (42862) Note On ch=5 par1=71 par2=102
Channel Event. t= 2 (42864) Note On ch=5 par1=73 par2=102
Channel Event. t= 7 (42871) Note On ch=5 par1=79 par2=102
Channel Event. t= 0 (42871) Note On ch=5 par1=83 par2=102
Channel Event. t= 9 (42880) Controller ch=5 par1=7 (Main Volume) par2=104
Channel Event. t= 5 (42885) Note Off ch=5 par1=84 par2=64
Channel Event. t= 11 (42896) Note Off ch=5 par1=87 par2=64
Channel Event. t= 2 (42898) Note Off ch=5 par1=76 par2=64
Channel Event. t= 66 (42964) Note On ch=5 par1=76 par2=104
Channel Event. t= 3 (42967) Note On ch=5 par1=88 par2=104
Channel Event. t= 2 (42969) Note On ch=5 par1=85 par2=104
Channel Event. t= 17 (42986) Note Off ch=5 par1=79 par2=64
Channel Event. t= 0 (42986) Note Off ch=5 par1=83 par2=64
Channel Event. t= 14 (43000) Note Off ch=5 par1=73 par2=64
Channel Event. t= 21 (43021) Note Off ch=5 par1=71 par2=64
Channel Event. t= 3 (43024) Controller ch=5 par1=7 (Main Volume) par2=105
Channel Event. t= 29 (43053) Note Off ch=5 par1=88 par2=64
Channel Event. t= 1 (43054) Note Off ch=5 par1=85 par2=64
Channel Event. t= 5 (43059) Note On ch=5 par1=73 par2=106
Channel Event. t= 0 (43059) Note On ch=5 par1=83 par2=106
Channel Event. t= 1 (43060) Note On ch=5 par1=71 par2=106
Channel Event. t= 1 (43061) Note On ch=5 par1=79 par2=106
Channel Event. t= 15 (43076) Note Off ch=5 par1=76 par2=64
Channel Event. t= 75 (43151) Note On ch=5 par1=76 par2=107
Channel Event. t= 2 (43153) Note Off ch=5 par1=83 par2=64
Channel Event. t= 4 (43157) Note On ch=5 par1=90 par2=108
Channel Event. t= 4 (43161) Note On ch=5 par1=87 par2=108
Channel Event. t= 7 (43168) Controller ch=5 par1=7 (Main Volume) par2=106
Channel Event. t= 4 (43172) Note Off ch=5 par1=79 par2=64
Channel Event. t= 11 (43183) Note Off ch=5 par1=87 par2=64
Channel Event. t= 29 (43212) Note Off ch=5 par1=90 par2=64
Channel Event. t= 13 (43225) Note Off ch=5 par1=73 par2=64
Channel Event. t= 13 (43238) Note Off ch=5 par1=76 par2=64
Channel Event. t= 16 (43254) Note On ch=5 par1=76 par2=115
Channel Event. t= 0 (43254) Note On ch=5 par1=91 par2=115
Channel Event. t= 1 (43255) Note On ch=5 par1=72 par2=115
Channel Event. t= 0 (43255) Note On ch=5 par1=79 par2=115
Channel Event. t= 2 (43257) Note On ch=5 par1=73 par2=115
Channel Event. t= 0 (43257) Note On ch=5 par1=78 par2=115
Channel Event. t= 3 (43260) Note On ch=5 par1=84 par2=115
Channel Event. t= 0 (43260) Note On ch=5 par1=88 par2=115
Channel Event. t= 3 (43263) Note Off ch=5 par1=71 par2=64
Channel Event. t= 1 (43264) Note On ch=5 par1=70 par2=115
Channel Event. t= 20 (43284) Note Off ch=5 par1=78 par2=64
Channel Event. t= 23 (43307) Note On ch=5 par1=78 par2=115
Channel Event. t= 5 (43312) Controller ch=5 par1=7 (Main Volume) par2=107
Channel Event. t= 21 (43333) Note Off ch=5 par1=78 par2=64
Channel Event. t= 22 (43355) Note On ch=5 par1=78 par2=115
Channel Event. t= 28 (43383) Note Off ch=5 par1=78 par2=64
Channel Event. t= 22 (43405) Note On ch=5 par1=78 par2=115
Channel Event. t= 26 (43431) Note Off ch=5 par1=78 par2=64
Channel Event. t= 25 (43456) Controller ch=5 par1=7 (Main Volume) par2=108
Channel Event. t= 5 (43461) Note On ch=5 par1=78 par2=116
Channel Event. t= 27 (43488) Note Off ch=5 par1=78 par2=64
Channel Event. t= 22 (43510) Note On ch=5 par1=78 par2=116
Channel Event. t= 23 (43533) Note Off ch=5 par1=78 par2=64
Channel Event. t= 24 (43557) Note On ch=5 par1=78 par2=116
Channel Event. t= 25 (43582) Note Off ch=5 par1=78 par2=64
Channel Event. t= 18 (43600) Controller ch=5 par1=7 (Main Volume) par2=109
Channel Event. t= 5 (43605) Note On ch=5 par1=78 par2=116
Channel Event. t= 28 (43633) Note Off ch=5 par1=78 par2=64
Channel Event. t= 25 (43658) Note On ch=5 par1=78 par2=117
Channel Event. t= 31 (43689) Note Off ch=5 par1=78 par2=64
Channel Event. t= 22 (43711) Note On ch=5 par1=78 par2=117
Channel Event. t= 2 (43713) Note Off ch=5 par1=73 par2=64
Channel Event. t= 9 (43722) Note Off ch=5 par1=76 par2=64
Channel Event. t= 4 (43726) Note Off ch=5 par1=70 par2=64
Channel Event. t= 7 (43733) Note Off ch=5 par1=72 par2=64
Channel Event. t= 8 (43741) Note Off ch=5 par1=78 par2=64
Channel Event. t= 3 (43744) Controller ch=5 par1=7 (Main Volume) par2=110
Channel Event. t= 24 (43768) Note On ch=5 par1=78 par2=117
Channel Event. t= 29 (43797) Note Off ch=5 par1=78 par2=64
Channel Event. t= 18 (43815) Note On ch=5 par1=78 par2=117
Channel Event. t= 24 (43839) Note Off ch=5 par1=91 par2=64
Channel Event. t= 1 (43840) Note On ch=5 par1=61 par2=117
Channel Event. t= 0 (43840) Note On ch=5 par1=64 par2=117
Channel Event. t= 0 (43840) Note On ch=5 par1=58 par2=117
Channel Event. t= 0 (43840) Note On ch=5 par1=82 par2=117
Channel Event. t= 0 (43840) Note On ch=5 par1=85 par2=117
Channel Event. t= 0 (43840) Note On ch=5 par1=76 par2=117
Channel Event. t= 0 (43840) Note On ch=5 par1=73 par2=117
Channel Event. t= 0 (43840) Note On ch=5 par1=70 par2=117
Channel Event. t= 3 (43843) Note Off ch=5 par1=88 par2=64
Channel Event. t= 0 (43843) Note Off ch=5 par1=84 par2=64
Channel Event. t= 1 (43844) Note Off ch=5 par1=78 par2=64
Channel Event. t= 9 (43853) Note Off ch=5 par1=79 par2=64
Channel Event. t= 35 (43888) Controller ch=5 par1=7 (Main Volume) par2=111
Channel Event. t= 143 (44031) Controller ch=5 par1=7 (Main Volume) par2=112
Channel Event. t= 2 (44033) Note Off ch=5 par1=58 par2=64
Channel Event. t= 0 (44033) Note Off ch=5 par1=64 par2=64
Channel Event. t= 0 (44033) Note Off ch=5 par1=61 par2=64
Channel Event. t= 20 (44053) Note Off ch=5 par1=70 par2=64
Channel Event. t= 11 (44064) Note Off ch=5 par1=76 par2=64
Channel Event. t= 2 (44066) Note Off ch=5 par1=82 par2=64
Channel Event. t= 3 (44069) Note Off ch=5 par1=73 par2=64
Channel Event. t= 11 (44080) Note Off ch=5 par1=85 par2=64
Channel Event. t= 135 (44215) Note On ch=5 par1=87 par2=119
Channel Event. t= 1 (44216) Note On ch=5 par1=72 par2=119
Channel Event. t= 0 (44216) Note On ch=5 par1=75 par2=119
Channel Event. t= 8 (44224) Note On ch=5 par1=60 par2=119
Channel Event. t= 0 (44224) Note On ch=5 par1=63 par2=119
Channel Event. t= 0 (44224) Note On ch=5 par1=66 par2=119
Channel Event. t= 76 (44300) Note Off ch=5 par1=75 par2=64
Channel Event. t= 24 (44324) Note Off ch=5 par1=87 par2=64
Channel Event. t= 2 (44326) Note Off ch=5 par1=72 par2=64
Channel Event. t= 71 (44397) Note Off ch=5 par1=60 par2=64
Channel Event. t= 0 (44397) Note Off ch=5 par1=63 par2=64
Channel Event. t= 3 (44400) Note Off ch=5 par1=66 par2=64
Channel Event. t= 16 (44416) Note On ch=5 par1=72 par2=120
Channel Event. t= 0 (44416) Note On ch=5 par1=75 par2=120
Channel Event. t= 0 (44416) Note On ch=5 par1=78 par2=120
Channel Event. t= 0 (44416) Note On ch=5 par1=74 par2=120
Channel Event. t= 5 (44421) Note On ch=5 par1=93 par2=121
Channel Event. t= 2 (44423) Note On ch=5 par1=81 par2=121
Channel Event. t= 6 (44429) Note On ch=5 par1=80 par2=121
Channel Event. t= 27 (44456) Note Off ch=5 par1=80 par2=64
Channel Event. t= 20 (44476) Note On ch=5 par1=80 par2=121
Channel Event. t= 28 (44504) Note Off ch=5 par1=80 par2=64
Channel Event. t= 17 (44521) Note On ch=5 par1=80 par2=121
Channel Event. t= 28 (44549) Note Off ch=5 par1=80 par2=64
Channel Event. t= 17 (44566) Note On ch=5 par1=80 par2=121
Channel Event. t= 29 (44595) Note Off ch=5 par1=80 par2=64
Channel Event. t= 21 (44616) Note On ch=5 par1=80 par2=122
Channel Event. t= 29 (44645) Note Off ch=5 par1=80 par2=64
Channel Event. t= 16 (44661) Note On ch=5 par1=80 par2=122
Channel Event. t= 30 (44691) Note Off ch=5 par1=80 par2=64
Channel Event. t= 17 (44708) Note On ch=5 par1=80 par2=122
Channel Event. t= 31 (44739) Note Off ch=5 par1=80 par2=64
Channel Event. t= 17 (44756) Note On ch=5 par1=80 par2=122
Channel Event. t= 32 (44788) Note Off ch=5 par1=80 par2=64
Channel Event. t= 16 (44804) Note On ch=5 par1=80 par2=123
Channel Event. t= 34 (44838) Note Off ch=5 par1=80 par2=64
Channel Event. t= 18 (44856) Note On ch=5 par1=80 par2=123
Channel Event. t= 32 (44888) Note Off ch=5 par1=80 par2=64
Channel Event. t= 22 (44910) Note On ch=5 par1=80 par2=123
Channel Event. t= 29 (44939) Note Off ch=5 par1=80 par2=64
Channel Event. t= 26 (44965) Note On ch=5 par1=80 par2=123
Channel Event. t= 25 (44990) Note Off ch=5 par1=80 par2=64
Channel Event. t= 2 (44992) Note Off ch=5 par1=81 par2=64
Channel Event. t= 0 (44992) Note Off ch=5 par1=93 par2=64
Channel Event. t= 0 (44992) Note Off ch=5 par1=74 par2=64
Channel Event. t= 0 (44992) Note Off ch=5 par1=78 par2=64
Channel Event. t= 0 (44992) Note Off ch=5 par1=75 par2=64
Channel Event. t= 0 (44992) Note Off ch=5 par1=72 par2=64
Channel Event. t= 0 (44992) Note On ch=5 par1=66 par2=123
Channel Event. t= 0 (44992) Note On ch=5 par1=87 par2=123
Channel Event. t= 4 (44996) Note On ch=5 par1=63 par2=124
Channel Event. t= 1 (44997) Note On ch=5 par1=60 par2=124
Channel Event. t= 187 (45184) Note Off ch=5 par1=66 par2=64
Channel Event. t= 0 (45184) Note Off ch=5 par1=87 par2=64
Channel Event. t= 4 (45188) Note Off ch=5 par1=63 par2=64
Channel Event. t= 1 (45189) Note Off ch=5 par1=60 par2=64
Channel Event. t= 835 (46024) Controller ch=5 par1=7 (Main Volume) par2=70
Channel Event. t= 123 (46147) Note On ch=5 par1=86 par2=45
Channel Event. t= 92 (46239) Note Off ch=5 par1=86 par2=64
Channel Event. t= 12 (46251) Note On ch=5 par1=84 par2=19
Channel Event. t= 85 (46336) Note On ch=5 par1=79 par2=61
Channel Event. t= 2 (46338) Note On ch=5 par1=82 par2=48
Channel Event. t= 1 (46339) Note Off ch=5 par1=84 par2=64
Channel Event. t= 81 (46420) Note Off ch=5 par1=79 par2=64
Channel Event. t= 4 (46424) Note Off ch=5 par1=82 par2=64
Channel Event. t= 8 (46432) Note On ch=5 par1=81 par2=50
Channel Event. t= 2 (46434) Note On ch=5 par1=84 par2=36
Channel Event. t= 94 (46528) Note On ch=5 par1=82 par2=66
Channel Event. t= 4 (46532) Note Off ch=5 par1=81 par2=64
Channel Event. t= 1 (46533) Note Off ch=5 par1=84 par2=64
Channel Event. t= 5 (46538) Note On ch=5 par1=86 par2=43
Channel Event. t= 166 (46704) Note Off ch=5 par1=86 par2=64
Channel Event. t= 16 (46720) Note On ch=5 par1=81 par2=61
Channel Event. t= 5 (46725) Note Off ch=5 par1=82 par2=64
Channel Event. t= 3 (46728) Note On ch=5 par1=85 par2=45
Channel Event. t= 1 (46729) Note On ch=5 par1=88 par2=56
Channel Event. t= 191 (46920) Note Off ch=5 par1=85 par2=64
Channel Event. t= 1 (46921) Note On ch=5 par1=91 par2=73
Channel Event. t= 3 (46924) Note On ch=5 par1=84 par2=59
Channel Event. t= 1 (46925) Note Off ch=5 par1=88 par2=64
Channel Event. t= 5 (46930) Note Off ch=5 par1=81 par2=64
Channel Event. t= 181 (47111) Note On ch=5 par1=88 par2=48
Channel Event. t= 1 (47112) Note Off ch=5 par1=84 par2=64
Channel Event. t= 2 (47114) Note On ch=5 par1=85 par2=57
Channel Event. t= 4 (47118) Note Off ch=5 par1=91 par2=64
Channel Event. t= 125 (47243) Note Off ch=5 par1=88 par2=64
Channel Event. t= 9 (47252) Note Off ch=5 par1=85 par2=64
Channel Event. t= 44 (47296) Note On ch=5 par1=82 par2=61
Channel Event. t= 9 (47305) Note On ch=5 par1=86 par2=74
Channel Event. t= 85 (47390) Note Off ch=5 par1=82 par2=64
Channel Event. t= 2 (47392) Note On ch=5 par1=81 par2=59
Channel Event. t= 6 (47398) Note On ch=5 par1=84 par2=60
Channel Event. t= 4 (47402) Note Off ch=5 par1=86 par2=64
Channel Event. t= 86 (47488) Note On ch=5 par1=79 par2=63
Channel Event. t= 6 (47494) Note On ch=5 par1=82 par2=63
Channel Event. t= 6 (47500) Note Off ch=5 par1=81 par2=64
Channel Event. t= 0 (47500) Note Off ch=5 par1=84 par2=64
Channel Event. t= 81 (47581) Note Off ch=5 par1=79 par2=64
Channel Event. t= 3 (47584) Note On ch=5 par1=81 par2=57
Channel Event. t= 12 (47596) Note On ch=5 par1=84 par2=64
Channel Event. t= 6 (47602) Note Off ch=5 par1=82 par2=64
Channel Event. t= 76 (47678) Note Off ch=5 par1=81 par2=64
Channel Event. t= 2 (47680) Note On ch=5 par1=82 par2=64
Channel Event. t= 12 (47692) Note Off ch=5 par1=84 par2=64
Channel Event. t= 2 (47694) Note On ch=5 par1=86 par2=67
Channel Event. t= 151 (47845) Note Off ch=5 par1=86 par2=64
Channel Event. t= 27 (47872) Note On ch=5 par1=81 par2=60
Channel Event. t= 3 (47875) Note Off ch=5 par1=82 par2=64
Channel Event. t= 8 (47883) Note On ch=5 par1=88 par2=61
Channel Event. t= 3 (47886) Note On ch=5 par1=85 par2=51
Channel Event. t= 144 (48030) Note Off ch=5 par1=85 par2=64
Channel Event. t= 20 (48050) Note Off ch=5 par1=81 par2=64
Channel Event. t= 2 (48052) Note Off ch=5 par1=88 par2=64
Channel Event. t= 12 (48064) Note On ch=5 par1=81 par2=63
Channel Event. t= 4 (48068) Note On ch=5 par1=91 par2=71
Channel Event. t= 12 (48080) Note On ch=5 par1=84 par2=55
Channel Event. t= 78 (48158) Note Off ch=5 par1=91 par2=64
Channel Event. t= 30 (48188) Note Off ch=5 par1=84 par2=64
Channel Event. t= 38 (48226) Note On ch=5 par1=76 par2=66
Channel Event. t= 4 (48230) Note Off ch=5 par1=81 par2=64
Channel Event. t= 25 (48255) Note On ch=5 par1=88 par2=51
Channel Event. t= 1 (48256) Note On ch=5 par1=81 par2=63
Channel Event. t= 23 (48279) Note Off ch=5 par1=76 par2=64
Channel Event. t= 73 (48352) Note On ch=5 par1=85 par2=68
Channel Event. t= 13 (48365) Note Off ch=5 par1=88 par2=64
Channel Event. t= 83 (48448) Note On ch=5 par1=82 par2=75
Channel Event. t= 0 (48448) Note On ch=5 par1=77 par2=58
Channel Event. t= 8 (48456) Note Off ch=5 par1=81 par2=64
Channel Event. t= 1 (48457) Note On ch=5 par1=86 par2=63
Channel Event. t= 4 (48461) Note Off ch=5 par1=85 par2=64
Channel Event. t= 573 (49034) Note Off ch=5 par1=82 par2=64
Channel Event. t= 4 (49038) Note Off ch=5 par1=77 par2=64
Channel Event. t= 14 (49052) Note Off ch=5 par1=86 par2=64
Channel Event. t= 163 (49215) Note On ch=5 par1=84 par2=47
Channel Event. t= 1 (49216) Note On ch=5 par1=75 par2=66
Channel Event. t= 6 (49222) Note On ch=5 par1=79 par2=39
Channel Event. t= 165 (49387) Note Off ch=5 par1=75 par2=64
Channel Event. t= 17 (49404) Note Off ch=5 par1=84 par2=64
Channel Event. t= 0 (49404) Note On ch=5 par1=83 par2=55
Channel Event. t= 4 (49408) Note On ch=5 par1=75 par2=60
Channel Event. t= 1 (49409) Note Off ch=5 par1=79 par2=64
Channel Event. t= 2 (49411) Note On ch=5 par1=78 par2=34
Channel Event. t= 189 (49600) Note On ch=5 par1=77 par2=69
Channel Event. t= 6 (49606) Note On ch=5 par1=81 par2=56
Channel Event. t= 11 (49617) Note Off ch=5 par1=78 par2=64
Channel Event. t= 2 (49619) Note Off ch=5 par1=83 par2=64
Channel Event. t= 0 (49619) Note Off ch=5 par1=75 par2=64
Channel Event. t= 557 (50176) Note On ch=5 par1=74 par2=60
Channel Event. t= 15 (50191) Note On ch=5 par1=82 par2=61
Channel Event. t= 22 (50213) Note Off ch=5 par1=81 par2=64
Channel Event. t= 1297 (51510) Note Off ch=5 par1=82 par2=64
Channel Event. t= 8 (51518) Note Off ch=5 par1=77 par2=64
Channel Event. t= 2 (51520) Note On ch=5 par1=55 par2=66
Channel Event. t= 0 (51520) Note On ch=5 par1=58 par2=76
Channel Event. t= 5 (51525) Note Off ch=5 par1=74 par2=64
Channel Event. t= 91 (51616) Note On ch=5 par1=53 par2=51
Channel Event. t= 0 (51616) Note On ch=5 par1=57 par2=29
Channel Event. t= 16 (51632) Note Off ch=5 par1=58 par2=64
Channel Event. t= 44 (51676) Note Off ch=5 par1=55 par2=64
Channel Event. t= 11 (51687) Note Off ch=5 par1=53 par2=64
Channel Event. t= 24 (51711) Note Off ch=5 par1=57 par2=64
Channel Event. t= 1 (51712) Note On ch=5 par1=58 par2=38
Channel Event. t= 0 (51712) Note On ch=5 par1=55 par2=55
Channel Event. t= 94 (51806) Note Off ch=5 par1=58 par2=64
Channel Event. t= 2 (51808) Note Off ch=5 par1=55 par2=64
Channel Event. t= 0 (51808) Note On ch=5 par1=57 par2=57
Channel Event. t= 0 (51808) Note On ch=5 par1=54 par2=73
Channel Event. t= 83 (51891) Note Off ch=5 par1=54 par2=64
Channel Event. t= 13 (51904) Note On ch=5 par1=58 par2=63
Channel Event. t= 0 (51904) Note On ch=5 par1=55 par2=67
Channel Event. t= 6 (51910) Note Off ch=5 par1=57 par2=64
Channel Event. t= 80 (51990) Note Off ch=5 par1=55 par2=64
Channel Event. t= 1 (51991) Note Off ch=5 par1=58 par2=64
Channel Event. t= 105 (52096) Note On ch=5 par1=58 par2=76
Channel Event. t= 0 (52096) Note On ch=5 par1=55 par2=63
Channel Event. t= 81 (52177) Note Off ch=5 par1=55 par2=64
Channel Event. t= 23 (52200) Note Off ch=5 par1=58 par2=64
Channel Event. t= 88 (52288) Note On ch=5 par1=58 par2=77
Channel Event. t= 0 (52288) Note On ch=5 par1=62 par2=71
Channel Event. t= 188 (52476) Note Off ch=5 par1=58 par2=64
Channel Event. t= 3 (52479) Note Off ch=5 par1=62 par2=64
Channel Event. t= 1 (52480) Note On ch=5 par1=61 par2=81
Channel Event. t= 0 (52480) Note On ch=5 par1=57 par2=64
Channel Event. t= 192 (52672) Note On ch=5 par1=58 par2=73
Channel Event. t= 0 (52672) Note On ch=5 par1=62 par2=61
Channel Event. t= 9 (52681) Note Off ch=5 par1=61 par2=64
Channel Event. t= 4 (52685) Note Off ch=5 par1=57 par2=64
Channel Event. t= 150 (52835) Note Off ch=5 par1=58 par2=64
Channel Event. t= 18 (52853) Note Off ch=5 par1=62 par2=64
Channel Event. t= 11 (52864) Note On ch=5 par1=58 par2=61
Channel Event. t= 0 (52864) Note On ch=5 par1=55 par2=70
Channel Event. t= 166 (53030) Note Off ch=5 par1=55 par2=64
Channel Event. t= 23 (53053) Note Off ch=5 par1=58 par2=64
Channel Event. t= 3 (53056) Note On ch=5 par1=53 par2=77
Channel Event. t= 0 (53056) Note On ch=5 par1=60 par2=66
Channel Event. t= 555 (53611) Note On ch=5 par1=88 par2=66
Channel Event. t= 14 (53625) Note On ch=5 par1=89 par2=63
Channel Event. t= 11 (53636) Note Off ch=5 par1=88 par2=64
Channel Event. t= 177 (53813) Note Off ch=5 par1=89 par2=64
Channel Event. t= 0 (53813) Note On ch=5 par1=77 par2=61
Channel Event. t= 204 (54017) Note Off ch=5 par1=60 par2=64
Channel Event. t= 7 (54024) Note Off ch=5 par1=53 par2=64
Channel Event. t= 237 (54261) Note Off ch=5 par1=77 par2=64
Channel Event. t= 715 (54976) Note On ch=5 par1=53 par2=66
Channel Event. t= 192 (55168) Note On ch=5 par1=57 par2=50
Channel Event. t= 4 (55172) Note Off ch=5 par1=53 par2=64
Channel Event. t= 17 (55189) Note Off ch=5 par1=57 par2=64
Channel Event. t= 1707 (56896) Note On ch=5 par1=58 par2=72
Channel Event. t= 0 (56896) Note On ch=5 par1=55 par2=72
Channel Event. t= 94 (56990) Note Off ch=5 par1=58 par2=64
Channel Event. t= 2 (56992) Note On ch=5 par1=54 par2=49
Channel Event. t= 0 (56992) Note On ch=5 par1=57 par2=54
Channel Event. t= 13 (57005) Note Off ch=5 par1=55 par2=64
Channel Event. t= 83 (57088) Note On ch=5 par1=58 par2=53
Channel Event. t= 0 (57088) Note On ch=5 par1=55 par2=57
Channel Event. t= 12 (57100) Note Off ch=5 par1=54 par2=64
Channel Event. t= 5 (57105) Note Off ch=5 par1=57 par2=64
Channel Event. t= 78 (57183) Note Off ch=5 par1=58 par2=64
Channel Event. t= 1 (57184) Note On ch=5 par1=54 par2=58
Channel Event. t= 0 (57184) Note On ch=5 par1=57 par2=36
Channel Event. t= 6 (57190) Note Off ch=5 par1=55 par2=64
Channel Event. t= 90 (57280) Note On ch=5 par1=58 par2=43
Channel Event. t= 0 (57280) Note On ch=5 par1=55 par2=58
Channel Event. t= 5 (57285) Note Off ch=5 par1=54 par2=64
Channel Event. t= 6 (57291) Note Off ch=5 par1=57 par2=64
Channel Event. t= 64 (57355) Note Off ch=5 par1=55 par2=64
Channel Event. t= 2 (57357) Note Off ch=5 par1=58 par2=64
Channel Event. t= 115 (57472) Note On ch=5 par1=58 par2=44
Channel Event. t= 0 (57472) Note On ch=5 par1=55 par2=58
Channel Event. t= 61 (57533) Note Off ch=5 par1=55 par2=64
Channel Event. t= 10 (57543) Note Off ch=5 par1=58 par2=64
Channel Event. t= 121 (57664) Note On ch=5 par1=58 par2=56
Channel Event. t= 0 (57664) Note On ch=5 par1=62 par2=48
Channel Event. t= 183 (57847) Note Off ch=5 par1=58 par2=64
Channel Event. t= 5 (57852) Note Off ch=5 par1=62 par2=64
Channel Event. t= 4 (57856) Note On ch=5 par1=57 par2=48
Channel Event. t= 0 (57856) Note On ch=5 par1=61 par2=65
Channel Event. t= 188 (58044) Note Off ch=5 par1=61 par2=64
Channel Event. t= 4 (58048) Note On ch=5 par1=58 par2=63
Channel Event. t= 0 (58048) Note On ch=5 par1=62 par2=44
Channel Event. t= 38 (58086) Note Off ch=5 par1=57 par2=64
Channel Event. t= 119 (58205) Note Off ch=5 par1=58 par2=64
Channel Event. t= 11 (58216) Note Off ch=5 par1=62 par2=64
Channel Event. t= 24 (58240) Note On ch=5 par1=58 par2=59
Channel Event. t= 0 (58240) Note On ch=5 par1=55 par2=60
Channel Event. t= 140 (58380) Note Off ch=5 par1=55 par2=64
Channel Event. t= 52 (58432) Note On ch=5 par1=53 par2=65
Channel Event. t= 0 (58432) Note On ch=5 par1=60 par2=64
Channel Event. t= 22 (58454) Note Off ch=5 par1=58 par2=64
Channel Event. t= 537 (58991) Note On ch=5 par1=88 par2=74
Channel Event. t= 8 (58999) Note On ch=5 par1=89 par2=83
Channel Event. t= 27 (59026) Note Off ch=5 par1=88 par2=64
Channel Event. t= 14 (59040) Note Off ch=5 par1=89 par2=64
Channel Event. t= 122 (59162) Note Off ch=5 par1=60 par2=64
Channel Event. t= 11 (59173) Note Off ch=5 par1=53 par2=64
Channel Event. t= 8 (59181) Note On ch=5 par1=77 par2=76
Channel Event. t= 58 (59239) Note Off ch=5 par1=77 par2=64
Channel Event. t= 92 (59331) Note On ch=5 par1=72 par2=74
Channel Event. t= 26 (59357) Note Off ch=5 par1=72 par2=64
Channel Event. t= 24 (59381) Note On ch=5 par1=84 par2=86
Channel Event. t= 31 (59412) Note Off ch=5 par1=84 par2=64
Channel Event. t= 172 (59584) Note On ch=5 par1=77 par2=69
Channel Event. t= 575 (60159) Note On ch=5 par1=88 par2=65
Channel Event. t= 10 (60169) Note On ch=5 par1=89 par2=71
Channel Event. t= 7 (60176) Note Off ch=5 par1=88 par2=64
Channel Event. t= 2 (60178) Note Off ch=5 par1=77 par2=64
Channel Event. t= 175 (60353) Note On ch=5 par1=87 par2=79
Channel Event. t= 11 (60364) Note Off ch=5 par1=89 par2=64
Channel Event. t= 165 (60529) Note On ch=5 par1=88 par2=59
Channel Event. t= 3 (60532) Note Off ch=5 par1=87 par2=64
Channel Event. t= 13 (60545) Note On ch=5 par1=89 par2=61
Channel Event. t= 7 (60552) Note Off ch=5 par1=88 par2=64
Channel Event. t= 171 (60723) Note On ch=5 par1=77 par2=55
Channel Event. t= 4 (60727) Note Off ch=5 par1=89 par2=64
Channel Event. t= 852 (61579) Note Off ch=5 par1=77 par2=64
Channel Event. t= 693 (62272) Note On ch=5 par1=58 par2=65
Channel Event. t= 0 (62272) Note On ch=5 par1=55 par2=69
Channel Event. t= 93 (62365) Note Off ch=5 par1=58 par2=64
Channel Event. t= 0 (62365) Note Off ch=5 par1=55 par2=64
Channel Event. t= 3 (62368) Note On ch=5 par1=54 par2=70
Channel Event. t= 0 (62368) Note On ch=5 par1=57 par2=63
Channel Event. t= 96 (62464) Note On ch=5 par1=58 par2=47
Channel Event. t= 0 (62464) Note On ch=5 par1=55 par2=63
Channel Event. t= 7 (62471) Note Off ch=5 par1=54 par2=64
Channel Event. t= 8 (62479) Note Off ch=5 par1=57 par2=64
Channel Event. t= 79 (62558) Note Off ch=5 par1=58 par2=64
Channel Event. t= 2 (62560) Note On ch=5 par1=54 par2=58
Channel Event. t= 0 (62560) Note On ch=5 par1=57 par2=53
Channel Event. t= 7 (62567) Note Off ch=5 par1=55 par2=64
Channel Event. t= 89 (62656) Note On ch=5 par1=55 par2=58
Channel Event. t= 0 (62656) Note On ch=5 par1=58 par2=61
Channel Event. t= 9 (62665) Note Off ch=5 par1=54 par2=64
Channel Event. t= 12 (62677) Note Off ch=5 par1=57 par2=64
Channel Event. t= 58 (62735) Note Off ch=5 par1=58 par2=64
Channel Event. t= 6 (62741) Note Off ch=5 par1=55 par2=64
Channel Event. t= 107 (62848) Note On ch=5 par1=58 par2=61
Channel Event. t= 0 (62848) Note On ch=5 par1=55 par2=58
Channel Event. t= 71 (62919) Note Off ch=5 par1=55 par2=64
Channel Event. t= 5 (62924) Note Off ch=5 par1=58 par2=64
Channel Event. t= 116 (63040) Note On ch=5 par1=58 par2=71
Channel Event. t= 0 (63040) Note On ch=5 par1=62 par2=63
Channel Event. t= 192 (63232) Note On ch=5 par1=57 par2=68
Channel Event. t= 0 (63232) Note On ch=5 par1=61 par2=71
Channel Event. t= 3 (63235) Note Off ch=5 par1=62 par2=64
Channel Event. t= 4 (63239) Note Off ch=5 par1=58 par2=64
Channel Event. t= 171 (63410) Note Off ch=5 par1=61 par2=64
Channel Event. t= 11 (63421) Note Off ch=5 par1=57 par2=64
Channel Event. t= 3 (63424) Note On ch=5 par1=58 par2=76
Channel Event. t= 0 (63424) Note On ch=5 par1=62 par2=65
Channel Event. t= 149 (63573) Note Off ch=5 par1=58 par2=64
Channel Event. t= 8 (63581) Note Off ch=5 par1=62 par2=64
Channel Event. t= 35 (63616) Note On ch=5 par1=58 par2=71
Channel Event. t= 0 (63616) Note On ch=5 par1=55 par2=62
Channel Event. t= 152 (63768) Note Off ch=5 par1=58 par2=64
Channel Event. t= 30 (63798) Note Off ch=5 par1=55 par2=64
Channel Event. t= 10 (63808) Note On ch=5 par1=58 par2=77
Channel Event. t= 0 (63808) Note On ch=5 par1=62 par2=55
Channel Event. t= 178 (63986) Note Off ch=5 par1=62 par2=64
Channel Event. t= 2 (63988) Note Off ch=5 par1=58 par2=64
Channel Event. t= 12 (64000) Note On ch=5 par1=57 par2=54
Channel Event. t= 0 (64000) Note On ch=5 par1=61 par2=63
Channel Event. t= 192 (64192) Note On ch=5 par1=58 par2=51
Channel Event. t= 0 (64192) Note On ch=5 par1=62 par2=41
Channel Event. t= 1 (64193) Note Off ch=5 par1=61 par2=64
Channel Event. t= 3 (64196) Note Off ch=5 par1=57 par2=64
Channel Event. t= 343 (64539) Note Off ch=5 par1=62 par2=64
Channel Event. t= 3 (64542) Note Off ch=5 par1=58 par2=64
Channel Event. t= 34 (64576) Note On ch=5 par1=58 par2=54
Channel Event. t= 0 (64576) Note On ch=5 par1=62 par2=46
Channel Event. t= 960 (65536) Note Off ch=5 par1=62 par2=64
Channel Event. t= 0 (65536) Note Off ch=5 par1=58 par2=64
Channel Event. t= 0 (65536) 
Meta Event. Type: 0x2f (47dec), End of Track (0 bytes): 
track #34
track size: 2600
Channel Event. t= 0 (0) 
Meta Event. Type: 0x21 (33dec), MIDI Port (1 bytes): 0
Channel Event. t= 0 (0) 
Meta Event. Type: 0x3 (3dec), Sequence/Track Name (20 bytes): Harp                
Channel Event. t= 0 (0) Program Change ch=6 par1=57 par2=-117
Channel Event. t= 2320 (2320) Controller ch=6 par1=10 (Pan) par2=65
Channel Event. t= 976 (3296) Controller ch=6 par1=7 (Pan) par2=70
Channel Event. t= 38 (3334) Note On ch=6 par1=83 par2=61
Channel Event. t= 0 (3334) Controller ch=6 par1=10 (Pan) par2=1
Channel Event. t= 24 (3358) Note On ch=6 par1=84 par2=66
Channel Event. t= 2 (3360) Controller ch=6 par1=10 (Pan) par2=15
Channel Event. t= 5 (3365) Note Off ch=6 par1=83 par2=64
Channel Event. t= 9 (3374) Note On ch=6 par1=86 par2=66
Channel Event. t= 2 (3376) Controller ch=6 par1=10 (Pan) par2=30
Channel Event. t= 1 (3377) Note Off ch=6 par1=84 par2=64
Channel Event. t= 11 (3388) Note On ch=6 par1=88 par2=71
Channel Event. t= 1 (3389) Note Off ch=6 par1=86 par2=64
Channel Event. t= 11 (3400) Controller ch=6 par1=10 (Pan) par2=45
Channel Event. t= 2 (3402) Note On ch=6 par1=89 par2=77
Channel Event. t= 1 (3403) Note Off ch=6 par1=88 par2=64
Channel Event. t= 12 (3415) Note On ch=6 par1=91 par2=83
Channel Event. t= 2 (3417) Note Off ch=6 par1=89 par2=64
Channel Event. t= 7 (3424) Controller ch=6 par1=10 (Pan) par2=60
Channel Event. t= 4 (3428) Note On ch=6 par1=93 par2=77
Channel Event. t= 1 (3429) Note Off ch=6 par1=91 par2=64
Channel Event. t= 12 (3441) Note On ch=6 par1=95 par2=86
Channel Event. t= 2 (3443) Note Off ch=6 par1=93 par2=64
Channel Event. t= 5 (3448) Controller ch=6 par1=10 (Pan) par2=75
Channel Event. t= 6 (3454) Note On ch=6 par1=96 par2=85
Channel Event. t= 1 (3455) Note Off ch=6 par1=95 par2=64
Channel Event. t= 13 (3468) Note On ch=6 par1=98 par2=74
Channel Event. t= 1 (3469) Note Off ch=6 par1=96 par2=64
Channel Event. t= 3 (3472) Controller ch=6 par1=10 (Pan) par2=90
Channel Event. t= 10 (3482) Note On ch=6 par1=100 par2=80
Channel Event. t= 1 (3483) Note Off ch=6 par1=98 par2=64
Channel Event. t= 12 (3495) Note On ch=6 par1=101 par2=76
Channel Event. t= 1 (3496) Controller ch=6 par1=10 (Pan) par2=105
Channel Event. t= 3 (3499) Note Off ch=6 par1=100 par2=64
Channel Event. t= 9 (3508) Note On ch=6 par1=103 par2=78
Channel Event. t= 9 (3517) Note Off ch=6 par1=101 par2=64
Channel Event. t= 3 (3520) Note On ch=6 par1=105 par2=78
Channel Event. t= 0 (3520) Controller ch=6 par1=10 (Pan) par2=120
Channel Event. t= 12 (3532) Note On ch=6 par1=107 par2=88
Channel Event. t= 2 (3534) Note Off ch=6 par1=103 par2=64
Channel Event. t= 8 (3542) Note Off ch=6 par1=105 par2=64
Channel Event. t= 5 (3547) Note On ch=6 par1=108 par2=78
Channel Event. t= 7 (3554) Note Off ch=6 par1=107 par2=64
Channel Event. t= 9 (3563) Note Off ch=6 par1=108 par2=64
Channel Event. t= 111 (3674) Note On ch=6 par1=79 par2=69
Channel Event. t= 2 (3676) Controller ch=6 par1=10 (Pan) par2=105
Channel Event. t= 8 (3684) Note On ch=6 par1=81 par2=75
Channel Event. t= 16 (3700) Note Off ch=6 par1=79 par2=64
Channel Event. t= 0 (3700) Controller ch=6 par1=10 (Pan) par2=90
Channel Event. t= 6 (3706) Note On ch=6 par1=83 par2=59
Channel Event. t= 18 (3724) Note Off ch=6 par1=81 par2=64
Channel Event. t= 0 (3724) Controller ch=6 par1=10 (Pan) par2=75
Channel Event. t= 6 (3730) Note On ch=6 par1=84 par2=39
Channel Event. t= 5 (3735) Note Off ch=6 par1=83 par2=64
Channel Event. t= 5 (3740) Note On ch=6 par1=86 par2=86
Channel Event. t= 8 (3748) Note Off ch=6 par1=84 par2=64
Channel Event. t= 0 (3748) Controller ch=6 par1=10 (Pan) par2=60
Channel Event. t= 6 (3754) Note On ch=6 par1=88 par2=69
Channel Event. t= 2 (3756) Note Off ch=6 par1=86 par2=64
Channel Event. t= 13 (3769) Note On ch=6 par1=89 par2=75
Channel Event. t= 2 (3771) Note Off ch=6 par1=88 par2=64
Channel Event. t= 1 (3772) Controller ch=6 par1=10 (Pan) par2=45
Channel Event. t= 11 (3783) Note On ch=6 par1=91 par2=82
Channel Event. t= 1 (3784) Note Off ch=6 par1=89 par2=64
Channel Event. t= 11 (3795) Note On ch=6 par1=93 par2=86
Channel Event. t= 1 (3796) Controller ch=6 par1=10 (Pan) par2=30
Channel Event. t= 1 (3797) Note Off ch=6 par1=91 par2=64
Channel Event. t= 11 (3808) Note On ch=6 par1=95 par2=83
Channel Event. t= 1 (3809) Note Off ch=6 par1=93 par2=64
Channel Event. t= 11 (3820) Controller ch=6 par1=10 (Pan) par2=15
Channel Event. t= 2 (3822) Note Off ch=6 par1=95 par2=64
Channel Event. t= 0 (3822) Note On ch=6 par1=96 par2=85
Channel Event. t= 12 (3834) Note Off ch=6 par1=96 par2=64
Channel Event. t= 1 (3835) Note On ch=6 par1=98 par2=81
Channel Event. t= 9 (3844) Controller ch=6 par1=10 (Pan) par2=1
Channel Event. t= 4 (3848) Note Off ch=6 par1=98 par2=64
Channel Event. t= 0 (3848) Note On ch=6 par1=100 par2=83
Channel Event. t= 13 (3861) Note Off ch=6 par1=100 par2=64
Channel Event. t= 0 (3861) Note On ch=6 par1=101 par2=85
Channel Event. t= 14 (3875) Note Off ch=6 par1=101 par2=64
Channel Event. t= 0 (3875) Note On ch=6 par1=103 par2=78
Channel Event. t= 12 (3887) Note On ch=6 par1=105 par2=83
Channel Event. t= 2 (3889) Note Off ch=6 par1=103 par2=64
Channel Event. t= 10 (3899) Note On ch=6 par1=107 par2=83
Channel Event. t= 6 (3905) Note Off ch=6 par1=105 par2=64
Channel Event. t= 8 (3913) Note On ch=6 par1=108 par2=79
Channel Event. t= 11 (3924) Note Off ch=6 par1=107 par2=64
Channel Event. t= 14 (3938) Note Off ch=6 par1=108 par2=64
Channel Event. t= 117 (4055) Note On ch=6 par1=79 par2=68
Channel Event. t= 8 (4063) Note On ch=6 par1=81 par2=79
Channel Event. t= 9 (4072) Controller ch=6 par1=10 (Pan) par2=15
Channel Event. t= 14 (4086) Note Off ch=6 par1=79 par2=64
Channel Event. t= 3 (4089) Note On ch=6 par1=83 par2=60
Channel Event. t= 7 (4096) Controller ch=6 par1=10 (Pan) par2=30
Channel Event. t= 16 (4112) Note Off ch=6 par1=81 par2=64
Channel Event. t= 5 (4117) Note On ch=6 par1=84 par2=36
Channel Event. t= 3 (4120) Controller ch=6 par1=10 (Pan) par2=45
Channel Event. t= 1 (4121) Note Off ch=6 par1=83 par2=64
Channel Event. t= 11 (4132) Note On ch=6 par1=86 par2=69
Channel Event. t= 5 (4137) Note Off ch=6 par1=84 par2=64
Channel Event. t= 7 (4144) Controller ch=6 par1=10 (Pan) par2=45
Channel Event. t= 3 (4147) Note On ch=6 par1=88 par2=67
Channel Event. t= 1 (4148) Note Off ch=6 par1=86 par2=64
Channel Event. t= 16 (4164) Note Off ch=6 par1=88 par2=64
Channel Event. t= 0 (4164) Note On ch=6 par1=89 par2=58
Channel Event. t= 4 (4168) Controller ch=6 par1=10 (Pan) par2=75
Channel Event. t= 10 (4178) Note On ch=6 par1=91 par2=77
Channel Event. t= 4 (4182) Note Off ch=6 par1=89 par2=64
Channel Event. t= 9 (4191) Note On ch=6 par1=93 par2=78
Channel Event. t= 1 (4192) Controller ch=6 par1=10 (Pan) par2=90
Channel Event. t= 1 (4193) Note Off ch=6 par1=91 par2=64
Channel Event. t= 13 (4206) Note Off ch=6 par1=93 par2=64
Channel Event. t= 0 (4206) Note On ch=6 par1=95 par2=77
Channel Event. t= 10 (4216) Controller ch=6 par1=10 (Pan) par2=105
Channel Event. t= 2 (4218) Note On ch=6 par1=96 par2=82
Channel Event. t= 2 (4220) Note Off ch=6 par1=95 par2=64
Channel Event. t= 11 (4231) Note On ch=6 par1=98 par2=77
Channel Event. t= 1 (4232) Note Off ch=6 par1=96 par2=64
Channel Event. t= 8 (4240) Controller ch=6 par1=10 (Pan) par2=120
Channel Event. t= 4 (4244) Note On ch=6 par1=100 par2=76
Channel Event. t= 2 (4246) Note Off ch=6 par1=98 par2=64
Channel Event. t= 9 (4255) Note On ch=6 par1=101 par2=83
Channel Event. t= 3 (4258) Note Off ch=6 par1=100 par2=64
Channel Event. t= 9 (4267) Note On ch=6 par1=103 par2=86
Channel Event. t= 3 (4270) Note Off ch=6 par1=101 par2=64
Channel Event. t= 8 (4278) Note On ch=6 par1=105 par2=87
Channel Event. t= 4 (4282) Note Off ch=6 par1=103 par2=64
Channel Event. t= 8 (4290) Note On ch=6 par1=107 par2=87
Channel Event. t= 13 (4303) Note Off ch=6 par1=105 par2=64
Channel Event. t= 2 (4305) Note On ch=6 par1=108 par2=77
Channel Event. t= 12 (4317) Note Off ch=6 par1=107 par2=64
Channel Event. t= 4 (4321) Note Off ch=6 par1=108 par2=64
Channel Event. t= 120 (4441) Note On ch=6 par1=79 par2=44
Channel Event. t= 7 (4448) Note On ch=6 par1=81 par2=75
Channel Event. t= 8 (4456) Controller ch=6 par1=10 (Pan) par2=105
Channel Event. t= 8 (4464) Note Off ch=6 par1=79 par2=64
Channel Event. t= 5 (4469) Note On ch=6 par1=83 par2=43
Channel Event. t= 11 (4480) Controller ch=6 par1=10 (Pan) par2=90
Channel Event. t= 10 (4490) Note Off ch=6 par1=81 par2=64
Channel Event. t= 1 (4491) Note On ch=6 par1=84 par2=46
Channel Event. t= 3 (4494) Note Off ch=6 par1=83 par2=64
Channel Event. t= 10 (4504) Note On ch=6 par1=86 par2=77
Channel Event. t= 0 (4504) Controller ch=6 par1=10 (Pan) par2=75
Channel Event. t= 4 (4508) Note Off ch=6 par1=84 par2=64
Channel Event. t= 11 (4519) Note Off ch=6 par1=86 par2=64
Channel Event. t= 0 (4519) Note On ch=6 par1=88 par2=69
Channel Event. t= 9 (4528) Controller ch=6 par1=10 (Pan) par2=60
Channel Event. t= 6 (4534) Note Off ch=6 par1=88 par2=64
Channel Event. t= 0 (4534) Note On ch=6 par1=89 par2=73
Channel Event. t= 14 (4548) Note On ch=6 par1=91 par2=78
Channel Event. t= 1 (4549) Note Off ch=6 par1=89 par2=64
Channel Event. t= 3 (4552) Controller ch=6 par1=10 (Pan) par2=45
Channel Event. t= 9 (4561) Note On ch=6 par1=93 par2=79
Channel Event. t= 2 (4563) Note Off ch=6 par1=91 par2=64
Channel Event. t= 11 (4574) Note On ch=6 par1=95 par2=83
Channel Event. t= 2 (4576) Note Off ch=6 par1=93 par2=64
Channel Event. t= 0 (4576) Controller ch=6 par1=10 (Pan) par2=30
Channel Event. t= 12 (4588) Note On ch=6 par1=96 par2=82
Channel Event. t= 2 (4590) Note Off ch=6 par1=95 par2=64
Channel Event. t= 10 (4600) Controller ch=6 par1=10 (Pan) par2=15
Channel Event. t= 3 (4603) Note On ch=6 par1=98 par2=74
Channel Event. t= 1 (4604) Note Off ch=6 par1=96 par2=64
Channel Event. t= 13 (4617) Note Off ch=6 par1=98 par2=64
Channel Event. t= 0 (4617) Note On ch=6 par1=100 par2=74
Channel Event. t= 7 (4624) Controller ch=6 par1=10 (Pan) par2=1
Channel Event. t= 9 (4633) Note On ch=6 par1=101 par2=69
Channel Event. t= 1 (4634) Note Off ch=6 par1=100 par2=64
Channel Event. t= 13 (4647) Note On ch=6 par1=103 par2=84
Channel Event. t= 1 (4648) Note Off ch=6 par1=101 par2=64
Channel Event. t= 13 (4661) Note On ch=6 par1=105 par2=80
Channel Event. t= 7 (4668) Note Off ch=6 par1=103 par2=64
Channel Event. t= 6 (4674) Note On ch=6 par1=107 par2=83
Channel Event. t= 8 (4682) Note Off ch=6 par1=105 par2=64
Channel Event. t= 8 (4690) Note On ch=6 par1=108 par2=76
Channel Event. t= 2 (4692) Note Off ch=6 par1=107 par2=64
Channel Event. t= 12 (4704) Note Off ch=6 par1=108 par2=64
Channel Event. t= 132 (4836) Note On ch=6 par1=79 par2=46
Channel Event. t= 4 (4840) Controller ch=6 par1=10 (Pan) par2=15
Channel Event. t= 8 (4848) Note On ch=6 par1=81 par2=69
Channel Event. t= 16 (4864) Controller ch=6 par1=10 (Pan) par2=30
Channel Event. t= 6 (4870) Note Off ch=6 par1=79 par2=64
Channel Event. t= 4 (4874) Note On ch=6 par1=83 par2=61
Channel Event. t= 14 (4888) Controller ch=6 par1=10 (Pan) par2=45
Channel Event. t= 8 (4896) Note Off ch=6 par1=81 par2=64
Channel Event. t= 4 (4900) Note On ch=6 par1=84 par2=45
Channel Event. t= 4 (4904) Note Off ch=6 par1=83 par2=64
Channel Event. t= 8 (4912) Controller ch=6 par1=10 (Pan) par2=60
Channel Event. t= 2 (4914) Note On ch=6 par1=86 par2=70
Channel Event. t= 3 (4917) Note Off ch=6 par1=84 par2=64
Channel Event. t= 11 (4928) Note On ch=6 par1=88 par2=74
Channel Event. t= 1 (4929) Note Off ch=6 par1=86 par2=64
Channel Event. t= 7 (4936) Controller ch=6 par1=10 (Pan) par2=75
Channel Event. t= 8 (4944) Note On ch=6 par1=89 par2=66
Channel Event. t= 3 (4947) Note Off ch=6 par1=88 par2=64
Channel Event. t= 11 (4958) Note On ch=6 par1=91 par2=76
Channel Event. t= 2 (4960) Controller ch=6 par1=10 (Pan) par2=90
Channel Event. t= 6 (4966) Note Off ch=6 par1=89 par2=64
Channel Event. t= 8 (4974) Note On ch=6 par1=93 par2=74
Channel Event. t= 6 (4980) Note Off ch=6 par1=91 par2=64
Channel Event. t= 4 (4984) Controller ch=6 par1=10 (Pan) par2=105
Channel Event. t= 3 (4987) Note On ch=6 par1=95 par2=86
Channel Event. t= 4 (4991) Note Off ch=6 par1=93 par2=64
Channel Event. t= 9 (5000) Note On ch=6 par1=96 par2=82
Channel Event. t= 4 (5004) Note Off ch=6 par1=95 par2=64
Channel Event. t= 4 (5008) Controller ch=6 par1=10 (Pan) par2=115
Channel Event. t= 6 (5014) Note On ch=6 par1=98 par2=85
Channel Event. t= 1 (5015) Note Off ch=6 par1=96 par2=64
Channel Event. t= 11 (5026) Note On ch=6 par1=100 par2=79
Channel Event. t= 4 (5030) Note Off ch=6 par1=98 par2=64
Channel Event. t= 8 (5038) Note On ch=6 par1=101 par2=90
Channel Event. t= 5 (5043) Note Off ch=6 par1=100 par2=64
Channel Event. t= 7 (5050) Note On ch=6 par1=103 par2=93
Channel Event. t= 5 (5055) Note Off ch=6 par1=101 par2=64
Channel Event. t= 6 (5061) Note On ch=6 par1=105 par2=92
Channel Event. t= 6 (5067) Note Off ch=6 par1=103 par2=64
Channel Event. t= 5 (5072) Note On ch=6 par1=107 par2=86
Channel Event. t= 11 (5083) Note Off ch=6 par1=105 par2=64
Channel Event. t= 7 (5090) Note On ch=6 par1=108 par2=58
Channel Event. t= 28 (5118) Note Off ch=6 par1=107 par2=64
Channel Event. t= 11 (5129) Note Off ch=6 par1=108 par2=64
Channel Event. t= 6167 (11296) Controller ch=6 par1=10 (Pan) par2=120
Channel Event. t= 4 (11300) Note On ch=6 par1=79 par2=57
Channel Event. t= 20 (11320) Controller ch=6 par1=10 (Pan) par2=105
Channel Event. t= 15 (11335) Note On ch=6 par1=81 par2=41
Channel Event. t= 9 (11344) Controller ch=6 par1=10 (Pan) par2=90
Channel Event. t= 10 (11354) Note Off ch=6 par1=79 par2=64
Channel Event. t= 0 (11354) Note On ch=6 par1=83 par2=68
Channel Event. t= 14 (11368) Controller ch=6 par1=10 (Pan) par2=75
Channel Event. t= 5 (11373) Note On ch=6 par1=84 par2=85
Channel Event. t= 1 (11374) Note Off ch=6 par1=81 par2=64
Channel Event. t= 6 (11380) Note Off ch=6 par1=83 par2=64
Channel Event. t= 6 (11386) Note On ch=6 par1=86 par2=79
Channel Event. t= 6 (11392) Controller ch=6 par1=10 (Pan) par2=60
Channel Event. t= 4 (11396) Note Off ch=6 par1=84 par2=64
Channel Event. t= 2 (11398) Note On ch=6 par1=88 par2=84
Channel Event. t= 12 (11410) Note On ch=6 par1=89 par2=77
Channel Event. t= 6 (11416) Controller ch=6 par1=10 (Pan) par2=45
Channel Event. t= 2 (11418) Note Off ch=6 par1=86 par2=64
Channel Event. t= 3 (11421) Note On ch=6 par1=91 par2=90
Channel Event. t= 3 (11424) Note Off ch=6 par1=88 par2=64
Channel Event. t= 10 (11434) Note On ch=6 par1=93 par2=81
Channel Event. t= 6 (11440) Controller ch=6 par1=10 (Pan) par2=30
Channel Event. t= 1 (11441) Note Off ch=6 par1=89 par2=64
Channel Event. t= 7 (11448) Note On ch=6 par1=95 par2=81
Channel Event. t= 9 (11457) Note Off ch=6 par1=91 par2=64
Channel Event. t= 1 (11458) Note On ch=6 par1=96 par2=92
Channel Event. t= 6 (11464) Controller ch=6 par1=10 (Pan) par2=15
Channel Event. t= 5 (11469) Note Off ch=6 par1=93 par2=64
Channel Event. t= 1 (11470) Note On ch=6 par1=98 par2=89
Channel Event. t= 5 (11475) Note Off ch=6 par1=95 par2=64
Channel Event. t= 8 (11483) Note On ch=6 par1=100 par2=81
Channel Event. t= 5 (11488) Controller ch=6 par1=10 (Pan) par2=1
Channel Event. t= 2 (11490) Note Off ch=6 par1=96 par2=64
Channel Event. t= 4 (11494) Note On ch=6 par1=101 par2=92
Channel Event. t= 11 (11505) Note Off ch=6 par1=98 par2=64
Channel Event. t= 1 (11506) Note On ch=6 par1=103 par2=91
Channel Event. t= 7 (11513) Note Off ch=6 par1=100 par2=64
Channel Event. t= 5 (11518) Note On ch=6 par1=105 par2=90
Channel Event. t= 10 (11528) Note Off ch=6 par1=101 par2=64
Channel Event. t= 1 (11529) Note On ch=6 par1=107 par2=91
Channel Event. t= 10 (11539) Note Off ch=6 par1=103 par2=64
Channel Event. t= 5 (11544) Note On ch=6 par1=108 par2=92
Channel Event. t= 6 (11550) Note Off ch=6 par1=105 par2=64
Channel Event. t= 12 (11562) Note Off ch=6 par1=107 par2=64
Channel Event. t= 17 (11579) Note Off ch=6 par1=108 par2=64
Channel Event. t= 97 (11676) Note On ch=6 par1=79 par2=34
Channel Event. t= 4 (11680) Controller ch=6 par1=10 (Pan) par2=15
Channel Event. t= 11 (11691) Note On ch=6 par1=81 par2=54
Channel Event. t= 13 (11704) Controller ch=6 par1=10 (Pan) par2=30
Channel Event. t= 11 (11715) Note Off ch=6 par1=79 par2=64
Channel Event. t= 2 (11717) Note On ch=6 par1=83 par2=75
Channel Event. t= 11 (11728) Controller ch=6 par1=10 (Pan) par2=45
Channel Event. t= 6 (11734) Note Off ch=6 par1=81 par2=64
Channel Event. t= 0 (11734) Note On ch=6 par1=84 par2=87
Channel Event. t= 8 (11742) Note Off ch=6 par1=83 par2=64
Channel Event. t= 5 (11747) Note On ch=6 par1=86 par2=82
Channel Event. t= 5 (11752) Note Off ch=6 par1=84 par2=64
Channel Event. t= 0 (11752) Controller ch=6 par1=10 (Pan) par2=60
Channel Event. t= 5 (11757) Note On ch=6 par1=88 par2=97
Channel Event. t= 2 (11759) Note Off ch=6 par1=86 par2=64
Channel Event. t= 9 (11768) Note On ch=6 par1=89 par2=94
Channel Event. t= 1 (11769) Note Off ch=6 par1=88 par2=64
Channel Event. t= 7 (11776) Controller ch=6 par1=10 (Pan) par2=75
Channel Event. t= 2 (11778) Note On ch=6 par1=91 par2=102
Channel Event. t= 1 (11779) Note Off ch=6 par1=89 par2=64
Channel Event. t= 9 (11788) Note On ch=6 par1=93 par2=93
Channel Event. t= 2 (11790) Note Off ch=6 par1=91 par2=64
Channel Event. t= 7 (11797) Note On ch=6 par1=95 par2=104
Channel Event. t= 3 (11800) Note Off ch=6 par1=93 par2=64
Channel Event. t= 0 (11800) Controller ch=6 par1=10 (Pan) par2=90
Channel Event. t= 7 (11807) Note On ch=6 par1=96 par2=102
Channel Event. t= 4 (11811) Note Off ch=6 par1=95 par2=64
Channel Event. t= 5 (11816) Note On ch=6 par1=98 par2=102
Channel Event. t= 3 (11819) Note Off ch=6 par1=96 par2=64
Channel Event. t= 5 (11824) Controller ch=6 par1=10 (Pan) par2=105
Channel Event. t= 1 (11825) Note On ch=6 par1=100 par2=99
Channel Event. t= 4 (11829) Note Off ch=6 par1=98 par2=64
Channel Event. t= 5 (11834) Note On ch=6 par1=101 par2=106
Channel Event. t= 3 (11837) Note Off ch=6 par1=100 par2=64
Channel Event. t= 7 (11844) Note On ch=6 par1=103 par2=103
Channel Event. t= 2 (11846) Note Off ch=6 par1=101 par2=64
Channel Event. t= 2 (11848) Controller ch=6 par1=10 (Pan) par2=120
Channel Event. t= 4 (11852) Note On ch=6 par1=105 par2=100
Channel Event. t= 5 (11857) Note Off ch=6 par1=103 par2=64
Channel Event. t= 4 (11861) Note On ch=6 par1=107 par2=98
Channel Event. t= 11 (11872) Note On ch=6 par1=108 par2=93
Channel Event. t= 1 (11873) Note Off ch=6 par1=105 par2=64
Channel Event. t= 18 (11891) Note Off ch=6 par1=107 par2=64
Channel Event. t= 56 (11947) Note Off ch=6 par1=108 par2=64
Channel Event. t= 9813 (21760) Controller ch=6 par1=10 (Pan) par2=1
Channel Event. t= 1 (21761) Note On ch=6 par1=79 par2=73
Channel Event. t= 14 (21775) Note On ch=6 par1=81 par2=63
Channel Event. t= 9 (21784) Controller ch=6 par1=10 (Pan) par2=15
Channel Event. t= 13 (21797) Note Off ch=6 par1=79 par2=64
Channel Event. t= 0 (21797) Note On ch=6 par1=83 par2=70
Channel Event. t= 11 (21808) Controller ch=6 par1=10 (Pan) par2=30
Channel Event. t= 11 (21819) Note Off ch=6 par1=81 par2=64
Channel Event. t= 1 (21820) Note On ch=6 par1=84 par2=77
Channel Event. t= 12 (21832) Controller ch=6 par1=10 (Pan) par2=45
Channel Event. t= 4 (21836) Note Off ch=6 par1=83 par2=64
Channel Event. t= 0 (21836) Note On ch=6 par1=86 par2=83
Channel Event. t= 16 (21852) Note On ch=6 par1=88 par2=77
Channel Event. t= 1 (21853) Note Off ch=6 par1=84 par2=64
Channel Event. t= 3 (21856) Controller ch=6 par1=10 (Pan) par2=60
Channel Event. t= 11 (21867) Note On ch=6 par1=89 par2=77
Channel Event. t= 1 (21868) Note Off ch=6 par1=86 par2=64
Channel Event. t= 7 (21875) Note Off ch=6 par1=88 par2=64
Channel Event. t= 5 (21880) Controller ch=6 par1=10 (Pan) par2=75
Channel Event. t= 1 (21881) Note On ch=6 par1=91 par2=81
Channel Event. t= 9 (21890) Note Off ch=6 par1=89 par2=64
Channel Event. t= 4 (21894) Note On ch=6 par1=93 par2=82
Channel Event. t= 10 (21904) Controller ch=6 par1=10 (Pan) par2=90
Channel Event. t= 3 (21907) Note Off ch=6 par1=91 par2=64
Channel Event. t= 0 (21907) Note On ch=6 par1=95 par2=87
Channel Event. t= 10 (21917) Note Off ch=6 par1=93 par2=64
Channel Event. t= 3 (21920) Note On ch=6 par1=96 par2=90
Channel Event. t= 8 (21928) Controller ch=6 par1=10 (Pan) par2=105
Channel Event. t= 1 (21929) Note Off ch=6 par1=95 par2=64
Channel Event. t= 5 (21934) Note On ch=6 par1=98 par2=86
Channel Event. t= 12 (21946) Note Off ch=6 par1=96 par2=64
Channel Event. t= 1 (21947) Note On ch=6 par1=100 par2=82
Channel Event. t= 5 (21952) Controller ch=6 par1=10 (Pan) par2=120
Channel Event. t= 8 (21960) Note Off ch=6 par1=98 par2=64
Channel Event. t= 1 (21961) Note On ch=6 par1=101 par2=88
Channel Event. t= 12 (21973) Note On ch=6 par1=103 par2=89
Channel Event. t= 3 (21976) Note Off ch=6 par1=100 par2=64
Channel Event. t= 9 (21985) Note On ch=6 par1=105 par2=90
Channel Event. t= 9 (21994) Note Off ch=6 par1=101 par2=64
Channel Event. t= 4 (21998) Note On ch=6 par1=107 par2=88
Channel Event. t= 4 (22002) Note Off ch=6 par1=103 par2=64
Channel Event. t= 13 (22015) Note Off ch=6 par1=105 par2=64
Channel Event. t= 9 (22024) Note Off ch=6 par1=107 par2=64
Channel Event. t= 102 (22126) Note On ch=6 par1=79 par2=69
Channel Event. t= 12 (22138) Note On ch=6 par1=81 par2=71
Channel Event. t= 6 (22144) Controller ch=6 par1=10 (Pan) par2=105
Channel Event. t= 14 (22158) Note Off ch=6 par1=79 par2=64
Channel Event. t= 5 (22163) Note On ch=6 par1=83 par2=69
Channel Event. t= 5 (22168) Controller ch=6 par1=10 (Pan) par2=90
Channel Event. t= 14 (22182) Note Off ch=6 par1=81 par2=64
Channel Event. t= 1 (22183) Note On ch=6 par1=84 par2=77
Channel Event. t= 9 (22192) Controller ch=6 par1=10 (Pan) par2=75
Channel Event. t= 8 (22200) Note On ch=6 par1=86 par2=78
Channel Event. t= 2 (22202) Note Off ch=6 par1=83 par2=64
Channel Event. t= 13 (22215) Note Off ch=6 par1=84 par2=64
Channel Event. t= 1 (22216) Note On ch=6 par1=88 par2=69
Channel Event. t= 0 (22216) Controller ch=6 par1=10 (Pan) par2=60
Channel Event. t= 10 (22226) Note Off ch=6 par1=86 par2=64
Channel Event. t= 3 (22229) Note On ch=6 par1=89 par2=80
Channel Event. t= 4 (22233) Note Off ch=6 par1=88 par2=64
Channel Event. t= 7 (22240) Controller ch=6 par1=10 (Pan) par2=45
Channel Event. t= 3 (22243) Note On ch=6 par1=91 par2=74
Channel Event. t= 5 (22248) Note Off ch=6 par1=89 par2=64
Channel Event. t= 9 (22257) Note On ch=6 par1=93 par2=81
Channel Event. t= 4 (22261) Note Off ch=6 par1=91 par2=64
Channel Event. t= 3 (22264) Controller ch=6 par1=10 (Pan) par2=30
Channel Event. t= 6 (22270) Note On ch=6 par1=95 par2=79
Channel Event. t= 3 (22273) Note Off ch=6 par1=93 par2=64
Channel Event. t= 10 (22283) Note On ch=6 par1=96 par2=88
Channel Event. t= 3 (22286) Note Off ch=6 par1=95 par2=64
Channel Event. t= 2 (22288) Controller ch=6 par1=10 (Pan) par2=15
Channel Event. t= 9 (22297) Note On ch=6 par1=98 par2=83
Channel Event. t= 2 (22299) Note Off ch=6 par1=96 par2=64
Channel Event. t= 10 (22309) Note On ch=6 par1=100 par2=88
Channel Event. t= 1 (22310) Note Off ch=6 par1=98 par2=64
Channel Event. t= 2 (22312) Controller ch=6 par1=10 (Pan) par2=1
Channel Event. t= 10 (22322) Note On ch=6 par1=101 par2=89
Channel Event. t= 1 (22323) Note Off ch=6 par1=100 par2=64
Channel Event. t= 12 (22335) Note On ch=6 par1=103 par2=88
Channel Event. t= 6 (22341) Note Off ch=6 par1=101 par2=64
Channel Event. t= 6 (22347) Note On ch=6 par1=105 par2=89
Channel Event. t= 8 (22355) Note Off ch=6 par1=103 par2=64
Channel Event. t= 3 (22358) Note On ch=6 par1=107 par2=88
Channel Event. t= 15 (22373) Note On ch=6 par1=108 par2=80
Channel Event. t= 2 (22375) Note Off ch=6 par1=105 par2=64
Channel Event. t= 13 (22388) Note Off ch=6 par1=107 par2=64
Channel Event. t= 18 (22406) Note Off ch=6 par1=108 par2=64
Channel Event. t= 111 (22517) Note On ch=6 par1=79 par2=52
Channel Event. t= 4 (22521) Note On ch=6 par1=81 par2=82
Channel Event. t= 7 (22528) Controller ch=6 par1=10 (Pan) par2=15
Channel Event. t= 12 (22540) Note On ch=6 par1=83 par2=72
Channel Event. t= 1 (22541) Note Off ch=6 par1=79 par2=64
Channel Event. t= 11 (22552) Controller ch=6 par1=10 (Pan) par2=30
Channel Event. t= 8 (22560) Note Off ch=6 par1=81 par2=64
Channel Event. t= 1 (22561) Note On ch=6 par1=84 par2=74
Channel Event. t= 6 (22567) Note Off ch=6 par1=83 par2=64
Channel Event. t= 8 (22575) Note On ch=6 par1=86 par2=75
Channel Event. t= 1 (22576) Controller ch=6 par1=10 (Pan) par2=45
Channel Event. t= 1 (22577) Note Off ch=6 par1=84 par2=64
Channel Event. t= 11 (22588) Note On ch=6 par1=88 par2=82
Channel Event. t= 2 (22590) Note Off ch=6 par1=86 par2=64
Channel Event. t= 10 (22600) Controller ch=6 par1=10 (Pan) par2=60
Channel Event. t= 4 (22604) Note On ch=6 par1=89 par2=69
Channel Event. t= 4 (22608) Note Off ch=6 par1=88 par2=64
Channel Event. t= 9 (22617) Note On ch=6 par1=91 par2=85
Channel Event. t= 2 (22619) Note Off ch=6 par1=89 par2=64
Channel Event. t= 5 (22624) Controller ch=6 par1=10 (Pan) par2=75
Channel Event. t= 8 (22632) Note On ch=6 par1=93 par2=72
Channel Event. t= 5 (22637) Note Off ch=6 par1=91 par2=64
Channel Event. t= 8 (22645) Note On ch=6 par1=95 par2=81
Channel Event. t= 3 (22648) Note Off ch=6 par1=93 par2=64
Channel Event. t= 0 (22648) Controller ch=6 par1=10 (Pan) par2=90
Channel Event. t= 13 (22661) Note Off ch=6 par1=95 par2=64
Channel Event. t= 0 (22661) Note On ch=6 par1=96 par2=77
Channel Event. t= 11 (22672) Controller ch=6 par1=10 (Pan) par2=105
Channel Event. t= 2 (22674) Note Off ch=6 par1=96 par2=64
Channel Event. t= 1 (22675) Note On ch=6 par1=98 par2=85
Channel Event. t= 13 (22688) Note Off ch=6 par1=98 par2=64
Channel Event. t= 2 (22690) Note On ch=6 par1=100 par2=76
Channel Event. t= 6 (22696) Controller ch=6 par1=10 (Pan) par2=120
Channel Event. t= 7 (22703) Note Off ch=6 par1=100 par2=64
Channel Event. t= 0 (22703) Note On ch=6 par1=101 par2=86
Channel Event. t= 13 (22716) Note Off ch=6 par1=101 par2=64
Channel Event. t= 0 (22716) Note On ch=6 par1=103 par2=89
Channel Event. t= 11 (22727) Note On ch=6 par1=105 par2=89
Channel Event. t= 2 (22729) Note Off ch=6 par1=103 par2=64
Channel Event. t= 8 (22737) Note On ch=6 par1=107 par2=92
Channel Event. t= 4 (22741) Note Off ch=6 par1=105 par2=64
Channel Event. t= 9 (22750) Note On ch=6 par1=108 par2=88
Channel Event. t= 7 (22757) Note Off ch=6 par1=107 par2=64
Channel Event. t= 15 (22772) Note Off ch=6 par1=108 par2=64
Channel Event. t= 128 (22900) Note On ch=6 par1=79 par2=68
Channel Event. t= 12 (22912) Controller ch=6 par1=10 (Pan) par2=105
Channel Event. t= 3 (22915) Note On ch=6 par1=81 par2=64
Channel Event. t= 20 (22935) Note On ch=6 par1=83 par2=64
Channel Event. t= 1 (22936) Controller ch=6 par1=10 (Pan) par2=90
Channel Event. t= 3 (22939) Note Off ch=6 par1=79 par2=64
Channel Event. t= 15 (22954) Note Off ch=6 par1=81 par2=64
Channel Event. t= 0 (22954) Note On ch=6 par1=84 par2=61
Channel Event. t= 2 (22956) Note Off ch=6 par1=83 par2=64
Channel Event. t= 4 (22960) Controller ch=6 par1=10 (Pan) par2=75
Channel Event. t= 6 (22966) Note On ch=6 par1=86 par2=86
Channel Event. t= 2 (22968) Note Off ch=6 par1=84 par2=64
Channel Event. t= 12 (22980) Note On ch=6 par1=88 par2=75
Channel Event. t= 2 (22982) Note Off ch=6 par1=86 par2=64
Channel Event. t= 2 (22984) Controller ch=6 par1=10 (Pan) par2=60
Channel Event. t= 10 (22994) Note On ch=6 par1=89 par2=83
Channel Event. t= 3 (22997) Note Off ch=6 par1=88 par2=64
Channel Event. t= 10 (23007) Note On ch=6 par1=91 par2=81
Channel Event. t= 1 (23008) Controller ch=6 par1=10 (Pan) par2=45
Channel Event. t= 3 (23011) Note Off ch=6 par1=89 par2=64
Channel Event. t= 10 (23021) Note On ch=6 par1=93 par2=82
Channel Event. t= 3 (23024) Note Off ch=6 par1=91 par2=64
Channel Event. t= 8 (23032) Controller ch=6 par1=10 (Pan) par2=30
Channel Event. t= 2 (23034) Note On ch=6 par1=95 par2=85
Channel Event. t= 1 (23035) Note Off ch=6 par1=93 par2=64
Channel Event. t= 12 (23047) Note Off ch=6 par1=95 par2=64
Channel Event. t= 0 (23047) Note On ch=6 par1=96 par2=92
Channel Event. t= 9 (23056) Controller ch=6 par1=10 (Pan) par2=15
Channel Event. t= 3 (23059) Note Off ch=6 par1=96 par2=64
Channel Event. t= 0 (23059) Note On ch=6 par1=98 par2=88
Channel Event. t= 12 (23071) Note On ch=6 par1=100 par2=85
Channel Event. t= 1 (23072) Note Off ch=6 par1=98 par2=64
Channel Event. t= 8 (23080) Controller ch=6 par1=10 (Pan) par2=1
Channel Event. t= 3 (23083) Note On ch=6 par1=101 par2=88
Channel Event. t= 1 (23084) Note Off ch=6 par1=100 par2=64
Channel Event. t= 11 (23095) Note On ch=6 par1=103 par2=86
Channel Event. t= 1 (23096) Note Off ch=6 par1=101 par2=64
Channel Event. t= 9 (23105) Note On ch=6 par1=105 par2=91
Channel Event. t= 3 (23108) Note Off ch=6 par1=103 par2=64
Channel Event. t= 7 (23115) Note On ch=6 par1=107 par2=92
Channel Event. t= 5 (23120) Note Off ch=6 par1=105 par2=64
Channel Event. t= 7 (23127) Note On ch=6 par1=108 par2=88
Channel Event. t= 14 (23141) Note Off ch=6 par1=107 par2=64
Channel Event. t= 23 (23164) Note Off ch=6 par1=108 par2=64
Channel Event. t= 126 (23290) Note On ch=6 par1=79 par2=66
Channel Event. t= 6 (23296) Controller ch=6 par1=10 (Pan) par2=15
Channel Event. t= 8 (23304) Note On ch=6 par1=81 par2=66
Channel Event. t= 16 (23320) Controller ch=6 par1=10 (Pan) par2=30
Channel Event. t= 2 (23322) Note Off ch=6 par1=79 par2=64
Channel Event. t= 5 (23327) Note On ch=6 par1=83 par2=75
Channel Event. t= 17 (23344) Controller ch=6 par1=10 (Pan) par2=45
Channel Event. t= 3 (23347) Note Off ch=6 par1=81 par2=64
Channel Event. t= 3 (23350) Note On ch=6 par1=84 par2=69
Channel Event. t= 3 (23353) Note Off ch=6 par1=83 par2=64
Channel Event. t= 11 (23364) Note Off ch=6 par1=84 par2=64
Channel Event. t= 0 (23364) Note On ch=6 par1=86 par2=86
Channel Event. t= 4 (23368) Controller ch=6 par1=10 (Pan) par2=60
Channel Event. t= 10 (23378) Note Off ch=6 par1=86 par2=64
Channel Event. t= 0 (23378) Note On ch=6 par1=88 par2=76
Channel Event. t= 12 (23390) Note On ch=6 par1=89 par2=87
Channel Event. t= 1 (23391) Note Off ch=6 par1=88 par2=64
Channel Event. t= 1 (23392) Controller ch=6 par1=10 (Pan) par2=75
Channel Event. t= 11 (23403) Note Off ch=6 par1=89 par2=64
Channel Event. t= 0 (23403) Note On ch=6 par1=91 par2=87
Channel Event. t= 13 (23416) Note Off ch=6 par1=91 par2=64
Channel Event. t= 0 (23416) Note On ch=6 par1=93 par2=88
Channel Event. t= 0 (23416) Controller ch=6 par1=10 (Pan) par2=90
Channel Event. t= 11 (23427) Note On ch=6 par1=95 par2=89
Channel Event. t= 2 (23429) Note Off ch=6 par1=93 par2=64
Channel Event. t= 10 (23439) Note On ch=6 par1=96 par2=90
Channel Event. t= 1 (23440) Note Off ch=6 par1=95 par2=64
Channel Event. t= 0 (23440) Controller ch=6 par1=10 (Pan) par2=105
Channel Event. t= 10 (23450) Note On ch=6 par1=98 par2=89
Channel Event. t= 2 (23452) Note Off ch=6 par1=96 par2=64
Channel Event. t= 9 (23461) Note On ch=6 par1=100 par2=86
Channel Event. t= 2 (23463) Note Off ch=6 par1=98 par2=64
Channel Event. t= 1 (23464) Controller ch=6 par1=10 (Pan) par2=120
Channel Event. t= 7 (23471) Note On ch=6 par1=101 par2=89
Channel Event. t= 4 (23475) Note Off ch=6 par1=100 par2=64
Channel Event. t= 7 (23482) Note On ch=6 par1=103 par2=91
Channel Event. t= 3 (23485) Note Off ch=6 par1=101 par2=64
Channel Event. t= 6 (23491) Note On ch=6 par1=105 par2=90
Channel Event. t= 4 (23495) Note Off ch=6 par1=103 par2=64
Channel Event. t= 5 (23500) Note On ch=6 par1=107 par2=92
Channel Event. t= 4 (23504) Note Off ch=6 par1=105 par2=64
Channel Event. t= 7 (23511) Note On ch=6 par1=108 par2=88
Channel Event. t= 4 (23515) Note Off ch=6 par1=107 par2=64
Channel Event. t= 33 (23548) Note Off ch=6 par1=108 par2=64
Channel Event. t= 136 (23684) Note On ch=6 par1=79 par2=75
Channel Event. t= 16 (23700) Note On ch=6 par1=81 par2=48
Channel Event. t= 4 (23704) Controller ch=6 par1=10 (Pan) par2=105
Channel Event. t= 12 (23716) Note Off ch=6 par1=79 par2=64
Channel Event. t= 8 (23724) Note On ch=6 par1=83 par2=74
Channel Event. t= 4 (23728) Controller ch=6 par1=10 (Pan) par2=90
Channel Event. t= 15 (23743) Note Off ch=6 par1=81 par2=64
Channel Event. t= 2 (23745) Note On ch=6 par1=84 par2=72
Channel Event. t= 7 (23752) Controller ch=6 par1=10 (Pan) par2=75
Channel Event. t= 5 (23757) Note Off ch=6 par1=83 par2=64
Channel Event. t= 5 (23762) Note On ch=6 par1=86 par2=69
Channel Event. t= 8 (23770) Note Off ch=6 par1=84 par2=64
Channel Event. t= 4 (23774) Note On ch=6 par1=88 par2=88
Channel Event. t= 2 (23776) Controller ch=6 par1=10 (Pan) par2=60
Channel Event. t= 6 (23782) Note Off ch=6 par1=86 par2=64
Channel Event. t= 6 (23788) Note On ch=6 par1=89 par2=71
Channel Event. t= 11 (23799) Note Off ch=6 par1=88 par2=64
Channel Event. t= 1 (23800) Controller ch=6 par1=10 (Pan) par2=45
Channel Event. t= 1 (23801) Note On ch=6 par1=91 par2=88
Channel Event. t= 3 (23804) Note Off ch=6 par1=89 par2=64
Channel Event. t= 11 (23815) Note On ch=6 par1=93 par2=74
Channel Event. t= 3 (23818) Note Off ch=6 par1=91 par2=64
Channel Event. t= 6 (23824) Controller ch=6 par1=10 (Pan) par2=30
Channel Event. t= 2 (23826) Note On ch=6 par1=95 par2=92
Channel Event. t= 4 (23830) Note Off ch=6 par1=93 par2=64
Channel Event. t= 8 (23838) Note On ch=6 par1=96 par2=90
Channel Event. t= 2 (23840) Note Off ch=6 par1=95 par2=64
Channel Event. t= 8 (23848) Controller ch=6 par1=10 (Pan) par2=15
Channel Event. t= 3 (23851) Note Off ch=6 par1=96 par2=64
Channel Event. t= 0 (23851) Note On ch=6 par1=98 par2=92
Channel Event. t= 11 (23862) Note On ch=6 par1=100 par2=86
Channel Event. t= 1 (23863) Note Off ch=6 par1=98 par2=64
Channel Event. t= 9 (23872) Controller ch=6 par1=10 (Pan) par2=1
Channel Event. t= 2 (23874) Note On ch=6 par1=101 par2=94
Channel Event. t= 1 (23875) Note Off ch=6 par1=100 par2=64
Channel Event. t= 9 (23884) Note On ch=6 par1=103 par2=94
Channel Event. t= 3 (23887) Note Off ch=6 par1=101 par2=64
Channel Event. t= 7 (23894) Note On ch=6 par1=105 par2=95
Channel Event. t= 7 (23901) Note Off ch=6 par1=103 par2=64
Channel Event. t= 3 (23904) Note On ch=6 par1=107 par2=91
Channel Event. t= 12 (23916) Note On ch=6 par1=108 par2=86
Channel Event. t= 2 (23918) Note Off ch=6 par1=105 par2=64
Channel Event. t= 10 (23928) Note Off ch=6 par1=107 par2=64
Channel Event. t= 6 (23934) Note Off ch=6 par1=108 par2=64
Channel Event. t= 124 (24058) Note On ch=6 par1=79 par2=53
Channel Event. t= 6 (24064) Controller ch=6 par1=10 (Pan) par2=15
Channel Event. t= 4 (24068) Note On ch=6 par1=81 par2=79
Channel Event. t= 14 (24082) Note Off ch=6 par1=79 par2=64
Channel Event. t= 6 (24088) Note On ch=6 par1=83 par2=70
Channel Event. t= 0 (24088) Controller ch=6 par1=10 (Pan) par2=30
Channel Event. t= 18 (24106) Note Off ch=6 par1=81 par2=64
Channel Event. t= 2 (24108) Note On ch=6 par1=84 par2=59
Channel Event. t= 4 (24112) Controller ch=6 par1=10 (Pan) par2=45
Channel Event. t= 2 (24114) Note Off ch=6 par1=83 par2=64
Channel Event. t= 5 (24119) Note On ch=6 par1=86 par2=87
Channel Event. t= 4 (24123) Note Off ch=6 par1=84 par2=64
Channel Event. t= 8 (24131) Note On ch=6 par1=88 par2=86
Channel Event. t= 1 (24132) Note Off ch=6 par1=86 par2=64
Channel Event. t= 4 (24136) Controller ch=6 par1=10 (Pan) par2=60
Channel Event. t= 8 (24144) Note Off ch=6 par1=88 par2=64
Channel Event. t= 0 (24144) Note On ch=6 par1=89 par2=86
Channel Event. t= 11 (24155) Note On ch=6 par1=91 par2=88
Channel Event. t= 2 (24157) Note Off ch=6 par1=89 par2=64
Channel Event. t= 3 (24160) Controller ch=6 par1=10 (Pan) par2=75
Channel Event. t= 6 (24166) Note On ch=6 par1=93 par2=86
Channel Event. t= 3 (24169) Note Off ch=6 par1=91 par2=64
Channel Event. t= 8 (24177) Note On ch=6 par1=95 par2=91
Channel Event. t= 3 (24180) Note Off ch=6 par1=93 par2=64
Channel Event. t= 4 (24184) Controller ch=6 par1=10 (Pan) par2=90
Channel Event. t= 3 (24187) Note On ch=6 par1=96 par2=92
Channel Event. t= 3 (24190) Note Off ch=6 par1=95 par2=64
Channel Event. t= 7 (24197) Note On ch=6 par1=98 par2=91
Channel Event. t= 3 (24200) Note Off ch=6 par1=96 par2=64
Channel Event. t= 6 (24206) Note On ch=6 par1=100 par2=90
Channel Event. t= 2 (24208) Controller ch=6 par1=10 (Pan) par2=105
Channel Event. t= 1 (24209) Note Off ch=6 par1=98 par2=64
Channel Event. t= 6 (24215) Note On ch=6 par1=101 par2=95
Channel Event. t= 3 (24218) Note Off ch=6 par1=100 par2=64
Channel Event. t= 6 (24224) Note On ch=6 par1=103 par2=94
Channel Event. t= 3 (24227) Note Off ch=6 par1=101 par2=64
Channel Event. t= 5 (24232) Note On ch=6 par1=105 par2=94
Channel Event. t= 0 (24232) Controller ch=6 par1=10 (Pan) par2=120
Channel Event. t= 4 (24236) Note Off ch=6 par1=103 par2=64
Channel Event. t= 5 (24241) Note On ch=6 par1=107 par2=94
Channel Event. t= 3 (24244) Note Off ch=6 par1=105 par2=64
Channel Event. t= 7 (24251) Note On ch=6 par1=108 par2=89
Channel Event. t= 11 (24262) Note Off ch=6 par1=107 par2=64
Channel Event. t= 74 (24336) Note Off ch=6 par1=108 par2=64
Channel Event. t= 40768 (65104) Controller ch=6 par1=7 (Main Volume) par2=40
Channel Event. t= 142 (65246) Note On ch=6 par1=79 par2=68
Channel Event. t= 14 (65260) Note On ch=6 par1=81 par2=45
Channel Event. t= 17 (65277) Note Off ch=6 par1=79 par2=64
Channel Event. t= 0 (65277) Note On ch=6 par1=83 par2=73
Channel Event. t= 14 (65291) Note On ch=6 par1=84 par2=79
Channel Event. t= 2 (65293) Note Off ch=6 par1=81 par2=64
Channel Event. t= 9 (65302) Note On ch=6 par1=86 par2=76
Channel Event. t= 1 (65303) Note Off ch=6 par1=83 par2=64
Channel Event. t= 8 (65311) Note On ch=6 par1=88 par2=82
Channel Event. t= 7 (65318) Note Off ch=6 par1=84 par2=64
Channel Event. t= 3 (65321) Note On ch=6 par1=89 par2=85
Channel Event. t= 8 (65329) Note Off ch=6 par1=86 par2=64
Channel Event. t= 1 (65330) Note On ch=6 par1=91 par2=93
Channel Event. t= 4 (65334) Note Off ch=6 par1=88 par2=64
Channel Event. t= 4 (65338) Note Off ch=6 par1=89 par2=64
Channel Event. t= 1 (65339) Note On ch=6 par1=93 par2=90
Channel Event. t= 7 (65346) Note Off ch=6 par1=91 par2=64
Channel Event. t= 2 (65348) Note On ch=6 par1=95 par2=95
Channel Event. t= 5 (65353) Note Off ch=6 par1=93 par2=64
Channel Event. t= 4 (65357) Note On ch=6 par1=96 par2=96
Channel Event. t= 4 (65361) Note Off ch=6 par1=95 par2=64
Channel Event. t= 4 (65365) Note On ch=6 par1=98 par2=103
Channel Event. t= 4 (65369) Note Off ch=6 par1=96 par2=64
Channel Event. t= 5 (65374) Note On ch=6 par1=100 par2=97
Channel Event. t= 2 (65376) Note Off ch=6 par1=98 par2=64
Channel Event. t= 5 (65381) Note On ch=6 par1=101 par2=97
Channel Event. t= 2 (65383) Note Off ch=6 par1=100 par2=64
Channel Event. t= 5 (65388) Note On ch=6 par1=103 par2=106
Channel Event. t= 3 (65391) Note Off ch=6 par1=101 par2=64
Channel Event. t= 5 (65396) Note On ch=6 par1=105 par2=104
Channel Event. t= 1 (65397) Note Off ch=6 par1=103 par2=64
Channel Event. t= 6 (65403) Note On ch=6 par1=107 par2=103
Channel Event. t= 3 (65406) Note Off ch=6 par1=105 par2=64
Channel Event. t= 4 (65410) Note On ch=6 par1=108 par2=102
Channel Event. t= 4 (65414) Note Off ch=6 par1=107 par2=64
Channel Event. t= 12 (65426) Note Off ch=6 par1=108 par2=64
Channel Event. t= 0 (65426) 
Meta Event. Type: 0x2f (47dec), End of Track (0 bytes): 
track #35
track size: 808
Channel Event. t= 0 (0) 
Meta Event. Type: 0x21 (33dec), MIDI Port (1 bytes): 0
Channel Event. t= 0 (0) 
Meta Event. Type: 0x3 (3dec), Sequence/Track Name (20 bytes): Flute               
Channel Event. t= 0 (0) Program Change ch=1 par1=72 par2=-117
Channel Event. t= 2272 (2272) Controller ch=1 par1=10 (Pan) par2=120
Channel Event. t= 26400 (28672) Controller ch=1 par1=7 (Pan) par2=70
Channel Event. t= 48 (28720) Controller ch=1 par1=7 (Pan) par2=71
Channel Event. t= 24 (28744) Controller ch=1 par1=10 (Pan) par2=120
Channel Event. t= 24 (28768) Controller ch=1 par1=7 (Pan) par2=72
Channel Event. t= 24 (28792) Controller ch=1 par1=7 (Pan) par2=73
Channel Event. t= 27 (28819) Note On ch=1 par1=60 par2=73
Channel Event. t= 21 (28840) Controller ch=1 par1=7 (Main Volume) par2=74
Channel Event. t= 2 (28842) Note On ch=1 par1=63 par2=86
Channel Event. t= 14 (28856) Note On ch=1 par1=66 par2=92
Channel Event. t= 8 (28864) Controller ch=1 par1=7 (Main Volume) par2=75
Channel Event. t= 5 (28869) Note Off ch=1 par1=60 par2=64
Channel Event. t= 21 (28890) Note Off ch=1 par1=63 par2=64
Channel Event. t= 3 (28893) Note Off ch=1 par1=66 par2=64
Channel Event. t= 19 (28912) Controller ch=1 par1=7 (Main Volume) par2=76
Channel Event. t= 48 (28960) Controller ch=1 par1=7 (Main Volume) par2=77
Channel Event. t= 0 (28960) Controller ch=1 par1=10 (Main Volume) par2=75
Channel Event. t= 24 (28984) Controller ch=1 par1=7 (Main Volume) par2=78
Channel Event. t= 31 (29015) Note On ch=1 par1=67 par2=69
Channel Event. t= 17 (29032) Controller ch=1 par1=7 (Main Volume) par2=79
Channel Event. t= 0 (29032) Note On ch=1 par1=70 par2=94
Channel Event. t= 16 (29048) Note On ch=1 par1=73 par2=95
Channel Event. t= 7 (29055) Note Off ch=1 par1=67 par2=64
Channel Event. t= 1 (29056) Controller ch=1 par1=7 (Main Volume) par2=80
Channel Event. t= 11 (29067) Note Off ch=1 par1=70 par2=64
Channel Event. t= 21 (29088) Note Off ch=1 par1=73 par2=64
Channel Event. t= 16 (29104) Controller ch=1 par1=7 (Main Volume) par2=81
Channel Event. t= 24 (29128) Controller ch=1 par1=10 (Main Volume) par2=45
Channel Event. t= 24 (29152) Controller ch=1 par1=7 (Main Volume) par2=82
Channel Event. t= 24 (29176) Controller ch=1 par1=7 (Main Volume) par2=83
Channel Event. t= 31 (29207) Note On ch=1 par1=73 par2=84
Channel Event. t= 11 (29218) Note On ch=1 par1=76 par2=96
Channel Event. t= 6 (29224) Controller ch=1 par1=7 (Main Volume) par2=84
Channel Event. t= 16 (29240) Note On ch=1 par1=79 par2=79
Channel Event. t= 8 (29248) Controller ch=1 par1=7 (Main Volume) par2=85
Channel Event. t= 3 (29251) Note Off ch=1 par1=73 par2=64
Channel Event. t= 5 (29256) Note Off ch=1 par1=76 par2=64
Channel Event. t= 20 (29276) Note Off ch=1 par1=79 par2=64
Channel Event. t= 20 (29296) Controller ch=1 par1=7 (Main Volume) par2=86
Channel Event. t= 48 (29344) Controller ch=1 par1=7 (Main Volume) par2=87
Channel Event. t= 0 (29344) Controller ch=1 par1=10 (Main Volume) par2=10
Channel Event. t= 24 (29368) Controller ch=1 par1=7 (Main Volume) par2=88
Channel Event. t= 37 (29405) Note On ch=1 par1=79 par2=86
Channel Event. t= 11 (29416) Controller ch=1 par1=7 (Main Volume) par2=89
Channel Event. t= 4 (29420) Note On ch=1 par1=82 par2=35
Channel Event. t= 3 (29423) Note On ch=1 par1=85 par2=94
Channel Event. t= 17 (29440) Controller ch=1 par1=7 (Main Volume) par2=90
Channel Event. t= 2 (29442) Note Off ch=1 par1=79 par2=64
Channel Event. t= 1 (29443) Note Off ch=1 par1=82 par2=64
Channel Event. t= 16 (29459) Note Off ch=1 par1=85 par2=64
Channel Event. t= 29 (29488) Controller ch=1 par1=7 (Main Volume) par2=91
Channel Event. t= 48 (29536) Controller ch=1 par1=7 (Main Volume) par2=92
Channel Event. t= 24 (29560) Controller ch=1 par1=7 (Main Volume) par2=93
Channel Event. t= 48 (29608) Controller ch=1 par1=7 (Main Volume) par2=94
Channel Event. t= 24 (29632) Controller ch=1 par1=7 (Main Volume) par2=95
Channel Event. t= 48 (29680) Controller ch=1 par1=7 (Main Volume) par2=96
Channel Event. t= 48 (29728) Controller ch=1 par1=7 (Main Volume) par2=97
Channel Event. t= 24 (29752) Controller ch=1 par1=7 (Main Volume) par2=98
Channel Event. t= 48 (29800) Controller ch=1 par1=7 (Main Volume) par2=99
Channel Event. t= 24 (29824) Controller ch=1 par1=7 (Main Volume) par2=100
Channel Event. t= 48 (29872) Controller ch=1 par1=7 (Main Volume) par2=101
Channel Event. t= 48 (29920) Controller ch=1 par1=7 (Main Volume) par2=102
Channel Event. t= 24 (29944) Controller ch=1 par1=7 (Main Volume) par2=103
Channel Event. t= 48 (29992) Controller ch=1 par1=7 (Main Volume) par2=104
Channel Event. t= 24 (30016) Controller ch=1 par1=7 (Main Volume) par2=105
Channel Event. t= 48 (30064) Controller ch=1 par1=7 (Main Volume) par2=106
Channel Event. t= 48 (30112) Controller ch=1 par1=7 (Main Volume) par2=107
Channel Event. t= 24 (30136) Controller ch=1 par1=7 (Main Volume) par2=108
Channel Event. t= 48 (30184) Controller ch=1 par1=7 (Main Volume) par2=109
Channel Event. t= 23 (30207) Controller ch=1 par1=7 (Main Volume) par2=110
Channel Event. t= 3061 (33268) Controller ch=1 par1=10 (Main Volume) par2=20
Channel Event. t= 36 (33304) Controller ch=1 par1=7 (Main Volume) par2=102
Channel Event. t= 148 (33452) Note On ch=1 par1=77 par2=74
Channel Event. t= 11 (33463) Note On ch=1 par1=75 par2=84
Channel Event. t= 30 (33493) Note Off ch=1 par1=77 par2=64
Channel Event. t= 33 (33526) Note Off ch=1 par1=75 par2=64
Channel Event. t= 132 (33658) Note On ch=1 par1=74 par2=80
Channel Event. t= 42 (33700) Note On ch=1 par1=73 par2=76
Channel Event. t= 7 (33707) Note Off ch=1 par1=74 par2=64
Channel Event. t= 45 (33752) Note On ch=1 par1=72 par2=56
Channel Event. t= 7 (33759) Note Off ch=1 par1=73 par2=64
Channel Event. t= 32 (33791) Note Off ch=1 par1=72 par2=64
Channel Event. t= 3 (33794) Note On ch=1 par1=71 par2=66
Channel Event. t= 44 (33838) Note Off ch=1 par1=71 par2=64
Channel Event. t= 4 (33842) Note On ch=1 par1=70 par2=71
Channel Event. t= 45 (33887) Note Off ch=1 par1=70 par2=64
Channel Event. t= 4 (33891) Note On ch=1 par1=74 par2=64
Channel Event. t= 46 (33937) Note On ch=1 par1=70 par2=60
Channel Event. t= 9 (33946) Note Off ch=1 par1=74 par2=64
Channel Event. t= 52 (33998) Note On ch=1 par1=65 par2=59
Channel Event. t= 8 (34006) Note Off ch=1 par1=70 par2=64
Channel Event. t= 40 (34046) Note Off ch=1 par1=65 par2=64
Channel Event. t= 2 (34048) Note On ch=1 par1=66 par2=90
Channel Event. t= 42 (34090) Note On ch=1 par1=65 par2=66
Channel Event. t= 8 (34098) Note Off ch=1 par1=66 par2=64
Channel Event. t= 42 (34140) Note On ch=1 par1=64 par2=84
Channel Event. t= 8 (34148) Note Off ch=1 par1=65 par2=64
Channel Event. t= 42 (34190) Note On ch=1 par1=63 par2=83
Channel Event. t= 21 (34211) Note Off ch=1 par1=64 par2=64
Channel Event. t= 23 (34234) Note Off ch=1 par1=63 par2=64
Channel Event. t= 14 (34248) Note On ch=1 par1=63 par2=108
Channel Event. t= 162 (34410) Note Off ch=1 par1=63 par2=64
Channel Event. t= 32 (34442) Note On ch=1 par1=63 par2=102
Channel Event. t= 145 (34587) Note Off ch=1 par1=63 par2=64
Channel Event. t= 13 (34600) Controller ch=1 par1=10 (Pan) par2=0
Channel Event. t= 19 (34619) Note On ch=1 par1=77 par2=73
Channel Event. t= 1 (34620) Note On ch=1 par1=75 par2=93
Channel Event. t= 67 (34687) Note Off ch=1 par1=77 par2=64
Channel Event. t= 137 (34824) Note On ch=1 par1=87 par2=89
Channel Event. t= 11 (34835) Note Off ch=1 par1=75 par2=64
Channel Event. t= 181 (35016) Note On ch=1 par1=75 par2=86
Channel Event. t= 10 (35026) Note Off ch=1 par1=87 par2=64
Channel Event. t= 122 (35148) Note Off ch=1 par1=75 par2=64
Channel Event. t= 41 (35189) Note On ch=1 par1=77 par2=75
Channel Event. t= 3 (35192) Note On ch=1 par1=75 par2=86
Channel Event. t= 30 (35222) Note Off ch=1 par1=77 par2=64
Channel Event. t= 153 (35375) Note Off ch=1 par1=75 par2=64
Channel Event. t= 19 (35394) Note On ch=1 par1=75 par2=88
Channel Event. t= 42 (35436) Note Off ch=1 par1=75 par2=64
Channel Event. t= 45 (35481) Note On ch=1 par1=75 par2=91
Channel Event. t= 53 (35534) Note Off ch=1 par1=75 par2=64
Channel Event. t= 47 (35581) Note On ch=1 par1=75 par2=105
Channel Event. t= 147 (35728) Note Off ch=1 par1=75 par2=64
Channel Event. t= 24 (35752) Controller ch=1 par1=10 (Pan) par2=0
Channel Event. t= 8 (35760) Note On ch=1 par1=89 par2=85
Channel Event. t= 14 (35774) Note On ch=1 par1=87 par2=93
Channel Event. t= 37 (35811) Note Off ch=1 par1=89 par2=64
Channel Event. t= 150 (35961) Note Off ch=1 par1=87 par2=64
Channel Event. t= 11 (35972) Note On ch=1 par1=89 par2=83
Channel Event. t= 32 (36004) Note Off ch=1 par1=89 par2=64
Channel Event. t= 19 (36023) Note On ch=1 par1=88 par2=72
Channel Event. t= 32 (36055) Note Off ch=1 par1=88 par2=64
Channel Event. t= 13 (36068) Note On ch=1 par1=86 par2=76
Channel Event. t= 56 (36124) Note On ch=1 par1=85 par2=88
Channel Event. t= 6 (36130) Note Off ch=1 par1=86 par2=64
Channel Event. t= 33 (36163) Note Off ch=1 par1=85 par2=64
Channel Event. t= 4 (36167) Note On ch=1 par1=84 par2=63
Channel Event. t= 47 (36214) Note On ch=1 par1=83 par2=77
Channel Event. t= 5 (36219) Note Off ch=1 par1=84 par2=64
Channel Event. t= 40 (36259) Note Off ch=1 par1=83 par2=64
Channel Event. t= 0 (36259) Note On ch=1 par1=82 par2=54
Channel Event. t= 50 (36309) Note Off ch=1 par1=82 par2=64
Channel Event. t= 0 (36309) Note On ch=1 par1=81 par2=73
Channel Event. t= 57 (36366) Note On ch=1 par1=80 par2=96
Channel Event. t= 14 (36380) Note Off ch=1 par1=81 par2=64
Channel Event. t= 18 (36398) Note Off ch=1 par1=80 par2=64
Channel Event. t= 11 (36409) Note On ch=1 par1=79 par2=84
Channel Event. t= 45 (36454) Note On ch=1 par1=78 par2=79
Channel Event. t= 2 (36456) Note Off ch=1 par1=79 par2=64
Channel Event. t= 37 (36493) Note Off ch=1 par1=78 par2=64
Channel Event. t= 3 (36496) Note On ch=1 par1=77 par2=80
Channel Event. t= 56 (36552) Note On ch=1 par1=75 par2=105
Channel Event. t= 6 (36558) Note Off ch=1 par1=77 par2=64
Channel Event. t= 163 (36721) Note Off ch=1 par1=75 par2=64
Channel Event. t= 25 (36746) Note On ch=1 par1=75 par2=102
Channel Event. t= 134 (36880) Controller ch=1 par1=7 (Main Volume) par2=90
Channel Event. t= 27 (36907) Note Off ch=1 par1=75 par2=64
Channel Event. t= 16 (36923) Note On ch=1 par1=71 par2=75
Channel Event. t= 53 (36976) Note On ch=1 par1=73 par2=53
Channel Event. t= 3 (36979) Note Off ch=1 par1=71 par2=64
Channel Event. t= 35 (37014) Note On ch=1 par1=71 par2=34
Channel Event. t= 5 (37019) Note Off ch=1 par1=73 par2=64
Channel Event. t= 53 (37072) Note On ch=1 par1=73 par2=53
Channel Event. t= 2 (37074) Note Off ch=1 par1=71 par2=64
Channel Event. t= 40 (37114) Note On ch=1 par1=71 par2=35
Channel Event. t= 1 (37115) Note Off ch=1 par1=73 par2=64
Channel Event. t= 54 (37169) Note On ch=1 par1=73 par2=47
Channel Event. t= 3 (37172) Note Off ch=1 par1=71 par2=64
Channel Event. t= 37 (37209) Note On ch=1 par1=71 par2=32
Channel Event. t= 2 (37211) Note Off ch=1 par1=73 par2=64
Channel Event. t= 49 (37260) Note On ch=1 par1=73 par2=51
Channel Event. t= 5 (37265) Note Off ch=1 par1=71 par2=64
Channel Event. t= 45 (37310) Note Off ch=1 par1=73 par2=64
Channel Event. t= 0 (37310) Note On ch=1 par1=71 par2=39
Channel Event. t= 194 (37504) Note On ch=1 par1=83 par2=61
Channel Event. t= 19 (37523) Note Off ch=1 par1=71 par2=64
Channel Event. t= 172 (37695) Note On ch=1 par1=79 par2=51
Channel Event. t= 11 (37706) Note Off ch=1 par1=83 par2=64
Channel Event. t= 73 (37779) Note On ch=1 par1=76 par2=61
Channel Event. t= 7 (37786) Note Off ch=1 par1=79 par2=64
Channel Event. t= 98 (37884) Note On ch=1 par1=71 par2=68
Channel Event. t= 28 (37912) Note Off ch=1 par1=76 par2=64
Channel Event. t= 146 (38058) Note Off ch=1 par1=71 par2=64
Channel Event. t= 23 (38081) Note On ch=1 par1=71 par2=50
Channel Event. t= 49 (38130) Note On ch=1 par1=73 par2=59
Channel Event. t= 9 (38139) Note Off ch=1 par1=71 par2=64
Channel Event. t= 36 (38175) Note Off ch=1 par1=73 par2=64
Channel Event. t= 2 (38177) Note On ch=1 par1=71 par2=41
Channel Event. t= 36 (38213) Note On ch=1 par1=73 par2=66
Channel Event. t= 3 (38216) Note Off ch=1 par1=71 par2=64
Channel Event. t= 43 (38259) Note Off ch=1 par1=73 par2=64
Channel Event. t= 1 (38260) Note On ch=1 par1=71 par2=53
Channel Event. t= 43 (38303) Note On ch=1 par1=73 par2=59
Channel Event. t= 2 (38305) Note Off ch=1 par1=71 par2=64
Channel Event. t= 45 (38350) Note Off ch=1 par1=73 par2=64
Channel Event. t= 4 (38354) Note On ch=1 par1=71 par2=46
Channel Event. t= 38 (38392) Note On ch=1 par1=73 par2=62
Channel Event. t= 6 (38398) Note Off ch=1 par1=71 par2=64
Channel Event. t= 46 (38444) Note Off ch=1 par1=73 par2=64
Channel Event. t= 3 (38447) Note On ch=1 par1=71 par2=61
Channel Event. t= 196 (38643) Note On ch=1 par1=83 par2=85
Channel Event. t= 7 (38650) Note Off ch=1 par1=71 par2=64
Channel Event. t= 186 (38836) Note On ch=1 par1=79 par2=63
Channel Event. t= 6 (38842) Note Off ch=1 par1=83 par2=64
Channel Event. t= 78 (38920) Note Off ch=1 par1=79 par2=64
Channel Event. t= 10 (38930) Note On ch=1 par1=76 par2=48
Channel Event. t= 98 (39028) Note On ch=1 par1=71 par2=56
Channel Event. t= 15 (39043) Note Off ch=1 par1=76 par2=64
Channel Event. t= 148 (39191) Note Off ch=1 par1=71 par2=64
Channel Event. t= 0 (39191) 
Meta Event. Type: 0x2f (47dec), End of Track (0 bytes): 
track #36
track size: 260
Channel Event. t= 0 (0) 
Meta Event. Type: 0x21 (33dec), MIDI Port (1 bytes): 0
Channel Event. t= 0 (0) 
Meta Event. Type: 0x3 (3dec), Sequence/Track Name (20 bytes): Rhythm              
Channel Event. t= 0 (0) Program Change ch=9 par1=0 par2=-116
Channel Event. t= 0 (0) Controller ch=9 par1=7 (Main Volume) par2=116
Channel Event. t= 72 (72) Controller ch=9 par1=7 (Main Volume) par2=115
Channel Event. t= 48 (120) Controller ch=9 par1=7 (Main Volume) par2=114
Channel Event. t= 48 (168) Controller ch=9 par1=7 (Main Volume) par2=113
Channel Event. t= 48 (216) Controller ch=9 par1=7 (Main Volume) par2=112
Channel Event. t= 48 (264) Controller ch=9 par1=7 (Main Volume) par2=111
Channel Event. t= 48 (312) Controller ch=9 par1=7 (Main Volume) par2=110
Channel Event. t= 48 (360) Controller ch=9 par1=7 (Main Volume) par2=109
Channel Event. t= 48 (408) Controller ch=9 par1=7 (Main Volume) par2=108
Channel Event. t= 48 (456) Controller ch=9 par1=7 (Main Volume) par2=107
Channel Event. t= 48 (504) Controller ch=9 par1=7 (Main Volume) par2=106
Channel Event. t= 48 (552) Controller ch=9 par1=7 (Main Volume) par2=105
Channel Event. t= 48 (600) Controller ch=9 par1=7 (Main Volume) par2=104
Channel Event. t= 48 (648) Controller ch=9 par1=7 (Main Volume) par2=103
Channel Event. t= 48 (696) Controller ch=9 par1=7 (Main Volume) par2=102
Channel Event. t= 48 (744) Controller ch=9 par1=7 (Main Volume) par2=101
Channel Event. t= 8 (752) Note On ch=9 par1=62 par2=122
Channel Event. t= 40 (792) Controller ch=9 par1=7 (Main Volume) par2=100
Channel Event. t= 32 (824) Note Off ch=9 par1=62 par2=64
Channel Event. t= 16 (840) Controller ch=9 par1=7 (Main Volume) par2=99
Channel Event. t= 48 (888) Controller ch=9 par1=7 (Main Volume) par2=98
Channel Event. t= 48 (936) Controller ch=9 par1=7 (Main Volume) par2=97
Channel Event. t= 6 (942) Note On ch=9 par1=62 par2=115
Channel Event. t= 42 (984) Controller ch=9 par1=7 (Main Volume) par2=96
Channel Event. t= 20 (1004) Note Off ch=9 par1=62 par2=64
Channel Event. t= 28 (1032) Controller ch=9 par1=7 (Main Volume) par2=95
Channel Event. t= 48 (1080) Controller ch=9 par1=7 (Main Volume) par2=94
Channel Event. t= 48 (1128) Controller ch=9 par1=7 (Main Volume) par2=93
Channel Event. t= 14 (1142) Note On ch=9 par1=62 par2=115
Channel Event. t= 34 (1176) Controller ch=9 par1=7 (Main Volume) par2=92
Channel Event. t= 14 (1190) Note Off ch=9 par1=62 par2=64
Channel Event. t= 58 (1248) Controller ch=9 par1=7 (Main Volume) par2=91
Channel Event. t= 48 (1296) Controller ch=9 par1=7 (Main Volume) par2=90
Channel Event. t= 37 (1333) Note On ch=9 par1=62 par2=117
Channel Event. t= 11 (1344) Controller ch=9 par1=7 (Main Volume) par2=89
Channel Event. t= 33 (1377) Note Off ch=9 par1=62 par2=64
Channel Event. t= 15 (1392) Controller ch=9 par1=7 (Main Volume) par2=88
Channel Event. t= 48 (1440) Controller ch=9 par1=7 (Main Volume) par2=87
Channel Event. t= 48 (1488) Controller ch=9 par1=7 (Main Volume) par2=86
Channel Event. t= 34 (1522) Note On ch=9 par1=62 par2=118
Channel Event. t= 14 (1536) Controller ch=9 par1=7 (Main Volume) par2=85
Channel Event. t= 32 (1568) Note Off ch=9 par1=62 par2=64
Channel Event. t= 16 (1584) Controller ch=9 par1=7 (Main Volume) par2=84
Channel Event. t= 48 (1632) Controller ch=9 par1=7 (Main Volume) par2=83
Channel Event. t= 48 (1680) Controller ch=9 par1=7 (Main Volume) par2=82
Channel Event. t= 40 (1720) Note On ch=9 par1=62 par2=119
Channel Event. t= 8 (1728) Controller ch=9 par1=7 (Main Volume) par2=81
Channel Event. t= 34 (1762) Note Off ch=9 par1=62 par2=64
Channel Event. t= 14 (1776) Controller ch=9 par1=7 (Main Volume) par2=80
Channel Event. t= 48 (1824) Controller ch=9 par1=7 (Main Volume) par2=79
Channel Event. t= 48 (1872) Controller ch=9 par1=7 (Main Volume) par2=78
Channel Event. t= 41 (1913) Note On ch=9 par1=62 par2=118
Channel Event. t= 7 (1920) Controller ch=9 par1=7 (Main Volume) par2=77
Channel Event. t= 33 (1953) Note Off ch=9 par1=62 par2=64
Channel Event. t= 15 (1968) Controller ch=9 par1=7 (Main Volume) par2=76
Channel Event. t= 48 (2016) Controller ch=9 par1=7 (Main Volume) par2=75
Channel Event. t= 48 (2064) Controller ch=9 par1=7 (Main Volume) par2=74
Channel Event. t= 45 (2109) Note On ch=9 par1=62 par2=118
Channel Event. t= 3 (2112) Controller ch=9 par1=7 (Main Volume) par2=73
Channel Event. t= 38 (2150) Note Off ch=9 par1=62 par2=64
Channel Event. t= 10 (2160) Controller ch=9 par1=7 (Main Volume) par2=72
Channel Event. t= 48 (2208) Controller ch=9 par1=7 (Main Volume) par2=71
Channel Event. t= 48 (2256) Controller ch=9 par1=7 (Main Volume) par2=70
Channel Event. t= 0 (2256) 
Meta Event. Type: 0x2f (47dec), End of Track (0 bytes): 
track #37
track size: 286
Channel Event. t= 0 (0) 
Meta Event. Type: 0x21 (33dec), MIDI Port (1 bytes): 0
Channel Event. t= 0 (0) 
Meta Event. Type: 0x3 (3dec), Sequence/Track Name (20 bytes): Oboe                
Channel Event. t= 0 (0) Program Change ch=2 par1=84 par2=-117
Channel Event. t= 2272 (2272) Controller ch=2 par1=10 (Pan) par2=30
Channel Event. t= 43800 (46072) Controller ch=2 par1=7 (Pan) par2=80
Channel Event. t= 67 (46139) Note On ch=2 par1=78 par2=80
Channel Event. t= 19 (46158) Note On ch=2 par1=77 par2=58
Channel Event. t= 25 (46183) Note Off ch=2 par1=78 par2=64
Channel Event. t= 539 (46722) Note Off ch=2 par1=77 par2=64
Channel Event. t= 12 (46734) Note On ch=2 par1=77 par2=69
Channel Event. t= 23 (46757) Note On ch=2 par1=76 par2=70
Channel Event. t= 23 (46780) Note Off ch=2 par1=77 par2=64
Channel Event. t= 69 (46849) Note On ch=2 par1=75 par2=96
Channel Event. t= 7 (46856) Note Off ch=2 par1=76 par2=64
Channel Event. t= 87 (46943) Note On ch=2 par1=74 par2=72
Channel Event. t= 1 (46944) Note Off ch=2 par1=75 par2=64
Channel Event. t= 87 (47031) Note On ch=2 par1=75 par2=77
Channel Event. t= 10 (47041) Note Off ch=2 par1=74 par2=64
Channel Event. t= 59 (47100) Note On ch=2 par1=76 par2=84
Channel Event. t= 8 (47108) Note Off ch=2 par1=75 par2=64
Channel Event. t= 18 (47126) Note On ch=2 par1=81 par2=66
Channel Event. t= 13 (47139) Note Off ch=2 par1=76 par2=64
Channel Event. t= 81 (47220) Note On ch=2 par1=79 par2=74
Channel Event. t= 16 (47236) Note Off ch=2 par1=81 par2=64
Channel Event. t= 38 (47274) Note Off ch=2 par1=79 par2=64
Channel Event. t= 38 (47312) Note On ch=2 par1=78 par2=97
Channel Event. t= 9 (47321) Note On ch=2 par1=77 par2=72
Channel Event. t= 32 (47353) Note Off ch=2 par1=78 par2=64
Channel Event. t= 496 (47849) Note Off ch=2 par1=77 par2=64
Channel Event. t= 18 (47867) Note On ch=2 par1=77 par2=94
Channel Event. t= 11 (47878) Note On ch=2 par1=76 par2=69
Channel Event. t= 47 (47925) Note Off ch=2 par1=77 par2=64
Channel Event. t= 51 (47976) Note On ch=2 par1=75 par2=65
Channel Event. t= 7 (47983) Note Off ch=2 par1=76 par2=64
Channel Event. t= 90 (48073) Note On ch=2 par1=74 par2=63
Channel Event. t= 3 (48076) Note Off ch=2 par1=75 par2=64
Channel Event. t= 89 (48165) Note On ch=2 par1=75 par2=68
Channel Event. t= 21 (48186) Note Off ch=2 par1=74 par2=64
Channel Event. t= 70 (48256) Note On ch=2 par1=76 par2=64
Channel Event. t= 27 (48283) Note Off ch=2 par1=75 par2=64
Channel Event. t= 165 (48448) Note Off ch=2 par1=76 par2=64
Channel Event. t= 5928 (54376) Note On ch=2 par1=60 par2=72
Channel Event. t= 48 (54424) Note Off ch=2 par1=60 par2=64
Channel Event. t= 43 (54467) Note On ch=2 par1=65 par2=52
Channel Event. t= 48 (54515) Note Off ch=2 par1=65 par2=64
Channel Event. t= 41 (54556) Note On ch=2 par1=69 par2=74
Channel Event. t= 145 (54701) Note Off ch=2 par1=69 par2=64
Channel Event. t= 6 (54707) Note On ch=2 par1=65 par2=66
Channel Event. t= 48 (54755) Note Off ch=2 par1=65 par2=64
Channel Event. t= 1 (54756) Note On ch=2 par1=60 par2=73
Channel Event. t= 48 (54804) Note Off ch=2 par1=60 par2=64
Channel Event. t= 51 (54855) Note On ch=2 par1=57 par2=77
Channel Event. t= 48 (54903) Note Off ch=2 par1=57 par2=64
Channel Event. t= 49 (54952) Note On ch=2 par1=53 par2=97
Channel Event. t= 157 (55109) Note Off ch=2 par1=53 par2=64
Channel Event. t= 33 (55142) Note On ch=2 par1=53 par2=87
Channel Event. t= 41 (55183) Note Off ch=2 par1=53 par2=64
Channel Event. t= 56 (55239) Note On ch=2 par1=57 par2=78
Channel Event. t= 39 (55278) Note Off ch=2 par1=57 par2=64
Channel Event. t= 60 (55338) Note On ch=2 par1=62 par2=82
Channel Event. t= 41 (55379) Note Off ch=2 par1=62 par2=64
Channel Event. t= 52 (55431) Note On ch=2 par1=65 par2=74
Channel Event. t= 32 (55463) Note Off ch=2 par1=65 par2=64
Channel Event. t= 70 (55533) Note On ch=2 par1=63 par2=88
Channel Event. t= 633 (56166) Note Off ch=2 par1=63 par2=64
Channel Event. t= 0 (56166) 
Meta Event. Type: 0x2f (47dec), End of Track (0 bytes): 
track #38
track size: 552
Channel Event. t= 0 (0) 
Meta Event. Type: 0x21 (33dec), MIDI Port (1 bytes): 0
Channel Event. t= 0 (0) 
Meta Event. Type: 0x3 (3dec), Sequence/Track Name (20 bytes): French Horn         
Channel Event. t= 0 (0) Program Change ch=3 par1=92 par2=-117
Channel Event. t= 2272 (2272) Controller ch=3 par1=10 (Pan) par2=75
Channel Event. t= 43848 (46120) Controller ch=3 par1=7 (Pan) par2=70
Channel Event. t= 78 (46198) Note On ch=3 par1=65 par2=64
Channel Event. t= 532 (46730) Note On ch=3 par1=64 par2=38
Channel Event. t= 20 (46750) Note Off ch=3 par1=65 par2=64
Channel Event. t= 559 (47309) Note On ch=3 par1=65 par2=50
Channel Event. t= 27 (47336) Note Off ch=3 par1=64 par2=64
Channel Event. t= 544 (47880) Note On ch=3 par1=64 par2=49
Channel Event. t= 35 (47915) Note Off ch=3 par1=65 par2=64
Channel Event. t= 558 (48473) Note Off ch=3 par1=64 par2=64
Channel Event. t= 71 (48544) Note On ch=3 par1=53 par2=80
Channel Event. t= 89 (48633) Note Off ch=3 par1=53 par2=64
Channel Event. t= 3 (48636) Note On ch=3 par1=55 par2=62
Channel Event. t= 98 (48734) Note On ch=3 par1=57 par2=54
Channel Event. t= 3 (48737) Note Off ch=3 par1=55 par2=64
Channel Event. t= 90 (48827) Note On ch=3 par1=58 par2=61
Channel Event. t= 5 (48832) Note Off ch=3 par1=57 par2=64
Channel Event. t= 90 (48922) Note Off ch=3 par1=58 par2=64
Channel Event. t= 3 (48925) Note On ch=3 par1=60 par2=53
Channel Event. t= 94 (49019) Note On ch=3 par1=62 par2=63
Channel Event. t= 3 (49022) Note Off ch=3 par1=60 par2=64
Channel Event. t= 87 (49109) Note On ch=3 par1=63 par2=59
Channel Event. t= 94 (49203) Note Off ch=3 par1=63 par2=64
Channel Event. t= 1 (49204) Note On ch=3 par1=65 par2=70
Channel Event. t= 98 (49302) Note On ch=3 par1=67 par2=58
Channel Event. t= 4 (49306) Note Off ch=3 par1=65 par2=64
Channel Event. t= 96 (49402) Note On ch=3 par1=63 par2=65
Channel Event. t= 2 (49404) Note On ch=3 par1=68 par2=68
Channel Event. t= 19 (49423) Note Off ch=3 par1=67 par2=64
Channel Event. t= 4 (49427) Note Off ch=3 par1=62 par2=64
Channel Event. t= 79 (49506) Note Off ch=3 par1=68 par2=64
Channel Event. t= 0 (49506) Note On ch=3 par1=69 par2=57
Channel Event. t= 113 (49619) Note Off ch=3 par1=69 par2=64
Channel Event. t= 0 (49619) Note On ch=3 par1=69 par2=75
Channel Event. t= 8 (49627) Note On ch=3 par1=64 par2=77
Channel Event. t= 4 (49631) Note Off ch=3 par1=63 par2=64
Channel Event. t= 77 (49708) Note On ch=3 par1=63 par2=57
Channel Event. t= 17 (49725) Note Off ch=3 par1=64 par2=64
Channel Event. t= 75 (49800) Note On ch=3 par1=62 par2=65
Channel Event. t= 5 (49805) Note Off ch=3 par1=63 par2=64
Channel Event. t= 91 (49896) Note On ch=3 par1=61 par2=65
Channel Event. t= 1 (49897) Note Off ch=3 par1=62 par2=64
Channel Event. t= 93 (49990) Note Off ch=3 par1=61 par2=64
Channel Event. t= 2 (49992) Note On ch=3 par1=60 par2=67
Channel Event. t= 183 (50175) Note On ch=3 par1=58 par2=52
Channel Event. t= 1 (50176) Note On ch=3 par1=70 par2=65
Channel Event. t= 14 (50190) Note Off ch=3 par1=69 par2=64
Channel Event. t= 10 (50200) Note Off ch=3 par1=60 par2=64
Channel Event. t= 448 (50648) Note Off ch=3 par1=58 par2=64
Channel Event. t= 15 (50663) Note Off ch=3 par1=70 par2=64
Channel Event. t= 1438 (52101) Note On ch=3 par1=50 par2=72
Channel Event. t= 192 (52293) Note On ch=3 par1=55 par2=49
Channel Event. t= 7 (52300) Note Off ch=3 par1=50 par2=64
Channel Event. t= 195 (52495) Note On ch=3 par1=51 par2=65
Channel Event. t= 17 (52512) Note Off ch=3 par1=55 par2=64
Channel Event. t= 165 (52677) Note On ch=3 par1=55 par2=58
Channel Event. t= 10 (52687) Note Off ch=3 par1=51 par2=64
Channel Event. t= 182 (52869) Note On ch=3 par1=50 par2=59
Channel Event. t= 2 (52871) Note Off ch=3 par1=55 par2=64
Channel Event. t= 240 (53111) Note Off ch=3 par1=50 par2=64
Channel Event. t= 701 (53812) Note On ch=3 par1=53 par2=58
Channel Event. t= 758 (54570) Note On ch=3 par1=57 par2=56
Channel Event. t= 6 (54576) Note Off ch=3 par1=53 par2=64
Channel Event. t= 769 (55345) Note On ch=3 par1=62 par2=55
Channel Event. t= 25 (55370) Note Off ch=3 par1=57 par2=64
Channel Event. t= 755 (56125) Note On ch=3 par1=55 par2=56
Channel Event. t= 12 (56137) Note Off ch=3 par1=62 par2=64
Channel Event. t= 756 (56893) Note Off ch=3 par1=55 par2=64
Channel Event. t= 0 (56893) Note On ch=3 par1=50 par2=69
Channel Event. t= 103 (56996) Note On ch=3 par1=51 par2=74
Channel Event. t= 9 (57005) Note Off ch=3 par1=50 par2=64
Channel Event. t= 87 (57092) Note On ch=3 par1=50 par2=72
Channel Event. t= 5 (57097) Note Off ch=3 par1=51 par2=64
Channel Event. t= 87 (57184) Note On ch=3 par1=51 par2=73
Channel Event. t= 18 (57202) Note Off ch=3 par1=50 par2=64
Channel Event. t= 84 (57286) Note On ch=3 par1=50 par2=74
Channel Event. t= 8 (57294) Note Off ch=3 par1=51 par2=64
Channel Event. t= 151 (57445) Note Off ch=3 par1=50 par2=64
Channel Event. t= 24 (57469) Note On ch=3 par1=50 par2=77
Channel Event. t= 204 (57673) Note On ch=3 par1=55 par2=75
Channel Event. t= 10 (57683) Note Off ch=3 par1=50 par2=64
Channel Event. t= 180 (57863) Note On ch=3 par1=51 par2=74
Channel Event. t= 20 (57883) Note Off ch=3 par1=55 par2=64
Channel Event. t= 170 (58053) Note On ch=3 par1=55 par2=66
Channel Event. t= 10 (58063) Note Off ch=3 par1=51 par2=64
Channel Event. t= 179 (58242) Note On ch=3 par1=50 par2=74
Channel Event. t= 9 (58251) Note Off ch=3 par1=55 par2=64
Channel Event. t= 201 (58452) Note On ch=3 par1=48 par2=78
Channel Event. t= 14 (58466) Note Off ch=3 par1=50 par2=64
Channel Event. t= 719 (59185) Note On ch=3 par1=56 par2=55
Channel Event. t= 3 (59188) Note On ch=3 par1=53 par2=39
Channel Event. t= 18 (59206) Note Off ch=3 par1=48 par2=64
Channel Event. t= 261 (59467) Note Off ch=3 par1=53 par2=64
Channel Event. t= 503 (59970) Note On ch=3 par1=53 par2=58
Channel Event. t= 35 (60005) Note Off ch=3 par1=56 par2=64
Channel Event. t= 1494 (61499) Note On ch=3 par1=55 par2=47
Channel Event. t= 29 (61528) Note Off ch=3 par1=53 par2=64
Channel Event. t= 742 (62270) Note On ch=3 par1=50 par2=52
Channel Event. t= 22 (62292) Note Off ch=3 par1=55 par2=64
Channel Event. t= 79 (62371) Note On ch=3 par1=51 par2=65
Channel Event. t= 17 (62388) Note Off ch=3 par1=50 par2=64
Channel Event. t= 80 (62468) Note On ch=3 par1=50 par2=56
Channel Event. t= 6 (62474) Note Off ch=3 par1=51 par2=64
Channel Event. t= 82 (62556) Note On ch=3 par1=51 par2=69
Channel Event. t= 21 (62577) Note Off ch=3 par1=50 par2=64
Channel Event. t= 82 (62659) Note On ch=3 par1=50 par2=69
Channel Event. t= 10 (62669) Note Off ch=3 par1=51 par2=64
Channel Event. t= 124 (62793) Note Off ch=3 par1=50 par2=64
Channel Event. t= 41 (62834) Note On ch=3 par1=50 par2=70
Channel Event. t= 206 (63040) Note On ch=3 par1=55 par2=63
Channel Event. t= 4 (63044) Note Off ch=3 par1=50 par2=64
Channel Event. t= 190 (63234) Note On ch=3 par1=51 par2=60
Channel Event. t= 16 (63250) Note Off ch=3 par1=55 par2=64
Channel Event. t= 170 (63420) Note On ch=3 par1=55 par2=60
Channel Event. t= 9 (63429) Note Off ch=3 par1=51 par2=64
Channel Event. t= 185 (63614) Note On ch=3 par1=50 par2=61
Channel Event. t= 10 (63624) Note Off ch=3 par1=55 par2=64
Channel Event. t= 181 (63805) Note On ch=3 par1=55 par2=52
Channel Event. t= 15 (63820) Note Off ch=3 par1=50 par2=64
Channel Event. t= 180 (64000) Note On ch=3 par1=51 par2=61
Channel Event. t= 25 (64025) Note Off ch=3 par1=55 par2=64
Channel Event. t= 168 (64193) Note On ch=3 par1=50 par2=46
Channel Event. t= 13 (64206) Note Off ch=3 par1=51 par2=64
Channel Event. t= 372 (64578) Note On ch=3 par1=55 par2=42
Channel Event. t= 33 (64611) Note Off ch=3 par1=50 par2=64
Channel Event. t= 925 (65536) Note Off ch=3 par1=55 par2=64
Channel Event. t= 0 (65536) 
Meta Event. Type: 0x2f (47dec), End of Track (0 bytes): 
track #39
track size: 377
Channel Event. t= 0 (0) 
Meta Event. Type: 0x21 (33dec), MIDI Port (1 bytes): 0
Channel Event. t= 0 (0) 
Meta Event. Type: 0x3 (3dec), Sequence/Track Name (20 bytes): Strings             
Channel Event. t= 0 (0) Program Change ch=7 par1=48 par2=-117
Channel Event. t= 2272 (2272) Controller ch=7 par1=10 (Pan) par2=45
Channel Event. t= 48480 (50752) Note On ch=7 par1=43 par2=66
Channel Event. t= 0 (50752) Note On ch=7 par1=55 par2=63
Channel Event. t= 0 (50752) Note On ch=7 par1=50 par2=55
Channel Event. t= 0 (50752) Note On ch=7 par1=46 par2=70
Channel Event. t= 736 (51488) Note Off ch=7 par1=43 par2=64
Channel Event. t= 32 (51520) Note On ch=7 par1=43 par2=83
Channel Event. t= 0 (51520) Note On ch=7 par1=31 par2=89
Channel Event. t= 32 (51552) Note Off ch=7 par1=46 par2=64
Channel Event. t= 0 (51552) Note Off ch=7 par1=55 par2=64
Channel Event. t= 3 (51555) Note Off ch=7 par1=50 par2=64
Channel Event. t= 1452 (53007) Note Off ch=7 par1=43 par2=64
Channel Event. t= 49 (53056) Note On ch=7 par1=41 par2=55
Channel Event. t= 0 (53056) Note On ch=7 par1=36 par2=83
Channel Event. t= 0 (53056) Note On ch=7 par1=44 par2=71
Channel Event. t= 14 (53070) Note Off ch=7 par1=31 par2=64
Channel Event. t= 754 (53824) Note Off ch=7 par1=44 par2=64
Channel Event. t= 0 (53824) Note Off ch=7 par1=36 par2=64
Channel Event. t= 0 (53824) Note Off ch=7 par1=41 par2=64
Channel Event. t= 0 (53824) Note On ch=7 par1=43 par2=74
Channel Event. t= 0 (53824) Note On ch=7 par1=53 par2=72
Channel Event. t= 0 (53824) Note On ch=7 par1=48 par2=37
Channel Event. t= 0 (53824) Note On ch=7 par1=45 par2=72
Channel Event. t= 747 (54571) Note Off ch=7 par1=48 par2=64
Channel Event. t= 1 (54572) Note Off ch=7 par1=45 par2=64
Channel Event. t= 5 (54577) Note Off ch=7 par1=43 par2=64
Channel Event. t= 15 (54592) Note Off ch=7 par1=53 par2=64
Channel Event. t= 0 (54592) Note On ch=7 par1=48 par2=73
Channel Event. t= 0 (54592) Note On ch=7 par1=43 par2=74
Channel Event. t= 0 (54592) Note On ch=7 par1=45 par2=67
Channel Event. t= 752 (55344) Note Off ch=7 par1=48 par2=64
Channel Event. t= 13 (55357) Note Off ch=7 par1=45 par2=64
Channel Event. t= 0 (55357) Note Off ch=7 par1=43 par2=64
Channel Event. t= 3 (55360) Note On ch=7 par1=43 par2=58
Channel Event. t= 0 (55360) Note On ch=7 par1=48 par2=60
Channel Event. t= 0 (55360) Note On ch=7 par1=45 par2=85
Channel Event. t= 0 (55360) Note On ch=7 par1=53 par2=83
Channel Event. t= 755 (56115) Note Off ch=7 par1=48 par2=64
Channel Event. t= 10 (56125) Note Off ch=7 par1=43 par2=64
Channel Event. t= 3 (56128) Note On ch=7 par1=47 par2=65
Channel Event. t= 0 (56128) Note On ch=7 par1=43 par2=65
Channel Event. t= 0 (56128) Note On ch=7 par1=50 par2=68
Channel Event. t= 0 (56128) Note On ch=7 par1=55 par2=69
Channel Event. t= 28 (56156) Note Off ch=7 par1=45 par2=64
Channel Event. t= 4 (56160) Note Off ch=7 par1=47 par2=64
Channel Event. t= 16 (56176) Note Off ch=7 par1=53 par2=64
Channel Event. t= 48 (56224) Note On ch=7 par1=46 par2=67
Channel Event. t= 554 (56778) Note Off ch=7 par1=46 par2=64
Channel Event. t= 32 (56810) Note Off ch=7 par1=43 par2=64
Channel Event. t= 62 (56872) Note Off ch=7 par1=50 par2=64
Channel Event. t= 4 (56876) Note Off ch=7 par1=55 par2=64
Channel Event. t= 20 (56896) Note On ch=7 par1=43 par2=66
Channel Event. t= 0 (56896) Note On ch=7 par1=31 par2=83
Channel Event. t= 818 (57714) Note Off ch=7 par1=43 par2=64
Channel Event. t= 3 (57717) Note Off ch=7 par1=31 par2=64
Channel Event. t= 1483 (59200) Note On ch=7 par1=36 par2=55
Channel Event. t= 0 (59200) Note On ch=7 par1=41 par2=50
Channel Event. t= 0 (59200) Note On ch=7 par1=44 par2=63
Channel Event. t= 633 (59833) Note Off ch=7 par1=41 par2=64
Channel Event. t= 1 (59834) Note Off ch=7 par1=44 par2=64
Channel Event. t= 123 (59957) Note Off ch=7 par1=36 par2=64
Channel Event. t= 11 (59968) Note On ch=7 par1=48 par2=66
Channel Event. t= 0 (59968) Note On ch=7 par1=43 par2=66
Channel Event. t= 0 (59968) Note On ch=7 par1=45 par2=57
Channel Event. t= 0 (59968) Note On ch=7 par1=53 par2=73
Channel Event. t= 1450 (61418) Note Off ch=7 par1=48 par2=64
Channel Event. t= 33 (61451) Note Off ch=7 par1=43 par2=64
Channel Event. t= 53 (61504) Note On ch=7 par1=43 par2=48
Channel Event. t= 0 (61504) Note On ch=7 par1=46 par2=61
Channel Event. t= 0 (61504) Note On ch=7 par1=50 par2=58
Channel Event. t= 0 (61504) Note On ch=7 par1=55 par2=58
Channel Event. t= 18 (61522) Note Off ch=7 par1=53 par2=64
Channel Event. t= 3 (61525) Note Off ch=7 par1=45 par2=64
Channel Event. t= 650 (62175) Note Off ch=7 par1=46 par2=64
Channel Event. t= 19 (62194) Note Off ch=7 par1=43 par2=64
Channel Event. t= 78 (62272) Note On ch=7 par1=31 par2=68
Channel Event. t= 0 (62272) Note On ch=7 par1=43 par2=66
Channel Event. t= 29 (62301) Note Off ch=7 par1=55 par2=64
Channel Event. t= 5 (62306) Note Off ch=7 par1=50 par2=64
Channel Event. t= 1485 (63791) Note Off ch=7 par1=43 par2=64
Channel Event. t= 17 (63808) Note On ch=7 par1=43 par2=68
Channel Event. t= 28 (63836) Note Off ch=7 par1=31 par2=64
Channel Event. t= 164 (64000) Note On ch=7 par1=39 par2=72
Channel Event. t= 26 (64026) Note Off ch=7 par1=43 par2=64
Channel Event. t= 166 (64192) Note On ch=7 par1=38 par2=64
Channel Event. t= 25 (64217) Note Off ch=7 par1=39 par2=64
Channel Event. t= 359 (64576) Note On ch=7 par1=50 par2=46
Channel Event. t= 0 (64576) Note On ch=7 par1=46 par2=40
Channel Event. t= 0 (64576) Note On ch=7 par1=31 par2=49
Channel Event. t= 0 (64576) Note On ch=7 par1=43 par2=38
Channel Event. t= 37 (64613) Note Off ch=7 par1=38 par2=64
Channel Event. t= 923 (65536) Note Off ch=7 par1=43 par2=64
Channel Event. t= 0 (65536) Note Off ch=7 par1=31 par2=64
Channel Event. t= 0 (65536) Note Off ch=7 par1=46 par2=64
Channel Event. t= 0 (65536) Note Off ch=7 par1=50 par2=64
Channel Event. t= 0 (65536) 
Meta Event. Type: 0x2f (47dec), End of Track (0 bytes): 
track #40
track size: 33
Channel Event. t= 0 (0) 
Meta Event. Type: 0x21 (33dec), MIDI Port (1 bytes): 0
Channel Event. t= 0 (0) 
Meta Event. Type: 0x3 (3dec), Sequence/Track Name (20 bytes):                     
Channel Event. t= 0 (0) 
Meta Event. Type: 0x2f (47dec), End of Track (0 bytes): 
track #41
track size: 33
Channel Event. t= 0 (0) 
Meta Event. Type: 0x21 (33dec), MIDI Port (1 bytes): 0
Channel Event. t= 0 (0) 
Meta Event. Type: 0x3 (3dec), Sequence/Track Name (20 bytes):      PART FIVE      
Channel Event. t= 0 (0) 
Meta Event. Type: 0x2f (47dec), End of Track (0 bytes): 
track #42
track size: 33
Channel Event. t= 0 (0) 
Meta Event. Type: 0x21 (33dec), MIDI Port (1 bytes): 0
Channel Event. t= 0 (0) 
Meta Event. Type: 0x3 (3dec), Sequence/Track Name (20 bytes): THE CAPTURED WOLF   
Channel Event. t= 0 (0) 
Meta Event. Type: 0x2f (47dec), End of Track (0 bytes): 
track #43
track size: 33
Channel Event. t= 0 (0) 
Meta Event. Type: 0x21 (33dec), MIDI Port (1 bytes): 0
Channel Event. t= 0 (0) 
Meta Event. Type: 0x3 (3dec), Sequence/Track Name (20 bytes):                     
Channel Event. t= 0 (0) 
Meta Event. Type: 0x2f (47dec), End of Track (0 bytes): 
track #44
track size: 1140
Channel Event. t= 0 (0) 
Meta Event. Type: 0x21 (33dec), MIDI Port (1 bytes): 0
Channel Event. t= 0 (0) 
Meta Event. Type: 0x3 (3dec), Sequence/Track Name (20 bytes): Flute               
Channel Event. t= 0 (0) Program Change ch=1 par1=72 par2=-113
Channel Event. t= 2292 (2292) Controller ch=1 par1=10 (Pan) par2=120
Channel Event. t= 12 (2304) Note On ch=1 par1=79 par2=88
Channel Event. t= 192 (2496) Note On ch=1 par1=84 par2=95
Channel Event. t= 16 (2512) Note Off ch=1 par1=79 par2=64
Channel Event. t= 128 (2640) Note On ch=1 par1=88 par2=85
Channel Event. t= 16 (2656) Note Off ch=1 par1=84 par2=64
Channel Event. t= 26 (2682) Note Off ch=1 par1=88 par2=64
Channel Event. t= 6 (2688) Note On ch=1 par1=91 par2=87
Channel Event. t= 31 (2719) Note Off ch=1 par1=91 par2=64
Channel Event. t= 65 (2784) Note On ch=1 par1=93 par2=78
Channel Event. t= 26 (2810) Note Off ch=1 par1=93 par2=64
Channel Event. t= 70 (2880) Note On ch=1 par1=91 par2=94
Channel Event. t= 144 (3024) Note On ch=1 par1=88 par2=78
Channel Event. t= 12 (3036) Note Off ch=1 par1=91 par2=64
Channel Event. t= 31 (3067) Note Off ch=1 par1=88 par2=64
Channel Event. t= 5 (3072) Note On ch=1 par1=91 par2=85
Channel Event. t= 31 (3103) Note Off ch=1 par1=91 par2=64
Channel Event. t= 65 (3168) Note On ch=1 par1=93 par2=84
Channel Event. t= 28 (3196) Note Off ch=1 par1=93 par2=64
Channel Event. t= 68 (3264) Note On ch=1 par1=95 par2=90
Channel Event. t= 144 (3408) Note On ch=1 par1=96 par2=81
Channel Event. t= 13 (3421) Note Off ch=1 par1=95 par2=64
Channel Event. t= 28 (3449) Note Off ch=1 par1=96 par2=64
Channel Event. t= 7 (3456) Note On ch=1 par1=91 par2=68
Channel Event. t= 30 (3486) Note Off ch=1 par1=91 par2=64
Channel Event. t= 66 (3552) Note On ch=1 par1=88 par2=72
Channel Event. t= 29 (3581) Note Off ch=1 par1=88 par2=64
Channel Event. t= 67 (3648) Note On ch=1 par1=84 par2=83
Channel Event. t= 28 (3676) Note Off ch=1 par1=84 par2=64
Channel Event. t= 68 (3744) Note On ch=1 par1=86 par2=87
Channel Event. t= 26 (3770) Note Off ch=1 par1=86 par2=64
Channel Event. t= 70 (3840) Note On ch=1 par1=87 par2=96
Channel Event. t= 87 (3927) Note Off ch=1 par1=87 par2=64
Channel Event. t= 9 (3936) Note On ch=1 par1=84 par2=76
Channel Event. t= 19 (3955) Note Off ch=1 par1=84 par2=64
Channel Event. t= 77 (4032) Note On ch=1 par1=86 par2=95
Channel Event. t= 96 (4128) Note On ch=1 par1=83 par2=69
Channel Event. t= 11 (4139) Note Off ch=1 par1=86 par2=64
Channel Event. t= 3 (4142) Note Off ch=1 par1=83 par2=64
Channel Event. t= 82 (4224) Note On ch=1 par1=85 par2=97
Channel Event. t= 96 (4320) Note On ch=1 par1=82 par2=79
Channel Event. t= 7 (4327) Note Off ch=1 par1=85 par2=64
Channel Event. t= 7 (4334) Note Off ch=1 par1=82 par2=64
Channel Event. t= 82 (4416) Note On ch=1 par1=84 par2=88
Channel Event. t= 96 (4512) Note On ch=1 par1=81 par2=66
Channel Event. t= 4 (4516) Note Off ch=1 par1=84 par2=64
Channel Event. t= 15 (4531) Note Off ch=1 par1=81 par2=64
Channel Event. t= 77 (4608) Note On ch=1 par1=83 par2=87
Channel Event. t= 96 (4704) Note On ch=1 par1=80 par2=73
Channel Event. t= 9 (4713) Note Off ch=1 par1=83 par2=64
Channel Event. t= 16 (4729) Note Off ch=1 par1=80 par2=64
Channel Event. t= 71 (4800) Note On ch=1 par1=82 par2=86
Channel Event. t= 96 (4896) Note On ch=1 par1=79 par2=69
Channel Event. t= 11 (4907) Note Off ch=1 par1=82 par2=64
Channel Event. t= 8 (4915) Note Off ch=1 par1=79 par2=64
Channel Event. t= 77 (4992) Note On ch=1 par1=81 par2=82
Channel Event. t= 96 (5088) Note On ch=1 par1=78 par2=65
Channel Event. t= 7 (5095) Note Off ch=1 par1=81 par2=64
Channel Event. t= 9 (5104) Note Off ch=1 par1=78 par2=64
Channel Event. t= 80 (5184) Note On ch=1 par1=80 par2=86
Channel Event. t= 96 (5280) Note On ch=1 par1=77 par2=76
Channel Event. t= 6 (5286) Note Off ch=1 par1=80 par2=64
Channel Event. t= 7 (5293) Note Off ch=1 par1=77 par2=64
Channel Event. t= 83 (5376) Note On ch=1 par1=70 par2=96
Channel Event. t= 96 (5472) Note On ch=1 par1=75 par2=87
Channel Event. t= 20 (5492) Note Off ch=1 par1=70 par2=64
Channel Event. t= 73 (5565) Note Off ch=1 par1=75 par2=64
Channel Event. t= 3 (5568) Note On ch=1 par1=79 par2=95
Channel Event. t= 144 (5712) Note On ch=1 par1=82 par2=74
Channel Event. t= 12 (5724) Note Off ch=1 par1=79 par2=64
Channel Event. t= 1 (5725) Note Off ch=1 par1=82 par2=64
Channel Event. t= 35 (5760) Note On ch=1 par1=82 par2=80
Channel Event. t= 34 (5794) Note Off ch=1 par1=82 par2=64
Channel Event. t= 62 (5856) Note On ch=1 par1=84 par2=80
Channel Event. t= 17 (5873) Note Off ch=1 par1=84 par2=64
Channel Event. t= 79 (5952) Note On ch=1 par1=82 par2=96
Channel Event. t= 144 (6096) Note On ch=1 par1=79 par2=72
Channel Event. t= 7 (6103) Note Off ch=1 par1=82 par2=64
Channel Event. t= 41 (6144) Note Off ch=1 par1=79 par2=64
Channel Event. t= 0 (6144) Note On ch=1 par1=82 par2=89
Channel Event. t= 30 (6174) Note Off ch=1 par1=82 par2=64
Channel Event. t= 66 (6240) Note On ch=1 par1=84 par2=89
Channel Event. t= 31 (6271) Note Off ch=1 par1=84 par2=64
Channel Event. t= 65 (6336) Note On ch=1 par1=86 par2=91
Channel Event. t= 138 (6474) Note Off ch=1 par1=86 par2=64
Channel Event. t= 6 (6480) Note On ch=1 par1=87 par2=85
Channel Event. t= 14 (6494) Note Off ch=1 par1=87 par2=64
Channel Event. t= 34 (6528) Note On ch=1 par1=88 par2=96
Channel Event. t= 96 (6624) Note On ch=1 par1=89 par2=91
Channel Event. t= 11 (6635) Note Off ch=1 par1=88 par2=64
Channel Event. t= 85 (6720) Note On ch=1 par1=90 par2=93
Channel Event. t= 7 (6727) Note Off ch=1 par1=89 par2=64
Channel Event. t= 89 (6816) Note Off ch=1 par1=90 par2=64
Channel Event. t= 0 (6816) Note On ch=1 par1=91 par2=77
Channel Event. t= 96 (6912) Note On ch=1 par1=92 par2=96
Channel Event. t= 11 (6923) Note Off ch=1 par1=91 par2=64
Channel Event. t= 79 (7002) Note Off ch=1 par1=92 par2=64
Channel Event. t= 102 (7104) Note On ch=1 par1=80 par2=100
Channel Event. t= 144 (7248) Note On ch=1 par1=84 par2=74
Channel Event. t= 10 (7258) Note Off ch=1 par1=80 par2=64
Channel Event. t= 31 (7289) Note Off ch=1 par1=84 par2=64
Channel Event. t= 7 (7296) Note On ch=1 par1=87 par2=98
Channel Event. t= 28 (7324) Note Off ch=1 par1=87 par2=64
Channel Event. t= 68 (7392) Note On ch=1 par1=89 par2=80
Channel Event. t= 25 (7417) Note Off ch=1 par1=89 par2=64
Channel Event. t= 71 (7488) Note On ch=1 par1=87 par2=97
Channel Event. t= 144 (7632) Note On ch=1 par1=84 par2=78
Channel Event. t= 4 (7636) Note Off ch=1 par1=87 par2=64
Channel Event. t= 44 (7680) Note On ch=1 par1=87 par2=89
Channel Event. t= 5 (7685) Note Off ch=1 par1=84 par2=64
Channel Event. t= 23 (7708) Note Off ch=1 par1=87 par2=64
Channel Event. t= 68 (7776) Note On ch=1 par1=89 par2=82
Channel Event. t= 36 (7812) Note Off ch=1 par1=89 par2=64
Channel Event. t= 60 (7872) Note On ch=1 par1=91 par2=92
Channel Event. t= 144 (8016) Note On ch=1 par1=92 par2=84
Channel Event. t= 6 (8022) Note Off ch=1 par1=91 par2=64
Channel Event. t= 15 (8037) Note Off ch=1 par1=92 par2=64
Channel Event. t= 27 (8064) Note On ch=1 par1=87 par2=99
Channel Event. t= 31 (8095) Note Off ch=1 par1=87 par2=64
Channel Event. t= 65 (8160) Note On ch=1 par1=84 par2=83
Channel Event. t= 21 (8181) Note Off ch=1 par1=84 par2=64
Channel Event. t= 75 (8256) Note On ch=1 par1=80 par2=93
Channel Event. t= 96 (8352) Note On ch=1 par1=82 par2=91
Channel Event. t= 13 (8365) Note Off ch=1 par1=80 par2=64
Channel Event. t= 10 (8375) Note Off ch=1 par1=82 par2=64
Channel Event. t= 73 (8448) Note On ch=1 par1=83 par2=91
Channel Event. t= 96 (8544) Note On ch=1 par1=80 par2=74
Channel Event. t= 4 (8548) Note Off ch=1 par1=83 par2=64
Channel Event. t= 19 (8567) Note Off ch=1 par1=80 par2=64
Channel Event. t= 73 (8640) Note On ch=1 par1=82 par2=94
Channel Event. t= 96 (8736) Note On ch=1 par1=79 par2=69
Channel Event. t= 3 (8739) Note Off ch=1 par1=82 par2=64
Channel Event. t= 23 (8762) Note Off ch=1 par1=79 par2=64
Channel Event. t= 70 (8832) Note On ch=1 par1=81 par2=80
Channel Event. t= 96 (8928) Note On ch=1 par1=78 par2=73
Channel Event. t= 11 (8939) Note Off ch=1 par1=81 par2=64
Channel Event. t= 3 (8942) Note Off ch=1 par1=78 par2=64
Channel Event. t= 82 (9024) Note On ch=1 par1=80 par2=76
Channel Event. t= 100 (9124) Note Off ch=1 par1=80 par2=64
Channel Event. t= 92 (9216) Note On ch=1 par1=79 par2=74
Channel Event. t= 96 (9312) Note On ch=1 par1=76 par2=61
Channel Event. t= 6 (9318) Note Off ch=1 par1=79 par2=64
Channel Event. t= 12 (9330) Note Off ch=1 par1=76 par2=64
Channel Event. t= 78 (9408) Note On ch=1 par1=78 par2=81
Channel Event. t= 96 (9504) Note On ch=1 par1=75 par2=71
Channel Event. t= 10 (9514) Note Off ch=1 par1=78 par2=64
Channel Event. t= 4 (9518) Note Off ch=1 par1=75 par2=64
Channel Event. t= 82 (9600) Note On ch=1 par1=77 par2=78
Channel Event. t= 96 (9696) Note On ch=1 par1=74 par2=58
Channel Event. t= 9 (9705) Note Off ch=1 par1=77 par2=64
Channel Event. t= 6 (9711) Note Off ch=1 par1=74 par2=64
Channel Event. t= 81 (9792) Note On ch=1 par1=76 par2=71
Channel Event. t= 96 (9888) Note On ch=1 par1=73 par2=63
Channel Event. t= 7 (9895) Note Off ch=1 par1=76 par2=64
Channel Event. t= 7 (9902) Note Off ch=1 par1=73 par2=64
Channel Event. t= 82 (9984) Note On ch=1 par1=78 par2=87
Channel Event. t= 122 (10106) Note Off ch=1 par1=78 par2=64
Channel Event. t= 214 (10320) Note On ch=1 par1=78 par2=84
Channel Event. t= 18 (10338) Note Off ch=1 par1=78 par2=64
Channel Event. t= 30 (10368) Note On ch=1 par1=78 par2=87
Channel Event. t= 44 (10412) Note Off ch=1 par1=78 par2=64
Channel Event. t= 52 (10464) Note On ch=1 par1=78 par2=87
Channel Event. t= 25 (10489) Note Off ch=1 par1=78 par2=64
Channel Event. t= 71 (10560) Note On ch=1 par1=78 par2=89
Channel Event. t= 36 (10596) Note Off ch=1 par1=78 par2=64
Channel Event. t= 60 (10656) Note On ch=1 par1=78 par2=96
Channel Event. t= 31 (10687) Note Off ch=1 par1=78 par2=64
Channel Event. t= 257 (10944) Note On ch=1 par1=78 par2=104
Channel Event. t= 20 (10964) Note Off ch=1 par1=78 par2=64
Channel Event. t= 28 (10992) Note On ch=1 par1=78 par2=85
Channel Event. t= 22 (11014) Note Off ch=1 par1=78 par2=64
Channel Event. t= 26 (11040) Note On ch=1 par1=78 par2=80
Channel Event. t= 20 (11060) Note Off ch=1 par1=78 par2=64
Channel Event. t= 28 (11088) Note On ch=1 par1=78 par2=81
Channel Event. t= 23 (11111) Note Off ch=1 par1=78 par2=64
Channel Event. t= 25 (11136) Note On ch=1 par1=78 par2=98
Channel Event. t= 35 (11171) Note Off ch=1 par1=78 par2=64
Channel Event. t= 349 (11520) Note On ch=1 par1=90 par2=96
Channel Event. t= 37 (11557) Note Off ch=1 par1=90 par2=64
Channel Event. t= 59 (11616) Note On ch=1 par1=90 par2=83
Channel Event. t= 33 (11649) Note Off ch=1 par1=90 par2=64
Channel Event. t= 62 (11711) Note On ch=1 par1=91 par2=91
Channel Event. t= 1 (11712) Note On ch=1 par1=90 par2=92
Channel Event. t= 29 (11741) Note Off ch=1 par1=90 par2=64
Channel Event. t= 6 (11747) Note Off ch=1 par1=91 par2=64
Channel Event. t= 157 (11904) Note On ch=1 par1=90 par2=97
Channel Event. t= 24 (11928) Note Off ch=1 par1=90 par2=64
Channel Event. t= 72 (12000) Note On ch=1 par1=90 par2=80
Channel Event. t= 26 (12026) Note Off ch=1 par1=90 par2=64
Channel Event. t= 69 (12095) Note On ch=1 par1=91 par2=89
Channel Event. t= 1 (12096) Note On ch=1 par1=90 par2=101
Channel Event. t= 26 (12122) Note Off ch=1 par1=91 par2=64
Channel Event. t= 1 (12123) Note Off ch=1 par1=90 par2=64
Channel Event. t= 165 (12288) Note On ch=1 par1=90 par2=88
Channel Event. t= 20 (12308) Note Off ch=1 par1=90 par2=64
Channel Event. t= 76 (12384) Note On ch=1 par1=90 par2=83
Channel Event. t= 21 (12405) Note Off ch=1 par1=90 par2=64
Channel Event. t= 74 (12479) Note On ch=1 par1=91 par2=81
Channel Event. t= 1 (12480) Note On ch=1 par1=90 par2=98
Channel Event. t= 27 (12507) Note Off ch=1 par1=90 par2=64
Channel Event. t= 1 (12508) Note Off ch=1 par1=91 par2=64
Channel Event. t= 164 (12672) Note On ch=1 par1=90 par2=92
Channel Event. t= 23 (12695) Note Off ch=1 par1=90 par2=64
Channel Event. t= 73 (12768) Note On ch=1 par1=90 par2=93
Channel Event. t= 24 (12792) Note Off ch=1 par1=90 par2=64
Channel Event. t= 71 (12863) Note On ch=1 par1=91 par2=80
Channel Event. t= 1 (12864) Note On ch=1 par1=90 par2=102
Channel Event. t= 26 (12890) Note Off ch=1 par1=91 par2=64
Channel Event. t= 2 (12892) Note Off ch=1 par1=90 par2=64
Channel Event. t= 164 (13056) Note On ch=1 par1=91 par2=92
Channel Event. t= 48 (13104) Note Off ch=1 par1=91 par2=64
Channel Event. t= 720 (13824) Note On ch=1 par1=91 par2=42
Channel Event. t= 33 (13857) Note Off ch=1 par1=91 par2=64
Channel Event. t= 3039 (16896) Note On ch=1 par1=79 par2=85
Channel Event. t= 192 (17088) Note On ch=1 par1=84 par2=89
Channel Event. t= 9 (17097) Note Off ch=1 par1=79 par2=64
Channel Event. t= 135 (17232) Note On ch=1 par1=88 par2=82
Channel Event. t= 10 (17242) Note Off ch=1 par1=84 par2=64
Channel Event. t= 28 (17270) Note Off ch=1 par1=88 par2=64
Channel Event. t= 10 (17280) Note On ch=1 par1=91 par2=87
Channel Event. t= 27 (17307) Note Off ch=1 par1=91 par2=64
Channel Event. t= 69 (17376) Note On ch=1 par1=93 par2=75
Channel Event. t= 19 (17395) Note Off ch=1 par1=93 par2=64
Channel Event. t= 77 (17472) Note On ch=1 par1=91 par2=95
Channel Event. t= 144 (17616) Note On ch=1 par1=88 par2=74
Channel Event. t= 11 (17627) Note Off ch=1 par1=91 par2=64
Channel Event. t= 34 (17661) Note Off ch=1 par1=88 par2=64
Channel Event. t= 3 (17664) Note On ch=1 par1=91 par2=86
Channel Event. t= 35 (17699) Note Off ch=1 par1=91 par2=64
Channel Event. t= 61 (17760) Note On ch=1 par1=93 par2=86
Channel Event. t= 26 (17786) Note Off ch=1 par1=93 par2=64
Channel Event. t= 70 (17856) Note On ch=1 par1=95 par2=88
Channel Event. t= 144 (18000) Note Off ch=1 par1=95 par2=64
Channel Event. t= 0 (18000) Note On ch=1 par1=96 par2=79
Channel Event. t= 46 (18046) Note Off ch=1 par1=96 par2=64
Channel Event. t= 2 (18048) Note On ch=1 par1=91 par2=82
Channel Event. t= 30 (18078) Note Off ch=1 par1=91 par2=64
Channel Event. t= 66 (18144) Note On ch=1 par1=88 par2=90
Channel Event. t= 16 (18160) Note Off ch=1 par1=88 par2=64
Channel Event. t= 80 (18240) Note On ch=1 par1=84 par2=87
Channel Event. t= 24 (18264) Note Off ch=1 par1=84 par2=64
Channel Event. t= 72 (18336) Note On ch=1 par1=86 par2=88
Channel Event. t= 24 (18360) Note Off ch=1 par1=86 par2=64
Channel Event. t= 72 (18432) Note On ch=1 par1=87 par2=88
Channel Event. t= 96 (18528) Note On ch=1 par1=84 par2=76
Channel Event. t= 25 (18553) Note Off ch=1 par1=87 par2=64
Channel Event. t= 7 (18560) Note Off ch=1 par1=84 par2=64
Channel Event. t= 64 (18624) Note On ch=1 par1=86 par2=86
Channel Event. t= 96 (18720) Note On ch=1 par1=83 par2=73
Channel Event. t= 6 (18726) Note Off ch=1 par1=86 par2=64
Channel Event. t= 10 (18736) Note Off ch=1 par1=83 par2=64
Channel Event. t= 80 (18816) Note On ch=1 par1=85 par2=90
Channel Event. t= 96 (18912) Note On ch=1 par1=82 par2=80
Channel Event. t= 15 (18927) Note Off ch=1 par1=85 par2=64
Channel Event. t= 12 (18939) Note Off ch=1 par1=82 par2=64
Channel Event. t= 69 (19008) Note On ch=1 par1=84 par2=88
Channel Event. t= 96 (19104) Note On ch=1 par1=81 par2=68
Channel Event. t= 4 (19108) Note Off ch=1 par1=84 par2=64
Channel Event. t= 11 (19119) Note Off ch=1 par1=81 par2=64
Channel Event. t= 81 (19200) Note On ch=1 par1=83 par2=83
Channel Event. t= 96 (19296) Note On ch=1 par1=80 par2=77
Channel Event. t= 6 (19302) Note Off ch=1 par1=83 par2=64
Channel Event. t= 16 (19318) Note Off ch=1 par1=80 par2=64
Channel Event. t= 74 (19392) Note On ch=1 par1=82 par2=89
Channel Event. t= 96 (19488) Note On ch=1 par1=79 par2=72
Channel Event. t= 10 (19498) Note Off ch=1 par1=82 par2=64
Channel Event. t= 15 (19513) Note Off ch=1 par1=79 par2=64
Channel Event. t= 71 (19584) Note On ch=1 par1=81 par2=83
Channel Event. t= 96 (19680) Note On ch=1 par1=78 par2=80
Channel Event. t= 8 (19688) Note Off ch=1 par1=81 par2=64
Channel Event. t= 13 (19701) Note Off ch=1 par1=78 par2=64
Channel Event. t= 75 (19776) Note On ch=1 par1=80 par2=87
Channel Event. t= 96 (19872) Note On ch=1 par1=77 par2=79
Channel Event. t= 11 (19883) Note Off ch=1 par1=80 par2=64
Channel Event. t= 7 (19890) Note Off ch=1 par1=77 par2=64
Channel Event. t= 78 (19968) Note On ch=1 par1=79 par2=76
Channel Event. t= 96 (20064) Note On ch=1 par1=72 par2=66
Channel Event. t= 10 (20074) Note Off ch=1 par1=79 par2=64
Channel Event. t= 28 (20102) Note Off ch=1 par1=72 par2=64
Channel Event. t= 10 (20112) Note On ch=1 par1=74 par2=75
Channel Event. t= 38 (20150) Note Off ch=1 par1=74 par2=64
Channel Event. t= 10 (20160) Note On ch=1 par1=75 par2=75
Channel Event. t= 38 (20198) Note Off ch=1 par1=75 par2=64
Channel Event. t= 202 (20400) Note On ch=1 par1=79 par2=70
Channel Event. t= 48 (20448) Note On ch=1 par1=72 par2=53
Channel Event. t= 5 (20453) Note Off ch=1 par1=79 par2=64
Channel Event. t= 38 (20491) Note Off ch=1 par1=72 par2=64
Channel Event. t= 5 (20496) Note On ch=1 par1=74 par2=56
Channel Event. t= 48 (20544) Note On ch=1 par1=75 par2=79
Channel Event. t= 1 (20545) Note Off ch=1 par1=74 par2=64
Channel Event. t= 32 (20577) Note Off ch=1 par1=75 par2=64
Channel Event. t= 0 (20577) 
Meta Event. Type: 0x2f (47dec), End of Track (0 bytes): 
track #45
track size: 1129
Channel Event. t= 0 (0) 
Meta Event. Type: 0x21 (33dec), MIDI Port (1 bytes): 0
Channel Event. t= 0 (0) 
Meta Event. Type: 0x3 (3dec), Sequence/Track Name (20 bytes): French Horn         
Channel Event. t= 0 (0) Program Change ch=3 par1=92 par2=-113
Channel Event. t= 2160 (2160) Controller ch=3 par1=10 (Pan) par2=75
Channel Event. t= 144 (2304) Note On ch=3 par1=60 par2=39
Channel Event. t= 766 (3070) Note Off ch=3 par1=60 par2=64
Channel Event. t= 2 (3072) Note On ch=3 par1=60 par2=83
Channel Event. t= 723 (3795) Note Off ch=3 par1=60 par2=64
Channel Event. t= 237 (4032) Note On ch=3 par1=62 par2=90
Channel Event. t= 27 (4059) Note Off ch=3 par1=62 par2=64
Channel Event. t= 21 (4080) Note On ch=3 par1=62 par2=74
Channel Event. t= 40 (4120) Note Off ch=3 par1=62 par2=64
Channel Event. t= 8 (4128) Note On ch=3 par1=66 par2=73
Channel Event. t= 48 (4176) Note On ch=3 par1=62 par2=51
Channel Event. t= 1 (4177) Note Off ch=3 par1=66 par2=64
Channel Event. t= 26 (4203) Note Off ch=3 par1=62 par2=64
Channel Event. t= 213 (4416) Note On ch=3 par1=60 par2=86
Channel Event. t= 27 (4443) Note Off ch=3 par1=60 par2=64
Channel Event. t= 21 (4464) Note On ch=3 par1=60 par2=77
Channel Event. t= 38 (4502) Note Off ch=3 par1=60 par2=64
Channel Event. t= 10 (4512) Note On ch=3 par1=64 par2=79
Channel Event. t= 48 (4560) Note On ch=3 par1=60 par2=77
Channel Event. t= 4 (4564) Note Off ch=3 par1=64 par2=64
Channel Event. t= 22 (4586) Note Off ch=3 par1=60 par2=64
Channel Event. t= 214 (4800) Note On ch=3 par1=58 par2=83
Channel Event. t= 18 (4818) Note Off ch=3 par1=58 par2=64
Channel Event. t= 30 (4848) Note On ch=3 par1=58 par2=76
Channel Event. t= 33 (4881) Note Off ch=3 par1=58 par2=64
Channel Event. t= 15 (4896) Note On ch=3 par1=62 par2=67
Channel Event. t= 48 (4944) Note On ch=3 par1=58 par2=81
Channel Event. t= 2 (4946) Note Off ch=3 par1=62 par2=64
Channel Event. t= 28 (4974) Note Off ch=3 par1=58 par2=64
Channel Event. t= 210 (5184) Note On ch=3 par1=56 par2=82
Channel Event. t= 19 (5203) Note Off ch=3 par1=56 par2=64
Channel Event. t= 29 (5232) Note On ch=3 par1=56 par2=79
Channel Event. t= 27 (5259) Note Off ch=3 par1=56 par2=64
Channel Event. t= 21 (5280) Note On ch=3 par1=60 par2=70
Channel Event. t= 35 (5315) Note Off ch=3 par1=60 par2=64
Channel Event. t= 13 (5328) Note On ch=3 par1=56 par2=63
Channel Event. t= 16 (5344) Note Off ch=3 par1=56 par2=64
Channel Event. t= 32 (5376) Note On ch=3 par1=51 par2=94
Channel Event. t= 748 (6124) Note Off ch=3 par1=51 par2=64
Channel Event. t= 20 (6144) Note On ch=3 par1=51 par2=58
Channel Event. t= 0 (6144) Note On ch=3 par1=63 par2=81
Channel Event. t= 761 (6905) Note Off ch=3 par1=63 par2=64
Channel Event. t= 9 (6914) Note Off ch=3 par1=51 par2=64
Channel Event. t= 94 (7008) Note On ch=3 par1=60 par2=77
Channel Event. t= 48 (7056) Note On ch=3 par1=56 par2=71
Channel Event. t= 1 (7057) Note Off ch=3 par1=60 par2=64
Channel Event. t= 23 (7080) Note Off ch=3 par1=56 par2=64
Channel Event. t= 120 (7200) Note On ch=3 par1=60 par2=58
Channel Event. t= 48 (7248) Note On ch=3 par1=56 par2=67
Channel Event. t= 1 (7249) Note Off ch=3 par1=60 par2=64
Channel Event. t= 23 (7272) Note Off ch=3 par1=56 par2=64
Channel Event. t= 120 (7392) Note On ch=3 par1=60 par2=61
Channel Event. t= 48 (7440) Note On ch=3 par1=56 par2=65
Channel Event. t= 2 (7442) Note Off ch=3 par1=60 par2=64
Channel Event. t= 25 (7467) Note Off ch=3 par1=56 par2=64
Channel Event. t= 117 (7584) Note On ch=3 par1=60 par2=66
Channel Event. t= 48 (7632) Note On ch=3 par1=56 par2=69
Channel Event. t= 10 (7642) Note Off ch=3 par1=60 par2=64
Channel Event. t= 19 (7661) Note Off ch=3 par1=56 par2=64
Channel Event. t= 115 (7776) Note On ch=3 par1=60 par2=66
Channel Event. t= 48 (7824) Note On ch=3 par1=56 par2=72
Channel Event. t= 9 (7833) Note Off ch=3 par1=60 par2=64
Channel Event. t= 20 (7853) Note Off ch=3 par1=56 par2=64
Channel Event. t= 115 (7968) Note On ch=3 par1=60 par2=74
Channel Event. t= 48 (8016) Note On ch=3 par1=56 par2=77
Channel Event. t= 10 (8026) Note Off ch=3 par1=60 par2=64
Channel Event. t= 21 (8047) Note Off ch=3 par1=56 par2=64
Channel Event. t= 113 (8160) Note On ch=3 par1=60 par2=74
Channel Event. t= 48 (8208) Note On ch=3 par1=56 par2=75
Channel Event. t= 3 (8211) Note Off ch=3 par1=60 par2=64
Channel Event. t= 26 (8237) Note Off ch=3 par1=56 par2=64
Channel Event. t= 115 (8352) Note On ch=3 par1=60 par2=75
Channel Event. t= 47 (8399) Note Off ch=3 par1=60 par2=64
Channel Event. t= 1 (8400) Note On ch=3 par1=56 par2=80
Channel Event. t= 33 (8433) Note Off ch=3 par1=56 par2=64
Channel Event. t= 207 (8640) Note On ch=3 par1=58 par2=87
Channel Event. t= 23 (8663) Note Off ch=3 par1=58 par2=64
Channel Event. t= 25 (8688) Note On ch=3 par1=58 par2=77
Channel Event. t= 44 (8732) Note Off ch=3 par1=58 par2=64
Channel Event. t= 4 (8736) Note On ch=3 par1=62 par2=78
Channel Event. t= 48 (8784) Note On ch=3 par1=58 par2=81
Channel Event. t= 8 (8792) Note Off ch=3 par1=62 par2=64
Channel Event. t= 17 (8809) Note Off ch=3 par1=58 par2=64
Channel Event. t= 215 (9024) Note On ch=3 par1=56 par2=87
Channel Event. t= 25 (9049) Note Off ch=3 par1=56 par2=64
Channel Event. t= 23 (9072) Note On ch=3 par1=56 par2=68
Channel Event. t= 35 (9107) Note Off ch=3 par1=56 par2=64
Channel Event. t= 13 (9120) Note On ch=3 par1=60 par2=77
Channel Event. t= 48 (9168) Note On ch=3 par1=56 par2=81
Channel Event. t= 18 (9186) Note Off ch=3 par1=60 par2=64
Channel Event. t= 20 (9206) Note Off ch=3 par1=56 par2=64
Channel Event. t= 202 (9408) Note On ch=3 par1=54 par2=88
Channel Event. t= 25 (9433) Note Off ch=3 par1=54 par2=64
Channel Event. t= 23 (9456) Note On ch=3 par1=54 par2=76
Channel Event. t= 38 (9494) Note Off ch=3 par1=54 par2=64
Channel Event. t= 10 (9504) Note On ch=3 par1=58 par2=79
Channel Event. t= 48 (9552) Note On ch=3 par1=54 par2=80
Channel Event. t= 5 (9557) Note Off ch=3 par1=58 par2=64
Channel Event. t= 30 (9587) Note Off ch=3 par1=54 par2=64
Channel Event. t= 205 (9792) Note On ch=3 par1=52 par2=83
Channel Event. t= 24 (9816) Note Off ch=3 par1=52 par2=64
Channel Event. t= 24 (9840) Note On ch=3 par1=52 par2=72
Channel Event. t= 44 (9884) Note Off ch=3 par1=52 par2=64
Channel Event. t= 4 (9888) Note On ch=3 par1=56 par2=82
Channel Event. t= 48 (9936) Note Off ch=3 par1=56 par2=64
Channel Event. t= 0 (9936) Note On ch=3 par1=52 par2=73
Channel Event. t= 28 (9964) Note Off ch=3 par1=52 par2=64
Channel Event. t= 20 (9984) Note On ch=3 par1=47 par2=69
Channel Event. t= 184 (10168) Note Off ch=3 par1=47 par2=64
Channel Event. t= 8 (10176) Note On ch=3 par1=51 par2=89
Channel Event. t= 192 (10368) Note On ch=3 par1=47 par2=63
Channel Event. t= 14 (10382) Note Off ch=3 par1=51 par2=64
Channel Event. t= 178 (10560) Note Off ch=3 par1=47 par2=64
Channel Event. t= 0 (10560) Note On ch=3 par1=51 par2=60
Channel Event. t= 192 (10752) Note Off ch=3 par1=51 par2=64
Channel Event. t= 0 (10752) Note On ch=3 par1=47 par2=64
Channel Event. t= 96 (10848) Note Off ch=3 par1=47 par2=64
Channel Event. t= 0 (10848) Note On ch=3 par1=51 par2=59
Channel Event. t= 96 (10944) Note Off ch=3 par1=51 par2=64
Channel Event. t= 0 (10944) Note On ch=3 par1=51 par2=72
Channel Event. t= 192 (11136) Note Off ch=3 par1=51 par2=64
Channel Event. t= 0 (11136) Note On ch=3 par1=54 par2=68
Channel Event. t= 96 (11232) Note Off ch=3 par1=54 par2=64
Channel Event. t= 0 (11232) Note On ch=3 par1=59 par2=59
Channel Event. t= 96 (11328) Note Off ch=3 par1=59 par2=64
Channel Event. t= 0 (11328) Note On ch=3 par1=59 par2=73
Channel Event. t= 192 (11520) Note Off ch=3 par1=59 par2=64
Channel Event. t= 0 (11520) Note On ch=3 par1=59 par2=75
Channel Event. t= 1 (11521) Note Off ch=3 par1=59 par2=64
Channel Event. t= 5375 (16896) Note On ch=3 par1=60 par2=76
Channel Event. t= 753 (17649) Note Off ch=3 par1=60 par2=64
Channel Event. t= 15 (17664) Note On ch=3 par1=60 par2=78
Channel Event. t= 766 (18430) Note Off ch=3 par1=60 par2=64
Channel Event. t= 194 (18624) Note On ch=3 par1=62 par2=89
Channel Event. t= 24 (18648) Note Off ch=3 par1=62 par2=64
Channel Event. t= 24 (18672) Note On ch=3 par1=62 par2=77
Channel Event. t= 39 (18711) Note Off ch=3 par1=62 par2=64
Channel Event. t= 9 (18720) Note On ch=3 par1=66 par2=74
Channel Event. t= 48 (18768) Note On ch=3 par1=62 par2=67
Channel Event. t= 1 (18769) Note Off ch=3 par1=66 par2=64
Channel Event. t= 37 (18806) Note Off ch=3 par1=62 par2=64
Channel Event. t= 202 (19008) Note On ch=3 par1=60 par2=87
Channel Event. t= 32 (19040) Note Off ch=3 par1=60 par2=64
Channel Event. t= 16 (19056) Note On ch=3 par1=60 par2=82
Channel Event. t= 48 (19104) Note On ch=3 par1=64 par2=91
Channel Event. t= 2 (19106) Note Off ch=3 par1=60 par2=64
Channel Event. t= 45 (19151) Note Off ch=3 par1=64 par2=64
Channel Event. t= 1 (19152) Note On ch=3 par1=60 par2=88
Channel Event. t= 30 (19182) Note Off ch=3 par1=60 par2=64
Channel Event. t= 210 (19392) Note On ch=3 par1=58 par2=90
Channel Event. t= 21 (19413) Note Off ch=3 par1=58 par2=64
Channel Event. t= 27 (19440) Note On ch=3 par1=58 par2=80
Channel Event. t= 16 (19456) Note Off ch=3 par1=58 par2=64
Channel Event. t= 32 (19488) Note On ch=3 par1=62 par2=89
Channel Event. t= 48 (19536) Note On ch=3 par1=58 par2=87
Channel Event. t= 16 (19552) Note Off ch=3 par1=62 par2=64
Channel Event. t= 31 (19583) Note Off ch=3 par1=58 par2=64
Channel Event. t= 193 (19776) Note On ch=3 par1=56 par2=90
Channel Event. t= 23 (19799) Note Off ch=3 par1=56 par2=64
Channel Event. t= 25 (19824) Note On ch=3 par1=56 par2=77
Channel Event. t= 37 (19861) Note Off ch=3 par1=56 par2=64
Channel Event. t= 11 (19872) Note On ch=3 par1=60 par2=83
Channel Event. t= 48 (19920) Note On ch=3 par1=56 par2=84
Channel Event. t= 6 (19926) Note Off ch=3 par1=60 par2=64
Channel Event. t= 24 (19950) Note Off ch=3 par1=56 par2=64
Channel Event. t= 18 (19968) Note On ch=3 par1=51 par2=100
Channel Event. t= 164 (20132) Note Off ch=3 par1=51 par2=64
Channel Event. t= 28 (20160) Note On ch=3 par1=51 par2=85
Channel Event. t= 48 (20208) Note On ch=3 par1=55 par2=72
Channel Event. t= 3 (20211) Note Off ch=3 par1=51 par2=64
Channel Event. t= 40 (20251) Note Off ch=3 par1=55 par2=64
Channel Event. t= 5 (20256) Note On ch=3 par1=58 par2=75
Channel Event. t= 48 (20304) Note On ch=3 par1=55 par2=75
Channel Event. t= 6 (20310) Note Off ch=3 par1=58 par2=64
Channel Event. t= 35 (20345) Note Off ch=3 par1=55 par2=64
Channel Event. t= 199 (20544) Note On ch=3 par1=51 par2=88
Channel Event. t= 48 (20592) Note On ch=3 par1=55 par2=74
Channel Event. t= 12 (20604) Note Off ch=3 par1=51 par2=64
Channel Event. t= 36 (20640) Note On ch=3 par1=58 par2=88
Channel Event. t= 7 (20647) Note Off ch=3 par1=55 par2=64
Channel Event. t= 41 (20688) Note On ch=3 par1=63 par2=91
Channel Event. t= 10 (20698) Note Off ch=3 par1=58 par2=64
Channel Event. t= 38 (20736) Note Off ch=3 par1=63 par2=64
Channel Event. t= 29304 (50040) Controller ch=3 par1=7 (Main Volume) par2=80
Channel Event. t= 72 (50112) Note On ch=3 par1=48 par2=75
Channel Event. t= 192 (50304) Note Off ch=3 par1=48 par2=64
Channel Event. t= 0 (50304) Note On ch=3 par1=49 par2=87
Channel Event. t= 119 (50423) Note Off ch=3 par1=49 par2=64
Channel Event. t= 73 (50496) Note On ch=3 par1=51 par2=95
Channel Event. t= 131 (50627) Note Off ch=3 par1=51 par2=64
Channel Event. t= 61 (50688) Note On ch=3 par1=52 par2=105
Channel Event. t= 135 (50823) Note Off ch=3 par1=52 par2=64
Channel Event. t= 57 (50880) Note On ch=3 par1=48 par2=100
Channel Event. t= 192 (51072) Note On ch=3 par1=49 par2=99
Channel Event. t= 13 (51085) Note Off ch=3 par1=48 par2=64
Channel Event. t= 137 (51222) Note Off ch=3 par1=49 par2=64
Channel Event. t= 42 (51264) Note On ch=3 par1=51 par2=97
Channel Event. t= 131 (51395) Note Off ch=3 par1=51 par2=64
Channel Event. t= 61 (51456) Note On ch=3 par1=52 par2=107
Channel Event. t= 145 (51601) Note Off ch=3 par1=52 par2=64
Channel Event. t= 47 (51648) Note On ch=3 par1=48 par2=98
Channel Event. t= 192 (51840) Note On ch=3 par1=49 par2=98
Channel Event. t= 18 (51858) Note Off ch=3 par1=48 par2=64
Channel Event. t= 78 (51936) Note On ch=3 par1=51 par2=92
Channel Event. t= 9 (51945) Note Off ch=3 par1=49 par2=64
Channel Event. t= 85 (52030) Note Off ch=3 par1=51 par2=64
Channel Event. t= 2 (52032) Note On ch=3 par1=53 par2=80
Channel Event. t= 96 (52128) Note On ch=3 par1=56 par2=92
Channel Event. t= 26 (52154) Note Off ch=3 par1=53 par2=64
Channel Event. t= 66 (52220) Note Off ch=3 par1=56 par2=64
Channel Event. t= 4 (52224) Note On ch=3 par1=60 par2=91
Channel Event. t= 181 (52405) Note Off ch=3 par1=60 par2=64
Channel Event. t= 11 (52416) Note On ch=3 par1=59 par2=95
Channel Event. t= 96 (52512) Note On ch=3 par1=60 par2=89
Channel Event. t= 4 (52516) Note Off ch=3 par1=59 par2=64
Channel Event. t= 92 (52608) Note On ch=3 par1=61 par2=70
Channel Event. t= 11 (52619) Note Off ch=3 par1=60 par2=64
Channel Event. t= 115 (52734) Note Off ch=3 par1=61 par2=64
Channel Event. t= 66 (52800) Note On ch=3 par1=65 par2=91
Channel Event. t= 159 (52959) Note Off ch=3 par1=65 par2=64
Channel Event. t= 33 (52992) Note On ch=3 par1=64 par2=102
Channel Event. t= 384 (53376) Note Off ch=3 par1=64 par2=64
Channel Event. t= 0 (53376) Note On ch=3 par1=61 par2=101
Channel Event. t= 137 (53513) Note Off ch=3 par1=61 par2=64
Channel Event. t= 55 (53568) Note On ch=3 par1=65 par2=94
Channel Event. t= 144 (53712) Note Off ch=3 par1=65 par2=64
Channel Event. t= 48 (53760) Note On ch=3 par1=64 par2=95
Channel Event. t= 69 (53829) Note Off ch=3 par1=64 par2=64
Channel Event. t= 18 (53847) Note On ch=3 par1=65 par2=91
Channel Event. t= 9 (53856) Note On ch=3 par1=64 par2=68
Channel Event. t= 26 (53882) Note Off ch=3 par1=65 par2=64
Channel Event. t= 44 (53926) Note Off ch=3 par1=64 par2=64
Channel Event. t= 26 (53952) Note On ch=3 par1=60 par2=93
Channel Event. t= 83 (54035) Note Off ch=3 par1=60 par2=64
Channel Event. t= 13 (54048) Note On ch=3 par1=55 par2=89
Channel Event. t= 86 (54134) Note Off ch=3 par1=55 par2=64
Channel Event. t= 10 (54144) Note On ch=3 par1=56 par2=100
Channel Event. t= 121 (54265) Note Off ch=3 par1=56 par2=64
Channel Event. t= 71 (54336) Note On ch=3 par1=61 par2=105
Channel Event. t= 138 (54474) Note Off ch=3 par1=61 par2=64
Channel Event. t= 54 (54528) Note On ch=3 par1=60 par2=97
Channel Event. t= 60 (54588) Note Off ch=3 par1=60 par2=64
Channel Event. t= 19 (54607) Note On ch=3 par1=61 par2=99
Channel Event. t= 17 (54624) Note On ch=3 par1=60 par2=76
Channel Event. t= 16 (54640) Note Off ch=3 par1=61 par2=64
Channel Event. t= 54 (54694) Note Off ch=3 par1=60 par2=64
Channel Event. t= 26 (54720) Note On ch=3 par1=55 par2=89
Channel Event. t= 78 (54798) Note Off ch=3 par1=55 par2=64
Channel Event. t= 18 (54816) Note On ch=3 par1=52 par2=88
Channel Event. t= 96 (54912) Note On ch=3 par1=53 par2=102
Channel Event. t= 3 (54915) Note Off ch=3 par1=52 par2=64
Channel Event. t= 114 (55029) Note Off ch=3 par1=53 par2=64
Channel Event. t= 75 (55104) Note On ch=3 par1=56 par2=104
Channel Event. t= 147 (55251) Note Off ch=3 par1=56 par2=64
Channel Event. t= 45 (55296) Note On ch=3 par1=55 par2=102
Channel Event. t= 162 (55458) Note Off ch=3 par1=55 par2=64
Channel Event. t= 30 (55488) Note On ch=3 par1=51 par2=104
Channel Event. t= 89 (55577) Note Off ch=3 par1=51 par2=64
Channel Event. t= 7 (55584) Note On ch=3 par1=52 par2=89
Channel Event. t= 96 (55680) Note On ch=3 par1=53 par2=100
Channel Event. t= 17 (55697) Note Off ch=3 par1=52 par2=64
Channel Event. t= 127 (55824) Note Off ch=3 par1=53 par2=64
Channel Event. t= 48 (55872) Note On ch=3 par1=56 par2=108
Channel Event. t= 140 (56012) Note Off ch=3 par1=56 par2=64
Channel Event. t= 52 (56064) Note On ch=3 par1=55 par2=102
Channel Event. t= 180 (56244) Note Off ch=3 par1=55 par2=64
Channel Event. t= 12 (56256) Note On ch=3 par1=51 par2=103
Channel Event. t= 89 (56345) Note Off ch=3 par1=51 par2=64
Channel Event. t= 7 (56352) Note On ch=3 par1=52 par2=89
Channel Event. t= 96 (56448) Note On ch=3 par1=53 par2=100
Channel Event. t= 2 (56450) Note Off ch=3 par1=52 par2=64
Channel Event. t= 131 (56581) Note Off ch=3 par1=53 par2=64
Channel Event. t= 59 (56640) Note On ch=3 par1=56 par2=97
Channel Event. t= 192 (56832) Note On ch=3 par1=55 par2=92
Channel Event. t= 24 (56856) Note Off ch=3 par1=56 par2=64
Channel Event. t= 456 (57312) Note Off ch=3 par1=55 par2=64
Channel Event. t= 0 (57312) 
Meta Event. Type: 0x2f (47dec), End of Track (0 bytes): 
track #46
track size: 6735
Channel Event. t= 0 (0) 
Meta Event. Type: 0x21 (33dec), MIDI Port (1 bytes): 0
Channel Event. t= 0 (0) 
Meta Event. Type: 0x3 (3dec), Sequence/Track Name (20 bytes): Strings             
Channel Event. t= 0 (0) Program Change ch=5 par1=48 par2=-113
Channel Event. t= 2160 (2160) Controller ch=5 par1=10 (Pan) par2=40
Channel Event. t= 144 (2304) Note On ch=5 par1=64 par2=58
Channel Event. t= 0 (2304) Note On ch=5 par1=72 par2=61
Channel Event. t= 48 (2352) Note On ch=5 par1=76 par2=61
Channel Event. t= 3 (2355) Note Off ch=5 par1=72 par2=64
Channel Event. t= 45 (2400) Note Off ch=5 par1=76 par2=64
Channel Event. t= 0 (2400) Note On ch=5 par1=67 par2=36
Channel Event. t= 0 (2400) Note On ch=5 par1=72 par2=53
Channel Event. t= 11 (2411) Note Off ch=5 par1=64 par2=64
Channel Event. t= 37 (2448) Note On ch=5 par1=76 par2=42
Channel Event. t= 4 (2452) Note Off ch=5 par1=72 par2=64
Channel Event. t= 43 (2495) Note Off ch=5 par1=76 par2=64
Channel Event. t= 1 (2496) Note On ch=5 par1=64 par2=64
Channel Event. t= 0 (2496) Note On ch=5 par1=72 par2=50
Channel Event. t= 13 (2509) Note Off ch=5 par1=67 par2=64
Channel Event. t= 35 (2544) Note On ch=5 par1=76 par2=53
Channel Event. t= 5 (2549) Note Off ch=5 par1=72 par2=64
Channel Event. t= 43 (2592) Note On ch=5 par1=67 par2=52
Channel Event. t= 0 (2592) Note On ch=5 par1=79 par2=66
Channel Event. t= 4 (2596) Note Off ch=5 par1=76 par2=64
Channel Event. t= 16 (2612) Note Off ch=5 par1=64 par2=64
Channel Event. t= 28 (2640) Note On ch=5 par1=76 par2=60
Channel Event. t= 7 (2647) Note Off ch=5 par1=79 par2=64
Channel Event. t= 41 (2688) Note On ch=5 par1=64 par2=77
Channel Event. t= 0 (2688) Note On ch=5 par1=72 par2=66
Channel Event. t= 3 (2691) Note Off ch=5 par1=76 par2=64
Channel Event. t= 7 (2698) Note Off ch=5 par1=67 par2=64
Channel Event. t= 38 (2736) Note On ch=5 par1=76 par2=65
Channel Event. t= 8 (2744) Note Off ch=5 par1=72 par2=64
Channel Event. t= 40 (2784) Note On ch=5 par1=67 par2=63
Channel Event. t= 0 (2784) Note On ch=5 par1=79 par2=66
Channel Event. t= 5 (2789) Note Off ch=5 par1=76 par2=64
Channel Event. t= 11 (2800) Note Off ch=5 par1=64 par2=64
Channel Event. t= 32 (2832) Note On ch=5 par1=76 par2=68
Channel Event. t= 6 (2838) Note Off ch=5 par1=79 par2=64
Channel Event. t= 42 (2880) Note On ch=5 par1=64 par2=71
Channel Event. t= 0 (2880) Note On ch=5 par1=72 par2=64
Channel Event. t= 3 (2883) Note Off ch=5 par1=76 par2=64
Channel Event. t= 9 (2892) Note Off ch=5 par1=67 par2=64
Channel Event. t= 36 (2928) Note On ch=5 par1=76 par2=63
Channel Event. t= 7 (2935) Note Off ch=5 par1=72 par2=64
Channel Event. t= 41 (2976) Note On ch=5 par1=67 par2=53
Channel Event. t= 0 (2976) Note On ch=5 par1=79 par2=63
Channel Event. t= 10 (2986) Note Off ch=5 par1=76 par2=64
Channel Event. t= 5 (2991) Note Off ch=5 par1=64 par2=64
Channel Event. t= 33 (3024) Note On ch=5 par1=76 par2=59
Channel Event. t= 16 (3040) Note Off ch=5 par1=79 par2=64
Channel Event. t= 21 (3061) Note Off ch=5 par1=76 par2=64
Channel Event. t= 11 (3072) Note On ch=5 par1=64 par2=65
Channel Event. t= 0 (3072) Note On ch=5 par1=72 par2=78
Channel Event. t= 9 (3081) Note Off ch=5 par1=67 par2=64
Channel Event. t= 39 (3120) Note On ch=5 par1=76 par2=66
Channel Event. t= 7 (3127) Note Off ch=5 par1=72 par2=64
Channel Event. t= 41 (3168) Note On ch=5 par1=67 par2=52
Channel Event. t= 0 (3168) Note On ch=5 par1=79 par2=61
Channel Event. t= 7 (3175) Note Off ch=5 par1=76 par2=64
Channel Event. t= 9 (3184) Note Off ch=5 par1=64 par2=64
Channel Event. t= 32 (3216) Note On ch=5 par1=76 par2=56
Channel Event. t= 14 (3230) Note Off ch=5 par1=79 par2=64
Channel Event. t= 34 (3264) Note On ch=5 par1=64 par2=69
Channel Event. t= 0 (3264) Note On ch=5 par1=72 par2=69
Channel Event. t= 8 (3272) Note Off ch=5 par1=76 par2=64
Channel Event. t= 5 (3277) Note Off ch=5 par1=67 par2=64
Channel Event. t= 35 (3312) Note On ch=5 par1=76 par2=58
Channel Event. t= 8 (3320) Note Off ch=5 par1=72 par2=64
Channel Event. t= 40 (3360) Note On ch=5 par1=67 par2=55
Channel Event. t= 0 (3360) Note On ch=5 par1=79 par2=62
Channel Event. t= 8 (3368) Note Off ch=5 par1=76 par2=64
Channel Event. t= 4 (3372) Note Off ch=5 par1=64 par2=64
Channel Event. t= 36 (3408) Note On ch=5 par1=76 par2=53
Channel Event. t= 12 (3420) Note Off ch=5 par1=79 par2=64
Channel Event. t= 36 (3456) Note On ch=5 par1=64 par2=65
Channel Event. t= 0 (3456) Note On ch=5 par1=72 par2=66
Channel Event. t= 1 (3457) Note Off ch=5 par1=76 par2=64
Channel Event. t= 7 (3464) Note Off ch=5 par1=67 par2=64
Channel Event. t= 40 (3504) Note On ch=5 par1=76 par2=61
Channel Event. t= 8 (3512) Note Off ch=5 par1=72 par2=64
Channel Event. t= 40 (3552) Note On ch=5 par1=67 par2=61
Channel Event. t= 0 (3552) Note On ch=5 par1=79 par2=59
Channel Event. t= 4 (3556) Note Off ch=5 par1=76 par2=64
Channel Event. t= 11 (3567) Note Off ch=5 par1=64 par2=64
Channel Event. t= 33 (3600) Note On ch=5 par1=76 par2=58
Channel Event. t= 7 (3607) Note Off ch=5 par1=79 par2=64
Channel Event. t= 41 (3648) Note On ch=5 par1=64 par2=68
Channel Event. t= 0 (3648) Note On ch=5 par1=72 par2=67
Channel Event. t= 6 (3654) Note Off ch=5 par1=76 par2=64
Channel Event. t= 4 (3658) Note Off ch=5 par1=67 par2=64
Channel Event. t= 38 (3696) Note Off ch=5 par1=72 par2=64
Channel Event. t= 0 (3696) Note On ch=5 par1=79 par2=53
Channel Event. t= 27 (3723) Note Off ch=5 par1=79 par2=64
Channel Event. t= 21 (3744) Note On ch=5 par1=67 par2=67
Channel Event. t= 0 (3744) Note On ch=5 par1=79 par2=51
Channel Event. t= 16 (3760) Note Off ch=5 par1=64 par2=64
Channel Event. t= 32 (3792) Note On ch=5 par1=76 par2=61
Channel Event. t= 5 (3797) Note Off ch=5 par1=79 par2=64
Channel Event. t= 20 (3817) Note Off ch=5 par1=67 par2=64
Channel Event. t= 23 (3840) Note On ch=5 par1=63 par2=68
Channel Event. t= 0 (3840) Note On ch=5 par1=68 par2=38
Channel Event. t= 0 (3840) Note On ch=5 par1=80 par2=76
Channel Event. t= 11 (3851) Note Off ch=5 par1=76 par2=64
Channel Event. t= 20 (3871) Note Off ch=5 par1=63 par2=64
Channel Event. t= 17 (3888) Note On ch=5 par1=63 par2=79
Channel Event. t= 43 (3931) Note Off ch=5 par1=63 par2=64
Channel Event. t= 5 (3936) Note On ch=5 par1=67 par2=68
Channel Event. t= 48 (3984) Note On ch=5 par1=63 par2=80
Channel Event. t= 12 (3996) Note Off ch=5 par1=67 par2=64
Channel Event. t= 23 (4019) Note Off ch=5 par1=63 par2=64
Channel Event. t= 167 (4186) Note Off ch=5 par1=68 par2=64
Channel Event. t= 3 (4189) Note Off ch=5 par1=80 par2=64
Channel Event. t= 35 (4224) Note On ch=5 par1=61 par2=97
Channel Event. t= 0 (4224) Note On ch=5 par1=68 par2=58
Channel Event. t= 0 (4224) Note On ch=5 par1=80 par2=58
Channel Event. t= 32 (4256) Note Off ch=5 par1=61 par2=64
Channel Event. t= 16 (4272) Note On ch=5 par1=61 par2=88
Channel Event. t= 41 (4313) Note Off ch=5 par1=61 par2=64
Channel Event. t= 7 (4320) Note On ch=5 par1=65 par2=74
Channel Event. t= 48 (4368) Note On ch=5 par1=61 par2=73
Channel Event. t= 13 (4381) Note Off ch=5 par1=65 par2=64
Channel Event. t= 28 (4409) Note Off ch=5 par1=61 par2=64
Channel Event. t= 185 (4594) Note Off ch=5 par1=68 par2=64
Channel Event. t= 14 (4608) Note On ch=5 par1=59 par2=93
Channel Event. t= 0 (4608) Note On ch=5 par1=68 par2=75
Channel Event. t= 22 (4630) Note Off ch=5 par1=80 par2=64
Channel Event. t= 8 (4638) Note Off ch=5 par1=59 par2=64
Channel Event. t= 18 (4656) Note On ch=5 par1=59 par2=75
Channel Event. t= 43 (4699) Note Off ch=5 par1=59 par2=64
Channel Event. t= 5 (4704) Note On ch=5 par1=63 par2=77
Channel Event. t= 48 (4752) Note On ch=5 par1=59 par2=82
Channel Event. t= 10 (4762) Note Off ch=5 par1=63 par2=64
Channel Event. t= 35 (4797) Note Off ch=5 par1=59 par2=64
Channel Event. t= 176 (4973) Note Off ch=5 par1=68 par2=64
Channel Event. t= 19 (4992) Note On ch=5 par1=57 par2=91
Channel Event. t= 0 (4992) Note On ch=5 par1=68 par2=69
Channel Event. t= 34 (5026) Note Off ch=5 par1=57 par2=64
Channel Event. t= 14 (5040) Note On ch=5 par1=57 par2=73
Channel Event. t= 43 (5083) Note Off ch=5 par1=57 par2=64
Channel Event. t= 5 (5088) Note On ch=5 par1=61 par2=81
Channel Event. t= 48 (5136) Note On ch=5 par1=57 par2=74
Channel Event. t= 1 (5137) Note Off ch=5 par1=61 par2=64
Channel Event. t= 43 (5180) Note Off ch=5 par1=57 par2=64
Channel Event. t= 196 (5376) Note On ch=5 par1=63 par2=58
Channel Event. t= 13 (5389) Note Off ch=5 par1=68 par2=64
Channel Event. t= 32 (5421) Note Off ch=5 par1=63 par2=64
Channel Event. t= 3 (5424) Note On ch=5 par1=67 par2=53
Channel Event. t= 48 (5472) Note Off ch=5 par1=67 par2=64
Channel Event. t= 0 (5472) Note On ch=5 par1=58 par2=86
Channel Event. t= 0 (5472) Note On ch=5 par1=63 par2=58
Channel Event. t= 48 (5520) Note On ch=5 par1=67 par2=53
Channel Event. t= 6 (5526) Note Off ch=5 par1=63 par2=64
Channel Event. t= 42 (5568) Note Off ch=5 par1=67 par2=64
Channel Event. t= 0 (5568) Note On ch=5 par1=55 par2=84
Channel Event. t= 0 (5568) Note On ch=5 par1=63 par2=58
Channel Event. t= 8 (5576) Note Off ch=5 par1=58 par2=64
Channel Event. t= 40 (5616) Note Off ch=5 par1=63 par2=64
Channel Event. t= 0 (5616) Note On ch=5 par1=67 par2=56
Channel Event. t= 48 (5664) Note Off ch=5 par1=67 par2=64
Channel Event. t= 0 (5664) Note On ch=5 par1=58 par2=72
Channel Event. t= 0 (5664) Note On ch=5 par1=70 par2=57
Channel Event. t= 9 (5673) Note Off ch=5 par1=55 par2=64
Channel Event. t= 39 (5712) Note Off ch=5 par1=70 par2=64
Channel Event. t= 0 (5712) Note On ch=5 par1=67 par2=54
Channel Event. t= 48 (5760) Note Off ch=5 par1=67 par2=64
Channel Event. t= 0 (5760) Note On ch=5 par1=55 par2=75
Channel Event. t= 0 (5760) Note On ch=5 par1=63 par2=55
Channel Event. t= 5 (5765) Note Off ch=5 par1=58 par2=64
Channel Event. t= 43 (5808) Note On ch=5 par1=67 par2=52
Channel Event. t= 3 (5811) Note Off ch=5 par1=63 par2=64
Channel Event. t= 45 (5856) Note On ch=5 par1=58 par2=68
Channel Event. t= 0 (5856) Note On ch=5 par1=70 par2=56
Channel Event. t= 5 (5861) Note Off ch=5 par1=67 par2=64
Channel Event. t= 1 (5862) Note Off ch=5 par1=55 par2=64
Channel Event. t= 41 (5903) Note Off ch=5 par1=70 par2=64
Channel Event. t= 1 (5904) Note On ch=5 par1=67 par2=44
Channel Event. t= 48 (5952) Note On ch=5 par1=55 par2=69
Channel Event. t= 0 (5952) Note On ch=5 par1=63 par2=60
Channel Event. t= 4 (5956) Note Off ch=5 par1=58 par2=64
Channel Event. t= 3 (5959) Note Off ch=5 par1=67 par2=64
Channel Event. t= 41 (6000) Note On ch=5 par1=67 par2=49
Channel Event. t= 2 (6002) Note Off ch=5 par1=63 par2=64
Channel Event. t= 46 (6048) Note On ch=5 par1=58 par2=70
Channel Event. t= 0 (6048) Note On ch=5 par1=70 par2=66
Channel Event. t= 11 (6059) Note Off ch=5 par1=67 par2=64
Channel Event. t= 5 (6064) Note Off ch=5 par1=55 par2=64
Channel Event. t= 32 (6096) Note Off ch=5 par1=70 par2=64
Channel Event. t= 0 (6096) Note On ch=5 par1=67 par2=49
Channel Event. t= 25 (6121) Note Off ch=5 par1=67 par2=64
Channel Event. t= 5 (6126) Note Off ch=5 par1=58 par2=64
Channel Event. t= 18 (6144) Note On ch=5 par1=58 par2=65
Channel Event. t= 0 (6144) Note On ch=5 par1=70 par2=75
Channel Event. t= 41 (6185) Note Off ch=5 par1=70 par2=64
Channel Event. t= 7 (6192) Note On ch=5 par1=55 par2=73
Channel Event. t= 0 (6192) Note On ch=5 par1=67 par2=52
Channel Event. t= 3 (6195) Note Off ch=5 par1=58 par2=64
Channel Event. t= 45 (6240) Note On ch=5 par1=58 par2=68
Channel Event. t= 0 (6240) Note On ch=5 par1=70 par2=61
Channel Event. t= 7 (6247) Note Off ch=5 par1=67 par2=64
Channel Event. t= 3 (6250) Note Off ch=5 par1=55 par2=64
Channel Event. t= 36 (6286) Note Off ch=5 par1=58 par2=64
Channel Event. t= 0 (6286) Note Off ch=5 par1=70 par2=64
Channel Event. t= 2 (6288) Note On ch=5 par1=55 par2=72
Channel Event. t= 0 (6288) Note On ch=5 par1=67 par2=48
Channel Event. t= 48 (6336) Note On ch=5 par1=58 par2=64
Channel Event. t= 0 (6336) Note On ch=5 par1=70 par2=71
Channel Event. t= 5 (6341) Note Off ch=5 par1=67 par2=64
Channel Event. t= 5 (6346) Note Off ch=5 par1=55 par2=64
Channel Event. t= 38 (6384) Note Off ch=5 par1=58 par2=64
Channel Event. t= 0 (6384) Note On ch=5 par1=55 par2=72
Channel Event. t= 29 (6413) Note Off ch=5 par1=70 par2=64
Channel Event. t= 19 (6432) Note On ch=5 par1=58 par2=66
Channel Event. t= 9 (6441) Note Off ch=5 par1=55 par2=64
Channel Event. t= 39 (6480) Note On ch=5 par1=55 par2=72
Channel Event. t= 0 (6480) Note On ch=5 par1=86 par2=66
Channel Event. t= 1 (6481) Note Off ch=5 par1=58 par2=64
Channel Event. t= 47 (6528) Note On ch=5 par1=58 par2=60
Channel Event. t= 0 (6528) Note On ch=5 par1=84 par2=69
Channel Event. t= 13 (6541) Note Off ch=5 par1=55 par2=64
Channel Event. t= 5 (6546) Note Off ch=5 par1=86 par2=64
Channel Event. t= 30 (6576) Note Off ch=5 par1=58 par2=64
Channel Event. t= 0 (6576) Note On ch=5 par1=55 par2=72
Channel Event. t= 48 (6624) Note On ch=5 par1=58 par2=69
Channel Event. t= 0 (6624) Note On ch=5 par1=83 par2=62
Channel Event. t= 14 (6638) Note Off ch=5 par1=55 par2=64
Channel Event. t= 1 (6639) Note Off ch=5 par1=84 par2=64
Channel Event. t= 28 (6667) Note Off ch=5 par1=58 par2=64
Channel Event. t= 5 (6672) Note On ch=5 par1=55 par2=68
Channel Event. t= 48 (6720) Note On ch=5 par1=58 par2=68
Channel Event. t= 0 (6720) Note On ch=5 par1=82 par2=53
Channel Event. t= 10 (6730) Note Off ch=5 par1=83 par2=64
Channel Event. t= 6 (6736) Note Off ch=5 par1=55 par2=64
Channel Event. t= 29 (6765) Note Off ch=5 par1=58 par2=64
Channel Event. t= 3 (6768) Note On ch=5 par1=55 par2=74
Channel Event. t= 46 (6814) Note Off ch=5 par1=82 par2=64
Channel Event. t= 2 (6816) Note On ch=5 par1=58 par2=72
Channel Event. t= 0 (6816) Note On ch=5 par1=81 par2=56
Channel Event. t= 16 (6832) Note Off ch=5 par1=55 par2=64
Channel Event. t= 32 (6864) Note On ch=5 par1=55 par2=73
Channel Event. t= 15 (6879) Note Off ch=5 par1=58 par2=64
Channel Event. t= 21 (6900) Note Off ch=5 par1=55 par2=64
Channel Event. t= 12 (6912) Note On ch=5 par1=56 par2=81
Channel Event. t= 0 (6912) Note On ch=5 par1=80 par2=69
Channel Event. t= 9 (6921) Note Off ch=5 par1=81 par2=64
Channel Event. t= 34 (6955) Note Off ch=5 par1=56 par2=64
Channel Event. t= 5 (6960) Note On ch=5 par1=60 par2=69
Channel Event. t= 48 (7008) Note Off ch=5 par1=60 par2=64
Channel Event. t= 0 (7008) Note On ch=5 par1=63 par2=83
Channel Event. t= 48 (7056) Note On ch=5 par1=60 par2=75
Channel Event. t= 7 (7063) Note Off ch=5 par1=80 par2=64
Channel Event. t= 0 (7063) Note Off ch=5 par1=63 par2=64
Channel Event. t= 26 (7089) Note Off ch=5 par1=60 par2=64
Channel Event. t= 15 (7104) Note On ch=5 par1=56 par2=90
Channel Event. t= 48 (7152) Note On ch=5 par1=60 par2=68
Channel Event. t= 15 (7167) Note Off ch=5 par1=56 par2=64
Channel Event. t= 33 (7200) Note On ch=5 par1=63 par2=79
Channel Event. t= 10 (7210) Note Off ch=5 par1=60 par2=64
Channel Event. t= 38 (7248) Note On ch=5 par1=60 par2=65
Channel Event. t= 17 (7265) Note Off ch=5 par1=63 par2=64
Channel Event. t= 16 (7281) Note Off ch=5 par1=60 par2=64
Channel Event. t= 15 (7296) Note On ch=5 par1=56 par2=96
Channel Event. t= 0 (7296) Note On ch=5 par1=75 par2=71
Channel Event. t= 43 (7339) Note Off ch=5 par1=75 par2=64
Channel Event. t= 5 (7344) Note On ch=5 par1=60 par2=69
Channel Event. t= 0 (7344) Note On ch=5 par1=80 par2=68
Channel Event. t= 13 (7357) Note Off ch=5 par1=56 par2=64
Channel Event. t= 33 (7390) Note Off ch=5 par1=80 par2=64
Channel Event. t= 2 (7392) Note On ch=5 par1=63 par2=83
Channel Event. t= 0 (7392) Note On ch=5 par1=84 par2=61
Channel Event. t= 14 (7406) Note Off ch=5 par1=60 par2=64
Channel Event. t= 34 (7440) Note Off ch=5 par1=84 par2=64
Channel Event. t= 0 (7440) Note On ch=5 par1=60 par2=68
Channel Event. t= 0 (7440) Note On ch=5 par1=80 par2=53
Channel Event. t= 1 (7441) Note Off ch=5 par1=63 par2=64
Channel Event. t= 18 (7459) Note Off ch=5 par1=60 par2=64
Channel Event. t= 29 (7488) Note On ch=5 par1=56 par2=95
Channel Event. t= 0 (7488) Note On ch=5 par1=75 par2=60
Channel Event. t= 2 (7490) Note Off ch=5 par1=80 par2=64
Channel Event. t= 46 (7536) Note On ch=5 par1=60 par2=74
Channel Event. t= 0 (7536) Note On ch=5 par1=80 par2=63
Channel Event. t= 5 (7541) Note Off ch=5 par1=75 par2=64
Channel Event. t= 11 (7552) Note Off ch=5 par1=56 par2=64
Channel Event. t= 30 (7582) Note Off ch=5 par1=80 par2=64
Channel Event. t= 2 (7584) Note On ch=5 par1=63 par2=81
Channel Event. t= 0 (7584) Note On ch=5 par1=84 par2=52
Channel Event. t= 12 (7596) Note Off ch=5 par1=60 par2=64
Channel Event. t= 36 (7632) Note On ch=5 par1=60 par2=59
Channel Event. t= 0 (7632) Note On ch=5 par1=80 par2=58
Channel Event. t= 2 (7634) Note Off ch=5 par1=63 par2=64
Channel Event. t= 3 (7637) Note Off ch=5 par1=84 par2=64
Channel Event. t= 18 (7655) Note Off ch=5 par1=60 par2=64
Channel Event. t= 25 (7680) Note On ch=5 par1=56 par2=97
Channel Event. t= 0 (7680) Note On ch=5 par1=75 par2=62
Channel Event. t= 6 (7686) Note Off ch=5 par1=80 par2=64
Channel Event. t= 42 (7728) Note On ch=5 par1=60 par2=72
Channel Event. t= 0 (7728) Note On ch=5 par1=80 par2=61
Channel Event. t= 8 (7736) Note Off ch=5 par1=75 par2=64
Channel Event. t= 5 (7741) Note Off ch=5 par1=56 par2=64
Channel Event. t= 35 (7776) Note On ch=5 par1=63 par2=78
Channel Event. t= 0 (7776) Note On ch=5 par1=84 par2=42
Channel Event. t= 1 (7777) Note Off ch=5 par1=80 par2=64
Channel Event. t= 14 (7791) Note Off ch=5 par1=60 par2=64
Channel Event. t= 33 (7824) Note On ch=5 par1=60 par2=60
Channel Event. t= 0 (7824) Note On ch=5 par1=80 par2=53
Channel Event. t= 1 (7825) Note Off ch=5 par1=63 par2=64
Channel Event. t= 2 (7827) Note Off ch=5 par1=84 par2=64
Channel Event. t= 23 (7850) Note Off ch=5 par1=60 par2=64
Channel Event. t= 22 (7872) Note On ch=5 par1=56 par2=94
Channel Event. t= 0 (7872) Note On ch=5 par1=75 par2=60
Channel Event. t= 2 (7874) Note Off ch=5 par1=80 par2=64
Channel Event. t= 46 (7920) Note On ch=5 par1=60 par2=69
Channel Event. t= 0 (7920) Note On ch=5 par1=80 par2=64
Channel Event. t= 4 (7924) Note Off ch=5 par1=75 par2=64
Channel Event. t= 14 (7938) Note Off ch=5 par1=56 par2=64
Channel Event. t= 29 (7967) Note Off ch=5 par1=80 par2=64
Channel Event. t= 1 (7968) Note On ch=5 par1=63 par2=81
Channel Event. t= 0 (7968) Note On ch=5 par1=84 par2=53
Channel Event. t= 14 (7982) Note Off ch=5 par1=60 par2=64
Channel Event. t= 34 (8016) Note On ch=5 par1=60 par2=58
Channel Event. t= 0 (8016) Note On ch=5 par1=80 par2=51
Channel Event. t= 4 (8020) Note Off ch=5 par1=63 par2=64
Channel Event. t= 3 (8023) Note Off ch=5 par1=84 par2=64
Channel Event. t= 22 (8045) Note Off ch=5 par1=60 par2=64
Channel Event. t= 19 (8064) Note On ch=5 par1=56 par2=93
Channel Event. t= 0 (8064) Note On ch=5 par1=72 par2=67
Channel Event. t= 3 (8067) Note Off ch=5 par1=80 par2=64
Channel Event. t= 44 (8111) Note Off ch=5 par1=72 par2=64
Channel Event. t= 1 (8112) Note On ch=5 par1=60 par2=73
Channel Event. t= 0 (8112) Note On ch=5 par1=75 par2=53
Channel Event. t= 15 (8127) Note Off ch=5 par1=56 par2=64
Channel Event. t= 33 (8160) Note On ch=5 par1=63 par2=84
Channel Event. t= 0 (8160) Note On ch=5 par1=80 par2=60
Channel Event. t= 4 (8164) Note Off ch=5 par1=75 par2=64
Channel Event. t= 9 (8173) Note Off ch=5 par1=60 par2=64
Channel Event. t= 35 (8208) Note On ch=5 par1=60 par2=73
Channel Event. t= 0 (8208) Note On ch=5 par1=75 par2=50
Channel Event. t= 1 (8209) Note Off ch=5 par1=63 par2=64
Channel Event. t= 4 (8213) Note Off ch=5 par1=80 par2=64
Channel Event. t= 24 (8237) Note Off ch=5 par1=60 par2=64
Channel Event. t= 19 (8256) Note On ch=5 par1=56 par2=94
Channel Event. t= 0 (8256) Note On ch=5 par1=72 par2=55
Channel Event. t= 6 (8262) Note Off ch=5 par1=75 par2=64
Channel Event. t= 42 (8304) Note On ch=5 par1=60 par2=79
Channel Event. t= 0 (8304) Note On ch=5 par1=75 par2=59
Channel Event. t= 2 (8306) Note Off ch=5 par1=72 par2=64
Channel Event. t= 9 (8315) Note Off ch=5 par1=56 par2=64
Channel Event. t= 37 (8352) Note On ch=5 par1=63 par2=83
Channel Event. t= 0 (8352) Note On ch=5 par1=80 par2=52
Channel Event. t= 1 (8353) Note Off ch=5 par1=75 par2=64
Channel Event. t= 4 (8357) Note Off ch=5 par1=60 par2=64
Channel Event. t= 43 (8400) Note On ch=5 par1=60 par2=77
Channel Event. t= 0 (8400) Note On ch=5 par1=75 par2=49
Channel Event. t= 6 (8406) Note Off ch=5 par1=80 par2=64
Channel Event. t= 7 (8413) Note Off ch=5 par1=63 par2=64
Channel Event. t= 18 (8431) Note Off ch=5 par1=60 par2=64
Channel Event. t= 17 (8448) Note On ch=5 par1=59 par2=83
Channel Event. t= 0 (8448) Note On ch=5 par1=71 par2=46
Channel Event. t= 10 (8458) Note Off ch=5 par1=75 par2=64
Channel Event. t= 20 (8478) Note Off ch=5 par1=59 par2=64
Channel Event. t= 18 (8496) Note On ch=5 par1=59 par2=72
Channel Event. t= 42 (8538) Note Off ch=5 par1=59 par2=64
Channel Event. t= 6 (8544) Note On ch=5 par1=63 par2=75
Channel Event. t= 48 (8592) Note On ch=5 par1=59 par2=74
Channel Event. t= 4 (8596) Note Off ch=5 par1=63 par2=64
Channel Event. t= 39 (8635) Note Off ch=5 par1=59 par2=64
Channel Event. t= 8 (8643) Note Off ch=5 par1=71 par2=64
Channel Event. t= 189 (8832) Note On ch=5 par1=57 par2=95
Channel Event. t= 29 (8861) Note Off ch=5 par1=57 par2=64
Channel Event. t= 19 (8880) Note On ch=5 par1=57 par2=73
Channel Event. t= 48 (8928) Note On ch=5 par1=61 par2=85
Channel Event. t= 2 (8930) Note Off ch=5 par1=57 par2=64
Channel Event. t= 46 (8976) Note On ch=5 par1=57 par2=71
Channel Event. t= 8 (8984) Note Off ch=5 par1=61 par2=64
Channel Event. t= 33 (9017) Note Off ch=5 par1=57 par2=64
Channel Event. t= 199 (9216) Note On ch=5 par1=55 par2=94
Channel Event. t= 30 (9246) Note Off ch=5 par1=55 par2=64
Channel Event. t= 18 (9264) Note On ch=5 par1=55 par2=83
Channel Event. t= 48 (9312) Note On ch=5 par1=59 par2=81
Channel Event. t= 2 (9314) Note Off ch=5 par1=55 par2=64
Channel Event. t= 46 (9360) Note On ch=5 par1=55 par2=78
Channel Event. t= 10 (9370) Note Off ch=5 par1=59 par2=64
Channel Event. t= 36 (9406) Note Off ch=5 par1=55 par2=64
Channel Event. t= 194 (9600) Note On ch=5 par1=53 par2=90
Channel Event. t= 29 (9629) Note Off ch=5 par1=53 par2=64
Channel Event. t= 19 (9648) Note On ch=5 par1=53 par2=69
Channel Event. t= 46 (9694) Note Off ch=5 par1=53 par2=64
Channel Event. t= 2 (9696) Note On ch=5 par1=57 par2=69
Channel Event. t= 48 (9744) Note On ch=5 par1=53 par2=83
Channel Event. t= 3 (9747) Note Off ch=5 par1=57 par2=64
Channel Event. t= 28 (9775) Note Off ch=5 par1=53 par2=64
Channel Event. t= 209 (9984) Note On ch=5 par1=59 par2=83
Channel Event. t= 0 (9984) Note On ch=5 par1=66 par2=80
Channel Event. t= 48 (10032) Note On ch=5 par1=63 par2=79
Channel Event. t= 12 (10044) Note Off ch=5 par1=59 par2=64
Channel Event. t= 34 (10078) Note Off ch=5 par1=63 par2=64
Channel Event. t= 2 (10080) Note On ch=5 par1=71 par2=67
Channel Event. t= 8 (10088) Note Off ch=5 par1=66 par2=64
Channel Event. t= 40 (10128) Note On ch=5 par1=63 par2=70
Channel Event. t= 48 (10176) Note On ch=5 par1=59 par2=74
Channel Event. t= 0 (10176) Note On ch=5 par1=75 par2=83
Channel Event. t= 7 (10183) Note Off ch=5 par1=71 par2=64
Channel Event. t= 6 (10189) Note Off ch=5 par1=63 par2=64
Channel Event. t= 35 (10224) Note On ch=5 par1=63 par2=55
Channel Event. t= 17 (10241) Note Off ch=5 par1=59 par2=64
Channel Event. t= 31 (10272) Note On ch=5 par1=66 par2=74
Channel Event. t= 4 (10276) Note Off ch=5 par1=63 par2=64
Channel Event. t= 44 (10320) Note On ch=5 par1=63 par2=68
Channel Event. t= 0 (10320) Note On ch=5 par1=77 par2=81
Channel Event. t= 16 (10336) Note Off ch=5 par1=66 par2=64
Channel Event. t= 7 (10343) Note Off ch=5 par1=75 par2=64
Channel Event. t= 3 (10346) Note Off ch=5 par1=77 par2=64
Channel Event. t= 22 (10368) Note On ch=5 par1=59 par2=72
Channel Event. t= 0 (10368) Note On ch=5 par1=77 par2=82
Channel Event. t= 8 (10376) Note Off ch=5 par1=63 par2=64
Channel Event. t= 29 (10405) Note Off ch=5 par1=77 par2=64
Channel Event. t= 11 (10416) Note On ch=5 par1=63 par2=53
Channel Event. t= 10 (10426) Note Off ch=5 par1=59 par2=64
Channel Event. t= 38 (10464) Note On ch=5 par1=66 par2=66
Channel Event. t= 0 (10464) Note On ch=5 par1=77 par2=74
Channel Event. t= 8 (10472) Note Off ch=5 par1=63 par2=64
Channel Event. t= 21 (10493) Note Off ch=5 par1=77 par2=64
Channel Event. t= 19 (10512) Note On ch=5 par1=63 par2=61
Channel Event. t= 15 (10527) Note Off ch=5 par1=66 par2=64
Channel Event. t= 33 (10560) Note On ch=5 par1=59 par2=70
Channel Event. t= 0 (10560) Note On ch=5 par1=77 par2=77
Channel Event. t= 7 (10567) Note Off ch=5 par1=63 par2=64
Channel Event. t= 32 (10599) Note Off ch=5 par1=77 par2=64
Channel Event. t= 9 (10608) Note On ch=5 par1=63 par2=79
Channel Event. t= 16 (10624) Note Off ch=5 par1=59 par2=64
Channel Event. t= 32 (10656) Note On ch=5 par1=66 par2=74
Channel Event. t= 0 (10656) Note On ch=5 par1=77 par2=77
Channel Event. t= 4 (10660) Note Off ch=5 par1=63 par2=64
Channel Event. t= 36 (10696) Note Off ch=5 par1=77 par2=64
Channel Event. t= 8 (10704) Note On ch=5 par1=63 par2=71
Channel Event. t= 21 (10725) Note Off ch=5 par1=66 par2=64
Channel Event. t= 27 (10752) Note On ch=5 par1=59 par2=75
Channel Event. t= 0 (10752) Note On ch=5 par1=78 par2=102
Channel Event. t= 3 (10755) Note Off ch=5 par1=63 par2=64
Channel Event. t= 16 (10771) Note Off ch=5 par1=78 par2=64
Channel Event. t= 29 (10800) Note On ch=5 par1=63 par2=72
Channel Event. t= 0 (10800) Note On ch=5 par1=78 par2=82
Channel Event. t= 14 (10814) Note Off ch=5 par1=59 par2=64
Channel Event. t= 3 (10817) Note Off ch=5 par1=78 par2=64
Channel Event. t= 31 (10848) Note On ch=5 par1=66 par2=75
Channel Event. t= 0 (10848) Note On ch=5 par1=78 par2=76
Channel Event. t= 7 (10855) Note Off ch=5 par1=63 par2=64
Channel Event. t= 15 (10870) Note Off ch=5 par1=78 par2=64
Channel Event. t= 26 (10896) Note On ch=5 par1=63 par2=73
Channel Event. t= 0 (10896) Note On ch=5 par1=78 par2=71
Channel Event. t= 9 (10905) Note Off ch=5 par1=66 par2=64
Channel Event. t= 7 (10912) Note Off ch=5 par1=78 par2=64
Channel Event. t= 10 (10922) Note Off ch=5 par1=63 par2=64
Channel Event. t= 22 (10944) Note On ch=5 par1=63 par2=88
Channel Event. t= 0 (10944) Note On ch=5 par1=78 par2=104
Channel Event. t= 25 (10969) Note Off ch=5 par1=78 par2=64
Channel Event. t= 23 (10992) Note On ch=5 par1=66 par2=78
Channel Event. t= 0 (10992) Note On ch=5 par1=78 par2=87
Channel Event. t= 18 (11010) Note Off ch=5 par1=78 par2=64
Channel Event. t= 1 (11011) Note Off ch=5 par1=63 par2=64
Channel Event. t= 29 (11040) Note On ch=5 par1=71 par2=79
Channel Event. t= 0 (11040) Note On ch=5 par1=78 par2=69
Channel Event. t= 7 (11047) Note Off ch=5 par1=66 par2=64
Channel Event. t= 11 (11058) Note Off ch=5 par1=78 par2=64
Channel Event. t= 30 (11088) Note On ch=5 par1=66 par2=78
Channel Event. t= 0 (11088) Note On ch=5 par1=78 par2=70
Channel Event. t= 10 (11098) Note Off ch=5 par1=71 par2=64
Channel Event. t= 5 (11103) Note Off ch=5 par1=78 par2=64
Channel Event. t= 14 (11117) Note Off ch=5 par1=66 par2=64
Channel Event. t= 19 (11136) Note On ch=5 par1=66 par2=92
Channel Event. t= 0 (11136) Note On ch=5 par1=78 par2=99
Channel Event. t= 23 (11159) Note Off ch=5 par1=78 par2=64
Channel Event. t= 25 (11184) Note On ch=5 par1=71 par2=80
Channel Event. t= 0 (11184) Note On ch=5 par1=78 par2=85
Channel Event. t= 16 (11200) Note Off ch=5 par1=66 par2=64
Channel Event. t= 1 (11201) Note Off ch=5 par1=78 par2=64
Channel Event. t= 31 (11232) Note On ch=5 par1=75 par2=89
Channel Event. t= 0 (11232) Note On ch=5 par1=78 par2=71
Channel Event. t= 10 (11242) Note Off ch=5 par1=71 par2=64
Channel Event. t= 5 (11247) Note Off ch=5 par1=78 par2=64
Channel Event. t= 33 (11280) Note On ch=5 par1=71 par2=81
Channel Event. t= 0 (11280) Note On ch=5 par1=78 par2=74
Channel Event. t= 4 (11284) Note Off ch=5 par1=75 par2=64
Channel Event. t= 18 (11302) Note Off ch=5 par1=78 par2=64
Channel Event. t= 3 (11305) Note Off ch=5 par1=71 par2=64
Channel Event. t= 23 (11328) Note On ch=5 par1=71 par2=82
Channel Event. t= 0 (11328) Note On ch=5 par1=78 par2=94
Channel Event. t= 31 (11359) Note Off ch=5 par1=78 par2=64
Channel Event. t= 17 (11376) Note On ch=5 par1=75 par2=76
Channel Event. t= 23 (11399) Note Off ch=5 par1=71 par2=64
Channel Event. t= 25 (11424) Note On ch=5 par1=78 par2=37
Channel Event. t= 0 (11424) Note On ch=5 par1=79 par2=56
Channel Event. t= 10 (11434) Note Off ch=5 par1=75 par2=64
Channel Event. t= 15 (11449) Note Off ch=5 par1=78 par2=64
Channel Event. t= 9 (11458) Note Off ch=5 par1=79 par2=64
Channel Event. t= 14 (11472) Note On ch=5 par1=75 par2=71
Channel Event. t= 42 (11514) Note Off ch=5 par1=75 par2=64
Channel Event. t= 6 (11520) Note On ch=5 par1=71 par2=87
Channel Event. t= 48 (11568) Note On ch=5 par1=74 par2=82
Channel Event. t= 16 (11584) Note Off ch=5 par1=71 par2=64
Channel Event. t= 32 (11616) Note Off ch=5 par1=74 par2=64
Channel Event. t= 0 (11616) Note On ch=5 par1=78 par2=79
Channel Event. t= 48 (11664) Note On ch=5 par1=74 par2=62
Channel Event. t= 16 (11680) Note Off ch=5 par1=78 par2=64
Channel Event. t= 32 (11712) Note On ch=5 par1=71 par2=63
Channel Event. t= 4 (11716) Note Off ch=5 par1=74 par2=64
Channel Event. t= 44 (11760) Note On ch=5 par1=74 par2=56
Channel Event. t= 9 (11769) Note Off ch=5 par1=71 par2=64
Channel Event. t= 39 (11808) Note On ch=5 par1=78 par2=61
Channel Event. t= 8 (11816) Note Off ch=5 par1=74 par2=64
Channel Event. t= 40 (11856) Note On ch=5 par1=74 par2=53
Channel Event. t= 17 (11873) Note Off ch=5 par1=78 par2=64
Channel Event. t= 31 (11904) Note On ch=5 par1=71 par2=57
Channel Event. t= 5 (11909) Note Off ch=5 par1=74 par2=64
Channel Event. t= 43 (11952) Note On ch=5 par1=74 par2=44
Channel Event. t= 8 (11960) Note Off ch=5 par1=71 par2=64
Channel Event. t= 40 (12000) Note On ch=5 par1=78 par2=61
Channel Event. t= 3 (12003) Note Off ch=5 par1=74 par2=64
Channel Event. t= 45 (12048) Note On ch=5 par1=74 par2=47
Channel Event. t= 7 (12055) Note Off ch=5 par1=78 par2=64
Channel Event. t= 40 (12095) Note Off ch=5 par1=74 par2=64
Channel Event. t= 1 (12096) Note On ch=5 par1=71 par2=56
Channel Event. t= 48 (12144) Note On ch=5 par1=74 par2=37
Channel Event. t= 4 (12148) Note Off ch=5 par1=71 par2=64
Channel Event. t= 38 (12186) Note Off ch=5 par1=74 par2=64
Channel Event. t= 6 (12192) Note On ch=5 par1=78 par2=42
Channel Event. t= 48 (12240) Note On ch=5 par1=74 par2=35
Channel Event. t= 10 (12250) Note Off ch=5 par1=78 par2=64
Channel Event. t= 38 (12288) Note On ch=5 par1=71 par2=52
Channel Event. t= 1 (12289) Note Off ch=5 par1=74 par2=64
Channel Event. t= 46 (12335) Note Off ch=5 par1=71 par2=64
Channel Event. t= 1 (12336) Note On ch=5 par1=74 par2=39
Channel Event. t= 47 (12383) Note Off ch=5 par1=74 par2=64
Channel Event. t= 1 (12384) Note On ch=5 par1=78 par2=49
Channel Event. t= 48 (12432) Note On ch=5 par1=74 par2=41
Channel Event. t= 5 (12437) Note Off ch=5 par1=78 par2=64
Channel Event. t= 40 (12477) Note Off ch=5 par1=74 par2=64
Channel Event. t= 3 (12480) Note On ch=5 par1=71 par2=53
Channel Event. t= 48 (12528) Note On ch=5 par1=74 par2=44
Channel Event. t= 1 (12529) Note Off ch=5 par1=71 par2=64
Channel Event. t= 42 (12571) Note Off ch=5 par1=74 par2=64
Channel Event. t= 5 (12576) Note On ch=5 par1=78 par2=64
Channel Event. t= 48 (12624) Note On ch=5 par1=74 par2=56
Channel Event. t= 9 (12633) Note Off ch=5 par1=78 par2=64
Channel Event. t= 39 (12672) Note Off ch=5 par1=74 par2=64
Channel Event. t= 0 (12672) Note On ch=5 par1=70 par2=86
Channel Event. t= 43 (12715) Note Off ch=5 par1=70 par2=64
Channel Event. t= 5 (12720) Note On ch=5 par1=74 par2=53
Channel Event. t= 48 (12768) Note On ch=5 par1=78 par2=58
Channel Event. t= 5 (12773) Note Off ch=5 par1=74 par2=64
Channel Event. t= 34 (12807) Note Off ch=5 par1=78 par2=64
Channel Event. t= 9 (12816) Note On ch=5 par1=74 par2=53
Channel Event. t= 48 (12864) Note Off ch=5 par1=74 par2=64
Channel Event. t= 0 (12864) Note On ch=5 par1=68 par2=85
Channel Event. t= 48 (12912) Note On ch=5 par1=72 par2=63
Channel Event. t= 1 (12913) Note Off ch=5 par1=68 par2=64
Channel Event. t= 41 (12954) Note Off ch=5 par1=72 par2=64
Channel Event. t= 6 (12960) Note On ch=5 par1=75 par2=60
Channel Event. t= 48 (13008) Note On ch=5 par1=72 par2=40
Channel Event. t= 29 (13037) Note Off ch=5 par1=75 par2=64
Channel Event. t= 19 (13056) Note On ch=5 par1=67 par2=64
Channel Event. t= 10 (13066) Note Off ch=5 par1=72 par2=64
Channel Event. t= 38 (13104) Note On ch=5 par1=70 par2=78
Channel Event. t= 48 (13152) Note On ch=5 par1=74 par2=71
Channel Event. t= 7 (13159) Note Off ch=5 par1=70 par2=64
Channel Event. t= 41 (13200) Note Off ch=5 par1=67 par2=64
Channel Event. t= 0 (13200) Note On ch=5 par1=79 par2=69
Channel Event. t= 13 (13213) Note Off ch=5 par1=74 par2=64
Channel Event. t= 13 (13226) Note Off ch=5 par1=79 par2=64
Channel Event. t= 22 (13248) Note On ch=5 par1=67 par2=66
Channel Event. t= 48 (13296) Note On ch=5 par1=70 par2=63
Channel Event. t= 4 (13300) Note Off ch=5 par1=67 par2=64
Channel Event. t= 44 (13344) Note On ch=5 par1=74 par2=61
Channel Event. t= 4 (13348) Note Off ch=5 par1=70 par2=64
Channel Event. t= 44 (13392) Note On ch=5 par1=70 par2=60
Channel Event. t= 4 (13396) Note Off ch=5 par1=74 par2=64
Channel Event. t= 29 (13425) Note Off ch=5 par1=70 par2=64
Channel Event. t= 15 (13440) Note On ch=5 par1=70 par2=59
Channel Event. t= 48 (13488) Note On ch=5 par1=74 par2=54
Channel Event. t= 11 (13499) Note Off ch=5 par1=70 par2=64
Channel Event. t= 37 (13536) Note On ch=5 par1=79 par2=53
Channel Event. t= 9 (13545) Note Off ch=5 par1=74 par2=64
Channel Event. t= 30 (13575) Note Off ch=5 par1=79 par2=64
Channel Event. t= 9 (13584) Note On ch=5 par1=74 par2=49
Channel Event. t= 47 (13631) Note Off ch=5 par1=74 par2=64
Channel Event. t= 1 (13632) Note On ch=5 par1=74 par2=52
Channel Event. t= 48 (13680) Note Off ch=5 par1=74 par2=64
Channel Event. t= 0 (13680) Note On ch=5 par1=79 par2=47
Channel Event. t= 42 (13722) Note Off ch=5 par1=79 par2=64
Channel Event. t= 6 (13728) Note On ch=5 par1=82 par2=45
Channel Event. t= 48 (13776) Note On ch=5 par1=86 par2=39
Channel Event. t= 13 (13789) Note Off ch=5 par1=82 par2=64
Channel Event. t= 35 (13824) Note On ch=5 par1=50 par2=30
Channel Event. t= 0 (13824) Note On ch=5 par1=46 par2=30
Channel Event. t= 0 (13824) Note On ch=5 par1=91 par2=30
Channel Event. t= 0 (13824) Note On ch=5 par1=79 par2=30
Channel Event. t= 1 (13825) Note Off ch=5 par1=86 par2=64
Channel Event. t= 191 (14016) Note Off ch=5 par1=91 par2=64
Channel Event. t= 0 (14016) Note Off ch=5 par1=79 par2=64
Channel Event. t= 173 (14189) Note Off ch=5 par1=50 par2=64
Channel Event. t= 19 (14208) Note Off ch=5 par1=46 par2=64
Channel Event. t= 0 (14208) Note On ch=5 par1=50 par2=80
Channel Event. t= 0 (14208) Note On ch=5 par1=55 par2=63
Channel Event. t= 0 (14208) Note On ch=5 par1=58 par2=62
Channel Event. t= 48 (14256) Note On ch=5 par1=51 par2=72
Channel Event. t= 0 (14256) Note On ch=5 par1=54 par2=64
Channel Event. t= 0 (14256) Note On ch=5 par1=57 par2=55
Channel Event. t= 5 (14261) Note Off ch=5 par1=50 par2=64
Channel Event. t= 9 (14270) Note Off ch=5 par1=58 par2=64
Channel Event. t= 7 (14277) Note Off ch=5 par1=55 par2=64
Channel Event. t= 26 (14303) Note Off ch=5 par1=51 par2=64
Channel Event. t= 1 (14304) Note Off ch=5 par1=54 par2=64
Channel Event. t= 0 (14304) Note On ch=5 par1=50 par2=60
Channel Event. t= 0 (14304) Note On ch=5 par1=55 par2=63
Channel Event. t= 0 (14304) Note On ch=5 par1=58 par2=29
Channel Event. t= 1 (14305) Note Off ch=5 par1=57 par2=64
Channel Event. t= 40 (14345) Note Off ch=5 par1=58 par2=64
Channel Event. t= 4 (14349) Note Off ch=5 par1=55 par2=64
Channel Event. t= 3 (14352) Note On ch=5 par1=51 par2=66
Channel Event. t= 0 (14352) Note On ch=5 par1=57 par2=53
Channel Event. t= 0 (14352) Note On ch=5 par1=54 par2=57
Channel Event. t= 6 (14358) Note Off ch=5 par1=50 par2=64
Channel Event. t= 42 (14400) Note On ch=5 par1=50 par2=82
Channel Event. t= 0 (14400) Note On ch=5 par1=58 par2=73
Channel Event. t= 0 (14400) Note On ch=5 par1=55 par2=66
Channel Event. t= 6 (14406) Note Off ch=5 par1=54 par2=64
Channel Event. t= 4 (14410) Note Off ch=5 par1=57 par2=64
Channel Event. t= 7 (14417) Note Off ch=5 par1=51 par2=64
Channel Event. t= 29 (14446) Note Off ch=5 par1=58 par2=64
Channel Event. t= 1 (14447) Note Off ch=5 par1=50 par2=64
Channel Event. t= 7 (14454) Note Off ch=5 par1=55 par2=64
Channel Event. t= 42 (14496) Note On ch=5 par1=52 par2=63
Channel Event. t= 0 (14496) Note On ch=5 par1=50 par2=49
Channel Event. t= 0 (14496) Note On ch=5 par1=55 par2=62
Channel Event. t= 0 (14496) Note On ch=5 par1=58 par2=67
Channel Event. t= 34 (14530) Note Off ch=5 par1=52 par2=64
Channel Event. t= 19 (14549) Note Off ch=5 par1=58 par2=64
Channel Event. t= 5 (14554) Note Off ch=5 par1=55 par2=64
Channel Event. t= 7 (14561) Note Off ch=5 par1=50 par2=64
Channel Event. t= 31 (14592) Note On ch=5 par1=55 par2=84
Channel Event. t= 0 (14592) Note On ch=5 par1=62 par2=73
Channel Event. t= 0 (14592) Note On ch=5 par1=58 par2=73
Channel Event. t= 86 (14678) Note Off ch=5 par1=62 par2=64
Channel Event. t= 10 (14688) Note Off ch=5 par1=55 par2=64
Channel Event. t= 0 (14688) Note On ch=5 par1=51 par2=77
Channel Event. t= 0 (14688) Note On ch=5 par1=57 par2=55
Channel Event. t= 0 (14688) Note On ch=5 par1=61 par2=68
Channel Event. t= 10 (14698) Note Off ch=5 par1=58 par2=64
Channel Event. t= 73 (14771) Note Off ch=5 par1=61 par2=64
Channel Event. t= 8 (14779) Note Off ch=5 par1=57 par2=64
Channel Event. t= 5 (14784) Note Off ch=5 par1=51 par2=64
Channel Event. t= 0 (14784) Note On ch=5 par1=55 par2=74
Channel Event. t= 0 (14784) Note On ch=5 par1=62 par2=74
Channel Event. t= 0 (14784) Note On ch=5 par1=58 par2=77
Channel Event. t= 69 (14853) Note Off ch=5 par1=58 par2=64
Channel Event. t= 27 (14880) Note Off ch=5 par1=55 par2=64
Channel Event. t= 0 (14880) Note On ch=5 par1=51 par2=85
Channel Event. t= 0 (14880) Note On ch=5 par1=55 par2=67
Channel Event. t= 0 (14880) Note On ch=5 par1=58 par2=73
Channel Event. t= 1 (14881) Note Off ch=5 par1=62 par2=64
Channel Event. t= 79 (14960) Note Off ch=5 par1=55 par2=64
Channel Event. t= 6 (14966) Note Off ch=5 par1=58 par2=64
Channel Event. t= 10 (14976) Note Off ch=5 par1=51 par2=64
Channel Event. t= 0 (14976) Note On ch=5 par1=56 par2=65
Channel Event. t= 0 (14976) Note On ch=5 par1=64 par2=92
Channel Event. t= 0 (14976) Note On ch=5 par1=67 par2=65
Channel Event. t= 0 (14976) Note On ch=5 par1=76 par2=66
Channel Event. t= 0 (14976) Controller ch=5 par1=7 (Main Volume) par2=102
Channel Event. t= 96 (15072) Note Off ch=5 par1=56 par2=64
Channel Event. t= 0 (15072) Note Off ch=5 par1=64 par2=64
Channel Event. t= 0 (15072) Note Off ch=5 par1=67 par2=64
Channel Event. t= 0 (15072) Note Off ch=5 par1=76 par2=64
Channel Event. t= 96 (15168) Note On ch=5 par1=57 par2=53
Channel Event. t= 0 (15168) Note On ch=5 par1=65 par2=82
Channel Event. t= 0 (15168) Note On ch=5 par1=72 par2=70
Channel Event. t= 0 (15168) Note On ch=5 par1=77 par2=72
Channel Event. t= 96 (15264) Note Off ch=5 par1=57 par2=64
Channel Event. t= 0 (15264) Note Off ch=5 par1=65 par2=64
Channel Event. t= 0 (15264) Note Off ch=5 par1=72 par2=64
Channel Event. t= 0 (15264) Note Off ch=5 par1=77 par2=64
Channel Event. t= 144 (15408) Controller ch=5 par1=7 (Main Volume) par2=70
Channel Event. t= 336 (15744) Note On ch=5 par1=57 par2=92
Channel Event. t= 0 (15744) Note On ch=5 par1=62 par2=65
Channel Event. t= 0 (15744) Note On ch=5 par1=65 par2=61
Channel Event. t= 43 (15787) Note Off ch=5 par1=65 par2=64
Channel Event. t= 5 (15792) Note Off ch=5 par1=62 par2=64
Channel Event. t= 0 (15792) Note On ch=5 par1=58 par2=75
Channel Event. t= 0 (15792) Note On ch=5 par1=61 par2=63
Channel Event. t= 0 (15792) Note On ch=5 par1=64 par2=47
Channel Event. t= 2 (15794) Note Off ch=5 par1=57 par2=64
Channel Event. t= 40 (15834) Note Off ch=5 par1=61 par2=64
Channel Event. t= 6 (15840) Note On ch=5 par1=57 par2=54
Channel Event. t= 0 (15840) Note On ch=5 par1=65 par2=47
Channel Event. t= 0 (15840) Note On ch=5 par1=62 par2=49
Channel Event. t= 1 (15841) Note Off ch=5 par1=58 par2=64
Channel Event. t= 6 (15847) Note Off ch=5 par1=64 par2=64
Channel Event. t= 41 (15888) Note On ch=5 par1=58 par2=79
Channel Event. t= 0 (15888) Note On ch=5 par1=64 par2=55
Channel Event. t= 0 (15888) Note On ch=5 par1=61 par2=59
Channel Event. t= 2 (15890) Note Off ch=5 par1=65 par2=64
Channel Event. t= 2 (15892) Note Off ch=5 par1=62 par2=64
Channel Event. t= 6 (15898) Note Off ch=5 par1=57 par2=64
Channel Event. t= 38 (15936) Note Off ch=5 par1=61 par2=64
Channel Event. t= 0 (15936) Note On ch=5 par1=57 par2=76
Channel Event. t= 0 (15936) Note On ch=5 par1=65 par2=53
Channel Event. t= 0 (15936) Note On ch=5 par1=62 par2=68
Channel Event. t= 7 (15943) Note Off ch=5 par1=64 par2=64
Channel Event. t= 5 (15948) Note Off ch=5 par1=58 par2=64
Channel Event. t= 40 (15988) Note Off ch=5 par1=65 par2=64
Channel Event. t= 2 (15990) Note Off ch=5 par1=62 par2=64
Channel Event. t= 2 (15992) Note Off ch=5 par1=57 par2=64
Channel Event. t= 40 (16032) Note On ch=5 par1=57 par2=74
Channel Event. t= 0 (16032) Note On ch=5 par1=62 par2=59
Channel Event. t= 0 (16032) Note On ch=5 par1=65 par2=56
Channel Event. t= 29 (16061) Note Off ch=5 par1=62 par2=64
Channel Event. t= 10 (16071) Note Off ch=5 par1=57 par2=64
Channel Event. t= 7 (16078) Note Off ch=5 par1=65 par2=64
Channel Event. t= 50 (16128) Note On ch=5 par1=62 par2=81
Channel Event. t= 0 (16128) Note On ch=5 par1=69 par2=55
Channel Event. t= 0 (16128) Note On ch=5 par1=65 par2=69
Channel Event. t= 94 (16222) Note Off ch=5 par1=65 par2=64
Channel Event. t= 2 (16224) Note On ch=5 par1=58 par2=76
Channel Event. t= 0 (16224) Note On ch=5 par1=68 par2=67
Channel Event. t= 0 (16224) Note On ch=5 par1=64 par2=61
Channel Event. t= 1 (16225) Note Off ch=5 par1=69 par2=64
Channel Event. t= 6 (16231) Note Off ch=5 par1=62 par2=64
Channel Event. t= 72 (16303) Note Off ch=5 par1=58 par2=64
Channel Event. t= 14 (16317) Note Off ch=5 par1=68 par2=64
Channel Event. t= 3 (16320) Note On ch=5 par1=62 par2=81
Channel Event. t= 0 (16320) Note On ch=5 par1=65 par2=63
Channel Event. t= 0 (16320) Note On ch=5 par1=69 par2=45
Channel Event. t= 13 (16333) Note Off ch=5 par1=64 par2=64
Channel Event. t= 52 (16385) Note Off ch=5 par1=65 par2=64
Channel Event. t= 14 (16399) Note Off ch=5 par1=69 par2=64
Channel Event. t= 16 (16415) Note Off ch=5 par1=62 par2=64
Channel Event. t= 1 (16416) Note On ch=5 par1=57 par2=78
Channel Event. t= 0 (16416) Note On ch=5 par1=62 par2=60
Channel Event. t= 0 (16416) Note On ch=5 par1=65 par2=60
Channel Event. t= 84 (16500) Note Off ch=5 par1=62 par2=64
Channel Event. t= 0 (16500) Note Off ch=5 par1=65 par2=64
Channel Event. t= 4 (16504) Note Off ch=5 par1=57 par2=64
Channel Event. t= 8 (16512) Note On ch=5 par1=54 par2=90
Channel Event. t= 0 (16512) Note On ch=5 par1=63 par2=94
Channel Event. t= 96 (16608) Note Off ch=5 par1=54 par2=64
Channel Event. t= 0 (16608) Note Off ch=5 par1=63 par2=64
Channel Event. t= 24 (16632) Controller ch=5 par1=7 (Main Volume) par2=102
Channel Event. t= 72 (16704) Note On ch=5 par1=52 par2=84
Channel Event. t= 0 (16704) Note On ch=5 par1=60 par2=86
Channel Event. t= 0 (16704) Note On ch=5 par1=72 par2=58
Channel Event. t= 0 (16704) Note On ch=5 par1=67 par2=60
Channel Event. t= 96 (16800) Note Off ch=5 par1=52 par2=64
Channel Event. t= 0 (16800) Note Off ch=5 par1=60 par2=64
Channel Event. t= 8 (16808) Note Off ch=5 par1=72 par2=64
Channel Event. t= 4 (16812) Note Off ch=5 par1=67 par2=64
Channel Event. t= 72 (16884) Controller ch=5 par1=7 (Main Volume) par2=80
Channel Event. t= 12 (16896) Note On ch=5 par1=64 par2=65
Channel Event. t= 0 (16896) Note On ch=5 par1=72 par2=58
Channel Event. t= 48 (16944) Note Off ch=5 par1=72 par2=64
Channel Event. t= 0 (16944) Note On ch=5 par1=76 par2=48
Channel Event. t= 43 (16987) Note Off ch=5 par1=76 par2=64
Channel Event. t= 5 (16992) Note On ch=5 par1=67 par2=55
Channel Event. t= 0 (16992) Note On ch=5 par1=72 par2=32
Channel Event. t= 12 (17004) Note Off ch=5 par1=64 par2=64
Channel Event. t= 36 (17040) Note On ch=5 par1=76 par2=41
Channel Event. t= 4 (17044) Note Off ch=5 par1=72 par2=64
Channel Event. t= 43 (17087) Note Off ch=5 par1=76 par2=64
Channel Event. t= 1 (17088) Note On ch=5 par1=64 par2=56
Channel Event. t= 0 (17088) Note On ch=5 par1=72 par2=46
Channel Event. t= 8 (17096) Note Off ch=5 par1=67 par2=64
Channel Event. t= 40 (17136) Note On ch=5 par1=76 par2=57
Channel Event. t= 4 (17140) Note Off ch=5 par1=72 par2=64
Channel Event. t= 44 (17184) Note On ch=5 par1=67 par2=63
Channel Event. t= 0 (17184) Note On ch=5 par1=79 par2=55
Channel Event. t= 3 (17187) Note Off ch=5 par1=76 par2=64
Channel Event. t= 9 (17196) Note Off ch=5 par1=64 par2=64
Channel Event. t= 36 (17232) Note On ch=5 par1=76 par2=36
Channel Event. t= 6 (17238) Note Off ch=5 par1=79 par2=64
Channel Event. t= 42 (17280) Note On ch=5 par1=64 par2=66
Channel Event. t= 0 (17280) Note On ch=5 par1=72 par2=66
Channel Event. t= 1 (17281) Note Off ch=5 par1=76 par2=64
Channel Event. t= 4 (17285) Note Off ch=5 par1=67 par2=64
Channel Event. t= 43 (17328) Note On ch=5 par1=76 par2=59
Channel Event. t= 9 (17337) Note Off ch=5 par1=72 par2=64
Channel Event. t= 39 (17376) Note On ch=5 par1=67 par2=63
Channel Event. t= 0 (17376) Note On ch=5 par1=79 par2=53
Channel Event. t= 8 (17384) Note Off ch=5 par1=76 par2=64
Channel Event. t= 2 (17386) Note Off ch=5 par1=64 par2=64
Channel Event. t= 38 (17424) Note On ch=5 par1=76 par2=51
Channel Event. t= 8 (17432) Note Off ch=5 par1=79 par2=64
Channel Event. t= 40 (17472) Note On ch=5 par1=64 par2=62
Channel Event. t= 0 (17472) Note On ch=5 par1=72 par2=69
Channel Event. t= 5 (17477) Note Off ch=5 par1=76 par2=64
Channel Event. t= 12 (17489) Note Off ch=5 par1=67 par2=64
Channel Event. t= 31 (17520) Note On ch=5 par1=76 par2=61
Channel Event. t= 3 (17523) Note Off ch=5 par1=72 par2=64
Channel Event. t= 45 (17568) Note On ch=5 par1=67 par2=61
Channel Event. t= 0 (17568) Note On ch=5 par1=79 par2=49
Channel Event. t= 6 (17574) Note Off ch=5 par1=64 par2=64
Channel Event. t= 0 (17574) Note Off ch=5 par1=76 par2=64
Channel Event. t= 42 (17616) Note On ch=5 par1=76 par2=51
Channel Event. t= 4 (17620) Note Off ch=5 par1=79 par2=64
Channel Event. t= 44 (17664) Note On ch=5 par1=64 par2=72
Channel Event. t= 0 (17664) Note On ch=5 par1=72 par2=67
Channel Event. t= 1 (17665) Note Off ch=5 par1=76 par2=64
Channel Event. t= 6 (17671) Note Off ch=5 par1=67 par2=64
Channel Event. t= 41 (17712) Note On ch=5 par1=76 par2=60
Channel Event. t= 7 (17719) Note Off ch=5 par1=72 par2=64
Channel Event. t= 41 (17760) Note On ch=5 par1=67 par2=58
Channel Event. t= 0 (17760) Note On ch=5 par1=79 par2=54
Channel Event. t= 1 (17761) Note Off ch=5 par1=76 par2=64
Channel Event. t= 4 (17765) Note Off ch=5 par1=64 par2=64
Channel Event. t= 43 (17808) Note On ch=5 par1=76 par2=56
Channel Event. t= 12 (17820) Note Off ch=5 par1=79 par2=64
Channel Event. t= 36 (17856) Note On ch=5 par1=64 par2=76
Channel Event. t= 0 (17856) Note On ch=5 par1=72 par2=74
Channel Event. t= 3 (17859) Note Off ch=5 par1=76 par2=64
Channel Event. t= 9 (17868) Note Off ch=5 par1=67 par2=64
Channel Event. t= 36 (17904) Note On ch=5 par1=76 par2=60
Channel Event. t= 5 (17909) Note Off ch=5 par1=72 par2=64
Channel Event. t= 43 (17952) Note On ch=5 par1=67 par2=64
Channel Event. t= 0 (17952) Note On ch=5 par1=79 par2=64
Channel Event. t= 3 (17955) Note Off ch=5 par1=76 par2=64
Channel Event. t= 8 (17963) Note Off ch=5 par1=64 par2=64
Channel Event. t= 37 (18000) Note On ch=5 par1=76 par2=57
Channel Event. t= 6 (18006) Note Off ch=5 par1=79 par2=64
Channel Event. t= 42 (18048) Note On ch=5 par1=64 par2=78
Channel Event. t= 0 (18048) Note On ch=5 par1=72 par2=70
Channel Event. t= 5 (18053) Note Off ch=5 par1=76 par2=64
Channel Event. t= 5 (18058) Note Off ch=5 par1=67 par2=64
Channel Event. t= 38 (18096) Note On ch=5 par1=76 par2=55
Channel Event. t= 4 (18100) Note Off ch=5 par1=72 par2=64
Channel Event. t= 44 (18144) Note On ch=5 par1=67 par2=66
Channel Event. t= 0 (18144) Note On ch=5 par1=79 par2=55
Channel Event. t= 6 (18150) Note Off ch=5 par1=76 par2=64
Channel Event. t= 2 (18152) Note Off ch=5 par1=64 par2=64
Channel Event. t= 40 (18192) Note On ch=5 par1=76 par2=55
Channel Event. t= 6 (18198) Note Off ch=5 par1=79 par2=64
Channel Event. t= 42 (18240) Note On ch=5 par1=64 par2=77
Channel Event. t= 0 (18240) Note On ch=5 par1=72 par2=67
Channel Event. t= 3 (18243) Note Off ch=5 par1=76 par2=64
Channel Event. t= 10 (18253) Note Off ch=5 par1=67 par2=64
Channel Event. t= 35 (18288) Note On ch=5 par1=76 par2=67
Channel Event. t= 8 (18296) Note Off ch=5 par1=72 par2=64
Channel Event. t= 40 (18336) Note On ch=5 par1=67 par2=67
Channel Event. t= 0 (18336) Note On ch=5 par1=79 par2=79
Channel Event. t= 4 (18340) Note Off ch=5 par1=76 par2=64
Channel Event. t= 3 (18343) Note Off ch=5 par1=64 par2=64
Channel Event. t= 41 (18384) Note On ch=5 par1=76 par2=54
Channel Event. t= 27 (18411) Note Off ch=5 par1=67 par2=64
Channel Event. t= 12 (18423) Note Off ch=5 par1=79 par2=64
Channel Event. t= 9 (18432) Note On ch=5 par1=63 par2=92
Channel Event. t= 0 (18432) Note On ch=5 par1=68 par2=73
Channel Event. t= 0 (18432) Note On ch=5 par1=80 par2=80
Channel Event. t= 9 (18441) Note Off ch=5 par1=76 par2=64
Channel Event. t= 21 (18462) Note Off ch=5 par1=63 par2=64
Channel Event. t= 18 (18480) Note On ch=5 par1=63 par2=85
Channel Event. t= 47 (18527) Note Off ch=5 par1=63 par2=64
Channel Event. t= 1 (18528) Note On ch=5 par1=67 par2=73
Channel Event. t= 48 (18576) Note On ch=5 par1=63 par2=84
Channel Event. t= 21 (18597) Note Off ch=5 par1=67 par2=64
Channel Event. t= 34 (18631) Note Off ch=5 par1=63 par2=64
Channel Event. t= 166 (18797) Note Off ch=5 par1=68 par2=64
Channel Event. t= 2 (18799) Note Off ch=5 par1=80 par2=64
Channel Event. t= 17 (18816) Note On ch=5 par1=61 par2=94
Channel Event. t= 0 (18816) Note On ch=5 par1=80 par2=83
Channel Event. t= 0 (18816) Note On ch=5 par1=68 par2=74
Channel Event. t= 32 (18848) Note Off ch=5 par1=61 par2=64
Channel Event. t= 16 (18864) Note On ch=5 par1=61 par2=83
Channel Event. t= 48 (18912) Note Off ch=5 par1=61 par2=64
Channel Event. t= 0 (18912) Note On ch=5 par1=65 par2=73
Channel Event. t= 48 (18960) Note On ch=5 par1=61 par2=78
Channel Event. t= 13 (18973) Note Off ch=5 par1=65 par2=64
Channel Event. t= 33 (19006) Note Off ch=5 par1=61 par2=64
Channel Event. t= 170 (19176) Note Off ch=5 par1=68 par2=64
Channel Event. t= 24 (19200) Note On ch=5 par1=59 par2=97
Channel Event. t= 0 (19200) Note On ch=5 par1=68 par2=85
Channel Event. t= 5 (19205) Note Off ch=5 par1=80 par2=64
Channel Event. t= 25 (19230) Note Off ch=5 par1=59 par2=64
Channel Event. t= 18 (19248) Note On ch=5 par1=59 par2=80
Channel Event. t= 48 (19296) Note On ch=5 par1=63 par2=84
Channel Event. t= 3 (19299) Note Off ch=5 par1=59 par2=64
Channel Event. t= 45 (19344) Note On ch=5 par1=59 par2=70
Channel Event. t= 6 (19350) Note Off ch=5 par1=63 par2=64
Channel Event. t= 49 (19399) Note Off ch=5 par1=59 par2=64
Channel Event. t= 167 (19566) Note Off ch=5 par1=68 par2=64
Channel Event. t= 18 (19584) Note On ch=5 par1=57 par2=95
Channel Event. t= 0 (19584) Note On ch=5 par1=68 par2=54
Channel Event. t= 32 (19616) Note Off ch=5 par1=57 par2=64
Channel Event. t= 16 (19632) Note On ch=5 par1=57 par2=81
Channel Event. t= 47 (19679) Note Off ch=5 par1=57 par2=64
Channel Event. t= 1 (19680) Note On ch=5 par1=61 par2=77
Channel Event. t= 46 (19726) Note Off ch=5 par1=61 par2=64
Channel Event. t= 2 (19728) Note On ch=5 par1=57 par2=83
Channel Event. t= 60 (19788) Note Off ch=5 par1=57 par2=64
Channel Event. t= 167 (19955) Note Off ch=5 par1=68 par2=64
Channel Event. t= 13 (19968) Note On ch=5 par1=63 par2=91
Channel Event. t= 48 (20016) Note Off ch=5 par1=63 par2=64
Channel Event. t= 0 (20016) Note On ch=5 par1=67 par2=72
Channel Event. t= 48 (20064) Note On ch=5 par1=70 par2=81
Channel Event. t= 1 (20065) Note Off ch=5 par1=67 par2=64
Channel Event. t= 47 (20112) Note On ch=5 par1=67 par2=77
Channel Event. t= 9 (20121) Note Off ch=5 par1=70 par2=64
Channel Event. t= 39 (20160) Note On ch=5 par1=70 par2=46
Channel Event. t= 10 (20170) Note Off ch=5 par1=67 par2=64
Channel Event. t= 106 (20276) Note Off ch=5 par1=70 par2=64
Channel Event. t= 76 (20352) Note On ch=5 par1=63 par2=93
Channel Event. t= 48 (20400) Note On ch=5 par1=67 par2=75
Channel Event. t= 1 (20401) Note Off ch=5 par1=63 par2=64
Channel Event. t= 47 (20448) Note On ch=5 par1=70 par2=80
Channel Event. t= 1 (20449) Note Off ch=5 par1=67 par2=64
Channel Event. t= 47 (20496) Note On ch=5 par1=67 par2=69
Channel Event. t= 4 (20500) Note Off ch=5 par1=70 par2=64
Channel Event. t= 43 (20543) Note Off ch=5 par1=67 par2=64
Channel Event. t= 1 (20544) Note On ch=5 par1=70 par2=52
Channel Event. t= 103 (20647) Note Off ch=5 par1=70 par2=64
Channel Event. t= 89 (20736) Note On ch=5 par1=67 par2=58
Channel Event. t= 46 (20782) Note Off ch=5 par1=67 par2=64
Channel Event. t= 2 (20784) Note On ch=5 par1=70 par2=46
Channel Event. t= 41 (20825) Note Off ch=5 par1=70 par2=64
Channel Event. t= 7 (20832) Note On ch=5 par1=75 par2=51
Channel Event. t= 39 (20871) Note Off ch=5 par1=75 par2=64
Channel Event. t= 9 (20880) Note On ch=5 par1=79 par2=68
Channel Event. t= 48 (20928) Note Off ch=5 par1=79 par2=64
Channel Event. t= 0 (20928) Note On ch=5 par1=82 par2=71
Channel Event. t= 47 (20975) Note Off ch=5 par1=82 par2=64
Channel Event. t= 217 (21192) Controller ch=5 par1=7 (Main Volume) par2=102
Channel Event. t= 120 (21312) Note On ch=5 par1=91 par2=81
Channel Event. t= 0 (21312) Note On ch=5 par1=83 par2=79
Channel Event. t= 0 (21312) Note On ch=5 par1=59 par2=61
Channel Event. t= 0 (21312) Note On ch=5 par1=66 par2=76
Channel Event. t= 21 (21333) Note On ch=5 par1=74 par2=85
Channel Event. t= 66 (21399) Note Off ch=5 par1=59 par2=64
Channel Event. t= 1 (21400) Note Off ch=5 par1=66 par2=64
Channel Event. t= 74 (21474) Note Off ch=5 par1=91 par2=64
Channel Event. t= 0 (21474) Note Off ch=5 par1=83 par2=64
Channel Event. t= 3 (21477) Note Off ch=5 par1=74 par2=64
Channel Event. t= 27 (21504) Note On ch=5 par1=96 par2=77
Channel Event. t= 0 (21504) Note On ch=5 par1=88 par2=78
Channel Event. t= 0 (21504) Note On ch=5 par1=72 par2=72
Channel Event. t= 0 (21504) Note On ch=5 par1=79 par2=64
Channel Event. t= 144 (21648) Note Off ch=5 par1=72 par2=64
Channel Event. t= 0 (21648) Note Off ch=5 par1=79 par2=64
Channel Event. t= 48 (21696) Note Off ch=5 par1=96 par2=64
Channel Event. t= 0 (21696) Note Off ch=5 par1=88 par2=64
Channel Event. t= 177 (21873) Note On ch=5 par1=79 par2=82
Channel Event. t= 2 (21875) Note On ch=5 par1=74 par2=88
Channel Event. t= 13 (21888) Note On ch=5 par1=91 par2=85
Channel Event. t= 0 (21888) Note On ch=5 par1=59 par2=67
Channel Event. t= 0 (21888) Note On ch=5 par1=66 par2=80
Channel Event. t= 77 (21965) Note Off ch=5 par1=66 par2=64
Channel Event. t= 29 (21994) Note Off ch=5 par1=59 par2=64
Channel Event. t= 10 (22004) Note Off ch=5 par1=91 par2=64
Channel Event. t= 21 (22025) Note Off ch=5 par1=79 par2=64
Channel Event. t= 11 (22036) Note Off ch=5 par1=74 par2=64
Channel Event. t= 44 (22080) Note On ch=5 par1=88 par2=77
Channel Event. t= 0 (22080) Note On ch=5 par1=96 par2=90
Channel Event. t= 0 (22080) Note On ch=5 par1=60 par2=70
Channel Event. t= 0 (22080) Note On ch=5 par1=67 par2=66
Channel Event. t= 2 (22082) Note On ch=5 par1=79 par2=91
Channel Event. t= 104 (22186) Note Off ch=5 par1=60 par2=64
Channel Event. t= 9 (22195) Note Off ch=5 par1=67 par2=64
Channel Event. t= 24 (22219) Note Off ch=5 par1=88 par2=64
Channel Event. t= 1 (22220) Note Off ch=5 par1=96 par2=64
Channel Event. t= 21 (22241) Note Off ch=5 par1=79 par2=64
Channel Event. t= 223 (22464) Note On ch=5 par1=91 par2=84
Channel Event. t= 0 (22464) Note On ch=5 par1=83 par2=75
Channel Event. t= 0 (22464) Note On ch=5 par1=59 par2=72
Channel Event. t= 0 (22464) Note On ch=5 par1=66 par2=81
Channel Event. t= 2 (22466) Note On ch=5 par1=79 par2=74
Channel Event. t= 101 (22567) Note Off ch=5 par1=83 par2=64
Channel Event. t= 5 (22572) Note Off ch=5 par1=91 par2=64
Channel Event. t= 18 (22590) Note Off ch=5 par1=79 par2=64
Channel Event. t= 8 (22598) Note Off ch=5 par1=59 par2=64
Channel Event. t= 24 (22622) Note Off ch=5 par1=66 par2=64
Channel Event. t= 34 (22656) Note On ch=5 par1=83 par2=79
Channel Event. t= 0 (22656) Note On ch=5 par1=91 par2=91
Channel Event. t= 0 (22656) Note On ch=5 par1=59 par2=75
Channel Event. t= 0 (22656) Note On ch=5 par1=66 par2=84
Channel Event. t= 12 (22668) Note On ch=5 par1=79 par2=85
Channel Event. t= 88 (22756) Note Off ch=5 par1=91 par2=64
Channel Event. t= 20 (22776) Note Off ch=5 par1=83 par2=64
Channel Event. t= 2 (22778) Note Off ch=5 par1=66 par2=64
Channel Event. t= 4 (22782) Note Off ch=5 par1=79 par2=64
Channel Event. t= 2 (22784) Note Off ch=5 par1=59 par2=64
Channel Event. t= 64 (22848) Note On ch=5 par1=79 par2=82
Channel Event. t= 0 (22848) Note On ch=5 par1=55 par2=97
Channel Event. t= 33 (22881) Note On ch=5 par1=67 par2=91
Channel Event. t= 15 (22896) Note Off ch=5 par1=79 par2=64
Channel Event. t= 14 (22910) Note Off ch=5 par1=55 par2=64
Channel Event. t= 19 (22929) Note Off ch=5 par1=67 par2=64
Channel Event. t= 15 (22944) Note On ch=5 par1=79 par2=59
Channel Event. t= 0 (22944) Note On ch=5 par1=55 par2=85
Channel Event. t= 21 (22965) Note On ch=5 par1=67 par2=91
Channel Event. t= 44 (23009) Note Off ch=5 par1=79 par2=64
Channel Event. t= 4 (23013) Note Off ch=5 par1=55 par2=64
Channel Event. t= 12 (23025) Note Off ch=5 par1=67 par2=64
Channel Event. t= 15 (23040) Note On ch=5 par1=79 par2=83
Channel Event. t= 0 (23040) Note On ch=5 par1=55 par2=92
Channel Event. t= 11 (23051) Note On ch=5 par1=67 par2=90
Channel Event. t= 79 (23130) Note Off ch=5 par1=79 par2=64
Channel Event. t= 5 (23135) Note Off ch=5 par1=55 par2=64
Channel Event. t= 1 (23136) Note On ch=5 par1=80 par2=89
Channel Event. t= 0 (23136) Note On ch=5 par1=56 par2=86
Channel Event. t= 1 (23137) Note On ch=5 par1=68 par2=96
Channel Event. t= 11 (23148) Note Off ch=5 par1=67 par2=64
Channel Event. t= 84 (23232) Note On ch=5 par1=71 par2=90
Channel Event. t= 0 (23232) Note On ch=5 par1=47 par2=89
Channel Event. t= 5 (23237) Note Off ch=5 par1=56 par2=64
Channel Event. t= 3 (23240) Note Off ch=5 par1=80 par2=64
Channel Event. t= 1 (23241) Note On ch=5 par1=59 par2=99
Channel Event. t= 5 (23246) Note Off ch=5 par1=68 par2=64
Channel Event. t= 144 (23390) Note Off ch=5 par1=59 par2=64
Channel Event. t= 19 (23409) Note Off ch=5 par1=71 par2=64
Channel Event. t= 1 (23410) Note Off ch=5 par1=47 par2=64
Channel Event. t= 14 (23424) Note On ch=5 par1=55 par2=90
Channel Event. t= 96 (23520) Note On ch=5 par1=53 par2=85
Channel Event. t= 16 (23536) Note Off ch=5 par1=55 par2=64
Channel Event. t= 78 (23614) Note Off ch=5 par1=53 par2=64
Channel Event. t= 2 (23616) Note On ch=5 par1=52 par2=91
Channel Event. t= 96 (23712) Note On ch=5 par1=50 par2=87
Channel Event. t= 12 (23724) Note Off ch=5 par1=52 par2=64
Channel Event. t= 22 (23746) Note Off ch=5 par1=50 par2=64
Channel Event. t= 62 (23808) Note On ch=5 par1=83 par2=82
Channel Event. t= 0 (23808) Note On ch=5 par1=91 par2=92
Channel Event. t= 0 (23808) Note On ch=5 par1=66 par2=102
Channel Event. t= 0 (23808) Note On ch=5 par1=59 par2=86
Channel Event. t= 4 (23812) Note On ch=5 par1=79 par2=91
Channel Event. t= 2 (23814) Note On ch=5 par1=74 par2=95
Channel Event. t= 121 (23935) Note Off ch=5 par1=79 par2=64
Channel Event. t= 10 (23945) Note Off ch=5 par1=91 par2=64
Channel Event. t= 2 (23947) Note Off ch=5 par1=74 par2=64
Channel Event. t= 2 (23949) Note Off ch=5 par1=66 par2=64
Channel Event. t= 8 (23957) Note Off ch=5 par1=83 par2=64
Channel Event. t= 1 (23958) Note Off ch=5 par1=59 par2=64
Channel Event. t= 41 (23999) Note On ch=5 par1=67 par2=96
Channel Event. t= 1 (24000) Note On ch=5 par1=79 par2=81
Channel Event. t= 0 (24000) Note On ch=5 par1=55 par2=80
Channel Event. t= 65 (24065) Note Off ch=5 par1=55 par2=64
Channel Event. t= 2 (24067) Note Off ch=5 par1=67 par2=64
Channel Event. t= 13 (24080) Note Off ch=5 par1=79 par2=64
Channel Event. t= 14 (24094) Note On ch=5 par1=67 par2=96
Channel Event. t= 2 (24096) Note On ch=5 par1=79 par2=84
Channel Event. t= 0 (24096) Note On ch=5 par1=55 par2=93
Channel Event. t= 65 (24161) Note Off ch=5 par1=55 par2=64
Channel Event. t= 1 (24162) Note Off ch=5 par1=67 par2=64
Channel Event. t= 15 (24177) Note Off ch=5 par1=79 par2=64
Channel Event. t= 15 (24192) Note On ch=5 par1=79 par2=90
Channel Event. t= 0 (24192) Note On ch=5 par1=67 par2=95
Channel Event. t= 0 (24192) Note On ch=5 par1=55 par2=93
Channel Event. t= 92 (24284) Note Off ch=5 par1=79 par2=64
Channel Event. t= 2 (24286) Note On ch=5 par1=68 par2=96
Channel Event. t= 2 (24288) Note On ch=5 par1=80 par2=91
Channel Event. t= 0 (24288) Note On ch=5 par1=56 par2=92
Channel Event. t= 3 (24291) Note Off ch=5 par1=67 par2=64
Channel Event. t= 2 (24293) Note Off ch=5 par1=55 par2=64
Channel Event. t= 91 (24384) Note On ch=5 par1=71 par2=92
Channel Event. t= 0 (24384) Note On ch=5 par1=47 par2=93
Channel Event. t= 3 (24387) Note Off ch=5 par1=56 par2=64
Channel Event. t= 0 (24387) Note On ch=5 par1=59 par2=99
Channel Event. t= 2 (24389) Note Off ch=5 par1=68 par2=64
Channel Event. t= 6 (24395) Note Off ch=5 par1=80 par2=64
Channel Event. t= 128 (24523) Note Off ch=5 par1=71 par2=64
Channel Event. t= 6 (24529) Note Off ch=5 par1=59 par2=64
Channel Event. t= 3 (24532) Note Off ch=5 par1=47 par2=64
Channel Event. t= 44 (24576) Note On ch=5 par1=55 par2=89
Channel Event. t= 96 (24672) Note On ch=5 par1=53 par2=90
Channel Event. t= 18 (24690) Note Off ch=5 par1=55 par2=64
Channel Event. t= 76 (24766) Note Off ch=5 par1=53 par2=64
Channel Event. t= 2 (24768) Note On ch=5 par1=52 par2=93
Channel Event. t= 96 (24864) Note On ch=5 par1=50 par2=92
Channel Event. t= 11 (24875) Note Off ch=5 par1=52 par2=64
Channel Event. t= 78 (24953) Note Off ch=5 par1=50 par2=64
Channel Event. t= 7 (24960) Note On ch=5 par1=52 par2=92
Channel Event. t= 192 (25152) Note On ch=5 par1=54 par2=83
Channel Event. t= 17 (25169) Note Off ch=5 par1=52 par2=64
Channel Event. t= 175 (25344) Note On ch=5 par1=55 par2=80
Channel Event. t= 6 (25350) Note Off ch=5 par1=54 par2=64
Channel Event. t= 90 (25440) Note On ch=5 par1=51 par2=85
Channel Event. t= 8 (25448) Note Off ch=5 par1=55 par2=64
Channel Event. t= 88 (25536) Note On ch=5 par1=52 par2=93
Channel Event. t= 12 (25548) Note Off ch=5 par1=51 par2=64
Channel Event. t= 180 (25728) Note On ch=5 par1=74 par2=98
Channel Event. t= 0 (25728) Note On ch=5 par1=79 par2=93
Channel Event. t= 0 (25728) Note On ch=5 par1=71 par2=91
Channel Event. t= 0 (25728) Note On ch=5 par1=59 par2=90
Channel Event. t= 0 (25728) Note On ch=5 par1=55 par2=95
Channel Event. t= 16 (25744) Note Off ch=5 par1=52 par2=64
Channel Event. t= 368 (26112) Note Off ch=5 par1=55 par2=64
Channel Event. t= 0 (26112) Note On ch=5 par1=65 par2=92
Channel Event. t= 8 (26120) Note Off ch=5 par1=59 par2=64
Channel Event. t= 24 (26144) Note Off ch=5 par1=71 par2=64
Channel Event. t= 0 (26144) Note On ch=5 par1=71 par2=94
Channel Event. t= 147 (26291) Note Off ch=5 par1=65 par2=64
Channel Event. t= 13 (26304) Note Off ch=5 par1=74 par2=64
Channel Event. t= 0 (26304) Note On ch=5 par1=80 par2=97
Channel Event. t= 0 (26304) Note On ch=5 par1=75 par2=101
Channel Event. t= 26 (26330) Note Off ch=5 par1=79 par2=64
Channel Event. t= 42 (26372) Note Off ch=5 par1=71 par2=64
Channel Event. t= 32 (26404) Note Off ch=5 par1=75 par2=64
Channel Event. t= 3 (26407) Note Off ch=5 par1=80 par2=64
Channel Event. t= 89 (26496) Note On ch=5 par1=51 par2=98
Channel Event. t= 192 (26688) Note On ch=5 par1=53 par2=87
Channel Event. t= 10 (26698) Note Off ch=5 par1=51 par2=64
Channel Event. t= 170 (26868) Note On ch=5 par1=54 par2=89
Channel Event. t= 29 (26897) Note Off ch=5 par1=53 par2=64
Channel Event. t= 64 (26961) Note On ch=5 par1=50 par2=88
Channel Event. t= 5 (26966) Note Off ch=5 par1=54 par2=64
Channel Event. t= 94 (27060) Note On ch=5 par1=51 par2=93
Channel Event. t= 16 (27076) Note Off ch=5 par1=50 par2=64
Channel Event. t= 138 (27214) Note Off ch=5 par1=51 par2=64
Channel Event. t= 35 (27249) Note On ch=5 par1=66 par2=102
Channel Event. t= 1 (27250) Note On ch=5 par1=70 par2=102
Channel Event. t= 0 (27250) Note On ch=5 par1=73 par2=107
Channel Event. t= 12 (27262) Note On ch=5 par1=54 par2=83
Channel Event. t= 2 (27264) Note On ch=5 par1=78 par2=109
Channel Event. t= 2 (27266) Note On ch=5 par1=58 par2=68
Channel Event. t= 2 (27268) Note On ch=5 par1=56 par2=65
Channel Event. t= 15 (27283) Note Off ch=5 par1=56 par2=64
Channel Event. t= 352 (27635) Note On ch=5 par1=64 par2=91
Channel Event. t= 2 (27637) Note Off ch=5 par1=58 par2=64
Channel Event. t= 17 (27654) Note Off ch=5 par1=54 par2=64
Channel Event. t= 140 (27794) Note Off ch=5 par1=70 par2=64
Channel Event. t= 28 (27822) Note Off ch=5 par1=66 par2=64
Channel Event. t= 5 (27827) Note On ch=5 par1=70 par2=99
Channel Event. t= 2 (27829) Note Off ch=5 par1=73 par2=64
Channel Event. t= 4 (27833) Note Off ch=5 par1=64 par2=64
Channel Event. t= 7 (27840) Note On ch=5 par1=74 par2=96
Channel Event. t= 0 (27840) Note On ch=5 par1=79 par2=87
Channel Event. t= 18 (27858) Note Off ch=5 par1=78 par2=64
Channel Event. t= 117 (27975) Note Off ch=5 par1=74 par2=64
Channel Event. t= 3 (27978) Note Off ch=5 par1=79 par2=64
Channel Event. t= 4 (27982) Note Off ch=5 par1=70 par2=64
Channel Event. t= 38 (28020) Note On ch=5 par1=50 par2=105
Channel Event. t= 192 (28212) Note On ch=5 par1=52 par2=95
Channel Event. t= 13 (28225) Note Off ch=5 par1=50 par2=64
Channel Event. t= 177 (28402) Note On ch=5 par1=53 par2=77
Channel Event. t= 4 (28406) Note Off ch=5 par1=52 par2=64
Channel Event. t= 88 (28494) Note On ch=5 par1=49 par2=91
Channel Event. t= 12 (28506) Note Off ch=5 par1=53 par2=64
Channel Event. t= 86 (28592) Note On ch=5 par1=50 par2=93
Channel Event. t= 12 (28604) Note Off ch=5 par1=49 par2=64
Channel Event. t= 175 (28779) Note Off ch=5 par1=50 par2=64
Channel Event. t= 786 (29565) Note On ch=5 par1=53 par2=97
Channel Event. t= 0 (29565) Note On ch=5 par1=50 par2=102
Channel Event. t= 748 (30313) Note Off ch=5 par1=50 par2=64
Channel Event. t= 1 (30314) Note Off ch=5 par1=53 par2=64
Channel Event. t= 16 (30330) Note On ch=5 par1=53 par2=91
Channel Event. t= 1 (30331) Note On ch=5 par1=50 par2=92
Channel Event. t= 5 (30336) Note On ch=5 par1=65 par2=85
Channel Event. t= 0 (30336) Note On ch=5 par1=62 par2=86
Channel Event. t= 15 (30351) Note On ch=5 par1=57 par2=69
Channel Event. t= 81 (30432) Note On ch=5 par1=64 par2=89
Channel Event. t= 0 (30432) Note On ch=5 par1=61 par2=71
Channel Event. t= 0 (30432) Note On ch=5 par1=58 par2=69
Channel Event. t= 5 (30437) Note Off ch=5 par1=57 par2=64
Channel Event. t= 11 (30448) Note Off ch=5 par1=65 par2=64
Channel Event. t= 3 (30451) Note Off ch=5 par1=62 par2=64
Channel Event. t= 72 (30523) Note On ch=5 par1=57 par2=87
Channel Event. t= 2 (30525) Note Off ch=5 par1=61 par2=64
Channel Event. t= 3 (30528) Note On ch=5 par1=65 par2=64
Channel Event. t= 0 (30528) Note On ch=5 par1=62 par2=75
Channel Event. t= 10 (30538) Note Off ch=5 par1=58 par2=64
Channel Event. t= 10 (30548) Note Off ch=5 par1=64 par2=64
Channel Event. t= 74 (30622) Note On ch=5 par1=58 par2=77
Channel Event. t= 2 (30624) Note On ch=5 par1=64 par2=83
Channel Event. t= 0 (30624) Note On ch=5 par1=61 par2=75
Channel Event. t= 17 (30641) Note Off ch=5 par1=62 par2=64
Channel Event. t= 4 (30645) Note Off ch=5 par1=57 par2=64
Channel Event. t= 3 (30648) Note Off ch=5 par1=65 par2=64
Channel Event. t= 72 (30720) Note On ch=5 par1=62 par2=80
Channel Event. t= 0 (30720) Note On ch=5 par1=65 par2=77
Channel Event. t= 1 (30721) Note On ch=5 par1=57 par2=84
Channel Event. t= 1 (30722) Note Off ch=5 par1=61 par2=64
Channel Event. t= 16 (30738) Note Off ch=5 par1=58 par2=64
Channel Event. t= 3 (30741) Note Off ch=5 par1=64 par2=64
Channel Event. t= 81 (30822) Note Off ch=5 par1=62 par2=64
Channel Event. t= 16 (30838) Note Off ch=5 par1=65 par2=64
Channel Event. t= 38 (30876) Note Off ch=5 par1=57 par2=64
Channel Event. t= 36 (30912) Note On ch=5 par1=65 par2=89
Channel Event. t= 0 (30912) Note On ch=5 par1=62 par2=93
Channel Event. t= 7 (30919) Note On ch=5 par1=57 par2=103
Channel Event. t= 123 (31042) Note Off ch=5 par1=65 par2=64
Channel Event. t= 23 (31065) Note Off ch=5 par1=62 par2=64
Channel Event. t= 8 (31073) Note Off ch=5 par1=50 par2=64
Channel Event. t= 2 (31075) Note Off ch=5 par1=53 par2=64
Channel Event. t= 28 (31103) Note Off ch=5 par1=57 par2=64
Channel Event. t= 1 (31104) Note On ch=5 par1=69 par2=89
Channel Event. t= 0 (31104) Note On ch=5 par1=65 par2=89
Channel Event. t= 1 (31105) Note On ch=5 par1=53 par2=99
Channel Event. t= 1 (31106) Note On ch=5 par1=50 par2=99
Channel Event. t= 6 (31112) Note On ch=5 par1=62 par2=100
Channel Event. t= 184 (31296) Note On ch=5 par1=64 par2=83
Channel Event. t= 0 (31296) Note On ch=5 par1=68 par2=84
Channel Event. t= 6 (31302) Note Off ch=5 par1=69 par2=64
Channel Event. t= 4 (31306) Note On ch=5 par1=58 par2=97
Channel Event. t= 22 (31328) Note Off ch=5 par1=62 par2=64
Channel Event. t= 10 (31338) Note Off ch=5 par1=65 par2=64
Channel Event. t= 133 (31471) Note Off ch=5 par1=68 par2=64
Channel Event. t= 17 (31488) Note On ch=5 par1=69 par2=83
Channel Event. t= 0 (31488) Note On ch=5 par1=65 par2=83
Channel Event. t= 2 (31490) Note Off ch=5 par1=58 par2=64
Channel Event. t= 11 (31501) Note On ch=5 par1=62 par2=104
Channel Event. t= 3 (31504) Note Off ch=5 par1=64 par2=64
Channel Event. t= 146 (31650) Note Off ch=5 par1=65 par2=64
Channel Event. t= 16 (31666) Note Off ch=5 par1=69 par2=64
Channel Event. t= 14 (31680) Note On ch=5 par1=65 par2=90
Channel Event. t= 3 (31683) Note On ch=5 par1=57 par2=103
Channel Event. t= 6 (31689) Note Off ch=5 par1=62 par2=64
Channel Event. t= 142 (31831) Note Off ch=5 par1=50 par2=64
Channel Event. t= 0 (31831) Note Off ch=5 par1=53 par2=64
Channel Event. t= 24 (31855) Note Off ch=5 par1=57 par2=64
Channel Event. t= 6 (31861) Note On ch=5 par1=53 par2=85
Channel Event. t= 0 (31861) Note On ch=5 par1=50 par2=86
Channel Event. t= 11 (31872) Note On ch=5 par1=62 par2=90
Channel Event. t= 0 (31872) Note On ch=5 par1=67 par2=102
Channel Event. t= 0 (31872) Note On ch=5 par1=59 par2=104
Channel Event. t= 2 (31874) Note Off ch=5 par1=65 par2=64
Channel Event. t= 751 (32625) Note Off ch=5 par1=67 par2=64
Channel Event. t= 0 (32625) Note Off ch=5 par1=62 par2=64
Channel Event. t= 10 (32635) Note On ch=5 par1=43 par2=92
Channel Event. t= 7 (32642) Note Off ch=5 par1=50 par2=64
Channel Event. t= 1 (32643) Note Off ch=5 par1=53 par2=64
Channel Event. t= 3 (32646) Note On ch=5 par1=60 par2=95
Channel Event. t= 7 (32653) Note On ch=5 par1=48 par2=95
Channel Event. t= 14 (32667) Note Off ch=5 par1=59 par2=64
Channel Event. t= 555 (33222) Note On ch=5 par1=38 par2=78
Channel Event. t= 9 (33231) Note Off ch=5 par1=43 par2=64
Channel Event. t= 185 (33416) Note Off ch=5 par1=60 par2=64
Channel Event. t= 14 (33430) Note Off ch=5 par1=38 par2=64
Channel Event. t= 3 (33433) Note On ch=5 par1=60 par2=100
Channel Event. t= 227 (33660) Note Off ch=5 par1=60 par2=64
Channel Event. t= 5 (33665) Note Off ch=5 par1=48 par2=64
Channel Event. t= 696 (34361) Controller ch=5 par1=7 (Main Volume) par2=80
Channel Event. t= 768 (35129) Note On ch=5 par1=56 par2=70
Channel Event. t= 0 (35129) Note On ch=5 par1=53 par2=67
Channel Event. t= 1 (35130) Note On ch=5 par1=61 par2=73
Channel Event. t= 144 (35274) Note Off ch=5 par1=53 par2=64
Channel Event. t= 4 (35278) Note Off ch=5 par1=56 par2=64
Channel Event. t= 2 (35280) Note Off ch=5 par1=61 par2=64
Channel Event. t= 225 (35505) Note On ch=5 par1=64 par2=57
Channel Event. t= 2 (35507) Note On ch=5 par1=60 par2=57
Channel Event. t= 0 (35507) Note On ch=5 par1=55 par2=52
Channel Event. t= 159 (35666) Note Off ch=5 par1=64 par2=64
Channel Event. t= 0 (35666) Note Off ch=5 par1=60 par2=64
Channel Event. t= 2 (35668) Note Off ch=5 par1=55 par2=64
Channel Event. t= 221 (35889) Note On ch=5 par1=61 par2=65
Channel Event. t= 2 (35891) Note On ch=5 par1=53 par2=50
Channel Event. t= 1 (35892) Note On ch=5 par1=56 par2=54
Channel Event. t= 139 (36031) Note Off ch=5 par1=53 par2=64
Channel Event. t= 6 (36037) Note Off ch=5 par1=56 par2=64
Channel Event. t= 6 (36043) Note Off ch=5 par1=61 par2=64
Channel Event. t= 232 (36275) Note On ch=5 par1=64 par2=58
Channel Event. t= 3 (36278) Note On ch=5 par1=60 par2=56
Channel Event. t= 0 (36278) Note On ch=5 par1=55 par2=53
Channel Event. t= 152 (36430) Note Off ch=5 par1=55 par2=64
Channel Event. t= 1 (36431) Note Off ch=5 par1=60 par2=64
Channel Event. t= 2 (36433) Note Off ch=5 par1=64 par2=64
Channel Event. t= 228 (36661) Note On ch=5 par1=53 par2=56
Channel Event. t= 2 (36663) Note On ch=5 par1=61 par2=66
Channel Event. t= 1 (36664) Note On ch=5 par1=56 par2=63
Channel Event. t= 133 (36797) Note Off ch=5 par1=53 par2=64
Channel Event. t= 6 (36803) Note Off ch=5 par1=56 par2=64
Channel Event. t= 8 (36811) Note Off ch=5 par1=61 par2=64
Channel Event. t= 226 (37037) Note On ch=5 par1=55 par2=51
Channel Event. t= 1 (37038) Note On ch=5 par1=64 par2=50
Channel Event. t= 1 (37039) Note On ch=5 par1=60 par2=56
Channel Event. t= 168 (37207) Note Off ch=5 par1=64 par2=64
Channel Event. t= 1 (37208) Note Off ch=5 par1=60 par2=64
Channel Event. t= 7 (37215) Note Off ch=5 par1=55 par2=64
Channel Event. t= 216 (37431) Note On ch=5 par1=56 par2=55
Channel Event. t= 0 (37431) Note On ch=5 par1=53 par2=55
Channel Event. t= 2 (37433) Note On ch=5 par1=49 par2=56
Channel Event. t= 160 (37593) Note Off ch=5 par1=49 par2=64
Channel Event. t= 1 (37594) Note Off ch=5 par1=53 par2=64
Channel Event. t= 5 (37599) Note Off ch=5 par1=56 par2=64
Channel Event. t= 201 (37800) Note On ch=5 par1=72 par2=99
Channel Event. t= 17 (37817) Note On ch=5 par1=48 par2=54
Channel Event. t= 2 (37819) Note On ch=5 par1=52 par2=63
Channel Event. t= 0 (37819) Note On ch=5 par1=55 par2=57
Channel Event. t= 5 (37824) Note On ch=5 par1=60 par2=93
Channel Event. t= 110 (37934) Note Off ch=5 par1=55 par2=64
Channel Event. t= 3 (37937) Note Off ch=5 par1=52 par2=64
Channel Event. t= 6 (37943) Note Off ch=5 par1=48 par2=64
Channel Event. t= 73 (38016) Note Off ch=5 par1=72 par2=64
Channel Event. t= 0 (38016) Note On ch=5 par1=73 par2=103
Channel Event. t= 0 (38016) Note On ch=5 par1=61 par2=100
Channel Event. t= 18 (38034) Note Off ch=5 par1=60 par2=64
Channel Event. t= 95 (38129) Note Off ch=5 par1=73 par2=64
Channel Event. t= 26 (38155) Note Off ch=5 par1=61 par2=64
Channel Event. t= 43 (38198) Note On ch=5 par1=53 par2=61
Channel Event. t= 2 (38200) Note On ch=5 par1=49 par2=69
Channel Event. t= 1 (38201) Note On ch=5 par1=44 par2=53
Channel Event. t= 7 (38208) Note On ch=5 par1=75 par2=101
Channel Event. t= 0 (38208) Note On ch=5 par1=63 par2=99
Channel Event. t= 104 (38312) Note Off ch=5 par1=75 par2=64
Channel Event. t= 19 (38331) Note Off ch=5 par1=63 par2=64
Channel Event. t= 13 (38344) Note Off ch=5 par1=44 par2=64
Channel Event. t= 14 (38358) Note Off ch=5 par1=49 par2=64
Channel Event. t= 10 (38368) Note Off ch=5 par1=53 par2=64
Channel Event. t= 32 (38400) Note On ch=5 par1=76 par2=110
Channel Event. t= 0 (38400) Note On ch=5 par1=64 par2=96
Channel Event. t= 101 (38501) Note Off ch=5 par1=76 par2=64
Channel Event. t= 20 (38521) Note Off ch=5 par1=64 par2=64
Channel Event. t= 60 (38581) Note On ch=5 par1=55 par2=53
Channel Event. t= 2 (38583) Note On ch=5 par1=48 par2=56
Channel Event. t= 1 (38584) Note On ch=5 par1=52 par2=61
Channel Event. t= 8 (38592) Note On ch=5 par1=72 par2=91
Channel Event. t= 0 (38592) Note On ch=5 par1=60 par2=97
Channel Event. t= 131 (38723) Note Off ch=5 par1=52 par2=64
Channel Event. t= 5 (38728) Note Off ch=5 par1=48 par2=64
Channel Event. t= 5 (38733) Note Off ch=5 par1=55 par2=64
Channel Event. t= 51 (38784) Note On ch=5 par1=73 par2=85
Channel Event. t= 0 (38784) Note On ch=5 par1=61 par2=100
Channel Event. t= 19 (38803) Note Off ch=5 par1=72 par2=64
Channel Event. t= 0 (38803) Note Off ch=5 par1=60 par2=64
Channel Event. t= 91 (38894) Note Off ch=5 par1=73 par2=64
Channel Event. t= 38 (38932) Note Off ch=5 par1=61 par2=64
Channel Event. t= 34 (38966) Note On ch=5 par1=53 par2=66
Channel Event. t= 2 (38968) Note On ch=5 par1=49 par2=73
Channel Event. t= 1 (38969) Note On ch=5 par1=44 par2=61
Channel Event. t= 7 (38976) Note On ch=5 par1=75 par2=110
Channel Event. t= 0 (38976) Note On ch=5 par1=63 par2=101
Channel Event. t= 99 (39075) Note Off ch=5 par1=44 par2=64
Channel Event. t= 15 (39090) Note Off ch=5 par1=75 par2=64
Channel Event. t= 2 (39092) Note Off ch=5 par1=49 par2=64
Channel Event. t= 1 (39093) Note Off ch=5 par1=63 par2=64
Channel Event. t= 9 (39102) Note Off ch=5 par1=53 par2=64
Channel Event. t= 66 (39168) Note On ch=5 par1=76 par2=98
Channel Event. t= 0 (39168) Note On ch=5 par1=64 par2=102
Channel Event. t= 108 (39276) Note Off ch=5 par1=76 par2=64
Channel Event. t= 23 (39299) Note Off ch=5 par1=64 par2=64
Channel Event. t= 46 (39345) Note On ch=5 par1=55 par2=61
Channel Event. t= 2 (39347) Note On ch=5 par1=48 par2=59
Channel Event. t= 2 (39349) Note On ch=5 par1=52 par2=63
Channel Event. t= 11 (39360) Note On ch=5 par1=72 par2=90
Channel Event. t= 0 (39360) Note On ch=5 par1=60 par2=99
Channel Event. t= 101 (39461) Note Off ch=5 par1=48 par2=64
Channel Event. t= 8 (39469) Note Off ch=5 par1=52 par2=64
Channel Event. t= 13 (39482) Note Off ch=5 par1=55 par2=64
Channel Event. t= 70 (39552) Note On ch=5 par1=73 par2=92
Channel Event. t= 0 (39552) Note On ch=5 par1=61 par2=99
Channel Event. t= 7 (39559) Note Off ch=5 par1=72 par2=64
Channel Event. t= 10 (39569) Note Off ch=5 par1=60 par2=64
Channel Event. t= 79 (39648) Note On ch=5 par1=76 par2=66
Channel Event. t= 0 (39648) Note On ch=5 par1=64 par2=86
Channel Event. t= 3 (39651) Note Off ch=5 par1=61 par2=64
Channel Event. t= 2 (39653) Note Off ch=5 par1=73 par2=64
Channel Event. t= 75 (39728) Note On ch=5 par1=61 par2=69
Channel Event. t= 1 (39729) Note On ch=5 par1=53 par2=53
Channel Event. t= 1 (39730) Note On ch=5 par1=56 par2=64
Channel Event. t= 14 (39744) Note On ch=5 par1=77 par2=86
Channel Event. t= 0 (39744) Note On ch=5 par1=65 par2=94
Channel Event. t= 16 (39760) Note Off ch=5 par1=76 par2=64
Channel Event. t= 7 (39767) Note Off ch=5 par1=64 par2=64
Channel Event. t= 73 (39840) Note On ch=5 par1=80 par2=87
Channel Event. t= 0 (39840) Note On ch=5 par1=68 par2=94
Channel Event. t= 9 (39849) Note Off ch=5 par1=77 par2=64
Channel Event. t= 5 (39854) Note Off ch=5 par1=65 par2=64
Channel Event. t= 12 (39866) Note Off ch=5 par1=53 par2=64
Channel Event. t= 5 (39871) Note Off ch=5 par1=56 par2=64
Channel Event. t= 7 (39878) Note Off ch=5 par1=61 par2=64
Channel Event. t= 53 (39931) Note Off ch=5 par1=68 par2=64
Channel Event. t= 5 (39936) Note On ch=5 par1=84 par2=79
Channel Event. t= 0 (39936) Note On ch=5 par1=72 par2=95
Channel Event. t= 4 (39940) Note Off ch=5 par1=80 par2=64
Channel Event. t= 152 (40092) Note Off ch=5 par1=84 par2=64
Channel Event. t= 21 (40113) Note Off ch=5 par1=72 par2=64
Channel Event. t= 7 (40120) Note On ch=5 par1=55 par2=58
Channel Event. t= 1 (40121) Note On ch=5 par1=64 par2=61
Channel Event. t= 1 (40122) Note On ch=5 par1=60 par2=58
Channel Event. t= 6 (40128) Note On ch=5 par1=83 par2=98
Channel Event. t= 0 (40128) Note On ch=5 par1=71 par2=99
Channel Event. t= 96 (40224) Note On ch=5 par1=84 par2=86
Channel Event. t= 0 (40224) Note On ch=5 par1=72 par2=93
Channel Event. t= 13 (40237) Note Off ch=5 par1=83 par2=64
Channel Event. t= 1 (40238) Note Off ch=5 par1=71 par2=64
Channel Event. t= 28 (40266) Note Off ch=5 par1=60 par2=64
Channel Event. t= 2 (40268) Note Off ch=5 par1=64 par2=64
Channel Event. t= 4 (40272) Note Off ch=5 par1=55 par2=64
Channel Event. t= 48 (40320) Note On ch=5 par1=85 par2=99
Channel Event. t= 0 (40320) Note On ch=5 par1=73 par2=103
Channel Event. t= 22 (40342) Note Off ch=5 par1=72 par2=64
Channel Event. t= 11 (40353) Note Off ch=5 par1=84 par2=64
Channel Event. t= 74 (40427) Note Off ch=5 par1=85 par2=64
Channel Event. t= 26 (40453) Note Off ch=5 par1=73 par2=64
Channel Event. t= 48 (40501) Note On ch=5 par1=61 par2=71
Channel Event. t= 3 (40504) Note On ch=5 par1=56 par2=66
Channel Event. t= 0 (40504) Note On ch=5 par1=53 par2=58
Channel Event. t= 8 (40512) Note On ch=5 par1=89 par2=95
Channel Event. t= 0 (40512) Note On ch=5 par1=77 par2=97
Channel Event. t= 84 (40596) Note Off ch=5 par1=89 par2=64
Channel Event. t= 40 (40636) Note Off ch=5 par1=53 par2=64
Channel Event. t= 1 (40637) Note Off ch=5 par1=77 par2=64
Channel Event. t= 4 (40641) Note Off ch=5 par1=56 par2=64
Channel Event. t= 7 (40648) Note Off ch=5 par1=61 par2=64
Channel Event. t= 56 (40704) Note On ch=5 par1=88 par2=105
Channel Event. t= 0 (40704) Note On ch=5 par1=76 par2=103
Channel Event. t= 186 (40890) Note On ch=5 par1=55 par2=58
Channel Event. t= 0 (40890) Note On ch=5 par1=64 par2=58
Channel Event. t= 1 (40891) Note On ch=5 par1=60 par2=60
Channel Event. t= 137 (41028) Note Off ch=5 par1=88 par2=64
Channel Event. t= 4 (41032) Note Off ch=5 par1=60 par2=64
Channel Event. t= 3 (41035) Note Off ch=5 par1=64 par2=64
Channel Event. t= 2 (41037) Note Off ch=5 par1=55 par2=64
Channel Event. t= 28 (41065) Note Off ch=5 par1=76 par2=64
Channel Event. t= 23 (41088) Note On ch=5 par1=85 par2=93
Channel Event. t= 0 (41088) Note On ch=5 par1=73 par2=107
Channel Event. t= 112 (41200) Note Off ch=5 par1=85 par2=64
Channel Event. t= 25 (41225) Note Off ch=5 par1=73 par2=64
Channel Event. t= 45 (41270) Note On ch=5 par1=53 par2=66
Channel Event. t= 0 (41270) Note On ch=5 par1=61 par2=76
Channel Event. t= 1 (41271) Note On ch=5 par1=56 par2=72
Channel Event. t= 9 (41280) Note On ch=5 par1=89 par2=96
Channel Event. t= 0 (41280) Note On ch=5 par1=77 par2=102
Channel Event. t= 128 (41408) Note Off ch=5 par1=53 par2=64
Channel Event. t= 0 (41408) Note Off ch=5 par1=89 par2=64
Channel Event. t= 3 (41411) Note Off ch=5 par1=56 par2=64
Channel Event. t= 10 (41421) Note Off ch=5 par1=61 par2=64
Channel Event. t= 18 (41439) Note Off ch=5 par1=77 par2=64
Channel Event. t= 33 (41472) Note On ch=5 par1=88 par2=94
Channel Event. t= 0 (41472) Note On ch=5 par1=76 par2=102
Channel Event. t= 73 (41545) Note Off ch=5 par1=76 par2=64
Channel Event. t= 10 (41555) Note Off ch=5 par1=88 par2=64
Channel Event. t= 2 (41557) Note On ch=5 par1=77 par2=91
Channel Event. t= 11 (41568) Note On ch=5 par1=89 par2=90
Channel Event. t= 0 (41568) Note On ch=5 par1=76 par2=77
Channel Event. t= 24 (41592) Note On ch=5 par1=88 par2=81
Channel Event. t= 21 (41613) Note Off ch=5 par1=77 par2=64
Channel Event. t= 2 (41615) Note Off ch=5 par1=89 par2=64
Channel Event. t= 37 (41652) Note On ch=5 par1=64 par2=56
Channel Event. t= 0 (41652) Note On ch=5 par1=55 par2=57
Channel Event. t= 2 (41654) Note On ch=5 par1=60 par2=63
Channel Event. t= 10 (41664) Note On ch=5 par1=84 par2=88
Channel Event. t= 0 (41664) Note On ch=5 par1=72 par2=81
Channel Event. t= 10 (41674) Note Off ch=5 par1=76 par2=64
Channel Event. t= 3 (41677) Note Off ch=5 par1=88 par2=64
Channel Event. t= 73 (41750) Note Off ch=5 par1=84 par2=64
Channel Event. t= 2 (41752) Note Off ch=5 par1=72 par2=64
Channel Event. t= 8 (41760) Note On ch=5 par1=79 par2=74
Channel Event. t= 0 (41760) Note On ch=5 par1=67 par2=89
Channel Event. t= 21 (41781) Note Off ch=5 par1=60 par2=64
Channel Event. t= 3 (41784) Note Off ch=5 par1=64 par2=64
Channel Event. t= 4 (41788) Note Off ch=5 par1=55 par2=64
Channel Event. t= 68 (41856) Note Off ch=5 par1=79 par2=64
Channel Event. t= 0 (41856) Note On ch=5 par1=80 par2=64
Channel Event. t= 0 (41856) Note On ch=5 par1=68 par2=90
Channel Event. t= 5 (41861) Note Off ch=5 par1=67 par2=64
Channel Event. t= 91 (41952) Note Off ch=5 par1=80 par2=64
Channel Event. t= 25 (41977) Note Off ch=5 par1=68 par2=64
Channel Event. t= 55 (42032) Note On ch=5 par1=61 par2=71
Channel Event. t= 0 (42032) Note On ch=5 par1=53 par2=61
Channel Event. t= 2 (42034) Note On ch=5 par1=56 par2=59
Channel Event. t= 14 (42048) Note On ch=5 par1=85 par2=97
Channel Event. t= 0 (42048) Note On ch=5 par1=73 par2=102
Channel Event. t= 137 (42185) Note Off ch=5 par1=61 par2=64
Channel Event. t= 2 (42187) Note Off ch=5 par1=56 par2=64
Channel Event. t= 2 (42189) Note Off ch=5 par1=53 par2=64
Channel Event. t= 4 (42193) Note Off ch=5 par1=85 par2=64
Channel Event. t= 2 (42195) Note Off ch=5 par1=73 par2=64
Channel Event. t= 45 (42240) Note On ch=5 par1=84 par2=98
Channel Event. t= 0 (42240) Note On ch=5 par1=72 par2=98
Channel Event. t= 72 (42312) Note On ch=5 par1=85 par2=81
Channel Event. t= 9 (42321) Note Off ch=5 par1=72 par2=64
Channel Event. t= 0 (42321) Note On ch=5 par1=73 par2=94
Channel Event. t= 4 (42325) Note Off ch=5 par1=84 par2=64
Channel Event. t= 11 (42336) Note On ch=5 par1=72 par2=61
Channel Event. t= 24 (42360) Note On ch=5 par1=84 par2=74
Channel Event. t= 3 (42363) Note Off ch=5 par1=85 par2=64
Channel Event. t= 12 (42375) Note Off ch=5 par1=73 par2=64
Channel Event. t= 46 (42421) Note On ch=5 par1=55 par2=54
Channel Event. t= 0 (42421) Note On ch=5 par1=60 par2=58
Channel Event. t= 3 (42424) Note On ch=5 par1=52 par2=61
Channel Event. t= 7 (42431) Note Off ch=5 par1=84 par2=64
Channel Event. t= 1 (42432) Note Off ch=5 par1=72 par2=64
Channel Event. t= 0 (42432) Note On ch=5 par1=79 par2=87
Channel Event. t= 0 (42432) Note On ch=5 par1=67 par2=85
Channel Event. t= 83 (42515) Note Off ch=5 par1=67 par2=64
Channel Event. t= 9 (42524) Note Off ch=5 par1=79 par2=64
Channel Event. t= 4 (42528) Note On ch=5 par1=76 par2=86
Channel Event. t= 0 (42528) Note On ch=5 par1=64 par2=93
Channel Event. t= 51 (42579) Note Off ch=5 par1=52 par2=64
Channel Event. t= 5 (42584) Note Off ch=5 par1=55 par2=64
Channel Event. t= 15 (42599) Note Off ch=5 par1=60 par2=64
Channel Event. t= 6 (42605) Note Off ch=5 par1=76 par2=64
Channel Event. t= 10 (42615) Note Off ch=5 par1=64 par2=64
Channel Event. t= 9 (42624) Note On ch=5 par1=77 par2=94
Channel Event. t= 0 (42624) Note On ch=5 par1=65 par2=103
Channel Event. t= 121 (42745) Note Off ch=5 par1=77 par2=64
Channel Event. t= 22 (42767) Note Off ch=5 par1=65 par2=64
Channel Event. t= 35 (42802) Note On ch=5 par1=56 par2=66
Channel Event. t= 0 (42802) Note On ch=5 par1=61 par2=74
Channel Event. t= 0 (42802) Note On ch=5 par1=53 par2=59
Channel Event. t= 14 (42816) Note On ch=5 par1=80 par2=96
Channel Event. t= 0 (42816) Note On ch=5 par1=68 par2=103
Channel Event. t= 124 (42940) Note Off ch=5 par1=56 par2=64
Channel Event. t= 2 (42942) Note Off ch=5 par1=61 par2=64
Channel Event. t= 1 (42943) Note Off ch=5 par1=53 par2=64
Channel Event. t= 13 (42956) Note Off ch=5 par1=80 par2=64
Channel Event. t= 12 (42968) Note Off ch=5 par1=68 par2=64
Channel Event. t= 40 (43008) Note On ch=5 par1=79 par2=90
Channel Event. t= 0 (43008) Note On ch=5 par1=67 par2=94
Channel Event. t= 151 (43159) Note Off ch=5 par1=79 par2=64
Channel Event. t= 25 (43184) Note On ch=5 par1=60 par2=63
Channel Event. t= 1 (43185) Note Off ch=5 par1=67 par2=64
Channel Event. t= 0 (43185) Note On ch=5 par1=55 par2=64
Channel Event. t= 2 (43187) Note On ch=5 par1=52 par2=63
Channel Event. t= 13 (43200) Note On ch=5 par1=75 par2=103
Channel Event. t= 0 (43200) Note On ch=5 par1=63 par2=99
Channel Event. t= 48 (43248) Note On ch=5 par1=64 par2=89
Channel Event. t= 44 (43292) Note Off ch=5 par1=63 par2=64
Channel Event. t= 2 (43294) Note Off ch=5 par1=75 par2=64
Channel Event. t= 2 (43296) Note On ch=5 par1=76 par2=82
Channel Event. t= 29 (43325) Note Off ch=5 par1=52 par2=64
Channel Event. t= 6 (43331) Note Off ch=5 par1=55 par2=64
Channel Event. t= 13 (43344) Note Off ch=5 par1=60 par2=64
Channel Event. t= 10 (43354) Note Off ch=5 par1=64 par2=64
Channel Event. t= 38 (43392) Note On ch=5 par1=77 par2=94
Channel Event. t= 0 (43392) Note On ch=5 par1=65 par2=98
Channel Event. t= 6 (43398) Note Off ch=5 par1=76 par2=64
Channel Event. t= 108 (43506) Note Off ch=5 par1=77 par2=64
Channel Event. t= 13 (43519) Note Off ch=5 par1=65 par2=64
Channel Event. t= 60 (43579) Note On ch=5 par1=61 par2=72
Channel Event. t= 0 (43579) Note On ch=5 par1=56 par2=63
Channel Event. t= 1 (43580) Note On ch=5 par1=53 par2=59
Channel Event. t= 4 (43584) Note On ch=5 par1=80 par2=95
Channel Event. t= 0 (43584) Note On ch=5 par1=68 par2=95
Channel Event. t= 127 (43711) Note Off ch=5 par1=80 par2=64
Channel Event. t= 15 (43726) Note Off ch=5 par1=68 par2=64
Channel Event. t= 25 (43751) Note Off ch=5 par1=56 par2=64
Channel Event. t= 2 (43753) Note Off ch=5 par1=53 par2=64
Channel Event. t= 2 (43755) Note Off ch=5 par1=61 par2=64
Channel Event. t= 21 (43776) Note On ch=5 par1=79 par2=104
Channel Event. t= 0 (43776) Note On ch=5 par1=67 par2=105
Channel Event. t= 158 (43934) Note Off ch=5 par1=79 par2=64
Channel Event. t= 19 (43953) Note Off ch=5 par1=67 par2=64
Channel Event. t= 10 (43963) Note On ch=5 par1=60 par2=59
Channel Event. t= 3 (43966) Note On ch=5 par1=55 par2=56
Channel Event. t= 0 (43966) Note On ch=5 par1=52 par2=53
Channel Event. t= 2 (43968) Note On ch=5 par1=75 par2=83
Channel Event. t= 0 (43968) Note On ch=5 par1=63 par2=101
Channel Event. t= 89 (44057) Note Off ch=5 par1=63 par2=64
Channel Event. t= 7 (44064) Note On ch=5 par1=76 par2=75
Channel Event. t= 0 (44064) Note On ch=5 par1=64 par2=79
Channel Event. t= 5 (44069) Note Off ch=5 par1=75 par2=64
Channel Event. t= 51 (44120) Note Off ch=5 par1=52 par2=64
Channel Event. t= 4 (44124) Note Off ch=5 par1=55 par2=64
Channel Event. t= 13 (44137) Note Off ch=5 par1=60 par2=64
Channel Event. t= 10 (44147) Note Off ch=5 par1=76 par2=64
Channel Event. t= 13 (44160) Note On ch=5 par1=77 par2=92
Channel Event. t= 0 (44160) Note On ch=5 par1=65 par2=98
Channel Event. t= 16 (44176) Note Off ch=5 par1=64 par2=64
Channel Event. t= 99 (44275) Note Off ch=5 par1=65 par2=64
Channel Event. t= 6 (44281) Note Off ch=5 par1=77 par2=64
Channel Event. t= 61 (44342) Note On ch=5 par1=53 par2=65
Channel Event. t= 1 (44343) Note On ch=5 par1=61 par2=71
Channel Event. t= 1 (44344) Note On ch=5 par1=56 par2=63
Channel Event. t= 8 (44352) Note On ch=5 par1=80 par2=89
Channel Event. t= 0 (44352) Note On ch=5 par1=68 par2=98
Channel Event. t= 103 (44455) Note Off ch=5 par1=80 par2=64
Channel Event. t= 14 (44469) Note Off ch=5 par1=68 par2=64
Channel Event. t= 18 (44487) Note Off ch=5 par1=53 par2=64
Channel Event. t= 9 (44496) Note Off ch=5 par1=56 par2=64
Channel Event. t= 1 (44497) Note Off ch=5 par1=61 par2=64
Channel Event. t= 47 (44544) Note On ch=5 par1=79 par2=110
Channel Event. t= 0 (44544) Note On ch=5 par1=67 par2=99
Channel Event. t= 183 (44727) Note On ch=5 par1=62 par2=66
Channel Event. t= 1 (44728) Note On ch=5 par1=55 par2=64
Channel Event. t= 3 (44731) Note On ch=5 par1=59 par2=69
Channel Event. t= 145 (44876) Note Off ch=5 par1=59 par2=64
Channel Event. t= 1 (44877) Note Off ch=5 par1=55 par2=64
Channel Event. t= 8 (44885) Note Off ch=5 par1=67 par2=64
Channel Event. t= 1 (44886) Note Off ch=5 par1=62 par2=64
Channel Event. t= 9 (44895) Note Off ch=5 par1=79 par2=64
Channel Event. t= 33 (44928) Note On ch=5 par1=72 par2=99
Channel Event. t= 0 (44928) Note On ch=5 par1=60 par2=102
Channel Event. t= 800 (45728) Note Off ch=5 par1=60 par2=64
Channel Event. t= 14 (45742) Note Off ch=5 par1=72 par2=64
Channel Event. t= 3218 (48960) Note On ch=5 par1=85 par2=81
Channel Event. t= 0 (48960) Note On ch=5 par1=77 par2=60
Channel Event. t= 0 (48960) Note On ch=5 par1=80 par2=70
Channel Event. t= 0 (48960) Note On ch=5 par1=73 par2=63
Channel Event. t= 0 (48960) Note On ch=5 par1=65 par2=40
Channel Event. t= 0 (48960) Note On ch=5 par1=68 par2=53
Channel Event. t= 100 (49060) Note Off ch=5 par1=68 par2=64
Channel Event. t= 1 (49061) Note Off ch=5 par1=65 par2=64
Channel Event. t= 7 (49068) Note Off ch=5 par1=73 par2=64
Channel Event. t= 45 (49113) Note Off ch=5 par1=77 par2=64
Channel Event. t= 5 (49118) Note Off ch=5 par1=80 par2=64
Channel Event. t= 6 (49124) Note Off ch=5 par1=85 par2=64
Channel Event. t= 220 (49344) Note On ch=5 par1=88 par2=72
Channel Event. t= 0 (49344) Note On ch=5 par1=79 par2=56
Channel Event. t= 0 (49344) Note On ch=5 par1=84 par2=66
Channel Event. t= 0 (49344) Note On ch=5 par1=67 par2=50
Channel Event. t= 0 (49344) Note On ch=5 par1=76 par2=61
Channel Event. t= 0 (49344) Note On ch=5 par1=72 par2=56
Channel Event. t= 127 (49471) Note Off ch=5 par1=76 par2=64
Channel Event. t= 2 (49473) Note Off ch=5 par1=72 par2=64
Channel Event. t= 6 (49479) Note Off ch=5 par1=67 par2=64
Channel Event. t= 30 (49509) Note Off ch=5 par1=84 par2=64
Channel Event. t= 3 (49512) Note Off ch=5 par1=88 par2=64
Channel Event. t= 0 (49512) Note Off ch=5 par1=79 par2=64
Channel Event. t= 216 (49728) Note On ch=5 par1=85 par2=70
Channel Event. t= 0 (49728) Note On ch=5 par1=80 par2=64
Channel Event. t= 0 (49728) Note On ch=5 par1=77 par2=52
Channel Event. t= 0 (49728) Note On ch=5 par1=73 par2=73
Channel Event. t= 0 (49728) Note On ch=5 par1=65 par2=56
Channel Event. t= 0 (49728) Note On ch=5 par1=68 par2=63
Channel Event. t= 128 (49856) Note Off ch=5 par1=68 par2=64
Channel Event. t= 4 (49860) Note Off ch=5 par1=65 par2=64
Channel Event. t= 9 (49869) Note Off ch=5 par1=73 par2=64
Channel Event. t= 33 (49902) Note Off ch=5 par1=77 par2=64
Channel Event. t= 3 (49905) Note Off ch=5 par1=80 par2=64
Channel Event. t= 2 (49907) Note Off ch=5 par1=85 par2=64
Channel Event. t= 205 (50112) Note On ch=5 par1=88 par2=62
Channel Event. t= 0 (50112) Note On ch=5 par1=84 par2=63
Channel Event. t= 0 (50112) Note On ch=5 par1=79 par2=49
Channel Event. t= 0 (50112) Note On ch=5 par1=76 par2=61
Channel Event. t= 0 (50112) Note On ch=5 par1=67 par2=45
Channel Event. t= 0 (50112) Note On ch=5 par1=72 par2=59
Channel Event. t= 137 (50249) Note Off ch=5 par1=67 par2=64
Channel Event. t= 2 (50251) Note Off ch=5 par1=72 par2=64
Channel Event. t= 2 (50253) Note Off ch=5 par1=76 par2=64
Channel Event. t= 44 (50297) Note Off ch=5 par1=84 par2=64
Channel Event. t= 2 (50299) Note Off ch=5 par1=88 par2=64
Channel Event. t= 2 (50301) Note Off ch=5 par1=79 par2=64
Channel Event. t= 195 (50496) Note On ch=5 par1=85 par2=75
Channel Event. t= 0 (50496) Note On ch=5 par1=80 par2=65
Channel Event. t= 0 (50496) Note On ch=5 par1=77 par2=55
Channel Event. t= 0 (50496) Note On ch=5 par1=73 par2=75
Channel Event. t= 0 (50496) Note On ch=5 par1=68 par2=67
Channel Event. t= 0 (50496) Note On ch=5 par1=65 par2=53
Channel Event. t= 135 (50631) Note Off ch=5 par1=68 par2=64
Channel Event. t= 1 (50632) Note Off ch=5 par1=65 par2=64
Channel Event. t= 4 (50636) Note Off ch=5 par1=73 par2=64
Channel Event. t= 50 (50686) Note Off ch=5 par1=80 par2=64
Channel Event. t= 1 (50687) Note Off ch=5 par1=85 par2=64
Channel Event. t= 0 (50687) Note Off ch=5 par1=77 par2=64
Channel Event. t= 193 (50880) Note On ch=5 par1=79 par2=53
Channel Event. t= 0 (50880) Note On ch=5 par1=88 par2=63
Channel Event. t= 0 (50880) Note On ch=5 par1=84 par2=61
Channel Event. t= 0 (50880) Note On ch=5 par1=76 par2=63
Channel Event. t= 0 (50880) Note On ch=5 par1=72 par2=63
Channel Event. t= 0 (50880) Note On ch=5 par1=67 par2=55
Channel Event. t= 145 (51025) Note Off ch=5 par1=76 par2=64
Channel Event. t= 0 (51025) Note Off ch=5 par1=72 par2=64
Channel Event. t= 2 (51027) Note Off ch=5 par1=67 par2=64
Channel Event. t= 14 (51041) Note Off ch=5 par1=84 par2=64
Channel Event. t= 10 (51051) Note Off ch=5 par1=79 par2=64
Channel Event. t= 2 (51053) Note Off ch=5 par1=88 par2=64
Channel Event. t= 211 (51264) Note On ch=5 par1=85 par2=79
Channel Event. t= 0 (51264) Note On ch=5 par1=80 par2=68
Channel Event. t= 0 (51264) Note On ch=5 par1=77 par2=54
Channel Event. t= 0 (51264) Note On ch=5 par1=68 par2=75
Channel Event. t= 0 (51264) Note On ch=5 par1=73 par2=77
Channel Event. t= 0 (51264) Note On ch=5 par1=65 par2=67
Channel Event. t= 145 (51409) Note Off ch=5 par1=65 par2=64
Channel Event. t= 4 (51413) Note Off ch=5 par1=68 par2=64
Channel Event. t= 1 (51414) Note Off ch=5 par1=73 par2=64
Channel Event. t= 22 (51436) Note Off ch=5 par1=80 par2=64
Channel Event. t= 0 (51436) Note Off ch=5 par1=77 par2=64
Channel Event. t= 3 (51439) Note Off ch=5 par1=85 par2=64
Channel Event. t= 209 (51648) Note On ch=5 par1=79 par2=49
Channel Event. t= 0 (51648) Note On ch=5 par1=84 par2=58
Channel Event. t= 0 (51648) Note On ch=5 par1=88 par2=61
Channel Event. t= 0 (51648) Note On ch=5 par1=76 par2=75
Channel Event. t= 0 (51648) Note On ch=5 par1=67 par2=65
Channel Event. t= 0 (51648) Note On ch=5 par1=72 par2=75
Channel Event. t= 168 (51816) Note Off ch=5 par1=84 par2=64
Channel Event. t= 1 (51817) Note Off ch=5 par1=72 par2=64
Channel Event. t= 1 (51818) Note Off ch=5 par1=67 par2=64
Channel Event. t= 2 (51820) Note Off ch=5 par1=79 par2=64
Channel Event. t= 0 (51820) Note Off ch=5 par1=88 par2=64
Channel Event. t= 2 (51822) Note Off ch=5 par1=76 par2=64
Channel Event. t= 210 (52032) Note On ch=5 par1=85 par2=70
Channel Event. t= 0 (52032) Note On ch=5 par1=80 par2=60
Channel Event. t= 0 (52032) Note On ch=5 par1=77 par2=51
Channel Event. t= 0 (52032) Note On ch=5 par1=73 par2=86
Channel Event. t= 0 (52032) Note On ch=5 par1=68 par2=79
Channel Event. t= 0 (52032) Note On ch=5 par1=65 par2=73
Channel Event. t= 152 (52184) Note Off ch=5 par1=68 par2=64
Channel Event. t= 1 (52185) Note Off ch=5 par1=65 par2=64
Channel Event. t= 5 (52190) Note Off ch=5 par1=73 par2=64
Channel Event. t= 3 (52193) Note Off ch=5 par1=77 par2=64
Channel Event. t= 2 (52195) Note Off ch=5 par1=80 par2=64
Channel Event. t= 1 (52196) Note Off ch=5 par1=85 par2=64
Channel Event. t= 220 (52416) Note On ch=5 par1=79 par2=55
Channel Event. t= 0 (52416) Note On ch=5 par1=88 par2=70
Channel Event. t= 0 (52416) Note On ch=5 par1=84 par2=66
Channel Event. t= 0 (52416) Note On ch=5 par1=67 par2=69
Channel Event. t= 0 (52416) Note On ch=5 par1=76 par2=74
Channel Event. t= 0 (52416) Note On ch=5 par1=72 par2=74
Channel Event. t= 151 (52567) Note Off ch=5 par1=76 par2=64
Channel Event. t= 2 (52569) Note Off ch=5 par1=72 par2=64
Channel Event. t= 3 (52572) Note Off ch=5 par1=67 par2=64
Channel Event. t= 16 (52588) Note Off ch=5 par1=84 par2=64
Channel Event. t= 3 (52591) Note Off ch=5 par1=88 par2=64
Channel Event. t= 4 (52595) Note Off ch=5 par1=79 par2=64
Channel Event. t= 205 (52800) Note On ch=5 par1=85 par2=79
Channel Event. t= 0 (52800) Note On ch=5 par1=77 par2=63
Channel Event. t= 0 (52800) Note On ch=5 par1=80 par2=72
Channel Event. t= 0 (52800) Note On ch=5 par1=73 par2=82
Channel Event. t= 0 (52800) Note On ch=5 par1=68 par2=78
Channel Event. t= 0 (52800) Note On ch=5 par1=65 par2=67
Channel Event. t= 131 (52931) Note Off ch=5 par1=68 par2=64
Channel Event. t= 3 (52934) Note Off ch=5 par1=73 par2=64
Channel Event. t= 3 (52937) Note Off ch=5 par1=65 par2=64
Channel Event. t= 29 (52966) Note Off ch=5 par1=77 par2=64
Channel Event. t= 0 (52966) Note Off ch=5 par1=80 par2=64
Channel Event. t= 2 (52968) Note Off ch=5 par1=85 par2=64
Channel Event. t= 216 (53184) Note On ch=5 par1=84 par2=72
Channel Event. t= 0 (53184) Note On ch=5 par1=88 par2=69
Channel Event. t= 0 (53184) Note On ch=5 par1=79 par2=57
Channel Event. t= 0 (53184) Note On ch=5 par1=72 par2=77
Channel Event. t= 0 (53184) Note On ch=5 par1=76 par2=80
Channel Event. t= 0 (53184) Note On ch=5 par1=67 par2=71
Channel Event. t= 151 (53335) Note Off ch=5 par1=76 par2=64
Channel Event. t= 3 (53338) Note Off ch=5 par1=72 par2=64
Channel Event. t= 1 (53339) Note Off ch=5 par1=67 par2=64
Channel Event. t= 18 (53357) Note Off ch=5 par1=88 par2=64
Channel Event. t= 1 (53358) Note Off ch=5 par1=84 par2=64
Channel Event. t= 3 (53361) Note Off ch=5 par1=79 par2=64
Channel Event. t= 207 (53568) Note On ch=5 par1=80 par2=72
Channel Event. t= 0 (53568) Note On ch=5 par1=85 par2=80
Channel Event. t= 0 (53568) Note On ch=5 par1=77 par2=58
Channel Event. t= 0 (53568) Note On ch=5 par1=68 par2=81
Channel Event. t= 0 (53568) Note On ch=5 par1=73 par2=87
Channel Event. t= 0 (53568) Note On ch=5 par1=65 par2=70
Channel Event. t= 149 (53717) Note Off ch=5 par1=68 par2=64
Channel Event. t= 2 (53719) Note Off ch=5 par1=73 par2=64
Channel Event. t= 1 (53720) Note Off ch=5 par1=65 par2=64
Channel Event. t= 25 (53745) Note Off ch=5 par1=85 par2=64
Channel Event. t= 0 (53745) Note Off ch=5 par1=77 par2=64
Channel Event. t= 1 (53746) Note Off ch=5 par1=80 par2=64
Channel Event. t= 206 (53952) Note On ch=5 par1=79 par2=53
Channel Event. t= 0 (53952) Note On ch=5 par1=84 par2=67
Channel Event. t= 0 (53952) Note On ch=5 par1=88 par2=66
Channel Event. t= 0 (53952) Note On ch=5 par1=72 par2=79
Channel Event. t= 0 (53952) Note On ch=5 par1=76 par2=80
Channel Event. t= 0 (53952) Note On ch=5 par1=67 par2=70
Channel Event. t= 152 (54104) Note Off ch=5 par1=72 par2=64
Channel Event. t= 1 (54105) Note Off ch=5 par1=76 par2=64
Channel Event. t= 0 (54105) Note Off ch=5 par1=67 par2=64
Channel Event. t= 31 (54136) Note Off ch=5 par1=84 par2=64
Channel Event. t= 0 (54136) Note Off ch=5 par1=88 par2=64
Channel Event. t= 2 (54138) Note Off ch=5 par1=79 par2=64
Channel Event. t= 198 (54336) Note On ch=5 par1=85 par2=79
Channel Event. t= 0 (54336) Note On ch=5 par1=80 par2=75
Channel Event. t= 0 (54336) Note On ch=5 par1=77 par2=62
Channel Event. t= 0 (54336) Note On ch=5 par1=73 par2=88
Channel Event. t= 0 (54336) Note On ch=5 par1=68 par2=80
Channel Event. t= 0 (54336) Note On ch=5 par1=65 par2=73
Channel Event. t= 153 (54489) Note Off ch=5 par1=68 par2=64
Channel Event. t= 0 (54489) Note Off ch=5 par1=65 par2=64
Channel Event. t= 2 (54491) Note Off ch=5 par1=73 par2=64
Channel Event. t= 33 (54524) Note Off ch=5 par1=80 par2=64
Channel Event. t= 1 (54525) Note Off ch=5 par1=85 par2=64
Channel Event. t= 0 (54525) Note Off ch=5 par1=77 par2=64
Channel Event. t= 195 (54720) Note On ch=5 par1=79 par2=56
Channel Event. t= 0 (54720) Note On ch=5 par1=84 par2=71
Channel Event. t= 0 (54720) Note On ch=5 par1=88 par2=72
Channel Event. t= 0 (54720) Note On ch=5 par1=72 par2=81
Channel Event. t= 0 (54720) Note On ch=5 par1=76 par2=81
Channel Event. t= 0 (54720) Note On ch=5 par1=67 par2=72
Channel Event. t= 170 (54890) Note Off ch=5 par1=76 par2=64
Channel Event. t= 1 (54891) Note Off ch=5 par1=72 par2=64
Channel Event. t= 0 (54891) Note Off ch=5 par1=67 par2=64
Channel Event. t= 18 (54909) Note Off ch=5 par1=84 par2=64
Channel Event. t= 6 (54915) Note Off ch=5 par1=79 par2=64
Channel Event. t= 2 (54917) Note Off ch=5 par1=88 par2=64
Channel Event. t= 187 (55104) Note On ch=5 par1=85 par2=82
Channel Event. t= 0 (55104) Note On ch=5 par1=80 par2=73
Channel Event. t= 0 (55104) Note On ch=5 par1=77 par2=63
Channel Event. t= 0 (55104) Note On ch=5 par1=68 par2=81
Channel Event. t= 0 (55104) Note On ch=5 par1=73 par2=88
Channel Event. t= 0 (55104) Note On ch=5 par1=65 par2=74
Channel Event. t= 151 (55255) Note Off ch=5 par1=65 par2=64
Channel Event. t= 2 (55257) Note Off ch=5 par1=68 par2=64
Channel Event. t= 1 (55258) Note Off ch=5 par1=73 par2=64
Channel Event. t= 41 (55299) Note Off ch=5 par1=77 par2=64
Channel Event. t= 1 (55300) Note Off ch=5 par1=80 par2=64
Channel Event. t= 0 (55300) Note Off ch=5 par1=85 par2=64
Channel Event. t= 188 (55488) Note On ch=5 par1=88 par2=73
Channel Event. t= 0 (55488) Note On ch=5 par1=84 par2=69
Channel Event. t= 0 (55488) Note On ch=5 par1=79 par2=58
Channel Event. t= 0 (55488) Note On ch=5 par1=72 par2=74
Channel Event. t= 0 (55488) Note On ch=5 par1=76 par2=75
Channel Event. t= 0 (55488) Note On ch=5 par1=67 par2=65
Channel Event. t= 169 (55657) Note Off ch=5 par1=72 par2=64
Channel Event. t= 1 (55658) Note Off ch=5 par1=67 par2=64
Channel Event. t= 2 (55660) Note Off ch=5 par1=76 par2=64
Channel Event. t= 11 (55671) Note Off ch=5 par1=84 par2=64
Channel Event. t= 2 (55673) Note Off ch=5 par1=88 par2=64
Channel Event. t= 4 (55677) Note Off ch=5 par1=79 par2=64
Channel Event. t= 195 (55872) Note On ch=5 par1=85 par2=80
Channel Event. t= 0 (55872) Note On ch=5 par1=80 par2=73
Channel Event. t= 0 (55872) Note On ch=5 par1=77 par2=58
Channel Event. t= 0 (55872) Note On ch=5 par1=73 par2=86
Channel Event. t= 0 (55872) Note On ch=5 par1=68 par2=81
Channel Event. t= 0 (55872) Note On ch=5 par1=65 par2=71
Channel Event. t= 161 (56033) Note Off ch=5 par1=68 par2=64
Channel Event. t= 1 (56034) Note Off ch=5 par1=73 par2=64
Channel Event. t= 0 (56034) Note Off ch=5 par1=65 par2=64
Channel Event. t= 12 (56046) Note Off ch=5 par1=77 par2=64
Channel Event. t= 5 (56051) Note Off ch=5 par1=85 par2=64
Channel Event. t= 0 (56051) Note Off ch=5 par1=80 par2=64
Channel Event. t= 205 (56256) Note On ch=5 par1=88 par2=71
Channel Event. t= 0 (56256) Note On ch=5 par1=79 par2=61
Channel Event. t= 0 (56256) Note On ch=5 par1=84 par2=71
Channel Event. t= 0 (56256) Note On ch=5 par1=76 par2=81
Channel Event. t= 0 (56256) Note On ch=5 par1=72 par2=81
Channel Event. t= 0 (56256) Note On ch=5 par1=67 par2=72
Channel Event. t= 157 (56413) Note Off ch=5 par1=76 par2=64
Channel Event. t= 3 (56416) Note Off ch=5 par1=72 par2=64
Channel Event. t= 0 (56416) Note Off ch=5 par1=67 par2=64
Channel Event. t= 26 (56442) Note Off ch=5 par1=88 par2=64
Channel Event. t= 2 (56444) Note Off ch=5 par1=84 par2=64
Channel Event. t= 1 (56445) Note Off ch=5 par1=79 par2=64
Channel Event. t= 195 (56640) Note On ch=5 par1=80 par2=80
Channel Event. t= 0 (56640) Note On ch=5 par1=85 par2=86
Channel Event. t= 0 (56640) Note On ch=5 par1=77 par2=64
Channel Event. t= 0 (56640) Note On ch=5 par1=73 par2=87
Channel Event. t= 0 (56640) Note On ch=5 par1=65 par2=69
Channel Event. t= 0 (56640) Note On ch=5 par1=68 par2=81
Channel Event. t= 161 (56801) Note Off ch=5 par1=73 par2=64
Channel Event. t= 0 (56801) Note Off ch=5 par1=68 par2=64
Channel Event. t= 1 (56802) Note Off ch=5 par1=65 par2=64
Channel Event. t= 1 (56803) Note Off ch=5 par1=85 par2=64
Channel Event. t= 1 (56804) Note Off ch=5 par1=77 par2=64
Channel Event. t= 3 (56807) Note Off ch=5 par1=80 par2=64
Channel Event. t= 145 (56952) Controller ch=5 par1=7 (Main Volume) par2=102
Channel Event. t= 72 (57024) Note On ch=5 par1=79 par2=71
Channel Event. t= 0 (57024) Note On ch=5 par1=84 par2=77
Channel Event. t= 0 (57024) Note On ch=5 par1=88 par2=82
Channel Event. t= 0 (57024) Note On ch=5 par1=76 par2=81
Channel Event. t= 0 (57024) Note On ch=5 par1=67 par2=74
Channel Event. t= 0 (57024) Note On ch=5 par1=72 par2=80
Channel Event. t= 78 (57102) Note Off ch=5 par1=76 par2=64
Channel Event. t= 9 (57111) Note Off ch=5 par1=72 par2=64
Channel Event. t= 1 (57112) Note Off ch=5 par1=67 par2=64
Channel Event. t= 56 (57168) Note Off ch=5 par1=84 par2=64
Channel Event. t= 48 (57216) Note Off ch=5 par1=79 par2=64
Channel Event. t= 0 (57216) Note Off ch=5 par1=88 par2=64
Channel Event. t= 0 (57216) Note On ch=5 par1=84 par2=66
Channel Event. t= 0 (57216) Note On ch=5 par1=96 par2=61
Channel Event. t= 0 (57216) Note On ch=5 par1=60 par2=99
Channel Event. t= 0 (57216) Note On ch=5 par1=72 par2=88
Channel Event. t= 195 (57411) Note Off ch=5 par1=60 par2=64
Channel Event. t= 6 (57417) Note Off ch=5 par1=72 par2=64
Channel Event. t= 93 (57510) Note Off ch=5 par1=84 par2=64
Channel Event. t= 3 (57513) Note Off ch=5 par1=96 par2=64
Channel Event. t= 663 (58176) Note On ch=5 par1=83 par2=89
Channel Event. t= 0 (58176) Note On ch=5 par1=77 par2=82
Channel Event. t= 0 (58176) Note On ch=5 par1=65 par2=91
Channel Event. t= 0 (58176) Note On ch=5 par1=71 par2=90
Channel Event. t= 129 (58305) Note Off ch=5 par1=77 par2=64
Channel Event. t= 1 (58306) Note Off ch=5 par1=83 par2=64
Channel Event. t= 20 (58326) Note Off ch=5 par1=65 par2=64
Channel Event. t= 3 (58329) Note Off ch=5 par1=71 par2=64
Channel Event. t= 39 (58368) Note On ch=5 par1=83 par2=87
Channel Event. t= 0 (58368) Note On ch=5 par1=77 par2=80
Channel Event. t= 0 (58368) Note On ch=5 par1=71 par2=90
Channel Event. t= 0 (58368) Note On ch=5 par1=65 par2=88
Channel Event. t= 128 (58496) Note Off ch=5 par1=77 par2=64
Channel Event. t= 6 (58502) Note Off ch=5 par1=83 par2=64
Channel Event. t= 11 (58513) Note Off ch=5 par1=65 par2=64
Channel Event. t= 3 (58516) Note Off ch=5 par1=71 par2=64
Channel Event. t= 44 (58560) Note On ch=5 par1=83 par2=100
Channel Event. t= 0 (58560) Note On ch=5 par1=77 par2=91
Channel Event. t= 0 (58560) Note On ch=5 par1=71 par2=91
Channel Event. t= 0 (58560) Note On ch=5 par1=65 par2=92
Channel Event. t= 125 (58685) Note Off ch=5 par1=77 par2=64
Channel Event. t= 20 (58705) Note Off ch=5 par1=83 par2=64
Channel Event. t= 47 (58752) Note Off ch=5 par1=71 par2=64
Channel Event. t= 0 (58752) Note Off ch=5 par1=65 par2=64
Channel Event. t= 0 (58752) Note On ch=5 par1=84 par2=103
Channel Event. t= 0 (58752) Note On ch=5 par1=76 par2=96
Channel Event. t= 0 (58752) Note On ch=5 par1=72 par2=92
Channel Event. t= 0 (58752) Note On ch=5 par1=60 par2=79
Channel Event. t= 0 (58752) Note On ch=5 par1=64 par2=92
Channel Event. t= 193 (58945) Note Off ch=5 par1=76 par2=64
Channel Event. t= 5 (58950) Note Off ch=5 par1=84 par2=64
Channel Event. t= 6 (58956) Note Off ch=5 par1=60 par2=64
Channel Event. t= 3 (58959) Note Off ch=5 par1=64 par2=64
Channel Event. t= 4 (58963) Note Off ch=5 par1=72 par2=64
Channel Event. t= 1517 (60480) Note On ch=5 par1=95 par2=100
Channel Event. t= 0 (60480) Note On ch=5 par1=83 par2=91
Channel Event. t= 0 (60480) Note On ch=5 par1=89 par2=96
Channel Event. t= 0 (60480) Note On ch=5 par1=71 par2=83
Channel Event. t= 0 (60480) Note On ch=5 par1=65 par2=81
Channel Event. t= 145 (60625) Note Off ch=5 par1=83 par2=64
Channel Event. t= 9 (60634) Note Off ch=5 par1=95 par2=64
Channel Event. t= 4 (60638) Note Off ch=5 par1=89 par2=64
Channel Event. t= 13 (60651) Note Off ch=5 par1=65 par2=64
Channel Event. t= 5 (60656) Note Off ch=5 par1=71 par2=64
Channel Event. t= 16 (60672) Note On ch=5 par1=95 par2=99
Channel Event. t= 0 (60672) Note On ch=5 par1=83 par2=94
Channel Event. t= 0 (60672) Note On ch=5 par1=89 par2=92
Channel Event. t= 0 (60672) Note On ch=5 par1=65 par2=80
Channel Event. t= 0 (60672) Note On ch=5 par1=71 par2=76
Channel Event. t= 138 (60810) Note Off ch=5 par1=83 par2=64
Channel Event. t= 0 (60810) Note Off ch=5 par1=65 par2=64
Channel Event. t= 5 (60815) Note Off ch=5 par1=95 par2=64
Channel Event. t= 3 (60818) Note Off ch=5 par1=71 par2=64
Channel Event. t= 13 (60831) Note Off ch=5 par1=89 par2=64
Channel Event. t= 33 (60864) Note On ch=5 par1=95 par2=98
Channel Event. t= 0 (60864) Note On ch=5 par1=89 par2=85
Channel Event. t= 0 (60864) Note On ch=5 par1=83 par2=94
Channel Event. t= 0 (60864) Note On ch=5 par1=71 par2=88
Channel Event. t= 0 (60864) Note On ch=5 par1=65 par2=92
Channel Event. t= 112 (60976) Note Off ch=5 par1=83 par2=64
Channel Event. t= 4 (60980) Note Off ch=5 par1=95 par2=64
Channel Event. t= 1 (60981) Note Off ch=5 par1=89 par2=64
Channel Event. t= 48 (61029) Note Off ch=5 par1=71 par2=64
Channel Event. t= 4 (61033) Note Off ch=5 par1=65 par2=64
Channel Event. t= 23 (61056) Note On ch=5 par1=96 par2=95
Channel Event. t= 0 (61056) Note On ch=5 par1=88 par2=98
Channel Event. t= 0 (61056) Note On ch=5 par1=84 par2=89
Channel Event. t= 0 (61056) Note On ch=5 par1=64 par2=99
Channel Event. t= 0 (61056) Note On ch=5 par1=72 par2=100
Channel Event. t= 768 (61824) Note Off ch=5 par1=72 par2=64
Channel Event. t= 0 (61824) Note Off ch=5 par1=64 par2=64
Channel Event. t= 0 (61824) Note Off ch=5 par1=84 par2=64
Channel Event. t= 0 (61824) Note Off ch=5 par1=88 par2=64
Channel Event. t= 0 (61824) Note Off ch=5 par1=96 par2=64
Channel Event. t= 0 (61824) 
Meta Event. Type: 0x2f (47dec), End of Track (0 bytes): 
track #47
track size: 1975
Channel Event. t= 0 (0) 
Meta Event. Type: 0x21 (33dec), MIDI Port (1 bytes): 0
Channel Event. t= 0 (0) 
Meta Event. Type: 0x3 (3dec), Sequence/Track Name (20 bytes): Strings             
Channel Event. t= 0 (0) Program Change ch=7 par1=48 par2=-113
Channel Event. t= 1536 (1536) Controller ch=7 par1=10 (Pan) par2=90
Channel Event. t= 12276 (13812) Controller ch=7 par1=7 (Pan) par2=102
Channel Event. t= 12 (13824) Note On ch=7 par1=31 par2=78
Channel Event. t= 0 (13824) Note On ch=7 par1=43 par2=79
Channel Event. t= 1060 (14884) Note Off ch=7 par1=31 par2=64
Channel Event. t= 11 (14895) Note Off ch=7 par1=43 par2=64
Channel Event. t= 91 (14986) Note On ch=7 par1=43 par2=66
Channel Event. t= 3 (14989) Note On ch=7 par1=47 par2=82
Channel Event. t= 1 (14990) Note On ch=7 par1=55 par2=77
Channel Event. t= 104 (15094) Note Off ch=7 par1=55 par2=64
Channel Event. t= 5 (15099) Note Off ch=7 par1=47 par2=64
Channel Event. t= 8 (15107) Note Off ch=7 par1=43 par2=64
Channel Event. t= 65 (15172) Note On ch=7 par1=45 par2=75
Channel Event. t= 0 (15172) Note On ch=7 par1=41 par2=73
Channel Event. t= 0 (15172) Note On ch=7 par1=53 par2=82
Channel Event. t= 110 (15282) Note Off ch=7 par1=53 par2=64
Channel Event. t= 11 (15293) Note Off ch=7 par1=45 par2=64
Channel Event. t= 4 (15297) Note Off ch=7 par1=41 par2=64
Channel Event. t= 63 (15360) Note On ch=7 par1=38 par2=74
Channel Event. t= 0 (15360) Note On ch=7 par1=50 par2=74
Channel Event. t= 1125 (16485) Note Off ch=7 par1=38 par2=64
Channel Event. t= 5 (16490) Note Off ch=7 par1=50 par2=64
Channel Event. t= 28 (16518) Note On ch=7 par1=50 par2=79
Channel Event. t= 0 (16518) Note On ch=7 par1=38 par2=79
Channel Event. t= 1 (16519) Note On ch=7 par1=43 par2=83
Channel Event. t= 112 (16631) Note Off ch=7 par1=50 par2=64
Channel Event. t= 0 (16631) Note Off ch=7 par1=38 par2=64
Channel Event. t= 6 (16637) Note Off ch=7 par1=43 par2=64
Channel Event. t= 69 (16706) Note On ch=7 par1=36 par2=84
Channel Event. t= 1 (16707) Note On ch=7 par1=48 par2=84
Channel Event. t= 0 (16707) Note On ch=7 par1=43 par2=81
Channel Event. t= 100 (16807) Note Off ch=7 par1=36 par2=64
Channel Event. t= 1 (16808) Note Off ch=7 par1=48 par2=64
Channel Event. t= 0 (16808) Note Off ch=7 par1=43 par2=64
Channel Event. t= 94 (16902) Note On ch=7 par1=60 par2=72
Channel Event. t= 292 (17194) Note Off ch=7 par1=60 par2=64
Channel Event. t= 4118 (21312) Note On ch=7 par1=43 par2=75
Channel Event. t= 0 (21312) Note On ch=7 par1=51 par2=85
Channel Event. t= 0 (21312) Note On ch=7 par1=55 par2=75
Channel Event. t= 91 (21403) Note Off ch=7 par1=55 par2=64
Channel Event. t= 11 (21414) Note Off ch=7 par1=51 par2=64
Channel Event. t= 12 (21426) Note Off ch=7 par1=43 par2=64
Channel Event. t= 78 (21504) Note On ch=7 par1=36 par2=67
Channel Event. t= 0 (21504) Note On ch=7 par1=48 par2=76
Channel Event. t= 0 (21504) Note On ch=7 par1=40 par2=72
Channel Event. t= 151 (21655) Note Off ch=7 par1=40 par2=64
Channel Event. t= 7 (21662) Note Off ch=7 par1=36 par2=64
Channel Event. t= 4 (21666) Note Off ch=7 par1=48 par2=64
Channel Event. t= 222 (21888) Note On ch=7 par1=43 par2=69
Channel Event. t= 0 (21888) Note On ch=7 par1=51 par2=80
Channel Event. t= 0 (21888) Note On ch=7 par1=55 par2=77
Channel Event. t= 170 (22058) Note Off ch=7 par1=55 par2=64
Channel Event. t= 2 (22060) Note Off ch=7 par1=51 par2=64
Channel Event. t= 11 (22071) Note Off ch=7 par1=43 par2=64
Channel Event. t= 9 (22080) Note On ch=7 par1=40 par2=44
Channel Event. t= 0 (22080) Note On ch=7 par1=36 par2=58
Channel Event. t= 0 (22080) Note On ch=7 par1=48 par2=63
Channel Event. t= 169 (22249) Note Off ch=7 par1=36 par2=64
Channel Event. t= 1 (22250) Note Off ch=7 par1=40 par2=64
Channel Event. t= 31 (22281) Note Off ch=7 par1=48 par2=64
Channel Event. t= 183 (22464) Note On ch=7 par1=51 par2=84
Channel Event. t= 0 (22464) Note On ch=7 par1=43 par2=69
Channel Event. t= 0 (22464) Note On ch=7 par1=55 par2=74
Channel Event. t= 100 (22564) Note Off ch=7 par1=51 par2=64
Channel Event. t= 5 (22569) Note Off ch=7 par1=55 par2=64
Channel Event. t= 3 (22572) Note Off ch=7 par1=43 par2=64
Channel Event. t= 84 (22656) Note On ch=7 par1=55 par2=73
Channel Event. t= 0 (22656) Note On ch=7 par1=51 par2=86
Channel Event. t= 0 (22656) Note On ch=7 par1=43 par2=73
Channel Event. t= 134 (22790) Note Off ch=7 par1=43 par2=64
Channel Event. t= 6 (22796) Note Off ch=7 par1=55 par2=64
Channel Event. t= 3 (22799) Note Off ch=7 par1=51 par2=64
Channel Event. t= 49 (22848) Note On ch=7 par1=43 par2=82
Channel Event. t= 56 (22904) Note Off ch=7 par1=43 par2=64
Channel Event. t= 40 (22944) Note On ch=7 par1=43 par2=74
Channel Event. t= 52 (22996) Note Off ch=7 par1=43 par2=64
Channel Event. t= 44 (23040) Note On ch=7 par1=43 par2=62
Channel Event. t= 96 (23136) Note On ch=7 par1=44 par2=78
Channel Event. t= 5 (23141) Note Off ch=7 par1=43 par2=64
Channel Event. t= 88 (23229) Note Off ch=7 par1=44 par2=64
Channel Event. t= 3 (23232) Note On ch=7 par1=35 par2=88
Channel Event. t= 180 (23412) Note Off ch=7 par1=35 par2=64
Channel Event. t= 12 (23424) Note On ch=7 par1=43 par2=88
Channel Event. t= 96 (23520) Note On ch=7 par1=41 par2=78
Channel Event. t= 10 (23530) Note Off ch=7 par1=43 par2=64
Channel Event. t= 82 (23612) Note Off ch=7 par1=41 par2=64
Channel Event. t= 4 (23616) Note On ch=7 par1=40 par2=77
Channel Event. t= 90 (23706) Note Off ch=7 par1=40 par2=64
Channel Event. t= 6 (23712) Note On ch=7 par1=38 par2=88
Channel Event. t= 39 (23751) Note Off ch=7 par1=38 par2=64
Channel Event. t= 57 (23808) Note On ch=7 par1=43 par2=84
Channel Event. t= 0 (23808) Note On ch=7 par1=51 par2=91
Channel Event. t= 0 (23808) Note On ch=7 par1=55 par2=80
Channel Event. t= 128 (23936) Note Off ch=7 par1=55 par2=64
Channel Event. t= 7 (23943) Note Off ch=7 par1=51 par2=64
Channel Event. t= 9 (23952) Note Off ch=7 par1=43 par2=64
Channel Event. t= 48 (24000) Note On ch=7 par1=43 par2=95
Channel Event. t= 58 (24058) Note Off ch=7 par1=43 par2=64
Channel Event. t= 38 (24096) Note On ch=7 par1=43 par2=82
Channel Event. t= 59 (24155) Note Off ch=7 par1=43 par2=64
Channel Event. t= 37 (24192) Note On ch=7 par1=43 par2=79
Channel Event. t= 96 (24288) Note On ch=7 par1=44 par2=85
Channel Event. t= 1 (24289) Note Off ch=7 par1=43 par2=64
Channel Event. t= 95 (24384) Note On ch=7 par1=35 par2=94
Channel Event. t= 17 (24401) Note Off ch=7 par1=44 par2=64
Channel Event. t= 127 (24528) Note Off ch=7 par1=35 par2=64
Channel Event. t= 48 (24576) Note On ch=7 par1=43 par2=91
Channel Event. t= 96 (24672) Note On ch=7 par1=41 par2=74
Channel Event. t= 49 (24721) Note Off ch=7 par1=43 par2=64
Channel Event. t= 47 (24768) Note On ch=7 par1=40 par2=82
Channel Event. t= 22 (24790) Note Off ch=7 par1=41 par2=64
Channel Event. t= 74 (24864) Note On ch=7 par1=38 par2=78
Channel Event. t= 14 (24878) Note Off ch=7 par1=40 par2=64
Channel Event. t= 82 (24960) Note Off ch=7 par1=38 par2=64
Channel Event. t= 0 (24960) Note On ch=7 par1=40 par2=89
Channel Event. t= 192 (25152) Note Off ch=7 par1=40 par2=64
Channel Event. t= 0 (25152) Note On ch=7 par1=42 par2=93
Channel Event. t= 185 (25337) Note Off ch=7 par1=42 par2=64
Channel Event. t= 7 (25344) Note On ch=7 par1=43 par2=82
Channel Event. t= 96 (25440) Note On ch=7 par1=39 par2=86
Channel Event. t= 11 (25451) Note Off ch=7 par1=43 par2=64
Channel Event. t= 79 (25530) Note Off ch=7 par1=39 par2=64
Channel Event. t= 6 (25536) Note On ch=7 par1=40 par2=91
Channel Event. t= 87 (25623) Note Off ch=7 par1=40 par2=64
Channel Event. t= 105 (25728) Note On ch=7 par1=41 par2=97
Channel Event. t= 0 (25728) Note On ch=7 par1=53 par2=73
Channel Event. t= 0 (25728) Note On ch=7 par1=55 par2=72
Channel Event. t= 303 (26031) Note Off ch=7 par1=55 par2=64
Channel Event. t= 54 (26085) Note Off ch=7 par1=53 par2=64
Channel Event. t= 27 (26112) Note On ch=7 par1=53 par2=103
Channel Event. t= 17 (26129) Note Off ch=7 par1=41 par2=64
Channel Event. t= 199 (26328) Note Off ch=7 par1=53 par2=64
Channel Event. t= 168 (26496) Note On ch=7 par1=39 par2=94
Channel Event. t= 178 (26674) Note Off ch=7 par1=39 par2=64
Channel Event. t= 14 (26688) Note On ch=7 par1=41 par2=85
Channel Event. t= 192 (26880) Note On ch=7 par1=42 par2=90
Channel Event. t= 58 (26938) Note Off ch=7 par1=41 par2=64
Channel Event. t= 38 (26976) Note Off ch=7 par1=42 par2=64
Channel Event. t= 0 (26976) Note On ch=7 par1=38 par2=99
Channel Event. t= 92 (27068) Note Off ch=7 par1=38 par2=64
Channel Event. t= 4 (27072) Note On ch=7 par1=39 par2=94
Channel Event. t= 99 (27171) Note Off ch=7 par1=39 par2=64
Channel Event. t= 93 (27264) Note On ch=7 par1=42 par2=105
Channel Event. t= 0 (27264) Note On ch=7 par1=52 par2=102
Channel Event. t= 371 (27635) Note Off ch=7 par1=52 par2=64
Channel Event. t= 13 (27648) Note On ch=7 par1=52 par2=95
Channel Event. t= 20 (27668) Note Off ch=7 par1=42 par2=64
Channel Event. t= 197 (27865) Note Off ch=7 par1=52 par2=64
Channel Event. t= 167 (28032) Note On ch=7 par1=38 par2=99
Channel Event. t= 192 (28224) Note On ch=7 par1=40 par2=90
Channel Event. t= 1 (28225) Note Off ch=7 par1=38 par2=64
Channel Event. t= 191 (28416) Note On ch=7 par1=41 par2=86
Channel Event. t= 9 (28425) Note Off ch=7 par1=40 par2=64
Channel Event. t= 87 (28512) Note On ch=7 par1=37 par2=85
Channel Event. t= 21 (28533) Note Off ch=7 par1=41 par2=64
Channel Event. t= 75 (28608) Note On ch=7 par1=38 par2=92
Channel Event. t= 7 (28615) Note Off ch=7 par1=37 par2=64
Channel Event. t= 158 (28773) Note Off ch=7 par1=38 par2=64
Channel Event. t= 219 (28992) Note On ch=7 par1=36 par2=89
Channel Event. t= 0 (28992) Note On ch=7 par1=48 par2=89
Channel Event. t= 129 (29121) Note Off ch=7 par1=48 par2=64
Channel Event. t= 12 (29133) Note Off ch=7 par1=36 par2=64
Channel Event. t= 51 (29184) Note On ch=7 par1=48 par2=86
Channel Event. t= 0 (29184) Note On ch=7 par1=36 par2=87
Channel Event. t= 141 (29325) Note Off ch=7 par1=48 par2=64
Channel Event. t= 6 (29331) Note Off ch=7 par1=36 par2=64
Channel Event. t= 45 (29376) Note On ch=7 par1=36 par2=86
Channel Event. t= 0 (29376) Note On ch=7 par1=48 par2=85
Channel Event. t= 132 (29508) Note Off ch=7 par1=48 par2=64
Channel Event. t= 1 (29509) Note Off ch=7 par1=36 par2=64
Channel Event. t= 59 (29568) Note On ch=7 par1=36 par2=78
Channel Event. t= 0 (29568) Note On ch=7 par1=41 par2=86
Channel Event. t= 1516 (31084) Note Off ch=7 par1=41 par2=64
Channel Event. t= 5 (31089) Note Off ch=7 par1=36 par2=64
Channel Event. t= 15 (31104) Note On ch=7 par1=36 par2=76
Channel Event. t= 0 (31104) Note On ch=7 par1=41 par2=88
Channel Event. t= 733 (31837) Note Off ch=7 par1=41 par2=64
Channel Event. t= 3 (31840) Note Off ch=7 par1=36 par2=64
Channel Event. t= 32 (31872) Note On ch=7 par1=36 par2=63
Channel Event. t= 0 (31872) Note On ch=7 par1=41 par2=66
Channel Event. t= 768 (32640) Note On ch=7 par1=31 par2=74
Channel Event. t= 1 (32641) Note Off ch=7 par1=36 par2=64
Channel Event. t= 4 (32645) Note Off ch=7 par1=41 par2=64
Channel Event. t= 377 (33022) Note Off ch=7 par1=31 par2=64
Channel Event. t= 2 (33024) Note On ch=7 par1=26 par2=76
Channel Event. t= 384 (33408) Note On ch=7 par1=36 par2=66
Channel Event. t= 18 (33426) Note Off ch=7 par1=26 par2=64
Channel Event. t= 736 (34162) Note Off ch=7 par1=36 par2=64
Channel Event. t= 206 (34368) Note On ch=7 par1=36 par2=65
Channel Event. t= 115 (34483) Note Off ch=7 par1=36 par2=64
Channel Event. t= 77 (34560) Note On ch=7 par1=36 par2=60
Channel Event. t= 93 (34653) Note Off ch=7 par1=36 par2=64
Channel Event. t= 99 (34752) Note On ch=7 par1=36 par2=64
Channel Event. t= 128 (34880) Note Off ch=7 par1=36 par2=64
Channel Event. t= 64 (34944) Note On ch=7 par1=37 par2=66
Channel Event. t= 171 (35115) Note Off ch=7 par1=37 par2=64
Channel Event. t= 213 (35328) Note On ch=7 par1=31 par2=66
Channel Event. t= 175 (35503) Note Off ch=7 par1=31 par2=64
Channel Event. t= 209 (35712) Note On ch=7 par1=37 par2=72
Channel Event. t= 187 (35899) Note Off ch=7 par1=37 par2=64
Channel Event. t= 197 (36096) Note On ch=7 par1=31 par2=75
Channel Event. t= 201 (36297) Note Off ch=7 par1=31 par2=64
Channel Event. t= 183 (36480) Note On ch=7 par1=37 par2=72
Channel Event. t= 233 (36713) Note Off ch=7 par1=37 par2=64
Channel Event. t= 151 (36864) Note On ch=7 par1=31 par2=74
Channel Event. t= 202 (37066) Note Off ch=7 par1=31 par2=64
Channel Event. t= 182 (37248) Note On ch=7 par1=37 par2=82
Channel Event. t= 192 (37440) Note Off ch=7 par1=37 par2=64
Channel Event. t= 192 (37632) Note On ch=7 par1=31 par2=82
Channel Event. t= 212 (37844) Note Off ch=7 par1=31 par2=64
Channel Event. t= 172 (38016) Note On ch=7 par1=37 par2=79
Channel Event. t= 192 (38208) Note Off ch=7 par1=37 par2=64
Channel Event. t= 192 (38400) Note On ch=7 par1=31 par2=76
Channel Event. t= 192 (38592) Note Off ch=7 par1=31 par2=64
Channel Event. t= 192 (38784) Note On ch=7 par1=37 par2=79
Channel Event. t= 222 (39006) Note Off ch=7 par1=37 par2=64
Channel Event. t= 162 (39168) Note On ch=7 par1=31 par2=80
Channel Event. t= 220 (39388) Note Off ch=7 par1=31 par2=64
Channel Event. t= 164 (39552) Note On ch=7 par1=37 par2=85
Channel Event. t= 219 (39771) Note Off ch=7 par1=37 par2=64
Channel Event. t= 165 (39936) Note On ch=7 par1=31 par2=81
Channel Event. t= 212 (40148) Note Off ch=7 par1=31 par2=64
Channel Event. t= 172 (40320) Note On ch=7 par1=37 par2=85
Channel Event. t= 259 (40579) Note Off ch=7 par1=37 par2=64
Channel Event. t= 125 (40704) Note On ch=7 par1=31 par2=83
Channel Event. t= 192 (40896) Note Off ch=7 par1=31 par2=64
Channel Event. t= 192 (41088) Note On ch=7 par1=37 par2=84
Channel Event. t= 241 (41329) Note Off ch=7 par1=37 par2=64
Channel Event. t= 143 (41472) Note On ch=7 par1=31 par2=83
Channel Event. t= 192 (41664) Note Off ch=7 par1=31 par2=64
Channel Event. t= 192 (41856) Note On ch=7 par1=37 par2=88
Channel Event. t= 232 (42088) Note Off ch=7 par1=37 par2=64
Channel Event. t= 152 (42240) Note On ch=7 par1=31 par2=86
Channel Event. t= 192 (42432) Note Off ch=7 par1=31 par2=64
Channel Event. t= 192 (42624) Note On ch=7 par1=37 par2=92
Channel Event. t= 212 (42836) Note Off ch=7 par1=37 par2=64
Channel Event. t= 172 (43008) Note On ch=7 par1=31 par2=83
Channel Event. t= 221 (43229) Note Off ch=7 par1=31 par2=64
Channel Event. t= 163 (43392) Note On ch=7 par1=37 par2=83
Channel Event. t= 226 (43618) Note Off ch=7 par1=37 par2=64
Channel Event. t= 158 (43776) Note On ch=7 par1=31 par2=82
Channel Event. t= 213 (43989) Note Off ch=7 par1=31 par2=64
Channel Event. t= 171 (44160) Note On ch=7 par1=37 par2=86
Channel Event. t= 215 (44375) Note Off ch=7 par1=37 par2=64
Channel Event. t= 169 (44544) Note On ch=7 par1=31 par2=80
Channel Event. t= 193 (44737) Note Off ch=7 par1=31 par2=64
Channel Event. t= 383 (45120) Note On ch=7 par1=40 par2=94
Channel Event. t= 0 (45120) Note On ch=7 par1=28 par2=91
Channel Event. t= 576 (45696) Note On ch=7 par1=60 par2=99
Channel Event. t= 0 (45696) Note On ch=7 par1=48 par2=99
Channel Event. t= 96 (45792) Controller ch=7 par1=7 (Main Volume) par2=102
Channel Event. t= 48 (45840) Note Off ch=7 par1=40 par2=64
Channel Event. t= 0 (45840) Note On ch=7 par1=40 par2=73
Channel Event. t= 0 (45840) Note On ch=7 par1=52 par2=69
Channel Event. t= 11 (45851) Note Off ch=7 par1=60 par2=64
Channel Event. t= 2 (45853) Note Off ch=7 par1=48 par2=64
Channel Event. t= 21 (45874) Note Off ch=7 par1=52 par2=64
Channel Event. t= 2 (45876) Note Off ch=7 par1=40 par2=64
Channel Event. t= 12 (45888) Note Off ch=7 par1=28 par2=64
Channel Event. t= 0 (45888) Note On ch=7 par1=40 par2=89
Channel Event. t= 0 (45888) Note On ch=7 par1=52 par2=96
Channel Event. t= 76 (45964) Note Off ch=7 par1=40 par2=64
Channel Event. t= 1 (45965) Note Off ch=7 par1=52 par2=64
Channel Event. t= 19 (45984) Note On ch=7 par1=48 par2=80
Channel Event. t= 0 (45984) Note On ch=7 par1=60 par2=82
Channel Event. t= 23 (46007) Note Off ch=7 par1=48 par2=64
Channel Event. t= 0 (46007) Note Off ch=7 par1=60 par2=64
Channel Event. t= 17 (46024) Note On ch=7 par1=60 par2=84
Channel Event. t= 2 (46026) Note On ch=7 par1=48 par2=85
Channel Event. t= 16 (46042) Note Off ch=7 par1=48 par2=64
Channel Event. t= 1 (46043) Note Off ch=7 par1=60 par2=64
Channel Event. t= 13 (46056) Note On ch=7 par1=48 par2=81
Channel Event. t= 0 (46056) Note On ch=7 par1=60 par2=80
Channel Event. t= 24 (46080) Note Off ch=7 par1=48 par2=64
Channel Event. t= 0 (46080) Note Off ch=7 par1=60 par2=64
Channel Event. t= 0 (46080) Note On ch=7 par1=48 par2=104
Channel Event. t= 0 (46080) Note On ch=7 par1=60 par2=87
Channel Event. t= 1 (46081) Note Off ch=7 par1=48 par2=64
Channel Event. t= 0 (46081) Note Off ch=7 par1=60 par2=64
Channel Event. t= 95 (46176) Note On ch=7 par1=40 par2=94
Channel Event. t= 0 (46176) Note On ch=7 par1=52 par2=91
Channel Event. t= 96 (46272) Note Off ch=7 par1=40 par2=64
Channel Event. t= 0 (46272) Note Off ch=7 par1=52 par2=64
Channel Event. t= 0 (46272) Note On ch=7 par1=60 par2=95
Channel Event. t= 0 (46272) Note On ch=7 par1=48 par2=93
Channel Event. t= 96 (46368) Note Off ch=7 par1=60 par2=64
Channel Event. t= 0 (46368) Note Off ch=7 par1=48 par2=64
Channel Event. t= 0 (46368) Note On ch=7 par1=40 par2=90
Channel Event. t= 0 (46368) Note On ch=7 par1=52 par2=86
Channel Event. t= 96 (46464) Note Off ch=7 par1=40 par2=64
Channel Event. t= 0 (46464) Note Off ch=7 par1=52 par2=64
Channel Event. t= 0 (46464) Note On ch=7 par1=48 par2=105
Channel Event. t= 0 (46464) Note On ch=7 par1=60 par2=106
Channel Event. t= 136 (46600) Note Off ch=7 par1=60 par2=64
Channel Event. t= 3 (46603) Note Off ch=7 par1=48 par2=64
Channel Event. t= 5 (46608) Note On ch=7 par1=52 par2=95
Channel Event. t= 0 (46608) Note On ch=7 par1=40 par2=94
Channel Event. t= 27 (46635) Note Off ch=7 par1=52 par2=64
Channel Event. t= 1 (46636) Note Off ch=7 par1=40 par2=64
Channel Event. t= 20 (46656) Note On ch=7 par1=52 par2=103
Channel Event. t= 0 (46656) Note On ch=7 par1=40 par2=99
Channel Event. t= 74 (46730) Note Off ch=7 par1=52 par2=64
Channel Event. t= 10 (46740) Note Off ch=7 par1=40 par2=64
Channel Event. t= 12 (46752) Note On ch=7 par1=48 par2=91
Channel Event. t= 0 (46752) Note On ch=7 par1=60 par2=96
Channel Event. t= 21 (46773) Note Off ch=7 par1=48 par2=64
Channel Event. t= 0 (46773) Note Off ch=7 par1=60 par2=64
Channel Event. t= 15 (46788) Note On ch=7 par1=60 par2=85
Channel Event. t= 3 (46791) Note On ch=7 par1=48 par2=78
Channel Event. t= 15 (46806) Note Off ch=7 par1=60 par2=64
Channel Event. t= 5 (46811) Note Off ch=7 par1=48 par2=64
Channel Event. t= 13 (46824) Note On ch=7 par1=60 par2=79
Channel Event. t= 0 (46824) Note On ch=7 par1=48 par2=79
Channel Event. t= 24 (46848) Note Off ch=7 par1=60 par2=64
Channel Event. t= 0 (46848) Note Off ch=7 par1=48 par2=64
Channel Event. t= 0 (46848) Note On ch=7 par1=48 par2=97
Channel Event. t= 0 (46848) Note On ch=7 par1=60 par2=89
Channel Event. t= 1 (46849) Note Off ch=7 par1=48 par2=64
Channel Event. t= 0 (46849) Note Off ch=7 par1=60 par2=64
Channel Event. t= 95 (46944) Note On ch=7 par1=40 par2=96
Channel Event. t= 0 (46944) Note On ch=7 par1=52 par2=96
Channel Event. t= 96 (47040) Note Off ch=7 par1=40 par2=64
Channel Event. t= 0 (47040) Note Off ch=7 par1=52 par2=64
Channel Event. t= 0 (47040) Note On ch=7 par1=60 par2=99
Channel Event. t= 0 (47040) Note On ch=7 par1=48 par2=97
Channel Event. t= 96 (47136) Note Off ch=7 par1=60 par2=64
Channel Event. t= 0 (47136) Note Off ch=7 par1=48 par2=64
Channel Event. t= 0 (47136) Note On ch=7 par1=40 par2=94
Channel Event. t= 0 (47136) Note On ch=7 par1=52 par2=89
Channel Event. t= 96 (47232) Note Off ch=7 par1=40 par2=64
Channel Event. t= 0 (47232) Note Off ch=7 par1=52 par2=64
Channel Event. t= 0 (47232) Note On ch=7 par1=48 par2=99
Channel Event. t= 0 (47232) Note On ch=7 par1=36 par2=110
Channel Event. t= 768 (48000) Note Off ch=7 par1=36 par2=64
Channel Event. t= 4 (48004) Note Off ch=7 par1=48 par2=64
Channel Event. t= 44 (48048) Controller ch=7 par1=7 (Main Volume) par2=80
Channel Event. t= 144 (48192) Note On ch=7 par1=48 par2=54
Channel Event. t= 0 (48192) Note On ch=7 par1=36 par2=69
Channel Event. t= 82 (48274) Note Off ch=7 par1=48 par2=64
Channel Event. t= 12 (48286) Note Off ch=7 par1=36 par2=64
Channel Event. t= 98 (48384) Note On ch=7 par1=48 par2=54
Channel Event. t= 0 (48384) Note On ch=7 par1=36 par2=65
Channel Event. t= 82 (48466) Note Off ch=7 par1=48 par2=64
Channel Event. t= 19 (48485) Note Off ch=7 par1=36 par2=64
Channel Event. t= 91 (48576) Note On ch=7 par1=48 par2=67
Channel Event. t= 0 (48576) Note On ch=7 par1=36 par2=67
Channel Event. t= 51 (48627) Note Off ch=7 par1=48 par2=64
Channel Event. t= 25 (48652) Note Off ch=7 par1=36 par2=64
Channel Event. t= 116 (48768) Note On ch=7 par1=37 par2=81
Channel Event. t= 0 (48768) Note On ch=7 par1=25 par2=85
Channel Event. t= 218 (48986) Note Off ch=7 par1=25 par2=64
Channel Event. t= 15 (49001) Note Off ch=7 par1=37 par2=64
Channel Event. t= 151 (49152) Note On ch=7 par1=31 par2=78
Channel Event. t= 188 (49340) Note Off ch=7 par1=31 par2=64
Channel Event. t= 196 (49536) Note On ch=7 par1=37 par2=86
Channel Event. t= 216 (49752) Note Off ch=7 par1=37 par2=64
Channel Event. t= 168 (49920) Note On ch=7 par1=31 par2=78
Channel Event. t= 229 (50149) Note Off ch=7 par1=31 par2=64
Channel Event. t= 155 (50304) Note On ch=7 par1=37 par2=85
Channel Event. t= 219 (50523) Note Off ch=7 par1=37 par2=64
Channel Event. t= 165 (50688) Note On ch=7 par1=31 par2=78
Channel Event. t= 210 (50898) Note Off ch=7 par1=31 par2=64
Channel Event. t= 174 (51072) Note On ch=7 par1=37 par2=82
Channel Event. t= 210 (51282) Note Off ch=7 par1=37 par2=64
Channel Event. t= 174 (51456) Note On ch=7 par1=31 par2=74
Channel Event. t= 229 (51685) Note Off ch=7 par1=31 par2=64
Channel Event. t= 155 (51840) Note On ch=7 par1=37 par2=83
Channel Event. t= 224 (52064) Note Off ch=7 par1=37 par2=64
Channel Event. t= 160 (52224) Note On ch=7 par1=31 par2=73
Channel Event. t= 202 (52426) Note Off ch=7 par1=31 par2=64
Channel Event. t= 182 (52608) Note On ch=7 par1=37 par2=84
Channel Event. t= 190 (52798) Note Off ch=7 par1=37 par2=64
Channel Event. t= 194 (52992) Note On ch=7 par1=31 par2=80
Channel Event. t= 213 (53205) Note Off ch=7 par1=31 par2=64
Channel Event. t= 171 (53376) Note On ch=7 par1=37 par2=82
Channel Event. t= 215 (53591) Note Off ch=7 par1=37 par2=64
Channel Event. t= 169 (53760) Note On ch=7 par1=31 par2=83
Channel Event. t= 229 (53989) Note Off ch=7 par1=31 par2=64
Channel Event. t= 155 (54144) Note On ch=7 par1=37 par2=80
Channel Event. t= 212 (54356) Note Off ch=7 par1=37 par2=64
Channel Event. t= 172 (54528) Note On ch=7 par1=31 par2=75
Channel Event. t= 235 (54763) Note Off ch=7 par1=31 par2=64
Channel Event. t= 149 (54912) Note On ch=7 par1=37 par2=82
Channel Event. t= 208 (55120) Note Off ch=7 par1=37 par2=64
Channel Event. t= 176 (55296) Note On ch=7 par1=31 par2=74
Channel Event. t= 217 (55513) Note Off ch=7 par1=31 par2=64
Channel Event. t= 167 (55680) Note On ch=7 par1=37 par2=76
Channel Event. t= 252 (55932) Note Off ch=7 par1=37 par2=64
Channel Event. t= 132 (56064) Note On ch=7 par1=31 par2=79
Channel Event. t= 221 (56285) Note Off ch=7 par1=31 par2=64
Channel Event. t= 163 (56448) Note On ch=7 par1=37 par2=81
Channel Event. t= 232 (56680) Note Off ch=7 par1=37 par2=64
Channel Event. t= 152 (56832) Note On ch=7 par1=31 par2=79
Channel Event. t= 247 (57079) Note Off ch=7 par1=31 par2=64
Channel Event. t= 137 (57216) Note On ch=7 par1=48 par2=103
Channel Event. t= 0 (57216) Note On ch=7 par1=36 par2=83
Channel Event. t= 192 (57408) Note Off ch=7 par1=48 par2=64
Channel Event. t= 0 (57408) Note On ch=7 par1=31 par2=79
Channel Event. t= 0 (57408) Note On ch=7 par1=43 par2=74
Channel Event. t= 3 (57411) Note Off ch=7 par1=36 par2=64
Channel Event. t= 565 (57976) Note Off ch=7 par1=43 par2=64
Channel Event. t= 2 (57978) Note Off ch=7 par1=31 par2=64
Channel Event. t= 6 (57984) Note On ch=7 par1=43 par2=78
Channel Event. t= 0 (57984) Note On ch=7 par1=31 par2=77
Channel Event. t= 744 (58728) Note Off ch=7 par1=31 par2=64
Channel Event. t= 0 (58728) Note Off ch=7 par1=43 par2=64
Channel Event. t= 24 (58752) Note On ch=7 par1=60 par2=102
Channel Event. t= 0 (58752) Note On ch=7 par1=48 par2=96
Channel Event. t= 0 (58752) Controller ch=7 par1=7 (Main Volume) par2=102
Channel Event. t= 89 (58841) Note Off ch=7 par1=60 par2=64
Channel Event. t= 1 (58842) Note Off ch=7 par1=48 par2=64
Channel Event. t= 54 (58896) Note On ch=7 par1=40 par2=88
Channel Event. t= 0 (58896) Note On ch=7 par1=52 par2=88
Channel Event. t= 28 (58924) Note Off ch=7 par1=52 par2=64
Channel Event. t= 3 (58927) Note Off ch=7 par1=40 par2=64
Channel Event. t= 17 (58944) Note On ch=7 par1=52 par2=96
Channel Event. t= 0 (58944) Note On ch=7 par1=40 par2=94
Channel Event. t= 48 (58992) Note Off ch=7 par1=40 par2=64
Channel Event. t= 1 (58993) Note Off ch=7 par1=52 par2=64
Channel Event. t= 47 (59040) Note On ch=7 par1=48 par2=86
Channel Event. t= 0 (59040) Note On ch=7 par1=60 par2=94
Channel Event. t= 20 (59060) Note Off ch=7 par1=60 par2=64
Channel Event. t= 2 (59062) Note Off ch=7 par1=48 par2=64
Channel Event. t= 14 (59076) Note On ch=7 par1=60 par2=99
Channel Event. t= 4 (59080) Note On ch=7 par1=48 par2=84
Channel Event. t= 15 (59095) Note Off ch=7 par1=60 par2=64
Channel Event. t= 3 (59098) Note Off ch=7 par1=48 par2=64
Channel Event. t= 14 (59112) Note On ch=7 par1=48 par2=89
Channel Event. t= 0 (59112) Note On ch=7 par1=60 par2=91
Channel Event. t= 24 (59136) Note Off ch=7 par1=48 par2=64
Channel Event. t= 0 (59136) Note Off ch=7 par1=60 par2=64
Channel Event. t= 0 (59136) Note On ch=7 par1=48 par2=97
Channel Event. t= 0 (59136) Note On ch=7 par1=60 par2=98
Channel Event. t= 1 (59137) Note Off ch=7 par1=48 par2=64
Channel Event. t= 0 (59137) Note Off ch=7 par1=60 par2=64
Channel Event. t= 95 (59232) Note On ch=7 par1=40 par2=93
Channel Event. t= 0 (59232) Note On ch=7 par1=52 par2=91
Channel Event. t= 96 (59328) Note Off ch=7 par1=40 par2=64
Channel Event. t= 0 (59328) Note Off ch=7 par1=52 par2=64
Channel Event. t= 0 (59328) Note On ch=7 par1=60 par2=102
Channel Event. t= 0 (59328) Note On ch=7 par1=48 par2=97
Channel Event. t= 72 (59400) Note Off ch=7 par1=60 par2=64
Channel Event. t= 0 (59400) Note Off ch=7 par1=48 par2=64
Channel Event. t= 24 (59424) Note On ch=7 par1=48 par2=93
Channel Event. t= 0 (59424) Note On ch=7 par1=60 par2=98
Channel Event. t= 72 (59496) Note Off ch=7 par1=48 par2=64
Channel Event. t= 0 (59496) Note Off ch=7 par1=60 par2=64
Channel Event. t= 24 (59520) Note On ch=7 par1=60 par2=100
Channel Event. t= 0 (59520) Note On ch=7 par1=48 par2=97
Channel Event. t= 34 (59554) Note Off ch=7 par1=60 par2=64
Channel Event. t= 0 (59554) Note Off ch=7 par1=48 par2=64
Channel Event. t= 14 (59568) Note On ch=7 par1=60 par2=89
Channel Event. t= 0 (59568) Note On ch=7 par1=48 par2=89
Channel Event. t= 28 (59596) Note Off ch=7 par1=60 par2=64
Channel Event. t= 1 (59597) Note Off ch=7 par1=48 par2=64
Channel Event. t= 19 (59616) Note On ch=7 par1=60 par2=98
Channel Event. t= 0 (59616) Note On ch=7 par1=48 par2=90
Channel Event. t= 27 (59643) Note Off ch=7 par1=60 par2=64
Channel Event. t= 2 (59645) Note Off ch=7 par1=48 par2=64
Channel Event. t= 19 (59664) Note On ch=7 par1=60 par2=88
Channel Event. t= 0 (59664) Note On ch=7 par1=48 par2=87
Channel Event. t= 45 (59709) Note Off ch=7 par1=60 par2=64
Channel Event. t= 3 (59712) Note On ch=7 par1=40 par2=95
Channel Event. t= 0 (59712) Note On ch=7 par1=52 par2=97
Channel Event. t= 6 (59718) Note Off ch=7 par1=48 par2=64
Channel Event. t= 186 (59904) Note Off ch=7 par1=40 par2=64
Channel Event. t= 0 (59904) Note Off ch=7 par1=52 par2=64
Channel Event. t= 0 (59904) Note On ch=7 par1=60 par2=102
Channel Event. t= 0 (59904) Note On ch=7 par1=48 par2=99
Channel Event. t= 192 (60096) Note Off ch=7 par1=60 par2=64
Channel Event. t= 0 (60096) Note Off ch=7 par1=48 par2=64
Channel Event. t= 0 (60096) Note On ch=7 par1=40 par2=98
Channel Event. t= 0 (60096) Note On ch=7 par1=52 par2=97
Channel Event. t= 192 (60288) Note Off ch=7 par1=40 par2=64
Channel Event. t= 0 (60288) Note Off ch=7 par1=52 par2=64
Channel Event. t= 0 (60288) Note On ch=7 par1=43 par2=85
Channel Event. t= 0 (60288) Note On ch=7 par1=31 par2=88
Channel Event. t= 192 (60480) Note On ch=7 par1=59 par2=79
Channel Event. t= 0 (60480) Note On ch=7 par1=55 par2=71
Channel Event. t= 192 (60672) Note Off ch=7 par1=59 par2=64
Channel Event. t= 0 (60672) Note Off ch=7 par1=55 par2=64
Channel Event. t= 0 (60672) Note On ch=7 par1=55 par2=83
Channel Event. t= 0 (60672) Note On ch=7 par1=59 par2=80
Channel Event. t= 1 (60673) Note Off ch=7 par1=55 par2=64
Channel Event. t= 0 (60673) Note Off ch=7 par1=59 par2=64
Channel Event. t= 191 (60864) Note On ch=7 par1=59 par2=93
Channel Event. t= 0 (60864) Note On ch=7 par1=55 par2=91
Channel Event. t= 192 (61056) Note Off ch=7 par1=59 par2=64
Channel Event. t= 0 (61056) Note Off ch=7 par1=55 par2=64
Channel Event. t= 0 (61056) Note On ch=7 par1=48 par2=104
Channel Event. t= 0 (61056) Note On ch=7 par1=36 par2=106
Channel Event. t= 20 (61076) Note Off ch=7 par1=31 par2=64
Channel Event. t= 4 (61080) Note Off ch=7 par1=43 par2=64
Channel Event. t= 744 (61824) Note Off ch=7 par1=36 par2=64
Channel Event. t= 0 (61824) Note Off ch=7 par1=48 par2=64
Channel Event. t= 0 (61824) 
Meta Event. Type: 0x2f (47dec), End of Track (0 bytes): 
track #48
track size: 33
Channel Event. t= 0 (0) 
Meta Event. Type: 0x21 (33dec), MIDI Port (1 bytes): 0
Channel Event. t= 0 (0) 
Meta Event. Type: 0x3 (3dec), Sequence/Track Name (20 bytes):                     
Channel Event. t= 0 (0) 
Meta Event. Type: 0x2f (47dec), End of Track (0 bytes): 
track #49
track size: 33
Channel Event. t= 0 (0) 
Meta Event. Type: 0x21 (33dec), MIDI Port (1 bytes): 0
Channel Event. t= 0 (0) 
Meta Event. Type: 0x3 (3dec), Sequence/Track Name (20 bytes):      PART SIX       
Channel Event. t= 0 (0) 
Meta Event. Type: 0x2f (47dec), End of Track (0 bytes): 
track #50
track size: 33
Channel Event. t= 0 (0) 
Meta Event. Type: 0x21 (33dec), MIDI Port (1 bytes): 0
Channel Event. t= 0 (0) 
Meta Event. Type: 0x3 (3dec), Sequence/Track Name (20 bytes): THE PARADE HOME     
Channel Event. t= 0 (0) 
Meta Event. Type: 0x2f (47dec), End of Track (0 bytes): 
track #51
track size: 33
Channel Event. t= 0 (0) 
Meta Event. Type: 0x21 (33dec), MIDI Port (1 bytes): 0
Channel Event. t= 0 (0) 
Meta Event. Type: 0x3 (3dec), Sequence/Track Name (20 bytes):                     
Channel Event. t= 0 (0) 
Meta Event. Type: 0x2f (47dec), End of Track (0 bytes): 
track #52
track size: 10796
Channel Event. t= 0 (0) 
Meta Event. Type: 0x21 (33dec), MIDI Port (1 bytes): 0
Channel Event. t= 0 (0) 
Meta Event. Type: 0x3 (3dec), Sequence/Track Name (20 bytes): Strings             
Channel Event. t= 0 (0) Program Change ch=5 par1=48 par2=-110
Channel Event. t= 14808 (14808) Controller ch=5 par1=10 (Pan) par2=60
Channel Event. t= 540 (15348) Controller ch=5 par1=7 (Pan) par2=70
Channel Event. t= 12 (15360) Note On ch=5 par1=43 par2=44
Channel Event. t= 0 (15360) Note On ch=5 par1=36 par2=40
Channel Event. t= 62 (15422) Note Off ch=5 par1=43 par2=64
Channel Event. t= 5 (15427) Note Off ch=5 par1=36 par2=64
Channel Event. t= 89 (15516) Note On ch=5 par1=60 par2=51
Channel Event. t= 12 (15528) Note On ch=5 par1=64 par2=67
Channel Event. t= 12 (15540) Note On ch=5 par1=67 par2=54
Channel Event. t= 12 (15552) Note On ch=5 par1=52 par2=60
Channel Event. t= 0 (15552) Note On ch=5 par1=43 par2=46
Channel Event. t= 0 (15552) Note On ch=5 par1=72 par2=59
Channel Event. t= 10 (15562) Note Off ch=5 par1=60 par2=64
Channel Event. t= 12 (15574) Note Off ch=5 par1=64 par2=64
Channel Event. t= 7 (15581) Note Off ch=5 par1=67 par2=64
Channel Event. t= 1 (15582) Note Off ch=5 par1=72 par2=64
Channel Event. t= 37 (15619) Note Off ch=5 par1=43 par2=64
Channel Event. t= 13 (15632) Note Off ch=5 par1=52 par2=64
Channel Event. t= 76 (15708) Note On ch=5 par1=71 par2=64
Channel Event. t= 12 (15720) Note On ch=5 par1=75 par2=64
Channel Event. t= 12 (15732) Note On ch=5 par1=78 par2=52
Channel Event. t= 8 (15740) Note Off ch=5 par1=71 par2=64
Channel Event. t= 4 (15744) Note On ch=5 par1=47 par2=45
Channel Event. t= 0 (15744) Note On ch=5 par1=39 par2=62
Channel Event. t= 0 (15744) Note On ch=5 par1=83 par2=78
Channel Event. t= 6 (15750) Note Off ch=5 par1=78 par2=64
Channel Event. t= 2 (15752) Note Off ch=5 par1=75 par2=64
Channel Event. t= 30 (15782) Note Off ch=5 par1=83 par2=64
Channel Event. t= 46 (15828) Note Off ch=5 par1=39 par2=64
Channel Event. t= 6 (15834) Note Off ch=5 par1=47 par2=64
Channel Event. t= 66 (15900) Note On ch=5 par1=66 par2=80
Channel Event. t= 12 (15912) Note On ch=5 par1=71 par2=59
Channel Event. t= 12 (15924) Note On ch=5 par1=75 par2=71
Channel Event. t= 12 (15936) Note On ch=5 par1=55 par2=42
Channel Event. t= 0 (15936) Note On ch=5 par1=63 par2=44
Channel Event. t= 0 (15936) Note On ch=5 par1=78 par2=80
Channel Event. t= 16 (15952) Note Off ch=5 par1=71 par2=64
Channel Event. t= 9 (15961) Note Off ch=5 par1=66 par2=64
Channel Event. t= 1 (15962) Note Off ch=5 par1=75 par2=64
Channel Event. t= 15 (15977) Note Off ch=5 par1=78 par2=64
Channel Event. t= 38 (16015) Note Off ch=5 par1=55 par2=64
Channel Event. t= 2 (16017) Note Off ch=5 par1=63 par2=64
Channel Event. t= 77 (16094) Note On ch=5 par1=79 par2=64
Channel Event. t= 13 (16107) Note On ch=5 par1=84 par2=56
Channel Event. t= 10 (16117) Note On ch=5 par1=88 par2=41
Channel Event. t= 9 (16126) Note Off ch=5 par1=79 par2=64
Channel Event. t= 2 (16128) Note On ch=5 par1=55 par2=41
Channel Event. t= 0 (16128) Note On ch=5 par1=48 par2=27
Channel Event. t= 0 (16128) Note On ch=5 par1=91 par2=76
Channel Event. t= 7 (16135) Note Off ch=5 par1=84 par2=64
Channel Event. t= 7 (16142) Note Off ch=5 par1=88 par2=64
Channel Event. t= 13 (16155) Note Off ch=5 par1=91 par2=64
Channel Event. t= 50 (16205) Note Off ch=5 par1=48 par2=64
Channel Event. t= 4 (16209) Note Off ch=5 par1=55 par2=64
Channel Event. t= 85 (16294) Note On ch=5 par1=72 par2=58
Channel Event. t= 13 (16307) Note On ch=5 par1=76 par2=63
Channel Event. t= 12 (16319) Note On ch=5 par1=79 par2=73
Channel Event. t= 1 (16320) Note On ch=5 par1=64 par2=40
Channel Event. t= 0 (16320) Note On ch=5 par1=55 par2=38
Channel Event. t= 0 (16320) Note On ch=5 par1=84 par2=64
Channel Event. t= 18 (16338) Note Off ch=5 par1=72 par2=64
Channel Event. t= 11 (16349) Note Off ch=5 par1=76 par2=64
Channel Event. t= 3 (16352) Note Off ch=5 par1=84 par2=64
Channel Event. t= 10 (16362) Note Off ch=5 par1=79 par2=64
Channel Event. t= 26 (16388) Note Off ch=5 par1=55 par2=64
Channel Event. t= 5 (16393) Note Off ch=5 par1=64 par2=64
Channel Event. t= 71 (16464) Note On ch=5 par1=71 par2=61
Channel Event. t= 12 (16476) Note On ch=5 par1=75 par2=74
Channel Event. t= 12 (16488) Note On ch=5 par1=66 par2=64
Channel Event. t= 11 (16499) Note Off ch=5 par1=71 par2=64
Channel Event. t= 1 (16500) Note On ch=5 par1=78 par2=75
Channel Event. t= 12 (16512) Note Off ch=5 par1=75 par2=64
Channel Event. t= 0 (16512) Note On ch=5 par1=59 par2=32
Channel Event. t= 0 (16512) Note On ch=5 par1=51 par2=46
Channel Event. t= 0 (16512) Note On ch=5 par1=83 par2=70
Channel Event. t= 22 (16534) Note Off ch=5 par1=78 par2=64
Channel Event. t= 6 (16540) Note Off ch=5 par1=66 par2=64
Channel Event. t= 3 (16543) Note Off ch=5 par1=83 par2=64
Channel Event. t= 47 (16590) Note Off ch=5 par1=51 par2=64
Channel Event. t= 6 (16596) Note Off ch=5 par1=59 par2=64
Channel Event. t= 60 (16656) Note On ch=5 par1=66 par2=64
Channel Event. t= 12 (16668) Note On ch=5 par1=71 par2=64
Channel Event. t= 20 (16688) Note Off ch=5 par1=66 par2=64
Channel Event. t= 4 (16692) Note On ch=5 par1=75 par2=64
Channel Event. t= 8 (16700) Note Off ch=5 par1=71 par2=64
Channel Event. t= 4 (16704) Note On ch=5 par1=55 par2=34
Channel Event. t= 0 (16704) Note On ch=5 par1=63 par2=52
Channel Event. t= 11 (16715) Note On ch=5 par1=78 par2=64
Channel Event. t= 9 (16724) Note Off ch=5 par1=75 par2=64
Channel Event. t= 23 (16747) Note Off ch=5 par1=78 par2=64
Channel Event. t= 29 (16776) Note Off ch=5 par1=55 par2=64
Channel Event. t= 0 (16776) Note Off ch=5 par1=63 par2=64
Channel Event. t= 108 (16884) Note On ch=5 par1=67 par2=54
Channel Event. t= 12 (16896) Note On ch=5 par1=55 par2=27
Channel Event. t= 0 (16896) Note On ch=5 par1=48 par2=41
Channel Event. t= 0 (16896) Note On ch=5 par1=72 par2=61
Channel Event. t= 12 (16908) Note On ch=5 par1=76 par2=68
Channel Event. t= 0 (16908) Note On ch=5 par1=79 par2=75
Channel Event. t= 16 (16924) Note Off ch=5 par1=67 par2=64
Channel Event. t= 18 (16942) Note Off ch=5 par1=72 par2=64
Channel Event. t= 6 (16948) Note Off ch=5 par1=76 par2=64
Channel Event. t= 0 (16948) Note Off ch=5 par1=79 par2=64
Channel Event. t= 34 (16982) Note Off ch=5 par1=55 par2=64
Channel Event. t= 8 (16990) Note Off ch=5 par1=48 par2=64
Channel Event. t= 86 (17076) Note On ch=5 par1=64 par2=30
Channel Event. t= 12 (17088) Note On ch=5 par1=67 par2=54
Channel Event. t= 0 (17088) Note On ch=5 par1=60 par2=33
Channel Event. t= 0 (17088) Note On ch=5 par1=52 par2=38
Channel Event. t= 12 (17100) Note On ch=5 par1=72 par2=46
Channel Event. t= 4 (17104) Note Off ch=5 par1=64 par2=64
Channel Event. t= 22 (17126) Note Off ch=5 par1=67 par2=64
Channel Event. t= 1 (17127) Note Off ch=5 par1=72 par2=64
Channel Event. t= 35 (17162) Note Off ch=5 par1=60 par2=64
Channel Event. t= 7 (17169) Note Off ch=5 par1=52 par2=64
Channel Event. t= 87 (17256) Note On ch=5 par1=71 par2=56
Channel Event. t= 12 (17268) Note On ch=5 par1=75 par2=71
Channel Event. t= 12 (17280) Note On ch=5 par1=39 par2=30
Channel Event. t= 0 (17280) Note On ch=5 par1=47 par2=41
Channel Event. t= 0 (17280) Note On ch=5 par1=78 par2=77
Channel Event. t= 12 (17292) Note Off ch=5 par1=71 par2=64
Channel Event. t= 0 (17292) Note On ch=5 par1=83 par2=78
Channel Event. t= 12 (17304) Note Off ch=5 par1=75 par2=64
Channel Event. t= 9 (17313) Note Off ch=5 par1=78 par2=64
Channel Event. t= 13 (17326) Note Off ch=5 par1=83 par2=64
Channel Event. t= 45 (17371) Note Off ch=5 par1=47 par2=64
Channel Event. t= 1 (17372) Note Off ch=5 par1=39 par2=64
Channel Event. t= 76 (17448) Note On ch=5 par1=66 par2=51
Channel Event. t= 12 (17460) Note On ch=5 par1=71 par2=62
Channel Event. t= 12 (17472) Note On ch=5 par1=75 par2=64
Channel Event. t= 0 (17472) Note On ch=5 par1=51 par2=54
Channel Event. t= 0 (17472) Note On ch=5 par1=43 par2=36
Channel Event. t= 12 (17484) Note On ch=5 par1=78 par2=68
Channel Event. t= 5 (17489) Note Off ch=5 par1=66 par2=64
Channel Event. t= 13 (17502) Note Off ch=5 par1=71 par2=64
Channel Event. t= 1 (17503) Note Off ch=5 par1=75 par2=64
Channel Event. t= 12 (17515) Note Off ch=5 par1=78 par2=64
Channel Event. t= 26 (17541) Note Off ch=5 par1=43 par2=64
Channel Event. t= 1 (17542) Note Off ch=5 par1=51 par2=64
Channel Event. t= 98 (17640) Note On ch=5 par1=79 par2=48
Channel Event. t= 12 (17652) Note On ch=5 par1=84 par2=71
Channel Event. t= 12 (17664) Note On ch=5 par1=36 par2=33
Channel Event. t= 0 (17664) Note On ch=5 par1=43 par2=44
Channel Event. t= 0 (17664) Note On ch=5 par1=88 par2=61
Channel Event. t= 12 (17676) Note On ch=5 par1=91 par2=71
Channel Event. t= 4 (17680) Note Off ch=5 par1=79 par2=64
Channel Event. t= 12 (17692) Note Off ch=5 par1=84 par2=64
Channel Event. t= 3 (17695) Note Off ch=5 par1=88 par2=64
Channel Event. t= 1 (17696) Note Off ch=5 par1=91 par2=64
Channel Event. t= 49 (17745) Note Off ch=5 par1=36 par2=64
Channel Event. t= 4 (17749) Note Off ch=5 par1=43 par2=64
Channel Event. t= 71 (17820) Note On ch=5 par1=72 par2=45
Channel Event. t= 24 (17844) Note On ch=5 par1=79 par2=61
Channel Event. t= 0 (17844) Note On ch=5 par1=76 par2=61
Channel Event. t= 12 (17856) Note On ch=5 par1=84 par2=72
Channel Event. t= 0 (17856) Note On ch=5 par1=52 par2=33
Channel Event. t= 0 (17856) Note On ch=5 par1=43 par2=32
Channel Event. t= 8 (17864) Note Off ch=5 par1=72 par2=64
Channel Event. t= 14 (17878) Note Off ch=5 par1=84 par2=64
Channel Event. t= 2 (17880) Note Off ch=5 par1=79 par2=64
Channel Event. t= 5 (17885) Note Off ch=5 par1=76 par2=64
Channel Event. t= 43 (17928) Note Off ch=5 par1=52 par2=64
Channel Event. t= 3 (17931) Note Off ch=5 par1=43 par2=64
Channel Event. t= 81 (18012) Note On ch=5 par1=71 par2=55
Channel Event. t= 12 (18024) Note On ch=5 par1=75 par2=73
Channel Event. t= 12 (18036) Note On ch=5 par1=78 par2=77
Channel Event. t= 0 (18036) Note On ch=5 par1=83 par2=80
Channel Event. t= 12 (18048) Note On ch=5 par1=47 par2=38
Channel Event. t= 0 (18048) Note On ch=5 par1=39 par2=51
Channel Event. t= 3 (18051) Note Off ch=5 par1=71 par2=64
Channel Event. t= 14 (18065) Note Off ch=5 par1=75 par2=64
Channel Event. t= 5 (18070) Note Off ch=5 par1=83 par2=64
Channel Event. t= 5 (18075) Note Off ch=5 par1=78 par2=64
Channel Event. t= 73 (18148) Note Off ch=5 par1=47 par2=64
Channel Event. t= 0 (18148) Note Off ch=5 par1=39 par2=64
Channel Event. t= 56 (18204) Note On ch=5 par1=66 par2=51
Channel Event. t= 24 (18228) Note On ch=5 par1=71 par2=61
Channel Event. t= 12 (18240) Note On ch=5 par1=78 par2=71
Channel Event. t= 0 (18240) Note On ch=5 par1=75 par2=70
Channel Event. t= 0 (18240) Note On ch=5 par1=43 par2=26
Channel Event. t= 0 (18240) Note On ch=5 par1=51 par2=46
Channel Event. t= 9 (18249) Note Off ch=5 par1=66 par2=64
Channel Event. t= 14 (18263) Note Off ch=5 par1=78 par2=64
Channel Event. t= 2 (18265) Note Off ch=5 par1=71 par2=64
Channel Event. t= 3 (18268) Note Off ch=5 par1=75 par2=64
Channel Event. t= 33 (18301) Note Off ch=5 par1=43 par2=64
Channel Event. t= 5 (18306) Note Off ch=5 par1=51 par2=64
Channel Event. t= 126 (18432) Note On ch=5 par1=36 par2=39
Channel Event. t= 0 (18432) Note On ch=5 par1=43 par2=43
Channel Event. t= 97 (18529) Note Off ch=5 par1=36 par2=64
Channel Event. t= 6 (18535) Note Off ch=5 par1=43 par2=64
Channel Event. t= 29 (18564) Note On ch=5 par1=64 par2=70
Channel Event. t= 24 (18588) Note On ch=5 par1=67 par2=68
Channel Event. t= 24 (18612) Note On ch=5 par1=72 par2=76
Channel Event. t= 7 (18619) Note Off ch=5 par1=64 par2=64
Channel Event. t= 5 (18624) Note On ch=5 par1=52 par2=40
Channel Event. t= 0 (18624) Note On ch=5 par1=43 par2=37
Channel Event. t= 8 (18632) Note On ch=5 par1=76 par2=67
Channel Event. t= 10 (18642) Note Off ch=5 par1=67 par2=64
Channel Event. t= 18 (18660) Note Off ch=5 par1=72 par2=64
Channel Event. t= 11 (18671) Note Off ch=5 par1=76 par2=64
Channel Event. t= 23 (18694) Note Off ch=5 par1=52 par2=64
Channel Event. t= 3 (18697) Note Off ch=5 par1=43 par2=64
Channel Event. t= 119 (18816) Note On ch=5 par1=47 par2=44
Channel Event. t= 0 (18816) Note On ch=5 par1=39 par2=59
Channel Event. t= 113 (18929) Note Off ch=5 par1=39 par2=64
Channel Event. t= 11 (18940) Note Off ch=5 par1=47 par2=64
Channel Event. t= 68 (19008) Note On ch=5 par1=51 par2=50
Channel Event. t= 0 (19008) Note On ch=5 par1=43 par2=39
Channel Event. t= 64 (19072) Note Off ch=5 par1=43 par2=64
Channel Event. t= 9 (19081) Note Off ch=5 par1=51 par2=64
Channel Event. t= 119 (19200) Note On ch=5 par1=48 par2=39
Channel Event. t= 0 (19200) Note On ch=5 par1=55 par2=43
Channel Event. t= 93 (19293) Note Off ch=5 par1=48 par2=64
Channel Event. t= 9 (19302) Note Off ch=5 par1=55 par2=64
Channel Event. t= 66 (19368) Note On ch=5 par1=67 par2=45
Channel Event. t= 12 (19380) Note On ch=5 par1=72 par2=72
Channel Event. t= 12 (19392) Note On ch=5 par1=76 par2=61
Channel Event. t= 0 (19392) Note On ch=5 par1=55 par2=32
Channel Event. t= 0 (19392) Note On ch=5 par1=64 par2=37
Channel Event. t= 11 (19403) Note Off ch=5 par1=67 par2=64
Channel Event. t= 4 (19407) Note On ch=5 par1=79 par2=76
Channel Event. t= 6 (19413) Note Off ch=5 par1=72 par2=64
Channel Event. t= 4 (19417) Note Off ch=5 par1=76 par2=64
Channel Event. t= 14 (19431) Note Off ch=5 par1=79 par2=64
Channel Event. t= 28 (19459) Note Off ch=5 par1=55 par2=64
Channel Event. t= 7 (19466) Note Off ch=5 par1=64 par2=64
Channel Event. t= 118 (19584) Note On ch=5 par1=51 par2=47
Channel Event. t= 0 (19584) Note On ch=5 par1=59 par2=42
Channel Event. t= 99 (19683) Note Off ch=5 par1=59 par2=64
Channel Event. t= 6 (19689) Note Off ch=5 par1=51 par2=64
Channel Event. t= 87 (19776) Note On ch=5 par1=55 par2=34
Channel Event. t= 0 (19776) Note On ch=5 par1=63 par2=49
Channel Event. t= 58 (19834) Note Off ch=5 par1=63 par2=64
Channel Event. t= 11 (19845) Note Off ch=5 par1=55 par2=64
Channel Event. t= 111 (19956) Controller ch=5 par1=7 (Main Volume) par2=80
Channel Event. t= 0 (19956) Note On ch=5 par1=67 par2=66
Channel Event. t= 0 (19956) Note On ch=5 par1=64 par2=56
Channel Event. t= 12 (19968) Note On ch=5 par1=60 par2=80
Channel Event. t= 0 (19968) Note On ch=5 par1=36 par2=33
Channel Event. t= 0 (19968) Note On ch=5 par1=43 par2=34
Channel Event. t= 0 (19968) Note On ch=5 par1=52 par2=70
Channel Event. t= 102 (20070) Note Off ch=5 par1=43 par2=64
Channel Event. t= 1 (20071) Note Off ch=5 par1=36 par2=64
Channel Event. t= 59 (20130) Note Off ch=5 par1=52 par2=64
Channel Event. t= 30 (20160) Note On ch=5 par1=55 par2=49
Channel Event. t= 0 (20160) Note On ch=5 par1=52 par2=56
Channel Event. t= 121 (20281) Note Off ch=5 par1=67 par2=64
Channel Event. t= 31 (20312) Note Off ch=5 par1=64 par2=64
Channel Event. t= 10 (20322) Note Off ch=5 par1=55 par2=64
Channel Event. t= 6 (20328) Note On ch=5 par1=69 par2=74
Channel Event. t= 0 (20328) Note On ch=5 par1=72 par2=80
Channel Event. t= 4 (20332) Note Off ch=5 par1=52 par2=64
Channel Event. t= 20 (20352) Note On ch=5 par1=67 par2=77
Channel Event. t= 0 (20352) Note On ch=5 par1=40 par2=41
Channel Event. t= 0 (20352) Note On ch=5 par1=47 par2=42
Channel Event. t= 0 (20352) Note On ch=5 par1=55 par2=44
Channel Event. t= 0 (20352) Note On ch=5 par1=57 par2=61
Channel Event. t= 13 (20365) Note Off ch=5 par1=60 par2=64
Channel Event. t= 83 (20448) Note Off ch=5 par1=40 par2=64
Channel Event. t= 14 (20462) Note Off ch=5 par1=47 par2=64
Channel Event. t= 71 (20533) Note Off ch=5 par1=57 par2=64
Channel Event. t= 2 (20535) Note Off ch=5 par1=55 par2=64
Channel Event. t= 9 (20544) Note On ch=5 par1=52 par2=46
Channel Event. t= 0 (20544) Note On ch=5 par1=57 par2=45
Channel Event. t= 47 (20591) Note Off ch=5 par1=72 par2=64
Channel Event. t= 10 (20601) Note Off ch=5 par1=69 par2=64
Channel Event. t= 27 (20628) Note On ch=5 par1=72 par2=64
Channel Event. t= 0 (20628) Note On ch=5 par1=76 par2=79
Channel Event. t= 12 (20640) Note On ch=5 par1=69 par2=76
Channel Event. t= 26 (20666) Note Off ch=5 par1=67 par2=64
Channel Event. t= 28 (20694) Note Off ch=5 par1=72 par2=64
Channel Event. t= 4 (20698) Note Off ch=5 par1=52 par2=64
Channel Event. t= 19 (20717) Note Off ch=5 par1=57 par2=64
Channel Event. t= 7 (20724) Note On ch=5 par1=79 par2=82
Channel Event. t= 5 (20729) Note Off ch=5 par1=69 par2=64
Channel Event. t= 7 (20736) Note On ch=5 par1=72 par2=80
Channel Event. t= 0 (20736) Note On ch=5 par1=43 par2=44
Channel Event. t= 0 (20736) Note On ch=5 par1=36 par2=36
Channel Event. t= 0 (20736) Note On ch=5 par1=52 par2=42
Channel Event. t= 114 (20850) Note Off ch=5 par1=43 par2=64
Channel Event. t= 3 (20853) Note Off ch=5 par1=36 par2=64
Channel Event. t= 23 (20876) Note Off ch=5 par1=52 par2=64
Channel Event. t= 14 (20890) Note Off ch=5 par1=76 par2=64
Channel Event. t= 7 (20897) Note Off ch=5 par1=79 par2=64
Channel Event. t= 19 (20916) Note On ch=5 par1=81 par2=79
Channel Event. t= 0 (20916) Note On ch=5 par1=79 par2=69
Channel Event. t= 12 (20928) Note On ch=5 par1=76 par2=66
Channel Event. t= 0 (20928) Note On ch=5 par1=52 par2=50
Channel Event. t= 0 (20928) Note On ch=5 par1=57 par2=55
Channel Event. t= 1 (20929) Note Off ch=5 par1=72 par2=64
Channel Event. t= 116 (21045) Note Off ch=5 par1=52 par2=64
Channel Event. t= 32 (21077) Note Off ch=5 par1=57 par2=64
Channel Event. t= 13 (21090) Note Off ch=5 par1=79 par2=64
Channel Event. t= 3 (21093) Note Off ch=5 par1=81 par2=64
Channel Event. t= 15 (21108) Note Off ch=5 par1=76 par2=64
Channel Event. t= 0 (21108) Note On ch=5 par1=76 par2=92
Channel Event. t= 0 (21108) Note On ch=5 par1=79 par2=94
Channel Event. t= 12 (21120) Note On ch=5 par1=72 par2=87
Channel Event. t= 0 (21120) Note On ch=5 par1=40 par2=47
Channel Event. t= 0 (21120) Note On ch=5 par1=47 par2=46
Channel Event. t= 0 (21120) Note On ch=5 par1=55 par2=67
Channel Event. t= 80 (21200) Note Off ch=5 par1=40 par2=64
Channel Event. t= 7 (21207) Note Off ch=5 par1=47 par2=64
Channel Event. t= 65 (21272) Note Off ch=5 par1=55 par2=64
Channel Event. t= 40 (21312) Note On ch=5 par1=52 par2=49
Channel Event. t= 0 (21312) Note On ch=5 par1=57 par2=49
Channel Event. t= 81 (21393) Note Off ch=5 par1=72 par2=64
Channel Event. t= 4 (21397) Note Off ch=5 par1=76 par2=64
Channel Event. t= 4 (21401) Note Off ch=5 par1=79 par2=64
Channel Event. t= 7 (21408) Note On ch=5 par1=69 par2=76
Channel Event. t= 12 (21420) Note On ch=5 par1=76 par2=53
Channel Event. t= 0 (21420) Note On ch=5 par1=72 par2=58
Channel Event. t= 50 (21470) Note Off ch=5 par1=52 par2=64
Channel Event. t= 9 (21479) Note Off ch=5 par1=57 par2=64
Channel Event. t= 4 (21483) Note Off ch=5 par1=76 par2=64
Channel Event. t= 0 (21483) Note Off ch=5 par1=72 par2=64
Channel Event. t= 21 (21504) Note On ch=5 par1=72 par2=69
Channel Event. t= 0 (21504) Note On ch=5 par1=36 par2=40
Channel Event. t= 0 (21504) Note On ch=5 par1=43 par2=41
Channel Event. t= 0 (21504) Note On ch=5 par1=52 par2=58
Channel Event. t= 0 (21504) Note On ch=5 par1=76 par2=62
Channel Event. t= 0 (21504) Note On ch=5 par1=79 par2=66
Channel Event. t= 2 (21506) Note Off ch=5 par1=69 par2=64
Channel Event. t= 85 (21591) Note Off ch=5 par1=36 par2=64
Channel Event. t= 4 (21595) Note Off ch=5 par1=43 par2=64
Channel Event. t= 64 (21659) Note Off ch=5 par1=76 par2=64
Channel Event. t= 5 (21664) Note Off ch=5 par1=52 par2=64
Channel Event. t= 6 (21670) Note Off ch=5 par1=79 par2=64
Channel Event. t= 14 (21684) Note On ch=5 par1=81 par2=66
Channel Event. t= 0 (21684) Note On ch=5 par1=79 par2=63
Channel Event. t= 12 (21696) Note On ch=5 par1=76 par2=60
Channel Event. t= 0 (21696) Note On ch=5 par1=52 par2=48
Channel Event. t= 0 (21696) Note On ch=5 par1=55 par2=52
Channel Event. t= 2 (21698) Note Off ch=5 par1=72 par2=64
Channel Event. t= 170 (21868) Note Off ch=5 par1=52 par2=64
Channel Event. t= 2 (21870) Note Off ch=5 par1=81 par2=64
Channel Event. t= 0 (21870) Note Off ch=5 par1=79 par2=64
Channel Event. t= 9 (21879) Note Off ch=5 par1=55 par2=64
Channel Event. t= 9 (21888) Note On ch=5 par1=75 par2=99
Channel Event. t= 0 (21888) Note On ch=5 par1=40 par2=35
Channel Event. t= 0 (21888) Note On ch=5 par1=47 par2=40
Channel Event. t= 0 (21888) Note On ch=5 par1=51 par2=54
Channel Event. t= 0 (21888) Note On ch=5 par1=54 par2=61
Channel Event. t= 0 (21888) Note On ch=5 par1=83 par2=96
Channel Event. t= 0 (21888) Note On ch=5 par1=78 par2=98
Channel Event. t= 18 (21906) Note Off ch=5 par1=76 par2=64
Channel Event. t= 64 (21970) Note Off ch=5 par1=40 par2=64
Channel Event. t= 8 (21978) Note Off ch=5 par1=47 par2=64
Channel Event. t= 70 (22048) Note Off ch=5 par1=51 par2=64
Channel Event. t= 13 (22061) Note Off ch=5 par1=54 par2=64
Channel Event. t= 19 (22080) Note On ch=5 par1=51 par2=40
Channel Event. t= 0 (22080) Note On ch=5 par1=54 par2=49
Channel Event. t= 61 (22141) Note Off ch=5 par1=78 par2=64
Channel Event. t= 14 (22155) Note Off ch=5 par1=83 par2=64
Channel Event. t= 13 (22168) Note Off ch=5 par1=75 par2=64
Channel Event. t= 8 (22176) Note On ch=5 par1=76 par2=80
Channel Event. t= 0 (22176) Note On ch=5 par1=79 par2=65
Channel Event. t= 0 (22176) Note On ch=5 par1=84 par2=68
Channel Event. t= 71 (22247) Note Off ch=5 par1=79 par2=64
Channel Event. t= 5 (22252) Note Off ch=5 par1=51 par2=64
Channel Event. t= 5 (22257) Note Off ch=5 par1=54 par2=64
Channel Event. t= 15 (22272) Note Off ch=5 par1=76 par2=64
Channel Event. t= 0 (22272) Note On ch=5 par1=72 par2=82
Channel Event. t= 0 (22272) Note On ch=5 par1=36 par2=37
Channel Event. t= 0 (22272) Note On ch=5 par1=43 par2=39
Channel Event. t= 0 (22272) Note On ch=5 par1=52 par2=72
Channel Event. t= 0 (22272) Note On ch=5 par1=79 par2=59
Channel Event. t= 0 (22272) Note On ch=5 par1=76 par2=70
Channel Event. t= 1 (22273) Note Off ch=5 par1=76 par2=64
Channel Event. t= 9 (22282) Note Off ch=5 par1=84 par2=64
Channel Event. t= 81 (22363) Note Off ch=5 par1=36 par2=64
Channel Event. t= 5 (22368) Note Off ch=5 par1=43 par2=64
Channel Event. t= 72 (22440) Note Off ch=5 par1=52 par2=64
Channel Event. t= 0 (22440) Note Off ch=5 par1=79 par2=64
Channel Event. t= 24 (22464) Note Off ch=5 par1=72 par2=64
Channel Event. t= 0 (22464) Note On ch=5 par1=69 par2=74
Channel Event. t= 0 (22464) Note On ch=5 par1=52 par2=51
Channel Event. t= 0 (22464) Note On ch=5 par1=55 par2=63
Channel Event. t= 0 (22464) Note On ch=5 par1=76 par2=50
Channel Event. t= 0 (22464) Note On ch=5 par1=72 par2=84
Channel Event. t= 161 (22625) Note Off ch=5 par1=55 par2=64
Channel Event. t= 4 (22629) Note Off ch=5 par1=72 par2=64
Channel Event. t= 5 (22634) Note Off ch=5 par1=52 par2=64
Channel Event. t= 10 (22644) Note On ch=5 par1=72 par2=87
Channel Event. t= 12 (22656) Note Off ch=5 par1=69 par2=64
Channel Event. t= 0 (22656) Note On ch=5 par1=67 par2=74
Channel Event. t= 0 (22656) Note On ch=5 par1=40 par2=42
Channel Event. t= 0 (22656) Note On ch=5 par1=47 par2=48
Channel Event. t= 0 (22656) Note On ch=5 par1=57 par2=66
Channel Event. t= 0 (22656) Note On ch=5 par1=55 par2=50
Channel Event. t= 0 (22656) Note On ch=5 par1=69 par2=74
Channel Event. t= 3 (22659) Note Off ch=5 par1=76 par2=64
Channel Event. t= 100 (22759) Note Off ch=5 par1=47 par2=64
Channel Event. t= 10 (22769) Note Off ch=5 par1=40 par2=64
Channel Event. t= 41 (22810) Note Off ch=5 par1=69 par2=64
Channel Event. t= 15 (22825) Note Off ch=5 par1=57 par2=64
Channel Event. t= 6 (22831) Note Off ch=5 par1=55 par2=64
Channel Event. t= 5 (22836) Note On ch=5 par1=71 par2=75
Channel Event. t= 0 (22836) Note On ch=5 par1=74 par2=75
Channel Event. t= 12 (22848) Note On ch=5 par1=65 par2=83
Channel Event. t= 0 (22848) Note On ch=5 par1=52 par2=56
Channel Event. t= 0 (22848) Note On ch=5 par1=57 par2=58
Channel Event. t= 13 (22861) Note Off ch=5 par1=67 par2=64
Channel Event. t= 1 (22862) Note Off ch=5 par1=72 par2=64
Channel Event. t= 119 (22981) Note Off ch=5 par1=71 par2=64
Channel Event. t= 9 (22990) Note Off ch=5 par1=74 par2=64
Channel Event. t= 24 (23014) Note Off ch=5 par1=52 par2=64
Channel Event. t= 13 (23027) Note Off ch=5 par1=57 par2=64
Channel Event. t= 1 (23028) Note On ch=5 par1=75 par2=101
Channel Event. t= 0 (23028) Note On ch=5 par1=72 par2=95
Channel Event. t= 8 (23036) Note Off ch=5 par1=65 par2=64
Channel Event. t= 4 (23040) Note On ch=5 par1=63 par2=94
Channel Event. t= 0 (23040) Note On ch=5 par1=39 par2=51
Channel Event. t= 0 (23040) Note On ch=5 par1=32 par2=53
Channel Event. t= 104 (23144) Note Off ch=5 par1=32 par2=64
Channel Event. t= 9 (23153) Note Off ch=5 par1=39 par2=64
Channel Event. t= 79 (23232) Note On ch=5 par1=48 par2=53
Channel Event. t= 0 (23232) Note On ch=5 par1=56 par2=72
Channel Event. t= 136 (23368) Note Off ch=5 par1=72 par2=64
Channel Event. t= 3 (23371) Note Off ch=5 par1=48 par2=64
Channel Event. t= 9 (23380) Note Off ch=5 par1=75 par2=64
Channel Event. t= 0 (23380) Note Off ch=5 par1=56 par2=64
Channel Event. t= 30 (23410) Note Off ch=5 par1=63 par2=64
Channel Event. t= 2 (23412) Note On ch=5 par1=72 par2=71
Channel Event. t= 0 (23412) Note On ch=5 par1=75 par2=61
Channel Event. t= 12 (23424) Note On ch=5 par1=70 par2=83
Channel Event. t= 0 (23424) Note On ch=5 par1=36 par2=47
Channel Event. t= 0 (23424) Note On ch=5 par1=43 par2=38
Channel Event. t= 123 (23547) Note Off ch=5 par1=43 par2=64
Channel Event. t= 4 (23551) Note Off ch=5 par1=36 par2=64
Channel Event. t= 41 (23592) Note Off ch=5 par1=75 par2=64
Channel Event. t= 0 (23592) Note On ch=5 par1=83 par2=63
Channel Event. t= 8 (23600) Note Off ch=5 par1=72 par2=64
Channel Event. t= 4 (23604) Note On ch=5 par1=79 par2=53
Channel Event. t= 12 (23616) Note Off ch=5 par1=70 par2=64
Channel Event. t= 0 (23616) Note On ch=5 par1=74 par2=73
Channel Event. t= 0 (23616) Note On ch=5 par1=59 par2=55
Channel Event. t= 0 (23616) Note On ch=5 par1=56 par2=51
Channel Event. t= 119 (23735) Note Off ch=5 par1=83 par2=64
Channel Event. t= 29 (23764) Note Off ch=5 par1=79 par2=64
Channel Event. t= 20 (23784) Note On ch=5 par1=75 par2=95
Channel Event. t= 0 (23784) Note On ch=5 par1=72 par2=90
Channel Event. t= 13 (23797) Note Off ch=5 par1=59 par2=64
Channel Event. t= 7 (23804) Note Off ch=5 par1=56 par2=64
Channel Event. t= 4 (23808) Note Off ch=5 par1=74 par2=64
Channel Event. t= 0 (23808) Note On ch=5 par1=63 par2=100
Channel Event. t= 0 (23808) Note On ch=5 par1=39 par2=58
Channel Event. t= 0 (23808) Note On ch=5 par1=32 par2=49
Channel Event. t= 192 (24000) Note On ch=5 par1=48 par2=37
Channel Event. t= 0 (24000) Note On ch=5 par1=56 par2=59
Channel Event. t= 54 (24054) Note Off ch=5 par1=32 par2=64
Channel Event. t= 13 (24067) Note Off ch=5 par1=39 par2=64
Channel Event. t= 91 (24158) Note Off ch=5 par1=72 par2=64
Channel Event. t= 3 (24161) Note Off ch=5 par1=75 par2=64
Channel Event. t= 18 (24179) Note Off ch=5 par1=48 par2=64
Channel Event. t= 1 (24180) Note On ch=5 par1=75 par2=80
Channel Event. t= 12 (24192) Note On ch=5 par1=70 par2=57
Channel Event. t= 0 (24192) Note On ch=5 par1=43 par2=45
Channel Event. t= 0 (24192) Note On ch=5 par1=36 par2=41
Channel Event. t= 0 (24192) Note On ch=5 par1=72 par2=56
Channel Event. t= 2 (24194) Note Off ch=5 par1=56 par2=64
Channel Event. t= 11 (24205) Note Off ch=5 par1=63 par2=64
Channel Event. t= 154 (24359) Note Off ch=5 par1=75 par2=64
Channel Event. t= 3 (24362) Note Off ch=5 par1=72 par2=64
Channel Event. t= 10 (24372) Note On ch=5 par1=83 par2=56
Channel Event. t= 0 (24372) Note On ch=5 par1=79 par2=53
Channel Event. t= 8 (24380) Note Off ch=5 par1=70 par2=64
Channel Event. t= 4 (24384) Note On ch=5 par1=74 par2=77
Channel Event. t= 0 (24384) Note On ch=5 par1=53 par2=54
Channel Event. t= 0 (24384) Note On ch=5 par1=59 par2=54
Channel Event. t= 12 (24396) Note Off ch=5 par1=36 par2=64
Channel Event. t= 22 (24418) Note Off ch=5 par1=43 par2=64
Channel Event. t= 127 (24545) Note Off ch=5 par1=83 par2=64
Channel Event. t= 5 (24550) Note Off ch=5 par1=53 par2=64
Channel Event. t= 9 (24559) Note Off ch=5 par1=59 par2=64
Channel Event. t= 5 (24564) Note On ch=5 par1=75 par2=67
Channel Event. t= 0 (24564) Note On ch=5 par1=72 par2=47
Channel Event. t= 12 (24576) Note On ch=5 par1=70 par2=82
Channel Event. t= 0 (24576) Note On ch=5 par1=46 par2=58
Channel Event. t= 0 (24576) Note On ch=5 par1=39 par2=52
Channel Event. t= 9 (24585) Note Off ch=5 par1=79 par2=64
Channel Event. t= 7 (24592) Note Off ch=5 par1=74 par2=64
Channel Event. t= 176 (24768) Note On ch=5 par1=60 par2=53
Channel Event. t= 0 (24768) Note On ch=5 par1=51 par2=62
Channel Event. t= 47 (24815) Note Off ch=5 par1=46 par2=64
Channel Event. t= 6 (24821) Note Off ch=5 par1=39 par2=64
Channel Event. t= 60 (24881) Note Off ch=5 par1=72 par2=64
Channel Event. t= 49 (24930) Note Off ch=5 par1=60 par2=64
Channel Event. t= 1 (24931) Note Off ch=5 par1=51 par2=64
Channel Event. t= 17 (24948) Note Off ch=5 par1=70 par2=64
Channel Event. t= 0 (24948) Note On ch=5 par1=67 par2=63
Channel Event. t= 0 (24948) Note On ch=5 par1=70 par2=74
Channel Event. t= 12 (24960) Note On ch=5 par1=65 par2=85
Channel Event. t= 0 (24960) Note On ch=5 par1=36 par2=17
Channel Event. t= 0 (24960) Note On ch=5 par1=43 par2=48
Channel Event. t= 3 (24963) Note Off ch=5 par1=75 par2=64
Channel Event. t= 189 (25152) Note On ch=5 par1=50 par2=43
Channel Event. t= 0 (25152) Note On ch=5 par1=58 par2=67
Channel Event. t= 22 (25174) Note Off ch=5 par1=36 par2=64
Channel Event. t= 8 (25182) Note Off ch=5 par1=43 par2=64
Channel Event. t= 114 (25296) Note Off ch=5 par1=70 par2=64
Channel Event. t= 8 (25304) Note Off ch=5 par1=67 par2=64
Channel Event. t= 17 (25321) Note Off ch=5 par1=50 par2=64
Channel Event. t= 6 (25327) Note Off ch=5 par1=58 par2=64
Channel Event. t= 5 (25332) Note On ch=5 par1=70 par2=53
Channel Event. t= 0 (25332) Note On ch=5 par1=67 par2=60
Channel Event. t= 12 (25344) Note On ch=5 par1=63 par2=98
Channel Event. t= 0 (25344) Note On ch=5 par1=46 par2=54
Channel Event. t= 0 (25344) Note On ch=5 par1=39 par2=64
Channel Event. t= 1 (25345) Note Off ch=5 par1=65 par2=64
Channel Event. t= 191 (25536) Note On ch=5 par1=55 par2=53
Channel Event. t= 0 (25536) Note On ch=5 par1=58 par2=63
Channel Event. t= 49 (25585) Note Off ch=5 par1=46 par2=64
Channel Event. t= 13 (25598) Note Off ch=5 par1=39 par2=64
Channel Event. t= 126 (25724) Note Off ch=5 par1=55 par2=64
Channel Event. t= 2 (25726) Note Off ch=5 par1=58 par2=64
Channel Event. t= 2 (25728) Note On ch=5 par1=36 par2=49
Channel Event. t= 0 (25728) Note On ch=5 par1=43 par2=42
Channel Event. t= 103 (25831) Note Off ch=5 par1=67 par2=64
Channel Event. t= 8 (25839) Note Off ch=5 par1=70 par2=64
Channel Event. t= 57 (25896) Note On ch=5 par1=57 par2=98
Channel Event. t= 41 (25937) Note Off ch=5 par1=63 par2=64
Channel Event. t= 12 (25949) Note Off ch=5 par1=36 par2=64
Channel Event. t= 13 (25962) Note Off ch=5 par1=43 par2=64
Channel Event. t= 126 (26088) Controller ch=5 par1=7 (Main Volume) par2=95
Channel Event. t= 12 (26100) Note On ch=5 par1=58 par2=100
Channel Event. t= 8 (26108) Note Off ch=5 par1=57 par2=64
Channel Event. t= 4 (26112) Note On ch=5 par1=55 par2=93
Channel Event. t= 0 (26112) Note On ch=5 par1=39 par2=63
Channel Event. t= 0 (26112) Note On ch=5 par1=46 par2=56
Channel Event. t= 192 (26304) Note On ch=5 par1=48 par2=41
Channel Event. t= 0 (26304) Note On ch=5 par1=51 par2=70
Channel Event. t= 27 (26331) Note Off ch=5 par1=39 par2=64
Channel Event. t= 25 (26356) Note Off ch=5 par1=46 par2=64
Channel Event. t= 102 (26458) Note Off ch=5 par1=48 par2=64
Channel Event. t= 1 (26459) Note Off ch=5 par1=51 par2=64
Channel Event. t= 18 (26477) Note Off ch=5 par1=55 par2=64
Channel Event. t= 7 (26484) Note On ch=5 par1=63 par2=93
Channel Event. t= 0 (26484) Note On ch=5 par1=60 par2=76
Channel Event. t= 4 (26488) Note Off ch=5 par1=58 par2=64
Channel Event. t= 8 (26496) Note On ch=5 par1=58 par2=96
Channel Event. t= 0 (26496) Note On ch=5 par1=50 par2=38
Channel Event. t= 0 (26496) Note On ch=5 par1=43 par2=50
Channel Event. t= 192 (26688) Note On ch=5 par1=53 par2=56
Channel Event. t= 38 (26726) Note Off ch=5 par1=43 par2=64
Channel Event. t= 19 (26745) Note Off ch=5 par1=50 par2=64
Channel Event. t= 10 (26755) Note Off ch=5 par1=63 par2=64
Channel Event. t= 17 (26772) Note On ch=5 par1=63 par2=75
Channel Event. t= 0 (26772) Note On ch=5 par1=67 par2=81
Channel Event. t= 20 (26792) Note Off ch=5 par1=60 par2=64
Channel Event. t= 6 (26798) Note Off ch=5 par1=58 par2=64
Channel Event. t= 25 (26823) Note Off ch=5 par1=63 par2=64
Channel Event. t= 21 (26844) Note Off ch=5 par1=67 par2=64
Channel Event. t= 10 (26854) Note Off ch=5 par1=53 par2=64
Channel Event. t= 14 (26868) Note On ch=5 par1=70 par2=95
Channel Event. t= 12 (26880) Note On ch=5 par1=63 par2=93
Channel Event. t= 0 (26880) Note On ch=5 par1=46 par2=46
Channel Event. t= 0 (26880) Note On ch=5 par1=39 par2=38
Channel Event. t= 0 (26880) Note On ch=5 par1=65 par2=47
Channel Event. t= 0 (26880) Note On ch=5 par1=67 par2=46
Channel Event. t= 84 (26964) Note Off ch=5 par1=65 par2=64
Channel Event. t= 68 (27032) Note Off ch=5 par1=70 par2=64
Channel Event. t= 14 (27046) Note Off ch=5 par1=67 par2=64
Channel Event. t= 2 (27048) Note On ch=5 par1=70 par2=77
Channel Event. t= 0 (27048) Note On ch=5 par1=72 par2=88
Channel Event. t= 24 (27072) Note On ch=5 par1=67 par2=80
Channel Event. t= 0 (27072) Note On ch=5 par1=55 par2=61
Channel Event. t= 0 (27072) Note On ch=5 par1=60 par2=70
Channel Event. t= 15 (27087) Note Off ch=5 par1=63 par2=64
Channel Event. t= 22 (27109) Note Off ch=5 par1=39 par2=64
Channel Event. t= 17 (27126) Note Off ch=5 par1=46 par2=64
Channel Event. t= 77 (27203) Note Off ch=5 par1=70 par2=64
Channel Event. t= 32 (27235) Note Off ch=5 par1=55 par2=64
Channel Event. t= 0 (27235) Note Off ch=5 par1=60 par2=64
Channel Event. t= 6 (27241) Note Off ch=5 par1=72 par2=64
Channel Event. t= 11 (27252) Note Off ch=5 par1=67 par2=64
Channel Event. t= 0 (27252) Note On ch=5 par1=67 par2=91
Channel Event. t= 0 (27252) Note On ch=5 par1=70 par2=100
Channel Event. t= 12 (27264) Note On ch=5 par1=63 par2=99
Channel Event. t= 0 (27264) Note On ch=5 par1=50 par2=29
Channel Event. t= 0 (27264) Note On ch=5 par1=43 par2=48
Channel Event. t= 0 (27264) Note On ch=5 par1=58 par2=65
Channel Event. t= 147 (27411) Note Off ch=5 par1=58 par2=64
Channel Event. t= 45 (27456) Note On ch=5 par1=55 par2=52
Channel Event. t= 0 (27456) Note On ch=5 par1=58 par2=54
Channel Event. t= 44 (27500) Note Off ch=5 par1=43 par2=64
Channel Event. t= 18 (27518) Note Off ch=5 par1=63 par2=64
Channel Event. t= 3 (27521) Note Off ch=5 par1=70 par2=64
Channel Event. t= 2 (27523) Note Off ch=5 par1=50 par2=64
Channel Event. t= 7 (27530) Note Off ch=5 par1=67 par2=64
Channel Event. t= 22 (27552) Note On ch=5 par1=60 par2=61
Channel Event. t= 0 (27552) Note On ch=5 par1=67 par2=60
Channel Event. t= 0 (27552) Note On ch=5 par1=63 par2=72
Channel Event. t= 61 (27613) Note Off ch=5 par1=55 par2=64
Channel Event. t= 10 (27623) Note Off ch=5 par1=58 par2=64
Channel Event. t= 5 (27628) Note Off ch=5 par1=63 par2=64
Channel Event. t= 14 (27642) Note Off ch=5 par1=67 par2=64
Channel Event. t= 6 (27648) Note On ch=5 par1=63 par2=73
Channel Event. t= 0 (27648) Note On ch=5 par1=46 par2=49
Channel Event. t= 0 (27648) Note On ch=5 par1=39 par2=44
Channel Event. t= 0 (27648) Note On ch=5 par1=55 par2=63
Channel Event. t= 0 (27648) Note On ch=5 par1=67 par2=48
Channel Event. t= 0 (27648) Note On ch=5 par1=70 par2=90
Channel Event. t= 11 (27659) Note Off ch=5 par1=60 par2=64
Channel Event. t= 144 (27803) Note Off ch=5 par1=55 par2=64
Channel Event. t= 15 (27818) Note Off ch=5 par1=67 par2=64
Channel Event. t= 0 (27818) Note Off ch=5 par1=70 par2=64
Channel Event. t= 21 (27839) Note Off ch=5 par1=63 par2=64
Channel Event. t= 1 (27840) Note On ch=5 par1=67 par2=72
Channel Event. t= 0 (27840) Note On ch=5 par1=58 par2=62
Channel Event. t= 0 (27840) Note On ch=5 par1=55 par2=35
Channel Event. t= 0 (27840) Note On ch=5 par1=70 par2=67
Channel Event. t= 0 (27840) Note On ch=5 par1=72 par2=75
Channel Event. t= 68 (27908) Note Off ch=5 par1=46 par2=64
Channel Event. t= 1 (27909) Note Off ch=5 par1=39 par2=64
Channel Event. t= 115 (28024) Note Off ch=5 par1=72 par2=64
Channel Event. t= 1 (28025) Note Off ch=5 par1=58 par2=64
Channel Event. t= 2 (28027) Note Off ch=5 par1=70 par2=64
Channel Event. t= 1 (28028) Note Off ch=5 par1=55 par2=64
Channel Event. t= 4 (28032) Note On ch=5 par1=66 par2=97
Channel Event. t= 0 (28032) Note On ch=5 par1=42 par2=63
Channel Event. t= 0 (28032) Note On ch=5 par1=50 par2=44
Channel Event. t= 0 (28032) Note On ch=5 par1=54 par2=41
Channel Event. t= 0 (28032) Note On ch=5 par1=57 par2=63
Channel Event. t= 0 (28032) Note On ch=5 par1=74 par2=92
Channel Event. t= 0 (28032) Note On ch=5 par1=69 par2=85
Channel Event. t= 24 (28056) Note Off ch=5 par1=67 par2=64
Channel Event. t= 145 (28201) Note Off ch=5 par1=54 par2=64
Channel Event. t= 3 (28204) Note Off ch=5 par1=57 par2=64
Channel Event. t= 20 (28224) Note On ch=5 par1=57 par2=61
Channel Event. t= 0 (28224) Note On ch=5 par1=54 par2=56
Channel Event. t= 43 (28267) Note Off ch=5 par1=42 par2=64
Channel Event. t= 10 (28277) Note Off ch=5 par1=50 par2=64
Channel Event. t= 22 (28299) Note Off ch=5 par1=74 par2=64
Channel Event. t= 9 (28308) Note On ch=5 par1=70 par2=75
Channel Event. t= 4 (28312) Note Off ch=5 par1=66 par2=64
Channel Event. t= 6 (28318) Note Off ch=5 par1=69 par2=64
Channel Event. t= 2 (28320) Note On ch=5 par1=67 par2=74
Channel Event. t= 0 (28320) Note On ch=5 par1=75 par2=78
Channel Event. t= 62 (28382) Note Off ch=5 par1=70 par2=64
Channel Event. t= 17 (28399) Note Off ch=5 par1=54 par2=64
Channel Event. t= 13 (28412) Note Off ch=5 par1=57 par2=64
Channel Event. t= 4 (28416) Note Off ch=5 par1=67 par2=64
Channel Event. t= 0 (28416) Note On ch=5 par1=63 par2=83
Channel Event. t= 0 (28416) Note On ch=5 par1=39 par2=50
Channel Event. t= 0 (28416) Note On ch=5 par1=46 par2=55
Channel Event. t= 0 (28416) Note On ch=5 par1=55 par2=64
Channel Event. t= 0 (28416) Note On ch=5 par1=70 par2=65
Channel Event. t= 0 (28416) Note On ch=5 par1=67 par2=69
Channel Event. t= 1 (28417) Note Off ch=5 par1=67 par2=64
Channel Event. t= 4 (28421) Note Off ch=5 par1=75 par2=64
Channel Event. t= 132 (28553) Note Off ch=5 par1=70 par2=64
Channel Event. t= 21 (28574) Note Off ch=5 par1=55 par2=64
Channel Event. t= 17 (28591) Note Off ch=5 par1=63 par2=64
Channel Event. t= 5 (28596) Note On ch=5 par1=63 par2=78
Channel Event. t= 12 (28608) Note On ch=5 par1=60 par2=86
Channel Event. t= 0 (28608) Note On ch=5 par1=58 par2=68
Channel Event. t= 0 (28608) Note On ch=5 par1=55 par2=49
Channel Event. t= 12 (28620) Note Off ch=5 par1=39 par2=64
Channel Event. t= 1 (28621) Note Off ch=5 par1=46 par2=64
Channel Event. t= 148 (28769) Note Off ch=5 par1=58 par2=64
Channel Event. t= 3 (28772) Note Off ch=5 par1=55 par2=64
Channel Event. t= 1 (28773) Note Off ch=5 par1=63 par2=64
Channel Event. t= 27 (28800) Note Off ch=5 par1=60 par2=64
Channel Event. t= 0 (28800) Note On ch=5 par1=58 par2=89
Channel Event. t= 0 (28800) Note On ch=5 par1=50 par2=23
Channel Event. t= 0 (28800) Note On ch=5 par1=55 par2=63
Channel Event. t= 0 (28800) Note On ch=5 par1=63 par2=80
Channel Event. t= 0 (28800) Note On ch=5 par1=60 par2=82
Channel Event. t= 48 (28848) Note On ch=5 par1=43 par2=38
Channel Event. t= 98 (28946) Note Off ch=5 par1=60 par2=64
Channel Event. t= 46 (28992) Note On ch=5 par1=56 par2=88
Channel Event. t= 0 (28992) Note On ch=5 par1=53 par2=71
Channel Event. t= 0 (28992) Note On ch=5 par1=61 par2=75
Channel Event. t= 12 (29004) Note On ch=5 par1=65 par2=71
Channel Event. t= 5 (29009) Note Off ch=5 par1=50 par2=64
Channel Event. t= 3 (29012) Note Off ch=5 par1=55 par2=64
Channel Event. t= 11 (29023) Note Off ch=5 par1=58 par2=64
Channel Event. t= 6 (29029) Note Off ch=5 par1=63 par2=64
Channel Event. t= 36 (29065) Note Off ch=5 par1=43 par2=64
Channel Event. t= 88 (29153) Note Off ch=5 par1=61 par2=64
Channel Event. t= 19 (29172) Note Off ch=5 par1=65 par2=64
Channel Event. t= 5 (29177) Note Off ch=5 par1=53 par2=64
Channel Event. t= 5 (29182) Note Off ch=5 par1=56 par2=64
Channel Event. t= 2 (29184) Note On ch=5 par1=54 par2=98
Channel Event. t= 0 (29184) Note On ch=5 par1=38 par2=60
Channel Event. t= 0 (29184) Note On ch=5 par1=47 par2=46
Channel Event. t= 0 (29184) Note On ch=5 par1=50 par2=79
Channel Event. t= 0 (29184) Note On ch=5 par1=66 par2=98
Channel Event. t= 12 (29196) Note On ch=5 par1=62 par2=93
Channel Event. t= 183 (29379) Note Off ch=5 par1=38 par2=64
Channel Event. t= 5 (29384) Note Off ch=5 par1=47 par2=64
Channel Event. t= 140 (29524) Note Off ch=5 par1=54 par2=64
Channel Event. t= 13 (29537) Note Off ch=5 par1=62 par2=64
Channel Event. t= 2 (29539) Note Off ch=5 par1=66 par2=64
Channel Event. t= 17 (29556) Note On ch=5 par1=66 par2=75
Channel Event. t= 12 (29568) Note On ch=5 par1=54 par2=100
Channel Event. t= 0 (29568) Note On ch=5 par1=38 par2=55
Channel Event. t= 0 (29568) Note On ch=5 par1=47 par2=44
Channel Event. t= 0 (29568) Note On ch=5 par1=62 par2=56
Channel Event. t= 136 (29704) Note Off ch=5 par1=66 par2=64
Channel Event. t= 44 (29748) Note On ch=5 par1=66 par2=61
Channel Event. t= 0 (29748) Note On ch=5 par1=74 par2=62
Channel Event. t= 4 (29752) Note Off ch=5 par1=62 par2=64
Channel Event. t= 8 (29760) Note On ch=5 par1=62 par2=88
Channel Event. t= 11 (29771) Note Off ch=5 par1=54 par2=64
Channel Event. t= 9 (29780) Note Off ch=5 par1=38 par2=64
Channel Event. t= 0 (29780) Note Off ch=5 par1=47 par2=64
Channel Event. t= 121 (29901) Note Off ch=5 par1=74 par2=64
Channel Event. t= 2 (29903) Note Off ch=5 par1=66 par2=64
Channel Event. t= 25 (29928) Note Off ch=5 par1=62 par2=64
Channel Event. t= 0 (29928) Note On ch=5 par1=66 par2=89
Channel Event. t= 0 (29928) Note On ch=5 par1=62 par2=94
Channel Event. t= 1 (29929) Note Off ch=5 par1=50 par2=64
Channel Event. t= 23 (29952) Note On ch=5 par1=54 par2=95
Channel Event. t= 0 (29952) Note On ch=5 par1=48 par2=50
Channel Event. t= 0 (29952) Note On ch=5 par1=38 par2=53
Channel Event. t= 0 (29952) Note On ch=5 par1=50 par2=69
Channel Event. t= 210 (30162) Note Off ch=5 par1=48 par2=64
Channel Event. t= 3 (30165) Note Off ch=5 par1=38 par2=64
Channel Event. t= 131 (30296) Note Off ch=5 par1=62 par2=64
Channel Event. t= 7 (30303) Note Off ch=5 par1=66 par2=64
Channel Event. t= 13 (30316) Note Off ch=5 par1=54 par2=64
Channel Event. t= 8 (30324) Note On ch=5 par1=66 par2=72
Channel Event. t= 0 (30324) Note On ch=5 par1=62 par2=61
Channel Event. t= 12 (30336) Note On ch=5 par1=54 par2=93
Channel Event. t= 0 (30336) Note On ch=5 par1=48 par2=46
Channel Event. t= 0 (30336) Note On ch=5 par1=38 par2=49
Channel Event. t= 132 (30468) Note Off ch=5 par1=66 par2=64
Channel Event. t= 36 (30504) Note On ch=5 par1=66 par2=71
Channel Event. t= 0 (30504) Note On ch=5 par1=74 par2=62
Channel Event. t= 8 (30512) Note Off ch=5 par1=62 par2=64
Channel Event. t= 0 (30512) Note Off ch=5 par1=48 par2=64
Channel Event. t= 16 (30528) Note On ch=5 par1=62 par2=81
Channel Event. t= 17 (30545) Note Off ch=5 par1=38 par2=64
Channel Event. t= 2 (30547) Note Off ch=5 par1=54 par2=64
Channel Event. t= 99 (30646) Note Off ch=5 par1=74 par2=64
Channel Event. t= 35 (30681) Note Off ch=5 par1=66 par2=64
Channel Event. t= 15 (30696) Note Off ch=5 par1=62 par2=64
Channel Event. t= 0 (30696) Note On ch=5 par1=67 par2=83
Channel Event. t= 0 (30696) Note On ch=5 par1=62 par2=81
Channel Event. t= 24 (30720) Note On ch=5 par1=59 par2=91
Channel Event. t= 0 (30720) Note On ch=5 par1=31 par2=62
Channel Event. t= 0 (30720) Note On ch=5 par1=43 par2=61
Channel Event. t= 0 (30720) Note On ch=5 par1=55 par2=56
Channel Event. t= 31 (30751) Note Off ch=5 par1=50 par2=64
Channel Event. t= 140 (30891) Note Off ch=5 par1=55 par2=64
Channel Event. t= 21 (30912) Note On ch=5 par1=38 par2=74
Channel Event. t= 0 (30912) Note On ch=5 par1=50 par2=89
Channel Event. t= 8 (30920) Note Off ch=5 par1=43 par2=64
Channel Event. t= 7 (30927) Note Off ch=5 par1=31 par2=64
Channel Event. t= 177 (31104) Note On ch=5 par1=43 par2=47
Channel Event. t= 0 (31104) Note On ch=5 par1=55 par2=82
Channel Event. t= 18 (31122) Note Off ch=5 par1=38 par2=64
Channel Event. t= 12 (31134) Note Off ch=5 par1=50 par2=64
Channel Event. t= 162 (31296) Note On ch=5 par1=45 par2=46
Channel Event. t= 0 (31296) Note On ch=5 par1=57 par2=74
Channel Event. t= 9 (31305) Note Off ch=5 par1=43 par2=64
Channel Event. t= 4 (31309) Note Off ch=5 par1=55 par2=64
Channel Event. t= 179 (31488) Note On ch=5 par1=43 par2=56
Channel Event. t= 0 (31488) Note On ch=5 par1=55 par2=92
Channel Event. t= 15 (31503) Note Off ch=5 par1=45 par2=64
Channel Event. t= 5 (31508) Note Off ch=5 par1=57 par2=64
Channel Event. t= 172 (31680) Note On ch=5 par1=41 par2=36
Channel Event. t= 0 (31680) Note On ch=5 par1=53 par2=56
Channel Event. t= 27 (31707) Note Off ch=5 par1=55 par2=64
Channel Event. t= 6 (31713) Note Off ch=5 par1=43 par2=64
Channel Event. t= 159 (31872) Note On ch=5 par1=40 par2=45
Channel Event. t= 0 (31872) Note On ch=5 par1=52 par2=43
Channel Event. t= 18 (31890) Note Off ch=5 par1=41 par2=64
Channel Event. t= 12 (31902) Note Off ch=5 par1=53 par2=64
Channel Event. t= 162 (32064) Note On ch=5 par1=38 par2=21
Channel Event. t= 0 (32064) Note On ch=5 par1=50 par2=49
Channel Event. t= 10 (32074) Note Off ch=5 par1=40 par2=64
Channel Event. t= 11 (32085) Note Off ch=5 par1=52 par2=64
Channel Event. t= 50 (32135) Note Off ch=5 par1=59 par2=64
Channel Event. t= 85 (32220) Note Off ch=5 par1=62 par2=64
Channel Event. t= 17 (32237) Note Off ch=5 par1=50 par2=64
Channel Event. t= 2 (32239) Note Off ch=5 par1=67 par2=64
Channel Event. t= 5 (32244) Controller ch=5 par1=7 (Main Volume) par2=70
Channel Event. t= 9 (32253) Note Off ch=5 par1=38 par2=64
Channel Event. t= 3 (32256) Note On ch=5 par1=36 par2=15
Channel Event. t= 0 (32256) Note On ch=5 par1=43 par2=41
Channel Event. t= 0 (32256) Note On ch=5 par1=48 par2=26
Channel Event. t= 134 (32390) Note Off ch=5 par1=48 par2=64
Channel Event. t= 46 (32436) Note On ch=5 par1=67 par2=58
Channel Event. t= 0 (32436) Note On ch=5 par1=91 par2=63
Channel Event. t= 1 (32437) Note Off ch=5 par1=36 par2=64
Channel Event. t= 11 (32448) Note Off ch=5 par1=43 par2=64
Channel Event. t= 0 (32448) Note On ch=5 par1=72 par2=58
Channel Event. t= 0 (32448) Note On ch=5 par1=64 par2=45
Channel Event. t= 0 (32448) Note On ch=5 par1=55 par2=45
Channel Event. t= 0 (32448) Note On ch=5 par1=84 par2=41
Channel Event. t= 12 (32460) Note On ch=5 par1=76 par2=69
Channel Event. t= 8 (32468) Note Off ch=5 par1=84 par2=64
Channel Event. t= 4 (32472) Note On ch=5 par1=79 par2=74
Channel Event. t= 4 (32476) Note Off ch=5 par1=91 par2=64
Channel Event. t= 28 (32504) Note Off ch=5 par1=72 par2=64
Channel Event. t= 5 (32509) Note Off ch=5 par1=67 par2=64
Channel Event. t= 8 (32517) Note Off ch=5 par1=76 par2=64
Channel Event. t= 12 (32529) Note Off ch=5 par1=79 par2=64
Channel Event. t= 86 (32615) Note Off ch=5 par1=64 par2=64
Channel Event. t= 9 (32624) Note Off ch=5 par1=55 par2=64
Channel Event. t= 4 (32628) Note On ch=5 par1=83 par2=57
Channel Event. t= 0 (32628) Note On ch=5 par1=91 par2=53
Channel Event. t= 12 (32640) Note On ch=5 par1=39 par2=57
Channel Event. t= 0 (32640) Note On ch=5 par1=47 par2=37
Channel Event. t= 168 (32808) Note On ch=5 par1=67 par2=55
Channel Event. t= 24 (32832) Note On ch=5 par1=71 par2=70
Channel Event. t= 0 (32832) Note On ch=5 par1=63 par2=22
Channel Event. t= 0 (32832) Note On ch=5 par1=54 par2=36
Channel Event. t= 12 (32844) Note On ch=5 par1=75 par2=68
Channel Event. t= 2 (32846) Note Off ch=5 par1=39 par2=64
Channel Event. t= 10 (32856) Note On ch=5 par1=79 par2=69
Channel Event. t= 1 (32857) Note Off ch=5 par1=47 par2=64
Channel Event. t= 6 (32863) Note Off ch=5 par1=67 par2=64
Channel Event. t= 14 (32877) Note Off ch=5 par1=71 par2=64
Channel Event. t= 5 (32882) Note Off ch=5 par1=75 par2=64
Channel Event. t= 7 (32889) Note Off ch=5 par1=79 par2=64
Channel Event. t= 111 (33000) Note Off ch=5 par1=83 par2=64
Channel Event. t= 2 (33002) Note Off ch=5 par1=91 par2=64
Channel Event. t= 20 (33022) Note Off ch=5 par1=54 par2=64
Channel Event. t= 2 (33024) Note On ch=5 par1=43 par2=50
Channel Event. t= 0 (33024) Note On ch=5 par1=36 par2=39
Channel Event. t= 1 (33025) Note Off ch=5 par1=63 par2=64
Channel Event. t= 167 (33192) Note On ch=5 par1=67 par2=41
Channel Event. t= 12 (33204) Note On ch=5 par1=72 par2=66
Channel Event. t= 0 (33204) Note On ch=5 par1=91 par2=46
Channel Event. t= 0 (33204) Note On ch=5 par1=84 par2=47
Channel Event. t= 9 (33213) Note Off ch=5 par1=43 par2=64
Channel Event. t= 2 (33215) Note Off ch=5 par1=36 par2=64
Channel Event. t= 1 (33216) Note On ch=5 par1=79 par2=77
Channel Event. t= 0 (33216) Note On ch=5 par1=76 par2=69
Channel Event. t= 0 (33216) Note On ch=5 par1=55 par2=41
Channel Event. t= 0 (33216) Note On ch=5 par1=64 par2=40
Channel Event. t= 7 (33223) Note Off ch=5 par1=72 par2=64
Channel Event. t= 1 (33224) Note Off ch=5 par1=67 par2=64
Channel Event. t= 6 (33230) Note Off ch=5 par1=84 par2=64
Channel Event. t= 0 (33230) Note Off ch=5 par1=76 par2=64
Channel Event. t= 3 (33233) Note Off ch=5 par1=79 par2=64
Channel Event. t= 5 (33238) Note Off ch=5 par1=91 par2=64
Channel Event. t= 146 (33384) Note On ch=5 par1=83 par2=48
Channel Event. t= 0 (33384) Note On ch=5 par1=91 par2=53
Channel Event. t= 24 (33408) Note Off ch=5 par1=64 par2=64
Channel Event. t= 0 (33408) Note On ch=5 par1=39 par2=54
Channel Event. t= 0 (33408) Note On ch=5 par1=47 par2=40
Channel Event. t= 13 (33421) Note Off ch=5 par1=55 par2=64
Channel Event. t= 167 (33588) Note On ch=5 par1=67 par2=50
Channel Event. t= 12 (33600) Note On ch=5 par1=71 par2=69
Channel Event. t= 0 (33600) Note On ch=5 par1=54 par2=34
Channel Event. t= 0 (33600) Note On ch=5 par1=63 par2=37
Channel Event. t= 11 (33611) Note Off ch=5 par1=39 par2=64
Channel Event. t= 1 (33612) Note On ch=5 par1=75 par2=76
Channel Event. t= 5 (33617) Note Off ch=5 par1=47 par2=64
Channel Event. t= 7 (33624) Note On ch=5 par1=79 par2=63
Channel Event. t= 3 (33627) Note Off ch=5 par1=67 par2=64
Channel Event. t= 14 (33641) Note Off ch=5 par1=71 par2=64
Channel Event. t= 17 (33658) Note Off ch=5 par1=75 par2=64
Channel Event. t= 4 (33662) Note Off ch=5 par1=79 par2=64
Channel Event. t= 110 (33772) Note Off ch=5 par1=91 par2=64
Channel Event. t= 2 (33774) Note Off ch=5 par1=83 par2=64
Channel Event. t= 18 (33792) Note Off ch=5 par1=63 par2=64
Channel Event. t= 0 (33792) Note On ch=5 par1=43 par2=50
Channel Event. t= 0 (33792) Note On ch=5 par1=36 par2=43
Channel Event. t= 19 (33811) Note Off ch=5 par1=54 par2=64
Channel Event. t= 149 (33960) Note On ch=5 par1=67 par2=58
Channel Event. t= 12 (33972) Note On ch=5 par1=91 par2=55
Channel Event. t= 0 (33972) Note On ch=5 par1=84 par2=54
Channel Event. t= 12 (33984) Note On ch=5 par1=72 par2=68
Channel Event. t= 0 (33984) Note On ch=5 par1=55 par2=33
Channel Event. t= 0 (33984) Note On ch=5 par1=64 par2=34
Channel Event. t= 12 (33996) Note On ch=5 par1=76 par2=68
Channel Event. t= 7 (34003) Note Off ch=5 par1=67 par2=64
Channel Event. t= 0 (34003) Note Off ch=5 par1=84 par2=64
Channel Event. t= 4 (34007) Note Off ch=5 par1=91 par2=64
Channel Event. t= 1 (34008) Note On ch=5 par1=79 par2=66
Channel Event. t= 8 (34016) Note Off ch=5 par1=43 par2=64
Channel Event. t= 0 (34016) Note Off ch=5 par1=36 par2=64
Channel Event. t= 16 (34032) Note Off ch=5 par1=72 par2=64
Channel Event. t= 8 (34040) Note Off ch=5 par1=76 par2=64
Channel Event. t= 11 (34051) Note Off ch=5 par1=79 par2=64
Channel Event. t= 113 (34164) Note On ch=5 par1=83 par2=58
Channel Event. t= 0 (34164) Note On ch=5 par1=91 par2=68
Channel Event. t= 10 (34174) Note Off ch=5 par1=55 par2=64
Channel Event. t= 2 (34176) Note Off ch=5 par1=64 par2=64
Channel Event. t= 0 (34176) Note On ch=5 par1=47 par2=52
Channel Event. t= 0 (34176) Note On ch=5 par1=39 par2=61
Channel Event. t= 168 (34344) Note On ch=5 par1=67 par2=56
Channel Event. t= 12 (34356) Note On ch=5 par1=71 par2=69
Channel Event. t= 12 (34368) Note On ch=5 par1=75 par2=72
Channel Event. t= 0 (34368) Note On ch=5 par1=54 par2=45
Channel Event. t= 0 (34368) Note On ch=5 par1=59 par2=50
Channel Event. t= 20 (34388) Note Off ch=5 par1=67 par2=64
Channel Event. t= 2 (34390) Note Off ch=5 par1=39 par2=64
Channel Event. t= 2 (34392) Note On ch=5 par1=79 par2=64
Channel Event. t= 5 (34397) Note Off ch=5 par1=47 par2=64
Channel Event. t= 6 (34403) Note Off ch=5 par1=71 par2=64
Channel Event. t= 15 (34418) Note Off ch=5 par1=75 par2=64
Channel Event. t= 13 (34431) Note Off ch=5 par1=79 par2=64
Channel Event. t= 114 (34545) Note Off ch=5 par1=54 par2=64
Channel Event. t= 0 (34545) Note Off ch=5 par1=59 par2=64
Channel Event. t= 1 (34546) Note Off ch=5 par1=91 par2=64
Channel Event. t= 2 (34548) Note Off ch=5 par1=83 par2=64
Channel Event. t= 12 (34560) Note On ch=5 par1=43 par2=53
Channel Event. t= 0 (34560) Note On ch=5 par1=36 par2=52
Channel Event. t= 192 (34752) Note On ch=5 par1=91 par2=64
Channel Event. t= 0 (34752) Note On ch=5 par1=84 par2=64
Channel Event. t= 19 (34771) Note Off ch=5 par1=43 par2=64
Channel Event. t= 8 (34779) Note Off ch=5 par1=36 par2=64
Channel Event. t= 21 (34800) Note Off ch=5 par1=91 par2=64
Channel Event. t= 0 (34800) Note Off ch=5 par1=84 par2=64
Channel Event. t= 144 (34944) Note On ch=5 par1=39 par2=61
Channel Event. t= 0 (34944) Note On ch=5 par1=47 par2=53
Channel Event. t= 192 (35136) Note On ch=5 par1=91 par2=66
Channel Event. t= 6 (35142) Note On ch=5 par1=83 par2=45
Channel Event. t= 1 (35143) Note Off ch=5 par1=39 par2=64
Channel Event. t= 1 (35144) Note Off ch=5 par1=47 par2=64
Channel Event. t= 38 (35182) Note Off ch=5 par1=91 par2=64
Channel Event. t= 3 (35185) Note Off ch=5 par1=83 par2=64
Channel Event. t= 143 (35328) Note On ch=5 par1=36 par2=44
Channel Event. t= 0 (35328) Note On ch=5 par1=48 par2=53
Channel Event. t= 201 (35529) Note On ch=5 par1=79 par2=48
Channel Event. t= 0 (35529) Note On ch=5 par1=84 par2=46
Channel Event. t= 1 (35530) Note On ch=5 par1=88 par2=55
Channel Event. t= 37 (35567) Note Off ch=5 par1=48 par2=64
Channel Event. t= 10 (35577) Note Off ch=5 par1=36 par2=64
Channel Event. t= 10 (35587) Note Off ch=5 par1=88 par2=64
Channel Event. t= 3 (35590) Note Off ch=5 par1=84 par2=64
Channel Event. t= 1 (35591) Note Off ch=5 par1=79 par2=64
Channel Event. t= 121 (35712) Note On ch=5 par1=42 par2=61
Channel Event. t= 194 (35906) Note On ch=5 par1=83 par2=69
Channel Event. t= 0 (35906) Note On ch=5 par1=87 par2=75
Channel Event. t= 4 (35910) Note On ch=5 par1=78 par2=61
Channel Event. t= 46 (35956) Note Off ch=5 par1=42 par2=64
Channel Event. t= 21 (35977) Note Off ch=5 par1=78 par2=64
Channel Event. t= 1 (35978) Note Off ch=5 par1=83 par2=64
Channel Event. t= 6 (35984) Note Off ch=5 par1=87 par2=64
Channel Event. t= 112 (36096) Note On ch=5 par1=48 par2=40
Channel Event. t= 0 (36096) Note On ch=5 par1=36 par2=38
Channel Event. t= 196 (36292) Note On ch=5 par1=84 par2=62
Channel Event. t= 1 (36293) Note On ch=5 par1=88 par2=59
Channel Event. t= 1 (36294) Note On ch=5 par1=79 par2=56
Channel Event. t= 33 (36327) Note Off ch=5 par1=48 par2=64
Channel Event. t= 9 (36336) Note Off ch=5 par1=36 par2=64
Channel Event. t= 26 (36362) Note Off ch=5 par1=84 par2=64
Channel Event. t= 0 (36362) Note Off ch=5 par1=88 par2=64
Channel Event. t= 1 (36363) Note Off ch=5 par1=79 par2=64
Channel Event. t= 117 (36480) Note On ch=5 par1=42 par2=66
Channel Event. t= 189 (36669) Note On ch=5 par1=87 par2=75
Channel Event. t= 2 (36671) Note On ch=5 par1=83 par2=71
Channel Event. t= 0 (36671) Note On ch=5 par1=78 par2=68
Channel Event. t= 30 (36701) Note Off ch=5 par1=42 par2=64
Channel Event. t= 33 (36734) Note Off ch=5 par1=78 par2=64
Channel Event. t= 4 (36738) Note Off ch=5 par1=83 par2=64
Channel Event. t= 1 (36739) Note Off ch=5 par1=87 par2=64
Channel Event. t= 125 (36864) Note On ch=5 par1=36 par2=26
Channel Event. t= 0 (36864) Note On ch=5 par1=48 par2=40
Channel Event. t= 190 (37054) Note On ch=5 par1=84 par2=71
Channel Event. t= 1 (37055) Note On ch=5 par1=79 par2=63
Channel Event. t= 0 (37055) Note On ch=5 par1=88 par2=73
Channel Event. t= 40 (37095) Note Off ch=5 par1=36 par2=64
Channel Event. t= 3 (37098) Note Off ch=5 par1=48 par2=64
Channel Event. t= 29 (37127) Note Off ch=5 par1=88 par2=64
Channel Event. t= 1 (37128) Note Off ch=5 par1=84 par2=64
Channel Event. t= 4 (37132) Note Off ch=5 par1=79 par2=64
Channel Event. t= 116 (37248) Note On ch=5 par1=42 par2=52
Channel Event. t= 179 (37427) Note On ch=5 par1=87 par2=76
Channel Event. t= 1 (37428) Note On ch=5 par1=78 par2=68
Channel Event. t= 1 (37429) Note On ch=5 par1=83 par2=70
Channel Event. t= 34 (37463) Note Off ch=5 par1=42 par2=64
Channel Event. t= 45 (37508) Note Off ch=5 par1=78 par2=64
Channel Event. t= 2 (37510) Note Off ch=5 par1=87 par2=64
Channel Event. t= 0 (37510) Note Off ch=5 par1=83 par2=64
Channel Event. t= 122 (37632) Note On ch=5 par1=48 par2=37
Channel Event. t= 0 (37632) Note On ch=5 par1=36 par2=46
Channel Event. t= 179 (37811) Note On ch=5 par1=79 par2=54
Channel Event. t= 0 (37811) Note On ch=5 par1=84 par2=61
Channel Event. t= 2 (37813) Note On ch=5 par1=88 par2=61
Channel Event. t= 51 (37864) Note Off ch=5 par1=48 par2=64
Channel Event. t= 11 (37875) Note Off ch=5 par1=36 par2=64
Channel Event. t= 16 (37891) Note Off ch=5 par1=88 par2=64
Channel Event. t= 2 (37893) Note Off ch=5 par1=84 par2=64
Channel Event. t= 1 (37894) Note Off ch=5 par1=79 par2=64
Channel Event. t= 122 (38016) Note On ch=5 par1=42 par2=59
Channel Event. t= 185 (38201) Note On ch=5 par1=87 par2=76
Channel Event. t= 1 (38202) Note On ch=5 par1=83 par2=67
Channel Event. t= 0 (38202) Note On ch=5 par1=78 par2=68
Channel Event. t= 39 (38241) Note Off ch=5 par1=42 par2=64
Channel Event. t= 22 (38263) Note Off ch=5 par1=78 par2=64
Channel Event. t= 3 (38266) Note Off ch=5 par1=83 par2=64
Channel Event. t= 2 (38268) Note Off ch=5 par1=87 par2=64
Channel Event. t= 132 (38400) Note On ch=5 par1=48 par2=42
Channel Event. t= 0 (38400) Note On ch=5 par1=36 par2=55
Channel Event. t= 183 (38583) Note On ch=5 par1=79 par2=56
Channel Event. t= 1 (38584) Note On ch=5 par1=88 par2=61
Channel Event. t= 1 (38585) Note On ch=5 par1=84 par2=62
Channel Event. t= 61 (38646) Note Off ch=5 par1=48 par2=64
Channel Event. t= 13 (38659) Note Off ch=5 par1=36 par2=64
Channel Event. t= 0 (38659) Note Off ch=5 par1=84 par2=64
Channel Event. t= 2 (38661) Note Off ch=5 par1=88 par2=64
Channel Event. t= 2 (38663) Note Off ch=5 par1=79 par2=64
Channel Event. t= 121 (38784) Note On ch=5 par1=42 par2=50
Channel Event. t= 184 (38968) Note On ch=5 par1=87 par2=74
Channel Event. t= 1 (38969) Note On ch=5 par1=78 par2=66
Channel Event. t= 1 (38970) Note On ch=5 par1=83 par2=68
Channel Event. t= 34 (39004) Note Off ch=5 par1=42 par2=64
Channel Event. t= 21 (39025) Note Off ch=5 par1=78 par2=64
Channel Event. t= 9 (39034) Note Off ch=5 par1=87 par2=64
Channel Event. t= 0 (39034) Note Off ch=5 par1=83 par2=64
Channel Event. t= 134 (39168) Note On ch=5 par1=36 par2=50
Channel Event. t= 0 (39168) Note On ch=5 par1=48 par2=40
Channel Event. t= 182 (39350) Note On ch=5 par1=88 par2=73
Channel Event. t= 62 (39412) Note Off ch=5 par1=48 par2=64
Channel Event. t= 6 (39418) Note Off ch=5 par1=36 par2=64
Channel Event. t= 2 (39420) Note Off ch=5 par1=88 par2=64
Channel Event. t= 132 (39552) Note On ch=5 par1=42 par2=56
Channel Event. t= 176 (39728) Note On ch=5 par1=87 par2=68
Channel Event. t= 40 (39768) Note Off ch=5 par1=42 par2=64
Channel Event. t= 36 (39804) Note Off ch=5 par1=87 par2=64
Channel Event. t= 132 (39936) Note On ch=5 par1=48 par2=43
Channel Event. t= 0 (39936) Note On ch=5 par1=36 par2=53
Channel Event. t= 182 (40118) Note On ch=5 par1=88 par2=78
Channel Event. t= 51 (40169) Note Off ch=5 par1=48 par2=64
Channel Event. t= 12 (40181) Note Off ch=5 par1=36 par2=64
Channel Event. t= 14 (40195) Note Off ch=5 par1=88 par2=64
Channel Event. t= 125 (40320) Note On ch=5 par1=42 par2=56
Channel Event. t= 190 (40510) Note On ch=5 par1=87 par2=80
Channel Event. t= 28 (40538) Note Off ch=5 par1=42 par2=64
Channel Event. t= 32 (40570) Note Off ch=5 par1=87 par2=64
Channel Event. t= 134 (40704) Note On ch=5 par1=48 par2=32
Channel Event. t= 0 (40704) Note On ch=5 par1=36 par2=52
Channel Event. t= 185 (40889) Note On ch=5 par1=88 par2=82
Channel Event. t= 38 (40927) Note Off ch=5 par1=48 par2=64
Channel Event. t= 15 (40942) Note Off ch=5 par1=36 par2=64
Channel Event. t= 21 (40963) Note Off ch=5 par1=88 par2=64
Channel Event. t= 125 (41088) Note On ch=5 par1=42 par2=58
Channel Event. t= 179 (41267) Note On ch=5 par1=87 par2=80
Channel Event. t= 1 (41268) Note On ch=5 par1=90 par2=77
Channel Event. t= 31 (41299) Note Off ch=5 par1=42 par2=64
Channel Event. t= 36 (41335) Note Off ch=5 par1=90 par2=64
Channel Event. t= 3 (41338) Note Off ch=5 par1=87 par2=64
Channel Event. t= 134 (41472) Note On ch=5 par1=48 par2=48
Channel Event. t= 0 (41472) Note On ch=5 par1=36 par2=47
Channel Event. t= 48 (41520) Controller ch=5 par1=10 (Pan) par2=30
Channel Event. t= 134 (41654) Note On ch=5 par1=88 par2=75
Channel Event. t= 46 (41700) Note Off ch=5 par1=48 par2=64
Channel Event. t= 5 (41705) Note Off ch=5 par1=36 par2=64
Channel Event. t= 27 (41732) Note Off ch=5 par1=88 par2=64
Channel Event. t= 124 (41856) Note On ch=5 par1=42 par2=65
Channel Event. t= 195 (42051) Note On ch=5 par1=90 par2=84
Channel Event. t= 1 (42052) Note On ch=5 par1=87 par2=83
Channel Event. t= 65 (42117) Note Off ch=5 par1=87 par2=64
Channel Event. t= 4 (42121) Note Off ch=5 par1=90 par2=64
Channel Event. t= 53 (42174) Note Off ch=5 par1=42 par2=64
Channel Event. t= 18 (42192) Controller ch=5 par1=7 (Main Volume) par2=80
Channel Event. t= 48 (42240) Note On ch=5 par1=47 par2=62
Channel Event. t= 0 (42240) Note On ch=5 par1=35 par2=69
Channel Event. t= 0 (42240) Note On ch=5 par1=71 par2=64
Channel Event. t= 0 (42240) Note On ch=5 par1=83 par2=64
Channel Event. t= 0 (42240) Note On ch=5 par1=59 par2=73
Channel Event. t= 140 (42380) Note Off ch=5 par1=47 par2=64
Channel Event. t= 1 (42381) Note Off ch=5 par1=35 par2=64
Channel Event. t= 51 (42432) Note On ch=5 par1=48 par2=26
Channel Event. t= 0 (42432) Note On ch=5 par1=36 par2=51
Channel Event. t= 128 (42560) Note Off ch=5 par1=48 par2=64
Channel Event. t= 24 (42584) Note Off ch=5 par1=36 par2=64
Channel Event. t= 40 (42624) Note On ch=5 par1=49 par2=61
Channel Event. t= 0 (42624) Note On ch=5 par1=37 par2=75
Channel Event. t= 125 (42749) Note Off ch=5 par1=37 par2=64
Channel Event. t= 7 (42756) Note Off ch=5 par1=49 par2=64
Channel Event. t= 60 (42816) Note On ch=5 par1=38 par2=64
Channel Event. t= 0 (42816) Note On ch=5 par1=50 par2=63
Channel Event. t= 75 (42891) Note Off ch=5 par1=50 par2=64
Channel Event. t= 24 (42915) Note Off ch=5 par1=38 par2=64
Channel Event. t= 85 (43000) Note Off ch=5 par1=59 par2=64
Channel Event. t= 4 (43004) Note On ch=5 par1=47 par2=89
Channel Event. t= 3 (43007) Note On ch=5 par1=28 par2=74
Channel Event. t= 1 (43008) Note Off ch=5 par1=71 par2=64
Channel Event. t= 0 (43008) Note Off ch=5 par1=83 par2=64
Channel Event. t= 4 (43012) Note On ch=5 par1=40 par2=55
Channel Event. t= 94 (43106) Note Off ch=5 par1=28 par2=64
Channel Event. t= 7 (43113) Note Off ch=5 par1=40 par2=64
Channel Event. t= 15 (43128) Note Off ch=5 par1=47 par2=64
Channel Event. t= 0 (43128) Note On ch=5 par1=48 par2=66
Channel Event. t= 24 (43152) Note Off ch=5 par1=48 par2=64
Channel Event. t= 0 (43152) Note On ch=5 par1=47 par2=76
Channel Event. t= 24 (43176) Note Off ch=5 par1=47 par2=64
Channel Event. t= 0 (43176) Note On ch=5 par1=48 par2=71
Channel Event. t= 15 (43191) Note On ch=5 par1=42 par2=50
Channel Event. t= 0 (43191) Note On ch=5 par1=30 par2=74
Channel Event. t= 9 (43200) Note Off ch=5 par1=48 par2=64
Channel Event. t= 0 (43200) Note On ch=5 par1=47 par2=74
Channel Event. t= 24 (43224) Note Off ch=5 par1=47 par2=64
Channel Event. t= 0 (43224) Note On ch=5 par1=48 par2=66
Channel Event. t= 24 (43248) Note Off ch=5 par1=48 par2=64
Channel Event. t= 0 (43248) Note On ch=5 par1=47 par2=72
Channel Event. t= 24 (43272) Note Off ch=5 par1=47 par2=64
Channel Event. t= 0 (43272) Note On ch=5 par1=48 par2=68
Channel Event. t= 24 (43296) Note Off ch=5 par1=48 par2=64
Channel Event. t= 0 (43296) Note On ch=5 par1=47 par2=70
Channel Event. t= 24 (43320) Note Off ch=5 par1=47 par2=64
Channel Event. t= 0 (43320) Note On ch=5 par1=48 par2=68
Channel Event. t= 19 (43339) Note Off ch=5 par1=30 par2=64
Channel Event. t= 4 (43343) Note Off ch=5 par1=42 par2=64
Channel Event. t= 1 (43344) Note Off ch=5 par1=48 par2=64
Channel Event. t= 0 (43344) Note On ch=5 par1=47 par2=72
Channel Event. t= 24 (43368) Note Off ch=5 par1=47 par2=64
Channel Event. t= 0 (43368) Note On ch=5 par1=48 par2=69
Channel Event. t= 24 (43392) Note Off ch=5 par1=48 par2=64
Channel Event. t= 0 (43392) Note On ch=5 par1=47 par2=69
Channel Event. t= 3 (43395) Note On ch=5 par1=43 par2=45
Channel Event. t= 4 (43399) Note On ch=5 par1=31 par2=55
Channel Event. t= 17 (43416) Note Off ch=5 par1=47 par2=64
Channel Event. t= 0 (43416) Note On ch=5 par1=48 par2=73
Channel Event. t= 24 (43440) Note Off ch=5 par1=48 par2=64
Channel Event. t= 0 (43440) Note On ch=5 par1=47 par2=67
Channel Event. t= 24 (43464) Note Off ch=5 par1=47 par2=64
Channel Event. t= 0 (43464) Note On ch=5 par1=48 par2=68
Channel Event. t= 24 (43488) Note On ch=5 par1=47 par2=70
Channel Event. t= 8 (43496) Note Off ch=5 par1=48 par2=64
Channel Event. t= 16 (43512) Note Off ch=5 par1=47 par2=64
Channel Event. t= 0 (43512) Note On ch=5 par1=48 par2=71
Channel Event. t= 3 (43515) Note Off ch=5 par1=43 par2=64
Channel Event. t= 2 (43517) Note Off ch=5 par1=31 par2=64
Channel Event. t= 19 (43536) Note Off ch=5 par1=48 par2=64
Channel Event. t= 0 (43536) Note On ch=5 par1=47 par2=64
Channel Event. t= 24 (43560) Note On ch=5 par1=48 par2=70
Channel Event. t= 8 (43568) Note Off ch=5 par1=47 par2=64
Channel Event. t= 16 (43584) Note On ch=5 par1=47 par2=66
Channel Event. t= 1 (43585) Note On ch=5 par1=42 par2=33
Channel Event. t= 0 (43585) Note On ch=5 par1=30 par2=61
Channel Event. t= 7 (43592) Note Off ch=5 par1=48 par2=64
Channel Event. t= 16 (43608) Note On ch=5 par1=48 par2=67
Channel Event. t= 8 (43616) Note Off ch=5 par1=47 par2=64
Channel Event. t= 16 (43632) Note Off ch=5 par1=48 par2=64
Channel Event. t= 0 (43632) Note On ch=5 par1=47 par2=70
Channel Event. t= 70 (43702) Note Off ch=5 par1=42 par2=64
Channel Event. t= 31 (43733) Note Off ch=5 par1=30 par2=64
Channel Event. t= 19 (43752) Note Off ch=5 par1=47 par2=64
Channel Event. t= 23 (43775) Note On ch=5 par1=40 par2=51
Channel Event. t= 0 (43775) Note On ch=5 par1=28 par2=75
Channel Event. t= 1 (43776) Note On ch=5 par1=47 par2=98
Channel Event. t= 75 (43851) Note Off ch=5 par1=47 par2=64
Channel Event. t= 21 (43872) Note On ch=5 par1=47 par2=74
Channel Event. t= 24 (43896) Note Off ch=5 par1=47 par2=64
Channel Event. t= 0 (43896) Note On ch=5 par1=48 par2=74
Channel Event. t= 12 (43908) Note Off ch=5 par1=28 par2=64
Channel Event. t= 1 (43909) Note Off ch=5 par1=40 par2=64
Channel Event. t= 11 (43920) Note Off ch=5 par1=48 par2=64
Channel Event. t= 0 (43920) Note On ch=5 par1=47 par2=68
Channel Event. t= 24 (43944) Note Off ch=5 par1=47 par2=64
Channel Event. t= 0 (43944) Note On ch=5 par1=48 par2=71
Channel Event. t= 15 (43959) Note On ch=5 par1=30 par2=65
Channel Event. t= 9 (43968) Note Off ch=5 par1=48 par2=64
Channel Event. t= 0 (43968) Note On ch=5 par1=47 par2=68
Channel Event. t= 1 (43969) Note On ch=5 par1=42 par2=29
Channel Event. t= 23 (43992) Note Off ch=5 par1=47 par2=64
Channel Event. t= 0 (43992) Note On ch=5 par1=48 par2=73
Channel Event. t= 24 (44016) Note Off ch=5 par1=48 par2=64
Channel Event. t= 0 (44016) Note On ch=5 par1=47 par2=62
Channel Event. t= 24 (44040) Note Off ch=5 par1=47 par2=64
Channel Event. t= 0 (44040) Note On ch=5 par1=48 par2=75
Channel Event. t= 24 (44064) Note On ch=5 par1=47 par2=66
Channel Event. t= 4 (44068) Note Off ch=5 par1=48 par2=64
Channel Event. t= 20 (44088) Note Off ch=5 par1=47 par2=64
Channel Event. t= 0 (44088) Note On ch=5 par1=48 par2=72
Channel Event. t= 24 (44112) Note On ch=5 par1=47 par2=67
Channel Event. t= 5 (44117) Note Off ch=5 par1=48 par2=64
Channel Event. t= 2 (44119) Note Off ch=5 par1=42 par2=64
Channel Event. t= 3 (44122) Note Off ch=5 par1=30 par2=64
Channel Event. t= 14 (44136) Note Off ch=5 par1=47 par2=64
Channel Event. t= 0 (44136) Note On ch=5 par1=48 par2=75
Channel Event. t= 14 (44150) Note On ch=5 par1=43 par2=65
Channel Event. t= 3 (44153) Note On ch=5 par1=31 par2=61
Channel Event. t= 7 (44160) Note Off ch=5 par1=48 par2=64
Channel Event. t= 0 (44160) Note On ch=5 par1=47 par2=69
Channel Event. t= 24 (44184) Note Off ch=5 par1=47 par2=64
Channel Event. t= 0 (44184) Note On ch=5 par1=48 par2=70
Channel Event. t= 24 (44208) Note Off ch=5 par1=48 par2=64
Channel Event. t= 0 (44208) Note On ch=5 par1=47 par2=62
Channel Event. t= 24 (44232) Note On ch=5 par1=48 par2=73
Channel Event. t= 1 (44233) Note Off ch=5 par1=47 par2=64
Channel Event. t= 23 (44256) Note On ch=5 par1=47 par2=63
Channel Event. t= 1 (44257) Note Off ch=5 par1=48 par2=64
Channel Event. t= 23 (44280) Note Off ch=5 par1=47 par2=64
Channel Event. t= 0 (44280) Note On ch=5 par1=48 par2=69
Channel Event. t= 9 (44289) Note Off ch=5 par1=43 par2=64
Channel Event. t= 15 (44304) Note Off ch=5 par1=48 par2=64
Channel Event. t= 0 (44304) Note On ch=5 par1=47 par2=68
Channel Event. t= 24 (44328) Note Off ch=5 par1=47 par2=64
Channel Event. t= 0 (44328) Note On ch=5 par1=48 par2=74
Channel Event. t= 16 (44344) Note On ch=5 par1=30 par2=77
Channel Event. t= 5 (44349) Note On ch=5 par1=42 par2=59
Channel Event. t= 3 (44352) Note Off ch=5 par1=48 par2=64
Channel Event. t= 0 (44352) Note On ch=5 par1=47 par2=64
Channel Event. t= 8 (44360) Note Off ch=5 par1=31 par2=64
Channel Event. t= 16 (44376) Note On ch=5 par1=48 par2=69
Channel Event. t= 8 (44384) Note Off ch=5 par1=47 par2=64
Channel Event. t= 16 (44400) Note On ch=5 par1=47 par2=81
Channel Event. t= 8 (44408) Note Off ch=5 par1=48 par2=64
Channel Event. t= 112 (44520) Note Off ch=5 par1=47 par2=64
Channel Event. t= 12 (44532) Note Off ch=5 par1=42 par2=64
Channel Event. t= 5 (44537) Note On ch=5 par1=28 par2=75
Channel Event. t= 1 (44538) Note Off ch=5 par1=30 par2=64
Channel Event. t= 0 (44538) Note On ch=5 par1=40 par2=67
Channel Event. t= 2 (44540) Note On ch=5 par1=47 par2=97
Channel Event. t= 4 (44544) Note Off ch=5 par1=47 par2=64
Channel Event. t= 0 (44544) Note On ch=5 par1=47 par2=62
Channel Event. t= 1 (44545) Note Off ch=5 par1=47 par2=64
Channel Event. t= 71 (44616) Note On ch=5 par1=48 par2=69
Channel Event. t= 24 (44640) Note On ch=5 par1=47 par2=63
Channel Event. t= 8 (44648) Note Off ch=5 par1=48 par2=64
Channel Event. t= 16 (44664) Note On ch=5 par1=48 par2=63
Channel Event. t= 8 (44672) Note Off ch=5 par1=47 par2=64
Channel Event. t= 16 (44688) Note Off ch=5 par1=48 par2=64
Channel Event. t= 0 (44688) Note On ch=5 par1=47 par2=66
Channel Event. t= 24 (44712) Note On ch=5 par1=48 par2=66
Channel Event. t= 1 (44713) Note Off ch=5 par1=28 par2=64
Channel Event. t= 5 (44718) Note Off ch=5 par1=47 par2=64
Channel Event. t= 9 (44727) Note On ch=5 par1=30 par2=61
Channel Event. t= 5 (44732) Note On ch=5 par1=42 par2=65
Channel Event. t= 3 (44735) Note Off ch=5 par1=40 par2=64
Channel Event. t= 1 (44736) Note Off ch=5 par1=48 par2=64
Channel Event. t= 0 (44736) Note On ch=5 par1=47 par2=64
Channel Event. t= 24 (44760) Note Off ch=5 par1=47 par2=64
Channel Event. t= 0 (44760) Note On ch=5 par1=48 par2=64
Channel Event. t= 24 (44784) Note On ch=5 par1=47 par2=71
Channel Event. t= 8 (44792) Note Off ch=5 par1=48 par2=64
Channel Event. t= 16 (44808) Note Off ch=5 par1=47 par2=64
Channel Event. t= 0 (44808) Note On ch=5 par1=48 par2=65
Channel Event. t= 24 (44832) Note Off ch=5 par1=48 par2=64
Channel Event. t= 0 (44832) Note On ch=5 par1=47 par2=74
Channel Event. t= 24 (44856) Note Off ch=5 par1=47 par2=64
Channel Event. t= 0 (44856) Note On ch=5 par1=48 par2=63
Channel Event. t= 24 (44880) Note Off ch=5 par1=48 par2=64
Channel Event. t= 0 (44880) Note On ch=5 par1=47 par2=69
Channel Event. t= 20 (44900) Note Off ch=5 par1=42 par2=64
Channel Event. t= 4 (44904) Note Off ch=5 par1=47 par2=64
Channel Event. t= 0 (44904) Note On ch=5 par1=48 par2=68
Channel Event. t= 1 (44905) Note Off ch=5 par1=30 par2=64
Channel Event. t= 7 (44912) Note On ch=5 par1=31 par2=60
Channel Event. t= 2 (44914) Note On ch=5 par1=43 par2=54
Channel Event. t= 14 (44928) Note Off ch=5 par1=48 par2=64
Channel Event. t= 0 (44928) Note On ch=5 par1=47 par2=64
Channel Event. t= 24 (44952) Note On ch=5 par1=48 par2=65
Channel Event. t= 2 (44954) Note Off ch=5 par1=47 par2=64
Channel Event. t= 22 (44976) Note On ch=5 par1=47 par2=67
Channel Event. t= 4 (44980) Note Off ch=5 par1=48 par2=64
Channel Event. t= 20 (45000) Note Off ch=5 par1=47 par2=64
Channel Event. t= 0 (45000) Note On ch=5 par1=48 par2=77
Channel Event. t= 24 (45024) Note On ch=5 par1=47 par2=69
Channel Event. t= 1 (45025) Note Off ch=5 par1=48 par2=64
Channel Event. t= 23 (45048) Note Off ch=5 par1=47 par2=64
Channel Event. t= 0 (45048) Note On ch=5 par1=48 par2=78
Channel Event. t= 24 (45072) Note On ch=5 par1=47 par2=71
Channel Event. t= 6 (45078) Note Off ch=5 par1=48 par2=64
Channel Event. t= 18 (45096) Note Off ch=5 par1=47 par2=64
Channel Event. t= 0 (45096) Note On ch=5 par1=48 par2=74
Channel Event. t= 8 (45104) Note On ch=5 par1=40 par2=62
Channel Event. t= 1 (45105) Note Off ch=5 par1=31 par2=64
Channel Event. t= 3 (45108) Note On ch=5 par1=28 par2=67
Channel Event. t= 8 (45116) Note Off ch=5 par1=43 par2=64
Channel Event. t= 4 (45120) Note On ch=5 par1=47 par2=66
Channel Event. t= 7 (45127) Note Off ch=5 par1=48 par2=64
Channel Event. t= 17 (45144) Note On ch=5 par1=48 par2=74
Channel Event. t= 8 (45152) Note Off ch=5 par1=47 par2=64
Channel Event. t= 16 (45168) Note On ch=5 par1=47 par2=92
Channel Event. t= 8 (45176) Note Off ch=5 par1=48 par2=64
Channel Event. t= 112 (45288) Note Off ch=5 par1=47 par2=64
Channel Event. t= 13 (45301) Note On ch=5 par1=42 par2=70
Channel Event. t= 1 (45302) Note On ch=5 par1=30 par2=63
Channel Event. t= 3 (45305) Note Off ch=5 par1=28 par2=64
Channel Event. t= 1 (45306) Note Off ch=5 par1=40 par2=64
Channel Event. t= 6 (45312) Note On ch=5 par1=52 par2=94
Channel Event. t= 84 (45396) Note Off ch=5 par1=52 par2=64
Channel Event. t= 12 (45408) Note On ch=5 par1=54 par2=69
Channel Event. t= 24 (45432) Note On ch=5 par1=52 par2=91
Channel Event. t= 7 (45439) Note Off ch=5 par1=54 par2=64
Channel Event. t= 17 (45456) Note On ch=5 par1=54 par2=72
Channel Event. t= 4 (45460) Note Off ch=5 par1=52 par2=64
Channel Event. t= 20 (45480) Note On ch=5 par1=52 par2=88
Channel Event. t= 5 (45485) Note Off ch=5 par1=54 par2=64
Channel Event. t= 8 (45493) Note On ch=5 par1=40 par2=58
Channel Event. t= 10 (45503) Note On ch=5 par1=28 par2=68
Channel Event. t= 1 (45504) Note Off ch=5 par1=30 par2=64
Channel Event. t= 0 (45504) Note On ch=5 par1=54 par2=74
Channel Event. t= 6 (45510) Note Off ch=5 par1=42 par2=64
Channel Event. t= 3 (45513) Note Off ch=5 par1=52 par2=64
Channel Event. t= 15 (45528) Note Off ch=5 par1=54 par2=64
Channel Event. t= 0 (45528) Note On ch=5 par1=52 par2=78
Channel Event. t= 24 (45552) Note Off ch=5 par1=52 par2=64
Channel Event. t= 0 (45552) Note On ch=5 par1=54 par2=71
Channel Event. t= 24 (45576) Note Off ch=5 par1=54 par2=64
Channel Event. t= 0 (45576) Note On ch=5 par1=52 par2=74
Channel Event. t= 24 (45600) Note On ch=5 par1=54 par2=70
Channel Event. t= 4 (45604) Note Off ch=5 par1=52 par2=64
Channel Event. t= 20 (45624) Note Off ch=5 par1=54 par2=64
Channel Event. t= 0 (45624) Note On ch=5 par1=52 par2=62
Channel Event. t= 24 (45648) Note On ch=5 par1=54 par2=65
Channel Event. t= 5 (45653) Note Off ch=5 par1=52 par2=64
Channel Event. t= 19 (45672) Note Off ch=5 par1=54 par2=64
Channel Event. t= 0 (45672) Note On ch=5 par1=52 par2=82
Channel Event. t= 13 (45685) Note On ch=5 par1=30 par2=68
Channel Event. t= 1 (45686) Note On ch=5 par1=42 par2=71
Channel Event. t= 6 (45692) Note Off ch=5 par1=28 par2=64
Channel Event. t= 4 (45696) Note Off ch=5 par1=52 par2=64
Channel Event. t= 0 (45696) Note On ch=5 par1=54 par2=74
Channel Event. t= 4 (45700) Note Off ch=5 par1=40 par2=64
Channel Event. t= 20 (45720) Note On ch=5 par1=52 par2=67
Channel Event. t= 8 (45728) Note Off ch=5 par1=54 par2=64
Channel Event. t= 16 (45744) Note Off ch=5 par1=52 par2=64
Channel Event. t= 0 (45744) Note On ch=5 par1=54 par2=71
Channel Event. t= 24 (45768) Note On ch=5 par1=52 par2=72
Channel Event. t= 8 (45776) Note Off ch=5 par1=54 par2=64
Channel Event. t= 16 (45792) Note On ch=5 par1=54 par2=74
Channel Event. t= 8 (45800) Note Off ch=5 par1=52 par2=64
Channel Event. t= 16 (45816) Note On ch=5 par1=52 par2=74
Channel Event. t= 8 (45824) Note Off ch=5 par1=54 par2=64
Channel Event. t= 16 (45840) Note On ch=5 par1=54 par2=70
Channel Event. t= 8 (45848) Note Off ch=5 par1=52 par2=64
Channel Event. t= 16 (45864) Note On ch=5 par1=52 par2=72
Channel Event. t= 4 (45868) Note Off ch=5 par1=30 par2=64
Channel Event. t= 4 (45872) Note Off ch=5 par1=54 par2=64
Channel Event. t= 5 (45877) Note On ch=5 par1=38 par2=82
Channel Event. t= 4 (45881) Note Off ch=5 par1=42 par2=64
Channel Event. t= 7 (45888) Note On ch=5 par1=54 par2=69
Channel Event. t= 8 (45896) Note Off ch=5 par1=52 par2=64
Channel Event. t= 16 (45912) Note On ch=5 par1=52 par2=69
Channel Event. t= 8 (45920) Note Off ch=5 par1=54 par2=64
Channel Event. t= 16 (45936) Note Off ch=5 par1=52 par2=64
Channel Event. t= 0 (45936) Note On ch=5 par1=54 par2=71
Channel Event. t= 24 (45960) Note On ch=5 par1=52 par2=73
Channel Event. t= 8 (45968) Note Off ch=5 par1=54 par2=64
Channel Event. t= 101 (46069) Note On ch=5 par1=40 par2=74
Channel Event. t= 20 (46089) Note Off ch=5 par1=38 par2=64
Channel Event. t= 0 (46089) Note On ch=5 par1=47 par2=87
Channel Event. t= 0 (46089) Note On ch=5 par1=45 par2=83
Channel Event. t= 15 (46104) Note Off ch=5 par1=52 par2=64
Channel Event. t= 19 (46123) Note Off ch=5 par1=45 par2=64
Channel Event. t= 53 (46176) Note On ch=5 par1=48 par2=77
Channel Event. t= 9 (46185) Note Off ch=5 par1=47 par2=64
Channel Event. t= 15 (46200) Note Off ch=5 par1=48 par2=64
Channel Event. t= 0 (46200) Note On ch=5 par1=47 par2=71
Channel Event. t= 24 (46224) Note On ch=5 par1=48 par2=71
Channel Event. t= 8 (46232) Note Off ch=5 par1=47 par2=64
Channel Event. t= 16 (46248) Note On ch=5 par1=47 par2=77
Channel Event. t= 6 (46254) Note Off ch=5 par1=48 par2=64
Channel Event. t= 8 (46262) Note On ch=5 par1=42 par2=75
Channel Event. t= 10 (46272) Note On ch=5 par1=48 par2=68
Channel Event. t= 2 (46274) Note Off ch=5 par1=40 par2=64
Channel Event. t= 7 (46281) Note Off ch=5 par1=47 par2=64
Channel Event. t= 15 (46296) Note On ch=5 par1=47 par2=70
Channel Event. t= 2 (46298) Note Off ch=5 par1=48 par2=64
Channel Event. t= 22 (46320) Note On ch=5 par1=48 par2=72
Channel Event. t= 9 (46329) Note Off ch=5 par1=47 par2=64
Channel Event. t= 15 (46344) Note Off ch=5 par1=48 par2=64
Channel Event. t= 0 (46344) Note On ch=5 par1=47 par2=70
Channel Event. t= 24 (46368) Note On ch=5 par1=48 par2=68
Channel Event. t= 9 (46377) Note Off ch=5 par1=47 par2=64
Channel Event. t= 15 (46392) Note Off ch=5 par1=48 par2=64
Channel Event. t= 0 (46392) Note On ch=5 par1=47 par2=69
Channel Event. t= 24 (46416) Note Off ch=5 par1=47 par2=64
Channel Event. t= 0 (46416) Note On ch=5 par1=48 par2=73
Channel Event. t= 24 (46440) Note Off ch=5 par1=48 par2=64
Channel Event. t= 0 (46440) Note On ch=5 par1=47 par2=74
Channel Event. t= 11 (46451) Note Off ch=5 par1=42 par2=64
Channel Event. t= 0 (46451) Note On ch=5 par1=43 par2=55
Channel Event. t= 13 (46464) Note Off ch=5 par1=47 par2=64
Channel Event. t= 0 (46464) Note On ch=5 par1=48 par2=73
Channel Event. t= 24 (46488) Note On ch=5 par1=47 par2=69
Channel Event. t= 8 (46496) Note Off ch=5 par1=48 par2=64
Channel Event. t= 16 (46512) Note Off ch=5 par1=47 par2=64
Channel Event. t= 0 (46512) Note On ch=5 par1=48 par2=76
Channel Event. t= 24 (46536) Note On ch=5 par1=47 par2=71
Channel Event. t= 6 (46542) Note Off ch=5 par1=48 par2=64
Channel Event. t= 18 (46560) Note On ch=5 par1=48 par2=71
Channel Event. t= 8 (46568) Note Off ch=5 par1=47 par2=64
Channel Event. t= 16 (46584) Note Off ch=5 par1=48 par2=64
Channel Event. t= 0 (46584) Note On ch=5 par1=47 par2=74
Channel Event. t= 24 (46608) Note On ch=5 par1=48 par2=74
Channel Event. t= 8 (46616) Note Off ch=5 par1=47 par2=64
Channel Event. t= 16 (46632) Note On ch=5 par1=47 par2=72
Channel Event. t= 8 (46640) Note Off ch=5 par1=48 par2=64
Channel Event. t= 3 (46643) Note On ch=5 par1=42 par2=68
Channel Event. t= 13 (46656) Note On ch=5 par1=48 par2=70
Channel Event. t= 2 (46658) Note Off ch=5 par1=43 par2=64
Channel Event. t= 6 (46664) Note Off ch=5 par1=47 par2=64
Channel Event. t= 16 (46680) Note On ch=5 par1=47 par2=70
Channel Event. t= 8 (46688) Note Off ch=5 par1=48 par2=64
Channel Event. t= 16 (46704) Note On ch=5 par1=48 par2=69
Channel Event. t= 8 (46712) Note Off ch=5 par1=47 par2=64
Channel Event. t= 16 (46728) Note On ch=5 par1=47 par2=70
Channel Event. t= 8 (46736) Note Off ch=5 par1=48 par2=64
Channel Event. t= 101 (46837) Note Off ch=5 par1=47 par2=64
Channel Event. t= 5 (46842) Note On ch=5 par1=40 par2=70
Channel Event. t= 10 (46852) Note On ch=5 par1=47 par2=97
Channel Event. t= 7 (46859) Note Off ch=5 par1=42 par2=64
Channel Event. t= 53 (46912) Note Off ch=5 par1=47 par2=64
Channel Event. t= 2 (46914) Note On ch=5 par1=48 par2=65
Channel Event. t= 32 (46946) Note Off ch=5 par1=48 par2=64
Channel Event. t= 0 (46946) Note On ch=5 par1=47 par2=60
Channel Event. t= 32 (46978) Note On ch=5 par1=48 par2=66
Channel Event. t= 3 (46981) Note Off ch=5 par1=47 par2=64
Channel Event. t= 23 (47004) Note On ch=5 par1=47 par2=66
Channel Event. t= 1 (47005) Note Off ch=5 par1=48 par2=64
Channel Event. t= 29 (47034) Note On ch=5 par1=42 par2=66
Channel Event. t= 5 (47039) Note Off ch=5 par1=47 par2=64
Channel Event. t= 1 (47040) Note On ch=5 par1=48 par2=61
Channel Event. t= 17 (47057) Note Off ch=5 par1=40 par2=64
Channel Event. t= 3 (47060) Note On ch=5 par1=47 par2=64
Channel Event. t= 4 (47064) Note Off ch=5 par1=48 par2=64
Channel Event. t= 27 (47091) Note On ch=5 par1=48 par2=62
Channel Event. t= 3 (47094) Note Off ch=5 par1=47 par2=64
Channel Event. t= 19 (47113) Note Off ch=5 par1=48 par2=64
Channel Event. t= 2 (47115) Note On ch=5 par1=47 par2=66
Channel Event. t= 24 (47139) Note On ch=5 par1=48 par2=66
Channel Event. t= 4 (47143) Note Off ch=5 par1=47 par2=64
Channel Event. t= 19 (47162) Note Off ch=5 par1=48 par2=64
Channel Event. t= 4 (47166) Note On ch=5 par1=47 par2=59
Channel Event. t= 21 (47187) Note On ch=5 par1=48 par2=65
Channel Event. t= 4 (47191) Note Off ch=5 par1=47 par2=64
Channel Event. t= 20 (47211) Note Off ch=5 par1=48 par2=64
Channel Event. t= 4 (47215) Note On ch=5 par1=47 par2=62
Channel Event. t= 8 (47223) Note On ch=5 par1=43 par2=58
Channel Event. t= 7 (47230) Note Off ch=5 par1=42 par2=64
Channel Event. t= 3 (47233) Note On ch=5 par1=48 par2=67
Channel Event. t= 1 (47234) Note Off ch=5 par1=47 par2=64
Channel Event. t= 21 (47255) Note Off ch=5 par1=48 par2=64
Channel Event. t= 3 (47258) Note On ch=5 par1=47 par2=66
Channel Event. t= 21 (47279) Note On ch=5 par1=48 par2=69
Channel Event. t= 5 (47284) Note Off ch=5 par1=47 par2=64
Channel Event. t= 20 (47304) Note On ch=5 par1=47 par2=62
Channel Event. t= 1 (47305) Note Off ch=5 par1=48 par2=64
Channel Event. t= 23 (47328) Note Off ch=5 par1=47 par2=64
Channel Event. t= 0 (47328) Note On ch=5 par1=48 par2=69
Channel Event. t= 24 (47352) Note Off ch=5 par1=48 par2=64
Channel Event. t= 0 (47352) Note On ch=5 par1=47 par2=63
Channel Event. t= 24 (47376) Note On ch=5 par1=48 par2=64
Channel Event. t= 1 (47377) Note Off ch=5 par1=47 par2=64
Channel Event. t= 23 (47400) Note On ch=5 par1=47 par2=65
Channel Event. t= 8 (47408) Note Off ch=5 par1=48 par2=64
Channel Event. t= 13 (47421) Note On ch=5 par1=42 par2=68
Channel Event. t= 3 (47424) Note Off ch=5 par1=47 par2=64
Channel Event. t= 0 (47424) Note On ch=5 par1=48 par2=61
Channel Event. t= 15 (47439) Note Off ch=5 par1=43 par2=64
Channel Event. t= 9 (47448) Note Off ch=5 par1=48 par2=64
Channel Event. t= 0 (47448) Note On ch=5 par1=47 par2=88
Channel Event. t= 159 (47607) Note Off ch=5 par1=47 par2=64
Channel Event. t= 2 (47609) Note On ch=5 par1=40 par2=70
Channel Event. t= 7 (47616) Note On ch=5 par1=47 par2=109
Channel Event. t= 8 (47624) Note Off ch=5 par1=42 par2=64
Channel Event. t= 112 (47736) Note Off ch=5 par1=47 par2=64
Channel Event. t= 0 (47736) Note On ch=5 par1=48 par2=59
Channel Event. t= 24 (47760) Note Off ch=5 par1=48 par2=64
Channel Event. t= 0 (47760) Note On ch=5 par1=47 par2=68
Channel Event. t= 24 (47784) Note On ch=5 par1=48 par2=61
Channel Event. t= 10 (47794) Note Off ch=5 par1=47 par2=64
Channel Event. t= 10 (47804) Note On ch=5 par1=42 par2=67
Channel Event. t= 4 (47808) Note Off ch=5 par1=48 par2=64
Channel Event. t= 9 (47817) Note On ch=5 par1=47 par2=61
Channel Event. t= 3 (47820) Note Off ch=5 par1=40 par2=64
Channel Event. t= 12 (47832) Note On ch=5 par1=48 par2=64
Channel Event. t= 9 (47841) Note Off ch=5 par1=47 par2=64
Channel Event. t= 15 (47856) Note Off ch=5 par1=48 par2=64
Channel Event. t= 0 (47856) Note On ch=5 par1=47 par2=63
Channel Event. t= 24 (47880) Note Off ch=5 par1=47 par2=64
Channel Event. t= 0 (47880) Note On ch=5 par1=48 par2=63
Channel Event. t= 24 (47904) Note Off ch=5 par1=48 par2=64
Channel Event. t= 0 (47904) Note On ch=5 par1=47 par2=68
Channel Event. t= 24 (47928) Note Off ch=5 par1=47 par2=64
Channel Event. t= 0 (47928) Note On ch=5 par1=48 par2=67
Channel Event. t= 24 (47952) Note On ch=5 par1=47 par2=69
Channel Event. t= 3 (47955) Note Off ch=5 par1=48 par2=64
Channel Event. t= 21 (47976) Note Off ch=5 par1=47 par2=64
Channel Event. t= 0 (47976) Note On ch=5 par1=48 par2=63
Channel Event. t= 13 (47989) Note On ch=5 par1=43 par2=55
Channel Event. t= 8 (47997) Note Off ch=5 par1=42 par2=64
Channel Event. t= 3 (48000) Note On ch=5 par1=47 par2=65
Channel Event. t= 3 (48003) Note Off ch=5 par1=48 par2=64
Channel Event. t= 21 (48024) Note On ch=5 par1=48 par2=61
Channel Event. t= 8 (48032) Note Off ch=5 par1=47 par2=64
Channel Event. t= 16 (48048) Note Off ch=5 par1=48 par2=64
Channel Event. t= 0 (48048) Note On ch=5 par1=47 par2=64
Channel Event. t= 24 (48072) Note On ch=5 par1=48 par2=64
Channel Event. t= 8 (48080) Note Off ch=5 par1=47 par2=64
Channel Event. t= 16 (48096) Note On ch=5 par1=47 par2=63
Channel Event. t= 8 (48104) Note Off ch=5 par1=48 par2=64
Channel Event. t= 16 (48120) Note On ch=5 par1=48 par2=61
Channel Event. t= 8 (48128) Note Off ch=5 par1=47 par2=64
Channel Event. t= 16 (48144) Note Off ch=5 par1=48 par2=64
Channel Event. t= 0 (48144) Note On ch=5 par1=47 par2=61
Channel Event. t= 24 (48168) Note On ch=5 par1=48 par2=64
Channel Event. t= 8 (48176) Note Off ch=5 par1=47 par2=64
Channel Event. t= 14 (48190) Note On ch=5 par1=42 par2=65
Channel Event. t= 2 (48192) Note On ch=5 par1=47 par2=65
Channel Event. t= 8 (48200) Note Off ch=5 par1=48 par2=64
Channel Event. t= 4 (48204) Note Off ch=5 par1=43 par2=64
Channel Event. t= 12 (48216) Note On ch=5 par1=48 par2=64
Channel Event. t= 8 (48224) Note Off ch=5 par1=47 par2=64
Channel Event. t= 16 (48240) Note Off ch=5 par1=48 par2=64
Channel Event. t= 0 (48240) Note On ch=5 par1=47 par2=89
Channel Event. t= 131 (48371) Note On ch=5 par1=35 par2=61
Channel Event. t= 1 (48372) Note Off ch=5 par1=42 par2=64
Channel Event. t= 13 (48385) Note Off ch=5 par1=47 par2=64
Channel Event. t= 177 (48562) Note On ch=5 par1=42 par2=71
Channel Event. t= 12 (48574) Note Off ch=5 par1=35 par2=64
Channel Event. t= 184 (48758) Note On ch=5 par1=47 par2=66
Channel Event. t= 5 (48763) Note Off ch=5 par1=42 par2=64
Channel Event. t= 188 (48951) Note On ch=5 par1=35 par2=75
Channel Event. t= 5 (48956) Note Off ch=5 par1=47 par2=64
Channel Event. t= 187 (49143) Note On ch=5 par1=36 par2=75
Channel Event. t= 10 (49153) Note Off ch=5 par1=35 par2=64
Channel Event. t= 148 (49301) Note On ch=5 par1=48 par2=57
Channel Event. t= 18 (49319) Note On ch=5 par1=52 par2=79
Channel Event. t= 9 (49328) Note On ch=5 par1=55 par2=71
Channel Event. t= 11 (49339) Note On ch=5 par1=60 par2=82
Channel Event. t= 6 (49345) Note Off ch=5 par1=48 par2=64
Channel Event. t= 27 (49372) Note Off ch=5 par1=52 par2=64
Channel Event. t= 10 (49382) Note Off ch=5 par1=55 par2=64
Channel Event. t= 8 (49390) Note Off ch=5 par1=60 par2=64
Channel Event. t= 143 (49533) Note On ch=5 par1=42 par2=68
Channel Event. t= 6 (49539) Note Off ch=5 par1=36 par2=64
Channel Event. t= 156 (49695) Note On ch=5 par1=51 par2=66
Channel Event. t= 10 (49705) Note On ch=5 par1=54 par2=84
Channel Event. t= 9 (49714) Note On ch=5 par1=59 par2=80
Channel Event. t= 8 (49722) Note On ch=5 par1=63 par2=87
Channel Event. t= 4 (49726) Note Off ch=5 par1=51 par2=64
Channel Event. t= 15 (49741) Note Off ch=5 par1=54 par2=64
Channel Event. t= 7 (49748) Note Off ch=5 par1=59 par2=64
Channel Event. t= 51 (49799) Note Off ch=5 par1=63 par2=64
Channel Event. t= 107 (49906) Note On ch=5 par1=48 par2=69
Channel Event. t= 1 (49907) Note Off ch=5 par1=42 par2=64
Channel Event. t= 153 (50060) Note Off ch=5 par1=48 par2=64
Channel Event. t= 0 (50060) Note On ch=5 par1=48 par2=57
Channel Event. t= 18 (50078) Note On ch=5 par1=52 par2=74
Channel Event. t= 9 (50087) Note On ch=5 par1=55 par2=74
Channel Event. t= 9 (50096) Note Off ch=5 par1=48 par2=64
Channel Event. t= 1 (50097) Note On ch=5 par1=60 par2=81
Channel Event. t= 17 (50114) Note Off ch=5 par1=52 par2=64
Channel Event. t= 9 (50123) Note Off ch=5 par1=55 par2=64
Channel Event. t= 60 (50183) Note Off ch=5 par1=60 par2=64
Channel Event. t= 114 (50297) Note On ch=5 par1=42 par2=67
Channel Event. t= 160 (50457) Note On ch=5 par1=51 par2=55
Channel Event. t= 16 (50473) Note On ch=5 par1=54 par2=75
Channel Event. t= 12 (50485) Note On ch=5 par1=59 par2=74
Channel Event. t= 6 (50491) Note Off ch=5 par1=51 par2=64
Channel Event. t= 3 (50494) Note On ch=5 par1=63 par2=88
Channel Event. t= 16 (50510) Note Off ch=5 par1=54 par2=64
Channel Event. t= 10 (50520) Note Off ch=5 par1=59 par2=64
Channel Event. t= 12 (50532) Note Off ch=5 par1=63 par2=64
Channel Event. t= 154 (50686) Note On ch=5 par1=36 par2=68
Channel Event. t= 15 (50701) Note Off ch=5 par1=42 par2=64
Channel Event. t= 146 (50847) Note On ch=5 par1=48 par2=53
Channel Event. t= 15 (50862) Note On ch=5 par1=52 par2=73
Channel Event. t= 5 (50867) Note On ch=5 par1=55 par2=76
Channel Event. t= 12 (50879) Note On ch=5 par1=60 par2=83
Channel Event. t= 1 (50880) Note Off ch=5 par1=48 par2=64
Channel Event. t= 23 (50903) Note Off ch=5 par1=52 par2=64
Channel Event. t= 8 (50911) Note Off ch=5 par1=55 par2=64
Channel Event. t= 44 (50955) Note Off ch=5 par1=60 par2=64
Channel Event. t= 105 (51060) Note On ch=5 par1=42 par2=74
Channel Event. t= 24 (51084) Note Off ch=5 par1=36 par2=64
Channel Event. t= 144 (51228) Note On ch=5 par1=51 par2=55
Channel Event. t= 15 (51243) Note On ch=5 par1=54 par2=72
Channel Event. t= 8 (51251) Note On ch=5 par1=59 par2=77
Channel Event. t= 8 (51259) Note On ch=5 par1=63 par2=82
Channel Event. t= 5 (51264) Note Off ch=5 par1=51 par2=64
Channel Event. t= 20 (51284) Note Off ch=5 par1=54 par2=64
Channel Event. t= 14 (51298) Note Off ch=5 par1=59 par2=64
Channel Event. t= 10 (51308) Note Off ch=5 par1=63 par2=64
Channel Event. t= 135 (51443) Note On ch=5 par1=48 par2=64
Channel Event. t= 11 (51454) Note Off ch=5 par1=42 par2=64
Channel Event. t= 160 (51614) Note Off ch=5 par1=48 par2=64
Channel Event. t= 0 (51614) Note On ch=5 par1=48 par2=50
Channel Event. t= 13 (51627) Note On ch=5 par1=52 par2=71
Channel Event. t= 4 (51631) Note On ch=5 par1=55 par2=74
Channel Event. t= 7 (51638) Note On ch=5 par1=60 par2=79
Channel Event. t= 15 (51653) Note Off ch=5 par1=48 par2=64
Channel Event. t= 24 (51677) Note Off ch=5 par1=52 par2=64
Channel Event. t= 6 (51683) Note Off ch=5 par1=55 par2=64
Channel Event. t= 11 (51694) Note Off ch=5 par1=60 par2=64
Channel Event. t= 137 (51831) Note On ch=5 par1=42 par2=70
Channel Event. t= 175 (52006) Note On ch=5 par1=51 par2=61
Channel Event. t= 8 (52014) Note On ch=5 par1=54 par2=81
Channel Event. t= 8 (52022) Note On ch=5 par1=59 par2=81
Channel Event. t= 7 (52029) Note On ch=5 par1=63 par2=84
Channel Event. t= 10 (52039) Note Off ch=5 par1=51 par2=64
Channel Event. t= 21 (52060) Note Off ch=5 par1=54 par2=64
Channel Event. t= 9 (52069) Note Off ch=5 par1=59 par2=64
Channel Event. t= 14 (52083) Note Off ch=5 par1=63 par2=64
Channel Event. t= 135 (52218) Note On ch=5 par1=36 par2=83
Channel Event. t= 13 (52231) Note Off ch=5 par1=42 par2=64
Channel Event. t= 170 (52401) Note On ch=5 par1=48 par2=63
Channel Event. t= 12 (52413) Note On ch=5 par1=52 par2=75
Channel Event. t= 5 (52418) Note On ch=5 par1=55 par2=69
Channel Event. t= 7 (52425) Note On ch=5 par1=60 par2=74
Channel Event. t= 13 (52438) Note Off ch=5 par1=48 par2=64
Channel Event. t= 19 (52457) Note Off ch=5 par1=52 par2=64
Channel Event. t= 11 (52468) Note Off ch=5 par1=55 par2=64
Channel Event. t= 10 (52478) Note Off ch=5 par1=60 par2=64
Channel Event. t= 120 (52598) Note On ch=5 par1=42 par2=84
Channel Event. t= 25 (52623) Note Off ch=5 par1=36 par2=64
Channel Event. t= 159 (52782) Note On ch=5 par1=51 par2=63
Channel Event. t= 10 (52792) Note On ch=5 par1=54 par2=83
Channel Event. t= 6 (52798) Note On ch=5 par1=59 par2=80
Channel Event. t= 4 (52802) Note On ch=5 par1=63 par2=87
Channel Event. t= 12 (52814) Note Off ch=5 par1=51 par2=64
Channel Event. t= 16 (52830) Note Off ch=5 par1=54 par2=64
Channel Event. t= 9 (52839) Note Off ch=5 par1=59 par2=64
Channel Event. t= 19 (52858) Note Off ch=5 par1=63 par2=64
Channel Event. t= 132 (52990) Note On ch=5 par1=48 par2=72
Channel Event. t= 11 (53001) Note Off ch=5 par1=42 par2=64
Channel Event. t= 160 (53161) Note Off ch=5 par1=48 par2=64
Channel Event. t= 0 (53161) Note On ch=5 par1=48 par2=58
Channel Event. t= 11 (53172) Note On ch=5 par1=52 par2=78
Channel Event. t= 5 (53177) Note On ch=5 par1=55 par2=76
Channel Event. t= 7 (53184) Note On ch=5 par1=60 par2=83
Channel Event. t= 12 (53196) Note Off ch=5 par1=48 par2=64
Channel Event. t= 14 (53210) Note Off ch=5 par1=52 par2=64
Channel Event. t= 7 (53217) Note Off ch=5 par1=55 par2=64
Channel Event. t= 15 (53232) Note Off ch=5 par1=60 par2=64
Channel Event. t= 137 (53369) Note On ch=5 par1=42 par2=79
Channel Event. t= 180 (53549) Note On ch=5 par1=51 par2=68
Channel Event. t= 7 (53556) Note On ch=5 par1=54 par2=75
Channel Event. t= 7 (53563) Note On ch=5 par1=59 par2=77
Channel Event. t= 8 (53571) Note On ch=5 par1=63 par2=86
Channel Event. t= 10 (53581) Note Off ch=5 par1=51 par2=64
Channel Event. t= 13 (53594) Note Off ch=5 par1=54 par2=64
Channel Event. t= 12 (53606) Note Off ch=5 par1=59 par2=64
Channel Event. t= 22 (53628) Note Off ch=5 par1=63 par2=64
Channel Event. t= 125 (53753) Note On ch=5 par1=36 par2=68
Channel Event. t= 18 (53771) Note Off ch=5 par1=42 par2=64
Channel Event. t= 147 (53918) Note On ch=5 par1=48 par2=61
Channel Event. t= 11 (53929) Note On ch=5 par1=52 par2=78
Channel Event. t= 4 (53933) Note On ch=5 par1=55 par2=81
Channel Event. t= 7 (53940) Note On ch=5 par1=60 par2=89
Channel Event. t= 11 (53951) Note Off ch=5 par1=48 par2=64
Channel Event. t= 16 (53967) Note Off ch=5 par1=52 par2=64
Channel Event. t= 6 (53973) Note Off ch=5 par1=55 par2=64
Channel Event. t= 19 (53992) Note Off ch=5 par1=60 par2=64
Channel Event. t= 140 (54132) Note On ch=5 par1=42 par2=78
Channel Event. t= 29 (54161) Note Off ch=5 par1=36 par2=64
Channel Event. t= 140 (54301) Note On ch=5 par1=51 par2=65
Channel Event. t= 12 (54313) Note On ch=5 par1=54 par2=76
Channel Event. t= 6 (54319) Note On ch=5 par1=59 par2=79
Channel Event. t= 10 (54329) Note On ch=5 par1=63 par2=85
Channel Event. t= 10 (54339) Note Off ch=5 par1=51 par2=64
Channel Event. t= 16 (54355) Note Off ch=5 par1=54 par2=64
Channel Event. t= 10 (54365) Note Off ch=5 par1=59 par2=64
Channel Event. t= 31 (54396) Note Off ch=5 par1=63 par2=64
Channel Event. t= 120 (54516) Note On ch=5 par1=48 par2=76
Channel Event. t= 14 (54530) Note Off ch=5 par1=42 par2=64
Channel Event. t= 148 (54678) Note Off ch=5 par1=48 par2=64
Channel Event. t= 0 (54678) Note On ch=5 par1=48 par2=61
Channel Event. t= 11 (54689) Note On ch=5 par1=52 par2=77
Channel Event. t= 4 (54693) Note On ch=5 par1=55 par2=78
Channel Event. t= 8 (54701) Note On ch=5 par1=60 par2=89
Channel Event. t= 9 (54710) Note Off ch=5 par1=48 par2=64
Channel Event. t= 9 (54719) Note Off ch=5 par1=52 par2=64
Channel Event. t= 10 (54729) Note Off ch=5 par1=55 par2=64
Channel Event. t= 25 (54754) Note Off ch=5 par1=60 par2=64
Channel Event. t= 146 (54900) Note On ch=5 par1=42 par2=72
Channel Event. t= 183 (55083) Note On ch=5 par1=51 par2=60
Channel Event. t= 10 (55093) Note On ch=5 par1=54 par2=74
Channel Event. t= 8 (55101) Note On ch=5 par1=59 par2=78
Channel Event. t= 6 (55107) Note On ch=5 par1=63 par2=85
Channel Event. t= 9 (55116) Note Off ch=5 par1=51 par2=64
Channel Event. t= 15 (55131) Note Off ch=5 par1=54 par2=64
Channel Event. t= 12 (55143) Note Off ch=5 par1=59 par2=64
Channel Event. t= 26 (55169) Note Off ch=5 par1=63 par2=64
Channel Event. t= 128 (55297) Note On ch=5 par1=36 par2=72
Channel Event. t= 13 (55310) Note Off ch=5 par1=42 par2=64
Channel Event. t= 156 (55466) Note On ch=5 par1=48 par2=57
Channel Event. t= 12 (55478) Note On ch=5 par1=52 par2=76
Channel Event. t= 3 (55481) Note On ch=5 par1=55 par2=73
Channel Event. t= 8 (55489) Note On ch=5 par1=60 par2=85
Channel Event. t= 21 (55510) Note Off ch=5 par1=48 par2=64
Channel Event. t= 22 (55532) Note Off ch=5 par1=52 par2=64
Channel Event. t= 7 (55539) Note Off ch=5 par1=55 par2=64
Channel Event. t= 18 (55557) Note Off ch=5 par1=60 par2=64
Channel Event. t= 115 (55672) Note On ch=5 par1=42 par2=63
Channel Event. t= 31 (55703) Note Off ch=5 par1=36 par2=64
Channel Event. t= 138 (55841) Note On ch=5 par1=58 par2=67
Channel Event. t= 9 (55850) Note On ch=5 par1=61 par2=81
Channel Event. t= 9 (55859) Note On ch=5 par1=64 par2=70
Channel Event. t= 7 (55866) Note On ch=5 par1=70 par2=81
Channel Event. t= 11 (55877) Note Off ch=5 par1=58 par2=64
Channel Event. t= 17 (55894) Note Off ch=5 par1=61 par2=64
Channel Event. t= 10 (55904) Note Off ch=5 par1=64 par2=64
Channel Event. t= 8 (55912) Note Off ch=5 par1=70 par2=64
Channel Event. t= 133 (56045) Note On ch=5 par1=59 par2=82
Channel Event. t= 16 (56061) Note On ch=5 par1=35 par2=66
Channel Event. t= 13 (56074) Note Off ch=5 par1=42 par2=64
Channel Event. t= 1144 (57218) Note Off ch=5 par1=59 par2=64
Channel Event. t= 4 (57222) Note Off ch=5 par1=35 par2=64
Channel Event. t= 381 (57603) Note On ch=5 par1=43 par2=32
Channel Event. t= 3 (57606) Note On ch=5 par1=36 par2=26
Channel Event. t= 77 (57683) Note Off ch=5 par1=43 par2=64
Channel Event. t= 5 (57688) Note Off ch=5 par1=36 par2=64
Channel Event. t= 104 (57792) Note On ch=5 par1=76 par2=38
Channel Event. t= 0 (57792) Note On ch=5 par1=67 par2=40
Channel Event. t= 47 (57839) Note Off ch=5 par1=67 par2=64
Channel Event. t= 16 (57855) Note Off ch=5 par1=76 par2=64
Channel Event. t= 125 (57980) Note On ch=5 par1=43 par2=24
Channel Event. t= 2 (57982) Note On ch=5 par1=36 par2=19
Channel Event. t= 77 (58059) Note Off ch=5 par1=43 par2=64
Channel Event. t= 1 (58060) Note Off ch=5 par1=36 par2=64
Channel Event. t= 116 (58176) Note On ch=5 par1=79 par2=33
Channel Event. t= 0 (58176) Note On ch=5 par1=88 par2=45
Channel Event. t= 55 (58231) Note Off ch=5 par1=79 par2=64
Channel Event. t= 1 (58232) Note Off ch=5 par1=88 par2=64
Channel Event. t= 135 (58367) Note On ch=5 par1=43 par2=26
Channel Event. t= 1 (58368) Note On ch=5 par1=36 par2=34
Channel Event. t= 83 (58451) Note Off ch=5 par1=43 par2=64
Channel Event. t= 2 (58453) Note Off ch=5 par1=36 par2=64
Channel Event. t= 107 (58560) Note On ch=5 par1=79 par2=31
Channel Event. t= 0 (58560) Note On ch=5 par1=88 par2=23
Channel Event. t= 54 (58614) Note Off ch=5 par1=79 par2=64
Channel Event. t= 17 (58631) Note Off ch=5 par1=88 par2=64
Channel Event. t= 118 (58749) Note On ch=5 par1=43 par2=30
Channel Event. t= 2 (58751) Note On ch=5 par1=36 par2=30
Channel Event. t= 81 (58832) Note Off ch=5 par1=43 par2=64
Channel Event. t= 2 (58834) Note Off ch=5 par1=36 par2=64
Channel Event. t= 110 (58944) Note On ch=5 par1=88 par2=39
Channel Event. t= 0 (58944) Note On ch=5 par1=79 par2=34
Channel Event. t= 68 (59012) Note Off ch=5 par1=79 par2=64
Channel Event. t= 17 (59029) Note Off ch=5 par1=88 par2=64
Channel Event. t= 101 (59130) Note On ch=5 par1=43 par2=32
Channel Event. t= 1 (59131) Note On ch=5 par1=36 par2=35
Channel Event. t= 81 (59212) Note Off ch=5 par1=43 par2=64
Channel Event. t= 3 (59215) Note Off ch=5 par1=36 par2=64
Channel Event. t= 113 (59328) Note On ch=5 par1=79 par2=64
Channel Event. t= 0 (59328) Note On ch=5 par1=88 par2=64
Channel Event. t= 48 (59376) Note Off ch=5 par1=79 par2=64
Channel Event. t= 0 (59376) Note Off ch=5 par1=88 par2=64
Channel Event. t= 138 (59514) Note On ch=5 par1=43 par2=29
Channel Event. t= 1 (59515) Note On ch=5 par1=36 par2=28
Channel Event. t= 85 (59600) Note Off ch=5 par1=43 par2=64
Channel Event. t= 1 (59601) Note Off ch=5 par1=36 par2=64
Channel Event. t= 111 (59712) Note On ch=5 par1=79 par2=64
Channel Event. t= 0 (59712) Note On ch=5 par1=88 par2=64
Channel Event. t= 48 (59760) Note Off ch=5 par1=79 par2=64
Channel Event. t= 0 (59760) Note Off ch=5 par1=88 par2=64
Channel Event. t= 140 (59900) Note On ch=5 par1=43 par2=42
Channel Event. t= 0 (59900) Note On ch=5 par1=36 par2=29
Channel Event. t= 95 (59995) Note Off ch=5 par1=43 par2=64
Channel Event. t= 1 (59996) Note Off ch=5 par1=36 par2=64
Channel Event. t= 100 (60096) Note On ch=5 par1=72 par2=24
Channel Event. t= 0 (60096) Note On ch=5 par1=81 par2=40
Channel Event. t= 69 (60165) Note Off ch=5 par1=72 par2=64
Channel Event. t= 12 (60177) Note Off ch=5 par1=81 par2=64
Channel Event. t= 120 (60297) Note On ch=5 par1=48 par2=37
Channel Event. t= 0 (60297) Note On ch=5 par1=41 par2=36
Channel Event. t= 78 (60375) Note Off ch=5 par1=41 par2=64
Channel Event. t= 6 (60381) Note Off ch=5 par1=48 par2=64
Channel Event. t= 99 (60480) Note On ch=5 par1=81 par2=27
Channel Event. t= 4 (60484) Note On ch=5 par1=72 par2=16
Channel Event. t= 74 (60558) Note Off ch=5 par1=72 par2=64
Channel Event. t= 6 (60564) Note Off ch=5 par1=81 par2=64
Channel Event. t= 114 (60678) Note On ch=5 par1=42 par2=38
Channel Event. t= 3 (60681) Note On ch=5 par1=48 par2=22
Channel Event. t= 75 (60756) Note Off ch=5 par1=42 par2=64
Channel Event. t= 11 (60767) Note Off ch=5 par1=48 par2=64
Channel Event. t= 100 (60867) Note On ch=5 par1=81 par2=80
Channel Event. t= 3 (60870) Note On ch=5 par1=72 par2=66
Channel Event. t= 40 (60910) Note Off ch=5 par1=72 par2=64
Channel Event. t= 8 (60918) Note Off ch=5 par1=81 par2=64
Channel Event. t= 132 (61050) Note On ch=5 par1=42 par2=49
Channel Event. t= 6 (61056) Note On ch=5 par1=48 par2=23
Channel Event. t= 84 (61140) Note Off ch=5 par1=48 par2=64
Channel Event. t= 4 (61144) Note Off ch=5 par1=42 par2=64
Channel Event. t= 104 (61248) Note On ch=5 par1=72 par2=41
Channel Event. t= 0 (61248) Note On ch=5 par1=81 par2=27
Channel Event. t= 74 (61322) Note Off ch=5 par1=81 par2=64
Channel Event. t= 14 (61336) Note Off ch=5 par1=72 par2=64
Channel Event. t= 296 (61632) Note On ch=5 par1=36 par2=59
Channel Event. t= 0 (61632) Note On ch=5 par1=67 par2=42
Channel Event. t= 0 (61632) Note On ch=5 par1=76 par2=56
Channel Event. t= 56 (61688) Note Off ch=5 par1=76 par2=64
Channel Event. t= 10 (61698) Note Off ch=5 par1=67 par2=64
Channel Event. t= 126 (61824) Note On ch=5 par1=64 par2=58
Channel Event. t= 0 (61824) Note On ch=5 par1=72 par2=61
Channel Event. t= 66 (61890) Note Off ch=5 par1=64 par2=64
Channel Event. t= 13 (61903) Note Off ch=5 par1=72 par2=64
Channel Event. t= 138 (62041) Note Off ch=5 par1=36 par2=64
Channel Event. t= 71 (62112) Note On ch=5 par1=36 par2=69
Channel Event. t= 78 (62190) Note Off ch=5 par1=36 par2=64
Channel Event. t= 18 (62208) Note On ch=5 par1=43 par2=71
Channel Event. t= 60 (62268) Note Off ch=5 par1=43 par2=64
Channel Event. t= 36 (62304) Note On ch=5 par1=43 par2=64
Channel Event. t= 39 (62343) Note Off ch=5 par1=43 par2=64
Channel Event. t= 57 (62400) Note On ch=5 par1=36 par2=79
Channel Event. t= 335 (62735) Note Off ch=5 par1=36 par2=64
Channel Event. t= 1 (62736) Note On ch=5 par1=39 par2=79
Channel Event. t= 48 (62784) Note On ch=5 par1=40 par2=74
Channel Event. t= 24 (62808) Note Off ch=5 par1=39 par2=64
Channel Event. t= 97 (62905) Note Off ch=5 par1=40 par2=64
Channel Event. t= 23 (62928) Note On ch=5 par1=44 par2=73
Channel Event. t= 48 (62976) Note On ch=5 par1=45 par2=71
Channel Event. t= 1 (62977) Note Off ch=5 par1=44 par2=64
Channel Event. t= 116 (63093) Note Off ch=5 par1=45 par2=64
Channel Event. t= 27 (63120) Note On ch=5 par1=41 par2=63
Channel Event. t= 48 (63168) Note On ch=5 par1=50 par2=69
Channel Event. t= 20 (63188) Note Off ch=5 par1=41 par2=64
Channel Event. t= 76 (63264) Note Off ch=5 par1=50 par2=64
Channel Event. t= 48 (63312) Note On ch=5 par1=50 par2=71
Channel Event. t= 40 (63352) Note Off ch=5 par1=50 par2=64
Channel Event. t= 8 (63360) Note On ch=5 par1=50 par2=86
Channel Event. t= 64 (63424) Note On ch=5 par1=51 par2=78
Channel Event. t= 4 (63428) Note Off ch=5 par1=50 par2=64
Channel Event. t= 48 (63476) Note Off ch=5 par1=51 par2=64
Channel Event. t= 12 (63488) Note On ch=5 par1=52 par2=82
Channel Event. t= 34 (63522) Note Off ch=5 par1=52 par2=64
Channel Event. t= 30 (63552) Note On ch=5 par1=52 par2=79
Channel Event. t= 62 (63614) Note Off ch=5 par1=52 par2=64
Channel Event. t= 2 (63616) Note On ch=5 par1=53 par2=77
Channel Event. t= 64 (63680) Note On ch=5 par1=54 par2=77
Channel Event. t= 8 (63688) Note Off ch=5 par1=53 par2=64
Channel Event. t= 56 (63744) Note On ch=5 par1=55 par2=91
Channel Event. t= 6 (63750) Note Off ch=5 par1=54 par2=64
Channel Event. t= 570 (64320) Note On ch=5 par1=56 par2=80
Channel Event. t= 6 (64326) Note Off ch=5 par1=55 par2=64
Channel Event. t= 57 (64383) Note Off ch=5 par1=56 par2=64
Channel Event. t= 1 (64384) Note On ch=5 par1=57 par2=65
Channel Event. t= 64 (64448) Note On ch=5 par1=58 par2=75
Channel Event. t= 3 (64451) Note Off ch=5 par1=57 par2=64
Channel Event. t= 61 (64512) Note On ch=5 par1=59 par2=90
Channel Event. t= 12 (64524) Note Off ch=5 par1=58 par2=64
Channel Event. t= 368 (64892) Note Off ch=5 par1=59 par2=64
Channel Event. t= 4 (64896) Note On ch=5 par1=60 par2=71
Channel Event. t= 166 (65062) Note Off ch=5 par1=60 par2=64
Channel Event. t= 209 (65271) Note On ch=5 par1=55 par2=27
Channel Event. t= 3 (65274) Note On ch=5 par1=52 par2=19
Channel Event. t= 2 (65276) Note On ch=5 par1=48 par2=49
Channel Event. t= 761 (66037) Note Off ch=5 par1=48 par2=64
Channel Event. t= 45 (66082) Note Off ch=5 par1=52 par2=64
Channel Event. t= 3 (66085) Note Off ch=5 par1=55 par2=64
Channel Event. t= 635 (66720) Controller ch=5 par1=7 (Main Volume) par2=102
Channel Event. t= 88 (66808) Note On ch=5 par1=43 par2=48
Channel Event. t= 2 (66810) Note On ch=5 par1=36 par2=36
Channel Event. t= 8 (66818) Note On ch=5 par1=52 par2=66
Channel Event. t= 135 (66953) Note Off ch=5 par1=36 par2=64
Channel Event. t= 1 (66954) Note Off ch=5 par1=43 par2=64
Channel Event. t= 12 (66966) Note Off ch=5 par1=52 par2=64
Channel Event. t= 28 (66994) Note On ch=5 par1=55 par2=63
Channel Event. t= 3 (66997) Note On ch=5 par1=52 par2=52
Channel Event. t= 165 (67162) Note Off ch=5 par1=55 par2=64
Channel Event. t= 11 (67173) Note Off ch=5 par1=52 par2=64
Channel Event. t= 13 (67186) Note On ch=5 par1=55 par2=50
Channel Event. t= 0 (67186) Note On ch=5 par1=57 par2=74
Channel Event. t= 6 (67192) Note On ch=5 par1=47 par2=66
Channel Event. t= 3 (67195) Note On ch=5 par1=40 par2=65
Channel Event. t= 171 (67366) Note Off ch=5 par1=57 par2=64
Channel Event. t= 1 (67367) Note Off ch=5 par1=55 par2=64
Channel Event. t= 1 (67368) Note Off ch=5 par1=40 par2=64
Channel Event. t= 5 (67373) Note Off ch=5 par1=47 par2=64
Channel Event. t= 13 (67386) Note On ch=5 par1=57 par2=69
Channel Event. t= 1 (67387) Note On ch=5 par1=52 par2=62
Channel Event. t= 173 (67560) Note Off ch=5 par1=52 par2=64
Channel Event. t= 7 (67567) Note Off ch=5 par1=57 par2=64
Channel Event. t= 13 (67580) Note On ch=5 par1=52 par2=80
Channel Event. t= 2 (67582) Note On ch=5 par1=43 par2=60
Channel Event. t= 1 (67583) Note On ch=5 par1=36 par2=52
Channel Event. t= 171 (67754) Note Off ch=5 par1=52 par2=64
Channel Event. t= 13 (67767) Note Off ch=5 par1=36 par2=64
Channel Event. t= 5 (67772) Note On ch=5 par1=57 par2=76
Channel Event. t= 1 (67773) Note On ch=5 par1=52 par2=82
Channel Event. t= 2 (67775) Note Off ch=5 par1=43 par2=64
Channel Event. t= 181 (67956) Note Off ch=5 par1=57 par2=64
Channel Event. t= 0 (67956) Note Off ch=5 par1=52 par2=64
Channel Event. t= 2 (67958) Note On ch=5 par1=47 par2=63
Channel Event. t= 3 (67961) Note On ch=5 par1=40 par2=63
Channel Event. t= 1 (67962) Note On ch=5 par1=55 par2=92
Channel Event. t= 173 (68135) Note Off ch=5 par1=47 par2=64
Channel Event. t= 1 (68136) Note Off ch=5 par1=40 par2=64
Channel Event. t= 12 (68148) Note On ch=5 par1=57 par2=79
Channel Event. t= 1 (68149) Note Off ch=5 par1=55 par2=64
Channel Event. t= 0 (68149) Note On ch=5 par1=52 par2=77
Channel Event. t= 173 (68322) Note Off ch=5 par1=52 par2=64
Channel Event. t= 12 (68334) Note Off ch=5 par1=57 par2=64
Channel Event. t= 10 (68344) Note On ch=5 par1=52 par2=86
Channel Event. t= 3 (68347) Note On ch=5 par1=36 par2=58
Channel Event. t= 1 (68348) Note On ch=5 par1=43 par2=64
Channel Event. t= 162 (68510) Note Off ch=5 par1=52 par2=64
Channel Event. t= 22 (68532) Note Off ch=5 par1=43 par2=64
Channel Event. t= 1 (68533) Note On ch=5 par1=52 par2=76
Channel Event. t= 1 (68534) Note Off ch=5 par1=36 par2=64
Channel Event. t= 1 (68535) Note On ch=5 par1=55 par2=76
Channel Event. t= 168 (68703) Note Off ch=5 par1=55 par2=64
Channel Event. t= 12 (68715) Note Off ch=5 par1=52 par2=64
Channel Event. t= 7 (68722) Note On ch=5 par1=51 par2=80
Channel Event. t= 0 (68722) Note On ch=5 par1=54 par2=84
Channel Event. t= 5 (68727) Note On ch=5 par1=47 par2=67
Channel Event. t= 2 (68729) Note On ch=5 par1=40 par2=63
Channel Event. t= 170 (68899) Note Off ch=5 par1=51 par2=64
Channel Event. t= 1 (68900) Note Off ch=5 par1=54 par2=64
Channel Event. t= 17 (68917) Note On ch=5 par1=51 par2=79
Channel Event. t= 2 (68919) Note On ch=5 par1=54 par2=80
Channel Event. t= 8 (68927) Note Off ch=5 par1=40 par2=64
Channel Event. t= 5 (68932) Note Off ch=5 par1=47 par2=64
Channel Event. t= 161 (69093) Note Off ch=5 par1=51 par2=64
Channel Event. t= 5 (69098) Note Off ch=5 par1=54 par2=64
Channel Event. t= 9 (69107) Note On ch=5 par1=52 par2=91
Channel Event. t= 10 (69117) Note On ch=5 par1=43 par2=67
Channel Event. t= 0 (69117) Note On ch=5 par1=36 par2=63
Channel Event. t= 161 (69278) Note Off ch=5 par1=52 par2=64
Channel Event. t= 19 (69297) Note On ch=5 par1=55 par2=79
Channel Event. t= 1 (69298) Note On ch=5 par1=52 par2=77
Channel Event. t= 27 (69325) Note Off ch=5 par1=36 par2=64
Channel Event. t= 1 (69326) Note Off ch=5 par1=43 par2=64
Channel Event. t= 143 (69469) Note Off ch=5 par1=55 par2=64
Channel Event. t= 5 (69474) Note Off ch=5 par1=52 par2=64
Channel Event. t= 16 (69490) Note On ch=5 par1=57 par2=78
Channel Event. t= 1 (69491) Note On ch=5 par1=55 par2=58
Channel Event. t= 4 (69495) Note On ch=5 par1=47 par2=45
Channel Event. t= 3 (69498) Note On ch=5 par1=40 par2=47
Channel Event. t= 167 (69665) Note Off ch=5 par1=57 par2=64
Channel Event. t= 2 (69667) Note Off ch=5 par1=55 par2=64
Channel Event. t= 18 (69685) Note On ch=5 par1=57 par2=86
Channel Event. t= 3 (69688) Note On ch=5 par1=52 par2=72
Channel Event. t= 10 (69698) Note Off ch=5 par1=47 par2=64
Channel Event. t= 17 (69715) Note Off ch=5 par1=40 par2=64
Channel Event. t= 166 (69881) Note On ch=5 par1=32 par2=75
Channel Event. t= 1 (69882) Note On ch=5 par1=39 par2=78
Channel Event. t= 7 (69889) Note Off ch=5 par1=52 par2=64
Channel Event. t= 4 (69893) Note Off ch=5 par1=57 par2=64
Channel Event. t= 179 (70072) Note On ch=5 par1=56 par2=85
Channel Event. t= 2 (70074) Note On ch=5 par1=48 par2=69
Channel Event. t= 73 (70147) Note Off ch=5 par1=32 par2=64
Channel Event. t= 9 (70156) Note Off ch=5 par1=39 par2=64
Channel Event. t= 108 (70264) Note Off ch=5 par1=48 par2=64
Channel Event. t= 0 (70264) Note On ch=5 par1=43 par2=48
Channel Event. t= 0 (70264) Note On ch=5 par1=36 par2=51
Channel Event. t= 4 (70268) Note Off ch=5 par1=56 par2=64
Channel Event. t= 177 (70445) Note On ch=5 par1=59 par2=74
Channel Event. t= 1 (70446) Note On ch=5 par1=55 par2=69
Channel Event. t= 43 (70489) Note Off ch=5 par1=36 par2=64
Channel Event. t= 30 (70519) Note Off ch=5 par1=43 par2=64
Channel Event. t= 112 (70631) Note Off ch=5 par1=59 par2=64
Channel Event. t= 2 (70633) Note Off ch=5 par1=55 par2=64
Channel Event. t= 19 (70652) Note On ch=5 par1=32 par2=67
Channel Event. t= 2 (70654) Note On ch=5 par1=39 par2=73
Channel Event. t= 181 (70835) Note On ch=5 par1=56 par2=82
Channel Event. t= 2 (70837) Note On ch=5 par1=48 par2=71
Channel Event. t= 61 (70898) Note Off ch=5 par1=32 par2=64
Channel Event. t= 12 (70910) Note Off ch=5 par1=39 par2=64
Channel Event. t= 106 (71016) Note Off ch=5 par1=48 par2=64
Channel Event. t= 2 (71018) Note Off ch=5 par1=56 par2=64
Channel Event. t= 15 (71033) Note On ch=5 par1=36 par2=52
Channel Event. t= 0 (71033) Note On ch=5 par1=43 par2=50
Channel Event. t= 187 (71220) Note On ch=5 par1=59 par2=78
Channel Event. t= 2 (71222) Note On ch=5 par1=53 par2=79
Channel Event. t= 9 (71231) Note Off ch=5 par1=36 par2=64
Channel Event. t= 10 (71241) Note Off ch=5 par1=43 par2=64
Channel Event. t= 159 (71400) Note Off ch=5 par1=59 par2=64
Channel Event. t= 4 (71404) Note Off ch=5 par1=53 par2=64
Channel Event. t= 16 (71420) Note On ch=5 par1=46 par2=74
Channel Event. t= 1 (71421) Note On ch=5 par1=39 par2=75
Channel Event. t= 187 (71608) Note On ch=5 par1=60 par2=80
Channel Event. t= 0 (71608) Note On ch=5 par1=51 par2=84
Channel Event. t= 80 (71688) Note Off ch=5 par1=46 par2=64
Channel Event. t= 24 (71712) Note Off ch=5 par1=39 par2=64
Channel Event. t= 76 (71788) Note Off ch=5 par1=51 par2=64
Channel Event. t= 4 (71792) Note Off ch=5 par1=60 par2=64
Channel Event. t= 14 (71806) Note On ch=5 par1=36 par2=50
Channel Event. t= 4 (71810) Note On ch=5 par1=43 par2=43
Channel Event. t= 181 (71991) Note On ch=5 par1=58 par2=80
Channel Event. t= 1 (71992) Note On ch=5 par1=50 par2=65
Channel Event. t= 33 (72025) Note Off ch=5 par1=36 par2=64
Channel Event. t= 4 (72029) Note Off ch=5 par1=43 par2=64
Channel Event. t= 142 (72171) Note Off ch=5 par1=58 par2=64
Channel Event. t= 2 (72173) Note Off ch=5 par1=50 par2=64
Channel Event. t= 15 (72188) Note On ch=5 par1=46 par2=63
Channel Event. t= 2 (72190) Note On ch=5 par1=39 par2=71
Channel Event. t= 180 (72370) Note On ch=5 par1=58 par2=73
Channel Event. t= 3 (72373) Note On ch=5 par1=55 par2=76
Channel Event. t= 77 (72450) Note Off ch=5 par1=46 par2=64
Channel Event. t= 9 (72459) Note Off ch=5 par1=39 par2=64
Channel Event. t= 113 (72572) Note Off ch=5 par1=58 par2=64
Channel Event. t= 0 (72572) Note Off ch=5 par1=55 par2=64
Channel Event. t= 3 (72575) Note On ch=5 par1=36 par2=50
Channel Event. t= 6 (72581) Note On ch=5 par1=43 par2=48
Channel Event. t= 179 (72760) Note Off ch=5 par1=36 par2=64
Channel Event. t= 1 (72761) Note Off ch=5 par1=43 par2=64
Channel Event. t= 194 (72955) Note On ch=5 par1=46 par2=52
Channel Event. t= 1 (72956) Note On ch=5 par1=39 par2=59
Channel Event. t= 177 (73133) Note On ch=5 par1=51 par2=53
Channel Event. t= 2 (73135) Note On ch=5 par1=60 par2=46
Channel Event. t= 50 (73185) Note Off ch=5 par1=39 par2=64
Channel Event. t= 4 (73189) Note Off ch=5 par1=46 par2=64
Channel Event. t= 98 (73287) Note Off ch=5 par1=51 par2=64
Channel Event. t= 6 (73293) Note Off ch=5 par1=60 par2=64
Channel Event. t= 42 (73335) Note On ch=5 par1=43 par2=49
Channel Event. t= 4 (73339) Note On ch=5 par1=50 par2=44
Channel Event. t= 177 (73516) Note Off ch=5 par1=50 par2=64
Channel Event. t= 1 (73517) Note Off ch=5 par1=43 par2=64
Channel Event. t= 5 (73522) Note On ch=5 par1=58 par2=58
Channel Event. t= 6 (73528) Note On ch=5 par1=53 par2=43
Channel Event. t= 131 (73659) Note Off ch=5 par1=58 par2=64
Channel Event. t= 5 (73664) Note Off ch=5 par1=53 par2=64
Channel Event. t= 46 (73710) Note On ch=5 par1=55 par2=74
Channel Event. t= 16 (73726) Note On ch=5 par1=39 par2=54
Channel Event. t= 1 (73727) Note On ch=5 par1=46 par2=63
Channel Event. t= 159 (73886) Note Off ch=5 par1=55 par2=64
Channel Event. t= 24 (73910) Note On ch=5 par1=60 par2=54
Channel Event. t= 1 (73911) Note On ch=5 par1=55 par2=35
Channel Event. t= 48 (73959) Note Off ch=5 par1=39 par2=64
Channel Event. t= 6 (73965) Note Off ch=5 par1=46 par2=64
Channel Event. t= 108 (74073) Note Off ch=5 par1=60 par2=64
Channel Event. t= 1 (74074) Note Off ch=5 par1=55 par2=64
Channel Event. t= 27 (74101) Note On ch=5 par1=58 par2=76
Channel Event. t= 13 (74114) Note On ch=5 par1=50 par2=41
Channel Event. t= 1 (74115) Note On ch=5 par1=43 par2=45
Channel Event. t= 156 (74271) Note Off ch=5 par1=58 par2=64
Channel Event. t= 24 (74295) Note On ch=5 par1=55 par2=66
Channel Event. t= 2 (74297) Note On ch=5 par1=58 par2=65
Channel Event. t= 22 (74319) Note Off ch=5 par1=43 par2=64
Channel Event. t= 19 (74338) Note Off ch=5 par1=50 par2=64
Channel Event. t= 118 (74456) Note Off ch=5 par1=58 par2=64
Channel Event. t= 5 (74461) Note Off ch=5 par1=55 par2=64
Channel Event. t= 26 (74487) Note On ch=5 par1=55 par2=61
Channel Event. t= 10 (74497) Note On ch=5 par1=46 par2=68
Channel Event. t= 0 (74497) Note On ch=5 par1=39 par2=63
Channel Event. t= 150 (74647) Note Off ch=5 par1=55 par2=64
Channel Event. t= 27 (74674) Note On ch=5 par1=55 par2=55
Channel Event. t= 11 (74685) Note On ch=5 par1=58 par2=61
Channel Event. t= 55 (74740) Note Off ch=5 par1=39 par2=64
Channel Event. t= 1 (74741) Note Off ch=5 par1=46 par2=64
Channel Event. t= 115 (74856) Note Off ch=5 par1=55 par2=64
Channel Event. t= 7 (74863) Note Off ch=5 par1=58 par2=64
Channel Event. t= 11 (74874) Note On ch=5 par1=57 par2=66
Channel Event. t= 1 (74875) Note On ch=5 par1=42 par2=59
Channel Event. t= 3 (74878) Note On ch=5 par1=50 par2=40
Channel Event. t= 5 (74883) Note On ch=5 par1=54 par2=20
Channel Event. t= 156 (75039) Note Off ch=5 par1=54 par2=64
Channel Event. t= 3 (75042) Note Off ch=5 par1=57 par2=64
Channel Event. t= 24 (75066) Note On ch=5 par1=54 par2=58
Channel Event. t= 0 (75066) Note On ch=5 par1=57 par2=55
Channel Event. t= 27 (75093) Note Off ch=5 par1=42 par2=64
Channel Event. t= 36 (75129) Note Off ch=5 par1=50 par2=64
Channel Event. t= 103 (75232) Note Off ch=5 par1=54 par2=64
Channel Event. t= 13 (75245) Note Off ch=5 par1=57 par2=64
Channel Event. t= 10 (75255) Note On ch=5 par1=55 par2=74
Channel Event. t= 13 (75268) Note On ch=5 par1=39 par2=65
Channel Event. t= 3 (75271) Note On ch=5 par1=46 par2=68
Channel Event. t= 156 (75427) Note Off ch=5 par1=55 par2=64
Channel Event. t= 20 (75447) Note On ch=5 par1=55 par2=59
Channel Event. t= 2 (75449) Note On ch=5 par1=58 par2=73
Channel Event. t= 63 (75512) Note Off ch=5 par1=39 par2=64
Channel Event. t= 2 (75514) Note Off ch=5 par1=46 par2=64
Channel Event. t= 106 (75620) Note Off ch=5 par1=55 par2=64
Channel Event. t= 2 (75622) Note Off ch=5 par1=58 par2=64
Channel Event. t= 17 (75639) Note On ch=5 par1=55 par2=74
Channel Event. t= 1 (75640) Note On ch=5 par1=43 par2=51
Channel Event. t= 0 (75640) Note On ch=5 par1=50 par2=44
Channel Event. t= 165 (75805) Note Off ch=5 par1=55 par2=64
Channel Event. t= 24 (75829) Note Off ch=5 par1=50 par2=64
Channel Event. t= 2 (75831) Note On ch=5 par1=60 par2=80
Channel Event. t= 1 (75832) Note On ch=5 par1=53 par2=76
Channel Event. t= 16 (75848) Note Off ch=5 par1=43 par2=64
Channel Event. t= 148 (75996) Note Off ch=5 par1=53 par2=64
Channel Event. t= 6 (76002) Note Off ch=5 par1=60 par2=64
Channel Event. t= 21 (76023) Note On ch=5 par1=47 par2=68
Channel Event. t= 0 (76023) Note On ch=5 par1=38 par2=67
Channel Event. t= 4 (76027) Note On ch=5 par1=54 par2=78
Channel Event. t= 1 (76028) Note On ch=5 par1=62 par2=82
Channel Event. t= 213 (76241) Note Off ch=5 par1=47 par2=64
Channel Event. t= 1 (76242) Note Off ch=5 par1=38 par2=64
Channel Event. t= 158 (76400) Note On ch=5 par1=47 par2=35
Channel Event. t= 7 (76407) Note On ch=5 par1=38 par2=36
Channel Event. t= 193 (76600) Note Off ch=5 par1=47 par2=64
Channel Event. t= 0 (76600) Note Off ch=5 par1=38 par2=64
Channel Event. t= 171 (76771) Note Off ch=5 par1=54 par2=64
Channel Event. t= 1 (76772) Note Off ch=5 par1=62 par2=64
Channel Event. t= 14 (76786) Note On ch=5 par1=38 par2=63
Channel Event. t= 2 (76788) Note On ch=5 par1=54 par2=80
Channel Event. t= 1 (76789) Note On ch=5 par1=48 par2=58
Channel Event. t= 0 (76789) Note On ch=5 par1=62 par2=81
Channel Event. t= 240 (77029) Note Off ch=5 par1=48 par2=64
Channel Event. t= 3 (77032) Note Off ch=5 par1=38 par2=64
Channel Event. t= 149 (77181) Note On ch=5 par1=48 par2=34
Channel Event. t= 1 (77182) Note On ch=5 par1=38 par2=34
Channel Event. t= 209 (77391) Note Off ch=5 par1=38 par2=64
Channel Event. t= 7 (77398) Note Off ch=5 par1=48 par2=64
Channel Event. t= 148 (77546) Note Off ch=5 par1=54 par2=64
Channel Event. t= 1 (77547) Note On ch=5 par1=55 par2=72
Channel Event. t= 2 (77549) Note On ch=5 par1=43 par2=61
Channel Event. t= 28 (77577) Note Off ch=5 par1=62 par2=64
Channel Event. t= 106 (77683) Note Off ch=5 par1=55 par2=64
Channel Event. t= 49 (77732) Note On ch=5 par1=50 par2=92
Channel Event. t= 13 (77745) Note On ch=5 par1=38 par2=74
Channel Event. t= 14 (77759) Note Off ch=5 par1=43 par2=64
Channel Event. t= 158 (77917) Note On ch=5 par1=55 par2=81
Channel Event. t= 21 (77938) Note On ch=5 par1=43 par2=61
Channel Event. t= 6 (77944) Note Off ch=5 par1=50 par2=64
Channel Event. t= 10 (77954) Note Off ch=5 par1=38 par2=64
Channel Event. t= 165 (78119) Note On ch=5 par1=57 par2=72
Channel Event. t= 12 (78131) Note Off ch=5 par1=55 par2=64
Channel Event. t= 1 (78132) Note On ch=5 par1=45 par2=51
Channel Event. t= 12 (78144) Note Off ch=5 par1=43 par2=64
Channel Event. t= 162 (78306) Note On ch=5 par1=55 par2=86
Channel Event. t= 18 (78324) Note On ch=5 par1=43 par2=49
Channel Event. t= 6 (78330) Note Off ch=5 par1=57 par2=64
Channel Event. t= 18 (78348) Note Off ch=5 par1=45 par2=64
Channel Event. t= 159 (78507) Note On ch=5 par1=53 par2=58
Channel Event. t= 10 (78517) Note Off ch=5 par1=55 par2=64
Channel Event. t= 19 (78536) Note Off ch=5 par1=43 par2=64
Channel Event. t= 19 (78555) Note On ch=5 par1=41 par2=5
Channel Event. t= 146 (78701) Note Off ch=5 par1=41 par2=64
Channel Event. t= 0 (78701) Note On ch=5 par1=40 par2=37
Channel Event. t= 7 (78708) Note On ch=5 par1=52 par2=51
Channel Event. t= 19 (78727) Note Off ch=5 par1=53 par2=64
Channel Event. t= 163 (78890) Note On ch=5 par1=50 par2=48
Channel Event. t= 2 (78892) Note Off ch=5 par1=40 par2=64
Channel Event. t= 1 (78893) Note On ch=5 par1=38 par2=50
Channel Event. t= 21 (78914) Note Off ch=5 par1=52 par2=64
Channel Event. t= 127 (79041) Note Off ch=5 par1=50 par2=64
Channel Event. t= 15 (79056) Controller ch=5 par1=7 (Main Volume) par2=70
Channel Event. t= 15 (79071) Note Off ch=5 par1=38 par2=64
Channel Event. t= 29 (79100) Note On ch=5 par1=37 par2=58
Channel Event. t= 1 (79101) Note On ch=5 par1=49 par2=36
Channel Event. t= 170 (79271) Note On ch=5 par1=56 par2=51
Channel Event. t= 17 (79288) Note On ch=5 par1=62 par2=48
Channel Event. t= 5 (79293) Note Off ch=5 par1=37 par2=64
Channel Event. t= 8 (79301) Note Off ch=5 par1=49 par2=64
Channel Event. t= 4 (79305) Note On ch=5 par1=65 par2=40
Channel Event. t= 3 (79308) Note On ch=5 par1=68 par2=50
Channel Event. t= 7 (79315) Note Off ch=5 par1=56 par2=64
Channel Event. t= 26 (79341) Note Off ch=5 par1=62 par2=64
Channel Event. t= 4 (79345) Note Off ch=5 par1=65 par2=64
Channel Event. t= 4 (79349) Note Off ch=5 par1=68 par2=64
Channel Event. t= 135 (79484) Note On ch=5 par1=44 par2=55
Channel Event. t= 161 (79645) Note On ch=5 par1=57 par2=30
Channel Event. t= 18 (79663) Note On ch=5 par1=60 par2=47
Channel Event. t= 8 (79671) Note On ch=5 par1=64 par2=51
Channel Event. t= 4 (79675) Note On ch=5 par1=69 par2=61
Channel Event. t= 16 (79691) Note Off ch=5 par1=57 par2=64
Channel Event. t= 4 (79695) Note Off ch=5 par1=44 par2=64
Channel Event. t= 11 (79706) Note Off ch=5 par1=60 par2=64
Channel Event. t= 11 (79717) Note Off ch=5 par1=64 par2=64
Channel Event. t= 7 (79724) Note Off ch=5 par1=69 par2=64
Channel Event. t= 140 (79864) Note On ch=5 par1=37 par2=43
Channel Event. t= 1 (79865) Note On ch=5 par1=49 par2=38
Channel Event. t= 153 (80018) Note On ch=5 par1=56 par2=59
Channel Event. t= 15 (80033) Note On ch=5 par1=61 par2=61
Channel Event. t= 15 (80048) Note On ch=5 par1=65 par2=44
Channel Event. t= 1 (80049) Note On ch=5 par1=68 par2=62
Channel Event. t= 20 (80069) Note Off ch=5 par1=56 par2=64
Channel Event. t= 5 (80074) Note Off ch=5 par1=37 par2=64
Channel Event. t= 1 (80075) Note Off ch=5 par1=49 par2=64
Channel Event. t= 1 (80076) Note Off ch=5 par1=61 par2=64
Channel Event. t= 14 (80090) Note Off ch=5 par1=65 par2=64
Channel Event. t= 5 (80095) Note Off ch=5 par1=68 par2=64
Channel Event. t= 159 (80254) Note On ch=5 par1=44 par2=34
Channel Event. t= 149 (80403) Note On ch=5 par1=56 par2=44
Channel Event. t= 28 (80431) Note On ch=5 par1=60 par2=33
Channel Event. t= 7 (80438) Note On ch=5 par1=64 par2=52
Channel Event. t= 5 (80443) Note On ch=5 par1=68 par2=63
Channel Event. t= 19 (80462) Note Off ch=5 par1=44 par2=64
Channel Event. t= 2 (80464) Note Off ch=5 par1=56 par2=64
Channel Event. t= 12 (80476) Note Off ch=5 par1=60 par2=64
Channel Event. t= 8 (80484) Note Off ch=5 par1=64 par2=64
Channel Event. t= 7 (80491) Note Off ch=5 par1=68 par2=64
Channel Event. t= 136 (80627) Note On ch=5 par1=37 par2=44
Channel Event. t= 3 (80630) Note On ch=5 par1=49 par2=42
Channel Event. t= 154 (80784) Note On ch=5 par1=56 par2=51
Channel Event. t= 14 (80798) Note On ch=5 par1=61 par2=64
Channel Event. t= 14 (80812) Note On ch=5 par1=65 par2=49
Channel Event. t= 6 (80818) Note On ch=5 par1=68 par2=65
Channel Event. t= 11 (80829) Note Off ch=5 par1=56 par2=64
Channel Event. t= 2 (80831) Note Off ch=5 par1=37 par2=64
Channel Event. t= 2 (80833) Note Off ch=5 par1=49 par2=64
Channel Event. t= 10 (80843) Note Off ch=5 par1=61 par2=64
Channel Event. t= 15 (80858) Note Off ch=5 par1=65 par2=64
Channel Event. t= 6 (80864) Note Off ch=5 par1=68 par2=64
Channel Event. t= 158 (81022) Note On ch=5 par1=44 par2=42
Channel Event. t= 142 (81164) Note On ch=5 par1=56 par2=51
Channel Event. t= 23 (81187) Note On ch=5 par1=60 par2=47
Channel Event. t= 17 (81204) Note On ch=5 par1=68 par2=58
Channel Event. t= 1 (81205) Note On ch=5 par1=64 par2=37
Channel Event. t= 12 (81217) Note Off ch=5 par1=56 par2=64
Channel Event. t= 8 (81225) Note Off ch=5 par1=44 par2=64
Channel Event. t= 9 (81234) Note Off ch=5 par1=60 par2=64
Channel Event. t= 11 (81245) Note Off ch=5 par1=64 par2=64
Channel Event. t= 5 (81250) Note Off ch=5 par1=68 par2=64
Channel Event. t= 145 (81395) Note On ch=5 par1=49 par2=60
Channel Event. t= 1 (81396) Note On ch=5 par1=37 par2=57
Channel Event. t= 145 (81541) Note On ch=5 par1=56 par2=59
Channel Event. t= 14 (81555) Note On ch=5 par1=61 par2=73
Channel Event. t= 17 (81572) Note On ch=5 par1=65 par2=61
Channel Event. t= 2 (81574) Note Off ch=5 par1=56 par2=64
Channel Event. t= 7 (81581) Note On ch=5 par1=68 par2=75
Channel Event. t= 14 (81595) Note Off ch=5 par1=61 par2=64
Channel Event. t= 15 (81610) Note Off ch=5 par1=37 par2=64
Channel Event. t= 0 (81610) Note Off ch=5 par1=49 par2=64
Channel Event. t= 1 (81611) Note Off ch=5 par1=65 par2=64
Channel Event. t= 11 (81622) Note Off ch=5 par1=68 par2=64
Channel Event. t= 166 (81788) Note On ch=5 par1=44 par2=56
Channel Event. t= 137 (81925) Note On ch=5 par1=56 par2=55
Channel Event. t= 25 (81950) Note On ch=5 par1=60 par2=52
Channel Event. t= 11 (81961) Note Off ch=5 par1=56 par2=64
Channel Event. t= 5 (81966) Note On ch=5 par1=64 par2=63
Channel Event. t= 8 (81974) Note On ch=5 par1=68 par2=79
Channel Event. t= 14 (81988) Note Off ch=5 par1=60 par2=64
Channel Event. t= 20 (82008) Note Off ch=5 par1=64 par2=64
Channel Event. t= 3 (82011) Note Off ch=5 par1=44 par2=64
Channel Event. t= 5 (82016) Note Off ch=5 par1=68 par2=64
Channel Event. t= 160 (82176) Note On ch=5 par1=49 par2=63
Channel Event. t= 100 (82276) Note Off ch=5 par1=49 par2=64
Channel Event. t= 92 (82368) Note On ch=5 par1=61 par2=75
Channel Event. t= 0 (82368) Note On ch=5 par1=53 par2=58
Channel Event. t= 102 (82470) Note Off ch=5 par1=53 par2=64
Channel Event. t= 5 (82475) Note Off ch=5 par1=61 par2=64
Channel Event. t= 85 (82560) Note On ch=5 par1=43 par2=47
Channel Event. t= 100 (82660) Note Off ch=5 par1=43 par2=64
Channel Event. t= 92 (82752) Note On ch=5 par1=55 par2=38
Channel Event. t= 0 (82752) Note On ch=5 par1=64 par2=48
Channel Event. t= 96 (82848) Note Off ch=5 par1=64 par2=64
Channel Event. t= 1 (82849) Note Off ch=5 par1=55 par2=64
Channel Event. t= 95 (82944) Note On ch=5 par1=49 par2=47
Channel Event. t= 101 (83045) Note Off ch=5 par1=49 par2=64
Channel Event. t= 91 (83136) Note On ch=5 par1=61 par2=67
Channel Event. t= 0 (83136) Note On ch=5 par1=53 par2=45
Channel Event. t= 96 (83232) Note Off ch=5 par1=53 par2=64
Channel Event. t= 14 (83246) Note Off ch=5 par1=61 par2=64
Channel Event. t= 82 (83328) Note On ch=5 par1=43 par2=37
Channel Event. t= 83 (83411) Note Off ch=5 par1=43 par2=64
Channel Event. t= 109 (83520) Note On ch=5 par1=55 par2=45
Channel Event. t= 0 (83520) Note On ch=5 par1=64 par2=58
Channel Event. t= 96 (83616) Note Off ch=5 par1=64 par2=64
Channel Event. t= 1 (83617) Note Off ch=5 par1=55 par2=64
Channel Event. t= 95 (83712) Note On ch=5 par1=49 par2=46
Channel Event. t= 92 (83804) Note Off ch=5 par1=49 par2=64
Channel Event. t= 100 (83904) Note On ch=5 par1=61 par2=58
Channel Event. t= 0 (83904) Note On ch=5 par1=53 par2=44
Channel Event. t= 90 (83994) Note Off ch=5 par1=53 par2=64
Channel Event. t= 10 (84004) Note Off ch=5 par1=61 par2=64
Channel Event. t= 92 (84096) Note On ch=5 par1=43 par2=51
Channel Event. t= 99 (84195) Note Off ch=5 par1=43 par2=64
Channel Event. t= 93 (84288) Note On ch=5 par1=55 par2=46
Channel Event. t= 0 (84288) Note On ch=5 par1=64 par2=55
Channel Event. t= 88 (84376) Note Off ch=5 par1=64 par2=64
Channel Event. t= 1 (84377) Note Off ch=5 par1=55 par2=64
Channel Event. t= 103 (84480) Note On ch=5 par1=49 par2=53
Channel Event. t= 105 (84585) Note Off ch=5 par1=49 par2=64
Channel Event. t= 87 (84672) Note On ch=5 par1=61 par2=63
Channel Event. t= 0 (84672) Note On ch=5 par1=53 par2=48
Channel Event. t= 92 (84764) Note Off ch=5 par1=53 par2=64
Channel Event. t= 16 (84780) Note Off ch=5 par1=61 par2=64
Channel Event. t= 84 (84864) Note On ch=5 par1=43 par2=45
Channel Event. t= 104 (84968) Note Off ch=5 par1=43 par2=64
Channel Event. t= 88 (85056) Note On ch=5 par1=55 par2=46
Channel Event. t= 0 (85056) Note On ch=5 par1=64 par2=52
Channel Event. t= 100 (85156) Note Off ch=5 par1=64 par2=64
Channel Event. t= 9 (85165) Note Off ch=5 par1=55 par2=64
Channel Event. t= 83 (85248) Note On ch=5 par1=49 par2=56
Channel Event. t= 94 (85342) Note Off ch=5 par1=49 par2=64
Channel Event. t= 98 (85440) Note On ch=5 par1=61 par2=59
Channel Event. t= 0 (85440) Note On ch=5 par1=53 par2=40
Channel Event. t= 93 (85533) Note Off ch=5 par1=53 par2=64
Channel Event. t= 12 (85545) Note Off ch=5 par1=61 par2=64
Channel Event. t= 87 (85632) Note On ch=5 par1=43 par2=50
Channel Event. t= 103 (85735) Note Off ch=5 par1=43 par2=64
Channel Event. t= 89 (85824) Note On ch=5 par1=55 par2=51
Channel Event. t= 0 (85824) Note On ch=5 par1=64 par2=56
Channel Event. t= 93 (85917) Note Off ch=5 par1=64 par2=64
Channel Event. t= 4 (85921) Note Off ch=5 par1=55 par2=64
Channel Event. t= 95 (86016) Note On ch=5 par1=49 par2=52
Channel Event. t= 93 (86109) Note Off ch=5 par1=49 par2=64
Channel Event. t= 99 (86208) Note On ch=5 par1=61 par2=68
Channel Event. t= 0 (86208) Note On ch=5 par1=53 par2=53
Channel Event. t= 88 (86296) Note Off ch=5 par1=53 par2=64
Channel Event. t= 21 (86317) Note Off ch=5 par1=61 par2=64
Channel Event. t= 83 (86400) Note On ch=5 par1=43 par2=56
Channel Event. t= 111 (86511) Note Off ch=5 par1=43 par2=64
Channel Event. t= 81 (86592) Note On ch=5 par1=55 par2=64
Channel Event. t= 0 (86592) Note On ch=5 par1=64 par2=64
Channel Event. t= 85 (86677) Note Off ch=5 par1=55 par2=64
Channel Event. t= 6 (86683) Note Off ch=5 par1=64 par2=64
Channel Event. t= 100 (86783) Note On ch=5 par1=43 par2=45
Channel Event. t= 3 (86786) Note On ch=5 par1=36 par2=42
Channel Event. t= 155 (86941) Note Off ch=5 par1=43 par2=64
Channel Event. t= 0 (86941) Note Off ch=5 par1=36 par2=64
Channel Event. t= 15 (86956) Note On ch=5 par1=57 par2=61
Channel Event. t= 17 (86973) Note On ch=5 par1=60 par2=74
Channel Event. t= 5 (86978) Note On ch=5 par1=64 par2=68
Channel Event. t= 15 (86993) Note On ch=5 par1=67 par2=59
Channel Event. t= 4 (86997) Note Off ch=5 par1=57 par2=64
Channel Event. t= 20 (87017) Note Off ch=5 par1=60 par2=64
Channel Event. t= 7 (87024) Note Off ch=5 par1=64 par2=64
Channel Event. t= 9 (87033) Note Off ch=5 par1=67 par2=64
Channel Event. t= 135 (87168) Note On ch=5 par1=43 par2=48
Channel Event. t= 0 (87168) Note On ch=5 par1=51 par2=55
Channel Event. t= 141 (87309) Note Off ch=5 par1=51 par2=64
Channel Event. t= 8 (87317) Note Off ch=5 par1=43 par2=64
Channel Event. t= 3 (87320) Note On ch=5 par1=55 par2=49
Channel Event. t= 17 (87337) Note On ch=5 par1=59 par2=69
Channel Event. t= 7 (87344) Note On ch=5 par1=62 par2=69
Channel Event. t= 14 (87358) Note On ch=5 par1=67 par2=63
Channel Event. t= 15 (87373) Note Off ch=5 par1=55 par2=64
Channel Event. t= 15 (87388) Note Off ch=5 par1=59 par2=64
Channel Event. t= 9 (87397) Note Off ch=5 par1=62 par2=64
Channel Event. t= 10 (87407) Note Off ch=5 par1=67 par2=64
Channel Event. t= 148 (87555) Note On ch=5 par1=36 par2=52
Channel Event. t= 0 (87555) Note On ch=5 par1=43 par2=53
Channel Event. t= 105 (87660) Note Off ch=5 par1=36 par2=64
Channel Event. t= 4 (87664) Note Off ch=5 par1=43 par2=64
Channel Event. t= 39 (87703) Note On ch=5 par1=55 par2=47
Channel Event. t= 16 (87719) Note On ch=5 par1=60 par2=62
Channel Event. t= 9 (87728) Note On ch=5 par1=64 par2=61
Channel Event. t= 10 (87738) Note On ch=5 par1=67 par2=71
Channel Event. t= 26 (87764) Note Off ch=5 par1=55 par2=64
Channel Event. t= 10 (87774) Note Off ch=5 par1=60 par2=64
Channel Event. t= 7 (87781) Note Off ch=5 par1=64 par2=64
Channel Event. t= 10 (87791) Note Off ch=5 par1=67 par2=64
Channel Event. t= 145 (87936) Note On ch=5 par1=51 par2=45
Channel Event. t= 0 (87936) Note On ch=5 par1=43 par2=50
Channel Event. t= 105 (88041) Note Off ch=5 par1=51 par2=64
Channel Event. t= 7 (88048) Note Off ch=5 par1=43 par2=64
Channel Event. t= 42 (88090) Note On ch=5 par1=55 par2=52
Channel Event. t= 15 (88105) Note On ch=5 par1=59 par2=72
Channel Event. t= 11 (88116) Note On ch=5 par1=63 par2=77
Channel Event. t= 10 (88126) Note On ch=5 par1=67 par2=69
Channel Event. t= 8 (88134) Note Off ch=5 par1=55 par2=64
Channel Event. t= 16 (88150) Note Off ch=5 par1=59 par2=64
Channel Event. t= 11 (88161) Note Off ch=5 par1=63 par2=64
Channel Event. t= 12 (88173) Note Off ch=5 par1=67 par2=64
Channel Event. t= 147 (88320) Note On ch=5 par1=48 par2=61
Channel Event. t= 190 (88510) Note Off ch=5 par1=48 par2=64
Channel Event. t= 2 (88512) Note On ch=5 par1=72 par2=63
Channel Event. t= 77 (88589) Note Off ch=5 par1=72 par2=64
Channel Event. t= 115 (88704) Note On ch=5 par1=55 par2=61
Channel Event. t= 192 (88896) Note On ch=5 par1=75 par2=79
Channel Event. t= 18 (88914) Note Off ch=5 par1=55 par2=64
Channel Event. t= 51 (88965) Note Off ch=5 par1=75 par2=64
Channel Event. t= 123 (89088) Note On ch=5 par1=60 par2=75
Channel Event. t= 55 (89143) Note Off ch=5 par1=60 par2=64
Channel Event. t= 137 (89280) Note On ch=5 par1=67 par2=62
Channel Event. t= 54 (89334) Note Off ch=5 par1=67 par2=64
Channel Event. t= 138 (89472) Note On ch=5 par1=67 par2=67
Channel Event. t= 192 (89664) Note On ch=5 par1=71 par2=71
Channel Event. t= 8 (89672) Note Off ch=5 par1=67 par2=64
Channel Event. t= 46 (89718) Note Off ch=5 par1=71 par2=64
Channel Event. t= 138 (89856) Note On ch=5 par1=76 par2=69
Channel Event. t= 186 (90042) Note Off ch=5 par1=76 par2=64
Channel Event. t= 6 (90048) Note On ch=5 par1=79 par2=33
Channel Event. t= 25 (90073) Note Off ch=5 par1=79 par2=64
Channel Event. t= 167 (90240) Note On ch=5 par1=76 par2=52
Channel Event. t= 188 (90428) Note Off ch=5 par1=76 par2=64
Channel Event. t= 4 (90432) Note On ch=5 par1=79 par2=36
Channel Event. t= 28 (90460) Note Off ch=5 par1=79 par2=64
Channel Event. t= 164 (90624) Note On ch=5 par1=76 par2=53
Channel Event. t= 93 (90717) Note Off ch=5 par1=76 par2=64
Channel Event. t= 99 (90816) Note On ch=5 par1=79 par2=44
Channel Event. t= 63 (90879) Note Off ch=5 par1=79 par2=64
Channel Event. t= 129 (91008) Note On ch=5 par1=76 par2=25
Channel Event. t= 135 (91143) Note Off ch=5 par1=76 par2=64
Channel Event. t= 57 (91200) Note On ch=5 par1=79 par2=40
Channel Event. t= 63 (91263) Note Off ch=5 par1=79 par2=64
Channel Event. t= 129 (91392) Note On ch=5 par1=76 par2=27
Channel Event. t= 153 (91545) Note Off ch=5 par1=76 par2=64
Channel Event. t= 39 (91584) Note On ch=5 par1=79 par2=52
Channel Event. t= 64 (91648) Note Off ch=5 par1=79 par2=64
Channel Event. t= 128 (91776) Note On ch=5 par1=76 par2=45
Channel Event. t= 135 (91911) Note Off ch=5 par1=76 par2=64
Channel Event. t= 57 (91968) Note On ch=5 par1=79 par2=56
Channel Event. t= 70 (92038) Note Off ch=5 par1=79 par2=64
Channel Event. t= 74 (92112) Controller ch=5 par1=10 (Pan) par2=60
Channel Event. t= 42 (92154) Note On ch=5 par1=76 par2=46
Channel Event. t= 85 (92239) Note Off ch=5 par1=76 par2=64
Channel Event. t= 297 (92536) Note On ch=5 par1=76 par2=48
Channel Event. t= 95 (92631) Note Off ch=5 par1=76 par2=64
Channel Event. t= 262 (92893) Note On ch=5 par1=78 par2=41
Channel Event. t= 18 (92911) Note On ch=5 par1=77 par2=47
Channel Event. t= 17 (92928) Note Off ch=5 par1=78 par2=64
Channel Event. t= 0 (92928) Note On ch=5 par1=86 par2=42
Channel Event. t= 0 (92928) Note On ch=5 par1=65 par2=35
Channel Event. t= 0 (92928) Note On ch=5 par1=82 par2=47
Channel Event. t= 94 (93022) Note Off ch=5 par1=82 par2=64
Channel Event. t= 2 (93024) Note Off ch=5 par1=86 par2=64
Channel Event. t= 0 (93024) Note On ch=5 par1=84 par2=44
Channel Event. t= 0 (93024) Note On ch=5 par1=81 par2=32
Channel Event. t= 95 (93119) Note Off ch=5 par1=84 par2=64
Channel Event. t= 1 (93120) Note On ch=5 par1=82 par2=46
Channel Event. t= 0 (93120) Note On ch=5 par1=79 par2=36
Channel Event. t= 17 (93137) Note Off ch=5 par1=81 par2=64
Channel Event. t= 79 (93216) Note Off ch=5 par1=82 par2=64
Channel Event. t= 0 (93216) Note On ch=5 par1=84 par2=67
Channel Event. t= 0 (93216) Note On ch=5 par1=81 par2=35
Channel Event. t= 11 (93227) Note Off ch=5 par1=79 par2=64
Channel Event. t= 85 (93312) Note Off ch=5 par1=84 par2=64
Channel Event. t= 0 (93312) Note On ch=5 par1=86 par2=52
Channel Event. t= 0 (93312) Note On ch=5 par1=82 par2=48
Channel Event. t= 6 (93318) Note Off ch=5 par1=81 par2=64
Channel Event. t= 129 (93447) Note Off ch=5 par1=77 par2=64
Channel Event. t= 12 (93459) Note Off ch=5 par1=82 par2=64
Channel Event. t= 38 (93497) Note On ch=5 par1=77 par2=61
Channel Event. t= 4 (93501) Note Off ch=5 par1=86 par2=64
Channel Event. t= 3 (93504) Note On ch=5 par1=85 par2=46
Channel Event. t= 0 (93504) Note On ch=5 par1=88 par2=54
Channel Event. t= 0 (93504) Note On ch=5 par1=76 par2=48
Channel Event. t= 0 (93504) Note On ch=5 par1=81 par2=46
Channel Event. t= 22 (93526) Note Off ch=5 par1=65 par2=64
Channel Event. t= 20 (93546) Note Off ch=5 par1=77 par2=64
Channel Event. t= 54 (93600) Note On ch=5 par1=75 par2=61
Channel Event. t= 6 (93606) Note Off ch=5 par1=76 par2=64
Channel Event. t= 79 (93685) Note Off ch=5 par1=85 par2=64
Channel Event. t= 5 (93690) Note Off ch=5 par1=88 par2=64
Channel Event. t= 1 (93691) Note Off ch=5 par1=75 par2=64
Channel Event. t= 5 (93696) Note On ch=5 par1=93 par2=61
Channel Event. t= 0 (93696) Note On ch=5 par1=74 par2=55
Channel Event. t= 0 (93696) Note On ch=5 par1=84 par2=67
Channel Event. t= 8 (93704) Note Off ch=5 par1=81 par2=64
Channel Event. t= 88 (93792) Note On ch=5 par1=75 par2=48
Channel Event. t= 6 (93798) Note Off ch=5 par1=74 par2=64
Channel Event. t= 74 (93872) Note On ch=5 par1=76 par2=53
Channel Event. t= 16 (93888) Note On ch=5 par1=85 par2=51
Channel Event. t= 0 (93888) Note On ch=5 par1=88 par2=48
Channel Event. t= 0 (93888) Note On ch=5 par1=81 par2=41
Channel Event. t= 2 (93890) Note Off ch=5 par1=75 par2=64
Channel Event. t= 8 (93898) Note Off ch=5 par1=93 par2=64
Channel Event. t= 13 (93911) Note Off ch=5 par1=76 par2=64
Channel Event. t= 3 (93914) Note Off ch=5 par1=84 par2=64
Channel Event. t= 70 (93984) Note On ch=5 par1=79 par2=49
Channel Event. t= 46 (94030) Note Off ch=5 par1=88 par2=64
Channel Event. t= 2 (94032) Note Off ch=5 par1=81 par2=64
Channel Event. t= 4 (94036) Note Off ch=5 par1=85 par2=64
Channel Event. t= 3 (94039) Note On ch=5 par1=78 par2=65
Channel Event. t= 18 (94057) Note On ch=5 par1=77 par2=53
Channel Event. t= 22 (94079) Note Off ch=5 par1=78 par2=64
Channel Event. t= 1 (94080) Note Off ch=5 par1=79 par2=64
Channel Event. t= 0 (94080) Note On ch=5 par1=86 par2=65
Channel Event. t= 0 (94080) Note On ch=5 par1=65 par2=42
Channel Event. t= 0 (94080) Note On ch=5 par1=82 par2=67
Channel Event. t= 96 (94176) Note Off ch=5 par1=82 par2=64
Channel Event. t= 0 (94176) Note On ch=5 par1=84 par2=49
Channel Event. t= 0 (94176) Note On ch=5 par1=81 par2=47
Channel Event. t= 28 (94204) Note Off ch=5 par1=86 par2=64
Channel Event. t= 68 (94272) Note On ch=5 par1=82 par2=55
Channel Event. t= 0 (94272) Note On ch=5 par1=79 par2=53
Channel Event. t= 4 (94276) Note Off ch=5 par1=81 par2=64
Channel Event. t= 6 (94282) Note Off ch=5 par1=84 par2=64
Channel Event. t= 86 (94368) Note On ch=5 par1=84 par2=54
Channel Event. t= 0 (94368) Note On ch=5 par1=81 par2=40
Channel Event. t= 9 (94377) Note Off ch=5 par1=82 par2=64
Channel Event. t= 7 (94384) Note Off ch=5 par1=79 par2=64
Channel Event. t= 80 (94464) Note On ch=5 par1=86 par2=54
Channel Event. t= 0 (94464) Note On ch=5 par1=82 par2=51
Channel Event. t= 13 (94477) Note Off ch=5 par1=84 par2=64
Channel Event. t= 9 (94486) Note Off ch=5 par1=81 par2=64
Channel Event. t= 104 (94590) Note Off ch=5 par1=86 par2=64
Channel Event. t= 11 (94601) Note Off ch=5 par1=77 par2=64
Channel Event. t= 25 (94626) Note Off ch=5 par1=82 par2=64
Channel Event. t= 8 (94634) Note On ch=5 par1=77 par2=56
Channel Event. t= 11 (94645) Note On ch=5 par1=76 par2=52
Channel Event. t= 11 (94656) Note On ch=5 par1=88 par2=56
Channel Event. t= 0 (94656) Note On ch=5 par1=85 par2=57
Channel Event. t= 0 (94656) Note On ch=5 par1=81 par2=59
Channel Event. t= 22 (94678) Note Off ch=5 par1=65 par2=64
Channel Event. t= 1 (94679) Note Off ch=5 par1=77 par2=64
Channel Event. t= 73 (94752) Note On ch=5 par1=75 par2=56
Channel Event. t= 3 (94755) Note Off ch=5 par1=76 par2=64
Channel Event. t= 93 (94848) Note On ch=5 par1=84 par2=53
Channel Event. t= 0 (94848) Note On ch=5 par1=93 par2=56
Channel Event. t= 0 (94848) Note On ch=5 par1=74 par2=51
Channel Event. t= 13 (94861) Note Off ch=5 par1=85 par2=64
Channel Event. t= 1 (94862) Note Off ch=5 par1=75 par2=64
Channel Event. t= 1 (94863) Note Off ch=5 par1=88 par2=64
Channel Event. t= 77 (94940) Note Off ch=5 par1=81 par2=64
Channel Event. t= 4 (94944) Note On ch=5 par1=75 par2=41
Channel Event. t= 12 (94956) Note Off ch=5 par1=74 par2=64
Channel Event. t= 72 (95028) Note Off ch=5 par1=84 par2=64
Channel Event. t= 0 (95028) Note Off ch=5 par1=93 par2=64
Channel Event. t= 12 (95040) Note On ch=5 par1=88 par2=59
Channel Event. t= 0 (95040) Note On ch=5 par1=76 par2=39
Channel Event. t= 15 (95055) Note Off ch=5 par1=75 par2=64
Channel Event. t= 24 (95079) Note Off ch=5 par1=76 par2=64
Channel Event. t= 57 (95136) Note On ch=5 par1=85 par2=58
Channel Event. t= 27 (95163) Note Off ch=5 par1=88 par2=64
Channel Event. t= 60 (95223) Note Off ch=5 par1=85 par2=64
Channel Event. t= 9 (95232) Controller ch=5 par1=7 (Main Volume) par2=70
Channel Event. t= 0 (95232) Note On ch=5 par1=70 par2=70
Channel Event. t= 0 (95232) Note On ch=5 par1=77 par2=70
Channel Event. t= 0 (95232) Note On ch=5 par1=86 par2=70
Channel Event. t= 96 (95328) Controller ch=5 par1=7 (Main Volume) par2=71
Channel Event. t= 0 (95328) Note On ch=5 par1=53 par2=71
Channel Event. t= 96 (95424) Controller ch=5 par1=7 (Main Volume) par2=72
Channel Event. t= 0 (95424) Note On ch=5 par1=55 par2=72
Channel Event. t= 16 (95440) Note Off ch=5 par1=53 par2=64
Channel Event. t= 80 (95520) Controller ch=5 par1=7 (Main Volume) par2=73
Channel Event. t= 0 (95520) Note On ch=5 par1=57 par2=73
Channel Event. t= 1 (95521) Note Off ch=5 par1=55 par2=64
Channel Event. t= 92 (95613) Note Off ch=5 par1=57 par2=64
Channel Event. t= 3 (95616) Controller ch=5 par1=7 (Main Volume) par2=74
Channel Event. t= 0 (95616) Note On ch=5 par1=58 par2=74
Channel Event. t= 11 (95627) Note Off ch=5 par1=70 par2=64
Channel Event. t= 6 (95633) Note Off ch=5 par1=77 par2=64
Channel Event. t= 4 (95637) Note Off ch=5 par1=86 par2=64
Channel Event. t= 64 (95701) Note Off ch=5 par1=58 par2=64
Channel Event. t= 11 (95712) Controller ch=5 par1=7 (Main Volume) par2=75
Channel Event. t= 0 (95712) Note On ch=5 par1=59 par2=75
Channel Event. t= 96 (95808) Note Off ch=5 par1=59 par2=64
Channel Event. t= 0 (95808) Controller ch=5 par1=7 (Main Volume) par2=76
Channel Event. t= 0 (95808) Note On ch=5 par1=60 par2=76
Channel Event. t= 0 (95808) Note On ch=5 par1=55 par2=76
Channel Event. t= 0 (95808) Note On ch=5 par1=52 par2=76
Channel Event. t= 0 (95808) Note On ch=5 par1=58 par2=76
Channel Event. t= 31 (95839) Note Off ch=5 par1=52 par2=64
Channel Event. t= 4 (95843) Note Off ch=5 par1=58 par2=64
Channel Event. t= 6 (95849) Note Off ch=5 par1=55 par2=64
Channel Event. t= 6 (95855) Note Off ch=5 par1=60 par2=64
Channel Event. t= 17 (95872) Note On ch=5 par1=60 par2=76
Channel Event. t= 0 (95872) Note On ch=5 par1=55 par2=76
Channel Event. t= 0 (95872) Note On ch=5 par1=52 par2=76
Channel Event. t= 0 (95872) Note On ch=5 par1=58 par2=76
Channel Event. t= 25 (95897) Note Off ch=5 par1=52 par2=64
Channel Event. t= 0 (95897) Note Off ch=5 par1=58 par2=64
Channel Event. t= 7 (95904) Note Off ch=5 par1=55 par2=64
Channel Event. t= 0 (95904) Controller ch=5 par1=7 (Main Volume) par2=77
Channel Event. t= 11 (95915) Note Off ch=5 par1=60 par2=64
Channel Event. t= 21 (95936) Note On ch=5 par1=60 par2=77
Channel Event. t= 0 (95936) Note On ch=5 par1=55 par2=77
Channel Event. t= 0 (95936) Note On ch=5 par1=52 par2=77
Channel Event. t= 0 (95936) Note On ch=5 par1=58 par2=77
Channel Event. t= 27 (95963) Note Off ch=5 par1=58 par2=64
Channel Event. t= 4 (95967) Note Off ch=5 par1=52 par2=64
Channel Event. t= 20 (95987) Note Off ch=5 par1=55 par2=64
Channel Event. t= 5 (95992) Note Off ch=5 par1=60 par2=64
Channel Event. t= 8 (96000) Controller ch=5 par1=7 (Main Volume) par2=78
Channel Event. t= 0 (96000) Note On ch=5 par1=61 par2=78
Channel Event. t= 0 (96000) Note On ch=5 par1=56 par2=78
Channel Event. t= 0 (96000) Note On ch=5 par1=51 par2=78
Channel Event. t= 0 (96000) Note On ch=5 par1=58 par2=78
Channel Event. t= 26 (96026) Note Off ch=5 par1=56 par2=64
Channel Event. t= 3 (96029) Note Off ch=5 par1=61 par2=64
Channel Event. t= 0 (96029) Note Off ch=5 par1=51 par2=64
Channel Event. t= 9 (96038) Note Off ch=5 par1=58 par2=64
Channel Event. t= 26 (96064) Note On ch=5 par1=61 par2=78
Channel Event. t= 0 (96064) Note On ch=5 par1=56 par2=78
Channel Event. t= 0 (96064) Note On ch=5 par1=51 par2=78
Channel Event. t= 0 (96064) Note On ch=5 par1=58 par2=78
Channel Event. t= 21 (96085) Note Off ch=5 par1=51 par2=64
Channel Event. t= 3 (96088) Note Off ch=5 par1=56 par2=64
Channel Event. t= 3 (96091) Note Off ch=5 par1=58 par2=64
Channel Event. t= 5 (96096) Controller ch=5 par1=7 (Main Volume) par2=79
Channel Event. t= 3 (96099) Note Off ch=5 par1=61 par2=64
Channel Event. t= 29 (96128) Note On ch=5 par1=61 par2=79
Channel Event. t= 0 (96128) Note On ch=5 par1=56 par2=79
Channel Event. t= 0 (96128) Note On ch=5 par1=51 par2=79
Channel Event. t= 0 (96128) Note On ch=5 par1=58 par2=79
Channel Event. t= 39 (96167) Note Off ch=5 par1=51 par2=64
Channel Event. t= 2 (96169) Note Off ch=5 par1=58 par2=64
Channel Event. t= 4 (96173) Note Off ch=5 par1=56 par2=64
Channel Event. t= 12 (96185) Note Off ch=5 par1=61 par2=64
Channel Event. t= 7 (96192) Controller ch=5 par1=7 (Main Volume) par2=80
Channel Event. t= 0 (96192) Note On ch=5 par1=62 par2=80
Channel Event. t= 0 (96192) Note On ch=5 par1=57 par2=80
Channel Event. t= 0 (96192) Note On ch=5 par1=52 par2=80
Channel Event. t= 0 (96192) Note On ch=5 par1=60 par2=80
Channel Event. t= 32 (96224) Note Off ch=5 par1=57 par2=64
Channel Event. t= 1 (96225) Note Off ch=5 par1=52 par2=64
Channel Event. t= 10 (96235) Note Off ch=5 par1=60 par2=64
Channel Event. t= 3 (96238) Note Off ch=5 par1=62 par2=64
Channel Event. t= 18 (96256) Note On ch=5 par1=62 par2=80
Channel Event. t= 0 (96256) Note On ch=5 par1=57 par2=80
Channel Event. t= 0 (96256) Note On ch=5 par1=52 par2=80
Channel Event. t= 0 (96256) Note On ch=5 par1=60 par2=80
Channel Event. t= 24 (96280) Note Off ch=5 par1=52 par2=64
Channel Event. t= 5 (96285) Note Off ch=5 par1=60 par2=64
Channel Event. t= 3 (96288) Controller ch=5 par1=7 (Main Volume) par2=81
Channel Event. t= 1 (96289) Note Off ch=5 par1=57 par2=64
Channel Event. t= 8 (96297) Note Off ch=5 par1=62 par2=64
Channel Event. t= 23 (96320) Note On ch=5 par1=62 par2=81
Channel Event. t= 0 (96320) Note On ch=5 par1=57 par2=81
Channel Event. t= 0 (96320) Note On ch=5 par1=52 par2=81
Channel Event. t= 0 (96320) Note On ch=5 par1=60 par2=81
Channel Event. t= 32 (96352) Note Off ch=5 par1=60 par2=64
Channel Event. t= 16 (96368) Note Off ch=5 par1=52 par2=64
Channel Event. t= 7 (96375) Note Off ch=5 par1=57 par2=64
Channel Event. t= 2 (96377) Note Off ch=5 par1=62 par2=64
Channel Event. t= 7 (96384) Controller ch=5 par1=7 (Main Volume) par2=82
Channel Event. t= 0 (96384) Note On ch=5 par1=63 par2=82
Channel Event. t= 0 (96384) Note On ch=5 par1=58 par2=82
Channel Event. t= 0 (96384) Note On ch=5 par1=51 par2=82
Channel Event. t= 0 (96384) Note On ch=5 par1=60 par2=82
Channel Event. t= 25 (96409) Note Off ch=5 par1=58 par2=64
Channel Event. t= 7 (96416) Note Off ch=5 par1=51 par2=64
Channel Event. t= 7 (96423) Note Off ch=5 par1=63 par2=64
Channel Event. t= 0 (96423) Note Off ch=5 par1=60 par2=64
Channel Event. t= 25 (96448) Note On ch=5 par1=63 par2=82
Channel Event. t= 0 (96448) Note On ch=5 par1=58 par2=82
Channel Event. t= 0 (96448) Note On ch=5 par1=51 par2=82
Channel Event. t= 0 (96448) Note On ch=5 par1=60 par2=82
Channel Event. t= 25 (96473) Note Off ch=5 par1=58 par2=64
Channel Event. t= 4 (96477) Note Off ch=5 par1=51 par2=64
Channel Event. t= 1 (96478) Note Off ch=5 par1=60 par2=64
Channel Event. t= 2 (96480) Controller ch=5 par1=7 (Main Volume) par2=83
Channel Event. t= 9 (96489) Note Off ch=5 par1=63 par2=64
Channel Event. t= 23 (96512) Note On ch=5 par1=63 par2=83
Channel Event. t= 0 (96512) Note On ch=5 par1=58 par2=83
Channel Event. t= 0 (96512) Note On ch=5 par1=51 par2=83
Channel Event. t= 0 (96512) Note On ch=5 par1=60 par2=83
Channel Event. t= 36 (96548) Note Off ch=5 par1=60 par2=64
Channel Event. t= 1 (96549) Note Off ch=5 par1=51 par2=64
Channel Event. t= 6 (96555) Note Off ch=5 par1=63 par2=64
Channel Event. t= 2 (96557) Note Off ch=5 par1=58 par2=64
Channel Event. t= 19 (96576) Controller ch=5 par1=7 (Main Volume) par2=84
Channel Event. t= 0 (96576) Note On ch=5 par1=64 par2=84
Channel Event. t= 0 (96576) Note On ch=5 par1=59 par2=84
Channel Event. t= 0 (96576) Note On ch=5 par1=52 par2=84
Channel Event. t= 0 (96576) Note On ch=5 par1=62 par2=84
Channel Event. t= 33 (96609) Note Off ch=5 par1=59 par2=64
Channel Event. t= 3 (96612) Note Off ch=5 par1=52 par2=64
Channel Event. t= 1 (96613) Note Off ch=5 par1=64 par2=64
Channel Event. t= 4 (96617) Note Off ch=5 par1=62 par2=64
Channel Event. t= 23 (96640) Note On ch=5 par1=64 par2=84
Channel Event. t= 0 (96640) Note On ch=5 par1=59 par2=84
Channel Event. t= 0 (96640) Note On ch=5 par1=52 par2=84
Channel Event. t= 0 (96640) Note On ch=5 par1=62 par2=84
Channel Event. t= 8 (96648) Controller ch=5 par1=7 (Main Volume) par2=85
Channel Event. t= 18 (96666) Note Off ch=5 par1=52 par2=64
Channel Event. t= 4 (96670) Note Off ch=5 par1=62 par2=64
Channel Event. t= 11 (96681) Note Off ch=5 par1=64 par2=64
Channel Event. t= 0 (96681) Note Off ch=5 par1=59 par2=64
Channel Event. t= 23 (96704) Note On ch=5 par1=64 par2=85
Channel Event. t= 0 (96704) Note On ch=5 par1=59 par2=85
Channel Event. t= 0 (96704) Note On ch=5 par1=52 par2=85
Channel Event. t= 0 (96704) Note On ch=5 par1=62 par2=85
Channel Event. t= 28 (96732) Note Off ch=5 par1=62 par2=64
Channel Event. t= 12 (96744) Controller ch=5 par1=7 (Main Volume) par2=86
Channel Event. t= 3 (96747) Note Off ch=5 par1=52 par2=64
Channel Event. t= 5 (96752) Note Off ch=5 par1=64 par2=64
Channel Event. t= 0 (96752) Note Off ch=5 par1=59 par2=64
Channel Event. t= 16 (96768) Note On ch=5 par1=65 par2=86
Channel Event. t= 0 (96768) Note On ch=5 par1=60 par2=86
Channel Event. t= 0 (96768) Note On ch=5 par1=51 par2=86
Channel Event. t= 0 (96768) Note On ch=5 par1=62 par2=86
Channel Event. t= 34 (96802) Note Off ch=5 par1=51 par2=64
Channel Event. t= 5 (96807) Note Off ch=5 par1=60 par2=64
Channel Event. t= 5 (96812) Note Off ch=5 par1=62 par2=64
Channel Event. t= 1 (96813) Note Off ch=5 par1=65 par2=64
Channel Event. t= 19 (96832) Note On ch=5 par1=65 par2=86
Channel Event. t= 0 (96832) Note On ch=5 par1=60 par2=86
Channel Event. t= 0 (96832) Note On ch=5 par1=51 par2=86
Channel Event. t= 0 (96832) Note On ch=5 par1=62 par2=86
Channel Event. t= 8 (96840) Controller ch=5 par1=7 (Main Volume) par2=87
Channel Event. t= 20 (96860) Note Off ch=5 par1=62 par2=64
Channel Event. t= 2 (96862) Note Off ch=5 par1=51 par2=64
Channel Event. t= 1 (96863) Note Off ch=5 par1=60 par2=64
Channel Event. t= 11 (96874) Note Off ch=5 par1=65 par2=64
Channel Event. t= 22 (96896) Note On ch=5 par1=65 par2=87
Channel Event. t= 0 (96896) Note On ch=5 par1=60 par2=87
Channel Event. t= 0 (96896) Note On ch=5 par1=51 par2=87
Channel Event. t= 0 (96896) Note On ch=5 par1=62 par2=87
Channel Event. t= 40 (96936) Controller ch=5 par1=7 (Main Volume) par2=88
Channel Event. t= 2 (96938) Note Off ch=5 par1=51 par2=64
Channel Event. t= 6 (96944) Note Off ch=5 par1=65 par2=64
Channel Event. t= 1 (96945) Note Off ch=5 par1=60 par2=64
Channel Event. t= 2 (96947) Note Off ch=5 par1=62 par2=64
Channel Event. t= 13 (96960) Note On ch=5 par1=66 par2=88
Channel Event. t= 0 (96960) Note On ch=5 par1=61 par2=88
Channel Event. t= 0 (96960) Note On ch=5 par1=49 par2=88
Channel Event. t= 0 (96960) Note On ch=5 par1=64 par2=88
Channel Event. t= 40 (97000) Note Off ch=5 par1=61 par2=64
Channel Event. t= 2 (97002) Note Off ch=5 par1=64 par2=64
Channel Event. t= 2 (97004) Note Off ch=5 par1=66 par2=64
Channel Event. t= 1 (97005) Note Off ch=5 par1=49 par2=64
Channel Event. t= 19 (97024) Note On ch=5 par1=66 par2=88
Channel Event. t= 0 (97024) Note On ch=5 par1=61 par2=88
Channel Event. t= 0 (97024) Note On ch=5 par1=49 par2=88
Channel Event. t= 0 (97024) Note On ch=5 par1=64 par2=88
Channel Event. t= 8 (97032) Controller ch=5 par1=7 (Main Volume) par2=89
Channel Event. t= 22 (97054) Note Off ch=5 par1=49 par2=64
Channel Event. t= 2 (97056) Note Off ch=5 par1=64 par2=64
Channel Event. t= 2 (97058) Note Off ch=5 par1=66 par2=64
Channel Event. t= 7 (97065) Note Off ch=5 par1=61 par2=64
Channel Event. t= 23 (97088) Note On ch=5 par1=66 par2=89
Channel Event. t= 0 (97088) Note On ch=5 par1=61 par2=89
Channel Event. t= 0 (97088) Note On ch=5 par1=49 par2=89
Channel Event. t= 0 (97088) Note On ch=5 par1=64 par2=89
Channel Event. t= 40 (97128) Controller ch=5 par1=7 (Main Volume) par2=90
Channel Event. t= 3 (97131) Note Off ch=5 par1=64 par2=64
Channel Event. t= 5 (97136) Note Off ch=5 par1=66 par2=64
Channel Event. t= 0 (97136) Note Off ch=5 par1=61 par2=64
Channel Event. t= 0 (97136) Note Off ch=5 par1=49 par2=64
Channel Event. t= 16 (97152) Note On ch=5 par1=67 par2=90
Channel Event. t= 0 (97152) Note On ch=5 par1=62 par2=90
Channel Event. t= 0 (97152) Note On ch=5 par1=47 par2=90
Channel Event. t= 0 (97152) Note On ch=5 par1=64 par2=90
Channel Event. t= 33 (97185) Note Off ch=5 par1=64 par2=64
Channel Event. t= 4 (97189) Note Off ch=5 par1=62 par2=64
Channel Event. t= 2 (97191) Note Off ch=5 par1=67 par2=64
Channel Event. t= 4 (97195) Note Off ch=5 par1=47 par2=64
Channel Event. t= 21 (97216) Note On ch=5 par1=67 par2=91
Channel Event. t= 0 (97216) Note On ch=5 par1=62 par2=91
Channel Event. t= 0 (97216) Note On ch=5 par1=47 par2=91
Channel Event. t= 0 (97216) Note On ch=5 par1=64 par2=91
Channel Event. t= 8 (97224) Controller ch=5 par1=7 (Main Volume) par2=91
Channel Event. t= 23 (97247) Note Off ch=5 par1=62 par2=64
Channel Event. t= 3 (97250) Note Off ch=5 par1=47 par2=64
Channel Event. t= 4 (97254) Note Off ch=5 par1=67 par2=64
Channel Event. t= 3 (97257) Note Off ch=5 par1=64 par2=64
Channel Event. t= 7 (97264) Note On ch=5 par1=62 par2=91
Channel Event. t= 16 (97280) Note On ch=5 par1=67 par2=91
Channel Event. t= 0 (97280) Note On ch=5 par1=47 par2=91
Channel Event. t= 0 (97280) Note On ch=5 par1=64 par2=91
Channel Event. t= 17 (97297) Note Off ch=5 par1=62 par2=64
Channel Event. t= 16 (97313) Note Off ch=5 par1=47 par2=64
Channel Event. t= 7 (97320) Note Off ch=5 par1=64 par2=64
Channel Event. t= 0 (97320) Controller ch=5 par1=7 (Main Volume) par2=92
Channel Event. t= 8 (97328) Note Off ch=5 par1=67 par2=64
Channel Event. t= 16 (97344) Note On ch=5 par1=68 par2=92
Channel Event. t= 0 (97344) Note On ch=5 par1=51 par2=92
Channel Event. t= 0 (97344) Note On ch=5 par1=46 par2=92
Channel Event. t= 0 (97344) Note On ch=5 par1=66 par2=92
Channel Event. t= 41 (97385) Note Off ch=5 par1=68 par2=64
Channel Event. t= 1 (97386) Note Off ch=5 par1=66 par2=64
Channel Event. t= 2 (97388) Note Off ch=5 par1=51 par2=64
Channel Event. t= 0 (97388) Note Off ch=5 par1=46 par2=64
Channel Event. t= 20 (97408) Note On ch=5 par1=68 par2=93
Channel Event. t= 0 (97408) Note On ch=5 par1=51 par2=93
Channel Event. t= 0 (97408) Note On ch=5 par1=46 par2=93
Channel Event. t= 0 (97408) Note On ch=5 par1=66 par2=93
Channel Event. t= 8 (97416) Controller ch=5 par1=7 (Main Volume) par2=93
Channel Event. t= 14 (97430) Note Off ch=5 par1=46 par2=64
Channel Event. t= 3 (97433) Note Off ch=5 par1=51 par2=64
Channel Event. t= 8 (97441) Note Off ch=5 par1=68 par2=64
Channel Event. t= 3 (97444) Note Off ch=5 par1=66 par2=64
Channel Event. t= 28 (97472) Note On ch=5 par1=68 par2=93
Channel Event. t= 0 (97472) Note On ch=5 par1=51 par2=93
Channel Event. t= 0 (97472) Note On ch=5 par1=46 par2=93
Channel Event. t= 0 (97472) Note On ch=5 par1=66 par2=93
Channel Event. t= 38 (97510) Note Off ch=5 par1=66 par2=64
Channel Event. t= 2 (97512) Controller ch=5 par1=7 (Main Volume) par2=94
Channel Event. t= 1 (97513) Note Off ch=5 par1=46 par2=64
Channel Event. t= 7 (97520) Note Off ch=5 par1=68 par2=64
Channel Event. t= 8 (97528) Note Off ch=5 par1=51 par2=64
Channel Event. t= 8 (97536) Note On ch=5 par1=69 par2=94
Channel Event. t= 0 (97536) Note On ch=5 par1=52 par2=94
Channel Event. t= 0 (97536) Note On ch=5 par1=45 par2=94
Channel Event. t= 0 (97536) Note On ch=5 par1=66 par2=94
Channel Event. t= 38 (97574) Note Off ch=5 par1=52 par2=64
Channel Event. t= 1 (97575) Note Off ch=5 par1=69 par2=64
Channel Event. t= 1 (97576) Note Off ch=5 par1=45 par2=64
Channel Event. t= 5 (97581) Note Off ch=5 par1=66 par2=64
Channel Event. t= 19 (97600) Note On ch=5 par1=69 par2=95
Channel Event. t= 0 (97600) Note On ch=5 par1=52 par2=95
Channel Event. t= 0 (97600) Note On ch=5 par1=45 par2=95
Channel Event. t= 0 (97600) Note On ch=5 par1=66 par2=95
Channel Event. t= 8 (97608) Controller ch=5 par1=7 (Main Volume) par2=95
Channel Event. t= 25 (97633) Note Off ch=5 par1=45 par2=64
Channel Event. t= 6 (97639) Note Off ch=5 par1=52 par2=64
Channel Event. t= 1 (97640) Note Off ch=5 par1=66 par2=64
Channel Event. t= 1 (97641) Note Off ch=5 par1=69 par2=64
Channel Event. t= 23 (97664) Note On ch=5 par1=69 par2=95
Channel Event. t= 0 (97664) Note On ch=5 par1=52 par2=95
Channel Event. t= 0 (97664) Note On ch=5 par1=45 par2=95
Channel Event. t= 0 (97664) Note On ch=5 par1=66 par2=95
Channel Event. t= 31 (97695) Note Off ch=5 par1=45 par2=64
Channel Event. t= 9 (97704) Controller ch=5 par1=7 (Main Volume) par2=96
Channel Event. t= 2 (97706) Note Off ch=5 par1=69 par2=64
Channel Event. t= 6 (97712) Note Off ch=5 par1=66 par2=64
Channel Event. t= 6 (97718) Note Off ch=5 par1=52 par2=64
Channel Event. t= 10 (97728) Note On ch=5 par1=68 par2=96
Channel Event. t= 0 (97728) Note On ch=5 par1=51 par2=96
Channel Event. t= 0 (97728) Note On ch=5 par1=46 par2=96
Channel Event. t= 0 (97728) Note On ch=5 par1=66 par2=96
Channel Event. t= 37 (97765) Note Off ch=5 par1=46 par2=64
Channel Event. t= 3 (97768) Note Off ch=5 par1=66 par2=64
Channel Event. t= 4 (97772) Note Off ch=5 par1=51 par2=64
Channel Event. t= 3 (97775) Note Off ch=5 par1=68 par2=64
Channel Event. t= 17 (97792) Note On ch=5 par1=68 par2=97
Channel Event. t= 0 (97792) Note On ch=5 par1=51 par2=97
Channel Event. t= 0 (97792) Note On ch=5 par1=46 par2=97
Channel Event. t= 0 (97792) Note On ch=5 par1=66 par2=97
Channel Event. t= 8 (97800) Controller ch=5 par1=7 (Main Volume) par2=97
Channel Event. t= 20 (97820) Note Off ch=5 par1=46 par2=64
Channel Event. t= 4 (97824) Note Off ch=5 par1=68 par2=64
Channel Event. t= 0 (97824) Note Off ch=5 par1=66 par2=64
Channel Event. t= 2 (97826) Note Off ch=5 par1=51 par2=64
Channel Event. t= 30 (97856) Note On ch=5 par1=68 par2=97
Channel Event. t= 0 (97856) Note On ch=5 par1=51 par2=97
Channel Event. t= 0 (97856) Note On ch=5 par1=46 par2=97
Channel Event. t= 0 (97856) Note On ch=5 par1=66 par2=97
Channel Event. t= 40 (97896) Controller ch=5 par1=7 (Main Volume) par2=98
Channel Event. t= 4 (97900) Note Off ch=5 par1=46 par2=64
Channel Event. t= 4 (97904) Note Off ch=5 par1=68 par2=64
Channel Event. t= 0 (97904) Note Off ch=5 par1=66 par2=64
Channel Event. t= 4 (97908) Note Off ch=5 par1=51 par2=64
Channel Event. t= 12 (97920) Note On ch=5 par1=69 par2=98
Channel Event. t= 0 (97920) Note On ch=5 par1=52 par2=98
Channel Event. t= 0 (97920) Note On ch=5 par1=45 par2=98
Channel Event. t= 0 (97920) Note On ch=5 par1=66 par2=98
Channel Event. t= 35 (97955) Note Off ch=5 par1=45 par2=64
Channel Event. t= 5 (97960) Note Off ch=5 par1=52 par2=64
Channel Event. t= 1 (97961) Note Off ch=5 par1=69 par2=64
Channel Event. t= 1 (97962) Note Off ch=5 par1=66 par2=64
Channel Event. t= 6 (97968) Controller ch=5 par1=7 (Main Volume) par2=99
Channel Event. t= 16 (97984) Note On ch=5 par1=69 par2=99
Channel Event. t= 0 (97984) Note On ch=5 par1=52 par2=99
Channel Event. t= 0 (97984) Note On ch=5 par1=45 par2=99
Channel Event. t= 0 (97984) Note On ch=5 par1=66 par2=99
Channel Event. t= 28 (98012) Note Off ch=5 par1=45 par2=64
Channel Event. t= 9 (98021) Note Off ch=5 par1=52 par2=64
Channel Event. t= 1 (98022) Note Off ch=5 par1=69 par2=64
Channel Event. t= 3 (98025) Note Off ch=5 par1=66 par2=64
Channel Event. t= 23 (98048) Note On ch=5 par1=69 par2=99
Channel Event. t= 0 (98048) Note On ch=5 par1=52 par2=99
Channel Event. t= 0 (98048) Note On ch=5 par1=45 par2=99
Channel Event. t= 0 (98048) Note On ch=5 par1=66 par2=99
Channel Event. t= 16 (98064) Controller ch=5 par1=7 (Main Volume) par2=100
Channel Event. t= 14 (98078) Note Off ch=5 par1=45 par2=64
Channel Event. t= 18 (98096) Note Off ch=5 par1=66 par2=64
Channel Event. t= 2 (98098) Note Off ch=5 par1=69 par2=64
Channel Event. t= 8 (98106) Note Off ch=5 par1=52 par2=64
Channel Event. t= 6 (98112) Note On ch=5 par1=70 par2=100
Channel Event. t= 0 (98112) Note On ch=5 par1=53 par2=100
Channel Event. t= 0 (98112) Note On ch=5 par1=49 par2=100
Channel Event. t= 0 (98112) Note On ch=5 par1=37 par2=100
Channel Event. t= 0 (98112) Note On ch=5 par1=68 par2=100
Channel Event. t= 30 (98142) Note Off ch=5 par1=37 par2=64
Channel Event. t= 5 (98147) Note Off ch=5 par1=49 par2=64
Channel Event. t= 10 (98157) Note Off ch=5 par1=53 par2=64
Channel Event. t= 2 (98159) Note Off ch=5 par1=68 par2=64
Channel Event. t= 1 (98160) Note Off ch=5 par1=70 par2=64
Channel Event. t= 0 (98160) Controller ch=5 par1=7 (Main Volume) par2=101
Channel Event. t= 16 (98176) Note On ch=5 par1=53 par2=101
Channel Event. t= 0 (98176) Note On ch=5 par1=49 par2=101
Channel Event. t= 0 (98176) Note On ch=5 par1=37 par2=101
Channel Event. t= 0 (98176) Note On ch=5 par1=68 par2=101
Channel Event. t= 23 (98199) Note Off ch=5 par1=37 par2=64
Channel Event. t= 6 (98205) Note Off ch=5 par1=49 par2=64
Channel Event. t= 7 (98212) Note Off ch=5 par1=68 par2=64
Channel Event. t= 6 (98218) Note Off ch=5 par1=53 par2=64
Channel Event. t= 22 (98240) Note On ch=5 par1=82 par2=101
Channel Event. t= 0 (98240) Note On ch=5 par1=53 par2=101
Channel Event. t= 0 (98240) Note On ch=5 par1=37 par2=101
Channel Event. t= 0 (98240) Note On ch=5 par1=49 par2=101
Channel Event. t= 0 (98240) Note On ch=5 par1=68 par2=101
Channel Event. t= 16 (98256) Controller ch=5 par1=7 (Main Volume) par2=102
Channel Event. t= 24 (98280) Note Off ch=5 par1=68 par2=64
Channel Event. t= 5 (98285) Note Off ch=5 par1=82 par2=64
Channel Event. t= 6 (98291) Note Off ch=5 par1=53 par2=64
Channel Event. t= 6 (98297) Note Off ch=5 par1=37 par2=64
Channel Event. t= 2 (98299) Note Off ch=5 par1=49 par2=64
Channel Event. t= 5 (98304) Note On ch=5 par1=71 par2=102
Channel Event. t= 0 (98304) Note On ch=5 par1=54 par2=102
Channel Event. t= 0 (98304) Note On ch=5 par1=44 par2=102
Channel Event. t= 0 (98304) Note On ch=5 par1=68 par2=102
Channel Event. t= 39 (98343) Note Off ch=5 par1=44 par2=64
Channel Event. t= 5 (98348) Note Off ch=5 par1=54 par2=64
Channel Event. t= 3 (98351) Note Off ch=5 par1=68 par2=64
Channel Event. t= 1 (98352) Note Off ch=5 par1=71 par2=64
Channel Event. t= 0 (98352) Controller ch=5 par1=7 (Main Volume) par2=103
Channel Event. t= 16 (98368) Note On ch=5 par1=54 par2=103
Channel Event. t= 0 (98368) Note On ch=5 par1=44 par2=103
Channel Event. t= 0 (98368) Note On ch=5 par1=68 par2=103
Channel Event. t= 28 (98396) Note Off ch=5 par1=44 par2=64
Channel Event. t= 2 (98398) Note Off ch=5 par1=54 par2=64
Channel Event. t= 4 (98402) Note Off ch=5 par1=68 par2=64
Channel Event. t= 30 (98432) Note On ch=5 par1=83 par2=103
Channel Event. t= 0 (98432) Note On ch=5 par1=54 par2=103
Channel Event. t= 0 (98432) Note On ch=5 par1=44 par2=103
Channel Event. t= 0 (98432) Note On ch=5 par1=68 par2=103
Channel Event. t= 16 (98448) Controller ch=5 par1=7 (Main Volume) par2=104
Channel Event. t= 20 (98468) Note Off ch=5 par1=68 par2=64
Channel Event. t= 2 (98470) Note Off ch=5 par1=44 par2=64
Channel Event. t= 4 (98474) Note Off ch=5 par1=54 par2=64
Channel Event. t= 9 (98483) Note Off ch=5 par1=83 par2=64
Channel Event. t= 13 (98496) Note On ch=5 par1=81 par2=104
Channel Event. t= 0 (98496) Note On ch=5 par1=53 par2=104
Channel Event. t= 0 (98496) Note On ch=5 par1=50 par2=104
Channel Event. t= 0 (98496) Note On ch=5 par1=38 par2=104
Channel Event. t= 0 (98496) Note On ch=5 par1=68 par2=104
Channel Event. t= 31 (98527) Note Off ch=5 par1=38 par2=64
Channel Event. t= 10 (98537) Note Off ch=5 par1=50 par2=64
Channel Event. t= 2 (98539) Note Off ch=5 par1=53 par2=64
Channel Event. t= 3 (98542) Note Off ch=5 par1=81 par2=64
Channel Event. t= 1 (98543) Note Off ch=5 par1=68 par2=64
Channel Event. t= 1 (98544) Controller ch=5 par1=7 (Main Volume) par2=105
Channel Event. t= 16 (98560) Note On ch=5 par1=81 par2=105
Channel Event. t= 0 (98560) Note On ch=5 par1=53 par2=105
Channel Event. t= 0 (98560) Note On ch=5 par1=38 par2=105
Channel Event. t= 0 (98560) Note On ch=5 par1=50 par2=105
Channel Event. t= 0 (98560) Note On ch=5 par1=68 par2=105
Channel Event. t= 26 (98586) Note Off ch=5 par1=53 par2=64
Channel Event. t= 5 (98591) Note Off ch=5 par1=68 par2=64
Channel Event. t= 1 (98592) Note Off ch=5 par1=38 par2=64
Channel Event. t= 2 (98594) Note Off ch=5 par1=50 par2=64
Channel Event. t= 2 (98596) Note Off ch=5 par1=81 par2=64
Channel Event. t= 28 (98624) Note On ch=5 par1=81 par2=105
Channel Event. t= 0 (98624) Note On ch=5 par1=53 par2=105
Channel Event. t= 0 (98624) Note On ch=5 par1=50 par2=105
Channel Event. t= 0 (98624) Note On ch=5 par1=38 par2=105
Channel Event. t= 0 (98624) Note On ch=5 par1=68 par2=105
Channel Event. t= 16 (98640) Controller ch=5 par1=7 (Main Volume) par2=106
Channel Event. t= 19 (98659) Note Off ch=5 par1=68 par2=64
Channel Event. t= 2 (98661) Note Off ch=5 par1=53 par2=64
Channel Event. t= 1 (98662) Note Off ch=5 par1=38 par2=64
Channel Event. t= 10 (98672) Note Off ch=5 par1=50 par2=64
Channel Event. t= 7 (98679) Note Off ch=5 par1=81 par2=64
Channel Event. t= 9 (98688) Note On ch=5 par1=83 par2=106
Channel Event. t= 0 (98688) Note On ch=5 par1=55 par2=106
Channel Event. t= 0 (98688) Note On ch=5 par1=43 par2=106
Channel Event. t= 0 (98688) Note On ch=5 par1=68 par2=106
Channel Event. t= 40 (98728) Note Off ch=5 par1=83 par2=64
Channel Event. t= 0 (98728) Note Off ch=5 par1=43 par2=64
Channel Event. t= 4 (98732) Note Off ch=5 par1=55 par2=64
Channel Event. t= 3 (98735) Note Off ch=5 par1=68 par2=64
Channel Event. t= 1 (98736) Controller ch=5 par1=7 (Main Volume) par2=107
Channel Event. t= 16 (98752) Note On ch=5 par1=83 par2=107
Channel Event. t= 0 (98752) Note On ch=5 par1=55 par2=107
Channel Event. t= 0 (98752) Note On ch=5 par1=43 par2=107
Channel Event. t= 0 (98752) Note On ch=5 par1=68 par2=107
Channel Event. t= 29 (98781) Note Off ch=5 par1=43 par2=64
Channel Event. t= 4 (98785) Note Off ch=5 par1=55 par2=64
Channel Event. t= 2 (98787) Note Off ch=5 par1=83 par2=64
Channel Event. t= 0 (98787) Note Off ch=5 par1=68 par2=64
Channel Event. t= 29 (98816) Note On ch=5 par1=83 par2=107
Channel Event. t= 0 (98816) Note On ch=5 par1=55 par2=107
Channel Event. t= 0 (98816) Note On ch=5 par1=43 par2=107
Channel Event. t= 0 (98816) Note On ch=5 par1=68 par2=107
Channel Event. t= 16 (98832) Controller ch=5 par1=7 (Main Volume) par2=108
Channel Event. t= 16 (98848) Note Off ch=5 par1=43 par2=64
Channel Event. t= 4 (98852) Note Off ch=5 par1=55 par2=64
Channel Event. t= 9 (98861) Note Off ch=5 par1=68 par2=64
Channel Event. t= 19 (98880) Note On ch=5 par1=72 par2=108
Channel Event. t= 0 (98880) Note On ch=5 par1=55 par2=108
Channel Event. t= 0 (98880) Note On ch=5 par1=52 par2=108
Channel Event. t= 0 (98880) Note On ch=5 par1=48 par2=108
Channel Event. t= 0 (98880) Note On ch=5 par1=36 par2=108
Channel Event. t= 0 (98880) Note On ch=5 par1=67 par2=108
Channel Event. t= 2 (98882) Note Off ch=5 par1=83 par2=64
Channel Event. t= 40 (98922) Note Off ch=5 par1=52 par2=64
Channel Event. t= 4 (98926) Note Off ch=5 par1=55 par2=64
Channel Event. t= 1 (98927) Note Off ch=5 par1=67 par2=64
Channel Event. t= 1 (98928) Controller ch=5 par1=7 (Main Volume) par2=109
Channel Event. t= 16 (98944) Note On ch=5 par1=84 par2=109
Channel Event. t= 0 (98944) Note On ch=5 par1=52 par2=109
Channel Event. t= 0 (98944) Note On ch=5 par1=55 par2=109
Channel Event. t= 0 (98944) Note On ch=5 par1=76 par2=109
Channel Event. t= 0 (98944) Note On ch=5 par1=67 par2=109
Channel Event. t= 21 (98965) Note Off ch=5 par1=72 par2=64
Channel Event. t= 7 (98972) Note Off ch=5 par1=67 par2=64
Channel Event. t= 6 (98978) Note Off ch=5 par1=52 par2=64
Channel Event. t= 1 (98979) Note Off ch=5 par1=55 par2=64
Channel Event. t= 1 (98980) Note Off ch=5 par1=84 par2=64
Channel Event. t= 0 (98980) Note Off ch=5 par1=76 par2=64
Channel Event. t= 28 (99008) Note On ch=5 par1=84 par2=109
Channel Event. t= 0 (99008) Note On ch=5 par1=52 par2=109
Channel Event. t= 0 (99008) Note On ch=5 par1=55 par2=109
Channel Event. t= 0 (99008) Note On ch=5 par1=76 par2=109
Channel Event. t= 0 (99008) Note On ch=5 par1=67 par2=109
Channel Event. t= 16 (99024) Controller ch=5 par1=7 (Main Volume) par2=110
Channel Event. t= 18 (99042) Note Off ch=5 par1=67 par2=64
Channel Event. t= 1 (99043) Note Off ch=5 par1=76 par2=64
Channel Event. t= 1 (99044) Note Off ch=5 par1=52 par2=64
Channel Event. t= 1 (99045) Note Off ch=5 par1=55 par2=64
Channel Event. t= 6 (99051) Note Off ch=5 par1=84 par2=64
Channel Event. t= 21 (99072) Note Off ch=5 par1=48 par2=64
Channel Event. t= 0 (99072) Note Off ch=5 par1=36 par2=64
Channel Event. t= 0 (99072) Note On ch=5 par1=84 par2=110
Channel Event. t= 0 (99072) Note On ch=5 par1=52 par2=110
Channel Event. t= 0 (99072) Note On ch=5 par1=55 par2=110
Channel Event. t= 0 (99072) Note On ch=5 par1=67 par2=110
Channel Event. t= 0 (99072) Note On ch=5 par1=76 par2=110
Channel Event. t= 48 (99120) Note Off ch=5 par1=84 par2=64
Channel Event. t= 0 (99120) Note Off ch=5 par1=67 par2=64
Channel Event. t= 0 (99120) Note Off ch=5 par1=76 par2=64
Channel Event. t= 0 (99120) Controller ch=5 par1=7 (Main Volume) par2=111
Channel Event. t= 7 (99127) Note Off ch=5 par1=55 par2=64
Channel Event. t= 3 (99130) Note Off ch=5 par1=52 par2=64
Channel Event. t= 70 (99200) Note On ch=5 par1=84 par2=112
Channel Event. t= 0 (99200) Note On ch=5 par1=55 par2=112
Channel Event. t= 0 (99200) Note On ch=5 par1=52 par2=112
Channel Event. t= 0 (99200) Note On ch=5 par1=76 par2=112
Channel Event. t= 0 (99200) Note On ch=5 par1=67 par2=112
Channel Event. t= 16 (99216) Controller ch=5 par1=7 (Main Volume) par2=112
Channel Event. t= 13 (99229) Note Off ch=5 par1=67 par2=64
Channel Event. t= 2 (99231) Note Off ch=5 par1=55 par2=64
Channel Event. t= 2 (99233) Note Off ch=5 par1=76 par2=64
Channel Event. t= 4 (99237) Note Off ch=5 par1=84 par2=64
Channel Event. t= 3 (99240) Note Off ch=5 par1=52 par2=64
Channel Event. t= 24 (99264) Note On ch=5 par1=84 par2=112
Channel Event. t= 0 (99264) Note On ch=5 par1=51 par2=112
Channel Event. t= 0 (99264) Note On ch=5 par1=54 par2=112
Channel Event. t= 0 (99264) Note On ch=5 par1=68 par2=112
Channel Event. t= 0 (99264) Note On ch=5 par1=77 par2=112
Channel Event. t= 24 (99288) Controller ch=5 par1=7 (Main Volume) par2=113
Channel Event. t= 24 (99312) Note Off ch=5 par1=84 par2=64
Channel Event. t= 0 (99312) Note Off ch=5 par1=68 par2=64
Channel Event. t= 0 (99312) Note Off ch=5 par1=77 par2=64
Channel Event. t= 10 (99322) Note Off ch=5 par1=51 par2=64
Channel Event. t= 4 (99326) Note Off ch=5 par1=54 par2=64
Channel Event. t= 58 (99384) Controller ch=5 par1=7 (Main Volume) par2=114
Channel Event. t= 8 (99392) Note On ch=5 par1=84 par2=114
Channel Event. t= 0 (99392) Note On ch=5 par1=51 par2=114
Channel Event. t= 0 (99392) Note On ch=5 par1=54 par2=114
Channel Event. t= 0 (99392) Note On ch=5 par1=68 par2=114
Channel Event. t= 0 (99392) Note On ch=5 par1=77 par2=114
Channel Event. t= 30 (99422) Note Off ch=5 par1=68 par2=64
Channel Event. t= 2 (99424) Note Off ch=5 par1=51 par2=64
Channel Event. t= 4 (99428) Note Off ch=5 par1=77 par2=64
Channel Event. t= 2 (99430) Note Off ch=5 par1=54 par2=64
Channel Event. t= 2 (99432) Note Off ch=5 par1=84 par2=64
Channel Event. t= 24 (99456) Note On ch=5 par1=84 par2=114
Channel Event. t= 0 (99456) Note On ch=5 par1=54 par2=114
Channel Event. t= 0 (99456) Note On ch=5 par1=51 par2=114
Channel Event. t= 0 (99456) Note On ch=5 par1=77 par2=114
Channel Event. t= 0 (99456) Note On ch=5 par1=68 par2=114
Channel Event. t= 24 (99480) Controller ch=5 par1=7 (Main Volume) par2=115
Channel Event. t= 8 (99488) Note Off ch=5 par1=68 par2=64
Channel Event. t= 4 (99492) Note Off ch=5 par1=51 par2=64
Channel Event. t= 2 (99494) Note Off ch=5 par1=77 par2=64
Channel Event. t= 1 (99495) Note Off ch=5 par1=54 par2=64
Channel Event. t= 1 (99496) Note Off ch=5 par1=84 par2=64
Channel Event. t= 24 (99520) Note On ch=5 par1=84 par2=115
Channel Event. t= 0 (99520) Note On ch=5 par1=51 par2=115
Channel Event. t= 0 (99520) Note On ch=5 par1=54 par2=115
Channel Event. t= 0 (99520) Note On ch=5 par1=68 par2=115
Channel Event. t= 0 (99520) Note On ch=5 par1=77 par2=115
Channel Event. t= 30 (99550) Note Off ch=5 par1=51 par2=64
Channel Event. t= 1 (99551) Note Off ch=5 par1=68 par2=64
Channel Event. t= 3 (99554) Note Off ch=5 par1=54 par2=64
Channel Event. t= 0 (99554) Note Off ch=5 par1=77 par2=64
Channel Event. t= 1 (99555) Note Off ch=5 par1=84 par2=64
Channel Event. t= 21 (99576) Controller ch=5 par1=7 (Main Volume) par2=116
Channel Event. t= 8 (99584) Note On ch=5 par1=84 par2=116
Channel Event. t= 0 (99584) Note On ch=5 par1=51 par2=116
Channel Event. t= 0 (99584) Note On ch=5 par1=54 par2=116
Channel Event. t= 0 (99584) Note On ch=5 par1=68 par2=116
Channel Event. t= 0 (99584) Note On ch=5 par1=77 par2=116
Channel Event. t= 33 (99617) Note Off ch=5 par1=51 par2=64
Channel Event. t= 4 (99621) Note Off ch=5 par1=77 par2=64
Channel Event. t= 2 (99623) Note Off ch=5 par1=68 par2=64
Channel Event. t= 1 (99624) Note Off ch=5 par1=84 par2=64
Channel Event. t= 0 (99624) Note Off ch=5 par1=54 par2=64
Channel Event. t= 24 (99648) Note On ch=5 par1=84 par2=116
Channel Event. t= 0 (99648) Note On ch=5 par1=51 par2=116
Channel Event. t= 0 (99648) Note On ch=5 par1=54 par2=116
Channel Event. t= 0 (99648) Note On ch=5 par1=68 par2=116
Channel Event. t= 0 (99648) Note On ch=5 par1=77 par2=116
Channel Event. t= 24 (99672) Controller ch=5 par1=7 (Main Volume) par2=117
Channel Event. t= 24 (99696) Note Off ch=5 par1=84 par2=64
Channel Event. t= 0 (99696) Note Off ch=5 par1=68 par2=64
Channel Event. t= 0 (99696) Note Off ch=5 par1=77 par2=64
Channel Event. t= 4 (99700) Note Off ch=5 par1=51 par2=64
Channel Event. t= 4 (99704) Note Off ch=5 par1=54 par2=64
Channel Event. t= 64 (99768) Controller ch=5 par1=7 (Main Volume) par2=118
Channel Event. t= 8 (99776) Note On ch=5 par1=84 par2=118
Channel Event. t= 0 (99776) Note On ch=5 par1=51 par2=118
Channel Event. t= 0 (99776) Note On ch=5 par1=54 par2=118
Channel Event. t= 0 (99776) Note On ch=5 par1=79 par2=118
Channel Event. t= 0 (99776) Note On ch=5 par1=70 par2=118
Channel Event. t= 36 (99812) Note Off ch=5 par1=84 par2=64
Channel Event. t= 0 (99812) Note Off ch=5 par1=51 par2=64
Channel Event. t= 6 (99818) Note Off ch=5 par1=54 par2=64
Channel Event. t= 6 (99824) Note Off ch=5 par1=79 par2=64
Channel Event. t= 0 (99824) Note Off ch=5 par1=70 par2=64
Channel Event. t= 16 (99840) Note On ch=5 par1=84 par2=118
Channel Event. t= 0 (99840) Note On ch=5 par1=76 par2=118
Channel Event. t= 0 (99840) Note On ch=5 par1=52 par2=118
Channel Event. t= 0 (99840) Note On ch=5 par1=55 par2=118
Channel Event. t= 24 (99864) Controller ch=5 par1=7 (Main Volume) par2=119
Channel Event. t= 43 (99907) Note Off ch=5 par1=55 par2=64
Channel Event. t= 1 (99908) Note Off ch=5 par1=52 par2=64
Channel Event. t= 52 (99960) Controller ch=5 par1=7 (Main Volume) par2=120
Channel Event. t= 8 (99968) Note On ch=5 par1=48 par2=120
Channel Event. t= 0 (99968) Note On ch=5 par1=24 par2=120
Channel Event. t= 0 (99968) Note On ch=5 par1=36 par2=120
Channel Event. t= 0 (99968) Note On ch=5 par1=72 par2=120
Channel Event. t= 31 (99999) Note Off ch=5 par1=24 par2=64
Channel Event. t= 1 (100000) Note Off ch=5 par1=36 par2=64
Channel Event. t= 1 (100001) Note Off ch=5 par1=48 par2=64
Channel Event. t= 31 (100032) Note On ch=5 par1=48 par2=120
Channel Event. t= 0 (100032) Note On ch=5 par1=24 par2=120
Channel Event. t= 0 (100032) Note On ch=5 par1=36 par2=120
Channel Event. t= 0 (100032) Note On ch=5 par1=60 par2=120
Channel Event. t= 24 (100056) Controller ch=5 par1=7 (Main Volume) par2=121
Channel Event. t= 96 (100152) Controller ch=5 par1=7 (Main Volume) par2=122
Channel Event. t= 72 (100224) Note Off ch=5 par1=84 par2=64
Channel Event. t= 0 (100224) Note Off ch=5 par1=76 par2=64
Channel Event. t= 0 (100224) Note Off ch=5 par1=48 par2=65
Channel Event. t= 0 (100224) Note Off ch=5 par1=24 par2=64
Channel Event. t= 0 (100224) Note Off ch=5 par1=36 par2=64
Channel Event. t= 0 (100224) Note Off ch=5 par1=60 par2=64
Channel Event. t= 2 (100226) Note Off ch=5 par1=72 par2=64
Channel Event. t= 22 (100248) Controller ch=5 par1=7 (Main Volume) par2=123
Channel Event. t= 96 (100344) Controller ch=5 par1=7 (Main Volume) par2=124
Channel Event. t= 96 (100440) Controller ch=5 par1=7 (Main Volume) par2=125
Channel Event. t= 96 (100536) Controller ch=5 par1=7 (Main Volume) par2=126
Channel Event. t= 71 (100607) Controller ch=5 par1=7 (Main Volume) par2=127
Channel Event. t= 0 (100607) 
Meta Event. Type: 0x2f (47dec), End of Track (0 bytes): 
track #53
track size: 2966
Channel Event. t= 0 (0) 
Meta Event. Type: 0x21 (33dec), MIDI Port (1 bytes): 0
Channel Event. t= 0 (0) 
Meta Event. Type: 0x3 (3dec), Sequence/Track Name (20 bytes): Strings             
Channel Event. t= 0 (0) Program Change ch=7 par1=48 par2=-108
Channel Event. t= 9469 (9469) Controller ch=7 par1=10 (Pan) par2=90
Channel Event. t= 531 (10000) Controller ch=7 par1=7 (Pan) par2=80
Channel Event. t= 237 (10237) Note On ch=7 par1=59 par2=102
Channel Event. t= 3 (10240) Note On ch=7 par1=52 par2=93
Channel Event. t= 0 (10240) Note On ch=7 par1=55 par2=92
Channel Event. t= 742 (10982) Note Off ch=7 par1=52 par2=64
Channel Event. t= 10 (10992) Note Off ch=7 par1=55 par2=64
Channel Event. t= 31 (11023) Note On ch=7 par1=67 par2=89
Channel Event. t= 1 (11024) Note On ch=7 par1=64 par2=95
Channel Event. t= 8 (11032) Note Off ch=7 par1=59 par2=64
Channel Event. t= 64 (11096) Note Off ch=7 par1=64 par2=64
Channel Event. t= 21 (11117) Note On ch=7 par1=63 par2=85
Channel Event. t= 1 (11118) Note On ch=7 par1=66 par2=83
Channel Event. t= 1 (11119) Note Off ch=7 par1=67 par2=64
Channel Event. t= 71 (11190) Note Off ch=7 par1=66 par2=64
Channel Event. t= 11 (11201) Note On ch=7 par1=64 par2=82
Channel Event. t= 4 (11205) Note On ch=7 par1=67 par2=77
Channel Event. t= 2 (11207) Note Off ch=7 par1=63 par2=64
Channel Event. t= 66 (11273) Note Off ch=7 par1=64 par2=64
Channel Event. t= 4 (11277) Note Off ch=7 par1=67 par2=64
Channel Event. t= 11 (11288) Note On ch=7 par1=66 par2=77
Channel Event. t= 6 (11294) Note On ch=7 par1=63 par2=91
Channel Event. t= 86 (11380) Note Off ch=7 par1=66 par2=64
Channel Event. t= 6 (11386) Note On ch=7 par1=64 par2=91
Channel Event. t= 1 (11387) Note On ch=7 par1=67 par2=84
Channel Event. t= 3 (11390) Note Off ch=7 par1=63 par2=64
Channel Event. t= 147 (11537) Note Off ch=7 par1=64 par2=64
Channel Event. t= 2 (11539) Note Off ch=7 par1=67 par2=64
Channel Event. t= 32 (11571) Note On ch=7 par1=67 par2=94
Channel Event. t= 1 (11572) Note On ch=7 par1=64 par2=93
Channel Event. t= 180 (11752) Note Off ch=7 par1=67 par2=64
Channel Event. t= 5 (11757) Note Off ch=7 par1=64 par2=64
Channel Event. t= 10 (11767) Note On ch=7 par1=67 par2=95
Channel Event. t= 1 (11768) Note On ch=7 par1=71 par2=99
Channel Event. t= 176 (11944) Note Off ch=7 par1=67 par2=64
Channel Event. t= 19 (11963) Note On ch=7 par1=69 par2=81
Channel Event. t= 3 (11966) Note On ch=7 par1=66 par2=97
Channel Event. t= 4 (11970) Note Off ch=7 par1=71 par2=64
Channel Event. t= 182 (12152) Note On ch=7 par1=67 par2=86
Channel Event. t= 1 (12153) Note On ch=7 par1=71 par2=88
Channel Event. t= 13 (12166) Note Off ch=7 par1=66 par2=64
Channel Event. t= 9 (12175) Note Off ch=7 par1=69 par2=64
Channel Event. t= 162 (12337) Note Off ch=7 par1=67 par2=64
Channel Event. t= 7 (12344) Note Off ch=7 par1=71 par2=64
Channel Event. t= 8 (12352) Note On ch=7 par1=67 par2=102
Channel Event. t= 3 (12355) Note On ch=7 par1=64 par2=90
Channel Event. t= 167 (12522) Note Off ch=7 par1=64 par2=64
Channel Event. t= 19 (12541) Note On ch=7 par1=69 par2=94
Channel Event. t= 0 (12541) Note On ch=7 par1=62 par2=103
Channel Event. t= 11 (12552) Note Off ch=7 par1=67 par2=64
Channel Event. t= 760 (13312) Note On ch=7 par1=52 par2=98
Channel Event. t= 0 (13312) Note On ch=7 par1=55 par2=104
Channel Event. t= 5 (13317) Note On ch=7 par1=59 par2=97
Channel Event. t= 15 (13332) Note Off ch=7 par1=69 par2=64
Channel Event. t= 1 (13333) Note Off ch=7 par1=62 par2=64
Channel Event. t= 683 (14016) Note Off ch=7 par1=52 par2=64
Channel Event. t= 4 (14020) Note Off ch=7 par1=55 par2=64
Channel Event. t= 8 (14028) Note Off ch=7 par1=59 par2=64
Channel Event. t= 52 (14080) Note On ch=7 par1=59 par2=102
Channel Event. t= 20 (14100) Note On ch=7 par1=71 par2=68
Channel Event. t= 2 (14102) Note On ch=7 par1=67 par2=63
Channel Event. t= 74 (14176) Note On ch=7 par1=60 par2=88
Channel Event. t= 7 (14183) Note Off ch=7 par1=71 par2=64
Channel Event. t= 2 (14185) Note On ch=7 par1=66 par2=63
Channel Event. t= 1 (14186) Note On ch=7 par1=70 par2=93
Channel Event. t= 3 (14189) Note Off ch=7 par1=59 par2=64
Channel Event. t= 17 (14206) Note Off ch=7 par1=67 par2=64
Channel Event. t= 60 (14266) Note On ch=7 par1=71 par2=76
Channel Event. t= 0 (14266) Note On ch=7 par1=67 par2=73
Channel Event. t= 3 (14269) Note Off ch=7 par1=66 par2=64
Channel Event. t= 3 (14272) Note On ch=7 par1=59 par2=94
Channel Event. t= 7 (14279) Note Off ch=7 par1=70 par2=64
Channel Event. t= 7 (14286) Note Off ch=7 par1=60 par2=64
Channel Event. t= 74 (14360) Note On ch=7 par1=66 par2=74
Channel Event. t= 3 (14363) Note On ch=7 par1=70 par2=89
Channel Event. t= 5 (14368) Note Off ch=7 par1=59 par2=64
Channel Event. t= 0 (14368) Note On ch=7 par1=60 par2=90
Channel Event. t= 6 (14374) Note Off ch=7 par1=71 par2=64
Channel Event. t= 10 (14384) Note Off ch=7 par1=67 par2=64
Channel Event. t= 70 (14454) Note On ch=7 par1=67 par2=79
Channel Event. t= 3 (14457) Note On ch=7 par1=71 par2=69
Channel Event. t= 7 (14464) Note On ch=7 par1=59 par2=96
Channel Event. t= 1 (14465) Note Off ch=7 par1=66 par2=64
Channel Event. t= 8 (14473) Note Off ch=7 par1=60 par2=64
Channel Event. t= 5 (14478) Note Off ch=7 par1=70 par2=64
Channel Event. t= 131 (14609) Note Off ch=7 par1=59 par2=64
Channel Event. t= 5 (14614) Note Off ch=7 par1=71 par2=64
Channel Event. t= 1 (14615) Note Off ch=7 par1=67 par2=64
Channel Event. t= 31 (14646) Note On ch=7 par1=67 par2=99
Channel Event. t= 0 (14646) Note On ch=7 par1=71 par2=93
Channel Event. t= 10 (14656) Note On ch=7 par1=59 par2=104
Channel Event. t= 257 (14913) Note Off ch=7 par1=59 par2=64
Channel Event. t= 9 (14922) Note Off ch=7 par1=67 par2=64
Channel Event. t= 13 (14935) Note On ch=7 par1=70 par2=99
Channel Event. t= 9 (14944) Note On ch=7 par1=60 par2=105
Channel Event. t= 2 (14946) Note Off ch=7 par1=71 par2=64
Channel Event. t= 2 (14948) Note On ch=7 par1=66 par2=13
Channel Event. t= 80 (15028) Note Off ch=7 par1=66 par2=64
Channel Event. t= 2 (15030) Note On ch=7 par1=67 par2=66
Channel Event. t= 10 (15040) Note On ch=7 par1=71 par2=73
Channel Event. t= 0 (15040) Note On ch=7 par1=59 par2=95
Channel Event. t= 11 (15051) Note Off ch=7 par1=70 par2=64
Channel Event. t= 9 (15060) Note Off ch=7 par1=60 par2=64
Channel Event. t= 73 (15133) Note On ch=7 par1=66 par2=84
Channel Event. t= 1 (15134) Note On ch=7 par1=70 par2=90
Channel Event. t= 2 (15136) Note On ch=7 par1=60 par2=82
Channel Event. t= 1 (15137) Note Off ch=7 par1=71 par2=64
Channel Event. t= 8 (15145) Note Off ch=7 par1=59 par2=64
Channel Event. t= 1 (15146) Note Off ch=7 par1=67 par2=64
Channel Event. t= 78 (15224) Note On ch=7 par1=67 par2=79
Channel Event. t= 2 (15226) Note On ch=7 par1=71 par2=78
Channel Event. t= 2 (15228) Note Off ch=7 par1=66 par2=64
Channel Event. t= 4 (15232) Note On ch=7 par1=59 par2=95
Channel Event. t= 9 (15241) Note Off ch=7 par1=70 par2=64
Channel Event. t= 14 (15255) Note Off ch=7 par1=60 par2=64
Channel Event. t= 125 (15380) Note Off ch=7 par1=59 par2=64
Channel Event. t= 13 (15393) Note Off ch=7 par1=71 par2=64
Channel Event. t= 2 (15395) Note Off ch=7 par1=67 par2=64
Channel Event. t= 20 (15415) Note On ch=7 par1=67 par2=86
Channel Event. t= 0 (15415) Note On ch=7 par1=71 par2=81
Channel Event. t= 9 (15424) Note On ch=7 par1=59 par2=105
Channel Event. t= 192 (15616) Note Off ch=7 par1=67 par2=64
Channel Event. t= 0 (15616) Note Off ch=7 par1=71 par2=64
Channel Event. t= 96 (15712) Note On ch=7 par1=60 par2=88
Channel Event. t= 11 (15723) Note Off ch=7 par1=59 par2=64
Channel Event. t= 80 (15803) Note Off ch=7 par1=60 par2=64
Channel Event. t= 5 (15808) Note On ch=7 par1=59 par2=100
Channel Event. t= 187 (15995) Note Off ch=7 par1=59 par2=64
Channel Event. t= 197 (16192) Note On ch=7 par1=71 par2=94
Channel Event. t= 192 (16384) Note On ch=7 par1=72 par2=88
Channel Event. t= 15 (16399) Note Off ch=7 par1=71 par2=64
Channel Event. t= 80 (16479) Note Off ch=7 par1=72 par2=64
Channel Event. t= 97 (16576) Note On ch=7 par1=74 par2=89
Channel Event. t= 63 (16639) Note Off ch=7 par1=74 par2=64
Channel Event. t= 129 (16768) Note On ch=7 par1=75 par2=104
Channel Event. t= 143 (16911) Note Off ch=7 par1=75 par2=64
Channel Event. t= 49 (16960) Note On ch=7 par1=71 par2=76
Channel Event. t= 192 (17152) Note On ch=7 par1=72 par2=97
Channel Event. t= 11 (17163) Note Off ch=7 par1=71 par2=64
Channel Event. t= 95 (17258) Note Off ch=7 par1=72 par2=64
Channel Event. t= 86 (17344) Note On ch=7 par1=74 par2=69
Channel Event. t= 66 (17410) Note Off ch=7 par1=74 par2=64
Channel Event. t= 126 (17536) Note On ch=7 par1=75 par2=105
Channel Event. t= 139 (17675) Note Off ch=7 par1=75 par2=64
Channel Event. t= 53 (17728) Note On ch=7 par1=71 par2=86
Channel Event. t= 192 (17920) Note On ch=7 par1=72 par2=102
Channel Event. t= 17 (17937) Note Off ch=7 par1=71 par2=64
Channel Event. t= 79 (18016) Note On ch=7 par1=75 par2=71
Channel Event. t= 10 (18026) Note Off ch=7 par1=72 par2=64
Channel Event. t= 79 (18105) Note Off ch=7 par1=75 par2=64
Channel Event. t= 7 (18112) Note On ch=7 par1=76 par2=69
Channel Event. t= 96 (18208) Note On ch=7 par1=79 par2=82
Channel Event. t= 14 (18222) Note Off ch=7 par1=76 par2=64
Channel Event. t= 63 (18285) Note Off ch=7 par1=79 par2=64
Channel Event. t= 19 (18304) Note On ch=7 par1=83 par2=98
Channel Event. t= 176 (18480) Note Off ch=7 par1=83 par2=64
Channel Event. t= 16 (18496) Note On ch=7 par1=82 par2=97
Channel Event. t= 94 (18590) Note Off ch=7 par1=82 par2=64
Channel Event. t= 2 (18592) Note On ch=7 par1=83 par2=74
Channel Event. t= 96 (18688) Note On ch=7 par1=84 par2=92
Channel Event. t= 7 (18695) Note Off ch=7 par1=83 par2=64
Channel Event. t= 78 (18773) Note Off ch=7 par1=84 par2=64
Channel Event. t= 107 (18880) Note On ch=7 par1=88 par2=73
Channel Event. t= 57 (18937) Note Off ch=7 par1=88 par2=64
Channel Event. t= 135 (19072) Note On ch=7 par1=87 par2=99
Channel Event. t= 312 (19384) Note Off ch=7 par1=87 par2=64
Channel Event. t= 72 (19456) Note On ch=7 par1=84 par2=58
Channel Event. t= 104 (19560) Note Off ch=7 par1=84 par2=64
Channel Event. t= 88 (19648) Note On ch=7 par1=88 par2=75
Channel Event. t= 84 (19732) Note Off ch=7 par1=88 par2=64
Channel Event. t= 108 (19840) Note On ch=7 par1=87 par2=102
Channel Event. t= 86 (19926) Note Off ch=7 par1=87 par2=64
Channel Event. t= 10 (19936) Note On ch=7 par1=87 par2=77
Channel Event. t= 0 (19936) Note On ch=7 par1=88 par2=79
Channel Event. t= 37 (19973) Note Off ch=7 par1=88 par2=64
Channel Event. t= 47 (20020) Note Off ch=7 par1=87 par2=64
Channel Event. t= 12 (20032) Note On ch=7 par1=83 par2=83
Channel Event. t= 81 (20113) Note Off ch=7 par1=83 par2=64
Channel Event. t= 15 (20128) Note On ch=7 par1=78 par2=90
Channel Event. t= 60 (20188) Note Off ch=7 par1=78 par2=64
Channel Event. t= 36 (20224) Note On ch=7 par1=79 par2=83
Channel Event. t= 99 (20323) Note Off ch=7 par1=79 par2=64
Channel Event. t= 93 (20416) Note On ch=7 par1=84 par2=91
Channel Event. t= 73 (20489) Note Off ch=7 par1=84 par2=64
Channel Event. t= 119 (20608) Note On ch=7 par1=83 par2=109
Channel Event. t= 72 (20680) Note Off ch=7 par1=83 par2=64
Channel Event. t= 24 (20704) Note On ch=7 par1=83 par2=70
Channel Event. t= 0 (20704) Note On ch=7 par1=84 par2=78
Channel Event. t= 39 (20743) Note Off ch=7 par1=84 par2=64
Channel Event. t= 19 (20762) Note Off ch=7 par1=83 par2=64
Channel Event. t= 38 (20800) Note On ch=7 par1=77 par2=46
Channel Event. t= 29 (20829) Note Off ch=7 par1=77 par2=64
Channel Event. t= 67 (20896) Note On ch=7 par1=75 par2=85
Channel Event. t= 96 (20992) Note On ch=7 par1=76 par2=80
Channel Event. t= 23 (21015) Note Off ch=7 par1=75 par2=64
Channel Event. t= 78 (21093) Note Off ch=7 par1=76 par2=64
Channel Event. t= 91 (21184) Note On ch=7 par1=79 par2=77
Channel Event. t= 83 (21267) Note Off ch=7 par1=79 par2=64
Channel Event. t= 109 (21376) Note On ch=7 par1=78 par2=101
Channel Event. t= 155 (21531) Note Off ch=7 par1=78 par2=64
Channel Event. t= 37 (21568) Note On ch=7 par1=74 par2=81
Channel Event. t= 96 (21664) Note On ch=7 par1=75 par2=75
Channel Event. t= 9 (21673) Note Off ch=7 par1=74 par2=64
Channel Event. t= 87 (21760) Note On ch=7 par1=76 par2=80
Channel Event. t= 1 (21761) Note Off ch=7 par1=75 par2=64
Channel Event. t= 104 (21865) Note Off ch=7 par1=76 par2=64
Channel Event. t= 87 (21952) Note On ch=7 par1=79 par2=79
Channel Event. t= 89 (22041) Note Off ch=7 par1=79 par2=64
Channel Event. t= 103 (22144) Note On ch=7 par1=78 par2=98
Channel Event. t= 167 (22311) Note Off ch=7 par1=78 par2=64
Channel Event. t= 25 (22336) Note On ch=7 par1=74 par2=89
Channel Event. t= 96 (22432) Note On ch=7 par1=75 par2=71
Channel Event. t= 8 (22440) Note Off ch=7 par1=74 par2=64
Channel Event. t= 88 (22528) Note On ch=7 par1=76 par2=80
Channel Event. t= 6 (22534) Note Off ch=7 par1=75 par2=64
Channel Event. t= 102 (22636) Note Off ch=7 par1=76 par2=64
Channel Event. t= 84 (22720) Note On ch=7 par1=79 par2=90
Channel Event. t= 88 (22808) Note Off ch=7 par1=79 par2=64
Channel Event. t= 104 (22912) Note On ch=7 par1=78 par2=99
Channel Event. t= 372 (23284) Note Off ch=7 par1=78 par2=64
Channel Event. t= 12 (23296) Note On ch=7 par1=71 par2=78
Channel Event. t= 384 (23680) Note On ch=7 par1=83 par2=91
Channel Event. t= 17 (23697) Note Off ch=7 par1=71 par2=64
Channel Event. t= 895 (24592) Note Off ch=7 par1=83 par2=64
Channel Event. t= 48 (24640) Note On ch=7 par1=83 par2=32
Channel Event. t= 192 (24832) Note On ch=7 par1=84 par2=47
Channel Event. t= 22 (24854) Note Off ch=7 par1=83 par2=64
Channel Event. t= 746 (25600) Note Off ch=7 par1=84 par2=64
Channel Event. t= 576 (26176) Note On ch=7 par1=55 par2=79
Channel Event. t= 42 (26218) Note Off ch=7 par1=55 par2=64
Channel Event. t= 54 (26272) Note On ch=7 par1=60 par2=76
Channel Event. t= 34 (26306) Note Off ch=7 par1=60 par2=64
Channel Event. t= 62 (26368) Note On ch=7 par1=64 par2=94
Channel Event. t= 165 (26533) Note Off ch=7 par1=64 par2=64
Channel Event. t= 27 (26560) Note On ch=7 par1=60 par2=68
Channel Event. t= 34 (26594) Note Off ch=7 par1=60 par2=64
Channel Event. t= 62 (26656) Note On ch=7 par1=55 par2=53
Channel Event. t= 30 (26686) Note Off ch=7 par1=55 par2=64
Channel Event. t= 66 (26752) Note On ch=7 par1=54 par2=94
Channel Event. t= 156 (26908) Note Off ch=7 par1=54 par2=64
Channel Event. t= 36 (26944) Note On ch=7 par1=55 par2=68
Channel Event. t= 42 (26986) Note Off ch=7 par1=55 par2=64
Channel Event. t= 54 (27040) Note On ch=7 par1=60 par2=69
Channel Event. t= 34 (27074) Note Off ch=7 par1=60 par2=64
Channel Event. t= 62 (27136) Note On ch=7 par1=64 par2=69
Channel Event. t= 44 (27180) Note Off ch=7 par1=64 par2=64
Channel Event. t= 52 (27232) Note On ch=7 par1=67 par2=73
Channel Event. t= 32 (27264) Note Off ch=7 par1=67 par2=64
Channel Event. t= 64 (27328) Note On ch=7 par1=65 par2=99
Channel Event. t= 243 (27571) Note Off ch=7 par1=65 par2=64
Channel Event. t= 45 (27616) Note On ch=7 par1=64 par2=86
Channel Event. t= 96 (27712) Note On ch=7 par1=60 par2=74
Channel Event. t= 12 (27724) Note Off ch=7 par1=64 par2=64
Channel Event. t= 84 (27808) Note On ch=7 par1=62 par2=70
Channel Event. t= 20 (27828) Note Off ch=7 par1=60 par2=64
Channel Event. t= 43 (27871) Note Off ch=7 par1=62 par2=64
Channel Event. t= 33 (27904) Note On ch=7 par1=64 par2=81
Channel Event. t= 96 (28000) Note On ch=7 par1=62 par2=71
Channel Event. t= 31 (28031) Note Off ch=7 par1=64 par2=64
Channel Event. t= 24 (28055) Note Off ch=7 par1=62 par2=64
Channel Event. t= 41 (28096) Note On ch=7 par1=59 par2=88
Channel Event. t= 96 (28192) Note On ch=7 par1=60 par2=69
Channel Event. t= 13 (28205) Note Off ch=7 par1=59 par2=64
Channel Event. t= 31 (28236) Note Off ch=7 par1=60 par2=64
Channel Event. t= 52 (28288) Note On ch=7 par1=62 par2=90
Channel Event. t= 96 (28384) Note On ch=7 par1=60 par2=74
Channel Event. t= 13 (28397) Note Off ch=7 par1=62 par2=64
Channel Event. t= 39 (28436) Note Off ch=7 par1=60 par2=64
Channel Event. t= 44 (28480) Note On ch=7 par1=57 par2=77
Channel Event. t= 74 (28554) Note Off ch=7 par1=57 par2=64
Channel Event. t= 22 (28576) Note On ch=7 par1=59 par2=69
Channel Event. t= 38 (28614) Note Off ch=7 par1=59 par2=64
Channel Event. t= 58 (28672) Note On ch=7 par1=60 par2=94
Channel Event. t= 504 (29176) Note Off ch=7 par1=60 par2=64
Channel Event. t= 72 (29248) Note On ch=7 par1=55 par2=70
Channel Event. t= 30 (29278) Note Off ch=7 par1=55 par2=64
Channel Event. t= 66 (29344) Note On ch=7 par1=60 par2=69
Channel Event. t= 50 (29394) Note Off ch=7 par1=60 par2=64
Channel Event. t= 46 (29440) Note On ch=7 par1=64 par2=90
Channel Event. t= 128 (29568) Note Off ch=7 par1=64 par2=64
Channel Event. t= 43 (29611) Note On ch=7 par1=76 par2=58
Channel Event. t= 2 (29613) Note On ch=7 par1=67 par2=41
Channel Event. t= 19 (29632) Note On ch=7 par1=60 par2=68
Channel Event. t= 44 (29676) Note Off ch=7 par1=67 par2=64
Channel Event. t= 2 (29678) Note Off ch=7 par1=76 par2=64
Channel Event. t= 4 (29682) Note Off ch=7 par1=60 par2=64
Channel Event. t= 46 (29728) Note On ch=7 par1=55 par2=68
Channel Event. t= 37 (29765) Note Off ch=7 par1=55 par2=64
Channel Event. t= 59 (29824) Note On ch=7 par1=54 par2=85
Channel Event. t= 130 (29954) Note Off ch=7 par1=54 par2=64
Channel Event. t= 39 (29993) Note On ch=7 par1=67 par2=42
Channel Event. t= 0 (29993) Note On ch=7 par1=76 par2=53
Channel Event. t= 23 (30016) Note On ch=7 par1=55 par2=75
Channel Event. t= 42 (30058) Note Off ch=7 par1=55 par2=64
Channel Event. t= 2 (30060) Note Off ch=7 par1=67 par2=64
Channel Event. t= 19 (30079) Note Off ch=7 par1=76 par2=64
Channel Event. t= 33 (30112) Note On ch=7 par1=60 par2=75
Channel Event. t= 50 (30162) Note Off ch=7 par1=60 par2=64
Channel Event. t= 46 (30208) Note On ch=7 par1=64 par2=81
Channel Event. t= 66 (30274) Note Off ch=7 par1=64 par2=64
Channel Event. t= 30 (30304) Note On ch=7 par1=67 par2=74
Channel Event. t= 28 (30332) Note Off ch=7 par1=67 par2=64
Channel Event. t= 45 (30377) Note On ch=7 par1=81 par2=57
Channel Event. t= 2 (30379) Note On ch=7 par1=72 par2=50
Channel Event. t= 21 (30400) Note On ch=7 par1=65 par2=94
Channel Event. t= 56 (30456) Note Off ch=7 par1=81 par2=64
Channel Event. t= 1 (30457) Note Off ch=7 par1=72 par2=64
Channel Event. t= 189 (30646) Note Off ch=7 par1=65 par2=64
Channel Event. t= 42 (30688) Note On ch=7 par1=64 par2=86
Channel Event. t= 62 (30750) Note On ch=7 par1=81 par2=61
Channel Event. t= 2 (30752) Note On ch=7 par1=72 par2=60
Channel Event. t= 32 (30784) Note On ch=7 par1=67 par2=74
Channel Event. t= 3 (30787) Note Off ch=7 par1=64 par2=64
Channel Event. t= 49 (30836) Note Off ch=7 par1=72 par2=64
Channel Event. t= 6 (30842) Note Off ch=7 par1=81 par2=64
Channel Event. t= 38 (30880) Note On ch=7 par1=65 par2=75
Channel Event. t= 16 (30896) Note Off ch=7 par1=67 par2=64
Channel Event. t= 80 (30976) Note On ch=7 par1=64 par2=71
Channel Event. t= 14 (30990) Note Off ch=7 par1=65 par2=64
Channel Event. t= 38 (31028) Note Off ch=7 par1=64 par2=64
Channel Event. t= 44 (31072) Note On ch=7 par1=62 par2=90
Channel Event. t= 62 (31134) Note On ch=7 par1=81 par2=58
Channel Event. t= 2 (31136) Note On ch=7 par1=72 par2=52
Channel Event. t= 32 (31168) Note On ch=7 par1=65 par2=77
Channel Event. t= 6 (31174) Note Off ch=7 par1=62 par2=64
Channel Event. t= 26 (31200) Note Off ch=7 par1=81 par2=64
Channel Event. t= 0 (31200) Note Off ch=7 par1=72 par2=64
Channel Event. t= 64 (31264) Note On ch=7 par1=64 par2=67
Channel Event. t= 17 (31281) Note Off ch=7 par1=65 par2=64
Channel Event. t= 79 (31360) Note On ch=7 par1=62 par2=78
Channel Event. t= 15 (31375) Note Off ch=7 par1=64 par2=64
Channel Event. t= 43 (31418) Note Off ch=7 par1=62 par2=64
Channel Event. t= 38 (31456) Note On ch=7 par1=60 par2=85
Channel Event. t= 53 (31509) Note On ch=7 par1=81 par2=54
Channel Event. t= 6 (31515) Note On ch=7 par1=72 par2=44
Channel Event. t= 37 (31552) Note On ch=7 par1=64 par2=80
Channel Event. t= 8 (31560) Note Off ch=7 par1=60 par2=64
Channel Event. t= 28 (31588) Note Off ch=7 par1=81 par2=64
Channel Event. t= 18 (31606) Note Off ch=7 par1=72 par2=64
Channel Event. t= 42 (31648) Note On ch=7 par1=62 par2=87
Channel Event. t= 10 (31658) Note Off ch=7 par1=64 par2=64
Channel Event. t= 89 (31747) Note Off ch=7 par1=62 par2=64
Channel Event. t= 180 (31927) Note On ch=7 par1=79 par2=40
Channel Event. t= 7 (31934) Note On ch=7 par1=71 par2=49
Channel Event. t= 49 (31983) Note Off ch=7 par1=79 par2=64
Channel Event. t= 11 (31994) Note Off ch=7 par1=71 par2=64
Channel Event. t= 134 (32128) Note On ch=7 par1=72 par2=52
Channel Event. t= 12 (32140) Note On ch=7 par1=64 par2=31
Channel Event. t= 60 (32200) Note Off ch=7 par1=64 par2=64
Channel Event. t= 5 (32205) Note Off ch=7 par1=72 par2=64
Channel Event. t= 979 (33184) Controller ch=7 par1=7 (Main Volume) par2=102
Channel Event. t= 85 (33269) Note On ch=7 par1=60 par2=53
Channel Event. t= 2 (33271) Note On ch=7 par1=57 par2=49
Channel Event. t= 9 (33280) Note On ch=7 par1=55 par2=63
Channel Event. t= 342 (33622) Note Off ch=7 par1=60 par2=64
Channel Event. t= 19 (33641) Note Off ch=7 par1=57 par2=64
Channel Event. t= 4 (33645) Note On ch=7 par1=60 par2=66
Channel Event. t= 3 (33648) Note On ch=7 par1=64 par2=75
Channel Event. t= 16 (33664) Note On ch=7 par1=57 par2=67
Channel Event. t= 10 (33674) Note Off ch=7 par1=55 par2=64
Channel Event. t= 312 (33986) Note Off ch=7 par1=60 par2=64
Channel Event. t= 30 (34016) Note Off ch=7 par1=64 par2=64
Channel Event. t= 21 (34037) Note On ch=7 par1=64 par2=104
Channel Event. t= 0 (34037) Note On ch=7 par1=67 par2=102
Channel Event. t= 11 (34048) Note On ch=7 par1=60 par2=100
Channel Event. t= 1 (34049) Note Off ch=7 par1=57 par2=64
Channel Event. t= 301 (34350) Note Off ch=7 par1=64 par2=64
Channel Event. t= 16 (34366) Note Off ch=7 par1=67 par2=64
Channel Event. t= 55 (34421) Note On ch=7 par1=72 par2=102
Channel Event. t= 2 (34423) Note On ch=7 par1=69 par2=99
Channel Event. t= 9 (34432) Note On ch=7 par1=67 par2=100
Channel Event. t= 19 (34451) Note Off ch=7 par1=60 par2=64
Channel Event. t= 222 (34673) Note Off ch=7 par1=72 par2=64
Channel Event. t= 28 (34701) Note Off ch=7 par1=69 par2=64
Channel Event. t= 8 (34709) Note On ch=7 par1=76 par2=98
Channel Event. t= 0 (34709) Note On ch=7 par1=72 par2=93
Channel Event. t= 11 (34720) Note On ch=7 par1=69 par2=91
Channel Event. t= 39 (34759) Note Off ch=7 par1=67 par2=64
Channel Event. t= 31 (34790) Note Off ch=7 par1=72 par2=64
Channel Event. t= 1 (34791) Note Off ch=7 par1=76 par2=64
Channel Event. t= 9 (34800) Note On ch=7 par1=79 par2=95
Channel Event. t= 0 (34800) Note On ch=7 par1=76 par2=67
Channel Event. t= 16 (34816) Note On ch=7 par1=72 par2=94
Channel Event. t= 4 (34820) Note Off ch=7 par1=69 par2=64
Channel Event. t= 157 (34977) Note Off ch=7 par1=79 par2=64
Channel Event. t= 1 (34978) Note Off ch=7 par1=76 par2=64
Channel Event. t= 16 (34994) Note On ch=7 par1=77 par2=82
Channel Event. t= 3 (34997) Note On ch=7 par1=81 par2=53
Channel Event. t= 10 (35007) Note Off ch=7 par1=72 par2=64
Channel Event. t= 1 (35008) Note On ch=7 par1=76 par2=100
Channel Event. t= 168 (35176) Note Off ch=7 par1=81 par2=64
Channel Event. t= 10 (35186) Note Off ch=7 par1=77 par2=64
Channel Event. t= 13 (35199) Note Off ch=7 par1=76 par2=64
Channel Event. t= 0 (35199) Note On ch=7 par1=79 par2=104
Channel Event. t= 0 (35199) Note On ch=7 par1=76 par2=106
Channel Event. t= 1 (35200) Note On ch=7 par1=72 par2=106
Channel Event. t= 263 (35463) Note Off ch=7 par1=79 par2=64
Channel Event. t= 2 (35465) Note Off ch=7 par1=76 par2=64
Channel Event. t= 22 (35487) Note Off ch=7 par1=72 par2=64
Channel Event. t= 0 (35487) Note On ch=7 par1=72 par2=86
Channel Event. t= 1 (35488) Note On ch=7 par1=76 par2=91
Channel Event. t= 0 (35488) Note On ch=7 par1=69 par2=72
Channel Event. t= 72 (35560) Note Off ch=7 par1=76 par2=64
Channel Event. t= 2 (35562) Note Off ch=7 par1=72 par2=64
Channel Event. t= 9 (35571) Note On ch=7 par1=79 par2=92
Channel Event. t= 0 (35571) Note On ch=7 par1=76 par2=87
Channel Event. t= 13 (35584) Note On ch=7 par1=72 par2=88
Channel Event. t= 6 (35590) Note Off ch=7 par1=69 par2=64
Channel Event. t= 153 (35743) Note Off ch=7 par1=79 par2=64
Channel Event. t= 11 (35754) Note Off ch=7 par1=76 par2=64
Channel Event. t= 10 (35764) Note On ch=7 par1=79 par2=80
Channel Event. t= 1 (35765) Note On ch=7 par1=81 par2=89
Channel Event. t= 11 (35776) Note On ch=7 par1=76 par2=84
Channel Event. t= 10 (35786) Note Off ch=7 par1=72 par2=64
Channel Event. t= 158 (35944) Note Off ch=7 par1=81 par2=64
Channel Event. t= 4 (35948) Note Off ch=7 par1=79 par2=64
Channel Event. t= 10 (35958) Note On ch=7 par1=83 par2=100
Channel Event. t= 2 (35960) Note On ch=7 par1=78 par2=108
Channel Event. t= 8 (35968) Note On ch=7 par1=75 par2=105
Channel Event. t= 19 (35987) Note Off ch=7 par1=76 par2=64
Channel Event. t= 241 (36228) Note Off ch=7 par1=78 par2=64
Channel Event. t= 3 (36231) Note Off ch=7 par1=83 par2=64
Channel Event. t= 13 (36244) Note On ch=7 par1=84 par2=90
Channel Event. t= 0 (36244) Note On ch=7 par1=79 par2=88
Channel Event. t= 12 (36256) Note On ch=7 par1=76 par2=85
Channel Event. t= 8 (36264) Note Off ch=7 par1=75 par2=64
Channel Event. t= 52 (36316) Note Off ch=7 par1=79 par2=64
Channel Event. t= 14 (36330) Note Off ch=7 par1=84 par2=64
Channel Event. t= 3 (36333) Note On ch=7 par1=79 par2=92
Channel Event. t= 2 (36335) Note Off ch=7 par1=76 par2=64
Channel Event. t= 0 (36335) Note On ch=7 par1=76 par2=87
Channel Event. t= 17 (36352) Note On ch=7 par1=72 par2=98
Channel Event. t= 144 (36496) Note Off ch=7 par1=76 par2=64
Channel Event. t= 25 (36521) Note Off ch=7 par1=79 par2=64
Channel Event. t= 9 (36530) Note On ch=7 par1=76 par2=103
Channel Event. t= 5 (36535) Note Off ch=7 par1=72 par2=64
Channel Event. t= 0 (36535) Note On ch=7 par1=72 par2=91
Channel Event. t= 9 (36544) Note On ch=7 par1=69 par2=96
Channel Event. t= 149 (36693) Note Off ch=7 par1=72 par2=64
Channel Event. t= 13 (36706) Note Off ch=7 par1=76 par2=64
Channel Event. t= 6 (36712) Note On ch=7 par1=72 par2=91
Channel Event. t= 2 (36714) Note Off ch=7 par1=69 par2=64
Channel Event. t= 0 (36714) Note On ch=7 par1=69 par2=90
Channel Event. t= 22 (36736) Note On ch=7 par1=67 par2=92
Channel Event. t= 163 (36899) Note Off ch=7 par1=72 par2=64
Channel Event. t= 4 (36903) Note Off ch=7 par1=69 par2=64
Channel Event. t= 5 (36908) Note On ch=7 par1=71 par2=94
Channel Event. t= 2 (36910) Note On ch=7 par1=74 par2=90
Channel Event. t= 18 (36928) Note On ch=7 par1=65 par2=90
Channel Event. t= 14 (36942) Note Off ch=7 par1=67 par2=64
Channel Event. t= 100 (37042) Note Off ch=7 par1=71 par2=64
Channel Event. t= 45 (37087) Note Off ch=7 par1=74 par2=64
Channel Event. t= 5 (37092) Note On ch=7 par1=72 par2=90
Channel Event. t= 0 (37092) Note On ch=7 par1=75 par2=102
Channel Event. t= 28 (37120) Note On ch=7 par1=63 par2=105
Channel Event. t= 12 (37132) Note Off ch=7 par1=65 par2=64
Channel Event. t= 320 (37452) Note Off ch=7 par1=72 par2=64
Channel Event. t= 5 (37457) Note Off ch=7 par1=75 par2=64
Channel Event. t= 32 (37489) Note On ch=7 par1=72 par2=86
Channel Event. t= 1 (37490) Note On ch=7 par1=75 par2=89
Channel Event. t= 14 (37504) Note On ch=7 par1=70 par2=78
Channel Event. t= 24 (37528) Note Off ch=7 par1=63 par2=64
Channel Event. t= 141 (37669) Note Off ch=7 par1=75 par2=64
Channel Event. t= 5 (37674) Note Off ch=7 par1=72 par2=64
Channel Event. t= 4 (37678) Note On ch=7 par1=83 par2=89
Channel Event. t= 2 (37680) Note On ch=7 par1=79 par2=80
Channel Event. t= 16 (37696) Note On ch=7 par1=74 par2=77
Channel Event. t= 14 (37710) Note Off ch=7 par1=70 par2=64
Channel Event. t= 139 (37849) Note Off ch=7 par1=83 par2=64
Channel Event. t= 19 (37868) Note Off ch=7 par1=79 par2=64
Channel Event. t= 5 (37873) Note On ch=7 par1=75 par2=109
Channel Event. t= 2 (37875) Note On ch=7 par1=72 par2=104
Channel Event. t= 13 (37888) Note On ch=7 par1=63 par2=104
Channel Event. t= 20 (37908) Note Off ch=7 par1=74 par2=64
Channel Event. t= 322 (38230) Note Off ch=7 par1=72 par2=64
Channel Event. t= 1 (38231) Note Off ch=7 par1=75 par2=64
Channel Event. t= 17 (38248) Note On ch=7 par1=75 par2=92
Channel Event. t= 2 (38250) Note On ch=7 par1=72 par2=80
Channel Event. t= 22 (38272) Note On ch=7 par1=70 par2=65
Channel Event. t= 35 (38307) Note Off ch=7 par1=63 par2=64
Channel Event. t= 114 (38421) Note Off ch=7 par1=72 par2=64
Channel Event. t= 6 (38427) Note Off ch=7 par1=75 par2=64
Channel Event. t= 17 (38444) Note On ch=7 par1=79 par2=81
Channel Event. t= 0 (38444) Note On ch=7 par1=83 par2=85
Channel Event. t= 20 (38464) Note On ch=7 par1=74 par2=73
Channel Event. t= 14 (38478) Note Off ch=7 par1=70 par2=64
Channel Event. t= 150 (38628) Note Off ch=7 par1=83 par2=64
Channel Event. t= 19 (38647) Note Off ch=7 par1=79 par2=64
Channel Event. t= 0 (38647) Note On ch=7 par1=75 par2=105
Channel Event. t= 1 (38648) Note On ch=7 par1=72 par2=98
Channel Event. t= 8 (38656) Note On ch=7 par1=70 par2=108
Channel Event. t= 19 (38675) Note Off ch=7 par1=74 par2=64
Channel Event. t= 269 (38944) Note Off ch=7 par1=75 par2=64
Channel Event. t= 30 (38974) Note Off ch=7 par1=72 par2=64
Channel Event. t= 18 (38992) Note Off ch=7 par1=70 par2=64
Channel Event. t= 34 (39026) Note On ch=7 par1=70 par2=100
Channel Event. t= 1 (39027) Note On ch=7 par1=67 par2=92
Channel Event. t= 13 (39040) Note On ch=7 par1=65 par2=65
Channel Event. t= 355 (39395) Note Off ch=7 par1=67 par2=64
Channel Event. t= 1 (39396) Note Off ch=7 par1=70 par2=64
Channel Event. t= 18 (39414) Note On ch=7 par1=67 par2=91
Channel Event. t= 1 (39415) Note On ch=7 par1=70 par2=104
Channel Event. t= 9 (39424) Note On ch=7 par1=63 par2=107
Channel Event. t= 39 (39463) Note Off ch=7 par1=65 par2=64
Channel Event. t= 476 (39939) Note Off ch=7 par1=67 par2=64
Channel Event. t= 12 (39951) Note Off ch=7 par1=70 par2=64
Channel Event. t= 46 (39997) Note On ch=7 par1=69 par2=75
Channel Event. t= 21 (40018) Note Off ch=7 par1=63 par2=64
Channel Event. t= 166 (40184) Note On ch=7 par1=70 par2=89
Channel Event. t= 8 (40192) Note On ch=7 par1=63 par2=82
Channel Event. t= 0 (40192) Note On ch=7 par1=67 par2=91
Channel Event. t= 16 (40208) Note Off ch=7 par1=69 par2=64
Channel Event. t= 360 (40568) Note On ch=7 par1=72 par2=82
Channel Event. t= 0 (40568) Note On ch=7 par1=75 par2=96
Channel Event. t= 6 (40574) Note Off ch=7 par1=70 par2=64
Channel Event. t= 2 (40576) Note On ch=7 par1=70 par2=97
Channel Event. t= 16 (40592) Note Off ch=7 par1=63 par2=64
Channel Event. t= 12 (40604) Note Off ch=7 par1=67 par2=64
Channel Event. t= 225 (40829) Note Off ch=7 par1=75 par2=64
Channel Event. t= 24 (40853) Note Off ch=7 par1=70 par2=64
Channel Event. t= 5 (40858) Note On ch=7 par1=75 par2=80
Channel Event. t= 1 (40859) Note On ch=7 par1=79 par2=82
Channel Event. t= 1 (40860) Note Off ch=7 par1=72 par2=64
Channel Event. t= 4 (40864) Note On ch=7 par1=72 par2=88
Channel Event. t= 36 (40900) Note Off ch=7 par1=75 par2=64
Channel Event. t= 27 (40927) Note Off ch=7 par1=79 par2=64
Channel Event. t= 23 (40950) Note On ch=7 par1=82 par2=98
Channel Event. t= 1 (40951) Note On ch=7 par1=79 par2=74
Channel Event. t= 9 (40960) Note On ch=7 par1=75 par2=107
Channel Event. t= 33 (40993) Note Off ch=7 par1=72 par2=64
Channel Event. t= 125 (41118) Note Off ch=7 par1=82 par2=64
Channel Event. t= 6 (41124) Note Off ch=7 par1=79 par2=64
Channel Event. t= 8 (41132) Note On ch=7 par1=81 par2=78
Channel Event. t= 1 (41133) Note On ch=7 par1=84 par2=87
Channel Event. t= 10 (41143) Note Off ch=7 par1=75 par2=64
Channel Event. t= 9 (41152) Note On ch=7 par1=79 par2=83
Channel Event. t= 169 (41321) Note Off ch=7 par1=81 par2=64
Channel Event. t= 4 (41325) Note Off ch=7 par1=79 par2=64
Channel Event. t= 0 (41325) Note On ch=7 par1=79 par2=77
Channel Event. t= 2 (41327) Note On ch=7 par1=82 par2=95
Channel Event. t= 14 (41341) Note Off ch=7 par1=84 par2=64
Channel Event. t= 3 (41344) Note On ch=7 par1=75 par2=104
Channel Event. t= 261 (41605) Note Off ch=7 par1=79 par2=64
Channel Event. t= 1 (41606) Note Off ch=7 par1=82 par2=64
Channel Event. t= 18 (41624) Note Off ch=7 par1=75 par2=64
Channel Event. t= 0 (41624) Note On ch=7 par1=75 par2=88
Channel Event. t= 1 (41625) Note On ch=7 par1=79 par2=83
Channel Event. t= 7 (41632) Note On ch=7 par1=72 par2=63
Channel Event. t= 56 (41688) Note Off ch=7 par1=75 par2=64
Channel Event. t= 23 (41711) Note Off ch=7 par1=79 par2=64
Channel Event. t= 12 (41723) Note On ch=7 par1=79 par2=67
Channel Event. t= 1 (41724) Note On ch=7 par1=82 par2=88
Channel Event. t= 4 (41728) Note On ch=7 par1=75 par2=82
Channel Event. t= 19 (41747) Note Off ch=7 par1=72 par2=64
Channel Event. t= 151 (41898) Note Off ch=7 par1=79 par2=64
Channel Event. t= 5 (41903) Note Off ch=7 par1=82 par2=64
Channel Event. t= 15 (41918) Note On ch=7 par1=84 par2=92
Channel Event. t= 2 (41920) Note On ch=7 par1=82 par2=96
Channel Event. t= 0 (41920) Note On ch=7 par1=79 par2=84
Channel Event. t= 11 (41931) Note Off ch=7 par1=75 par2=64
Channel Event. t= 166 (42097) Note Off ch=7 par1=82 par2=64
Channel Event. t= 1 (42098) Note Off ch=7 par1=84 par2=64
Channel Event. t= 14 (42112) Note On ch=7 par1=86 par2=106
Channel Event. t= 0 (42112) Note On ch=7 par1=78 par2=101
Channel Event. t= 2 (42114) Note On ch=7 par1=81 par2=98
Channel Event. t= 21 (42135) Note Off ch=7 par1=79 par2=64
Channel Event. t= 232 (42367) Note Off ch=7 par1=78 par2=64
Channel Event. t= 28 (42395) Note Off ch=7 par1=86 par2=64
Channel Event. t= 5 (42400) Note On ch=7 par1=79 par2=83
Channel Event. t= 6 (42406) Note On ch=7 par1=82 par2=86
Channel Event. t= 3 (42409) Note On ch=7 par1=87 par2=84
Channel Event. t= 4 (42413) Note Off ch=7 par1=81 par2=64
Channel Event. t= 63 (42476) Note Off ch=7 par1=82 par2=64
Channel Event. t= 20 (42496) Note On ch=7 par1=75 par2=96
Channel Event. t= 2 (42498) Note Off ch=7 par1=87 par2=64
Channel Event. t= 3 (42501) Note On ch=7 par1=82 par2=83
Channel Event. t= 2 (42503) Note Off ch=7 par1=79 par2=64
Channel Event. t= 0 (42503) Note On ch=7 par1=79 par2=78
Channel Event. t= 132 (42635) Note Off ch=7 par1=82 par2=64
Channel Event. t= 49 (42684) Note Off ch=7 par1=75 par2=64
Channel Event. t= 0 (42684) Note On ch=7 par1=75 par2=92
Channel Event. t= 4 (42688) Note On ch=7 par1=72 par2=87
Channel Event. t= 172 (42860) Note Off ch=7 par1=75 par2=64
Channel Event. t= 16 (42876) Note On ch=7 par1=75 par2=96
Channel Event. t= 2 (42878) Note Off ch=7 par1=72 par2=64
Channel Event. t= 0 (42878) Note On ch=7 par1=72 par2=89
Channel Event. t= 2 (42880) Note On ch=7 par1=70 par2=90
Channel Event. t= 7 (42887) Note Off ch=7 par1=79 par2=64
Channel Event. t= 124 (43011) Note Off ch=7 par1=72 par2=64
Channel Event. t= 47 (43058) Note On ch=7 par1=73 par2=78
Channel Event. t= 1 (43059) Note On ch=7 par1=77 par2=83
Channel Event. t= 13 (43072) Note On ch=7 par1=68 par2=88
Channel Event. t= 5 (43077) Note Off ch=7 par1=75 par2=64
Channel Event. t= 9 (43086) Note Off ch=7 par1=70 par2=64
Channel Event. t= 136 (43222) Note Off ch=7 par1=77 par2=64
Channel Event. t= 5 (43227) Note Off ch=7 par1=73 par2=64
Channel Event. t= 18 (43245) Note On ch=7 par1=78 par2=104
Channel Event. t= 1 (43246) Note On ch=7 par1=74 par2=104
Channel Event. t= 18 (43264) Note On ch=7 par1=66 par2=104
Channel Event. t= 21 (43285) Note Off ch=7 par1=68 par2=64
Channel Event. t= 315 (43600) Note Off ch=7 par1=74 par2=64
Channel Event. t= 7 (43607) Note Off ch=7 par1=66 par2=64
Channel Event. t= 1 (43608) Note Off ch=7 par1=78 par2=64
Channel Event. t= 19 (43627) Note On ch=7 par1=78 par2=83
Channel Event. t= 1 (43628) Note On ch=7 par1=74 par2=69
Channel Event. t= 20 (43648) Note On ch=7 par1=66 par2=92
Channel Event. t= 151 (43799) Note Off ch=7 par1=78 par2=64
Channel Event. t= 19 (43818) Note On ch=7 par1=78 par2=83
Channel Event. t= 4 (43822) Note Off ch=7 par1=74 par2=64
Channel Event. t= 0 (43822) Note On ch=7 par1=86 par2=85
Channel Event. t= 18 (43840) Note On ch=7 par1=74 par2=75
Channel Event. t= 8 (43848) Note Off ch=7 par1=66 par2=64
Channel Event. t= 144 (43992) Note Off ch=7 par1=78 par2=64
Channel Event. t= 6 (43998) Note Off ch=7 par1=86 par2=64
Channel Event. t= 10 (44008) Note On ch=7 par1=78 par2=99
Channel Event. t= 3 (44011) Note Off ch=7 par1=74 par2=64
Channel Event. t= 0 (44011) Note On ch=7 par1=74 par2=91
Channel Event. t= 21 (44032) Note On ch=7 par1=66 par2=98
Channel Event. t= 322 (44354) Note Off ch=7 par1=66 par2=64
Channel Event. t= 11 (44365) Note Off ch=7 par1=74 par2=64
Channel Event. t= 7 (44372) Note Off ch=7 par1=78 par2=64
Channel Event. t= 16 (44388) Note On ch=7 par1=78 par2=88
Channel Event. t= 1 (44389) Note On ch=7 par1=74 par2=81
Channel Event. t= 27 (44416) Note On ch=7 par1=66 par2=89
Channel Event. t= 128 (44544) Note Off ch=7 par1=78 par2=64
Channel Event. t= 40 (44584) Note On ch=7 par1=86 par2=89
Channel Event. t= 1 (44585) Note On ch=7 par1=78 par2=86
Channel Event. t= 1 (44586) Note Off ch=7 par1=74 par2=64
Channel Event. t= 22 (44608) Note On ch=7 par1=74 par2=78
Channel Event. t= 20 (44628) Note Off ch=7 par1=66 par2=64
Channel Event. t= 43 (44671) Note Off ch=7 par1=86 par2=64
Channel Event. t= 105 (44776) Note On ch=7 par1=71 par2=78
Channel Event. t= 1 (44777) Note On ch=7 par1=79 par2=92
Channel Event. t= 1 (44778) Note Off ch=7 par1=78 par2=64
Channel Event. t= 22 (44800) Note On ch=7 par1=67 par2=93
Channel Event. t= 18 (44818) Note Off ch=7 par1=74 par2=64
Channel Event. t= 325 (45143) Note Off ch=7 par1=71 par2=64
Channel Event. t= 7 (45150) Note On ch=7 par1=59 par2=85
Channel Event. t= 1 (45151) Note Off ch=7 par1=79 par2=64
Channel Event. t= 1 (45152) Note Off ch=7 par1=67 par2=64
Channel Event. t= 0 (45152) Note On ch=7 par1=67 par2=77
Channel Event. t= 358 (45510) Note Off ch=7 par1=59 par2=64
Channel Event. t= 13 (45523) Note Off ch=7 par1=67 par2=64
Channel Event. t= 26 (45549) Note On ch=7 par1=59 par2=70
Channel Event. t= 2 (45551) Note On ch=7 par1=67 par2=61
Channel Event. t= 751 (46302) Note Off ch=7 par1=59 par2=64
Channel Event. t= 3 (46305) Note Off ch=7 par1=67 par2=64
Channel Event. t= 217 (46522) Note On ch=7 par1=93 par2=55
Channel Event. t= 2 (46524) Note On ch=7 par1=89 par2=49
Channel Event. t= 4 (46528) Note On ch=7 par1=80 par2=40
Channel Event. t= 0 (46528) Note On ch=7 par1=85 par2=49
Channel Event. t= 10 (46538) Note Off ch=7 par1=93 par2=64
Channel Event. t= 8 (46546) Note Off ch=7 par1=89 par2=64
Channel Event. t= 5 (46551) Note Off ch=7 par1=80 par2=64
Channel Event. t= 11 (46562) Note Off ch=7 par1=85 par2=64
Channel Event. t= 158 (46720) Note On ch=7 par1=79 par2=28
Channel Event. t= 0 (46720) Note On ch=7 par1=84 par2=30
Channel Event. t= 0 (46720) Note On ch=7 par1=88 par2=48
Channel Event. t= 0 (46720) Note On ch=7 par1=92 par2=63
Channel Event. t= 336 (47056) Note Off ch=7 par1=79 par2=64
Channel Event. t= 0 (47056) Note Off ch=7 par1=84 par2=64
Channel Event. t= 0 (47056) Note Off ch=7 par1=88 par2=64
Channel Event. t= 0 (47056) Note Off ch=7 par1=92 par2=64
Channel Event. t= 215 (47271) Note On ch=7 par1=92 par2=50
Channel Event. t= 3 (47274) Note On ch=7 par1=89 par2=38
Channel Event. t= 22 (47296) Note On ch=7 par1=85 par2=57
Channel Event. t= 0 (47296) Note On ch=7 par1=80 par2=49
Channel Event. t= 8 (47304) Note Off ch=7 par1=92 par2=64
Channel Event. t= 3 (47307) Note Off ch=7 par1=89 par2=64
Channel Event. t= 22 (47329) Note Off ch=7 par1=80 par2=64
Channel Event. t= 1 (47330) Note Off ch=7 par1=85 par2=64
Channel Event. t= 158 (47488) Note On ch=7 par1=84 par2=48
Channel Event. t= 0 (47488) Note On ch=7 par1=79 par2=46
Channel Event. t= 0 (47488) Note On ch=7 par1=92 par2=43
Channel Event. t= 0 (47488) Note On ch=7 par1=88 par2=43
Channel Event. t= 384 (47872) Note Off ch=7 par1=92 par2=64
Channel Event. t= 0 (47872) Note Off ch=7 par1=88 par2=64
Channel Event. t= 4 (47876) Note Off ch=7 par1=84 par2=64
Channel Event. t= 10 (47886) Note Off ch=7 par1=79 par2=64
Channel Event. t= 178 (48064) Note On ch=7 par1=73 par2=40
Channel Event. t= 0 (48064) Note On ch=7 par1=77 par2=37
Channel Event. t= 0 (48064) Note On ch=7 par1=80 par2=51
Channel Event. t= 104 (48168) Note Off ch=7 par1=73 par2=64
Channel Event. t= 8 (48176) Note Off ch=7 par1=77 par2=64
Channel Event. t= 0 (48176) Note Off ch=7 par1=80 par2=64
Channel Event. t= 272 (48448) Note On ch=7 par1=72 par2=50
Channel Event. t= 0 (48448) Note On ch=7 par1=80 par2=46
Channel Event. t= 0 (48448) Note On ch=7 par1=76 par2=42
Channel Event. t= 87 (48535) Note Off ch=7 par1=76 par2=64
Channel Event. t= 14 (48549) Note Off ch=7 par1=80 par2=64
Channel Event. t= 12 (48561) Note Off ch=7 par1=72 par2=64
Channel Event. t= 271 (48832) Note On ch=7 par1=73 par2=59
Channel Event. t= 0 (48832) Note On ch=7 par1=77 par2=42
Channel Event. t= 0 (48832) Note On ch=7 par1=80 par2=61
Channel Event. t= 52 (48884) Note Off ch=7 par1=77 par2=64
Channel Event. t= 13 (48897) Note Off ch=7 par1=80 par2=64
Channel Event. t= 40 (48937) Note Off ch=7 par1=73 par2=64
Channel Event. t= 279 (49216) Note On ch=7 par1=72 par2=58
Channel Event. t= 69 (49285) Note Off ch=7 par1=72 par2=64
Channel Event. t= 14 (49299) Note On ch=7 par1=84 par2=79
Channel Event. t= 56 (49355) Note Off ch=7 par1=84 par2=64
Channel Event. t= 245 (49600) Note On ch=7 par1=85 par2=56
Channel Event. t= 0 (49600) Note On ch=7 par1=80 par2=46
Channel Event. t= 0 (49600) Note On ch=7 par1=77 par2=31
Channel Event. t= 19 (49619) Note Off ch=7 par1=85 par2=64
Channel Event. t= 7 (49626) Note Off ch=7 par1=77 par2=64
Channel Event. t= 3 (49629) Note Off ch=7 par1=80 par2=64
Channel Event. t= 4099 (53728) Note On ch=7 par1=67 par2=22
Channel Event. t= 192 (53920) Note On ch=7 par1=60 par2=70
Channel Event. t= 33 (53953) Note Off ch=7 par1=60 par2=64
Channel Event. t= 3 (53956) Note Off ch=7 par1=67 par2=64
Channel Event. t= 245 (54201) Note On ch=7 par1=91 par2=61
Channel Event. t= 3 (54204) Note On ch=7 par1=88 par2=46
Channel Event. t= 4 (54208) Note On ch=7 par1=84 par2=57
Channel Event. t= 0 (54208) Note On ch=7 par1=79 par2=65
Channel Event. t= 15 (54223) Note Off ch=7 par1=84 par2=64
Channel Event. t= 11 (54234) Note Off ch=7 par1=79 par2=64
Channel Event. t= 99 (54333) Note Off ch=7 par1=91 par2=64
Channel Event. t= 26 (54359) Note Off ch=7 par1=88 par2=64
Channel Event. t= 40 (54399) Note On ch=7 par1=87 par2=79
Channel Event. t= 1 (54400) Note On ch=7 par1=91 par2=65
Channel Event. t= 0 (54400) Note On ch=7 par1=83 par2=67
Channel Event. t= 0 (54400) Note On ch=7 par1=78 par2=67
Channel Event. t= 314 (54714) Note Off ch=7 par1=78 par2=64
Channel Event. t= 1 (54715) Note Off ch=7 par1=83 par2=64
Channel Event. t= 14 (54729) Note Off ch=7 par1=87 par2=64
Channel Event. t= 5 (54734) Note Off ch=7 par1=91 par2=64
Channel Event. t= 228 (54962) Note On ch=7 par1=91 par2=54
Channel Event. t= 2 (54964) Note On ch=7 par1=88 par2=46
Channel Event. t= 12 (54976) Note On ch=7 par1=84 par2=42
Channel Event. t= 0 (54976) Note On ch=7 par1=79 par2=50
Channel Event. t= 20 (54996) Note Off ch=7 par1=88 par2=64
Channel Event. t= 4 (55000) Note Off ch=7 par1=91 par2=64
Channel Event. t= 1 (55001) Note Off ch=7 par1=79 par2=64
Channel Event. t= 3 (55004) Note Off ch=7 par1=84 par2=64
Channel Event. t= 144 (55148) Note On ch=7 par1=91 par2=66
Channel Event. t= 2 (55150) Note On ch=7 par1=87 par2=72
Channel Event. t= 18 (55168) Note On ch=7 par1=78 par2=62
Channel Event. t= 0 (55168) Note On ch=7 par1=83 par2=56
Channel Event. t= 315 (55483) Note Off ch=7 par1=78 par2=64
Channel Event. t= 1 (55484) Note Off ch=7 par1=83 par2=64
Channel Event. t= 16 (55500) Note Off ch=7 par1=91 par2=64
Channel Event. t= 2 (55502) Note Off ch=7 par1=87 par2=64
Channel Event. t= 230 (55732) Note On ch=7 par1=91 par2=47
Channel Event. t= 0 (55732) Note On ch=7 par1=88 par2=44
Channel Event. t= 12 (55744) Note On ch=7 par1=84 par2=41
Channel Event. t= 0 (55744) Note On ch=7 par1=79 par2=53
Channel Event. t= 84 (55828) Note Off ch=7 par1=84 par2=64
Channel Event. t= 4 (55832) Note Off ch=7 par1=79 par2=64
Channel Event. t= 27 (55859) Note Off ch=7 par1=88 par2=64
Channel Event. t= 1 (55860) Note Off ch=7 par1=91 par2=64
Channel Event. t= 243 (56103) Note On ch=7 par1=91 par2=53
Channel Event. t= 0 (56103) Note On ch=7 par1=87 par2=67
Channel Event. t= 25 (56128) Note On ch=7 par1=79 par2=46
Channel Event. t= 0 (56128) Note On ch=7 par1=83 par2=36
Channel Event. t= 86 (56214) Note Off ch=7 par1=79 par2=64
Channel Event. t= 5 (56219) Note Off ch=7 par1=83 par2=64
Channel Event. t= 1 (56220) Note Off ch=7 par1=87 par2=64
Channel Event. t= 1 (56221) Note Off ch=7 par1=91 par2=64
Channel Event. t= 255 (56476) Note On ch=7 par1=91 par2=49
Channel Event. t= 2 (56478) Note On ch=7 par1=88 par2=51
Channel Event. t= 34 (56512) Note On ch=7 par1=84 par2=32
Channel Event. t= 0 (56512) Note On ch=7 par1=79 par2=48
Channel Event. t= 62 (56574) Note Off ch=7 par1=88 par2=64
Channel Event. t= 1 (56575) Note Off ch=7 par1=84 par2=64
Channel Event. t= 2 (56577) Note Off ch=7 par1=91 par2=64
Channel Event. t= 1 (56578) Note Off ch=7 par1=79 par2=64
Channel Event. t= 298 (56876) Note On ch=7 par1=87 par2=55
Channel Event. t= 15 (56891) Note On ch=7 par1=91 par2=29
Channel Event. t= 2 (56893) Note On ch=7 par1=93 par2=24
Channel Event. t= 3 (56896) Note On ch=7 par1=79 par2=46
Channel Event. t= 0 (56896) Note On ch=7 par1=83 par2=43
Channel Event. t= 77 (56973) Note Off ch=7 par1=93 par2=64
Channel Event. t= 9 (56982) Note Off ch=7 par1=79 par2=64
Channel Event. t= 3 (56985) Note Off ch=7 par1=83 par2=64
Channel Event. t= 39 (57024) Note Off ch=7 par1=87 par2=64
Channel Event. t= 7 (57031) Note Off ch=7 par1=91 par2=64
Channel Event. t= 227 (57258) Note On ch=7 par1=91 par2=58
Channel Event. t= 2 (57260) Note On ch=7 par1=88 par2=52
Channel Event. t= 20 (57280) Note On ch=7 par1=83 par2=53
Channel Event. t= 71 (57351) Note Off ch=7 par1=88 par2=64
Channel Event. t= 4 (57355) Note Off ch=7 par1=91 par2=64
Channel Event. t= 41 (57396) Note Off ch=7 par1=83 par2=64
Channel Event. t= 250 (57646) Note On ch=7 par1=91 par2=31
Channel Event. t= 3 (57649) Note On ch=7 par1=88 par2=20
Channel Event. t= 15 (57664) Note On ch=7 par1=83 par2=36
Channel Event. t= 95 (57759) Note Off ch=7 par1=88 par2=64
Channel Event. t= 3 (57762) Note Off ch=7 par1=91 par2=64
Channel Event. t= 26 (57788) Note Off ch=7 par1=83 par2=64
Channel Event. t= 238 (58026) Note On ch=7 par1=91 par2=25
Channel Event. t= 8 (58034) Note On ch=7 par1=88 par2=21
Channel Event. t= 14 (58048) Note On ch=7 par1=83 par2=33
Channel Event. t= 61 (58109) Note Off ch=7 par1=88 par2=64
Channel Event. t= 7 (58116) Note Off ch=7 par1=91 par2=64
Channel Event. t= 44 (58160) Note Off ch=7 par1=83 par2=64
Channel Event. t= 258 (58418) Note On ch=7 par1=91 par2=25
Channel Event. t= 9 (58427) Note On ch=7 par1=88 par2=20
Channel Event. t= 5 (58432) Note On ch=7 par1=83 par2=41
Channel Event. t= 88 (58520) Note Off ch=7 par1=88 par2=64
Channel Event. t= 5 (58525) Note Off ch=7 par1=91 par2=64
Channel Event. t= 16 (58541) Note Off ch=7 par1=83 par2=64
Channel Event. t= 275 (58816) Note On ch=7 par1=83 par2=36
Channel Event. t= 62 (58878) Note Off ch=7 par1=83 par2=64
Channel Event. t= 322 (59200) Note On ch=7 par1=83 par2=35
Channel Event. t= 69 (59269) Note Off ch=7 par1=83 par2=64
Channel Event. t= 0 (59269) 
Meta Event. Type: 0x2f (47dec), End of Track (0 bytes): 
track #54
track size: 2909
Channel Event. t= 0 (0) 
Meta Event. Type: 0x21 (33dec), MIDI Port (1 bytes): 0
Channel Event. t= 0 (0) 
Meta Event. Type: 0x3 (3dec), Sequence/Track Name (20 bytes): Flute               
Channel Event. t= 0 (0) Program Change ch=1 par1=72 par2=-110
SysEx Event.  (116 bytes): Xffffffb1 X7 X5a Xffffff81 X28 Xffffff91 X3c X33 Xc X40 X43 Xc X43 X36 Xc X48 X3b Xa Xffffff81 X3c X40 Xc X40 X40 X7 X43 X40 X1 X48 X40 X7e Xffffff91 X47 X40 Xc X4b X40 Xc X4e X34 X8 Xffffff81 X47 X40 X4 Xffffff91 X53 X4e X6 Xffffff81 X4e X40 X2 X4b X40 X1e X53 X40 X76 Xffffff91 X42 X50 Xc X47 X3b Xc X4b X47 Xc X4e X50 X10 Xffffff81 X47 X40 X9 X42 X40 X1 X4b X40 Xf X4e X40 X75 Xffffff91 X4f X40 Xd X54 X38 Xa X58 X29 X9 Xffffff81 X4f X40 X2 Xffffff91 X5b X4c X7 Xffffff81 X54 X40 X7 X58 X40 Xd X5b X40 Xffffff81 Xb Xffffff91 X48 
Channel Event. t= 58 (58)  ch=0 par1=13 par2=76
Channel Event. t= 63 (121)  ch=0 par1=12 par2=79
Channel Event. t= 73 (194)  ch=0 par1=1 par2=84
Channel Event. t= 64 (258)  ch=0 par1=18 par2=-127
Channel Event. t= 72 (330)  ch=0 par1=64 par2=11
Channel Event. t= 76 (406)  ch=0 par1=64 par2=3
Channel Event. t= 84 (490)  ch=0 par1=64 par2=10
Channel Event. t= 79 (569)  ch=0 par1=64 par2=102
Channel Event. t= 2247 (2816)  ch=0 par1=61 par2=12
Channel Event. t= 75 (2891)  ch=0 par1=74 par2=23
Channel Event. t= 199 (3090)  ch=0 par1=64 par2=1
Channel Event. t= 2254 (5344)  ch=0 par1=75 par2=12
Channel Event. t= 203 (5547)  ch=0 par1=64 par2=0
Channel Event. t= 2259 (7806)  ch=0 par1=70 par2=22
Channel Event. t= 206 (8012)  ch=0 par1=64 par2=9
Channel Event. t= 83 (8095)  ch=0 par1=64 par2=113
Channel Event. t= 2242 (10337)  ch=0 par1=64 par2=12
Channel Event. t= 71 (10408)  ch=0 par1=64 par2=20
Channel Event. t= 194 (10602)  ch=0 par1=64 par2=4
Channel Event. t= 2251 (12853)  ch=0 par1=64 par2=8
Channel Event. t= 199 (13052)  ch=0 par1=64 par2=15
Channel Event. t= 2254 (15306)  ch=0 par1=64 par2=9
Channel Event. t= 203 (15509)  ch=0 par1=64 par2=23
Channel Event. t= 78 (15587)  ch=0 par1=64 par2=-127
Channel Event. t= 9 (15596) Note On ch=1 par1=67 par2=54
Channel Event. t= 12 (15608) Note On ch=1 par1=72 par2=61
Channel Event. t= 12 (15620) Note On ch=1 par1=79 par2=75
Channel Event. t= 0 (15620) Note On ch=1 par1=76 par2=68
Channel Event. t= 16 (15636) Note Off ch=1 par1=67 par2=64
Channel Event. t= 18 (15654) Note Off ch=1 par1=72 par2=64
Channel Event. t= 6 (15660) Note Off ch=1 par1=79 par2=64
Channel Event. t= 0 (15660) Note Off ch=1 par1=76 par2=64
Channel Event. t= 128 (15788) Note On ch=1 par1=64 par2=30
Channel Event. t= 12 (15800) Note On ch=1 par1=67 par2=54
Channel Event. t= 12 (15812) Note On ch=1 par1=72 par2=46
Channel Event. t= 4 (15816) Note Off ch=1 par1=64 par2=64
Channel Event. t= 22 (15838) Note Off ch=1 par1=67 par2=64
Channel Event. t= 1 (15839) Note Off ch=1 par1=72 par2=64
Channel Event. t= 129 (15968) Note On ch=1 par1=71 par2=56
Channel Event. t= 12 (15980) Note On ch=1 par1=75 par2=71
Channel Event. t= 12 (15992) Note On ch=1 par1=78 par2=77
Channel Event. t= 12 (16004) Note Off ch=1 par1=71 par2=64
Channel Event. t= 0 (16004) Note On ch=1 par1=83 par2=78
Channel Event. t= 12 (16016) Note Off ch=1 par1=75 par2=64
Channel Event. t= 9 (16025) Note Off ch=1 par1=78 par2=64
Channel Event. t= 13 (16038) Note Off ch=1 par1=83 par2=64
Channel Event. t= 122 (16160) Note On ch=1 par1=66 par2=51
Channel Event. t= 12 (16172) Note On ch=1 par1=71 par2=62
Channel Event. t= 12 (16184) Note On ch=1 par1=75 par2=64
Channel Event. t= 12 (16196) Note On ch=1 par1=78 par2=68
Channel Event. t= 5 (16201) Note Off ch=1 par1=66 par2=64
Channel Event. t= 13 (16214) Note Off ch=1 par1=71 par2=64
Channel Event. t= 1 (16215) Note Off ch=1 par1=75 par2=64
Channel Event. t= 12 (16227) Note Off ch=1 par1=78 par2=64
Channel Event. t= 125 (16352) Note On ch=1 par1=79 par2=48
Channel Event. t= 12 (16364) Note On ch=1 par1=84 par2=71
Channel Event. t= 12 (16376) Note On ch=1 par1=88 par2=61
Channel Event. t= 12 (16388) Note On ch=1 par1=91 par2=71
Channel Event. t= 4 (16392) Note Off ch=1 par1=79 par2=64
Channel Event. t= 12 (16404) Note Off ch=1 par1=84 par2=64
Channel Event. t= 3 (16407) Note Off ch=1 par1=88 par2=64
Channel Event. t= 1 (16408) Note Off ch=1 par1=91 par2=64
Channel Event. t= 124 (16532) Note On ch=1 par1=72 par2=45
Channel Event. t= 24 (16556) Note On ch=1 par1=76 par2=61
Channel Event. t= 0 (16556) Note On ch=1 par1=79 par2=61
Channel Event. t= 12 (16568) Note On ch=1 par1=84 par2=72
Channel Event. t= 8 (16576) Note Off ch=1 par1=72 par2=64
Channel Event. t= 14 (16590) Note Off ch=1 par1=84 par2=64
Channel Event. t= 2 (16592) Note Off ch=1 par1=79 par2=64
Channel Event. t= 5 (16597) Note Off ch=1 par1=76 par2=64
Channel Event. t= 127 (16724) Note On ch=1 par1=71 par2=55
Channel Event. t= 12 (16736) Note On ch=1 par1=75 par2=73
Channel Event. t= 12 (16748) Note On ch=1 par1=83 par2=80
Channel Event. t= 0 (16748) Note On ch=1 par1=78 par2=77
Channel Event. t= 15 (16763) Note Off ch=1 par1=71 par2=64
Channel Event. t= 14 (16777) Note Off ch=1 par1=75 par2=64
Channel Event. t= 5 (16782) Note Off ch=1 par1=83 par2=64
Channel Event. t= 5 (16787) Note Off ch=1 par1=78 par2=64
Channel Event. t= 129 (16916) Note On ch=1 par1=66 par2=51
Channel Event. t= 24 (16940) Note On ch=1 par1=71 par2=61
Channel Event. t= 12 (16952) Note On ch=1 par1=75 par2=70
Channel Event. t= 0 (16952) Note On ch=1 par1=78 par2=71
Channel Event. t= 9 (16961) Note Off ch=1 par1=66 par2=64
Channel Event. t= 14 (16975) Note Off ch=1 par1=78 par2=64
Channel Event. t= 2 (16977) Note Off ch=1 par1=71 par2=64
Channel Event. t= 3 (16980) Note Off ch=1 par1=75 par2=64
Channel Event. t= 284 (17264) Note On ch=1 par1=64 par2=70
Channel Event. t= 24 (17288) Note On ch=1 par1=67 par2=68
Channel Event. t= 24 (17312) Note On ch=1 par1=72 par2=76
Channel Event. t= 7 (17319) Note Off ch=1 par1=64 par2=64
Channel Event. t= 17 (17336) Note On ch=1 par1=76 par2=67
Channel Event. t= 6 (17342) Note Off ch=1 par1=67 par2=64
Channel Event. t= 18 (17360) Note Off ch=1 par1=72 par2=64
Channel Event. t= 15 (17375) Note Off ch=1 par1=76 par2=64
Channel Event. t= 705 (18080) Note On ch=1 par1=67 par2=45
Channel Event. t= 12 (18092) Note On ch=1 par1=72 par2=72
Channel Event. t= 12 (18104) Note On ch=1 par1=76 par2=61
Channel Event. t= 11 (18115) Note Off ch=1 par1=67 par2=64
Channel Event. t= 4 (18119) Note On ch=1 par1=79 par2=76
Channel Event. t= 6 (18125) Note Off ch=1 par1=72 par2=64
Channel Event. t= 4 (18129) Note Off ch=1 par1=76 par2=64
Channel Event. t= 14 (18143) Note Off ch=1 par1=79 par2=64
Channel Event. t= 13005 (31148) Note On ch=1 par1=67 par2=58
Channel Event. t= 12 (31160) Note On ch=1 par1=72 par2=58
Channel Event. t= 12 (31172) Note On ch=1 par1=76 par2=69
Channel Event. t= 12 (31184) Note On ch=1 par1=79 par2=74
Channel Event. t= 32 (31216) Note Off ch=1 par1=72 par2=64
Channel Event. t= 5 (31221) Note Off ch=1 par1=67 par2=64
Channel Event. t= 8 (31229) Note Off ch=1 par1=76 par2=64
Channel Event. t= 12 (31241) Note Off ch=1 par1=79 par2=64
Channel Event. t= 279 (31520) Note On ch=1 par1=67 par2=55
Channel Event. t= 24 (31544) Note On ch=1 par1=71 par2=70
Channel Event. t= 12 (31556) Note On ch=1 par1=75 par2=68
Channel Event. t= 12 (31568) Note On ch=1 par1=79 par2=69
Channel Event. t= 7 (31575) Note Off ch=1 par1=67 par2=64
Channel Event. t= 14 (31589) Note Off ch=1 par1=71 par2=64
Channel Event. t= 5 (31594) Note Off ch=1 par1=75 par2=64
Channel Event. t= 7 (31601) Note Off ch=1 par1=79 par2=64
Channel Event. t= 303 (31904) Note On ch=1 par1=67 par2=41
Channel Event. t= 12 (31916) Note On ch=1 par1=72 par2=66
Channel Event. t= 12 (31928) Note On ch=1 par1=79 par2=77
Channel Event. t= 0 (31928) Note On ch=1 par1=76 par2=69
Channel Event. t= 7 (31935) Note Off ch=1 par1=72 par2=64
Channel Event. t= 1 (31936) Note Off ch=1 par1=67 par2=64
Channel Event. t= 6 (31942) Note Off ch=1 par1=76 par2=64
Channel Event. t= 3 (31945) Note Off ch=1 par1=79 par2=64
Channel Event. t= 355 (32300) Note On ch=1 par1=67 par2=50
Channel Event. t= 12 (32312) Note On ch=1 par1=71 par2=69
Channel Event. t= 12 (32324) Note On ch=1 par1=75 par2=76
Channel Event. t= 12 (32336) Note On ch=1 par1=79 par2=63
Channel Event. t= 3 (32339) Note Off ch=1 par1=67 par2=64
Channel Event. t= 14 (32353) Note Off ch=1 par1=71 par2=64
Channel Event. t= 17 (32370) Note Off ch=1 par1=75 par2=64
Channel Event. t= 4 (32374) Note Off ch=1 par1=79 par2=64
Channel Event. t= 298 (32672) Note On ch=1 par1=67 par2=58
Channel Event. t= 24 (32696) Note On ch=1 par1=72 par2=68
Channel Event. t= 12 (32708) Note On ch=1 par1=76 par2=68
Channel Event. t= 7 (32715) Note Off ch=1 par1=67 par2=64
Channel Event. t= 5 (32720) Note On ch=1 par1=79 par2=66
Channel Event. t= 24 (32744) Note Off ch=1 par1=72 par2=64
Channel Event. t= 8 (32752) Note Off ch=1 par1=76 par2=64
Channel Event. t= 11 (32763) Note Off ch=1 par1=79 par2=64
Channel Event. t= 293 (33056) Note On ch=1 par1=67 par2=56
Channel Event. t= 12 (33068) Note On ch=1 par1=71 par2=69
Channel Event. t= 12 (33080) Note On ch=1 par1=75 par2=72
Channel Event. t= 20 (33100) Note Off ch=1 par1=67 par2=64
Channel Event. t= 4 (33104) Note On ch=1 par1=79 par2=64
Channel Event. t= 11 (33115) Note Off ch=1 par1=71 par2=64
Channel Event. t= 15 (33130) Note Off ch=1 par1=75 par2=64
Channel Event. t= 13 (33143) Note Off ch=1 par1=79 par2=64
Channel Event. t= 285 (33428) Note On ch=1 par1=67 par2=52
Channel Event. t= 12 (33440) Note On ch=1 par1=72 par2=66
Channel Event. t= 12 (33452) Note On ch=1 par1=76 par2=53
Channel Event. t= 12 (33464) Note On ch=1 par1=79 par2=64
Channel Event. t= 6 (33470) Note Off ch=1 par1=67 par2=64
Channel Event. t= 11 (33481) Note Off ch=1 par1=72 par2=64
Channel Event. t= 2 (33483) Note Off ch=1 par1=76 par2=64
Channel Event. t= 12 (33495) Note Off ch=1 par1=79 par2=64
Channel Event. t= 329 (33824) Note On ch=1 par1=71 par2=75
Channel Event. t= 0 (33824) Note On ch=1 par1=67 par2=55
Channel Event. t= 12 (33836) Note On ch=1 par1=75 par2=83
Channel Event. t= 12 (33848) Note On ch=1 par1=79 par2=63
Channel Event. t= 12 (33860) Note Off ch=1 par1=67 par2=64
Channel Event. t= 3 (33863) Note Off ch=1 par1=71 par2=64
Channel Event. t= 15 (33878) Note Off ch=1 par1=75 par2=64
Channel Event. t= 15 (33893) Note Off ch=1 par1=79 par2=64
Channel Event. t= 315 (34208) Note On ch=1 par1=79 par2=53
Channel Event. t= 12 (34220) Note On ch=1 par1=84 par2=68
Channel Event. t= 12 (34232) Note On ch=1 par1=88 par2=54
Channel Event. t= 12 (34244) Note On ch=1 par1=91 par2=65
Channel Event. t= 4 (34248) Note Off ch=1 par1=79 par2=64
Channel Event. t= 11 (34259) Note Off ch=1 par1=84 par2=64
Channel Event. t= 7 (34266) Note Off ch=1 par1=88 par2=64
Channel Event. t= 10 (34276) Note Off ch=1 par1=91 par2=64
Channel Event. t= 316 (34592) Note On ch=1 par1=79 par2=61
Channel Event. t= 24 (34616) Note On ch=1 par1=87 par2=85
Channel Event. t= 0 (34616) Note On ch=1 par1=83 par2=63
Channel Event. t= 15 (34631) Note Off ch=1 par1=79 par2=64
Channel Event. t= 16 (34647) Note Off ch=1 par1=87 par2=64
Channel Event. t= 2 (34649) Note Off ch=1 par1=83 par2=64
Channel Event. t= 315 (34964) Note On ch=1 par1=79 par2=52
Channel Event. t= 12 (34976) Note On ch=1 par1=84 par2=73
Channel Event. t= 24 (35000) Note On ch=1 par1=88 par2=63
Channel Event. t= 5 (35005) Note Off ch=1 par1=79 par2=64
Channel Event. t= 12 (35017) Note Off ch=1 par1=84 par2=64
Channel Event. t= 10 (35027) Note Off ch=1 par1=88 par2=64
Channel Event. t= 333 (35360) Note On ch=1 par1=79 par2=69
Channel Event. t= 12 (35372) Note On ch=1 par1=83 par2=74
Channel Event. t= 12 (35384) Note On ch=1 par1=87 par2=80
Channel Event. t= 12 (35396) Note Off ch=1 par1=79 par2=64
Channel Event. t= 8 (35404) Note Off ch=1 par1=83 par2=64
Channel Event. t= 9 (35413) Note Off ch=1 par1=87 par2=64
Channel Event. t= 319 (35732) Note On ch=1 par1=79 par2=60
Channel Event. t= 12 (35744) Note On ch=1 par1=84 par2=71
Channel Event. t= 24 (35768) Note On ch=1 par1=88 par2=68
Channel Event. t= 3 (35771) Note Off ch=1 par1=79 par2=64
Channel Event. t= 11 (35782) Note Off ch=1 par1=84 par2=64
Channel Event. t= 11 (35793) Note Off ch=1 par1=88 par2=64
Channel Event. t= 335 (36128) Note On ch=1 par1=79 par2=63
Channel Event. t= 12 (36140) Note On ch=1 par1=83 par2=73
Channel Event. t= 12 (36152) Note On ch=1 par1=87 par2=80
Channel Event. t= 11 (36163) Note Off ch=1 par1=79 par2=64
Channel Event. t= 13 (36176) Note Off ch=1 par1=83 par2=64
Channel Event. t= 6 (36182) Note Off ch=1 par1=87 par2=64
Channel Event. t= 330 (36512) Note On ch=1 par1=79 par2=57
Channel Event. t= 12 (36524) Note On ch=1 par1=84 par2=70
Channel Event. t= 12 (36536) Note On ch=1 par1=88 par2=68
Channel Event. t= 17 (36553) Note Off ch=1 par1=79 par2=64
Channel Event. t= 10 (36563) Note Off ch=1 par1=84 par2=64
Channel Event. t= 5 (36568) Note Off ch=1 par1=88 par2=64
Channel Event. t= 328 (36896) Note On ch=1 par1=79 par2=54
Channel Event. t= 12 (36908) Note On ch=1 par1=83 par2=64
Channel Event. t= 12 (36920) Note On ch=1 par1=87 par2=73
Channel Event. t= 14 (36934) Note Off ch=1 par1=79 par2=64
Channel Event. t= 8 (36942) Note Off ch=1 par1=83 par2=64
Channel Event. t= 6 (36948) Note Off ch=1 par1=87 par2=64
Channel Event. t= 332 (37280) Note On ch=1 par1=79 par2=55
Channel Event. t= 12 (37292) Note On ch=1 par1=84 par2=75
Channel Event. t= 12 (37304) Note On ch=1 par1=88 par2=60
Channel Event. t= 17 (37321) Note Off ch=1 par1=79 par2=64
Channel Event. t= 9 (37330) Note Off ch=1 par1=88 par2=64
Channel Event. t= 3 (37333) Note Off ch=1 par1=84 par2=64
Channel Event. t= 319 (37652) Note On ch=1 par1=79 par2=58
Channel Event. t= 12 (37664) Note On ch=1 par1=83 par2=63
Channel Event. t= 12 (37676) Note On ch=1 par1=87 par2=73
Channel Event. t= 13 (37689) Note Off ch=1 par1=79 par2=64
Channel Event. t= 9 (37698) Note Off ch=1 par1=83 par2=64
Channel Event. t= 4 (37702) Note Off ch=1 par1=87 par2=64
Channel Event. t= 178 (37880) Note On ch=1 par1=79 par2=79
Channel Event. t= 100 (37980) Note Off ch=1 par1=79 par2=64
Channel Event. t= 56 (38036) Note On ch=1 par1=79 par2=60
Channel Event. t= 12 (38048) Note On ch=1 par1=84 par2=72
Channel Event. t= 12 (38060) Note On ch=1 par1=88 par2=65
Channel Event. t= 17 (38077) Note Off ch=1 par1=79 par2=64
Channel Event. t= 15 (38092) Note Off ch=1 par1=84 par2=64
Channel Event. t= 4 (38096) Note Off ch=1 par1=88 par2=64
Channel Event. t= 168 (38264) Note On ch=1 par1=75 par2=80
Channel Event. t= 156 (38420) Note On ch=1 par1=79 par2=55
Channel Event. t= 12 (38432) Note On ch=1 par1=83 par2=69
Channel Event. t= 12 (38444) Note On ch=1 par1=87 par2=75
Channel Event. t= 5 (38449) Note Off ch=1 par1=75 par2=64
Channel Event. t= 11 (38460) Note Off ch=1 par1=79 par2=64
Channel Event. t= 13 (38473) Note Off ch=1 par1=83 par2=64
Channel Event. t= 9 (38482) Note Off ch=1 par1=87 par2=64
Channel Event. t= 166 (38648) Note On ch=1 par1=76 par2=79
Channel Event. t= 156 (38804) Note On ch=1 par1=79 par2=57
Channel Event. t= 24 (38828) Note On ch=1 par1=84 par2=74
Channel Event. t= 12 (38840) Note On ch=1 par1=88 par2=69
Channel Event. t= 2 (38842) Note Off ch=1 par1=79 par2=64
Channel Event. t= 21 (38863) Note Off ch=1 par1=84 par2=64
Channel Event. t= 2 (38865) Note Off ch=1 par1=88 par2=64
Channel Event. t= 7 (38872) Note Off ch=1 par1=76 par2=64
Channel Event. t= 160 (39032) Note On ch=1 par1=75 par2=78
Channel Event. t= 156 (39188) Note On ch=1 par1=79 par2=61
Channel Event. t= 24 (39212) Note On ch=1 par1=87 par2=73
Channel Event. t= 0 (39212) Note On ch=1 par1=83 par2=70
Channel Event. t= 17 (39229) Note Off ch=1 par1=79 par2=64
Channel Event. t= 4 (39233) Note Off ch=1 par1=75 par2=64
Channel Event. t= 19 (39252) Note Off ch=1 par1=87 par2=64
Channel Event. t= 2 (39254) Note Off ch=1 par1=83 par2=64
Channel Event. t= 162 (39416) Note On ch=1 par1=76 par2=74
Channel Event. t= 156 (39572) Note On ch=1 par1=79 par2=50
Channel Event. t= 12 (39584) Note On ch=1 par1=84 par2=79
Channel Event. t= 12 (39596) Note On ch=1 par1=88 par2=71
Channel Event. t= 18 (39614) Note Off ch=1 par1=79 par2=64
Channel Event. t= 10 (39624) Note Off ch=1 par1=76 par2=64
Channel Event. t= 6 (39630) Note Off ch=1 par1=84 par2=64
Channel Event. t= 3 (39633) Note Off ch=1 par1=88 par2=64
Channel Event. t= 167 (39800) Note On ch=1 par1=75 par2=82
Channel Event. t= 168 (39968) Note On ch=1 par1=79 par2=69
Channel Event. t= 12 (39980) Note On ch=1 par1=87 par2=74
Channel Event. t= 0 (39980) Note On ch=1 par1=83 par2=77
Channel Event. t= 27 (40007) Note Off ch=1 par1=79 par2=64
Channel Event. t= 9 (40016) Note Off ch=1 par1=87 par2=64
Channel Event. t= 2 (40018) Note Off ch=1 par1=83 par2=64
Channel Event. t= 20 (40038) Note Off ch=1 par1=75 par2=64
Channel Event. t= 146 (40184) Note On ch=1 par1=76 par2=77
Channel Event. t= 168 (40352) Note On ch=1 par1=79 par2=54
Channel Event. t= 12 (40364) Note On ch=1 par1=84 par2=73
Channel Event. t= 12 (40376) Note On ch=1 par1=88 par2=69
Channel Event. t= 14 (40390) Note Off ch=1 par1=79 par2=64
Channel Event. t= 7 (40397) Note Off ch=1 par1=84 par2=64
Channel Event. t= 0 (40397) Note Off ch=1 par1=88 par2=64
Channel Event. t= 2 (40399) Note Off ch=1 par1=76 par2=64
Channel Event. t= 169 (40568) Note On ch=1 par1=75 par2=87
Channel Event. t= 168 (40736) Note On ch=1 par1=79 par2=51
Channel Event. t= 12 (40748) Note On ch=1 par1=83 par2=78
Channel Event. t= 12 (40760) Note On ch=1 par1=87 par2=76
Channel Event. t= 17 (40777) Note Off ch=1 par1=79 par2=64
Channel Event. t= 1 (40778) Note Off ch=1 par1=83 par2=64
Channel Event. t= 11 (40789) Note Off ch=1 par1=87 par2=64
Channel Event. t= 9 (40798) Note Off ch=1 par1=75 par2=64
Channel Event. t= 6874 (47672) Note On ch=1 par1=83 par2=87
Channel Event. t= 192 (47864) Note On ch=1 par1=84 par2=77
Channel Event. t= 22 (47886) Note Off ch=1 par1=83 par2=64
Channel Event. t= 87 (47973) Note Off ch=1 par1=84 par2=64
Channel Event. t= 83 (48056) Note On ch=1 par1=86 par2=74
Channel Event. t= 50 (48106) Note Off ch=1 par1=86 par2=64
Channel Event. t= 142 (48248) Note On ch=1 par1=87 par2=108
Channel Event. t= 150 (48398) Note Off ch=1 par1=87 par2=64
Channel Event. t= 42 (48440) Note On ch=1 par1=83 par2=77
Channel Event. t= 192 (48632) Note On ch=1 par1=84 par2=86
Channel Event. t= 30 (48662) Note Off ch=1 par1=83 par2=64
Channel Event. t= 48 (48710) Note Off ch=1 par1=84 par2=64
Channel Event. t= 114 (48824) Note On ch=1 par1=86 par2=80
Channel Event. t= 57 (48881) Note Off ch=1 par1=86 par2=64
Channel Event. t= 135 (49016) Note On ch=1 par1=87 par2=101
Channel Event. t= 142 (49158) Note Off ch=1 par1=87 par2=64
Channel Event. t= 50 (49208) Note On ch=1 par1=83 par2=80
Channel Event. t= 170 (49378) Note Off ch=1 par1=83 par2=64
Channel Event. t= 22 (49400) Note On ch=1 par1=84 par2=103
Channel Event. t= 96 (49496) Note On ch=1 par1=87 par2=82
Channel Event. t= 1 (49497) Note Off ch=1 par1=84 par2=64
Channel Event. t= 88 (49585) Note Off ch=1 par1=87 par2=64
Channel Event. t= 7 (49592) Note On ch=1 par1=88 par2=87
Channel Event. t= 96 (49688) Note On ch=1 par1=91 par2=71
Channel Event. t= 12 (49700) Note Off ch=1 par1=88 par2=64
Channel Event. t= 84 (49784) Note Off ch=1 par1=91 par2=64
Channel Event. t= 0 (49784) Note On ch=1 par1=95 par2=94
Channel Event. t= 176 (49960) Note Off ch=1 par1=95 par2=64
Channel Event. t= 16 (49976) Note On ch=1 par1=94 par2=93
Channel Event. t= 96 (50072) Note On ch=1 par1=95 par2=80
Channel Event. t= 3 (50075) Note Off ch=1 par1=94 par2=64
Channel Event. t= 87 (50162) Note Off ch=1 par1=95 par2=64
Channel Event. t= 6 (50168) Note On ch=1 par1=96 par2=97
Channel Event. t= 69 (50237) Note Off ch=1 par1=96 par2=64
Channel Event. t= 27 (50264) Note On ch=1 par1=97 par2=54
Channel Event. t= 21 (50285) Note Off ch=1 par1=97 par2=64
Channel Event. t= 75 (50360) Note On ch=1 par1=100 par2=98
Channel Event. t= 62 (50422) Note Off ch=1 par1=100 par2=64
Channel Event. t= 130 (50552) Note On ch=1 par1=99 par2=100
Channel Event. t= 304 (50856) Note Off ch=1 par1=99 par2=64
Channel Event. t= 80 (50936) Note On ch=1 par1=96 par2=94
Channel Event. t= 109 (51045) Note Off ch=1 par1=96 par2=64
Channel Event. t= 83 (51128) Note On ch=1 par1=100 par2=82
Channel Event. t= 120 (51248) Note Off ch=1 par1=100 par2=64
Channel Event. t= 72 (51320) Note On ch=1 par1=99 par2=94
Channel Event. t= 68 (51388) Note Off ch=1 par1=99 par2=64
Channel Event. t= 28 (51416) Note On ch=1 par1=100 par2=84
Channel Event. t= 0 (51416) Note On ch=1 par1=99 par2=85
Channel Event. t= 43 (51459) Note Off ch=1 par1=100 par2=64
Channel Event. t= 50 (51509) Note Off ch=1 par1=99 par2=64
Channel Event. t= 3 (51512) Note On ch=1 par1=95 par2=87
Channel Event. t= 89 (51601) Note Off ch=1 par1=95 par2=64
Channel Event. t= 7 (51608) Note On ch=1 par1=90 par2=85
Channel Event. t= 88 (51696) Note Off ch=1 par1=90 par2=64
Channel Event. t= 8 (51704) Note On ch=1 par1=91 par2=93
Channel Event. t= 87 (51791) Note Off ch=1 par1=91 par2=64
Channel Event. t= 105 (51896) Note On ch=1 par1=96 par2=95
Channel Event. t= 114 (52010) Note Off ch=1 par1=96 par2=64
Channel Event. t= 78 (52088) Note On ch=1 par1=95 par2=94
Channel Event. t= 80 (52168) Note Off ch=1 par1=95 par2=64
Channel Event. t= 16 (52184) Note On ch=1 par1=96 par2=89
Channel Event. t= 0 (52184) Note On ch=1 par1=95 par2=74
Channel Event. t= 77 (52261) Note Off ch=1 par1=96 par2=64
Channel Event. t= 19 (52280) Note On ch=1 par1=90 par2=69
Channel Event. t= 12 (52292) Note Off ch=1 par1=95 par2=64
Channel Event. t= 80 (52372) Note Off ch=1 par1=90 par2=64
Channel Event. t= 4 (52376) Note On ch=1 par1=87 par2=85
Channel Event. t= 96 (52472) Note On ch=1 par1=88 par2=90
Channel Event. t= 72 (52544) Note Off ch=1 par1=87 par2=64
Channel Event. t= 20 (52564) Note Off ch=1 par1=88 par2=64
Channel Event. t= 100 (52664) Note On ch=1 par1=91 par2=85
Channel Event. t= 67 (52731) Note Off ch=1 par1=91 par2=64
Channel Event. t= 125 (52856) Note On ch=1 par1=90 par2=104
Channel Event. t= 176 (53032) Note Off ch=1 par1=90 par2=64
Channel Event. t= 16 (53048) Note On ch=1 par1=86 par2=78
Channel Event. t= 92 (53140) Note Off ch=1 par1=86 par2=64
Channel Event. t= 4 (53144) Note On ch=1 par1=87 par2=70
Channel Event. t= 96 (53240) Note On ch=1 par1=88 par2=70
Channel Event. t= 1 (53241) Note Off ch=1 par1=87 par2=64
Channel Event. t= 79 (53320) Note Off ch=1 par1=88 par2=64
Channel Event. t= 112 (53432) Note On ch=1 par1=91 par2=66
Channel Event. t= 69 (53501) Note Off ch=1 par1=91 par2=64
Channel Event. t= 123 (53624) Note On ch=1 par1=90 par2=101
Channel Event. t= 174 (53798) Note Off ch=1 par1=90 par2=64
Channel Event. t= 18 (53816) Note On ch=1 par1=86 par2=92
Channel Event. t= 96 (53912) Note On ch=1 par1=87 par2=80
Channel Event. t= 7 (53919) Note Off ch=1 par1=86 par2=64
Channel Event. t= 89 (54008) Note On ch=1 par1=88 par2=82
Channel Event. t= 7 (54015) Note Off ch=1 par1=87 par2=64
Channel Event. t= 77 (54092) Note Off ch=1 par1=88 par2=64
Channel Event. t= 108 (54200) Note On ch=1 par1=91 par2=86
Channel Event. t= 89 (54289) Note Off ch=1 par1=91 par2=64
Channel Event. t= 103 (54392) Note On ch=1 par1=90 par2=92
Channel Event. t= 287 (54679) Note Off ch=1 par1=90 par2=64
Channel Event. t= 97 (54776) Note On ch=1 par1=83 par2=87
Channel Event. t= 384 (55160) Note Off ch=1 par1=83 par2=64
Channel Event. t= 0 (55160) Note On ch=1 par1=95 par2=79
Channel Event. t= 920 (56080) Note Off ch=1 par1=95 par2=64
Channel Event. t= 40 (56120) Note On ch=1 par1=95 par2=55
Channel Event. t= 192 (56312) Note On ch=1 par1=96 par2=50
Channel Event. t= 12 (56324) Note Off ch=1 par1=95 par2=64
Channel Event. t= 756 (57080) Note Off ch=1 par1=96 par2=64
Channel Event. t= 23808 (80888) Controller ch=1 par1=10 (Pan) par2=1
Channel Event. t= 0 (80888) Note On ch=1 par1=73 par2=87
Channel Event. t= 24 (80912) Controller ch=1 par1=10 (Pan) par2=2
Channel Event. t= 8 (80920) Note On ch=1 par1=77 par2=54
Channel Event. t= 12 (80932) Note Off ch=1 par1=73 par2=64
Channel Event. t= 4 (80936) Controller ch=1 par1=10 (Pan) par2=4
Channel Event. t= 16 (80952) Note On ch=1 par1=80 par2=68
Channel Event. t= 8 (80960) Controller ch=1 par1=10 (Pan) par2=6
Channel Event. t= 2 (80962) Note Off ch=1 par1=77 par2=64
Channel Event. t= 22 (80984) Controller ch=1 par1=10 (Pan) par2=8
Channel Event. t= 0 (80984) Note On ch=1 par1=85 par2=56
Channel Event. t= 8 (80992) Note Off ch=1 par1=80 par2=64
Channel Event. t= 16 (81008) Controller ch=1 par1=10 (Pan) par2=10
Channel Event. t= 8 (81016) Note Off ch=1 par1=85 par2=64
Channel Event. t= 16 (81032) Controller ch=1 par1=10 (Pan) par2=12
Channel Event. t= 24 (81056) Controller ch=1 par1=10 (Pan) par2=14
Channel Event. t= 24 (81080) Controller ch=1 par1=10 (Pan) par2=15
Channel Event. t= 0 (81080) Note On ch=1 par1=75 par2=77
Channel Event. t= 23 (81103) Note Off ch=1 par1=75 par2=64
Channel Event. t= 1 (81104) Controller ch=1 par1=10 (Pan) par2=17
Channel Event. t= 24 (81128) Controller ch=1 par1=10 (Pan) par2=19
Channel Event. t= 24 (81152) Controller ch=1 par1=10 (Pan) par2=21
Channel Event. t= 24 (81176) Controller ch=1 par1=10 (Pan) par2=23
Channel Event. t= 0 (81176) Note On ch=1 par1=87 par2=66
Channel Event. t= 14 (81190) Note Off ch=1 par1=87 par2=64
Channel Event. t= 10 (81200) Controller ch=1 par1=10 (Pan) par2=25
Channel Event. t= 24 (81224) Controller ch=1 par1=10 (Pan) par2=27
Channel Event. t= 24 (81248) Controller ch=1 par1=10 (Pan) par2=28
Channel Event. t= 24 (81272) Controller ch=1 par1=10 (Pan) par2=30
Channel Event. t= 0 (81272) Note On ch=1 par1=76 par2=97
Channel Event. t= 24 (81296) Controller ch=1 par1=10 (Pan) par2=32
Channel Event. t= 7 (81303) Note Off ch=1 par1=76 par2=64
Channel Event. t= 1 (81304) Note On ch=1 par1=79 par2=51
Channel Event. t= 16 (81320) Controller ch=1 par1=10 (Pan) par2=34
Channel Event. t= 16 (81336) Note On ch=1 par1=84 par2=53
Channel Event. t= 6 (81342) Note Off ch=1 par1=79 par2=64
Channel Event. t= 2 (81344) Controller ch=1 par1=10 (Pan) par2=36
Channel Event. t= 10 (81354) Note Off ch=1 par1=84 par2=64
Channel Event. t= 14 (81368) Controller ch=1 par1=10 (Pan) par2=38
Channel Event. t= 0 (81368) Note On ch=1 par1=88 par2=71
Channel Event. t= 24 (81392) Controller ch=1 par1=10 (Pan) par2=40
Channel Event. t= 13 (81405) Note Off ch=1 par1=88 par2=64
Channel Event. t= 11 (81416) Controller ch=1 par1=10 (Pan) par2=41
Channel Event. t= 24 (81440) Controller ch=1 par1=10 (Pan) par2=43
Channel Event. t= 24 (81464) Controller ch=1 par1=10 (Pan) par2=45
Channel Event. t= 0 (81464) Note On ch=1 par1=72 par2=81
Channel Event. t= 24 (81488) Controller ch=1 par1=10 (Pan) par2=47
Channel Event. t= 2 (81490) Note Off ch=1 par1=72 par2=64
Channel Event. t= 22 (81512) Controller ch=1 par1=10 (Pan) par2=49
Channel Event. t= 24 (81536) Controller ch=1 par1=10 (Pan) par2=51
Channel Event. t= 24 (81560) Controller ch=1 par1=10 (Pan) par2=53
Channel Event. t= 0 (81560) Note On ch=1 par1=84 par2=87
Channel Event. t= 24 (81584) Controller ch=1 par1=10 (Pan) par2=54
Channel Event. t= 2 (81586) Note Off ch=1 par1=84 par2=64
Channel Event. t= 22 (81608) Controller ch=1 par1=10 (Pan) par2=56
Channel Event. t= 24 (81632) Controller ch=1 par1=10 (Pan) par2=58
Channel Event. t= 24 (81656) Controller ch=1 par1=10 (Pan) par2=60
Channel Event. t= 0 (81656) Note On ch=1 par1=73 par2=102
Channel Event. t= 24 (81680) Controller ch=1 par1=10 (Pan) par2=62
Channel Event. t= 7 (81687) Note Off ch=1 par1=73 par2=64
Channel Event. t= 1 (81688) Note On ch=1 par1=77 par2=71
Channel Event. t= 16 (81704) Controller ch=1 par1=10 (Pan) par2=64
Channel Event. t= 16 (81720) Note On ch=1 par1=80 par2=74
Channel Event. t= 5 (81725) Note Off ch=1 par1=77 par2=64
Channel Event. t= 3 (81728) Controller ch=1 par1=10 (Pan) par2=66
Channel Event. t= 23 (81751) Note Off ch=1 par1=80 par2=64
Channel Event. t= 1 (81752) Controller ch=1 par1=10 (Pan) par2=67
Channel Event. t= 0 (81752) Note On ch=1 par1=85 par2=78
Channel Event. t= 24 (81776) Controller ch=1 par1=10 (Pan) par2=69
Channel Event. t= 6 (81782) Note Off ch=1 par1=85 par2=64
Channel Event. t= 18 (81800) Controller ch=1 par1=10 (Pan) par2=71
Channel Event. t= 24 (81824) Controller ch=1 par1=10 (Pan) par2=73
Channel Event. t= 24 (81848) Controller ch=1 par1=10 (Pan) par2=75
Channel Event. t= 0 (81848) Note On ch=1 par1=77 par2=89
Channel Event. t= 24 (81872) Controller ch=1 par1=10 (Pan) par2=77
Channel Event. t= 12 (81884) Note Off ch=1 par1=77 par2=64
Channel Event. t= 12 (81896) Controller ch=1 par1=10 (Pan) par2=79
Channel Event. t= 24 (81920) Controller ch=1 par1=10 (Pan) par2=81
Channel Event. t= 24 (81944) Controller ch=1 par1=10 (Pan) par2=82
Channel Event. t= 0 (81944) Note On ch=1 par1=80 par2=91
Channel Event. t= 21 (81965) Note Off ch=1 par1=80 par2=64
Channel Event. t= 3 (81968) Controller ch=1 par1=10 (Pan) par2=84
Channel Event. t= 24 (81992) Controller ch=1 par1=10 (Pan) par2=86
Channel Event. t= 24 (82016) Controller ch=1 par1=10 (Pan) par2=88
Channel Event. t= 24 (82040) Controller ch=1 par1=10 (Pan) par2=90
Channel Event. t= 0 (82040) Note On ch=1 par1=84 par2=74
Channel Event. t= 24 (82064) Controller ch=1 par1=10 (Pan) par2=92
Channel Event. t= 8 (82072) Note On ch=1 par1=79 par2=67
Channel Event. t= 9 (82081) Note Off ch=1 par1=84 par2=64
Channel Event. t= 7 (82088) Controller ch=1 par1=10 (Pan) par2=94
Channel Event. t= 16 (82104) Note On ch=1 par1=76 par2=74
Channel Event. t= 6 (82110) Note Off ch=1 par1=79 par2=64
Channel Event. t= 2 (82112) Controller ch=1 par1=10 (Pan) par2=95
Channel Event. t= 24 (82136) Note Off ch=1 par1=76 par2=64
Channel Event. t= 0 (82136) Controller ch=1 par1=10 (Pan) par2=97
Channel Event. t= 0 (82136) Note On ch=1 par1=72 par2=97
Channel Event. t= 24 (82160) Controller ch=1 par1=10 (Pan) par2=99
Channel Event. t= 2 (82162) Note Off ch=1 par1=72 par2=64
Channel Event. t= 22 (82184) Controller ch=1 par1=10 (Pan) par2=101
Channel Event. t= 24 (82208) Controller ch=1 par1=10 (Pan) par2=103
Channel Event. t= 24 (82232) Controller ch=1 par1=10 (Pan) par2=105
Channel Event. t= 0 (82232) Note On ch=1 par1=83 par2=78
Channel Event. t= 24 (82256) Controller ch=1 par1=10 (Pan) par2=107
Channel Event. t= 3 (82259) Note Off ch=1 par1=83 par2=64
Channel Event. t= 21 (82280) Controller ch=1 par1=10 (Pan) par2=108
Channel Event. t= 24 (82304) Controller ch=1 par1=10 (Pan) par2=110
Channel Event. t= 24 (82328) Controller ch=1 par1=10 (Pan) par2=112
Channel Event. t= 0 (82328) Note On ch=1 par1=84 par2=74
Channel Event. t= 21 (82349) Note Off ch=1 par1=84 par2=64
Channel Event. t= 3 (82352) Controller ch=1 par1=10 (Pan) par2=114
Channel Event. t= 24 (82376) Controller ch=1 par1=10 (Pan) par2=116
Channel Event. t= 24 (82400) Controller ch=1 par1=10 (Pan) par2=118
Channel Event. t= 23 (82423) Controller ch=1 par1=10 (Pan) par2=120
Channel Event. t= 1 (82424) Controller ch=1 par1=10 (Pan) par2=119
Channel Event. t= 0 (82424) Note On ch=1 par1=85 par2=83
Channel Event. t= 24 (82448) Controller ch=1 par1=10 (Pan) par2=118
Channel Event. t= 8 (82456) Note On ch=1 par1=80 par2=87
Channel Event. t= 6 (82462) Note Off ch=1 par1=85 par2=64
Channel Event. t= 10 (82472) Controller ch=1 par1=10 (Pan) par2=116
Channel Event. t= 16 (82488) Note On ch=1 par1=77 par2=72
Channel Event. t= 8 (82496) Controller ch=1 par1=10 (Pan) par2=114
Channel Event. t= 1 (82497) Note Off ch=1 par1=80 par2=64
Channel Event. t= 23 (82520) Controller ch=1 par1=10 (Pan) par2=112
Channel Event. t= 0 (82520) Note On ch=1 par1=73 par2=91
Channel Event. t= 2 (82522) Note Off ch=1 par1=77 par2=64
Channel Event. t= 22 (82544) Controller ch=1 par1=10 (Pan) par2=110
Channel Event. t= 4 (82548) Note Off ch=1 par1=73 par2=64
Channel Event. t= 20 (82568) Controller ch=1 par1=10 (Pan) par2=108
Channel Event. t= 24 (82592) Controller ch=1 par1=10 (Pan) par2=106
Channel Event. t= 24 (82616) Controller ch=1 par1=10 (Pan) par2=105
Channel Event. t= 0 (82616) Note On ch=1 par1=89 par2=89
Channel Event. t= 24 (82640) Controller ch=1 par1=10 (Pan) par2=103
Channel Event. t= 4 (82644) Note Off ch=1 par1=89 par2=64
Channel Event. t= 20 (82664) Controller ch=1 par1=10 (Pan) par2=101
Channel Event. t= 24 (82688) Controller ch=1 par1=10 (Pan) par2=99
Channel Event. t= 24 (82712) Controller ch=1 par1=10 (Pan) par2=97
Channel Event. t= 0 (82712) Note On ch=1 par1=77 par2=86
Channel Event. t= 23 (82735) Note Off ch=1 par1=77 par2=64
Channel Event. t= 1 (82736) Controller ch=1 par1=10 (Pan) par2=95
Channel Event. t= 24 (82760) Controller ch=1 par1=10 (Pan) par2=93
Channel Event. t= 24 (82784) Controller ch=1 par1=10 (Pan) par2=92
Channel Event. t= 24 (82808) Controller ch=1 par1=10 (Pan) par2=90
Channel Event. t= 0 (82808) Note On ch=1 par1=88 par2=99
Channel Event. t= 24 (82832) Controller ch=1 par1=10 (Pan) par2=88
Channel Event. t= 24 (82856) Note Off ch=1 par1=88 par2=64
Channel Event. t= 0 (82856) Controller ch=1 par1=10 (Pan) par2=86
Channel Event. t= 0 (82856) Note On ch=1 par1=89 par2=64
Channel Event. t= 24 (82880) Controller ch=1 par1=10 (Pan) par2=84
Channel Event. t= 0 (82880) Note On ch=1 par1=88 par2=64
Channel Event. t= 8 (82888) Note Off ch=1 par1=89 par2=64
Channel Event. t= 16 (82904) Controller ch=1 par1=10 (Pan) par2=82
Channel Event. t= 0 (82904) Note On ch=1 par1=89 par2=64
Channel Event. t= 8 (82912) Note Off ch=1 par1=88 par2=64
Channel Event. t= 16 (82928) Controller ch=1 par1=10 (Pan) par2=80
Channel Event. t= 8 (82936) Note Off ch=1 par1=89 par2=64
Channel Event. t= 0 (82936) Note On ch=1 par1=88 par2=13
Channel Event. t= 16 (82952) Controller ch=1 par1=10 (Pan) par2=79
Channel Event. t= 0 (82952) Note On ch=1 par1=89 par2=64
Channel Event. t= 8 (82960) Note Off ch=1 par1=88 par2=64
Channel Event. t= 16 (82976) Controller ch=1 par1=10 (Pan) par2=77
Channel Event. t= 0 (82976) Note On ch=1 par1=88 par2=64
Channel Event. t= 8 (82984) Note Off ch=1 par1=89 par2=64
Channel Event. t= 16 (83000) Controller ch=1 par1=10 (Pan) par2=75
Channel Event. t= 0 (83000) Note On ch=1 par1=83 par2=89
Channel Event. t= 8 (83008) Note Off ch=1 par1=88 par2=64
Channel Event. t= 16 (83024) Controller ch=1 par1=10 (Pan) par2=73
Channel Event. t= 13 (83037) Note Off ch=1 par1=83 par2=64
Channel Event. t= 11 (83048) Controller ch=1 par1=10 (Pan) par2=71
Channel Event. t= 24 (83072) Controller ch=1 par1=10 (Pan) par2=69
Channel Event. t= 24 (83096) Controller ch=1 par1=10 (Pan) par2=67
Channel Event. t= 0 (83096) Note On ch=1 par1=84 par2=82
Channel Event. t= 16 (83112) Note Off ch=1 par1=84 par2=64
Channel Event. t= 8 (83120) Controller ch=1 par1=10 (Pan) par2=66
Channel Event. t= 24 (83144) Controller ch=1 par1=10 (Pan) par2=64
Channel Event. t= 24 (83168) Controller ch=1 par1=10 (Pan) par2=62
Channel Event. t= 24 (83192) Controller ch=1 par1=10 (Pan) par2=60
Channel Event. t= 0 (83192) Note On ch=1 par1=85 par2=78
Channel Event. t= 24 (83216) Controller ch=1 par1=10 (Pan) par2=58
Channel Event. t= 8 (83224) Note On ch=1 par1=80 par2=84
Channel Event. t= 7 (83231) Note Off ch=1 par1=85 par2=64
Channel Event. t= 9 (83240) Controller ch=1 par1=10 (Pan) par2=56
Channel Event. t= 16 (83256) Note On ch=1 par1=77 par2=66
Channel Event. t= 8 (83264) Note Off ch=1 par1=80 par2=64
Channel Event. t= 0 (83264) Controller ch=1 par1=10 (Pan) par2=54
Channel Event. t= 22 (83286) Note Off ch=1 par1=77 par2=64
Channel Event. t= 2 (83288) Controller ch=1 par1=10 (Pan) par2=53
Channel Event. t= 0 (83288) Note On ch=1 par1=73 par2=69
Channel Event. t= 24 (83312) Controller ch=1 par1=10 (Pan) par2=51
Channel Event. t= 13 (83325) Note Off ch=1 par1=73 par2=64
Channel Event. t= 11 (83336) Controller ch=1 par1=10 (Pan) par2=49
Channel Event. t= 24 (83360) Controller ch=1 par1=10 (Pan) par2=47
Channel Event. t= 24 (83384) Controller ch=1 par1=10 (Pan) par2=45
Channel Event. t= 0 (83384) Note On ch=1 par1=89 par2=86
Channel Event. t= 24 (83408) Controller ch=1 par1=10 (Pan) par2=43
Channel Event. t= 4 (83412) Note Off ch=1 par1=89 par2=64
Channel Event. t= 20 (83432) Controller ch=1 par1=10 (Pan) par2=41
Channel Event. t= 24 (83456) Controller ch=1 par1=10 (Pan) par2=39
Channel Event. t= 24 (83480) Controller ch=1 par1=10 (Pan) par2=38
Channel Event. t= 0 (83480) Note On ch=1 par1=77 par2=82
Channel Event. t= 24 (83504) Controller ch=1 par1=10 (Pan) par2=36
Channel Event. t= 3 (83507) Note Off ch=1 par1=77 par2=64
Channel Event. t= 21 (83528) Controller ch=1 par1=10 (Pan) par2=34
Channel Event. t= 24 (83552) Controller ch=1 par1=10 (Pan) par2=32
Channel Event. t= 24 (83576) Controller ch=1 par1=10 (Pan) par2=30
Channel Event. t= 0 (83576) Note On ch=1 par1=88 par2=93
Channel Event. t= 24 (83600) Controller ch=1 par1=10 (Pan) par2=28
Channel Event. t= 19 (83619) Note Off ch=1 par1=88 par2=64
Channel Event. t= 5 (83624) Controller ch=1 par1=10 (Pan) par2=26
Channel Event. t= 24 (83648) Controller ch=1 par1=10 (Pan) par2=25
Channel Event. t= 15 (83663) Note On ch=1 par1=89 par2=80
Channel Event. t= 9 (83672) Controller ch=1 par1=10 (Pan) par2=23
Channel Event. t= 0 (83672) Note On ch=1 par1=88 par2=81
Channel Event. t= 24 (83696) Controller ch=1 par1=10 (Pan) par2=21
Channel Event. t= 3 (83699) Note Off ch=1 par1=89 par2=64
Channel Event. t= 21 (83720) Controller ch=1 par1=10 (Pan) par2=19
Channel Event. t= 7 (83727) Note Off ch=1 par1=88 par2=64
Channel Event. t= 17 (83744) Controller ch=1 par1=10 (Pan) par2=17
Channel Event. t= 24 (83768) Controller ch=1 par1=10 (Pan) par2=15
Channel Event. t= 0 (83768) Note On ch=1 par1=84 par2=86
Channel Event. t= 24 (83792) Controller ch=1 par1=10 (Pan) par2=13
Channel Event. t= 16 (83808) Note Off ch=1 par1=84 par2=64
Channel Event. t= 8 (83816) Controller ch=1 par1=10 (Pan) par2=12
Channel Event. t= 24 (83840) Controller ch=1 par1=10 (Pan) par2=10
Channel Event. t= 24 (83864) Controller ch=1 par1=10 (Pan) par2=8
Channel Event. t= 0 (83864) Note On ch=1 par1=79 par2=79
Channel Event. t= 24 (83888) Controller ch=1 par1=10 (Pan) par2=6
Channel Event. t= 21 (83909) Note Off ch=1 par1=79 par2=64
Channel Event. t= 3 (83912) Controller ch=1 par1=10 (Pan) par2=4
Channel Event. t= 24 (83936) Controller ch=1 par1=10 (Pan) par2=2
Channel Event. t= 23 (83959) Controller ch=1 par1=10 (Pan) par2=1
Channel Event. t= 1 (83960) Controller ch=1 par1=10 (Pan) par2=1
Channel Event. t= 0 (83960) Note On ch=1 par1=80 par2=92
Channel Event. t= 24 (83984) Controller ch=1 par1=10 (Pan) par2=2
Channel Event. t= 8 (83992) Note Off ch=1 par1=80 par2=64
Channel Event. t= 0 (83992) Note On ch=1 par1=77 par2=80
Channel Event. t= 16 (84008) Controller ch=1 par1=10 (Pan) par2=3
Channel Event. t= 10 (84018) Note Off ch=1 par1=77 par2=64
Channel Event. t= 6 (84024) Note On ch=1 par1=73 par2=71
Channel Event. t= 8 (84032) Controller ch=1 par1=10 (Pan) par2=4
Channel Event. t= 22 (84054) Note Off ch=1 par1=73 par2=64
Channel Event. t= 2 (84056) Controller ch=1 par1=10 (Pan) par2=5
Channel Event. t= 0 (84056) Note On ch=1 par1=68 par2=84
Channel Event. t= 24 (84080) Controller ch=1 par1=10 (Pan) par2=7
Channel Event. t= 13 (84093) Note Off ch=1 par1=68 par2=64
Channel Event. t= 11 (84104) Controller ch=1 par1=10 (Pan) par2=8
Channel Event. t= 24 (84128) Controller ch=1 par1=10 (Pan) par2=9
Channel Event. t= 24 (84152) Controller ch=1 par1=10 (Pan) par2=10
Channel Event. t= 0 (84152) Note On ch=1 par1=85 par2=70
Channel Event. t= 24 (84176) Controller ch=1 par1=10 (Pan) par2=12
Channel Event. t= 13 (84189) Note Off ch=1 par1=85 par2=64
Channel Event. t= 11 (84200) Controller ch=1 par1=10 (Pan) par2=13
Channel Event. t= 24 (84224) Controller ch=1 par1=10 (Pan) par2=14
Channel Event. t= 24 (84248) Controller ch=1 par1=10 (Pan) par2=15
Channel Event. t= 0 (84248) Note On ch=1 par1=73 par2=97
Channel Event. t= 24 (84272) Controller ch=1 par1=10 (Pan) par2=17
Channel Event. t= 3 (84275) Note Off ch=1 par1=73 par2=64
Channel Event. t= 21 (84296) Controller ch=1 par1=10 (Pan) par2=18
Channel Event. t= 24 (84320) Controller ch=1 par1=10 (Pan) par2=19
Channel Event. t= 24 (84344) Controller ch=1 par1=10 (Pan) par2=20
Channel Event. t= 0 (84344) Note On ch=1 par1=84 par2=93
Channel Event. t= 24 (84368) Controller ch=1 par1=10 (Pan) par2=22
Channel Event. t= 10 (84378) Note Off ch=1 par1=84 par2=64
Channel Event. t= 14 (84392) Controller ch=1 par1=10 (Pan) par2=23
Channel Event. t= 24 (84416) Controller ch=1 par1=10 (Pan) par2=24
Channel Event. t= 23 (84439) Note On ch=1 par1=85 par2=78
Channel Event. t= 1 (84440) Controller ch=1 par1=10 (Pan) par2=25
Channel Event. t= 0 (84440) Note On ch=1 par1=84 par2=92
Channel Event. t= 24 (84464) Controller ch=1 par1=10 (Pan) par2=27
Channel Event. t= 1 (84465) Note Off ch=1 par1=85 par2=64
Channel Event. t= 14 (84479) Note Off ch=1 par1=84 par2=64
Channel Event. t= 9 (84488) Controller ch=1 par1=10 (Pan) par2=28
Channel Event. t= 24 (84512) Controller ch=1 par1=10 (Pan) par2=29
Channel Event. t= 24 (84536) Controller ch=1 par1=10 (Pan) par2=30
Channel Event. t= 0 (84536) Note On ch=1 par1=79 par2=85
Channel Event. t= 24 (84560) Controller ch=1 par1=10 (Pan) par2=32
Channel Event. t= 20 (84580) Note Off ch=1 par1=79 par2=64
Channel Event. t= 4 (84584) Controller ch=1 par1=10 (Pan) par2=33
Channel Event. t= 24 (84608) Controller ch=1 par1=10 (Pan) par2=34
Channel Event. t= 24 (84632) Controller ch=1 par1=10 (Pan) par2=35
Channel Event. t= 0 (84632) Note On ch=1 par1=76 par2=85
Channel Event. t= 24 (84656) Controller ch=1 par1=10 (Pan) par2=36
Channel Event. t= 21 (84677) Note Off ch=1 par1=76 par2=64
Channel Event. t= 3 (84680) Controller ch=1 par1=10 (Pan) par2=38
Channel Event. t= 24 (84704) Controller ch=1 par1=10 (Pan) par2=39
Channel Event. t= 24 (84728) Controller ch=1 par1=10 (Pan) par2=40
Channel Event. t= 0 (84728) Note On ch=1 par1=77 par2=82
Channel Event. t= 24 (84752) Controller ch=1 par1=10 (Pan) par2=41
Channel Event. t= 8 (84760) Note On ch=1 par1=73 par2=75
Channel Event. t= 16 (84776) Controller ch=1 par1=10 (Pan) par2=43
Channel Event. t= 16 (84792) Note On ch=1 par1=71 par2=68
Channel Event. t= 8 (84800) Controller ch=1 par1=10 (Pan) par2=44
Channel Event. t= 7 (84807) Note Off ch=1 par1=77 par2=64
Channel Event. t= 0 (84807) Note Off ch=1 par1=73 par2=64
Channel Event. t= 17 (84824) Controller ch=1 par1=10 (Pan) par2=45
Channel Event. t= 0 (84824) Note On ch=1 par1=65 par2=90
Channel Event. t= 1 (84825) Note Off ch=1 par1=71 par2=64
Channel Event. t= 23 (84848) Note Off ch=1 par1=65 par2=64
Channel Event. t= 0 (84848) Controller ch=1 par1=10 (Pan) par2=46
Channel Event. t= 24 (84872) Controller ch=1 par1=10 (Pan) par2=48
Channel Event. t= 24 (84896) Controller ch=1 par1=10 (Pan) par2=49
Channel Event. t= 24 (84920) Controller ch=1 par1=10 (Pan) par2=50
Channel Event. t= 0 (84920) Note On ch=1 par1=80 par2=87
Channel Event. t= 24 (84944) Controller ch=1 par1=10 (Pan) par2=51
Channel Event. t= 9 (84953) Note Off ch=1 par1=80 par2=64
Channel Event. t= 15 (84968) Controller ch=1 par1=10 (Pan) par2=53
Channel Event. t= 24 (84992) Controller ch=1 par1=10 (Pan) par2=54
Channel Event. t= 24 (85016) Controller ch=1 par1=10 (Pan) par2=55
Channel Event. t= 0 (85016) Note On ch=1 par1=68 par2=94
Channel Event. t= 24 (85040) Controller ch=1 par1=10 (Pan) par2=56
Channel Event. t= 7 (85047) Note Off ch=1 par1=68 par2=64
Channel Event. t= 17 (85064) Controller ch=1 par1=10 (Pan) par2=58
Channel Event. t= 24 (85088) Controller ch=1 par1=10 (Pan) par2=59
Channel Event. t= 24 (85112) Controller ch=1 par1=10 (Pan) par2=60
Channel Event. t= 0 (85112) Note On ch=1 par1=67 par2=100
Channel Event. t= 24 (85136) Controller ch=1 par1=10 (Pan) par2=61
Channel Event. t= 24 (85160) Controller ch=1 par1=10 (Pan) par2=63
Channel Event. t= 24 (85184) Controller ch=1 par1=10 (Pan) par2=64
Channel Event. t= 24 (85208) Controller ch=1 par1=10 (Pan) par2=65
Channel Event. t= 24 (85232) Controller ch=1 par1=10 (Pan) par2=66
Channel Event. t= 24 (85256) Controller ch=1 par1=10 (Pan) par2=67
Channel Event. t= 24 (85280) Controller ch=1 par1=10 (Pan) par2=69
Channel Event. t= 24 (85304) Controller ch=1 par1=10 (Pan) par2=70
Channel Event. t= 24 (85328) Controller ch=1 par1=10 (Pan) par2=71
Channel Event. t= 24 (85352) Controller ch=1 par1=10 (Pan) par2=72
Channel Event. t= 24 (85376) Controller ch=1 par1=10 (Pan) par2=74
Channel Event. t= 24 (85400) Controller ch=1 par1=10 (Pan) par2=75
Channel Event. t= 24 (85424) Controller ch=1 par1=10 (Pan) par2=76
Channel Event. t= 24 (85448) Controller ch=1 par1=10 (Pan) par2=77
Channel Event. t= 24 (85472) Controller ch=1 par1=10 (Pan) par2=79
Channel Event. t= 23 (85495) Note On ch=1 par1=60 par2=77
Channel Event. t= 1 (85496) Note Off ch=1 par1=67 par2=64
Channel Event. t= 0 (85496) Controller ch=1 par1=10 (Pan) par2=80
Channel Event. t= 24 (85520) Controller ch=1 par1=10 (Pan) par2=81
Channel Event. t= 24 (85544) Controller ch=1 par1=10 (Pan) par2=82
Channel Event. t= 24 (85568) Controller ch=1 par1=10 (Pan) par2=84
Channel Event. t= 23 (85591) Note Off ch=1 par1=60 par2=64
Channel Event. t= 1 (85592) Controller ch=1 par1=10 (Pan) par2=85
Channel Event. t= 24 (85616) Controller ch=1 par1=10 (Pan) par2=86
Channel Event. t= 24 (85640) Controller ch=1 par1=10 (Pan) par2=87
Channel Event. t= 24 (85664) Controller ch=1 par1=10 (Pan) par2=89
Channel Event. t= 24 (85688) Controller ch=1 par1=10 (Pan) par2=90
Channel Event. t= 24 (85712) Controller ch=1 par1=10 (Pan) par2=91
Channel Event. t= 24 (85736) Controller ch=1 par1=10 (Pan) par2=92
Channel Event. t= 24 (85760) Controller ch=1 par1=10 (Pan) par2=94
Channel Event. t= 24 (85784) Controller ch=1 par1=10 (Pan) par2=95
Channel Event. t= 24 (85808) Controller ch=1 par1=10 (Pan) par2=96
Channel Event. t= 24 (85832) Controller ch=1 par1=10 (Pan) par2=97
Channel Event. t= 24 (85856) Controller ch=1 par1=10 (Pan) par2=98
Channel Event. t= 24 (85880) Controller ch=1 par1=10 (Pan) par2=100
Channel Event. t= 24 (85904) Controller ch=1 par1=10 (Pan) par2=101
Channel Event. t= 24 (85928) Controller ch=1 par1=10 (Pan) par2=102
Channel Event. t= 24 (85952) Controller ch=1 par1=10 (Pan) par2=103
Channel Event. t= 24 (85976) Controller ch=1 par1=10 (Pan) par2=105
Channel Event. t= 24 (86000) Controller ch=1 par1=10 (Pan) par2=106
Channel Event. t= 24 (86024) Controller ch=1 par1=10 (Pan) par2=107
Channel Event. t= 24 (86048) Controller ch=1 par1=10 (Pan) par2=108
Channel Event. t= 24 (86072) Controller ch=1 par1=10 (Pan) par2=110
Channel Event. t= 24 (86096) Controller ch=1 par1=10 (Pan) par2=111
Channel Event. t= 24 (86120) Controller ch=1 par1=10 (Pan) par2=112
Channel Event. t= 24 (86144) Controller ch=1 par1=10 (Pan) par2=113
Channel Event. t= 24 (86168) Controller ch=1 par1=10 (Pan) par2=115
Channel Event. t= 24 (86192) Controller ch=1 par1=10 (Pan) par2=116
Channel Event. t= 24 (86216) Controller ch=1 par1=10 (Pan) par2=117
Channel Event. t= 24 (86240) Controller ch=1 par1=10 (Pan) par2=118
Channel Event. t= 23 (86263) Controller ch=1 par1=10 (Pan) par2=120
Channel Event. t= 0 (86263) 
Meta Event. Type: 0x2f (47dec), End of Track (0 bytes): 
track #55
track size: 218
Channel Event. t= 0 (0) 
Meta Event. Type: 0x21 (33dec), MIDI Port (1 bytes): 0
Channel Event. t= 0 (0) 
Meta Event. Type: 0x3 (3dec), Sequence/Track Name (20 bytes): Bassoon             
Channel Event. t= 0 (0) Program Change ch=4 par1=86 par2=-107
Channel Event. t= 12864 (12864) Controller ch=4 par1=7 (Main Volume) par2=70
Channel Event. t= 113 (12977) Note On ch=4 par1=36 par2=69
Channel Event. t= 71 (13048) Note On ch=4 par1=43 par2=71
Channel Event. t= 7 (13055) Note Off ch=4 par1=36 par2=64
Channel Event. t= 53 (13108) Note Off ch=4 par1=43 par2=64
Channel Event. t= 58 (13166) Note On ch=4 par1=43 par2=64
Channel Event. t= 39 (13205) Note Off ch=4 par1=43 par2=64
Channel Event. t= 29 (13234) Note On ch=4 par1=36 par2=79
Channel Event. t= 316 (13550) Note On ch=4 par1=39 par2=79
Channel Event. t= 19 (13569) Note Off ch=4 par1=36 par2=64
Channel Event. t= 53 (13622) Note Off ch=4 par1=39 par2=64
Channel Event. t= 1 (13623) Note On ch=4 par1=40 par2=74
Channel Event. t= 120 (13743) Note On ch=4 par1=44 par2=73
Channel Event. t= 1 (13744) Note Off ch=4 par1=40 par2=64
Channel Event. t= 48 (13792) Note Off ch=4 par1=44 par2=64
Channel Event. t= 16 (13808) Note On ch=4 par1=45 par2=71
Channel Event. t= 117 (13925) Note Off ch=4 par1=45 par2=64
Channel Event. t= 5 (13930) Note On ch=4 par1=41 par2=63
Channel Event. t= 68 (13998) Note Off ch=4 par1=41 par2=64
Channel Event. t= 0 (13998) Note On ch=4 par1=50 par2=69
Channel Event. t= 98 (14096) Note Off ch=4 par1=50 par2=64
Channel Event. t= 27 (14123) Note On ch=4 par1=50 par2=71
Channel Event. t= 40 (14163) Note Off ch=4 par1=50 par2=64
Channel Event. t= 32 (14195) Note On ch=4 par1=50 par2=86
Channel Event. t= 57 (14252) Note On ch=4 par1=51 par2=78
Channel Event. t= 11 (14263) Note Off ch=4 par1=50 par2=64
Channel Event. t= 41 (14304) Note Off ch=4 par1=51 par2=64
Channel Event. t= 8 (14312) Note On ch=4 par1=52 par2=82
Channel Event. t= 34 (14346) Note Off ch=4 par1=52 par2=64
Channel Event. t= 31 (14377) Note On ch=4 par1=52 par2=79
Channel Event. t= 62 (14439) Note Off ch=4 par1=52 par2=64
Channel Event. t= 4 (14443) Note On ch=4 par1=53 par2=77
Channel Event. t= 70 (14513) Note On ch=4 par1=54 par2=77
Channel Event. t= 2 (14515) Note Off ch=4 par1=53 par2=64
Channel Event. t= 68 (14583) Note Off ch=4 par1=54 par2=64
Channel Event. t= 3 (14586) Note On ch=4 par1=55 par2=91
Channel Event. t= 573 (15159) Note On ch=4 par1=56 par2=80
Channel Event. t= 9 (15168) Note Off ch=4 par1=55 par2=64
Channel Event. t= 46 (15214) Note On ch=4 par1=57 par2=65
Channel Event. t= 8 (15222) Note Off ch=4 par1=56 par2=64
Channel Event. t= 54 (15276) Note On ch=4 par1=58 par2=75
Channel Event. t= 5 (15281) Note Off ch=4 par1=57 par2=64
Channel Event. t= 68 (15349) Note On ch=4 par1=59 par2=90
Channel Event. t= 3 (15352) Note Off ch=4 par1=58 par2=64
Channel Event. t= 373 (15725) Note On ch=4 par1=60 par2=71
Channel Event. t= 4 (15729) Note Off ch=4 par1=59 par2=64
Channel Event. t= 162 (15891) Note Off ch=4 par1=60 par2=64
Channel Event. t= 0 (15891) 
Meta Event. Type: 0x2f (47dec), End of Track (0 bytes): 
track #56
track size: 257
Channel Event. t= 0 (0) 
Meta Event. Type: 0x21 (33dec), MIDI Port (1 bytes): 0
Channel Event. t= 0 (0) 
Meta Event. Type: 0x3 (3dec), Sequence/Track Name (20 bytes): Oboe                
Channel Event. t= 0 (0) Program Change ch=2 par1=84 par2=-109
Channel Event. t= 15873 (15873) Note On ch=2 par1=64 par2=39
Channel Event. t= 187 (16060) Note Off ch=2 par1=64 par2=64
Channel Event. t= 206 (16266) Note On ch=2 par1=63 par2=45
Channel Event. t= 205 (16471) Note Off ch=2 par1=63 par2=64
Channel Event. t= 169 (16640) Note On ch=2 par1=64 par2=43
Channel Event. t= 215 (16855) Note Off ch=2 par1=64 par2=64
Channel Event. t= 153 (17008) Note On ch=2 par1=63 par2=43
Channel Event. t= 223 (17231) Note Off ch=2 par1=63 par2=64
Channel Event. t= 174 (17405) Note On ch=2 par1=64 par2=43
Channel Event. t= 224 (17629) Note Off ch=2 par1=64 par2=64
Channel Event. t= 156 (17785) Note On ch=2 par1=63 par2=59
Channel Event. t= 212 (17997) Note Off ch=2 par1=63 par2=64
Channel Event. t= 167 (18164) Note On ch=2 par1=64 par2=49
Channel Event. t= 235 (18399) Note Off ch=2 par1=64 par2=64
Channel Event. t= 147 (18546) Note On ch=2 par1=63 par2=49
Channel Event. t= 212 (18758) Note Off ch=2 par1=63 par2=64
Channel Event. t= 186 (18944) Note On ch=2 par1=76 par2=45
Channel Event. t= 207 (19151) Note Off ch=2 par1=76 par2=64
Channel Event. t= 154 (19305) Note On ch=2 par1=75 par2=43
Channel Event. t= 227 (19532) Note Off ch=2 par1=75 par2=64
Channel Event. t= 177 (19709) Note On ch=2 par1=76 par2=55
Channel Event. t= 195 (19904) Note Off ch=2 par1=76 par2=64
Channel Event. t= 181 (20085) Note On ch=2 par1=75 par2=51
Channel Event. t= 209 (20294) Note Off ch=2 par1=75 par2=64
Channel Event. t= 171 (20465) Note On ch=2 par1=76 par2=56
Channel Event. t= 190 (20655) Note Off ch=2 par1=76 par2=64
Channel Event. t= 196 (20851) Note On ch=2 par1=75 par2=43
Channel Event. t= 218 (21069) Note Off ch=2 par1=75 par2=64
Channel Event. t= 1701 (22770) Note On ch=2 par1=76 par2=58
Channel Event. t= 172 (22942) Note Off ch=2 par1=76 par2=64
Channel Event. t= 213 (23155) Note On ch=2 par1=75 par2=51
Channel Event. t= 174 (23329) Note Off ch=2 par1=75 par2=64
Channel Event. t= 216 (23545) Note On ch=2 par1=76 par2=52
Channel Event. t= 164 (23709) Note Off ch=2 par1=76 par2=64
Channel Event. t= 215 (23924) Note On ch=2 par1=75 par2=61
Channel Event. t= 184 (24108) Note Off ch=2 par1=75 par2=64
Channel Event. t= 203 (24311) Note On ch=2 par1=76 par2=53
Channel Event. t= 181 (24492) Note Off ch=2 par1=76 par2=64
Channel Event. t= 189 (24681) Note On ch=2 par1=75 par2=54
Channel Event. t= 205 (24886) Note Off ch=2 par1=75 par2=64
Channel Event. t= 200 (25086) Note On ch=2 par1=76 par2=51
Channel Event. t= 189 (25275) Note Off ch=2 par1=76 par2=64
Channel Event. t= 195 (25470) Note On ch=2 par1=75 par2=60
Channel Event. t= 212 (25682) Note Off ch=2 par1=75 par2=64
Channel Event. t= 0 (25682) 
Meta Event. Type: 0x2f (47dec), End of Track (0 bytes): 
track #57
track size: 412
Channel Event. t= 0 (0) 
Meta Event. Type: 0x21 (33dec), MIDI Port (1 bytes): 0
Channel Event. t= 0 (0) 
Meta Event. Type: 0x3 (3dec), Sequence/Track Name (20 bytes): French Horn         
Channel Event. t= 0 (0) Program Change ch=3 par1=92 par2=-108
Channel Event. t= 2284 (2284) Controller ch=3 par1=7 (Main Volume) par2=70
Channel Event. t= 84 (2368) Note On ch=3 par1=59 par2=88
Channel Event. t= 192 (2560) Note On ch=3 par1=60 par2=77
Channel Event. t= 18 (2578) Note Off ch=3 par1=59 par2=64
Channel Event. t= 110 (2688) Note Off ch=3 par1=60 par2=64
Channel Event. t= 64 (2752) Note On ch=3 par1=62 par2=88
Channel Event. t= 109 (2861) Note Off ch=3 par1=62 par2=64
Channel Event. t= 83 (2944) Note On ch=3 par1=63 par2=93
Channel Event. t= 156 (3100) Note Off ch=3 par1=63 par2=64
Channel Event. t= 36 (3136) Note On ch=3 par1=59 par2=75
Channel Event. t= 192 (3328) Note On ch=3 par1=60 par2=53
Channel Event. t= 13 (3341) Note Off ch=3 par1=59 par2=64
Channel Event. t= 95 (3436) Note Off ch=3 par1=60 par2=64
Channel Event. t= 84 (3520) Note On ch=3 par1=62 par2=68
Channel Event. t= 93 (3613) Note Off ch=3 par1=62 par2=64
Channel Event. t= 99 (3712) Note On ch=3 par1=63 par2=86
Channel Event. t= 148 (3860) Note Off ch=3 par1=63 par2=64
Channel Event. t= 44 (3904) Note On ch=3 par1=59 par2=75
Channel Event. t= 192 (4096) Note On ch=3 par1=60 par2=98
Channel Event. t= 10 (4106) Note Off ch=3 par1=59 par2=64
Channel Event. t= 86 (4192) Note On ch=3 par1=63 par2=72
Channel Event. t= 2 (4194) Note Off ch=3 par1=60 par2=64
Channel Event. t= 90 (4284) Note Off ch=3 par1=63 par2=64
Channel Event. t= 4 (4288) Note On ch=3 par1=64 par2=43
Channel Event. t= 96 (4384) Note On ch=3 par1=67 par2=57
Channel Event. t= 3 (4387) Note Off ch=3 par1=64 par2=64
Channel Event. t= 92 (4479) Note Off ch=3 par1=67 par2=64
Channel Event. t= 1 (4480) Note On ch=3 par1=71 par2=93
Channel Event. t= 164 (4644) Note Off ch=3 par1=71 par2=64
Channel Event. t= 28 (4672) Note On ch=3 par1=70 par2=96
Channel Event. t= 88 (4760) Note Off ch=3 par1=70 par2=64
Channel Event. t= 8 (4768) Note On ch=3 par1=71 par2=78
Channel Event. t= 96 (4864) Note On ch=3 par1=72 par2=76
Channel Event. t= 16 (4880) Note Off ch=3 par1=71 par2=64
Channel Event. t= 70 (4950) Note Off ch=3 par1=72 par2=64
Channel Event. t= 106 (5056) Note On ch=3 par1=76 par2=74
Channel Event. t= 97 (5153) Note Off ch=3 par1=76 par2=64
Channel Event. t= 95 (5248) Note On ch=3 par1=75 par2=91
Channel Event. t= 384 (5632) Note Off ch=3 par1=75 par2=64
Channel Event. t= 0 (5632) Note On ch=3 par1=72 par2=69
Channel Event. t= 127 (5759) Note Off ch=3 par1=72 par2=64
Channel Event. t= 65 (5824) Note On ch=3 par1=76 par2=70
Channel Event. t= 147 (5971) Note Off ch=3 par1=76 par2=64
Channel Event. t= 45 (6016) Note On ch=3 par1=75 par2=85
Channel Event. t= 80 (6096) Note Off ch=3 par1=75 par2=64
Channel Event. t= 0 (6096) Note On ch=3 par1=76 par2=69
Channel Event. t= 16 (6112) Note On ch=3 par1=75 par2=83
Channel Event. t= 23 (6135) Note Off ch=3 par1=76 par2=64
Channel Event. t= 69 (6204) Note Off ch=3 par1=75 par2=64
Channel Event. t= 4 (6208) Note On ch=3 par1=71 par2=82
Channel Event. t= 90 (6298) Note Off ch=3 par1=71 par2=64
Channel Event. t= 6 (6304) Note On ch=3 par1=66 par2=84
Channel Event. t= 81 (6385) Note Off ch=3 par1=66 par2=64
Channel Event. t= 15 (6400) Note On ch=3 par1=67 par2=81
Channel Event. t= 120 (6520) Note Off ch=3 par1=67 par2=64
Channel Event. t= 72 (6592) Note On ch=3 par1=72 par2=67
Channel Event. t= 132 (6724) Note Off ch=3 par1=72 par2=64
Channel Event. t= 60 (6784) Note On ch=3 par1=71 par2=78
Channel Event. t= 81 (6865) Note On ch=3 par1=72 par2=77
Channel Event. t= 1 (6866) Note Off ch=3 par1=71 par2=64
Channel Event. t= 14 (6880) Note On ch=3 par1=71 par2=67
Channel Event. t= 31 (6911) Note Off ch=3 par1=72 par2=64
Channel Event. t= 62 (6973) Note Off ch=3 par1=71 par2=64
Channel Event. t= 3 (6976) Note On ch=3 par1=66 par2=70
Channel Event. t= 96 (7072) Note On ch=3 par1=63 par2=71
Channel Event. t= 4 (7076) Note Off ch=3 par1=66 par2=64
Channel Event. t= 92 (7168) Note On ch=3 par1=64 par2=87
Channel Event. t= 9 (7177) Note Off ch=3 par1=63 par2=64
Channel Event. t= 98 (7275) Note Off ch=3 par1=64 par2=64
Channel Event. t= 85 (7360) Note On ch=3 par1=67 par2=69
Channel Event. t= 138 (7498) Note Off ch=3 par1=67 par2=64
Channel Event. t= 54 (7552) Note On ch=3 par1=66 par2=81
Channel Event. t= 163 (7715) Note Off ch=3 par1=66 par2=64
Channel Event. t= 29 (7744) Note On ch=3 par1=62 par2=63
Channel Event. t= 96 (7840) Note On ch=3 par1=63 par2=59
Channel Event. t= 8 (7848) Note Off ch=3 par1=62 par2=64
Channel Event. t= 88 (7936) Note On ch=3 par1=64 par2=52
Channel Event. t= 9 (7945) Note Off ch=3 par1=63 par2=64
Channel Event. t= 111 (8056) Note Off ch=3 par1=64 par2=64
Channel Event. t= 72 (8128) Note On ch=3 par1=67 par2=48
Channel Event. t= 106 (8234) Note Off ch=3 par1=67 par2=64
Channel Event. t= 86 (8320) Note On ch=3 par1=66 par2=79
Channel Event. t= 168 (8488) Note Off ch=3 par1=66 par2=64
Channel Event. t= 24 (8512) Note On ch=3 par1=62 par2=76
Channel Event. t= 96 (8608) Note On ch=3 par1=63 par2=64
Channel Event. t= 6 (8614) Note Off ch=3 par1=62 par2=64
Channel Event. t= 90 (8704) Note On ch=3 par1=64 par2=60
Channel Event. t= 2 (8706) Note Off ch=3 par1=63 par2=64
Channel Event. t= 122 (8828) Note Off ch=3 par1=64 par2=64
Channel Event. t= 68 (8896) Note On ch=3 par1=67 par2=67
Channel Event. t= 97 (8993) Note Off ch=3 par1=67 par2=64
Channel Event. t= 95 (9088) Note On ch=3 par1=66 par2=82
Channel Event. t= 361 (9449) Note Off ch=3 par1=66 par2=64
Channel Event. t= 23 (9472) Note On ch=3 par1=59 par2=73
Channel Event. t= 760 (10232) Note Off ch=3 par1=59 par2=64
Channel Event. t= 0 (10232) 
Meta Event. Type: 0x2f (47dec), End of Track (0 bytes): 
track #58
track size: 33
Channel Event. t= 0 (0) 
Meta Event. Type: 0x21 (33dec), MIDI Port (1 bytes): 0
Channel Event. t= 0 (0) 
Meta Event. Type: 0x3 (3dec), Sequence/Track Name (20 bytes):                     
Channel Event. t= 0 (0) 
Meta Event. Type: 0x2f (47dec), End of Track (0 bytes): 
track #59
track size: 33
Channel Event. t= 0 (0) 
Meta Event. Type: 0x21 (33dec), MIDI Port (1 bytes): 0
Channel Event. t= 0 (0) 
Meta Event. Type: 0x3 (3dec), Sequence/Track Name (20 bytes): ~~~~~~~~~~~~~~~~~~~~
Channel Event. t= 0 (0) 
Meta Event. Type: 0x2f (47dec), End of Track (0 bytes): 
track #60
track size: 33
Channel Event. t= 0 (0) 
Meta Event. Type: 0x21 (33dec), MIDI Port (1 bytes): 0
Channel Event. t= 0 (0) 
Meta Event. Type: 0x3 (3dec), Sequence/Track Name (20 bytes): PETER AND THE WOLF  
Channel Event. t= 0 (0) 
Meta Event. Type: 0x2f (47dec), End of Track (0 bytes): 
track #61
track size: 33
Channel Event. t= 0 (0) 
Meta Event. Type: 0x21 (33dec), MIDI Port (1 bytes): 0
Channel Event. t= 0 (0) 
Meta Event. Type: 0x3 (3dec), Sequence/Track Name (20 bytes): by: Serge Prokofiev 
Channel Event. t= 0 (0) 
Meta Event. Type: 0x2f (47dec), End of Track (0 bytes): 
track #62
track size: 33
Channel Event. t= 0 (0) 
Meta Event. Type: 0x21 (33dec), MIDI Port (1 bytes): 0
Channel Event. t= 0 (0) 
Meta Event. Type: 0x3 (3dec), Sequence/Track Name (20 bytes): Sequenced by:       
Channel Event. t= 0 (0) 
Meta Event. Type: 0x2f (47dec), End of Track (0 bytes): 
track #63
track size: 33
Channel Event. t= 0 (0) 
Meta Event. Type: 0x21 (33dec), MIDI Port (1 bytes): 0
Channel Event. t= 0 (0) 
Meta Event. Type: 0x3 (3dec), Sequence/Track Name (20 bytes): Dianne Lewandowski  
Channel Event. t= 0 (0) 
Meta Event. Type: 0x2f (47dec), End of Track (0 bytes): 
track #64
track size: 33
Channel Event. t= 0 (0) 
Meta Event. Type: 0x21 (33dec), MIDI Port (1 bytes): 0
Channel Event. t= 0 (0) 
Meta Event. Type: 0x3 (3dec), Sequence/Track Name (20 bytes): June 1991           
Channel Event. t= 0 (0) 
End of file

ABSTRACT: 
---------
SMF: ../midi/peter.mid
Format type: 1
Time division: 0 (ticks_per_beat)
Number of tracks: 64
ticks_per_beat: 192
Time Signature: 4 / 4
Number of bars: 512.000000
