smf_parser v1.01
Created by Joan Quintana Compte (joanillo)
Licensed under GPL v.3

format type: 1
number of tracks: 66
time division in ticks per beat (0)
Ticks per beat: 480
track #1
track size: 221
Channel Event. t= 0 (0) 
Meta Event. Type: 0x51 (81dec), Set Tempo (3 bytes): 100 bpm
Channel Event. t= 0 (0) 
Meta Event. Type: 0x58 (88dec), Time Signature (4 bytes): 4 / 4
Channel Event. t= 0 (0) 
Meta Event. Type: 0x59 (89dec), Key Signature (2 bytes): 0 (number of sharps or flats); 0 (0: major, 1: minor)
Channel Event. t= 65280 (65280) 
Meta Event. Type: 0x51 (81dec), Set Tempo (3 bytes): 138 bpm
Channel Event. t= 15360 (80640) 
Meta Event. Type: 0x51 (81dec), Set Tempo (3 bytes): 100 bpm
Channel Event. t= 96000 (176640) 
Meta Event. Type: 0x51 (81dec), Set Tempo (3 bytes): 102 bpm
Channel Event. t= 86400 (263040) 
Meta Event. Type: 0x51 (81dec), Set Tempo (3 bytes): 88 bpm
Channel Event. t= 1920 (264960) 
Meta Event. Type: 0x51 (81dec), Set Tempo (3 bytes): 93 bpm
Channel Event. t= 1920 (266880) 
Meta Event. Type: 0x51 (81dec), Set Tempo (3 bytes): 82 bpm
Channel Event. t= 49920 (316800) 
Meta Event. Type: 0x51 (81dec), Set Tempo (3 bytes): 100 bpm
Channel Event. t= 136320 (453120) 
Meta Event. Type: 0x51 (81dec), Set Tempo (3 bytes): 138 bpm
Channel Event. t= 55680 (508800) 
Meta Event. Type: 0x51 (81dec), Set Tempo (3 bytes): 100 bpm
Channel Event. t= 15360 (524160) 
Meta Event. Type: 0x51 (81dec), Set Tempo (3 bytes): 138 bpm
Channel Event. t= 34560 (558720) 
Meta Event. Type: 0x51 (81dec), Set Tempo (3 bytes): 100 bpm
Channel Event. t= 53760 (612480) 
Meta Event. Type: 0x51 (81dec), Set Tempo (3 bytes): 102 bpm
Channel Event. t= 36480 (648960) 
Meta Event. Type: 0x51 (81dec), Set Tempo (3 bytes): 60 bpm
Channel Event. t= 7680 (656640) 
Meta Event. Type: 0x51 (81dec), Set Tempo (3 bytes): 102 bpm
Channel Event. t= 19200 (675840) 
Meta Event. Type: 0x51 (81dec), Set Tempo (3 bytes): 138 bpm
Channel Event. t= 97920 (773760) 
Meta Event. Type: 0x51 (81dec), Set Tempo (3 bytes): 100 bpm
Channel Event. t= 193920 (967680) 
Meta Event. Type: 0x51 (81dec), Set Tempo (3 bytes): 76 bpm
Channel Event. t= 7680 (975360) 
Meta Event. Type: 0x51 (81dec), Set Tempo (3 bytes): 102 bpm
Channel Event. t= 1920 (977280) 
Meta Event. Type: 0x51 (81dec), Set Tempo (3 bytes): 99 bpm
Channel Event. t= 960 (978240) 
Meta Event. Type: 0x51 (81dec), Set Tempo (3 bytes): 110 bpm
Channel Event. t= 960 (979200) 
Meta Event. Type: 0x51 (81dec), Set Tempo (3 bytes): 131 bpm
Channel Event. t= 1920 (981120) 
Meta Event. Type: 0x51 (81dec), Set Tempo (3 bytes): 138 bpm
Channel Event. t= 1920 (983040) 
Meta Event. Type: 0x51 (81dec), Set Tempo (3 bytes): 130 bpm
Channel Event. t= 0 (983040) 
Meta Event. Type: 0x2f (47dec), End of Track (0 bytes): 
track #2
track size: 33
Channel Event. t= 0 (0) 
Meta Event. Type: 0x3 (3dec), Sequence/Track Name (20 bytes): PETER & THE WOLF    
Channel Event. t= 0 (0) 
Meta Event. Type: 0x21 (33dec), MIDI Port (1 bytes): 0
Channel Event. t= 0 (0) 
Meta Event. Type: 0x2f (47dec), End of Track (0 bytes): 
track #3
track size: 33
Channel Event. t= 0 (0) 
Meta Event. Type: 0x3 (3dec), Sequence/Track Name (20 bytes):     PART ONE        
Channel Event. t= 0 (0) 
Meta Event. Type: 0x21 (33dec), MIDI Port (1 bytes): 0
Channel Event. t= 0 (0) 
Meta Event. Type: 0x2f (47dec), End of Track (0 bytes): 
track #4
track size: 33
Channel Event. t= 0 (0) 
Meta Event. Type: 0x3 (3dec), Sequence/Track Name (20 bytes): INTRODUCTION        
Channel Event. t= 0 (0) 
Meta Event. Type: 0x21 (33dec), MIDI Port (1 bytes): 0
Channel Event. t= 0 (0) 
Meta Event. Type: 0x2f (47dec), End of Track (0 bytes): 
track #5
track size: 33
Channel Event. t= 0 (0) 
Meta Event. Type: 0x3 (3dec), Sequence/Track Name (20 bytes):                     
Channel Event. t= 0 (0) 
Meta Event. Type: 0x21 (33dec), MIDI Port (1 bytes): 0
Channel Event. t= 0 (0) 
Meta Event. Type: 0x2f (47dec), End of Track (0 bytes): 
track #6
track size: 3394
Channel Event. t= 0 (0) 
Meta Event. Type: 0x3 (3dec), Sequence/Track Name (20 bytes): Flute               
Channel Event. t= 0 (0) 
Meta Event. Type: 0x21 (33dec), MIDI Port (1 bytes): 0
Channel Event. t= 0 (0) 
Meta Event. Type: 0x20 (32dec), MIDI Channel Prefix (1 bytes): 1
Channel Event. t= 0 (0) Controller ch=1 par1=10 (Pan) par2=64
Channel Event. t= 0 (0) Controller ch=1 par1=91 (Effects 2 Depth (formerly Tremolo Depth)) par2=127
Channel Event. t= 0 (0) Program Change ch=1 par1=72 par2=-98
Channel Event. t= 0 (0) Controller ch=1 par1=10 (Pan) par2=120
Channel Event. t= 480 (480) Controller ch=1 par1=7 (Main Volume) par2=102
Channel Event. t= 1410 (1890) Program Change ch=1 par1=48 par2=30
Channel Event. t= 2240 (4130) Program Change ch=1 par1=49 par2=0
Channel Event. t= 2243 (6373) Program Change ch=1 par1=50 par2=-121
Channel Event. t= 64 (6437) Note Off ch=1 par1=67 par2=64
Channel Event. t= 0 (6437) Note Off ch=1 par1=64 par2=64
Channel Event. t= 0 (6437) Note On ch=1 par1=72 par2=52
Channel Event. t= 0 (6437) Note On ch=1 par1=69 par2=42
Channel Event. t= 670 (7107) Note Off ch=1 par1=72 par2=64
Channel Event. t= 50 (7157) Note Off ch=1 par1=69 par2=64
Channel Event. t= 0 (7157) Note On ch=1 par1=72 par2=21
Channel Event. t= 0 (7157) Note On ch=1 par1=76 par2=59
Channel Event. t= 127 (7284) Note Off ch=1 par1=76 par2=64
Channel Event. t= 18 (7302) Note Off ch=1 par1=72 par2=64
Channel Event. t= 95 (7397) Note On ch=1 par1=79 par2=63
Channel Event. t= 0 (7397) Note On ch=1 par1=76 par2=31
Channel Event. t= 440 (7837) Note Off ch=1 par1=79 par2=64
Channel Event. t= 40 (7877) Note Off ch=1 par1=76 par2=64
Channel Event. t= 0 (7877) Note On ch=1 par1=81 par2=69
Channel Event. t= 0 (7877) Note On ch=1 par1=79 par2=58
Channel Event. t= 425 (8302) Note Off ch=1 par1=79 par2=64
Channel Event. t= 55 (8357) Note Off ch=1 par1=81 par2=64
Channel Event. t= 0 (8357) Note On ch=1 par1=79 par2=84
Channel Event. t= 0 (8357) Note On ch=1 par1=76 par2=77
Channel Event. t= 600 (8957) Note Off ch=1 par1=79 par2=64
Channel Event. t= 25 (8982) Note Off ch=1 par1=76 par2=64
Channel Event. t= 95 (9077) Note On ch=1 par1=76 par2=64
Channel Event. t= 0 (9077) Note On ch=1 par1=72 par2=44
Channel Event. t= 205 (9282) Note Off ch=1 par1=76 par2=64
Channel Event. t= 20 (9302) Note Off ch=1 par1=72 par2=64
Channel Event. t= 15 (9317) Note On ch=1 par1=79 par2=62
Channel Event. t= 0 (9317) Note On ch=1 par1=76 par2=55
Channel Event. t= 450 (9767) Note Off ch=1 par1=79 par2=64
Channel Event. t= 30 (9797) Note Off ch=1 par1=76 par2=64
Channel Event. t= 0 (9797) Note On ch=1 par1=79 par2=70
Channel Event. t= 0 (9797) Note On ch=1 par1=81 par2=69
Channel Event. t= 480 (10277) Note Off ch=1 par1=81 par2=64
Channel Event. t= 0 (10277) Note Off ch=1 par1=79 par2=64
Channel Event. t= 0 (10277) Note On ch=1 par1=83 par2=73
Channel Event. t= 0 (10277) Note On ch=1 par1=78 par2=75
Channel Event. t= 675 (10952) Note Off ch=1 par1=78 par2=64
Channel Event. t= 35 (10987) Note Off ch=1 par1=83 par2=64
Channel Event. t= 10 (10997) Note On ch=1 par1=79 par2=63
Channel Event. t= 0 (10997) Note On ch=1 par1=84 par2=70
Channel Event. t= 150 (11147) Note Off ch=1 par1=84 par2=64
Channel Event. t= 42 (11189) Note Off ch=1 par1=79 par2=64
Channel Event. t= 48 (11237) Note On ch=1 par1=79 par2=67
Channel Event. t= 0 (11237) Note On ch=1 par1=76 par2=62
Channel Event. t= 480 (11717) Note Off ch=1 par1=76 par2=64
Channel Event. t= 0 (11717) Note Off ch=1 par1=79 par2=64
Channel Event. t= 0 (11717) Note On ch=1 par1=76 par2=59
Channel Event. t= 0 (11717) Note On ch=1 par1=72 par2=58
Channel Event. t= 405 (12122) Note Off ch=1 par1=72 par2=64
Channel Event. t= 75 (12197) Note On ch=1 par1=72 par2=58
Channel Event. t= 0 (12197) Note On ch=1 par1=69 par2=62
Channel Event. t= 57 (12254) Note Off ch=1 par1=76 par2=64
Channel Event. t= 303 (12557) Note Off ch=1 par1=72 par2=64
Channel Event. t= 0 (12557) Note Off ch=1 par1=69 par2=64
Channel Event. t= 120 (12677) Note On ch=1 par1=71 par2=70
Channel Event. t= 0 (12677) Note On ch=1 par1=74 par2=78
Channel Event. t= 190 (12867) Note Off ch=1 par1=71 par2=64
Channel Event. t= 15 (12882) Note Off ch=1 par1=74 par2=64
Channel Event. t= 275 (13157) Note On ch=1 par1=72 par2=89
Channel Event. t= 0 (13157) Note On ch=1 par1=75 par2=101
Channel Event. t= 960 (14117) Note Off ch=1 par1=75 par2=64
Channel Event. t= 0 (14117) Note Off ch=1 par1=72 par2=64
Channel Event. t= 0 (14117) Note On ch=1 par1=75 par2=59
Channel Event. t= 0 (14117) Note On ch=1 par1=72 par2=52
Channel Event. t= 480 (14597) Note On ch=1 par1=83 par2=64
Channel Event. t= 0 (14597) Note On ch=1 par1=79 par2=56
Channel Event. t= 77 (14674) Note Off ch=1 par1=72 par2=64
Channel Event. t= 5 (14679) Note Off ch=1 par1=75 par2=64
Channel Event. t= 168 (14847) Note Off ch=1 par1=83 par2=64
Channel Event. t= 17 (14864) Note Off ch=1 par1=79 par2=64
Channel Event. t= 213 (15077) Note On ch=1 par1=75 par2=91
Channel Event. t= 0 (15077) Note On ch=1 par1=72 par2=83
Channel Event. t= 960 (16037) Note Off ch=1 par1=72 par2=64
Channel Event. t= 0 (16037) Note Off ch=1 par1=75 par2=64
Channel Event. t= 0 (16037) Note On ch=1 par1=75 par2=61
Channel Event. t= 0 (16037) Note On ch=1 par1=72 par2=50
Channel Event. t= 480 (16517) Note Off ch=1 par1=72 par2=64
Channel Event. t= 0 (16517) Note Off ch=1 par1=75 par2=64
Channel Event. t= 0 (16517) Note On ch=1 par1=83 par2=66
Channel Event. t= 0 (16517) Note On ch=1 par1=79 par2=53
Channel Event. t= 237 (16754) Note Off ch=1 par1=83 par2=64
Channel Event. t= 8 (16762) Note Off ch=1 par1=79 par2=64
Channel Event. t= 235 (16997) Note On ch=1 par1=72 par2=49
Channel Event. t= 0 (16997) Note On ch=1 par1=75 par2=51
Channel Event. t= 960 (17957) Note On ch=1 par1=70 par2=61
Channel Event. t= 0 (17957) Note On ch=1 par1=67 par2=41
Channel Event. t= 40 (17997) Note Off ch=1 par1=72 par2=64
Channel Event. t= 57 (18054) Note Off ch=1 par1=75 par2=64
Channel Event. t= 863 (18917) Note Off ch=1 par1=70 par2=64
Channel Event. t= 0 (18917) Note Off ch=1 par1=67 par2=64
Channel Event. t= 0 (18917) Note On ch=1 par1=70 par2=30
Channel Event. t= 0 (18917) Note On ch=1 par1=67 par2=40
Channel Event. t= 2 (18919) Note Off ch=1 par1=67 par2=64
Channel Event. t= 0 (18919) Note Off ch=1 par1=70 par2=64
Channel Event. t= 1438 (20357) Note On ch=1 par1=57 par2=66
Channel Event. t= 480 (20837) Note On ch=1 par1=58 par2=65
Channel Event. t= 42 (20879) Note Off ch=1 par1=57 par2=64
Channel Event. t= 918 (21797) Note On ch=1 par1=63 par2=67
Channel Event. t= 0 (21797) Note On ch=1 par1=60 par2=66
Channel Event. t= 17 (21814) Note Off ch=1 par1=58 par2=64
Channel Event. t= 685 (22499) Note Off ch=1 par1=60 par2=64
Channel Event. t= 18 (22517) Note Off ch=1 par1=63 par2=64
Channel Event. t= 0 (22517) Note On ch=1 par1=67 par2=73
Channel Event. t= 0 (22517) Note On ch=1 par1=63 par2=70
Channel Event. t= 157 (22674) Note Off ch=1 par1=63 par2=64
Channel Event. t= 63 (22737) Note Off ch=1 par1=67 par2=64
Channel Event. t= 20 (22757) Note On ch=1 par1=70 par2=82
Channel Event. t= 0 (22757) Note On ch=1 par1=67 par2=74
Channel Event. t= 480 (23237) Note Off ch=1 par1=67 par2=64
Channel Event. t= 0 (23237) Note Off ch=1 par1=70 par2=64
Channel Event. t= 0 (23237) Note On ch=1 par1=70 par2=70
Channel Event. t= 0 (23237) Note On ch=1 par1=72 par2=70
Channel Event. t= 422 (23659) Note Off ch=1 par1=70 par2=64
Channel Event. t= 58 (23717) Note On ch=1 par1=70 par2=47
Channel Event. t= 0 (23717) Note On ch=1 par1=67 par2=63
Channel Event. t= 55 (23772) Note Off ch=1 par1=72 par2=64
Channel Event. t= 545 (24317) Note Off ch=1 par1=70 par2=64
Channel Event. t= 0 (24317) Note Off ch=1 par1=67 par2=64
Channel Event. t= 120 (24437) Note On ch=1 par1=63 par2=68
Channel Event. t= 0 (24437) Note On ch=1 par1=67 par2=61
Channel Event. t= 197 (24634) Note Off ch=1 par1=63 par2=64
Channel Event. t= 23 (24657) Note Off ch=1 par1=67 par2=64
Channel Event. t= 20 (24677) Note On ch=1 par1=70 par2=80
Channel Event. t= 0 (24677) Note On ch=1 par1=67 par2=68
Channel Event. t= 410 (25087) Note Off ch=1 par1=67 par2=64
Channel Event. t= 70 (25157) Note Off ch=1 par1=70 par2=64
Channel Event. t= 0 (25157) Note On ch=1 par1=70 par2=63
Channel Event. t= 0 (25157) Note On ch=1 par1=72 par2=69
Channel Event. t= 480 (25637) Note Off ch=1 par1=72 par2=64
Channel Event. t= 0 (25637) Note On ch=1 par1=69 par2=56
Channel Event. t= 0 (25637) Note On ch=1 par1=74 par2=62
Channel Event. t= 32 (25669) Note Off ch=1 par1=70 par2=64
Channel Event. t= 688 (26357) Note Off ch=1 par1=69 par2=64
Channel Event. t= 0 (26357) Note On ch=1 par1=75 par2=79
Channel Event. t= 0 (26357) Note On ch=1 par1=70 par2=69
Channel Event. t= 25 (26382) Note Off ch=1 par1=74 par2=64
Channel Event. t= 172 (26554) Note Off ch=1 par1=70 par2=64
Channel Event. t= 43 (26597) Note On ch=1 par1=70 par2=72
Channel Event. t= 0 (26597) Note On ch=1 par1=67 par2=63
Channel Event. t= 25 (26622) Note Off ch=1 par1=75 par2=64
Channel Event. t= 297 (26919) Note Off ch=1 par1=70 par2=64
Channel Event. t= 158 (27077) Note On ch=1 par1=63 par2=59
Channel Event. t= 410 (27487) Note Off ch=1 par1=63 par2=64
Channel Event. t= 12 (27499) Note Off ch=1 par1=67 par2=64
Channel Event. t= 58 (27557) Note On ch=1 par1=63 par2=72
Channel Event. t= 0 (27557) Note On ch=1 par1=60 par2=62
Channel Event. t= 480 (28037) Note Off ch=1 par1=63 par2=64
Channel Event. t= 0 (28037) Note On ch=1 par1=61 par2=68
Channel Event. t= 0 (28037) Note On ch=1 par1=65 par2=68
Channel Event. t= 40 (28077) Note Off ch=1 par1=60 par2=64
Channel Event. t= 440 (28517) Note On ch=1 par1=66 par2=80
Channel Event. t= 0 (28517) Note On ch=1 par1=62 par2=45
Channel Event. t= 35 (28552) Note Off ch=1 par1=61 par2=64
Channel Event. t= 12 (28564) Note Off ch=1 par1=65 par2=64
Channel Event. t= 525 (29089) Note Off ch=1 par1=62 par2=64
Channel Event. t= 25 (29114) Note Off ch=1 par1=66 par2=64
Channel Event. t= 363 (29477) Note On ch=1 par1=66 par2=80
Channel Event. t= 0 (29477) Note On ch=1 par1=62 par2=52
Channel Event. t= 440 (29917) Note Off ch=1 par1=66 par2=64
Channel Event. t= 40 (29957) Note On ch=1 par1=74 par2=53
Channel Event. t= 0 (29957) Note On ch=1 par1=66 par2=80
Channel Event. t= 60 (30017) Note Off ch=1 par1=62 par2=64
Channel Event. t= 292 (30309) Note Off ch=1 par1=66 par2=64
Channel Event. t= 23 (30332) Note Off ch=1 par1=74 par2=64
Channel Event. t= 105 (30437) Note On ch=1 par1=66 par2=59
Channel Event. t= 0 (30437) Note On ch=1 par1=62 par2=56
Channel Event. t= 767 (31204) Note Off ch=1 par1=62 par2=64
Channel Event. t= 33 (31237) Note Off ch=1 par1=66 par2=64
Channel Event. t= 160 (31397) Note On ch=1 par1=66 par2=65
Channel Event. t= 0 (31397) Note On ch=1 par1=62 par2=68
Channel Event. t= 425 (31822) Note Off ch=1 par1=66 par2=64
Channel Event. t= 55 (31877) Note On ch=1 par1=66 par2=80
Channel Event. t= 0 (31877) Note On ch=1 par1=74 par2=84
Channel Event. t= 50 (31927) Note Off ch=1 par1=62 par2=64
Channel Event. t= 320 (32247) Note Off ch=1 par1=74 par2=64
Channel Event. t= 105 (32352) Note Off ch=1 par1=66 par2=64
Channel Event. t= 5 (32357) Controller ch=1 par1=7 (Main Volume) par2=101
Channel Event. t= 0 (32357) Note On ch=1 par1=67 par2=88
Channel Event. t= 0 (32357) Note On ch=1 par1=62 par2=88
Channel Event. t= 120 (32477) Controller ch=1 par1=7 (Main Volume) par2=100
Channel Event. t= 120 (32597) Controller ch=1 par1=7 (Main Volume) par2=99
Channel Event. t= 60 (32657) Controller ch=1 par1=7 (Main Volume) par2=98
Channel Event. t= 120 (32777) Controller ch=1 par1=7 (Main Volume) par2=97
Channel Event. t= 60 (32837) Controller ch=1 par1=7 (Main Volume) par2=96
Channel Event. t= 120 (32957) Controller ch=1 par1=7 (Main Volume) par2=95
Channel Event. t= 60 (33017) Controller ch=1 par1=7 (Main Volume) par2=94
Channel Event. t= 120 (33137) Controller ch=1 par1=7 (Main Volume) par2=93
Channel Event. t= 60 (33197) Controller ch=1 par1=7 (Main Volume) par2=92
Channel Event. t= 120 (33317) Controller ch=1 par1=7 (Main Volume) par2=91
Channel Event. t= 60 (33377) Controller ch=1 par1=7 (Main Volume) par2=90
Channel Event. t= 120 (33497) Controller ch=1 par1=7 (Main Volume) par2=89
Channel Event. t= 60 (33557) Controller ch=1 par1=7 (Main Volume) par2=88
Channel Event. t= 120 (33677) Controller ch=1 par1=7 (Main Volume) par2=87
Channel Event. t= 60 (33737) Controller ch=1 par1=7 (Main Volume) par2=86
Channel Event. t= 120 (33857) Controller ch=1 par1=7 (Main Volume) par2=85
Channel Event. t= 60 (33917) Controller ch=1 par1=7 (Main Volume) par2=84
Channel Event. t= 120 (34037) Controller ch=1 par1=7 (Main Volume) par2=83
Channel Event. t= 60 (34097) Controller ch=1 par1=7 (Main Volume) par2=82
Channel Event. t= 120 (34217) Controller ch=1 par1=7 (Main Volume) par2=81
Channel Event. t= 60 (34277) Controller ch=1 par1=7 (Main Volume) par2=80
Channel Event. t= 120 (34397) Controller ch=1 par1=7 (Main Volume) par2=79
Channel Event. t= 120 (34517) Controller ch=1 par1=7 (Main Volume) par2=78
Channel Event. t= 60 (34577) Controller ch=1 par1=7 (Main Volume) par2=77
Channel Event. t= 120 (34697) Controller ch=1 par1=7 (Main Volume) par2=76
Channel Event. t= 60 (34757) Controller ch=1 par1=7 (Main Volume) par2=75
Channel Event. t= 120 (34877) Controller ch=1 par1=7 (Main Volume) par2=74
Channel Event. t= 60 (34937) Controller ch=1 par1=7 (Main Volume) par2=73
Channel Event. t= 120 (35057) Controller ch=1 par1=7 (Main Volume) par2=72
Channel Event. t= 60 (35117) Controller ch=1 par1=7 (Main Volume) par2=71
Channel Event. t= 120 (35237) Controller ch=1 par1=7 (Main Volume) par2=70
Channel Event. t= 60 (35297) Controller ch=1 par1=7 (Main Volume) par2=69
Channel Event. t= 120 (35417) Controller ch=1 par1=7 (Main Volume) par2=68
Channel Event. t= 60 (35477) Controller ch=1 par1=7 (Main Volume) par2=67
Channel Event. t= 120 (35597) Controller ch=1 par1=7 (Main Volume) par2=66
Channel Event. t= 60 (35657) Controller ch=1 par1=7 (Main Volume) par2=65
Channel Event. t= 120 (35777) Controller ch=1 par1=7 (Main Volume) par2=64
Channel Event. t= 60 (35837) Controller ch=1 par1=7 (Main Volume) par2=63
Channel Event. t= 120 (35957) Controller ch=1 par1=7 (Main Volume) par2=62
Channel Event. t= 20 (35977) Note Off ch=1 par1=62 par2=64
Channel Event. t= 40 (36017) Controller ch=1 par1=7 (Main Volume) par2=61
Channel Event. t= 5 (36022) Note Off ch=1 par1=67 par2=64
Channel Event. t= 115 (36137) Controller ch=1 par1=7 (Main Volume) par2=60
Channel Event. t= 180 (36317) Controller ch=1 par1=7 (Main Volume) par2=90
Channel Event. t= 360 (36677) Note On ch=1 par1=91 par2=73
Channel Event. t= 0 (36677) Note On ch=1 par1=84 par2=69
Channel Event. t= 75 (36752) Note Off ch=1 par1=84 par2=64
Channel Event. t= 10 (36762) Note Off ch=1 par1=91 par2=64
Channel Event. t= 395 (37157) Note On ch=1 par1=91 par2=84
Channel Event. t= 0 (37157) Note On ch=1 par1=83 par2=81
Channel Event. t= 1035 (38192) Note Off ch=1 par1=83 par2=64
Channel Event. t= 0 (38192) Note Off ch=1 par1=91 par2=64
Channel Event. t= 405 (38597) Note On ch=1 par1=91 par2=66
Channel Event. t= 0 (38597) Note On ch=1 par1=84 par2=67
Channel Event. t= 80 (38677) Note Off ch=1 par1=84 par2=64
Channel Event. t= 10 (38687) Note Off ch=1 par1=91 par2=64
Channel Event. t= 390 (39077) Note On ch=1 par1=91 par2=69
Channel Event. t= 0 (39077) Note On ch=1 par1=83 par2=62
Channel Event. t= 987 (40064) Note Off ch=1 par1=83 par2=64
Channel Event. t= 0 (40064) Note Off ch=1 par1=91 par2=64
Channel Event. t= 453 (40517) Note On ch=1 par1=91 par2=64
Channel Event. t= 0 (40517) Note On ch=1 par1=84 par2=58
Channel Event. t= 72 (40589) Note Off ch=1 par1=84 par2=64
Channel Event. t= 20 (40609) Note Off ch=1 par1=91 par2=64
Channel Event. t= 388 (40997) Note On ch=1 par1=83 par2=71
Channel Event. t= 0 (40997) Note On ch=1 par1=91 par2=73
Channel Event. t= 970 (41967) Note Off ch=1 par1=83 par2=64
Channel Event. t= 10 (41977) Note Off ch=1 par1=91 par2=64
Channel Event. t= 460 (42437) Note On ch=1 par1=91 par2=53
Channel Event. t= 0 (42437) Note On ch=1 par1=84 par2=55
Channel Event. t= 92 (42529) Note Off ch=1 par1=84 par2=64
Channel Event. t= 18 (42547) Note Off ch=1 par1=91 par2=64
Channel Event. t= 850 (43397) Note On ch=1 par1=91 par2=62
Channel Event. t= 0 (43397) Note On ch=1 par1=83 par2=60
Channel Event. t= 110 (43507) Note Off ch=1 par1=83 par2=64
Channel Event. t= 12 (43519) Note Off ch=1 par1=91 par2=64
Channel Event. t= 358 (43877) Controller ch=1 par1=7 (Main Volume) par2=75
Channel Event. t= 120 (43997) Program Change ch=1 par1=72 par2=-127
Channel Event. t= 89 (44086) Note On ch=1 par1=79 par2=41
Channel Event. t= 35 (44121) Note On ch=1 par1=84 par2=61
Channel Event. t= 88 (44209) Note On ch=1 par1=88 par2=74
Channel Event. t= 12 (44221) Note Off ch=1 par1=79 par2=64
Channel Event. t= 0 (44221) Note On ch=1 par1=91 par2=72
Channel Event. t= 0 (44221) Note On ch=1 par1=96 par2=75
Channel Event. t= 8 (44229) Note On ch=1 par1=100 par2=82
Channel Event. t= 35 (44264) Note Off ch=1 par1=84 par2=64
Channel Event. t= 2 (44266) Note Off ch=1 par1=88 par2=64
Channel Event. t= 10 (44276) Note Off ch=1 par1=96 par2=64
Channel Event. t= 5 (44281) Note Off ch=1 par1=91 par2=64
Channel Event. t= 18 (44299) Note Off ch=1 par1=100 par2=64
Channel Event. t= 410 (44709) Controller ch=1 par1=10 (Pan) par2=20
Channel Event. t= 370 (45079) Note On ch=1 par1=79 par2=40
Channel Event. t= 25 (45104) Note On ch=1 par1=83 par2=74
Channel Event. t= 62 (45166) Note Off ch=1 par1=79 par2=64
Channel Event. t= 8 (45174) Note On ch=1 par1=87 par2=75
Channel Event. t= 10 (45184) Note On ch=1 par1=90 par2=58
Channel Event. t= 5 (45189) Note On ch=1 par1=99 par2=73
Channel Event. t= 5 (45194) Note On ch=1 par1=95 par2=61
Channel Event. t= 20 (45214) Note Off ch=1 par1=83 par2=64
Channel Event. t= 12 (45226) Note Off ch=1 par1=87 par2=64
Channel Event. t= 5 (45231) Note Off ch=1 par1=95 par2=64
Channel Event. t= 8 (45239) Note Off ch=1 par1=90 par2=64
Channel Event. t= 25 (45264) Note Off ch=1 par1=99 par2=64
Channel Event. t= 405 (45669) Controller ch=1 par1=10 (Pan) par2=120
Channel Event. t= 345 (46014) Note On ch=1 par1=79 par2=45
Channel Event. t= 32 (46046) Note On ch=1 par1=84 par2=67
Channel Event. t= 20 (46066) Note Off ch=1 par1=79 par2=64
Channel Event. t= 40 (46106) Note On ch=1 par1=88 par2=73
Channel Event. t= 20 (46126) Note On ch=1 par1=96 par2=83
Channel Event. t= 8 (46134) Note On ch=1 par1=91 par2=64
Channel Event. t= 2 (46136) Note Off ch=1 par1=84 par2=64
Channel Event. t= 13 (46149) Note On ch=1 par1=100 par2=74
Channel Event. t= 10 (46159) Note Off ch=1 par1=88 par2=64
Channel Event. t= 40 (46199) Note Off ch=1 par1=91 par2=64
Channel Event. t= 12 (46211) Note Off ch=1 par1=96 par2=64
Channel Event. t= 25 (46236) Note Off ch=1 par1=100 par2=64
Channel Event. t= 273 (46509) Controller ch=1 par1=10 (Pan) par2=20
Channel Event. t= 425 (46934) Note On ch=1 par1=79 par2=42
Channel Event. t= 37 (46971) Note On ch=1 par1=83 par2=70
Channel Event. t= 8 (46979) Note Off ch=1 par1=79 par2=64
Channel Event. t= 65 (47044) Note On ch=1 par1=87 par2=80
Channel Event. t= 25 (47069) Note Off ch=1 par1=83 par2=64
Channel Event. t= 25 (47094) Note On ch=1 par1=90 par2=65
Channel Event. t= 0 (47094) Note On ch=1 par1=95 par2=63
Channel Event. t= 7 (47101) Note Off ch=1 par1=87 par2=64
Channel Event. t= 8 (47109) Note On ch=1 par1=99 par2=79
Channel Event. t= 25 (47134) Note Off ch=1 par1=90 par2=64
Channel Event. t= 0 (47134) Note Off ch=1 par1=95 par2=64
Channel Event. t= 42 (47176) Note Off ch=1 par1=99 par2=64
Channel Event. t= 413 (47589) Controller ch=1 par1=10 (Pan) par2=120
Channel Event. t= 325 (47914) Note On ch=1 par1=79 par2=11
Channel Event. t= 25 (47939) Note On ch=1 par1=84 par2=69
Channel Event. t= 17 (47956) Note Off ch=1 par1=79 par2=64
Channel Event. t= 48 (48004) Note On ch=1 par1=88 par2=65
Channel Event. t= 22 (48026) Note Off ch=1 par1=84 par2=64
Channel Event. t= 8 (48034) Note On ch=1 par1=96 par2=72
Channel Event. t= 5 (48039) Note On ch=1 par1=91 par2=58
Channel Event. t= 12 (48051) Note Off ch=1 par1=88 par2=64
Channel Event. t= 18 (48069) Note On ch=1 par1=100 par2=71
Channel Event. t= 32 (48101) Note Off ch=1 par1=91 par2=64
Channel Event. t= 8 (48109) Note Off ch=1 par1=96 par2=64
Channel Event. t= 30 (48139) Note Off ch=1 par1=100 par2=64
Channel Event. t= 170 (48309) Controller ch=1 par1=10 (Pan) par2=20
Channel Event. t= 547 (48856) Note On ch=1 par1=79 par2=32
Channel Event. t= 30 (48886) Note On ch=1 par1=83 par2=70
Channel Event. t= 30 (48916) Note Off ch=1 par1=79 par2=64
Channel Event. t= 45 (48961) Note On ch=1 par1=87 par2=77
Channel Event. t= 20 (48981) Note On ch=1 par1=90 par2=60
Channel Event. t= 3 (48984) Note On ch=1 par1=95 par2=63
Channel Event. t= 10 (48994) Note Off ch=1 par1=83 par2=64
Channel Event. t= 20 (49014) Note Off ch=1 par1=87 par2=64
Channel Event. t= 15 (49029) Note On ch=1 par1=99 par2=72
Channel Event. t= 2 (49031) Note Off ch=1 par1=90 par2=64
Channel Event. t= 0 (49031) Note Off ch=1 par1=95 par2=64
Channel Event. t= 73 (49104) Note Off ch=1 par1=99 par2=64
Channel Event. t= 405 (49509) Controller ch=1 par1=10 (Pan) par2=120
Channel Event. t= 300 (49809) Note On ch=1 par1=79 par2=38
Channel Event. t= 32 (49841) Note On ch=1 par1=84 par2=64
Channel Event. t= 33 (49874) Note Off ch=1 par1=79 par2=64
Channel Event. t= 40 (49914) Note On ch=1 par1=96 par2=56
Channel Event. t= 7 (49921) Note On ch=1 par1=91 par2=46
Channel Event. t= 5 (49926) Note On ch=1 par1=88 par2=44
Channel Event. t= 15 (49941) Note Off ch=1 par1=84 par2=64
Channel Event. t= 33 (49974) Note Off ch=1 par1=88 par2=64
Channel Event. t= 15 (49989) Note On ch=1 par1=100 par2=54
Channel Event. t= 5 (49994) Note Off ch=1 par1=96 par2=64
Channel Event. t= 12 (50006) Note Off ch=1 par1=91 par2=64
Channel Event. t= 60 (50066) Note Off ch=1 par1=100 par2=64
Channel Event. t= 283 (50349) Controller ch=1 par1=10 (Pan) par2=20
Channel Event. t= 387 (50736) Note On ch=1 par1=79 par2=37
Channel Event. t= 45 (50781) Note On ch=1 par1=83 par2=60
Channel Event. t= 13 (50794) Note Off ch=1 par1=79 par2=64
Channel Event. t= 62 (50856) Note On ch=1 par1=87 par2=72
Channel Event. t= 18 (50874) Note On ch=1 par1=95 par2=55
Channel Event. t= 0 (50874) Note On ch=1 par1=90 par2=55
Channel Event. t= 20 (50894) Note Off ch=1 par1=83 par2=64
Channel Event. t= 27 (50921) Note Off ch=1 par1=87 par2=64
Channel Event. t= 5 (50926) Note Off ch=1 par1=95 par2=64
Channel Event. t= 3 (50929) Note Off ch=1 par1=90 par2=64
Channel Event. t= 20 (50949) Note On ch=1 par1=99 par2=62
Channel Event. t= 72 (51021) Note Off ch=1 par1=99 par2=64
Channel Event. t= 408 (51429) Controller ch=1 par1=10 (Pan) par2=120
Channel Event. t= 302 (51731) Note On ch=1 par1=79 par2=34
Channel Event. t= 33 (51764) Note On ch=1 par1=84 par2=66
Channel Event. t= 62 (51826) Note Off ch=1 par1=79 par2=64
Channel Event. t= 18 (51844) Note On ch=1 par1=91 par2=49
Channel Event. t= 0 (51844) Note On ch=1 par1=88 par2=69
Channel Event. t= 17 (51861) Note On ch=1 par1=96 par2=52
Channel Event. t= 15 (51876) Note Off ch=1 par1=84 par2=64
Channel Event. t= 10 (51886) Note Off ch=1 par1=88 par2=64
Channel Event. t= 23 (51909) Note On ch=1 par1=100 par2=49
Channel Event. t= 2 (51911) Note Off ch=1 par1=91 par2=64
Channel Event. t= 30 (51941) Note Off ch=1 par1=96 par2=64
Channel Event. t= 38 (51979) Note Off ch=1 par1=100 par2=64
Channel Event. t= 290 (52269) Controller ch=1 par1=10 (Pan) par2=20
Channel Event. t= 417 (52686) Note On ch=1 par1=79 par2=28
Channel Event. t= 25 (52711) Note On ch=1 par1=83 par2=69
Channel Event. t= 25 (52736) Note Off ch=1 par1=79 par2=64
Channel Event. t= 48 (52784) Note On ch=1 par1=87 par2=65
Channel Event. t= 5 (52789) Note On ch=1 par1=90 par2=51
Channel Event. t= 27 (52816) Note On ch=1 par1=95 par2=44
Channel Event. t= 8 (52824) Note Off ch=1 par1=83 par2=64
Channel Event. t= 27 (52851) Note Off ch=1 par1=87 par2=64
Channel Event. t= 18 (52869) Note On ch=1 par1=99 par2=45
Channel Event. t= 5 (52874) Note Off ch=1 par1=90 par2=64
Channel Event. t= 25 (52899) Note Off ch=1 par1=95 par2=64
Channel Event. t= 57 (52956) Note Off ch=1 par1=99 par2=64
Channel Event. t= 393 (53349) Controller ch=1 par1=10 (Pan) par2=120
Channel Event. t= 420 (53769) Note On ch=1 par1=79 par2=61
Channel Event. t= 35 (53804) Note On ch=1 par1=84 par2=71
Channel Event. t= 40 (53844) Note On ch=1 par1=88 par2=73
Channel Event. t= 10 (53854) Note Off ch=1 par1=79 par2=64
Channel Event. t= 12 (53866) Note On ch=1 par1=91 par2=84
Channel Event. t= 10 (53876) Note Off ch=1 par1=84 par2=64
Channel Event. t= 35 (53911) Note Off ch=1 par1=88 par2=64
Channel Event. t= 25 (53936) Note Off ch=1 par1=91 par2=64
Channel Event. t= 253 (54189) Controller ch=1 par1=10 (Pan) par2=20
Channel Event. t= 532 (54721) Note On ch=1 par1=79 par2=63
Channel Event. t= 50 (54771) Note On ch=1 par1=83 par2=68
Channel Event. t= 25 (54796) Note On ch=1 par1=87 par2=76
Channel Event. t= 25 (54821) Note On ch=1 par1=90 par2=85
Channel Event. t= 20 (54841) Note Off ch=1 par1=79 par2=64
Channel Event. t= 13 (54854) Note Off ch=1 par1=83 par2=64
Channel Event. t= 20 (54874) Note Off ch=1 par1=87 par2=64
Channel Event. t= 7 (54881) Note Off ch=1 par1=90 par2=64
Channel Event. t= 388 (55269) Controller ch=1 par1=10 (Pan) par2=120
Channel Event. t= 412 (55681) Note On ch=1 par1=79 par2=56
Channel Event. t= 28 (55709) Note On ch=1 par1=84 par2=73
Channel Event. t= 37 (55746) Note On ch=1 par1=88 par2=63
Channel Event. t= 13 (55759) Note On ch=1 par1=91 par2=86
Channel Event. t= 10 (55769) Note Off ch=1 par1=79 par2=64
Channel Event. t= 12 (55781) Note Off ch=1 par1=84 par2=64
Channel Event. t= 25 (55806) Note Off ch=1 par1=88 par2=64
Channel Event. t= 20 (55826) Note Off ch=1 par1=91 par2=64
Channel Event. t= 343 (56169) Controller ch=1 par1=10 (Pan) par2=20
Channel Event. t= 460 (56629) Note On ch=1 par1=79 par2=63
Channel Event. t= 42 (56671) Note On ch=1 par1=83 par2=69
Channel Event. t= 40 (56711) Note On ch=1 par1=87 par2=68
Channel Event. t= 8 (56719) Note On ch=1 par1=90 par2=80
Channel Event. t= 10 (56729) Note Off ch=1 par1=79 par2=64
Channel Event. t= 20 (56749) Note Off ch=1 par1=83 par2=64
Channel Event. t= 12 (56761) Note Off ch=1 par1=87 par2=64
Channel Event. t= 18 (56779) Note Off ch=1 par1=90 par2=64
Channel Event. t= 410 (57189) Controller ch=1 par1=10 (Pan) par2=120
Channel Event. t= 447 (57636) Note On ch=1 par1=79 par2=49
Channel Event. t= 30 (57666) Note On ch=1 par1=84 par2=61
Channel Event. t= 25 (57691) Note On ch=1 par1=88 par2=71
Channel Event. t= 13 (57704) Note On ch=1 par1=91 par2=79
Channel Event. t= 27 (57731) Note Off ch=1 par1=79 par2=64
Channel Event. t= 18 (57749) Note Off ch=1 par1=84 par2=64
Channel Event. t= 10 (57759) Note Off ch=1 par1=88 par2=64
Channel Event. t= 17 (57776) Note Off ch=1 par1=91 par2=64
Channel Event. t= 313 (58089) Controller ch=1 par1=10 (Pan) par2=20
Channel Event. t= 455 (58544) Note On ch=1 par1=79 par2=68
Channel Event. t= 45 (58589) Note On ch=1 par1=83 par2=71
Channel Event. t= 22 (58611) Note On ch=1 par1=87 par2=75
Channel Event. t= 8 (58619) Note On ch=1 par1=90 par2=80
Channel Event. t= 52 (58671) Note Off ch=1 par1=79 par2=64
Channel Event. t= 8 (58679) Note Off ch=1 par1=83 par2=64
Channel Event. t= 2 (58681) Note Off ch=1 par1=87 par2=64
Channel Event. t= 5 (58686) Note Off ch=1 par1=90 par2=64
Channel Event. t= 423 (59109) Controller ch=1 par1=10 (Pan) par2=120
Channel Event. t= 405 (59514) Note On ch=1 par1=79 par2=66
Channel Event. t= 25 (59539) Note On ch=1 par1=83 par2=78
Channel Event. t= 37 (59576) Note On ch=1 par1=88 par2=71
Channel Event. t= 20 (59596) Note On ch=1 par1=91 par2=78
Channel Event. t= 23 (59619) Note Off ch=1 par1=79 par2=64
Channel Event. t= 12 (59631) Note Off ch=1 par1=83 par2=64
Channel Event. t= 18 (59649) Note Off ch=1 par1=88 par2=64
Channel Event. t= 17 (59666) Note Off ch=1 par1=91 par2=64
Channel Event. t= 825 (60491) Note On ch=1 par1=79 par2=55
Channel Event. t= 23 (60514) Note On ch=1 par1=83 par2=76
Channel Event. t= 22 (60536) Note On ch=1 par1=87 par2=81
Channel Event. t= 43 (60579) Note On ch=1 par1=91 par2=70
Channel Event. t= 12 (60591) Note Off ch=1 par1=79 par2=64
Channel Event. t= 15 (60606) Note Off ch=1 par1=83 par2=64
Channel Event. t= 23 (60629) Note Off ch=1 par1=87 par2=64
Channel Event. t= 15 (60644) Note Off ch=1 par1=91 par2=64
Channel Event. t= 265 (60909) Program Change ch=1 par1=48 par2=90
Channel Event. t= 6279 (67188) Program Change ch=1 par1=60 par2=30
Channel Event. t= 2271 (69459) Program Change ch=1 par1=69 par2=0
Channel Event. t= 2259 (71718) Program Change ch=1 par1=63 par2=-114
Channel Event. t= 58 (71776) Note Off ch=1 par1=83 par2=64
Channel Event. t= 0 (71776) Note Off ch=1 par1=95 par2=64
Channel Event. t= 70 (71846) Note On ch=1 par1=93 par2=87
Channel Event. t= 5 (71851) Note On ch=1 par1=81 par2=68
Channel Event. t= 1382 (73233) Note Off ch=1 par1=81 par2=64
Channel Event. t= 53 (73286) Note Off ch=1 par1=93 par2=64
Channel Event. t= 240 (73526) Controller ch=1 par1=7 (Main Volume) par2=110
Channel Event. t= 120 (73646) Program Change ch=1 par1=72 par2=120
Channel Event. t= 2269 (75915) Program Change ch=1 par1=74 par2=27
Channel Event. t= 2267 (78182) Program Change ch=1 par1=63 par2=30
Channel Event. t= 221 (78403) Program Change ch=1 par1=64 par2=35
Channel Event. t= 219 (78622) Program Change ch=1 par1=64 par2=-127
Channel Event. t= 20 (78642) Note On ch=1 par1=76 par2=71
Channel Event. t= 52 (78694) Note Off ch=1 par1=76 par2=64
Channel Event. t= 183 (78877) Note On ch=1 par1=93 par2=69
Channel Event. t= 20 (78897) Note On ch=1 par1=92 par2=70
Channel Event. t= 50 (78947) Note Off ch=1 par1=93 par2=64
Channel Event. t= 15 (78962) Note Off ch=1 par1=92 par2=64
Channel Event. t= 160 (79122) Note On ch=1 par1=92 par2=68
Channel Event. t= 40 (79162) Note Off ch=1 par1=92 par2=64
Channel Event. t= 200 (79362) Note On ch=1 par1=92 par2=73
Channel Event. t= 50 (79412) Note Off ch=1 par1=92 par2=64
Channel Event. t= 190 (79602) Note On ch=1 par1=92 par2=71
Channel Event. t= 52 (79654) Note Off ch=1 par1=92 par2=64
Channel Event. t= 193 (79847) Note On ch=1 par1=93 par2=74
Channel Event. t= 10 (79857) Note On ch=1 par1=91 par2=74
Channel Event. t= 50 (79907) Note Off ch=1 par1=93 par2=64
Channel Event. t= 10 (79917) Note Off ch=1 par1=91 par2=64
Channel Event. t= 165 (80082) Note On ch=1 par1=76 par2=79
Channel Event. t= 50 (80132) Note Off ch=1 par1=76 par2=64
Channel Event. t= 207 (80339) Note On ch=1 par1=74 par2=64
Channel Event. t= 100 (80439) Note Off ch=1 par1=74 par2=64
Channel Event. t= 8 (80447) Note On ch=1 par1=75 par2=63
Channel Event. t= 122 (80569) Note Off ch=1 par1=75 par2=64
Channel Event. t= 3 (80572) Note On ch=1 par1=73 par2=58
Channel Event. t= 100 (80672) Note Off ch=1 par1=73 par2=64
Channel Event. t= 10 (80682) Note On ch=1 par1=72 par2=52
Channel Event. t= 102 (80784) Note Off ch=1 par1=72 par2=64
Channel Event. t= 8 (80792) Note On ch=1 par1=83 par2=91
Channel Event. t= 235 (81027) Note Off ch=1 par1=83 par2=64
Channel Event. t= 0 (81027) Note On ch=1 par1=81 par2=49
Channel Event. t= 47 (81074) Note Off ch=1 par1=81 par2=64
Channel Event. t= 48 (81122) Note On ch=1 par1=83 par2=49
Channel Event. t= 62 (81184) Note Off ch=1 par1=83 par2=64
Channel Event. t= 8 (81192) Note On ch=1 par1=81 par2=31
Channel Event. t= 82 (81274) Note Off ch=1 par1=81 par2=64
Channel Event. t= 18 (81292) Note On ch=1 par1=79 par2=83
Channel Event. t= 107 (81399) Note Off ch=1 par1=79 par2=64
Channel Event. t= 123 (81522) Note On ch=1 par1=67 par2=61
Channel Event. t= 90 (81612) Note Off ch=1 par1=67 par2=64
Channel Event. t= 150 (81762) Note On ch=1 par1=72 par2=73
Channel Event. t= 55 (81817) Note Off ch=1 par1=72 par2=64
Channel Event. t= 185 (82002) Note On ch=1 par1=76 par2=74
Channel Event. t= 55 (82057) Note Off ch=1 par1=76 par2=64
Channel Event. t= 185 (82242) Note On ch=1 par1=93 par2=74
Channel Event. t= 27 (82269) Note On ch=1 par1=91 par2=63
Channel Event. t= 30 (82299) Note Off ch=1 par1=93 par2=64
Channel Event. t= 35 (82334) Note Off ch=1 par1=91 par2=64
Channel Event. t= 148 (82482) Note On ch=1 par1=76 par2=71
Channel Event. t= 52 (82534) Note Off ch=1 par1=76 par2=64
Channel Event. t= 183 (82717) Note On ch=1 par1=93 par2=69
Channel Event. t= 20 (82737) Note On ch=1 par1=92 par2=70
Channel Event. t= 50 (82787) Note Off ch=1 par1=93 par2=64
Channel Event. t= 15 (82802) Note Off ch=1 par1=92 par2=64
Channel Event. t= 160 (82962) Note On ch=1 par1=92 par2=68
Channel Event. t= 40 (83002) Note Off ch=1 par1=92 par2=64
Channel Event. t= 200 (83202) Note On ch=1 par1=92 par2=73
Channel Event. t= 50 (83252) Note Off ch=1 par1=92 par2=64
Channel Event. t= 190 (83442) Note On ch=1 par1=92 par2=71
Channel Event. t= 52 (83494) Note Off ch=1 par1=92 par2=64
Channel Event. t= 193 (83687) Note On ch=1 par1=93 par2=74
Channel Event. t= 10 (83697) Note On ch=1 par1=91 par2=74
Channel Event. t= 50 (83747) Note Off ch=1 par1=93 par2=64
Channel Event. t= 10 (83757) Note Off ch=1 par1=91 par2=64
Channel Event. t= 165 (83922) Note On ch=1 par1=76 par2=79
Channel Event. t= 50 (83972) Note Off ch=1 par1=76 par2=64
Channel Event. t= 70 (84042) Controller ch=1 par1=10 (Pan) par2=20
Channel Event. t= 137 (84179) Note On ch=1 par1=74 par2=64
Channel Event. t= 100 (84279) Note Off ch=1 par1=74 par2=64
Channel Event. t= 8 (84287) Note On ch=1 par1=75 par2=63
Channel Event. t= 122 (84409) Note Off ch=1 par1=75 par2=64
Channel Event. t= 3 (84412) Note On ch=1 par1=73 par2=58
Channel Event. t= 100 (84512) Note Off ch=1 par1=73 par2=64
Channel Event. t= 10 (84522) Note On ch=1 par1=72 par2=52
Channel Event. t= 102 (84624) Note Off ch=1 par1=72 par2=64
Channel Event. t= 8 (84632) Note On ch=1 par1=83 par2=91
Channel Event. t= 235 (84867) Note Off ch=1 par1=83 par2=64
Channel Event. t= 0 (84867) Note On ch=1 par1=81 par2=49
Channel Event. t= 47 (84914) Note Off ch=1 par1=81 par2=64
Channel Event. t= 48 (84962) Note On ch=1 par1=83 par2=49
Channel Event. t= 62 (85024) Note Off ch=1 par1=83 par2=64
Channel Event. t= 8 (85032) Note On ch=1 par1=81 par2=31
Channel Event. t= 82 (85114) Note Off ch=1 par1=81 par2=64
Channel Event. t= 18 (85132) Note On ch=1 par1=79 par2=83
Channel Event. t= 107 (85239) Note Off ch=1 par1=79 par2=64
Channel Event. t= 123 (85362) Note On ch=1 par1=67 par2=61
Channel Event. t= 90 (85452) Note Off ch=1 par1=67 par2=64
Channel Event. t= 150 (85602) Note On ch=1 par1=72 par2=73
Channel Event. t= 55 (85657) Note Off ch=1 par1=72 par2=64
Channel Event. t= 185 (85842) Note On ch=1 par1=76 par2=74
Channel Event. t= 55 (85897) Note Off ch=1 par1=76 par2=64
Channel Event. t= 185 (86082) Note On ch=1 par1=76 par2=75
Channel Event. t= 0 (86082) Controller ch=1 par1=10 (Pan) par2=120
Channel Event. t= 110 (86192) Note On ch=1 par1=91 par2=70
Channel Event. t= 122 (86314) Note On ch=1 par1=88 par2=67
Channel Event. t= 30 (86344) Note Off ch=1 par1=76 par2=64
Channel Event. t= 10 (86354) Note Off ch=1 par1=91 par2=64
Channel Event. t= 83 (86437) Note On ch=1 par1=84 par2=66
Channel Event. t= 25 (86462) Note Off ch=1 par1=88 par2=64
Channel Event. t= 75 (86537) Note Off ch=1 par1=84 par2=64
Channel Event. t= 25 (86562) Note On ch=1 par1=75 par2=77
Channel Event. t= 122 (86684) Note On ch=1 par1=91 par2=63
Channel Event. t= 60 (86744) Note Off ch=1 par1=75 par2=64
Channel Event. t= 65 (86809) Note On ch=1 par1=87 par2=77
Channel Event. t= 15 (86824) Note Off ch=1 par1=91 par2=64
Channel Event. t= 118 (86942) Note On ch=1 par1=83 par2=57
Channel Event. t= 35 (86977) Note Off ch=1 par1=87 par2=64
Channel Event. t= 40 (87017) Note Off ch=1 par1=83 par2=64
Channel Event. t= 50 (87067) Note On ch=1 par1=76 par2=61
Channel Event. t= 115 (87182) Note On ch=1 par1=91 par2=72
Channel Event. t= 32 (87214) Note Off ch=1 par1=76 par2=64
Channel Event. t= 90 (87304) Note On ch=1 par1=88 par2=60
Channel Event. t= 15 (87319) Note Off ch=1 par1=91 par2=64
Channel Event. t= 108 (87427) Note On ch=1 par1=84 par2=59
Channel Event. t= 20 (87447) Note Off ch=1 par1=88 par2=64
Channel Event. t= 67 (87514) Note Off ch=1 par1=84 par2=64
Channel Event. t= 23 (87537) Note On ch=1 par1=75 par2=77
Channel Event. t= 122 (87659) Note On ch=1 par1=91 par2=67
Channel Event. t= 15 (87674) Note Off ch=1 par1=75 par2=64
Channel Event. t= 100 (87774) Note On ch=1 par1=87 par2=61
Channel Event. t= 13 (87787) Note Off ch=1 par1=91 par2=64
Channel Event. t= 100 (87887) Note On ch=1 par1=83 par2=52
Channel Event. t= 52 (87939) Note Off ch=1 par1=87 par2=64
Channel Event. t= 35 (87974) Note Off ch=1 par1=83 par2=64
Channel Event. t= 28 (88002) Note On ch=1 par1=76 par2=63
Channel Event. t= 0 (88002) Controller ch=1 par1=10 (Pan) par2=20
Channel Event. t= 120 (88122) Note On ch=1 par1=91 par2=72
Channel Event. t= 12 (88134) Note Off ch=1 par1=76 par2=64
Channel Event. t= 118 (88252) Note On ch=1 par1=88 par2=62
Channel Event. t= 17 (88269) Note Off ch=1 par1=91 par2=64
Channel Event. t= 108 (88377) Note On ch=1 par1=84 par2=66
Channel Event. t= 17 (88394) Note Off ch=1 par1=88 par2=64
Channel Event. t= 65 (88459) Note Off ch=1 par1=84 par2=64
Channel Event. t= 40 (88499) Note On ch=1 par1=75 par2=75
Channel Event. t= 103 (88602) Note On ch=1 par1=91 par2=69
Channel Event. t= 17 (88619) Note Off ch=1 par1=75 par2=64
Channel Event. t= 95 (88714) Note On ch=1 par1=87 par2=67
Channel Event. t= 20 (88734) Note Off ch=1 par1=91 par2=64
Channel Event. t= 113 (88847) Note On ch=1 par1=83 par2=58
Channel Event. t= 25 (88872) Note Off ch=1 par1=87 par2=64
Channel Event. t= 55 (88927) Note Off ch=1 par1=83 par2=64
Channel Event. t= 37 (88964) Note On ch=1 par1=76 par2=71
Channel Event. t= 120 (89084) Note Off ch=1 par1=76 par2=64
Channel Event. t= 0 (89084) Note On ch=1 par1=91 par2=76
Channel Event. t= 125 (89209) Note On ch=1 par1=88 par2=51
Channel Event. t= 13 (89222) Note Off ch=1 par1=91 par2=64
Channel Event. t= 95 (89317) Note On ch=1 par1=84 par2=65
Channel Event. t= 15 (89332) Note Off ch=1 par1=88 par2=64
Channel Event. t= 50 (89382) Note Off ch=1 par1=84 par2=64
Channel Event. t= 60 (89442) Note On ch=1 par1=75 par2=87
Channel Event. t= 102 (89544) Note Off ch=1 par1=75 par2=64
Channel Event. t= 18 (89562) Note On ch=1 par1=91 par2=73
Channel Event. t= 120 (89682) Note On ch=1 par1=87 par2=67
Channel Event. t= 17 (89699) Note Off ch=1 par1=91 par2=64
Channel Event. t= 103 (89802) Note On ch=1 par1=83 par2=72
Channel Event. t= 17 (89819) Note Off ch=1 par1=87 par2=64
Channel Event. t= 60 (89879) Note Off ch=1 par1=83 par2=64
Channel Event. t= 43 (89922) Note On ch=1 par1=91 par2=89
Channel Event. t= 120 (90042) Note On ch=1 par1=86 par2=69
Channel Event. t= 117 (90159) Note Off ch=1 par1=86 par2=64
Channel Event. t= 3 (90162) Note On ch=1 par1=83 par2=71
Channel Event. t= 2 (90164) Note Off ch=1 par1=91 par2=64
Channel Event. t= 118 (90282) Note On ch=1 par1=79 par2=73
Channel Event. t= 35 (90317) Note Off ch=1 par1=83 par2=64
Channel Event. t= 75 (90392) Note Off ch=1 par1=79 par2=64
Channel Event. t= 10 (90402) Note On ch=1 par1=78 par2=87
Channel Event. t= 120 (90522) Note On ch=1 par1=79 par2=69
Channel Event. t= 102 (90624) Note Off ch=1 par1=78 par2=64
Channel Event. t= 18 (90642) Note On ch=1 par1=83 par2=63
Channel Event. t= 20 (90662) Note Off ch=1 par1=79 par2=64
Channel Event. t= 100 (90762) Note On ch=1 par1=86 par2=66
Channel Event. t= 37 (90799) Note Off ch=1 par1=83 par2=64
Channel Event. t= 83 (90882) Note On ch=1 par1=98 par2=88
Channel Event. t= 12 (90894) Note Off ch=1 par1=86 par2=64
Channel Event. t= 108 (91002) Note On ch=1 par1=93 par2=63
Channel Event. t= 120 (91122) Note On ch=1 par1=90 par2=71
Channel Event. t= 120 (91242) Note On ch=1 par1=86 par2=70
Channel Event. t= 120 (91362) Note On ch=1 par1=81 par2=72
Channel Event. t= 5 (91367) Note Off ch=1 par1=86 par2=64
Channel Event. t= 5 (91372) Note Off ch=1 par1=90 par2=64
Channel Event. t= 15 (91387) Note Off ch=1 par1=93 par2=64
Channel Event. t= 77 (91464) Note Off ch=1 par1=98 par2=64
Channel Event. t= 18 (91482) Note On ch=1 par1=86 par2=70
Channel Event. t= 120 (91602) Note On ch=1 par1=90 par2=78
Channel Event. t= 7 (91609) Note Off ch=1 par1=81 par2=64
Channel Event. t= 23 (91632) Note Off ch=1 par1=86 par2=64
Channel Event. t= 90 (91722) Note On ch=1 par1=93 par2=69
Channel Event. t= 117 (91839) Note Off ch=1 par1=93 par2=64
Channel Event. t= 3 (91842) Note Off ch=1 par1=90 par2=64
Channel Event. t= 0 (91842) Note On ch=1 par1=91 par2=78
Channel Event. t= 117 (91959) Note Off ch=1 par1=91 par2=64
Channel Event. t= 3 (91962) Note On ch=1 par1=83 par2=64
Channel Event. t= 120 (92082) Note On ch=1 par1=86 par2=71
Channel Event. t= 22 (92104) Note Off ch=1 par1=83 par2=64
Channel Event. t= 93 (92197) Note Off ch=1 par1=86 par2=64
Channel Event. t= 5 (92202) Note On ch=1 par1=91 par2=69
Channel Event. t= 120 (92322) Note On ch=1 par1=78 par2=77
Channel Event. t= 37 (92359) Note Off ch=1 par1=91 par2=64
Channel Event. t= 80 (92439) Note Off ch=1 par1=78 par2=64
Channel Event. t= 3 (92442) Note On ch=1 par1=79 par2=64
Channel Event. t= 120 (92562) Note On ch=1 par1=83 par2=69
Channel Event. t= 40 (92602) Note Off ch=1 par1=79 par2=64
Channel Event. t= 72 (92674) Note Off ch=1 par1=83 par2=64
Channel Event. t= 8 (92682) Note On ch=1 par1=86 par2=76
Channel Event. t= 102 (92784) Note Off ch=1 par1=86 par2=64
Channel Event. t= 18 (92802) Note On ch=1 par1=91 par2=90
Channel Event. t= 45 (92847) Note Off ch=1 par1=91 par2=64
Channel Event. t= 195 (93042) Controller ch=1 par1=10 (Pan) par2=120
Channel Event. t= 19200 (112242) Controller ch=1 par1=7 (Main Volume) par2=85
Channel Event. t= 240 (112482) Note On ch=1 par1=83 par2=90
Channel Event. t= 480 (112962) Note On ch=1 par1=84 par2=89
Channel Event. t= 92 (113054) Note Off ch=1 par1=83 par2=64
Channel Event. t= 193 (113247) Note Off ch=1 par1=84 par2=64
Channel Event. t= 195 (113442) Note On ch=1 par1=86 par2=76
Channel Event. t= 185 (113627) Note Off ch=1 par1=86 par2=64
Channel Event. t= 295 (113922) Note On ch=1 par1=87 par2=101
Channel Event. t= 225 (114147) Note Off ch=1 par1=87 par2=64
Channel Event. t= 255 (114402) Note On ch=1 par1=83 par2=76
Channel Event. t= 480 (114882) Note On ch=1 par1=84 par2=97
Channel Event. t= 17 (114899) Note Off ch=1 par1=83 par2=64
Channel Event. t= 203 (115102) Note Off ch=1 par1=84 par2=64
Channel Event. t= 260 (115362) Note On ch=1 par1=86 par2=54
Channel Event. t= 135 (115497) Note Off ch=1 par1=86 par2=64
Channel Event. t= 345 (115842) Note On ch=1 par1=87 par2=101
Channel Event. t= 220 (116062) Note Off ch=1 par1=87 par2=64
Channel Event. t= 260 (116322) Note On ch=1 par1=83 par2=77
Channel Event. t= 480 (116802) Note On ch=1 par1=84 par2=80
Channel Event. t= 35 (116837) Note Off ch=1 par1=83 par2=64
Channel Event. t= 205 (117042) Note On ch=1 par1=87 par2=87
Channel Event. t= 7 (117049) Note Off ch=1 par1=84 par2=64
Channel Event. t= 195 (117244) Note On ch=1 par1=89 par2=61
Channel Event. t= 23 (117267) Note Off ch=1 par1=87 par2=64
Channel Event. t= 15 (117282) Note On ch=1 par1=88 par2=61
Channel Event. t= 117 (117399) Note Off ch=1 par1=89 par2=64
Channel Event. t= 123 (117522) Note On ch=1 par1=91 par2=81
Channel Event. t= 20 (117542) Note Off ch=1 par1=88 par2=64
Channel Event. t= 220 (117762) Note On ch=1 par1=95 par2=90
Channel Event. t= 35 (117797) Note Off ch=1 par1=91 par2=64
Channel Event. t= 440 (118237) Note Off ch=1 par1=95 par2=64
Channel Event. t= 5 (118242) Note On ch=1 par1=94 par2=97
Channel Event. t= 240 (118482) Note On ch=1 par1=95 par2=85
Channel Event. t= 77 (118559) Note Off ch=1 par1=94 par2=64
Channel Event. t= 163 (118722) Note On ch=1 par1=96 par2=94
Channel Event. t= 35 (118757) Note Off ch=1 par1=95 par2=64
Channel Event. t= 445 (119202) Note On ch=1 par1=100 par2=92
Channel Event. t= 20 (119222) Note Off ch=1 par1=96 par2=64
Channel Event. t= 460 (119682) Note On ch=1 par1=99 par2=91
Channel Event. t= 40 (119722) Note Off ch=1 par1=100 par2=64
Channel Event. t= 610 (120332) Note Off ch=1 par1=99 par2=64
Channel Event. t= 310 (120642) Note On ch=1 par1=96 par2=84
Channel Event. t= 240 (120882) Note Off ch=1 par1=96 par2=64
Channel Event. t= 240 (121122) Note On ch=1 par1=100 par2=72
Channel Event. t= 230 (121352) Note Off ch=1 par1=100 par2=64
Channel Event. t= 250 (121602) Note On ch=1 par1=99 par2=89
Channel Event. t= 240 (121842) Note On ch=1 par1=100 par2=63
Channel Event. t= 20 (121862) Note Off ch=1 par1=99 par2=64
Channel Event. t= 100 (121962) Note On ch=1 par1=99 par2=67
Channel Event. t= 40 (122002) Note Off ch=1 par1=100 par2=64
Channel Event. t= 80 (122082) Note On ch=1 par1=95 par2=72
Channel Event. t= 45 (122127) Note Off ch=1 par1=99 par2=64
Channel Event. t= 177 (122304) Note Off ch=1 par1=95 par2=64
Channel Event. t= 18 (122322) Note On ch=1 par1=90 par2=85
Channel Event. t= 240 (122562) Note On ch=1 par1=91 par2=93
Channel Event. t= 25 (122587) Note Off ch=1 par1=90 par2=64
Channel Event. t= 192 (122779) Note Off ch=1 par1=91 par2=64
Channel Event. t= 263 (123042) Note On ch=1 par1=96 par2=88
Channel Event. t= 157 (123199) Note Off ch=1 par1=96 par2=64
Channel Event. t= 323 (123522) Note On ch=1 par1=95 par2=103
Channel Event. t= 240 (123762) Note On ch=1 par1=96 par2=74
Channel Event. t= 32 (123794) Note Off ch=1 par1=95 par2=64
Channel Event. t= 88 (123882) Note On ch=1 par1=95 par2=63
Channel Event. t= 37 (123919) Note Off ch=1 par1=96 par2=64
Channel Event. t= 83 (124002) Note On ch=1 par1=90 par2=72
Channel Event. t= 22 (124024) Note Off ch=1 par1=95 par2=64
Channel Event. t= 200 (124224) Note Off ch=1 par1=90 par2=64
Channel Event. t= 18 (124242) Note On ch=1 par1=87 par2=56
Channel Event. t= 190 (124432) Note Off ch=1 par1=87 par2=64
Channel Event. t= 50 (124482) Note On ch=1 par1=87 par2=59
Channel Event. t= 0 (124482) Note On ch=1 par1=88 par2=75
Channel Event. t= 50 (124532) Note Off ch=1 par1=87 par2=64
Channel Event. t= 105 (124637) Note Off ch=1 par1=88 par2=64
Channel Event. t= 325 (124962) Note On ch=1 par1=91 par2=81
Channel Event. t= 122 (125084) Note Off ch=1 par1=91 par2=64
Channel Event. t= 358 (125442) Note On ch=1 par1=90 par2=101
Channel Event. t= 375 (125817) Note Off ch=1 par1=90 par2=64
Channel Event. t= 105 (125922) Note On ch=1 par1=86 par2=88
Channel Event. t= 240 (126162) Note On ch=1 par1=87 par2=59
Channel Event. t= 5 (126167) Note Off ch=1 par1=86 par2=64
Channel Event. t= 235 (126402) Note On ch=1 par1=88 par2=65
Channel Event. t= 32 (126434) Note Off ch=1 par1=87 par2=64
Channel Event. t= 128 (126562) Note Off ch=1 par1=88 par2=64
Channel Event. t= 320 (126882) Note On ch=1 par1=91 par2=84
Channel Event. t= 155 (127037) Note Off ch=1 par1=91 par2=64
Channel Event. t= 325 (127362) Note On ch=1 par1=90 par2=103
Channel Event. t= 377 (127739) Note Off ch=1 par1=90 par2=64
Channel Event. t= 103 (127842) Note On ch=1 par1=86 par2=85
Channel Event. t= 240 (128082) Note On ch=1 par1=87 par2=72
Channel Event. t= 32 (128114) Note Off ch=1 par1=86 par2=64
Channel Event. t= 208 (128322) Note Off ch=1 par1=87 par2=64
Channel Event. t= 0 (128322) Note On ch=1 par1=88 par2=88
Channel Event. t= 172 (128494) Note Off ch=1 par1=88 par2=64
Channel Event. t= 308 (128802) Note On ch=1 par1=91 par2=78
Channel Event. t= 152 (128954) Note Off ch=1 par1=91 par2=64
Channel Event. t= 328 (129282) Note On ch=1 par1=90 par2=101
Channel Event. t= 960 (130242) Note On ch=1 par1=83 par2=78
Channel Event. t= 10 (130252) Note Off ch=1 par1=90 par2=64
Channel Event. t= 950 (131202) Note On ch=1 par1=95 par2=74
Channel Event. t= 22 (131224) Note Off ch=1 par1=83 par2=64
Channel Event. t= 2338 (133562) Note Off ch=1 par1=95 par2=64
Channel Event. t= 40 (133602) Note On ch=1 par1=95 par2=80
Channel Event. t= 480 (134082) Note On ch=1 par1=96 par2=88
Channel Event. t= 47 (134129) Note Off ch=1 par1=95 par2=64
Channel Event. t= 1923 (136052) Note Off ch=1 par1=96 par2=64
Channel Event. t= 0 (136052) 
Meta Event. Type: 0x2f (47dec), End of Track (0 bytes): 
track #7
track size: 1762
Channel Event. t= 0 (0) 
Meta Event. Type: 0x3 (3dec), Sequence/Track Name (20 bytes): Oboe                
Channel Event. t= 0 (0) 
Meta Event. Type: 0x21 (33dec), MIDI Port (1 bytes): 0
Channel Event. t= 0 (0) 
Meta Event. Type: 0x20 (32dec), MIDI Channel Prefix (1 bytes): 2
Channel Event. t= 0 (0) Controller ch=2 par1=10 (Pan) par2=64
Channel Event. t= 0 (0) Controller ch=2 par1=91 (Effects 2 Depth (formerly Tremolo Depth)) par2=127
Channel Event. t= 0 (0) Program Change ch=2 par1=84 par2=-98
Channel Event. t= 0 (0) Controller ch=2 par1=10 (Pan) par2=30
Channel Event. t= 0 (0) Program Change ch=2 par1=48 par2=120
Channel Event. t= 6407 (6407) Program Change ch=2 par1=80 par2=-114
Channel Event. t= 8 (6415) Note On ch=2 par1=60 par2=77
Channel Event. t= 960 (7375) Note On ch=2 par1=67 par2=80
Channel Event. t= 27 (7402) Note Off ch=2 par1=60 par2=64
Channel Event. t= 693 (8095) Note On ch=2 par1=69 par2=83
Channel Event. t= 12 (8107) Note Off ch=2 par1=67 par2=64
Channel Event. t= 228 (8335) Note On ch=2 par1=72 par2=89
Channel Event. t= 15 (8350) Note Off ch=2 par1=69 par2=64
Channel Event. t= 437 (8787) Note Off ch=2 par1=72 par2=64
Channel Event. t= 28 (8815) Note On ch=2 par1=76 par2=89
Channel Event. t= 480 (9295) Note On ch=2 par1=72 par2=90
Channel Event. t= 35 (9330) Note Off ch=2 par1=76 par2=64
Channel Event. t= 572 (9902) Note Off ch=2 par1=72 par2=64
Channel Event. t= 113 (10015) Note On ch=2 par1=69 par2=74
Channel Event. t= 240 (10255) Note On ch=2 par1=72 par2=86
Channel Event. t= 72 (10327) Note Off ch=2 par1=69 par2=64
Channel Event. t= 408 (10735) Note On ch=2 par1=76 par2=90
Channel Event. t= 27 (10762) Note Off ch=2 par1=72 par2=64
Channel Event. t= 453 (11215) Note On ch=2 par1=75 par2=96
Channel Event. t= 55 (11270) Note Off ch=2 par1=76 par2=64
Channel Event. t= 665 (11935) Note On ch=2 par1=76 par2=83
Channel Event. t= 12 (11947) Note Off ch=2 par1=75 par2=64
Channel Event. t= 228 (12175) Note On ch=2 par1=72 par2=74
Channel Event. t= 2 (12177) Note Off ch=2 par1=76 par2=64
Channel Event. t= 478 (12655) Note On ch=2 par1=69 par2=75
Channel Event. t= 10 (12665) Note Off ch=2 par1=72 par2=64
Channel Event. t= 470 (13135) Note On ch=2 par1=67 par2=70
Channel Event. t= 40 (13175) Note Off ch=2 par1=69 par2=64
Channel Event. t= 440 (13615) Note On ch=2 par1=65 par2=78
Channel Event. t= 45 (13660) Note Off ch=2 par1=67 par2=64
Channel Event. t= 435 (14095) Note On ch=2 par1=63 par2=80
Channel Event. t= 37 (14132) Note Off ch=2 par1=65 par2=64
Channel Event. t= 923 (15055) Note On ch=2 par1=70 par2=87
Channel Event. t= 20 (15075) Note Off ch=2 par1=63 par2=64
Channel Event. t= 452 (15527) Note Off ch=2 par1=70 par2=64
Channel Event. t= 8 (15535) Note On ch=2 par1=74 par2=74
Channel Event. t= 480 (16015) Note On ch=2 par1=63 par2=94
Channel Event. t= 30 (16045) Note Off ch=2 par1=74 par2=64
Channel Event. t= 930 (16975) Note On ch=2 par1=70 par2=72
Channel Event. t= 40 (17015) Note Off ch=2 par1=63 par2=64
Channel Event. t= 440 (17455) Note On ch=2 par1=74 par2=78
Channel Event. t= 2 (17457) Note Off ch=2 par1=70 par2=64
Channel Event. t= 478 (17935) Note On ch=2 par1=70 par2=88
Channel Event. t= 35 (17970) Note Off ch=2 par1=74 par2=64
Channel Event. t= 925 (18895) Note On ch=2 par1=65 par2=79
Channel Event. t= 75 (18970) Note Off ch=2 par1=70 par2=64
Channel Event. t= 885 (19855) Note On ch=2 par1=63 par2=65
Channel Event. t= 117 (19972) Note Off ch=2 par1=65 par2=64
Channel Event. t= 1363 (21335) Note Off ch=2 par1=63 par2=64
Channel Event. t= 440 (21775) Note On ch=2 par1=55 par2=82
Channel Event. t= 1207 (22982) Note Off ch=2 par1=55 par2=64
Channel Event. t= 473 (23455) Note On ch=2 par1=60 par2=74
Channel Event. t= 240 (23695) Note On ch=2 par1=63 par2=77
Channel Event. t= 2 (23697) Note Off ch=2 par1=60 par2=64
Channel Event. t= 478 (24175) Note On ch=2 par1=67 par2=74
Channel Event. t= 30 (24205) Note Off ch=2 par1=63 par2=64
Channel Event. t= 450 (24655) Note On ch=2 par1=63 par2=76
Channel Event. t= 62 (24717) Note Off ch=2 par1=67 par2=64
Channel Event. t= 558 (25275) Note Off ch=2 par1=63 par2=64
Channel Event. t= 100 (25375) Note On ch=2 par1=60 par2=87
Channel Event. t= 240 (25615) Note On ch=2 par1=63 par2=84
Channel Event. t= 60 (25675) Note Off ch=2 par1=60 par2=64
Channel Event. t= 420 (26095) Note On ch=2 par1=67 par2=72
Channel Event. t= 12 (26107) Note Off ch=2 par1=63 par2=64
Channel Event. t= 468 (26575) Note On ch=2 par1=66 par2=87
Channel Event. t= 32 (26607) Note Off ch=2 par1=67 par2=64
Channel Event. t= 680 (27287) Note Off ch=2 par1=66 par2=64
Channel Event. t= 8 (27295) Note On ch=2 par1=67 par2=80
Channel Event. t= 240 (27535) Note On ch=2 par1=63 par2=88
Channel Event. t= 47 (27582) Note Off ch=2 par1=67 par2=64
Channel Event. t= 433 (28015) Note On ch=2 par1=60 par2=74
Channel Event. t= 50 (28065) Note Off ch=2 par1=63 par2=64
Channel Event. t= 422 (28487) Note Off ch=2 par1=60 par2=64
Channel Event. t= 8 (28495) Note On ch=2 par1=58 par2=74
Channel Event. t= 480 (28975) Note On ch=2 par1=56 par2=80
Channel Event. t= 12 (28987) Note Off ch=2 par1=58 par2=64
Channel Event. t= 468 (29455) Note On ch=2 par1=54 par2=82
Channel Event. t= 62 (29517) Note Off ch=2 par1=56 par2=64
Channel Event. t= 805 (30322) Note Off ch=2 par1=54 par2=64
Channel Event. t= 93 (30415) Note On ch=2 par1=54 par2=81
Channel Event. t= 480 (30895) Note On ch=2 par1=62 par2=72
Channel Event. t= 42 (30937) Note Off ch=2 par1=54 par2=64
Channel Event. t= 438 (31375) Note On ch=2 par1=54 par2=83
Channel Event. t= 67 (31442) Note Off ch=2 par1=62 par2=64
Channel Event. t= 723 (32165) Note Off ch=2 par1=54 par2=64
Channel Event. t= 170 (32335) Note On ch=2 par1=54 par2=81
Channel Event. t= 480 (32815) Note On ch=2 par1=62 par2=71
Channel Event. t= 2 (32817) Note Off ch=2 par1=54 par2=64
Channel Event. t= 478 (33295) Controller ch=2 par1=7 (Main Volume) par2=79
Channel Event. t= 0 (33295) Note On ch=2 par1=59 par2=87
Channel Event. t= 55 (33350) Note Off ch=2 par1=62 par2=64
Channel Event. t= 125 (33475) Controller ch=2 par1=7 (Main Volume) par2=78
Channel Event. t= 120 (33595) Controller ch=2 par1=7 (Main Volume) par2=77
Channel Event. t= 120 (33715) Controller ch=2 par1=7 (Main Volume) par2=76
Channel Event. t= 120 (33835) Controller ch=2 par1=7 (Main Volume) par2=75
Channel Event. t= 120 (33955) Controller ch=2 par1=7 (Main Volume) par2=74
Channel Event. t= 120 (34075) Controller ch=2 par1=7 (Main Volume) par2=73
Channel Event. t= 120 (34195) Controller ch=2 par1=7 (Main Volume) par2=72
Channel Event. t= 180 (34375) Controller ch=2 par1=7 (Main Volume) par2=71
Channel Event. t= 120 (34495) Controller ch=2 par1=7 (Main Volume) par2=70
Channel Event. t= 120 (34615) Controller ch=2 par1=7 (Main Volume) par2=69
Channel Event. t= 120 (34735) Controller ch=2 par1=7 (Main Volume) par2=68
Channel Event. t= 120 (34855) Controller ch=2 par1=7 (Main Volume) par2=67
Channel Event. t= 120 (34975) Controller ch=2 par1=7 (Main Volume) par2=66
Channel Event. t= 120 (35095) Controller ch=2 par1=7 (Main Volume) par2=65
Channel Event. t= 120 (35215) Controller ch=2 par1=7 (Main Volume) par2=64
Channel Event. t= 180 (35395) Controller ch=2 par1=7 (Main Volume) par2=63
Channel Event. t= 120 (35515) Controller ch=2 par1=7 (Main Volume) par2=62
Channel Event. t= 120 (35635) Controller ch=2 par1=7 (Main Volume) par2=61
Channel Event. t= 120 (35755) Controller ch=2 par1=7 (Main Volume) par2=60
Channel Event. t= 120 (35875) Controller ch=2 par1=7 (Main Volume) par2=59
Channel Event. t= 120 (35995) Controller ch=2 par1=7 (Main Volume) par2=58
Channel Event. t= 120 (36115) Controller ch=2 par1=7 (Main Volume) par2=57
Channel Event. t= 180 (36295) Controller ch=2 par1=7 (Main Volume) par2=56
Channel Event. t= 120 (36415) Controller ch=2 par1=7 (Main Volume) par2=55
Channel Event. t= 120 (36535) Controller ch=2 par1=7 (Main Volume) par2=54
Channel Event. t= 120 (36655) Controller ch=2 par1=7 (Main Volume) par2=53
Channel Event. t= 120 (36775) Controller ch=2 par1=7 (Main Volume) par2=52
Channel Event. t= 120 (36895) Controller ch=2 par1=7 (Main Volume) par2=51
Channel Event. t= 22 (36917) Note Off ch=2 par1=59 par2=64
Channel Event. t= 98 (37015) Controller ch=2 par1=7 (Main Volume) par2=50
Channel Event. t= 90 (37105) Controller ch=2 par1=7 (Main Volume) par2=60
Channel Event. t= 40 (37145) Note On ch=2 par1=64 par2=74
Channel Event. t= 110 (37255) Note Off ch=2 par1=64 par2=64
Channel Event. t= 325 (37580) Note On ch=2 par1=67 par2=50
Channel Event. t= 35 (37615) Note On ch=2 par1=72 par2=63
Channel Event. t= 17 (37632) Note On ch=2 par1=76 par2=73
Channel Event. t= 23 (37655) Note On ch=2 par1=79 par2=79
Channel Event. t= 37 (37692) Note Off ch=2 par1=67 par2=64
Channel Event. t= 15 (37707) Note Off ch=2 par1=72 par2=64
Channel Event. t= 0 (37707) Note Off ch=2 par1=76 par2=64
Channel Event. t= 18 (37725) Note Off ch=2 par1=79 par2=64
Channel Event. t= 370 (38095) Note On ch=2 par1=63 par2=80
Channel Event. t= 87 (38182) Note Off ch=2 par1=63 par2=64
Channel Event. t= 343 (38525) Note On ch=2 par1=67 par2=52
Channel Event. t= 30 (38555) Note On ch=2 par1=71 par2=73
Channel Event. t= 12 (38567) Note On ch=2 par1=75 par2=82
Channel Event. t= 15 (38582) Note On ch=2 par1=79 par2=76
Channel Event. t= 43 (38625) Note Off ch=2 par1=67 par2=64
Channel Event. t= 12 (38637) Note Off ch=2 par1=71 par2=64
Channel Event. t= 13 (38650) Note Off ch=2 par1=75 par2=64
Channel Event. t= 22 (38672) Note Off ch=2 par1=79 par2=64
Channel Event. t= 818 (39490) Note On ch=2 par1=67 par2=51
Channel Event. t= 35 (39525) Note On ch=2 par1=72 par2=62
Channel Event. t= 15 (39540) Note On ch=2 par1=76 par2=67
Channel Event. t= 15 (39555) Note On ch=2 par1=79 par2=80
Channel Event. t= 42 (39597) Note Off ch=2 par1=67 par2=64
Channel Event. t= 23 (39620) Note Off ch=2 par1=72 par2=64
Channel Event. t= 0 (39620) Note Off ch=2 par1=76 par2=64
Channel Event. t= 17 (39637) Note Off ch=2 par1=79 par2=64
Channel Event. t= 378 (40015) Note On ch=2 par1=63 par2=81
Channel Event. t= 55 (40070) Note Off ch=2 par1=63 par2=64
Channel Event. t= 362 (40432) Note On ch=2 par1=67 par2=43
Channel Event. t= 30 (40462) Note On ch=2 par1=71 par2=66
Channel Event. t= 10 (40472) Note On ch=2 par1=75 par2=76
Channel Event. t= 18 (40490) Note On ch=2 par1=79 par2=74
Channel Event. t= 60 (40550) Note Off ch=2 par1=67 par2=64
Channel Event. t= 10 (40560) Note Off ch=2 par1=71 par2=64
Channel Event. t= 15 (40575) Note Off ch=2 par1=75 par2=64
Channel Event. t= 20 (40595) Note Off ch=2 par1=79 par2=64
Channel Event. t= 775 (41370) Note On ch=2 par1=67 par2=44
Channel Event. t= 30 (41400) Note On ch=2 par1=72 par2=66
Channel Event. t= 27 (41427) Note On ch=2 par1=76 par2=61
Channel Event. t= 28 (41455) Note On ch=2 par1=79 par2=81
Channel Event. t= 25 (41480) Note Off ch=2 par1=67 par2=64
Channel Event. t= 12 (41492) Note Off ch=2 par1=72 par2=64
Channel Event. t= 5 (41497) Note Off ch=2 par1=76 par2=64
Channel Event. t= 43 (41540) Note Off ch=2 par1=79 par2=64
Channel Event. t= 395 (41935) Note On ch=2 par1=63 par2=75
Channel Event. t= 70 (42005) Note Off ch=2 par1=63 par2=64
Channel Event. t= 305 (42310) Note On ch=2 par1=67 par2=38
Channel Event. t= 35 (42345) Note On ch=2 par1=71 par2=69
Channel Event. t= 12 (42357) Note On ch=2 par1=75 par2=83
Channel Event. t= 58 (42415) Note On ch=2 par1=79 par2=75
Channel Event. t= 12 (42427) Note Off ch=2 par1=67 par2=64
Channel Event. t= 13 (42440) Note Off ch=2 par1=71 par2=64
Channel Event. t= 15 (42455) Note Off ch=2 par1=75 par2=64
Channel Event. t= 50 (42505) Note Off ch=2 par1=79 par2=64
Channel Event. t= 390 (42895) Note On ch=2 par1=64 par2=79
Channel Event. t= 92 (42987) Note Off ch=2 par1=64 par2=64
Channel Event. t= 293 (43280) Note On ch=2 par1=67 par2=45
Channel Event. t= 30 (43310) Note On ch=2 par1=72 par2=64
Channel Event. t= 25 (43335) Note On ch=2 par1=76 par2=64
Channel Event. t= 40 (43375) Note On ch=2 par1=79 par2=73
Channel Event. t= 22 (43397) Note Off ch=2 par1=67 par2=64
Channel Event. t= 13 (43410) Note Off ch=2 par1=72 par2=64
Channel Event. t= 2 (43412) Note Off ch=2 par1=76 par2=64
Channel Event. t= 48 (43460) Note Off ch=2 par1=79 par2=64
Channel Event. t= 395 (43855) Note On ch=2 par1=63 par2=80
Channel Event. t= 85 (43940) Note Off ch=2 par1=63 par2=64
Channel Event. t= 300 (44240) Note On ch=2 par1=67 par2=58
Channel Event. t= 22 (44262) Note On ch=2 par1=71 par2=78
Channel Event. t= 58 (44320) Note On ch=2 par1=75 par2=86
Channel Event. t= 15 (44335) Note On ch=2 par1=79 par2=76
Channel Event. t= 10 (44345) Note Off ch=2 par1=67 par2=64
Channel Event. t= 17 (44362) Note Off ch=2 par1=71 par2=64
Channel Event. t= 53 (44415) Note Off ch=2 par1=75 par2=64
Channel Event. t= 10 (44425) Note Off ch=2 par1=79 par2=64
Channel Event. t= 9870 (54295) Controller ch=2 par1=7 (Main Volume) par2=60
Channel Event. t= 90 (54385) Program Change ch=2 par1=84 par2=30
Channel Event. t= 2380 (56765) Program Change ch=2 par1=92 par2=-125
Channel Event. t= 106 (56871) Note Off ch=2 par1=76 par2=64
Channel Event. t= 470 (57341) Note On ch=2 par1=75 par2=98
Channel Event. t= 607 (57948) Note Off ch=2 par1=75 par2=64
Channel Event. t= 353 (58301) Note On ch=2 par1=76 par2=93
Channel Event. t= 552 (58853) Note Off ch=2 par1=76 par2=64
Channel Event. t= 408 (59261) Note On ch=2 par1=75 par2=97
Channel Event. t= 515 (59776) Note Off ch=2 par1=75 par2=64
Channel Event. t= 445 (60221) Note On ch=2 par1=76 par2=90
Channel Event. t= 565 (60786) Note Off ch=2 par1=76 par2=64
Channel Event. t= 395 (61181) Note On ch=2 par1=75 par2=94
Channel Event. t= 530 (61711) Note Off ch=2 par1=75 par2=64
Channel Event. t= 430 (62141) Note On ch=2 par1=76 par2=91
Channel Event. t= 522 (62663) Note Off ch=2 par1=76 par2=64
Channel Event. t= 438 (63101) Note On ch=2 par1=75 par2=96
Channel Event. t= 602 (63703) Note Off ch=2 par1=75 par2=64
Channel Event. t= 79078 (142781) Controller ch=2 par1=7 (Main Volume) par2=84
Channel Event. t= 180 (142961) Controller ch=2 par1=7 (Main Volume) par2=83
Channel Event. t= 180 (143141) Controller ch=2 par1=7 (Main Volume) par2=82
Channel Event. t= 180 (143321) Controller ch=2 par1=7 (Main Volume) par2=81
Channel Event. t= 120 (143441) Controller ch=2 par1=7 (Main Volume) par2=80
Channel Event. t= 180 (143621) Controller ch=2 par1=7 (Main Volume) par2=79
Channel Event. t= 180 (143801) Controller ch=2 par1=7 (Main Volume) par2=78
Channel Event. t= 180 (143981) Controller ch=2 par1=7 (Main Volume) par2=77
Channel Event. t= 120 (144101) Controller ch=2 par1=7 (Main Volume) par2=76
Channel Event. t= 180 (144281) Controller ch=2 par1=7 (Main Volume) par2=75
Channel Event. t= 180 (144461) Controller ch=2 par1=7 (Main Volume) par2=74
Channel Event. t= 180 (144641) Controller ch=2 par1=7 (Main Volume) par2=73
Channel Event. t= 92 (144733) Note On ch=2 par1=55 par2=56
Channel Event. t= 28 (144761) Controller ch=2 par1=7 (Main Volume) par2=72
Channel Event. t= 180 (144941) Controller ch=2 par1=7 (Main Volume) par2=71
Channel Event. t= 180 (145121) Controller ch=2 par1=7 (Main Volume) par2=70
Channel Event. t= 180 (145301) Controller ch=2 par1=7 (Main Volume) par2=69
Channel Event. t= 120 (145421) Controller ch=2 par1=7 (Main Volume) par2=68
Channel Event. t= 180 (145601) Controller ch=2 par1=7 (Main Volume) par2=67
Channel Event. t= 62 (145663) Note On ch=2 par1=57 par2=54
Channel Event. t= 68 (145731) Note Off ch=2 par1=55 par2=64
Channel Event. t= 50 (145781) Controller ch=2 par1=7 (Main Volume) par2=66
Channel Event. t= 180 (145961) Controller ch=2 par1=7 (Main Volume) par2=65
Channel Event. t= 120 (146081) Controller ch=2 par1=7 (Main Volume) par2=64
Channel Event. t= 180 (146261) Controller ch=2 par1=7 (Main Volume) par2=63
Channel Event. t= 180 (146441) Controller ch=2 par1=7 (Main Volume) par2=62
Channel Event. t= 145 (146586) Note On ch=2 par1=60 par2=83
Channel Event. t= 30 (146616) Note Off ch=2 par1=57 par2=64
Channel Event. t= 5 (146621) Controller ch=2 par1=7 (Main Volume) par2=61
Channel Event. t= 120 (146741) Controller ch=2 par1=7 (Main Volume) par2=60
Channel Event. t= 180 (146921) Controller ch=2 par1=7 (Main Volume) par2=59
Channel Event. t= 180 (147101) Controller ch=2 par1=7 (Main Volume) par2=58
Channel Event. t= 180 (147281) Controller ch=2 par1=7 (Main Volume) par2=57
Channel Event. t= 120 (147401) Controller ch=2 par1=7 (Main Volume) par2=56
Channel Event. t= 172 (147573) Note On ch=2 par1=67 par2=79
Channel Event. t= 8 (147581) Controller ch=2 par1=7 (Main Volume) par2=55
Channel Event. t= 37 (147618) Note Off ch=2 par1=60 par2=64
Channel Event. t= 143 (147761) Controller ch=2 par1=7 (Main Volume) par2=54
Channel Event. t= 120 (147881) Controller ch=2 par1=7 (Main Volume) par2=53
Channel Event. t= 180 (148061) Controller ch=2 par1=7 (Main Volume) par2=52
Channel Event. t= 180 (148241) Controller ch=2 par1=7 (Main Volume) par2=51
Channel Event. t= 45 (148286) Note On ch=2 par1=69 par2=86
Channel Event. t= 55 (148341) Note Off ch=2 par1=67 par2=64
Channel Event. t= 80 (148421) Controller ch=2 par1=7 (Main Volume) par2=50
Channel Event. t= 105 (148526) Note On ch=2 par1=72 par2=93
Channel Event. t= 37 (148563) Note Off ch=2 par1=69 par2=64
Channel Event. t= 428 (148991) Note On ch=2 par1=76 par2=93
Channel Event. t= 30 (149021) Note Off ch=2 par1=72 par2=64
Channel Event. t= 467 (149488) Note On ch=2 par1=72 par2=94
Channel Event. t= 48 (149536) Note Off ch=2 par1=76 par2=64
Channel Event. t= 590 (150126) Note Off ch=2 par1=72 par2=64
Channel Event. t= 125 (150251) Note On ch=2 par1=69 par2=81
Channel Event. t= 200 (150451) Note On ch=2 par1=72 par2=93
Channel Event. t= 45 (150496) Note Off ch=2 par1=69 par2=64
Channel Event. t= 437 (150933) Note On ch=2 par1=76 par2=75
Channel Event. t= 30 (150963) Note Off ch=2 par1=72 par2=64
Channel Event. t= 443 (151406) Note On ch=2 par1=75 par2=92
Channel Event. t= 52 (151458) Note Off ch=2 par1=76 par2=64
Channel Event. t= 670 (152128) Note Off ch=2 par1=75 par2=64
Channel Event. t= 33 (152161) Note On ch=2 par1=76 par2=82
Channel Event. t= 237 (152398) Note On ch=2 par1=72 par2=91
Channel Event. t= 40 (152438) Note Off ch=2 par1=76 par2=64
Channel Event. t= 430 (152868) Note On ch=2 par1=69 par2=86
Channel Event. t= 25 (152893) Note Off ch=2 par1=72 par2=64
Channel Event. t= 445 (153338) Note On ch=2 par1=67 par2=82
Channel Event. t= 53 (153391) Note Off ch=2 par1=69 par2=64
Channel Event. t= 422 (153813) Note On ch=2 par1=65 par2=86
Channel Event. t= 43 (153856) Note Off ch=2 par1=67 par2=64
Channel Event. t= 375 (154231) Note Off ch=2 par1=65 par2=64
Channel Event. t= 87 (154318) Note On ch=2 par1=63 par2=100
Channel Event. t= 935 (155253) Note On ch=2 par1=70 par2=80
Channel Event. t= 23 (155276) Note Off ch=2 par1=63 par2=64
Channel Event. t= 450 (155726) Note On ch=2 par1=74 par2=76
Channel Event. t= 25 (155751) Note Off ch=2 par1=70 par2=64
Channel Event. t= 467 (156218) Note On ch=2 par1=63 par2=92
Channel Event. t= 43 (156261) Note Off ch=2 par1=74 par2=64
Channel Event. t= 925 (157186) Note On ch=2 par1=70 par2=82
Channel Event. t= 42 (157228) Note Off ch=2 par1=63 par2=64
Channel Event. t= 428 (157656) Note On ch=2 par1=74 par2=89
Channel Event. t= 22 (157678) Note Off ch=2 par1=70 par2=64
Channel Event. t= 483 (158161) Note On ch=2 par1=70 par2=88
Channel Event. t= 55 (158216) Note Off ch=2 par1=74 par2=64
Channel Event. t= 850 (159066) Note On ch=2 par1=65 par2=78
Channel Event. t= 52 (159118) Note Off ch=2 par1=70 par2=64
Channel Event. t= 943 (160061) Note On ch=2 par1=63 par2=85
Channel Event. t= 57 (160118) Note Off ch=2 par1=65 par2=64
Channel Event. t= 1300 (161418) Note Off ch=2 par1=63 par2=64
Channel Event. t= 40 (161458) Note On ch=2 par1=66 par2=91
Channel Event. t= 503 (161961) Note On ch=2 par1=67 par2=85
Channel Event. t= 2 (161963) Note On ch=2 par1=63 par2=95
Channel Event. t= 53 (162016) Note Off ch=2 par1=66 par2=64
Channel Event. t= 927 (162943) Note On ch=2 par1=70 par2=96
Channel Event. t= 45 (162988) Note Off ch=2 par1=67 par2=64
Channel Event. t= 0 (162988) Note Off ch=2 par1=63 par2=64
Channel Event. t= 675 (163663) Note On ch=2 par1=72 par2=84
Channel Event. t= 8 (163671) Note Off ch=2 par1=70 par2=64
Channel Event. t= 210 (163881) Note On ch=2 par1=75 par2=97
Channel Event. t= 50 (163931) Note Off ch=2 par1=72 par2=64
Channel Event. t= 430 (164361) Note On ch=2 par1=79 par2=84
Channel Event. t= 27 (164388) Note Off ch=2 par1=75 par2=64
Channel Event. t= 465 (164853) Note On ch=2 par1=75 par2=93
Channel Event. t= 55 (164908) Note Off ch=2 par1=79 par2=64
Channel Event. t= 655 (165563) Note On ch=2 par1=72 par2=85
Channel Event. t= 33 (165596) Note Off ch=2 par1=75 par2=64
Channel Event. t= 197 (165793) Note On ch=2 par1=75 par2=91
Channel Event. t= 58 (165851) Note Off ch=2 par1=72 par2=64
Channel Event. t= 445 (166296) Note On ch=2 par1=79 par2=86
Channel Event. t= 30 (166326) Note Off ch=2 par1=75 par2=64
Channel Event. t= 472 (166798) Note On ch=2 par1=78 par2=92
Channel Event. t= 53 (166851) Note Off ch=2 par1=79 par2=64
Channel Event. t= 632 (167483) Note On ch=2 par1=79 par2=80
Channel Event. t= 40 (167523) Note Off ch=2 par1=78 par2=64
Channel Event. t= 220 (167743) Note On ch=2 par1=75 par2=97
Channel Event. t= 48 (167791) Note Off ch=2 par1=79 par2=64
Channel Event. t= 435 (168226) Note On ch=2 par1=72 par2=88
Channel Event. t= 47 (168273) Note Off ch=2 par1=75 par2=64
Channel Event. t= 428 (168701) Note On ch=2 par1=70 par2=90
Channel Event. t= 52 (168753) Note Off ch=2 par1=72 par2=64
Channel Event. t= 428 (169181) Note On ch=2 par1=68 par2=84
Channel Event. t= 37 (169218) Note Off ch=2 par1=70 par2=64
Channel Event. t= 448 (169666) Note On ch=2 par1=66 par2=94
Channel Event. t= 15 (169681) Note Off ch=2 par1=68 par2=64
Channel Event. t= 412 (170093) Note Off ch=2 par1=66 par2=64
Channel Event. t= 55 (170148) Note On ch=2 par1=66 par2=69
Channel Event. t= 230 (170378) Note On ch=2 par1=74 par2=85
Channel Event. t= 30 (170408) Note Off ch=2 par1=66 par2=64
Channel Event. t= 228 (170636) Note On ch=2 par1=66 par2=91
Channel Event. t= 62 (170698) Note Off ch=2 par1=74 par2=64
Channel Event. t= 375 (171073) Note Off ch=2 par1=66 par2=64
Channel Event. t= 45 (171118) Note On ch=2 par1=66 par2=91
Channel Event. t= 223 (171341) Note On ch=2 par1=74 par2=89
Channel Event. t= 32 (171373) Note Off ch=2 par1=66 par2=64
Channel Event. t= 215 (171588) Note On ch=2 par1=67 par2=92
Channel Event. t= 35 (171623) Note Off ch=2 par1=74 par2=64
Channel Event. t= 313 (171936) Note Off ch=2 par1=67 par2=64
Channel Event. t= 3125 (175061) Controller ch=2 par1=7 (Main Volume) par2=56
Channel Event. t= 347 (175408) Note On ch=2 par1=68 par2=91
Channel Event. t= 235 (175643) Note On ch=2 par1=71 par2=76
Channel Event. t= 70 (175713) Note Off ch=2 par1=68 par2=64
Channel Event. t= 55 (175768) Note On ch=2 par1=63 par2=80
Channel Event. t= 53 (175821) Note Off ch=2 par1=71 par2=64
Channel Event. t= 82 (175903) Note On ch=2 par1=68 par2=88
Channel Event. t= 43 (175946) Note Off ch=2 par1=63 par2=64
Channel Event. t= 195 (176141) Note On ch=2 par1=71 par2=78
Channel Event. t= 55 (176196) Note Off ch=2 par1=68 par2=64
Channel Event. t= 70 (176266) Note On ch=2 par1=63 par2=86
Channel Event. t= 70 (176336) Note Off ch=2 par1=71 par2=64
Channel Event. t= 67 (176403) Note On ch=2 par1=68 par2=96
Channel Event. t= 40 (176443) Note Off ch=2 par1=63 par2=64
Channel Event. t= 698 (177141) Note Off ch=2 par1=68 par2=64
Channel Event. t= 210 (177351) Note On ch=2 par1=56 par2=93
Channel Event. t= 242 (177593) Note On ch=2 par1=58 par2=92
Channel Event. t= 38 (177631) Note Off ch=2 par1=56 par2=64
Channel Event. t= 92 (177723) Note Off ch=2 par1=58 par2=64
Channel Event. t= 113 (177836) Note On ch=2 par1=59 par2=95
Channel Event. t= 232 (178068) Note On ch=2 par1=61 par2=92
Channel Event. t= 60 (178128) Note Off ch=2 par1=59 par2=64
Channel Event. t= 83 (178211) Note Off ch=2 par1=61 par2=64
Channel Event. t= 107 (178318) Note On ch=2 par1=62 par2=97
Channel Event. t= 240 (178558) Note On ch=2 par1=64 par2=87
Channel Event. t= 55 (178613) Note Off ch=2 par1=62 par2=64
Channel Event. t= 70 (178683) Note Off ch=2 par1=64 par2=64
Channel Event. t= 123 (178806) Note On ch=2 par1=65 par2=97
Channel Event. t= 220 (179026) Note On ch=2 par1=66 par2=97
Channel Event. t= 55 (179081) Note Off ch=2 par1=65 par2=64
Channel Event. t= 75 (179156) Note Off ch=2 par1=66 par2=64
Channel Event. t= 105 (179261) Note On ch=2 par1=72 par2=109
Channel Event. t= 960 (180221) Note On ch=2 par1=67 par2=110
Channel Event. t= 2 (180223) Note Off ch=2 par1=72 par2=64
Channel Event. t= 238 (180461) Note Off ch=2 par1=67 par2=64
Channel Event. t= 0 (180461) 
Meta Event. Type: 0x2f (47dec), End of Track (0 bytes): 
track #8
track size: 3310
Channel Event. t= 0 (0) 
Meta Event. Type: 0x3 (3dec), Sequence/Track Name (20 bytes): French Horn         
Channel Event. t= 0 (0) 
Meta Event. Type: 0x21 (33dec), MIDI Port (1 bytes): 0
Channel Event. t= 0 (0) 
Meta Event. Type: 0x20 (32dec), MIDI Channel Prefix (1 bytes): 3
Channel Event. t= 0 (0) Controller ch=3 par1=10 (Pan) par2=64
Channel Event. t= 0 (0) Controller ch=3 par1=91 (Effects 2 Depth (formerly Tremolo Depth)) par2=127
Channel Event. t= 0 (0) Program Change ch=3 par1=92 par2=-98
Channel Event. t= 0 (0) Controller ch=3 par1=10 (Pan) par2=75
Channel Event. t= 0 (0) Program Change ch=3 par1=48 par2=-126
Channel Event. t= 104 (104) Controller ch=3 par1=7 (Main Volume) par2=80
Channel Event. t= 1560 (1664) Note On ch=3 par1=52 par2=77
Channel Event. t= 450 (2114) Note Off ch=3 par1=52 par2=64
Channel Event. t= 30 (2144) Note On ch=3 par1=52 par2=67
Channel Event. t= 0 (2144) Note On ch=3 par1=55 par2=65
Channel Event. t= 427 (2571) Note Off ch=3 par1=55 par2=64
Channel Event. t= 48 (2619) Note Off ch=3 par1=52 par2=64
Channel Event. t= 5 (2624) Note On ch=3 par1=57 par2=63
Channel Event. t= 0 (2624) Note On ch=3 par1=55 par2=61
Channel Event. t= 360 (2984) Note Off ch=3 par1=57 par2=64
Channel Event. t= 52 (3036) Note Off ch=3 par1=55 par2=64
Channel Event. t= 68 (3104) Note On ch=3 par1=52 par2=43
Channel Event. t= 0 (3104) Note On ch=3 par1=57 par2=56
Channel Event. t= 347 (3451) Note Off ch=3 par1=52 par2=64
Channel Event. t= 43 (3494) Note Off ch=3 par1=57 par2=64
Channel Event. t= 90 (3584) Note On ch=3 par1=52 par2=75
Channel Event. t= 400 (3984) Note Off ch=3 par1=52 par2=64
Channel Event. t= 80 (4064) Note On ch=3 par1=57 par2=63
Channel Event. t= 0 (4064) Note On ch=3 par1=52 par2=55
Channel Event. t= 392 (4456) Note Off ch=3 par1=57 par2=64
Channel Event. t= 10 (4466) Note Off ch=3 par1=52 par2=64
Channel Event. t= 78 (4544) Note On ch=3 par1=55 par2=73
Channel Event. t= 480 (5024) Note On ch=3 par1=52 par2=57
Channel Event. t= 0 (5024) Note On ch=3 par1=57 par2=61
Channel Event. t= 25 (5049) Note Off ch=3 par1=55 par2=64
Channel Event. t= 312 (5361) Note Off ch=3 par1=52 par2=64
Channel Event. t= 5 (5366) Note Off ch=3 par1=57 par2=64
Channel Event. t= 138 (5504) Note On ch=3 par1=52 par2=76
Channel Event. t= 352 (5856) Note Off ch=3 par1=52 par2=64
Channel Event. t= 128 (5984) Note On ch=3 par1=55 par2=62
Channel Event. t= 0 (5984) Note On ch=3 par1=52 par2=65
Channel Event. t= 480 (6464) Note On ch=3 par1=51 par2=73
Channel Event. t= 0 (6464) Note On ch=3 par1=54 par2=80
Channel Event. t= 25 (6489) Note Off ch=3 par1=55 par2=64
Channel Event. t= 57 (6546) Note Off ch=3 par1=52 par2=64
Channel Event. t= 323 (6869) Note Off ch=3 par1=51 par2=64
Channel Event. t= 30 (6899) Note Off ch=3 par1=54 par2=64
Channel Event. t= 45 (6944) Note On ch=3 par1=51 par2=69
Channel Event. t= 0 (6944) Note On ch=3 par1=54 par2=68
Channel Event. t= 460 (7404) Note Off ch=3 par1=54 par2=64
Channel Event. t= 2 (7406) Note Off ch=3 par1=51 par2=64
Channel Event. t= 18 (7424) Note On ch=3 par1=52 par2=90
Channel Event. t= 395 (7819) Note Off ch=3 par1=52 par2=64
Channel Event. t= 85 (7904) Note On ch=3 par1=52 par2=53
Channel Event. t= 0 (7904) Note On ch=3 par1=55 par2=73
Channel Event. t= 405 (8309) Note Off ch=3 par1=55 par2=64
Channel Event. t= 2 (8311) Note Off ch=3 par1=52 par2=64
Channel Event. t= 73 (8384) Note On ch=3 par1=57 par2=64
Channel Event. t= 0 (8384) Note On ch=3 par1=55 par2=55
Channel Event. t= 395 (8779) Note Off ch=3 par1=57 par2=64
Channel Event. t= 40 (8819) Note Off ch=3 par1=55 par2=64
Channel Event. t= 45 (8864) Note On ch=3 par1=52 par2=63
Channel Event. t= 0 (8864) Note On ch=3 par1=57 par2=63
Channel Event. t= 472 (9336) Note Off ch=3 par1=52 par2=64
Channel Event. t= 20 (9356) Note Off ch=3 par1=57 par2=64
Channel Event. t= 468 (9824) Note On ch=3 par1=48 par2=66
Channel Event. t= 0 (9824) Note On ch=3 par1=56 par2=81
Channel Event. t= 457 (10281) Note Off ch=3 par1=48 par2=64
Channel Event. t= 43 (10324) Note Off ch=3 par1=56 par2=64
Channel Event. t= 460 (10784) Note On ch=3 par1=55 par2=56
Channel Event. t= 0 (10784) Note On ch=3 par1=59 par2=68
Channel Event. t= 447 (11231) Note Off ch=3 par1=59 par2=64
Channel Event. t= 20 (11251) Note Off ch=3 par1=55 par2=64
Channel Event. t= 493 (11744) Note On ch=3 par1=48 par2=67
Channel Event. t= 0 (11744) Note On ch=3 par1=56 par2=81
Channel Event. t= 442 (12186) Note Off ch=3 par1=48 par2=64
Channel Event. t= 8 (12194) Note Off ch=3 par1=56 par2=64
Channel Event. t= 510 (12704) Note On ch=3 par1=59 par2=66
Channel Event. t= 0 (12704) Note On ch=3 par1=53 par2=65
Channel Event. t= 440 (13144) Note Off ch=3 par1=59 par2=64
Channel Event. t= 10 (13154) Note Off ch=3 par1=53 par2=64
Channel Event. t= 510 (13664) Note On ch=3 par1=60 par2=73
Channel Event. t= 0 (13664) Note On ch=3 par1=51 par2=75
Channel Event. t= 412 (14076) Note Off ch=3 par1=51 par2=64
Channel Event. t= 5 (14081) Note Off ch=3 par1=60 par2=64
Channel Event. t= 543 (14624) Note On ch=3 par1=50 par2=63
Channel Event. t= 0 (14624) Note On ch=3 par1=58 par2=72
Channel Event. t= 365 (14989) Note Off ch=3 par1=50 par2=64
Channel Event. t= 12 (15001) Note Off ch=3 par1=58 par2=64
Channel Event. t= 583 (15584) Note On ch=3 par1=55 par2=48
Channel Event. t= 0 (15584) Note On ch=3 par1=58 par2=55
Channel Event. t= 537 (16121) Note Off ch=3 par1=55 par2=64
Channel Event. t= 13 (16134) Note Off ch=3 par1=58 par2=64
Channel Event. t= 1370 (17504) Note On ch=3 par1=48 par2=53
Channel Event. t= 0 (17504) Note On ch=3 par1=51 par2=66
Channel Event. t= 445 (17949) Note Off ch=3 par1=51 par2=64
Channel Event. t= 15 (17964) Note Off ch=3 par1=48 par2=64
Channel Event. t= 500 (18464) Note On ch=3 par1=53 par2=61
Channel Event. t= 0 (18464) Note On ch=3 par1=58 par2=64
Channel Event. t= 320 (18784) Note Off ch=3 par1=53 par2=64
Channel Event. t= 10 (18794) Note Off ch=3 par1=58 par2=64
Channel Event. t= 150 (18944) Note On ch=3 par1=55 par2=79
Channel Event. t= 360 (19304) Note Off ch=3 par1=55 par2=64
Channel Event. t= 120 (19424) Note On ch=3 par1=55 par2=60
Channel Event. t= 0 (19424) Note On ch=3 par1=60 par2=67
Channel Event. t= 437 (19861) Note Off ch=3 par1=60 par2=64
Channel Event. t= 35 (19896) Note Off ch=3 par1=55 par2=64
Channel Event. t= 8 (19904) Note On ch=3 par1=58 par2=78
Channel Event. t= 397 (20301) Note Off ch=3 par1=58 par2=64
Channel Event. t= 83 (20384) Note On ch=3 par1=55 par2=50
Channel Event. t= 0 (20384) Note On ch=3 par1=58 par2=51
Channel Event. t= 287 (20671) Note Off ch=3 par1=58 par2=64
Channel Event. t= 48 (20719) Note Off ch=3 par1=55 par2=64
Channel Event. t= 145 (20864) Note On ch=3 par1=55 par2=81
Channel Event. t= 430 (21294) Note Off ch=3 par1=55 par2=64
Channel Event. t= 50 (21344) Note On ch=3 par1=58 par2=71
Channel Event. t= 0 (21344) Note On ch=3 par1=55 par2=64
Channel Event. t= 360 (21704) Note Off ch=3 par1=58 par2=64
Channel Event. t= 85 (21789) Note Off ch=3 par1=55 par2=64
Channel Event. t= 35 (21824) Note On ch=3 par1=57 par2=59
Channel Event. t= 0 (21824) Note On ch=3 par1=54 par2=53
Channel Event. t= 375 (22199) Note Off ch=3 par1=57 par2=64
Channel Event. t= 7 (22206) Note Off ch=3 par1=54 par2=64
Channel Event. t= 98 (22304) Note On ch=3 par1=57 par2=55
Channel Event. t= 0 (22304) Note On ch=3 par1=54 par2=65
Channel Event. t= 422 (22726) Note Off ch=3 par1=57 par2=64
Channel Event. t= 25 (22751) Note Off ch=3 par1=54 par2=64
Channel Event. t= 33 (22784) Note On ch=3 par1=55 par2=78
Channel Event. t= 380 (23164) Note Off ch=3 par1=55 par2=64
Channel Event. t= 100 (23264) Note On ch=3 par1=58 par2=79
Channel Event. t= 0 (23264) Note On ch=3 par1=55 par2=69
Channel Event. t= 382 (23646) Note Off ch=3 par1=58 par2=64
Channel Event. t= 23 (23669) Note Off ch=3 par1=55 par2=64
Channel Event. t= 75 (23744) Note On ch=3 par1=55 par2=73
Channel Event. t= 467 (24211) Note Off ch=3 par1=55 par2=64
Channel Event. t= 13 (24224) Note On ch=3 par1=53 par2=73
Channel Event. t= 467 (24691) Note Off ch=3 par1=53 par2=64
Channel Event. t= 13 (24704) Note On ch=3 par1=50 par2=83
Channel Event. t= 1912 (26616) Note Off ch=3 par1=50 par2=64
Channel Event. t= 8 (26624) Note On ch=3 par1=50 par2=85
Channel Event. t= 1887 (28511) Note Off ch=3 par1=50 par2=64
Channel Event. t= 33 (28544) Controller ch=3 par1=7 (Main Volume) par2=79
Channel Event. t= 0 (28544) Note On ch=3 par1=57 par2=73
Channel Event. t= 180 (28724) Controller ch=3 par1=7 (Main Volume) par2=78
Channel Event. t= 120 (28844) Controller ch=3 par1=7 (Main Volume) par2=77
Channel Event. t= 120 (28964) Controller ch=3 par1=7 (Main Volume) par2=76
Channel Event. t= 60 (29024) Note On ch=3 par1=50 par2=71
Channel Event. t= 27 (29051) Note Off ch=3 par1=57 par2=64
Channel Event. t= 33 (29084) Controller ch=3 par1=7 (Main Volume) par2=75
Channel Event. t= 120 (29204) Controller ch=3 par1=7 (Main Volume) par2=74
Channel Event. t= 120 (29324) Controller ch=3 par1=7 (Main Volume) par2=73
Channel Event. t= 120 (29444) Controller ch=3 par1=7 (Main Volume) par2=72
Channel Event. t= 60 (29504) Note Off ch=3 par1=50 par2=64
Channel Event. t= 0 (29504) Note On ch=3 par1=55 par2=75
Channel Event. t= 120 (29624) Controller ch=3 par1=7 (Main Volume) par2=71
Channel Event. t= 120 (29744) Controller ch=3 par1=7 (Main Volume) par2=70
Channel Event. t= 120 (29864) Controller ch=3 par1=7 (Main Volume) par2=69
Channel Event. t= 75 (29939) Note Off ch=3 par1=55 par2=64
Channel Event. t= 45 (29984) Controller ch=3 par1=7 (Main Volume) par2=68
Channel Event. t= 0 (29984) Note On ch=3 par1=57 par2=76
Channel Event. t= 120 (30104) Controller ch=3 par1=7 (Main Volume) par2=67
Channel Event. t= 120 (30224) Controller ch=3 par1=7 (Main Volume) par2=66
Channel Event. t= 120 (30344) Controller ch=3 par1=7 (Main Volume) par2=65
Channel Event. t= 120 (30464) Controller ch=3 par1=7 (Main Volume) par2=64
Channel Event. t= 0 (30464) Note On ch=3 par1=55 par2=76
Channel Event. t= 27 (30491) Note Off ch=3 par1=57 par2=64
Channel Event. t= 153 (30644) Controller ch=3 par1=7 (Main Volume) par2=63
Channel Event. t= 120 (30764) Controller ch=3 par1=7 (Main Volume) par2=62
Channel Event. t= 120 (30884) Controller ch=3 par1=7 (Main Volume) par2=61
Channel Event. t= 52 (30936) Note Off ch=3 par1=55 par2=64
Channel Event. t= 8 (30944) Note On ch=3 par1=53 par2=79
Channel Event. t= 60 (31004) Controller ch=3 par1=7 (Main Volume) par2=60
Channel Event. t= 120 (31124) Controller ch=3 par1=7 (Main Volume) par2=59
Channel Event. t= 120 (31244) Controller ch=3 par1=7 (Main Volume) par2=58
Channel Event. t= 120 (31364) Controller ch=3 par1=7 (Main Volume) par2=57
Channel Event. t= 60 (31424) Note On ch=3 par1=52 par2=69
Channel Event. t= 47 (31471) Note Off ch=3 par1=53 par2=64
Channel Event. t= 73 (31544) Controller ch=3 par1=7 (Main Volume) par2=56
Channel Event. t= 120 (31664) Controller ch=3 par1=7 (Main Volume) par2=55
Channel Event. t= 120 (31784) Controller ch=3 par1=7 (Main Volume) par2=54
Channel Event. t= 120 (31904) Controller ch=3 par1=7 (Main Volume) par2=53
Channel Event. t= 0 (31904) Note On ch=3 par1=50 par2=67
Channel Event. t= 35 (31939) Note Off ch=3 par1=52 par2=64
Channel Event. t= 85 (32024) Controller ch=3 par1=7 (Main Volume) par2=52
Channel Event. t= 120 (32144) Controller ch=3 par1=7 (Main Volume) par2=51
Channel Event. t= 120 (32264) Controller ch=3 par1=7 (Main Volume) par2=50
Channel Event. t= 120 (32384) Note Off ch=3 par1=50 par2=64
Channel Event. t= 0 (32384) Note On ch=3 par1=48 par2=71
Channel Event. t= 0 (32384) Controller ch=3 par1=7 (Main Volume) par2=60
Channel Event. t= 480 (32864) Note On ch=3 par1=55 par2=69
Channel Event. t= 0 (32864) Note On ch=3 par1=60 par2=71
Channel Event. t= 20 (32884) Note Off ch=3 par1=48 par2=64
Channel Event. t= 372 (33256) Note Off ch=3 par1=55 par2=64
Channel Event. t= 15 (33271) Note Off ch=3 par1=60 par2=64
Channel Event. t= 553 (33824) Note On ch=3 par1=63 par2=68
Channel Event. t= 0 (33824) Note On ch=3 par1=54 par2=59
Channel Event. t= 290 (34114) Note Off ch=3 par1=54 par2=64
Channel Event. t= 15 (34129) Note Off ch=3 par1=63 par2=64
Channel Event. t= 655 (34784) Note On ch=3 par1=64 par2=52
Channel Event. t= 0 (34784) Note On ch=3 par1=55 par2=42
Channel Event. t= 252 (35036) Note Off ch=3 par1=55 par2=64
Channel Event. t= 28 (35064) Note Off ch=3 par1=64 par2=64
Channel Event. t= 680 (35744) Note On ch=3 par1=54 par2=44
Channel Event. t= 0 (35744) Note On ch=3 par1=63 par2=65
Channel Event. t= 207 (35951) Note Off ch=3 par1=54 par2=64
Channel Event. t= 43 (35994) Note Off ch=3 par1=63 par2=64
Channel Event. t= 710 (36704) Note On ch=3 par1=64 par2=46
Channel Event. t= 0 (36704) Note On ch=3 par1=55 par2=47
Channel Event. t= 202 (36906) Note Off ch=3 par1=64 par2=64
Channel Event. t= 25 (36931) Note Off ch=3 par1=55 par2=64
Channel Event. t= 733 (37664) Note On ch=3 par1=59 par2=58
Channel Event. t= 0 (37664) Note On ch=3 par1=54 par2=48
Channel Event. t= 185 (37849) Note Off ch=3 par1=54 par2=64
Channel Event. t= 12 (37861) Note Off ch=3 par1=59 par2=64
Channel Event. t= 763 (38624) Note On ch=3 par1=55 par2=60
Channel Event. t= 0 (38624) Note On ch=3 par1=64 par2=65
Channel Event. t= 170 (38794) Note Off ch=3 par1=55 par2=64
Channel Event. t= 70 (38864) Note Off ch=3 par1=64 par2=64
Channel Event. t= 480 (39344) Program Change ch=3 par1=92 par2=-127
Channel Event. t= 112 (39456) Note On ch=3 par1=59 par2=94
Channel Event. t= 357 (39813) Note Off ch=3 par1=59 par2=64
Channel Event. t= 123 (39936) Note On ch=3 par1=60 par2=94
Channel Event. t= 310 (40246) Note Off ch=3 par1=60 par2=64
Channel Event. t= 170 (40416) Note On ch=3 par1=62 par2=95
Channel Event. t= 347 (40763) Note Off ch=3 par1=62 par2=64
Channel Event. t= 133 (40896) Note On ch=3 par1=63 par2=92
Channel Event. t= 337 (41233) Note Off ch=3 par1=63 par2=64
Channel Event. t= 143 (41376) Note On ch=3 par1=59 par2=84
Channel Event. t= 317 (41693) Note Off ch=3 par1=59 par2=64
Channel Event. t= 163 (41856) Note On ch=3 par1=60 par2=89
Channel Event. t= 305 (42161) Note Off ch=3 par1=60 par2=64
Channel Event. t= 175 (42336) Note On ch=3 par1=62 par2=73
Channel Event. t= 265 (42601) Note Off ch=3 par1=62 par2=64
Channel Event. t= 215 (42816) Note On ch=3 par1=63 par2=97
Channel Event. t= 320 (43136) Note Off ch=3 par1=63 par2=64
Channel Event. t= 160 (43296) Note On ch=3 par1=59 par2=84
Channel Event. t= 312 (43608) Note Off ch=3 par1=59 par2=64
Channel Event. t= 168 (43776) Note On ch=3 par1=60 par2=98
Channel Event. t= 192 (43968) Note Off ch=3 par1=60 par2=64
Channel Event. t= 48 (44016) Note On ch=3 par1=63 par2=77
Channel Event. t= 160 (44176) Note Off ch=3 par1=63 par2=64
Channel Event. t= 80 (44256) Note On ch=3 par1=64 par2=81
Channel Event. t= 160 (44416) Note Off ch=3 par1=64 par2=64
Channel Event. t= 80 (44496) Note On ch=3 par1=67 par2=76
Channel Event. t= 142 (44638) Note Off ch=3 par1=67 par2=64
Channel Event. t= 98 (44736) Note On ch=3 par1=71 par2=87
Channel Event. t= 480 (45216) Note Off ch=3 par1=71 par2=64
Channel Event. t= 0 (45216) Note On ch=3 par1=70 par2=96
Channel Event. t= 240 (45456) Note On ch=3 par1=71 par2=79
Channel Event. t= 12 (45468) Note Off ch=3 par1=70 par2=64
Channel Event. t= 178 (45646) Note Off ch=3 par1=71 par2=64
Channel Event. t= 50 (45696) Note On ch=3 par1=72 par2=86
Channel Event. t= 405 (46101) Note Off ch=3 par1=72 par2=64
Channel Event. t= 75 (46176) Note On ch=3 par1=76 par2=83
Channel Event. t= 360 (46536) Note Off ch=3 par1=76 par2=64
Channel Event. t= 120 (46656) Note On ch=3 par1=75 par2=107
Channel Event. t= 835 (47491) Note Off ch=3 par1=75 par2=64
Channel Event. t= 125 (47616) Note On ch=3 par1=72 par2=90
Channel Event. t= 272 (47888) Note Off ch=3 par1=72 par2=64
Channel Event. t= 208 (48096) Note On ch=3 par1=76 par2=86
Channel Event. t= 320 (48416) Note Off ch=3 par1=76 par2=64
Channel Event. t= 160 (48576) Note On ch=3 par1=75 par2=101
Channel Event. t= 217 (48793) Note Off ch=3 par1=75 par2=64
Channel Event. t= 23 (48816) Note On ch=3 par1=76 par2=94
Channel Event. t= 120 (48936) Note On ch=3 par1=75 par2=79
Channel Event. t= 12 (48948) Note Off ch=3 par1=76 par2=64
Channel Event. t= 108 (49056) Note On ch=3 par1=71 par2=81
Channel Event. t= 62 (49118) Note Off ch=3 par1=75 par2=64
Channel Event. t= 125 (49243) Note Off ch=3 par1=71 par2=64
Channel Event. t= 53 (49296) Note On ch=3 par1=66 par2=84
Channel Event. t= 230 (49526) Note Off ch=3 par1=66 par2=64
Channel Event. t= 10 (49536) Note On ch=3 par1=67 par2=77
Channel Event. t= 185 (49721) Note Off ch=3 par1=67 par2=64
Channel Event. t= 295 (50016) Note On ch=3 par1=72 par2=90
Channel Event. t= 272 (50288) Note Off ch=3 par1=72 par2=64
Channel Event. t= 208 (50496) Note On ch=3 par1=71 par2=92
Channel Event. t= 120 (50616) Note Off ch=3 par1=71 par2=64
Channel Event. t= 120 (50736) Note On ch=3 par1=72 par2=77
Channel Event. t= 120 (50856) Note On ch=3 par1=71 par2=72
Channel Event. t= 2 (50858) Note Off ch=3 par1=72 par2=64
Channel Event. t= 118 (50976) Note On ch=3 par1=67 par2=35
Channel Event. t= 40 (51016) Note Off ch=3 par1=71 par2=64
Channel Event. t= 0 (51016) Note On ch=3 par1=66 par2=45
Channel Event. t= 7 (51023) Note Off ch=3 par1=67 par2=64
Channel Event. t= 80 (51103) Note Off ch=3 par1=66 par2=64
Channel Event. t= 113 (51216) Note On ch=3 par1=63 par2=81
Channel Event. t= 157 (51373) Note Off ch=3 par1=63 par2=64
Channel Event. t= 83 (51456) Note On ch=3 par1=64 par2=93
Channel Event. t= 230 (51686) Note Off ch=3 par1=64 par2=64
Channel Event. t= 250 (51936) Note On ch=3 par1=67 par2=83
Channel Event. t= 230 (52166) Note Off ch=3 par1=67 par2=64
Channel Event. t= 250 (52416) Note On ch=3 par1=66 par2=98
Channel Event. t= 375 (52791) Note Off ch=3 par1=66 par2=64
Channel Event. t= 105 (52896) Note On ch=3 par1=62 par2=88
Channel Event. t= 240 (53136) Note On ch=3 par1=63 par2=82
Channel Event. t= 32 (53168) Note Off ch=3 par1=62 par2=64
Channel Event. t= 208 (53376) Note On ch=3 par1=64 par2=88
Channel Event. t= 22 (53398) Note Off ch=3 par1=63 par2=64
Channel Event. t= 210 (53608) Note Off ch=3 par1=64 par2=64
Channel Event. t= 248 (53856) Note On ch=3 par1=67 par2=85
Channel Event. t= 155 (54011) Note Off ch=3 par1=67 par2=64
Channel Event. t= 325 (54336) Note On ch=3 par1=66 par2=98
Channel Event. t= 432 (54768) Note Off ch=3 par1=66 par2=64
Channel Event. t= 48 (54816) Note On ch=3 par1=62 par2=91
Channel Event. t= 240 (55056) Note On ch=3 par1=63 par2=84
Channel Event. t= 82 (55138) Note Off ch=3 par1=62 par2=64
Channel Event. t= 158 (55296) Note On ch=3 par1=64 par2=90
Channel Event. t= 27 (55323) Note Off ch=3 par1=63 par2=64
Channel Event. t= 253 (55576) Note Off ch=3 par1=64 par2=64
Channel Event. t= 200 (55776) Note On ch=3 par1=67 par2=89
Channel Event. t= 207 (55983) Note Off ch=3 par1=67 par2=64
Channel Event. t= 273 (56256) Note On ch=3 par1=66 par2=91
Channel Event. t= 677 (56933) Note Off ch=3 par1=66 par2=64
Channel Event. t= 7843 (64776) Controller ch=3 par1=7 (Main Volume) par2=70
Channel Event. t= 90 (64866) Program Change ch=3 par1=84 par2=37
Channel Event. t= 2504 (67370) Program Change ch=3 par1=66 par2=120
Channel Event. t= 456 (67826) Program Change ch=3 par1=64 par2=113
Channel Event. t= 2499 (70325) Program Change ch=3 par1=58 par2=120
Channel Event. t= 451 (70776) Program Change ch=3 par1=64 par2=120
Channel Event. t= 2505 (73281) Program Change ch=3 par1=87 par2=120
Channel Event. t= 457 (73738) Program Change ch=3 par1=64 par2=-126
Channel Event. t= 104 (73842) Note On ch=3 par1=72 par2=72
Channel Event. t= 120 (73962) Note Off ch=3 par1=72 par2=64
Channel Event. t= 120 (74082) Note On ch=3 par1=67 par2=65
Channel Event. t= 120 (74202) Note Off ch=3 par1=67 par2=64
Channel Event. t= 120 (74322) Note On ch=3 par1=73 par2=91
Channel Event. t= 120 (74442) Note Off ch=3 par1=73 par2=64
Channel Event. t= 355 (74797) Note On ch=3 par1=72 par2=84
Channel Event. t= 125 (74922) Note Off ch=3 par1=72 par2=64
Channel Event. t= 360 (75282) Note On ch=3 par1=70 par2=80
Channel Event. t= 120 (75402) Note Off ch=3 par1=70 par2=64
Channel Event. t= 107 (75509) Note On ch=3 par1=68 par2=84
Channel Event. t= 120 (75629) Note Off ch=3 par1=68 par2=64
Channel Event. t= 133 (75762) Note On ch=3 par1=67 par2=93
Channel Event. t= 842 (76604) Note Off ch=3 par1=67 par2=64
Channel Event. t= 118 (76722) Note On ch=3 par1=72 par2=80
Channel Event. t= 235 (76957) Note On ch=3 par1=67 par2=63
Channel Event. t= 22 (76979) Note Off ch=3 par1=72 par2=64
Channel Event. t= 223 (77202) Note On ch=3 par1=71 par2=78
Channel Event. t= 5 (77207) Note Off ch=3 par1=67 par2=64
Channel Event. t= 230 (77437) Note On ch=3 par1=67 par2=73
Channel Event. t= 10 (77447) Note Off ch=3 par1=71 par2=64
Channel Event. t= 240 (77687) Note On ch=3 par1=72 par2=72
Channel Event. t= 7 (77694) Note Off ch=3 par1=67 par2=64
Channel Event. t= 235 (77929) Note On ch=3 par1=67 par2=64
Channel Event. t= 15 (77944) Note Off ch=3 par1=72 par2=64
Channel Event. t= 228 (78172) Note On ch=3 par1=71 par2=70
Channel Event. t= 17 (78189) Note Off ch=3 par1=67 par2=64
Channel Event. t= 218 (78407) Note On ch=3 par1=67 par2=65
Channel Event. t= 5 (78412) Note Off ch=3 par1=71 par2=64
Channel Event. t= 230 (78642) Note Off ch=3 par1=67 par2=64
Channel Event. t= 2407 (81049) Note On ch=3 par1=67 par2=76
Channel Event. t= 105 (81154) Note On ch=3 par1=70 par2=64
Channel Event. t= 28 (81182) Note Off ch=3 par1=67 par2=64
Channel Event. t= 95 (81277) Note On ch=3 par1=71 par2=69
Channel Event. t= 15 (81292) Note Off ch=3 par1=70 par2=64
Channel Event. t= 110 (81402) Note On ch=3 par1=72 par2=61
Channel Event. t= 7 (81409) Note Off ch=3 par1=71 par2=64
Channel Event. t= 108 (81517) Note On ch=3 par1=74 par2=86
Channel Event. t= 2 (81519) Note Off ch=3 par1=72 par2=64
Channel Event. t= 128 (81647) Note Off ch=3 par1=74 par2=64
Channel Event. t= 337 (81984) Note On ch=3 par1=74 par2=87
Channel Event. t= 120 (82104) Note On ch=3 par1=76 par2=63
Channel Event. t= 25 (82129) Note Off ch=3 par1=74 par2=64
Channel Event. t= 105 (82234) Note On ch=3 par1=78 par2=70
Channel Event. t= 18 (82252) Note Off ch=3 par1=76 par2=64
Channel Event. t= 95 (82347) Note On ch=3 par1=81 par2=69
Channel Event. t= 15 (82362) Note Off ch=3 par1=78 par2=64
Channel Event. t= 110 (82472) Note Off ch=3 par1=81 par2=64
Channel Event. t= 10 (82482) Note On ch=3 par1=79 par2=80
Channel Event. t= 217 (82699) Note Off ch=3 par1=79 par2=64
Channel Event. t= 143 (82842) Program Change ch=3 par1=92 par2=117
Channel Event. t= 2493 (85335) Program Change ch=3 par1=95 par2=-127
Channel Event. t= 115 (85450) Note On ch=3 par1=62 par2=80
Channel Event. t= 15 (85465) Note Off ch=3 par1=61 par2=64
Channel Event. t= 225 (85690) Note On ch=3 par1=59 par2=83
Channel Event. t= 12 (85702) Note Off ch=3 par1=62 par2=64
Channel Event. t= 245 (85947) Note Off ch=3 par1=59 par2=64
Channel Event. t= 240 (86187) Note On ch=3 par1=61 par2=82
Channel Event. t= 250 (86437) Note On ch=3 par1=62 par2=79
Channel Event. t= 10 (86447) Note Off ch=3 par1=61 par2=64
Channel Event. t= 228 (86675) Note On ch=3 par1=59 par2=89
Channel Event. t= 7 (86682) Note Off ch=3 par1=62 par2=64
Channel Event. t= 1688 (88370) Note Off ch=3 par1=59 par2=64
Channel Event. t= 4040 (92410) Note On ch=3 par1=59 par2=79
Channel Event. t= 0 (92410) Note On ch=3 par1=64 par2=68
Channel Event. t= 0 (92410) Note On ch=3 par1=67 par2=69
Channel Event. t= 240 (92650) Note On ch=3 par1=66 par2=86
Channel Event. t= 0 (92650) Note On ch=3 par1=63 par2=52
Channel Event. t= 0 (92650) Note On ch=3 par1=60 par2=76
Channel Event. t= 25 (92675) Note Off ch=3 par1=59 par2=64
Channel Event. t= 5 (92680) Note Off ch=3 par1=67 par2=64
Channel Event. t= 12 (92692) Note Off ch=3 par1=64 par2=64
Channel Event. t= 190 (92882) Note Off ch=3 par1=63 par2=64
Channel Event. t= 8 (92890) Note On ch=3 par1=67 par2=63
Channel Event. t= 0 (92890) Note On ch=3 par1=59 par2=84
Channel Event. t= 0 (92890) Note On ch=3 par1=64 par2=61
Channel Event. t= 25 (92915) Note Off ch=3 par1=66 par2=64
Channel Event. t= 40 (92955) Note Off ch=3 par1=60 par2=64
Channel Event. t= 175 (93130) Note On ch=3 par1=60 par2=87
Channel Event. t= 0 (93130) Note On ch=3 par1=63 par2=68
Channel Event. t= 0 (93130) Note On ch=3 par1=66 par2=86
Channel Event. t= 27 (93157) Note Off ch=3 par1=67 par2=64
Channel Event. t= 15 (93172) Note Off ch=3 par1=59 par2=64
Channel Event. t= 3 (93175) Note Off ch=3 par1=64 par2=64
Channel Event. t= 195 (93370) Note On ch=3 par1=59 par2=87
Channel Event. t= 0 (93370) Note On ch=3 par1=67 par2=66
Channel Event. t= 0 (93370) Note On ch=3 par1=64 par2=76
Channel Event. t= 37 (93407) Note Off ch=3 par1=63 par2=64
Channel Event. t= 20 (93427) Note Off ch=3 par1=60 par2=64
Channel Event. t= 33 (93460) Note Off ch=3 par1=66 par2=64
Channel Event. t= 82 (93542) Note Off ch=3 par1=64 par2=64
Channel Event. t= 28 (93570) Note Off ch=3 par1=67 par2=64
Channel Event. t= 22 (93592) Note Off ch=3 par1=59 par2=64
Channel Event. t= 258 (93850) Note On ch=3 par1=59 par2=86
Channel Event. t= 0 (93850) Note On ch=3 par1=64 par2=76
Channel Event. t= 0 (93850) Note On ch=3 par1=67 par2=76
Channel Event. t= 152 (94002) Note Off ch=3 par1=64 par2=64
Channel Event. t= 10 (94012) Note Off ch=3 par1=59 par2=64
Channel Event. t= 3 (94015) Note Off ch=3 par1=67 par2=64
Channel Event. t= 315 (94330) Note On ch=3 par1=67 par2=81
Channel Event. t= 0 (94330) Note On ch=3 par1=71 par2=85
Channel Event. t= 0 (94330) Note On ch=3 par1=64 par2=95
Channel Event. t= 480 (94810) Note On ch=3 par1=66 par2=88
Channel Event. t= 0 (94810) Note On ch=3 par1=60 par2=78
Channel Event. t= 0 (94810) Note On ch=3 par1=70 par2=79
Channel Event. t= 40 (94850) Note Off ch=3 par1=71 par2=64
Channel Event. t= 25 (94875) Note Off ch=3 par1=64 par2=64
Channel Event. t= 10 (94885) Note Off ch=3 par1=67 par2=64
Channel Event. t= 405 (95290) Note On ch=3 par1=67 par2=77
Channel Event. t= 0 (95290) Note On ch=3 par1=71 par2=61
Channel Event. t= 0 (95290) Note On ch=3 par1=64 par2=69
Channel Event. t= 12 (95302) Note Off ch=3 par1=60 par2=64
Channel Event. t= 23 (95325) Note Off ch=3 par1=66 par2=64
Channel Event. t= 22 (95347) Note Off ch=3 par1=70 par2=64
Channel Event. t= 365 (95712) Note Off ch=3 par1=67 par2=64
Channel Event. t= 58 (95770) Note Off ch=3 par1=64 par2=64
Channel Event. t= 0 (95770) Note On ch=3 par1=64 par2=81
Channel Event. t= 0 (95770) Note On ch=3 par1=67 par2=66
Channel Event. t= 0 (95770) Note On ch=3 par1=59 par2=79
Channel Event. t= 72 (95842) Note Off ch=3 par1=71 par2=64
Channel Event. t= 248 (96090) Note Off ch=3 par1=64 par2=64
Channel Event. t= 20 (96110) Note Off ch=3 par1=67 par2=64
Channel Event. t= 82 (96192) Note Off ch=3 par1=59 par2=64
Channel Event. t= 58 (96250) Note On ch=3 par1=69 par2=87
Channel Event. t= 0 (96250) Note On ch=3 par1=62 par2=82
Channel Event. t= 0 (96250) Note On ch=3 par1=57 par2=92
Channel Event. t= 1920 (98170) Note On ch=3 par1=52 par2=61
Channel Event. t= 0 (98170) Note On ch=3 par1=59 par2=85
Channel Event. t= 0 (98170) Note On ch=3 par1=55 par2=81
Channel Event. t= 65 (98235) Note Off ch=3 par1=62 par2=64
Channel Event. t= 7 (98242) Note Off ch=3 par1=69 par2=64
Channel Event. t= 15 (98257) Note Off ch=3 par1=57 par2=64
Channel Event. t= 1493 (99750) Note Off ch=3 par1=59 par2=64
Channel Event. t= 27 (99777) Note Off ch=3 par1=52 par2=64
Channel Event. t= 25 (99802) Note Off ch=3 par1=55 par2=64
Channel Event. t= 288 (100090) Note On ch=3 par1=59 par2=91
Channel Event. t= 0 (100090) Note On ch=3 par1=67 par2=79
Channel Event. t= 0 (100090) Note On ch=3 par1=71 par2=78
Channel Event. t= 240 (100330) Note Off ch=3 par1=71 par2=64
Channel Event. t= 0 (100330) Note On ch=3 par1=60 par2=76
Channel Event. t= 0 (100330) Note On ch=3 par1=70 par2=93
Channel Event. t= 0 (100330) Note On ch=3 par1=66 par2=70
Channel Event. t= 12 (100342) Note Off ch=3 par1=67 par2=64
Channel Event. t= 0 (100342) Note Off ch=3 par1=59 par2=64
Channel Event. t= 193 (100535) Note Off ch=3 par1=66 par2=64
Channel Event. t= 27 (100562) Note Off ch=3 par1=70 par2=64
Channel Event. t= 8 (100570) Note On ch=3 par1=59 par2=82
Channel Event. t= 0 (100570) Note On ch=3 par1=71 par2=69
Channel Event. t= 0 (100570) Note On ch=3 par1=67 par2=56
Channel Event. t= 42 (100612) Note Off ch=3 par1=60 par2=64
Channel Event. t= 198 (100810) Note On ch=3 par1=60 par2=74
Channel Event. t= 0 (100810) Note On ch=3 par1=70 par2=88
Channel Event. t= 0 (100810) Note On ch=3 par1=66 par2=69
Channel Event. t= 15 (100825) Note Off ch=3 par1=59 par2=64
Channel Event. t= 47 (100872) Note Off ch=3 par1=71 par2=64
Channel Event. t= 10 (100882) Note Off ch=3 par1=67 par2=64
Channel Event. t= 168 (101050) Note On ch=3 par1=71 par2=71
Channel Event. t= 0 (101050) Note On ch=3 par1=67 par2=69
Channel Event. t= 0 (101050) Note On ch=3 par1=59 par2=80
Channel Event. t= 10 (101060) Note Off ch=3 par1=66 par2=64
Channel Event. t= 5 (101065) Note Off ch=3 par1=70 par2=64
Channel Event. t= 35 (101100) Note Off ch=3 par1=60 par2=64
Channel Event. t= 267 (101367) Note Off ch=3 par1=59 par2=64
Channel Event. t= 93 (101460) Note Off ch=3 par1=71 par2=64
Channel Event. t= 2 (101462) Note Off ch=3 par1=67 par2=64
Channel Event. t= 68 (101530) Note On ch=3 par1=67 par2=81
Channel Event. t= 0 (101530) Note On ch=3 par1=71 par2=63
Channel Event. t= 0 (101530) Note On ch=3 par1=59 par2=89
Channel Event. t= 572 (102102) Note Off ch=3 par1=59 par2=64
Channel Event. t= 20 (102122) Note Off ch=3 par1=71 par2=64
Channel Event. t= 13 (102135) Note Off ch=3 par1=67 par2=64
Channel Event. t= 115 (102250) Note On ch=3 par1=70 par2=99
Channel Event. t= 0 (102250) Note On ch=3 par1=66 par2=86
Channel Event. t= 0 (102250) Note On ch=3 par1=60 par2=97
Channel Event. t= 240 (102490) Note Off ch=3 par1=66 par2=64
Channel Event. t= 0 (102490) Note On ch=3 par1=59 par2=85
Channel Event. t= 0 (102490) Note On ch=3 par1=71 par2=74
Channel Event. t= 0 (102490) Note On ch=3 par1=67 par2=75
Channel Event. t= 22 (102512) Note Off ch=3 par1=60 par2=64
Channel Event. t= 15 (102527) Note Off ch=3 par1=70 par2=64
Channel Event. t= 203 (102730) Note On ch=3 par1=60 par2=86
Channel Event. t= 0 (102730) Note On ch=3 par1=66 par2=73
Channel Event. t= 0 (102730) Note On ch=3 par1=70 par2=90
Channel Event. t= 22 (102752) Note Off ch=3 par1=59 par2=64
Channel Event. t= 8 (102760) Note Off ch=3 par1=71 par2=64
Channel Event. t= 30 (102790) Note Off ch=3 par1=67 par2=64
Channel Event. t= 180 (102970) Note On ch=3 par1=59 par2=91
Channel Event. t= 0 (102970) Note On ch=3 par1=71 par2=66
Channel Event. t= 0 (102970) Note On ch=3 par1=67 par2=76
Channel Event. t= 27 (102997) Note Off ch=3 par1=66 par2=64
Channel Event. t= 23 (103020) Note Off ch=3 par1=60 par2=64
Channel Event. t= 212 (103232) Note Off ch=3 par1=70 par2=64
Channel Event. t= 108 (103340) Note Off ch=3 par1=59 par2=64
Channel Event. t= 55 (103395) Note Off ch=3 par1=71 par2=64
Channel Event. t= 5 (103400) Note Off ch=3 par1=67 par2=64
Channel Event. t= 50 (103450) Note On ch=3 par1=67 par2=83
Channel Event. t= 0 (103450) Note On ch=3 par1=71 par2=66
Channel Event. t= 0 (103450) Note On ch=3 par1=59 par2=98
Channel Event. t= 720 (104170) Note On ch=3 par1=70 par2=96
Channel Event. t= 0 (104170) Note On ch=3 par1=60 par2=94
Channel Event. t= 0 (104170) Note On ch=3 par1=66 par2=87
Channel Event. t= 52 (104222) Note Off ch=3 par1=59 par2=64
Channel Event. t= 0 (104222) Note Off ch=3 par1=67 par2=64
Channel Event. t= 3 (104225) Note Off ch=3 par1=71 par2=64
Channel Event. t= 160 (104385) Note Off ch=3 par1=66 par2=64
Channel Event. t= 25 (104410) Note On ch=3 par1=67 par2=85
Channel Event. t= 0 (104410) Note On ch=3 par1=71 par2=88
Channel Event. t= 27 (104437) Note Off ch=3 par1=70 par2=64
Channel Event. t= 3 (104440) Note Off ch=3 par1=60 par2=64
Channel Event. t= 90 (104530) Note On ch=3 par1=59 par2=102
Channel Event. t= 352 (104882) Note Off ch=3 par1=67 par2=64
Channel Event. t= 20 (104902) Note Off ch=3 par1=71 par2=64
Channel Event. t= 135 (105037) Note Off ch=3 par1=59 par2=64
Channel Event. t= 41103 (146140) Controller ch=3 par1=7 (Main Volume) par2=55
Channel Event. t= 32 (146172) Note On ch=3 par1=55 par2=28
Channel Event. t= 1855 (148027) Note Off ch=3 par1=55 par2=64
Channel Event. t= 78 (148105) Note On ch=3 par1=55 par2=45
Channel Event. t= 967 (149072) Note On ch=3 par1=57 par2=45
Channel Event. t= 103 (149175) Note Off ch=3 par1=55 par2=64
Channel Event. t= 755 (149930) Note Off ch=3 par1=57 par2=64
Channel Event. t= 90 (150020) Note On ch=3 par1=52 par2=70
Channel Event. t= 455 (150475) Note Off ch=3 par1=52 par2=64
Channel Event. t= 57 (150532) Note On ch=3 par1=55 par2=63
Channel Event. t= 10 (150542) Note On ch=3 par1=52 par2=64
Channel Event. t= 380 (150922) Note Off ch=3 par1=55 par2=64
Channel Event. t= 13 (150935) Note Off ch=3 par1=52 par2=64
Channel Event. t= 60 (150995) Note On ch=3 par1=55 par2=43
Channel Event. t= 7 (151002) Note On ch=3 par1=57 par2=57
Channel Event. t= 413 (151415) Note Off ch=3 par1=57 par2=64
Channel Event. t= 7 (151422) Note Off ch=3 par1=55 par2=64
Channel Event. t= 43 (151465) Note On ch=3 par1=57 par2=47
Channel Event. t= 7 (151472) Note On ch=3 par1=52 par2=56
Channel Event. t= 410 (151882) Note Off ch=3 par1=52 par2=64
Channel Event. t= 18 (151900) Note Off ch=3 par1=57 par2=64
Channel Event. t= 35 (151935) Note On ch=3 par1=52 par2=75
Channel Event. t= 407 (152342) Note Off ch=3 par1=52 par2=64
Channel Event. t= 78 (152420) Note On ch=3 par1=52 par2=49
Channel Event. t= 0 (152420) Note On ch=3 par1=57 par2=58
Channel Event. t= 437 (152857) Note Off ch=3 par1=52 par2=64
Channel Event. t= 3 (152860) Note Off ch=3 par1=57 par2=64
Channel Event. t= 35 (152895) Note On ch=3 par1=55 par2=69
Channel Event. t= 480 (153375) Note Off ch=3 par1=55 par2=64
Channel Event. t= 0 (153375) Note On ch=3 par1=52 par2=52
Channel Event. t= 2 (153377) Note On ch=3 par1=57 par2=52
Channel Event. t= 378 (153755) Note Off ch=3 par1=52 par2=64
Channel Event. t= 50 (153805) Note Off ch=3 par1=57 par2=64
Channel Event. t= 40 (153845) Note On ch=3 par1=52 par2=71
Channel Event. t= 352 (154197) Note Off ch=3 par1=52 par2=64
Channel Event. t= 113 (154310) Note On ch=3 par1=55 par2=54
Channel Event. t= 2 (154312) Note On ch=3 par1=52 par2=60
Channel Event. t= 478 (154790) Note Off ch=3 par1=52 par2=64
Channel Event. t= 0 (154790) Note On ch=3 par1=54 par2=69
Channel Event. t= 5 (154795) Note On ch=3 par1=51 par2=65
Channel Event. t= 22 (154817) Note Off ch=3 par1=55 par2=64
Channel Event. t= 400 (155217) Note Off ch=3 par1=51 par2=64
Channel Event. t= 10 (155227) Note Off ch=3 par1=54 par2=64
Channel Event. t= 63 (155290) Note On ch=3 par1=54 par2=68
Channel Event. t= 0 (155290) Note On ch=3 par1=51 par2=51
Channel Event. t= 470 (155760) Note Off ch=3 par1=54 par2=64
Channel Event. t= 7 (155767) Note Off ch=3 par1=51 par2=64
Channel Event. t= 13 (155780) Note On ch=3 par1=52 par2=75
Channel Event. t= 387 (156167) Note Off ch=3 par1=52 par2=64
Channel Event. t= 78 (156245) Note On ch=3 par1=52 par2=56
Channel Event. t= 0 (156245) Note On ch=3 par1=55 par2=66
Channel Event. t= 422 (156667) Note Off ch=3 par1=55 par2=64
Channel Event. t= 13 (156680) Note Off ch=3 par1=52 par2=64
Channel Event. t= 50 (156730) Note On ch=3 par1=57 par2=71
Channel Event. t= 2 (156732) Note On ch=3 par1=55 par2=52
Channel Event. t= 395 (157127) Note Off ch=3 par1=57 par2=64
Channel Event. t= 15 (157142) Note Off ch=3 par1=55 par2=64
Channel Event. t= 63 (157205) Note On ch=3 par1=57 par2=65
Channel Event. t= 5 (157210) Note On ch=3 par1=52 par2=70
Channel Event. t= 400 (157610) Note Off ch=3 par1=52 par2=64
Channel Event. t= 67 (157677) Note Off ch=3 par1=57 par2=64
Channel Event. t= 498 (158175) Note On ch=3 par1=56 par2=71
Channel Event. t= 0 (158175) Note On ch=3 par1=48 par2=58
Channel Event. t= 417 (158592) Note Off ch=3 par1=48 par2=64
Channel Event. t= 18 (158610) Note Off ch=3 par1=56 par2=64
Channel Event. t= 512 (159122) Note On ch=3 par1=55 par2=46
Channel Event. t= 3 (159125) Note On ch=3 par1=59 par2=62
Channel Event. t= 350 (159475) Note Off ch=3 par1=59 par2=64
Channel Event. t= 40 (159515) Note Off ch=3 par1=55 par2=64
Channel Event. t= 562 (160077) Note On ch=3 par1=56 par2=76
Channel Event. t= 13 (160090) Note On ch=3 par1=48 par2=52
Channel Event. t= 385 (160475) Note Off ch=3 par1=48 par2=64
Channel Event. t= 40 (160515) Note Off ch=3 par1=56 par2=64
Channel Event. t= 532 (161047) Note On ch=3 par1=59 par2=58
Channel Event. t= 5 (161052) Note On ch=3 par1=53 par2=61
Channel Event. t= 320 (161372) Note Off ch=3 par1=53 par2=64
Channel Event. t= 8 (161380) Note Off ch=3 par1=59 par2=64
Channel Event. t= 635 (162015) Note On ch=3 par1=51 par2=69
Channel Event. t= 2 (162017) Note On ch=3 par1=60 par2=64
Channel Event. t= 308 (162325) Note Off ch=3 par1=60 par2=64
Channel Event. t= 2 (162327) Note Off ch=3 par1=51 par2=64
Channel Event. t= 643 (162970) Note On ch=3 par1=50 par2=49
Channel Event. t= 0 (162970) Note On ch=3 par1=58 par2=63
Channel Event. t= 302 (163272) Note Off ch=3 par1=50 par2=64
Channel Event. t= 28 (163300) Note Off ch=3 par1=58 par2=64
Channel Event. t= 640 (163940) Note On ch=3 par1=58 par2=51
Channel Event. t= 2 (163942) Note On ch=3 par1=55 par2=51
Channel Event. t= 288 (164230) Note Off ch=3 par1=55 par2=64
Channel Event. t= 5 (164235) Note Off ch=3 par1=58 par2=64
Channel Event. t= 1637 (165872) Note On ch=3 par1=51 par2=59
Channel Event. t= 3 (165875) Note On ch=3 par1=60 par2=56
Channel Event. t= 362 (166237) Note Off ch=3 par1=51 par2=64
Channel Event. t= 13 (166250) Note Off ch=3 par1=60 par2=64
Channel Event. t= 567 (166817) Note On ch=3 par1=53 par2=65
Channel Event. t= 3 (166820) Note On ch=3 par1=58 par2=66
Channel Event. t= 427 (167247) Note Off ch=3 par1=53 par2=64
Channel Event. t= 10 (167257) Note Off ch=3 par1=58 par2=64
Channel Event. t= 93 (167350) Note On ch=3 par1=55 par2=92
Channel Event. t= 387 (167737) Note Off ch=3 par1=55 par2=64
Channel Event. t= 68 (167805) Note On ch=3 par1=55 par2=53
Channel Event. t= 12 (167817) Note On ch=3 par1=60 par2=56
Channel Event. t= 393 (168210) Note Off ch=3 par1=60 par2=64
Channel Event. t= 35 (168245) Note Off ch=3 par1=55 par2=64
Channel Event. t= 27 (168272) Note On ch=3 par1=58 par2=74
Channel Event. t= 388 (168660) Note Off ch=3 par1=58 par2=64
Channel Event. t= 65 (168725) Note On ch=3 par1=58 par2=67
Channel Event. t= 5 (168730) Note On ch=3 par1=55 par2=63
Channel Event. t= 355 (169085) Note Off ch=3 par1=58 par2=64
Channel Event. t= 27 (169112) Note Off ch=3 par1=55 par2=64
Channel Event. t= 85 (169197) Note On ch=3 par1=55 par2=71
Channel Event. t= 420 (169617) Note Off ch=3 par1=55 par2=64
Channel Event. t= 48 (169665) Note On ch=3 par1=55 par2=73
Channel Event. t= 20 (169685) Note On ch=3 par1=58 par2=69
Channel Event. t= 450 (170135) Note Off ch=3 par1=58 par2=64
Channel Event. t= 17 (170152) Note Off ch=3 par1=55 par2=64
Channel Event. t= 8 (170160) Note On ch=3 par1=57 par2=58
Channel Event. t= 5 (170165) Note On ch=3 par1=54 par2=38
Channel Event. t= 385 (170550) Note Off ch=3 par1=54 par2=64
Channel Event. t= 22 (170572) Note Off ch=3 par1=57 par2=64
Channel Event. t= 75 (170647) Note On ch=3 par1=57 par2=45
Channel Event. t= 3 (170650) Note On ch=3 par1=54 par2=69
Channel Event. t= 380 (171030) Note Off ch=3 par1=54 par2=64
Channel Event. t= 42 (171072) Note Off ch=3 par1=57 par2=64
Channel Event. t= 40 (171112) Note On ch=3 par1=55 par2=68
Channel Event. t= 423 (171535) Note Off ch=3 par1=55 par2=64
Channel Event. t= 60 (171595) Note On ch=3 par1=55 par2=58
Channel Event. t= 5 (171600) Note On ch=3 par1=58 par2=68
Channel Event. t= 412 (172012) Note Off ch=3 par1=58 par2=64
Channel Event. t= 0 (172012) Note Off ch=3 par1=55 par2=64
Channel Event. t= 63 (172075) Note On ch=3 par1=55 par2=63
Channel Event. t= 490 (172565) Note Off ch=3 par1=55 par2=64
Channel Event. t= 2 (172567) Note On ch=3 par1=60 par2=64
Channel Event. t= 5 (172572) Note On ch=3 par1=53 par2=60
Channel Event. t= 425 (172997) Note Off ch=3 par1=60 par2=64
Channel Event. t= 58 (173055) Note Off ch=3 par1=53 par2=64
Channel Event. t= 7 (173062) Note On ch=3 par1=62 par2=53
Channel Event. t= 10 (173072) Note On ch=3 par1=54 par2=56
Channel Event. t= 1863 (174935) Note Off ch=3 par1=54 par2=64
Channel Event. t= 2 (174937) Note Off ch=3 par1=62 par2=64
Channel Event. t= 315 (175252) Note On ch=3 par1=55 par2=55
Channel Event. t= 228 (175480) Note On ch=3 par1=53 par2=59
Channel Event. t= 25 (175505) Note Off ch=3 par1=55 par2=64
Channel Event. t= 200 (175705) Note Off ch=3 par1=53 par2=64
Channel Event. t= 12 (175717) Note On ch=3 par1=52 par2=53
Channel Event. t= 233 (175950) Note Off ch=3 par1=52 par2=64
Channel Event. t= 2 (175952) Note On ch=3 par1=50 par2=59
Channel Event. t= 238 (176190) Note Off ch=3 par1=50 par2=64
Channel Event. t= 12 (176202) Note On ch=3 par1=48 par2=47
Channel Event. t= 235 (176437) Note Off ch=3 par1=48 par2=64
Channel Event. t= 0 (176437) Note On ch=3 par1=47 par2=56
Channel Event. t= 220 (176657) Note Off ch=3 par1=47 par2=64
Channel Event. t= 20 (176677) Note On ch=3 par1=45 par2=61
Channel Event. t= 213 (176890) Controller ch=3 par1=7 (Main Volume) par2=54
Channel Event. t= 15 (176905) Note Off ch=3 par1=45 par2=64
Channel Event. t= 2 (176907) Note On ch=3 par1=43 par2=72
Channel Event. t= 233 (177140) Note On ch=3 par1=45 par2=67
Channel Event. t= 42 (177182) Note Off ch=3 par1=43 par2=64
Channel Event. t= 128 (177310) Controller ch=3 par1=7 (Main Volume) par2=53
Channel Event. t= 72 (177382) Note On ch=3 par1=47 par2=77
Channel Event. t= 18 (177400) Note Off ch=3 par1=45 par2=64
Channel Event. t= 212 (177612) Note On ch=3 par1=48 par2=80
Channel Event. t= 3 (177615) Note Off ch=3 par1=47 par2=64
Channel Event. t= 55 (177670) Controller ch=3 par1=7 (Main Volume) par2=52
Channel Event. t= 180 (177850) Note On ch=3 par1=50 par2=69
Channel Event. t= 55 (177905) Note Off ch=3 par1=48 par2=64
Channel Event. t= 172 (178077) Note On ch=3 par1=52 par2=74
Channel Event. t= 13 (178090) Controller ch=3 par1=7 (Main Volume) par2=51
Channel Event. t= 7 (178097) Note Off ch=3 par1=50 par2=64
Channel Event. t= 218 (178315) Note On ch=3 par1=54 par2=73
Channel Event. t= 7 (178322) Note Off ch=3 par1=52 par2=64
Channel Event. t= 128 (178450) Controller ch=3 par1=7 (Main Volume) par2=50
Channel Event. t= 102 (178552) Note On ch=3 par1=55 par2=71
Channel Event. t= 3 (178555) Note Off ch=3 par1=54 par2=64
Channel Event. t= 255 (178810) Controller ch=3 par1=7 (Main Volume) par2=49
Channel Event. t= 10 (178820) Note On ch=3 par1=56 par2=81
Channel Event. t= 25 (178845) Note Off ch=3 par1=55 par2=64
Channel Event. t= 385 (179230) Controller ch=3 par1=7 (Main Volume) par2=48
Channel Event. t= 360 (179590) Controller ch=3 par1=7 (Main Volume) par2=47
Channel Event. t= 130 (179720) Note Off ch=3 par1=56 par2=64
Channel Event. t= 50 (179770) Note On ch=3 par1=56 par2=80
Channel Event. t= 237 (180007) Note On ch=3 par1=59 par2=64
Channel Event. t= 3 (180010) Controller ch=3 par1=7 (Main Volume) par2=46
Channel Event. t= 2 (180012) Note Off ch=3 par1=56 par2=64
Channel Event. t= 105 (180117) Note On ch=3 par1=51 par2=75
Channel Event. t= 25 (180142) Note Off ch=3 par1=59 par2=64
Channel Event. t= 110 (180252) Note On ch=3 par1=56 par2=80
Channel Event. t= 30 (180282) Note Off ch=3 par1=51 par2=64
Channel Event. t= 88 (180370) Controller ch=3 par1=7 (Main Volume) par2=45
Channel Event. t= 132 (180502) Note On ch=3 par1=59 par2=70
Channel Event. t= 43 (180545) Note Off ch=3 par1=56 par2=64
Channel Event. t= 60 (180605) Note On ch=3 par1=51 par2=75
Channel Event. t= 22 (180627) Note Off ch=3 par1=59 par2=64
Channel Event. t= 28 (180655) Note Off ch=3 par1=51 par2=64
Channel Event. t= 75 (180730) Controller ch=3 par1=7 (Main Volume) par2=44
Channel Event. t= 0 (180730) Note On ch=3 par1=47 par2=84
Channel Event. t= 240 (180970) Note On ch=3 par1=49 par2=82
Channel Event. t= 32 (181002) Note Off ch=3 par1=47 par2=64
Channel Event. t= 110 (181112) Note Off ch=3 par1=49 par2=64
Channel Event. t= 38 (181150) Controller ch=3 par1=7 (Main Volume) par2=43
Channel Event. t= 60 (181210) Note On ch=3 par1=51 par2=81
Channel Event. t= 240 (181450) Note On ch=3 par1=52 par2=84
Channel Event. t= 10 (181460) Note Off ch=3 par1=51 par2=64
Channel Event. t= 50 (181510) Controller ch=3 par1=7 (Main Volume) par2=42
Channel Event. t= 137 (181647) Note Off ch=3 par1=52 par2=64
Channel Event. t= 43 (181690) Note On ch=3 par1=54 par2=92
Channel Event. t= 240 (181930) Controller ch=3 par1=7 (Main Volume) par2=41
Channel Event. t= 0 (181930) Note On ch=3 par1=55 par2=80
Channel Event. t= 2 (181932) Note Off ch=3 par1=54 par2=64
Channel Event. t= 145 (182077) Note Off ch=3 par1=55 par2=64
Channel Event. t= 93 (182170) Note On ch=3 par1=56 par2=89
Channel Event. t= 120 (182290) Controller ch=3 par1=7 (Main Volume) par2=40
Channel Event. t= 115 (182405) Note Off ch=3 par1=56 par2=64
Channel Event. t= 5 (182410) Note On ch=3 par1=57 par2=73
Channel Event. t= 170 (182580) Note Off ch=3 par1=57 par2=64
Channel Event. t= 62 (182642) Note On ch=3 par1=57 par2=84
Channel Event. t= 8 (182650) Controller ch=3 par1=7 (Main Volume) par2=39
Channel Event. t= 420 (183070) Controller ch=3 par1=7 (Main Volume) par2=38
Channel Event. t= 360 (183430) Controller ch=3 par1=7 (Main Volume) par2=37
Channel Event. t= 180 (183610) Note On ch=3 par1=55 par2=82
Channel Event. t= 42 (183652) Note Off ch=3 par1=57 par2=64
Channel Event. t= 198 (183850) Note Off ch=3 par1=55 par2=64
Channel Event. t= 0 (183850) Controller ch=3 par1=7 (Main Volume) par2=36
Channel Event. t= 360 (184210) Controller ch=3 par1=7 (Main Volume) par2=55
Channel Event. t= 0 (184210) 
Meta Event. Type: 0x2f (47dec), End of Track (0 bytes): 
track #9
track size: 3740
Channel Event. t= 0 (0) 
Meta Event. Type: 0x3 (3dec), Sequence/Track Name (20 bytes): Bassoon             
Channel Event. t= 0 (0) 
Meta Event. Type: 0x21 (33dec), MIDI Port (1 bytes): 0
Channel Event. t= 0 (0) 
Meta Event. Type: 0x20 (32dec), MIDI Channel Prefix (1 bytes): 4
Channel Event. t= 0 (0) Controller ch=4 par1=10 (Pan) par2=64
Channel Event. t= 0 (0) Controller ch=4 par1=91 (Effects 2 Depth (formerly Tremolo Depth)) par2=127
Channel Event. t= 0 (0) Program Change ch=4 par1=86 par2=-98
Channel Event. t= 0 (0) Controller ch=4 par1=10 (Pan) par2=90
Channel Event. t= 0 (0) Program Change ch=4 par1=48 par2=-127
Channel Event. t= 112 (112) Controller ch=4 par1=7 (Main Volume) par2=102
Channel Event. t= 1680 (1792) Note On ch=4 par1=36 par2=87
Channel Event. t= 0 (1792) Note On ch=4 par1=43 par2=74
Channel Event. t= 575 (2367) Note Off ch=4 par1=43 par2=64
Channel Event. t= 0 (2367) Note Off ch=4 par1=36 par2=64
Channel Event. t= 385 (2752) Note On ch=4 par1=47 par2=80
Channel Event. t= 0 (2752) Note On ch=4 par1=40 par2=83
Channel Event. t= 635 (3387) Note Off ch=4 par1=40 par2=64
Channel Event. t= 45 (3432) Note Off ch=4 par1=47 par2=64
Channel Event. t= 280 (3712) Note On ch=4 par1=36 par2=83
Channel Event. t= 0 (3712) Note On ch=4 par1=43 par2=71
Channel Event. t= 550 (4262) Note Off ch=4 par1=43 par2=64
Channel Event. t= 5 (4267) Note Off ch=4 par1=36 par2=64
Channel Event. t= 405 (4672) Note On ch=4 par1=40 par2=86
Channel Event. t= 0 (4672) Note On ch=4 par1=47 par2=82
Channel Event. t= 610 (5282) Note Off ch=4 par1=40 par2=64
Channel Event. t= 20 (5302) Note Off ch=4 par1=47 par2=64
Channel Event. t= 330 (5632) Note On ch=4 par1=43 par2=71
Channel Event. t= 0 (5632) Note On ch=4 par1=36 par2=88
Channel Event. t= 585 (6217) Note Off ch=4 par1=36 par2=64
Channel Event. t= 45 (6262) Note Off ch=4 par1=43 par2=64
Channel Event. t= 330 (6592) Note On ch=4 par1=40 par2=78
Channel Event. t= 0 (6592) Note On ch=4 par1=47 par2=70
Channel Event. t= 662 (7254) Note Off ch=4 par1=47 par2=64
Channel Event. t= 10 (7264) Note Off ch=4 par1=40 par2=64
Channel Event. t= 288 (7552) Note On ch=4 par1=43 par2=71
Channel Event. t= 0 (7552) Note On ch=4 par1=36 par2=66
Channel Event. t= 547 (8099) Note Off ch=4 par1=36 par2=64
Channel Event. t= 53 (8152) Note Off ch=4 par1=43 par2=64
Channel Event. t= 360 (8512) Note On ch=4 par1=47 par2=70
Channel Event. t= 0 (8512) Note On ch=4 par1=40 par2=76
Channel Event. t= 562 (9074) Note Off ch=4 par1=47 par2=64
Channel Event. t= 25 (9099) Note Off ch=4 par1=40 par2=64
Channel Event. t= 373 (9472) Note On ch=4 par1=32 par2=80
Channel Event. t= 0 (9472) Note On ch=4 par1=39 par2=81
Channel Event. t= 617 (10089) Note Off ch=4 par1=39 par2=64
Channel Event. t= 23 (10112) Note Off ch=4 par1=32 par2=64
Channel Event. t= 320 (10432) Note On ch=4 par1=36 par2=80
Channel Event. t= 0 (10432) Note On ch=4 par1=43 par2=69
Channel Event. t= 522 (10954) Note Off ch=4 par1=43 par2=64
Channel Event. t= 0 (10954) Note Off ch=4 par1=36 par2=64
Channel Event. t= 438 (11392) Note On ch=4 par1=32 par2=81
Channel Event. t= 0 (11392) Note On ch=4 par1=39 par2=79
Channel Event. t= 545 (11937) Note Off ch=4 par1=39 par2=64
Channel Event. t= 12 (11949) Note Off ch=4 par1=32 par2=64
Channel Event. t= 403 (12352) Note On ch=4 par1=43 par2=71
Channel Event. t= 0 (12352) Note On ch=4 par1=36 par2=79
Channel Event. t= 485 (12837) Note Off ch=4 par1=36 par2=64
Channel Event. t= 22 (12859) Note Off ch=4 par1=43 par2=64
Channel Event. t= 453 (13312) Note On ch=4 par1=39 par2=80
Channel Event. t= 0 (13312) Note On ch=4 par1=46 par2=78
Channel Event. t= 522 (13834) Note Off ch=4 par1=46 par2=64
Channel Event. t= 23 (13857) Note Off ch=4 par1=39 par2=64
Channel Event. t= 415 (14272) Note On ch=4 par1=43 par2=66
Channel Event. t= 0 (14272) Note On ch=4 par1=36 par2=75
Channel Event. t= 560 (14832) Note Off ch=4 par1=36 par2=64
Channel Event. t= 5 (14837) Note Off ch=4 par1=43 par2=64
Channel Event. t= 395 (15232) Note On ch=4 par1=39 par2=80
Channel Event. t= 0 (15232) Note On ch=4 par1=46 par2=64
Channel Event. t= 545 (15777) Note Off ch=4 par1=46 par2=64
Channel Event. t= 5 (15782) Note Off ch=4 par1=39 par2=64
Channel Event. t= 410 (16192) Note On ch=4 par1=36 par2=79
Channel Event. t= 0 (16192) Note On ch=4 par1=43 par2=61
Channel Event. t= 472 (16664) Note Off ch=4 par1=36 par2=64
Channel Event. t= 30 (16694) Note Off ch=4 par1=43 par2=64
Channel Event. t= 458 (17152) Note On ch=4 par1=46 par2=55
Channel Event. t= 0 (17152) Note On ch=4 par1=39 par2=61
Channel Event. t= 537 (17689) Note Off ch=4 par1=39 par2=64
Channel Event. t= 33 (17722) Note Off ch=4 par1=46 par2=64
Channel Event. t= 390 (18112) Note On ch=4 par1=50 par2=48
Channel Event. t= 0 (18112) Note On ch=4 par1=43 par2=50
Channel Event. t= 520 (18632) Note Off ch=4 par1=43 par2=64
Channel Event. t= 55 (18687) Note Off ch=4 par1=50 par2=64
Channel Event. t= 385 (19072) Note On ch=4 par1=39 par2=68
Channel Event. t= 0 (19072) Note On ch=4 par1=46 par2=68
Channel Event. t= 527 (19599) Note Off ch=4 par1=39 par2=64
Channel Event. t= 15 (19614) Note Off ch=4 par1=46 par2=64
Channel Event. t= 418 (20032) Note On ch=4 par1=50 par2=60
Channel Event. t= 0 (20032) Note On ch=4 par1=43 par2=61
Channel Event. t= 515 (20547) Note Off ch=4 par1=43 par2=64
Channel Event. t= 40 (20587) Note Off ch=4 par1=50 par2=64
Channel Event. t= 405 (20992) Note On ch=4 par1=39 par2=73
Channel Event. t= 0 (20992) Note On ch=4 par1=46 par2=74
Channel Event. t= 510 (21502) Note Off ch=4 par1=46 par2=64
Channel Event. t= 5 (21507) Note Off ch=4 par1=39 par2=64
Channel Event. t= 445 (21952) Note On ch=4 par1=50 par2=61
Channel Event. t= 0 (21952) Note On ch=4 par1=42 par2=81
Channel Event. t= 595 (22547) Note Off ch=4 par1=42 par2=64
Channel Event. t= 0 (22547) Note Off ch=4 par1=50 par2=64
Channel Event. t= 365 (22912) Note On ch=4 par1=39 par2=71
Channel Event. t= 0 (22912) Note On ch=4 par1=46 par2=69
Channel Event. t= 527 (23439) Note Off ch=4 par1=39 par2=64
Channel Event. t= 28 (23467) Note Off ch=4 par1=46 par2=64
Channel Event. t= 405 (23872) Note On ch=4 par1=50 par2=63
Channel Event. t= 0 (23872) Note On ch=4 par1=43 par2=66
Channel Event. t= 517 (24389) Note Off ch=4 par1=43 par2=64
Channel Event. t= 95 (24484) Note Off ch=4 par1=50 par2=64
Channel Event. t= 348 (24832) Note On ch=4 par1=47 par2=71
Channel Event. t= 0 (24832) Note On ch=4 par1=38 par2=56
Channel Event. t= 465 (25297) Note Off ch=4 par1=38 par2=64
Channel Event. t= 15 (25312) Note Off ch=4 par1=47 par2=64
Channel Event. t= 480 (25792) Note On ch=4 par1=47 par2=72
Channel Event. t= 0 (25792) Note On ch=4 par1=38 par2=58
Channel Event. t= 460 (26252) Note Off ch=4 par1=38 par2=64
Channel Event. t= 20 (26272) Note Off ch=4 par1=47 par2=64
Channel Event. t= 480 (26752) Note On ch=4 par1=38 par2=66
Channel Event. t= 0 (26752) Note On ch=4 par1=48 par2=67
Channel Event. t= 497 (27249) Note Off ch=4 par1=38 par2=64
Channel Event. t= 15 (27264) Note Off ch=4 par1=48 par2=64
Channel Event. t= 448 (27712) Note On ch=4 par1=38 par2=66
Channel Event. t= 0 (27712) Note On ch=4 par1=48 par2=67
Channel Event. t= 402 (28114) Note Off ch=4 par1=48 par2=64
Channel Event. t= 53 (28167) Note Off ch=4 par1=38 par2=64
Channel Event. t= 505 (28672) Controller ch=4 par1=7 (Main Volume) par2=101
Channel Event. t= 0 (28672) Note On ch=4 par1=31 par2=78
Channel Event. t= 0 (28672) Note On ch=4 par1=43 par2=72
Channel Event. t= 120 (28792) Controller ch=4 par1=7 (Main Volume) par2=100
Channel Event. t= 120 (28912) Controller ch=4 par1=7 (Main Volume) par2=99
Channel Event. t= 60 (28972) Controller ch=4 par1=7 (Main Volume) par2=98
Channel Event. t= 120 (29092) Controller ch=4 par1=7 (Main Volume) par2=97
Channel Event. t= 5 (29097) Note Off ch=4 par1=31 par2=64
Channel Event. t= 20 (29117) Note Off ch=4 par1=43 par2=64
Channel Event. t= 35 (29152) Controller ch=4 par1=7 (Main Volume) par2=96
Channel Event. t= 0 (29152) Note On ch=4 par1=38 par2=104
Channel Event. t= 120 (29272) Controller ch=4 par1=7 (Main Volume) par2=95
Channel Event. t= 60 (29332) Controller ch=4 par1=7 (Main Volume) par2=94
Channel Event. t= 120 (29452) Controller ch=4 par1=7 (Main Volume) par2=93
Channel Event. t= 60 (29512) Controller ch=4 par1=7 (Main Volume) par2=92
Channel Event. t= 100 (29612) Note Off ch=4 par1=38 par2=64
Channel Event. t= 20 (29632) Controller ch=4 par1=7 (Main Volume) par2=91
Channel Event. t= 0 (29632) Note On ch=4 par1=43 par2=98
Channel Event. t= 60 (29692) Controller ch=4 par1=7 (Main Volume) par2=90
Channel Event. t= 120 (29812) Controller ch=4 par1=7 (Main Volume) par2=89
Channel Event. t= 60 (29872) Controller ch=4 par1=7 (Main Volume) par2=88
Channel Event. t= 120 (29992) Controller ch=4 par1=7 (Main Volume) par2=87
Channel Event. t= 40 (30032) Note Off ch=4 par1=43 par2=64
Channel Event. t= 20 (30052) Controller ch=4 par1=7 (Main Volume) par2=86
Channel Event. t= 60 (30112) Note On ch=4 par1=45 par2=92
Channel Event. t= 60 (30172) Controller ch=4 par1=7 (Main Volume) par2=85
Channel Event. t= 60 (30232) Controller ch=4 par1=7 (Main Volume) par2=84
Channel Event. t= 120 (30352) Controller ch=4 par1=7 (Main Volume) par2=83
Channel Event. t= 60 (30412) Controller ch=4 par1=7 (Main Volume) par2=82
Channel Event. t= 115 (30527) Note Off ch=4 par1=45 par2=64
Channel Event. t= 5 (30532) Controller ch=4 par1=7 (Main Volume) par2=81
Channel Event. t= 60 (30592) Controller ch=4 par1=7 (Main Volume) par2=80
Channel Event. t= 0 (30592) Note On ch=4 par1=43 par2=92
Channel Event. t= 120 (30712) Controller ch=4 par1=7 (Main Volume) par2=79
Channel Event. t= 120 (30832) Controller ch=4 par1=7 (Main Volume) par2=78
Channel Event. t= 60 (30892) Controller ch=4 par1=7 (Main Volume) par2=77
Channel Event. t= 120 (31012) Controller ch=4 par1=7 (Main Volume) par2=76
Channel Event. t= 37 (31049) Note Off ch=4 par1=43 par2=64
Channel Event. t= 23 (31072) Controller ch=4 par1=7 (Main Volume) par2=75
Channel Event. t= 0 (31072) Note On ch=4 par1=41 par2=89
Channel Event. t= 120 (31192) Controller ch=4 par1=7 (Main Volume) par2=74
Channel Event. t= 60 (31252) Controller ch=4 par1=7 (Main Volume) par2=73
Channel Event. t= 120 (31372) Controller ch=4 par1=7 (Main Volume) par2=72
Channel Event. t= 60 (31432) Controller ch=4 par1=7 (Main Volume) par2=71
Channel Event. t= 50 (31482) Note Off ch=4 par1=41 par2=64
Channel Event. t= 70 (31552) Controller ch=4 par1=7 (Main Volume) par2=70
Channel Event. t= 0 (31552) Note On ch=4 par1=40 par2=83
Channel Event. t= 60 (31612) Controller ch=4 par1=7 (Main Volume) par2=69
Channel Event. t= 120 (31732) Controller ch=4 par1=7 (Main Volume) par2=68
Channel Event. t= 60 (31792) Controller ch=4 par1=7 (Main Volume) par2=67
Channel Event. t= 120 (31912) Controller ch=4 par1=7 (Main Volume) par2=66
Channel Event. t= 45 (31957) Note Off ch=4 par1=40 par2=64
Channel Event. t= 15 (31972) Controller ch=4 par1=7 (Main Volume) par2=65
Channel Event. t= 60 (32032) Note On ch=4 par1=38 par2=78
Channel Event. t= 60 (32092) Controller ch=4 par1=7 (Main Volume) par2=64
Channel Event. t= 60 (32152) Controller ch=4 par1=7 (Main Volume) par2=63
Channel Event. t= 120 (32272) Controller ch=4 par1=7 (Main Volume) par2=62
Channel Event. t= 60 (32332) Controller ch=4 par1=7 (Main Volume) par2=61
Channel Event. t= 120 (32452) Note Off ch=4 par1=38 par2=64
Channel Event. t= 0 (32452) Controller ch=4 par1=7 (Main Volume) par2=60
Channel Event. t= 60 (32512) Note On ch=4 par1=43 par2=36
Channel Event. t= 0 (32512) Note On ch=4 par1=36 par2=44
Channel Event. t= 0 (32512) Controller ch=4 par1=7 (Main Volume) par2=70
Channel Event. t= 515 (33027) Note Off ch=4 par1=36 par2=64
Channel Event. t= 12 (33039) Note Off ch=4 par1=43 par2=64
Channel Event. t= 433 (33472) Note On ch=4 par1=39 par2=65
Channel Event. t= 0 (33472) Note On ch=4 par1=47 par2=46
Channel Event. t= 507 (33979) Note Off ch=4 par1=39 par2=64
Channel Event. t= 8 (33987) Note Off ch=4 par1=47 par2=64
Channel Event. t= 445 (34432) Note On ch=4 par1=43 par2=54
Channel Event. t= 0 (34432) Note On ch=4 par1=36 par2=48
Channel Event. t= 437 (34869) Note Off ch=4 par1=36 par2=64
Channel Event. t= 40 (34909) Note Off ch=4 par1=43 par2=64
Channel Event. t= 483 (35392) Note On ch=4 par1=39 par2=65
Channel Event. t= 0 (35392) Note On ch=4 par1=47 par2=58
Channel Event. t= 490 (35882) Note Off ch=4 par1=39 par2=64
Channel Event. t= 17 (35899) Note Off ch=4 par1=47 par2=64
Channel Event. t= 453 (36352) Note On ch=4 par1=43 par2=58
Channel Event. t= 0 (36352) Note On ch=4 par1=36 par2=56
Channel Event. t= 492 (36844) Note Off ch=4 par1=43 par2=64
Channel Event. t= 5 (36849) Note Off ch=4 par1=36 par2=64
Channel Event. t= 463 (37312) Note On ch=4 par1=47 par2=56
Channel Event. t= 0 (37312) Note On ch=4 par1=39 par2=69
Channel Event. t= 502 (37814) Note Off ch=4 par1=39 par2=64
Channel Event. t= 3 (37817) Note Off ch=4 par1=47 par2=64
Channel Event. t= 455 (38272) Note On ch=4 par1=36 par2=56
Channel Event. t= 0 (38272) Note On ch=4 par1=43 par2=56
Channel Event. t= 420 (38692) Note Off ch=4 par1=43 par2=64
Channel Event. t= 5 (38697) Note Off ch=4 par1=36 par2=64
Channel Event. t= 535 (39232) Note On ch=4 par1=39 par2=66
Channel Event. t= 0 (39232) Note On ch=4 par1=47 par2=52
Channel Event. t= 415 (39647) Note Off ch=4 par1=47 par2=64
Channel Event. t= 2 (39649) Note Off ch=4 par1=39 par2=64
Channel Event. t= 303 (39952) Controller ch=4 par1=7 (Main Volume) par2=57
Channel Event. t= 120 (40072) Program Change ch=4 par1=86 par2=120
Channel Event. t= 2596 (42668) Program Change ch=4 par1=64 par2=0
Channel Event. t= 2608 (45276) Program Change ch=4 par1=65 par2=-125
Channel Event. t= 91 (45367) Note Off ch=4 par1=48 par2=64
Channel Event. t= 10 (45377) Note Off ch=4 par1=36 par2=64
Channel Event. t= 475 (45852) Note On ch=4 par1=42 par2=85
Channel Event. t= 425 (46277) Note Off ch=4 par1=42 par2=64
Channel Event. t= 535 (46812) Note On ch=4 par1=48 par2=63
Channel Event. t= 0 (46812) Note On ch=4 par1=36 par2=69
Channel Event. t= 425 (47237) Note Off ch=4 par1=48 par2=64
Channel Event. t= 27 (47264) Note Off ch=4 par1=36 par2=64
Channel Event. t= 508 (47772) Note On ch=4 par1=42 par2=84
Channel Event. t= 412 (48184) Note Off ch=4 par1=42 par2=64
Channel Event. t= 548 (48732) Note On ch=4 par1=48 par2=66
Channel Event. t= 0 (48732) Note On ch=4 par1=36 par2=65
Channel Event. t= 345 (49077) Note Off ch=4 par1=48 par2=64
Channel Event. t= 10 (49087) Note Off ch=4 par1=36 par2=64
Channel Event. t= 605 (49692) Note On ch=4 par1=42 par2=80
Channel Event. t= 412 (50104) Note Off ch=4 par1=42 par2=64
Channel Event. t= 548 (50652) Note On ch=4 par1=36 par2=59
Channel Event. t= 0 (50652) Note On ch=4 par1=48 par2=52
Channel Event. t= 385 (51037) Note Off ch=4 par1=48 par2=64
Channel Event. t= 20 (51057) Note Off ch=4 par1=36 par2=64
Channel Event. t= 555 (51612) Note On ch=4 par1=42 par2=74
Channel Event. t= 425 (52037) Note Off ch=4 par1=42 par2=64
Channel Event. t= 535 (52572) Note On ch=4 par1=48 par2=47
Channel Event. t= 0 (52572) Note On ch=4 par1=36 par2=62
Channel Event. t= 377 (52949) Note Off ch=4 par1=48 par2=64
Channel Event. t= 13 (52962) Note Off ch=4 par1=36 par2=64
Channel Event. t= 570 (53532) Note On ch=4 par1=42 par2=80
Channel Event. t= 490 (54022) Note Off ch=4 par1=42 par2=64
Channel Event. t= 470 (54492) Note On ch=4 par1=36 par2=73
Channel Event. t= 0 (54492) Note On ch=4 par1=48 par2=63
Channel Event. t= 495 (54987) Note Off ch=4 par1=48 par2=64
Channel Event. t= 5 (54992) Note Off ch=4 par1=36 par2=64
Channel Event. t= 460 (55452) Note On ch=4 par1=42 par2=86
Channel Event. t= 460 (55912) Note Off ch=4 par1=42 par2=64
Channel Event. t= 500 (56412) Note On ch=4 par1=48 par2=64
Channel Event. t= 0 (56412) Note On ch=4 par1=36 par2=61
Channel Event. t= 410 (56822) Note Off ch=4 par1=48 par2=64
Channel Event. t= 15 (56837) Note Off ch=4 par1=36 par2=64
Channel Event. t= 535 (57372) Note On ch=4 par1=42 par2=80
Channel Event. t= 417 (57789) Note Off ch=4 par1=42 par2=64
Channel Event. t= 543 (58332) Note On ch=4 par1=48 par2=62
Channel Event. t= 0 (58332) Note On ch=4 par1=36 par2=76
Channel Event. t= 405 (58737) Note Off ch=4 par1=48 par2=64
Channel Event. t= 12 (58749) Note Off ch=4 par1=36 par2=64
Channel Event. t= 543 (59292) Note On ch=4 par1=42 par2=77
Channel Event. t= 425 (59717) Note Off ch=4 par1=42 par2=64
Channel Event. t= 535 (60252) Note On ch=4 par1=36 par2=69
Channel Event. t= 0 (60252) Note On ch=4 par1=48 par2=64
Channel Event. t= 415 (60667) Note Off ch=4 par1=36 par2=64
Channel Event. t= 5 (60672) Note Off ch=4 par1=48 par2=64
Channel Event. t= 540 (61212) Note On ch=4 par1=42 par2=75
Channel Event. t= 432 (61644) Note Off ch=4 par1=42 par2=64
Channel Event. t= 528 (62172) Note On ch=4 par1=47 par2=70
Channel Event. t= 0 (62172) Note On ch=4 par1=35 par2=86
Channel Event. t= 112 (62284) Note Off ch=4 par1=47 par2=64
Channel Event. t= 10 (62294) Note Off ch=4 par1=35 par2=64
Channel Event. t= 358 (62652) Note On ch=4 par1=36 par2=90
Channel Event. t= 0 (62652) Note On ch=4 par1=48 par2=77
Channel Event. t= 135 (62787) Note Off ch=4 par1=48 par2=64
Channel Event. t= 15 (62802) Note Off ch=4 par1=36 par2=64
Channel Event. t= 330 (63132) Note On ch=4 par1=50 par2=56
Channel Event. t= 0 (63132) Note On ch=4 par1=38 par2=54
Channel Event. t= 100 (63232) Note Off ch=4 par1=50 par2=64
Channel Event. t= 5 (63237) Note Off ch=4 par1=38 par2=64
Channel Event. t= 375 (63612) Note On ch=4 par1=40 par2=46
Channel Event. t= 0 (63612) Note On ch=4 par1=52 par2=41
Channel Event. t= 95 (63707) Note Off ch=4 par1=52 par2=64
Channel Event. t= 22 (63729) Note Off ch=4 par1=40 par2=64
Channel Event. t= 363 (64092) Note On ch=4 par1=41 par2=42
Channel Event. t= 0 (64092) Note On ch=4 par1=53 par2=41
Channel Event. t= 97 (64189) Note Off ch=4 par1=53 par2=64
Channel Event. t= 10 (64199) Note Off ch=4 par1=41 par2=64
Channel Event. t= 373 (64572) Note On ch=4 par1=42 par2=64
Channel Event. t= 0 (64572) Note On ch=4 par1=54 par2=51
Channel Event. t= 117 (64689) Note Off ch=4 par1=42 par2=64
Channel Event. t= 5 (64694) Note Off ch=4 par1=54 par2=64
Channel Event. t= 358 (65052) Note On ch=4 par1=43 par2=54
Channel Event. t= 0 (65052) Note On ch=4 par1=55 par2=53
Channel Event. t= 100 (65152) Note Off ch=4 par1=55 par2=64
Channel Event. t= 5 (65157) Note Off ch=4 par1=43 par2=64
Channel Event. t= 375 (65532) Note On ch=4 par1=42 par2=65
Channel Event. t= 0 (65532) Note On ch=4 par1=54 par2=48
Channel Event. t= 102 (65634) Note Off ch=4 par1=42 par2=64
Channel Event. t= 25 (65659) Note Off ch=4 par1=54 par2=64
Channel Event. t= 353 (66012) Note On ch=4 par1=43 par2=66
Channel Event. t= 0 (66012) Note On ch=4 par1=55 par2=64
Channel Event. t= 142 (66154) Note Off ch=4 par1=55 par2=64
Channel Event. t= 13 (66167) Note Off ch=4 par1=43 par2=64
Channel Event. t= 9415 (75582) Controller ch=4 par1=7 (Main Volume) par2=63
Channel Event. t= 30 (75612) Note On ch=4 par1=60 par2=84
Channel Event. t= 240 (75852) Note On ch=4 par1=55 par2=68
Channel Event. t= 27 (75879) Note Off ch=4 par1=60 par2=64
Channel Event. t= 213 (76092) Note On ch=4 par1=59 par2=66
Channel Event. t= 2 (76094) Note Off ch=4 par1=55 par2=64
Channel Event. t= 238 (76332) Note On ch=4 par1=55 par2=66
Channel Event. t= 12 (76344) Note Off ch=4 par1=59 par2=64
Channel Event. t= 213 (76557) Note Off ch=4 par1=55 par2=64
Channel Event. t= 15 (76572) Note On ch=4 par1=60 par2=65
Channel Event. t= 240 (76812) Note On ch=4 par1=55 par2=69
Channel Event. t= 15 (76827) Note Off ch=4 par1=60 par2=64
Channel Event. t= 222 (77049) Note Off ch=4 par1=55 par2=64
Channel Event. t= 3 (77052) Note On ch=4 par1=59 par2=67
Channel Event. t= 232 (77284) Note Off ch=4 par1=59 par2=64
Channel Event. t= 8 (77292) Note On ch=4 par1=55 par2=58
Channel Event. t= 240 (77532) Note Off ch=4 par1=55 par2=64
Channel Event. t= 0 (77532) Note On ch=4 par1=43 par2=82
Channel Event. t= 477 (78009) Note Off ch=4 par1=43 par2=64
Channel Event. t= 243 (78252) Note On ch=4 par1=47 par2=84
Channel Event. t= 240 (78492) Note On ch=4 par1=50 par2=83
Channel Event. t= 22 (78514) Note Off ch=4 par1=47 par2=64
Channel Event. t= 288 (78802) Note Off ch=4 par1=50 par2=64
Channel Event. t= 410 (79212) Note On ch=4 par1=54 par2=91
Channel Event. t= 240 (79452) Note On ch=4 par1=55 par2=93
Channel Event. t= 12 (79464) Note Off ch=4 par1=54 par2=64
Channel Event. t= 328 (79792) Note Off ch=4 par1=55 par2=64
Channel Event. t= 140 (79932) Note On ch=4 par1=49 par2=95
Channel Event. t= 240 (80172) Note On ch=4 par1=50 par2=84
Channel Event. t= 7 (80179) Note Off ch=4 par1=49 par2=64
Channel Event. t= 233 (80412) Note On ch=4 par1=47 par2=88
Channel Event. t= 15 (80427) Note Off ch=4 par1=50 par2=64
Channel Event. t= 282 (80709) Note Off ch=4 par1=47 par2=64
Channel Event. t= 183 (80892) Note On ch=4 par1=49 par2=87
Channel Event. t= 240 (81132) Note Off ch=4 par1=49 par2=64
Channel Event. t= 0 (81132) Note On ch=4 par1=50 par2=76
Channel Event. t= 132 (81264) Note Off ch=4 par1=50 par2=64
Channel Event. t= 108 (81372) Note On ch=4 par1=47 par2=87
Channel Event. t= 0 (81372) Note On ch=4 par1=35 par2=97
Channel Event. t= 240 (81612) Note Off ch=4 par1=35 par2=64
Channel Event. t= 0 (81612) Note Off ch=4 par1=47 par2=64
Channel Event. t= 240 (81852) Note On ch=4 par1=48 par2=83
Channel Event. t= 0 (81852) Note On ch=4 par1=36 par2=93
Channel Event. t= 240 (82092) Note Off ch=4 par1=36 par2=64
Channel Event. t= 0 (82092) Note Off ch=4 par1=48 par2=64
Channel Event. t= 240 (82332) Note On ch=4 par1=37 par2=81
Channel Event. t= 0 (82332) Note On ch=4 par1=49 par2=75
Channel Event. t= 240 (82572) Note Off ch=4 par1=49 par2=64
Channel Event. t= 0 (82572) Note Off ch=4 par1=37 par2=64
Channel Event. t= 240 (82812) Note On ch=4 par1=51 par2=68
Channel Event. t= 0 (82812) Note On ch=4 par1=39 par2=74
Channel Event. t= 240 (83052) Note Off ch=4 par1=39 par2=64
Channel Event. t= 0 (83052) Note Off ch=4 par1=51 par2=64
Channel Event. t= 120 (83172) Controller ch=4 par1=7 (Main Volume) par2=65
Channel Event. t= 120 (83292) Note On ch=4 par1=40 par2=61
Channel Event. t= 0 (83292) Note On ch=4 par1=52 par2=69
Channel Event. t= 242 (83534) Note Off ch=4 par1=40 par2=64
Channel Event. t= 5 (83539) Note Off ch=4 par1=52 par2=64
Channel Event. t= 233 (83772) Note On ch=4 par1=54 par2=65
Channel Event. t= 0 (83772) Note On ch=4 par1=42 par2=66
Channel Event. t= 390 (84162) Note Off ch=4 par1=42 par2=64
Channel Event. t= 17 (84179) Note Off ch=4 par1=54 par2=64
Channel Event. t= 73 (84252) Note On ch=4 par1=43 par2=52
Channel Event. t= 0 (84252) Note On ch=4 par1=55 par2=63
Channel Event. t= 325 (84577) Note Off ch=4 par1=55 par2=64
Channel Event. t= 7 (84584) Note Off ch=4 par1=43 par2=64
Channel Event. t= 148 (84732) Note On ch=4 par1=54 par2=63
Channel Event. t= 0 (84732) Note On ch=4 par1=42 par2=63
Channel Event. t= 272 (85004) Note Off ch=4 par1=42 par2=64
Channel Event. t= 40 (85044) Note Off ch=4 par1=54 par2=64
Channel Event. t= 168 (85212) Note On ch=4 par1=40 par2=55
Channel Event. t= 0 (85212) Note On ch=4 par1=52 par2=68
Channel Event. t= 282 (85494) Note Off ch=4 par1=52 par2=64
Channel Event. t= 18 (85512) Note Off ch=4 par1=40 par2=64
Channel Event. t= 180 (85692) Note On ch=4 par1=54 par2=69
Channel Event. t= 0 (85692) Note On ch=4 par1=42 par2=63
Channel Event. t= 330 (86022) Note Off ch=4 par1=42 par2=64
Channel Event. t= 0 (86022) Note Off ch=4 par1=54 par2=64
Channel Event. t= 150 (86172) Note On ch=4 par1=43 par2=52
Channel Event. t= 0 (86172) Note On ch=4 par1=55 par2=61
Channel Event. t= 302 (86474) Note Off ch=4 par1=55 par2=64
Channel Event. t= 20 (86494) Note Off ch=4 par1=43 par2=64
Channel Event. t= 158 (86652) Note On ch=4 par1=54 par2=72
Channel Event. t= 0 (86652) Note On ch=4 par1=42 par2=65
Channel Event. t= 325 (86977) Note Off ch=4 par1=42 par2=64
Channel Event. t= 15 (86992) Note Off ch=4 par1=54 par2=64
Channel Event. t= 140 (87132) Note On ch=4 par1=52 par2=66
Channel Event. t= 0 (87132) Note On ch=4 par1=40 par2=67
Channel Event. t= 302 (87434) Note Off ch=4 par1=52 par2=64
Channel Event. t= 13 (87447) Note Off ch=4 par1=40 par2=64
Channel Event. t= 165 (87612) Note On ch=4 par1=54 par2=70
Channel Event. t= 0 (87612) Note On ch=4 par1=42 par2=68
Channel Event. t= 285 (87897) Note Off ch=4 par1=42 par2=64
Channel Event. t= 15 (87912) Note Off ch=4 par1=54 par2=64
Channel Event. t= 180 (88092) Note On ch=4 par1=55 par2=67
Channel Event. t= 0 (88092) Note On ch=4 par1=43 par2=54
Channel Event. t= 292 (88384) Note Off ch=4 par1=43 par2=64
Channel Event. t= 5 (88389) Note Off ch=4 par1=55 par2=64
Channel Event. t= 183 (88572) Note On ch=4 par1=54 par2=72
Channel Event. t= 0 (88572) Note On ch=4 par1=42 par2=71
Channel Event. t= 285 (88857) Note Off ch=4 par1=42 par2=64
Channel Event. t= 20 (88877) Note Off ch=4 par1=54 par2=64
Channel Event. t= 175 (89052) Note On ch=4 par1=52 par2=67
Channel Event. t= 0 (89052) Note On ch=4 par1=40 par2=66
Channel Event. t= 285 (89337) Note Off ch=4 par1=52 par2=64
Channel Event. t= 12 (89349) Note Off ch=4 par1=40 par2=64
Channel Event. t= 183 (89532) Note On ch=4 par1=42 par2=63
Channel Event. t= 0 (89532) Note On ch=4 par1=54 par2=71
Channel Event. t= 332 (89864) Note Off ch=4 par1=42 par2=64
Channel Event. t= 5 (89869) Note Off ch=4 par1=54 par2=64
Channel Event. t= 143 (90012) Note On ch=4 par1=43 par2=53
Channel Event. t= 0 (90012) Note On ch=4 par1=55 par2=66
Channel Event. t= 312 (90324) Note Off ch=4 par1=55 par2=64
Channel Event. t= 20 (90344) Note Off ch=4 par1=43 par2=64
Channel Event. t= 148 (90492) Note On ch=4 par1=40 par2=64
Channel Event. t= 0 (90492) Note On ch=4 par1=52 par2=64
Channel Event. t= 352 (90844) Note Off ch=4 par1=40 par2=64
Channel Event. t= 15 (90859) Note Off ch=4 par1=52 par2=64
Channel Event. t= 113 (90972) Note On ch=4 par1=42 par2=65
Channel Event. t= 0 (90972) Note On ch=4 par1=54 par2=77
Channel Event. t= 352 (91324) Note Off ch=4 par1=42 par2=64
Channel Event. t= 18 (91342) Note Off ch=4 par1=54 par2=64
Channel Event. t= 110 (91452) Note On ch=4 par1=40 par2=63
Channel Event. t= 0 (91452) Note On ch=4 par1=52 par2=68
Channel Event. t= 322 (91774) Note Off ch=4 par1=52 par2=64
Channel Event. t= 38 (91812) Note Off ch=4 par1=40 par2=64
Channel Event. t= 120 (91932) Note On ch=4 par1=42 par2=65
Channel Event. t= 0 (91932) Note On ch=4 par1=54 par2=78
Channel Event. t= 392 (92324) Note Off ch=4 par1=54 par2=64
Channel Event. t= 33 (92357) Note Off ch=4 par1=42 par2=64
Channel Event. t= 55 (92412) Note On ch=4 par1=51 par2=90
Channel Event. t= 0 (92412) Note On ch=4 par1=39 par2=73
Channel Event. t= 345 (92757) Note Off ch=4 par1=39 par2=64
Channel Event. t= 57 (92814) Note Off ch=4 par1=51 par2=64
Channel Event. t= 78 (92892) Note On ch=4 par1=52 par2=77
Channel Event. t= 0 (92892) Note On ch=4 par1=40 par2=72
Channel Event. t= 300 (93192) Note Off ch=4 par1=40 par2=64
Channel Event. t= 30 (93222) Note Off ch=4 par1=52 par2=64
Channel Event. t= 150 (93372) Note On ch=4 par1=54 par2=79
Channel Event. t= 0 (93372) Note On ch=4 par1=42 par2=80
Channel Event. t= 317 (93689) Note Off ch=4 par1=54 par2=64
Channel Event. t= 20 (93709) Note Off ch=4 par1=42 par2=64
Channel Event. t= 143 (93852) Note On ch=4 par1=43 par2=63
Channel Event. t= 0 (93852) Note On ch=4 par1=55 par2=74
Channel Event. t= 330 (94182) Note Off ch=4 par1=55 par2=64
Channel Event. t= 12 (94194) Note Off ch=4 par1=43 par2=64
Channel Event. t= 138 (94332) Note On ch=4 par1=54 par2=77
Channel Event. t= 0 (94332) Note On ch=4 par1=42 par2=78
Channel Event. t= 255 (94587) Note Off ch=4 par1=42 par2=64
Channel Event. t= 165 (94752) Note Off ch=4 par1=54 par2=64
Channel Event. t= 60 (94812) Note On ch=4 par1=52 par2=80
Channel Event. t= 372 (95184) Note Off ch=4 par1=52 par2=64
Channel Event. t= 108 (95292) Note On ch=4 par1=54 par2=83
Channel Event. t= 357 (95649) Note Off ch=4 par1=54 par2=64
Channel Event. t= 123 (95772) Note On ch=4 par1=55 par2=76
Channel Event. t= 322 (96094) Note Off ch=4 par1=55 par2=64
Channel Event. t= 158 (96252) Note On ch=4 par1=42 par2=73
Channel Event. t= 0 (96252) Note On ch=4 par1=54 par2=80
Channel Event. t= 380 (96632) Note Off ch=4 par1=42 par2=64
Channel Event. t= 17 (96649) Note Off ch=4 par1=54 par2=64
Channel Event. t= 83 (96732) Note On ch=4 par1=52 par2=70
Channel Event. t= 0 (96732) Note On ch=4 par1=40 par2=74
Channel Event. t= 360 (97092) Note Off ch=4 par1=40 par2=64
Channel Event. t= 5 (97097) Note Off ch=4 par1=52 par2=64
Channel Event. t= 115 (97212) Note On ch=4 par1=42 par2=76
Channel Event. t= 0 (97212) Note On ch=4 par1=54 par2=76
Channel Event. t= 375 (97587) Note Off ch=4 par1=54 par2=64
Channel Event. t= 32 (97619) Note Off ch=4 par1=42 par2=64
Channel Event. t= 73 (97692) Note On ch=4 par1=43 par2=75
Channel Event. t= 0 (97692) Note On ch=4 par1=55 par2=65
Channel Event. t= 360 (98052) Note Off ch=4 par1=55 par2=64
Channel Event. t= 112 (98164) Note Off ch=4 par1=43 par2=64
Channel Event. t= 8 (98172) Note On ch=4 par1=52 par2=71
Channel Event. t= 0 (98172) Note On ch=4 par1=40 par2=78
Channel Event. t= 432 (98604) Note Off ch=4 par1=52 par2=64
Channel Event. t= 8 (98612) Note Off ch=4 par1=40 par2=64
Channel Event. t= 40 (98652) Note On ch=4 par1=35 par2=79
Channel Event. t= 0 (98652) Note On ch=4 par1=47 par2=75
Channel Event. t= 412 (99064) Note Off ch=4 par1=47 par2=64
Channel Event. t= 30 (99094) Note Off ch=4 par1=35 par2=64
Channel Event. t= 38 (99132) Note On ch=4 par1=54 par2=86
Channel Event. t= 0 (99132) Note On ch=4 par1=42 par2=79
Channel Event. t= 345 (99477) Note Off ch=4 par1=54 par2=64
Channel Event. t= 47 (99524) Note Off ch=4 par1=42 par2=64
Channel Event. t= 88 (99612) Note On ch=4 par1=47 par2=76
Channel Event. t= 0 (99612) Note On ch=4 par1=59 par2=66
Channel Event. t= 260 (99872) Note Off ch=4 par1=47 par2=64
Channel Event. t= 82 (99954) Note Off ch=4 par1=59 par2=64
Channel Event. t= 138 (100092) Note On ch=4 par1=35 par2=78
Channel Event. t= 0 (100092) Note On ch=4 par1=47 par2=76
Channel Event. t= 357 (100449) Note Off ch=4 par1=35 par2=64
Channel Event. t= 48 (100497) Note Off ch=4 par1=47 par2=64
Channel Event. t= 45 (100542) Controller ch=4 par1=7 (Main Volume) par2=63
Channel Event. t= 30 (100572) Note On ch=4 par1=36 par2=96
Channel Event. t= 955 (101527) Note Off ch=4 par1=36 par2=64
Channel Event. t= 5 (101532) Note On ch=4 par1=42 par2=96
Channel Event. t= 960 (102492) Note On ch=4 par1=48 par2=91
Channel Event. t= 52 (102544) Note Off ch=4 par1=42 par2=64
Channel Event. t= 908 (103452) Note On ch=4 par1=42 par2=94
Channel Event. t= 45 (103497) Note Off ch=4 par1=48 par2=64
Channel Event. t= 915 (104412) Note On ch=4 par1=36 par2=94
Channel Event. t= 40 (104452) Note Off ch=4 par1=42 par2=64
Channel Event. t= 920 (105372) Note On ch=4 par1=42 par2=97
Channel Event. t= 57 (105429) Note Off ch=4 par1=36 par2=64
Channel Event. t= 903 (106332) Note On ch=4 par1=48 par2=91
Channel Event. t= 42 (106374) Note Off ch=4 par1=42 par2=64
Channel Event. t= 918 (107292) Note On ch=4 par1=42 par2=92
Channel Event. t= 45 (107337) Note Off ch=4 par1=48 par2=64
Channel Event. t= 915 (108252) Note On ch=4 par1=36 par2=92
Channel Event. t= 37 (108289) Note Off ch=4 par1=42 par2=64
Channel Event. t= 923 (109212) Note On ch=4 par1=42 par2=90
Channel Event. t= 55 (109267) Note Off ch=4 par1=36 par2=64
Channel Event. t= 905 (110172) Note On ch=4 par1=48 par2=92
Channel Event. t= 45 (110217) Note Off ch=4 par1=42 par2=64
Channel Event. t= 915 (111132) Note On ch=4 par1=42 par2=86
Channel Event. t= 52 (111184) Note Off ch=4 par1=48 par2=64
Channel Event. t= 908 (112092) Note On ch=4 par1=36 par2=90
Channel Event. t= 37 (112129) Note Off ch=4 par1=42 par2=64
Channel Event. t= 923 (113052) Note On ch=4 par1=42 par2=92
Channel Event. t= 52 (113104) Note Off ch=4 par1=36 par2=64
Channel Event. t= 908 (114012) Note On ch=4 par1=48 par2=87
Channel Event. t= 37 (114049) Note Off ch=4 par1=42 par2=64
Channel Event. t= 923 (114972) Note On ch=4 par1=42 par2=91
Channel Event. t= 47 (115019) Note Off ch=4 par1=48 par2=64
Channel Event. t= 913 (115932) Note On ch=4 par1=36 par2=92
Channel Event. t= 2 (115934) Note Off ch=4 par1=42 par2=64
Channel Event. t= 958 (116892) Note On ch=4 par1=42 par2=93
Channel Event. t= 77 (116969) Note Off ch=4 par1=36 par2=64
Channel Event. t= 883 (117852) Note On ch=4 par1=35 par2=77
Channel Event. t= 0 (117852) Note On ch=4 par1=47 par2=80
Channel Event. t= 32 (117884) Note Off ch=4 par1=42 par2=64
Channel Event. t= 1848 (119732) Note Off ch=4 par1=47 par2=64
Channel Event. t= 5 (119737) Note Off ch=4 par1=35 par2=64
Channel Event. t= 1955 (121692) Note On ch=4 par1=36 par2=57
Channel Event. t= 0 (121692) Note On ch=4 par1=43 par2=66
Channel Event. t= 142 (121834) Note Off ch=4 par1=43 par2=64
Channel Event. t= 10 (121844) Note Off ch=4 par1=36 par2=64
Channel Event. t= 808 (122652) Note On ch=4 par1=43 par2=44
Channel Event. t= 0 (122652) Note On ch=4 par1=36 par2=41
Channel Event. t= 132 (122784) Note Off ch=4 par1=43 par2=64
Channel Event. t= 8 (122792) Note Off ch=4 par1=36 par2=64
Channel Event. t= 820 (123612) Note On ch=4 par1=43 par2=44
Channel Event. t= 0 (123612) Note On ch=4 par1=36 par2=40
Channel Event. t= 142 (123754) Note Off ch=4 par1=43 par2=64
Channel Event. t= 10 (123764) Note Off ch=4 par1=36 par2=64
Channel Event. t= 808 (124572) Note On ch=4 par1=43 par2=51
Channel Event. t= 0 (124572) Note On ch=4 par1=36 par2=27
Channel Event. t= 157 (124729) Note Off ch=4 par1=36 par2=64
Channel Event. t= 3 (124732) Note Off ch=4 par1=43 par2=64
Channel Event. t= 800 (125532) Note On ch=4 par1=43 par2=43
Channel Event. t= 0 (125532) Note On ch=4 par1=36 par2=56
Channel Event. t= 160 (125692) Note Off ch=4 par1=43 par2=64
Channel Event. t= 7 (125699) Note Off ch=4 par1=36 par2=64
Channel Event. t= 793 (126492) Note On ch=4 par1=36 par2=52
Channel Event. t= 0 (126492) Note On ch=4 par1=43 par2=53
Channel Event. t= 157 (126649) Note Off ch=4 par1=43 par2=64
Channel Event. t= 10 (126659) Note Off ch=4 par1=36 par2=64
Channel Event. t= 793 (127452) Note On ch=4 par1=36 par2=57
Channel Event. t= 0 (127452) Note On ch=4 par1=43 par2=62
Channel Event. t= 212 (127664) Note Off ch=4 par1=43 par2=64
Channel Event. t= 13 (127677) Note Off ch=4 par1=36 par2=64
Channel Event. t= 735 (128412) Note On ch=4 par1=41 par2=69
Channel Event. t= 0 (128412) Note On ch=4 par1=48 par2=63
Channel Event. t= 265 (128677) Note Off ch=4 par1=48 par2=64
Channel Event. t= 10 (128687) Note Off ch=4 par1=41 par2=64
Channel Event. t= 685 (129372) Note On ch=4 par1=42 par2=66
Channel Event. t= 0 (129372) Note On ch=4 par1=48 par2=39
Channel Event. t= 255 (129627) Note Off ch=4 par1=48 par2=64
Channel Event. t= 10 (129637) Note Off ch=4 par1=42 par2=64
Channel Event. t= 695 (130332) Note On ch=4 par1=43 par2=56
Channel Event. t= 0 (130332) Note On ch=4 par1=48 par2=52
Channel Event. t= 242 (130574) Note Off ch=4 par1=48 par2=64
Channel Event. t= 23 (130597) Note Off ch=4 par1=43 par2=64
Channel Event. t= 1175 (131772) Note On ch=4 par1=36 par2=81
Channel Event. t= 900 (132672) Note Off ch=4 par1=36 par2=64
Channel Event. t= 180 (132852) Controller ch=4 par1=7 (Main Volume) par2=68
Channel Event. t= 240 (133092) Note On ch=4 par1=36 par2=72
Channel Event. t= 120 (133212) Note On ch=4 par1=43 par2=78
Channel Event. t= 2 (133214) Note Off ch=4 par1=36 par2=64
Channel Event. t= 165 (133379) Note Off ch=4 par1=43 par2=64
Channel Event. t= 193 (133572) Note On ch=4 par1=43 par2=68
Channel Event. t= 120 (133692) Note On ch=4 par1=36 par2=88
Channel Event. t= 20 (133712) Note Off ch=4 par1=43 par2=64
Channel Event. t= 817 (134529) Note Off ch=4 par1=36 par2=64
Channel Event. t= 3 (134532) Note On ch=4 par1=39 par2=77
Channel Event. t= 120 (134652) Note On ch=4 par1=40 par2=69
Channel Event. t= 35 (134687) Note Off ch=4 par1=39 par2=64
Channel Event. t= 282 (134969) Note Off ch=4 par1=40 par2=64
Channel Event. t= 43 (135012) Note On ch=4 par1=44 par2=70
Channel Event. t= 120 (135132) Note On ch=4 par1=45 par2=75
Channel Event. t= 2 (135134) Note Off ch=4 par1=44 par2=64
Channel Event. t= 298 (135432) Note Off ch=4 par1=45 par2=64
Channel Event. t= 60 (135492) Note On ch=4 par1=41 par2=81
Channel Event. t= 120 (135612) Note Off ch=4 par1=41 par2=64
Channel Event. t= 0 (135612) Note On ch=4 par1=50 par2=87
Channel Event. t= 215 (135827) Note Off ch=4 par1=50 par2=64
Channel Event. t= 25 (135852) Note On ch=4 par1=50 par2=90
Channel Event. t= 220 (136072) Note Off ch=4 par1=50 par2=64
Channel Event. t= 25 (136097) Note On ch=4 par1=50 par2=94
Channel Event. t= 140 (136237) Note On ch=4 par1=51 par2=84
Channel Event. t= 32 (136269) Note Off ch=4 par1=50 par2=64
Channel Event. t= 98 (136367) Note Off ch=4 par1=51 par2=64
Channel Event. t= 5 (136372) Note On ch=4 par1=52 par2=88
Channel Event. t= 70 (136442) Note Off ch=4 par1=52 par2=64
Channel Event. t= 75 (136517) Note On ch=4 par1=52 par2=97
Channel Event. t= 160 (136677) Note Off ch=4 par1=52 par2=64
Channel Event. t= 0 (136677) Note On ch=4 par1=53 par2=90
Channel Event. t= 180 (136857) Note On ch=4 par1=54 par2=77
Channel Event. t= 27 (136884) Note Off ch=4 par1=53 par2=64
Channel Event. t= 128 (137012) Note Off ch=4 par1=54 par2=64
Channel Event. t= 47 (137059) Note On ch=4 par1=55 par2=102
Channel Event. t= 1378 (138437) Note Off ch=4 par1=55 par2=64
Channel Event. t= 57 (138494) Note On ch=4 par1=56 par2=96
Channel Event. t= 143 (138637) Note On ch=4 par1=57 par2=82
Channel Event. t= 15 (138652) Note Off ch=4 par1=56 par2=64
Channel Event. t= 137 (138789) Note On ch=4 par1=58 par2=92
Channel Event. t= 28 (138817) Note Off ch=4 par1=57 par2=64
Channel Event. t= 155 (138972) Note On ch=4 par1=59 par2=85
Channel Event. t= 12 (138984) Note Off ch=4 par1=58 par2=64
Channel Event. t= 948 (139932) Note On ch=4 par1=60 par2=76
Channel Event. t= 42 (139974) Note Off ch=4 par1=59 par2=64
Channel Event. t= 268 (140242) Note Off ch=4 par1=60 par2=64
Channel Event. t= 650 (140892) Note On ch=4 par1=48 par2=63
Channel Event. t= 1885 (142777) Note Off ch=4 par1=48 par2=64
Channel Event. t= 1955 (144732) Note On ch=4 par1=36 par2=68
Channel Event. t= 0 (144732) Note On ch=4 par1=43 par2=69
Channel Event. t= 297 (145029) Note Off ch=4 par1=36 par2=64
Channel Event. t= 8 (145037) Note Off ch=4 par1=43 par2=64
Channel Event. t= 655 (145692) Note On ch=4 par1=47 par2=81
Channel Event. t= 0 (145692) Note On ch=4 par1=40 par2=85
Channel Event. t= 427 (146119) Note Off ch=4 par1=47 par2=64
Channel Event. t= 13 (146132) Note Off ch=4 par1=40 par2=64
Channel Event. t= 520 (146652) Note On ch=4 par1=36 par2=75
Channel Event. t= 0 (146652) Note On ch=4 par1=43 par2=74
Channel Event. t= 460 (147112) Note Off ch=4 par1=43 par2=64
Channel Event. t= 2 (147114) Note Off ch=4 par1=36 par2=64
Channel Event. t= 498 (147612) Note On ch=4 par1=47 par2=76
Channel Event. t= 0 (147612) Note On ch=4 par1=40 par2=74
Channel Event. t= 555 (148167) Note Off ch=4 par1=47 par2=64
Channel Event. t= 2 (148169) Note Off ch=4 par1=40 par2=64
Channel Event. t= 403 (148572) Note On ch=4 par1=36 par2=77
Channel Event. t= 0 (148572) Note On ch=4 par1=43 par2=79
Channel Event. t= 552 (149124) Note Off ch=4 par1=43 par2=64
Channel Event. t= 3 (149127) Note Off ch=4 par1=36 par2=64
Channel Event. t= 405 (149532) Note On ch=4 par1=47 par2=74
Channel Event. t= 0 (149532) Note On ch=4 par1=40 par2=75
Channel Event. t= 550 (150082) Note Off ch=4 par1=40 par2=64
Channel Event. t= 25 (150107) Note Off ch=4 par1=47 par2=64
Channel Event. t= 385 (150492) Note On ch=4 par1=36 par2=74
Channel Event. t= 0 (150492) Note On ch=4 par1=43 par2=77
Channel Event. t= 507 (150999) Note Off ch=4 par1=36 par2=64
Channel Event. t= 33 (151032) Note Off ch=4 par1=43 par2=64
Channel Event. t= 420 (151452) Note On ch=4 par1=47 par2=80
Channel Event. t= 0 (151452) Note On ch=4 par1=40 par2=81
Channel Event. t= 622 (152074) Note Off ch=4 par1=47 par2=64
Channel Event. t= 25 (152099) Note Off ch=4 par1=40 par2=64
Channel Event. t= 313 (152412) Note On ch=4 par1=39 par2=93
Channel Event. t= 0 (152412) Note On ch=4 par1=32 par2=90
Channel Event. t= 495 (152907) Note Off ch=4 par1=32 par2=64
Channel Event. t= 5 (152912) Note Off ch=4 par1=39 par2=64
Channel Event. t= 460 (153372) Note On ch=4 par1=36 par2=85
Channel Event. t= 0 (153372) Note On ch=4 par1=43 par2=81
Channel Event. t= 555 (153927) Note Off ch=4 par1=43 par2=64
Channel Event. t= 10 (153937) Note Off ch=4 par1=36 par2=64
Channel Event. t= 395 (154332) Note On ch=4 par1=32 par2=87
Channel Event. t= 0 (154332) Note On ch=4 par1=39 par2=93
Channel Event. t= 542 (154874) Note Off ch=4 par1=32 par2=64
Channel Event. t= 5 (154879) Note Off ch=4 par1=39 par2=64
Channel Event. t= 413 (155292) Note On ch=4 par1=43 par2=85
Channel Event. t= 0 (155292) Note On ch=4 par1=36 par2=90
Channel Event. t= 567 (155859) Note Off ch=4 par1=36 par2=64
Channel Event. t= 3 (155862) Note Off ch=4 par1=43 par2=64
Channel Event. t= 390 (156252) Note On ch=4 par1=39 par2=84
Channel Event. t= 0 (156252) Note On ch=4 par1=46 par2=84
Channel Event. t= 542 (156794) Note Off ch=4 par1=39 par2=64
Channel Event. t= 8 (156802) Note Off ch=4 par1=46 par2=64
Channel Event. t= 410 (157212) Note On ch=4 par1=36 par2=85
Channel Event. t= 0 (157212) Note On ch=4 par1=43 par2=87
Channel Event. t= 607 (157819) Note Off ch=4 par1=43 par2=64
Channel Event. t= 25 (157844) Note Off ch=4 par1=36 par2=64
Channel Event. t= 328 (158172) Note On ch=4 par1=39 par2=83
Channel Event. t= 0 (158172) Note On ch=4 par1=46 par2=82
Channel Event. t= 590 (158762) Note Off ch=4 par1=46 par2=64
Channel Event. t= 15 (158777) Note Off ch=4 par1=39 par2=64
Channel Event. t= 355 (159132) Note On ch=4 par1=36 par2=79
Channel Event. t= 0 (159132) Note On ch=4 par1=43 par2=83
Channel Event. t= 557 (159689) Note Off ch=4 par1=36 par2=64
Channel Event. t= 40 (159729) Note Off ch=4 par1=43 par2=64
Channel Event. t= 363 (160092) Note On ch=4 par1=46 par2=97
Channel Event. t= 0 (160092) Note On ch=4 par1=39 par2=98
Channel Event. t= 590 (160682) Note Off ch=4 par1=39 par2=64
Channel Event. t= 5 (160687) Note Off ch=4 par1=46 par2=64
Channel Event. t= 365 (161052) Note On ch=4 par1=43 par2=66
Channel Event. t= 0 (161052) Note On ch=4 par1=50 par2=66
Channel Event. t= 567 (161619) Note Off ch=4 par1=43 par2=64
Channel Event. t= 38 (161657) Note Off ch=4 par1=50 par2=64
Channel Event. t= 355 (162012) Note On ch=4 par1=39 par2=90
Channel Event. t= 0 (162012) Note On ch=4 par1=46 par2=93
Channel Event. t= 612 (162624) Note Off ch=4 par1=39 par2=64
Channel Event. t= 20 (162644) Note Off ch=4 par1=46 par2=64
Channel Event. t= 328 (162972) Note On ch=4 par1=50 par2=71
Channel Event. t= 0 (162972) Note On ch=4 par1=43 par2=66
Channel Event. t= 477 (163449) Note Off ch=4 par1=43 par2=64
Channel Event. t= 33 (163482) Note Off ch=4 par1=50 par2=64
Channel Event. t= 450 (163932) Note On ch=4 par1=39 par2=86
Channel Event. t= 0 (163932) Note On ch=4 par1=46 par2=90
Channel Event. t= 672 (164604) Note Off ch=4 par1=39 par2=64
Channel Event. t= 23 (164627) Note Off ch=4 par1=46 par2=64
Channel Event. t= 265 (164892) Note On ch=4 par1=42 par2=80
Channel Event. t= 0 (164892) Note On ch=4 par1=50 par2=68
Channel Event. t= 510 (165402) Note Off ch=4 par1=42 par2=64
Channel Event. t= 15 (165417) Note Off ch=4 par1=50 par2=64
Channel Event. t= 435 (165852) Note On ch=4 par1=39 par2=91
Channel Event. t= 0 (165852) Note On ch=4 par1=46 par2=90
Channel Event. t= 542 (166394) Note Off ch=4 par1=39 par2=64
Channel Event. t= 25 (166419) Note Off ch=4 par1=46 par2=64
Channel Event. t= 393 (166812) Note On ch=4 par1=50 par2=72
Channel Event. t= 0 (166812) Note On ch=4 par1=43 par2=69
Channel Event. t= 482 (167294) Note Off ch=4 par1=43 par2=64
Channel Event. t= 15 (167309) Note Off ch=4 par1=50 par2=64
Channel Event. t= 463 (167772) Note On ch=4 par1=38 par2=88
Channel Event. t= 0 (167772) Note On ch=4 par1=47 par2=63
Channel Event. t= 480 (168252) Note Off ch=4 par1=47 par2=64
Channel Event. t= 0 (168252) Note Off ch=4 par1=38 par2=64
Channel Event. t= 480 (168732) Note On ch=4 par1=48 par2=87
Channel Event. t= 0 (168732) Note On ch=4 par1=38 par2=85
Channel Event. t= 532 (169264) Note Off ch=4 par1=38 par2=64
Channel Event. t= 25 (169289) Note Off ch=4 par1=48 par2=64
Channel Event. t= 643 (169932) Note On ch=4 par1=55 par2=95
Channel Event. t= 240 (170172) Note On ch=4 par1=53 par2=83
Channel Event. t= 37 (170209) Note Off ch=4 par1=55 par2=64
Channel Event. t= 203 (170412) Note On ch=4 par1=52 par2=78
Channel Event. t= 15 (170427) Note Off ch=4 par1=53 par2=64
Channel Event. t= 225 (170652) Note On ch=4 par1=50 par2=75
Channel Event. t= 5 (170657) Note Off ch=4 par1=52 par2=64
Channel Event. t= 235 (170892) Note On ch=4 par1=48 par2=54
Channel Event. t= 27 (170919) Note Off ch=4 par1=50 par2=64
Channel Event. t= 213 (171132) Note On ch=4 par1=47 par2=69
Channel Event. t= 15 (171147) Note Off ch=4 par1=48 par2=64
Channel Event. t= 212 (171359) Note Off ch=4 par1=47 par2=64
Channel Event. t= 13 (171372) Note On ch=4 par1=45 par2=46
Channel Event. t= 240 (171612) Controller ch=4 par1=7 (Main Volume) par2=54
Channel Event. t= 0 (171612) Note On ch=4 par1=43 par2=63
Channel Event. t= 37 (171649) Note Off ch=4 par1=45 par2=64
Channel Event. t= 203 (171852) Note On ch=4 par1=45 par2=55
Channel Event. t= 20 (171872) Note Off ch=4 par1=43 par2=64
Channel Event. t= 160 (172032) Controller ch=4 par1=7 (Main Volume) par2=53
Channel Event. t= 60 (172092) Note On ch=4 par1=47 par2=60
Channel Event. t= 42 (172134) Note Off ch=4 par1=45 par2=64
Channel Event. t= 193 (172327) Note Off ch=4 par1=47 par2=64
Channel Event. t= 5 (172332) Note On ch=4 par1=48 par2=67
Channel Event. t= 60 (172392) Controller ch=4 par1=7 (Main Volume) par2=52
Channel Event. t= 180 (172572) Note On ch=4 par1=50 par2=78
Channel Event. t= 40 (172612) Note Off ch=4 par1=48 par2=64
Channel Event. t= 200 (172812) Controller ch=4 par1=7 (Main Volume) par2=51
Channel Event. t= 0 (172812) Note On ch=4 par1=52 par2=68
Channel Event. t= 57 (172869) Note Off ch=4 par1=50 par2=64
Channel Event. t= 183 (173052) Note On ch=4 par1=54 par2=78
Channel Event. t= 37 (173089) Note Off ch=4 par1=52 par2=64
Channel Event. t= 83 (173172) Controller ch=4 par1=7 (Main Volume) par2=50
Channel Event. t= 97 (173269) Note Off ch=4 par1=54 par2=64
Channel Event. t= 23 (173292) Note On ch=4 par1=55 par2=65
Channel Event. t= 240 (173532) Controller ch=4 par1=7 (Main Volume) par2=49
Channel Event. t= 0 (173532) Note On ch=4 par1=44 par2=78
Channel Event. t= 0 (173532) Note On ch=4 par1=56 par2=83
Channel Event. t= 15 (173547) Note Off ch=4 par1=55 par2=64
Channel Event. t= 405 (173952) Controller ch=4 par1=7 (Main Volume) par2=48
Channel Event. t= 360 (174312) Controller ch=4 par1=7 (Main Volume) par2=47
Channel Event. t= 70 (174382) Note Off ch=4 par1=56 par2=64
Channel Event. t= 2 (174384) Note Off ch=4 par1=44 par2=64
Channel Event. t= 108 (174492) Note On ch=4 par1=56 par2=92
Channel Event. t= 0 (174492) Note On ch=4 par1=44 par2=95
Channel Event. t= 237 (174729) Note Off ch=4 par1=44 par2=64
Channel Event. t= 3 (174732) Controller ch=4 par1=7 (Main Volume) par2=46
Channel Event. t= 0 (174732) Note On ch=4 par1=47 par2=71
Channel Event. t= 0 (174732) Note On ch=4 par1=59 par2=83
Channel Event. t= 2 (174734) Note Off ch=4 par1=56 par2=64
Channel Event. t= 118 (174852) Note On ch=4 par1=51 par2=81
Channel Event. t= 0 (174852) Note On ch=4 par1=39 par2=78
Channel Event. t= 10 (174862) Note Off ch=4 par1=47 par2=64
Channel Event. t= 40 (174902) Note Off ch=4 par1=59 par2=64
Channel Event. t= 70 (174972) Note On ch=4 par1=44 par2=84
Channel Event. t= 0 (174972) Note On ch=4 par1=56 par2=88
Channel Event. t= 25 (174997) Note Off ch=4 par1=51 par2=64
Channel Event. t= 0 (174997) Note Off ch=4 par1=39 par2=64
Channel Event. t= 95 (175092) Controller ch=4 par1=7 (Main Volume) par2=45
Channel Event. t= 120 (175212) Note On ch=4 par1=47 par2=74
Channel Event. t= 0 (175212) Note On ch=4 par1=59 par2=82
Channel Event. t= 5 (175217) Note Off ch=4 par1=44 par2=64
Channel Event. t= 20 (175237) Note Off ch=4 par1=56 par2=64
Channel Event. t= 95 (175332) Note On ch=4 par1=51 par2=77
Channel Event. t= 0 (175332) Note On ch=4 par1=39 par2=79
Channel Event. t= 22 (175354) Note Off ch=4 par1=47 par2=64
Channel Event. t= 18 (175372) Note Off ch=4 par1=59 par2=64
Channel Event. t= 27 (175399) Note Off ch=4 par1=51 par2=64
Channel Event. t= 10 (175409) Note Off ch=4 par1=39 par2=64
Channel Event. t= 43 (175452) Controller ch=4 par1=7 (Main Volume) par2=44
Channel Event. t= 0 (175452) Note On ch=4 par1=35 par2=94
Channel Event. t= 240 (175692) Note On ch=4 par1=37 par2=75
Channel Event. t= 30 (175722) Note Off ch=4 par1=35 par2=64
Channel Event. t= 130 (175852) Note Off ch=4 par1=37 par2=64
Channel Event. t= 20 (175872) Controller ch=4 par1=7 (Main Volume) par2=43
Channel Event. t= 60 (175932) Note On ch=4 par1=39 par2=91
Channel Event. t= 240 (176172) Note On ch=4 par1=40 par2=80
Channel Event. t= 5 (176177) Note Off ch=4 par1=39 par2=64
Channel Event. t= 55 (176232) Controller ch=4 par1=7 (Main Volume) par2=42
Channel Event. t= 112 (176344) Note Off ch=4 par1=40 par2=64
Channel Event. t= 68 (176412) Note On ch=4 par1=42 par2=101
Channel Event. t= 240 (176652) Controller ch=4 par1=7 (Main Volume) par2=41
Channel Event. t= 0 (176652) Note On ch=4 par1=43 par2=77
Channel Event. t= 17 (176669) Note Off ch=4 par1=42 par2=64
Channel Event. t= 120 (176789) Note Off ch=4 par1=43 par2=64
Channel Event. t= 103 (176892) Note On ch=4 par1=44 par2=96
Channel Event. t= 120 (177012) Controller ch=4 par1=7 (Main Volume) par2=40
Channel Event. t= 120 (177132) Note On ch=4 par1=45 par2=80
Channel Event. t= 10 (177142) Note Off ch=4 par1=44 par2=64
Channel Event. t= 175 (177317) Note Off ch=4 par1=45 par2=64
Channel Event. t= 55 (177372) Controller ch=4 par1=7 (Main Volume) par2=39
Channel Event. t= 0 (177372) Note On ch=4 par1=57 par2=99
Channel Event. t= 420 (177792) Controller ch=4 par1=7 (Main Volume) par2=38
Channel Event. t= 60 (177852) Note On ch=4 par1=50 par2=95
Channel Event. t= 0 (177852) Note On ch=4 par1=38 par2=92
Channel Event. t= 82 (177934) Note Off ch=4 par1=50 par2=64
Channel Event. t= 33 (177967) Note Off ch=4 par1=38 par2=64
Channel Event. t= 185 (178152) Controller ch=4 par1=7 (Main Volume) par2=37
Channel Event. t= 180 (178332) Note Off ch=4 par1=57 par2=64
Channel Event. t= 0 (178332) Note On ch=4 par1=38 par2=89
Channel Event. t= 0 (178332) Note On ch=4 par1=55 par2=99
Channel Event. t= 0 (178332) Note On ch=4 par1=47 par2=89
Channel Event. t= 0 (178332) Note On ch=4 par1=31 par2=80
Channel Event. t= 240 (178572) Note Off ch=4 par1=31 par2=64
Channel Event. t= 0 (178572) Note Off ch=4 par1=47 par2=64
Channel Event. t= 0 (178572) Note Off ch=4 par1=55 par2=64
Channel Event. t= 0 (178572) Note Off ch=4 par1=38 par2=64
Channel Event. t= 0 (178572) Controller ch=4 par1=7 (Main Volume) par2=36
Channel Event. t= 360 (178932) Controller ch=4 par1=7 (Main Volume) par2=35
Channel Event. t= 0 (178932) 
Meta Event. Type: 0x2f (47dec), End of Track (0 bytes): 
track #10
track size: 4828
Channel Event. t= 0 (0) 
Meta Event. Type: 0x3 (3dec), Sequence/Track Name (20 bytes): Strings             
Channel Event. t= 0 (0) 
Meta Event. Type: 0x21 (33dec), MIDI Port (1 bytes): 0
Channel Event. t= 0 (0) 
Meta Event. Type: 0x20 (32dec), MIDI Channel Prefix (1 bytes): 5
Channel Event. t= 0 (0) Controller ch=5 par1=10 (Pan) par2=64
Channel Event. t= 0 (0) Controller ch=5 par1=91 (Effects 2 Depth (formerly Tremolo Depth)) par2=127
Channel Event. t= 0 (0) Program Change ch=5 par1=48 par2=-124
Channel Event. t= 15104 (15104) Controller ch=5 par1=10 (Pan) par2=45
Channel Event. t= 1890 (16994) Controller ch=5 par1=7 (Main Volume) par2=80
Channel Event. t= 37 (17031) Note On ch=5 par1=47 par2=127
Channel Event. t= 163 (17194) Note On ch=5 par1=48 par2=106
Channel Event. t= 40 (17234) Note Off ch=5 par1=47 par2=64
Channel Event. t= 42 (17276) Note On ch=5 par1=47 par2=98
Channel Event. t= 18 (17294) Note Off ch=5 par1=48 par2=64
Channel Event. t= 50 (17344) Note On ch=5 par1=48 par2=105
Channel Event. t= 40 (17384) Note Off ch=5 par1=47 par2=64
Channel Event. t= 40 (17424) Note On ch=5 par1=47 par2=104
Channel Event. t= 12 (17436) Note Off ch=5 par1=48 par2=64
Channel Event. t= 45 (17481) Note On ch=5 par1=48 par2=106
Channel Event. t= 38 (17519) Note Off ch=5 par1=47 par2=64
Channel Event. t= 37 (17556) Note On ch=5 par1=47 par2=110
Channel Event. t= 13 (17569) Note Off ch=5 par1=48 par2=64
Channel Event. t= 42 (17611) Note On ch=5 par1=48 par2=110
Channel Event. t= 40 (17651) Note Off ch=5 par1=47 par2=64
Channel Event. t= 38 (17689) Note On ch=5 par1=47 par2=108
Channel Event. t= 12 (17701) Note Off ch=5 par1=48 par2=64
Channel Event. t= 43 (17744) Note On ch=5 par1=48 par2=109
Channel Event. t= 42 (17786) Note Off ch=5 par1=47 par2=64
Channel Event. t= 28 (17814) Note On ch=5 par1=47 par2=91
Channel Event. t= 20 (17834) Note Off ch=5 par1=48 par2=64
Channel Event. t= 45 (17879) Note On ch=5 par1=48 par2=105
Channel Event. t= 35 (17914) Note Off ch=5 par1=47 par2=64
Channel Event. t= 30 (17944) Note On ch=5 par1=47 par2=88
Channel Event. t= 17 (17961) Note Off ch=5 par1=48 par2=64
Channel Event. t= 45 (18006) Note On ch=5 par1=48 par2=106
Channel Event. t= 30 (18036) Note Off ch=5 par1=47 par2=64
Channel Event. t= 40 (18076) Note On ch=5 par1=47 par2=98
Channel Event. t= 10 (18086) Note Off ch=5 par1=48 par2=64
Channel Event. t= 45 (18131) Note On ch=5 par1=48 par2=103
Channel Event. t= 33 (18164) Note Off ch=5 par1=47 par2=64
Channel Event. t= 35 (18199) Note On ch=5 par1=47 par2=92
Channel Event. t= 12 (18211) Note Off ch=5 par1=48 par2=64
Channel Event. t= 45 (18256) Note On ch=5 par1=48 par2=106
Channel Event. t= 33 (18289) Note Off ch=5 par1=47 par2=64
Channel Event. t= 25 (18314) Note On ch=5 par1=47 par2=78
Channel Event. t= 12 (18326) Note Off ch=5 par1=48 par2=64
Channel Event. t= 48 (18374) Note On ch=5 par1=48 par2=97
Channel Event. t= 70 (18444) Note Off ch=5 par1=48 par2=64
Channel Event. t= 52 (18496) Note On ch=5 par1=48 par2=83
Channel Event. t= 38 (18534) Note Off ch=5 par1=47 par2=64
Channel Event. t= 50 (18584) Note On ch=5 par1=47 par2=108
Channel Event. t= 12 (18596) Note Off ch=5 par1=48 par2=64
Channel Event. t= 48 (18644) Note Off ch=5 par1=47 par2=64
Channel Event. t= 0 (18644) Note On ch=5 par1=48 par2=84
Channel Event. t= 60 (18704) Note On ch=5 par1=47 par2=84
Channel Event. t= 20 (18724) Note Off ch=5 par1=48 par2=64
Channel Event. t= 40 (18764) Note Off ch=5 par1=47 par2=64
Channel Event. t= 0 (18764) Note On ch=5 par1=48 par2=84
Channel Event. t= 60 (18824) Note On ch=5 par1=47 par2=84
Channel Event. t= 20 (18844) Note Off ch=5 par1=48 par2=64
Channel Event. t= 100 (18944) Note Off ch=5 par1=47 par2=64
Channel Event. t= 20 (18964) Note On ch=5 par1=47 par2=118
Channel Event. t= 162 (19126) Note On ch=5 par1=48 par2=97
Channel Event. t= 20 (19146) Note Off ch=5 par1=47 par2=64
Channel Event. t= 55 (19201) Note On ch=5 par1=47 par2=87
Channel Event. t= 5 (19206) Note Off ch=5 par1=48 par2=64
Channel Event. t= 63 (19269) Note On ch=5 par1=48 par2=89
Channel Event. t= 17 (19286) Note Off ch=5 par1=47 par2=64
Channel Event. t= 45 (19331) Note On ch=5 par1=47 par2=101
Channel Event. t= 10 (19341) Note Off ch=5 par1=48 par2=64
Channel Event. t= 53 (19394) Note On ch=5 par1=48 par2=89
Channel Event. t= 15 (19409) Note Off ch=5 par1=47 par2=64
Channel Event. t= 42 (19451) Note On ch=5 par1=47 par2=102
Channel Event. t= 10 (19461) Note Off ch=5 par1=48 par2=64
Channel Event. t= 58 (19519) Note On ch=5 par1=48 par2=89
Channel Event. t= 12 (19531) Note Off ch=5 par1=47 par2=64
Channel Event. t= 45 (19576) Note On ch=5 par1=47 par2=100
Channel Event. t= 8 (19584) Note Off ch=5 par1=48 par2=64
Channel Event. t= 70 (19654) Note On ch=5 par1=48 par2=69
Channel Event. t= 7 (19661) Note Off ch=5 par1=47 par2=64
Channel Event. t= 33 (19694) Note On ch=5 par1=47 par2=89
Channel Event. t= 5 (19699) Note Off ch=5 par1=48 par2=64
Channel Event. t= 65 (19764) Note On ch=5 par1=48 par2=80
Channel Event. t= 7 (19771) Note Off ch=5 par1=47 par2=64
Channel Event. t= 45 (19816) Note On ch=5 par1=47 par2=98
Channel Event. t= 3 (19819) Note Off ch=5 par1=48 par2=64
Channel Event. t= 70 (19889) Note On ch=5 par1=48 par2=61
Channel Event. t= 7 (19896) Note Off ch=5 par1=47 par2=64
Channel Event. t= 40 (19936) Note On ch=5 par1=47 par2=101
Channel Event. t= 5 (19941) Note Off ch=5 par1=48 par2=64
Channel Event. t= 58 (19999) Note On ch=5 par1=48 par2=67
Channel Event. t= 5 (20004) Note Off ch=5 par1=47 par2=64
Channel Event. t= 42 (20046) Note On ch=5 par1=47 par2=105
Channel Event. t= 5 (20051) Note Off ch=5 par1=48 par2=64
Channel Event. t= 60 (20111) Note On ch=5 par1=48 par2=39
Channel Event. t= 8 (20119) Note Off ch=5 par1=47 par2=64
Channel Event. t= 42 (20161) Note On ch=5 par1=47 par2=104
Channel Event. t= 28 (20189) Note Off ch=5 par1=48 par2=64
Channel Event. t= 50 (20239) Note On ch=5 par1=48 par2=78
Channel Event. t= 2 (20241) Note Off ch=5 par1=47 par2=64
Channel Event. t= 53 (20294) Note On ch=5 par1=47 par2=89
Channel Event. t= 2 (20296) Note Off ch=5 par1=48 par2=64
Channel Event. t= 50 (20346) Note On ch=5 par1=48 par2=89
Channel Event. t= 45 (20391) Note Off ch=5 par1=47 par2=64
Channel Event. t= 55 (20446) Note On ch=5 par1=47 par2=87
Channel Event. t= 30 (20476) Note Off ch=5 par1=48 par2=64
Channel Event. t= 75 (20551) Note Off ch=5 par1=47 par2=64
Channel Event. t= 8 (20559) Note On ch=5 par1=48 par2=84
Channel Event. t= 62 (20621) Note On ch=5 par1=47 par2=84
Channel Event. t= 18 (20639) Note Off ch=5 par1=48 par2=64
Channel Event. t= 45 (20684) Note On ch=5 par1=48 par2=84
Channel Event. t= 17 (20701) Note Off ch=5 par1=47 par2=64
Channel Event. t= 43 (20744) Note On ch=5 par1=47 par2=84
Channel Event. t= 20 (20764) Note Off ch=5 par1=48 par2=64
Channel Event. t= 60 (20824) Note Off ch=5 par1=47 par2=64
Channel Event. t= 30 (20854) Note On ch=5 par1=47 par2=120
Channel Event. t= 135 (20989) Note On ch=5 par1=48 par2=99
Channel Event. t= 10 (20999) Note Off ch=5 par1=47 par2=64
Channel Event. t= 67 (21066) Note Off ch=5 par1=48 par2=64
Channel Event. t= 3 (21069) Note On ch=5 par1=47 par2=90
Channel Event. t= 65 (21134) Note On ch=5 par1=48 par2=87
Channel Event. t= 12 (21146) Note Off ch=5 par1=47 par2=64
Channel Event. t= 53 (21199) Note On ch=5 par1=47 par2=92
Channel Event. t= 5 (21204) Note Off ch=5 par1=48 par2=64
Channel Event. t= 60 (21264) Note On ch=5 par1=48 par2=89
Channel Event. t= 17 (21281) Note Off ch=5 par1=47 par2=64
Channel Event. t= 48 (21329) Note On ch=5 par1=47 par2=98
Channel Event. t= 7 (21336) Note Off ch=5 par1=48 par2=64
Channel Event. t= 55 (21391) Note On ch=5 par1=48 par2=91
Channel Event. t= 15 (21406) Note Off ch=5 par1=47 par2=64
Channel Event. t= 48 (21454) Note On ch=5 par1=47 par2=97
Channel Event. t= 7 (21461) Note Off ch=5 par1=48 par2=64
Channel Event. t= 50 (21511) Note On ch=5 par1=48 par2=91
Channel Event. t= 15 (21526) Note Off ch=5 par1=47 par2=64
Channel Event. t= 48 (21574) Note On ch=5 par1=47 par2=94
Channel Event. t= 7 (21581) Note Off ch=5 par1=48 par2=64
Channel Event. t= 60 (21641) Note On ch=5 par1=48 par2=85
Channel Event. t= 13 (21654) Note Off ch=5 par1=47 par2=64
Channel Event. t= 47 (21701) Note Off ch=5 par1=48 par2=64
Channel Event. t= 3 (21704) Note On ch=5 par1=47 par2=104
Channel Event. t= 70 (21774) Note On ch=5 par1=48 par2=90
Channel Event. t= 2 (21776) Note Off ch=5 par1=47 par2=64
Channel Event. t= 45 (21821) Note Off ch=5 par1=48 par2=64
Channel Event. t= 5 (21826) Note On ch=5 par1=47 par2=93
Channel Event. t= 73 (21899) Note On ch=5 par1=48 par2=86
Channel Event. t= 12 (21911) Note Off ch=5 par1=47 par2=64
Channel Event. t= 35 (21946) Note Off ch=5 par1=48 par2=64
Channel Event. t= 5 (21951) Note On ch=5 par1=47 par2=100
Channel Event. t= 80 (22031) Note On ch=5 par1=48 par2=77
Channel Event. t= 5 (22036) Note Off ch=5 par1=47 par2=64
Channel Event. t= 45 (22081) Note On ch=5 par1=47 par2=96
Channel Event. t= 5 (22086) Note Off ch=5 par1=48 par2=64
Channel Event. t= 73 (22159) Note On ch=5 par1=48 par2=89
Channel Event. t= 62 (22221) Note Off ch=5 par1=48 par2=64
Channel Event. t= 98 (22319) Note On ch=5 par1=48 par2=104
Channel Event. t= 22 (22341) Note Off ch=5 par1=47 par2=64
Channel Event. t= 60 (22401) Note On ch=5 par1=47 par2=101
Channel Event. t= 13 (22414) Note Off ch=5 par1=48 par2=64
Channel Event. t= 315 (22729) Note Off ch=5 par1=47 par2=64
Channel Event. t= 97 (22826) Note On ch=5 par1=47 par2=127
Channel Event. t= 165 (22991) Note On ch=5 par1=48 par2=103
Channel Event. t= 18 (23009) Note Off ch=5 par1=47 par2=64
Channel Event. t= 62 (23071) Note On ch=5 par1=47 par2=85
Channel Event. t= 18 (23089) Note Off ch=5 par1=48 par2=64
Channel Event. t= 57 (23146) Note On ch=5 par1=48 par2=93
Channel Event. t= 28 (23174) Note Off ch=5 par1=47 par2=64
Channel Event. t= 47 (23221) Note On ch=5 par1=47 par2=93
Channel Event. t= 5 (23226) Note Off ch=5 par1=48 par2=64
Channel Event. t= 58 (23284) Note On ch=5 par1=48 par2=90
Channel Event. t= 32 (23316) Note Off ch=5 par1=47 par2=64
Channel Event. t= 43 (23359) Note On ch=5 par1=47 par2=102
Channel Event. t= 7 (23366) Note Off ch=5 par1=48 par2=64
Channel Event. t= 53 (23419) Note On ch=5 par1=48 par2=90
Channel Event. t= 32 (23451) Note Off ch=5 par1=47 par2=64
Channel Event. t= 38 (23489) Note On ch=5 par1=47 par2=94
Channel Event. t= 10 (23499) Note Off ch=5 par1=48 par2=64
Channel Event. t= 60 (23559) Note On ch=5 par1=48 par2=88
Channel Event. t= 25 (23584) Note Off ch=5 par1=47 par2=64
Channel Event. t= 45 (23629) Note On ch=5 par1=47 par2=99
Channel Event. t= 15 (23644) Note Off ch=5 par1=48 par2=64
Channel Event. t= 57 (23701) Note On ch=5 par1=48 par2=93
Channel Event. t= 28 (23729) Note Off ch=5 par1=47 par2=64
Channel Event. t= 45 (23774) Note On ch=5 par1=47 par2=92
Channel Event. t= 5 (23779) Note Off ch=5 par1=48 par2=64
Channel Event. t= 67 (23846) Note On ch=5 par1=48 par2=70
Channel Event. t= 35 (23881) Note Off ch=5 par1=47 par2=64
Channel Event. t= 40 (23921) Note Off ch=5 par1=48 par2=64
Channel Event. t= 3 (23924) Note On ch=5 par1=47 par2=92
Channel Event. t= 77 (24001) Note On ch=5 par1=48 par2=57
Channel Event. t= 20 (24021) Note Off ch=5 par1=47 par2=64
Channel Event. t= 50 (24071) Note On ch=5 par1=47 par2=95
Channel Event. t= 10 (24081) Note Off ch=5 par1=48 par2=64
Channel Event. t= 53 (24134) Note On ch=5 par1=48 par2=93
Channel Event. t= 35 (24169) Note Off ch=5 par1=47 par2=64
Channel Event. t= 80 (24249) Note On ch=5 par1=47 par2=114
Channel Event. t= 2 (24251) Note Off ch=5 par1=48 par2=64
Channel Event. t= 285 (24536) Note Off ch=5 par1=47 par2=64
Channel Event. t= 195 (24731) Note On ch=5 par1=52 par2=127
Channel Event. t= 178 (24909) Note On ch=5 par1=53 par2=104
Channel Event. t= 12 (24921) Note Off ch=5 par1=52 par2=64
Channel Event. t= 58 (24979) Note On ch=5 par1=52 par2=98
Channel Event. t= 10 (24989) Note Off ch=5 par1=53 par2=64
Channel Event. t= 67 (25056) Note On ch=5 par1=53 par2=104
Channel Event. t= 20 (25076) Note Off ch=5 par1=52 par2=64
Channel Event. t= 53 (25129) Note Off ch=5 par1=53 par2=64
Channel Event. t= 0 (25129) Note On ch=5 par1=52 par2=96
Channel Event. t= 62 (25191) Note On ch=5 par1=53 par2=94
Channel Event. t= 25 (25216) Note Off ch=5 par1=52 par2=64
Channel Event. t= 45 (25261) Note Off ch=5 par1=53 par2=64
Channel Event. t= 8 (25269) Note On ch=5 par1=52 par2=93
Channel Event. t= 57 (25326) Note On ch=5 par1=53 par2=90
Channel Event. t= 33 (25359) Note Off ch=5 par1=52 par2=64
Channel Event. t= 40 (25399) Note Off ch=5 par1=53 par2=64
Channel Event. t= 2 (25401) Note On ch=5 par1=52 par2=94
Channel Event. t= 55 (25456) Note On ch=5 par1=53 par2=86
Channel Event. t= 33 (25489) Note Off ch=5 par1=52 par2=64
Channel Event. t= 40 (25529) Note Off ch=5 par1=53 par2=64
Channel Event. t= 10 (25539) Note On ch=5 par1=52 par2=92
Channel Event. t= 47 (25586) Note On ch=5 par1=53 par2=83
Channel Event. t= 43 (25629) Note Off ch=5 par1=52 par2=64
Channel Event. t= 30 (25659) Note Off ch=5 par1=53 par2=64
Channel Event. t= 5 (25664) Note On ch=5 par1=52 par2=89
Channel Event. t= 57 (25721) Note On ch=5 par1=53 par2=70
Channel Event. t= 38 (25759) Note Off ch=5 par1=52 par2=64
Channel Event. t= 52 (25811) Note Off ch=5 par1=53 par2=64
Channel Event. t= 0 (25811) Note On ch=5 par1=52 par2=97
Channel Event. t= 63 (25874) Note On ch=5 par1=53 par2=91
Channel Event. t= 32 (25906) Note Off ch=5 par1=52 par2=64
Channel Event. t= 43 (25949) Note Off ch=5 par1=53 par2=64
Channel Event. t= 5 (25954) Note On ch=5 par1=52 par2=96
Channel Event. t= 90 (26044) Note On ch=5 par1=53 par2=73
Channel Event. t= 45 (26089) Note Off ch=5 par1=52 par2=64
Channel Event. t= 107 (26196) Note On ch=5 par1=52 par2=116
Channel Event. t= 8 (26204) Note Off ch=5 par1=53 par2=64
Channel Event. t= 222 (26426) Note Off ch=5 par1=52 par2=64
Channel Event. t= 213 (26639) Note On ch=5 par1=47 par2=127
Channel Event. t= 162 (26801) Note On ch=5 par1=48 par2=101
Channel Event. t= 18 (26819) Note Off ch=5 par1=47 par2=64
Channel Event. t= 60 (26879) Note Off ch=5 par1=48 par2=64
Channel Event. t= 10 (26889) Note On ch=5 par1=47 par2=90
Channel Event. t= 57 (26946) Note On ch=5 par1=48 par2=75
Channel Event. t= 30 (26976) Note Off ch=5 par1=47 par2=64
Channel Event. t= 53 (27029) Note Off ch=5 par1=48 par2=64
Channel Event. t= 0 (27029) Note On ch=5 par1=47 par2=86
Channel Event. t= 67 (27096) Note On ch=5 par1=48 par2=73
Channel Event. t= 18 (27114) Note Off ch=5 par1=47 par2=64
Channel Event. t= 50 (27164) Note On ch=5 par1=47 par2=91
Channel Event. t= 22 (27186) Note Off ch=5 par1=48 par2=64
Channel Event. t= 60 (27246) Note On ch=5 par1=48 par2=99
Channel Event. t= 10 (27256) Note Off ch=5 par1=47 par2=64
Channel Event. t= 60 (27316) Note On ch=5 par1=47 par2=90
Channel Event. t= 5 (27321) Note Off ch=5 par1=48 par2=64
Channel Event. t= 58 (27379) Note On ch=5 par1=48 par2=40
Channel Event. t= 30 (27409) Note Off ch=5 par1=47 par2=64
Channel Event. t= 57 (27466) Note On ch=5 par1=47 par2=81
Channel Event. t= 10 (27476) Note Off ch=5 par1=48 par2=64
Channel Event. t= 65 (27541) Note On ch=5 par1=48 par2=77
Channel Event. t= 30 (27571) Note Off ch=5 par1=47 par2=64
Channel Event. t= 63 (27634) Note Off ch=5 par1=48 par2=64
Channel Event. t= 2 (27636) Note On ch=5 par1=47 par2=73
Channel Event. t= 60 (27696) Note On ch=5 par1=48 par2=89
Channel Event. t= 23 (27719) Note Off ch=5 par1=47 par2=64
Channel Event. t= 65 (27784) Note On ch=5 par1=47 par2=85
Channel Event. t= 5 (27789) Note Off ch=5 par1=48 par2=64
Channel Event. t= 55 (27844) Note On ch=5 par1=48 par2=72
Channel Event. t= 27 (27871) Note Off ch=5 par1=47 par2=64
Channel Event. t= 53 (27924) Note On ch=5 par1=47 par2=89
Channel Event. t= 12 (27936) Note Off ch=5 par1=48 par2=64
Channel Event. t= 60 (27996) Note On ch=5 par1=48 par2=89
Channel Event. t= 25 (28021) Note Off ch=5 par1=47 par2=64
Channel Event. t= 75 (28096) Note On ch=5 par1=47 par2=92
Channel Event. t= 30 (28126) Note Off ch=5 par1=48 par2=64
Channel Event. t= 380 (28506) Note Off ch=5 par1=47 par2=64
Channel Event. t= 58 (28564) Note On ch=5 par1=47 par2=119
Channel Event. t= 140 (28704) Note On ch=5 par1=48 par2=97
Channel Event. t= 5 (28709) Note Off ch=5 par1=47 par2=64
Channel Event. t= 72 (28781) Note On ch=5 par1=47 par2=87
Channel Event. t= 15 (28796) Note Off ch=5 par1=48 par2=64
Channel Event. t= 53 (28849) Note On ch=5 par1=48 par2=89
Channel Event. t= 35 (28884) Note Off ch=5 par1=47 par2=64
Channel Event. t= 45 (28929) Note On ch=5 par1=47 par2=97
Channel Event. t= 7 (28936) Note Off ch=5 par1=48 par2=64
Channel Event. t= 58 (28994) Note On ch=5 par1=48 par2=88
Channel Event. t= 30 (29024) Note Off ch=5 par1=47 par2=64
Channel Event. t= 45 (29069) Note On ch=5 par1=47 par2=97
Channel Event. t= 7 (29076) Note Off ch=5 par1=48 par2=64
Channel Event. t= 68 (29144) Note On ch=5 par1=48 par2=75
Channel Event. t= 22 (29166) Note Off ch=5 par1=47 par2=64
Channel Event. t= 40 (29206) Note On ch=5 par1=47 par2=97
Channel Event. t= 13 (29219) Note Off ch=5 par1=48 par2=64
Channel Event. t= 62 (29281) Note On ch=5 par1=48 par2=78
Channel Event. t= 23 (29304) Note Off ch=5 par1=47 par2=64
Channel Event. t= 55 (29359) Note On ch=5 par1=47 par2=86
Channel Event. t= 15 (29374) Note Off ch=5 par1=48 par2=64
Channel Event. t= 57 (29431) Note On ch=5 par1=48 par2=90
Channel Event. t= 25 (29456) Note Off ch=5 par1=47 par2=64
Channel Event. t= 48 (29504) Note Off ch=5 par1=48 par2=64
Channel Event. t= 0 (29504) Note On ch=5 par1=47 par2=95
Channel Event. t= 60 (29564) Note On ch=5 par1=48 par2=77
Channel Event. t= 37 (29601) Note Off ch=5 par1=47 par2=64
Channel Event. t= 45 (29646) Note On ch=5 par1=47 par2=98
Channel Event. t= 8 (29654) Note Off ch=5 par1=48 par2=64
Channel Event. t= 50 (29704) Note On ch=5 par1=48 par2=96
Channel Event. t= 30 (29734) Note Off ch=5 par1=47 par2=64
Channel Event. t= 47 (29781) Note On ch=5 par1=47 par2=88
Channel Event. t= 3 (29784) Note Off ch=5 par1=48 par2=64
Channel Event. t= 75 (29859) Note On ch=5 par1=48 par2=77
Channel Event. t= 32 (29891) Note Off ch=5 par1=47 par2=64
Channel Event. t= 43 (29934) Note Off ch=5 par1=48 par2=64
Channel Event. t= 2 (29936) Note On ch=5 par1=47 par2=89
Channel Event. t= 55 (29991) Note On ch=5 par1=48 par2=53
Channel Event. t= 55 (30046) Note Off ch=5 par1=48 par2=64
Channel Event. t= 48 (30094) Note On ch=5 par1=48 par2=106
Channel Event. t= 32 (30126) Note Off ch=5 par1=47 par2=64
Channel Event. t= 108 (30234) Note On ch=5 par1=47 par2=57
Channel Event. t= 45 (30279) Note Off ch=5 par1=47 par2=64
Channel Event. t= 25 (30304) Note Off ch=5 par1=48 par2=64
Channel Event. t= 190 (30494) Note On ch=5 par1=47 par2=127
Channel Event. t= 145 (30639) Note On ch=5 par1=48 par2=94
Channel Event. t= 32 (30671) Note Off ch=5 par1=47 par2=64
Channel Event. t= 63 (30734) Note Off ch=5 par1=48 par2=64
Channel Event. t= 2 (30736) Note On ch=5 par1=47 par2=89
Channel Event. t= 73 (30809) Note On ch=5 par1=48 par2=95
Channel Event. t= 12 (30821) Note Off ch=5 par1=47 par2=64
Channel Event. t= 65 (30886) Note On ch=5 par1=47 par2=91
Channel Event. t= 3 (30889) Note Off ch=5 par1=48 par2=64
Channel Event. t= 62 (30951) Note On ch=5 par1=48 par2=94
Channel Event. t= 20 (30971) Note Off ch=5 par1=47 par2=64
Channel Event. t= 55 (31026) Note Off ch=5 par1=48 par2=64
Channel Event. t= 10 (31036) Note On ch=5 par1=47 par2=86
Channel Event. t= 40 (31076) Note On ch=5 par1=48 par2=98
Channel Event. t= 30 (31106) Note Off ch=5 par1=47 par2=64
Channel Event. t= 50 (31156) Note Off ch=5 par1=48 par2=64
Channel Event. t= 18 (31174) Note On ch=5 par1=47 par2=83
Channel Event. t= 25 (31199) Note On ch=5 par1=48 par2=86
Channel Event. t= 47 (31246) Note Off ch=5 par1=47 par2=64
Channel Event. t= 33 (31279) Note Off ch=5 par1=48 par2=64
Channel Event. t= 15 (31294) Note On ch=5 par1=47 par2=96
Channel Event. t= 32 (31326) Note On ch=5 par1=48 par2=76
Channel Event. t= 53 (31379) Note Off ch=5 par1=47 par2=64
Channel Event. t= 37 (31416) Note On ch=5 par1=47 par2=89
Channel Event. t= 3 (31419) Note Off ch=5 par1=48 par2=64
Channel Event. t= 47 (31466) Note On ch=5 par1=48 par2=87
Channel Event. t= 35 (31501) Note Off ch=5 par1=47 par2=64
Channel Event. t= 50 (31551) Note On ch=5 par1=47 par2=97
Channel Event. t= 3 (31554) Note Off ch=5 par1=48 par2=64
Channel Event. t= 130 (31684) Note On ch=5 par1=48 par2=43
Channel Event. t= 32 (31716) Note Off ch=5 par1=47 par2=64
Channel Event. t= 63 (31779) Note On ch=5 par1=47 par2=89
Channel Event. t= 15 (31794) Note Off ch=5 par1=48 par2=64
Channel Event. t= 90 (31884) Note On ch=5 par1=48 par2=63
Channel Event. t= 32 (31916) Note Off ch=5 par1=47 par2=64
Channel Event. t= 65 (31981) Note On ch=5 par1=47 par2=101
Channel Event. t= 20 (32001) Note Off ch=5 par1=48 par2=64
Channel Event. t= 218 (32219) Note Off ch=5 par1=47 par2=64
Channel Event. t= 165 (32384) Note On ch=5 par1=47 par2=41
Channel Event. t= 182 (32566) Note Off ch=5 par1=47 par2=64
Channel Event. t= 1258 (33824) Note On ch=5 par1=71 par2=90
Channel Event. t= 480 (34304) Note On ch=5 par1=72 par2=89
Channel Event. t= 92 (34396) Note Off ch=5 par1=71 par2=64
Channel Event. t= 193 (34589) Note Off ch=5 par1=72 par2=64
Channel Event. t= 97 (34686) Note On ch=5 par1=48 par2=86
Channel Event. t= 58 (34744) Note On ch=5 par1=52 par2=93
Channel Event. t= 25 (34769) Note On ch=5 par1=55 par2=89
Channel Event. t= 15 (34784) Note On ch=5 par1=74 par2=76
Channel Event. t= 17 (34801) Note On ch=5 par1=60 par2=99
Channel Event. t= 5 (34806) Note Off ch=5 par1=48 par2=64
Channel Event. t= 73 (34879) Note Off ch=5 par1=52 par2=64
Channel Event. t= 72 (34951) Note Off ch=5 par1=55 par2=64
Channel Event. t= 18 (34969) Note Off ch=5 par1=74 par2=64
Channel Event. t= 160 (35129) Note Off ch=5 par1=60 par2=64
Channel Event. t= 135 (35264) Note On ch=5 par1=75 par2=101
Channel Event. t= 225 (35489) Note Off ch=5 par1=75 par2=64
Channel Event. t= 195 (35684) Note On ch=5 par1=51 par2=79
Channel Event. t= 22 (35706) Note On ch=5 par1=54 par2=88
Channel Event. t= 35 (35741) Note On ch=5 par1=59 par2=91
Channel Event. t= 3 (35744) Note On ch=5 par1=71 par2=76
Channel Event. t= 22 (35766) Note On ch=5 par1=63 par2=100
Channel Event. t= 25 (35791) Note Off ch=5 par1=51 par2=64
Channel Event. t= 40 (35831) Note Off ch=5 par1=54 par2=64
Channel Event. t= 158 (35989) Note Off ch=5 par1=59 par2=64
Channel Event. t= 125 (36114) Note Off ch=5 par1=63 par2=64
Channel Event. t= 110 (36224) Note On ch=5 par1=72 par2=97
Channel Event. t= 17 (36241) Note Off ch=5 par1=71 par2=64
Channel Event. t= 203 (36444) Note Off ch=5 par1=72 par2=64
Channel Event. t= 195 (36639) Note On ch=5 par1=48 par2=75
Channel Event. t= 42 (36681) Note On ch=5 par1=52 par2=93
Channel Event. t= 23 (36704) Note On ch=5 par1=74 par2=54
Channel Event. t= 7 (36711) Note On ch=5 par1=55 par2=82
Channel Event. t= 33 (36744) Note Off ch=5 par1=48 par2=64
Channel Event. t= 7 (36751) Note On ch=5 par1=60 par2=103
Channel Event. t= 35 (36786) Note Off ch=5 par1=52 par2=64
Channel Event. t= 35 (36821) Note Off ch=5 par1=55 par2=64
Channel Event. t= 18 (36839) Note Off ch=5 par1=74 par2=64
Channel Event. t= 195 (37034) Note Off ch=5 par1=60 par2=64
Channel Event. t= 150 (37184) Note On ch=5 par1=75 par2=101
Channel Event. t= 220 (37404) Note Off ch=5 par1=75 par2=64
Channel Event. t= 167 (37571) Note On ch=5 par1=51 par2=76
Channel Event. t= 50 (37621) Note On ch=5 par1=54 par2=82
Channel Event. t= 38 (37659) Note On ch=5 par1=59 par2=85
Channel Event. t= 5 (37664) Note On ch=5 par1=71 par2=77
Channel Event. t= 12 (37676) Note Off ch=5 par1=51 par2=64
Channel Event. t= 23 (37699) Note On ch=5 par1=63 par2=96
Channel Event. t= 22 (37721) Note Off ch=5 par1=54 par2=64
Channel Event. t= 45 (37766) Note Off ch=5 par1=59 par2=64
Channel Event. t= 260 (38026) Note Off ch=5 par1=63 par2=64
Channel Event. t= 118 (38144) Note On ch=5 par1=72 par2=80
Channel Event. t= 35 (38179) Note Off ch=5 par1=71 par2=64
Channel Event. t= 205 (38384) Note On ch=5 par1=75 par2=87
Channel Event. t= 7 (38391) Note Off ch=5 par1=72 par2=64
Channel Event. t= 148 (38539) Note On ch=5 par1=48 par2=70
Channel Event. t= 55 (38594) Note On ch=5 par1=52 par2=89
Channel Event. t= 15 (38609) Note Off ch=5 par1=75 par2=64
Channel Event. t= 15 (38624) Note On ch=5 par1=55 par2=79
Channel Event. t= 0 (38624) Note On ch=5 par1=76 par2=61
Channel Event. t= 0 (38624) Note On ch=5 par1=77 par2=61
Channel Event. t= 22 (38646) Note Off ch=5 par1=48 par2=64
Channel Event. t= 13 (38659) Note On ch=5 par1=60 par2=104
Channel Event. t= 30 (38689) Note Off ch=5 par1=52 par2=64
Channel Event. t= 37 (38726) Note Off ch=5 par1=55 par2=64
Channel Event. t= 53 (38779) Note Off ch=5 par1=77 par2=64
Channel Event. t= 85 (38864) Note On ch=5 par1=79 par2=81
Channel Event. t= 20 (38884) Note Off ch=5 par1=76 par2=64
Channel Event. t= 172 (39056) Note Off ch=5 par1=60 par2=64
Channel Event. t= 48 (39104) Note On ch=5 par1=83 par2=90
Channel Event. t= 35 (39139) Note Off ch=5 par1=79 par2=64
Channel Event. t= 337 (39476) Note On ch=5 par1=51 par2=67
Channel Event. t= 48 (39524) Note On ch=5 par1=54 par2=81
Channel Event. t= 45 (39569) Note On ch=5 par1=59 par2=78
Channel Event. t= 10 (39579) Note Off ch=5 par1=83 par2=64
Channel Event. t= 2 (39581) Note Off ch=5 par1=51 par2=64
Channel Event. t= 3 (39584) Note On ch=5 par1=82 par2=97
Channel Event. t= 22 (39606) Note On ch=5 par1=63 par2=102
Channel Event. t= 15 (39621) Note Off ch=5 par1=54 par2=64
Channel Event. t= 40 (39661) Note Off ch=5 par1=59 par2=64
Channel Event. t= 43 (39704) Note On ch=5 par1=83 par2=85
Channel Event. t= 197 (39901) Note Off ch=5 par1=82 par2=64
Channel Event. t= 73 (39974) Note Off ch=5 par1=63 par2=64
Channel Event. t= 5 (39979) Note Off ch=5 par1=83 par2=64
Channel Event. t= 85 (40064) Note On ch=5 par1=84 par2=94
Channel Event. t= 417 (40481) Note On ch=5 par1=48 par2=65
Channel Event. t= 53 (40534) Note On ch=5 par1=52 par2=82
Channel Event. t= 10 (40544) Note On ch=5 par1=88 par2=92
Channel Event. t= 20 (40564) Note Off ch=5 par1=84 par2=64
Channel Event. t= 2 (40566) Note On ch=5 par1=55 par2=82
Channel Event. t= 5 (40571) Note Off ch=5 par1=48 par2=64
Channel Event. t= 30 (40601) Note On ch=5 par1=60 par2=99
Channel Event. t= 15 (40616) Note Off ch=5 par1=52 par2=64
Channel Event. t= 45 (40661) Note Off ch=5 par1=55 par2=64
Channel Event. t= 293 (40954) Note Off ch=5 par1=60 par2=64
Channel Event. t= 70 (41024) Note On ch=5 par1=87 par2=91
Channel Event. t= 40 (41064) Note Off ch=5 par1=88 par2=64
Channel Event. t= 345 (41409) Note On ch=5 par1=51 par2=71
Channel Event. t= 47 (41456) Note On ch=5 par1=54 par2=77
Channel Event. t= 38 (41494) Note On ch=5 par1=59 par2=81
Channel Event. t= 12 (41506) Note Off ch=5 par1=51 par2=64
Channel Event. t= 18 (41524) Note On ch=5 par1=63 par2=100
Channel Event. t= 15 (41539) Note Off ch=5 par1=54 par2=64
Channel Event. t= 40 (41579) Note Off ch=5 par1=59 par2=64
Channel Event. t= 95 (41674) Note Off ch=5 par1=87 par2=64
Channel Event. t= 230 (41904) Note Off ch=5 par1=63 par2=64
Channel Event. t= 80 (41984) Note On ch=5 par1=84 par2=84
Channel Event. t= 240 (42224) Note Off ch=5 par1=84 par2=64
Channel Event. t= 147 (42371) Note On ch=5 par1=48 par2=69
Channel Event. t= 55 (42426) Note On ch=5 par1=52 par2=80
Channel Event. t= 20 (42446) Note On ch=5 par1=55 par2=81
Channel Event. t= 18 (42464) Note On ch=5 par1=88 par2=72
Channel Event. t= 2 (42466) Note Off ch=5 par1=48 par2=64
Channel Event. t= 23 (42489) Note On ch=5 par1=60 par2=99
Channel Event. t= 17 (42506) Note Off ch=5 par1=52 par2=64
Channel Event. t= 40 (42546) Note Off ch=5 par1=55 par2=64
Channel Event. t= 148 (42694) Note Off ch=5 par1=88 par2=64
Channel Event. t= 195 (42889) Note Off ch=5 par1=60 par2=64
Channel Event. t= 55 (42944) Note On ch=5 par1=87 par2=89
Channel Event. t= 240 (43184) Note On ch=5 par1=88 par2=63
Channel Event. t= 20 (43204) Note Off ch=5 par1=87 par2=64
Channel Event. t= 100 (43304) Note On ch=5 par1=87 par2=67
Channel Event. t= 10 (43314) Note On ch=5 par1=51 par2=68
Channel Event. t= 30 (43344) Note Off ch=5 par1=88 par2=64
Channel Event. t= 15 (43359) Note On ch=5 par1=54 par2=78
Channel Event. t= 32 (43391) Note On ch=5 par1=59 par2=79
Channel Event. t= 23 (43414) Note Off ch=5 par1=51 par2=64
Channel Event. t= 10 (43424) Note On ch=5 par1=83 par2=72
Channel Event. t= 5 (43429) Note On ch=5 par1=63 par2=97
Channel Event. t= 15 (43444) Note Off ch=5 par1=54 par2=64
Channel Event. t= 25 (43469) Note Off ch=5 par1=87 par2=64
Channel Event. t= 15 (43484) Note Off ch=5 par1=59 par2=64
Channel Event. t= 162 (43646) Note Off ch=5 par1=83 par2=64
Channel Event. t= 18 (43664) Note On ch=5 par1=78 par2=85
Channel Event. t= 192 (43856) Note Off ch=5 par1=63 par2=64
Channel Event. t= 48 (43904) Note On ch=5 par1=79 par2=93
Channel Event. t= 25 (43929) Note Off ch=5 par1=78 par2=64
Channel Event. t= 192 (44121) Note Off ch=5 par1=79 par2=64
Channel Event. t= 135 (44256) Note On ch=5 par1=48 par2=77
Channel Event. t= 48 (44304) Note On ch=5 par1=52 par2=89
Channel Event. t= 47 (44351) Note On ch=5 par1=55 par2=84
Channel Event. t= 10 (44361) Note Off ch=5 par1=48 par2=64
Channel Event. t= 23 (44384) Note On ch=5 par1=84 par2=88
Channel Event. t= 15 (44399) Note On ch=5 par1=60 par2=102
Channel Event. t= 12 (44411) Note Off ch=5 par1=52 par2=64
Channel Event. t= 45 (44456) Note Off ch=5 par1=55 par2=64
Channel Event. t= 85 (44541) Note Off ch=5 par1=84 par2=64
Channel Event. t= 323 (44864) Note On ch=5 par1=83 par2=103
Channel Event. t= 17 (44881) Note Off ch=5 par1=60 par2=64
Channel Event. t= 223 (45104) Note On ch=5 par1=84 par2=74
Channel Event. t= 32 (45136) Note Off ch=5 par1=83 par2=64
Channel Event. t= 85 (45221) Note On ch=5 par1=51 par2=71
Channel Event. t= 3 (45224) Note On ch=5 par1=83 par2=63
Channel Event. t= 37 (45261) Note Off ch=5 par1=84 par2=64
Channel Event. t= 15 (45276) Note On ch=5 par1=54 par2=76
Channel Event. t= 40 (45316) Note On ch=5 par1=59 par2=81
Channel Event. t= 23 (45339) Note Off ch=5 par1=51 par2=64
Channel Event. t= 5 (45344) Note On ch=5 par1=78 par2=72
Channel Event. t= 17 (45361) Note On ch=5 par1=63 par2=103
Channel Event. t= 5 (45366) Note Off ch=5 par1=83 par2=64
Channel Event. t= 5 (45371) Note Off ch=5 par1=54 par2=64
Channel Event. t= 43 (45414) Note Off ch=5 par1=59 par2=64
Channel Event. t= 152 (45566) Note Off ch=5 par1=78 par2=64
Channel Event. t= 18 (45584) Note On ch=5 par1=75 par2=56
Channel Event. t= 165 (45749) Note Off ch=5 par1=63 par2=64
Channel Event. t= 25 (45774) Note Off ch=5 par1=75 par2=64
Channel Event. t= 50 (45824) Note On ch=5 par1=76 par2=75
Channel Event. t= 0 (45824) Note On ch=5 par1=75 par2=59
Channel Event. t= 50 (45874) Note Off ch=5 par1=75 par2=64
Channel Event. t= 105 (45979) Note Off ch=5 par1=76 par2=64
Channel Event. t= 212 (46191) Note On ch=5 par1=48 par2=72
Channel Event. t= 55 (46246) Note On ch=5 par1=52 par2=85
Channel Event. t= 35 (46281) Note On ch=5 par1=55 par2=84
Channel Event. t= 15 (46296) Note Off ch=5 par1=48 par2=64
Channel Event. t= 8 (46304) Note On ch=5 par1=79 par2=81
Channel Event. t= 10 (46314) Note On ch=5 par1=60 par2=99
Channel Event. t= 17 (46331) Note Off ch=5 par1=52 par2=64
Channel Event. t= 43 (46374) Note Off ch=5 par1=55 par2=64
Channel Event. t= 52 (46426) Note Off ch=5 par1=79 par2=64
Channel Event. t= 290 (46716) Note Off ch=5 par1=60 par2=64
Channel Event. t= 68 (46784) Note On ch=5 par1=78 par2=101
Channel Event. t= 372 (47156) Note On ch=5 par1=51 par2=72
Channel Event. t= 3 (47159) Note Off ch=5 par1=78 par2=64
Channel Event. t= 40 (47199) Note On ch=5 par1=54 par2=81
Channel Event. t= 35 (47234) Note On ch=5 par1=59 par2=82
Channel Event. t= 15 (47249) Note Off ch=5 par1=51 par2=64
Channel Event. t= 15 (47264) Note On ch=5 par1=74 par2=88
Channel Event. t= 5 (47269) Note On ch=5 par1=63 par2=99
Channel Event. t= 17 (47286) Note Off ch=5 par1=54 par2=64
Channel Event. t= 38 (47324) Note Off ch=5 par1=59 par2=64
Channel Event. t= 180 (47504) Note On ch=5 par1=75 par2=59
Channel Event. t= 5 (47509) Note Off ch=5 par1=74 par2=64
Channel Event. t= 112 (47621) Note Off ch=5 par1=63 par2=64
Channel Event. t= 123 (47744) Note On ch=5 par1=76 par2=65
Channel Event. t= 32 (47776) Note Off ch=5 par1=75 par2=64
Channel Event. t= 128 (47904) Note Off ch=5 par1=76 par2=64
Channel Event. t= 217 (48121) Note On ch=5 par1=48 par2=55
Channel Event. t= 43 (48164) Note On ch=5 par1=52 par2=82
Channel Event. t= 27 (48191) Note On ch=5 par1=55 par2=85
Channel Event. t= 25 (48216) Note Off ch=5 par1=48 par2=64
Channel Event. t= 8 (48224) Note On ch=5 par1=79 par2=84
Channel Event. t= 7 (48231) Note On ch=5 par1=60 par2=97
Channel Event. t= 25 (48256) Note Off ch=5 par1=52 par2=64
Channel Event. t= 40 (48296) Note Off ch=5 par1=55 par2=64
Channel Event. t= 83 (48379) Note Off ch=5 par1=79 par2=64
Channel Event. t= 195 (48574) Note Off ch=5 par1=60 par2=64
Channel Event. t= 130 (48704) Note On ch=5 par1=78 par2=103
Channel Event. t= 375 (49079) Note On ch=5 par1=51 par2=70
Channel Event. t= 2 (49081) Note Off ch=5 par1=78 par2=64
Channel Event. t= 35 (49116) Note On ch=5 par1=54 par2=82
Channel Event. t= 48 (49164) Note On ch=5 par1=59 par2=75
Channel Event. t= 20 (49184) Note On ch=5 par1=74 par2=85
Channel Event. t= 2 (49186) Note Off ch=5 par1=51 par2=64
Channel Event. t= 10 (49196) Note On ch=5 par1=63 par2=98
Channel Event. t= 23 (49219) Note Off ch=5 par1=54 par2=64
Channel Event. t= 35 (49254) Note Off ch=5 par1=59 par2=64
Channel Event. t= 170 (49424) Note On ch=5 par1=75 par2=72
Channel Event. t= 32 (49456) Note Off ch=5 par1=74 par2=64
Channel Event. t= 155 (49611) Note Off ch=5 par1=63 par2=64
Channel Event. t= 53 (49664) Note Off ch=5 par1=75 par2=64
Channel Event. t= 0 (49664) Note On ch=5 par1=76 par2=88
Channel Event. t= 172 (49836) Note Off ch=5 par1=76 par2=64
Channel Event. t= 198 (50034) Note On ch=5 par1=48 par2=64
Channel Event. t= 45 (50079) Note On ch=5 par1=52 par2=88
Channel Event. t= 35 (50114) Note On ch=5 par1=55 par2=86
Channel Event. t= 20 (50134) Note Off ch=5 par1=48 par2=64
Channel Event. t= 10 (50144) Note On ch=5 par1=79 par2=78
Channel Event. t= 10 (50154) Note On ch=5 par1=60 par2=97
Channel Event. t= 22 (50176) Note Off ch=5 par1=52 par2=64
Channel Event. t= 43 (50219) Note Off ch=5 par1=55 par2=64
Channel Event. t= 77 (50296) Note Off ch=5 par1=79 par2=64
Channel Event. t= 268 (50564) Note Off ch=5 par1=60 par2=64
Channel Event. t= 60 (50624) Note On ch=5 par1=78 par2=101
Channel Event. t= 440 (51064) Note On ch=5 par1=58 par2=93
Channel Event. t= 25 (51089) Note On ch=5 par1=61 par2=95
Channel Event. t= 37 (51126) Note On ch=5 par1=64 par2=85
Channel Event. t= 25 (51151) Note On ch=5 par1=70 par2=99
Channel Event. t= 10 (51161) Note Off ch=5 par1=58 par2=64
Channel Event. t= 35 (51196) Note Off ch=5 par1=61 par2=64
Channel Event. t= 40 (51236) Note Off ch=5 par1=64 par2=64
Channel Event. t= 278 (51514) Note Off ch=5 par1=70 par2=64
Channel Event. t= 70 (51584) Note On ch=5 par1=71 par2=78
Channel Event. t= 10 (51594) Note Off ch=5 par1=78 par2=64
Channel Event. t= 830 (52424) Note On ch=5 par1=59 par2=61
Channel Event. t= 70 (52494) Note On ch=5 par1=63 par2=89
Channel Event. t= 25 (52519) Note Off ch=5 par1=59 par2=64
Channel Event. t= 22 (52541) Note On ch=5 par1=66 par2=90
Channel Event. t= 3 (52544) Note Off ch=5 par1=71 par2=64
Channel Event. t= 0 (52544) Note On ch=5 par1=71 par2=92
Channel Event. t= 0 (52544) Note On ch=5 par1=83 par2=74
Channel Event. t= 50 (52594) Note Off ch=5 par1=63 par2=64
Channel Event. t= 40 (52634) Note Off ch=5 par1=66 par2=64
Channel Event. t= 317 (52951) Note Off ch=5 par1=71 par2=64
Channel Event. t= 553 (53504) Note On ch=5 par1=59 par2=79
Channel Event. t= 40 (53544) Note On ch=5 par1=63 par2=87
Channel Event. t= 40 (53584) Note On ch=5 par1=66 par2=79
Channel Event. t= 20 (53604) Note Off ch=5 par1=59 par2=64
Channel Event. t= 40 (53644) Note Off ch=5 par1=63 par2=64
Channel Event. t= 180 (53824) Note Off ch=5 par1=66 par2=64
Channel Event. t= 640 (54464) Note On ch=5 par1=54 par2=64
Channel Event. t= 52 (54516) Note On ch=5 par1=57 par2=81
Channel Event. t= 28 (54544) Note On ch=5 par1=63 par2=72
Channel Event. t= 35 (54579) Note Off ch=5 par1=54 par2=64
Channel Event. t= 37 (54616) Note Off ch=5 par1=57 par2=64
Channel Event. t= 168 (54784) Note Off ch=5 par1=63 par2=64
Channel Event. t= 120 (54904) Note Off ch=5 par1=83 par2=64
Channel Event. t= 40 (54944) Note On ch=5 par1=83 par2=80
Channel Event. t= 480 (55424) Note On ch=5 par1=84 par2=88
Channel Event. t= 47 (55471) Note Off ch=5 par1=83 par2=64
Channel Event. t= 443 (55914) Note On ch=5 par1=76 par2=79
Channel Event. t= 5 (55919) Note On ch=5 par1=67 par2=61
Channel Event. t= 135 (56054) Note Off ch=5 par1=67 par2=64
Channel Event. t= 102 (56156) Note Off ch=5 par1=76 par2=64
Channel Event. t= 698 (56854) Note On ch=5 par1=88 par2=73
Channel Event. t= 2 (56856) Note On ch=5 par1=79 par2=61
Channel Event. t= 155 (57011) Note Off ch=5 par1=79 par2=64
Channel Event. t= 3 (57014) Note Off ch=5 par1=88 par2=64
Channel Event. t= 330 (57344) Note Off ch=5 par1=84 par2=64
Channel Event. t= 512 (57856) Note On ch=5 par1=79 par2=40
Channel Event. t= 0 (57856) Note On ch=5 par1=88 par2=39
Channel Event. t= 163 (58019) Note Off ch=5 par1=79 par2=64
Channel Event. t= 22 (58041) Note Off ch=5 par1=88 par2=64
Channel Event. t= 738 (58779) Note On ch=5 par1=88 par2=63
Channel Event. t= 2 (58781) Note On ch=5 par1=79 par2=50
Channel Event. t= 3 (58784) Note On ch=5 par1=55 par2=51
Channel Event. t= 140 (58924) Note Off ch=5 par1=55 par2=64
Channel Event. t= 5 (58929) Note Off ch=5 par1=79 par2=64
Channel Event. t= 2 (58931) Note Off ch=5 par1=88 par2=64
Channel Event. t= 93 (59024) Note On ch=5 par1=60 par2=63
Channel Event. t= 110 (59134) Note Off ch=5 par1=60 par2=64
Channel Event. t= 130 (59264) Note On ch=5 par1=64 par2=90
Channel Event. t= 435 (59699) Note Off ch=5 par1=64 par2=64
Channel Event. t= 40 (59739) Note On ch=5 par1=88 par2=66
Channel Event. t= 5 (59744) Note On ch=5 par1=60 par2=66
Channel Event. t= 5 (59749) Note On ch=5 par1=79 par2=46
Channel Event. t= 75 (59824) Note Off ch=5 par1=60 par2=64
Channel Event. t= 127 (59951) Note Off ch=5 par1=79 par2=64
Channel Event. t= 13 (59964) Note Off ch=5 par1=88 par2=64
Channel Event. t= 20 (59984) Note On ch=5 par1=55 par2=64
Channel Event. t= 90 (60074) Note Off ch=5 par1=55 par2=64
Channel Event. t= 150 (60224) Note On ch=5 par1=54 par2=98
Channel Event. t= 442 (60666) Note Off ch=5 par1=54 par2=64
Channel Event. t= 8 (60674) Note On ch=5 par1=88 par2=68
Channel Event. t= 10 (60684) Note On ch=5 par1=79 par2=48
Channel Event. t= 20 (60704) Note On ch=5 par1=55 par2=84
Channel Event. t= 92 (60796) Note Off ch=5 par1=55 par2=64
Channel Event. t= 30 (60826) Note Off ch=5 par1=88 par2=64
Channel Event. t= 50 (60876) Note Off ch=5 par1=79 par2=64
Channel Event. t= 68 (60944) Note On ch=5 par1=60 par2=70
Channel Event. t= 87 (61031) Note Off ch=5 par1=60 par2=64
Channel Event. t= 153 (61184) Note On ch=5 par1=64 par2=83
Channel Event. t= 97 (61281) Note Off ch=5 par1=64 par2=64
Channel Event. t= 143 (61424) Note On ch=5 par1=67 par2=70
Channel Event. t= 137 (61561) Note Off ch=5 par1=67 par2=64
Channel Event. t= 103 (61664) Note On ch=5 par1=66 par2=94
Channel Event. t= 2 (61666) Note On ch=5 par1=81 par2=63
Channel Event. t= 8 (61674) Note On ch=5 par1=72 par2=55
Channel Event. t= 170 (61844) Note Off ch=5 par1=72 par2=64
Channel Event. t= 20 (61864) Note Off ch=5 par1=81 par2=64
Channel Event. t= 520 (62384) Note On ch=5 par1=64 par2=81
Channel Event. t= 17 (62401) Note Off ch=5 par1=66 par2=64
Channel Event. t= 213 (62614) Note On ch=5 par1=81 par2=62
Channel Event. t= 5 (62619) Note On ch=5 par1=72 par2=55
Channel Event. t= 5 (62624) Note On ch=5 par1=60 par2=88
Channel Event. t= 12 (62636) Note Off ch=5 par1=64 par2=64
Channel Event. t= 133 (62769) Note Off ch=5 par1=72 par2=64
Channel Event. t= 10 (62779) Note Off ch=5 par1=81 par2=64
Channel Event. t= 85 (62864) Note On ch=5 par1=62 par2=72
Channel Event. t= 22 (62886) Note Off ch=5 par1=60 par2=64
Channel Event. t= 188 (63074) Note Off ch=5 par1=62 par2=64
Channel Event. t= 30 (63104) Note On ch=5 par1=64 par2=76
Channel Event. t= 240 (63344) Note On ch=5 par1=62 par2=72
Channel Event. t= 12 (63356) Note Off ch=5 par1=64 par2=64
Channel Event. t= 75 (63431) Note Off ch=5 par1=62 par2=64
Channel Event. t= 153 (63584) Note On ch=5 par1=59 par2=79
Channel Event. t= 22 (63606) Note On ch=5 par1=81 par2=59
Channel Event. t= 8 (63614) Note On ch=5 par1=72 par2=50
Channel Event. t= 100 (63714) Note Off ch=5 par1=59 par2=64
Channel Event. t= 60 (63774) Note Off ch=5 par1=72 par2=64
Channel Event. t= 5 (63779) Note Off ch=5 par1=81 par2=64
Channel Event. t= 45 (63824) Note On ch=5 par1=60 par2=77
Channel Event. t= 75 (63899) Note Off ch=5 par1=60 par2=64
Channel Event. t= 165 (64064) Note On ch=5 par1=62 par2=90
Channel Event. t= 240 (64304) Note On ch=5 par1=60 par2=66
Channel Event. t= 47 (64351) Note Off ch=5 par1=62 par2=64
Channel Event. t= 100 (64451) Note Off ch=5 par1=60 par2=64
Channel Event. t= 90 (64541) Note On ch=5 par1=81 par2=66
Channel Event. t= 3 (64544) Note On ch=5 par1=57 par2=80
Channel Event. t= 10 (64554) Note On ch=5 par1=72 par2=58
Channel Event. t= 97 (64651) Note Off ch=5 par1=57 par2=64
Channel Event. t= 63 (64714) Note Off ch=5 par1=81 par2=64
Channel Event. t= 22 (64736) Note Off ch=5 par1=72 par2=64
Channel Event. t= 48 (64784) Note On ch=5 par1=59 par2=79
Channel Event. t= 102 (64886) Note Off ch=5 par1=59 par2=64
Channel Event. t= 138 (65024) Note On ch=5 par1=60 par2=92
Channel Event. t= 480 (65504) Note On ch=5 par1=76 par2=73
Channel Event. t= 7 (65511) Note On ch=5 par1=67 par2=61
Channel Event. t= 123 (65634) Note Off ch=5 par1=76 par2=64
Channel Event. t= 30 (65664) Note Off ch=5 par1=67 par2=64
Channel Event. t= 327 (65991) Note On ch=5 par1=72 par2=82
Channel Event. t= 8 (65999) Note On ch=5 par1=64 par2=69
Channel Event. t= 52 (66051) Note Off ch=5 par1=60 par2=64
Channel Event. t= 105 (66156) Note Off ch=5 par1=64 par2=64
Channel Event. t= 3 (66159) Note Off ch=5 par1=72 par2=64
Channel Event. t= 305 (66464) Note On ch=5 par1=55 par2=84
Channel Event. t= 215 (66679) Note Off ch=5 par1=55 par2=64
Channel Event. t= 25 (66704) Note On ch=5 par1=60 par2=84
Channel Event. t= 240 (66944) Note On ch=5 par1=64 par2=95
Channel Event. t= 10 (66954) Note Off ch=5 par1=60 par2=64
Channel Event. t= 185 (67139) Note Off ch=5 par1=64 par2=64
Channel Event. t= 285 (67424) Note On ch=5 par1=60 par2=78
Channel Event. t= 7 (67431) Note On ch=5 par1=76 par2=58
Channel Event. t= 3 (67434) Note On ch=5 par1=67 par2=49
Channel Event. t= 127 (67561) Note Off ch=5 par1=67 par2=64
Channel Event. t= 10 (67571) Note Off ch=5 par1=76 par2=64
Channel Event. t= 93 (67664) Note On ch=5 par1=55 par2=72
Channel Event. t= 7 (67671) Note Off ch=5 par1=60 par2=64
Channel Event. t= 233 (67904) Note On ch=5 par1=54 par2=94
Channel Event. t= 30 (67934) Note Off ch=5 par1=55 par2=64
Channel Event. t= 200 (68134) Note Off ch=5 par1=54 par2=64
Channel Event. t= 250 (68384) Note On ch=5 par1=55 par2=79
Channel Event. t= 10 (68394) Note On ch=5 par1=76 par2=50
Channel Event. t= 7 (68401) Note On ch=5 par1=67 par2=35
Channel Event. t= 140 (68541) Note Off ch=5 par1=76 par2=64
Channel Event. t= 3 (68544) Note Off ch=5 par1=67 par2=64
Channel Event. t= 80 (68624) Note On ch=5 par1=60 par2=79
Channel Event. t= 10 (68634) Note Off ch=5 par1=55 par2=64
Channel Event. t= 230 (68864) Note On ch=5 par1=64 par2=95
Channel Event. t= 12 (68876) Note Off ch=5 par1=60 par2=64
Channel Event. t= 138 (69014) Note Off ch=5 par1=64 par2=64
Channel Event. t= 90 (69104) Note On ch=5 par1=67 par2=78
Channel Event. t= 107 (69211) Note Off ch=5 par1=67 par2=64
Channel Event. t= 118 (69329) Note On ch=5 par1=81 par2=63
Channel Event. t= 5 (69334) Note On ch=5 par1=72 par2=55
Channel Event. t= 10 (69344) Note On ch=5 par1=65 par2=100
Channel Event. t= 170 (69514) Note Off ch=5 par1=72 par2=64
Channel Event. t= 12 (69526) Note Off ch=5 par1=81 par2=64
Channel Event. t= 528 (70054) Note Off ch=5 par1=65 par2=64
Channel Event. t= 10 (70064) Note On ch=5 par1=64 par2=85
Channel Event. t= 240 (70304) Note On ch=5 par1=67 par2=84
Channel Event. t= 15 (70319) Note Off ch=5 par1=64 par2=64
Channel Event. t= 40 (70359) Note On ch=5 par1=81 par2=56
Channel Event. t= 7 (70366) Note On ch=5 par1=72 par2=49
Channel Event. t= 135 (70501) Note Off ch=5 par1=81 par2=64
Channel Event. t= 8 (70509) Note Off ch=5 par1=72 par2=64
Channel Event. t= 35 (70544) Note On ch=5 par1=65 par2=74
Channel Event. t= 12 (70556) Note Off ch=5 par1=67 par2=64
Channel Event. t= 228 (70784) Note On ch=5 par1=64 par2=73
Channel Event. t= 62 (70846) Note Off ch=5 par1=65 par2=64
Channel Event. t= 178 (71024) Note On ch=5 par1=62 par2=88
Channel Event. t= 7 (71031) Note Off ch=5 par1=64 par2=64
Channel Event. t= 228 (71259) Note Off ch=5 par1=62 par2=64
Channel Event. t= 5 (71264) Note On ch=5 par1=65 par2=85
Channel Event. t= 7 (71271) Note On ch=5 par1=81 par2=61
Channel Event. t= 10 (71281) Note On ch=5 par1=72 par2=50
Channel Event. t= 135 (71416) Note Off ch=5 par1=81 par2=64
Channel Event. t= 5 (71421) Note Off ch=5 par1=72 par2=64
Channel Event. t= 83 (71504) Note On ch=5 par1=64 par2=81
Channel Event. t= 40 (71544) Note Off ch=5 par1=65 par2=64
Channel Event. t= 200 (71744) Note On ch=5 par1=62 par2=74
Channel Event. t= 37 (71781) Note Off ch=5 par1=64 par2=64
Channel Event. t= 108 (71889) Note Off ch=5 par1=62 par2=64
Channel Event. t= 95 (71984) Note On ch=5 par1=60 par2=92
Channel Event. t= 240 (72224) Note On ch=5 par1=64 par2=81
Channel Event. t= 12 (72236) Note On ch=5 par1=81 par2=69
Channel Event. t= 8 (72244) Note On ch=5 par1=72 par2=63
Channel Event. t= 7 (72251) Note Off ch=5 par1=60 par2=64
Channel Event. t= 178 (72429) Note Off ch=5 par1=72 par2=64
Channel Event. t= 2 (72431) Note Off ch=5 par1=81 par2=64
Channel Event. t= 33 (72464) Note On ch=5 par1=62 par2=85
Channel Event. t= 40 (72504) Note Off ch=5 par1=64 par2=64
Channel Event. t= 137 (72641) Note Off ch=5 par1=62 par2=64
Channel Event. t= 540 (73181) Note On ch=5 par1=79 par2=73
Channel Event. t= 3 (73184) Note On ch=5 par1=71 par2=63
Channel Event. t= 5 (73189) Note Off ch=5 par1=71 par2=64
Channel Event. t= 0 (73189) Note On ch=5 par1=71 par2=66
Channel Event. t= 120 (73309) Note Off ch=5 par1=79 par2=64
Channel Event. t= 35 (73344) Note Off ch=5 par1=71 par2=64
Channel Event. t= 320 (73664) Note On ch=5 par1=72 par2=66
Channel Event. t= 0 (73664) Note On ch=5 par1=64 par2=48
Channel Event. t= 32 (73696) Note Off ch=5 par1=72 par2=64
Channel Event. t= 0 (73696) Note On ch=5 par1=72 par2=74
Channel Event. t= 5 (73701) Note Off ch=5 par1=64 par2=64
Channel Event. t= 0 (73701) Note On ch=5 par1=64 par2=68
Channel Event. t= 170 (73871) Note Off ch=5 par1=64 par2=64
Channel Event. t= 10 (73881) Note Off ch=5 par1=72 par2=64
Channel Event. t= 743 (74624) Note On ch=5 par1=52 par2=64
Channel Event. t= 0 (74624) Note On ch=5 par1=55 par2=64
Channel Event. t= 1920 (76544) Note Off ch=5 par1=55 par2=64
Channel Event. t= 0 (76544) Note Off ch=5 par1=52 par2=64
Channel Event. t= 0 (76544) Note On ch=5 par1=57 par2=36
Channel Event. t= 0 (76544) Note On ch=5 par1=60 par2=31
Channel Event. t= 842 (77386) Note Off ch=5 par1=60 par2=64
Channel Event. t= 25 (77411) Note Off ch=5 par1=57 par2=64
Channel Event. t= 93 (77504) Note On ch=5 par1=60 par2=58
Channel Event. t= 0 (77504) Note On ch=5 par1=64 par2=58
Channel Event. t= 687 (78191) Note Off ch=5 par1=60 par2=64
Channel Event. t= 38 (78229) Note Off ch=5 par1=64 par2=64
Channel Event. t= 235 (78464) Note On ch=5 par1=67 par2=78
Channel Event. t= 0 (78464) Note On ch=5 par1=64 par2=72
Channel Event. t= 960 (79424) Note Off ch=5 par1=67 par2=64
Channel Event. t= 0 (79424) Note On ch=5 par1=72 par2=84
Channel Event. t= 0 (79424) Note On ch=5 par1=69 par2=83
Channel Event. t= 32 (79456) Note Off ch=5 par1=64 par2=64
Channel Event. t= 583 (80039) Note Off ch=5 par1=72 par2=64
Channel Event. t= 105 (80144) Note Off ch=5 par1=69 par2=64
Channel Event. t= 0 (80144) Note On ch=5 par1=72 par2=74
Channel Event. t= 0 (80144) Note On ch=5 par1=76 par2=82
Channel Event. t= 135 (80279) Note Off ch=5 par1=76 par2=64
Channel Event. t= 42 (80321) Note Off ch=5 par1=72 par2=64
Channel Event. t= 63 (80384) Note On ch=5 par1=76 par2=86
Channel Event. t= 0 (80384) Note On ch=5 par1=79 par2=92
Channel Event. t= 235 (80619) Note Off ch=5 par1=79 par2=64
Channel Event. t= 10 (80629) Note Off ch=5 par1=76 par2=64
Channel Event. t= 235 (80864) Note On ch=5 par1=81 par2=85
Channel Event. t= 0 (80864) Note On ch=5 par1=79 par2=84
Channel Event. t= 180 (81044) Note Off ch=5 par1=79 par2=64
Channel Event. t= 5 (81049) Note Off ch=5 par1=81 par2=64
Channel Event. t= 295 (81344) Note On ch=5 par1=79 par2=70
Channel Event. t= 0 (81344) Note On ch=5 par1=76 par2=96
Channel Event. t= 615 (81959) Note Off ch=5 par1=79 par2=64
Channel Event. t= 10 (81969) Note Off ch=5 par1=76 par2=64
Channel Event. t= 95 (82064) Note On ch=5 par1=76 par2=83
Channel Event. t= 0 (82064) Note On ch=5 par1=72 par2=76
Channel Event. t= 165 (82229) Note Off ch=5 par1=76 par2=64
Channel Event. t= 22 (82251) Note Off ch=5 par1=72 par2=64
Channel Event. t= 53 (82304) Note On ch=5 par1=76 par2=84
Channel Event. t= 0 (82304) Note On ch=5 par1=79 par2=83
Channel Event. t= 285 (82589) Note Off ch=5 par1=76 par2=64
Channel Event. t= 45 (82634) Note Off ch=5 par1=79 par2=64
Channel Event. t= 150 (82784) Note On ch=5 par1=79 par2=80
Channel Event. t= 0 (82784) Note On ch=5 par1=81 par2=80
Channel Event. t= 237 (83021) Note Off ch=5 par1=79 par2=64
Channel Event. t= 168 (83189) Note Off ch=5 par1=81 par2=64
Channel Event. t= 75 (83264) Note On ch=5 par1=83 par2=94
Channel Event. t= 0 (83264) Note On ch=5 par1=77 par2=88
Channel Event. t= 692 (83956) Note Off ch=5 par1=77 par2=64
Channel Event. t= 0 (83956) Note Off ch=5 par1=83 par2=64
Channel Event. t= 28 (83984) Note On ch=5 par1=84 par2=68
Channel Event. t= 0 (83984) Note On ch=5 par1=79 par2=61
Channel Event. t= 200 (84184) Note Off ch=5 par1=84 par2=64
Channel Event. t= 40 (84224) Note On ch=5 par1=76 par2=77
Channel Event. t= 480 (84704) Note Off ch=5 par1=79 par2=64
Channel Event. t= 0 (84704) Note Off ch=5 par1=76 par2=64
Channel Event. t= 0 (84704) Note On ch=5 par1=72 par2=81
Channel Event. t= 0 (84704) Note On ch=5 par1=76 par2=70
Channel Event. t= 360 (85064) Note Off ch=5 par1=72 par2=64
Channel Event. t= 120 (85184) Note On ch=5 par1=72 par2=74
Channel Event. t= 0 (85184) Note On ch=5 par1=69 par2=72
Channel Event. t= 17 (85201) Note Off ch=5 par1=76 par2=64
Channel Event. t= 273 (85474) Note Off ch=5 par1=69 par2=64
Channel Event. t= 42 (85516) Note Off ch=5 par1=72 par2=64
Channel Event. t= 148 (85664) Note On ch=5 par1=71 par2=82
Channel Event. t= 0 (85664) Note On ch=5 par1=74 par2=90
Channel Event. t= 192 (85856) Note Off ch=5 par1=74 par2=64
Channel Event. t= 13 (85869) Note Off ch=5 par1=71 par2=64
Channel Event. t= 275 (86144) Note On ch=5 par1=75 par2=101
Channel Event. t= 0 (86144) Note On ch=5 par1=72 par2=85
Channel Event. t= 897 (87041) Note Off ch=5 par1=72 par2=64
Channel Event. t= 23 (87064) Note Off ch=5 par1=75 par2=64
Channel Event. t= 40 (87104) Note On ch=5 par1=75 par2=82
Channel Event. t= 0 (87104) Note On ch=5 par1=72 par2=72
Channel Event. t= 425 (87529) Note Off ch=5 par1=72 par2=64
Channel Event. t= 22 (87551) Note Off ch=5 par1=75 par2=64
Channel Event. t= 33 (87584) Note On ch=5 par1=83 par2=72
Channel Event. t= 0 (87584) Note On ch=5 par1=79 par2=61
Channel Event. t= 222 (87806) Note Off ch=5 par1=83 par2=64
Channel Event. t= 8 (87814) Note Off ch=5 par1=79 par2=64
Channel Event. t= 250 (88064) Note On ch=5 par1=75 par2=94
Channel Event. t= 0 (88064) Note On ch=5 par1=72 par2=84
Channel Event. t= 840 (88904) Note Off ch=5 par1=72 par2=64
Channel Event. t= 0 (88904) Note Off ch=5 par1=75 par2=64
Channel Event. t= 120 (89024) Note On ch=5 par1=75 par2=74
Channel Event. t= 0 (89024) Note On ch=5 par1=72 par2=69
Channel Event. t= 382 (89406) Note Off ch=5 par1=72 par2=64
Channel Event. t= 73 (89479) Note Off ch=5 par1=75 par2=64
Channel Event. t= 25 (89504) Note On ch=5 par1=79 par2=61
Channel Event. t= 0 (89504) Note On ch=5 par1=83 par2=68
Channel Event. t= 270 (89774) Note Off ch=5 par1=83 par2=64
Channel Event. t= 17 (89791) Note Off ch=5 par1=79 par2=64
Channel Event. t= 193 (89984) Note On ch=5 par1=75 par2=99
Channel Event. t= 0 (89984) Note On ch=5 par1=72 par2=90
Channel Event. t= 960 (90944) Note Off ch=5 par1=72 par2=64
Channel Event. t= 0 (90944) Note On ch=5 par1=67 par2=74
Channel Event. t= 0 (90944) Note On ch=5 par1=70 par2=85
Channel Event. t= 57 (91001) Note Off ch=5 par1=75 par2=64
Channel Event. t= 808 (91809) Note Off ch=5 par1=67 par2=64
Channel Event. t= 55 (91864) Note Off ch=5 par1=70 par2=64
Channel Event. t= 40 (91904) Note On ch=5 par1=70 par2=92
Channel Event. t= 0 (91904) Note On ch=5 par1=67 par2=79
Channel Event. t= 1245 (93149) Note Off ch=5 par1=67 par2=64
Channel Event. t= 17 (93166) Note Off ch=5 par1=70 par2=64
Channel Event. t= 178 (93344) Note On ch=5 par1=69 par2=91
Channel Event. t= 480 (93824) Note On ch=5 par1=70 par2=103
Channel Event. t= 50 (93874) Note Off ch=5 par1=69 par2=64
Channel Event. t= 910 (94784) Note On ch=5 par1=75 par2=94
Channel Event. t= 0 (94784) Note On ch=5 par1=72 par2=75
Channel Event. t= 2 (94786) Note Off ch=5 par1=70 par2=64
Channel Event. t= 613 (95399) Note Off ch=5 par1=75 par2=64
Channel Event. t= 105 (95504) Note On ch=5 par1=79 par2=86
Channel Event. t= 0 (95504) Note On ch=5 par1=75 par2=89
Channel Event. t= 30 (95534) Note Off ch=5 par1=72 par2=64
Channel Event. t= 117 (95651) Note Off ch=5 par1=75 par2=64
Channel Event. t= 55 (95706) Note Off ch=5 par1=79 par2=64
Channel Event. t= 38 (95744) Note On ch=5 par1=82 par2=103
Channel Event. t= 0 (95744) Note On ch=5 par1=79 par2=85
Channel Event. t= 440 (96184) Note Off ch=5 par1=82 par2=64
Channel Event. t= 7 (96191) Note Off ch=5 par1=79 par2=64
Channel Event. t= 33 (96224) Note On ch=5 par1=84 par2=88
Channel Event. t= 0 (96224) Note On ch=5 par1=82 par2=75
Channel Event. t= 407 (96631) Note Off ch=5 par1=82 par2=64
Channel Event. t= 73 (96704) Note On ch=5 par1=82 par2=102
Channel Event. t= 0 (96704) Note On ch=5 par1=79 par2=92
Channel Event. t= 7 (96711) Note Off ch=5 par1=84 par2=64
Channel Event. t= 615 (97326) Note Off ch=5 par1=82 par2=64
Channel Event. t= 35 (97361) Note Off ch=5 par1=79 par2=64
Channel Event. t= 63 (97424) Note On ch=5 par1=75 par2=82
Channel Event. t= 0 (97424) Note On ch=5 par1=79 par2=83
Channel Event. t= 170 (97594) Note Off ch=5 par1=79 par2=64
Channel Event. t= 27 (97621) Note Off ch=5 par1=75 par2=64
Channel Event. t= 43 (97664) Note On ch=5 par1=79 par2=67
Channel Event. t= 0 (97664) Note On ch=5 par1=82 par2=79
Channel Event. t= 427 (98091) Note Off ch=5 par1=82 par2=64
Channel Event. t= 53 (98144) Note On ch=5 par1=82 par2=71
Channel Event. t= 0 (98144) Note On ch=5 par1=84 par2=83
Channel Event. t= 40 (98184) Note Off ch=5 par1=79 par2=64
Channel Event. t= 400 (98584) Note Off ch=5 par1=84 par2=64
Channel Event. t= 22 (98606) Note Off ch=5 par1=82 par2=64
Channel Event. t= 18 (98624) Note On ch=5 par1=81 par2=83
Channel Event. t= 0 (98624) Note On ch=5 par1=86 par2=87
Channel Event. t= 702 (99326) Note Off ch=5 par1=86 par2=64
Channel Event. t= 18 (99344) Note On ch=5 par1=82 par2=79
Channel Event. t= 0 (99344) Note On ch=5 par1=87 par2=95
Channel Event. t= 7 (99351) Note Off ch=5 par1=81 par2=64
Channel Event. t= 158 (99509) Note Off ch=5 par1=82 par2=64
Channel Event. t= 75 (99584) Note On ch=5 par1=83 par2=102
Channel Event. t= 0 (99584) Note On ch=5 par1=79 par2=80
Channel Event. t= 85 (99669) Note Off ch=5 par1=87 par2=64
Channel Event. t= 255 (99924) Note Off ch=5 par1=79 par2=64
Channel Event. t= 20 (99944) Note Off ch=5 par1=83 par2=64
Channel Event. t= 120 (100064) Note On ch=5 par1=79 par2=83
Channel Event. t= 0 (100064) Note On ch=5 par1=75 par2=87
Channel Event. t= 385 (100449) Note Off ch=5 par1=75 par2=64
Channel Event. t= 90 (100539) Note Off ch=5 par1=79 par2=64
Channel Event. t= 5 (100544) Note On ch=5 par1=75 par2=84
Channel Event. t= 0 (100544) Note On ch=5 par1=72 par2=86
Channel Event. t= 480 (101024) Note Off ch=5 par1=72 par2=64
Channel Event. t= 0 (101024) Note On ch=5 par1=77 par2=86
Channel Event. t= 0 (101024) Note On ch=5 par1=73 par2=94
Channel Event. t= 7 (101031) Note Off ch=5 par1=75 par2=64
Channel Event. t= 420 (101451) Note Off ch=5 par1=73 par2=64
Channel Event. t= 43 (101494) Note Off ch=5 par1=77 par2=64
Channel Event. t= 10 (101504) Note On ch=5 par1=78 par2=90
Channel Event. t= 0 (101504) Note On ch=5 par1=74 par2=71
Channel Event. t= 422 (101926) Note Off ch=5 par1=74 par2=64
Channel Event. t= 23 (101949) Note Off ch=5 par1=78 par2=64
Channel Event. t= 35 (101984) Note On ch=5 par1=78 par2=88
Channel Event. t= 0 (101984) Note On ch=5 par1=74 par2=87
Channel Event. t= 195 (102179) Note Off ch=5 par1=78 par2=64
Channel Event. t= 45 (102224) Note On ch=5 par1=78 par2=90
Channel Event. t= 0 (102224) Note On ch=5 par1=86 par2=89
Channel Event. t= 32 (102256) Note Off ch=5 par1=74 par2=64
Channel Event. t= 175 (102431) Note Off ch=5 par1=78 par2=64
Channel Event. t= 33 (102464) Note On ch=5 par1=78 par2=99
Channel Event. t= 0 (102464) Note On ch=5 par1=74 par2=80
Channel Event. t= 30 (102494) Note Off ch=5 par1=86 par2=64
Channel Event. t= 375 (102869) Note Off ch=5 par1=74 par2=64
Channel Event. t= 7 (102876) Note Off ch=5 par1=78 par2=64
Channel Event. t= 68 (102944) Note On ch=5 par1=78 par2=76
Channel Event. t= 0 (102944) Note On ch=5 par1=74 par2=76
Channel Event. t= 162 (103106) Note Off ch=5 par1=74 par2=64
Channel Event. t= 5 (103111) Note Off ch=5 par1=78 par2=64
Channel Event. t= 73 (103184) Note On ch=5 par1=86 par2=91
Channel Event. t= 0 (103184) Note On ch=5 par1=78 par2=92
Channel Event. t= 122 (103306) Note Off ch=5 par1=86 par2=64
Channel Event. t= 65 (103371) Note Off ch=5 par1=78 par2=64
Channel Event. t= 53 (103424) Note On ch=5 par1=79 par2=63
Channel Event. t= 0 (103424) Note On ch=5 par1=71 par2=45
Channel Event. t= 195 (103619) Note Off ch=5 par1=79 par2=64
Channel Event. t= 27 (103646) Note Off ch=5 par1=71 par2=64
Channel Event. t= 258 (103904) Note On ch=5 par1=67 par2=83
Channel Event. t= 0 (103904) Note On ch=5 par1=59 par2=92
Channel Event. t= 275 (104179) Note Off ch=5 par1=59 par2=64
Channel Event. t= 5 (104184) Note Off ch=5 par1=67 par2=64
Channel Event. t= 200 (104384) Note On ch=5 par1=67 par2=63
Channel Event. t= 0 (104384) Note On ch=5 par1=59 par2=69
Channel Event. t= 960 (105344) Controller ch=5 par1=7 (Main Volume) par2=79
Channel Event. t= 45 (105389) Note On ch=5 par1=91 par2=75
Channel Event. t= 227 (105616) Note On ch=5 par1=90 par2=79
Channel Event. t= 35 (105651) Note Off ch=5 par1=91 par2=64
Channel Event. t= 53 (105704) Controller ch=5 par1=7 (Main Volume) par2=78
Channel Event. t= 155 (105859) Note On ch=5 par1=88 par2=74
Channel Event. t= 37 (105896) Note Off ch=5 par1=90 par2=64
Channel Event. t= 108 (106004) Controller ch=5 par1=7 (Main Volume) par2=77
Channel Event. t= 77 (106081) Note On ch=5 par1=86 par2=74
Channel Event. t= 15 (106096) Note Off ch=5 par1=88 par2=64
Channel Event. t= 208 (106304) Controller ch=5 par1=7 (Main Volume) par2=76
Channel Event. t= 15 (106319) Note On ch=5 par1=84 par2=68
Channel Event. t= 7 (106326) Note Off ch=5 par1=86 par2=64
Channel Event. t= 208 (106534) Note On ch=5 par1=83 par2=75
Channel Event. t= 12 (106546) Note Off ch=5 par1=84 par2=64
Channel Event. t= 58 (106604) Controller ch=5 par1=7 (Main Volume) par2=75
Channel Event. t= 162 (106766) Note On ch=5 par1=81 par2=68
Channel Event. t= 18 (106784) Note Off ch=5 par1=83 par2=64
Channel Event. t= 120 (106904) Controller ch=5 par1=7 (Main Volume) par2=74
Channel Event. t= 85 (106989) Note On ch=5 par1=79 par2=80
Channel Event. t= 12 (107001) Note Off ch=5 par1=81 par2=64
Channel Event. t= 55 (107056) Note Off ch=5 par1=59 par2=64
Channel Event. t= 90 (107146) Note Off ch=5 par1=67 par2=64
Channel Event. t= 38 (107184) Note Off ch=5 par1=79 par2=64
Channel Event. t= 20 (107204) Controller ch=5 par1=7 (Main Volume) par2=73
Channel Event. t= 35 (107239) Note On ch=5 par1=80 par2=92
Channel Event. t= 25 (107264) Note On ch=5 par1=68 par2=87
Channel Event. t= 0 (107264) Note On ch=5 par1=56 par2=79
Channel Event. t= 222 (107486) Note On ch=5 par1=83 par2=76
Channel Event. t= 18 (107504) Controller ch=5 par1=7 (Main Volume) par2=72
Channel Event. t= 0 (107504) Note On ch=5 par1=71 par2=78
Channel Event. t= 25 (107529) Note Off ch=5 par1=68 par2=64
Channel Event. t= 7 (107536) Note Off ch=5 par1=80 par2=64
Channel Event. t= 65 (107601) Note On ch=5 par1=75 par2=80
Channel Event. t= 23 (107624) Note On ch=5 par1=63 par2=78
Channel Event. t= 5 (107629) Note Off ch=5 par1=83 par2=64
Channel Event. t= 5 (107634) Note Off ch=5 par1=71 par2=64
Channel Event. t= 62 (107696) Note Off ch=5 par1=75 par2=64
Channel Event. t= 40 (107736) Note On ch=5 par1=80 par2=101
Channel Event. t= 8 (107744) Note On ch=5 par1=68 par2=89
Channel Event. t= 2 (107746) Note Off ch=5 par1=63 par2=64
Channel Event. t= 58 (107804) Controller ch=5 par1=7 (Main Volume) par2=71
Channel Event. t= 170 (107974) Note Off ch=5 par1=68 par2=64
Channel Event. t= 10 (107984) Note On ch=5 par1=71 par2=71
Channel Event. t= 0 (107984) Note On ch=5 par1=83 par2=84
Channel Event. t= 17 (108001) Note Off ch=5 par1=80 par2=64
Channel Event. t= 93 (108094) Note On ch=5 par1=75 par2=81
Channel Event. t= 10 (108104) Note On ch=5 par1=63 par2=65
Channel Event. t= 17 (108121) Note Off ch=5 par1=83 par2=64
Channel Event. t= 18 (108139) Note Off ch=5 par1=71 par2=64
Channel Event. t= 5 (108144) Note Off ch=5 par1=56 par2=64
Channel Event. t= 20 (108164) Controller ch=5 par1=7 (Main Volume) par2=70
Channel Event. t= 25 (108189) Note Off ch=5 par1=75 par2=64
Channel Event. t= 35 (108224) Note On ch=5 par1=68 par2=97
Channel Event. t= 0 (108224) Note On ch=5 par1=56 par2=76
Channel Event. t= 0 (108224) Note On ch=5 par1=80 par2=105
Channel Event. t= 15 (108239) Note Off ch=5 par1=63 par2=64
Channel Event. t= 225 (108464) Controller ch=5 par1=7 (Main Volume) par2=69
Channel Event. t= 0 (108464) Note On ch=5 par1=59 par2=74
Channel Event. t= 12 (108476) Note Off ch=5 par1=56 par2=64
Channel Event. t= 108 (108584) Note On ch=5 par1=51 par2=73
Channel Event. t= 37 (108621) Note Off ch=5 par1=59 par2=64
Channel Event. t= 70 (108691) Note Off ch=5 par1=51 par2=64
Channel Event. t= 13 (108704) Note On ch=5 par1=56 par2=92
Channel Event. t= 60 (108764) Controller ch=5 par1=7 (Main Volume) par2=68
Channel Event. t= 90 (108854) Note Off ch=5 par1=68 par2=64
Channel Event. t= 60 (108914) Note Off ch=5 par1=80 par2=64
Channel Event. t= 25 (108939) Note Off ch=5 par1=56 par2=64
Channel Event. t= 5 (108944) Note On ch=5 par1=59 par2=79
Channel Event. t= 120 (109064) Controller ch=5 par1=7 (Main Volume) par2=67
Channel Event. t= 0 (109064) Note On ch=5 par1=51 par2=78
Channel Event. t= 15 (109079) Note Off ch=5 par1=59 par2=64
Channel Event. t= 27 (109106) Note Off ch=5 par1=51 par2=64
Channel Event. t= 78 (109184) Note On ch=5 par1=56 par2=94
Channel Event. t= 0 (109184) Note On ch=5 par1=47 par2=91
Channel Event. t= 10 (109194) Note On ch=5 par1=68 par2=102
Channel Event. t= 170 (109364) Controller ch=5 par1=7 (Main Volume) par2=66
Channel Event. t= 60 (109424) Note On ch=5 par1=58 par2=92
Channel Event. t= 0 (109424) Note On ch=5 par1=49 par2=83
Channel Event. t= 10 (109434) Note Off ch=5 par1=47 par2=64
Channel Event. t= 12 (109446) Note On ch=5 par1=70 par2=92
Channel Event. t= 23 (109469) Note Off ch=5 par1=56 par2=64
Channel Event. t= 15 (109484) Note Off ch=5 par1=68 par2=64
Channel Event. t= 50 (109534) Note Off ch=5 par1=49 par2=64
Channel Event. t= 10 (109544) Note Off ch=5 par1=58 par2=64
Channel Event. t= 25 (109569) Note Off ch=5 par1=70 par2=64
Channel Event. t= 92 (109661) Note On ch=5 par1=71 par2=96
Channel Event. t= 3 (109664) Controller ch=5 par1=7 (Main Volume) par2=65
Channel Event. t= 0 (109664) Note On ch=5 par1=59 par2=90
Channel Event. t= 0 (109664) Note On ch=5 par1=51 par2=93
Channel Event. t= 240 (109904) Note On ch=5 par1=61 par2=91
Channel Event. t= 0 (109904) Note On ch=5 par1=52 par2=79
Channel Event. t= 7 (109911) Note On ch=5 par1=73 par2=92
Channel Event. t= 5 (109916) Note Off ch=5 par1=59 par2=64
Channel Event. t= 10 (109926) Note Off ch=5 par1=51 par2=64
Channel Event. t= 30 (109956) Note Off ch=5 par1=71 par2=64
Channel Event. t= 8 (109964) Controller ch=5 par1=7 (Main Volume) par2=64
Channel Event. t= 50 (110014) Note Off ch=5 par1=61 par2=64
Channel Event. t= 0 (110014) Note Off ch=5 par1=52 par2=64
Channel Event. t= 12 (110026) Note Off ch=5 par1=73 par2=64
Channel Event. t= 108 (110134) Note On ch=5 par1=74 par2=100
Channel Event. t= 10 (110144) Note On ch=5 par1=62 par2=89
Channel Event. t= 0 (110144) Note On ch=5 par1=54 par2=99
Channel Event. t= 120 (110264) Controller ch=5 par1=7 (Main Volume) par2=63
Channel Event. t= 112 (110376) Note On ch=5 par1=76 par2=88
Channel Event. t= 8 (110384) Note On ch=5 par1=64 par2=84
Channel Event. t= 0 (110384) Note On ch=5 par1=55 par2=67
Channel Event. t= 32 (110416) Note Off ch=5 par1=62 par2=64
Channel Event. t= 3 (110419) Note Off ch=5 par1=74 par2=64
Channel Event. t= 2 (110421) Note Off ch=5 par1=54 par2=64
Channel Event. t= 63 (110484) Note Off ch=5 par1=55 par2=64
Channel Event. t= 2 (110486) Note Off ch=5 par1=64 par2=64
Channel Event. t= 38 (110524) Note Off ch=5 par1=76 par2=64
Channel Event. t= 95 (110619) Note On ch=5 par1=77 par2=91
Channel Event. t= 5 (110624) Controller ch=5 par1=7 (Main Volume) par2=62
Channel Event. t= 0 (110624) Note On ch=5 par1=65 par2=90
Channel Event. t= 0 (110624) Note On ch=5 par1=56 par2=89
Channel Event. t= 222 (110846) Note On ch=5 par1=78 par2=83
Channel Event. t= 15 (110861) Note Off ch=5 par1=56 par2=64
Channel Event. t= 3 (110864) Note On ch=5 par1=66 par2=98
Channel Event. t= 0 (110864) Note On ch=5 par1=57 par2=68
Channel Event. t= 5 (110869) Note Off ch=5 par1=65 par2=64
Channel Event. t= 15 (110884) Note Off ch=5 par1=77 par2=64
Channel Event. t= 40 (110924) Controller ch=5 par1=7 (Main Volume) par2=61
Channel Event. t= 10 (110934) Note Off ch=5 par1=57 par2=64
Channel Event. t= 20 (110954) Note Off ch=5 par1=66 par2=64
Channel Event. t= 45 (110999) Note Off ch=5 par1=78 par2=64
Channel Event. t= 97 (111096) Note On ch=5 par1=78 par2=102
Channel Event. t= 8 (111104) Note On ch=5 par1=72 par2=96
Channel Event. t= 0 (111104) Note On ch=5 par1=57 par2=67
Channel Event. t= 120 (111224) Controller ch=5 par1=7 (Main Volume) par2=60
Channel Event. t= 300 (111524) Controller ch=5 par1=7 (Main Volume) par2=59
Channel Event. t= 300 (111824) Controller ch=5 par1=7 (Main Volume) par2=48
Channel Event. t= 240 (112064) Note Off ch=5 par1=57 par2=64
Channel Event. t= 0 (112064) Note Off ch=5 par1=72 par2=64
Channel Event. t= 0 (112064) Note On ch=5 par1=79 par2=95
Channel Event. t= 0 (112064) Note On ch=5 par1=47 par2=63
Channel Event. t= 0 (112064) Note On ch=5 par1=83 par2=96
Channel Event. t= 0 (112064) Note On ch=5 par1=91 par2=102
Channel Event. t= 12 (112076) Note Off ch=5 par1=78 par2=64
Channel Event. t= 48 (112124) Controller ch=5 par1=7 (Main Volume) par2=57
Channel Event. t= 180 (112304) Note Off ch=5 par1=79 par2=64
Channel Event. t= 0 (112304) Note Off ch=5 par1=47 par2=64
Channel Event. t= 0 (112304) Note Off ch=5 par1=83 par2=64
Channel Event. t= 0 (112304) Note Off ch=5 par1=91 par2=64
Channel Event. t= 120 (112424) Controller ch=5 par1=7 (Main Volume) par2=56
Channel Event. t= 300 (112724) Controller ch=5 par1=7 (Main Volume) par2=55
Channel Event. t= 0 (112724) 
Meta Event. Type: 0x2f (47dec), End of Track (0 bytes): 
track #11
track size: 33
Channel Event. t= 0 (0) 
Meta Event. Type: 0x3 (3dec), Sequence/Track Name (20 bytes):                     
Channel Event. t= 0 (0) 
Meta Event. Type: 0x21 (33dec), MIDI Port (1 bytes): 0
Channel Event. t= 0 (0) 
Meta Event. Type: 0x2f (47dec), End of Track (0 bytes): 
track #12
track size: 33
Channel Event. t= 0 (0) 
Meta Event. Type: 0x3 (3dec), Sequence/Track Name (20 bytes):     PART TWO        
Channel Event. t= 0 (0) 
Meta Event. Type: 0x21 (33dec), MIDI Port (1 bytes): 0
Channel Event. t= 0 (0) 
Meta Event. Type: 0x2f (47dec), End of Track (0 bytes): 
track #13
track size: 33
Channel Event. t= 0 (0) 
Meta Event. Type: 0x3 (3dec), Sequence/Track Name (20 bytes): PETER, BIRD & DUCK  
Channel Event. t= 0 (0) 
Meta Event. Type: 0x21 (33dec), MIDI Port (1 bytes): 0
Channel Event. t= 0 (0) 
Meta Event. Type: 0x2f (47dec), End of Track (0 bytes): 
track #14
track size: 33
Channel Event. t= 0 (0) 
Meta Event. Type: 0x3 (3dec), Sequence/Track Name (20 bytes):                     
Channel Event. t= 0 (0) 
Meta Event. Type: 0x21 (33dec), MIDI Port (1 bytes): 0
Channel Event. t= 0 (0) 
Meta Event. Type: 0x2f (47dec), End of Track (0 bytes): 
track #15
track size: 3833
Channel Event. t= 0 (0) 
Meta Event. Type: 0x3 (3dec), Sequence/Track Name (20 bytes): Strings             
Channel Event. t= 0 (0) 
Meta Event. Type: 0x21 (33dec), MIDI Port (1 bytes): 0
Channel Event. t= 0 (0) 
Meta Event. Type: 0x20 (32dec), MIDI Channel Prefix (1 bytes): 7
Channel Event. t= 0 (0) Controller ch=7 par1=10 (Pan) par2=64
Channel Event. t= 0 (0) Controller ch=7 par1=91 (Effects 2 Depth (formerly Tremolo Depth)) par2=127
Channel Event. t= 0 (0) Program Change ch=7 par1=48 par2=-118
Channel Event. t= 15920 (15920) Controller ch=7 par1=10 (Pan) par2=30
Channel Event. t= 690 (16610) Controller ch=7 par1=7 (Main Volume) par2=60
Channel Event. t= 30 (16640) Note On ch=7 par1=67 par2=28
Channel Event. t= 480 (17120) Note On ch=7 par1=72 par2=93
Channel Event. t= 360 (17480) Note On ch=7 par1=76 par2=73
Channel Event. t= 2 (17482) Note Off ch=7 par1=72 par2=64
Channel Event. t= 113 (17595) Note Off ch=7 par1=76 par2=64
Channel Event. t= 5 (17600) Note On ch=7 par1=79 par2=95
Channel Event. t= 75 (17675) Note Off ch=7 par1=79 par2=64
Channel Event. t= 165 (17840) Note On ch=7 par1=81 par2=91
Channel Event. t= 60 (17900) Note Off ch=7 par1=81 par2=64
Channel Event. t= 180 (18080) Note On ch=7 par1=79 par2=91
Channel Event. t= 360 (18440) Note On ch=7 par1=76 par2=73
Channel Event. t= 27 (18467) Note Off ch=7 par1=79 par2=64
Channel Event. t= 70 (18537) Note Off ch=7 par1=76 par2=64
Channel Event. t= 23 (18560) Note On ch=7 par1=79 par2=68
Channel Event. t= 45 (18605) Note Off ch=7 par1=79 par2=64
Channel Event. t= 195 (18800) Note On ch=7 par1=81 par2=84
Channel Event. t= 72 (18872) Note Off ch=7 par1=81 par2=64
Channel Event. t= 168 (19040) Note On ch=7 par1=83 par2=91
Channel Event. t= 360 (19400) Note On ch=7 par1=84 par2=79
Channel Event. t= 15 (19415) Note Off ch=7 par1=83 par2=64
Channel Event. t= 105 (19520) Note On ch=7 par1=79 par2=76
Channel Event. t= 7 (19527) Note Off ch=7 par1=84 par2=64
Channel Event. t= 233 (19760) Note On ch=7 par1=76 par2=93
Channel Event. t= 30 (19790) Note Off ch=7 par1=79 par2=64
Channel Event. t= 22 (19812) Note Off ch=7 par1=76 par2=64
Channel Event. t= 188 (20000) Note On ch=7 par1=72 par2=90
Channel Event. t= 67 (20067) Note Off ch=7 par1=72 par2=64
Channel Event. t= 173 (20240) Note On ch=7 par1=74 par2=88
Channel Event. t= 70 (20310) Note Off ch=7 par1=74 par2=64
Channel Event. t= 170 (20480) Note On ch=7 par1=72 par2=76
Channel Event. t= 0 (20480) Note On ch=7 par1=75 par2=102
Channel Event. t= 50 (20530) Note Off ch=7 par1=67 par2=64
Channel Event. t= 310 (20840) Note Off ch=7 par1=75 par2=64
Channel Event. t= 75 (20915) Note Off ch=7 par1=72 par2=64
Channel Event. t= 45 (20960) Note On ch=7 par1=72 par2=80
Channel Event. t= 0 (20960) Note On ch=7 par1=75 par2=88
Channel Event. t= 240 (21200) Note On ch=7 par1=79 par2=82
Channel Event. t= 0 (21200) Note On ch=7 par1=83 par2=84
Channel Event. t= 12 (21212) Note Off ch=7 par1=75 par2=64
Channel Event. t= 3 (21215) Note Off ch=7 par1=72 par2=64
Channel Event. t= 167 (21382) Note Off ch=7 par1=83 par2=64
Channel Event. t= 13 (21395) Note Off ch=7 par1=79 par2=64
Channel Event. t= 45 (21440) Note On ch=7 par1=72 par2=85
Channel Event. t= 0 (21440) Note On ch=7 par1=75 par2=84
Channel Event. t= 440 (21880) Note Off ch=7 par1=72 par2=64
Channel Event. t= 17 (21897) Note Off ch=7 par1=75 par2=64
Channel Event. t= 23 (21920) Note On ch=7 par1=72 par2=86
Channel Event. t= 0 (21920) Note On ch=7 par1=75 par2=100
Channel Event. t= 237 (22157) Note Off ch=7 par1=75 par2=64
Channel Event. t= 3 (22160) Note On ch=7 par1=79 par2=64
Channel Event. t= 0 (22160) Note On ch=7 par1=83 par2=83
Channel Event. t= 32 (22192) Note Off ch=7 par1=72 par2=64
Channel Event. t= 118 (22310) Note Off ch=7 par1=79 par2=64
Channel Event. t= 90 (22400) Note On ch=7 par1=72 par2=77
Channel Event. t= 0 (22400) Note On ch=7 par1=75 par2=94
Channel Event. t= 2 (22402) Note Off ch=7 par1=83 par2=64
Channel Event. t= 478 (22880) Note On ch=7 par1=67 par2=75
Channel Event. t= 0 (22880) Note On ch=7 par1=70 par2=99
Channel Event. t= 2 (22882) Note Off ch=7 par1=72 par2=64
Channel Event. t= 33 (22915) Note Off ch=7 par1=75 par2=64
Channel Event. t= 275 (23190) Note Off ch=7 par1=67 par2=64
Channel Event. t= 115 (23305) Note Off ch=7 par1=70 par2=64
Channel Event. t= 55 (23360) Note On ch=7 par1=67 par2=83
Channel Event. t= 0 (23360) Note On ch=7 par1=70 par2=93
Channel Event. t= 640 (24000) Note Off ch=7 par1=70 par2=64
Channel Event. t= 80 (24080) Note On ch=7 par1=69 par2=83
Channel Event. t= 20 (24100) Note Off ch=7 par1=67 par2=64
Channel Event. t= 182 (24282) Note Off ch=7 par1=69 par2=64
Channel Event. t= 38 (24320) Note On ch=7 par1=70 par2=93
Channel Event. t= 480 (24800) Note On ch=7 par1=75 par2=105
Channel Event. t= 360 (25160) Note On ch=7 par1=79 par2=90
Channel Event. t= 12 (25172) Note Off ch=7 par1=75 par2=64
Channel Event. t= 108 (25280) Note On ch=7 par1=82 par2=98
Channel Event. t= 32 (25312) Note Off ch=7 par1=79 par2=64
Channel Event. t= 63 (25375) Note Off ch=7 par1=82 par2=64
Channel Event. t= 145 (25520) Note On ch=7 par1=84 par2=83
Channel Event. t= 62 (25582) Note Off ch=7 par1=84 par2=64
Channel Event. t= 178 (25760) Note On ch=7 par1=82 par2=101
Channel Event. t= 360 (26120) Note On ch=7 par1=79 par2=86
Channel Event. t= 17 (26137) Note Off ch=7 par1=82 par2=64
Channel Event. t= 103 (26240) Note On ch=7 par1=82 par2=88
Channel Event. t= 20 (26260) Note Off ch=7 par1=79 par2=64
Channel Event. t= 67 (26327) Note Off ch=7 par1=82 par2=64
Channel Event. t= 153 (26480) Note On ch=7 par1=84 par2=92
Channel Event. t= 85 (26565) Note Off ch=7 par1=84 par2=64
Channel Event. t= 155 (26720) Note On ch=7 par1=86 par2=95
Channel Event. t= 360 (27080) Note On ch=7 par1=87 par2=84
Channel Event. t= 10 (27090) Note Off ch=7 par1=86 par2=64
Channel Event. t= 110 (27200) Note On ch=7 par1=82 par2=93
Channel Event. t= 37 (27237) Note Off ch=7 par1=87 par2=64
Channel Event. t= 203 (27440) Note On ch=7 par1=79 par2=76
Channel Event. t= 15 (27455) Note Off ch=7 par1=82 par2=64
Channel Event. t= 147 (27602) Note Off ch=7 par1=79 par2=64
Channel Event. t= 78 (27680) Note On ch=7 par1=75 par2=69
Channel Event. t= 87 (27767) Note Off ch=7 par1=75 par2=64
Channel Event. t= 153 (27920) Note On ch=7 par1=77 par2=87
Channel Event. t= 62 (27982) Note Off ch=7 par1=77 par2=64
Channel Event. t= 63 (28045) Note Off ch=7 par1=70 par2=64
Channel Event. t= 115 (28160) Note On ch=7 par1=74 par2=96
Channel Event. t= 0 (28160) Note On ch=7 par1=78 par2=86
Channel Event. t= 405 (28565) Note Off ch=7 par1=78 par2=64
Channel Event. t= 17 (28582) Note Off ch=7 par1=74 par2=64
Channel Event. t= 58 (28640) Note On ch=7 par1=74 par2=87
Channel Event. t= 0 (28640) Note On ch=7 par1=78 par2=93
Channel Event. t= 227 (28867) Note Off ch=7 par1=78 par2=64
Channel Event. t= 13 (28880) Note On ch=7 par1=83 par2=88
Channel Event. t= 0 (28880) Note On ch=7 par1=86 par2=79
Channel Event. t= 20 (28900) Note Off ch=7 par1=74 par2=64
Channel Event. t= 130 (29030) Note Off ch=7 par1=83 par2=64
Channel Event. t= 90 (29120) Note On ch=7 par1=74 par2=82
Channel Event. t= 0 (29120) Note On ch=7 par1=78 par2=91
Channel Event. t= 57 (29177) Note Off ch=7 par1=86 par2=64
Channel Event. t= 343 (29520) Note Off ch=7 par1=74 par2=64
Channel Event. t= 25 (29545) Note Off ch=7 par1=78 par2=64
Channel Event. t= 55 (29600) Note On ch=7 par1=74 par2=84
Channel Event. t= 0 (29600) Note On ch=7 par1=78 par2=90
Channel Event. t= 240 (29840) Note On ch=7 par1=83 par2=68
Channel Event. t= 0 (29840) Note On ch=7 par1=86 par2=80
Channel Event. t= 27 (29867) Note Off ch=7 par1=74 par2=64
Channel Event. t= 3 (29870) Note Off ch=7 par1=78 par2=64
Channel Event. t= 162 (30032) Note Off ch=7 par1=83 par2=64
Channel Event. t= 48 (30080) Note On ch=7 par1=71 par2=91
Channel Event. t= 0 (30080) Note On ch=7 par1=79 par2=86
Channel Event. t= 7 (30087) Note Off ch=7 par1=86 par2=64
Channel Event. t= 265 (30352) Note Off ch=7 par1=71 par2=64
Channel Event. t= 208 (30560) Note On ch=7 par1=67 par2=86
Channel Event. t= 2 (30562) Note Off ch=7 par1=79 par2=64
Channel Event. t= 425 (30987) Note Off ch=7 par1=67 par2=64
Channel Event. t= 53 (31040) Note On ch=7 par1=59 par2=74
Channel Event. t= 0 (31040) Note On ch=7 par1=67 par2=71
Channel Event. t= 802 (31842) Note Off ch=7 par1=67 par2=64
Channel Event. t= 158 (32000) Note On ch=7 par1=67 par2=45
Channel Event. t= 5 (32005) Note Off ch=7 par1=59 par2=64
Channel Event. t= 3827 (35832) Note Off ch=7 par1=67 par2=64
Channel Event. t= 8 (35840) Note On ch=7 par1=72 par2=86
Channel Event. t= 427 (36267) Note Off ch=7 par1=72 par2=64
Channel Event. t= 53 (36320) Note On ch=7 par1=72 par2=85
Channel Event. t= 237 (36557) Note Off ch=7 par1=72 par2=64
Channel Event. t= 3 (36560) Note On ch=7 par1=79 par2=82
Channel Event. t= 240 (36800) Note On ch=7 par1=84 par2=86
Channel Event. t= 2 (36802) Note Off ch=7 par1=79 par2=64
Channel Event. t= 410 (37212) Note Off ch=7 par1=84 par2=64
Channel Event. t= 68 (37280) Note On ch=7 par1=84 par2=67
Channel Event. t= 230 (37510) Note Off ch=7 par1=84 par2=64
Channel Event. t= 10 (37520) Note On ch=7 par1=91 par2=80
Channel Event. t= 240 (37760) Note On ch=7 par1=84 par2=76
Channel Event. t= 17 (37777) Note Off ch=7 par1=91 par2=64
Channel Event. t= 463 (38240) Note On ch=7 par1=79 par2=77
Channel Event. t= 10 (38250) Note Off ch=7 par1=84 par2=64
Channel Event. t= 455 (38705) Note Off ch=7 par1=79 par2=64
Channel Event. t= 15 (38720) Note On ch=7 par1=67 par2=76
Channel Event. t= 720 (39440) Note On ch=7 par1=69 par2=76
Channel Event. t= 22 (39462) Note Off ch=7 par1=67 par2=64
Channel Event. t= 218 (39680) Note On ch=7 par1=70 par2=80
Channel Event. t= 37 (39717) Note Off ch=7 par1=69 par2=64
Channel Event. t= 443 (40160) Note On ch=7 par1=75 par2=99
Channel Event. t= 360 (40520) Note On ch=7 par1=79 par2=88
Channel Event. t= 25 (40545) Note Off ch=7 par1=75 par2=64
Channel Event. t= 95 (40640) Note On ch=7 par1=82 par2=95
Channel Event. t= 35 (40675) Note Off ch=7 par1=79 par2=64
Channel Event. t= 62 (40737) Note Off ch=7 par1=82 par2=64
Channel Event. t= 143 (40880) Note On ch=7 par1=84 par2=87
Channel Event. t= 110 (40990) Note Off ch=7 par1=84 par2=64
Channel Event. t= 130 (41120) Note On ch=7 par1=82 par2=96
Channel Event. t= 360 (41480) Note On ch=7 par1=81 par2=72
Channel Event. t= 12 (41492) Note Off ch=7 par1=82 par2=64
Channel Event. t= 98 (41590) Note Off ch=7 par1=81 par2=64
Channel Event. t= 10 (41600) Note On ch=7 par1=82 par2=88
Channel Event. t= 240 (41840) Note Off ch=7 par1=82 par2=64
Channel Event. t= 0 (41840) Note On ch=7 par1=84 par2=88
Channel Event. t= 210 (42050) Note Off ch=7 par1=84 par2=64
Channel Event. t= 30 (42080) Note On ch=7 par1=86 par2=86
Channel Event. t= 347 (42427) Note Off ch=7 par1=86 par2=64
Channel Event. t= 13 (42440) Note On ch=7 par1=87 par2=90
Channel Event. t= 120 (42560) Note On ch=7 par1=82 par2=87
Channel Event. t= 15 (42575) Note Off ch=7 par1=87 par2=64
Channel Event. t= 207 (42782) Note Off ch=7 par1=82 par2=64
Channel Event. t= 18 (42800) Note On ch=7 par1=79 par2=84
Channel Event. t= 240 (43040) Note On ch=7 par1=75 par2=96
Channel Event. t= 42 (43082) Note Off ch=7 par1=79 par2=64
Channel Event. t= 198 (43280) Note On ch=7 par1=77 par2=86
Channel Event. t= 22 (43302) Note Off ch=7 par1=75 par2=64
Channel Event. t= 188 (43490) Note Off ch=7 par1=70 par2=64
Channel Event. t= 30 (43520) Note On ch=7 par1=74 par2=92
Channel Event. t= 0 (43520) Note On ch=7 par1=78 par2=80
Channel Event. t= 10 (43530) Note Off ch=7 par1=77 par2=64
Channel Event. t= 127 (43657) Note Off ch=7 par1=78 par2=64
Channel Event. t= 223 (43880) Note Off ch=7 par1=74 par2=64
Channel Event. t= 120 (44000) Note On ch=7 par1=74 par2=91
Channel Event. t= 0 (44000) Note On ch=7 par1=78 par2=90
Channel Event. t= 240 (44240) Note On ch=7 par1=83 par2=83
Channel Event. t= 0 (44240) Note On ch=7 par1=86 par2=84
Channel Event. t= 25 (44265) Note Off ch=7 par1=74 par2=64
Channel Event. t= 10 (44275) Note Off ch=7 par1=78 par2=64
Channel Event. t= 205 (44480) Note On ch=7 par1=74 par2=89
Channel Event. t= 0 (44480) Note On ch=7 par1=78 par2=89
Channel Event. t= 47 (44527) Note Off ch=7 par1=83 par2=64
Channel Event. t= 30 (44557) Note Off ch=7 par1=86 par2=64
Channel Event. t= 323 (44880) Note Off ch=7 par1=74 par2=64
Channel Event. t= 15 (44895) Note Off ch=7 par1=78 par2=64
Channel Event. t= 65 (44960) Note On ch=7 par1=74 par2=89
Channel Event. t= 0 (44960) Note On ch=7 par1=78 par2=84
Channel Event. t= 240 (45200) Note Off ch=7 par1=78 par2=64
Channel Event. t= 0 (45200) Note On ch=7 par1=83 par2=80
Channel Event. t= 0 (45200) Note On ch=7 par1=86 par2=88
Channel Event. t= 42 (45242) Note Off ch=7 par1=74 par2=64
Channel Event. t= 130 (45372) Note Off ch=7 par1=86 par2=64
Channel Event. t= 68 (45440) Note On ch=7 par1=71 par2=90
Channel Event. t= 0 (45440) Note On ch=7 par1=79 par2=57
Channel Event. t= 17 (45457) Note Off ch=7 par1=83 par2=64
Channel Event. t= 223 (45680) Note On ch=7 par1=91 par2=88
Channel Event. t= 62 (45742) Note Off ch=7 par1=91 par2=64
Channel Event. t= 28 (45770) Note Off ch=7 par1=79 par2=64
Channel Event. t= 35 (45805) Note Off ch=7 par1=71 par2=64
Channel Event. t= 355 (46160) Note On ch=7 par1=79 par2=85
Channel Event. t= 72 (46232) Note Off ch=7 par1=79 par2=64
Channel Event. t= 408 (46640) Note On ch=7 par1=67 par2=99
Channel Event. t= 97 (46737) Note Off ch=7 par1=67 par2=64
Channel Event. t= 383 (47120) Note On ch=7 par1=55 par2=93
Channel Event. t= 92 (47212) Note Off ch=7 par1=55 par2=64
Channel Event. t= 14045 (61257) Note On ch=7 par1=67 par2=84
Channel Event. t= 115 (61372) Note On ch=7 par1=70 par2=81
Channel Event. t= 15 (61387) Note Off ch=7 par1=67 par2=64
Channel Event. t= 100 (61487) Note On ch=7 par1=71 par2=73
Channel Event. t= 10 (61497) Note Off ch=7 par1=70 par2=64
Channel Event. t= 98 (61595) Note On ch=7 par1=72 par2=72
Channel Event. t= 10 (61605) Note Off ch=7 par1=71 par2=64
Channel Event. t= 122 (61727) Note On ch=7 par1=74 par2=93
Channel Event. t= 18 (61745) Note Off ch=7 par1=72 par2=64
Channel Event. t= 187 (61932) Note Off ch=7 par1=74 par2=64
Channel Event. t= 300 (62232) Note On ch=7 par1=73 par2=91
Channel Event. t= 113 (62345) Note On ch=7 par1=74 par2=82
Channel Event. t= 35 (62380) Note Off ch=7 par1=73 par2=64
Channel Event. t= 82 (62462) Note On ch=7 par1=78 par2=88
Channel Event. t= 25 (62487) Note Off ch=7 par1=74 par2=64
Channel Event. t= 75 (62562) Note On ch=7 par1=81 par2=74
Channel Event. t= 18 (62580) Note Off ch=7 par1=78 par2=64
Channel Event. t= 127 (62707) Note On ch=7 par1=79 par2=90
Channel Event. t= 10 (62717) Note Off ch=7 par1=81 par2=64
Channel Event. t= 195 (62912) Note Off ch=7 par1=79 par2=64
Channel Event. t= 753 (63665) Note On ch=7 par1=79 par2=82
Channel Event. t= 5 (63670) Note On ch=7 par1=67 par2=75
Channel Event. t= 190 (63860) Note Off ch=7 par1=79 par2=64
Channel Event. t= 2 (63862) Note Off ch=7 par1=67 par2=64
Channel Event. t= 795 (64657) Note On ch=7 par1=69 par2=47
Channel Event. t= 105 (64762) Note On ch=7 par1=62 par2=58
Channel Event. t= 188 (64950) Note On ch=7 par1=66 par2=58
Channel Event. t= 647 (65597) Note On ch=7 par1=71 par2=63
Channel Event. t= 20 (65617) Note On ch=7 par1=65 par2=69
Channel Event. t= 40 (65657) Note Off ch=7 par1=69 par2=64
Channel Event. t= 20 (65677) Note Off ch=7 par1=62 par2=64
Channel Event. t= 28 (65705) Note Off ch=7 par1=66 par2=64
Channel Event. t= 850 (66555) Note On ch=7 par1=72 par2=65
Channel Event. t= 7 (66562) Note On ch=7 par1=64 par2=61
Channel Event. t= 33 (66595) Note Off ch=7 par1=71 par2=64
Channel Event. t= 12 (66607) Note Off ch=7 par1=65 par2=64
Channel Event. t= 958 (67565) Note Off ch=7 par1=64 par2=64
Channel Event. t= 160 (67725) Note On ch=7 par1=81 par2=80
Channel Event. t= 22 (67747) Note Off ch=7 par1=72 par2=64
Channel Event. t= 220 (67967) Note On ch=7 par1=79 par2=78
Channel Event. t= 18 (67985) Note Off ch=7 par1=81 par2=64
Channel Event. t= 212 (68197) Note On ch=7 par1=72 par2=88
Channel Event. t= 8 (68205) Note Off ch=7 par1=79 par2=64
Channel Event. t= 250 (68455) Note On ch=7 par1=74 par2=86
Channel Event. t= 10 (68465) Note On ch=7 par1=71 par2=60
Channel Event. t= 5 (68470) Note On ch=7 par1=65 par2=54
Channel Event. t= 62 (68532) Note Off ch=7 par1=72 par2=64
Channel Event. t= 900 (69432) Note On ch=7 par1=70 par2=69
Channel Event. t= 38 (69470) Note Off ch=7 par1=71 par2=64
Channel Event. t= 0 (69470) Note Off ch=7 par1=65 par2=64
Channel Event. t= 427 (69897) Note On ch=7 par1=76 par2=82
Channel Event. t= 45 (69942) Note Off ch=7 par1=74 par2=64
Channel Event. t= 433 (70375) Note Off ch=7 par1=70 par2=64
Channel Event. t= 10 (70385) Note On ch=7 par1=77 par2=47
Channel Event. t= 7 (70392) Note On ch=7 par1=69 par2=48
Channel Event. t= 3 (70395) Note On ch=7 par1=65 par2=27
Channel Event. t= 47 (70442) Note Off ch=7 par1=76 par2=64
Channel Event. t= 3475 (73917) Note Off ch=7 par1=77 par2=64
Channel Event. t= 25 (73942) Note Off ch=7 par1=65 par2=64
Channel Event. t= 5 (73947) Note Off ch=7 par1=69 par2=64
Channel Event. t= 288 (74235) Note On ch=7 par1=60 par2=94
Channel Event. t= 475 (74710) Note On ch=7 par1=65 par2=88
Channel Event. t= 50 (74760) Note Off ch=7 par1=60 par2=64
Channel Event. t= 302 (75062) Note On ch=7 par1=69 par2=83
Channel Event. t= 20 (75082) Note Off ch=7 par1=65 par2=64
Channel Event. t= 95 (75177) Note On ch=7 par1=72 par2=88
Channel Event. t= 13 (75190) Note Off ch=7 par1=69 par2=64
Channel Event. t= 65 (75255) Note Off ch=7 par1=72 par2=64
Channel Event. t= 155 (75410) Note On ch=7 par1=74 par2=90
Channel Event. t= 77 (75487) Note Off ch=7 par1=74 par2=64
Channel Event. t= 170 (75657) Note On ch=7 par1=72 par2=92
Channel Event. t= 353 (76010) Note On ch=7 par1=69 par2=78
Channel Event. t= 25 (76035) Note Off ch=7 par1=72 par2=64
Channel Event. t= 97 (76132) Note On ch=7 par1=72 par2=90
Channel Event. t= 35 (76167) Note Off ch=7 par1=69 par2=64
Channel Event. t= 45 (76212) Note Off ch=7 par1=72 par2=64
Channel Event. t= 165 (76377) Note On ch=7 par1=74 par2=94
Channel Event. t= 60 (76437) Note Off ch=7 par1=74 par2=64
Channel Event. t= 185 (76622) Note On ch=7 par1=76 par2=92
Channel Event. t= 358 (76980) Note On ch=7 par1=77 par2=84
Channel Event. t= 20 (77000) Note Off ch=7 par1=76 par2=64
Channel Event. t= 120 (77120) Note On ch=7 par1=72 par2=38
Channel Event. t= 17 (77137) Note On ch=7 par1=74 par2=45
Channel Event. t= 18 (77155) Note Off ch=7 par1=77 par2=64
Channel Event. t= 25 (77180) Note Off ch=7 par1=74 par2=64
Channel Event. t= 75 (77255) Note Off ch=7 par1=72 par2=64
Channel Event. t= 85 (77340) Note On ch=7 par1=69 par2=69
Channel Event. t= 80 (77420) Note Off ch=7 par1=69 par2=64
Channel Event. t= 160 (77580) Note On ch=7 par1=65 par2=90
Channel Event. t= 240 (77820) Note On ch=7 par1=67 par2=91
Channel Event. t= 37 (77857) Note Off ch=7 par1=65 par2=64
Channel Event. t= 83 (77940) Note Off ch=7 par1=67 par2=64
Channel Event. t= 112 (78052) Note On ch=7 par1=65 par2=65
Channel Event. t= 10 (78062) Note On ch=7 par1=68 par2=65
Channel Event. t= 525 (78587) Note Off ch=7 par1=68 par2=64
Channel Event. t= 8 (78595) Note Off ch=7 par1=65 par2=64
Channel Event. t= 437 (79032) Note On ch=7 par1=68 par2=55
Channel Event. t= 5 (79037) Note On ch=7 par1=65 par2=49
Channel Event. t= 463 (79500) Note Off ch=7 par1=68 par2=64
Channel Event. t= 10 (79510) Note Off ch=7 par1=65 par2=64
Channel Event. t= 2410 (81920) Note On ch=7 par1=65 par2=74
Channel Event. t= 7 (81927) Note On ch=7 par1=68 par2=92
Channel Event. t= 405 (82332) Note Off ch=7 par1=65 par2=64
Channel Event. t= 15 (82347) Note Off ch=7 par1=68 par2=64
Channel Event. t= 30 (82377) Note On ch=7 par1=65 par2=79
Channel Event. t= 5 (82382) Note On ch=7 par1=68 par2=90
Channel Event. t= 215 (82597) Note On ch=7 par1=72 par2=74
Channel Event. t= 20 (82617) Note On ch=7 par1=76 par2=85
Channel Event. t= 3 (82620) Note Off ch=7 par1=68 par2=64
Channel Event. t= 0 (82620) Note Off ch=7 par1=65 par2=64
Channel Event. t= 235 (82855) Note On ch=7 par1=65 par2=81
Channel Event. t= 12 (82867) Note On ch=7 par1=68 par2=90
Channel Event. t= 15 (82882) Note Off ch=7 par1=76 par2=64
Channel Event. t= 8 (82890) Note Off ch=7 par1=72 par2=64
Channel Event. t= 347 (83237) Note Off ch=7 par1=65 par2=64
Channel Event. t= 20 (83257) Note Off ch=7 par1=68 par2=64
Channel Event. t= 58 (83315) Note On ch=7 par1=68 par2=80
Channel Event. t= 7 (83322) Note On ch=7 par1=65 par2=84
Channel Event. t= 235 (83557) Note On ch=7 par1=76 par2=73
Channel Event. t= 3 (83560) Note On ch=7 par1=72 par2=72
Channel Event. t= 2 (83562) Note Off ch=7 par1=68 par2=64
Channel Event. t= 23 (83585) Note Off ch=7 par1=65 par2=64
Channel Event. t= 217 (83802) Note On ch=7 par1=68 par2=89
Channel Event. t= 10 (83812) Note Off ch=7 par1=76 par2=64
Channel Event. t= 3 (83815) Note On ch=7 par1=65 par2=80
Channel Event. t= 17 (83832) Note Off ch=7 par1=72 par2=64
Channel Event. t= 380 (84212) Note Off ch=7 par1=68 par2=64
Channel Event. t= 90 (84302) Note On ch=7 par1=63 par2=78
Channel Event. t= 3 (84305) Note On ch=7 par1=60 par2=62
Channel Event. t= 15 (84320) Note Off ch=7 par1=65 par2=64
Channel Event. t= 367 (84687) Note Off ch=7 par1=63 par2=64
Channel Event. t= 0 (84687) Note On ch=7 par1=63 par2=68
Channel Event. t= 40 (84727) Note On ch=7 par1=68 par2=83
Channel Event. t= 18 (84745) Note Off ch=7 par1=63 par2=64
Channel Event. t= 12 (84757) Note Off ch=7 par1=60 par2=64
Channel Event. t= 38 (84795) Note On ch=7 par1=72 par2=84
Channel Event. t= 20 (84815) Note Off ch=7 par1=68 par2=64
Channel Event. t= 175 (84990) Note Off ch=7 par1=72 par2=64
Channel Event. t= 215 (85205) Note On ch=7 par1=75 par2=67
Channel Event. t= 27 (85232) Note On ch=7 par1=80 par2=84
Channel Event. t= 40 (85272) Note Off ch=7 par1=75 par2=64
Channel Event. t= 15 (85287) Note On ch=7 par1=84 par2=82
Channel Event. t= 30 (85317) Note Off ch=7 par1=80 par2=64
Channel Event. t= 63 (85380) Note Off ch=7 par1=84 par2=64
Channel Event. t= 380 (85760) Note On ch=7 par1=63 par2=81
Channel Event. t= 15 (85775) Note Off ch=7 par1=63 par2=64
Channel Event. t= 0 (85775) Note On ch=7 par1=63 par2=54
Channel Event. t= 450 (86225) Note On ch=7 par1=68 par2=95
Channel Event. t= 37 (86262) Note Off ch=7 par1=63 par2=64
Channel Event. t= 313 (86575) Note On ch=7 par1=72 par2=80
Channel Event. t= 15 (86590) Note Off ch=7 par1=68 par2=64
Channel Event. t= 102 (86692) Note On ch=7 par1=75 par2=97
Channel Event. t= 18 (86710) Note Off ch=7 par1=72 par2=64
Channel Event. t= 55 (86765) Note Off ch=7 par1=75 par2=64
Channel Event. t= 145 (86910) Note On ch=7 par1=77 par2=86
Channel Event. t= 62 (86972) Note Off ch=7 par1=77 par2=64
Channel Event. t= 188 (87160) Note On ch=7 par1=75 par2=96
Channel Event. t= 387 (87547) Note On ch=7 par1=72 par2=87
Channel Event. t= 5 (87552) Note Off ch=7 par1=75 par2=64
Channel Event. t= 103 (87655) Note On ch=7 par1=75 par2=92
Channel Event. t= 40 (87695) Note Off ch=7 par1=72 par2=64
Channel Event. t= 50 (87745) Note Off ch=7 par1=75 par2=64
Channel Event. t= 147 (87892) Note On ch=7 par1=77 par2=87
Channel Event. t= 70 (87962) Note Off ch=7 par1=77 par2=64
Channel Event. t= 168 (88130) Note On ch=7 par1=79 par2=89
Channel Event. t= 340 (88470) Note On ch=7 par1=80 par2=78
Channel Event. t= 37 (88507) Note Off ch=7 par1=79 par2=64
Channel Event. t= 95 (88602) Note On ch=7 par1=75 par2=96
Channel Event. t= 43 (88645) Note Off ch=7 par1=80 par2=64
Channel Event. t= 192 (88837) Note On ch=7 par1=72 par2=82
Channel Event. t= 3 (88840) Note Off ch=7 par1=75 par2=64
Channel Event. t= 165 (89005) Note Off ch=7 par1=72 par2=64
Channel Event. t= 87 (89092) Note On ch=7 par1=68 par2=77
Channel Event. t= 78 (89170) Note Off ch=7 par1=68 par2=64
Channel Event. t= 180 (89350) Note On ch=7 par1=70 par2=89
Channel Event. t= 92 (89442) Note Off ch=7 par1=70 par2=64
Channel Event. t= 163 (89605) Note On ch=7 par1=67 par2=61
Channel Event. t= 2 (89607) Note On ch=7 par1=71 par2=65
Channel Event. t= 400 (90007) Note Off ch=7 par1=71 par2=64
Channel Event. t= 0 (90007) Note Off ch=7 par1=67 par2=64
Channel Event. t= 1510 (91517) Note On ch=7 par1=67 par2=77
Channel Event. t= 5 (91522) Note On ch=7 par1=71 par2=95
Channel Event. t= 405 (91927) Note Off ch=7 par1=71 par2=64
Channel Event. t= 23 (91950) Note Off ch=7 par1=67 par2=64
Channel Event. t= 15 (91965) Note On ch=7 par1=71 par2=89
Channel Event. t= 27 (91992) Note On ch=7 par1=67 par2=71
Channel Event. t= 215 (92207) Note On ch=7 par1=79 par2=84
Channel Event. t= 13 (92220) Note On ch=7 par1=76 par2=70
Channel Event. t= 5 (92225) Note Off ch=7 par1=71 par2=64
Channel Event. t= 20 (92245) Note Off ch=7 par1=67 par2=64
Channel Event. t= 210 (92455) Note On ch=7 par1=71 par2=88
Channel Event. t= 10 (92465) Note On ch=7 par1=65 par2=77
Channel Event. t= 17 (92482) Note Off ch=7 par1=79 par2=64
Channel Event. t= 3 (92485) Note Off ch=7 par1=76 par2=64
Channel Event. t= 380 (92865) Note Off ch=7 par1=71 par2=64
Channel Event. t= 27 (92892) Note Off ch=7 par1=65 par2=64
Channel Event. t= 23 (92915) Note On ch=7 par1=71 par2=74
Channel Event. t= 25 (92940) Note On ch=7 par1=65 par2=67
Channel Event. t= 227 (93167) Note On ch=7 par1=79 par2=77
Channel Event. t= 20 (93187) Note Off ch=7 par1=71 par2=64
Channel Event. t= 3 (93190) Note On ch=7 par1=76 par2=71
Channel Event. t= 7 (93197) Note Off ch=7 par1=65 par2=64
Channel Event. t= 228 (93425) Note On ch=7 par1=72 par2=87
Channel Event. t= 15 (93440) Note On ch=7 par1=64 par2=69
Channel Event. t= 2 (93442) Note Off ch=7 par1=76 par2=64
Channel Event. t= 15 (93457) Note Off ch=7 par1=79 par2=64
Channel Event. t= 438 (93895) Note On ch=7 par1=60 par2=79
Channel Event. t= 37 (93932) Note Off ch=7 par1=64 par2=64
Channel Event. t= 40 (93972) Note Off ch=7 par1=72 par2=64
Channel Event. t= 338 (94310) Note Off ch=7 par1=60 par2=64
Channel Event. t= 72 (94382) Note On ch=7 par1=60 par2=88
Channel Event. t= 868 (95250) Note Off ch=7 par1=60 par2=64
Channel Event. t= 107 (95357) Note On ch=7 par1=70 par2=91
Channel Event. t= 0 (95357) Note On ch=7 par1=66 par2=87
Channel Event. t= 430 (95787) Note Off ch=7 par1=70 par2=64
Channel Event. t= 3 (95790) Note Off ch=7 par1=66 par2=64
Channel Event. t= 35 (95825) Note On ch=7 par1=70 par2=90
Channel Event. t= 10 (95835) Note On ch=7 par1=66 par2=82
Channel Event. t= 222 (96057) Note Off ch=7 par1=70 par2=64
Channel Event. t= 0 (96057) Note On ch=7 par1=78 par2=80
Channel Event. t= 5 (96062) Note On ch=7 par1=75 par2=85
Channel Event. t= 23 (96085) Note Off ch=7 par1=66 par2=64
Channel Event. t= 215 (96300) Note On ch=7 par1=70 par2=86
Channel Event. t= 2 (96302) Note On ch=7 par1=64 par2=85
Channel Event. t= 3 (96305) Note Off ch=7 par1=75 par2=64
Channel Event. t= 17 (96322) Note Off ch=7 par1=78 par2=64
Channel Event. t= 393 (96715) Note Off ch=7 par1=70 par2=64
Channel Event. t= 15 (96730) Note Off ch=7 par1=64 par2=64
Channel Event. t= 37 (96767) Note On ch=7 par1=70 par2=80
Channel Event. t= 5 (96772) Note On ch=7 par1=64 par2=89
Channel Event. t= 225 (96997) Note On ch=7 par1=75 par2=83
Channel Event. t= 20 (97017) Note On ch=7 par1=78 par2=84
Channel Event. t= 18 (97035) Note Off ch=7 par1=64 par2=64
Channel Event. t= 0 (97035) Note Off ch=7 par1=70 par2=64
Channel Event. t= 207 (97242) Note On ch=7 par1=63 par2=71
Channel Event. t= 20 (97262) Note On ch=7 par1=71 par2=84
Channel Event. t= 3 (97265) Note Off ch=7 par1=75 par2=64
Channel Event. t= 12 (97277) Note Off ch=7 par1=78 par2=64
Channel Event. t= 463 (97740) Note On ch=7 par1=59 par2=87
Channel Event. t= 7 (97747) Note Off ch=7 par1=63 par2=64
Channel Event. t= 30 (97777) Note Off ch=7 par1=71 par2=64
Channel Event. t= 375 (98152) Note Off ch=7 par1=59 par2=64
Channel Event. t= 68 (98220) Note On ch=7 par1=59 par2=80
Channel Event. t= 952 (99172) Note On ch=7 par1=69 par2=75
Channel Event. t= 30 (99202) Note On ch=7 par1=65 par2=85
Channel Event. t= 18 (99220) Note Off ch=7 par1=59 par2=64
Channel Event. t= 375 (99595) Note Off ch=7 par1=65 par2=64
Channel Event. t= 10 (99605) Note Off ch=7 par1=69 par2=64
Channel Event. t= 47 (99652) Note On ch=7 par1=65 par2=80
Channel Event. t= 3 (99655) Note On ch=7 par1=69 par2=75
Channel Event. t= 237 (99892) Note On ch=7 par1=77 par2=68
Channel Event. t= 8 (99900) Note On ch=7 par1=74 par2=72
Channel Event. t= 7 (99907) Note Off ch=7 par1=69 par2=64
Channel Event. t= 5 (99912) Note Off ch=7 par1=65 par2=64
Channel Event. t= 235 (100147) Note On ch=7 par1=69 par2=74
Channel Event. t= 5 (100152) Note Off ch=7 par1=77 par2=64
Channel Event. t= 8 (100160) Note On ch=7 par1=65 par2=79
Channel Event. t= 32 (100192) Note Off ch=7 par1=74 par2=64
Channel Event. t= 350 (100542) Note Off ch=7 par1=69 par2=64
Channel Event. t= 18 (100560) Note Off ch=7 par1=65 par2=64
Channel Event. t= 35 (100595) Note On ch=7 par1=69 par2=72
Channel Event. t= 15 (100610) Note On ch=7 par1=65 par2=69
Channel Event. t= 232 (100842) Note On ch=7 par1=77 par2=66
Channel Event. t= 8 (100850) Note On ch=7 par1=75 par2=77
Channel Event. t= 2 (100852) Note Off ch=7 par1=69 par2=64
Channel Event. t= 15 (100867) Note Off ch=7 par1=65 par2=64
Channel Event. t= 223 (101090) Note On ch=7 par1=70 par2=81
Channel Event. t= 7 (101097) Note Off ch=7 par1=77 par2=64
Channel Event. t= 10 (101107) Note On ch=7 par1=62 par2=84
Channel Event. t= 23 (101130) Note Off ch=7 par1=75 par2=64
Channel Event. t= 455 (101585) Note On ch=7 par1=58 par2=80
Channel Event. t= 32 (101617) Note Off ch=7 par1=62 par2=64
Channel Event. t= 30 (101647) Note Off ch=7 par1=70 par2=64
Channel Event. t= 340 (101987) Note Off ch=7 par1=58 par2=64
Channel Event. t= 60 (102047) Note On ch=7 par1=58 par2=71
Channel Event. t= 993 (103040) Note Off ch=7 par1=58 par2=64
Channel Event. t= 2 (103042) Note On ch=7 par1=58 par2=74
Channel Event. t= 208 (103250) Note On ch=7 par1=57 par2=64
Channel Event. t= 15 (103265) Note Off ch=7 par1=58 par2=64
Channel Event. t= 227 (103492) Note On ch=7 par1=55 par2=71
Channel Event. t= 23 (103515) Note Off ch=7 par1=57 par2=64
Channel Event. t= 220 (103735) Note On ch=7 par1=57 par2=66
Channel Event. t= 50 (103785) Note Off ch=7 par1=55 par2=64
Channel Event. t= 187 (103972) Note On ch=7 par1=58 par2=80
Channel Event. t= 53 (104025) Note Off ch=7 par1=57 par2=64
Channel Event. t= 362 (104387) Note Off ch=7 par1=58 par2=64
Channel Event. t= 50 (104437) Note On ch=7 par1=58 par2=70
Channel Event. t= 473 (104910) Note On ch=7 par1=53 par2=76
Channel Event. t= 10 (104920) Note Off ch=7 par1=58 par2=64
Channel Event. t= 462 (105382) Note On ch=7 par1=57 par2=64
Channel Event. t= 35 (105417) Note Off ch=7 par1=53 par2=64
Channel Event. t= 458 (105875) Note Off ch=7 par1=57 par2=64
Channel Event. t= 17 (105892) Note On ch=7 par1=58 par2=71
Channel Event. t= 205 (106097) Note On ch=7 par1=57 par2=61
Channel Event. t= 20 (106117) Note Off ch=7 par1=58 par2=64
Channel Event. t= 215 (106332) Note On ch=7 par1=55 par2=68
Channel Event. t= 25 (106357) Note Off ch=7 par1=57 par2=64
Channel Event. t= 210 (106567) Note On ch=7 par1=57 par2=66
Channel Event. t= 23 (106590) Note Off ch=7 par1=55 par2=64
Channel Event. t= 230 (106820) Note On ch=7 par1=58 par2=71
Channel Event. t= 27 (106847) Note Off ch=7 par1=57 par2=64
Channel Event. t= 430 (107277) Note Off ch=7 par1=58 par2=64
Channel Event. t= 48 (107325) Note On ch=7 par1=58 par2=79
Channel Event. t= 472 (107797) Note On ch=7 par1=53 par2=73
Channel Event. t= 30 (107827) Note Off ch=7 par1=58 par2=64
Channel Event. t= 465 (108292) Note On ch=7 par1=57 par2=69
Channel Event. t= 35 (108327) Note Off ch=7 par1=53 par2=64
Channel Event. t= 395 (108722) Note Off ch=7 par1=57 par2=64
Channel Event. t= 53 (108775) Note On ch=7 par1=58 par2=90
Channel Event. t= 212 (108987) Note On ch=7 par1=57 par2=73
Channel Event. t= 25 (109012) Note Off ch=7 par1=58 par2=64
Channel Event. t= 230 (109242) Note On ch=7 par1=55 par2=69
Channel Event. t= 20 (109262) Note Off ch=7 par1=57 par2=64
Channel Event. t= 215 (109477) Note On ch=7 par1=57 par2=63
Channel Event. t= 20 (109497) Note Off ch=7 par1=55 par2=64
Channel Event. t= 225 (109722) Note On ch=7 par1=58 par2=81
Channel Event. t= 20 (109742) Note Off ch=7 par1=57 par2=64
Channel Event. t= 365 (110107) Note Off ch=7 par1=58 par2=64
Channel Event. t= 100 (110207) Note On ch=7 par1=58 par2=82
Channel Event. t= 233 (110440) Note On ch=7 par1=57 par2=58
Channel Event. t= 35 (110475) Note Off ch=7 par1=58 par2=64
Channel Event. t= 205 (110680) Note On ch=7 par1=55 par2=65
Channel Event. t= 32 (110712) Note Off ch=7 par1=57 par2=64
Channel Event. t= 198 (110910) Note On ch=7 par1=57 par2=63
Channel Event. t= 27 (110937) Note Off ch=7 par1=55 par2=64
Channel Event. t= 205 (111142) Note On ch=7 par1=58 par2=73
Channel Event. t= 35 (111177) Note Off ch=7 par1=57 par2=64
Channel Event. t= 425 (111602) Note Off ch=7 par1=58 par2=64
Channel Event. t= 48 (111650) Note On ch=7 par1=58 par2=75
Channel Event. t= 237 (111887) Note On ch=7 par1=57 par2=68
Channel Event. t= 33 (111920) Note Off ch=7 par1=58 par2=64
Channel Event. t= 212 (112132) Note On ch=7 par1=55 par2=70
Channel Event. t= 15 (112147) Note Off ch=7 par1=57 par2=64
Channel Event. t= 213 (112360) Note On ch=7 par1=57 par2=66
Channel Event. t= 27 (112387) Note Off ch=7 par1=55 par2=64
Channel Event. t= 220 (112607) Note On ch=7 par1=58 par2=67
Channel Event. t= 35 (112642) Note Off ch=7 par1=57 par2=64
Channel Event. t= 393 (113035) Note Off ch=7 par1=58 par2=64
Channel Event. t= 60 (113095) Note On ch=7 par1=57 par2=69
Channel Event. t= 220 (113315) Note On ch=7 par1=55 par2=55
Channel Event. t= 32 (113347) Note Off ch=7 par1=57 par2=64
Channel Event. t= 205 (113552) Note On ch=7 par1=53 par2=66
Channel Event. t= 28 (113580) Note Off ch=7 par1=55 par2=64
Channel Event. t= 220 (113800) Note On ch=7 par1=55 par2=58
Channel Event. t= 40 (113840) Note Off ch=7 par1=53 par2=64
Channel Event. t= 205 (114045) Note On ch=7 par1=57 par2=59
Channel Event. t= 27 (114072) Note Off ch=7 par1=55 par2=64
Channel Event. t= 395 (114467) Note Off ch=7 par1=57 par2=64
Channel Event. t= 48 (114515) Note On ch=7 par1=69 par2=46
Channel Event. t= 7 (114522) Note On ch=7 par1=72 par2=46
Channel Event. t= 233 (114755) Note On ch=7 par1=67 par2=55
Channel Event. t= 10 (114765) Note On ch=7 par1=70 par2=49
Channel Event. t= 30 (114795) Note Off ch=7 par1=69 par2=64
Channel Event. t= 22 (114817) Note Off ch=7 par1=72 par2=64
Channel Event. t= 178 (114995) Note On ch=7 par1=69 par2=43
Channel Event. t= 15 (115010) Note On ch=7 par1=65 par2=51
Channel Event. t= 25 (115035) Note Off ch=7 par1=67 par2=64
Channel Event. t= 5 (115040) Note Off ch=7 par1=70 par2=64
Channel Event. t= 197 (115237) Note On ch=7 par1=70 par2=53
Channel Event. t= 10 (115247) Note On ch=7 par1=67 par2=44
Channel Event. t= 23 (115270) Note Off ch=7 par1=65 par2=64
Channel Event. t= 30 (115300) Note Off ch=7 par1=69 par2=64
Channel Event. t= 190 (115490) Note On ch=7 par1=72 par2=28
Channel Event. t= 5 (115495) Note On ch=7 par1=69 par2=29
Channel Event. t= 35 (115530) Note Off ch=7 par1=70 par2=64
Channel Event. t= 22 (115552) Note Off ch=7 par1=67 par2=64
Channel Event. t= 373 (115925) Note Off ch=7 par1=72 par2=64
Channel Event. t= 5 (115930) Note Off ch=7 par1=69 par2=64
Channel Event. t= 52 (115982) Note On ch=7 par1=58 par2=74
Channel Event. t= 230 (116212) Note On ch=7 par1=57 par2=65
Channel Event. t= 35 (116247) Note Off ch=7 par1=58 par2=64
Channel Event. t= 200 (116447) Note On ch=7 par1=55 par2=72
Channel Event. t= 40 (116487) Note Off ch=7 par1=57 par2=64
Channel Event. t= 198 (116685) Note On ch=7 par1=57 par2=77
Channel Event. t= 32 (116717) Note Off ch=7 par1=55 par2=64
Channel Event. t= 208 (116925) Note On ch=7 par1=58 par2=74
Channel Event. t= 32 (116957) Note Off ch=7 par1=57 par2=64
Channel Event. t= 383 (117340) Note Off ch=7 par1=58 par2=64
Channel Event. t= 70 (117410) Note On ch=7 par1=58 par2=71
Channel Event. t= 462 (117872) Note On ch=7 par1=53 par2=67
Channel Event. t= 18 (117890) Note Off ch=7 par1=58 par2=64
Channel Event. t= 485 (118375) Note On ch=7 par1=57 par2=66
Channel Event. t= 27 (118402) Note Off ch=7 par1=53 par2=64
Channel Event. t= 385 (118787) Note Off ch=7 par1=57 par2=64
Channel Event. t= 43 (118830) Note On ch=7 par1=58 par2=75
Channel Event. t= 245 (119075) Note On ch=7 par1=57 par2=66
Channel Event. t= 25 (119100) Note Off ch=7 par1=58 par2=64
Channel Event. t= 220 (119320) Note On ch=7 par1=55 par2=70
Channel Event. t= 35 (119355) Note Off ch=7 par1=57 par2=64
Channel Event. t= 197 (119552) Note On ch=7 par1=57 par2=60
Channel Event. t= 30 (119582) Note Off ch=7 par1=55 par2=64
Channel Event. t= 225 (119807) Note On ch=7 par1=58 par2=70
Channel Event. t= 35 (119842) Note Off ch=7 par1=57 par2=64
Channel Event. t= 368 (120210) Note Off ch=7 par1=58 par2=64
Channel Event. t= 60 (120270) Note On ch=7 par1=58 par2=75
Channel Event. t= 482 (120752) Note On ch=7 par1=53 par2=66
Channel Event. t= 25 (120777) Note Off ch=7 par1=58 par2=64
Channel Event. t= 475 (121252) Note On ch=7 par1=57 par2=67
Channel Event. t= 30 (121282) Note Off ch=7 par1=53 par2=64
Channel Event. t= 423 (121705) Note Off ch=7 par1=57 par2=64
Channel Event. t= 47 (121752) Note On ch=7 par1=58 par2=80
Channel Event. t= 228 (121980) Note On ch=7 par1=57 par2=69
Channel Event. t= 30 (122010) Note Off ch=7 par1=58 par2=64
Channel Event. t= 217 (122227) Note On ch=7 par1=55 par2=63
Channel Event. t= 18 (122245) Note Off ch=7 par1=57 par2=64
Channel Event. t= 197 (122442) Note On ch=7 par1=57 par2=56
Channel Event. t= 28 (122470) Note Off ch=7 par1=55 par2=64
Channel Event. t= 237 (122707) Note On ch=7 par1=58 par2=55
Channel Event. t= 40 (122747) Note Off ch=7 par1=57 par2=64
Channel Event. t= 380 (123127) Note Off ch=7 par1=58 par2=64
Channel Event. t= 63 (123190) Note On ch=7 par1=58 par2=68
Channel Event. t= 225 (123415) Note On ch=7 par1=57 par2=57
Channel Event. t= 22 (123437) Note Off ch=7 par1=58 par2=64
Channel Event. t= 228 (123665) Note On ch=7 par1=55 par2=55
Channel Event. t= 22 (123687) Note Off ch=7 par1=57 par2=64
Channel Event. t= 193 (123880) Note On ch=7 par1=57 par2=54
Channel Event. t= 17 (123897) Note Off ch=7 par1=55 par2=64
Channel Event. t= 238 (124135) Note On ch=7 par1=58 par2=66
Channel Event. t= 35 (124170) Note Off ch=7 par1=57 par2=64
Channel Event. t= 405 (124575) Note Off ch=7 par1=58 par2=64
Channel Event. t= 55 (124630) Note On ch=7 par1=58 par2=74
Channel Event. t= 232 (124862) Note On ch=7 par1=57 par2=64
Channel Event. t= 30 (124892) Note Off ch=7 par1=58 par2=64
Channel Event. t= 215 (125107) Note On ch=7 par1=55 par2=58
Channel Event. t= 28 (125135) Note Off ch=7 par1=57 par2=64
Channel Event. t= 200 (125335) Note On ch=7 par1=57 par2=66
Channel Event. t= 22 (125357) Note Off ch=7 par1=55 par2=64
Channel Event. t= 225 (125582) Note On ch=7 par1=58 par2=63
Channel Event. t= 43 (125625) Note Off ch=7 par1=57 par2=64
Channel Event. t= 370 (125995) Note Off ch=7 par1=58 par2=64
Channel Event. t= 52 (126047) Note On ch=7 par1=57 par2=70
Channel Event. t= 238 (126285) Note On ch=7 par1=55 par2=56
Channel Event. t= 32 (126317) Note Off ch=7 par1=57 par2=64
Channel Event. t= 215 (126532) Note On ch=7 par1=53 par2=66
Channel Event. t= 15 (126547) Note Off ch=7 par1=55 par2=64
Channel Event. t= 240 (126787) Note On ch=7 par1=55 par2=65
Channel Event. t= 38 (126825) Note Off ch=7 par1=53 par2=64
Channel Event. t= 195 (127020) Note On ch=7 par1=57 par2=61
Channel Event. t= 27 (127047) Note Off ch=7 par1=55 par2=64
Channel Event. t= 235 (127282) Note Off ch=7 par1=57 par2=64
Channel Event. t= 193 (127475) Note On ch=7 par1=69 par2=46
Channel Event. t= 2 (127477) Note On ch=7 par1=72 par2=53
Channel Event. t= 8 (127485) Note On ch=7 par1=81 par2=51
Channel Event. t= 217 (127702) Note On ch=7 par1=70 par2=56
Channel Event. t= 8 (127710) Note On ch=7 par1=67 par2=44
Channel Event. t= 22 (127732) Note Off ch=7 par1=69 par2=64
Channel Event. t= 3 (127735) Note On ch=7 par1=79 par2=67
Channel Event. t= 7 (127742) Note Off ch=7 par1=72 par2=64
Channel Event. t= 28 (127770) Note Off ch=7 par1=81 par2=64
Channel Event. t= 162 (127932) Note On ch=7 par1=69 par2=48
Channel Event. t= 28 (127960) Note On ch=7 par1=65 par2=44
Channel Event. t= 7 (127967) Note Off ch=7 par1=70 par2=64
Channel Event. t= 5 (127972) Note Off ch=7 par1=67 par2=64
Channel Event. t= 0 (127972) Note On ch=7 par1=77 par2=50
Channel Event. t= 40 (128012) Note Off ch=7 par1=79 par2=64
Channel Event. t= 155 (128167) Note On ch=7 par1=70 par2=53
Channel Event. t= 8 (128175) Note On ch=7 par1=67 par2=52
Channel Event. t= 10 (128185) Note Off ch=7 par1=67 par2=64
Channel Event. t= 0 (128185) Note On ch=7 par1=67 par2=39
Channel Event. t= 7 (128192) Note On ch=7 par1=79 par2=46
Channel Event. t= 8 (128200) Note Off ch=7 par1=65 par2=64
Channel Event. t= 25 (128225) Note Off ch=7 par1=69 par2=64
Channel Event. t= 10 (128235) Note Off ch=7 par1=77 par2=64
Channel Event. t= 197 (128432) Note Off ch=7 par1=79 par2=64
Channel Event. t= 0 (128432) Note On ch=7 par1=81 par2=33
Channel Event. t= 5 (128437) Note On ch=7 par1=69 par2=35
Channel Event. t= 3 (128440) Note On ch=7 par1=72 par2=41
Channel Event. t= 10 (128450) Note Off ch=7 par1=69 par2=64
Channel Event. t= 0 (128450) Note On ch=7 par1=69 par2=30
Channel Event. t= 7 (128457) Note Off ch=7 par1=70 par2=64
Channel Event. t= 28 (128485) Note Off ch=7 par1=67 par2=64
Channel Event. t= 342 (128827) Note Off ch=7 par1=81 par2=64
Channel Event. t= 80 (128907) Note On ch=7 par1=58 par2=58
Channel Event. t= 3 (128910) Note Off ch=7 par1=72 par2=64
Channel Event. t= 5 (128915) Note Off ch=7 par1=69 par2=64
Channel Event. t= 230 (129145) Note On ch=7 par1=57 par2=67
Channel Event. t= 27 (129172) Note Off ch=7 par1=58 par2=64
Channel Event. t= 225 (129397) Note On ch=7 par1=55 par2=51
Channel Event. t= 15 (129412) Note Off ch=7 par1=57 par2=64
Channel Event. t= 233 (129645) Note On ch=7 par1=57 par2=45
Channel Event. t= 22 (129667) Note Off ch=7 par1=55 par2=64
Channel Event. t= 223 (129890) Note On ch=7 par1=58 par2=61
Channel Event. t= 32 (129922) Note Off ch=7 par1=57 par2=64
Channel Event. t= 350 (130272) Note Off ch=7 par1=58 par2=64
Channel Event. t= 93 (130365) Note On ch=7 par1=57 par2=66
Channel Event. t= 217 (130582) Note On ch=7 par1=55 par2=55
Channel Event. t= 35 (130617) Note Off ch=7 par1=57 par2=64
Channel Event. t= 208 (130825) Note On ch=7 par1=53 par2=60
Channel Event. t= 22 (130847) Note Off ch=7 par1=55 par2=64
Channel Event. t= 220 (131067) Note On ch=7 par1=55 par2=58
Channel Event. t= 23 (131090) Note Off ch=7 par1=53 par2=64
Channel Event. t= 242 (131332) Note On ch=7 par1=57 par2=55
Channel Event. t= 33 (131365) Note Off ch=7 par1=55 par2=64
Channel Event. t= 352 (131717) Note Off ch=7 par1=57 par2=64
Channel Event. t= 90 (131807) Note On ch=7 par1=58 par2=63
Channel Event. t= 220 (132027) Note On ch=7 par1=57 par2=61
Channel Event. t= 25 (132052) Note Off ch=7 par1=58 par2=64
Channel Event. t= 220 (132272) Note On ch=7 par1=55 par2=57
Channel Event. t= 23 (132295) Note Off ch=7 par1=57 par2=64
Channel Event. t= 195 (132490) Note On ch=7 par1=57 par2=52
Channel Event. t= 27 (132517) Note Off ch=7 par1=55 par2=64
Channel Event. t= 235 (132752) Note On ch=7 par1=58 par2=67
Channel Event. t= 33 (132785) Note Off ch=7 par1=57 par2=64
Channel Event. t= 420 (133205) Note Off ch=7 par1=58 par2=64
Channel Event. t= 50 (133255) Note On ch=7 par1=58 par2=70
Channel Event. t= 485 (133740) Note On ch=7 par1=53 par2=66
Channel Event. t= 12 (133752) Note Off ch=7 par1=58 par2=64
Channel Event. t= 475 (134227) Note On ch=7 par1=57 par2=63
Channel Event. t= 35 (134262) Note Off ch=7 par1=53 par2=64
Channel Event. t= 398 (134660) Note Off ch=7 par1=57 par2=64
Channel Event. t= 62 (134722) Note On ch=7 par1=58 par2=65
Channel Event. t= 218 (134940) Note On ch=7 par1=57 par2=59
Channel Event. t= 32 (134972) Note Off ch=7 par1=58 par2=64
Channel Event. t= 208 (135180) Note On ch=7 par1=55 par2=65
Channel Event. t= 30 (135210) Note Off ch=7 par1=57 par2=64
Channel Event. t= 192 (135402) Note On ch=7 par1=57 par2=54
Channel Event. t= 28 (135430) Note Off ch=7 par1=55 par2=64
Channel Event. t= 235 (135665) Note On ch=7 par1=58 par2=61
Channel Event. t= 35 (135700) Note Off ch=7 par1=57 par2=64
Channel Event. t= 362 (136062) Note Off ch=7 par1=58 par2=64
Channel Event. t= 70 (136132) Note On ch=7 par1=57 par2=56
Channel Event. t= 243 (136375) Note On ch=7 par1=55 par2=38
Channel Event. t= 27 (136402) Note Off ch=7 par1=57 par2=64
Channel Event. t= 205 (136607) Note On ch=7 par1=53 par2=40
Channel Event. t= 20 (136627) Note Off ch=7 par1=55 par2=64
Channel Event. t= 215 (136842) Note On ch=7 par1=55 par2=28
Channel Event. t= 45 (136887) Note Off ch=7 par1=53 par2=64
Channel Event. t= 205 (137092) Note On ch=7 par1=57 par2=27
Channel Event. t= 28 (137120) Note Off ch=7 par1=55 par2=64
Channel Event. t= 320 (137440) Note Off ch=7 par1=57 par2=64
Channel Event. t= 155 (137595) Note On ch=7 par1=57 par2=41
Channel Event. t= 210 (137805) Note On ch=7 par1=55 par2=34
Channel Event. t= 30 (137835) Note Off ch=7 par1=57 par2=64
Channel Event. t= 197 (138032) Note On ch=7 par1=53 par2=39
Channel Event. t= 30 (138062) Note Off ch=7 par1=55 par2=64
Channel Event. t= 210 (138272) Note On ch=7 par1=55 par2=41
Channel Event. t= 40 (138312) Note Off ch=7 par1=53 par2=64
Channel Event. t= 210 (138522) Note On ch=7 par1=57 par2=33
Channel Event. t= 23 (138545) Note Off ch=7 par1=55 par2=64
Channel Event. t= 197 (138742) Note Off ch=7 par1=57 par2=64
Channel Event. t= 260 (139002) Note On ch=7 par1=69 par2=44
Channel Event. t= 8 (139010) Note On ch=7 par1=72 par2=38
Channel Event. t= 220 (139230) Note On ch=7 par1=67 par2=48
Channel Event. t= 2 (139232) Note On ch=7 par1=70 par2=59
Channel Event. t= 15 (139247) Note Off ch=7 par1=72 par2=64
Channel Event. t= 3 (139250) Note Off ch=7 par1=69 par2=64
Channel Event. t= 210 (139460) Note On ch=7 par1=69 par2=38
Channel Event. t= 0 (139460) Note On ch=7 par1=65 par2=43
Channel Event. t= 10 (139470) Note Off ch=7 par1=70 par2=64
Channel Event. t= 10 (139480) Note Off ch=7 par1=67 par2=64
Channel Event. t= 205 (139685) Note On ch=7 par1=70 par2=47
Channel Event. t= 12 (139697) Note On ch=7 par1=67 par2=44
Channel Event. t= 8 (139705) Note Off ch=7 par1=65 par2=64
Channel Event. t= 7 (139712) Note Off ch=7 par1=69 par2=64
Channel Event. t= 208 (139920) Note On ch=7 par1=72 par2=5
Channel Event. t= 2 (139922) Note Off ch=7 par1=70 par2=64
Channel Event. t= 23 (139945) Note Off ch=7 par1=67 par2=64
Channel Event. t= 2 (139947) Note On ch=7 par1=69 par2=34
Channel Event. t= 268 (140215) Note Off ch=7 par1=72 par2=64
Channel Event. t= 37 (140252) Note Off ch=7 par1=69 par2=64
Channel Event. t= 203 (140455) Note On ch=7 par1=58 par2=51
Channel Event. t= 217 (140672) Note On ch=7 par1=57 par2=38
Channel Event. t= 5 (140677) Note Off ch=7 par1=58 par2=64
Channel Event. t= 223 (140900) Note On ch=7 par1=55 par2=45
Channel Event. t= 15 (140915) Note Off ch=7 par1=57 par2=64
Channel Event. t= 225 (141140) Note On ch=7 par1=57 par2=54
Channel Event. t= 25 (141165) Note Off ch=7 par1=55 par2=64
Channel Event. t= 212 (141377) Note On ch=7 par1=58 par2=48
Channel Event. t= 28 (141405) Note Off ch=7 par1=57 par2=64
Channel Event. t= 392 (141797) Note Off ch=7 par1=58 par2=64
Channel Event. t= 90 (141887) Note On ch=7 par1=58 par2=72
Channel Event. t= 493 (142380) Note On ch=7 par1=53 par2=70
Channel Event. t= 45 (142425) Note Off ch=7 par1=58 par2=64
Channel Event. t= 442 (142867) Note On ch=7 par1=57 par2=66
Channel Event. t= 28 (142895) Note Off ch=7 par1=53 par2=64
Channel Event. t= 337 (143232) Note Off ch=7 par1=57 par2=64
Channel Event. t= 108 (143340) Note On ch=7 par1=58 par2=66
Channel Event. t= 227 (143567) Note On ch=7 par1=57 par2=52
Channel Event. t= 25 (143592) Note Off ch=7 par1=58 par2=64
Channel Event. t= 210 (143802) Note On ch=7 par1=55 par2=56
Channel Event. t= 10 (143812) Note Off ch=7 par1=57 par2=64
Channel Event. t= 230 (144042) Note On ch=7 par1=57 par2=53
Channel Event. t= 28 (144070) Note Off ch=7 par1=55 par2=64
Channel Event. t= 217 (144287) Note On ch=7 par1=58 par2=58
Channel Event. t= 25 (144312) Note Off ch=7 par1=57 par2=64
Channel Event. t= 350 (144662) Note Off ch=7 par1=58 par2=64
Channel Event. t= 90 (144752) Note On ch=7 par1=57 par2=66
Channel Event. t= 238 (144990) Note On ch=7 par1=55 par2=40
Channel Event. t= 22 (145012) Note Off ch=7 par1=57 par2=64
Channel Event. t= 215 (145227) Note On ch=7 par1=53 par2=54
Channel Event. t= 18 (145245) Note Off ch=7 par1=55 par2=64
Channel Event. t= 215 (145460) Note On ch=7 par1=55 par2=47
Channel Event. t= 27 (145487) Note Off ch=7 par1=53 par2=64
Channel Event. t= 233 (145720) Note On ch=7 par1=57 par2=51
Channel Event. t= 32 (145752) Note Off ch=7 par1=55 par2=64
Channel Event. t= 325 (146077) Note Off ch=7 par1=57 par2=64
Channel Event. t= 103 (146180) Note On ch=7 par1=58 par2=55
Channel Event. t= 240 (146420) Note On ch=7 par1=57 par2=49
Channel Event. t= 22 (146442) Note Off ch=7 par1=58 par2=64
Channel Event. t= 220 (146662) Note On ch=7 par1=55 par2=50
Channel Event. t= 28 (146690) Note Off ch=7 par1=57 par2=64
Channel Event. t= 212 (146902) Note On ch=7 par1=57 par2=47
Channel Event. t= 30 (146932) Note Off ch=7 par1=55 par2=64
Channel Event. t= 215 (147147) Note On ch=7 par1=58 par2=52
Channel Event. t= 18 (147165) Note Off ch=7 par1=57 par2=64
Channel Event. t= 387 (147552) Note Off ch=7 par1=58 par2=64
Channel Event. t= 110 (147662) Note On ch=7 par1=57 par2=48
Channel Event. t= 220 (147882) Note On ch=7 par1=55 par2=46
Channel Event. t= 25 (147907) Note Off ch=7 par1=57 par2=64
Channel Event. t= 230 (148137) Note On ch=7 par1=53 par2=51
Channel Event. t= 18 (148155) Note Off ch=7 par1=55 par2=64
Channel Event. t= 200 (148355) Note On ch=7 par1=55 par2=48
Channel Event. t= 17 (148372) Note Off ch=7 par1=53 par2=64
Channel Event. t= 233 (148605) Note Off ch=7 par1=55 par2=64
Channel Event. t= 7 (148612) Note On ch=7 par1=57 par2=50
Channel Event. t= 410 (149022) Note Off ch=7 par1=57 par2=64
Channel Event. t= 73 (149095) Note On ch=7 par1=58 par2=48
Channel Event. t= 472 (149567) Note On ch=7 par1=57 par2=42
Channel Event. t= 45 (149612) Note Off ch=7 par1=58 par2=64
Channel Event. t= 435 (150047) Note On ch=7 par1=55 par2=49
Channel Event. t= 20 (150067) Note Off ch=7 par1=57 par2=64
Channel Event. t= 225 (150292) Note On ch=7 par1=57 par2=43
Channel Event. t= 10 (150302) Note Off ch=7 par1=55 par2=64
Channel Event. t= 230 (150532) Note On ch=7 par1=58 par2=40
Channel Event. t= 15 (150547) Note Off ch=7 par1=57 par2=64
Channel Event. t= 410 (150957) Note Off ch=7 par1=58 par2=64
Channel Event. t= 58 (151015) Note On ch=7 par1=58 par2=65
Channel Event. t= 5 (151020) Note On ch=7 par1=62 par2=44
Channel Event. t= 2 (151022) Note On ch=7 par1=65 par2=47
Channel Event. t= 3 (151025) Note On ch=7 par1=53 par2=63
Channel Event. t= 342 (151367) Note Off ch=7 par1=53 par2=64
Channel Event. t= 133 (151500) Note On ch=7 par1=50 par2=52
Channel Event. t= 5 (151505) Note On ch=7 par1=70 par2=67
Channel Event. t= 142 (151647) Note Off ch=7 par1=62 par2=64
Channel Event. t= 170 (151817) Note Off ch=7 par1=50 par2=64
Channel Event. t= 170 (151987) Note On ch=7 par1=74 par2=47
Channel Event. t= 35 (152022) Note On ch=7 par1=46 par2=29
Channel Event. t= 23 (152045) Note Off ch=7 par1=70 par2=64
Channel Event. t= 462 (152507) Note Off ch=7 par1=58 par2=64
Channel Event. t= 5 (152512) Note Off ch=7 par1=74 par2=64
Channel Event. t= 0 (152512) Note Off ch=7 par1=46 par2=64
Channel Event. t= 3 (152515) Note Off ch=7 par1=65 par2=64
Channel Event. t= 0 (152515) 
Meta Event. Type: 0x2f (47dec), End of Track (0 bytes): 
track #16
track size: 3637
Channel Event. t= 0 (0) 
Meta Event. Type: 0x3 (3dec), Sequence/Track Name (20 bytes): Strings             
Channel Event. t= 0 (0) 
Meta Event. Type: 0x21 (33dec), MIDI Port (1 bytes): 0
Channel Event. t= 0 (0) 
Meta Event. Type: 0x20 (32dec), MIDI Channel Prefix (1 bytes): 5
Channel Event. t= 0 (0) Controller ch=5 par1=10 (Pan) par2=64
Channel Event. t= 0 (0) Controller ch=5 par1=91 (Effects 2 Depth (formerly Tremolo Depth)) par2=127
Channel Event. t= 0 (0) Program Change ch=5 par1=48 par2=-117
Channel Event. t= 136 (136) Controller ch=5 par1=7 (Main Volume) par2=60
Channel Event. t= 0 (136) Controller ch=5 par1=10 (Pan) par2=80
Channel Event. t= 120 (256) Note On ch=5 par1=36 par2=61
Channel Event. t= 0 (256) Note On ch=5 par1=48 par2=52
Channel Event. t= 0 (256) Note On ch=5 par1=55 par2=52
Channel Event. t= 240 (496) Note On ch=5 par1=60 par2=35
Channel Event. t= 110 (606) Note Off ch=5 par1=55 par2=64
Channel Event. t= 130 (736) Note On ch=5 par1=64 par2=55
Channel Event. t= 35 (771) Note Off ch=5 par1=60 par2=64
Channel Event. t= 205 (976) Note On ch=5 par1=60 par2=43
Channel Event. t= 42 (1018) Note Off ch=5 par1=64 par2=64
Channel Event. t= 198 (1216) Note On ch=5 par1=43 par2=63
Channel Event. t= 0 (1216) Note On ch=5 par1=55 par2=54
Channel Event. t= 40 (1256) Note Off ch=5 par1=60 par2=64
Channel Event. t= 5 (1261) Note Off ch=5 par1=48 par2=64
Channel Event. t= 10 (1271) Note Off ch=5 par1=36 par2=64
Channel Event. t= 185 (1456) Note On ch=5 par1=60 par2=46
Channel Event. t= 52 (1508) Note Off ch=5 par1=55 par2=64
Channel Event. t= 188 (1696) Note On ch=5 par1=64 par2=45
Channel Event. t= 37 (1733) Note Off ch=5 par1=60 par2=64
Channel Event. t= 203 (1936) Note On ch=5 par1=60 par2=60
Channel Event. t= 27 (1963) Note Off ch=5 par1=64 par2=64
Channel Event. t= 213 (2176) Note On ch=5 par1=48 par2=50
Channel Event. t= 0 (2176) Note On ch=5 par1=36 par2=47
Channel Event. t= 0 (2176) Note On ch=5 par1=55 par2=63
Channel Event. t= 12 (2188) Note Off ch=5 par1=60 par2=64
Channel Event. t= 43 (2231) Note Off ch=5 par1=43 par2=64
Channel Event. t= 185 (2416) Note On ch=5 par1=60 par2=49
Channel Event. t= 25 (2441) Note Off ch=5 par1=55 par2=64
Channel Event. t= 215 (2656) Note On ch=5 par1=64 par2=50
Channel Event. t= 15 (2671) Note Off ch=5 par1=60 par2=64
Channel Event. t= 225 (2896) Note On ch=5 par1=60 par2=53
Channel Event. t= 72 (2968) Note Off ch=5 par1=64 par2=64
Channel Event. t= 168 (3136) Note On ch=5 par1=43 par2=62
Channel Event. t= 0 (3136) Note On ch=5 par1=55 par2=52
Channel Event. t= 12 (3148) Note Off ch=5 par1=60 par2=64
Channel Event. t= 45 (3193) Note Off ch=5 par1=48 par2=64
Channel Event. t= 0 (3193) Note Off ch=5 par1=36 par2=64
Channel Event. t= 183 (3376) Note On ch=5 par1=60 par2=57
Channel Event. t= 22 (3398) Note Off ch=5 par1=55 par2=64
Channel Event. t= 218 (3616) Note On ch=5 par1=64 par2=60
Channel Event. t= 17 (3633) Note Off ch=5 par1=60 par2=64
Channel Event. t= 223 (3856) Note On ch=5 par1=60 par2=74
Channel Event. t= 22 (3878) Note Off ch=5 par1=64 par2=64
Channel Event. t= 203 (4081) Note Off ch=5 par1=60 par2=64
Channel Event. t= 15 (4096) Note On ch=5 par1=32 par2=68
Channel Event. t= 0 (4096) Note On ch=5 par1=44 par2=58
Channel Event. t= 0 (4096) Note On ch=5 par1=51 par2=89
Channel Event. t= 30 (4126) Note Off ch=5 par1=43 par2=64
Channel Event. t= 210 (4336) Note On ch=5 par1=56 par2=68
Channel Event. t= 65 (4401) Note Off ch=5 par1=51 par2=64
Channel Event. t= 175 (4576) Note On ch=5 par1=60 par2=66
Channel Event. t= 30 (4606) Note Off ch=5 par1=56 par2=64
Channel Event. t= 210 (4816) Note On ch=5 par1=56 par2=71
Channel Event. t= 52 (4868) Note Off ch=5 par1=60 par2=64
Channel Event. t= 188 (5056) Note Off ch=5 par1=56 par2=64
Channel Event. t= 0 (5056) Note On ch=5 par1=39 par2=80
Channel Event. t= 0 (5056) Note On ch=5 par1=51 par2=81
Channel Event. t= 55 (5111) Note Off ch=5 par1=32 par2=64
Channel Event. t= 5 (5116) Note Off ch=5 par1=44 par2=64
Channel Event. t= 180 (5296) Note On ch=5 par1=56 par2=68
Channel Event. t= 20 (5316) Note Off ch=5 par1=51 par2=64
Channel Event. t= 220 (5536) Note On ch=5 par1=60 par2=62
Channel Event. t= 10 (5546) Note Off ch=5 par1=56 par2=64
Channel Event. t= 230 (5776) Note On ch=5 par1=56 par2=72
Channel Event. t= 12 (5788) Note Off ch=5 par1=60 par2=64
Channel Event. t= 178 (5966) Note Off ch=5 par1=39 par2=64
Channel Event. t= 50 (6016) Note On ch=5 par1=39 par2=91
Channel Event. t= 0 (6016) Note On ch=5 par1=46 par2=87
Channel Event. t= 20 (6036) Note Off ch=5 par1=56 par2=64
Channel Event. t= 220 (6256) Note On ch=5 par1=51 par2=78
Channel Event. t= 17 (6273) Note Off ch=5 par1=46 par2=64
Channel Event. t= 223 (6496) Note On ch=5 par1=55 par2=74
Channel Event. t= 25 (6521) Note Off ch=5 par1=51 par2=64
Channel Event. t= 215 (6736) Note On ch=5 par1=51 par2=73
Channel Event. t= 25 (6761) Note Off ch=5 par1=55 par2=64
Channel Event. t= 215 (6976) Note On ch=5 par1=34 par2=82
Channel Event. t= 0 (6976) Note On ch=5 par1=46 par2=80
Channel Event. t= 12 (6988) Note Off ch=5 par1=51 par2=64
Channel Event. t= 18 (7006) Note Off ch=5 par1=39 par2=64
Channel Event. t= 210 (7216) Note On ch=5 par1=51 par2=80
Channel Event. t= 35 (7251) Note Off ch=5 par1=46 par2=64
Channel Event. t= 205 (7456) Note On ch=5 par1=55 par2=61
Channel Event. t= 25 (7481) Note Off ch=5 par1=51 par2=64
Channel Event. t= 215 (7696) Note On ch=5 par1=54 par2=80
Channel Event. t= 15 (7711) Note Off ch=5 par1=55 par2=64
Channel Event. t= 185 (7896) Note Off ch=5 par1=54 par2=64
Channel Event. t= 40 (7936) Note On ch=5 par1=51 par2=71
Channel Event. t= 0 (7936) Note On ch=5 par1=39 par2=71
Channel Event. t= 0 (7936) Note On ch=5 par1=55 par2=76
Channel Event. t= 7 (7943) Note Off ch=5 par1=34 par2=64
Channel Event. t= 233 (8176) Note On ch=5 par1=58 par2=71
Channel Event. t= 42 (8218) Note Off ch=5 par1=55 par2=64
Channel Event. t= 198 (8416) Note On ch=5 par1=63 par2=72
Channel Event. t= 20 (8436) Note Off ch=5 par1=58 par2=64
Channel Event. t= 220 (8656) Note On ch=5 par1=58 par2=65
Channel Event. t= 32 (8688) Note Off ch=5 par1=63 par2=64
Channel Event. t= 185 (8873) Note Off ch=5 par1=58 par2=64
Channel Event. t= 23 (8896) Note On ch=5 par1=46 par2=78
Channel Event. t= 0 (8896) Note On ch=5 par1=58 par2=72
Channel Event. t= 15 (8911) Note Off ch=5 par1=51 par2=64
Channel Event. t= 2 (8913) Note Off ch=5 par1=39 par2=64
Channel Event. t= 223 (9136) Note Off ch=5 par1=58 par2=64
Channel Event. t= 0 (9136) Note On ch=5 par1=63 par2=70
Channel Event. t= 240 (9376) Note On ch=5 par1=67 par2=69
Channel Event. t= 15 (9391) Note Off ch=5 par1=63 par2=64
Channel Event. t= 225 (9616) Note On ch=5 par1=63 par2=69
Channel Event. t= 30 (9646) Note Off ch=5 par1=67 par2=64
Channel Event. t= 210 (9856) Note On ch=5 par1=51 par2=59
Channel Event. t= 0 (9856) Note On ch=5 par1=39 par2=71
Channel Event. t= 0 (9856) Note On ch=5 par1=58 par2=75
Channel Event. t= 12 (9868) Note Off ch=5 par1=63 par2=64
Channel Event. t= 5 (9873) Note Off ch=5 par1=46 par2=64
Channel Event. t= 223 (10096) Note On ch=5 par1=63 par2=72
Channel Event. t= 42 (10138) Note Off ch=5 par1=58 par2=64
Channel Event. t= 198 (10336) Note On ch=5 par1=67 par2=64
Channel Event. t= 12 (10348) Note Off ch=5 par1=63 par2=64
Channel Event. t= 228 (10576) Note On ch=5 par1=63 par2=73
Channel Event. t= 20 (10596) Note Off ch=5 par1=67 par2=64
Channel Event. t= 220 (10816) Note On ch=5 par1=46 par2=73
Channel Event. t= 0 (10816) Note On ch=5 par1=58 par2=76
Channel Event. t= 15 (10831) Note Off ch=5 par1=63 par2=64
Channel Event. t= 45 (10876) Note Off ch=5 par1=51 par2=64
Channel Event. t= 65 (10941) Note Off ch=5 par1=39 par2=64
Channel Event. t= 115 (11056) Note On ch=5 par1=63 par2=78
Channel Event. t= 10 (11066) Note Off ch=5 par1=58 par2=64
Channel Event. t= 230 (11296) Note On ch=5 par1=58 par2=72
Channel Event. t= 27 (11323) Note Off ch=5 par1=63 par2=64
Channel Event. t= 210 (11533) Note Off ch=5 par1=58 par2=64
Channel Event. t= 3 (11536) Note On ch=5 par1=55 par2=73
Channel Event. t= 240 (11776) Note On ch=5 par1=35 par2=50
Channel Event. t= 0 (11776) Note On ch=5 par1=47 par2=64
Channel Event. t= 0 (11776) Note On ch=5 par1=54 par2=75
Channel Event. t= 10 (11786) Note Off ch=5 par1=46 par2=64
Channel Event. t= 55 (11841) Note Off ch=5 par1=55 par2=64
Channel Event. t= 175 (12016) Note On ch=5 par1=59 par2=70
Channel Event. t= 15 (12031) Note Off ch=5 par1=54 par2=64
Channel Event. t= 225 (12256) Note On ch=5 par1=62 par2=74
Channel Event. t= 50 (12306) Note Off ch=5 par1=59 par2=64
Channel Event. t= 190 (12496) Note On ch=5 par1=59 par2=73
Channel Event. t= 30 (12526) Note Off ch=5 par1=62 par2=64
Channel Event. t= 157 (12683) Note Off ch=5 par1=47 par2=64
Channel Event. t= 53 (12736) Note Off ch=5 par1=59 par2=64
Channel Event. t= 0 (12736) Note On ch=5 par1=33 par2=68
Channel Event. t= 0 (12736) Note On ch=5 par1=45 par2=61
Channel Event. t= 0 (12736) Note On ch=5 par1=50 par2=82
Channel Event. t= 77 (12813) Note Off ch=5 par1=35 par2=64
Channel Event. t= 163 (12976) Note On ch=5 par1=54 par2=78
Channel Event. t= 42 (13018) Note Off ch=5 par1=50 par2=64
Channel Event. t= 198 (13216) Note On ch=5 par1=60 par2=76
Channel Event. t= 10 (13226) Note Off ch=5 par1=54 par2=64
Channel Event. t= 230 (13456) Note On ch=5 par1=54 par2=71
Channel Event. t= 52 (13508) Note Off ch=5 par1=60 par2=64
Channel Event. t= 63 (13571) Note Off ch=5 par1=45 par2=64
Channel Event. t= 125 (13696) Note On ch=5 par1=31 par2=71
Channel Event. t= 0 (13696) Note On ch=5 par1=43 par2=54
Channel Event. t= 0 (13696) Note On ch=5 par1=50 par2=82
Channel Event. t= 20 (13716) Note Off ch=5 par1=54 par2=64
Channel Event. t= 12 (13728) Note Off ch=5 par1=33 par2=64
Channel Event. t= 208 (13936) Note On ch=5 par1=55 par2=69
Channel Event. t= 50 (13986) Note Off ch=5 par1=50 par2=64
Channel Event. t= 190 (14176) Note On ch=5 par1=59 par2=74
Channel Event. t= 17 (14193) Note Off ch=5 par1=55 par2=64
Channel Event. t= 223 (14416) Note On ch=5 par1=57 par2=84
Channel Event. t= 65 (14481) Note Off ch=5 par1=59 par2=64
Channel Event. t= 175 (14656) Note On ch=5 par1=55 par2=69
Channel Event. t= 50 (14706) Note Off ch=5 par1=57 par2=64
Channel Event. t= 190 (14896) Note On ch=5 par1=53 par2=56
Channel Event. t= 15 (14911) Note Off ch=5 par1=55 par2=64
Channel Event. t= 225 (15136) Note On ch=5 par1=52 par2=61
Channel Event. t= 7 (15143) Note Off ch=5 par1=53 par2=64
Channel Event. t= 45 (15188) Note Off ch=5 par1=43 par2=64
Channel Event. t= 5 (15193) Note Off ch=5 par1=31 par2=64
Channel Event. t= 183 (15376) Note On ch=5 par1=50 par2=53
Channel Event. t= 7 (15383) Note Off ch=5 par1=52 par2=64
Channel Event. t= 233 (15616) Note Off ch=5 par1=50 par2=64
Channel Event. t= 0 (15616) Note On ch=5 par1=36 par2=71
Channel Event. t= 0 (15616) Note On ch=5 par1=48 par2=60
Channel Event. t= 0 (15616) Note On ch=5 par1=55 par2=27
Channel Event. t= 240 (15856) Note On ch=5 par1=60 par2=61
Channel Event. t= 240 (16096) Note Off ch=5 par1=55 par2=64
Channel Event. t= 0 (16096) Note On ch=5 par1=64 par2=47
Channel Event. t= 15 (16111) Note Off ch=5 par1=60 par2=64
Channel Event. t= 225 (16336) Note On ch=5 par1=60 par2=49
Channel Event. t= 37 (16373) Note Off ch=5 par1=64 par2=64
Channel Event. t= 203 (16576) Note On ch=5 par1=43 par2=59
Channel Event. t= 0 (16576) Note On ch=5 par1=55 par2=56
Channel Event. t= 17 (16593) Note Off ch=5 par1=48 par2=64
Channel Event. t= 10 (16603) Note Off ch=5 par1=60 par2=64
Channel Event. t= 8 (16611) Note Off ch=5 par1=36 par2=64
Channel Event. t= 205 (16816) Note On ch=5 par1=60 par2=53
Channel Event. t= 52 (16868) Note Off ch=5 par1=55 par2=64
Channel Event. t= 188 (17056) Note On ch=5 par1=64 par2=51
Channel Event. t= 20 (17076) Note Off ch=5 par1=60 par2=64
Channel Event. t= 220 (17296) Note On ch=5 par1=60 par2=52
Channel Event. t= 37 (17333) Note Off ch=5 par1=64 par2=64
Channel Event. t= 203 (17536) Note On ch=5 par1=36 par2=67
Channel Event. t= 0 (17536) Note On ch=5 par1=48 par2=56
Channel Event. t= 0 (17536) Note On ch=5 par1=55 par2=63
Channel Event. t= 17 (17553) Note Off ch=5 par1=60 par2=64
Channel Event. t= 38 (17591) Note Off ch=5 par1=43 par2=64
Channel Event. t= 185 (17776) Note On ch=5 par1=60 par2=58
Channel Event. t= 57 (17833) Note Off ch=5 par1=55 par2=64
Channel Event. t= 183 (18016) Note On ch=5 par1=64 par2=61
Channel Event. t= 27 (18043) Note Off ch=5 par1=60 par2=64
Channel Event. t= 213 (18256) Note On ch=5 par1=60 par2=53
Channel Event. t= 27 (18283) Note Off ch=5 par1=64 par2=64
Channel Event. t= 213 (18496) Note On ch=5 par1=43 par2=67
Channel Event. t= 0 (18496) Note On ch=5 par1=55 par2=60
Channel Event. t= 5 (18501) Note Off ch=5 par1=60 par2=64
Channel Event. t= 37 (18538) Note Off ch=5 par1=48 par2=64
Channel Event. t= 35 (18573) Note Off ch=5 par1=36 par2=64
Channel Event. t= 163 (18736) Note On ch=5 par1=60 par2=52
Channel Event. t= 42 (18778) Note Off ch=5 par1=55 par2=64
Channel Event. t= 198 (18976) Note On ch=5 par1=64 par2=53
Channel Event. t= 2 (18978) Note Off ch=5 par1=60 par2=64
Channel Event. t= 238 (19216) Note On ch=5 par1=60 par2=69
Channel Event. t= 32 (19248) Note Off ch=5 par1=64 par2=64
Channel Event. t= 5 (19253) Note Off ch=5 par1=43 par2=64
Channel Event. t= 180 (19433) Note Off ch=5 par1=60 par2=64
Channel Event. t= 23 (19456) Note On ch=5 par1=56 par2=47
Channel Event. t= 0 (19456) Note On ch=5 par1=44 par2=67
Channel Event. t= 0 (19456) Note On ch=5 par1=51 par2=87
Channel Event. t= 292 (19748) Note Off ch=5 par1=51 par2=64
Channel Event. t= 188 (19936) Note On ch=5 par1=60 par2=63
Channel Event. t= 295 (20231) Note Off ch=5 par1=60 par2=64
Channel Event. t= 185 (20416) Note Off ch=5 par1=44 par2=64
Channel Event. t= 0 (20416) Note Off ch=5 par1=56 par2=64
Channel Event. t= 0 (20416) Note On ch=5 par1=39 par2=84
Channel Event. t= 0 (20416) Note On ch=5 par1=51 par2=87
Channel Event. t= 240 (20656) Note On ch=5 par1=56 par2=71
Channel Event. t= 37 (20693) Note Off ch=5 par1=51 par2=64
Channel Event. t= 203 (20896) Note On ch=5 par1=60 par2=58
Channel Event. t= 10 (20906) Note Off ch=5 par1=56 par2=64
Channel Event. t= 230 (21136) Note On ch=5 par1=56 par2=47
Channel Event. t= 80 (21216) Note Off ch=5 par1=60 par2=64
Channel Event. t= 107 (21323) Note Off ch=5 par1=39 par2=64
Channel Event. t= 35 (21358) Note Off ch=5 par1=56 par2=64
Channel Event. t= 18 (21376) Note On ch=5 par1=39 par2=67
Channel Event. t= 0 (21376) Note On ch=5 par1=51 par2=75
Channel Event. t= 0 (21376) Note On ch=5 par1=46 par2=81
Channel Event. t= 252 (21628) Note Off ch=5 par1=46 par2=64
Channel Event. t= 228 (21856) Note On ch=5 par1=55 par2=58
Channel Event. t= 280 (22136) Note Off ch=5 par1=55 par2=64
Channel Event. t= 167 (22303) Note Off ch=5 par1=51 par2=64
Channel Event. t= 33 (22336) Note On ch=5 par1=46 par2=78
Channel Event. t= 10 (22346) Note Off ch=5 par1=39 par2=64
Channel Event. t= 230 (22576) Note On ch=5 par1=51 par2=75
Channel Event. t= 240 (22816) Note On ch=5 par1=55 par2=65
Channel Event. t= 32 (22848) Note Off ch=5 par1=51 par2=64
Channel Event. t= 208 (23056) Note On ch=5 par1=54 par2=64
Channel Event. t= 12 (23068) Note Off ch=5 par1=55 par2=64
Channel Event. t= 160 (23228) Note Off ch=5 par1=54 par2=64
Channel Event. t= 68 (23296) Note On ch=5 par1=39 par2=78
Channel Event. t= 0 (23296) Note On ch=5 par1=51 par2=71
Channel Event. t= 0 (23296) Note On ch=5 par1=55 par2=73
Channel Event. t= 55 (23351) Note Off ch=5 par1=46 par2=64
Channel Event. t= 185 (23536) Note On ch=5 par1=58 par2=71
Channel Event. t= 37 (23573) Note Off ch=5 par1=55 par2=64
Channel Event. t= 203 (23776) Note On ch=5 par1=63 par2=68
Channel Event. t= 10 (23786) Note Off ch=5 par1=58 par2=64
Channel Event. t= 230 (24016) Note On ch=5 par1=58 par2=69
Channel Event. t= 15 (24031) Note Off ch=5 par1=63 par2=64
Channel Event. t= 215 (24246) Note Off ch=5 par1=58 par2=64
Channel Event. t= 10 (24256) Note On ch=5 par1=46 par2=75
Channel Event. t= 0 (24256) Note On ch=5 par1=58 par2=76
Channel Event. t= 35 (24291) Note Off ch=5 par1=51 par2=64
Channel Event. t= 10 (24301) Note Off ch=5 par1=39 par2=64
Channel Event. t= 165 (24466) Note Off ch=5 par1=58 par2=64
Channel Event. t= 30 (24496) Note On ch=5 par1=63 par2=71
Channel Event. t= 240 (24736) Note On ch=5 par1=67 par2=64
Channel Event. t= 7 (24743) Note Off ch=5 par1=63 par2=64
Channel Event. t= 233 (24976) Note On ch=5 par1=63 par2=65
Channel Event. t= 32 (25008) Note Off ch=5 par1=67 par2=64
Channel Event. t= 193 (25201) Note Off ch=5 par1=63 par2=64
Channel Event. t= 15 (25216) Note On ch=5 par1=51 par2=63
Channel Event. t= 0 (25216) Note On ch=5 par1=39 par2=70
Channel Event. t= 0 (25216) Note On ch=5 par1=58 par2=87
Channel Event. t= 37 (25253) Note Off ch=5 par1=46 par2=64
Channel Event. t= 203 (25456) Note On ch=5 par1=63 par2=75
Channel Event. t= 17 (25473) Note Off ch=5 par1=58 par2=64
Channel Event. t= 223 (25696) Note On ch=5 par1=67 par2=68
Channel Event. t= 2 (25698) Note Off ch=5 par1=63 par2=64
Channel Event. t= 238 (25936) Note On ch=5 par1=63 par2=67
Channel Event. t= 32 (25968) Note Off ch=5 par1=67 par2=64
Channel Event. t= 208 (26176) Note On ch=5 par1=46 par2=75
Channel Event. t= 0 (26176) Note On ch=5 par1=58 par2=78
Channel Event. t= 50 (26226) Note Off ch=5 par1=51 par2=64
Channel Event. t= 2 (26228) Note Off ch=5 par1=63 par2=64
Channel Event. t= 33 (26261) Note Off ch=5 par1=39 par2=64
Channel Event. t= 155 (26416) Note On ch=5 par1=63 par2=65
Channel Event. t= 22 (26438) Note Off ch=5 par1=58 par2=64
Channel Event. t= 218 (26656) Note On ch=5 par1=58 par2=74
Channel Event. t= 32 (26688) Note Off ch=5 par1=63 par2=64
Channel Event. t= 198 (26886) Note Off ch=5 par1=58 par2=64
Channel Event. t= 10 (26896) Note On ch=5 par1=55 par2=76
Channel Event. t= 197 (27093) Note Off ch=5 par1=55 par2=64
Channel Event. t= 43 (27136) Note On ch=5 par1=35 par2=59
Channel Event. t= 0 (27136) Note On ch=5 par1=47 par2=53
Channel Event. t= 0 (27136) Note On ch=5 par1=54 par2=80
Channel Event. t= 42 (27178) Note Off ch=5 par1=46 par2=64
Channel Event. t= 198 (27376) Note On ch=5 par1=59 par2=79
Channel Event. t= 2 (27378) Note Off ch=5 par1=54 par2=64
Channel Event. t= 238 (27616) Note On ch=5 par1=62 par2=66
Channel Event. t= 35 (27651) Note Off ch=5 par1=59 par2=64
Channel Event. t= 205 (27856) Note On ch=5 par1=59 par2=69
Channel Event. t= 12 (27868) Note Off ch=5 par1=62 par2=64
Channel Event. t= 180 (28048) Note Off ch=5 par1=47 par2=64
Channel Event. t= 38 (28086) Note Off ch=5 par1=59 par2=64
Channel Event. t= 10 (28096) Note On ch=5 par1=33 par2=75
Channel Event. t= 0 (28096) Note On ch=5 par1=45 par2=66
Channel Event. t= 0 (28096) Note On ch=5 par1=50 par2=83
Channel Event. t= 102 (28198) Note Off ch=5 par1=35 par2=64
Channel Event. t= 138 (28336) Note On ch=5 par1=54 par2=68
Channel Event. t= 22 (28358) Note Off ch=5 par1=50 par2=64
Channel Event. t= 218 (28576) Note On ch=5 par1=60 par2=76
Channel Event. t= 42 (28618) Note Off ch=5 par1=54 par2=64
Channel Event. t= 198 (28816) Note On ch=5 par1=54 par2=70
Channel Event. t= 30 (28846) Note Off ch=5 par1=60 par2=64
Channel Event. t= 102 (28948) Note Off ch=5 par1=45 par2=64
Channel Event. t= 98 (29046) Note Off ch=5 par1=54 par2=64
Channel Event. t= 10 (29056) Note On ch=5 par1=43 par2=61
Channel Event. t= 0 (29056) Note On ch=5 par1=31 par2=74
Channel Event. t= 0 (29056) Note On ch=5 par1=50 par2=88
Channel Event. t= 15 (29071) Note Off ch=5 par1=33 par2=64
Channel Event. t= 225 (29296) Note On ch=5 par1=55 par2=75
Channel Event. t= 32 (29328) Note Off ch=5 par1=50 par2=64
Channel Event. t= 208 (29536) Note On ch=5 par1=59 par2=73
Channel Event. t= 15 (29551) Note Off ch=5 par1=55 par2=64
Channel Event. t= 225 (29776) Note On ch=5 par1=57 par2=69
Channel Event. t= 47 (29823) Note Off ch=5 par1=59 par2=64
Channel Event. t= 193 (30016) Note On ch=5 par1=55 par2=69
Channel Event. t= 40 (30056) Note Off ch=5 par1=57 par2=64
Channel Event. t= 200 (30256) Note On ch=5 par1=53 par2=74
Channel Event. t= 7 (30263) Note Off ch=5 par1=55 par2=64
Channel Event. t= 233 (30496) Note On ch=5 par1=52 par2=74
Channel Event. t= 32 (30528) Note Off ch=5 par1=53 par2=64
Channel Event. t= 133 (30661) Note Off ch=5 par1=43 par2=64
Channel Event. t= 5 (30666) Note Off ch=5 par1=31 par2=64
Channel Event. t= 70 (30736) Note On ch=5 par1=50 par2=72
Channel Event. t= 17 (30753) Note Off ch=5 par1=52 par2=64
Channel Event. t= 215 (30968) Note Off ch=5 par1=50 par2=64
Channel Event. t= 8 (30976) Note On ch=5 par1=43 par2=88
Channel Event. t= 155 (31131) Note Off ch=5 par1=43 par2=64
Channel Event. t= 325 (31456) Note On ch=5 par1=43 par2=62
Channel Event. t= 92 (31548) Note Off ch=5 par1=43 par2=64
Channel Event. t= 388 (31936) Note On ch=5 par1=43 par2=71
Channel Event. t= 727 (32663) Note Off ch=5 par1=43 par2=64
Channel Event. t= 173 (32836) Controller ch=5 par1=7 (Main Volume) par2=70
Channel Event. t= 60 (32896) Note On ch=5 par1=72 par2=58
Channel Event. t= 77 (32973) Note Off ch=5 par1=72 par2=64
Channel Event. t= 163 (33136) Note On ch=5 par1=67 par2=55
Channel Event. t= 77 (33213) Note Off ch=5 par1=67 par2=64
Channel Event. t= 163 (33376) Note On ch=5 par1=73 par2=81
Channel Event. t= 147 (33523) Note Off ch=5 par1=73 par2=64
Channel Event. t= 333 (33856) Note On ch=5 par1=72 par2=74
Channel Event. t= 72 (33928) Note Off ch=5 par1=72 par2=64
Channel Event. t= 168 (34096) Note On ch=5 par1=67 par2=58
Channel Event. t= 82 (34178) Note Off ch=5 par1=67 par2=64
Channel Event. t= 158 (34336) Note On ch=5 par1=73 par2=87
Channel Event. t= 172 (34508) Note Off ch=5 par1=73 par2=64
Channel Event. t= 308 (34816) Note On ch=5 par1=72 par2=81
Channel Event. t= 207 (35023) Note Off ch=5 par1=72 par2=64
Channel Event. t= 273 (35296) Note On ch=5 par1=70 par2=77
Channel Event. t= 102 (35398) Note Off ch=5 par1=70 par2=64
Channel Event. t= 138 (35536) Note On ch=5 par1=68 par2=73
Channel Event. t= 62 (35598) Note Off ch=5 par1=68 par2=64
Channel Event. t= 178 (35776) Note On ch=5 par1=67 par2=94
Channel Event. t= 227 (36003) Note Off ch=5 par1=67 par2=64
Channel Event. t= 733 (36736) Note On ch=5 par1=72 par2=83
Channel Event. t= 90 (36826) Note Off ch=5 par1=72 par2=64
Channel Event. t= 150 (36976) Note On ch=5 par1=67 par2=56
Channel Event. t= 67 (37043) Note Off ch=5 par1=67 par2=64
Channel Event. t= 173 (37216) Note On ch=5 par1=73 par2=93
Channel Event. t= 192 (37408) Note Off ch=5 par1=73 par2=64
Channel Event. t= 288 (37696) Note On ch=5 par1=72 par2=74
Channel Event. t= 87 (37783) Note Off ch=5 par1=72 par2=64
Channel Event. t= 153 (37936) Note On ch=5 par1=67 par2=58
Channel Event. t= 85 (38021) Note Off ch=5 par1=67 par2=64
Channel Event. t= 155 (38176) Note On ch=5 par1=73 par2=93
Channel Event. t= 187 (38363) Note Off ch=5 par1=73 par2=64
Channel Event. t= 293 (38656) Note On ch=5 par1=72 par2=78
Channel Event. t= 182 (38838) Note Off ch=5 par1=72 par2=64
Channel Event. t= 298 (39136) Note On ch=5 par1=70 par2=79
Channel Event. t= 97 (39233) Note Off ch=5 par1=70 par2=64
Channel Event. t= 143 (39376) Note On ch=5 par1=68 par2=76
Channel Event. t= 85 (39461) Note Off ch=5 par1=68 par2=64
Channel Event. t= 155 (39616) Note On ch=5 par1=67 par2=81
Channel Event. t= 725 (40341) Note Off ch=5 par1=67 par2=64
Channel Event. t= 235 (40576) Note On ch=5 par1=72 par2=68
Channel Event. t= 235 (40811) Note Off ch=5 par1=72 par2=64
Channel Event. t= 5 (40816) Note On ch=5 par1=67 par2=50
Channel Event. t= 240 (41056) Note On ch=5 par1=71 par2=65
Channel Event. t= 27 (41083) Note Off ch=5 par1=67 par2=64
Channel Event. t= 213 (41296) Note On ch=5 par1=67 par2=62
Channel Event. t= 2 (41298) Note Off ch=5 par1=71 par2=64
Channel Event. t= 183 (41481) Note Off ch=5 par1=67 par2=64
Channel Event. t= 55 (41536) Note On ch=5 par1=72 par2=86
Channel Event. t= 240 (41776) Note On ch=5 par1=67 par2=60
Channel Event. t= 22 (41798) Note Off ch=5 par1=72 par2=64
Channel Event. t= 218 (42016) Note On ch=5 par1=71 par2=69
Channel Event. t= 12 (42028) Note Off ch=5 par1=67 par2=64
Channel Event. t= 228 (42256) Note On ch=5 par1=67 par2=67
Channel Event. t= 20 (42276) Note Off ch=5 par1=71 par2=64
Channel Event. t= 137 (42413) Note Off ch=5 par1=67 par2=64
Channel Event. t= 83 (42496) Note On ch=5 par1=72 par2=69
Channel Event. t= 240 (42736) Note On ch=5 par1=67 par2=56
Channel Event. t= 15 (42751) Note Off ch=5 par1=72 par2=64
Channel Event. t= 225 (42976) Note On ch=5 par1=71 par2=72
Channel Event. t= 32 (43008) Note Off ch=5 par1=67 par2=64
Channel Event. t= 208 (43216) Note On ch=5 par1=67 par2=63
Channel Event. t= 22 (43238) Note Off ch=5 par1=71 par2=64
Channel Event. t= 138 (43376) Note Off ch=5 par1=67 par2=64
Channel Event. t= 80 (43456) Note On ch=5 par1=72 par2=66
Channel Event. t= 240 (43696) Note Off ch=5 par1=72 par2=64
Channel Event. t= 0 (43696) Note On ch=5 par1=67 par2=58
Channel Event. t= 240 (43936) Note On ch=5 par1=71 par2=70
Channel Event. t= 27 (43963) Note Off ch=5 par1=67 par2=64
Channel Event. t= 203 (44166) Note Off ch=5 par1=71 par2=64
Channel Event. t= 10 (44176) Note On ch=5 par1=67 par2=74
Channel Event. t= 157 (44333) Note Off ch=5 par1=67 par2=64
Channel Event. t= 83 (44416) Note On ch=5 par1=43 par2=83
Channel Event. t= 467 (44883) Note Off ch=5 par1=43 par2=64
Channel Event. t= 253 (45136) Note On ch=5 par1=47 par2=73
Channel Event. t= 200 (45336) Note Off ch=5 par1=47 par2=64
Channel Event. t= 40 (45376) Note On ch=5 par1=50 par2=88
Channel Event. t= 375 (45751) Note Off ch=5 par1=50 par2=64
Channel Event. t= 345 (46096) Note On ch=5 par1=54 par2=79
Channel Event. t= 240 (46336) Note On ch=5 par1=55 par2=88
Channel Event. t= 2 (46338) Note Off ch=5 par1=54 par2=64
Channel Event. t= 240 (46578) Note Off ch=5 par1=55 par2=64
Channel Event. t= 238 (46816) Note On ch=5 par1=61 par2=95
Channel Event. t= 230 (47046) Note Off ch=5 par1=61 par2=64
Channel Event. t= 10 (47056) Note On ch=5 par1=62 par2=89
Channel Event. t= 227 (47283) Note Off ch=5 par1=62 par2=64
Channel Event. t= 973 (48256) Note On ch=5 par1=43 par2=72
Channel Event. t= 0 (48256) Note On ch=5 par1=50 par2=56
Channel Event. t= 240 (48496) Note On ch=5 par1=54 par2=54
Channel Event. t= 237 (48733) Note Off ch=5 par1=50 par2=64
Channel Event. t= 3 (48736) Note On ch=5 par1=57 par2=60
Channel Event. t= 20 (48756) Note Off ch=5 par1=54 par2=64
Channel Event. t= 220 (48976) Note On ch=5 par1=54 par2=41
Channel Event. t= 160 (49136) Note Off ch=5 par1=57 par2=64
Channel Event. t= 80 (49216) Note On ch=5 par1=50 par2=70
Channel Event. t= 2 (49218) Note Off ch=5 par1=54 par2=64
Channel Event. t= 213 (49431) Note Off ch=5 par1=50 par2=64
Channel Event. t= 25 (49456) Note On ch=5 par1=55 par2=69
Channel Event. t= 240 (49696) Note On ch=5 par1=59 par2=65
Channel Event. t= 50 (49746) Note Off ch=5 par1=55 par2=64
Channel Event. t= 190 (49936) Note On ch=5 par1=55 par2=66
Channel Event. t= 57 (49993) Note Off ch=5 par1=59 par2=64
Channel Event. t= 170 (50163) Note Off ch=5 par1=55 par2=64
Channel Event. t= 13 (50176) Note On ch=5 par1=48 par2=83
Channel Event. t= 0 (50176) Note On ch=5 par1=52 par2=37
Channel Event. t= 77 (50253) Note Off ch=5 par1=43 par2=64
Channel Event. t= 163 (50416) Note On ch=5 par1=55 par2=59
Channel Event. t= 85 (50501) Note Off ch=5 par1=52 par2=64
Channel Event. t= 155 (50656) Note On ch=5 par1=60 par2=67
Channel Event. t= 5 (50661) Note Off ch=5 par1=55 par2=64
Channel Event. t= 235 (50896) Note On ch=5 par1=55 par2=49
Channel Event. t= 30 (50926) Note Off ch=5 par1=60 par2=64
Channel Event. t= 210 (51136) Note On ch=5 par1=52 par2=63
Channel Event. t= 5 (51141) Note Off ch=5 par1=55 par2=64
Channel Event. t= 235 (51376) Note On ch=5 par1=55 par2=63
Channel Event. t= 30 (51406) Note Off ch=5 par1=52 par2=64
Channel Event. t= 210 (51616) Note On ch=5 par1=60 par2=69
Channel Event. t= 2 (51618) Note Off ch=5 par1=55 par2=64
Channel Event. t= 238 (51856) Note On ch=5 par1=55 par2=64
Channel Event. t= 12 (51868) Note Off ch=5 par1=60 par2=64
Channel Event. t= 173 (52041) Note Off ch=5 par1=55 par2=64
Channel Event. t= 55 (52096) Note On ch=5 par1=36 par2=66
Channel Event. t= 0 (52096) Note On ch=5 par1=55 par2=79
Channel Event. t= 10 (52106) Note Off ch=5 par1=48 par2=64
Channel Event. t= 230 (52336) Note On ch=5 par1=59 par2=64
Channel Event. t= 15 (52351) Note Off ch=5 par1=55 par2=64
Channel Event. t= 225 (52576) Note On ch=5 par1=62 par2=65
Channel Event. t= 5 (52581) Note Off ch=5 par1=59 par2=64
Channel Event. t= 235 (52816) Note On ch=5 par1=59 par2=63
Channel Event. t= 15 (52831) Note Off ch=5 par1=62 par2=64
Channel Event. t= 225 (53056) Note On ch=5 par1=55 par2=76
Channel Event. t= 20 (53076) Note Off ch=5 par1=59 par2=64
Channel Event. t= 217 (53293) Note Off ch=5 par1=55 par2=64
Channel Event. t= 3 (53296) Note On ch=5 par1=60 par2=71
Channel Event. t= 240 (53536) Note On ch=5 par1=64 par2=71
Channel Event. t= 5 (53541) Note Off ch=5 par1=60 par2=64
Channel Event. t= 235 (53776) Note On ch=5 par1=60 par2=66
Channel Event. t= 20 (53796) Note Off ch=5 par1=64 par2=64
Channel Event. t= 180 (53976) Note Off ch=5 par1=60 par2=64
Channel Event. t= 40 (54016) Note On ch=5 par1=41 par2=69
Channel Event. t= 0 (54016) Note On ch=5 par1=57 par2=74
Channel Event. t= 82 (54098) Note Off ch=5 par1=36 par2=64
Channel Event. t= 145 (54243) Note Off ch=5 par1=57 par2=64
Channel Event. t= 13 (54256) Note On ch=5 par1=60 par2=60
Channel Event. t= 240 (54496) Note On ch=5 par1=57 par2=64
Channel Event. t= 30 (54526) Note Off ch=5 par1=60 par2=64
Channel Event. t= 210 (54736) Note On ch=5 par1=53 par2=71
Channel Event. t= 22 (54758) Note Off ch=5 par1=57 par2=64
Channel Event. t= 163 (54921) Note Off ch=5 par1=53 par2=64
Channel Event. t= 55 (54976) Note On ch=5 par1=57 par2=68
Channel Event. t= 240 (55216) Note On ch=5 par1=60 par2=61
Channel Event. t= 10 (55226) Note Off ch=5 par1=57 par2=64
Channel Event. t= 230 (55456) Note On ch=5 par1=57 par2=58
Channel Event. t= 32 (55488) Note Off ch=5 par1=60 par2=64
Channel Event. t= 208 (55696) Note On ch=5 par1=53 par2=63
Channel Event. t= 27 (55723) Note Off ch=5 par1=57 par2=64
Channel Event. t= 163 (55886) Note Off ch=5 par1=53 par2=64
Channel Event. t= 50 (55936) Note On ch=5 par1=57 par2=78
Channel Event. t= 240 (56176) Note On ch=5 par1=60 par2=71
Channel Event. t= 12 (56188) Note Off ch=5 par1=57 par2=64
Channel Event. t= 228 (56416) Note On ch=5 par1=57 par2=77
Channel Event. t= 22 (56438) Note Off ch=5 par1=60 par2=64
Channel Event. t= 218 (56656) Note On ch=5 par1=53 par2=71
Channel Event. t= 25 (56681) Note Off ch=5 par1=57 par2=64
Channel Event. t= 192 (56873) Note Off ch=5 par1=53 par2=64
Channel Event. t= 23 (56896) Note On ch=5 par1=57 par2=73
Channel Event. t= 240 (57136) Note On ch=5 par1=60 par2=55
Channel Event. t= 17 (57153) Note Off ch=5 par1=57 par2=64
Channel Event. t= 200 (57353) Note Off ch=5 par1=60 par2=64
Channel Event. t= 23 (57376) Note On ch=5 par1=53 par2=82
Channel Event. t= 280 (57656) Note Off ch=5 par1=53 par2=64
Channel Event. t= 107 (57763) Note Off ch=5 par1=41 par2=64
Channel Event. t= 93 (57856) Note On ch=5 par1=41 par2=83
Channel Event. t= 0 (57856) Note On ch=5 par1=48 par2=87
Channel Event. t= 240 (58096) Note On ch=5 par1=53 par2=69
Channel Event. t= 17 (58113) Note Off ch=5 par1=48 par2=64
Channel Event. t= 223 (58336) Note On ch=5 par1=57 par2=71
Channel Event. t= 7 (58343) Note Off ch=5 par1=53 par2=64
Channel Event. t= 233 (58576) Note On ch=5 par1=53 par2=58
Channel Event. t= 47 (58623) Note Off ch=5 par1=57 par2=64
Channel Event. t= 193 (58816) Note On ch=5 par1=36 par2=78
Channel Event. t= 0 (58816) Note On ch=5 par1=48 par2=79
Channel Event. t= 2 (58818) Note Off ch=5 par1=53 par2=64
Channel Event. t= 28 (58846) Note Off ch=5 par1=41 par2=64
Channel Event. t= 210 (59056) Note On ch=5 par1=53 par2=74
Channel Event. t= 5 (59061) Note Off ch=5 par1=48 par2=64
Channel Event. t= 235 (59296) Note Off ch=5 par1=53 par2=64
Channel Event. t= 0 (59296) Note On ch=5 par1=57 par2=72
Channel Event. t= 240 (59536) Note On ch=5 par1=53 par2=63
Channel Event. t= 27 (59563) Note Off ch=5 par1=57 par2=64
Channel Event. t= 165 (59728) Note Off ch=5 par1=53 par2=64
Channel Event. t= 48 (59776) Note On ch=5 par1=41 par2=70
Channel Event. t= 0 (59776) Note On ch=5 par1=48 par2=83
Channel Event. t= 47 (59823) Note Off ch=5 par1=36 par2=64
Channel Event. t= 193 (60016) Note On ch=5 par1=53 par2=73
Channel Event. t= 27 (60043) Note Off ch=5 par1=48 par2=64
Channel Event. t= 213 (60256) Note On ch=5 par1=57 par2=60
Channel Event. t= 12 (60268) Note Off ch=5 par1=53 par2=64
Channel Event. t= 228 (60496) Note On ch=5 par1=53 par2=66
Channel Event. t= 40 (60536) Note Off ch=5 par1=57 par2=64
Channel Event. t= 165 (60701) Note Off ch=5 par1=53 par2=64
Channel Event. t= 35 (60736) Note On ch=5 par1=36 par2=79
Channel Event. t= 0 (60736) Note On ch=5 par1=48 par2=79
Channel Event. t= 57 (60793) Note Off ch=5 par1=41 par2=64
Channel Event. t= 183 (60976) Note On ch=5 par1=53 par2=74
Channel Event. t= 15 (60991) Note Off ch=5 par1=48 par2=64
Channel Event. t= 225 (61216) Note On ch=5 par1=57 par2=69
Channel Event. t= 5 (61221) Note Off ch=5 par1=53 par2=64
Channel Event. t= 235 (61456) Note On ch=5 par1=53 par2=74
Channel Event. t= 27 (61483) Note Off ch=5 par1=57 par2=64
Channel Event. t= 148 (61631) Note Off ch=5 par1=53 par2=64
Channel Event. t= 65 (61696) Note On ch=5 par1=37 par2=84
Channel Event. t= 0 (61696) Note On ch=5 par1=49 par2=89
Channel Event. t= 72 (61768) Note Off ch=5 par1=36 par2=64
Channel Event. t= 168 (61936) Note On ch=5 par1=53 par2=73
Channel Event. t= 17 (61953) Note Off ch=5 par1=49 par2=64
Channel Event. t= 223 (62176) Note On ch=5 par1=56 par2=79
Channel Event. t= 15 (62191) Note Off ch=5 par1=53 par2=64
Channel Event. t= 225 (62416) Note On ch=5 par1=53 par2=78
Channel Event. t= 12 (62428) Note Off ch=5 par1=56 par2=64
Channel Event. t= 143 (62571) Note Off ch=5 par1=53 par2=64
Channel Event. t= 85 (62656) Note On ch=5 par1=44 par2=85
Channel Event. t= 0 (62656) Note On ch=5 par1=56 par2=87
Channel Event. t= 25 (62681) Note Off ch=5 par1=37 par2=64
Channel Event. t= 215 (62896) Note On ch=5 par1=61 par2=73
Channel Event. t= 20 (62916) Note Off ch=5 par1=56 par2=64
Channel Event. t= 220 (63136) Note On ch=5 par1=65 par2=76
Channel Event. t= 2 (63138) Note Off ch=5 par1=61 par2=64
Channel Event. t= 238 (63376) Note On ch=5 par1=61 par2=68
Channel Event. t= 45 (63421) Note Off ch=5 par1=65 par2=64
Channel Event. t= 127 (63548) Note Off ch=5 par1=61 par2=64
Channel Event. t= 68 (63616) Note On ch=5 par1=49 par2=81
Channel Event. t= 0 (63616) Note On ch=5 par1=56 par2=72
Channel Event. t= 42 (63658) Note Off ch=5 par1=44 par2=64
Channel Event. t= 198 (63856) Note On ch=5 par1=61 par2=70
Channel Event. t= 42 (63898) Note Off ch=5 par1=56 par2=64
Channel Event. t= 198 (64096) Note On ch=5 par1=65 par2=63
Channel Event. t= 5 (64101) Note Off ch=5 par1=61 par2=64
Channel Event. t= 235 (64336) Note On ch=5 par1=61 par2=72
Channel Event. t= 17 (64353) Note Off ch=5 par1=65 par2=64
Channel Event. t= 200 (64553) Note Off ch=5 par1=61 par2=64
Channel Event. t= 23 (64576) Note On ch=5 par1=44 par2=84
Channel Event. t= 0 (64576) Note On ch=5 par1=56 par2=83
Channel Event. t= 40 (64616) Note Off ch=5 par1=49 par2=64
Channel Event. t= 200 (64816) Note On ch=5 par1=61 par2=72
Channel Event. t= 27 (64843) Note Off ch=5 par1=56 par2=64
Channel Event. t= 200 (65043) Note Off ch=5 par1=61 par2=64
Channel Event. t= 13 (65056) Note On ch=5 par1=65 par2=56
Channel Event. t= 240 (65296) Note On ch=5 par1=61 par2=70
Channel Event. t= 25 (65321) Note Off ch=5 par1=65 par2=64
Channel Event. t= 152 (65473) Note Off ch=5 par1=61 par2=64
Channel Event. t= 63 (65536) Note On ch=5 par1=37 par2=80
Channel Event. t= 0 (65536) Note On ch=5 par1=49 par2=77
Channel Event. t= 0 (65536) Note On ch=5 par1=53 par2=72
Channel Event. t= 52 (65588) Note Off ch=5 par1=44 par2=64
Channel Event. t= 188 (65776) Note On ch=5 par1=56 par2=73
Channel Event. t= 32 (65808) Note Off ch=5 par1=53 par2=64
Channel Event. t= 208 (66016) Note On ch=5 par1=61 par2=74
Channel Event. t= 27 (66043) Note Off ch=5 par1=56 par2=64
Channel Event. t= 213 (66256) Note On ch=5 par1=56 par2=71
Channel Event. t= 32 (66288) Note Off ch=5 par1=61 par2=64
Channel Event. t= 200 (66488) Note Off ch=5 par1=56 par2=64
Channel Event. t= 8 (66496) Note On ch=5 par1=44 par2=82
Channel Event. t= 0 (66496) Note On ch=5 par1=53 par2=80
Channel Event. t= 25 (66521) Note Off ch=5 par1=37 par2=64
Channel Event. t= 7 (66528) Note Off ch=5 par1=49 par2=64
Channel Event. t= 208 (66736) Note On ch=5 par1=56 par2=70
Channel Event. t= 30 (66766) Note Off ch=5 par1=53 par2=64
Channel Event. t= 200 (66966) Note Off ch=5 par1=56 par2=64
Channel Event. t= 10 (66976) Note On ch=5 par1=61 par2=70
Channel Event. t= 240 (67216) Note On ch=5 par1=56 par2=71
Channel Event. t= 12 (67228) Note Off ch=5 par1=61 par2=64
Channel Event. t= 205 (67433) Note Off ch=5 par1=56 par2=64
Channel Event. t= 23 (67456) Note Off ch=5 par1=44 par2=64
Channel Event. t= 0 (67456) Note On ch=5 par1=44 par2=33
Channel Event. t= 0 (67456) Note On ch=5 par1=51 par2=80
Channel Event. t= 2 (67458) Note Off ch=5 par1=44 par2=64
Channel Event. t= 238 (67696) Note On ch=5 par1=56 par2=65
Channel Event. t= 10 (67706) Note Off ch=5 par1=51 par2=64
Channel Event. t= 230 (67936) Note On ch=5 par1=51 par2=71
Channel Event. t= 30 (67966) Note Off ch=5 par1=56 par2=64
Channel Event. t= 210 (68176) Note On ch=5 par1=48 par2=67
Channel Event. t= 2 (68178) Note Off ch=5 par1=51 par2=64
Channel Event. t= 238 (68416) Note On ch=5 par1=39 par2=79
Channel Event. t= 0 (68416) Note On ch=5 par1=51 par2=70
Channel Event. t= 30 (68446) Note Off ch=5 par1=48 par2=64
Channel Event. t= 210 (68656) Note On ch=5 par1=56 par2=67
Channel Event. t= 242 (68898) Note Off ch=5 par1=56 par2=64
Channel Event. t= 238 (69136) Note On ch=5 par1=48 par2=69
Channel Event. t= 190 (69326) Note Off ch=5 par1=48 par2=64
Channel Event. t= 50 (69376) Note On ch=5 par1=44 par2=85
Channel Event. t= 37 (69413) Note Off ch=5 par1=39 par2=64
Channel Event. t= 5 (69418) Note Off ch=5 par1=51 par2=64
Channel Event. t= 198 (69616) Note On ch=5 par1=56 par2=65
Channel Event. t= 240 (69856) Note On ch=5 par1=60 par2=54
Channel Event. t= 7 (69863) Note Off ch=5 par1=56 par2=64
Channel Event. t= 233 (70096) Note On ch=5 par1=56 par2=65
Channel Event. t= 32 (70128) Note Off ch=5 par1=60 par2=64
Channel Event. t= 190 (70318) Note Off ch=5 par1=56 par2=64
Channel Event. t= 18 (70336) Note On ch=5 par1=39 par2=89
Channel Event. t= 0 (70336) Note On ch=5 par1=51 par2=63
Channel Event. t= 30 (70366) Note Off ch=5 par1=44 par2=64
Channel Event. t= 210 (70576) Note On ch=5 par1=56 par2=61
Channel Event. t= 25 (70601) Note Off ch=5 par1=51 par2=64
Channel Event. t= 215 (70816) Note On ch=5 par1=60 par2=61
Channel Event. t= 7 (70823) Note Off ch=5 par1=56 par2=64
Channel Event. t= 233 (71056) Note On ch=5 par1=56 par2=56
Channel Event. t= 27 (71083) Note Off ch=5 par1=60 par2=64
Channel Event. t= 213 (71296) Note On ch=5 par1=44 par2=88
Channel Event. t= 0 (71296) Note On ch=5 par1=51 par2=71
Channel Event. t= 5 (71301) Note Off ch=5 par1=56 par2=64
Channel Event. t= 10 (71311) Note Off ch=5 par1=39 par2=64
Channel Event. t= 225 (71536) Note On ch=5 par1=56 par2=58
Channel Event. t= 17 (71553) Note Off ch=5 par1=51 par2=64
Channel Event. t= 223 (71776) Note On ch=5 par1=60 par2=62
Channel Event. t= 12 (71788) Note Off ch=5 par1=56 par2=64
Channel Event. t= 228 (72016) Note On ch=5 par1=56 par2=60
Channel Event. t= 12 (72028) Note Off ch=5 par1=60 par2=64
Channel Event. t= 220 (72248) Note Off ch=5 par1=56 par2=64
Channel Event. t= 8 (72256) Note On ch=5 par1=39 par2=93
Channel Event. t= 0 (72256) Note On ch=5 par1=51 par2=76
Channel Event. t= 40 (72296) Note Off ch=5 par1=44 par2=64
Channel Event. t= 200 (72496) Note On ch=5 par1=56 par2=65
Channel Event. t= 27 (72523) Note Off ch=5 par1=51 par2=64
Channel Event. t= 203 (72726) Note Off ch=5 par1=56 par2=64
Channel Event. t= 10 (72736) Note On ch=5 par1=60 par2=63
Channel Event. t= 240 (72976) Note On ch=5 par1=56 par2=65
Channel Event. t= 62 (73038) Note Off ch=5 par1=60 par2=64
Channel Event. t= 178 (73216) Note On ch=5 par1=40 par2=82
Channel Event. t= 0 (73216) Note On ch=5 par1=47 par2=73
Channel Event. t= 20 (73236) Note Off ch=5 par1=56 par2=64
Channel Event. t= 7 (73243) Note Off ch=5 par1=39 par2=64
Channel Event. t= 213 (73456) Note On ch=5 par1=52 par2=64
Channel Event. t= 10 (73466) Note Off ch=5 par1=47 par2=64
Channel Event. t= 230 (73696) Note On ch=5 par1=55 par2=69
Channel Event. t= 7 (73703) Note Off ch=5 par1=52 par2=64
Channel Event. t= 233 (73936) Note On ch=5 par1=52 par2=59
Channel Event. t= 22 (73958) Note Off ch=5 par1=55 par2=64
Channel Event. t= 218 (74176) Note On ch=5 par1=47 par2=59
Channel Event. t= 5 (74181) Note Off ch=5 par1=52 par2=64
Channel Event. t= 235 (74416) Note On ch=5 par1=52 par2=58
Channel Event. t= 12 (74428) Note Off ch=5 par1=47 par2=64
Channel Event. t= 228 (74656) Note Off ch=5 par1=52 par2=64
Channel Event. t= 0 (74656) Note On ch=5 par1=55 par2=66
Channel Event. t= 240 (74896) Note On ch=5 par1=52 par2=61
Channel Event. t= 20 (74916) Note Off ch=5 par1=55 par2=64
Channel Event. t= 190 (75106) Note Off ch=5 par1=40 par2=64
Channel Event. t= 7 (75113) Note Off ch=5 par1=52 par2=64
Channel Event. t= 23 (75136) Note On ch=5 par1=40 par2=83
Channel Event. t= 0 (75136) Note On ch=5 par1=47 par2=75
Channel Event. t= 240 (75376) Note On ch=5 par1=52 par2=68
Channel Event. t= 30 (75406) Note Off ch=5 par1=47 par2=64
Channel Event. t= 210 (75616) Note On ch=5 par1=55 par2=72
Channel Event. t= 2 (75618) Note Off ch=5 par1=52 par2=64
Channel Event. t= 238 (75856) Note On ch=5 par1=52 par2=62
Channel Event. t= 12 (75868) Note Off ch=5 par1=55 par2=64
Channel Event. t= 188 (76056) Note Off ch=5 par1=52 par2=64
Channel Event. t= 40 (76096) Note On ch=5 par1=43 par2=76
Channel Event. t= 0 (76096) Note On ch=5 par1=50 par2=76
Channel Event. t= 40 (76136) Note Off ch=5 par1=40 par2=64
Channel Event. t= 200 (76336) Note On ch=5 par1=55 par2=61
Channel Event. t= 12 (76348) Note Off ch=5 par1=50 par2=64
Channel Event. t= 228 (76576) Note On ch=5 par1=59 par2=74
Channel Event. t= 12 (76588) Note Off ch=5 par1=55 par2=64
Channel Event. t= 228 (76816) Note On ch=5 par1=55 par2=61
Channel Event. t= 70 (76886) Note Off ch=5 par1=59 par2=64
Channel Event. t= 147 (77033) Note Off ch=5 par1=55 par2=64
Channel Event. t= 23 (77056) Note On ch=5 par1=36 par2=79
Channel Event. t= 0 (77056) Note On ch=5 par1=52 par2=73
Channel Event. t= 62 (77118) Note Off ch=5 par1=43 par2=64
Channel Event. t= 160 (77278) Note Off ch=5 par1=52 par2=64
Channel Event. t= 18 (77296) Note On ch=5 par1=55 par2=50
Channel Event. t= 240 (77536) Note On ch=5 par1=52 par2=63
Channel Event. t= 40 (77576) Note Off ch=5 par1=55 par2=64
Channel Event. t= 192 (77768) Note Off ch=5 par1=52 par2=64
Channel Event. t= 8 (77776) Note On ch=5 par1=48 par2=56
Channel Event. t= 225 (78001) Note Off ch=5 par1=48 par2=64
Channel Event. t= 15 (78016) Note On ch=5 par1=52 par2=63
Channel Event. t= 230 (78246) Note Off ch=5 par1=52 par2=64
Channel Event. t= 10 (78256) Note On ch=5 par1=48 par2=49
Channel Event. t= 240 (78496) Note On ch=5 par1=43 par2=61
Channel Event. t= 42 (78538) Note Off ch=5 par1=48 par2=64
Channel Event. t= 193 (78731) Note Off ch=5 par1=43 par2=64
Channel Event. t= 5 (78736) Note On ch=5 par1=40 par2=71
Channel Event. t= 175 (78911) Note Off ch=5 par1=40 par2=64
Channel Event. t= 65 (78976) Note On ch=5 par1=39 par2=83
Channel Event. t= 0 (78976) Note On ch=5 par1=46 par2=74
Channel Event. t= 45 (79021) Note Off ch=5 par1=36 par2=64
Channel Event. t= 195 (79216) Note Off ch=5 par1=46 par2=64
Channel Event. t= 0 (79216) Note On ch=5 par1=51 par2=61
Channel Event. t= 240 (79456) Note On ch=5 par1=54 par2=80
Channel Event. t= 45 (79501) Note Off ch=5 par1=51 par2=64
Channel Event. t= 195 (79696) Note On ch=5 par1=51 par2=68
Channel Event. t= 27 (79723) Note Off ch=5 par1=54 par2=64
Channel Event. t= 213 (79936) Note On ch=5 par1=42 par2=90
Channel Event. t= 0 (79936) Note On ch=5 par1=49 par2=102
Channel Event. t= 45 (79981) Note Off ch=5 par1=51 par2=64
Channel Event. t= 7 (79988) Note Off ch=5 par1=39 par2=64
Channel Event. t= 188 (80176) Note On ch=5 par1=54 par2=79
Channel Event. t= 5 (80181) Note Off ch=5 par1=49 par2=64
Channel Event. t= 235 (80416) Note On ch=5 par1=58 par2=70
Channel Event. t= 7 (80423) Note Off ch=5 par1=54 par2=64
Channel Event. t= 233 (80656) Note On ch=5 par1=54 par2=55
Channel Event. t= 17 (80673) Note Off ch=5 par1=58 par2=64
Channel Event. t= 215 (80888) Note Off ch=5 par1=54 par2=64
Channel Event. t= 8 (80896) Note On ch=5 par1=35 par2=91
Channel Event. t= 0 (80896) Note On ch=5 par1=51 par2=86
Channel Event. t= 47 (80943) Note Off ch=5 par1=42 par2=64
Channel Event. t= 190 (81133) Note Off ch=5 par1=51 par2=64
Channel Event. t= 3 (81136) Note On ch=5 par1=54 par2=68
Channel Event. t= 240 (81376) Note On ch=5 par1=51 par2=78
Channel Event. t= 55 (81431) Note Off ch=5 par1=54 par2=64
Channel Event. t= 177 (81608) Note Off ch=5 par1=51 par2=64
Channel Event. t= 8 (81616) Note On ch=5 par1=47 par2=76
Channel Event. t= 240 (81856) Note On ch=5 par1=51 par2=73
Channel Event. t= 37 (81893) Note Off ch=5 par1=47 par2=64
Channel Event. t= 203 (82096) Note On ch=5 par1=47 par2=71
Channel Event. t= 17 (82113) Note Off ch=5 par1=51 par2=64
Channel Event. t= 223 (82336) Note On ch=5 par1=42 par2=71
Channel Event. t= 15 (82351) Note Off ch=5 par1=47 par2=64
Channel Event. t= 210 (82561) Note Off ch=5 par1=42 par2=64
Channel Event. t= 15 (82576) Note On ch=5 par1=39 par2=86
Channel Event. t= 205 (82781) Note Off ch=5 par1=39 par2=64
Channel Event. t= 35 (82816) Note On ch=5 par1=38 par2=81
Channel Event. t= 0 (82816) Note On ch=5 par1=45 par2=79
Channel Event. t= 42 (82858) Note Off ch=5 par1=35 par2=64
Channel Event. t= 198 (83056) Note On ch=5 par1=50 par2=61
Channel Event. t= 17 (83073) Note Off ch=5 par1=45 par2=64
Channel Event. t= 223 (83296) Note On ch=5 par1=53 par2=44
Channel Event. t= 12 (83308) Note Off ch=5 par1=50 par2=64
Channel Event. t= 228 (83536) Note On ch=5 par1=50 par2=72
Channel Event. t= 35 (83571) Note Off ch=5 par1=53 par2=64
Channel Event. t= 157 (83728) Note Off ch=5 par1=50 par2=64
Channel Event. t= 48 (83776) Note On ch=5 par1=41 par2=76
Channel Event. t= 0 (83776) Note On ch=5 par1=48 par2=57
Channel Event. t= 10 (83786) Note Off ch=5 par1=38 par2=64
Channel Event. t= 230 (84016) Note On ch=5 par1=53 par2=74
Channel Event. t= 5 (84021) Note Off ch=5 par1=48 par2=64
Channel Event. t= 235 (84256) Note On ch=5 par1=57 par2=65
Channel Event. t= 22 (84278) Note Off ch=5 par1=53 par2=64
Channel Event. t= 218 (84496) Note On ch=5 par1=53 par2=69
Channel Event. t= 30 (84526) Note Off ch=5 par1=57 par2=64
Channel Event. t= 182 (84708) Note Off ch=5 par1=53 par2=64
Channel Event. t= 28 (84736) Note On ch=5 par1=34 par2=90
Channel Event. t= 0 (84736) Note On ch=5 par1=50 par2=77
Channel Event. t= 42 (84778) Note Off ch=5 par1=41 par2=64
Channel Event. t= 185 (84963) Note Off ch=5 par1=50 par2=64
Channel Event. t= 13 (84976) Note On ch=5 par1=53 par2=66
Channel Event. t= 240 (85216) Note On ch=5 par1=50 par2=66
Channel Event. t= 22 (85238) Note Off ch=5 par1=53 par2=64
Channel Event. t= 218 (85456) Note On ch=5 par1=46 par2=68
Channel Event. t= 15 (85471) Note Off ch=5 par1=50 par2=64
Channel Event. t= 215 (85686) Note Off ch=5 par1=46 par2=64
Channel Event. t= 10 (85696) Note Off ch=5 par1=34 par2=64
Channel Event. t= 0 (85696) Note On ch=5 par1=41 par2=72
Channel Event. t= 240 (85936) Note On ch=5 par1=46 par2=74
Channel Event. t= 25 (85961) Note Off ch=5 par1=41 par2=64
Channel Event. t= 215 (86176) Note On ch=5 par1=50 par2=75
Channel Event. t= 12 (86188) Note Off ch=5 par1=46 par2=64
Channel Event. t= 228 (86416) Note On ch=5 par1=53 par2=81
Channel Event. t= 45 (86461) Note Off ch=5 par1=50 par2=64
Channel Event. t= 195 (86656) Note Off ch=5 par1=53 par2=64
Channel Event. t= 0 (86656) 
Meta Event. Type: 0x2f (47dec), End of Track (0 bytes): 
track #17
track size: 3327
Channel Event. t= 0 (0) 
Meta Event. Type: 0x3 (3dec), Sequence/Track Name (20 bytes): Flute               
Channel Event. t= 0 (0) 
Meta Event. Type: 0x21 (33dec), MIDI Port (1 bytes): 0
Channel Event. t= 0 (0) 
Meta Event. Type: 0x20 (32dec), MIDI Channel Prefix (1 bytes): 1
Channel Event. t= 0 (0) Controller ch=1 par1=10 (Pan) par2=64
Channel Event. t= 0 (0) Controller ch=1 par1=91 (Effects 2 Depth (formerly Tremolo Depth)) par2=127
Channel Event. t= 0 (0) Program Change ch=1 par1=72 par2=-118
Channel Event. t= 14720 (14720) Controller ch=1 par1=10 (Pan) par2=120
Channel Event. t= 17250 (31970) Controller ch=1 par1=7 (Main Volume) par2=60
Channel Event. t= 30 (32000) Note On ch=1 par1=79 par2=110
Channel Event. t= 452 (32452) Note On ch=1 par1=84 par2=106
Channel Event. t= 40 (32492) Note Off ch=1 par1=79 par2=64
Channel Event. t= 325 (32817) Note On ch=1 par1=88 par2=98
Channel Event. t= 10 (32827) Note Off ch=1 par1=84 par2=64
Channel Event. t= 95 (32922) Note Off ch=1 par1=88 par2=64
Channel Event. t= 5 (32927) Note On ch=1 par1=91 par2=100
Channel Event. t= 80 (33007) Note Off ch=1 par1=91 par2=64
Channel Event. t= 158 (33165) Note On ch=1 par1=93 par2=91
Channel Event. t= 62 (33227) Note Off ch=1 par1=93 par2=64
Channel Event. t= 175 (33402) Note On ch=1 par1=91 par2=101
Channel Event. t= 388 (33790) Note On ch=1 par1=88 par2=97
Channel Event. t= 5 (33795) Note Off ch=1 par1=91 par2=64
Channel Event. t= 100 (33895) Note On ch=1 par1=91 par2=99
Channel Event. t= 7 (33902) Note Off ch=1 par1=88 par2=64
Channel Event. t= 60 (33962) Note Off ch=1 par1=91 par2=64
Channel Event. t= 163 (34125) Note On ch=1 par1=93 par2=98
Channel Event. t= 60 (34185) Note Off ch=1 par1=93 par2=64
Channel Event. t= 187 (34372) Note On ch=1 par1=95 par2=102
Channel Event. t= 360 (34732) Note On ch=1 par1=96 par2=97
Channel Event. t= 23 (34755) Note Off ch=1 par1=95 par2=64
Channel Event. t= 100 (34855) Note On ch=1 par1=91 par2=70
Channel Event. t= 47 (34902) Note Off ch=1 par1=96 par2=64
Channel Event. t= 183 (35085) Note On ch=1 par1=88 par2=103
Channel Event. t= 45 (35130) Note Off ch=1 par1=91 par2=64
Channel Event. t= 65 (35195) Note Off ch=1 par1=88 par2=64
Channel Event. t= 132 (35327) Note On ch=1 par1=84 par2=96
Channel Event. t= 70 (35397) Note Off ch=1 par1=84 par2=64
Channel Event. t= 173 (35570) Note On ch=1 par1=86 par2=104
Channel Event. t= 72 (35642) Note Off ch=1 par1=86 par2=64
Channel Event. t= 188 (35830) Note On ch=1 par1=87 par2=111
Channel Event. t= 427 (36257) Note Off ch=1 par1=87 par2=64
Channel Event. t= 55 (36312) Note On ch=1 par1=87 par2=105
Channel Event. t= 225 (36537) Note Off ch=1 par1=87 par2=64
Channel Event. t= 0 (36537) Note On ch=1 par1=91 par2=107
Channel Event. t= 235 (36772) Note Off ch=1 par1=91 par2=64
Channel Event. t= 25 (36797) Note On ch=1 par1=87 par2=107
Channel Event. t= 433 (37230) Note Off ch=1 par1=87 par2=64
Channel Event. t= 45 (37275) Note On ch=1 par1=87 par2=105
Channel Event. t= 212 (37487) Note Off ch=1 par1=87 par2=64
Channel Event. t= 3 (37490) Note On ch=1 par1=91 par2=103
Channel Event. t= 230 (37720) Note Off ch=1 par1=91 par2=64
Channel Event. t= 2 (37722) Note On ch=1 par1=87 par2=107
Channel Event. t= 490 (38212) Note On ch=1 par1=82 par2=112
Channel Event. t= 25 (38237) Note Off ch=1 par1=87 par2=64
Channel Event. t= 468 (38705) Note On ch=1 par1=70 par2=109
Channel Event. t= 17 (38722) Note Off ch=1 par1=82 par2=64
Channel Event. t= 633 (39355) Note Off ch=1 par1=70 par2=64
Channel Event. t= 9265 (48620) Controller ch=1 par1=7 (Main Volume) par2=90
Channel Event. t= 185 (48805) Note On ch=1 par1=67 par2=83
Channel Event. t= 90 (48895) Note Off ch=1 par1=67 par2=64
Channel Event. t= 135 (49030) Note On ch=1 par1=79 par2=79
Channel Event. t= 70 (49100) Note Off ch=1 par1=79 par2=64
Channel Event. t= 165 (49265) Note On ch=1 par1=93 par2=93
Channel Event. t= 25 (49290) Note On ch=1 par1=91 par2=84
Channel Event. t= 67 (49357) Note Off ch=1 par1=93 par2=64
Channel Event. t= 20 (49377) Note Off ch=1 par1=91 par2=64
Channel Event. t= 135 (49512) Note On ch=1 par1=79 par2=79
Channel Event. t= 65 (49577) Note Off ch=1 par1=79 par2=64
Channel Event. t= 183 (49760) Note On ch=1 par1=93 par2=87
Channel Event. t= 35 (49795) Note On ch=1 par1=92 par2=87
Channel Event. t= 55 (49850) Note Off ch=1 par1=93 par2=64
Channel Event. t= 7 (49857) Note Off ch=1 par1=92 par2=64
Channel Event. t= 138 (49995) Note On ch=1 par1=92 par2=94
Channel Event. t= 72 (50067) Note Off ch=1 par1=92 par2=64
Channel Event. t= 163 (50230) Note On ch=1 par1=92 par2=98
Channel Event. t= 62 (50292) Note Off ch=1 par1=92 par2=64
Channel Event. t= 173 (50465) Note On ch=1 par1=92 par2=99
Channel Event. t= 67 (50532) Note Off ch=1 par1=92 par2=64
Channel Event. t= 160 (50692) Note On ch=1 par1=93 par2=86
Channel Event. t= 20 (50712) Note On ch=1 par1=91 par2=97
Channel Event. t= 68 (50780) Note Off ch=1 par1=93 par2=64
Channel Event. t= 7 (50787) Note Off ch=1 par1=91 par2=64
Channel Event. t= 165 (50952) Note On ch=1 par1=79 par2=79
Channel Event. t= 65 (51017) Note Off ch=1 par1=79 par2=64
Channel Event. t= 198 (51215) Note On ch=1 par1=74 par2=93
Channel Event. t= 100 (51315) Note Off ch=1 par1=74 par2=64
Channel Event. t= 7 (51322) Note On ch=1 par1=75 par2=89
Channel Event. t= 93 (51415) Note Off ch=1 par1=75 par2=64
Channel Event. t= 5 (51420) Note On ch=1 par1=74 par2=77
Channel Event. t= 132 (51552) Note Off ch=1 par1=74 par2=64
Channel Event. t= 5 (51557) Note On ch=1 par1=72 par2=91
Channel Event. t= 98 (51655) Note Off ch=1 par1=72 par2=64
Channel Event. t= 42 (51697) Note On ch=1 par1=82 par2=98
Channel Event. t= 23 (51720) Note On ch=1 par1=83 par2=85
Channel Event. t= 72 (51792) Note Off ch=1 par1=82 par2=64
Channel Event. t= 155 (51947) Note Off ch=1 par1=83 par2=64
Channel Event. t= 8 (51955) Note On ch=1 par1=81 par2=79
Channel Event. t= 45 (52000) Note On ch=1 par1=83 par2=64
Channel Event. t= 5 (52005) Note Off ch=1 par1=81 par2=64
Channel Event. t= 62 (52067) Note On ch=1 par1=81 par2=84
Channel Event. t= 33 (52100) Note Off ch=1 par1=83 par2=64
Channel Event. t= 50 (52150) Note On ch=1 par1=79 par2=92
Channel Event. t= 12 (52162) Note Off ch=1 par1=81 par2=64
Channel Event. t= 205 (52367) Note Off ch=1 par1=79 par2=64
Channel Event. t= 25 (52392) Note On ch=1 par1=67 par2=92
Channel Event. t= 85 (52477) Note Off ch=1 par1=67 par2=64
Channel Event. t= 158 (52635) Note On ch=1 par1=72 par2=89
Channel Event. t= 97 (52732) Note Off ch=1 par1=72 par2=64
Channel Event. t= 135 (52867) Note On ch=1 par1=76 par2=89
Channel Event. t= 70 (52937) Note Off ch=1 par1=76 par2=64
Channel Event. t= 63 (53000) Controller ch=1 par1=10 (Pan) par2=20
Channel Event. t= 92 (53092) Note On ch=1 par1=93 par2=87
Channel Event. t= 23 (53115) Note On ch=1 par1=91 par2=98
Channel Event. t= 55 (53170) Note Off ch=1 par1=93 par2=64
Channel Event. t= 30 (53200) Note Off ch=1 par1=91 par2=64
Channel Event. t= 140 (53340) Note On ch=1 par1=76 par2=97
Channel Event. t= 70 (53410) Note Off ch=1 par1=76 par2=64
Channel Event. t= 182 (53592) Note On ch=1 par1=93 par2=93
Channel Event. t= 30 (53622) Note On ch=1 par1=92 par2=93
Channel Event. t= 63 (53685) Note Off ch=1 par1=93 par2=64
Channel Event. t= 15 (53700) Note Off ch=1 par1=92 par2=64
Channel Event. t= 137 (53837) Note On ch=1 par1=92 par2=103
Channel Event. t= 83 (53920) Note Off ch=1 par1=92 par2=64
Channel Event. t= 165 (54085) Note On ch=1 par1=92 par2=102
Channel Event. t= 80 (54165) Note Off ch=1 par1=92 par2=64
Channel Event. t= 155 (54320) Note On ch=1 par1=92 par2=99
Channel Event. t= 82 (54402) Note Off ch=1 par1=92 par2=64
Channel Event. t= 133 (54535) Note On ch=1 par1=93 par2=88
Channel Event. t= 25 (54560) Note On ch=1 par1=91 par2=102
Channel Event. t= 52 (54612) Note Off ch=1 par1=93 par2=64
Channel Event. t= 30 (54642) Note Off ch=1 par1=91 par2=64
Channel Event. t= 155 (54797) Note On ch=1 par1=76 par2=96
Channel Event. t= 58 (54855) Note Off ch=1 par1=76 par2=64
Channel Event. t= 195 (55050) Note On ch=1 par1=74 par2=94
Channel Event. t= 90 (55140) Note Off ch=1 par1=74 par2=64
Channel Event. t= 22 (55162) Note On ch=1 par1=75 par2=93
Channel Event. t= 120 (55282) Note On ch=1 par1=73 par2=94
Channel Event. t= 3 (55285) Note Off ch=1 par1=75 par2=64
Channel Event. t= 102 (55387) Note Off ch=1 par1=73 par2=64
Channel Event. t= 5 (55392) Note On ch=1 par1=71 par2=91
Channel Event. t= 65 (55457) Note Off ch=1 par1=71 par2=64
Channel Event. t= 55 (55512) Note On ch=1 par1=91 par2=102
Channel Event. t= 190 (55702) Note Off ch=1 par1=91 par2=64
Channel Event. t= 60 (55762) Note On ch=1 par1=79 par2=90
Channel Event. t= 23 (55785) Note On ch=1 par1=81 par2=85
Channel Event. t= 47 (55832) Note Off ch=1 par1=79 par2=64
Channel Event. t= 25 (55857) Note Off ch=1 par1=81 par2=64
Channel Event. t= 158 (56015) Note On ch=1 par1=79 par2=98
Channel Event. t= 387 (56402) Note Off ch=1 par1=79 par2=64
Channel Event. t= 98 (56500) Note On ch=1 par1=77 par2=98
Channel Event. t= 237 (56737) Note Off ch=1 par1=77 par2=64
Channel Event. t= 223 (56960) Controller ch=1 par1=10 (Pan) par2=120
Channel Event. t= 145 (57105) Note On ch=1 par1=91 par2=100
Channel Event. t= 115 (57220) Note On ch=1 par1=88 par2=88
Channel Event. t= 47 (57267) Note Off ch=1 par1=91 par2=64
Channel Event. t= 80 (57347) Note On ch=1 par1=84 par2=91
Channel Event. t= 25 (57372) Note Off ch=1 par1=88 par2=64
Channel Event. t= 73 (57445) Note Off ch=1 par1=84 par2=64
Channel Event. t= 140 (57585) Note On ch=1 par1=91 par2=97
Channel Event. t= 90 (57675) Note On ch=1 par1=87 par2=90
Channel Event. t= 57 (57732) Note Off ch=1 par1=91 par2=64
Channel Event. t= 55 (57787) Note On ch=1 par1=83 par2=90
Channel Event. t= 20 (57807) Note Off ch=1 par1=87 par2=64
Channel Event. t= 95 (57902) Note Off ch=1 par1=83 par2=64
Channel Event. t= 143 (58045) Note On ch=1 par1=91 par2=96
Channel Event. t= 110 (58155) Note On ch=1 par1=88 par2=84
Channel Event. t= 40 (58195) Note Off ch=1 par1=91 par2=64
Channel Event. t= 90 (58285) Note On ch=1 par1=84 par2=94
Channel Event. t= 20 (58305) Note Off ch=1 par1=88 par2=64
Channel Event. t= 80 (58385) Note Off ch=1 par1=84 par2=64
Channel Event. t= 160 (58545) Note On ch=1 par1=91 par2=96
Channel Event. t= 105 (58650) Note On ch=1 par1=87 par2=88
Channel Event. t= 22 (58672) Note Off ch=1 par1=91 par2=64
Channel Event. t= 95 (58767) Note On ch=1 par1=83 par2=95
Channel Event. t= 23 (58790) Note Off ch=1 par1=87 par2=64
Channel Event. t= 90 (58880) Note Off ch=1 par1=83 par2=64
Channel Event. t= 0 (58880) Controller ch=1 par1=10 (Pan) par2=20
Channel Event. t= 130 (59010) Note On ch=1 par1=91 par2=102
Channel Event. t= 105 (59115) Note On ch=1 par1=88 par2=83
Channel Event. t= 45 (59160) Note Off ch=1 par1=91 par2=64
Channel Event. t= 70 (59230) Note On ch=1 par1=84 par2=90
Channel Event. t= 30 (59260) Note Off ch=1 par1=88 par2=64
Channel Event. t= 107 (59367) Note Off ch=1 par1=84 par2=64
Channel Event. t= 120 (59487) Note On ch=1 par1=91 par2=96
Channel Event. t= 123 (59610) Note On ch=1 par1=87 par2=94
Channel Event. t= 35 (59645) Note Off ch=1 par1=91 par2=64
Channel Event. t= 90 (59735) Note On ch=1 par1=83 par2=94
Channel Event. t= 10 (59745) Note Off ch=1 par1=87 par2=64
Channel Event. t= 112 (59857) Note Off ch=1 par1=83 par2=64
Channel Event. t= 135 (59992) Note On ch=1 par1=91 par2=94
Channel Event. t= 113 (60105) Note On ch=1 par1=88 par2=87
Channel Event. t= 35 (60140) Note Off ch=1 par1=91 par2=64
Channel Event. t= 90 (60230) Note On ch=1 par1=84 par2=94
Channel Event. t= 30 (60260) Note Off ch=1 par1=88 par2=64
Channel Event. t= 57 (60317) Note Off ch=1 par1=84 par2=64
Channel Event. t= 150 (60467) Note On ch=1 par1=91 par2=83
Channel Event. t= 110 (60577) Note On ch=1 par1=87 par2=94
Channel Event. t= 18 (60595) Note Off ch=1 par1=91 par2=64
Channel Event. t= 100 (60695) Note On ch=1 par1=83 par2=90
Channel Event. t= 7 (60702) Note Off ch=1 par1=87 par2=64
Channel Event. t= 70 (60772) Note Off ch=1 par1=83 par2=64
Channel Event. t= 28 (60800) Controller ch=1 par1=10 (Pan) par2=120
Channel Event. t= 12 (60812) Note On ch=1 par1=91 par2=97
Channel Event. t= 100 (60912) Note On ch=1 par1=86 par2=92
Channel Event. t= 10 (60922) Note Off ch=1 par1=91 par2=64
Channel Event. t= 113 (61035) Note On ch=1 par1=83 par2=94
Channel Event. t= 30 (61065) Note Off ch=1 par1=86 par2=64
Channel Event. t= 80 (61145) Note On ch=1 par1=79 par2=81
Channel Event. t= 10 (61155) Note Off ch=1 par1=83 par2=64
Channel Event. t= 102 (61257) Note On ch=1 par1=78 par2=102
Channel Event. t= 5 (61262) Note Off ch=1 par1=79 par2=64
Channel Event. t= 113 (61375) Note On ch=1 par1=79 par2=73
Channel Event. t= 12 (61387) Note Off ch=1 par1=78 par2=64
Channel Event. t= 110 (61497) Note On ch=1 par1=83 par2=93
Channel Event. t= 13 (61510) Note Off ch=1 par1=79 par2=64
Channel Event. t= 112 (61622) Note On ch=1 par1=86 par2=86
Channel Event. t= 18 (61640) Note Off ch=1 par1=83 par2=64
Channel Event. t= 90 (61730) Note On ch=1 par1=98 par2=93
Channel Event. t= 5 (61735) Note Off ch=1 par1=86 par2=64
Channel Event. t= 107 (61842) Note On ch=1 par1=93 par2=83
Channel Event. t= 3 (61845) Note Off ch=1 par1=98 par2=64
Channel Event. t= 127 (61972) Note On ch=1 par1=90 par2=98
Channel Event. t= 20 (61992) Note Off ch=1 par1=93 par2=64
Channel Event. t= 98 (62090) Note On ch=1 par1=93 par2=90
Channel Event. t= 10 (62100) Note Off ch=1 par1=90 par2=64
Channel Event. t= 110 (62210) Note On ch=1 par1=85 par2=101
Channel Event. t= 12 (62222) Note Off ch=1 par1=93 par2=64
Channel Event. t= 120 (62342) Note On ch=1 par1=86 par2=84
Channel Event. t= 5 (62347) Note Off ch=1 par1=85 par2=64
Channel Event. t= 120 (62467) Note On ch=1 par1=90 par2=101
Channel Event. t= 13 (62480) Note Off ch=1 par1=86 par2=64
Channel Event. t= 105 (62585) Note On ch=1 par1=93 par2=92
Channel Event. t= 10 (62595) Note Off ch=1 par1=90 par2=64
Channel Event. t= 85 (62680) Note Off ch=1 par1=93 par2=64
Channel Event. t= 20 (62700) Note On ch=1 par1=91 par2=92
Channel Event. t= 122 (62822) Note On ch=1 par1=86 par2=100
Channel Event. t= 5 (62827) Note Off ch=1 par1=91 par2=64
Channel Event. t= 120 (62947) Note On ch=1 par1=91 par2=94
Channel Event. t= 25 (62972) Note Off ch=1 par1=86 par2=64
Channel Event. t= 95 (63067) Note On ch=1 par1=95 par2=96
Channel Event. t= 8 (63075) Note Off ch=1 par1=91 par2=64
Channel Event. t= 107 (63182) Note On ch=1 par1=90 par2=99
Channel Event. t= 3 (63185) Note Off ch=1 par1=95 par2=64
Channel Event. t= 115 (63300) Note On ch=1 par1=91 par2=88
Channel Event. t= 20 (63320) Note Off ch=1 par1=90 par2=64
Channel Event. t= 105 (63425) Note On ch=1 par1=95 par2=92
Channel Event. t= 12 (63437) Note Off ch=1 par1=91 par2=64
Channel Event. t= 113 (63550) Note On ch=1 par1=98 par2=91
Channel Event. t= 10 (63560) Note Off ch=1 par1=95 par2=64
Channel Event. t= 122 (63682) Note On ch=1 par1=103 par2=108
Channel Event. t= 10 (63692) Note Off ch=1 par1=98 par2=64
Channel Event. t= 38 (63730) Note Off ch=1 par1=103 par2=64
Channel Event. t= 7330 (71060) Controller ch=1 par1=10 (Pan) par2=20
Channel Event. t= 305 (71365) Note On ch=1 par1=91 par2=95
Channel Event. t= 10 (71375) Note On ch=1 par1=89 par2=100
Channel Event. t= 27 (71402) Note Off ch=1 par1=91 par2=64
Channel Event. t= 13 (71415) Note Off ch=1 par1=89 par2=64
Channel Event. t= 417 (71832) Note On ch=1 par1=91 par2=90
Channel Event. t= 13 (71845) Note On ch=1 par1=89 par2=98
Channel Event. t= 25 (71870) Note Off ch=1 par1=91 par2=64
Channel Event. t= 12 (71882) Note Off ch=1 par1=89 par2=64
Channel Event. t= 978 (72860) Controller ch=1 par1=10 (Pan) par2=120
Channel Event. t= 397 (73257) Note On ch=1 par1=91 par2=94
Channel Event. t= 18 (73275) Note On ch=1 par1=89 par2=98
Channel Event. t= 25 (73300) Note Off ch=1 par1=91 par2=64
Channel Event. t= 15 (73315) Note Off ch=1 par1=89 par2=64
Channel Event. t= 435 (73750) Note On ch=1 par1=91 par2=96
Channel Event. t= 10 (73760) Note On ch=1 par1=89 par2=100
Channel Event. t= 30 (73790) Note Off ch=1 par1=91 par2=64
Channel Event. t= 50 (73840) Note Off ch=1 par1=89 par2=64
Channel Event. t= 4240 (78080) Controller ch=1 par1=10 (Pan) par2=20
Channel Event. t= 472 (78552) Note On ch=1 par1=88 par2=95
Channel Event. t= 10 (78562) Note On ch=1 par1=89 par2=91
Channel Event. t= 73 (78635) Note Off ch=1 par1=88 par2=64
Channel Event. t= 157 (78792) Note On ch=1 par1=80 par2=98
Channel Event. t= 13 (78805) Note Off ch=1 par1=89 par2=64
Channel Event. t= 35 (78840) Note Off ch=1 par1=80 par2=64
Channel Event. t= 75 (78915) Note On ch=1 par1=77 par2=97
Channel Event. t= 50 (78965) Note Off ch=1 par1=77 par2=64
Channel Event. t= 1005 (79970) Controller ch=1 par1=10 (Pan) par2=120
Channel Event. t= 30 (80000) Note On ch=1 par1=85 par2=100
Channel Event. t= 120 (80120) Note Off ch=1 par1=85 par2=64
Channel Event. t= 0 (80120) Note On ch=1 par1=89 par2=93
Channel Event. t= 120 (80240) Note On ch=1 par1=85 par2=74
Channel Event. t= 102 (80342) Note Off ch=1 par1=89 par2=64
Channel Event. t= 18 (80360) Note On ch=1 par1=77 par2=91
Channel Event. t= 60 (80420) Note Off ch=1 par1=85 par2=64
Channel Event. t= 40 (80460) Note Off ch=1 par1=77 par2=64
Channel Event. t= 20 (80480) Note On ch=1 par1=85 par2=105
Channel Event. t= 107 (80587) Note Off ch=1 par1=85 par2=64
Channel Event. t= 13 (80600) Note On ch=1 par1=89 par2=87
Channel Event. t= 120 (80720) Note On ch=1 par1=85 par2=95
Channel Event. t= 17 (80737) Note Off ch=1 par1=89 par2=64
Channel Event. t= 103 (80840) Note On ch=1 par1=77 par2=91
Channel Event. t= 60 (80900) Note Off ch=1 par1=85 par2=64
Channel Event. t= 60 (80960) Note On ch=1 par1=85 par2=101
Channel Event. t= 2 (80962) Note Off ch=1 par1=77 par2=64
Channel Event. t= 115 (81077) Note Off ch=1 par1=85 par2=64
Channel Event. t= 3 (81080) Note On ch=1 par1=89 par2=87
Channel Event. t= 120 (81200) Note On ch=1 par1=85 par2=93
Channel Event. t= 15 (81215) Note Off ch=1 par1=89 par2=64
Channel Event. t= 105 (81320) Note On ch=1 par1=80 par2=95
Channel Event. t= 80 (81400) Note Off ch=1 par1=85 par2=64
Channel Event. t= 40 (81440) Note On ch=1 par1=77 par2=84
Channel Event. t= 10 (81450) Note Off ch=1 par1=80 par2=64
Channel Event. t= 110 (81560) Note On ch=1 par1=73 par2=85
Channel Event. t= 20 (81580) Note Off ch=1 par1=77 par2=64
Channel Event. t= 100 (81680) Note On ch=1 par1=68 par2=80
Channel Event. t= 120 (81800) Note Off ch=1 par1=68 par2=64
Channel Event. t= 0 (81800) Note On ch=1 par1=65 par2=88
Channel Event. t= 30 (81830) Note Off ch=1 par1=73 par2=64
Channel Event. t= 90 (81920) Note On ch=1 par1=68 par2=95
Channel Event. t= 2 (81922) Note Off ch=1 par1=65 par2=64
Channel Event. t= 128 (82050) Note Off ch=1 par1=68 par2=64
Channel Event. t= 2330 (84380) Controller ch=1 par1=10 (Pan) par2=20
Channel Event. t= 180 (84560) Controller ch=1 par1=7 (Main Volume) par2=70
Channel Event. t= 257 (84817) Note On ch=1 par1=63 par2=108
Channel Event. t= 63 (84880) Note On ch=1 par1=68 par2=98
Channel Event. t= 80 (84960) Note On ch=1 par1=72 par2=96
Channel Event. t= 12 (84972) Note Off ch=1 par1=63 par2=64
Channel Event. t= 55 (85027) Note Off ch=1 par1=68 par2=64
Channel Event. t= 13 (85040) Note On ch=1 par1=75 par2=111
Channel Event. t= 80 (85120) Note On ch=1 par1=80 par2=106
Channel Event. t= 55 (85175) Note Off ch=1 par1=72 par2=64
Channel Event. t= 25 (85200) Note On ch=1 par1=84 par2=104
Channel Event. t= 15 (85215) Note Off ch=1 par1=75 par2=64
Channel Event. t= 57 (85272) Note Off ch=1 par1=80 par2=64
Channel Event. t= 8 (85280) Note On ch=1 par1=87 par2=99
Channel Event. t= 110 (85390) Note Off ch=1 par1=87 par2=64
Channel Event. t= 15 (85405) Note Off ch=1 par1=84 par2=64
Channel Event. t= 35 (85440) Note On ch=1 par1=87 par2=88
Channel Event. t= 102 (85542) Note Off ch=1 par1=87 par2=64
Channel Event. t= 58 (85600) Note On ch=1 par1=87 par2=92
Channel Event. t= 170 (85770) Note Off ch=1 par1=87 par2=64
Channel Event. t= 3830 (89600) Controller ch=1 par1=10 (Pan) par2=120
Channel Event. t= 240 (89840) Note On ch=1 par1=88 par2=105
Channel Event. t= 60 (89900) Note On ch=1 par1=86 par2=86
Channel Event. t= 60 (89960) Note On ch=1 par1=84 par2=84
Channel Event. t= 7 (89967) Note Off ch=1 par1=88 par2=64
Channel Event. t= 53 (90020) Note On ch=1 par1=83 par2=91
Channel Event. t= 12 (90032) Note Off ch=1 par1=86 par2=64
Channel Event. t= 8 (90040) Note Off ch=1 par1=84 par2=64
Channel Event. t= 40 (90080) Note On ch=1 par1=82 par2=107
Channel Event. t= 7 (90087) Note Off ch=1 par1=83 par2=64
Channel Event. t= 35 (90122) Note Off ch=1 par1=82 par2=64
Channel Event. t= 18 (90140) Note On ch=1 par1=79 par2=89
Channel Event. t= 60 (90200) Note On ch=1 par1=83 par2=85
Channel Event. t= 22 (90222) Note Off ch=1 par1=79 par2=64
Channel Event. t= 38 (90260) Note On ch=1 par1=87 par2=102
Channel Event. t= 42 (90302) Note Off ch=1 par1=83 par2=64
Channel Event. t= 3 (90305) Note Off ch=1 par1=87 par2=64
Channel Event. t= 15 (90320) Note On ch=1 par1=88 par2=112
Channel Event. t= 60 (90380) Note On ch=1 par1=86 par2=93
Channel Event. t= 60 (90440) Note On ch=1 par1=84 par2=103
Channel Event. t= 2 (90442) Note Off ch=1 par1=88 par2=64
Channel Event. t= 50 (90492) Note Off ch=1 par1=86 par2=64
Channel Event. t= 8 (90500) Note On ch=1 par1=83 par2=94
Channel Event. t= 2 (90502) Note Off ch=1 par1=84 par2=64
Channel Event. t= 58 (90560) Note On ch=1 par1=82 par2=99
Channel Event. t= 12 (90572) Note Off ch=1 par1=83 par2=64
Channel Event. t= 38 (90610) Note Off ch=1 par1=82 par2=64
Channel Event. t= 10 (90620) Note On ch=1 par1=79 par2=92
Channel Event. t= 60 (90680) Note On ch=1 par1=83 par2=89
Channel Event. t= 10 (90690) Note Off ch=1 par1=79 par2=64
Channel Event. t= 50 (90740) Note On ch=1 par1=87 par2=91
Channel Event. t= 35 (90775) Note Off ch=1 par1=83 par2=64
Channel Event. t= 12 (90787) Note Off ch=1 par1=87 par2=64
Channel Event. t= 13 (90800) Note On ch=1 par1=88 par2=114
Channel Event. t= 60 (90860) Note On ch=1 par1=86 par2=92
Channel Event. t= 52 (90912) Note Off ch=1 par1=88 par2=64
Channel Event. t= 8 (90920) Note On ch=1 par1=84 par2=93
Channel Event. t= 52 (90972) Note Off ch=1 par1=86 par2=64
Channel Event. t= 8 (90980) Note On ch=1 par1=83 par2=86
Channel Event. t= 5 (90985) Note Off ch=1 par1=84 par2=64
Channel Event. t= 55 (91040) Note On ch=1 par1=82 par2=116
Channel Event. t= 20 (91060) Note Off ch=1 par1=83 par2=64
Channel Event. t= 60 (91120) Note Off ch=1 par1=82 par2=64
Channel Event. t= 22387 (113507) Note On ch=1 par1=90 par2=75
Channel Event. t= 28 (113535) Note On ch=1 par1=89 par2=74
Channel Event. t= 47 (113582) Note Off ch=1 par1=90 par2=64
Channel Event. t= 85 (113667) Note Off ch=1 par1=89 par2=64
Channel Event. t= 120 (113787) Note On ch=1 par1=89 par2=85
Channel Event. t= 73 (113860) Note Off ch=1 par1=89 par2=64
Channel Event. t= 192 (114052) Note On ch=1 par1=89 par2=95
Channel Event. t= 445 (114497) Note Off ch=1 par1=89 par2=64
Channel Event. t= 43 (114540) Note On ch=1 par1=90 par2=80
Channel Event. t= 17 (114557) Note On ch=1 par1=89 par2=75
Channel Event. t= 90 (114647) Note Off ch=1 par1=90 par2=64
Channel Event. t= 70 (114717) Note Off ch=1 par1=89 par2=64
Channel Event. t= 60 (114777) Note On ch=1 par1=89 par2=82
Channel Event. t= 168 (114945) Note Off ch=1 par1=89 par2=64
Channel Event. t= 70 (115015) Note On ch=1 par1=89 par2=84
Channel Event. t= 85 (115100) Note Off ch=1 par1=89 par2=64
Channel Event. t= 12 (115112) Note On ch=1 par1=90 par2=75
Channel Event. t= 88 (115200) Note Off ch=1 par1=90 par2=64
Channel Event. t= 20 (115220) Note On ch=1 par1=89 par2=64
Channel Event. t= 112 (115332) Note Off ch=1 par1=89 par2=64
Channel Event. t= 5 (115337) Note On ch=1 par1=88 par2=70
Channel Event. t= 90 (115427) Note Off ch=1 par1=88 par2=64
Channel Event. t= 73 (115500) Note On ch=1 par1=77 par2=52
Channel Event. t= 240 (115740) Note Off ch=1 par1=77 par2=64
Channel Event. t= 4580 (120320) Controller ch=1 par1=10 (Pan) par2=20
Channel Event. t= 6000 (126320) Controller ch=1 par1=7 (Main Volume) par2=90
Channel Event. t= 140 (126460) Note On ch=1 par1=90 par2=77
Channel Event. t= 42 (126502) Note On ch=1 par1=89 par2=76
Channel Event. t= 45 (126547) Note Off ch=1 par1=90 par2=64
Channel Event. t= 85 (126632) Note Off ch=1 par1=89 par2=64
Channel Event. t= 130 (126762) Note On ch=1 par1=89 par2=79
Channel Event. t= 73 (126835) Note Off ch=1 par1=89 par2=64
Channel Event. t= 175 (127010) Note On ch=1 par1=89 par2=95
Channel Event. t= 350 (127360) Note Off ch=1 par1=89 par2=64
Channel Event. t= 62 (127422) Note On ch=1 par1=90 par2=71
Channel Event. t= 48 (127470) Note On ch=1 par1=89 par2=68
Channel Event. t= 30 (127500) Note Off ch=1 par1=90 par2=64
Channel Event. t= 85 (127585) Note Off ch=1 par1=89 par2=64
Channel Event. t= 130 (127715) Note On ch=1 par1=89 par2=89
Channel Event. t= 130 (127845) Note Off ch=1 par1=89 par2=64
Channel Event. t= 127 (127972) Note On ch=1 par1=89 par2=88
Channel Event. t= 108 (128080) Note On ch=1 par1=90 par2=78
Channel Event. t= 2 (128082) Note Off ch=1 par1=89 par2=64
Channel Event. t= 113 (128195) Note On ch=1 par1=89 par2=73
Channel Event. t= 45 (128240) Note Off ch=1 par1=90 par2=64
Channel Event. t= 70 (128310) Note On ch=1 par1=88 par2=87
Channel Event. t= 15 (128325) Note Off ch=1 par1=89 par2=64
Channel Event. t= 155 (128480) Note Off ch=1 par1=88 par2=64
Channel Event. t= 240 (128720) Controller ch=1 par1=10 (Pan) par2=120
Channel Event. t= 232 (128952) Note On ch=1 par1=89 par2=94
Channel Event. t= 65 (129017) Note On ch=1 par1=86 par2=66
Channel Event. t= 55 (129072) Note On ch=1 par1=82 par2=75
Channel Event. t= 50 (129122) Note On ch=1 par1=77 par2=75
Channel Event. t= 18 (129140) Note Off ch=1 par1=86 par2=64
Channel Event. t= 10 (129150) Note Off ch=1 par1=82 par2=64
Channel Event. t= 5 (129155) Note Off ch=1 par1=89 par2=64
Channel Event. t= 2 (129157) Note Off ch=1 par1=77 par2=64
Channel Event. t= 15 (129172) Note On ch=1 par1=74 par2=81
Channel Event. t= 63 (129235) Note On ch=1 par1=77 par2=63
Channel Event. t= 37 (129272) Note Off ch=1 par1=74 par2=64
Channel Event. t= 8 (129280) Note On ch=1 par1=82 par2=53
Channel Event. t= 37 (129317) Note Off ch=1 par1=77 par2=64
Channel Event. t= 15 (129332) Note On ch=1 par1=86 par2=68
Channel Event. t= 48 (129380) Note Off ch=1 par1=82 par2=64
Channel Event. t= 0 (129380) Note Off ch=1 par1=86 par2=64
Channel Event. t= 12 (129392) Note On ch=1 par1=89 par2=93
Channel Event. t= 58 (129450) Note On ch=1 par1=86 par2=70
Channel Event. t= 60 (129510) Note On ch=1 par1=82 par2=68
Channel Event. t= 57 (129567) Note On ch=1 par1=77 par2=69
Channel Event. t= 23 (129590) Note Off ch=1 par1=89 par2=64
Channel Event. t= 15 (129605) Note Off ch=1 par1=86 par2=64
Channel Event. t= 15 (129620) Note Off ch=1 par1=82 par2=64
Channel Event. t= 7 (129627) Note Off ch=1 par1=77 par2=64
Channel Event. t= 3 (129630) Note On ch=1 par1=74 par2=85
Channel Event. t= 60 (129690) Note On ch=1 par1=77 par2=72
Channel Event. t= 27 (129717) Note Off ch=1 par1=74 par2=64
Channel Event. t= 35 (129752) Note On ch=1 par1=82 par2=41
Channel Event. t= 53 (129805) Note On ch=1 par1=86 par2=74
Channel Event. t= 42 (129847) Note Off ch=1 par1=77 par2=64
Channel Event. t= 10 (129857) Note Off ch=1 par1=86 par2=64
Channel Event. t= 8 (129865) Note Off ch=1 par1=82 par2=64
Channel Event. t= 7 (129872) Note On ch=1 par1=89 par2=89
Channel Event. t= 58 (129930) Note On ch=1 par1=86 par2=69
Channel Event. t= 67 (129997) Note On ch=1 par1=82 par2=66
Channel Event. t= 63 (130060) Note On ch=1 par1=77 par2=61
Channel Event. t= 62 (130122) Note Off ch=1 par1=77 par2=64
Channel Event. t= 0 (130122) Note Off ch=1 par1=82 par2=64
Channel Event. t= 10 (130132) Note On ch=1 par1=74 par2=87
Channel Event. t= 5 (130137) Note Off ch=1 par1=86 par2=64
Channel Event. t= 15 (130152) Note Off ch=1 par1=89 par2=64
Channel Event. t= 45 (130197) Note On ch=1 par1=77 par2=66
Channel Event. t= 5 (130202) Note Off ch=1 par1=74 par2=64
Channel Event. t= 53 (130255) Note Off ch=1 par1=77 par2=64
Channel Event. t= 5 (130260) Note On ch=1 par1=74 par2=62
Channel Event. t= 50 (130310) Note On ch=1 par1=70 par2=72
Channel Event. t= 5 (130315) Note Off ch=1 par1=74 par2=64
Channel Event. t= 65 (130380) Note Off ch=1 par1=70 par2=64
Channel Event. t= 0 (130380) Note On ch=1 par1=65 par2=83
Channel Event. t= 252 (130632) Note Off ch=1 par1=65 par2=64
Channel Event. t= 193 (130825) Note On ch=1 par1=89 par2=97
Channel Event. t= 67 (130892) Note On ch=1 par1=91 par2=75
Channel Event. t= 3 (130895) Note Off ch=1 par1=89 par2=64
Channel Event. t= 62 (130957) Note On ch=1 par1=89 par2=74
Channel Event. t= 13 (130970) Note Off ch=1 par1=91 par2=64
Channel Event. t= 47 (131017) Note On ch=1 par1=84 par2=69
Channel Event. t= 5 (131022) Note Off ch=1 par1=89 par2=64
Channel Event. t= 63 (131085) Note On ch=1 par1=89 par2=74
Channel Event. t= 10 (131095) Note Off ch=1 par1=84 par2=64
Channel Event. t= 50 (131145) Note On ch=1 par1=91 par2=78
Channel Event. t= 7 (131152) Note Off ch=1 par1=89 par2=64
Channel Event. t= 53 (131205) Note On ch=1 par1=89 par2=62
Channel Event. t= 12 (131217) Note Off ch=1 par1=91 par2=64
Channel Event. t= 50 (131267) Note On ch=1 par1=84 par2=75
Channel Event. t= 10 (131277) Note Off ch=1 par1=89 par2=64
Channel Event. t= 55 (131332) Note On ch=1 par1=89 par2=85
Channel Event. t= 8 (131340) Note Off ch=1 par1=84 par2=64
Channel Event. t= 210 (131550) Note Off ch=1 par1=89 par2=64
Channel Event. t= 3652 (135202) Note On ch=1 par1=89 par2=89
Channel Event. t= 0 (135202) Controller ch=1 par1=10 (Pan) par2=20
Channel Event. t= 63 (135265) Note On ch=1 par1=86 par2=74
Channel Event. t= 50 (135315) Note On ch=1 par1=82 par2=72
Channel Event. t= 27 (135342) Note Off ch=1 par1=89 par2=64
Channel Event. t= 25 (135367) Note Off ch=1 par1=86 par2=64
Channel Event. t= 0 (135367) Note On ch=1 par1=77 par2=74
Channel Event. t= 35 (135402) Note Off ch=1 par1=82 par2=64
Channel Event. t= 5 (135407) Note Off ch=1 par1=77 par2=64
Channel Event. t= 13 (135420) Note On ch=1 par1=74 par2=85
Channel Event. t= 65 (135485) Note On ch=1 par1=77 par2=74
Channel Event. t= 32 (135517) Note Off ch=1 par1=74 par2=64
Channel Event. t= 20 (135537) Note On ch=1 par1=82 par2=50
Channel Event. t= 40 (135577) Note Off ch=1 par1=77 par2=64
Channel Event. t= 30 (135607) Note On ch=1 par1=86 par2=76
Channel Event. t= 28 (135635) Note Off ch=1 par1=82 par2=64
Channel Event. t= 10 (135645) Note Off ch=1 par1=86 par2=64
Channel Event. t= 25 (135670) Note On ch=1 par1=89 par2=100
Channel Event. t= 80 (135750) Note On ch=1 par1=86 par2=68
Channel Event. t= 57 (135807) Note On ch=1 par1=82 par2=68
Channel Event. t= 55 (135862) Note On ch=1 par1=77 par2=74
Channel Event. t= 33 (135895) Note Off ch=1 par1=86 par2=64
Channel Event. t= 2 (135897) Note Off ch=1 par1=82 par2=64
Channel Event. t= 23 (135920) Note Off ch=1 par1=89 par2=64
Channel Event. t= 22 (135942) Note On ch=1 par1=74 par2=74
Channel Event. t= 8 (135950) Note Off ch=1 par1=77 par2=64
Channel Event. t= 65 (136015) Note On ch=1 par1=70 par2=77
Channel Event. t= 7 (136022) Note Off ch=1 par1=74 par2=64
Channel Event. t= 93 (136115) Note Off ch=1 par1=70 par2=64
Channel Event. t= 2 (136117) Note On ch=1 par1=65 par2=93
Channel Event. t= 255 (136372) Note Off ch=1 par1=65 par2=64
Channel Event. t= 243 (136615) Note On ch=1 par1=89 par2=97
Channel Event. t= 57 (136672) Note Off ch=1 par1=89 par2=64
Channel Event. t= 0 (136672) Note On ch=1 par1=91 par2=67
Channel Event. t= 60 (136732) Note On ch=1 par1=89 par2=72
Channel Event. t= 13 (136745) Note Off ch=1 par1=91 par2=64
Channel Event. t= 47 (136792) Note On ch=1 par1=84 par2=81
Channel Event. t= 3 (136795) Note Off ch=1 par1=89 par2=64
Channel Event. t= 62 (136857) Note On ch=1 par1=89 par2=75
Channel Event. t= 15 (136872) Note Off ch=1 par1=84 par2=64
Channel Event. t= 50 (136922) Note On ch=1 par1=91 par2=74
Channel Event. t= 5 (136927) Note Off ch=1 par1=89 par2=64
Channel Event. t= 55 (136982) Note On ch=1 par1=89 par2=63
Channel Event. t= 15 (136997) Note Off ch=1 par1=91 par2=64
Channel Event. t= 48 (137045) Note On ch=1 par1=84 par2=76
Channel Event. t= 2 (137047) Note Off ch=1 par1=89 par2=64
Channel Event. t= 68 (137115) Note On ch=1 par1=89 par2=92
Channel Event. t= 7 (137122) Note Off ch=1 par1=84 par2=64
Channel Event. t= 240 (137362) Note Off ch=1 par1=89 par2=64
Channel Event. t= 358 (137720) Controller ch=1 par1=7 (Main Volume) par2=70
Channel Event. t= 312 (138032) Note On ch=1 par1=90 par2=67
Channel Event. t= 23 (138055) Note On ch=1 par1=89 par2=72
Channel Event. t= 20 (138075) Note Off ch=1 par1=90 par2=64
Channel Event. t= 55 (138130) Note Off ch=1 par1=89 par2=64
Channel Event. t= 152 (138282) Note On ch=1 par1=89 par2=71
Channel Event. t= 40 (138322) Note Off ch=1 par1=89 par2=64
Channel Event. t= 190 (138512) Note On ch=1 par1=89 par2=86
Channel Event. t= 380 (138892) Note Off ch=1 par1=89 par2=64
Channel Event. t= 105 (138997) Note On ch=1 par1=90 par2=83
Channel Event. t= 23 (139020) Note On ch=1 par1=89 par2=75
Channel Event. t= 32 (139052) Note Off ch=1 par1=90 par2=64
Channel Event. t= 20 (139072) Note Off ch=1 par1=89 par2=64
Channel Event. t= 175 (139247) Note On ch=1 par1=89 par2=80
Channel Event. t= 88 (139335) Note Off ch=1 par1=89 par2=64
Channel Event. t= 160 (139495) Note On ch=1 par1=89 par2=91
Channel Event. t= 110 (139605) Note On ch=1 par1=91 par2=69
Channel Event. t= 5 (139610) Note Off ch=1 par1=89 par2=64
Channel Event. t= 92 (139702) Note Off ch=1 par1=91 par2=64
Channel Event. t= 20 (139722) Note On ch=1 par1=89 par2=75
Channel Event. t= 40 (139762) Note Off ch=1 par1=89 par2=64
Channel Event. t= 78 (139840) Note On ch=1 par1=88 par2=71
Channel Event. t= 20 (139860) Note Off ch=1 par1=88 par2=64
Channel Event. t= 157 (140017) Note On ch=1 par1=77 par2=58
Channel Event. t= 208 (140225) Note Off ch=1 par1=77 par2=64
Channel Event. t= 2157 (142382) Controller ch=1 par1=10 (Pan) par2=120
Channel Event. t= 1218 (143600) Controller ch=1 par1=7 (Main Volume) par2=75
Channel Event. t= 702 (144302) Note On ch=1 par1=89 par2=83
Channel Event. t= 58 (144360) Note On ch=1 par1=86 par2=70
Channel Event. t= 17 (144377) Note Off ch=1 par1=89 par2=64
Channel Event. t= 45 (144422) Note Off ch=1 par1=86 par2=64
Channel Event. t= 18 (144440) Note On ch=1 par1=82 par2=68
Channel Event. t= 60 (144500) Note On ch=1 par1=77 par2=79
Channel Event. t= 20 (144520) Note Off ch=1 par1=82 par2=64
Channel Event. t= 40 (144560) Note Off ch=1 par1=77 par2=64
Channel Event. t= 0 (144560) Note On ch=1 par1=74 par2=56
Channel Event. t= 60 (144620) Note Off ch=1 par1=74 par2=64
Channel Event. t= 0 (144620) Note On ch=1 par1=77 par2=84
Channel Event. t= 60 (144680) Note On ch=1 par1=74 par2=64
Channel Event. t= 17 (144697) Note Off ch=1 par1=77 par2=64
Channel Event. t= 50 (144747) Note Off ch=1 par1=74 par2=64
Channel Event. t= 23 (144770) Note On ch=1 par1=65 par2=93
Channel Event. t= 192 (144962) Note Off ch=1 par1=65 par2=64
Channel Event. t= 283 (145245) Note On ch=1 par1=89 par2=79
Channel Event. t= 57 (145302) Note On ch=1 par1=91 par2=70
Channel Event. t= 8 (145310) Note Off ch=1 par1=89 par2=64
Channel Event. t= 65 (145375) Note On ch=1 par1=89 par2=82
Channel Event. t= 15 (145390) Note Off ch=1 par1=91 par2=64
Channel Event. t= 42 (145432) Note On ch=1 par1=84 par2=63
Channel Event. t= 3 (145435) Note Off ch=1 par1=89 par2=64
Channel Event. t= 65 (145500) Note On ch=1 par1=89 par2=70
Channel Event. t= 17 (145517) Note Off ch=1 par1=84 par2=64
Channel Event. t= 43 (145560) Note On ch=1 par1=91 par2=61
Channel Event. t= 5 (145565) Note Off ch=1 par1=89 par2=64
Channel Event. t= 55 (145620) Note On ch=1 par1=89 par2=58
Channel Event. t= 15 (145635) Note Off ch=1 par1=91 par2=64
Channel Event. t= 40 (145675) Note Off ch=1 par1=89 par2=64
Channel Event. t= 2 (145677) Note On ch=1 par1=84 par2=57
Channel Event. t= 63 (145740) Note On ch=1 par1=89 par2=80
Channel Event. t= 15 (145755) Note Off ch=1 par1=84 par2=64
Channel Event. t= 250 (146005) Note Off ch=1 par1=89 par2=64
Channel Event. t= 212 (146217) Note On ch=1 par1=89 par2=90
Channel Event. t= 55 (146272) Note On ch=1 par1=86 par2=71
Channel Event. t= 48 (146320) Note On ch=1 par1=82 par2=74
Channel Event. t= 37 (146357) Note Off ch=1 par1=89 par2=64
Channel Event. t= 20 (146377) Note On ch=1 par1=77 par2=65
Channel Event. t= 20 (146397) Note Off ch=1 par1=86 par2=64
Channel Event. t= 13 (146410) Note Off ch=1 par1=82 par2=64
Channel Event. t= 12 (146422) Note Off ch=1 par1=77 par2=64
Channel Event. t= 10 (146432) Note On ch=1 par1=74 par2=77
Channel Event. t= 63 (146495) Note On ch=1 par1=77 par2=66
Channel Event. t= 32 (146527) Note Off ch=1 par1=74 par2=64
Channel Event. t= 20 (146547) Note On ch=1 par1=82 par2=61
Channel Event. t= 60 (146607) Note On ch=1 par1=86 par2=33
Channel Event. t= 13 (146620) Note Off ch=1 par1=77 par2=64
Channel Event. t= 27 (146647) Note Off ch=1 par1=86 par2=64
Channel Event. t= 10 (146657) Note Off ch=1 par1=82 par2=64
Channel Event. t= 8 (146665) Note On ch=1 par1=89 par2=96
Channel Event. t= 60 (146725) Note On ch=1 par1=86 par2=69
Channel Event. t= 57 (146782) Note On ch=1 par1=82 par2=68
Channel Event. t= 58 (146840) Note On ch=1 par1=77 par2=62
Channel Event. t= 5 (146845) Note Off ch=1 par1=89 par2=64
Channel Event. t= 30 (146875) Note Off ch=1 par1=86 par2=64
Channel Event. t= 27 (146902) Note Off ch=1 par1=82 par2=64
Channel Event. t= 3 (146905) Note Off ch=1 par1=77 par2=64
Channel Event. t= 0 (146905) Note On ch=1 par1=74 par2=78
Channel Event. t= 67 (146972) Note On ch=1 par1=77 par2=69
Channel Event. t= 50 (147022) Note On ch=1 par1=82 par2=55
Channel Event. t= 20 (147042) Note Off ch=1 par1=74 par2=64
Channel Event. t= 43 (147085) Note On ch=1 par1=86 par2=73
Channel Event. t= 25 (147110) Note Off ch=1 par1=77 par2=64
Channel Event. t= 20 (147130) Note Off ch=1 par1=86 par2=64
Channel Event. t= 15 (147145) Note On ch=1 par1=89 par2=95
Channel Event. t= 5 (147150) Note Off ch=1 par1=82 par2=64
Channel Event. t= 60 (147210) Note On ch=1 par1=86 par2=66
Channel Event. t= 65 (147275) Note On ch=1 par1=82 par2=70
Channel Event. t= 62 (147337) Note On ch=1 par1=77 par2=68
Channel Event. t= 70 (147407) Note On ch=1 par1=74 par2=84
Channel Event. t= 3 (147410) Note Off ch=1 par1=77 par2=64
Channel Event. t= 15 (147425) Note Off ch=1 par1=82 par2=64
Channel Event. t= 17 (147442) Note Off ch=1 par1=86 par2=64
Channel Event. t= 33 (147475) Note On ch=1 par1=77 par2=66
Channel Event. t= 2 (147477) Note Off ch=1 par1=74 par2=64
Channel Event. t= 10 (147487) Note Off ch=1 par1=89 par2=64
Channel Event. t= 50 (147537) Note On ch=1 par1=74 par2=68
Channel Event. t= 5 (147542) Note Off ch=1 par1=77 par2=64
Channel Event. t= 48 (147590) Note On ch=1 par1=70 par2=75
Channel Event. t= 7 (147597) Note Off ch=1 par1=74 par2=64
Channel Event. t= 60 (147657) Note Off ch=1 par1=70 par2=64
Channel Event. t= 5 (147662) Note On ch=1 par1=65 par2=66
Channel Event. t= 0 (147662) Note On ch=1 par1=67 par2=61
Channel Event. t= 18 (147680) Note Off ch=1 par1=67 par2=64
Channel Event. t= 245 (147925) Note Off ch=1 par1=65 par2=64
Channel Event. t= 200 (148125) Note On ch=1 par1=89 par2=91
Channel Event. t= 60 (148185) Note On ch=1 par1=91 par2=74
Channel Event. t= 2 (148187) Note Off ch=1 par1=89 par2=64
Channel Event. t= 55 (148242) Note On ch=1 par1=89 par2=61
Channel Event. t= 13 (148255) Note Off ch=1 par1=91 par2=64
Channel Event. t= 47 (148302) Note On ch=1 par1=84 par2=64
Channel Event. t= 3 (148305) Note Off ch=1 par1=89 par2=64
Channel Event. t= 57 (148362) Note On ch=1 par1=89 par2=69
Channel Event. t= 3 (148365) Note Off ch=1 par1=84 par2=64
Channel Event. t= 55 (148420) Note On ch=1 par1=91 par2=63
Channel Event. t= 2 (148422) Note Off ch=1 par1=89 par2=64
Channel Event. t= 63 (148485) Note On ch=1 par1=89 par2=64
Channel Event. t= 10 (148495) Note Off ch=1 par1=91 par2=64
Channel Event. t= 47 (148542) Note Off ch=1 par1=89 par2=64
Channel Event. t= 0 (148542) Note On ch=1 par1=84 par2=64
Channel Event. t= 73 (148615) Note On ch=1 par1=89 par2=84
Channel Event. t= 5 (148620) Note Off ch=1 par1=84 par2=64
Channel Event. t= 260 (148880) Note Off ch=1 par1=89 par2=64
Channel Event. t= 220 (149100) Note On ch=1 par1=89 par2=94
Channel Event. t= 20 (149120) Controller ch=1 par1=7 (Main Volume) par2=69
Channel Event. t= 45 (149165) Note On ch=1 par1=86 par2=78
Channel Event. t= 50 (149215) Note On ch=1 par1=82 par2=80
Channel Event. t= 17 (149232) Note Off ch=1 par1=89 par2=64
Channel Event. t= 38 (149270) Note On ch=1 par1=77 par2=66
Channel Event. t= 10 (149280) Note Off ch=1 par1=86 par2=64
Channel Event. t= 20 (149300) Controller ch=1 par1=7 (Main Volume) par2=68
Channel Event. t= 10 (149310) Note Off ch=1 par1=82 par2=64
Channel Event. t= 20 (149330) Note Off ch=1 par1=77 par2=64
Channel Event. t= 0 (149330) Note On ch=1 par1=74 par2=73
Channel Event. t= 65 (149395) Note On ch=1 par1=77 par2=66
Channel Event. t= 52 (149447) Note On ch=1 par1=82 par2=61
Channel Event. t= 15 (149462) Note Off ch=1 par1=74 par2=64
Channel Event. t= 18 (149480) Controller ch=1 par1=7 (Main Volume) par2=67
Channel Event. t= 27 (149507) Note On ch=1 par1=86 par2=74
Channel Event. t= 43 (149550) Note Off ch=1 par1=86 par2=64
Channel Event. t= 2 (149552) Note Off ch=1 par1=77 par2=64
Channel Event. t= 15 (149567) Note Off ch=1 par1=82 par2=64
Channel Event. t= 0 (149567) Note On ch=1 par1=89 par2=92
Channel Event. t= 33 (149600) Controller ch=1 par1=7 (Main Volume) par2=66
Channel Event. t= 30 (149630) Note On ch=1 par1=86 par2=68
Channel Event. t= 57 (149687) Note On ch=1 par1=82 par2=71
Channel Event. t= 63 (149750) Note On ch=1 par1=77 par2=68
Channel Event. t= 20 (149770) Note Off ch=1 par1=89 par2=64
Channel Event. t= 10 (149780) Controller ch=1 par1=7 (Main Volume) par2=65
Channel Event. t= 35 (149815) Note On ch=1 par1=74 par2=82
Channel Event. t= 12 (149827) Note Off ch=1 par1=77 par2=64
Channel Event. t= 3 (149830) Note Off ch=1 par1=86 par2=64
Channel Event. t= 0 (149830) Note Off ch=1 par1=82 par2=64
Channel Event. t= 52 (149882) Note On ch=1 par1=77 par2=64
Channel Event. t= 18 (149900) Controller ch=1 par1=7 (Main Volume) par2=64
Channel Event. t= 40 (149940) Note On ch=1 par1=82 par2=63
Channel Event. t= 15 (149955) Note Off ch=1 par1=74 par2=64
Channel Event. t= 25 (149980) Note Off ch=1 par1=77 par2=64
Channel Event. t= 25 (150005) Note On ch=1 par1=86 par2=75
Channel Event. t= 45 (150050) Note Off ch=1 par1=86 par2=64
Channel Event. t= 15 (150065) Note Off ch=1 par1=82 par2=64
Channel Event. t= 0 (150065) Note On ch=1 par1=89 par2=91
Channel Event. t= 15 (150080) Controller ch=1 par1=7 (Main Volume) par2=63
Channel Event. t= 47 (150127) Note On ch=1 par1=86 par2=74
Channel Event. t= 58 (150185) Note On ch=1 par1=82 par2=71
Channel Event. t= 15 (150200) Controller ch=1 par1=7 (Main Volume) par2=62
Channel Event. t= 40 (150240) Note On ch=1 par1=77 par2=69
Channel Event. t= 55 (150295) Note On ch=1 par1=74 par2=79
Channel Event. t= 10 (150305) Note Off ch=1 par1=77 par2=64
Channel Event. t= 2 (150307) Note Off ch=1 par1=82 par2=64
Channel Event. t= 3 (150310) Note Off ch=1 par1=86 par2=64
Channel Event. t= 0 (150310) Note Off ch=1 par1=89 par2=64
Channel Event. t= 50 (150360) Note On ch=1 par1=77 par2=68
Channel Event. t= 20 (150380) Controller ch=1 par1=7 (Main Volume) par2=61
Channel Event. t= 22 (150402) Note Off ch=1 par1=74 par2=64
Channel Event. t= 13 (150415) Note On ch=1 par1=82 par2=60
Channel Event. t= 35 (150450) Note Off ch=1 par1=77 par2=64
Channel Event. t= 25 (150475) Note On ch=1 par1=86 par2=76
Channel Event. t= 47 (150522) Note Off ch=1 par1=86 par2=64
Channel Event. t= 13 (150535) Note Off ch=1 par1=82 par2=64
Channel Event. t= 0 (150535) Note On ch=1 par1=89 par2=91
Channel Event. t= 25 (150560) Controller ch=1 par1=7 (Main Volume) par2=60
Channel Event. t= 42 (150602) Note On ch=1 par1=86 par2=74
Channel Event. t= 63 (150665) Note On ch=1 par1=82 par2=74
Channel Event. t= 15 (150680) Controller ch=1 par1=7 (Main Volume) par2=59
Channel Event. t= 45 (150725) Note On ch=1 par1=77 par2=73
Channel Event. t= 22 (150747) Note Off ch=1 par1=89 par2=64
Channel Event. t= 35 (150782) Note On ch=1 par1=74 par2=81
Channel Event. t= 13 (150795) Note Off ch=1 par1=77 par2=64
Channel Event. t= 2 (150797) Note Off ch=1 par1=86 par2=64
Channel Event. t= 5 (150802) Note Off ch=1 par1=82 par2=64
Channel Event. t= 50 (150852) Note On ch=1 par1=77 par2=69
Channel Event. t= 8 (150860) Controller ch=1 par1=7 (Main Volume) par2=58
Channel Event. t= 47 (150907) Note On ch=1 par1=82 par2=64
Channel Event. t= 65 (150972) Note On ch=1 par1=86 par2=70
Channel Event. t= 8 (150980) Controller ch=1 par1=7 (Main Volume) par2=57
Channel Event. t= 47 (151027) Note Off ch=1 par1=77 par2=64
Channel Event. t= 8 (151035) Note On ch=1 par1=94 par2=89
Channel Event. t= 7 (151042) Note Off ch=1 par1=74 par2=64
Channel Event. t= 0 (151042) Note Off ch=1 par1=82 par2=64
Channel Event. t= 0 (151042) Note Off ch=1 par1=86 par2=64
Channel Event. t= 53 (151095) Note On ch=1 par1=89 par2=73
Channel Event. t= 60 (151155) Note On ch=1 par1=86 par2=66
Channel Event. t= 5 (151160) Controller ch=1 par1=7 (Main Volume) par2=56
Channel Event. t= 115 (151275) Note On ch=1 par1=74 par2=83
Channel Event. t= 5 (151280) Controller ch=1 par1=7 (Main Volume) par2=55
Channel Event. t= 7 (151287) Note Off ch=1 par1=86 par2=64
Channel Event. t= 15 (151302) Note Off ch=1 par1=89 par2=64
Channel Event. t= 30 (151332) Note Off ch=1 par1=94 par2=64
Channel Event. t= 5 (151337) Note On ch=1 par1=77 par2=63
Channel Event. t= 55 (151392) Note On ch=1 par1=82 par2=71
Channel Event. t= 65 (151457) Note On ch=1 par1=86 par2=80
Channel Event. t= 3 (151460) Controller ch=1 par1=7 (Main Volume) par2=54
Channel Event. t= 47 (151507) Note Off ch=1 par1=86 par2=64
Channel Event. t= 5 (151512) Note Off ch=1 par1=77 par2=64
Channel Event. t= 3 (151515) Note Off ch=1 par1=74 par2=64
Channel Event. t= 0 (151515) Note Off ch=1 par1=82 par2=64
Channel Event. t= 0 (151515) Note On ch=1 par1=94 par2=91
Channel Event. t= 65 (151580) Controller ch=1 par1=7 (Main Volume) par2=53
Channel Event. t= 0 (151580) Note On ch=1 par1=89 par2=79
Channel Event. t= 60 (151640) Note On ch=1 par1=86 par2=63
Channel Event. t= 55 (151695) Note On ch=1 par1=82 par2=68
Channel Event. t= 15 (151710) Note Off ch=1 par1=94 par2=64
Channel Event. t= 37 (151747) Note Off ch=1 par1=86 par2=64
Channel Event. t= 0 (151747) Note Off ch=1 par1=82 par2=64
Channel Event. t= 5 (151752) Note On ch=1 par1=77 par2=78
Channel Event. t= 5 (151757) Note Off ch=1 par1=89 par2=64
Channel Event. t= 3 (151760) Controller ch=1 par1=7 (Main Volume) par2=52
Channel Event. t= 60 (151820) Note On ch=1 par1=82 par2=68
Channel Event. t= 60 (151880) Note On ch=1 par1=86 par2=63
Channel Event. t= 57 (151937) Note Off ch=1 par1=77 par2=64
Channel Event. t= 3 (151940) Controller ch=1 par1=7 (Main Volume) par2=51
Channel Event. t= 7 (151947) Note On ch=1 par1=89 par2=70
Channel Event. t= 8 (151955) Note Off ch=1 par1=82 par2=64
Channel Event. t= 5 (151960) Note Off ch=1 par1=86 par2=64
Channel Event. t= 85 (152045) Note On ch=1 par1=94 par2=83
Channel Event. t= 15 (152060) Controller ch=1 par1=7 (Main Volume) par2=50
Channel Event. t= 5 (152065) Note Off ch=1 par1=89 par2=64
Channel Event. t= 175 (152240) Controller ch=1 par1=7 (Main Volume) par2=49
Channel Event. t= 120 (152360) Controller ch=1 par1=7 (Main Volume) par2=48
Channel Event. t= 180 (152540) Controller ch=1 par1=7 (Main Volume) par2=47
Channel Event. t= 60 (152600) Note Off ch=1 par1=94 par2=64
Channel Event. t= 60 (152660) Controller ch=1 par1=7 (Main Volume) par2=46
Channel Event. t= 180 (152840) Controller ch=1 par1=7 (Main Volume) par2=45
Channel Event. t= 0 (152840) 
Meta Event. Type: 0x2f (47dec), End of Track (0 bytes): 
track #18
track size: 849
Channel Event. t= 0 (0) 
Meta Event. Type: 0x3 (3dec), Sequence/Track Name (20 bytes): Oboe                
Channel Event. t= 0 (0) 
Meta Event. Type: 0x21 (33dec), MIDI Port (1 bytes): 0
Channel Event. t= 0 (0) 
Meta Event. Type: 0x20 (32dec), MIDI Channel Prefix (1 bytes): 2
Channel Event. t= 0 (0) Controller ch=2 par1=10 (Pan) par2=64
Channel Event. t= 0 (0) Controller ch=2 par1=91 (Effects 2 Depth (formerly Tremolo Depth)) par2=127
Channel Event. t= 0 (0) Program Change ch=2 par1=84 par2=-118
Channel Event. t= 14720 (14720) Controller ch=2 par1=10 (Pan) par2=30
Channel Event. t= 88200 (102920) Controller ch=2 par1=7 (Main Volume) par2=70
Channel Event. t= 87 (103007) Note On ch=2 par1=66 par2=52
Channel Event. t= 20 (103027) Note On ch=2 par1=65 par2=70
Channel Event. t= 45 (103072) Note Off ch=2 par1=66 par2=64
Channel Event. t= 1255 (104327) Note Off ch=2 par1=65 par2=64
Channel Event. t= 73 (104400) Note On ch=2 par1=65 par2=74
Channel Event. t= 37 (104437) Note On ch=2 par1=64 par2=63
Channel Event. t= 68 (104505) Note Off ch=2 par1=65 par2=64
Channel Event. t= 147 (104652) Note On ch=2 par1=63 par2=71
Channel Event. t= 28 (104680) Note Off ch=2 par1=64 par2=64
Channel Event. t= 232 (104912) Note On ch=2 par1=62 par2=75
Channel Event. t= 5 (104917) Note Off ch=2 par1=63 par2=64
Channel Event. t= 235 (105152) Note On ch=2 par1=63 par2=71
Channel Event. t= 15 (105167) Note Off ch=2 par1=62 par2=64
Channel Event. t= 188 (105355) Note On ch=2 par1=64 par2=64
Channel Event. t= 15 (105370) Note Off ch=2 par1=63 par2=64
Channel Event. t= 55 (105425) Note On ch=2 par1=69 par2=61
Channel Event. t= 40 (105465) Note Off ch=2 par1=64 par2=64
Channel Event. t= 205 (105670) Note On ch=2 par1=67 par2=64
Channel Event. t= 20 (105690) Note Off ch=2 par1=69 par2=64
Channel Event. t= 130 (105820) Note Off ch=2 par1=67 par2=64
Channel Event. t= 70 (105890) Note On ch=2 par1=66 par2=86
Channel Event. t= 42 (105932) Note On ch=2 par1=65 par2=69
Channel Event. t= 78 (106010) Note Off ch=2 par1=66 par2=64
Channel Event. t= 1222 (107232) Note Off ch=2 par1=65 par2=64
Channel Event. t= 58 (107290) Note On ch=2 par1=65 par2=69
Channel Event. t= 37 (107327) Note On ch=2 par1=64 par2=68
Channel Event. t= 68 (107395) Note Off ch=2 par1=65 par2=64
Channel Event. t= 170 (107565) Note On ch=2 par1=63 par2=70
Channel Event. t= 27 (107592) Note Off ch=2 par1=64 par2=64
Channel Event. t= 213 (107805) Note On ch=2 par1=62 par2=64
Channel Event. t= 2 (107807) Note Off ch=2 par1=63 par2=64
Channel Event. t= 238 (108045) Note Off ch=2 par1=62 par2=64
Channel Event. t= 0 (108045) Note On ch=2 par1=63 par2=71
Channel Event. t= 145 (108190) Note Off ch=2 par1=63 par2=64
Channel Event. t= 7 (108197) Note On ch=2 par1=64 par2=71
Channel Event. t= 68 (108265) Note On ch=2 par1=76 par2=81
Channel Event. t= 10 (108275) Note Off ch=2 par1=64 par2=64
Channel Event. t= 240 (108515) Note Off ch=2 par1=76 par2=64
Channel Event. t= 0 (108515) Note On ch=2 par1=73 par2=77
Channel Event. t= 222 (108737) Note Off ch=2 par1=73 par2=64
Channel Event. t= 25 (108762) Note On ch=2 par1=74 par2=79
Channel Event. t= 505 (109267) Note On ch=2 par1=77 par2=76
Channel Event. t= 10 (109277) Note Off ch=2 par1=74 par2=64
Channel Event. t= 678 (109955) Note On ch=2 par1=74 par2=77
Channel Event. t= 30 (109985) Note Off ch=2 par1=77 par2=64
Channel Event. t= 225 (110210) Note On ch=2 par1=72 par2=74
Channel Event. t= 40 (110250) Note Off ch=2 par1=74 par2=64
Channel Event. t= 452 (110702) Note On ch=2 par1=75 par2=66
Channel Event. t= 23 (110725) Note Off ch=2 par1=72 par2=64
Channel Event. t= 357 (111082) Note Off ch=2 par1=75 par2=64
Channel Event. t= 98 (111180) Note On ch=2 par1=67 par2=71
Channel Event. t= 227 (111407) Note On ch=2 par1=69 par2=74
Channel Event. t= 28 (111435) Note Off ch=2 par1=67 par2=64
Channel Event. t= 225 (111660) Note On ch=2 par1=70 par2=74
Channel Event. t= 47 (111707) Note Off ch=2 par1=69 par2=64
Channel Event. t= 410 (112117) Note On ch=2 par1=74 par2=62
Channel Event. t= 28 (112145) Note Off ch=2 par1=70 par2=64
Channel Event. t= 462 (112607) Note On ch=2 par1=65 par2=60
Channel Event. t= 5 (112612) Note Off ch=2 par1=74 par2=64
Channel Event. t= 435 (113047) Note Off ch=2 par1=65 par2=64
Channel Event. t= 60 (113107) Note On ch=2 par1=65 par2=67
Channel Event. t= 1460 (114567) Note Off ch=2 par1=65 par2=64
Channel Event. t= 1365 (115932) Note On ch=2 par1=66 par2=44
Channel Event. t= 38 (115970) Note On ch=2 par1=65 par2=68
Channel Event. t= 40 (116010) Note Off ch=2 par1=66 par2=64
Channel Event. t= 1275 (117285) Note Off ch=2 par1=65 par2=64
Channel Event. t= 57 (117342) Note On ch=2 par1=65 par2=51
Channel Event. t= 50 (117392) Note On ch=2 par1=64 par2=67
Channel Event. t= 55 (117447) Note Off ch=2 par1=65 par2=64
Channel Event. t= 193 (117640) Note On ch=2 par1=63 par2=60
Channel Event. t= 37 (117677) Note Off ch=2 par1=64 par2=64
Channel Event. t= 205 (117882) Note On ch=2 par1=62 par2=64
Channel Event. t= 8 (117890) Note Off ch=2 par1=63 par2=64
Channel Event. t= 235 (118125) Note On ch=2 par1=63 par2=60
Channel Event. t= 12 (118137) Note Off ch=2 par1=62 par2=64
Channel Event. t= 168 (118305) Note On ch=2 par1=64 par2=63
Channel Event. t= 25 (118330) Note Off ch=2 par1=63 par2=64
Channel Event. t= 17 (118347) Note On ch=2 par1=69 par2=66
Channel Event. t= 38 (118385) Note Off ch=2 par1=64 par2=64
Channel Event. t= 210 (118595) Note On ch=2 par1=67 par2=67
Channel Event. t= 7 (118602) Note Off ch=2 par1=69 par2=64
Channel Event. t= 200 (118802) Note Off ch=2 par1=67 par2=64
Channel Event. t= 25 (118827) Note On ch=2 par1=66 par2=81
Channel Event. t= 40 (118867) Note On ch=2 par1=65 par2=61
Channel Event. t= 45 (118912) Note Off ch=2 par1=66 par2=64
Channel Event. t= 1300 (120212) Note Off ch=2 par1=65 par2=64
Channel Event. t= 35 (120247) Note On ch=2 par1=65 par2=68
Channel Event. t= 43 (120290) Note On ch=2 par1=64 par2=69
Channel Event. t= 60 (120350) Note Off ch=2 par1=65 par2=64
Channel Event. t= 170 (120520) Note On ch=2 par1=63 par2=81
Channel Event. t= 22 (120542) Note Off ch=2 par1=64 par2=64
Channel Event. t= 223 (120765) Note On ch=2 par1=64 par2=74
Channel Event. t= 10 (120775) Note Off ch=2 par1=63 par2=64
Channel Event. t= 225 (121000) Note On ch=2 par1=69 par2=65
Channel Event. t= 42 (121042) Note Off ch=2 par1=64 par2=64
Channel Event. t= 198 (121240) Note Off ch=2 par1=69 par2=64
Channel Event. t= 10 (121250) Note On ch=2 par1=76 par2=53
Channel Event. t= 242 (121492) Note On ch=2 par1=79 par2=73
Channel Event. t= 10 (121502) Note Off ch=2 par1=76 par2=64
Channel Event. t= 240 (121742) Note Off ch=2 par1=79 par2=64
Channel Event. t= 23 (121765) Note On ch=2 par1=79 par2=86
Channel Event. t= 475 (122240) Note On ch=2 par1=77 par2=72
Channel Event. t= 27 (122267) Note Off ch=2 par1=79 par2=64
Channel Event. t= 383 (122650) Note Off ch=2 par1=77 par2=64
Channel Event. t= 75 (122725) Note On ch=2 par1=74 par2=89
Channel Event. t= 227 (122952) Note On ch=2 par1=79 par2=52
Channel Event. t= 18 (122970) Note Off ch=2 par1=74 par2=64
Channel Event. t= 222 (123192) Note On ch=2 par1=77 par2=81
Channel Event. t= 45 (123237) Note Off ch=2 par1=79 par2=64
Channel Event. t= 458 (123695) Note On ch=2 par1=75 par2=51
Channel Event. t= 57 (123752) Note Off ch=2 par1=77 par2=64
Channel Event. t= 355 (124107) Note Off ch=2 par1=75 par2=64
Channel Event. t= 43 (124150) Note On ch=2 par1=67 par2=71
Channel Event. t= 212 (124362) Note On ch=2 par1=69 par2=75
Channel Event. t= 48 (124410) Note Off ch=2 par1=67 par2=64
Channel Event. t= 202 (124612) Note On ch=2 par1=70 par2=81
Channel Event. t= 45 (124657) Note Off ch=2 par1=69 par2=64
Channel Event. t= 443 (125100) Note On ch=2 par1=74 par2=66
Channel Event. t= 22 (125122) Note Off ch=2 par1=70 par2=64
Channel Event. t= 440 (125562) Note On ch=2 par1=65 par2=69
Channel Event. t= 30 (125592) Note Off ch=2 par1=74 par2=64
Channel Event. t= 178 (125770) Note Off ch=2 par1=65 par2=64
Channel Event. t= 37 (125807) Note On ch=2 par1=65 par2=78
Channel Event. t= 203 (126010) Note Off ch=2 par1=65 par2=64
Channel Event. t= 47 (126057) Note On ch=2 par1=66 par2=70
Channel Event. t= 50 (126107) Note On ch=2 par1=65 par2=70
Channel Event. t= 25 (126132) Note Off ch=2 par1=66 par2=64
Channel Event. t= 1450 (127582) Note Off ch=2 par1=65 par2=64
Channel Event. t= 898 (128480) Note On ch=2 par1=77 par2=47
Channel Event. t= 560 (129040) Note Off ch=2 par1=77 par2=64
Channel Event. t= 2730 (131770) Note On ch=2 par1=66 par2=45
Channel Event. t= 32 (131802) Note On ch=2 par1=65 par2=53
Channel Event. t= 35 (131837) Note Off ch=2 par1=66 par2=64
Channel Event. t= 1303 (133140) Note Off ch=2 par1=65 par2=64
Channel Event. t= 55 (133195) Note On ch=2 par1=65 par2=61
Channel Event. t= 60 (133255) Note On ch=2 par1=64 par2=55
Channel Event. t= 67 (133322) Note Off ch=2 par1=65 par2=64
Channel Event. t= 158 (133480) Note On ch=2 par1=63 par2=61
Channel Event. t= 32 (133512) Note Off ch=2 par1=64 par2=64
Channel Event. t= 228 (133740) Note On ch=2 par1=62 par2=66
Channel Event. t= 7 (133747) Note Off ch=2 par1=63 par2=64
Channel Event. t= 243 (133990) Note On ch=2 par1=63 par2=70
Channel Event. t= 32 (134022) Note Off ch=2 par1=62 par2=64
Channel Event. t= 153 (134175) Note On ch=2 par1=64 par2=57
Channel Event. t= 40 (134215) Note Off ch=2 par1=63 par2=64
Channel Event. t= 10 (134225) Note On ch=2 par1=69 par2=66
Channel Event. t= 37 (134262) Note Off ch=2 par1=64 par2=64
Channel Event. t= 198 (134460) Note On ch=2 par1=67 par2=67
Channel Event. t= 12 (134472) Note Off ch=2 par1=69 par2=64
Channel Event. t= 125 (134597) Note Off ch=2 par1=67 par2=64
Channel Event. t= 83 (134680) Note On ch=2 par1=66 par2=79
Channel Event. t= 32 (134712) Note On ch=2 par1=65 par2=71
Channel Event. t= 50 (134762) Note Off ch=2 par1=66 par2=64
Channel Event. t= 485 (135247) Note Off ch=2 par1=65 par2=64
Channel Event. t= 2315 (137562) Note On ch=2 par1=65 par2=56
Channel Event. t= 1525 (139087) Note Off ch=2 par1=65 par2=64
Channel Event. t= 1315 (140402) Note On ch=2 par1=66 par2=64
Channel Event. t= 50 (140452) Note On ch=2 par1=65 par2=63
Channel Event. t= 33 (140485) Note Off ch=2 par1=66 par2=64
Channel Event. t= 1200 (141685) Note Off ch=2 par1=65 par2=64
Channel Event. t= 172 (141857) Note On ch=2 par1=65 par2=69
Channel Event. t= 50 (141907) Note On ch=2 par1=64 par2=58
Channel Event. t= 63 (141970) Note Off ch=2 par1=65 par2=64
Channel Event. t= 162 (142132) Note On ch=2 par1=63 par2=65
Channel Event. t= 20 (142152) Note Off ch=2 par1=64 par2=64
Channel Event. t= 205 (142357) Note Off ch=2 par1=63 par2=64
Channel Event. t= 38 (142395) Note On ch=2 par1=63 par2=83
Channel Event. t= 247 (142642) Note On ch=2 par1=69 par2=68
Channel Event. t= 8 (142650) Note Off ch=2 par1=63 par2=64
Channel Event. t= 172 (142822) Note Off ch=2 par1=69 par2=64
Channel Event. t= 83 (142905) Note On ch=2 par1=76 par2=84
Channel Event. t= 237 (143142) Note On ch=2 par1=79 par2=74
Channel Event. t= 18 (143160) Note Off ch=2 par1=76 par2=64
Channel Event. t= 220 (143380) Note Off ch=2 par1=79 par2=64
Channel Event. t= 30 (143410) Note On ch=2 par1=79 par2=84
Channel Event. t= 415 (143825) Note On ch=2 par1=77 par2=76
Channel Event. t= 30 (143855) Note Off ch=2 par1=79 par2=64
Channel Event. t= 565 (144420) Note Off ch=2 par1=77 par2=64
Channel Event. t= 0 (144420) 
Meta Event. Type: 0x2f (47dec), End of Track (0 bytes): 
track #19
track size: 1309
Channel Event. t= 0 (0) 
Meta Event. Type: 0x3 (3dec), Sequence/Track Name (20 bytes): French Horn         
Channel Event. t= 0 (0) 
Meta Event. Type: 0x21 (33dec), MIDI Port (1 bytes): 0
Channel Event. t= 0 (0) 
Meta Event. Type: 0x20 (32dec), MIDI Channel Prefix (1 bytes): 3
Channel Event. t= 0 (0) Controller ch=3 par1=10 (Pan) par2=64
Channel Event. t= 0 (0) Controller ch=3 par1=91 (Effects 2 Depth (formerly Tremolo Depth)) par2=127
Channel Event. t= 0 (0) Program Change ch=3 par1=92 par2=-118
Channel Event. t= 14720 (14720) Controller ch=3 par1=10 (Pan) par2=75
Channel Event. t= 1440 (16160) Controller ch=3 par1=7 (Main Volume) par2=55
Channel Event. t= 86890 (103050) Note On ch=3 par1=62 par2=69
Channel Event. t= 205 (103255) Note On ch=3 par1=60 par2=70
Channel Event. t= 30 (103285) Note Off ch=3 par1=62 par2=64
Channel Event. t= 202 (103487) Note On ch=3 par1=58 par2=71
Channel Event. t= 28 (103515) Note Off ch=3 par1=60 par2=64
Channel Event. t= 205 (103720) Note On ch=3 par1=60 par2=70
Channel Event. t= 25 (103745) Note Off ch=3 par1=58 par2=64
Channel Event. t= 222 (103967) Note On ch=3 par1=62 par2=75
Channel Event. t= 10 (103977) Note Off ch=3 par1=60 par2=64
Channel Event. t= 393 (104370) Note Off ch=3 par1=62 par2=64
Channel Event. t= 65 (104435) Note On ch=3 par1=61 par2=74
Channel Event. t= 442 (104877) Note On ch=3 par1=59 par2=74
Channel Event. t= 15 (104892) Note Off ch=3 par1=61 par2=64
Channel Event. t= 505 (105397) Note On ch=3 par1=61 par2=61
Channel Event. t= 55 (105452) Note Off ch=3 par1=59 par2=64
Channel Event. t= 368 (105820) Note Off ch=3 par1=61 par2=64
Channel Event. t= 80 (105900) Note On ch=3 par1=62 par2=69
Channel Event. t= 212 (106112) Note On ch=3 par1=60 par2=63
Channel Event. t= 13 (106125) Note Off ch=3 par1=62 par2=64
Channel Event. t= 217 (106342) Note On ch=3 par1=58 par2=69
Channel Event. t= 25 (106367) Note Off ch=3 par1=60 par2=64
Channel Event. t= 218 (106585) Note On ch=3 par1=60 par2=71
Channel Event. t= 27 (106612) Note Off ch=3 par1=58 par2=64
Channel Event. t= 238 (106850) Note Off ch=3 par1=60 par2=64
Channel Event. t= 2 (106852) Note On ch=3 par1=62 par2=65
Channel Event. t= 413 (107265) Note Off ch=3 par1=62 par2=64
Channel Event. t= 60 (107325) Note On ch=3 par1=61 par2=68
Channel Event. t= 482 (107807) Note On ch=3 par1=59 par2=69
Channel Event. t= 10 (107817) Note Off ch=3 par1=61 par2=64
Channel Event. t= 480 (108297) Note On ch=3 par1=61 par2=64
Channel Event. t= 45 (108342) Note Off ch=3 par1=59 par2=64
Channel Event. t= 383 (108725) Note Off ch=3 par1=61 par2=64
Channel Event. t= 57 (108782) Note On ch=3 par1=62 par2=69
Channel Event. t= 220 (109002) Note On ch=3 par1=60 par2=65
Channel Event. t= 40 (109042) Note Off ch=3 par1=62 par2=64
Channel Event. t= 203 (109245) Note On ch=3 par1=58 par2=65
Channel Event. t= 32 (109277) Note Off ch=3 par1=60 par2=64
Channel Event. t= 213 (109490) Note On ch=3 par1=60 par2=64
Channel Event. t= 17 (109507) Note Off ch=3 par1=58 par2=64
Channel Event. t= 245 (109752) Note On ch=3 par1=62 par2=69
Channel Event. t= 10 (109762) Note Off ch=3 par1=60 par2=64
Channel Event. t= 433 (110195) Note Off ch=3 par1=62 par2=64
Channel Event. t= 22 (110217) Note On ch=3 par1=63 par2=75
Channel Event. t= 218 (110435) Note On ch=3 par1=62 par2=69
Channel Event. t= 15 (110450) Note Off ch=3 par1=63 par2=64
Channel Event. t= 227 (110677) Note On ch=3 par1=60 par2=69
Channel Event. t= 20 (110697) Note Off ch=3 par1=62 par2=64
Channel Event. t= 215 (110912) Note On ch=3 par1=62 par2=54
Channel Event. t= 38 (110950) Note Off ch=3 par1=60 par2=64
Channel Event. t= 222 (111172) Note On ch=3 par1=63 par2=71
Channel Event. t= 30 (111202) Note Off ch=3 par1=62 par2=64
Channel Event. t= 400 (111602) Note Off ch=3 par1=63 par2=64
Channel Event. t= 60 (111662) Note On ch=3 par1=62 par2=72
Channel Event. t= 218 (111880) Note On ch=3 par1=60 par2=56
Channel Event. t= 50 (111930) Note Off ch=3 par1=62 par2=64
Channel Event. t= 207 (112137) Note On ch=3 par1=58 par2=64
Channel Event. t= 33 (112170) Note Off ch=3 par1=60 par2=64
Channel Event. t= 192 (112362) Note On ch=3 par1=60 par2=54
Channel Event. t= 20 (112382) Note Off ch=3 par1=58 par2=64
Channel Event. t= 238 (112620) Note On ch=3 par1=62 par2=50
Channel Event. t= 22 (112642) Note Off ch=3 par1=60 par2=64
Channel Event. t= 398 (113040) Note Off ch=3 par1=62 par2=64
Channel Event. t= 57 (113097) Note On ch=3 par1=60 par2=52
Channel Event. t= 220 (113317) Note On ch=3 par1=58 par2=53
Channel Event. t= 23 (113340) Note Off ch=3 par1=60 par2=64
Channel Event. t= 230 (113570) Note Off ch=3 par1=58 par2=64
Channel Event. t= 0 (113570) Note On ch=3 par1=57 par2=46
Channel Event. t= 227 (113797) Note On ch=3 par1=58 par2=48
Channel Event. t= 30 (113827) Note Off ch=3 par1=57 par2=64
Channel Event. t= 238 (114065) Note On ch=3 par1=60 par2=39
Channel Event. t= 12 (114077) Note Off ch=3 par1=58 par2=64
Channel Event. t= 345 (114422) Note Off ch=3 par1=60 par2=64
Channel Event. t= 1573 (115995) Note On ch=3 par1=62 par2=65
Channel Event. t= 217 (116212) Note On ch=3 par1=60 par2=50
Channel Event. t= 38 (116250) Note Off ch=3 par1=62 par2=64
Channel Event. t= 190 (116440) Note On ch=3 par1=58 par2=53
Channel Event. t= 32 (116472) Note Off ch=3 par1=60 par2=64
Channel Event. t= 193 (116665) Note On ch=3 par1=60 par2=56
Channel Event. t= 17 (116682) Note Off ch=3 par1=58 par2=64
Channel Event. t= 238 (116920) Note On ch=3 par1=62 par2=50
Channel Event. t= 15 (116935) Note Off ch=3 par1=60 par2=64
Channel Event. t= 402 (117337) Note Off ch=3 par1=62 par2=64
Channel Event. t= 65 (117402) Note On ch=3 par1=61 par2=70
Channel Event. t= 488 (117890) Note On ch=3 par1=59 par2=69
Channel Event. t= 20 (117910) Note Off ch=3 par1=61 par2=64
Channel Event. t= 470 (118380) Note On ch=3 par1=61 par2=59
Channel Event. t= 52 (118432) Note Off ch=3 par1=59 par2=64
Channel Event. t= 355 (118787) Note Off ch=3 par1=61 par2=64
Channel Event. t= 65 (118852) Note On ch=3 par1=62 par2=63
Channel Event. t= 228 (119080) Note On ch=3 par1=60 par2=54
Channel Event. t= 30 (119110) Note Off ch=3 par1=62 par2=64
Channel Event. t= 210 (119320) Note On ch=3 par1=58 par2=58
Channel Event. t= 32 (119352) Note Off ch=3 par1=60 par2=64
Channel Event. t= 215 (119567) Note On ch=3 par1=60 par2=53
Channel Event. t= 20 (119587) Note Off ch=3 par1=58 par2=64
Channel Event. t= 235 (119822) Note On ch=3 par1=62 par2=59
Channel Event. t= 13 (119835) Note Off ch=3 par1=60 par2=64
Channel Event. t= 392 (120227) Note Off ch=3 par1=62 par2=64
Channel Event. t= 63 (120290) Note On ch=3 par1=61 par2=65
Channel Event. t= 470 (120760) Note On ch=3 par1=60 par2=64
Channel Event. t= 15 (120775) Note Off ch=3 par1=61 par2=64
Channel Event. t= 472 (121247) Note On ch=3 par1=61 par2=59
Channel Event. t= 35 (121282) Note Off ch=3 par1=60 par2=64
Channel Event. t= 408 (121690) Note Off ch=3 par1=61 par2=64
Channel Event. t= 55 (121745) Note On ch=3 par1=62 par2=66
Channel Event. t= 222 (121967) Note On ch=3 par1=60 par2=61
Channel Event. t= 43 (122010) Note Off ch=3 par1=62 par2=64
Channel Event. t= 200 (122210) Note On ch=3 par1=58 par2=65
Channel Event. t= 20 (122230) Note Off ch=3 par1=60 par2=64
Channel Event. t= 230 (122460) Note On ch=3 par1=60 par2=61
Channel Event. t= 20 (122480) Note Off ch=3 par1=58 par2=64
Channel Event. t= 222 (122702) Note On ch=3 par1=62 par2=57
Channel Event. t= 10 (122712) Note Off ch=3 par1=60 par2=64
Channel Event. t= 398 (123110) Note Off ch=3 par1=62 par2=64
Channel Event. t= 80 (123190) Note On ch=3 par1=63 par2=63
Channel Event. t= 215 (123405) Note On ch=3 par1=62 par2=56
Channel Event. t= 12 (123417) Note Off ch=3 par1=63 par2=64
Channel Event. t= 218 (123635) Note On ch=3 par1=60 par2=66
Channel Event. t= 17 (123652) Note Off ch=3 par1=62 par2=64
Channel Event. t= 220 (123872) Note On ch=3 par1=62 par2=45
Channel Event. t= 40 (123912) Note Off ch=3 par1=60 par2=64
Channel Event. t= 220 (124132) Note On ch=3 par1=63 par2=61
Channel Event. t= 23 (124155) Note Off ch=3 par1=62 par2=64
Channel Event. t= 377 (124532) Note Off ch=3 par1=63 par2=64
Channel Event. t= 88 (124620) Note On ch=3 par1=62 par2=63
Channel Event. t= 230 (124850) Note On ch=3 par1=60 par2=44
Channel Event. t= 37 (124887) Note Off ch=3 par1=62 par2=64
Channel Event. t= 198 (125085) Note On ch=3 par1=58 par2=53
Channel Event. t= 37 (125122) Note Off ch=3 par1=60 par2=64
Channel Event. t= 198 (125320) Note On ch=3 par1=60 par2=52
Channel Event. t= 17 (125337) Note Off ch=3 par1=58 par2=64
Channel Event. t= 243 (125580) Note On ch=3 par1=62 par2=38
Channel Event. t= 30 (125610) Note Off ch=3 par1=60 par2=64
Channel Event. t= 365 (125975) Note Off ch=3 par1=62 par2=64
Channel Event. t= 80 (126055) Note On ch=3 par1=60 par2=44
Channel Event. t= 222 (126277) Note On ch=3 par1=58 par2=41
Channel Event. t= 33 (126310) Note Off ch=3 par1=60 par2=64
Channel Event. t= 217 (126527) Note On ch=3 par1=57 par2=42
Channel Event. t= 10 (126537) Note Off ch=3 par1=58 par2=64
Channel Event. t= 233 (126770) Note On ch=3 par1=58 par2=51
Channel Event. t= 30 (126800) Note Off ch=3 par1=57 par2=64
Channel Event. t= 237 (127037) Note On ch=3 par1=60 par2=30
Channel Event. t= 3 (127040) Note Off ch=3 par1=58 par2=64
Channel Event. t= 392 (127432) Note Off ch=3 par1=60 par2=64
Channel Event. t= 1518 (128950) Note On ch=3 par1=62 par2=55
Channel Event. t= 242 (129192) Note On ch=3 par1=60 par2=50
Channel Event. t= 40 (129232) Note Off ch=3 par1=62 par2=64
Channel Event. t= 195 (129427) Note On ch=3 par1=58 par2=60
Channel Event. t= 38 (129465) Note Off ch=3 par1=60 par2=64
Channel Event. t= 195 (129660) Note Off ch=3 par1=58 par2=64
Channel Event. t= 0 (129660) Note On ch=3 par1=60 par2=48
Channel Event. t= 240 (129900) Note On ch=3 par1=62 par2=49
Channel Event. t= 17 (129917) Note Off ch=3 par1=60 par2=64
Channel Event. t= 430 (130347) Note Off ch=3 par1=62 par2=64
Channel Event. t= 48 (130395) Note On ch=3 par1=60 par2=44
Channel Event. t= 205 (130600) Note On ch=3 par1=58 par2=59
Channel Event. t= 32 (130632) Note Off ch=3 par1=60 par2=64
Channel Event. t= 223 (130855) Note On ch=3 par1=57 par2=52
Channel Event. t= 2 (130857) Note Off ch=3 par1=58 par2=64
Channel Event. t= 223 (131080) Note On ch=3 par1=58 par2=57
Channel Event. t= 35 (131115) Note Off ch=3 par1=57 par2=64
Channel Event. t= 240 (131355) Note On ch=3 par1=60 par2=53
Channel Event. t= 20 (131375) Note Off ch=3 par1=58 par2=64
Channel Event. t= 385 (131760) Note Off ch=3 par1=60 par2=64
Channel Event. t= 50 (131810) Note On ch=3 par1=62 par2=61
Channel Event. t= 225 (132035) Note On ch=3 par1=60 par2=56
Channel Event. t= 30 (132065) Note Off ch=3 par1=62 par2=64
Channel Event. t= 205 (132270) Note On ch=3 par1=58 par2=51
Channel Event. t= 32 (132302) Note Off ch=3 par1=60 par2=64
Channel Event. t= 210 (132512) Note On ch=3 par1=60 par2=53
Channel Event. t= 28 (132540) Note Off ch=3 par1=58 par2=64
Channel Event. t= 227 (132767) Note On ch=3 par1=62 par2=53
Channel Event. t= 20 (132787) Note Off ch=3 par1=60 par2=64
Channel Event. t= 388 (133175) Note Off ch=3 par1=62 par2=64
Channel Event. t= 82 (133257) Note On ch=3 par1=61 par2=65
Channel Event. t= 460 (133717) Note On ch=3 par1=59 par2=69
Channel Event. t= 20 (133737) Note Off ch=3 par1=61 par2=64
Channel Event. t= 488 (134225) Note On ch=3 par1=61 par2=59
Channel Event. t= 57 (134282) Note Off ch=3 par1=59 par2=64
Channel Event. t= 400 (134682) Note Off ch=3 par1=61 par2=64
Channel Event. t= 48 (134730) Note On ch=3 par1=62 par2=65
Channel Event. t= 220 (134950) Note On ch=3 par1=60 par2=62
Channel Event. t= 37 (134987) Note Off ch=3 par1=62 par2=64
Channel Event. t= 188 (135175) Note On ch=3 par1=58 par2=62
Channel Event. t= 32 (135207) Note Off ch=3 par1=60 par2=64
Channel Event. t= 193 (135400) Note On ch=3 par1=60 par2=62
Channel Event. t= 25 (135425) Note Off ch=3 par1=58 par2=64
Channel Event. t= 232 (135657) Note On ch=3 par1=62 par2=61
Channel Event. t= 25 (135682) Note Off ch=3 par1=60 par2=64
Channel Event. t= 353 (136035) Note Off ch=3 par1=62 par2=64
Channel Event. t= 100 (136135) Note On ch=3 par1=60 par2=60
Channel Event. t= 227 (136362) Note On ch=3 par1=58 par2=61
Channel Event. t= 35 (136397) Note Off ch=3 par1=60 par2=64
Channel Event. t= 210 (136607) Note On ch=3 par1=57 par2=60
Channel Event. t= 10 (136617) Note Off ch=3 par1=58 par2=64
Channel Event. t= 228 (136845) Note On ch=3 par1=58 par2=63
Channel Event. t= 32 (136877) Note Off ch=3 par1=57 par2=64
Channel Event. t= 228 (137105) Note On ch=3 par1=60 par2=62
Channel Event. t= 12 (137117) Note Off ch=3 par1=58 par2=64
Channel Event. t= 393 (137510) Note Off ch=3 par1=60 par2=64
Channel Event. t= 82 (137592) Note On ch=3 par1=60 par2=61
Channel Event. t= 193 (137785) Note On ch=3 par1=58 par2=53
Channel Event. t= 25 (137810) Note Off ch=3 par1=60 par2=64
Channel Event. t= 212 (138022) Note On ch=3 par1=57 par2=56
Channel Event. t= 18 (138040) Note Off ch=3 par1=58 par2=64
Channel Event. t= 222 (138262) Note On ch=3 par1=58 par2=58
Channel Event. t= 33 (138295) Note Off ch=3 par1=57 par2=64
Channel Event. t= 232 (138527) Note On ch=3 par1=60 par2=61
Channel Event. t= 23 (138550) Note Off ch=3 par1=58 par2=64
Channel Event. t= 410 (138960) Note Off ch=3 par1=60 par2=64
Channel Event. t= 1517 (140477) Note On ch=3 par1=62 par2=56
Channel Event. t= 213 (140690) Note On ch=3 par1=60 par2=53
Channel Event. t= 25 (140715) Note Off ch=3 par1=62 par2=64
Channel Event. t= 205 (140920) Note On ch=3 par1=58 par2=56
Channel Event. t= 22 (140942) Note Off ch=3 par1=60 par2=64
Channel Event. t= 208 (141150) Note On ch=3 par1=60 par2=55
Channel Event. t= 12 (141162) Note Off ch=3 par1=58 par2=64
Channel Event. t= 233 (141395) Note Off ch=3 par1=60 par2=64
Channel Event. t= 0 (141395) Note On ch=3 par1=62 par2=53
Channel Event. t= 400 (141795) Note Off ch=3 par1=62 par2=64
Channel Event. t= 92 (141887) Note On ch=3 par1=61 par2=47
Channel Event. t= 485 (142372) Note On ch=3 par1=60 par2=61
Channel Event. t= 10 (142382) Note Off ch=3 par1=61 par2=64
Channel Event. t= 488 (142870) Note On ch=3 par1=61 par2=61
Channel Event. t= 12 (142882) Note Off ch=3 par1=60 par2=64
Channel Event. t= 358 (143240) Note Off ch=3 par1=61 par2=64
Channel Event. t= 130 (143370) Note On ch=3 par1=62 par2=64
Channel Event. t= 200 (143570) Note On ch=3 par1=60 par2=56
Channel Event. t= 22 (143592) Note Off ch=3 par1=62 par2=64
Channel Event. t= 203 (143795) Note On ch=3 par1=58 par2=71
Channel Event. t= 12 (143807) Note Off ch=3 par1=60 par2=64
Channel Event. t= 245 (144052) Note On ch=3 par1=60 par2=56
Channel Event. t= 13 (144065) Note Off ch=3 par1=58 par2=64
Channel Event. t= 245 (144310) Note On ch=3 par1=62 par2=57
Channel Event. t= 25 (144335) Note Off ch=3 par1=60 par2=64
Channel Event. t= 345 (144680) Note Off ch=3 par1=62 par2=64
Channel Event. t= 95 (144775) Note On ch=3 par1=60 par2=58
Channel Event. t= 227 (145002) Note On ch=3 par1=58 par2=52
Channel Event. t= 13 (145015) Note Off ch=3 par1=60 par2=64
Channel Event. t= 245 (145260) Note On ch=3 par1=57 par2=48
Channel Event. t= 7 (145267) Note Off ch=3 par1=58 par2=64
Channel Event. t= 213 (145480) Note On ch=3 par1=58 par2=60
Channel Event. t= 35 (145515) Note Off ch=3 par1=57 par2=64
Channel Event. t= 222 (145737) Note On ch=3 par1=60 par2=56
Channel Event. t= 18 (145755) Note Off ch=3 par1=58 par2=64
Channel Event. t= 337 (146092) Note Off ch=3 par1=60 par2=64
Channel Event. t= 108 (146200) Note On ch=3 par1=62 par2=56
Channel Event. t= 247 (146447) Note On ch=3 par1=60 par2=52
Channel Event. t= 30 (146477) Note Off ch=3 par1=62 par2=64
Channel Event. t= 215 (146692) Note On ch=3 par1=58 par2=61
Channel Event. t= 33 (146725) Note Off ch=3 par1=60 par2=64
Channel Event. t= 200 (146925) Note On ch=3 par1=60 par2=62
Channel Event. t= 17 (146942) Note Off ch=3 par1=58 par2=64
Channel Event. t= 240 (147182) Note On ch=3 par1=62 par2=69
Channel Event. t= 10 (147192) Note Off ch=3 par1=60 par2=64
Channel Event. t= 348 (147540) Note Off ch=3 par1=62 par2=64
Channel Event. t= 117 (147657) Note On ch=3 par1=60 par2=63
Channel Event. t= 218 (147875) Note On ch=3 par1=58 par2=65
Channel Event. t= 25 (147900) Note Off ch=3 par1=60 par2=64
Channel Event. t= 230 (148130) Note On ch=3 par1=57 par2=58
Channel Event. t= 7 (148137) Note Off ch=3 par1=58 par2=64
Channel Event. t= 230 (148367) Note On ch=3 par1=58 par2=64
Channel Event. t= 30 (148397) Note Off ch=3 par1=57 par2=64
Channel Event. t= 223 (148620) Note On ch=3 par1=60 par2=66
Channel Event. t= 17 (148637) Note Off ch=3 par1=58 par2=64
Channel Event. t= 305 (148942) Note Off ch=3 par1=60 par2=64
Channel Event. t= 155 (149097) Note On ch=3 par1=62 par2=67
Channel Event. t= 485 (149582) Note On ch=3 par1=60 par2=66
Channel Event. t= 33 (149615) Note Off ch=3 par1=62 par2=64
Channel Event. t= 432 (150047) Note On ch=3 par1=58 par2=63
Channel Event. t= 25 (150072) Note Off ch=3 par1=60 par2=64
Channel Event. t= 220 (150292) Note On ch=3 par1=60 par2=58
Channel Event. t= 15 (150307) Note Off ch=3 par1=58 par2=64
Channel Event. t= 245 (150552) Note On ch=3 par1=62 par2=58
Channel Event. t= 8 (150560) Note Off ch=3 par1=60 par2=64
Channel Event. t= 537 (151097) Note Off ch=3 par1=62 par2=64
Channel Event. t= 0 (151097) 
Meta Event. Type: 0x2f (47dec), End of Track (0 bytes): 
track #20
track size: 33
Channel Event. t= 0 (0) 
Meta Event. Type: 0x3 (3dec), Sequence/Track Name (20 bytes):                     
Channel Event. t= 0 (0) 
Meta Event. Type: 0x21 (33dec), MIDI Port (1 bytes): 0
Channel Event. t= 0 (0) 
Meta Event. Type: 0x2f (47dec), End of Track (0 bytes): 
track #21
track size: 33
Channel Event. t= 0 (0) 
Meta Event. Type: 0x3 (3dec), Sequence/Track Name (20 bytes):     PART THREE      
Channel Event. t= 0 (0) 
Meta Event. Type: 0x21 (33dec), MIDI Port (1 bytes): 0
Channel Event. t= 0 (0) 
Meta Event. Type: 0x2f (47dec), End of Track (0 bytes): 
track #22
track size: 33
Channel Event. t= 0 (0) 
Meta Event. Type: 0x3 (3dec), Sequence/Track Name (20 bytes): CAT & GRANDFATHER   
Channel Event. t= 0 (0) 
Meta Event. Type: 0x21 (33dec), MIDI Port (1 bytes): 0
Channel Event. t= 0 (0) 
Meta Event. Type: 0x2f (47dec), End of Track (0 bytes): 
track #23
track size: 33
Channel Event. t= 0 (0) 
Meta Event. Type: 0x3 (3dec), Sequence/Track Name (20 bytes):                     
Channel Event. t= 0 (0) 
Meta Event. Type: 0x21 (33dec), MIDI Port (1 bytes): 0
Channel Event. t= 0 (0) 
Meta Event. Type: 0x2f (47dec), End of Track (0 bytes): 
track #24
track size: 4673
Channel Event. t= 0 (0) 
Meta Event. Type: 0x3 (3dec), Sequence/Track Name (20 bytes): Strings             
Channel Event. t= 0 (0) 
Meta Event. Type: 0x21 (33dec), MIDI Port (1 bytes): 0
Channel Event. t= 0 (0) 
Meta Event. Type: 0x20 (32dec), MIDI Channel Prefix (1 bytes): 5
Channel Event. t= 0 (0) Controller ch=5 par1=10 (Pan) par2=64
Channel Event. t= 0 (0) Controller ch=5 par1=91 (Effects 2 Depth (formerly Tremolo Depth)) par2=127
Channel Event. t= 0 (0) Program Change ch=5 par1=48 par2=-109
Channel Event. t= 6944 (6944) Controller ch=5 par1=10 (Pan) par2=30
Channel Event. t= 1620 (8564) Controller ch=5 par1=7 (Main Volume) par2=92
Channel Event. t= 300 (8864) Note On ch=5 par1=93 par2=65
Channel Event. t= 0 (8864) Note On ch=5 par1=85 par2=61
Channel Event. t= 265 (9129) Note Off ch=5 par1=93 par2=64
Channel Event. t= 57 (9186) Note Off ch=5 par1=85 par2=64
Channel Event. t= 158 (9344) Note On ch=5 par1=81 par2=61
Channel Event. t= 217 (9561) Note Off ch=5 par1=81 par2=64
Channel Event. t= 263 (9824) Note On ch=5 par1=57 par2=75
Channel Event. t= 360 (10184) Note Off ch=5 par1=57 par2=64
Channel Event. t= 120 (10304) Note On ch=5 par1=50 par2=79
Channel Event. t= 347 (10651) Note Off ch=5 par1=50 par2=64
Channel Event. t= 133 (10784) Note On ch=5 par1=73 par2=59
Channel Event. t= 0 (10784) Note On ch=5 par1=81 par2=61
Channel Event. t= 317 (11101) Note Off ch=5 par1=73 par2=64
Channel Event. t= 8 (11109) Note Off ch=5 par1=81 par2=64
Channel Event. t= 155 (11264) Note On ch=5 par1=69 par2=72
Channel Event. t= 245 (11509) Note Off ch=5 par1=69 par2=64
Channel Event. t= 235 (11744) Note On ch=5 par1=45 par2=44
Channel Event. t= 312 (12056) Note Off ch=5 par1=45 par2=64
Channel Event. t= 168 (12224) Note On ch=5 par1=38 par2=51
Channel Event. t= 332 (12556) Note Off ch=5 par1=38 par2=64
Channel Event. t= 148 (12704) Note On ch=5 par1=86 par2=79
Channel Event. t= 0 (12704) Note On ch=5 par1=79 par2=74
Channel Event. t= 187 (12891) Note Off ch=5 par1=86 par2=64
Channel Event. t= 30 (12921) Note Off ch=5 par1=79 par2=64
Channel Event. t= 263 (13184) Note On ch=5 par1=66 par2=89
Channel Event. t= 0 (13184) Note On ch=5 par1=74 par2=81
Channel Event. t= 275 (13459) Note Off ch=5 par1=66 par2=64
Channel Event. t= 7 (13466) Note Off ch=5 par1=74 par2=64
Channel Event. t= 198 (13664) Note On ch=5 par1=48 par2=25
Channel Event. t= 310 (13974) Note Off ch=5 par1=48 par2=64
Channel Event. t= 170 (14144) Note On ch=5 par1=47 par2=52
Channel Event. t= 295 (14439) Note Off ch=5 par1=47 par2=64
Channel Event. t= 65 (14504) Controller ch=5 par1=7 (Main Volume) par2=75
Channel Event. t= 120 (14624) Note On ch=5 par1=45 par2=54
Channel Event. t= 265 (14889) Note Off ch=5 par1=45 par2=64
Channel Event. t= 215 (15104) Note On ch=5 par1=43 par2=46
Channel Event. t= 305 (15409) Note Off ch=5 par1=43 par2=64
Channel Event. t= 655 (16064) Note On ch=5 par1=43 par2=44
Channel Event. t= 305 (16369) Note Off ch=5 par1=43 par2=64
Channel Event. t= 655 (17024) Note On ch=5 par1=48 par2=57
Channel Event. t= 345 (17369) Note Off ch=5 par1=48 par2=64
Channel Event. t= 615 (17984) Note On ch=5 par1=48 par2=52
Channel Event. t= 310 (18294) Note Off ch=5 par1=48 par2=64
Channel Event. t= 650 (18944) Note On ch=5 par1=49 par2=65
Channel Event. t= 257 (19201) Note Off ch=5 par1=49 par2=64
Channel Event. t= 703 (19904) Note On ch=5 par1=50 par2=57
Channel Event. t= 310 (20214) Note Off ch=5 par1=50 par2=64
Channel Event. t= 1130 (21344) Note On ch=5 par1=43 par2=53
Channel Event. t= 252 (21596) Note Off ch=5 par1=43 par2=64
Channel Event. t= 228 (21824) Note On ch=5 par1=43 par2=61
Channel Event. t= 255 (22079) Note Off ch=5 par1=43 par2=64
Channel Event. t= 705 (22784) Note On ch=5 par1=43 par2=46
Channel Event. t= 262 (23046) Note Off ch=5 par1=43 par2=64
Channel Event. t= 698 (23744) Note On ch=5 par1=43 par2=62
Channel Event. t= 307 (24051) Note Off ch=5 par1=43 par2=64
Channel Event. t= 653 (24704) Note On ch=5 par1=48 par2=50
Channel Event. t= 352 (25056) Note Off ch=5 par1=48 par2=64
Channel Event. t= 608 (25664) Note On ch=5 par1=48 par2=61
Channel Event. t= 332 (25996) Note Off ch=5 par1=48 par2=64
Channel Event. t= 628 (26624) Note On ch=5 par1=49 par2=70
Channel Event. t= 317 (26941) Note Off ch=5 par1=49 par2=64
Channel Event. t= 643 (27584) Note On ch=5 par1=50 par2=60
Channel Event. t= 340 (27924) Note Off ch=5 par1=50 par2=64
Channel Event. t= 1100 (29024) Note On ch=5 par1=50 par2=58
Channel Event. t= 245 (29269) Note Off ch=5 par1=50 par2=64
Channel Event. t= 235 (29504) Note On ch=5 par1=43 par2=58
Channel Event. t= 347 (29851) Note Off ch=5 par1=43 par2=64
Channel Event. t= 133 (29984) Note On ch=5 par1=86 par2=75
Channel Event. t= 0 (29984) Note On ch=5 par1=79 par2=61
Channel Event. t= 387 (30371) Note Off ch=5 par1=86 par2=64
Channel Event. t= 38 (30409) Note Off ch=5 par1=79 par2=64
Channel Event. t= 55 (30464) Note On ch=5 par1=74 par2=81
Channel Event. t= 392 (30856) Note Off ch=5 par1=74 par2=64
Channel Event. t= 88 (30944) Note On ch=5 par1=50 par2=73
Channel Event. t= 322 (31266) Note Off ch=5 par1=50 par2=64
Channel Event. t= 158 (31424) Note On ch=5 par1=43 par2=78
Channel Event. t= 355 (31779) Note Off ch=5 par1=43 par2=64
Channel Event. t= 125 (31904) Note On ch=5 par1=86 par2=33
Channel Event. t= 0 (31904) Note On ch=5 par1=79 par2=41
Channel Event. t= 385 (32289) Note Off ch=5 par1=86 par2=64
Channel Event. t= 47 (32336) Note Off ch=5 par1=79 par2=64
Channel Event. t= 48 (32384) Note On ch=5 par1=74 par2=57
Channel Event. t= 400 (32784) Note Off ch=5 par1=74 par2=64
Channel Event. t= 80 (32864) Note On ch=5 par1=50 par2=48
Channel Event. t= 267 (33131) Note Off ch=5 par1=50 par2=64
Channel Event. t= 213 (33344) Note On ch=5 par1=43 par2=58
Channel Event. t= 247 (33591) Note Off ch=5 par1=43 par2=64
Channel Event. t= 233 (33824) Note On ch=5 par1=48 par2=77
Channel Event. t= 0 (33824) Note On ch=5 par1=91 par2=85
Channel Event. t= 0 (33824) Note On ch=5 par1=84 par2=90
Channel Event. t= 332 (34156) Note Off ch=5 par1=48 par2=64
Channel Event. t= 88 (34244) Note Off ch=5 par1=91 par2=64
Channel Event. t= 17 (34261) Note Off ch=5 par1=84 par2=64
Channel Event. t= 43 (34304) Note On ch=5 par1=47 par2=84
Channel Event. t= 0 (34304) Note On ch=5 par1=79 par2=84
Channel Event. t= 355 (34659) Note Off ch=5 par1=47 par2=64
Channel Event. t= 55 (34714) Note Off ch=5 par1=79 par2=64
Channel Event. t= 70 (34784) Note On ch=5 par1=41 par2=84
Channel Event. t= 325 (35109) Note Off ch=5 par1=41 par2=64
Channel Event. t= 155 (35264) Note On ch=5 par1=40 par2=81
Channel Event. t= 320 (35584) Note Off ch=5 par1=40 par2=64
Channel Event. t= 160 (35744) Note On ch=5 par1=38 par2=77
Channel Event. t= 195 (35939) Note Off ch=5 par1=38 par2=64
Channel Event. t= 285 (36224) Note On ch=5 par1=36 par2=63
Channel Event. t= 0 (36224) Note On ch=5 par1=52 par2=69
Channel Event. t= 0 (36224) Note On ch=5 par1=43 par2=63
Channel Event. t= 480 (36704) Note On ch=5 par1=76 par2=61
Channel Event. t= 0 (36704) Note On ch=5 par1=67 par2=47
Channel Event. t= 115 (36819) Note Off ch=5 par1=76 par2=64
Channel Event. t= 2 (36821) Note Off ch=5 par1=67 par2=64
Channel Event. t= 178 (36999) Note Off ch=5 par1=52 par2=64
Channel Event. t= 32 (37031) Note Off ch=5 par1=36 par2=64
Channel Event. t= 0 (37031) Note Off ch=5 par1=43 par2=64
Channel Event. t= 153 (37184) Note On ch=5 par1=52 par2=44
Channel Event. t= 0 (37184) Note On ch=5 par1=43 par2=36
Channel Event. t= 0 (37184) Note On ch=5 par1=36 par2=50
Channel Event. t= 480 (37664) Note On ch=5 par1=67 par2=48
Channel Event. t= 0 (37664) Note On ch=5 par1=76 par2=59
Channel Event. t= 77 (37741) Note Off ch=5 par1=36 par2=64
Channel Event. t= 18 (37759) Note Off ch=5 par1=43 par2=64
Channel Event. t= 7 (37766) Note Off ch=5 par1=52 par2=64
Channel Event. t= 83 (37849) Note Off ch=5 par1=67 par2=64
Channel Event. t= 7 (37856) Note Off ch=5 par1=76 par2=64
Channel Event. t= 288 (38144) Note On ch=5 par1=57 par2=53
Channel Event. t= 0 (38144) Note On ch=5 par1=41 par2=48
Channel Event. t= 0 (38144) Note On ch=5 par1=48 par2=49
Channel Event. t= 480 (38624) Note On ch=5 par1=69 par2=49
Channel Event. t= 0 (38624) Note On ch=5 par1=76 par2=60
Channel Event. t= 90 (38714) Note Off ch=5 par1=48 par2=64
Channel Event. t= 10 (38724) Note Off ch=5 par1=41 par2=64
Channel Event. t= 10 (38734) Note Off ch=5 par1=57 par2=64
Channel Event. t= 90 (38824) Note Off ch=5 par1=69 par2=64
Channel Event. t= 12 (38836) Note Off ch=5 par1=76 par2=64
Channel Event. t= 268 (39104) Note On ch=5 par1=57 par2=45
Channel Event. t= 0 (39104) Note On ch=5 par1=41 par2=35
Channel Event. t= 0 (39104) Note On ch=5 par1=48 par2=45
Channel Event. t= 480 (39584) Note On ch=5 par1=69 par2=58
Channel Event. t= 0 (39584) Note On ch=5 par1=76 par2=69
Channel Event. t= 62 (39646) Note Off ch=5 par1=41 par2=64
Channel Event. t= 18 (39664) Note Off ch=5 par1=48 par2=64
Channel Event. t= 17 (39681) Note Off ch=5 par1=57 par2=64
Channel Event. t= 85 (39766) Note Off ch=5 par1=76 par2=64
Channel Event. t= 3 (39769) Note Off ch=5 par1=69 par2=64
Channel Event. t= 295 (40064) Note On ch=5 par1=57 par2=50
Channel Event. t= 0 (40064) Note On ch=5 par1=42 par2=58
Channel Event. t= 0 (40064) Note On ch=5 par1=48 par2=49
Channel Event. t= 480 (40544) Note On ch=5 par1=76 par2=63
Channel Event. t= 0 (40544) Note On ch=5 par1=69 par2=53
Channel Event. t= 165 (40709) Note Off ch=5 par1=42 par2=64
Channel Event. t= 15 (40724) Note Off ch=5 par1=48 par2=64
Channel Event. t= 15 (40739) Note Off ch=5 par1=76 par2=64
Channel Event. t= 5 (40744) Note Off ch=5 par1=69 par2=64
Channel Event. t= 15 (40759) Note Off ch=5 par1=57 par2=64
Channel Event. t= 265 (41024) Note On ch=5 par1=43 par2=48
Channel Event. t= 0 (41024) Note On ch=5 par1=53 par2=55
Channel Event. t= 0 (41024) Note On ch=5 par1=48 par2=47
Channel Event. t= 480 (41504) Note On ch=5 par1=62 par2=61
Channel Event. t= 0 (41504) Note On ch=5 par1=72 par2=69
Channel Event. t= 52 (41556) Note Off ch=5 par1=53 par2=64
Channel Event. t= 3 (41559) Note Off ch=5 par1=48 par2=64
Channel Event. t= 32 (41591) Note Off ch=5 par1=43 par2=64
Channel Event. t= 88 (41679) Note Off ch=5 par1=62 par2=64
Channel Event. t= 12 (41691) Note Off ch=5 par1=72 par2=64
Channel Event. t= 773 (42464) Note On ch=5 par1=52 par2=52
Channel Event. t= 0 (42464) Note On ch=5 par1=43 par2=45
Channel Event. t= 0 (42464) Note On ch=5 par1=36 par2=44
Channel Event. t= 242 (42706) Note Off ch=5 par1=43 par2=64
Channel Event. t= 3 (42709) Note Off ch=5 par1=52 par2=64
Channel Event. t= 7 (42716) Note Off ch=5 par1=36 par2=64
Channel Event. t= 228 (42944) Note On ch=5 par1=52 par2=50
Channel Event. t= 0 (42944) Note On ch=5 par1=43 par2=44
Channel Event. t= 0 (42944) Note On ch=5 par1=36 par2=52
Channel Event. t= 0 (42944) Note On ch=5 par1=72 par2=64
Channel Event. t= 0 (42944) Note On ch=5 par1=64 par2=61
Channel Event. t= 225 (43169) Note Off ch=5 par1=64 par2=64
Channel Event. t= 25 (43194) Note Off ch=5 par1=72 par2=64
Channel Event. t= 102 (43296) Note Off ch=5 par1=36 par2=64
Channel Event. t= 3 (43299) Note Off ch=5 par1=43 par2=64
Channel Event. t= 15 (43314) Note Off ch=5 par1=52 par2=64
Channel Event. t= 590 (43904) Note On ch=5 par1=52 par2=49
Channel Event. t= 0 (43904) Note On ch=5 par1=43 par2=42
Channel Event. t= 0 (43904) Note On ch=5 par1=36 par2=45
Channel Event. t= 480 (44384) Note On ch=5 par1=76 par2=42
Channel Event. t= 0 (44384) Note On ch=5 par1=67 par2=32
Channel Event. t= 32 (44416) Note Off ch=5 par1=52 par2=64
Channel Event. t= 13 (44429) Note Off ch=5 par1=43 par2=64
Channel Event. t= 10 (44439) Note Off ch=5 par1=36 par2=64
Channel Event. t= 152 (44591) Note Off ch=5 par1=67 par2=64
Channel Event. t= 13 (44604) Note Off ch=5 par1=76 par2=64
Channel Event. t= 260 (44864) Note On ch=5 par1=43 par2=48
Channel Event. t= 0 (44864) Note On ch=5 par1=36 par2=48
Channel Event. t= 0 (44864) Note On ch=5 par1=52 par2=68
Channel Event. t= 480 (45344) Note On ch=5 par1=76 par2=38
Channel Event. t= 0 (45344) Note On ch=5 par1=67 par2=31
Channel Event. t= 32 (45376) Note Off ch=5 par1=36 par2=64
Channel Event. t= 0 (45376) Note Off ch=5 par1=43 par2=64
Channel Event. t= 8 (45384) Note Off ch=5 par1=52 par2=64
Channel Event. t= 182 (45566) Note Off ch=5 par1=67 par2=64
Channel Event. t= 13 (45579) Note Off ch=5 par1=76 par2=64
Channel Event. t= 245 (45824) Note On ch=5 par1=57 par2=62
Channel Event. t= 0 (45824) Note On ch=5 par1=48 par2=58
Channel Event. t= 0 (45824) Note On ch=5 par1=41 par2=46
Channel Event. t= 480 (46304) Note On ch=5 par1=76 par2=45
Channel Event. t= 0 (46304) Note On ch=5 par1=69 par2=38
Channel Event. t= 22 (46326) Note Off ch=5 par1=41 par2=64
Channel Event. t= 10 (46336) Note Off ch=5 par1=48 par2=64
Channel Event. t= 28 (46364) Note Off ch=5 par1=57 par2=64
Channel Event. t= 190 (46554) Note Off ch=5 par1=69 par2=64
Channel Event. t= 5 (46559) Note Off ch=5 par1=76 par2=64
Channel Event. t= 225 (46784) Note On ch=5 par1=57 par2=55
Channel Event. t= 0 (46784) Note On ch=5 par1=41 par2=45
Channel Event. t= 0 (46784) Note On ch=5 par1=48 par2=56
Channel Event. t= 480 (47264) Note On ch=5 par1=76 par2=54
Channel Event. t= 0 (47264) Note On ch=5 par1=69 par2=42
Channel Event. t= 50 (47314) Note Off ch=5 par1=48 par2=64
Channel Event. t= 0 (47314) Note Off ch=5 par1=41 par2=64
Channel Event. t= 22 (47336) Note Off ch=5 par1=57 par2=64
Channel Event. t= 130 (47466) Note Off ch=5 par1=69 par2=64
Channel Event. t= 33 (47499) Note Off ch=5 par1=76 par2=64
Channel Event. t= 245 (47744) Note On ch=5 par1=57 par2=53
Channel Event. t= 0 (47744) Note On ch=5 par1=48 par2=54
Channel Event. t= 0 (47744) Note On ch=5 par1=42 par2=60
Channel Event. t= 480 (48224) Note On ch=5 par1=69 par2=42
Channel Event. t= 0 (48224) Note On ch=5 par1=77 par2=55
Channel Event. t= 120 (48344) Note Off ch=5 par1=42 par2=64
Channel Event. t= 12 (48356) Note Off ch=5 par1=48 par2=64
Channel Event. t= 25 (48381) Note Off ch=5 par1=57 par2=64
Channel Event. t= 73 (48454) Note Off ch=5 par1=69 par2=64
Channel Event. t= 10 (48464) Note Off ch=5 par1=77 par2=64
Channel Event. t= 240 (48704) Note On ch=5 par1=57 par2=74
Channel Event. t= 0 (48704) Note On ch=5 par1=42 par2=66
Channel Event. t= 0 (48704) Note On ch=5 par1=48 par2=60
Channel Event. t= 480 (49184) Note On ch=5 par1=76 par2=55
Channel Event. t= 0 (49184) Note On ch=5 par1=69 par2=46
Channel Event. t= 25 (49209) Note Off ch=5 par1=48 par2=64
Channel Event. t= 2 (49211) Note Off ch=5 par1=42 par2=64
Channel Event. t= 25 (49236) Note Off ch=5 par1=57 par2=64
Channel Event. t= 118 (49354) Note Off ch=5 par1=69 par2=64
Channel Event. t= 15 (49369) Note Off ch=5 par1=76 par2=64
Channel Event. t= 775 (50144) Note On ch=5 par1=53 par2=80
Channel Event. t= 0 (50144) Note On ch=5 par1=50 par2=61
Channel Event. t= 0 (50144) Note On ch=5 par1=43 par2=65
Channel Event. t= 297 (50441) Note Off ch=5 par1=43 par2=64
Channel Event. t= 10 (50451) Note Off ch=5 par1=50 par2=64
Channel Event. t= 75 (50526) Note Off ch=5 par1=53 par2=64
Channel Event. t= 98 (50624) Note On ch=5 par1=43 par2=69
Channel Event. t= 0 (50624) Note On ch=5 par1=52 par2=83
Channel Event. t= 0 (50624) Note On ch=5 par1=36 par2=71
Channel Event. t= 467 (51091) Note Off ch=5 par1=52 par2=64
Channel Event. t= 20 (51111) Note Off ch=5 par1=36 par2=64
Channel Event. t= 13 (51124) Note Off ch=5 par1=43 par2=64
Channel Event. t= 340 (51464) Controller ch=5 par1=7 (Main Volume) par2=80
Channel Event. t= 90 (51554) Note On ch=5 par1=66 par2=93
Channel Event. t= 10 (51564) Note On ch=5 par1=58 par2=78
Channel Event. t= 2 (51566) Note On ch=5 par1=61 par2=70
Channel Event. t= 125 (51691) Note Off ch=5 par1=61 par2=64
Channel Event. t= 10 (51701) Note Off ch=5 par1=58 par2=64
Channel Event. t= 10 (51711) Note Off ch=5 par1=66 par2=64
Channel Event. t= 70 (51781) Note On ch=5 par1=66 par2=71
Channel Event. t= 10 (51791) Note On ch=5 par1=58 par2=74
Channel Event. t= 5 (51796) Note On ch=5 par1=61 par2=64
Channel Event. t= 113 (51909) Note Off ch=5 par1=61 par2=64
Channel Event. t= 5 (51914) Note Off ch=5 par1=66 par2=64
Channel Event. t= 5 (51919) Note Off ch=5 par1=58 par2=64
Channel Event. t= 85 (52004) Note On ch=5 par1=66 par2=53
Channel Event. t= 17 (52021) Note On ch=5 par1=61 par2=49
Channel Event. t= 3 (52024) Note On ch=5 par1=58 par2=62
Channel Event. t= 107 (52131) Note Off ch=5 par1=61 par2=64
Channel Event. t= 3 (52134) Note Off ch=5 par1=66 par2=64
Channel Event. t= 12 (52146) Note Off ch=5 par1=58 par2=64
Channel Event. t= 93 (52239) Note On ch=5 par1=66 par2=50
Channel Event. t= 10 (52249) Note On ch=5 par1=58 par2=55
Channel Event. t= 12 (52261) Note On ch=5 par1=61 par2=25
Channel Event. t= 108 (52369) Note Off ch=5 par1=61 par2=64
Channel Event. t= 2 (52371) Note Off ch=5 par1=66 par2=64
Channel Event. t= 10 (52381) Note Off ch=5 par1=58 par2=64
Channel Event. t= 103 (52484) Note On ch=5 par1=66 par2=24
Channel Event. t= 7 (52491) Note On ch=5 par1=58 par2=37
Channel Event. t= 10 (52501) Note On ch=5 par1=61 par2=17
Channel Event. t= 108 (52609) Note Off ch=5 par1=61 par2=64
Channel Event. t= 2 (52611) Note Off ch=5 par1=66 par2=64
Channel Event. t= 3 (52614) Note Off ch=5 par1=58 par2=64
Channel Event. t= 122 (52736) Note On ch=5 par1=66 par2=24
Channel Event. t= 10 (52746) Note On ch=5 par1=58 par2=27
Channel Event. t= 10 (52756) Note On ch=5 par1=61 par2=9
Channel Event. t= 93 (52849) Note Off ch=5 par1=66 par2=64
Channel Event. t= 5 (52854) Note Off ch=5 par1=61 par2=64
Channel Event. t= 5 (52859) Note Off ch=5 par1=58 par2=64
Channel Event. t= 112 (52971) Note On ch=5 par1=66 par2=20
Channel Event. t= 20 (52991) Note On ch=5 par1=58 par2=26
Channel Event. t= 10 (53001) Note On ch=5 par1=61 par2=11
Channel Event. t= 95 (53096) Note Off ch=5 par1=61 par2=64
Channel Event. t= 0 (53096) Note Off ch=5 par1=58 par2=64
Channel Event. t= 0 (53096) Note Off ch=5 par1=66 par2=64
Channel Event. t= 108 (53204) Note On ch=5 par1=66 par2=18
Channel Event. t= 17 (53221) Note On ch=5 par1=58 par2=31
Channel Event. t= 8 (53229) Note On ch=5 par1=61 par2=22
Channel Event. t= 97 (53326) Note Off ch=5 par1=61 par2=64
Channel Event. t= 3 (53329) Note Off ch=5 par1=58 par2=64
Channel Event. t= 5 (53334) Note Off ch=5 par1=66 par2=64
Channel Event. t= 102 (53436) Note On ch=5 par1=66 par2=17
Channel Event. t= 13 (53449) Note On ch=5 par1=58 par2=30
Channel Event. t= 17 (53466) Note On ch=5 par1=61 par2=13
Channel Event. t= 93 (53559) Note Off ch=5 par1=61 par2=64
Channel Event. t= 10 (53569) Note Off ch=5 par1=66 par2=64
Channel Event. t= 2 (53571) Note Off ch=5 par1=58 par2=64
Channel Event. t= 108 (53679) Note On ch=5 par1=66 par2=17
Channel Event. t= 17 (53696) Note On ch=5 par1=58 par2=29
Channel Event. t= 15 (53711) Note On ch=5 par1=61 par2=17
Channel Event. t= 90 (53801) Note Off ch=5 par1=61 par2=64
Channel Event. t= 5 (53806) Note Off ch=5 par1=66 par2=64
Channel Event. t= 8 (53814) Note Off ch=5 par1=58 par2=64
Channel Event. t= 125 (53939) Note On ch=5 par1=66 par2=21
Channel Event. t= 0 (53939) Note On ch=5 par1=58 par2=25
Channel Event. t= 12 (53951) Note On ch=5 par1=61 par2=15
Channel Event. t= 103 (54054) Note Off ch=5 par1=61 par2=64
Channel Event. t= 10 (54064) Note Off ch=5 par1=58 par2=64
Channel Event. t= 0 (54064) Note Off ch=5 par1=66 par2=64
Channel Event. t= 117 (54181) Note On ch=5 par1=66 par2=19
Channel Event. t= 3 (54184) Note On ch=5 par1=58 par2=25
Channel Event. t= 12 (54196) Note On ch=5 par1=61 par2=12
Channel Event. t= 95 (54291) Note Off ch=5 par1=61 par2=64
Channel Event. t= 0 (54291) Note Off ch=5 par1=66 par2=64
Channel Event. t= 5 (54296) Note Off ch=5 par1=58 par2=64
Channel Event. t= 133 (54429) Note On ch=5 par1=66 par2=35
Channel Event. t= 5 (54434) Note On ch=5 par1=58 par2=43
Channel Event. t= 7 (54441) Note On ch=5 par1=61 par2=14
Channel Event. t= 103 (54544) Note Off ch=5 par1=61 par2=64
Channel Event. t= 2 (54546) Note Off ch=5 par1=66 par2=64
Channel Event. t= 3 (54549) Note Off ch=5 par1=58 par2=64
Channel Event. t= 117 (54666) Note On ch=5 par1=66 par2=27
Channel Event. t= 5 (54671) Note On ch=5 par1=58 par2=34
Channel Event. t= 13 (54684) Note On ch=5 par1=61 par2=14
Channel Event. t= 87 (54771) Note Off ch=5 par1=61 par2=64
Channel Event. t= 5 (54776) Note Off ch=5 par1=66 par2=64
Channel Event. t= 8 (54784) Note Off ch=5 par1=58 par2=64
Channel Event. t= 122 (54906) Note On ch=5 par1=66 par2=26
Channel Event. t= 10 (54916) Note On ch=5 par1=58 par2=33
Channel Event. t= 15 (54931) Note On ch=5 par1=61 par2=15
Channel Event. t= 83 (55014) Note Off ch=5 par1=66 par2=64
Channel Event. t= 2 (55016) Note Off ch=5 par1=61 par2=64
Channel Event. t= 13 (55029) Note Off ch=5 par1=58 par2=64
Channel Event. t= 115 (55144) Note On ch=5 par1=66 par2=29
Channel Event. t= 12 (55156) Note On ch=5 par1=58 par2=26
Channel Event. t= 10 (55166) Note On ch=5 par1=61 par2=16
Channel Event. t= 95 (55261) Note Off ch=5 par1=61 par2=64
Channel Event. t= 5 (55266) Note Off ch=5 par1=66 par2=64
Channel Event. t= 8 (55274) Note Off ch=5 par1=58 par2=64
Channel Event. t= 107 (55381) Note On ch=5 par1=66 par2=26
Channel Event. t= 10 (55391) Note On ch=5 par1=58 par2=27
Channel Event. t= 15 (55406) Note On ch=5 par1=61 par2=13
Channel Event. t= 108 (55514) Note Off ch=5 par1=61 par2=64
Channel Event. t= 2 (55516) Note Off ch=5 par1=58 par2=64
Channel Event. t= 3 (55519) Note Off ch=5 par1=66 par2=64
Channel Event. t= 105 (55624) Note On ch=5 par1=66 par2=26
Channel Event. t= 12 (55636) Note On ch=5 par1=58 par2=33
Channel Event. t= 13 (55649) Note On ch=5 par1=61 par2=15
Channel Event. t= 100 (55749) Note Off ch=5 par1=66 par2=64
Channel Event. t= 2 (55751) Note Off ch=5 par1=61 par2=64
Channel Event. t= 5 (55756) Note Off ch=5 par1=58 par2=64
Channel Event. t= 120 (55876) Note On ch=5 par1=66 par2=23
Channel Event. t= 5 (55881) Note On ch=5 par1=58 par2=30
Channel Event. t= 8 (55889) Note On ch=5 par1=61 par2=9
Channel Event. t= 110 (55999) Note Off ch=5 par1=61 par2=64
Channel Event. t= 2 (56001) Note Off ch=5 par1=58 par2=64
Channel Event. t= 3 (56004) Note Off ch=5 par1=66 par2=64
Channel Event. t= 100 (56104) Note On ch=5 par1=66 par2=24
Channel Event. t= 17 (56121) Note On ch=5 par1=58 par2=36
Channel Event. t= 3 (56124) Note On ch=5 par1=61 par2=18
Channel Event. t= 97 (56221) Note Off ch=5 par1=61 par2=64
Channel Event. t= 0 (56221) Note Off ch=5 par1=66 par2=64
Channel Event. t= 3 (56224) Note Off ch=5 par1=58 par2=64
Channel Event. t= 115 (56339) Note On ch=5 par1=66 par2=28
Channel Event. t= 12 (56351) Note On ch=5 par1=58 par2=37
Channel Event. t= 8 (56359) Note On ch=5 par1=61 par2=10
Channel Event. t= 110 (56469) Note Off ch=5 par1=58 par2=64
Channel Event. t= 2 (56471) Note Off ch=5 par1=66 par2=64
Channel Event. t= 0 (56471) Note Off ch=5 par1=61 par2=64
Channel Event. t= 105 (56576) Note On ch=5 par1=66 par2=34
Channel Event. t= 8 (56584) Note On ch=5 par1=58 par2=36
Channel Event. t= 2 (56586) Note On ch=5 par1=61 par2=15
Channel Event. t= 110 (56696) Note Off ch=5 par1=66 par2=64
Channel Event. t= 3 (56699) Note Off ch=5 par1=58 par2=64
Channel Event. t= 0 (56699) Note Off ch=5 par1=61 par2=64
Channel Event. t= 115 (56814) Note On ch=5 par1=66 par2=29
Channel Event. t= 7 (56821) Note On ch=5 par1=58 par2=36
Channel Event. t= 8 (56829) Note On ch=5 par1=61 par2=15
Channel Event. t= 112 (56941) Note Off ch=5 par1=61 par2=64
Channel Event. t= 0 (56941) Note Off ch=5 par1=58 par2=64
Channel Event. t= 5 (56946) Note Off ch=5 par1=66 par2=64
Channel Event. t= 98 (57044) Note On ch=5 par1=66 par2=31
Channel Event. t= 17 (57061) Note On ch=5 par1=58 par2=31
Channel Event. t= 5 (57066) Note On ch=5 par1=61 par2=13
Channel Event. t= 105 (57171) Note Off ch=5 par1=61 par2=64
Channel Event. t= 0 (57171) Note Off ch=5 par1=58 par2=64
Channel Event. t= 0 (57171) Note Off ch=5 par1=66 par2=64
Channel Event. t= 115 (57286) Note On ch=5 par1=66 par2=28
Channel Event. t= 10 (57296) Note On ch=5 par1=61 par2=15
Channel Event. t= 0 (57296) Note On ch=5 par1=58 par2=38
Channel Event. t= 120 (57416) Note Off ch=5 par1=61 par2=64
Channel Event. t= 3 (57419) Note Off ch=5 par1=58 par2=64
Channel Event. t= 12 (57431) Note Off ch=5 par1=66 par2=64
Channel Event. t= 95 (57526) Note On ch=5 par1=66 par2=22
Channel Event. t= 13 (57539) Note On ch=5 par1=58 par2=37
Channel Event. t= 7 (57546) Note On ch=5 par1=61 par2=14
Channel Event. t= 103 (57649) Note Off ch=5 par1=61 par2=64
Channel Event. t= 2 (57651) Note Off ch=5 par1=66 par2=64
Channel Event. t= 5 (57656) Note Off ch=5 par1=58 par2=64
Channel Event. t= 113 (57769) Note On ch=5 par1=66 par2=36
Channel Event. t= 12 (57781) Note On ch=5 par1=58 par2=36
Channel Event. t= 5 (57786) Note On ch=5 par1=61 par2=20
Channel Event. t= 108 (57894) Note Off ch=5 par1=61 par2=64
Channel Event. t= 5 (57899) Note Off ch=5 par1=58 par2=64
Channel Event. t= 5 (57904) Note Off ch=5 par1=66 par2=64
Channel Event. t= 107 (58011) Note On ch=5 par1=66 par2=36
Channel Event. t= 10 (58021) Note On ch=5 par1=58 par2=47
Channel Event. t= 10 (58031) Note On ch=5 par1=61 par2=24
Channel Event. t= 105 (58136) Note Off ch=5 par1=61 par2=64
Channel Event. t= 10 (58146) Note Off ch=5 par1=58 par2=64
Channel Event. t= 10 (58156) Note Off ch=5 par1=66 par2=64
Channel Event. t= 105 (58261) Note On ch=5 par1=66 par2=36
Channel Event. t= 8 (58269) Note On ch=5 par1=58 par2=45
Channel Event. t= 7 (58276) Note On ch=5 par1=61 par2=31
Channel Event. t= 115 (58391) Note Off ch=5 par1=61 par2=64
Channel Event. t= 5 (58396) Note Off ch=5 par1=58 par2=64
Channel Event. t= 13 (58409) Note Off ch=5 par1=66 par2=64
Channel Event. t= 102 (58511) Note On ch=5 par1=66 par2=46
Channel Event. t= 10 (58521) Note On ch=5 par1=58 par2=47
Channel Event. t= 5 (58526) Note On ch=5 par1=61 par2=32
Channel Event. t= 108 (58634) Note Off ch=5 par1=61 par2=64
Channel Event. t= 10 (58644) Note Off ch=5 par1=58 par2=64
Channel Event. t= 12 (58656) Note Off ch=5 par1=66 par2=64
Channel Event. t= 105 (58761) Note On ch=5 par1=66 par2=51
Channel Event. t= 8 (58769) Note On ch=5 par1=58 par2=44
Channel Event. t= 7 (58776) Note On ch=5 par1=61 par2=31
Channel Event. t= 103 (58879) Note Off ch=5 par1=61 par2=64
Channel Event. t= 12 (58891) Note Off ch=5 par1=58 par2=64
Channel Event. t= 13 (58904) Note Off ch=5 par1=66 par2=64
Channel Event. t= 105 (59009) Note On ch=5 par1=66 par2=60
Channel Event. t= 5 (59014) Note On ch=5 par1=58 par2=53
Channel Event. t= 5 (59019) Note On ch=5 par1=61 par2=44
Channel Event. t= 72 (59091) Note Off ch=5 par1=61 par2=64
Channel Event. t= 20 (59111) Note Off ch=5 par1=58 par2=64
Channel Event. t= 63 (59174) Note Off ch=5 par1=66 par2=64
Channel Event. t= 112 (59286) Note On ch=5 par1=59 par2=90
Channel Event. t= 5 (59291) Note On ch=5 par1=50 par2=64
Channel Event. t= 3 (59294) Note On ch=5 par1=53 par2=70
Channel Event. t= 222 (59516) Note On ch=5 par1=67 par2=84
Channel Event. t= 245 (59761) Note On ch=5 par1=66 par2=96
Channel Event. t= 48 (59809) Note Off ch=5 par1=67 par2=64
Channel Event. t= 175 (59984) Note On ch=5 par1=63 par2=91
Channel Event. t= 47 (60031) Note Off ch=5 par1=66 par2=64
Channel Event. t= 190 (60221) Note On ch=5 par1=62 par2=90
Channel Event. t= 18 (60239) Note Off ch=5 par1=63 par2=64
Channel Event. t= 210 (60449) Note On ch=5 par1=63 par2=89
Channel Event. t= 52 (60501) Note Off ch=5 par1=62 par2=64
Channel Event. t= 190 (60691) Note On ch=5 par1=66 par2=91
Channel Event. t= 43 (60734) Note Off ch=5 par1=63 par2=64
Channel Event. t= 182 (60916) Note On ch=5 par1=67 par2=73
Channel Event. t= 43 (60959) Note Off ch=5 par1=66 par2=64
Channel Event. t= 210 (61169) Note On ch=5 par1=60 par2=104
Channel Event. t= 22 (61191) Note Off ch=5 par1=67 par2=64
Channel Event. t= 475 (61666) Note On ch=5 par1=63 par2=104
Channel Event. t= 25 (61691) Note Off ch=5 par1=60 par2=64
Channel Event. t= 195 (61886) Note On ch=5 par1=66 par2=91
Channel Event. t= 33 (61919) Note Off ch=5 par1=63 par2=64
Channel Event. t= 197 (62116) Note On ch=5 par1=67 par2=90
Channel Event. t= 20 (62136) Note Off ch=5 par1=66 par2=64
Channel Event. t= 460 (62596) Note On ch=5 par1=66 par2=86
Channel Event. t= 43 (62639) Note Off ch=5 par1=67 par2=64
Channel Event. t= 225 (62864) Note Off ch=5 par1=53 par2=64
Channel Event. t= 35 (62899) Note Off ch=5 par1=66 par2=64
Channel Event. t= 2 (62901) Note Off ch=5 par1=50 par2=64
Channel Event. t= 3 (62904) Note Off ch=5 par1=59 par2=64
Channel Event. t= 170 (63074) Note On ch=5 par1=59 par2=42
Channel Event. t= 7 (63081) Note On ch=5 par1=50 par2=56
Channel Event. t= 8 (63089) Note On ch=5 par1=53 par2=37
Channel Event. t= 227 (63316) Note On ch=5 par1=67 par2=84
Channel Event. t= 238 (63554) Note On ch=5 par1=66 par2=78
Channel Event. t= 20 (63574) Note Off ch=5 par1=67 par2=64
Channel Event. t= 210 (63784) Note On ch=5 par1=63 par2=80
Channel Event. t= 37 (63821) Note Off ch=5 par1=66 par2=64
Channel Event. t= 198 (64019) Note On ch=5 par1=62 par2=81
Channel Event. t= 2 (64021) Note Off ch=5 par1=63 par2=64
Channel Event. t= 228 (64249) Note On ch=5 par1=63 par2=75
Channel Event. t= 55 (64304) Note Off ch=5 par1=62 par2=64
Channel Event. t= 192 (64496) Note On ch=5 par1=66 par2=86
Channel Event. t= 30 (64526) Note Off ch=5 par1=63 par2=64
Channel Event. t= 215 (64741) Note Off ch=5 par1=66 par2=64
Channel Event. t= 0 (64741) Note On ch=5 par1=67 par2=74
Channel Event. t= 185 (64926) Note Off ch=5 par1=53 par2=64
Channel Event. t= 15 (64941) Note Off ch=5 par1=50 par2=64
Channel Event. t= 43 (64984) Note On ch=5 par1=74 par2=96
Channel Event. t= 27 (65011) Note Off ch=5 par1=67 par2=64
Channel Event. t= 15 (65026) Note On ch=5 par1=50 par2=31
Channel Event. t= 8 (65034) Note On ch=5 par1=53 par2=39
Channel Event. t= 2 (65036) Note On ch=5 par1=60 par2=46
Channel Event. t= 45 (65081) Note Off ch=5 par1=59 par2=64
Channel Event. t= 373 (65454) Note On ch=5 par1=75 par2=93
Channel Event. t= 25 (65479) Note Off ch=5 par1=74 par2=64
Channel Event. t= 212 (65691) Note On ch=5 par1=74 par2=80
Channel Event. t= 13 (65704) Note Off ch=5 par1=75 par2=64
Channel Event. t= 242 (65946) Note On ch=5 par1=72 par2=86
Channel Event. t= 33 (65979) Note Off ch=5 par1=74 par2=64
Channel Event. t= 452 (66431) Note On ch=5 par1=65 par2=89
Channel Event. t= 15 (66446) Note Off ch=5 par1=72 par2=64
Channel Event. t= 378 (66824) Note Off ch=5 par1=50 par2=64
Channel Event. t= 2 (66826) Note Off ch=5 par1=53 par2=64
Channel Event. t= 15 (66841) Note Off ch=5 par1=65 par2=64
Channel Event. t= 75 (66916) Note On ch=5 par1=59 par2=41
Channel Event. t= 0 (66916) Note On ch=5 par1=66 par2=90
Channel Event. t= 33 (66949) Note On ch=5 par1=53 par2=18
Channel Event. t= 12 (66961) Note On ch=5 par1=50 par2=34
Channel Event. t= 80 (67041) Note Off ch=5 par1=60 par2=64
Channel Event. t= 365 (67406) Note On ch=5 par1=67 par2=69
Channel Event. t= 38 (67444) Note Off ch=5 par1=66 par2=64
Channel Event. t= 407 (67851) Note Off ch=5 par1=53 par2=64
Channel Event. t= 18 (67869) Note Off ch=5 par1=59 par2=64
Channel Event. t= 10 (67879) Note Off ch=5 par1=50 par2=64
Channel Event. t= 5 (67884) Note On ch=5 par1=66 par2=65
Channel Event. t= 60 (67944) Note Off ch=5 par1=67 par2=64
Channel Event. t= 245 (68189) Note Off ch=5 par1=66 par2=64
Channel Event. t= 152 (68341) Note On ch=5 par1=42 par2=53
Channel Event. t= 8 (68349) Note On ch=5 par1=54 par2=42
Channel Event. t= 295 (68644) Note Off ch=5 par1=42 par2=64
Channel Event. t= 32 (68676) Note Off ch=5 par1=54 par2=64
Channel Event. t= 125 (68801) Note On ch=5 par1=43 par2=56
Channel Event. t= 33 (68834) Note On ch=5 par1=55 par2=57
Channel Event. t= 282 (69116) Note Off ch=5 par1=55 par2=64
Channel Event. t= 80 (69196) Note Off ch=5 par1=43 par2=64
Channel Event. t= 603 (69799) Note On ch=5 par1=41 par2=55
Channel Event. t= 10 (69809) Note On ch=5 par1=53 par2=59
Channel Event. t= 335 (70144) Note Off ch=5 par1=53 par2=64
Channel Event. t= 10 (70154) Note Off ch=5 par1=41 par2=64
Channel Event. t= 605 (70759) Note On ch=5 par1=40 par2=56
Channel Event. t= 12 (70771) Note On ch=5 par1=52 par2=50
Channel Event. t= 358 (71129) Note Off ch=5 par1=52 par2=64
Channel Event. t= 35 (71164) Note Off ch=5 par1=40 par2=64
Channel Event. t= 555 (71719) Note On ch=5 par1=50 par2=42
Channel Event. t= 32 (71751) Note On ch=5 par1=38 par2=43
Channel Event. t= 373 (72124) Note Off ch=5 par1=50 par2=64
Channel Event. t= 20 (72144) Note Off ch=5 par1=38 par2=64
Channel Event. t= 555 (72699) Note On ch=5 par1=36 par2=41
Channel Event. t= 2 (72701) Note On ch=5 par1=43 par2=49
Channel Event. t= 308 (73009) Note Off ch=5 par1=43 par2=64
Channel Event. t= 2 (73011) Note Off ch=5 par1=36 par2=64
Channel Event. t= 623 (73634) Note On ch=5 par1=36 par2=36
Channel Event. t= 0 (73634) Note On ch=5 par1=43 par2=40
Channel Event. t= 337 (73971) Note Off ch=5 par1=36 par2=64
Channel Event. t= 23 (73994) Note Off ch=5 par1=43 par2=64
Channel Event. t= 615 (74609) Note On ch=5 par1=48 par2=42
Channel Event. t= 2 (74611) Note On ch=5 par1=41 par2=41
Channel Event. t= 305 (74916) Note Off ch=5 par1=41 par2=64
Channel Event. t= 20 (74936) Note Off ch=5 par1=48 par2=64
Channel Event. t= 620 (75556) Note On ch=5 par1=48 par2=43
Channel Event. t= 5 (75561) Note On ch=5 par1=41 par2=43
Channel Event. t= 295 (75856) Note Off ch=5 par1=41 par2=64
Channel Event. t= 13 (75869) Note Off ch=5 par1=48 par2=64
Channel Event. t= 650 (76519) Note On ch=5 par1=42 par2=53
Channel Event. t= 5 (76524) Note On ch=5 par1=48 par2=35
Channel Event. t= 320 (76844) Note Off ch=5 par1=42 par2=64
Channel Event. t= 20 (76864) Note Off ch=5 par1=48 par2=64
Channel Event. t= 630 (77494) Note On ch=5 par1=43 par2=50
Channel Event. t= 5 (77499) Note On ch=5 par1=48 par2=49
Channel Event. t= 290 (77789) Note Off ch=5 par1=43 par2=64
Channel Event. t= 12 (77801) Note Off ch=5 par1=48 par2=64
Channel Event. t= 1120 (78921) Note On ch=5 par1=43 par2=49
Channel Event. t= 5 (78926) Note On ch=5 par1=50 par2=44
Channel Event. t= 163 (79089) Note Off ch=5 par1=50 par2=64
Channel Event. t= 62 (79151) Note Off ch=5 par1=43 par2=64
Channel Event. t= 245 (79396) Note On ch=5 par1=43 par2=63
Channel Event. t= 15 (79411) Note On ch=5 par1=36 par2=63
Channel Event. t= 205 (79616) Note Off ch=5 par1=36 par2=64
Channel Event. t= 83 (79699) Note Off ch=5 par1=43 par2=64
Channel Event. t= 197 (79896) Note On ch=5 par1=36 par2=69
Channel Event. t= 345 (80241) Note Off ch=5 par1=36 par2=64
Channel Event. t= 120 (80361) Note On ch=5 par1=35 par2=64
Channel Event. t= 310 (80671) Note Off ch=5 par1=35 par2=64
Channel Event. t= 160 (80831) Note On ch=5 par1=33 par2=66
Channel Event. t= 315 (81146) Note Off ch=5 par1=33 par2=64
Channel Event. t= 163 (81309) Note On ch=5 par1=31 par2=69
Channel Event. t= 372 (81681) Note Off ch=5 par1=31 par2=64
Channel Event. t= 98 (81779) Note On ch=5 par1=42 par2=72
Channel Event. t= 430 (82209) Note Off ch=5 par1=42 par2=64
Channel Event. t= 72 (82281) Note On ch=5 par1=40 par2=63
Channel Event. t= 383 (82664) Note Off ch=5 par1=40 par2=64
Channel Event. t= 92 (82756) Note On ch=5 par1=38 par2=62
Channel Event. t= 343 (83099) Note Off ch=5 par1=38 par2=64
Channel Event. t= 130 (83229) Note On ch=5 par1=37 par2=77
Channel Event. t= 540 (83769) Note Off ch=5 par1=37 par2=64
Channel Event. t= 5310 (89079) Note On ch=5 par1=64 par2=16
Channel Event. t= 137 (89216) Note Off ch=5 par1=64 par2=64
Channel Event. t= 280 (89496) Note On ch=5 par1=61 par2=33
Channel Event. t= 3 (89499) Note On ch=5 par1=64 par2=30
Channel Event. t= 157 (89656) Note Off ch=5 par1=61 par2=64
Channel Event. t= 28 (89684) Note Off ch=5 par1=64 par2=64
Channel Event. t= 290 (89974) Note On ch=5 par1=61 par2=36
Channel Event. t= 0 (89974) Note On ch=5 par1=64 par2=41
Channel Event. t= 182 (90156) Note Off ch=5 par1=61 par2=64
Channel Event. t= 25 (90181) Note Off ch=5 par1=64 par2=64
Channel Event. t= 258 (90439) Note On ch=5 par1=61 par2=41
Channel Event. t= 2 (90441) Note On ch=5 par1=64 par2=44
Channel Event. t= 180 (90621) Note Off ch=5 par1=61 par2=64
Channel Event. t= 25 (90646) Note Off ch=5 par1=64 par2=64
Channel Event. t= 280 (90926) Note On ch=5 par1=61 par2=40
Channel Event. t= 5 (90931) Note On ch=5 par1=64 par2=45
Channel Event. t= 158 (91089) Note Off ch=5 par1=61 par2=64
Channel Event. t= 22 (91111) Note Off ch=5 par1=64 par2=64
Channel Event. t= 303 (91414) Note On ch=5 par1=61 par2=45
Channel Event. t= 0 (91414) Note On ch=5 par1=64 par2=49
Channel Event. t= 135 (91549) Note Off ch=5 par1=61 par2=64
Channel Event. t= 20 (91569) Note Off ch=5 par1=64 par2=64
Channel Event. t= 302 (91871) Note On ch=5 par1=61 par2=58
Channel Event. t= 3 (91874) Note On ch=5 par1=64 par2=58
Channel Event. t= 205 (92079) Note Off ch=5 par1=61 par2=64
Channel Event. t= 20 (92099) Note Off ch=5 par1=64 par2=64
Channel Event. t= 50 (92149) Note On ch=5 par1=41 par2=70
Channel Event. t= 162 (92311) Note On ch=5 par1=42 par2=86
Channel Event. t= 13 (92324) Note Off ch=5 par1=41 par2=64
Channel Event. t= 40 (92364) Note On ch=5 par1=61 par2=56
Channel Event. t= 2 (92366) Note On ch=5 par1=64 par2=59
Channel Event. t= 125 (92491) Note Off ch=5 par1=42 par2=64
Channel Event. t= 53 (92544) Note Off ch=5 par1=61 par2=64
Channel Event. t= 25 (92569) Note Off ch=5 par1=64 par2=64
Channel Event. t= 247 (92816) Note On ch=5 par1=63 par2=65
Channel Event. t= 3 (92819) Note On ch=5 par1=60 par2=53
Channel Event. t= 197 (93016) Note Off ch=5 par1=63 par2=64
Channel Event. t= 15 (93031) Note Off ch=5 par1=60 par2=64
Channel Event. t= 105 (93136) Note On ch=5 par1=41 par2=74
Channel Event. t= 148 (93284) Note On ch=5 par1=63 par2=65
Channel Event. t= 10 (93294) Note On ch=5 par1=42 par2=91
Channel Event. t= 5 (93299) Note On ch=5 par1=60 par2=46
Channel Event. t= 12 (93311) Note Off ch=5 par1=41 par2=64
Channel Event. t= 145 (93456) Note Off ch=5 par1=42 par2=64
Channel Event. t= 3 (93459) Note Off ch=5 par1=63 par2=64
Channel Event. t= 57 (93516) Note Off ch=5 par1=60 par2=64
Channel Event. t= 263 (93779) Note On ch=5 par1=62 par2=60
Channel Event. t= 5 (93784) Note On ch=5 par1=59 par2=52
Channel Event. t= 215 (93999) Note Off ch=5 par1=59 par2=64
Channel Event. t= 15 (94014) Note Off ch=5 par1=62 par2=64
Channel Event. t= 85 (94099) Note On ch=5 par1=41 par2=71
Channel Event. t= 155 (94254) Note On ch=5 par1=62 par2=52
Channel Event. t= 2 (94256) Note On ch=5 par1=59 par2=44
Channel Event. t= 15 (94271) Note On ch=5 par1=42 par2=92
Channel Event. t= 25 (94296) Note Off ch=5 par1=41 par2=64
Channel Event. t= 160 (94456) Note Off ch=5 par1=42 par2=64
Channel Event. t= 5 (94461) Note Off ch=5 par1=59 par2=64
Channel Event. t= 15 (94476) Note Off ch=5 par1=62 par2=64
Channel Event. t= 263 (94739) Note On ch=5 par1=61 par2=53
Channel Event. t= 12 (94751) Note On ch=5 par1=58 par2=59
Channel Event. t= 203 (94954) Note Off ch=5 par1=58 par2=64
Channel Event. t= 20 (94974) Note Off ch=5 par1=61 par2=64
Channel Event. t= 110 (95084) Note On ch=5 par1=41 par2=69
Channel Event. t= 155 (95239) Note On ch=5 par1=42 par2=88
Channel Event. t= 5 (95244) Note On ch=5 par1=58 par2=59
Channel Event. t= 0 (95244) Note On ch=5 par1=61 par2=64
Channel Event. t= 15 (95259) Note Off ch=5 par1=41 par2=64
Channel Event. t= 162 (95421) Note Off ch=5 par1=58 par2=64
Channel Event. t= 13 (95434) Note Off ch=5 par1=42 par2=64
Channel Event. t= 12 (95446) Note Off ch=5 par1=61 par2=64
Channel Event. t= 275 (95721) Note On ch=5 par1=43 par2=91
Channel Event. t= 13 (95734) Note On ch=5 par1=79 par2=98
Channel Event. t= 692 (96426) Note On ch=5 par1=78 par2=93
Channel Event. t= 45 (96471) Note On ch=5 par1=42 par2=89
Channel Event. t= 5 (96476) Note Off ch=5 par1=79 par2=64
Channel Event. t= 3 (96479) Note Off ch=5 par1=43 par2=64
Channel Event. t= 187 (96666) Note On ch=5 par1=76 par2=91
Channel Event. t= 5 (96671) Note Off ch=5 par1=42 par2=64
Channel Event. t= 3 (96674) Note On ch=5 par1=40 par2=80
Channel Event. t= 5 (96679) Note Off ch=5 par1=78 par2=64
Channel Event. t= 205 (96884) Note Off ch=5 par1=40 par2=64
Channel Event. t= 12 (96896) Note On ch=5 par1=74 par2=91
Channel Event. t= 8 (96904) Note On ch=5 par1=38 par2=88
Channel Event. t= 5 (96909) Note Off ch=5 par1=76 par2=64
Channel Event. t= 185 (97094) Note Off ch=5 par1=38 par2=64
Channel Event. t= 35 (97129) Note On ch=5 par1=73 par2=97
Channel Event. t= 32 (97161) Note Off ch=5 par1=74 par2=64
Channel Event. t= 20 (97181) Note On ch=5 par1=37 par2=99
Channel Event. t= 213 (97394) Note Off ch=5 par1=37 par2=64
Channel Event. t= 105 (97499) Note On ch=5 par1=35 par2=88
Channel Event. t= 50 (97549) Note Off ch=5 par1=73 par2=64
Channel Event. t= 72 (97621) Note On ch=5 par1=71 par2=95
Channel Event. t= 18 (97639) Note On ch=5 par1=42 par2=78
Channel Event. t= 50 (97689) Note Off ch=5 par1=35 par2=64
Channel Event. t= 105 (97794) Note Off ch=5 par1=42 par2=64
Channel Event. t= 100 (97894) Note Off ch=5 par1=71 par2=64
Channel Event. t= 55 (97949) Note On ch=5 par1=42 par2=74
Channel Event. t= 150 (98099) Note Off ch=5 par1=42 par2=64
Channel Event. t= 7 (98106) Note On ch=5 par1=78 par2=70
Channel Event. t= 3 (98109) Note On ch=5 par1=83 par2=63
Channel Event. t= 22 (98131) Note On ch=5 par1=35 par2=73
Channel Event. t= 243 (98374) Note Off ch=5 par1=78 par2=64
Channel Event. t= 12 (98386) Note Off ch=5 par1=83 par2=64
Channel Event. t= 213 (98599) Note On ch=5 par1=81 par2=61
Channel Event. t= 2 (98601) Note On ch=5 par1=76 par2=59
Channel Event. t= 233 (98834) Note On ch=5 par1=36 par2=91
Channel Event. t= 7 (98841) Note Off ch=5 par1=35 par2=64
Channel Event. t= 10 (98851) Note Off ch=5 par1=81 par2=64
Channel Event. t= 45 (98896) Note Off ch=5 par1=76 par2=64
Channel Event. t= 170 (99066) Note On ch=5 par1=38 par2=86
Channel Event. t= 5 (99071) Note On ch=5 par1=79 par2=63
Channel Event. t= 5 (99076) Note Off ch=5 par1=36 par2=64
Channel Event. t= 3 (99079) Note On ch=5 par1=74 par2=60
Channel Event. t= 220 (99299) Note Off ch=5 par1=38 par2=64
Channel Event. t= 10 (99309) Note On ch=5 par1=40 par2=79
Channel Event. t= 25 (99334) Note Off ch=5 par1=74 par2=64
Channel Event. t= 20 (99354) Note Off ch=5 par1=79 par2=64
Channel Event. t= 192 (99546) Note On ch=5 par1=78 par2=58
Channel Event. t= 5 (99551) Note On ch=5 par1=73 par2=58
Channel Event. t= 3 (99554) Note On ch=5 par1=42 par2=95
Channel Event. t= 10 (99564) Note Off ch=5 par1=40 par2=64
Channel Event. t= 270 (99834) Note Off ch=5 par1=78 par2=64
Channel Event. t= 7 (99841) Note Off ch=5 par1=42 par2=64
Channel Event. t= 15 (99856) Note Off ch=5 par1=73 par2=64
Channel Event. t= 30 (99886) Note On ch=5 par1=38 par2=82
Channel Event. t= 148 (100034) Note On ch=5 par1=45 par2=90
Channel Event. t= 7 (100041) Note Off ch=5 par1=38 par2=64
Channel Event. t= 0 (100041) Note On ch=5 par1=66 par2=59
Channel Event. t= 148 (100189) Note Off ch=5 par1=45 par2=64
Channel Event. t= 62 (100251) Note On ch=5 par1=45 par2=68
Channel Event. t= 113 (100364) Note Off ch=5 par1=66 par2=64
Channel Event. t= 72 (100436) Note Off ch=5 par1=45 par2=64
Channel Event. t= 60 (100496) Note On ch=5 par1=45 par2=75
Channel Event. t= 18 (100514) Note On ch=5 par1=67 par2=56
Channel Event. t= 165 (100679) Note Off ch=5 par1=45 par2=64
Channel Event. t= 75 (100754) Note On ch=5 par1=45 par2=82
Channel Event. t= 87 (100841) Note Off ch=5 par1=67 par2=64
Channel Event. t= 80 (100921) Note Off ch=5 par1=45 par2=64
Channel Event. t= 63 (100984) Note On ch=5 par1=68 par2=63
Channel Event. t= 2 (100986) Note On ch=5 par1=45 par2=72
Channel Event. t= 153 (101139) Note On ch=5 par1=47 par2=77
Channel Event. t= 50 (101189) Note Off ch=5 par1=45 par2=64
Channel Event. t= 87 (101276) Note On ch=5 par1=48 par2=89
Channel Event. t= 13 (101289) Note Off ch=5 par1=47 par2=64
Channel Event. t= 15 (101304) Note Off ch=5 par1=68 par2=64
Channel Event. t= 140 (101444) Note Off ch=5 par1=48 par2=64
Channel Event. t= 15 (101459) Note On ch=5 par1=69 par2=65
Channel Event. t= 5 (101464) Note On ch=5 par1=49 par2=104
Channel Event. t= 335 (101799) Note Off ch=5 par1=69 par2=64
Channel Event. t= 162 (101961) Note On ch=5 par1=69 par2=61
Channel Event. t= 158 (102119) Note On ch=5 par1=50 par2=90
Channel Event. t= 17 (102136) Note Off ch=5 par1=49 par2=64
Channel Event. t= 123 (102259) Note Off ch=5 par1=69 par2=64
Channel Event. t= 7 (102266) Note On ch=5 par1=51 par2=95
Channel Event. t= 33 (102299) Note Off ch=5 par1=50 par2=64
Channel Event. t= 135 (102434) Note On ch=5 par1=46 par2=102
Channel Event. t= 12 (102446) Note Off ch=5 par1=51 par2=64
Channel Event. t= 265 (102711) Note Off ch=5 par1=46 par2=64
Channel Event. t= 2418 (105129) Note On ch=5 par1=63 par2=85
Channel Event. t= 182 (105311) Note On ch=5 par1=61 par2=81
Channel Event. t= 5 (105316) Note On ch=5 par1=64 par2=79
Channel Event. t= 25 (105341) Note Off ch=5 par1=63 par2=64
Channel Event. t= 120 (105461) Note Off ch=5 par1=61 par2=64
Channel Event. t= 45 (105506) Note Off ch=5 par1=64 par2=64
Channel Event. t= 115 (105621) Note On ch=5 par1=41 par2=91
Channel Event. t= 8 (105629) Note On ch=5 par1=63 par2=80
Channel Event. t= 150 (105779) Note On ch=5 par1=42 par2=93
Channel Event. t= 22 (105801) Note Off ch=5 par1=41 par2=64
Channel Event. t= 0 (105801) Note On ch=5 par1=61 par2=80
Channel Event. t= 10 (105811) Note On ch=5 par1=64 par2=78
Channel Event. t= 40 (105851) Note Off ch=5 par1=63 par2=64
Channel Event. t= 80 (105931) Note Off ch=5 par1=61 par2=64
Channel Event. t= 25 (105956) Note Off ch=5 par1=64 par2=64
Channel Event. t= 105 (106061) Note Off ch=5 par1=42 par2=64
Channel Event. t= 43 (106104) Note On ch=5 par1=62 par2=81
Channel Event. t= 182 (106286) Note On ch=5 par1=60 par2=79
Channel Event. t= 0 (106286) Note On ch=5 par1=63 par2=80
Channel Event. t= 65 (106351) Note Off ch=5 par1=62 par2=64
Channel Event. t= 88 (106439) Note Off ch=5 par1=63 par2=64
Channel Event. t= 5 (106444) Note Off ch=5 par1=60 par2=64
Channel Event. t= 142 (106586) Note On ch=5 par1=41 par2=85
Channel Event. t= 0 (106586) Note On ch=5 par1=62 par2=86
Channel Event. t= 148 (106734) Note On ch=5 par1=42 par2=95
Channel Event. t= 10 (106744) Note On ch=5 par1=63 par2=82
Channel Event. t= 2 (106746) Note On ch=5 par1=60 par2=79
Channel Event. t= 10 (106756) Note Off ch=5 par1=41 par2=64
Channel Event. t= 28 (106784) Note Off ch=5 par1=62 par2=64
Channel Event. t= 127 (106911) Note Off ch=5 par1=63 par2=64
Channel Event. t= 3 (106914) Note Off ch=5 par1=60 par2=64
Channel Event. t= 75 (106989) Note Off ch=5 par1=42 par2=64
Channel Event. t= 67 (107056) Note On ch=5 par1=61 par2=80
Channel Event. t= 165 (107221) Note On ch=5 par1=62 par2=77
Channel Event. t= 3 (107224) Note On ch=5 par1=59 par2=84
Channel Event. t= 17 (107241) Note Off ch=5 par1=61 par2=64
Channel Event. t= 148 (107389) Note Off ch=5 par1=59 par2=64
Channel Event. t= 17 (107406) Note Off ch=5 par1=62 par2=64
Channel Event. t= 135 (107541) Note On ch=5 par1=61 par2=87
Channel Event. t= 20 (107561) Note On ch=5 par1=41 par2=85
Channel Event. t= 130 (107691) Note On ch=5 par1=62 par2=74
Channel Event. t= 13 (107704) Note On ch=5 par1=59 par2=84
Channel Event. t= 7 (107711) Note Off ch=5 par1=61 par2=64
Channel Event. t= 15 (107726) Note On ch=5 par1=42 par2=99
Channel Event. t= 28 (107754) Note Off ch=5 par1=41 par2=64
Channel Event. t= 107 (107861) Note Off ch=5 par1=59 par2=64
Channel Event. t= 3 (107864) Note Off ch=5 par1=62 par2=64
Channel Event. t= 152 (108016) Note On ch=5 par1=60 par2=78
Channel Event. t= 103 (108119) Note Off ch=5 par1=42 par2=64
Channel Event. t= 70 (108189) Note On ch=5 par1=58 par2=77
Channel Event. t= 5 (108194) Note On ch=5 par1=61 par2=87
Channel Event. t= 55 (108249) Note Off ch=5 par1=60 par2=64
Channel Event. t= 105 (108354) Note Off ch=5 par1=61 par2=64
Channel Event. t= 10 (108364) Note Off ch=5 par1=58 par2=64
Channel Event. t= 135 (108499) Note On ch=5 par1=41 par2=82
Channel Event. t= 7 (108506) Note On ch=5 par1=59 par2=75
Channel Event. t= 158 (108664) Note On ch=5 par1=42 par2=97
Channel Event. t= 2 (108666) Note Off ch=5 par1=41 par2=64
Channel Event. t= 10 (108676) Note On ch=5 par1=58 par2=86
Channel Event. t= 0 (108676) Note On ch=5 par1=61 par2=89
Channel Event. t= 10 (108686) Note Off ch=5 par1=59 par2=64
Channel Event. t= 168 (108854) Note Off ch=5 par1=58 par2=64
Channel Event. t= 25 (108879) Note Off ch=5 par1=61 par2=64
Channel Event. t= 205 (109084) Note Off ch=5 par1=42 par2=64
Channel Event. t= 355 (109439) Note On ch=5 par1=75 par2=94
Channel Event. t= 30 (109469) Note On ch=5 par1=41 par2=87
Channel Event. t= 147 (109616) Note On ch=5 par1=73 par2=87
Channel Event. t= 3 (109619) Note On ch=5 par1=76 par2=86
Channel Event. t= 10 (109629) Note On ch=5 par1=42 par2=94
Channel Event. t= 22 (109651) Note Off ch=5 par1=41 par2=64
Channel Event. t= 0 (109651) Note Off ch=5 par1=75 par2=64
Channel Event. t= 145 (109796) Note Off ch=5 par1=73 par2=64
Channel Event. t= 8 (109804) Note Off ch=5 par1=76 par2=64
Channel Event. t= 355 (110159) Note Off ch=5 par1=42 par2=64
Channel Event. t= 247 (110406) Note On ch=5 par1=41 par2=79
Channel Event. t= 18 (110424) Note On ch=5 par1=74 par2=93
Channel Event. t= 147 (110571) Note On ch=5 par1=42 par2=94
Channel Event. t= 10 (110581) Note On ch=5 par1=75 par2=95
Channel Event. t= 0 (110581) Note On ch=5 par1=72 par2=83
Channel Event. t= 10 (110591) Note Off ch=5 par1=41 par2=64
Channel Event. t= 28 (110619) Note Off ch=5 par1=74 par2=64
Channel Event. t= 160 (110779) Note Off ch=5 par1=75 par2=64
Channel Event. t= 10 (110789) Note Off ch=5 par1=72 par2=64
Channel Event. t= 267 (111056) Note Off ch=5 par1=42 par2=64
Channel Event. t= 328 (111384) Note On ch=5 par1=73 par2=99
Channel Event. t= 5 (111389) Note On ch=5 par1=41 par2=81
Channel Event. t= 155 (111544) Note On ch=5 par1=42 par2=94
Channel Event. t= 7 (111551) Note On ch=5 par1=74 par2=89
Channel Event. t= 3 (111554) Note On ch=5 par1=71 par2=92
Channel Event. t= 15 (111569) Note Off ch=5 par1=41 par2=64
Channel Event. t= 30 (111599) Note Off ch=5 par1=73 par2=64
Channel Event. t= 135 (111734) Note Off ch=5 par1=71 par2=64
Channel Event. t= 7 (111741) Note Off ch=5 par1=74 par2=64
Channel Event. t= 273 (112014) Note Off ch=5 par1=42 par2=64
Channel Event. t= 315 (112329) Note On ch=5 par1=41 par2=91
Channel Event. t= 10 (112339) Note On ch=5 par1=72 par2=78
Channel Event. t= 157 (112496) Note On ch=5 par1=42 par2=99
Channel Event. t= 3 (112499) Note On ch=5 par1=73 par2=90
Channel Event. t= 2 (112501) Note On ch=5 par1=70 par2=90
Channel Event. t= 20 (112521) Note Off ch=5 par1=41 par2=64
Channel Event. t= 38 (112559) Note Off ch=5 par1=72 par2=64
Channel Event. t= 125 (112684) Note Off ch=5 par1=70 par2=64
Channel Event. t= 10 (112694) Note Off ch=5 par1=73 par2=64
Channel Event. t= 220 (112914) Note Off ch=5 par1=42 par2=64
Channel Event. t= 395 (113309) Note On ch=5 par1=71 par2=86
Channel Event. t= 180 (113489) Note On ch=5 par1=69 par2=82
Channel Event. t= 2 (113491) Note On ch=5 par1=72 par2=84
Channel Event. t= 20 (113511) Note Off ch=5 par1=71 par2=64
Channel Event. t= 155 (113666) Note Off ch=5 par1=69 par2=64
Channel Event. t= 15 (113681) Note Off ch=5 par1=72 par2=64
Channel Event. t= 570 (114251) Note On ch=5 par1=70 par2=92
Channel Event. t= 173 (114424) Note On ch=5 par1=71 par2=82
Channel Event. t= 5 (114429) Note On ch=5 par1=68 par2=84
Channel Event. t= 20 (114449) Note Off ch=5 par1=70 par2=64
Channel Event. t= 162 (114611) Note Off ch=5 par1=68 par2=64
Channel Event. t= 8 (114619) Note Off ch=5 par1=71 par2=64
Channel Event. t= 772 (115391) Note On ch=5 par1=62 par2=103
Channel Event. t= 328 (115719) Note Off ch=5 par1=62 par2=64
Channel Event. t= 12 (115731) Note On ch=5 par1=66 par2=91
Channel Event. t= 118 (115849) Note Off ch=5 par1=66 par2=64
Channel Event. t= 7 (115856) Note On ch=5 par1=69 par2=79
Channel Event. t= 90 (115946) Note Off ch=5 par1=69 par2=64
Channel Event. t= 143 (116089) Note On ch=5 par1=71 par2=75
Channel Event. t= 122 (116211) Note Off ch=5 par1=71 par2=64
Channel Event. t= 120 (116331) Note On ch=5 par1=69 par2=85
Channel Event. t= 5 (116336) Note On ch=5 par1=66 par2=97
Channel Event. t= 1258 (117594) Note On ch=5 par1=35 par2=86
Channel Event. t= 160 (117754) Note Off ch=5 par1=35 par2=64
Channel Event. t= 2 (117756) Note On ch=5 par1=42 par2=81
Channel Event. t= 208 (117964) Note Off ch=5 par1=42 par2=64
Channel Event. t= 92 (118056) Note On ch=5 par1=42 par2=84
Channel Event. t= 150 (118206) Note Off ch=5 par1=42 par2=64
Channel Event. t= 5 (118211) Note On ch=5 par1=35 par2=91
Channel Event. t= 1150 (119361) Note Off ch=5 par1=66 par2=64
Channel Event. t= 33 (119394) Note Off ch=5 par1=69 par2=64
Channel Event. t= 170 (119564) Note On ch=5 par1=66 par2=81
Channel Event. t= 135 (119699) Note On ch=5 par1=69 par2=87
Channel Event. t= 17 (119716) Note Off ch=5 par1=66 par2=64
Channel Event. t= 138 (119854) Note Off ch=5 par1=69 par2=64
Channel Event. t= 110 (119964) Note On ch=5 par1=71 par2=86
Channel Event. t= 97 (120061) Note Off ch=5 par1=71 par2=64
Channel Event. t= 138 (120199) Note On ch=5 par1=73 par2=104
Channel Event. t= 340 (120539) Note Off ch=5 par1=73 par2=64
Channel Event. t= 7 (120546) Note On ch=5 par1=74 par2=75
Channel Event. t= 100 (120646) Note Off ch=5 par1=74 par2=64
Channel Event. t= 15 (120661) Note On ch=5 par1=69 par2=93
Channel Event. t= 83 (120744) Note Off ch=5 par1=69 par2=64
Channel Event. t= 175 (120919) Note On ch=5 par1=66 par2=79
Channel Event. t= 70 (120989) Note Off ch=5 par1=66 par2=64
Channel Event. t= 185 (121174) Note On ch=5 par1=62 par2=109
Channel Event. t= 692 (121866) Note Off ch=5 par1=35 par2=64
Channel Event. t= 63 (121929) Note On ch=5 par1=37 par2=84
Channel Event. t= 155 (122084) Note Off ch=5 par1=37 par2=64
Channel Event. t= 12 (122096) Note On ch=5 par1=38 par2=90
Channel Event. t= 293 (122389) Note On ch=5 par1=40 par2=83
Channel Event. t= 7 (122396) Note Off ch=5 par1=38 par2=64
Channel Event. t= 158 (122554) Note On ch=5 par1=42 par2=91
Channel Event. t= 10 (122564) Note Off ch=5 par1=40 par2=64
Channel Event. t= 262 (122826) Note Off ch=5 par1=42 par2=64
Channel Event. t= 35 (122861) Note On ch=5 par1=38 par2=75
Channel Event. t= 168 (123029) Note Off ch=5 par1=38 par2=64
Channel Event. t= 5 (123034) Note On ch=5 par1=45 par2=89
Channel Event. t= 210 (123244) Note Off ch=5 par1=45 par2=64
Channel Event. t= 82 (123326) Note On ch=5 par1=45 par2=83
Channel Event. t= 105 (123431) Note Off ch=5 par1=45 par2=64
Channel Event. t= 60 (123491) Note On ch=5 par1=45 par2=78
Channel Event. t= 215 (123706) Note Off ch=5 par1=45 par2=64
Channel Event. t= 105 (123811) Note On ch=5 par1=45 par2=80
Channel Event. t= 110 (123921) Note Off ch=5 par1=45 par2=64
Channel Event. t= 73 (123994) Note On ch=5 par1=45 par2=87
Channel Event. t= 172 (124166) Note On ch=5 par1=47 par2=81
Channel Event. t= 28 (124194) Note Off ch=5 par1=45 par2=64
Channel Event. t= 127 (124321) Note On ch=5 par1=48 par2=87
Channel Event. t= 15 (124336) Note Off ch=5 par1=47 par2=64
Channel Event. t= 185 (124521) Note On ch=5 par1=49 par2=101
Channel Event. t= 25 (124546) Note Off ch=5 par1=48 par2=64
Channel Event. t= 690 (125236) Note On ch=5 par1=64 par2=95
Channel Event. t= 48 (125284) Note Off ch=5 par1=62 par2=64
Channel Event. t= 205 (125489) Note On ch=5 par1=65 par2=99
Channel Event. t= 20 (125509) Note Off ch=5 par1=64 par2=64
Channel Event. t= 417 (125926) Note Off ch=5 par1=65 par2=64
Channel Event. t= 43 (125969) Note On ch=5 par1=65 par2=99
Channel Event. t= 242 (126211) Note On ch=5 par1=73 par2=94
Channel Event. t= 33 (126244) Note Off ch=5 par1=65 par2=64
Channel Event. t= 210 (126454) Note On ch=5 par1=65 par2=89
Channel Event. t= 15 (126469) Note Off ch=5 par1=73 par2=64
Channel Event. t= 372 (126841) Note Off ch=5 par1=65 par2=64
Channel Event. t= 60 (126901) Note On ch=5 par1=65 par2=91
Channel Event. t= 248 (127149) Note On ch=5 par1=73 par2=90
Channel Event. t= 60 (127209) Note Off ch=5 par1=65 par2=64
Channel Event. t= 157 (127366) Note Off ch=5 par1=49 par2=64
Channel Event. t= 20 (127386) Note On ch=5 par1=65 par2=92
Channel Event. t= 18 (127404) Note Off ch=5 par1=73 par2=64
Channel Event. t= 475 (127879) Note On ch=5 par1=60 par2=97
Channel Event. t= 15 (127894) Note Off ch=5 par1=65 par2=64
Channel Event. t= 425 (128319) Note Off ch=5 par1=60 par2=64
Channel Event. t= 52 (128371) Note On ch=5 par1=60 par2=87
Channel Event. t= 318 (128689) Note On ch=5 par1=33 par2=87
Channel Event. t= 157 (128846) Note On ch=5 par1=40 par2=96
Channel Event. t= 23 (128869) Note Off ch=5 par1=33 par2=64
Channel Event. t= 192 (129061) Note Off ch=5 par1=40 par2=64
Channel Event. t= 78 (129139) Note On ch=5 par1=40 par2=89
Channel Event. t= 162 (129301) Note On ch=5 par1=33 par2=88
Channel Event. t= 13 (129314) Note Off ch=5 par1=40 par2=64
Channel Event. t= 457 (129771) Note Off ch=5 par1=33 par2=64
Channel Event. t= 33 (129804) Note On ch=5 par1=32 par2=91
Channel Event. t= 477 (130281) Note Off ch=5 par1=32 par2=64
Channel Event. t= 0 (130281) Note On ch=5 par1=62 par2=100
Channel Event. t= 15 (130296) Note On ch=5 par1=31 par2=87
Channel Event. t= 8 (130304) Note Off ch=5 par1=60 par2=64
Channel Event. t= 447 (130751) Note On ch=5 par1=67 par2=90
Channel Event. t= 43 (130794) Note Off ch=5 par1=62 par2=64
Channel Event. t= 332 (131126) Note Off ch=5 par1=67 par2=64
Channel Event. t= 0 (131126) Note On ch=5 par1=71 par2=84
Channel Event. t= 100 (131226) Note Off ch=5 par1=71 par2=64
Channel Event. t= 8 (131234) Note On ch=5 par1=74 par2=96
Channel Event. t= 110 (131344) Note Off ch=5 par1=74 par2=64
Channel Event. t= 110 (131454) Note On ch=5 par1=76 par2=91
Channel Event. t= 80 (131534) Note Off ch=5 par1=76 par2=64
Channel Event. t= 140 (131674) Note On ch=5 par1=74 par2=99
Channel Event. t= 375 (132049) Note On ch=5 par1=71 par2=86
Channel Event. t= 20 (132069) Note Off ch=5 par1=74 par2=64
Channel Event. t= 90 (132159) Note Off ch=5 par1=71 par2=64
Channel Event. t= 0 (132159) Note On ch=5 par1=74 par2=92
Channel Event. t= 90 (132249) Note Off ch=5 par1=74 par2=64
Channel Event. t= 152 (132401) Note On ch=5 par1=76 par2=82
Channel Event. t= 90 (132491) Note Off ch=5 par1=76 par2=64
Channel Event. t= 150 (132641) Note On ch=5 par1=78 par2=96
Channel Event. t= 238 (132879) Note On ch=5 par1=79 par2=87
Channel Event. t= 17 (132896) Note Off ch=5 par1=78 par2=64
Channel Event. t= 68 (132964) Note Off ch=5 par1=79 par2=64
Channel Event. t= 120 (133084) Note Off ch=5 par1=31 par2=64
Channel Event. t= 50 (133134) Note On ch=5 par1=74 par2=87
Channel Event. t= 80 (133214) Note Off ch=5 par1=74 par2=64
Channel Event. t= 162 (133376) Note On ch=5 par1=71 par2=88
Channel Event. t= 65 (133441) Note Off ch=5 par1=71 par2=64
Channel Event. t= 183 (133624) Note On ch=5 par1=67 par2=89
Channel Event. t= 130 (133754) Note Off ch=5 par1=67 par2=64
Channel Event. t= 337 (134091) Note On ch=5 par1=79 par2=98
Channel Event. t= 40 (134131) Note On ch=5 par1=43 par2=97
Channel Event. t= 13 (134144) Controller ch=5 par1=7 (Main Volume) par2=90
Channel Event. t= 660 (134804) Controller ch=5 par1=7 (Main Volume) par2=91
Channel Event. t= 12 (134816) Note On ch=5 par1=78 par2=95
Channel Event. t= 10 (134826) Note On ch=5 par1=42 par2=92
Channel Event. t= 40 (134866) Note Off ch=5 par1=43 par2=64
Channel Event. t= 3 (134869) Note Off ch=5 par1=79 par2=64
Channel Event. t= 192 (135061) Note On ch=5 par1=76 par2=91
Channel Event. t= 5 (135066) Note On ch=5 par1=40 par2=83
Channel Event. t= 8 (135074) Note Off ch=5 par1=78 par2=64
Channel Event. t= 5 (135079) Note Off ch=5 par1=42 par2=64
Channel Event. t= 210 (135289) Note Off ch=5 par1=76 par2=64
Channel Event. t= 2 (135291) Note On ch=5 par1=74 par2=86
Channel Event. t= 10 (135301) Note On ch=5 par1=38 par2=87
Channel Event. t= 20 (135321) Note Off ch=5 par1=40 par2=64
Channel Event. t= 143 (135464) Controller ch=5 par1=7 (Main Volume) par2=92
Channel Event. t= 65 (135529) Note On ch=5 par1=73 par2=91
Channel Event. t= 22 (135551) Note On ch=5 par1=37 par2=94
Channel Event. t= 3 (135554) Note Off ch=5 par1=38 par2=64
Channel Event. t= 30 (135584) Note Off ch=5 par1=74 par2=64
Channel Event. t= 180 (135764) Note On ch=5 par1=71 par2=85
Channel Event. t= 22 (135786) Note On ch=5 par1=35 par2=84
Channel Event. t= 23 (135809) Note Off ch=5 par1=73 par2=64
Channel Event. t= 2 (135811) Note Off ch=5 par1=37 par2=64
Channel Event. t= 213 (136024) Note On ch=5 par1=69 par2=93
Channel Event. t= 25 (136049) Note On ch=5 par1=47 par2=58
Channel Event. t= 5 (136054) Note On ch=5 par1=45 par2=69
Channel Event. t= 10 (136064) Controller ch=5 par1=7 (Main Volume) par2=93
Channel Event. t= 12 (136076) Note Off ch=5 par1=71 par2=64
Channel Event. t= 3 (136079) Note Off ch=5 par1=35 par2=64
Channel Event. t= 55 (136134) Note Off ch=5 par1=47 par2=64
Channel Event. t= 45 (136179) Note Off ch=5 par1=69 par2=64
Channel Event. t= 87 (136266) Note On ch=5 par1=67 par2=97
Channel Event. t= 25 (136291) Note On ch=5 par1=43 par2=74
Channel Event. t= 50 (136341) Note Off ch=5 par1=45 par2=64
Channel Event. t= 140 (136481) Note On ch=5 par1=65 par2=91
Channel Event. t= 60 (136541) Note Off ch=5 par1=67 par2=64
Channel Event. t= 3 (136544) Note On ch=5 par1=41 par2=82
Channel Event. t= 17 (136561) Note Off ch=5 par1=43 par2=64
Channel Event. t= 68 (136629) Note Off ch=5 par1=65 par2=64
Channel Event. t= 95 (136724) Controller ch=5 par1=7 (Main Volume) par2=94
Channel Event. t= 7 (136731) Note On ch=5 par1=64 par2=102
Channel Event. t= 45 (136776) Note On ch=5 par1=40 par2=76
Channel Event. t= 23 (136799) Note Off ch=5 par1=41 par2=64
Channel Event. t= 170 (136969) Note On ch=5 par1=62 par2=93
Channel Event. t= 45 (137014) Note Off ch=5 par1=64 par2=64
Channel Event. t= 15 (137029) Note On ch=5 par1=38 par2=78
Channel Event. t= 10 (137039) Note Off ch=5 par1=40 par2=64
Channel Event. t= 45 (137084) Note Off ch=5 par1=62 par2=64
Channel Event. t= 125 (137209) Note On ch=5 par1=60 par2=100
Channel Event. t= 42 (137251) Note On ch=5 par1=36 par2=74
Channel Event. t= 45 (137296) Note Off ch=5 par1=38 par2=64
Channel Event. t= 88 (137384) Controller ch=5 par1=7 (Main Volume) par2=95
Channel Event. t= 62 (137446) Note On ch=5 par1=62 par2=96
Channel Event. t= 30 (137476) Note Off ch=5 par1=60 par2=64
Channel Event. t= 28 (137504) Note On ch=5 par1=38 par2=80
Channel Event. t= 27 (137531) Note Off ch=5 par1=36 par2=64
Channel Event. t= 20 (137551) Note Off ch=5 par1=62 par2=64
Channel Event. t= 143 (137694) Note On ch=5 par1=64 par2=100
Channel Event. t= 37 (137731) Note On ch=5 par1=40 par2=79
Channel Event. t= 15 (137746) Note Off ch=5 par1=38 par2=64
Channel Event. t= 80 (137826) Note Off ch=5 par1=64 par2=64
Channel Event. t= 105 (137931) Note On ch=5 par1=65 par2=109
Channel Event. t= 50 (137981) Note On ch=5 par1=33 par2=92
Channel Event. t= 3 (137984) Controller ch=5 par1=7 (Main Volume) par2=96
Channel Event. t= 20 (138004) Note Off ch=5 par1=40 par2=64
Channel Event. t= 460 (138464) Note Off ch=5 par1=65 par2=64
Channel Event. t= 12 (138476) Note Off ch=5 par1=33 par2=64
Channel Event. t= 168 (138644) Controller ch=5 par1=7 (Main Volume) par2=97
Channel Event. t= 272 (138916) Note On ch=5 par1=42 par2=99
Channel Event. t= 388 (139304) Controller ch=5 par1=7 (Main Volume) par2=98
Channel Event. t= 117 (139421) Note Off ch=5 par1=42 par2=64
Channel Event. t= 433 (139854) Note On ch=5 par1=35 par2=102
Channel Event. t= 5 (139859) Note On ch=5 par1=47 par2=94
Channel Event. t= 20 (139879) Note On ch=5 par1=59 par2=121
Channel Event. t= 25 (139904) Controller ch=5 par1=7 (Main Volume) par2=99
Channel Event. t= 660 (140564) Controller ch=5 par1=7 (Main Volume) par2=100
Channel Event. t= 660 (141224) Controller ch=5 par1=7 (Main Volume) par2=101
Channel Event. t= 597 (141821) Controller ch=5 par1=7 (Main Volume) par2=102
Channel Event. t= 3 (141824) Note Off ch=5 par1=59 par2=64
Channel Event. t= 0 (141824) Note Off ch=5 par1=47 par2=64
Channel Event. t= 0 (141824) Note Off ch=5 par1=35 par2=64
Channel Event. t= 0 (141824) 
Meta Event. Type: 0x2f (47dec), End of Track (0 bytes): 
track #25
track size: 2528
Channel Event. t= 0 (0) 
Meta Event. Type: 0x3 (3dec), Sequence/Track Name (20 bytes): Strings             
Channel Event. t= 0 (0) 
Meta Event. Type: 0x21 (33dec), MIDI Port (1 bytes): 0
Channel Event. t= 0 (0) 
Meta Event. Type: 0x20 (32dec), MIDI Channel Prefix (1 bytes): 5
Channel Event. t= 0 (0) Controller ch=5 par1=10 (Pan) par2=64
Channel Event. t= 0 (0) Controller ch=5 par1=91 (Effects 2 Depth (formerly Tremolo Depth)) par2=127
Channel Event. t= 0 (0) Program Change ch=5 par1=48 par2=-109
Channel Event. t= 8564 (8564) Controller ch=5 par1=7 (Main Volume) par2=92
Channel Event. t= 300 (8864) Note On ch=5 par1=76 par2=66
Channel Event. t= 0 (8864) Note On ch=5 par1=69 par2=58
Channel Event. t= 457 (9321) Note Off ch=5 par1=76 par2=64
Channel Event. t= 23 (9344) Note On ch=5 par1=74 par2=72
Channel Event. t= 0 (9344) Note On ch=5 par1=78 par2=62
Channel Event. t= 2 (9346) Note Off ch=5 par1=69 par2=64
Channel Event. t= 275 (9621) Note Off ch=5 par1=78 par2=64
Channel Event. t= 8 (9629) Note Off ch=5 par1=74 par2=64
Channel Event. t= 195 (9824) Note On ch=5 par1=57 par2=70
Channel Event. t= 332 (10156) Note Off ch=5 par1=57 par2=64
Channel Event. t= 148 (10304) Note On ch=5 par1=50 par2=81
Channel Event. t= 362 (10666) Note Off ch=5 par1=50 par2=64
Channel Event. t= 118 (10784) Note On ch=5 par1=57 par2=45
Channel Event. t= 0 (10784) Note On ch=5 par1=64 par2=53
Channel Event. t= 407 (11191) Note Off ch=5 par1=57 par2=64
Channel Event. t= 20 (11211) Note Off ch=5 par1=64 par2=64
Channel Event. t= 53 (11264) Note On ch=5 par1=66 par2=65
Channel Event. t= 0 (11264) Note On ch=5 par1=62 par2=45
Channel Event. t= 260 (11524) Note Off ch=5 par1=62 par2=64
Channel Event. t= 47 (11571) Note Off ch=5 par1=66 par2=64
Channel Event. t= 1133 (12704) Note On ch=5 par1=71 par2=67
Channel Event. t= 0 (12704) Note On ch=5 par1=62 par2=68
Channel Event. t= 0 (12704) Note On ch=5 par1=55 par2=73
Channel Event. t= 342 (13046) Note Off ch=5 par1=71 par2=64
Channel Event. t= 38 (13084) Note Off ch=5 par1=62 par2=64
Channel Event. t= 82 (13166) Note Off ch=5 par1=55 par2=64
Channel Event. t= 18 (13184) Note On ch=5 par1=57 par2=89
Channel Event. t= 0 (13184) Note On ch=5 par1=54 par2=79
Channel Event. t= 355 (13539) Note Off ch=5 par1=57 par2=64
Channel Event. t= 17 (13556) Note Off ch=5 par1=54 par2=64
Channel Event. t= 768 (14324) Controller ch=5 par1=7 (Main Volume) par2=70
Channel Event. t= 300 (14624) Note On ch=5 par1=50 par2=86
Channel Event. t= 107 (14731) Note Off ch=5 par1=50 par2=64
Channel Event. t= 133 (14864) Note On ch=5 par1=55 par2=81
Channel Event. t= 92 (14956) Note Off ch=5 par1=55 par2=64
Channel Event. t= 148 (15104) Note On ch=5 par1=59 par2=94
Channel Event. t= 480 (15584) Note On ch=5 par1=55 par2=79
Channel Event. t= 2 (15586) Note Off ch=5 par1=59 par2=64
Channel Event. t= 93 (15679) Note Off ch=5 par1=55 par2=64
Channel Event. t= 145 (15824) Note On ch=5 par1=50 par2=77
Channel Event. t= 80 (15904) Note Off ch=5 par1=50 par2=64
Channel Event. t= 160 (16064) Note On ch=5 par1=49 par2=91
Channel Event. t= 440 (16504) Note Off ch=5 par1=49 par2=64
Channel Event. t= 40 (16544) Note On ch=5 par1=50 par2=76
Channel Event. t= 102 (16646) Note Off ch=5 par1=50 par2=64
Channel Event. t= 138 (16784) Note On ch=5 par1=55 par2=75
Channel Event. t= 92 (16876) Note Off ch=5 par1=55 par2=64
Channel Event. t= 148 (17024) Note On ch=5 par1=59 par2=82
Channel Event. t= 90 (17114) Note Off ch=5 par1=59 par2=64
Channel Event. t= 150 (17264) Note On ch=5 par1=62 par2=84
Channel Event. t= 67 (17331) Note Off ch=5 par1=62 par2=64
Channel Event. t= 173 (17504) Note On ch=5 par1=60 par2=91
Channel Event. t= 650 (18154) Note Off ch=5 par1=60 par2=64
Channel Event. t= 70 (18224) Note On ch=5 par1=59 par2=96
Channel Event. t= 240 (18464) Note On ch=5 par1=55 par2=80
Channel Event. t= 45 (18509) Note Off ch=5 par1=59 par2=64
Channel Event. t= 87 (18596) Note Off ch=5 par1=55 par2=64
Channel Event. t= 108 (18704) Note On ch=5 par1=57 par2=85
Channel Event. t= 85 (18789) Note Off ch=5 par1=57 par2=64
Channel Event. t= 155 (18944) Note On ch=5 par1=59 par2=92
Channel Event. t= 240 (19184) Note On ch=5 par1=57 par2=79
Channel Event. t= 55 (19239) Note Off ch=5 par1=59 par2=64
Channel Event. t= 82 (19321) Note Off ch=5 par1=57 par2=64
Channel Event. t= 103 (19424) Note On ch=5 par1=54 par2=83
Channel Event. t= 77 (19501) Note Off ch=5 par1=54 par2=64
Channel Event. t= 163 (19664) Note On ch=5 par1=55 par2=74
Channel Event. t= 92 (19756) Note Off ch=5 par1=55 par2=64
Channel Event. t= 148 (19904) Note On ch=5 par1=57 par2=82
Channel Event. t= 240 (20144) Note On ch=5 par1=55 par2=75
Channel Event. t= 85 (20229) Note Off ch=5 par1=57 par2=64
Channel Event. t= 62 (20291) Note Off ch=5 par1=55 par2=64
Channel Event. t= 93 (20384) Note On ch=5 par1=52 par2=78
Channel Event. t= 97 (20481) Note Off ch=5 par1=52 par2=64
Channel Event. t= 143 (20624) Note On ch=5 par1=54 par2=85
Channel Event. t= 87 (20711) Note Off ch=5 par1=54 par2=64
Channel Event. t= 153 (20864) Note On ch=5 par1=55 par2=93
Channel Event. t= 1007 (21871) Note Off ch=5 par1=55 par2=64
Channel Event. t= 433 (22304) Note On ch=5 par1=50 par2=56
Channel Event. t= 140 (22444) Note Off ch=5 par1=50 par2=64
Channel Event. t= 100 (22544) Note On ch=5 par1=55 par2=81
Channel Event. t= 77 (22621) Note Off ch=5 par1=55 par2=64
Channel Event. t= 163 (22784) Note On ch=5 par1=59 par2=90
Channel Event. t= 427 (23211) Note Off ch=5 par1=59 par2=64
Channel Event. t= 53 (23264) Note On ch=5 par1=55 par2=83
Channel Event. t= 77 (23341) Note Off ch=5 par1=55 par2=64
Channel Event. t= 163 (23504) Note On ch=5 par1=50 par2=74
Channel Event. t= 65 (23569) Note Off ch=5 par1=50 par2=64
Channel Event. t= 175 (23744) Note On ch=5 par1=49 par2=89
Channel Event. t= 437 (24181) Note Off ch=5 par1=49 par2=64
Channel Event. t= 43 (24224) Note On ch=5 par1=50 par2=77
Channel Event. t= 100 (24324) Note Off ch=5 par1=50 par2=64
Channel Event. t= 140 (24464) Note On ch=5 par1=55 par2=80
Channel Event. t= 77 (24541) Note Off ch=5 par1=55 par2=64
Channel Event. t= 163 (24704) Note On ch=5 par1=59 par2=80
Channel Event. t= 80 (24784) Note Off ch=5 par1=59 par2=64
Channel Event. t= 160 (24944) Note On ch=5 par1=62 par2=76
Channel Event. t= 72 (25016) Note Off ch=5 par1=62 par2=64
Channel Event. t= 168 (25184) Note On ch=5 par1=60 par2=95
Channel Event. t= 637 (25821) Note Off ch=5 par1=60 par2=64
Channel Event. t= 83 (25904) Note On ch=5 par1=59 par2=97
Channel Event. t= 240 (26144) Note On ch=5 par1=62 par2=77
Channel Event. t= 5 (26149) Note Off ch=5 par1=59 par2=64
Channel Event. t= 235 (26384) Note On ch=5 par1=60 par2=69
Channel Event. t= 65 (26449) Note Off ch=5 par1=62 par2=64
Channel Event. t= 175 (26624) Note On ch=5 par1=59 par2=73
Channel Event. t= 50 (26674) Note Off ch=5 par1=60 par2=64
Channel Event. t= 65 (26739) Note Off ch=5 par1=59 par2=64
Channel Event. t= 125 (26864) Note On ch=5 par1=57 par2=85
Channel Event. t= 240 (27104) Note On ch=5 par1=60 par2=80
Channel Event. t= 15 (27119) Note Off ch=5 par1=57 par2=64
Channel Event. t= 225 (27344) Note On ch=5 par1=59 par2=77
Channel Event. t= 35 (27379) Note Off ch=5 par1=60 par2=64
Channel Event. t= 205 (27584) Note On ch=5 par1=57 par2=80
Channel Event. t= 40 (27624) Note Off ch=5 par1=59 par2=64
Channel Event. t= 75 (27699) Note Off ch=5 par1=57 par2=64
Channel Event. t= 125 (27824) Note On ch=5 par1=55 par2=78
Channel Event. t= 240 (28064) Note On ch=5 par1=59 par2=79
Channel Event. t= 10 (28074) Note Off ch=5 par1=55 par2=64
Channel Event. t= 230 (28304) Note On ch=5 par1=57 par2=76
Channel Event. t= 57 (28361) Note Off ch=5 par1=59 par2=64
Channel Event. t= 120 (28481) Note Off ch=5 par1=57 par2=64
Channel Event. t= 63 (28544) Note On ch=5 par1=54 par2=87
Channel Event. t= 960 (29504) Note On ch=5 par1=55 par2=77
Channel Event. t= 32 (29536) Note Off ch=5 par1=54 par2=64
Channel Event. t= 243 (29779) Note Off ch=5 par1=55 par2=64
Channel Event. t= 205 (29984) Note On ch=5 par1=62 par2=96
Channel Event. t= 0 (29984) Note On ch=5 par1=71 par2=103
Channel Event. t= 430 (30414) Note Off ch=5 par1=71 par2=64
Channel Event. t= 25 (30439) Note Off ch=5 par1=62 par2=64
Channel Event. t= 25 (30464) Note On ch=5 par1=71 par2=83
Channel Event. t= 0 (30464) Note On ch=5 par1=67 par2=95
Channel Event. t= 0 (30464) Note On ch=5 par1=59 par2=74
Channel Event. t= 0 (30464) Note On ch=5 par1=50 par2=70
Channel Event. t= 207 (30671) Note Off ch=5 par1=50 par2=64
Channel Event. t= 15 (30686) Note Off ch=5 par1=59 par2=64
Channel Event. t= 175 (30861) Note Off ch=5 par1=71 par2=64
Channel Event. t= 20 (30881) Note Off ch=5 par1=67 par2=64
Channel Event. t= 1023 (31904) Note On ch=5 par1=71 par2=58
Channel Event. t= 0 (31904) Note On ch=5 par1=62 par2=50
Channel Event. t= 380 (32284) Note Off ch=5 par1=71 par2=64
Channel Event. t= 22 (32306) Note Off ch=5 par1=62 par2=64
Channel Event. t= 78 (32384) Note On ch=5 par1=71 par2=41
Channel Event. t= 0 (32384) Note On ch=5 par1=67 par2=42
Channel Event. t= 0 (32384) Note On ch=5 par1=59 par2=68
Channel Event. t= 0 (32384) Note On ch=5 par1=50 par2=59
Channel Event. t= 222 (32606) Note Off ch=5 par1=50 par2=64
Channel Event. t= 23 (32629) Note Off ch=5 par1=59 par2=64
Channel Event. t= 100 (32729) Note Off ch=5 par1=67 par2=64
Channel Event. t= 20 (32749) Note Off ch=5 par1=71 par2=64
Channel Event. t= 1075 (33824) Note On ch=5 par1=76 par2=89
Channel Event. t= 0 (33824) Note On ch=5 par1=67 par2=89
Channel Event. t= 0 (33824) Note On ch=5 par1=60 par2=69
Channel Event. t= 227 (34051) Note Off ch=5 par1=60 par2=64
Channel Event. t= 205 (34256) Note Off ch=5 par1=76 par2=64
Channel Event. t= 35 (34291) Note Off ch=5 par1=67 par2=64
Channel Event. t= 13 (34304) Note On ch=5 par1=71 par2=92
Channel Event. t= 0 (34304) Note On ch=5 par1=62 par2=92
Channel Event. t= 0 (34304) Note On ch=5 par1=59 par2=64
Channel Event. t= 262 (34566) Note Off ch=5 par1=59 par2=64
Channel Event. t= 118 (34684) Note Off ch=5 par1=71 par2=64
Channel Event. t= 27 (34711) Note Off ch=5 par1=62 par2=64
Channel Event. t= 73 (34784) Note On ch=5 par1=53 par2=68
Channel Event. t= 247 (35031) Note Off ch=5 par1=53 par2=64
Channel Event. t= 233 (35264) Note On ch=5 par1=52 par2=68
Channel Event. t= 307 (35571) Note Off ch=5 par1=52 par2=64
Channel Event. t= 173 (35744) Note On ch=5 par1=55 par2=97
Channel Event. t= 0 (35744) Note On ch=5 par1=50 par2=66
Channel Event. t= 112 (35856) Note Off ch=5 par1=55 par2=64
Channel Event. t= 128 (35984) Note On ch=5 par1=60 par2=93
Channel Event. t= 50 (36034) Note Off ch=5 par1=50 par2=64
Channel Event. t= 35 (36069) Note Off ch=5 par1=60 par2=64
Channel Event. t= 155 (36224) Note On ch=5 par1=64 par2=100
Channel Event. t= 460 (36684) Note Off ch=5 par1=64 par2=64
Channel Event. t= 20 (36704) Note On ch=5 par1=60 par2=92
Channel Event. t= 87 (36791) Note Off ch=5 par1=60 par2=64
Channel Event. t= 153 (36944) Note On ch=5 par1=55 par2=87
Channel Event. t= 95 (37039) Note Off ch=5 par1=55 par2=64
Channel Event. t= 145 (37184) Note On ch=5 par1=54 par2=103
Channel Event. t= 480 (37664) Note On ch=5 par1=55 par2=77
Channel Event. t= 22 (37686) Note Off ch=5 par1=54 par2=64
Channel Event. t= 95 (37781) Note Off ch=5 par1=55 par2=64
Channel Event. t= 123 (37904) Note On ch=5 par1=60 par2=88
Channel Event. t= 70 (37974) Note Off ch=5 par1=60 par2=64
Channel Event. t= 170 (38144) Note On ch=5 par1=64 par2=104
Channel Event. t= 132 (38276) Note Off ch=5 par1=64 par2=64
Channel Event. t= 108 (38384) Note On ch=5 par1=67 par2=85
Channel Event. t= 100 (38484) Note Off ch=5 par1=67 par2=64
Channel Event. t= 140 (38624) Note On ch=5 par1=65 par2=104
Channel Event. t= 720 (39344) Note On ch=5 par1=64 par2=95
Channel Event. t= 40 (39384) Note Off ch=5 par1=65 par2=64
Channel Event. t= 200 (39584) Note On ch=5 par1=60 par2=89
Channel Event. t= 7 (39591) Note Off ch=5 par1=64 par2=64
Channel Event. t= 108 (39699) Note Off ch=5 par1=60 par2=64
Channel Event. t= 125 (39824) Note On ch=5 par1=62 par2=90
Channel Event. t= 82 (39906) Note Off ch=5 par1=62 par2=64
Channel Event. t= 158 (40064) Note On ch=5 par1=64 par2=100
Channel Event. t= 240 (40304) Note On ch=5 par1=62 par2=83
Channel Event. t= 127 (40431) Note Off ch=5 par1=64 par2=64
Channel Event. t= 30 (40461) Note Off ch=5 par1=62 par2=64
Channel Event. t= 83 (40544) Note On ch=5 par1=59 par2=81
Channel Event. t= 75 (40619) Note Off ch=5 par1=59 par2=64
Channel Event. t= 165 (40784) Note On ch=5 par1=60 par2=92
Channel Event. t= 72 (40856) Note Off ch=5 par1=60 par2=64
Channel Event. t= 168 (41024) Note On ch=5 par1=62 par2=103
Channel Event. t= 240 (41264) Note On ch=5 par1=60 par2=83
Channel Event. t= 100 (41364) Note Off ch=5 par1=62 par2=64
Channel Event. t= 20 (41384) Note Off ch=5 par1=60 par2=64
Channel Event. t= 120 (41504) Note On ch=5 par1=57 par2=89
Channel Event. t= 97 (41601) Note Off ch=5 par1=57 par2=64
Channel Event. t= 143 (41744) Note On ch=5 par1=59 par2=92
Channel Event. t= 85 (41829) Note Off ch=5 par1=59 par2=64
Channel Event. t= 155 (41984) Note On ch=5 par1=60 par2=102
Channel Event. t= 1260 (43244) Note Off ch=5 par1=60 par2=64
Channel Event. t= 180 (43424) Note On ch=5 par1=55 par2=100
Channel Event. t= 100 (43524) Note Off ch=5 par1=55 par2=64
Channel Event. t= 140 (43664) Note On ch=5 par1=60 par2=85
Channel Event. t= 77 (43741) Note Off ch=5 par1=60 par2=64
Channel Event. t= 163 (43904) Note On ch=5 par1=64 par2=81
Channel Event. t= 472 (44376) Note Off ch=5 par1=64 par2=64
Channel Event. t= 8 (44384) Note On ch=5 par1=60 par2=67
Channel Event. t= 105 (44489) Note Off ch=5 par1=60 par2=64
Channel Event. t= 135 (44624) Note On ch=5 par1=55 par2=59
Channel Event. t= 62 (44686) Note Off ch=5 par1=55 par2=64
Channel Event. t= 178 (44864) Note On ch=5 par1=54 par2=67
Channel Event. t= 480 (45344) Note On ch=5 par1=55 par2=63
Channel Event. t= 30 (45374) Note Off ch=5 par1=54 par2=64
Channel Event. t= 85 (45459) Note Off ch=5 par1=55 par2=64
Channel Event. t= 125 (45584) Note On ch=5 par1=60 par2=69
Channel Event. t= 92 (45676) Note Off ch=5 par1=60 par2=64
Channel Event. t= 148 (45824) Note On ch=5 par1=64 par2=80
Channel Event. t= 82 (45906) Note Off ch=5 par1=64 par2=64
Channel Event. t= 158 (46064) Note On ch=5 par1=67 par2=59
Channel Event. t= 60 (46124) Note Off ch=5 par1=67 par2=64
Channel Event. t= 180 (46304) Note On ch=5 par1=65 par2=80
Channel Event. t= 625 (46929) Note Off ch=5 par1=65 par2=64
Channel Event. t= 95 (47024) Note On ch=5 par1=64 par2=90
Channel Event. t= 240 (47264) Note On ch=5 par1=67 par2=76
Channel Event. t= 42 (47306) Note Off ch=5 par1=64 par2=64
Channel Event. t= 198 (47504) Note On ch=5 par1=65 par2=70
Channel Event. t= 20 (47524) Note Off ch=5 par1=67 par2=64
Channel Event. t= 220 (47744) Note On ch=5 par1=64 par2=78
Channel Event. t= 25 (47769) Note Off ch=5 par1=65 par2=64
Channel Event. t= 90 (47859) Note Off ch=5 par1=64 par2=64
Channel Event. t= 125 (47984) Note On ch=5 par1=62 par2=93
Channel Event. t= 240 (48224) Note On ch=5 par1=65 par2=68
Channel Event. t= 20 (48244) Note Off ch=5 par1=62 par2=64
Channel Event. t= 220 (48464) Note On ch=5 par1=64 par2=91
Channel Event. t= 87 (48551) Note Off ch=5 par1=65 par2=64
Channel Event. t= 153 (48704) Note On ch=5 par1=62 par2=87
Channel Event. t= 45 (48749) Note Off ch=5 par1=64 par2=64
Channel Event. t= 50 (48799) Note Off ch=5 par1=62 par2=64
Channel Event. t= 145 (48944) Note On ch=5 par1=60 par2=88
Channel Event. t= 240 (49184) Note On ch=5 par1=64 par2=77
Channel Event. t= 35 (49219) Note Off ch=5 par1=60 par2=64
Channel Event. t= 205 (49424) Note On ch=5 par1=62 par2=81
Channel Event. t= 27 (49451) Note Off ch=5 par1=64 par2=64
Channel Event. t= 50 (49501) Note Off ch=5 par1=62 par2=64
Channel Event. t= 163 (49664) Note On ch=5 par1=59 par2=93
Channel Event. t= 960 (50624) Note On ch=5 par1=60 par2=84
Channel Event. t= 15 (50639) Note Off ch=5 par1=59 par2=64
Channel Event. t= 97 (50736) Note Off ch=5 par1=60 par2=64
Channel Event. t= 21470 (72206) Note On ch=5 par1=55 par2=76
Channel Event. t= 110 (72316) Note Off ch=5 par1=55 par2=64
Channel Event. t= 143 (72459) Note On ch=5 par1=60 par2=56
Channel Event. t= 62 (72521) Note Off ch=5 par1=60 par2=64
Channel Event. t= 198 (72719) Note On ch=5 par1=52 par2=49
Channel Event. t= 10 (72729) Note On ch=5 par1=64 par2=70
Channel Event. t= 180 (72909) Note Off ch=5 par1=52 par2=64
Channel Event. t= 265 (73174) Note On ch=5 par1=60 par2=69
Channel Event. t= 2 (73176) Note Off ch=5 par1=64 par2=64
Channel Event. t= 88 (73264) Note Off ch=5 par1=60 par2=64
Channel Event. t= 152 (73416) Note On ch=5 par1=55 par2=65
Channel Event. t= 48 (73464) Note Off ch=5 par1=55 par2=64
Channel Event. t= 207 (73671) Note On ch=5 par1=52 par2=43
Channel Event. t= 8 (73679) Note On ch=5 par1=54 par2=80
Channel Event. t= 177 (73856) Note Off ch=5 par1=52 par2=64
Channel Event. t= 253 (74109) Note On ch=5 par1=55 par2=74
Channel Event. t= 12 (74121) Note Off ch=5 par1=54 par2=64
Channel Event. t= 90 (74211) Note Off ch=5 par1=55 par2=64
Channel Event. t= 138 (74349) Note On ch=5 par1=60 par2=62
Channel Event. t= 75 (74424) Note Off ch=5 par1=60 par2=64
Channel Event. t= 150 (74574) Note On ch=5 par1=64 par2=83
Channel Event. t= 17 (74591) Note On ch=5 par1=57 par2=50
Channel Event. t= 65 (74656) Note Off ch=5 par1=64 par2=64
Channel Event. t= 158 (74814) Note On ch=5 par1=67 par2=47
Channel Event. t= 60 (74874) Note Off ch=5 par1=57 par2=64
Channel Event. t= 7 (74881) Note Off ch=5 par1=67 par2=64
Channel Event. t= 180 (75061) Note On ch=5 par1=65 par2=82
Channel Event. t= 478 (75539) Note On ch=5 par1=57 par2=37
Channel Event. t= 125 (75664) Note Off ch=5 par1=65 par2=64
Channel Event. t= 112 (75776) Note On ch=5 par1=64 par2=88
Channel Event. t= 63 (75839) Note Off ch=5 par1=57 par2=64
Channel Event. t= 177 (76016) Note On ch=5 par1=67 par2=74
Channel Event. t= 23 (76039) Note Off ch=5 par1=64 par2=64
Channel Event. t= 210 (76249) Note On ch=5 par1=65 par2=69
Channel Event. t= 37 (76286) Note Off ch=5 par1=67 par2=64
Channel Event. t= 203 (76489) Note On ch=5 par1=64 par2=71
Channel Event. t= 30 (76519) Note On ch=5 par1=57 par2=51
Channel Event. t= 5 (76524) Note Off ch=5 par1=65 par2=64
Channel Event. t= 52 (76576) Note Off ch=5 par1=64 par2=64
Channel Event. t= 158 (76734) Note On ch=5 par1=62 par2=74
Channel Event. t= 52 (76786) Note Off ch=5 par1=57 par2=64
Channel Event. t= 173 (76959) Note On ch=5 par1=65 par2=69
Channel Event. t= 57 (77016) Note Off ch=5 par1=62 par2=64
Channel Event. t= 35 (77051) Note Off ch=5 par1=65 par2=64
Channel Event. t= 153 (77204) Note On ch=5 par1=64 par2=85
Channel Event. t= 227 (77431) Note On ch=5 par1=62 par2=74
Channel Event. t= 55 (77486) Note Off ch=5 par1=64 par2=64
Channel Event. t= 13 (77499) Note On ch=5 par1=57 par2=52
Channel Event. t= 17 (77516) Note Off ch=5 par1=62 par2=64
Channel Event. t= 185 (77701) Note On ch=5 par1=60 par2=76
Channel Event. t= 103 (77804) Note Off ch=5 par1=57 par2=64
Channel Event. t= 135 (77939) Note On ch=5 par1=64 par2=74
Channel Event. t= 35 (77974) Note Off ch=5 par1=60 par2=64
Channel Event. t= 57 (78031) Note Off ch=5 par1=64 par2=64
Channel Event. t= 153 (78184) Note On ch=5 par1=62 par2=82
Channel Event. t= 47 (78231) Note Off ch=5 par1=62 par2=64
Channel Event. t= 208 (78439) Note On ch=5 par1=59 par2=91
Channel Event. t= 462 (78901) Note On ch=5 par1=53 par2=69
Channel Event. t= 308 (79209) Note Off ch=5 par1=53 par2=64
Channel Event. t= 177 (79386) Note On ch=5 par1=52 par2=63
Channel Event. t= 33 (79419) Note On ch=5 par1=60 par2=79
Channel Event. t= 30 (79449) Note Off ch=5 par1=59 par2=64
Channel Event. t= 102 (79551) Note Off ch=5 par1=60 par2=64
Channel Event. t= 93 (79644) Note Off ch=5 par1=52 par2=64
Channel Event. t= 207 (79851) Note On ch=5 par1=48 par2=64
Channel Event. t= 290 (80141) Note Off ch=5 par1=48 par2=64
Channel Event. t= 208 (80349) Note On ch=5 par1=47 par2=65
Channel Event. t= 317 (80666) Note Off ch=5 par1=47 par2=64
Channel Event. t= 158 (80824) Note On ch=5 par1=45 par2=62
Channel Event. t= 280 (81104) Note Off ch=5 par1=45 par2=64
Channel Event. t= 217 (81321) Note On ch=5 par1=43 par2=64
Channel Event. t= 333 (81654) Note Off ch=5 par1=43 par2=64
Channel Event. t= 132 (81786) Note On ch=5 par1=42 par2=78
Channel Event. t= 343 (82129) Note Off ch=5 par1=42 par2=64
Channel Event. t= 142 (82271) Note On ch=5 par1=52 par2=64
Channel Event. t= 375 (82646) Note Off ch=5 par1=52 par2=64
Channel Event. t= 108 (82754) Note On ch=5 par1=50 par2=65
Channel Event. t= 355 (83109) Note Off ch=5 par1=50 par2=64
Channel Event. t= 130 (83239) Note On ch=5 par1=49 par2=77
Channel Event. t= 410 (83649) Note Off ch=5 par1=49 par2=64
Channel Event. t= 382 (84031) Note On ch=5 par1=35 par2=73
Channel Event. t= 145 (84176) Note Off ch=5 par1=35 par2=64
Channel Event. t= 33 (84209) Note On ch=5 par1=54 par2=66
Channel Event. t= 2 (84211) Note On ch=5 par1=50 par2=58
Channel Event. t= 158 (84369) Note Off ch=5 par1=54 par2=64
Channel Event. t= 20 (84389) Note Off ch=5 par1=50 par2=64
Channel Event. t= 300 (84689) Note On ch=5 par1=54 par2=49
Channel Event. t= 10 (84699) Note On ch=5 par1=50 par2=54
Channel Event. t= 132 (84831) Note Off ch=5 par1=54 par2=64
Channel Event. t= 15 (84846) Note Off ch=5 par1=50 par2=64
Channel Event. t= 325 (85171) Note On ch=5 par1=54 par2=44
Channel Event. t= 5 (85176) Note On ch=5 par1=50 par2=45
Channel Event. t= 145 (85321) Note Off ch=5 par1=54 par2=64
Channel Event. t= 8 (85329) Note Off ch=5 par1=50 par2=64
Channel Event. t= 332 (85661) Note On ch=5 par1=54 par2=60
Channel Event. t= 5 (85666) Note On ch=5 par1=50 par2=59
Channel Event. t= 125 (85791) Note Off ch=5 par1=54 par2=64
Channel Event. t= 15 (85806) Note Off ch=5 par1=50 par2=64
Channel Event. t= 315 (86121) Note On ch=5 par1=50 par2=52
Channel Event. t= 0 (86121) Note On ch=5 par1=54 par2=58
Channel Event. t= 168 (86289) Note Off ch=5 par1=54 par2=64
Channel Event. t= 10 (86299) Note Off ch=5 par1=50 par2=64
Channel Event. t= 312 (86611) Note On ch=5 par1=54 par2=56
Channel Event. t= 3 (86614) Note On ch=5 par1=50 par2=50
Channel Event. t= 145 (86759) Note Off ch=5 par1=54 par2=64
Channel Event. t= 15 (86774) Note Off ch=5 par1=50 par2=64
Channel Event. t= 320 (87094) Note On ch=5 par1=54 par2=59
Channel Event. t= 2 (87096) Note On ch=5 par1=50 par2=56
Channel Event. t= 138 (87234) Note Off ch=5 par1=54 par2=64
Channel Event. t= 20 (87254) Note Off ch=5 par1=50 par2=64
Channel Event. t= 310 (87564) Note On ch=5 par1=54 par2=59
Channel Event. t= 5 (87569) Note On ch=5 par1=50 par2=61
Channel Event. t= 152 (87721) Note Off ch=5 par1=54 par2=64
Channel Event. t= 18 (87739) Note Off ch=5 par1=50 par2=64
Channel Event. t= 310 (88049) Note On ch=5 par1=52 par2=71
Channel Event. t= 5 (88054) Note On ch=5 par1=55 par2=58
Channel Event. t= 167 (88221) Note Off ch=5 par1=52 par2=64
Channel Event. t= 10 (88231) Note Off ch=5 par1=55 par2=64
Channel Event. t= 268 (88499) Note On ch=5 par1=52 par2=70
Channel Event. t= 2 (88501) Note On ch=5 par1=55 par2=56
Channel Event. t= 210 (88711) Note Off ch=5 par1=55 par2=64
Channel Event. t= 5 (88716) Note Off ch=5 par1=52 par2=64
Channel Event. t= 7008 (95724) Note On ch=5 par1=67 par2=89
Channel Event. t= 715 (96439) Note On ch=5 par1=66 par2=94
Channel Event. t= 40 (96479) Note Off ch=5 par1=67 par2=64
Channel Event. t= 210 (96689) Note On ch=5 par1=64 par2=80
Channel Event. t= 10 (96699) Note Off ch=5 par1=66 par2=64
Channel Event. t= 222 (96921) Note On ch=5 par1=62 par2=76
Channel Event. t= 33 (96954) Note Off ch=5 par1=64 par2=64
Channel Event. t= 220 (97174) Note On ch=5 par1=61 par2=91
Channel Event. t= 5 (97179) Note Off ch=5 par1=62 par2=64
Channel Event. t= 370 (97549) Note Off ch=5 par1=61 par2=64
Channel Event. t= 87 (97636) Note On ch=5 par1=59 par2=85
Channel Event. t= 218 (97854) Note Off ch=5 par1=59 par2=64
Channel Event. t= 270 (98124) Note On ch=5 par1=74 par2=85
Channel Event. t= 332 (98456) Note Off ch=5 par1=74 par2=64
Channel Event. t= 143 (98599) Note On ch=5 par1=73 par2=76
Channel Event. t= 412 (99011) Note Off ch=5 par1=73 par2=64
Channel Event. t= 78 (99089) Note On ch=5 par1=71 par2=80
Channel Event. t= 392 (99481) Note Off ch=5 par1=71 par2=64
Channel Event. t= 53 (99534) Note On ch=5 par1=69 par2=80
Channel Event. t= 430 (99964) Note Off ch=5 par1=69 par2=64
Channel Event. t= 65 (100029) Note On ch=5 par1=62 par2=81
Channel Event. t= 410 (100439) Note Off ch=5 par1=62 par2=64
Channel Event. t= 82 (100521) Note On ch=5 par1=64 par2=67
Channel Event. t= 430 (100951) Note Off ch=5 par1=64 par2=64
Channel Event. t= 40 (100991) Note On ch=5 par1=65 par2=70
Channel Event. t= 350 (101341) Note Off ch=5 par1=65 par2=64
Channel Event. t= 110 (101451) Note On ch=5 par1=64 par2=72
Channel Event. t= 3 (101454) Note On ch=5 par1=67 par2=63
Channel Event. t= 312 (101766) Note Off ch=5 par1=67 par2=64
Channel Event. t= 23 (101789) Note Off ch=5 par1=64 par2=64
Channel Event. t= 165 (101954) Note On ch=5 par1=64 par2=58
Channel Event. t= 0 (101954) Note On ch=5 par1=67 par2=52
Channel Event. t= 337 (102291) Note Off ch=5 par1=64 par2=64
Channel Event. t= 3 (102294) Note Off ch=5 par1=67 par2=64
Channel Event. t= 130 (102424) Note On ch=5 par1=61 par2=69
Channel Event. t= 7 (102431) Note On ch=5 par1=64 par2=53
Channel Event. t= 323 (102754) Note Off ch=5 par1=61 par2=64
Channel Event. t= 25 (102779) Note Off ch=5 par1=64 par2=64
Channel Event. t= 157 (102936) Note On ch=5 par1=61 par2=63
Channel Event. t= 0 (102936) Note On ch=5 par1=64 par2=58
Channel Event. t= 290 (103226) Note Off ch=5 par1=61 par2=64
Channel Event. t= 3 (103229) Note Off ch=5 par1=64 par2=64
Channel Event. t= 177 (103406) Note On ch=5 par1=61 par2=56
Channel Event. t= 0 (103406) Note On ch=5 par1=64 par2=52
Channel Event. t= 263 (103669) Note Off ch=5 par1=61 par2=64
Channel Event. t= 2 (103671) Note Off ch=5 par1=64 par2=64
Channel Event. t= 218 (103889) Note On ch=5 par1=61 par2=58
Channel Event. t= 10 (103899) Note On ch=5 par1=64 par2=55
Channel Event. t= 245 (104144) Note Off ch=5 par1=61 par2=64
Channel Event. t= 5 (104149) Note Off ch=5 par1=64 par2=64
Channel Event. t= 217 (104366) Note On ch=5 par1=64 par2=59
Channel Event. t= 5 (104371) Note On ch=5 par1=61 par2=63
Channel Event. t= 293 (104664) Note Off ch=5 par1=61 par2=64
Channel Event. t= 7 (104671) Note Off ch=5 par1=64 par2=64
Channel Event. t= 4295 (108966) Note On ch=5 par1=63 par2=84
Channel Event. t= 173 (109139) Note On ch=5 par1=61 par2=85
Channel Event. t= 5 (109144) Note On ch=5 par1=64 par2=79
Channel Event. t= 2 (109146) Note Off ch=5 par1=63 par2=64
Channel Event. t= 175 (109321) Note Off ch=5 par1=61 par2=64
Channel Event. t= 15 (109336) Note Off ch=5 par1=64 par2=64
Channel Event. t= 615 (109951) Note On ch=5 par1=63 par2=78
Channel Event. t= 58 (110009) Note Off ch=5 par1=63 par2=64
Channel Event. t= 112 (110121) Note On ch=5 par1=63 par2=78
Channel Event. t= 8 (110129) Note On ch=5 par1=60 par2=80
Channel Event. t= 197 (110326) Note Off ch=5 par1=63 par2=64
Channel Event. t= 23 (110349) Note Off ch=5 par1=60 par2=64
Channel Event. t= 542 (110891) Note On ch=5 par1=61 par2=88
Channel Event. t= 188 (111079) Note On ch=5 par1=59 par2=85
Channel Event. t= 5 (111084) Note On ch=5 par1=62 par2=80
Channel Event. t= 7 (111091) Note Off ch=5 par1=61 par2=64
Channel Event. t= 145 (111236) Note Off ch=5 par1=62 par2=64
Channel Event. t= 25 (111261) Note Off ch=5 par1=59 par2=64
Channel Event. t= 580 (111841) Note On ch=5 par1=60 par2=83
Channel Event. t= 185 (112026) Note On ch=5 par1=61 par2=81
Channel Event. t= 18 (112044) Note Off ch=5 par1=60 par2=64
Channel Event. t= 2 (112046) Note On ch=5 par1=58 par2=79
Channel Event. t= 153 (112199) Note Off ch=5 par1=58 par2=64
Channel Event. t= 12 (112211) Note Off ch=5 par1=61 par2=64
Channel Event. t= 790 (113001) Note On ch=5 par1=57 par2=78
Channel Event. t= 0 (113001) Note On ch=5 par1=60 par2=82
Channel Event. t= 243 (113244) Note Off ch=5 par1=60 par2=64
Channel Event. t= 10 (113254) Note Off ch=5 par1=57 par2=64
Channel Event. t= 517 (113771) Note On ch=5 par1=58 par2=84
Channel Event. t= 183 (113954) Note On ch=5 par1=56 par2=85
Channel Event. t= 0 (113954) Note On ch=5 par1=59 par2=82
Channel Event. t= 2 (113956) Note Off ch=5 par1=58 par2=64
Channel Event. t= 170 (114126) Note Off ch=5 par1=56 par2=64
Channel Event. t= 15 (114141) Note Off ch=5 par1=59 par2=64
Channel Event. t= 795 (114936) Note On ch=5 par1=54 par2=59
Channel Event. t= 0 (114936) Note On ch=5 par1=57 par2=55
Channel Event. t= 1410 (116346) Note On ch=5 par1=50 par2=78
Channel Event. t= 23 (116369) Note Off ch=5 par1=54 par2=64
Channel Event. t= 40 (116409) Note Off ch=5 par1=57 par2=64
Channel Event. t= 430 (116839) Note On ch=5 par1=57 par2=32
Channel Event. t= 2882 (119721) Note On ch=5 par1=62 par2=63
Channel Event. t= 3 (119724) Note On ch=5 par1=54 par2=73
Channel Event. t= 25 (119749) Note Off ch=5 par1=50 par2=64
Channel Event. t= 45 (119794) Note Off ch=5 par1=57 par2=64
Channel Event. t= 797 (120591) Note Off ch=5 par1=54 par2=64
Channel Event. t= 98 (120689) Note On ch=5 par1=54 par2=81
Channel Event. t= 35 (120724) Note Off ch=5 par1=62 par2=64
Channel Event. t= 4772 (125496) Note On ch=5 par1=61 par2=82
Channel Event. t= 13 (125509) Note Off ch=5 par1=54 par2=64
Channel Event. t= 2 (125511) Note On ch=5 par1=53 par2=66
Channel Event. t= 883 (126394) Note Off ch=5 par1=61 par2=64
Channel Event. t= 42 (126436) Note On ch=5 par1=59 par2=77
Channel Event. t= 8 (126444) Note On ch=5 par1=61 par2=83
Channel Event. t= 17 (126461) Note Off ch=5 par1=53 par2=64
Channel Event. t= 733 (127194) Note Off ch=5 par1=59 par2=64
Channel Event. t= 200 (127394) Note On ch=5 par1=57 par2=80
Channel Event. t= 10 (127404) Note On ch=5 par1=48 par2=58
Channel Event. t= 5 (127409) Note Off ch=5 par1=61 par2=64
Channel Event. t= 5 (127414) Note On ch=5 par1=49 par2=44
Channel Event. t= 57 (127471) Note Off ch=5 par1=49 par2=64
Channel Event. t= 2768 (130239) Note Off ch=5 par1=57 par2=64
Channel Event. t= 70 (130309) Note On ch=5 par1=59 par2=64
Channel Event. t= 15 (130324) Note On ch=5 par1=55 par2=66
Channel Event. t= 17 (130341) Note Off ch=5 par1=48 par2=64
Channel Event. t= 3228 (133569) Note Off ch=5 par1=55 par2=64
Channel Event. t= 20 (133589) Note Off ch=5 par1=59 par2=64
Channel Event. t= 530 (134119) Note On ch=5 par1=67 par2=86
Channel Event. t= 25 (134144) Controller ch=5 par1=7 (Main Volume) par2=90
Channel Event. t= 660 (134804) Controller ch=5 par1=7 (Main Volume) par2=91
Channel Event. t= 35 (134839) Note On ch=5 par1=66 par2=98
Channel Event. t= 52 (134891) Note Off ch=5 par1=67 par2=64
Channel Event. t= 190 (135081) Note On ch=5 par1=64 par2=82
Channel Event. t= 35 (135116) Note Off ch=5 par1=66 par2=64
Channel Event. t= 188 (135304) Note On ch=5 par1=62 par2=76
Channel Event. t= 17 (135321) Note Off ch=5 par1=64 par2=64
Channel Event. t= 143 (135464) Controller ch=5 par1=7 (Main Volume) par2=92
Channel Event. t= 72 (135536) Note On ch=5 par1=61 par2=89
Channel Event. t= 48 (135584) Note Off ch=5 par1=62 par2=64
Channel Event. t= 182 (135766) Note On ch=5 par1=59 par2=79
Channel Event. t= 28 (135794) Note Off ch=5 par1=61 par2=64
Channel Event. t= 207 (136001) Note On ch=5 par1=57 par2=77
Channel Event. t= 20 (136021) Note Off ch=5 par1=59 par2=64
Channel Event. t= 43 (136064) Controller ch=5 par1=7 (Main Volume) par2=93
Channel Event. t= 80 (136144) Note Off ch=5 par1=57 par2=64
Channel Event. t= 90 (136234) Note On ch=5 par1=55 par2=87
Channel Event. t= 232 (136466) Note On ch=5 par1=54 par2=94
Channel Event. t= 70 (136536) Note Off ch=5 par1=55 par2=64
Channel Event. t= 70 (136606) Note Off ch=5 par1=54 par2=64
Channel Event. t= 113 (136719) Note On ch=5 par1=52 par2=93
Channel Event. t= 5 (136724) Controller ch=5 par1=7 (Main Volume) par2=94
Channel Event. t= 232 (136956) Note On ch=5 par1=50 par2=70
Channel Event. t= 63 (137019) Note Off ch=5 par1=52 par2=64
Channel Event. t= 117 (137136) Note Off ch=5 par1=50 par2=64
Channel Event. t= 90 (137226) Note On ch=5 par1=48 par2=87
Channel Event. t= 158 (137384) Controller ch=5 par1=7 (Main Volume) par2=95
Channel Event. t= 57 (137441) Note On ch=5 par1=50 par2=89
Channel Event. t= 38 (137479) Note Off ch=5 par1=48 par2=64
Channel Event. t= 135 (137614) Note Off ch=5 par1=50 par2=64
Channel Event. t= 80 (137694) Note On ch=5 par1=52 par2=86
Channel Event. t= 175 (137869) Note Off ch=5 par1=52 par2=64
Channel Event. t= 72 (137941) Note On ch=5 par1=53 par2=96
Channel Event. t= 43 (137984) Controller ch=5 par1=7 (Main Volume) par2=96
Channel Event. t= 345 (138329) Note Off ch=5 par1=53 par2=64
Channel Event. t= 315 (138644) Controller ch=5 par1=7 (Main Volume) par2=97
Channel Event. t= 270 (138914) Note On ch=5 par1=54 par2=94
Channel Event. t= 2 (138916) Note On ch=5 par1=58 par2=103
Channel Event. t= 363 (139279) Note Off ch=5 par1=58 par2=64
Channel Event. t= 12 (139291) Note Off ch=5 par1=54 par2=64
Channel Event. t= 13 (139304) Controller ch=5 par1=7 (Main Volume) par2=98
Channel Event. t= 570 (139874) Note On ch=5 par1=50 par2=92
Channel Event. t= 0 (139874) Note On ch=5 par1=54 par2=101
Channel Event. t= 30 (139904) Controller ch=5 par1=7 (Main Volume) par2=99
Channel Event. t= 660 (140564) Controller ch=5 par1=7 (Main Volume) par2=100
Channel Event. t= 300 (140864) Controller ch=5 par1=10 (Pan) par2=80
Channel Event. t= 360 (141224) Controller ch=5 par1=7 (Main Volume) par2=101
Channel Event. t= 597 (141821) Controller ch=5 par1=7 (Main Volume) par2=102
Channel Event. t= 3 (141824) Note Off ch=5 par1=54 par2=64
Channel Event. t= 0 (141824) Note Off ch=5 par1=50 par2=64
Channel Event. t= 0 (141824) 
Meta Event. Type: 0x2f (47dec), End of Track (0 bytes): 
track #26
track size: 692
Channel Event. t= 0 (0) 
Meta Event. Type: 0x3 (3dec), Sequence/Track Name (20 bytes): Flute               
Channel Event. t= 0 (0) 
Meta Event. Type: 0x21 (33dec), MIDI Port (1 bytes): 0
Channel Event. t= 0 (0) 
Meta Event. Type: 0x20 (32dec), MIDI Channel Prefix (1 bytes): 1
Channel Event. t= 0 (0) Controller ch=1 par1=10 (Pan) par2=64
Channel Event. t= 0 (0) Controller ch=1 par1=91 (Effects 2 Depth (formerly Tremolo Depth)) par2=127
Channel Event. t= 0 (0) Program Change ch=1 par1=72 par2=-109
Channel Event. t= 7064 (7064) Controller ch=1 par1=10 (Pan) par2=120
Channel Event. t= 44490 (51554) Controller ch=1 par1=7 (Main Volume) par2=90
Channel Event. t= 30 (51584) Note On ch=1 par1=84 par2=89
Channel Event. t= 117 (51701) Note On ch=1 par1=82 par2=72
Channel Event. t= 93 (51794) Note Off ch=1 par1=84 par2=64
Channel Event. t= 60 (51854) Note On ch=1 par1=79 par2=74
Channel Event. t= 15 (51869) Note Off ch=1 par1=82 par2=64
Channel Event. t= 142 (52011) Note On ch=1 par1=76 par2=89
Channel Event. t= 3 (52014) Note Off ch=1 par1=79 par2=64
Channel Event. t= 147 (52161) Note On ch=1 par1=79 par2=68
Channel Event. t= 55 (52216) Note Off ch=1 par1=76 par2=64
Channel Event. t= 93 (52309) Note On ch=1 par1=82 par2=86
Channel Event. t= 27 (52336) Note Off ch=1 par1=79 par2=64
Channel Event. t= 73 (52409) Note Off ch=1 par1=82 par2=64
Channel Event. t= 52 (52461) Note On ch=1 par1=84 par2=93
Channel Event. t= 143 (52604) Note On ch=1 par1=88 par2=75
Channel Event. t= 52 (52656) Note Off ch=1 par1=84 par2=64
Channel Event. t= 75 (52731) Note On ch=1 par1=91 par2=80
Channel Event. t= 10 (52741) Note Off ch=1 par1=88 par2=64
Channel Event. t= 110 (52851) Note On ch=1 par1=94 par2=81
Channel Event. t= 85 (52936) Note Off ch=1 par1=91 par2=64
Channel Event. t= 50 (52986) Note On ch=1 par1=96 par2=86
Channel Event. t= 13 (52999) Note Off ch=1 par1=94 par2=64
Channel Event. t= 95 (53094) Note On ch=1 par1=94 par2=69
Channel Event. t= 97 (53191) Note Off ch=1 par1=96 par2=64
Channel Event. t= 48 (53239) Note On ch=1 par1=91 par2=76
Channel Event. t= 42 (53281) Note Off ch=1 par1=94 par2=64
Channel Event. t= 85 (53366) Note On ch=1 par1=88 par2=89
Channel Event. t= 33 (53399) Note Off ch=1 par1=91 par2=64
Channel Event. t= 87 (53486) Note Off ch=1 par1=88 par2=64
Channel Event. t= 0 (53486) Note On ch=1 par1=91 par2=83
Channel Event. t= 80 (53566) Note Off ch=1 par1=91 par2=64
Channel Event. t= 158 (53724) Note On ch=1 par1=91 par2=87
Channel Event. t= 122 (53846) Note On ch=1 par1=93 par2=80
Channel Event. t= 28 (53874) Note Off ch=1 par1=91 par2=64
Channel Event. t= 80 (53954) Note On ch=1 par1=91 par2=84
Channel Event. t= 22 (53976) Note Off ch=1 par1=93 par2=64
Channel Event. t= 45 (54021) Note Off ch=1 par1=91 par2=64
Channel Event. t= 175 (54196) Note On ch=1 par1=91 par2=84
Channel Event. t= 120 (54316) Note On ch=1 par1=93 par2=61
Channel Event. t= 20 (54336) Note Off ch=1 par1=91 par2=64
Channel Event. t= 93 (54429) Note On ch=1 par1=91 par2=86
Channel Event. t= 17 (54446) Note Off ch=1 par1=93 par2=64
Channel Event. t= 55 (54501) Note Off ch=1 par1=91 par2=64
Channel Event. t= 175 (54676) Note On ch=1 par1=91 par2=88
Channel Event. t= 105 (54781) Note On ch=1 par1=93 par2=79
Channel Event. t= 5 (54786) Note Off ch=1 par1=91 par2=64
Channel Event. t= 115 (54901) Note On ch=1 par1=91 par2=89
Channel Event. t= 53 (54954) Note Off ch=1 par1=93 par2=64
Channel Event. t= 132 (55086) Note Off ch=1 par1=91 par2=64
Channel Event. t= 338 (55424) Controller ch=1 par1=10 (Pan) par2=20
Channel Event. t= 220 (55644) Note On ch=1 par1=91 par2=74
Channel Event. t= 55 (55699) Note Off ch=1 par1=91 par2=64
Channel Event. t= 45 (55744) Note On ch=1 par1=91 par2=86
Channel Event. t= 90 (55834) Note Off ch=1 par1=91 par2=64
Channel Event. t= 45 (55879) Note On ch=1 par1=84 par2=92
Channel Event. t= 1387 (57266) Note Off ch=1 par1=84 par2=64
Channel Event. t= 78 (57344) Controller ch=1 par1=10 (Pan) par2=120
Channel Event. t= 190 (57534) Note On ch=1 par1=91 par2=79
Channel Event. t= 50 (57584) Note Off ch=1 par1=91 par2=64
Channel Event. t= 57 (57641) Note On ch=1 par1=91 par2=72
Channel Event. t= 88 (57729) Note Off ch=1 par1=91 par2=64
Channel Event. t= 50 (57779) Note On ch=1 par1=84 par2=89
Channel Event. t= 1012 (58791) Note Off ch=1 par1=84 par2=64
Channel Event. t= 473 (59264) Controller ch=1 par1=7 (Main Volume) par2=75
Channel Event. t= 60 (59324) Program Change ch=1 par1=84 par2=-127
Channel Event. t= 64 (59388) Note On ch=1 par1=79 par2=85
Channel Event. t= 235 (59623) Note On ch=1 par1=78 par2=93
Channel Event. t= 33 (59656) Note Off ch=1 par1=79 par2=64
Channel Event. t= 187 (59843) Note On ch=1 par1=75 par2=91
Channel Event. t= 35 (59878) Note Off ch=1 par1=78 par2=64
Channel Event. t= 205 (60083) Note On ch=1 par1=74 par2=89
Channel Event. t= 10 (60093) Note Off ch=1 par1=75 par2=64
Channel Event. t= 228 (60321) Note On ch=1 par1=75 par2=84
Channel Event. t= 60 (60381) Note Off ch=1 par1=74 par2=64
Channel Event. t= 185 (60566) Note On ch=1 par1=78 par2=88
Channel Event. t= 40 (60606) Note Off ch=1 par1=75 par2=64
Channel Event. t= 187 (60793) Note On ch=1 par1=79 par2=77
Channel Event. t= 15 (60808) Note Off ch=1 par1=78 par2=64
Channel Event. t= 225 (61033) Note On ch=1 par1=72 par2=102
Channel Event. t= 18 (61051) Note Off ch=1 par1=79 par2=64
Channel Event. t= 450 (61501) Note Off ch=1 par1=72 par2=64
Channel Event. t= 25 (61526) Note On ch=1 par1=75 par2=103
Channel Event. t= 230 (61756) Note On ch=1 par1=78 par2=93
Channel Event. t= 32 (61788) Note Off ch=1 par1=75 par2=64
Channel Event. t= 190 (61978) Note Off ch=1 par1=78 par2=64
Channel Event. t= 15 (61993) Note On ch=1 par1=79 par2=94
Channel Event. t= 473 (62466) Note On ch=1 par1=78 par2=88
Channel Event. t= 12 (62478) Note Off ch=1 par1=79 par2=64
Channel Event. t= 325 (62803) Note Off ch=1 par1=78 par2=64
Channel Event. t= 405 (63208) Note On ch=1 par1=79 par2=80
Channel Event. t= 235 (63443) Note On ch=1 par1=78 par2=81
Channel Event. t= 25 (63468) Note Off ch=1 par1=79 par2=64
Channel Event. t= 203 (63671) Note On ch=1 par1=75 par2=77
Channel Event. t= 15 (63686) Note Off ch=1 par1=78 par2=64
Channel Event. t= 207 (63893) Note On ch=1 par1=74 par2=77
Channel Event. t= 8 (63901) Note Off ch=1 par1=75 par2=64
Channel Event. t= 242 (64143) Note On ch=1 par1=75 par2=77
Channel Event. t= 53 (64196) Note Off ch=1 par1=74 par2=64
Channel Event. t= 185 (64381) Note On ch=1 par1=78 par2=82
Channel Event. t= 12 (64393) Note Off ch=1 par1=75 par2=64
Channel Event. t= 210 (64603) Note Off ch=1 par1=78 par2=64
Channel Event. t= 8 (64611) Note On ch=1 par1=79 par2=74
Channel Event. t= 250 (64861) Note On ch=1 par1=86 par2=91
Channel Event. t= 27 (64888) Note Off ch=1 par1=79 par2=64
Channel Event. t= 468 (65356) Note On ch=1 par1=87 par2=81
Channel Event. t= 10 (65366) Note Off ch=1 par1=86 par2=64
Channel Event. t= 235 (65601) Note On ch=1 par1=86 par2=74
Channel Event. t= 25 (65626) Note Off ch=1 par1=87 par2=64
Channel Event. t= 225 (65851) Note On ch=1 par1=84 par2=76
Channel Event. t= 12 (65863) Note Off ch=1 par1=86 par2=64
Channel Event. t= 453 (66316) Note On ch=1 par1=77 par2=88
Channel Event. t= 5 (66321) Note Off ch=1 par1=84 par2=64
Channel Event. t= 482 (66803) Note On ch=1 par1=78 par2=84
Channel Event. t= 55 (66858) Note Off ch=1 par1=77 par2=64
Channel Event. t= 433 (67291) Note On ch=1 par1=79 par2=55
Channel Event. t= 35 (67326) Note Off ch=1 par1=78 par2=64
Channel Event. t= 455 (67781) Note On ch=1 par1=78 par2=40
Channel Event. t= 57 (67838) Note Off ch=1 par1=79 par2=64
Channel Event. t= 345 (68183) Note Off ch=1 par1=78 par2=64
Channel Event. t= 4363 (72546) Program Change ch=1 par1=72 par2=-126
Channel Event. t= 16 (72562) Note On ch=1 par1=91 par2=84
Channel Event. t= 70 (72632) Note Off ch=1 par1=91 par2=64
Channel Event. t= 40 (72672) Note On ch=1 par1=91 par2=75
Channel Event. t= 108 (72780) Note Off ch=1 par1=91 par2=64
Channel Event. t= 5 (72785) Note On ch=1 par1=84 par2=98
Channel Event. t= 375 (73160) Note Off ch=1 par1=84 par2=64
Channel Event. t= 337 (73497) Note On ch=1 par1=91 par2=77
Channel Event. t= 45 (73542) Note Off ch=1 par1=91 par2=64
Channel Event. t= 50 (73592) Note On ch=1 par1=91 par2=76
Channel Event. t= 95 (73687) Note Off ch=1 par1=91 par2=64
Channel Event. t= 30 (73717) Note On ch=1 par1=84 par2=90
Channel Event. t= 380 (74097) Note Off ch=1 par1=84 par2=64
Channel Event. t= 443 (74540) Controller ch=1 par1=10 (Pan) par2=20
Channel Event. t= 365 (74905) Note On ch=1 par1=91 par2=82
Channel Event. t= 70 (74975) Note Off ch=1 par1=91 par2=64
Channel Event. t= 35 (75010) Note On ch=1 par1=91 par2=68
Channel Event. t= 110 (75120) Note Off ch=1 par1=91 par2=64
Channel Event. t= 25 (75145) Note On ch=1 par1=84 par2=97
Channel Event. t= 370 (75515) Note Off ch=1 par1=84 par2=64
Channel Event. t= 2865 (78380) Controller ch=1 par1=10 (Pan) par2=120
Channel Event. t= 387 (78767) Note On ch=1 par1=91 par2=80
Channel Event. t= 63 (78830) Note Off ch=1 par1=91 par2=64
Channel Event. t= 42 (78872) Note On ch=1 par1=91 par2=82
Channel Event. t= 105 (78977) Note Off ch=1 par1=91 par2=64
Channel Event. t= 23 (79000) Note On ch=1 par1=84 par2=103
Channel Event. t= 320 (79320) Note Off ch=1 par1=84 par2=64
Channel Event. t= 0 (79320) 
Meta Event. Type: 0x2f (47dec), End of Track (0 bytes): 
track #27
track size: 974
Channel Event. t= 0 (0) 
Meta Event. Type: 0x3 (3dec), Sequence/Track Name (20 bytes): Bassoon             
Channel Event. t= 0 (0) 
Meta Event. Type: 0x21 (33dec), MIDI Port (1 bytes): 0
Channel Event. t= 0 (0) 
Meta Event. Type: 0x20 (32dec), MIDI Channel Prefix (1 bytes): 4
Channel Event. t= 0 (0) Controller ch=4 par1=10 (Pan) par2=64
Channel Event. t= 0 (0) Controller ch=4 par1=91 (Effects 2 Depth (formerly Tremolo Depth)) par2=127
Channel Event. t= 0 (0) Program Change ch=4 par1=86 par2=-109
Channel Event. t= 6824 (6824) Controller ch=4 par1=10 (Pan) par2=90
Channel Event. t= 77080 (83904) Controller ch=4 par1=7 (Main Volume) par2=80
Channel Event. t= 127 (84031) Note On ch=4 par1=35 par2=73
Channel Event. t= 145 (84176) Note Off ch=4 par1=35 par2=64
Channel Event. t= 25 (84201) Note On ch=4 par1=42 par2=95
Channel Event. t= 215 (84416) Note Off ch=4 par1=42 par2=64
Channel Event. t= 100 (84516) Note On ch=4 par1=42 par2=80
Channel Event. t= 88 (84604) Note Off ch=4 par1=42 par2=64
Channel Event. t= 62 (84666) Note On ch=4 par1=35 par2=87
Channel Event. t= 803 (85469) Note On ch=4 par1=36 par2=80
Channel Event. t= 25 (85494) Note Off ch=4 par1=35 par2=64
Channel Event. t= 92 (85586) Note Off ch=4 par1=36 par2=64
Channel Event. t= 40 (85626) Note On ch=4 par1=38 par2=90
Channel Event. t= 298 (85924) Note Off ch=4 par1=38 par2=64
Channel Event. t= 30 (85954) Note On ch=4 par1=40 par2=79
Channel Event. t= 97 (86051) Note Off ch=4 par1=40 par2=64
Channel Event. t= 68 (86119) Note On ch=4 par1=42 par2=97
Channel Event. t= 282 (86401) Note Off ch=4 par1=42 par2=64
Channel Event. t= 53 (86454) Note On ch=4 par1=38 par2=74
Channel Event. t= 152 (86606) Note Off ch=4 par1=38 par2=64
Channel Event. t= 10 (86616) Note On ch=4 par1=45 par2=88
Channel Event. t= 223 (86839) Note Off ch=4 par1=45 par2=64
Channel Event. t= 42 (86881) Note On ch=4 par1=45 par2=79
Channel Event. t= 135 (87016) Note Off ch=4 par1=45 par2=64
Channel Event. t= 83 (87099) Note On ch=4 par1=45 par2=72
Channel Event. t= 182 (87281) Note Off ch=4 par1=45 par2=64
Channel Event. t= 53 (87334) Note On ch=4 par1=45 par2=71
Channel Event. t= 177 (87511) Note Off ch=4 par1=45 par2=64
Channel Event. t= 48 (87559) Note On ch=4 par1=45 par2=83
Channel Event. t= 155 (87714) Note On ch=4 par1=47 par2=80
Channel Event. t= 10 (87724) Note Off ch=4 par1=45 par2=64
Channel Event. t= 122 (87846) Note On ch=4 par1=48 par2=84
Channel Event. t= 25 (87871) Note Off ch=4 par1=47 par2=64
Channel Event. t= 73 (87944) Note Off ch=4 par1=48 par2=64
Channel Event. t= 75 (88019) Note On ch=4 par1=49 par2=105
Channel Event. t= 670 (88689) Note On ch=4 par1=50 par2=77
Channel Event. t= 5 (88694) Note Off ch=4 par1=49 par2=64
Channel Event. t= 137 (88831) Note On ch=4 par1=51 par2=87
Channel Event. t= 5 (88836) Note Off ch=4 par1=50 par2=64
Channel Event. t= 165 (89001) Note Off ch=4 par1=51 par2=64
Channel Event. t= 8 (89009) Note On ch=4 par1=46 par2=98
Channel Event. t= 345 (89354) Note Off ch=4 par1=46 par2=64
Channel Event. t= 140 (89494) Note On ch=4 par1=54 par2=93
Channel Event. t= 92 (89586) Note Off ch=4 par1=54 par2=64
Channel Event. t= 53 (89639) Note On ch=4 par1=54 par2=90
Channel Event. t= 82 (89721) Note Off ch=4 par1=54 par2=64
Channel Event. t= 53 (89774) Note On ch=4 par1=54 par2=90
Channel Event. t= 102 (89876) Note Off ch=4 par1=54 par2=64
Channel Event. t= 70 (89946) Note On ch=4 par1=54 par2=104
Channel Event. t= 1453 (91399) Note Off ch=4 par1=54 par2=64
Channel Event. t= 297 (91696) Note On ch=4 par1=54 par2=79
Channel Event. t= 173 (91869) Note Off ch=4 par1=54 par2=64
Channel Event. t= 5 (91874) Note On ch=4 par1=55 par2=85
Channel Event. t= 215 (92089) Note Off ch=4 par1=55 par2=64
Channel Event. t= 95 (92184) Note On ch=4 par1=41 par2=66
Channel Event. t= 82 (92266) Note Off ch=4 par1=41 par2=64
Channel Event. t= 360 (92626) Note On ch=4 par1=54 par2=93
Channel Event. t= 178 (92804) Note On ch=4 par1=55 par2=89
Channel Event. t= 15 (92819) Note Off ch=4 par1=54 par2=64
Channel Event. t= 220 (93039) Note Off ch=4 par1=55 par2=64
Channel Event. t= 577 (93616) Note On ch=4 par1=54 par2=83
Channel Event. t= 175 (93791) Note On ch=4 par1=55 par2=88
Channel Event. t= 15 (93806) Note Off ch=4 par1=54 par2=64
Channel Event. t= 258 (94064) Note Off ch=4 par1=55 par2=64
Channel Event. t= 527 (94591) Note On ch=4 par1=54 par2=71
Channel Event. t= 178 (94769) Note Off ch=4 par1=54 par2=64
Channel Event. t= 7 (94776) Note On ch=4 par1=55 par2=85
Channel Event. t= 240 (95016) Note Off ch=4 par1=55 par2=64
Channel Event. t= 700 (95716) Note On ch=4 par1=55 par2=87
Channel Event. t= 720 (96436) Note On ch=4 par1=54 par2=89
Channel Event. t= 43 (96479) Note Off ch=4 par1=55 par2=64
Channel Event. t= 195 (96674) Note On ch=4 par1=52 par2=90
Channel Event. t= 25 (96699) Note Off ch=4 par1=54 par2=64
Channel Event. t= 202 (96901) Note Off ch=4 par1=52 par2=64
Channel Event. t= 13 (96914) Note On ch=4 par1=50 par2=84
Channel Event. t= 232 (97146) Note On ch=4 par1=49 par2=98
Channel Event. t= 10 (97156) Note Off ch=4 par1=50 par2=64
Channel Event. t= 250 (97406) Note Off ch=4 par1=49 par2=64
Channel Event. t= 68 (97474) Note On ch=4 par1=47 par2=73
Channel Event. t= 152 (97626) Note On ch=4 par1=54 par2=85
Channel Event. t= 13 (97639) Note Off ch=4 par1=47 par2=64
Channel Event. t= 192 (97831) Note Off ch=4 par1=54 par2=64
Channel Event. t= 103 (97934) Note On ch=4 par1=54 par2=93
Channel Event. t= 142 (98076) Note Off ch=4 par1=54 par2=64
Channel Event. t= 35 (98111) Note On ch=4 par1=47 par2=97
Channel Event. t= 723 (98834) Note On ch=4 par1=49 par2=91
Channel Event. t= 32 (98866) Note Off ch=4 par1=47 par2=64
Channel Event. t= 205 (99071) Note On ch=4 par1=50 par2=90
Channel Event. t= 5 (99076) Note Off ch=4 par1=49 par2=64
Channel Event. t= 228 (99304) Note On ch=4 par1=52 par2=91
Channel Event. t= 20 (99324) Note Off ch=4 par1=50 par2=64
Channel Event. t= 205 (99529) Note On ch=4 par1=54 par2=96
Channel Event. t= 10 (99539) Note Off ch=4 par1=52 par2=64
Channel Event. t= 267 (99806) Note Off ch=4 par1=54 par2=64
Channel Event. t= 43 (99849) Note On ch=4 par1=50 par2=84
Channel Event. t= 135 (99984) Note Off ch=4 par1=50 par2=64
Channel Event. t= 32 (100016) Note On ch=4 par1=57 par2=96
Channel Event. t= 258 (100274) Note Off ch=4 par1=57 par2=64
Channel Event. t= 52 (100326) Note On ch=4 par1=57 par2=99
Channel Event. t= 108 (100434) Note Off ch=4 par1=57 par2=64
Channel Event. t= 57 (100491) Note On ch=4 par1=57 par2=94
Channel Event. t= 238 (100729) Note Off ch=4 par1=57 par2=64
Channel Event. t= 50 (100779) Note On ch=4 par1=57 par2=87
Channel Event. t= 127 (100906) Note Off ch=4 par1=57 par2=64
Channel Event. t= 45 (100951) Note On ch=4 par1=57 par2=95
Channel Event. t= 148 (101099) Note On ch=4 par1=59 par2=85
Channel Event. t= 35 (101134) Note Off ch=4 par1=57 par2=64
Channel Event. t= 115 (101249) Note On ch=4 par1=60 par2=90
Channel Event. t= 5 (101254) Note Off ch=4 par1=59 par2=64
Channel Event. t= 155 (101409) Note Off ch=4 par1=60 par2=64
Channel Event. t= 22 (101431) Note On ch=4 par1=61 par2=103
Channel Event. t= 708 (102139) Note On ch=4 par1=62 par2=94
Channel Event. t= 20 (102159) Note Off ch=4 par1=61 par2=64
Channel Event. t= 120 (102279) Note On ch=4 par1=63 par2=89
Channel Event. t= 25 (102304) Note Off ch=4 par1=62 par2=64
Channel Event. t= 152 (102456) Note Off ch=4 par1=63 par2=64
Channel Event. t= 5 (102461) Note On ch=4 par1=58 par2=103
Channel Event. t= 290 (102751) Note Off ch=4 par1=58 par2=64
Channel Event. t= 205 (102956) Note On ch=4 par1=54 par2=102
Channel Event. t= 103 (103059) Note Off ch=4 par1=54 par2=64
Channel Event. t= 47 (103106) Note On ch=4 par1=54 par2=94
Channel Event. t= 98 (103204) Note Off ch=4 par1=54 par2=64
Channel Event. t= 52 (103256) Note On ch=4 par1=54 par2=85
Channel Event. t= 118 (103374) Note Off ch=4 par1=54 par2=64
Channel Event. t= 60 (103434) Note On ch=4 par1=54 par2=105
Channel Event. t= 1440 (104874) Note Off ch=4 par1=54 par2=64
Channel Event. t= 260 (105134) Note On ch=4 par1=54 par2=70
Channel Event. t= 192 (105326) Note On ch=4 par1=55 par2=97
Channel Event. t= 3 (105329) Note Off ch=4 par1=54 par2=64
Channel Event. t= 205 (105534) Note Off ch=4 par1=55 par2=64
Channel Event. t= 552 (106086) Note On ch=4 par1=54 par2=77
Channel Event. t= 175 (106261) Note On ch=4 par1=55 par2=82
Channel Event. t= 3 (106264) Note Off ch=4 par1=54 par2=64
Channel Event. t= 227 (106491) Note Off ch=4 par1=55 par2=64
Channel Event. t= 545 (107036) Note On ch=4 par1=54 par2=84
Channel Event. t= 180 (107216) Note Off ch=4 par1=54 par2=64
Channel Event. t= 3 (107219) Note On ch=4 par1=55 par2=82
Channel Event. t= 255 (107474) Note Off ch=4 par1=55 par2=64
Channel Event. t= 547 (108021) Note On ch=4 par1=54 par2=94
Channel Event. t= 173 (108194) Note On ch=4 par1=55 par2=81
Channel Event. t= 5 (108199) Note Off ch=4 par1=54 par2=64
Channel Event. t= 245 (108444) Note Off ch=4 par1=55 par2=64
Channel Event. t= 507 (108951) Note On ch=4 par1=54 par2=94
Channel Event. t= 173 (109124) Note On ch=4 par1=55 par2=87
Channel Event. t= 7 (109131) Note Off ch=4 par1=54 par2=64
Channel Event. t= 278 (109409) Note Off ch=4 par1=55 par2=64
Channel Event. t= 515 (109924) Note On ch=4 par1=54 par2=92
Channel Event. t= 170 (110094) Note On ch=4 par1=55 par2=81
Channel Event. t= 7 (110101) Note Off ch=4 par1=54 par2=64
Channel Event. t= 288 (110389) Note Off ch=4 par1=55 par2=64
Channel Event. t= 487 (110876) Note On ch=4 par1=54 par2=88
Channel Event. t= 168 (111044) Note Off ch=4 par1=54 par2=64
Channel Event. t= 5 (111049) Note On ch=4 par1=55 par2=88
Channel Event. t= 232 (111281) Note Off ch=4 par1=55 par2=64
Channel Event. t= 568 (111849) Note On ch=4 par1=54 par2=95
Channel Event. t= 172 (112021) Note Off ch=4 par1=54 par2=64
Channel Event. t= 5 (112026) Note On ch=4 par1=55 par2=87
Channel Event. t= 255 (112281) Note Off ch=4 par1=55 par2=64
Channel Event. t= 21838 (134119) Note On ch=4 par1=55 par2=99
Channel Event. t= 25 (134144) Controller ch=4 par1=7 (Main Volume) par2=90
Channel Event. t= 660 (134804) Controller ch=4 par1=7 (Main Volume) par2=91
Channel Event. t= 40 (134844) Note On ch=4 par1=54 par2=93
Channel Event. t= 42 (134886) Note Off ch=4 par1=55 par2=64
Channel Event. t= 200 (135086) Note On ch=4 par1=52 par2=96
Channel Event. t= 33 (135119) Note Off ch=4 par1=54 par2=64
Channel Event. t= 207 (135326) Note On ch=4 par1=50 par2=86
Channel Event. t= 3 (135329) Note Off ch=4 par1=52 par2=64
Channel Event. t= 135 (135464) Controller ch=4 par1=7 (Main Volume) par2=92
Channel Event. t= 87 (135551) Note On ch=4 par1=49 par2=93
Channel Event. t= 43 (135594) Note Off ch=4 par1=50 par2=64
Channel Event. t= 180 (135774) Note On ch=4 par1=47 par2=80
Channel Event. t= 30 (135804) Note Off ch=4 par1=49 par2=64
Channel Event. t= 197 (136001) Note On ch=4 par1=45 par2=80
Channel Event. t= 18 (136019) Note Off ch=4 par1=47 par2=64
Channel Event. t= 45 (136064) Controller ch=4 par1=7 (Main Volume) par2=93
Channel Event. t= 167 (136231) Note On ch=4 par1=43 par2=81
Channel Event. t= 23 (136254) Note Off ch=4 par1=45 par2=64
Channel Event. t= 227 (136481) Note On ch=4 par1=41 par2=78
Channel Event. t= 20 (136501) Note Off ch=4 par1=43 par2=64
Channel Event. t= 223 (136724) Controller ch=4 par1=7 (Main Volume) par2=94
Channel Event. t= 0 (136724) Note On ch=4 par1=40 par2=78
Channel Event. t= 5 (136729) Note Off ch=4 par1=41 par2=64
Channel Event. t= 247 (136976) Note On ch=4 par1=38 par2=87
Channel Event. t= 18 (136994) Note Off ch=4 par1=40 par2=64
Channel Event. t= 237 (137231) Note On ch=4 par1=36 par2=90
Channel Event. t= 3 (137234) Note Off ch=4 par1=38 par2=64
Channel Event. t= 150 (137384) Controller ch=4 par1=7 (Main Volume) par2=95
Channel Event. t= 102 (137486) Note On ch=4 par1=38 par2=86
Channel Event. t= 55 (137541) Note Off ch=4 par1=36 par2=64
Channel Event. t= 190 (137731) Note On ch=4 par1=40 par2=84
Channel Event. t= 33 (137764) Note Off ch=4 par1=38 par2=64
Channel Event. t= 220 (137984) Controller ch=4 par1=7 (Main Volume) par2=96
Channel Event. t= 2 (137986) Note On ch=4 par1=41 par2=93
Channel Event. t= 5 (137991) Note Off ch=4 par1=40 par2=64
Channel Event. t= 398 (138389) Note Off ch=4 par1=41 par2=64
Channel Event. t= 255 (138644) Controller ch=4 par1=7 (Main Volume) par2=97
Channel Event. t= 260 (138904) Note On ch=4 par1=49 par2=97
Channel Event. t= 397 (139301) Note Off ch=4 par1=49 par2=64
Channel Event. t= 3 (139304) Controller ch=4 par1=7 (Main Volume) par2=98
Channel Event. t= 537 (139841) Note On ch=4 par1=47 par2=97
Channel Event. t= 63 (139904) Controller ch=4 par1=7 (Main Volume) par2=99
Channel Event. t= 660 (140564) Controller ch=4 par1=7 (Main Volume) par2=100
Channel Event. t= 660 (141224) Controller ch=4 par1=7 (Main Volume) par2=101
Channel Event. t= 597 (141821) Controller ch=4 par1=7 (Main Volume) par2=102
Channel Event. t= 3 (141824) Note Off ch=4 par1=47 par2=64
Channel Event. t= 0 (141824) 
Meta Event. Type: 0x2f (47dec), End of Track (0 bytes): 
track #28
track size: 186
Channel Event. t= 0 (0) 
Meta Event. Type: 0x3 (3dec), Sequence/Track Name (20 bytes): Rhythm              
Channel Event. t= 0 (0) 
Meta Event. Type: 0x21 (33dec), MIDI Port (1 bytes): 0
Channel Event. t= 0 (0) 
Meta Event. Type: 0x20 (32dec), MIDI Channel Prefix (1 bytes): 9
Channel Event. t= 0 (0) Controller ch=9 par1=10 (Pan) par2=64
Channel Event. t= 0 (0) Controller ch=9 par1=91 (Effects 2 Depth (formerly Tremolo Depth)) par2=127
Channel Event. t= 0 (0) Program Change ch=9 par1=0 par2=-109
Channel Event. t= 6944 (6944) Controller ch=9 par1=7 (Main Volume) par2=70
Channel Event. t= 98375 (105319) Note On ch=9 par1=62 par2=111
Channel Event. t= 170 (105489) Note Off ch=9 par1=62 par2=64
Channel Event. t= 132 (105621) Note On ch=9 par1=62 par2=84
Channel Event. t= 78 (105699) Note Off ch=9 par1=62 par2=64
Channel Event. t= 95 (105794) Note On ch=9 par1=62 par2=109
Channel Event. t= 172 (105966) Note Off ch=9 par1=62 par2=64
Channel Event. t= 133 (106099) Note On ch=9 par1=62 par2=90
Channel Event. t= 80 (106179) Note Off ch=9 par1=62 par2=64
Channel Event. t= 105 (106284) Note On ch=9 par1=62 par2=111
Channel Event. t= 112 (106396) Note Off ch=9 par1=62 par2=64
Channel Event. t= 203 (106599) Note On ch=9 par1=62 par2=91
Channel Event. t= 77 (106676) Note Off ch=9 par1=62 par2=64
Channel Event. t= 100 (106776) Note On ch=9 par1=62 par2=108
Channel Event. t= 93 (106869) Note Off ch=9 par1=62 par2=64
Channel Event. t= 210 (107079) Note On ch=9 par1=62 par2=89
Channel Event. t= 72 (107151) Note Off ch=9 par1=62 par2=64
Channel Event. t= 98 (107249) Note On ch=9 par1=62 par2=110
Channel Event. t= 82 (107331) Note Off ch=9 par1=62 par2=64
Channel Event. t= 225 (107556) Note On ch=9 par1=62 par2=88
Channel Event. t= 83 (107639) Note Off ch=9 par1=62 par2=64
Channel Event. t= 87 (107726) Note On ch=9 par1=62 par2=108
Channel Event. t= 88 (107814) Note Off ch=9 par1=62 par2=64
Channel Event. t= 212 (108026) Note On ch=9 par1=62 par2=97
Channel Event. t= 80 (108106) Note Off ch=9 par1=62 par2=64
Channel Event. t= 98 (108204) Note On ch=9 par1=62 par2=109
Channel Event. t= 82 (108286) Note Off ch=9 par1=62 par2=64
Channel Event. t= 238 (108524) Note On ch=9 par1=62 par2=104
Channel Event. t= 77 (108601) Note Off ch=9 par1=62 par2=64
Channel Event. t= 90 (108691) Note On ch=9 par1=62 par2=115
Channel Event. t= 93 (108784) Note Off ch=9 par1=62 par2=64
Channel Event. t= 0 (108784) 
Meta Event. Type: 0x2f (47dec), End of Track (0 bytes): 
track #29
track size: 33
Channel Event. t= 0 (0) 
Meta Event. Type: 0x3 (3dec), Sequence/Track Name (20 bytes):                     
Channel Event. t= 0 (0) 
Meta Event. Type: 0x21 (33dec), MIDI Port (1 bytes): 0
Channel Event. t= 0 (0) 
Meta Event. Type: 0x2f (47dec), End of Track (0 bytes): 
track #30
track size: 33
Channel Event. t= 0 (0) 
Meta Event. Type: 0x3 (3dec), Sequence/Track Name (20 bytes):     PART FOUR       
Channel Event. t= 0 (0) 
Meta Event. Type: 0x21 (33dec), MIDI Port (1 bytes): 0
Channel Event. t= 0 (0) 
Meta Event. Type: 0x2f (47dec), End of Track (0 bytes): 
track #31
track size: 33
Channel Event. t= 0 (0) 
Meta Event. Type: 0x3 (3dec), Sequence/Track Name (20 bytes): !!! THE WOLF !!!    
Channel Event. t= 0 (0) 
Meta Event. Type: 0x21 (33dec), MIDI Port (1 bytes): 0
Channel Event. t= 0 (0) 
Meta Event. Type: 0x2f (47dec), End of Track (0 bytes): 
track #32
track size: 33
Channel Event. t= 0 (0) 
Meta Event. Type: 0x3 (3dec), Sequence/Track Name (20 bytes):                     
Channel Event. t= 0 (0) 
Meta Event. Type: 0x21 (33dec), MIDI Port (1 bytes): 0
Channel Event. t= 0 (0) 
Meta Event. Type: 0x2f (47dec), End of Track (0 bytes): 
track #33
track size: 7566
Channel Event. t= 0 (0) 
Meta Event. Type: 0x3 (3dec), Sequence/Track Name (20 bytes): Strings             
Channel Event. t= 0 (0) 
Meta Event. Type: 0x21 (33dec), MIDI Port (1 bytes): 0
Channel Event. t= 0 (0) 
Meta Event. Type: 0x20 (32dec), MIDI Channel Prefix (1 bytes): 5
Channel Event. t= 0 (0) Controller ch=5 par1=10 (Pan) par2=64
Channel Event. t= 0 (0) Controller ch=5 par1=91 (Effects 2 Depth (formerly Tremolo Depth)) par2=127
Channel Event. t= 0 (0) Program Change ch=5 par1=48 par2=-101
Channel Event. t= 13872 (13872) Controller ch=5 par1=10 (Pan) par2=45
Channel Event. t= 2610 (16482) Controller ch=5 par1=7 (Main Volume) par2=60
Channel Event. t= 30 (16512) Note On ch=5 par1=38 par2=84
Channel Event. t= 0 (16512) Note On ch=5 par1=43 par2=86
Channel Event. t= 2 (16514) Note On ch=5 par1=31 par2=74
Channel Event. t= 3 (16517) Note On ch=5 par1=35 par2=76
Channel Event. t= 5637 (22154) Note Off ch=5 par1=38 par2=64
Channel Event. t= 38 (22192) Note Off ch=5 par1=31 par2=64
Channel Event. t= 22 (22214) Note Off ch=5 par1=43 par2=64
Channel Event. t= 28 (22242) Controller ch=5 par1=7 (Main Volume) par2=75
Channel Event. t= 10 (22252) Note Off ch=5 par1=35 par2=64
Channel Event. t= 5 (22257) Note On ch=5 par1=31 par2=64
Channel Event. t= 2 (22259) Note On ch=5 par1=43 par2=78
Channel Event. t= 5 (22264) Note On ch=5 par1=55 par2=62
Channel Event. t= 35 (22299) Note On ch=5 par1=59 par2=62
Channel Event. t= 95 (22394) Note On ch=5 par1=50 par2=89
Channel Event. t= 108 (22502) Note On ch=5 par1=58 par2=62
Channel Event. t= 7 (22509) Note Off ch=5 par1=59 par2=64
Channel Event. t= 15 (22524) Note On ch=5 par1=54 par2=64
Channel Event. t= 18 (22542) Note Off ch=5 par1=55 par2=64
Channel Event. t= 32 (22574) Note On ch=5 par1=51 par2=78
Channel Event. t= 48 (22622) Note Off ch=5 par1=50 par2=64
Channel Event. t= 120 (22742) Note On ch=5 par1=59 par2=68
Channel Event. t= 7 (22749) Note On ch=5 par1=55 par2=66
Channel Event. t= 15 (22764) Note Off ch=5 par1=54 par2=64
Channel Event. t= 8 (22772) Note Off ch=5 par1=58 par2=64
Channel Event. t= 35 (22807) Note On ch=5 par1=50 par2=75
Channel Event. t= 17 (22824) Note Off ch=5 par1=51 par2=64
Channel Event. t= 153 (22977) Note On ch=5 par1=54 par2=65
Channel Event. t= 2 (22979) Note On ch=5 par1=58 par2=72
Channel Event. t= 20 (22999) Note Off ch=5 par1=59 par2=64
Channel Event. t= 18 (23017) Note On ch=5 par1=51 par2=84
Channel Event. t= 20 (23037) Note Off ch=5 par1=55 par2=64
Channel Event. t= 27 (23064) Note Off ch=5 par1=50 par2=64
Channel Event. t= 160 (23224) Note On ch=5 par1=55 par2=70
Channel Event. t= 3 (23227) Note On ch=5 par1=59 par2=71
Channel Event. t= 35 (23262) Note Off ch=5 par1=54 par2=64
Channel Event. t= 0 (23262) Note Off ch=5 par1=58 par2=64
Channel Event. t= 0 (23262) Note On ch=5 par1=50 par2=83
Channel Event. t= 27 (23289) Note Off ch=5 par1=51 par2=64
Channel Event. t= 218 (23507) Note Off ch=5 par1=59 par2=64
Channel Event. t= 2 (23509) Note Off ch=5 par1=55 par2=64
Channel Event. t= 90 (23599) Note Off ch=5 par1=50 par2=64
Channel Event. t= 83 (23682) Note On ch=5 par1=50 par2=80
Channel Event. t= 7 (23689) Note On ch=5 par1=59 par2=69
Channel Event. t= 5 (23694) Note On ch=5 par1=55 par2=61
Channel Event. t= 200 (23894) Note Off ch=5 par1=59 par2=64
Channel Event. t= 28 (23922) Note Off ch=5 par1=55 par2=64
Channel Event. t= 127 (24049) Note Off ch=5 par1=50 par2=64
Channel Event. t= 108 (24157) Note On ch=5 par1=55 par2=86
Channel Event. t= 27 (24184) Note On ch=5 par1=62 par2=72
Channel Event. t= 0 (24184) Note On ch=5 par1=59 par2=67
Channel Event. t= 98 (24282) Note Off ch=5 par1=43 par2=64
Channel Event. t= 15 (24297) Note Off ch=5 par1=31 par2=64
Channel Event. t= 340 (24637) Note On ch=5 par1=51 par2=83
Channel Event. t= 12 (24649) Note On ch=5 par1=57 par2=58
Channel Event. t= 0 (24649) Note On ch=5 par1=61 par2=80
Channel Event. t= 35 (24684) Note Off ch=5 par1=62 par2=64
Channel Event. t= 8 (24692) Note Off ch=5 par1=59 par2=64
Channel Event. t= 12 (24704) Note Off ch=5 par1=55 par2=64
Channel Event. t= 413 (25117) Note On ch=5 par1=55 par2=77
Channel Event. t= 22 (25139) Note On ch=5 par1=59 par2=68
Channel Event. t= 0 (25139) Note On ch=5 par1=62 par2=63
Channel Event. t= 8 (25147) Note Off ch=5 par1=51 par2=64
Channel Event. t= 20 (25167) Note Off ch=5 par1=57 par2=64
Channel Event. t= 17 (25184) Note Off ch=5 par1=61 par2=64
Channel Event. t= 338 (25522) Note Off ch=5 par1=59 par2=64
Channel Event. t= 42 (25564) Note Off ch=5 par1=62 par2=64
Channel Event. t= 28 (25592) Note On ch=5 par1=50 par2=89
Channel Event. t= 25 (25617) Note On ch=5 par1=59 par2=69
Channel Event. t= 2 (25619) Note Off ch=5 par1=55 par2=64
Channel Event. t= 13 (25632) Note On ch=5 par1=55 par2=67
Channel Event. t= 315 (25947) Note Off ch=5 par1=59 par2=64
Channel Event. t= 5 (25952) Note Off ch=5 par1=55 par2=64
Channel Event. t= 75 (26027) Note Off ch=5 par1=50 par2=64
Channel Event. t= 70 (26097) Note On ch=5 par1=60 par2=78
Channel Event. t= 5 (26102) Note On ch=5 par1=53 par2=68
Channel Event. t= 12 (26114) Note On ch=5 par1=48 par2=90
Channel Event. t= 1908 (28022) Note On ch=5 par1=41 par2=50
Channel Event. t= 0 (28022) Note On ch=5 par1=44 par2=58
Channel Event. t= 20 (28042) Note On ch=5 par1=36 par2=49
Channel Event. t= 75 (28117) Note Off ch=5 par1=48 par2=64
Channel Event. t= 1695 (29812) Note Off ch=5 par1=53 par2=64
Channel Event. t= 55 (29867) Note Off ch=5 par1=36 par2=64
Channel Event. t= 2 (29869) Note Off ch=5 par1=60 par2=64
Channel Event. t= 35 (29904) Note Off ch=5 par1=41 par2=64
Channel Event. t= 13 (29917) Note Off ch=5 par1=44 par2=64
Channel Event. t= 22 (29939) Note On ch=5 par1=60 par2=72
Channel Event. t= 3 (29942) Note On ch=5 par1=65 par2=96
Channel Event. t= 7 (29949) Note On ch=5 par1=56 par2=100
Channel Event. t= 13 (29962) Note On ch=5 par1=36 par2=59
Channel Event. t= 7 (29969) Note On ch=5 par1=48 par2=67
Channel Event. t= 183 (30152) Note On ch=5 par1=61 par2=75
Channel Event. t= 20 (30172) Note Off ch=5 par1=60 par2=64
Channel Event. t= 0 (30172) Note On ch=5 par1=64 par2=86
Channel Event. t= 22 (30194) Note On ch=5 par1=57 par2=78
Channel Event. t= 10 (30204) Note Off ch=5 par1=56 par2=64
Channel Event. t= 13 (30217) Note Off ch=5 par1=65 par2=64
Channel Event. t= 185 (30402) Note On ch=5 par1=60 par2=74
Channel Event. t= 22 (30424) Note On ch=5 par1=65 par2=81
Channel Event. t= 8 (30432) Note Off ch=5 par1=61 par2=64
Channel Event. t= 15 (30447) Note On ch=5 par1=56 par2=85
Channel Event. t= 22 (30469) Note Off ch=5 par1=64 par2=64
Channel Event. t= 8 (30477) Note Off ch=5 par1=57 par2=64
Channel Event. t= 142 (30619) Note On ch=5 par1=61 par2=72
Channel Event. t= 43 (30662) Note Off ch=5 par1=60 par2=64
Channel Event. t= 0 (30662) Note On ch=5 par1=64 par2=83
Channel Event. t= 2 (30664) Note On ch=5 par1=57 par2=74
Channel Event. t= 8 (30672) Note Off ch=5 par1=56 par2=64
Channel Event. t= 37 (30709) Note Off ch=5 par1=65 par2=64
Channel Event. t= 170 (30879) Note On ch=5 par1=60 par2=77
Channel Event. t= 30 (30909) Note On ch=5 par1=65 par2=82
Channel Event. t= 5 (30914) Note On ch=5 par1=56 par2=87
Channel Event. t= 15 (30929) Note Off ch=5 par1=61 par2=64
Channel Event. t= 25 (30954) Note Off ch=5 par1=57 par2=64
Channel Event. t= 5 (30959) Note Off ch=5 par1=64 par2=64
Channel Event. t= 180 (31139) Note Off ch=5 par1=65 par2=64
Channel Event. t= 35 (31174) Note Off ch=5 par1=60 par2=64
Channel Event. t= 40 (31214) Note Off ch=5 par1=56 par2=64
Channel Event. t= 153 (31367) Note On ch=5 par1=60 par2=79
Channel Event. t= 2 (31369) Note On ch=5 par1=56 par2=95
Channel Event. t= 18 (31387) Note On ch=5 par1=65 par2=96
Channel Event. t= 622 (32009) Note Off ch=5 par1=56 par2=64
Channel Event. t= 75 (32084) Note On ch=5 par1=57 par2=92
Channel Event. t= 5 (32089) Note On ch=5 par1=64 par2=86
Channel Event. t= 10 (32099) Note Off ch=5 par1=60 par2=64
Channel Event. t= 13 (32112) Note Off ch=5 par1=65 par2=64
Channel Event. t= 27 (32139) Note On ch=5 par1=60 par2=91
Channel Event. t= 18 (32157) Note Off ch=5 par1=48 par2=64
Channel Event. t= 27 (32184) Note Off ch=5 par1=36 par2=64
Channel Event. t= 40 (32224) Note Off ch=5 par1=60 par2=64
Channel Event. t= 90 (32314) Note On ch=5 par1=65 par2=83
Channel Event. t= 23 (32337) Note On ch=5 par1=56 par2=86
Channel Event. t= 12 (32349) Note Off ch=5 par1=64 par2=64
Channel Event. t= 3 (32352) Note On ch=5 par1=60 par2=41
Channel Event. t= 37 (32389) Note Off ch=5 par1=57 par2=64
Channel Event. t= 23 (32412) Note Off ch=5 par1=60 par2=64
Channel Event. t= 5 (32417) Note On ch=5 par1=61 par2=78
Channel Event. t= 147 (32564) Note On ch=5 par1=64 par2=85
Channel Event. t= 25 (32589) Note On ch=5 par1=57 par2=90
Channel Event. t= 13 (32602) Note Off ch=5 par1=65 par2=64
Channel Event. t= 10 (32612) Note Off ch=5 par1=56 par2=64
Channel Event. t= 5 (32617) Note On ch=5 par1=60 par2=56
Channel Event. t= 15 (32632) Note Off ch=5 par1=61 par2=64
Channel Event. t= 172 (32804) Note On ch=5 par1=65 par2=80
Channel Event. t= 20 (32824) Note On ch=5 par1=56 par2=88
Channel Event. t= 18 (32842) Note Off ch=5 par1=64 par2=64
Channel Event. t= 32 (32874) Note Off ch=5 par1=57 par2=64
Channel Event. t= 3 (32877) Note On ch=5 par1=61 par2=85
Channel Event. t= 2 (32879) Note Off ch=5 par1=60 par2=64
Channel Event. t= 260 (33139) Note Off ch=5 par1=61 par2=64
Channel Event. t= 28 (33167) Note Off ch=5 par1=65 par2=64
Channel Event. t= 22 (33189) Note Off ch=5 par1=56 par2=64
Channel Event. t= 83 (33272) Note On ch=5 par1=56 par2=82
Channel Event. t= 20 (33292) Note On ch=5 par1=65 par2=89
Channel Event. t= 7 (33299) Note On ch=5 par1=61 par2=80
Channel Event. t= 698 (33997) Note On ch=5 par1=54 par2=97
Channel Event. t= 7 (34004) Note Off ch=5 par1=61 par2=64
Channel Event. t= 8 (34012) Note On ch=5 par1=60 par2=77
Channel Event. t= 5 (34017) Note Off ch=5 par1=56 par2=64
Channel Event. t= 12 (34029) Note On ch=5 par1=64 par2=88
Channel Event. t= 10 (34039) Note Off ch=5 par1=65 par2=64
Channel Event. t= 188 (34227) Note Off ch=5 par1=60 par2=64
Channel Event. t= 10 (34237) Note On ch=5 par1=61 par2=71
Channel Event. t= 7 (34244) Note On ch=5 par1=55 par2=87
Channel Event. t= 0 (34244) Note On ch=5 par1=65 par2=81
Channel Event. t= 15 (34259) Note Off ch=5 par1=54 par2=64
Channel Event. t= 5 (34264) Note Off ch=5 par1=64 par2=64
Channel Event. t= 210 (34474) Note On ch=5 par1=60 par2=72
Channel Event. t= 10 (34484) Note On ch=5 par1=64 par2=81
Channel Event. t= 10 (34494) Note Off ch=5 par1=61 par2=64
Channel Event. t= 3 (34497) Note On ch=5 par1=54 par2=91
Channel Event. t= 35 (34532) Note Off ch=5 par1=55 par2=64
Channel Event. t= 10 (34542) Note Off ch=5 par1=65 par2=64
Channel Event. t= 155 (34697) Note On ch=5 par1=61 par2=78
Channel Event. t= 25 (34722) Note Off ch=5 par1=60 par2=64
Channel Event. t= 15 (34737) Note On ch=5 par1=65 par2=88
Channel Event. t= 7 (34744) Note On ch=5 par1=55 par2=93
Channel Event. t= 30 (34774) Note Off ch=5 par1=54 par2=64
Channel Event. t= 3 (34777) Note Off ch=5 par1=64 par2=64
Channel Event. t= 320 (35097) Note Off ch=5 par1=61 par2=64
Channel Event. t= 22 (35119) Note Off ch=5 par1=65 par2=64
Channel Event. t= 35 (35154) Note Off ch=5 par1=55 par2=64
Channel Event. t= 48 (35202) Note On ch=5 par1=61 par2=75
Channel Event. t= 0 (35202) Note On ch=5 par1=65 par2=96
Channel Event. t= 15 (35217) Note On ch=5 par1=55 par2=91
Channel Event. t= 480 (35697) Note Off ch=5 par1=61 par2=64
Channel Event. t= 15 (35712) Note On ch=5 par1=53 par2=74
Channel Event. t= 2 (35714) Note On ch=5 par1=38 par2=74
Channel Event. t= 0 (35714) Note On ch=5 par1=45 par2=77
Channel Event. t= 5 (35719) Note On ch=5 par1=50 par2=69
Channel Event. t= 13 (35732) Note Off ch=5 par1=55 par2=64
Channel Event. t= 5 (35737) Note Off ch=5 par1=65 par2=64
Channel Event. t= 1807 (37544) Note Off ch=5 par1=38 par2=64
Channel Event. t= 25 (37569) Note Off ch=5 par1=53 par2=64
Channel Event. t= 0 (37569) Note Off ch=5 par1=45 par2=64
Channel Event. t= 0 (37569) Note Off ch=5 par1=50 par2=64
Channel Event. t= 55 (37624) Note On ch=5 par1=53 par2=70
Channel Event. t= 0 (37624) Note On ch=5 par1=45 par2=69
Channel Event. t= 8 (37632) Note On ch=5 par1=50 par2=66
Channel Event. t= 7 (37639) Note On ch=5 par1=38 par2=69
Channel Event. t= 1808 (39447) Note Off ch=5 par1=38 par2=64
Channel Event. t= 42 (39489) Note Off ch=5 par1=50 par2=64
Channel Event. t= 3 (39492) Controller ch=5 par1=7 (Main Volume) par2=87
Channel Event. t= 32 (39524) Note On ch=5 par1=65 par2=77
Channel Event. t= 3 (39527) Note On ch=5 par1=62 par2=75
Channel Event. t= 5 (39532) Note On ch=5 par1=50 par2=88
Channel Event. t= 5 (39537) Note On ch=5 par1=57 par2=90
Channel Event. t= 10 (39547) Note Off ch=5 par1=45 par2=64
Channel Event. t= 2 (39549) Note On ch=5 par1=38 par2=84
Channel Event. t= 53 (39602) Note Off ch=5 par1=53 par2=64
Channel Event. t= 152 (39754) Note On ch=5 par1=58 par2=62
Channel Event. t= 5 (39759) Note On ch=5 par1=64 par2=76
Channel Event. t= 3 (39762) Note On ch=5 par1=61 par2=65
Channel Event. t= 7 (39769) Note Off ch=5 par1=65 par2=64
Channel Event. t= 8 (39777) Note Off ch=5 par1=57 par2=64
Channel Event. t= 2 (39779) Note Off ch=5 par1=62 par2=64
Channel Event. t= 213 (39992) Note On ch=5 par1=62 par2=66
Channel Event. t= 5 (39997) Note Off ch=5 par1=61 par2=64
Channel Event. t= 0 (39997) Note On ch=5 par1=57 par2=69
Channel Event. t= 5 (40002) Note On ch=5 par1=65 par2=69
Channel Event. t= 22 (40024) Note Off ch=5 par1=58 par2=64
Channel Event. t= 30 (40054) Note Off ch=5 par1=64 par2=64
Channel Event. t= 183 (40237) Note On ch=5 par1=58 par2=66
Channel Event. t= 10 (40247) Note On ch=5 par1=61 par2=80
Channel Event. t= 12 (40259) Note On ch=5 par1=64 par2=84
Channel Event. t= 18 (40277) Note Off ch=5 par1=57 par2=64
Channel Event. t= 20 (40297) Note Off ch=5 par1=62 par2=64
Channel Event. t= 7 (40304) Note Off ch=5 par1=65 par2=64
Channel Event. t= 193 (40497) Note On ch=5 par1=62 par2=81
Channel Event. t= 5 (40502) Note On ch=5 par1=65 par2=77
Channel Event. t= 2 (40504) Note On ch=5 par1=57 par2=74
Channel Event. t= 5 (40509) Note Off ch=5 par1=58 par2=64
Channel Event. t= 5 (40514) Note Off ch=5 par1=61 par2=64
Channel Event. t= 58 (40572) Note Off ch=5 par1=64 par2=64
Channel Event. t= 325 (40897) Note Off ch=5 par1=62 par2=64
Channel Event. t= 5 (40902) Note Off ch=5 par1=65 par2=64
Channel Event. t= 2 (40904) Note Off ch=5 par1=57 par2=64
Channel Event. t= 70 (40974) Note On ch=5 par1=65 par2=76
Channel Event. t= 5 (40979) Note On ch=5 par1=57 par2=79
Channel Event. t= 5 (40984) Note On ch=5 par1=62 par2=80
Channel Event. t= 400 (41384) Note Off ch=5 par1=62 par2=64
Channel Event. t= 18 (41402) Note Off ch=5 par1=38 par2=64
Channel Event. t= 10 (41412) Note Off ch=5 par1=50 par2=64
Channel Event. t= 40 (41452) Note On ch=5 par1=62 par2=80
Channel Event. t= 2 (41454) Note Off ch=5 par1=65 par2=64
Channel Event. t= 0 (41454) Note On ch=5 par1=50 par2=73
Channel Event. t= 5 (41459) Note Off ch=5 par1=57 par2=64
Channel Event. t= 0 (41459) Note On ch=5 par1=53 par2=77
Channel Event. t= 10 (41469) Note On ch=5 par1=69 par2=84
Channel Event. t= 3 (41472) Note On ch=5 par1=38 par2=69
Channel Event. t= 2 (41474) Note On ch=5 par1=65 par2=86
Channel Event. t= 3 (41477) Note On ch=5 par1=45 par2=76
Channel Event. t= 400 (41877) Note Off ch=5 par1=62 par2=64
Channel Event. t= 42 (41919) Note On ch=5 par1=68 par2=77
Channel Event. t= 5 (41924) Note Off ch=5 par1=69 par2=64
Channel Event. t= 5 (41929) Note On ch=5 par1=64 par2=75
Channel Event. t= 15 (41944) Note On ch=5 par1=58 par2=81
Channel Event. t= 93 (42037) Note Off ch=5 par1=65 par2=64
Channel Event. t= 302 (42339) Note Off ch=5 par1=58 par2=64
Channel Event. t= 33 (42372) Note Off ch=5 par1=64 par2=64
Channel Event. t= 12 (42384) Note Off ch=5 par1=68 par2=64
Channel Event. t= 33 (42417) Note On ch=5 par1=62 par2=76
Channel Event. t= 5 (42422) Note On ch=5 par1=69 par2=91
Channel Event. t= 5 (42427) Note On ch=5 par1=64 par2=87
Channel Event. t= 355 (42782) Note Off ch=5 par1=62 par2=64
Channel Event. t= 122 (42904) Note On ch=5 par1=57 par2=80
Channel Event. t= 0 (42904) Note On ch=5 par1=65 par2=90
Channel Event. t= 8 (42912) Note Off ch=5 par1=69 par2=64
Channel Event. t= 0 (42912) Note On ch=5 par1=62 par2=87
Channel Event. t= 2 (42914) Note Off ch=5 par1=64 par2=64
Channel Event. t= 365 (43279) Note Off ch=5 par1=57 par2=64
Channel Event. t= 18 (43297) Note Off ch=5 par1=62 par2=64
Channel Event. t= 32 (43329) Note Off ch=5 par1=38 par2=64
Channel Event. t= 40 (43369) Note On ch=5 par1=55 par2=86
Channel Event. t= 15 (43384) Note On ch=5 par1=60 par2=87
Channel Event. t= 10 (43394) Note On ch=5 par1=52 par2=98
Channel Event. t= 5 (43399) Note On ch=5 par1=67 par2=77
Channel Event. t= 5 (43404) Note On ch=5 par1=38 par2=69
Channel Event. t= 5 (43409) Note On ch=5 par1=43 par2=84
Channel Event. t= 8 (43417) Note Off ch=5 par1=45 par2=64
Channel Event. t= 47 (43464) Note Off ch=5 par1=50 par2=64
Channel Event. t= 0 (43464) Note Off ch=5 par1=53 par2=64
Channel Event. t= 20 (43484) Note Off ch=5 par1=65 par2=64
Channel Event. t= 1795 (45279) Note On ch=5 par1=36 par2=74
Channel Event. t= 18 (45297) Note Off ch=5 par1=38 par2=64
Channel Event. t= 0 (45297) Note On ch=5 par1=40 par2=81
Channel Event. t= 2 (45299) Note On ch=5 par1=48 par2=84
Channel Event. t= 48 (45347) Note Off ch=5 par1=43 par2=64
Channel Event. t= 1592 (46939) Note Off ch=5 par1=67 par2=64
Channel Event. t= 38 (46977) Note Off ch=5 par1=60 par2=64
Channel Event. t= 87 (47064) Note Off ch=5 par1=55 par2=64
Channel Event. t= 123 (47187) Note Off ch=5 par1=52 par2=64
Channel Event. t= 0 (47187) Note Off ch=5 par1=36 par2=64
Channel Event. t= 2 (47189) Note Off ch=5 par1=40 par2=64
Channel Event. t= 18 (47207) Controller ch=5 par1=7 (Main Volume) par2=107
Channel Event. t= 0 (47207) Note On ch=5 par1=72 par2=85
Channel Event. t= 5 (47212) Note On ch=5 par1=64 par2=86
Channel Event. t= 10 (47222) Note On ch=5 par1=60 par2=103
Channel Event. t= 7 (47229) Note On ch=5 par1=52 par2=80
Channel Event. t= 18 (47247) Note On ch=5 par1=40 par2=75
Channel Event. t= 0 (47247) Note On ch=5 par1=36 par2=86
Channel Event. t= 197 (47444) Note On ch=5 par1=62 par2=74
Channel Event. t= 3 (47447) Note On ch=5 par1=59 par2=93
Channel Event. t= 2 (47449) Note On ch=5 par1=71 par2=83
Channel Event. t= 23 (47472) Note Off ch=5 par1=64 par2=64
Channel Event. t= 15 (47487) Note Off ch=5 par1=72 par2=64
Channel Event. t= 10 (47497) Note Off ch=5 par1=60 par2=64
Channel Event. t= 190 (47687) Note On ch=5 par1=60 par2=93
Channel Event. t= 7 (47694) Note On ch=5 par1=72 par2=83
Channel Event. t= 15 (47709) Note On ch=5 par1=64 par2=81
Channel Event. t= 15 (47724) Note Off ch=5 par1=59 par2=64
Channel Event. t= 5 (47729) Note Off ch=5 par1=71 par2=64
Channel Event. t= 5 (47734) Note Off ch=5 par1=62 par2=64
Channel Event. t= 188 (47922) Note On ch=5 par1=59 par2=93
Channel Event. t= 10 (47932) Note On ch=5 par1=62 par2=82
Channel Event. t= 2 (47934) Note On ch=5 par1=71 par2=79
Channel Event. t= 25 (47959) Note Off ch=5 par1=64 par2=64
Channel Event. t= 10 (47969) Note Off ch=5 par1=60 par2=64
Channel Event. t= 13 (47982) Note Off ch=5 par1=72 par2=64
Channel Event. t= 192 (48174) Note On ch=5 par1=72 par2=86
Channel Event. t= 3 (48177) Note On ch=5 par1=60 par2=93
Channel Event. t= 2 (48179) Note On ch=5 par1=64 par2=92
Channel Event. t= 38 (48217) Note Off ch=5 par1=59 par2=64
Channel Event. t= 2 (48219) Note Off ch=5 par1=62 par2=64
Channel Event. t= 13 (48232) Note Off ch=5 par1=71 par2=64
Channel Event. t= 205 (48437) Note Off ch=5 par1=60 par2=64
Channel Event. t= 87 (48524) Note Off ch=5 par1=64 par2=64
Channel Event. t= 5 (48529) Note Off ch=5 par1=72 par2=64
Channel Event. t= 110 (48639) Note On ch=5 par1=60 par2=104
Channel Event. t= 18 (48657) Note On ch=5 par1=72 par2=99
Channel Event. t= 12 (48669) Note On ch=5 par1=64 par2=95
Channel Event. t= 458 (49127) Note Off ch=5 par1=40 par2=64
Channel Event. t= 2 (49129) Note Off ch=5 par1=36 par2=64
Channel Event. t= 3 (49132) Note Off ch=5 par1=52 par2=64
Channel Event. t= 7 (49139) Note Off ch=5 par1=48 par2=64
Channel Event. t= 28 (49167) Note On ch=5 par1=52 par2=92
Channel Event. t= 0 (49167) Note On ch=5 par1=48 par2=73
Channel Event. t= 10 (49177) Note On ch=5 par1=40 par2=87
Channel Event. t= 5 (49182) Note On ch=5 par1=36 par2=96
Channel Event. t= 175 (49357) Note On ch=5 par1=59 par2=86
Channel Event. t= 10 (49367) Note On ch=5 par1=71 par2=97
Channel Event. t= 15 (49382) Note On ch=5 par1=62 par2=90
Channel Event. t= 10 (49392) Note Off ch=5 par1=60 par2=64
Channel Event. t= 0 (49392) Note Off ch=5 par1=72 par2=64
Channel Event. t= 7 (49399) Note Off ch=5 par1=64 par2=64
Channel Event. t= 195 (49594) Note On ch=5 par1=72 par2=89
Channel Event. t= 3 (49597) Note On ch=5 par1=60 par2=90
Channel Event. t= 15 (49612) Note On ch=5 par1=64 par2=91
Channel Event. t= 15 (49627) Note Off ch=5 par1=71 par2=64
Channel Event. t= 5 (49632) Note Off ch=5 par1=59 par2=64
Channel Event. t= 10 (49642) Note Off ch=5 par1=62 par2=64
Channel Event. t= 180 (49822) Note On ch=5 par1=59 par2=89
Channel Event. t= 10 (49832) Note On ch=5 par1=71 par2=92
Channel Event. t= 2 (49834) Note On ch=5 par1=62 par2=89
Channel Event. t= 33 (49867) Note Off ch=5 par1=60 par2=64
Channel Event. t= 0 (49867) Note Off ch=5 par1=64 par2=64
Channel Event. t= 7 (49874) Note Off ch=5 par1=72 par2=64
Channel Event. t= 198 (50072) Note On ch=5 par1=60 par2=96
Channel Event. t= 2 (50074) Note On ch=5 par1=72 par2=92
Channel Event. t= 13 (50087) Note On ch=5 par1=64 par2=93
Channel Event. t= 20 (50107) Note Off ch=5 par1=59 par2=64
Channel Event. t= 7 (50114) Note Off ch=5 par1=71 par2=64
Channel Event. t= 3 (50117) Note Off ch=5 par1=62 par2=64
Channel Event. t= 305 (50422) Note Off ch=5 par1=60 par2=64
Channel Event. t= 50 (50472) Note Off ch=5 par1=72 par2=64
Channel Event. t= 2 (50474) Note Off ch=5 par1=64 par2=64
Channel Event. t= 58 (50532) Note On ch=5 par1=72 par2=94
Channel Event. t= 12 (50544) Note On ch=5 par1=64 par2=90
Channel Event. t= 15 (50559) Note On ch=5 par1=60 par2=102
Channel Event. t= 410 (50969) Note Off ch=5 par1=36 par2=64
Channel Event. t= 15 (50984) Note Off ch=5 par1=52 par2=64
Channel Event. t= 5 (50989) Note Off ch=5 par1=40 par2=64
Channel Event. t= 3 (50992) Note Off ch=5 par1=48 par2=64
Channel Event. t= 37 (51029) Note On ch=5 par1=36 par2=82
Channel Event. t= 3 (51032) Note Off ch=5 par1=64 par2=64
Channel Event. t= 5 (51037) Note On ch=5 par1=40 par2=82
Channel Event. t= 7 (51044) Note On ch=5 par1=48 par2=98
Channel Event. t= 3 (51047) Note Off ch=5 par1=72 par2=64
Channel Event. t= 25 (51072) Controller ch=5 par1=7 (Main Volume) par2=106
Channel Event. t= 20 (51092) Note Off ch=5 par1=60 par2=64
Channel Event. t= 100 (51192) Controller ch=5 par1=7 (Main Volume) par2=105
Channel Event. t= 120 (51312) Controller ch=5 par1=7 (Main Volume) par2=104
Channel Event. t= 120 (51432) Controller ch=5 par1=7 (Main Volume) par2=103
Channel Event. t= 60 (51492) Controller ch=5 par1=7 (Main Volume) par2=102
Channel Event. t= 7 (51499) Note On ch=5 par1=49 par2=97
Channel Event. t= 5 (51504) Note On ch=5 par1=37 par2=77
Channel Event. t= 15 (51519) Note On ch=5 par1=41 par2=82
Channel Event. t= 38 (51557) Note Off ch=5 par1=36 par2=64
Channel Event. t= 7 (51564) Note Off ch=5 par1=48 par2=64
Channel Event. t= 13 (51577) Note Off ch=5 par1=40 par2=64
Channel Event. t= 35 (51612) Controller ch=5 par1=7 (Main Volume) par2=101
Channel Event. t= 120 (51732) Controller ch=5 par1=7 (Main Volume) par2=100
Channel Event. t= 120 (51852) Controller ch=5 par1=7 (Main Volume) par2=99
Channel Event. t= 60 (51912) Controller ch=5 par1=7 (Main Volume) par2=98
Channel Event. t= 87 (51999) Note On ch=5 par1=36 par2=59
Channel Event. t= 8 (52007) Note On ch=5 par1=40 par2=78
Channel Event. t= 10 (52017) Note On ch=5 par1=48 par2=87
Channel Event. t= 15 (52032) Controller ch=5 par1=7 (Main Volume) par2=97
Channel Event. t= 7 (52039) Note Off ch=5 par1=37 par2=64
Channel Event. t= 0 (52039) Note Off ch=5 par1=41 par2=64
Channel Event. t= 8 (52047) Note Off ch=5 par1=49 par2=64
Channel Event. t= 105 (52152) Controller ch=5 par1=7 (Main Volume) par2=96
Channel Event. t= 120 (52272) Controller ch=5 par1=7 (Main Volume) par2=95
Channel Event. t= 60 (52332) Controller ch=5 par1=7 (Main Volume) par2=94
Channel Event. t= 120 (52452) Controller ch=5 par1=7 (Main Volume) par2=93
Channel Event. t= 12 (52464) Note On ch=5 par1=49 par2=96
Channel Event. t= 18 (52482) Note On ch=5 par1=37 par2=75
Channel Event. t= 7 (52489) Note On ch=5 par1=41 par2=75
Channel Event. t= 43 (52532) Note Off ch=5 par1=48 par2=64
Channel Event. t= 12 (52544) Note Off ch=5 par1=40 par2=64
Channel Event. t= 10 (52554) Note Off ch=5 par1=36 par2=64
Channel Event. t= 18 (52572) Controller ch=5 par1=7 (Main Volume) par2=92
Channel Event. t= 60 (52632) Controller ch=5 par1=7 (Main Volume) par2=91
Channel Event. t= 120 (52752) Controller ch=5 par1=7 (Main Volume) par2=90
Channel Event. t= 120 (52872) Controller ch=5 par1=7 (Main Volume) par2=89
Channel Event. t= 77 (52949) Note On ch=5 par1=50 par2=90
Channel Event. t= 18 (52967) Note On ch=5 par1=38 par2=73
Channel Event. t= 2 (52969) Note On ch=5 par1=40 par2=73
Channel Event. t= 3 (52972) Note On ch=5 par1=42 par2=73
Channel Event. t= 20 (52992) Note Off ch=5 par1=40 par2=64
Channel Event. t= 0 (52992) Controller ch=5 par1=7 (Main Volume) par2=88
Channel Event. t= 17 (53009) Note Off ch=5 par1=49 par2=64
Channel Event. t= 10 (53019) Note Off ch=5 par1=37 par2=64
Channel Event. t= 20 (53039) Note Off ch=5 par1=41 par2=64
Channel Event. t= 13 (53052) Controller ch=5 par1=7 (Main Volume) par2=87
Channel Event. t= 120 (53172) Controller ch=5 par1=7 (Main Volume) par2=86
Channel Event. t= 120 (53292) Controller ch=5 par1=7 (Main Volume) par2=85
Channel Event. t= 77 (53369) Note Off ch=5 par1=42 par2=64
Channel Event. t= 43 (53412) Controller ch=5 par1=7 (Main Volume) par2=84
Channel Event. t= 30 (53442) Note On ch=5 par1=52 par2=87
Channel Event. t= 5 (53447) Note Off ch=5 par1=38 par2=64
Channel Event. t= 12 (53459) Note On ch=5 par1=43 par2=73
Channel Event. t= 13 (53472) Controller ch=5 par1=7 (Main Volume) par2=83
Channel Event. t= 32 (53504) Note Off ch=5 par1=50 par2=64
Channel Event. t= 88 (53592) Controller ch=5 par1=7 (Main Volume) par2=82
Channel Event. t= 120 (53712) Controller ch=5 par1=7 (Main Volume) par2=81
Channel Event. t= 60 (53772) Controller ch=5 par1=7 (Main Volume) par2=80
Channel Event. t= 105 (53877) Note Off ch=5 par1=52 par2=64
Channel Event. t= 15 (53892) Controller ch=5 par1=7 (Main Volume) par2=79
Channel Event. t= 32 (53924) Note On ch=5 par1=52 par2=97
Channel Event. t= 5 (53929) Note On ch=5 par1=48 par2=88
Channel Event. t= 10 (53939) Note On ch=5 par1=40 par2=90
Channel Event. t= 30 (53969) Note Off ch=5 par1=43 par2=64
Channel Event. t= 43 (54012) Controller ch=5 par1=7 (Main Volume) par2=78
Channel Event. t= 120 (54132) Controller ch=5 par1=7 (Main Volume) par2=77
Channel Event. t= 60 (54192) Controller ch=5 par1=7 (Main Volume) par2=76
Channel Event. t= 120 (54312) Controller ch=5 par1=7 (Main Volume) par2=75
Channel Event. t= 80 (54392) Note On ch=5 par1=54 par2=88
Channel Event. t= 2 (54394) Note On ch=5 par1=50 par2=78
Channel Event. t= 5 (54399) Note On ch=5 par1=42 par2=91
Channel Event. t= 23 (54422) Note Off ch=5 par1=48 par2=64
Channel Event. t= 2 (54424) Note Off ch=5 par1=52 par2=64
Channel Event. t= 8 (54432) Controller ch=5 par1=7 (Main Volume) par2=74
Channel Event. t= 17 (54449) Note Off ch=5 par1=40 par2=64
Channel Event. t= 103 (54552) Controller ch=5 par1=7 (Main Volume) par2=73
Channel Event. t= 60 (54612) Controller ch=5 par1=7 (Main Volume) par2=72
Channel Event. t= 120 (54732) Controller ch=5 par1=7 (Main Volume) par2=71
Channel Event. t= 105 (54837) Note Off ch=5 par1=50 par2=64
Channel Event. t= 15 (54852) Controller ch=5 par1=7 (Main Volume) par2=70
Channel Event. t= 12 (54864) Note On ch=5 par1=31 par2=77
Channel Event. t= 5 (54869) Note On ch=5 par1=43 par2=91
Channel Event. t= 18 (54887) Note On ch=5 par1=59 par2=61
Channel Event. t= 2 (54889) Note Off ch=5 par1=54 par2=64
Channel Event. t= 0 (54889) Note On ch=5 par1=50 par2=92
Channel Event. t= 10 (54899) Note Off ch=5 par1=42 par2=64
Channel Event. t= 0 (54899) Note On ch=5 par1=55 par2=49
Channel Event. t= 0 (54899) Note On ch=5 par1=33 par2=38
Channel Event. t= 50 (54949) Note Off ch=5 par1=33 par2=64
Channel Event. t= 168 (55117) Note On ch=5 par1=54 par2=38
Channel Event. t= 5 (55122) Note Off ch=5 par1=55 par2=64
Channel Event. t= 5 (55127) Note On ch=5 par1=57 par2=59
Channel Event. t= 0 (55127) Note On ch=5 par1=51 par2=83
Channel Event. t= 12 (55139) Note Off ch=5 par1=59 par2=64
Channel Event. t= 23 (55162) Note Off ch=5 par1=50 par2=64
Channel Event. t= 192 (55354) Note Off ch=5 par1=54 par2=64
Channel Event. t= 0 (55354) Note On ch=5 par1=59 par2=56
Channel Event. t= 3 (55357) Note On ch=5 par1=55 par2=48
Channel Event. t= 20 (55377) Note On ch=5 par1=50 par2=82
Channel Event. t= 17 (55394) Note Off ch=5 par1=57 par2=64
Channel Event. t= 8 (55402) Note Off ch=5 par1=51 par2=64
Channel Event. t= 192 (55594) Note On ch=5 par1=54 par2=53
Channel Event. t= 13 (55607) Note On ch=5 par1=51 par2=89
Channel Event. t= 17 (55624) Note On ch=5 par1=57 par2=65
Channel Event. t= 18 (55642) Note Off ch=5 par1=55 par2=64
Channel Event. t= 10 (55652) Note Off ch=5 par1=59 par2=64
Channel Event. t= 22 (55674) Note Off ch=5 par1=50 par2=64
Channel Event. t= 180 (55854) Note Off ch=5 par1=54 par2=64
Channel Event. t= 3 (55857) Note On ch=5 par1=55 par2=53
Channel Event. t= 5 (55862) Note On ch=5 par1=50 par2=95
Channel Event. t= 7 (55869) Note On ch=5 par1=58 par2=69
Channel Event. t= 20 (55889) Note Off ch=5 par1=51 par2=64
Channel Event. t= 40 (55929) Note Off ch=5 par1=57 par2=64
Channel Event. t= 123 (56052) Note Off ch=5 par1=55 par2=64
Channel Event. t= 15 (56067) Note Off ch=5 par1=58 par2=64
Channel Event. t= 195 (56262) Note Off ch=5 par1=50 par2=64
Channel Event. t= 62 (56324) Note On ch=5 par1=58 par2=61
Channel Event. t= 5 (56329) Note On ch=5 par1=55 par2=56
Channel Event. t= 10 (56339) Note On ch=5 par1=50 par2=94
Channel Event. t= 255 (56594) Note Off ch=5 par1=58 par2=64
Channel Event. t= 68 (56662) Note Off ch=5 par1=55 par2=64
Channel Event. t= 152 (56814) Note Off ch=5 par1=50 par2=64
Channel Event. t= 3 (56817) Note On ch=5 par1=62 par2=68
Channel Event. t= 5 (56822) Note On ch=5 par1=58 par2=74
Channel Event. t= 20 (56842) Note On ch=5 par1=55 par2=98
Channel Event. t= 72 (56914) Note Off ch=5 par1=43 par2=64
Channel Event. t= 5 (56919) Note Off ch=5 par1=31 par2=64
Channel Event. t= 340 (57259) Note Off ch=5 par1=62 par2=64
Channel Event. t= 23 (57282) Note On ch=5 par1=61 par2=58
Channel Event. t= 7 (57289) Note On ch=5 par1=51 par2=97
Channel Event. t= 3 (57292) Note On ch=5 par1=57 par2=53
Channel Event. t= 30 (57322) Note Off ch=5 par1=58 par2=64
Channel Event. t= 22 (57344) Note Off ch=5 par1=55 par2=64
Channel Event. t= 405 (57749) Note Off ch=5 par1=61 par2=64
Channel Event. t= 13 (57762) Note On ch=5 par1=62 par2=42
Channel Event. t= 10 (57772) Note On ch=5 par1=58 par2=68
Channel Event. t= 22 (57794) Note On ch=5 par1=55 par2=90
Channel Event. t= 28 (57822) Note Off ch=5 par1=57 par2=64
Channel Event. t= 2 (57824) Note Off ch=5 par1=51 par2=64
Channel Event. t= 313 (58137) Note Off ch=5 par1=58 par2=64
Channel Event. t= 100 (58237) Note On ch=5 par1=58 par2=71
Channel Event. t= 7 (58244) Note On ch=5 par1=50 par2=95
Channel Event. t= 15 (58259) Note Off ch=5 par1=55 par2=64
Channel Event. t= 40 (58299) Note Off ch=5 par1=62 par2=64
Channel Event. t= 345 (58644) Note Off ch=5 par1=58 par2=64
Channel Event. t= 70 (58714) Note Off ch=5 par1=50 par2=64
Channel Event. t= 10 (58724) Note On ch=5 par1=53 par2=75
Channel Event. t= 13 (58737) Note On ch=5 par1=60 par2=67
Channel Event. t= 10 (58747) Note On ch=5 par1=48 par2=103
Channel Event. t= 1930 (60677) Note On ch=5 par1=44 par2=76
Channel Event. t= 7 (60684) Note On ch=5 par1=41 par2=72
Channel Event. t= 8 (60692) Note On ch=5 par1=36 par2=68
Channel Event. t= 82 (60774) Note Off ch=5 par1=48 par2=64
Channel Event. t= 1718 (62492) Note Off ch=5 par1=44 par2=64
Channel Event. t= 12 (62504) Note Off ch=5 par1=41 par2=64
Channel Event. t= 105 (62609) Note Off ch=5 par1=60 par2=64
Channel Event. t= 5 (62614) Note On ch=5 par1=31 par2=78
Channel Event. t= 3 (62617) Note Off ch=5 par1=53 par2=64
Channel Event. t= 2 (62619) Note On ch=5 par1=38 par2=81
Channel Event. t= 35 (62654) Note On ch=5 par1=55 par2=86
Channel Event. t= 5 (62659) Note On ch=5 par1=47 par2=74
Channel Event. t= 20 (62679) Note Off ch=5 par1=36 par2=64
Channel Event. t= 1815 (64494) Note Off ch=5 par1=47 par2=64
Channel Event. t= 13 (64507) Note Off ch=5 par1=55 par2=64
Channel Event. t= 22 (64529) Note On ch=5 par1=37 par2=79
Channel Event. t= 10 (64539) Note On ch=5 par1=47 par2=84
Channel Event. t= 3 (64542) Note Off ch=5 par1=38 par2=64
Channel Event. t= 2 (64544) Note On ch=5 par1=55 par2=58
Channel Event. t= 18 (64562) Note Off ch=5 par1=31 par2=64
Channel Event. t= 1820 (66382) Note Off ch=5 par1=55 par2=64
Channel Event. t= 5 (66387) Note Off ch=5 par1=47 par2=64
Channel Event. t= 35 (66422) Note On ch=5 par1=47 par2=77
Channel Event. t= 5 (66427) Note On ch=5 par1=55 par2=88
Channel Event. t= 2 (66429) Note On ch=5 par1=33 par2=80
Channel Event. t= 53 (66482) Note Off ch=5 par1=37 par2=64
Channel Event. t= 1832 (68314) Note Off ch=5 par1=55 par2=64
Channel Event. t= 15 (68329) Note Off ch=5 par1=47 par2=64
Channel Event. t= 23 (68352) Note On ch=5 par1=55 par2=70
Channel Event. t= 2 (68354) Note On ch=5 par1=46 par2=88
Channel Event. t= 3 (68357) Note On ch=5 par1=38 par2=80
Channel Event. t= 67 (68424) Note Off ch=5 par1=33 par2=64
Channel Event. t= 1458 (69882) Note Off ch=5 par1=46 par2=64
Channel Event. t= 312 (70194) Note Off ch=5 par1=55 par2=64
Channel Event. t= 53 (70247) Note On ch=5 par1=47 par2=74
Channel Event. t= 17 (70264) Note On ch=5 par1=50 par2=73
Channel Event. t= 0 (70264) Note On ch=5 par1=56 par2=74
Channel Event. t= 33 (70297) Note Off ch=5 par1=38 par2=64
Channel Event. t= 1402 (71699) Note On ch=5 par1=52 par2=96
Channel Event. t= 40 (71739) Note Off ch=5 par1=56 par2=64
Channel Event. t= 3 (71742) Note Off ch=5 par1=47 par2=64
Channel Event. t= 15 (71757) Note Off ch=5 par1=50 par2=64
Channel Event. t= 55 (71812) Note Off ch=5 par1=52 par2=64
Channel Event. t= 107 (71919) Note On ch=5 par1=57 par2=91
Channel Event. t= 93 (72012) Note Off ch=5 par1=57 par2=64
Channel Event. t= 160 (72172) Note On ch=5 par1=61 par2=104
Channel Event. t= 25 (72197) Note On ch=5 par1=52 par2=84
Channel Event. t= 190 (72387) Note Off ch=5 par1=52 par2=64
Channel Event. t= 275 (72662) Note On ch=5 par1=57 par2=82
Channel Event. t= 5 (72667) Note On ch=5 par1=49 par2=89
Channel Event. t= 10 (72677) Note Off ch=5 par1=61 par2=64
Channel Event. t= 80 (72757) Note Off ch=5 par1=57 par2=64
Channel Event. t= 107 (72864) Note Off ch=5 par1=49 par2=64
Channel Event. t= 43 (72907) Note On ch=5 par1=52 par2=83
Channel Event. t= 90 (72997) Note Off ch=5 par1=52 par2=64
Channel Event. t= 140 (73137) Note On ch=5 par1=51 par2=104
Channel Event. t= 410 (73547) Note Off ch=5 par1=51 par2=64
Channel Event. t= 57 (73604) Note On ch=5 par1=52 par2=90
Channel Event. t= 30 (73634) Note On ch=5 par1=61 par2=53
Channel Event. t= 83 (73717) Note Off ch=5 par1=61 par2=64
Channel Event. t= 10 (73727) Note Off ch=5 par1=52 par2=64
Channel Event. t= 120 (73847) Note On ch=5 par1=64 par2=50
Channel Event. t= 5 (73852) Note On ch=5 par1=57 par2=90
Channel Event. t= 80 (73932) Note Off ch=5 par1=64 par2=64
Channel Event. t= 10 (73942) Note Off ch=5 par1=57 par2=64
Channel Event. t= 152 (74094) Note On ch=5 par1=62 par2=43
Channel Event. t= 0 (74094) Note On ch=5 par1=57 par2=78
Channel Event. t= 155 (74249) Note Off ch=5 par1=57 par2=64
Channel Event. t= 75 (74324) Note On ch=5 par1=64 par2=78
Channel Event. t= 90 (74414) Note Off ch=5 par1=64 par2=64
Channel Event. t= 150 (74564) Note On ch=5 par1=54 par2=85
Channel Event. t= 15 (74579) Note Off ch=5 par1=62 par2=64
Channel Event. t= 0 (74579) Note On ch=5 par1=62 par2=104
Channel Event. t= 135 (74714) Note Off ch=5 par1=54 par2=64
Channel Event. t= 560 (75274) Note Off ch=5 par1=62 par2=64
Channel Event. t= 28 (75302) Note On ch=5 par1=61 par2=96
Channel Event. t= 227 (75529) Note On ch=5 par1=57 par2=93
Channel Event. t= 68 (75597) Note Off ch=5 par1=61 par2=64
Channel Event. t= 157 (75754) Note Off ch=5 par1=57 par2=64
Channel Event. t= 13 (75767) Note On ch=5 par1=59 par2=96
Channel Event. t= 112 (75879) Note Off ch=5 par1=59 par2=64
Channel Event. t= 158 (76037) Note On ch=5 par1=41 par2=60
Channel Event. t= 200 (76237) Note On ch=5 par1=61 par2=104
Channel Event. t= 132 (76369) Note Off ch=5 par1=61 par2=64
Channel Event. t= 88 (76457) Note On ch=5 par1=56 par2=94
Channel Event. t= 125 (76582) Note Off ch=5 par1=56 par2=64
Channel Event. t= 50 (76632) Note Off ch=5 par1=41 par2=64
Channel Event. t= 67 (76699) Note On ch=5 par1=50 par2=93
Channel Event. t= 103 (76802) Note Off ch=5 par1=50 par2=64
Channel Event. t= 152 (76954) Note On ch=5 par1=46 par2=68
Channel Event. t= 233 (77187) Note On ch=5 par1=61 par2=95
Channel Event. t= 115 (77302) Note Off ch=5 par1=61 par2=64
Channel Event. t= 117 (77419) Note On ch=5 par1=55 par2=91
Channel Event. t= 50 (77469) Note Off ch=5 par1=46 par2=64
Channel Event. t= 83 (77552) Note Off ch=5 par1=55 par2=64
Channel Event. t= 112 (77664) Note On ch=5 par1=51 par2=104
Channel Event. t= 98 (77762) Note Off ch=5 par1=51 par2=64
Channel Event. t= 137 (77899) Note On ch=5 par1=41 par2=53
Channel Event. t= 255 (78154) Note On ch=5 par1=68 par2=87
Channel Event. t= 108 (78262) Note Off ch=5 par1=68 par2=64
Channel Event. t= 110 (78372) Note On ch=5 par1=72 par2=86
Channel Event. t= 52 (78424) Note Off ch=5 par1=41 par2=64
Channel Event. t= 63 (78487) Note Off ch=5 par1=72 par2=64
Channel Event. t= 127 (78614) Note On ch=5 par1=62 par2=84
Channel Event. t= 123 (78737) Note Off ch=5 par1=62 par2=64
Channel Event. t= 157 (78894) Note On ch=5 par1=46 par2=60
Channel Event. t= 223 (79117) Note On ch=5 par1=67 par2=78
Channel Event. t= 120 (79237) Note Off ch=5 par1=67 par2=64
Channel Event. t= 117 (79354) Note On ch=5 par1=73 par2=86
Channel Event. t= 5 (79359) Note Off ch=5 par1=46 par2=64
Channel Event. t= 110 (79469) Note Off ch=5 par1=73 par2=64
Channel Event. t= 128 (79597) Note On ch=5 par1=63 par2=91
Channel Event. t= 95 (79692) Note Off ch=5 par1=63 par2=64
Channel Event. t= 157 (79849) Note On ch=5 par1=54 par2=75
Channel Event. t= 23 (79872) Controller ch=5 par1=7 (Main Volume) par2=70
Channel Event. t= 120 (79992) Controller ch=5 par1=7 (Main Volume) par2=71
Channel Event. t= 120 (80112) Controller ch=5 par1=7 (Main Volume) par2=72
Channel Event. t= 120 (80232) Controller ch=5 par1=7 (Main Volume) par2=73
Channel Event. t= 55 (80287) Note On ch=5 par1=68 par2=86
Channel Event. t= 45 (80332) Note Off ch=5 par1=54 par2=64
Channel Event. t= 7 (80339) Note On ch=5 par1=70 par2=69
Channel Event. t= 13 (80352) Controller ch=5 par1=7 (Main Volume) par2=74
Channel Event. t= 117 (80469) Note Off ch=5 par1=70 par2=64
Channel Event. t= 3 (80472) Controller ch=5 par1=7 (Main Volume) par2=75
Channel Event. t= 120 (80592) Controller ch=5 par1=7 (Main Volume) par2=76
Channel Event. t= 112 (80704) Note Off ch=5 par1=68 par2=64
Channel Event. t= 8 (80712) Controller ch=5 par1=7 (Main Volume) par2=77
Channel Event. t= 65 (80777) Note On ch=5 par1=76 par2=88
Channel Event. t= 55 (80832) Controller ch=5 par1=7 (Main Volume) par2=78
Channel Event. t= 120 (80952) Controller ch=5 par1=7 (Main Volume) par2=79
Channel Event. t= 120 (81072) Controller ch=5 par1=7 (Main Volume) par2=80
Channel Event. t= 67 (81139) Note Off ch=5 par1=76 par2=64
Channel Event. t= 53 (81192) Controller ch=5 par1=7 (Main Volume) par2=81
Channel Event. t= 65 (81257) Note On ch=5 par1=81 par2=88
Channel Event. t= 55 (81312) Controller ch=5 par1=7 (Main Volume) par2=82
Channel Event. t= 120 (81432) Controller ch=5 par1=7 (Main Volume) par2=83
Channel Event. t= 120 (81552) Controller ch=5 par1=7 (Main Volume) par2=84
Channel Event. t= 120 (81672) Controller ch=5 par1=7 (Main Volume) par2=85
Channel Event. t= 10 (81682) Note Off ch=5 par1=81 par2=64
Channel Event. t= 72 (81754) Note On ch=5 par1=88 par2=99
Channel Event. t= 38 (81792) Controller ch=5 par1=7 (Main Volume) par2=86
Channel Event. t= 120 (81912) Controller ch=5 par1=7 (Main Volume) par2=87
Channel Event. t= 120 (82032) Controller ch=5 par1=7 (Main Volume) par2=88
Channel Event. t= 120 (82152) Controller ch=5 par1=7 (Main Volume) par2=89
Channel Event. t= 120 (82272) Controller ch=5 par1=7 (Main Volume) par2=90
Channel Event. t= 120 (82392) Controller ch=5 par1=7 (Main Volume) par2=91
Channel Event. t= 120 (82512) Controller ch=5 par1=7 (Main Volume) par2=92
Channel Event. t= 120 (82632) Controller ch=5 par1=7 (Main Volume) par2=93
Channel Event. t= 120 (82752) Controller ch=5 par1=7 (Main Volume) par2=94
Channel Event. t= 120 (82872) Controller ch=5 par1=7 (Main Volume) par2=95
Channel Event. t= 120 (82992) Controller ch=5 par1=7 (Main Volume) par2=96
Channel Event. t= 120 (83112) Controller ch=5 par1=7 (Main Volume) par2=97
Channel Event. t= 120 (83232) Controller ch=5 par1=7 (Main Volume) par2=98
Channel Event. t= 120 (83352) Controller ch=5 par1=7 (Main Volume) par2=99
Channel Event. t= 120 (83472) Controller ch=5 par1=7 (Main Volume) par2=100
Channel Event. t= 120 (83592) Controller ch=5 par1=7 (Main Volume) par2=101
Channel Event. t= 117 (83709) Controller ch=5 par1=7 (Main Volume) par2=102
Channel Event. t= 3 (83712) Controller ch=5 par1=7 (Main Volume) par2=106
Channel Event. t= 120 (83832) Controller ch=5 par1=7 (Main Volume) par2=105
Channel Event. t= 60 (83892) Controller ch=5 par1=7 (Main Volume) par2=104
Channel Event. t= 65 (83957) Note On ch=5 par1=86 par2=85
Channel Event. t= 42 (83999) Note Off ch=5 par1=88 par2=64
Channel Event. t= 13 (84012) Controller ch=5 par1=7 (Main Volume) par2=103
Channel Event. t= 60 (84072) Controller ch=5 par1=7 (Main Volume) par2=102
Channel Event. t= 107 (84179) Note On ch=5 par1=85 par2=89
Channel Event. t= 13 (84192) Controller ch=5 par1=7 (Main Volume) par2=101
Channel Event. t= 25 (84217) Note Off ch=5 par1=86 par2=64
Channel Event. t= 35 (84252) Controller ch=5 par1=7 (Main Volume) par2=100
Channel Event. t= 120 (84372) Controller ch=5 par1=7 (Main Volume) par2=99
Channel Event. t= 25 (84397) Note On ch=5 par1=84 par2=81
Channel Event. t= 35 (84432) Controller ch=5 par1=7 (Main Volume) par2=98
Channel Event. t= 5 (84437) Note Off ch=5 par1=85 par2=64
Channel Event. t= 115 (84552) Controller ch=5 par1=7 (Main Volume) par2=97
Channel Event. t= 60 (84612) Controller ch=5 par1=7 (Main Volume) par2=96
Channel Event. t= 22 (84634) Note On ch=5 par1=83 par2=82
Channel Event. t= 10 (84644) Note Off ch=5 par1=84 par2=64
Channel Event. t= 88 (84732) Controller ch=5 par1=7 (Main Volume) par2=95
Channel Event. t= 60 (84792) Controller ch=5 par1=7 (Main Volume) par2=94
Channel Event. t= 77 (84869) Note On ch=5 par1=82 par2=83
Channel Event. t= 20 (84889) Note Off ch=5 par1=83 par2=64
Channel Event. t= 23 (84912) Controller ch=5 par1=7 (Main Volume) par2=93
Channel Event. t= 60 (84972) Controller ch=5 par1=7 (Main Volume) par2=92
Channel Event. t= 120 (85092) Controller ch=5 par1=7 (Main Volume) par2=91
Channel Event. t= 7 (85099) Note On ch=5 par1=81 par2=74
Channel Event. t= 13 (85112) Note Off ch=5 par1=82 par2=64
Channel Event. t= 40 (85152) Controller ch=5 par1=7 (Main Volume) par2=90
Channel Event. t= 120 (85272) Controller ch=5 par1=7 (Main Volume) par2=89
Channel Event. t= 60 (85332) Controller ch=5 par1=7 (Main Volume) par2=88
Channel Event. t= 0 (85332) Note On ch=5 par1=82 par2=81
Channel Event. t= 57 (85389) Note Off ch=5 par1=81 par2=64
Channel Event. t= 3 (85392) Controller ch=5 par1=7 (Main Volume) par2=87
Channel Event. t= 120 (85512) Controller ch=5 par1=7 (Main Volume) par2=86
Channel Event. t= 60 (85572) Controller ch=5 par1=7 (Main Volume) par2=85
Channel Event. t= 7 (85579) Note On ch=5 par1=85 par2=85
Channel Event. t= 13 (85592) Note Off ch=5 par1=82 par2=64
Channel Event. t= 100 (85692) Controller ch=5 par1=7 (Main Volume) par2=84
Channel Event. t= 60 (85752) Controller ch=5 par1=7 (Main Volume) par2=83
Channel Event. t= 52 (85804) Note On ch=5 par1=84 par2=79
Channel Event. t= 43 (85847) Note Off ch=5 par1=85 par2=64
Channel Event. t= 25 (85872) Controller ch=5 par1=7 (Main Volume) par2=82
Channel Event. t= 60 (85932) Controller ch=5 par1=7 (Main Volume) par2=81
Channel Event. t= 110 (86042) Note On ch=5 par1=83 par2=75
Channel Event. t= 10 (86052) Controller ch=5 par1=7 (Main Volume) par2=80
Channel Event. t= 2 (86054) Note Off ch=5 par1=84 par2=64
Channel Event. t= 58 (86112) Controller ch=5 par1=7 (Main Volume) par2=79
Channel Event. t= 120 (86232) Controller ch=5 par1=7 (Main Volume) par2=78
Channel Event. t= 45 (86277) Note On ch=5 par1=82 par2=75
Channel Event. t= 15 (86292) Controller ch=5 par1=7 (Main Volume) par2=77
Channel Event. t= 20 (86312) Note Off ch=5 par1=83 par2=64
Channel Event. t= 100 (86412) Controller ch=5 par1=7 (Main Volume) par2=76
Channel Event. t= 60 (86472) Controller ch=5 par1=7 (Main Volume) par2=75
Channel Event. t= 40 (86512) Note On ch=5 par1=81 par2=70
Channel Event. t= 20 (86532) Note Off ch=5 par1=82 par2=64
Channel Event. t= 60 (86592) Controller ch=5 par1=7 (Main Volume) par2=74
Channel Event. t= 60 (86652) Controller ch=5 par1=7 (Main Volume) par2=73
Channel Event. t= 105 (86757) Note On ch=5 par1=80 par2=77
Channel Event. t= 15 (86772) Controller ch=5 par1=7 (Main Volume) par2=72
Channel Event. t= 17 (86789) Note Off ch=5 par1=81 par2=64
Channel Event. t= 43 (86832) Controller ch=5 par1=7 (Main Volume) par2=71
Channel Event. t= 60 (86892) Controller ch=5 par1=7 (Main Volume) par2=70
Channel Event. t= 112 (87004) Note On ch=5 par1=79 par2=76
Channel Event. t= 8 (87012) Controller ch=5 par1=7 (Main Volume) par2=69
Channel Event. t= 2 (87014) Note Off ch=5 par1=80 par2=64
Channel Event. t= 58 (87072) Controller ch=5 par1=7 (Main Volume) par2=68
Channel Event. t= 120 (87192) Controller ch=5 par1=7 (Main Volume) par2=67
Channel Event. t= 57 (87249) Note On ch=5 par1=80 par2=79
Channel Event. t= 3 (87252) Controller ch=5 par1=7 (Main Volume) par2=66
Channel Event. t= 25 (87277) Note Off ch=5 par1=79 par2=64
Channel Event. t= 95 (87372) Controller ch=5 par1=7 (Main Volume) par2=65
Channel Event. t= 60 (87432) Controller ch=5 par1=7 (Main Volume) par2=64
Channel Event. t= 77 (87509) Note On ch=5 par1=75 par2=88
Channel Event. t= 38 (87547) Note Off ch=5 par1=80 par2=64
Channel Event. t= 5 (87552) Controller ch=5 par1=7 (Main Volume) par2=63
Channel Event. t= 60 (87612) Controller ch=5 par1=7 (Main Volume) par2=62
Channel Event. t= 120 (87732) Controller ch=5 par1=7 (Main Volume) par2=61
Channel Event. t= 60 (87792) Controller ch=5 par1=7 (Main Volume) par2=60
Channel Event. t= 120 (87912) Controller ch=5 par1=7 (Main Volume) par2=59
Channel Event. t= 60 (87972) Controller ch=5 par1=7 (Main Volume) par2=58
Channel Event. t= 120 (88092) Controller ch=5 par1=7 (Main Volume) par2=57
Channel Event. t= 60 (88152) Controller ch=5 par1=7 (Main Volume) par2=56
Channel Event. t= 120 (88272) Controller ch=5 par1=7 (Main Volume) par2=55
Channel Event. t= 60 (88332) Controller ch=5 par1=7 (Main Volume) par2=54
Channel Event. t= 60 (88392) Controller ch=5 par1=7 (Main Volume) par2=53
Channel Event. t= 120 (88512) Controller ch=5 par1=7 (Main Volume) par2=52
Channel Event. t= 60 (88572) Controller ch=5 par1=7 (Main Volume) par2=51
Channel Event. t= 120 (88692) Controller ch=5 par1=7 (Main Volume) par2=50
Channel Event. t= 60 (88752) Controller ch=5 par1=7 (Main Volume) par2=49
Channel Event. t= 120 (88872) Controller ch=5 par1=7 (Main Volume) par2=48
Channel Event. t= 60 (88932) Controller ch=5 par1=7 (Main Volume) par2=47
Channel Event. t= 35 (88967) Note On ch=5 par1=63 par2=126
Channel Event. t= 85 (89052) Controller ch=5 par1=7 (Main Volume) par2=46
Channel Event. t= 60 (89112) Controller ch=5 par1=7 (Main Volume) par2=45
Channel Event. t= 10 (89122) Note Off ch=5 par1=63 par2=64
Channel Event. t= 97 (89219) Note On ch=5 par1=56 par2=112
Channel Event. t= 3 (89222) Note On ch=5 par1=60 par2=112
Channel Event. t= 10 (89232) Controller ch=5 par1=7 (Main Volume) par2=44
Channel Event. t= 60 (89292) Controller ch=5 par1=7 (Main Volume) par2=43
Channel Event. t= 7 (89299) Note Off ch=5 par1=56 par2=64
Channel Event. t= 10 (89309) Note Off ch=5 par1=60 par2=64
Channel Event. t= 103 (89412) Controller ch=5 par1=7 (Main Volume) par2=42
Channel Event. t= 42 (89454) Note On ch=5 par1=63 par2=71
Channel Event. t= 18 (89472) Note Off ch=5 par1=75 par2=65
Channel Event. t= 0 (89472) Controller ch=5 par1=7 (Main Volume) par2=80
Channel Event. t= 105 (89577) Note Off ch=5 par1=63 par2=64
Channel Event. t= 112 (89689) Note On ch=5 par1=56 par2=62
Channel Event. t= 0 (89689) Note On ch=5 par1=60 par2=58
Channel Event. t= 60 (89749) Note Off ch=5 par1=56 par2=64
Channel Event. t= 28 (89777) Note Off ch=5 par1=60 par2=64
Channel Event. t= 147 (89924) Note On ch=5 par1=63 par2=90
Channel Event. t= 108 (90032) Note Off ch=5 par1=63 par2=64
Channel Event. t= 117 (90149) Note On ch=5 par1=56 par2=73
Channel Event. t= 15 (90164) Note On ch=5 par1=60 par2=54
Channel Event. t= 48 (90212) Note Off ch=5 par1=56 par2=64
Channel Event. t= 7 (90219) Note Off ch=5 par1=60 par2=64
Channel Event. t= 160 (90379) Note On ch=5 par1=65 par2=82
Channel Event. t= 15 (90394) Note On ch=5 par1=63 par2=90
Channel Event. t= 80 (90474) Note Off ch=5 par1=65 par2=64
Channel Event. t= 18 (90492) Note Off ch=5 par1=63 par2=64
Channel Event. t= 155 (90647) Note On ch=5 par1=60 par2=59
Channel Event. t= 5 (90652) Note On ch=5 par1=57 par2=63
Channel Event. t= 60 (90712) Note Off ch=5 par1=57 par2=64
Channel Event. t= 15 (90727) Note Off ch=5 par1=60 par2=64
Channel Event. t= 157 (90884) Note On ch=5 par1=63 par2=87
Channel Event. t= 78 (90962) Note Off ch=5 par1=63 par2=64
Channel Event. t= 142 (91104) Note On ch=5 par1=57 par2=69
Channel Event. t= 0 (91104) Note On ch=5 par1=60 par2=65
Channel Event. t= 45 (91149) Note On ch=5 par1=63 par2=93
Channel Event. t= 15 (91164) Note Off ch=5 par1=57 par2=64
Channel Event. t= 13 (91177) Note Off ch=5 par1=60 par2=64
Channel Event. t= 47 (91224) Note Off ch=5 par1=63 par2=64
Channel Event. t= 138 (91362) Note On ch=5 par1=63 par2=100
Channel Event. t= 95 (91457) Note Off ch=5 par1=63 par2=64
Channel Event. t= 137 (91594) Note On ch=5 par1=60 par2=79
Channel Event. t= 8 (91602) Note On ch=5 par1=57 par2=69
Channel Event. t= 57 (91659) Note Off ch=5 par1=57 par2=64
Channel Event. t= 10 (91669) Note Off ch=5 par1=60 par2=64
Channel Event. t= 153 (91822) Note On ch=5 par1=77 par2=74
Channel Event. t= 27 (91849) Note On ch=5 par1=75 par2=84
Channel Event. t= 75 (91924) Note Off ch=5 par1=77 par2=64
Channel Event. t= 83 (92007) Note Off ch=5 par1=75 par2=64
Channel Event. t= 87 (92094) Note On ch=5 par1=61 par2=75
Channel Event. t= 5 (92099) Note On ch=5 par1=58 par2=72
Channel Event. t= 68 (92167) Note Off ch=5 par1=61 par2=64
Channel Event. t= 12 (92179) Note Off ch=5 par1=58 par2=64
Channel Event. t= 158 (92337) Note On ch=5 par1=74 par2=80
Channel Event. t= 105 (92442) Note On ch=5 par1=73 par2=76
Channel Event. t= 17 (92459) Note Off ch=5 par1=74 par2=64
Channel Event. t= 110 (92569) Note On ch=5 par1=58 par2=68
Channel Event. t= 3 (92572) Note On ch=5 par1=72 par2=56
Channel Event. t= 2 (92574) Note On ch=5 par1=61 par2=71
Channel Event. t= 15 (92589) Note Off ch=5 par1=73 par2=64
Channel Event. t= 70 (92659) Note Off ch=5 par1=61 par2=64
Channel Event. t= 5 (92664) Note Off ch=5 par1=58 par2=64
Channel Event. t= 5 (92669) Note Off ch=5 par1=72 par2=64
Channel Event. t= 8 (92677) Note On ch=5 par1=71 par2=66
Channel Event. t= 110 (92787) Note Off ch=5 par1=71 par2=64
Channel Event. t= 10 (92797) Note On ch=5 par1=70 par2=71
Channel Event. t= 112 (92909) Note Off ch=5 par1=70 par2=64
Channel Event. t= 10 (92919) Note On ch=5 par1=74 par2=64
Channel Event. t= 98 (93017) Note On ch=5 par1=58 par2=74
Channel Event. t= 0 (93017) Note On ch=5 par1=61 par2=81
Channel Event. t= 17 (93034) Note On ch=5 par1=70 par2=60
Channel Event. t= 23 (93057) Note Off ch=5 par1=74 par2=64
Channel Event. t= 57 (93114) Note Off ch=5 par1=61 par2=64
Channel Event. t= 13 (93127) Note Off ch=5 par1=58 par2=64
Channel Event. t= 60 (93187) Note On ch=5 par1=65 par2=59
Channel Event. t= 20 (93207) Note Off ch=5 par1=70 par2=64
Channel Event. t= 100 (93307) Note Off ch=5 par1=65 par2=64
Channel Event. t= 5 (93312) Note On ch=5 par1=66 par2=90
Channel Event. t= 105 (93417) Note On ch=5 par1=65 par2=66
Channel Event. t= 20 (93437) Note Off ch=5 par1=66 par2=64
Channel Event. t= 85 (93522) Note On ch=5 par1=62 par2=69
Channel Event. t= 10 (93532) Note On ch=5 par1=59 par2=80
Channel Event. t= 10 (93542) Note On ch=5 par1=64 par2=84
Channel Event. t= 20 (93562) Note Off ch=5 par1=65 par2=64
Channel Event. t= 65 (93627) Note Off ch=5 par1=62 par2=64
Channel Event. t= 2 (93629) Note Off ch=5 par1=59 par2=64
Channel Event. t= 38 (93667) Note On ch=5 par1=63 par2=83
Channel Event. t= 52 (93719) Note Off ch=5 par1=64 par2=64
Channel Event. t= 58 (93777) Note Off ch=5 par1=63 par2=64
Channel Event. t= 35 (93812) Note On ch=5 par1=63 par2=108
Channel Event. t= 207 (94019) Note On ch=5 par1=62 par2=67
Channel Event. t= 5 (94024) Note On ch=5 par1=59 par2=72
Channel Event. t= 93 (94117) Note Off ch=5 par1=59 par2=64
Channel Event. t= 7 (94124) Note Off ch=5 par1=62 par2=64
Channel Event. t= 93 (94217) Note Off ch=5 par1=63 par2=64
Channel Event. t= 80 (94297) Note On ch=5 par1=63 par2=102
Channel Event. t= 192 (94489) Note On ch=5 par1=62 par2=76
Channel Event. t= 10 (94499) Note On ch=5 par1=59 par2=75
Channel Event. t= 73 (94572) Note Off ch=5 par1=62 par2=64
Channel Event. t= 12 (94584) Note Off ch=5 par1=59 par2=64
Channel Event. t= 75 (94659) Note Off ch=5 par1=63 par2=64
Channel Event. t= 80 (94739) Note On ch=5 par1=77 par2=73
Channel Event. t= 3 (94742) Note On ch=5 par1=75 par2=93
Channel Event. t= 167 (94909) Note Off ch=5 par1=77 par2=64
Channel Event. t= 73 (94982) Note On ch=5 par1=67 par2=62
Channel Event. t= 7 (94989) Note On ch=5 par1=60 par2=55
Channel Event. t= 0 (94989) Note On ch=5 par1=63 par2=65
Channel Event. t= 93 (95082) Note Off ch=5 par1=63 par2=64
Channel Event. t= 2 (95084) Note Off ch=5 par1=60 par2=64
Channel Event. t= 5 (95089) Note Off ch=5 par1=67 par2=64
Channel Event. t= 163 (95252) Note On ch=5 par1=87 par2=89
Channel Event. t= 27 (95279) Note Off ch=5 par1=75 par2=64
Channel Event. t= 193 (95472) Note On ch=5 par1=67 par2=82
Channel Event. t= 0 (95472) Note On ch=5 par1=60 par2=81
Channel Event. t= 2 (95474) Note On ch=5 par1=63 par2=88
Channel Event. t= 85 (95559) Note Off ch=5 par1=63 par2=64
Channel Event. t= 0 (95559) Note Off ch=5 par1=60 par2=64
Channel Event. t= 20 (95579) Note Off ch=5 par1=67 par2=64
Channel Event. t= 153 (95732) Note On ch=5 par1=75 par2=86
Channel Event. t= 25 (95757) Note Off ch=5 par1=87 par2=64
Channel Event. t= 182 (95939) Note On ch=5 par1=67 par2=79
Channel Event. t= 5 (95944) Note On ch=5 par1=63 par2=83
Channel Event. t= 0 (95944) Note On ch=5 par1=60 par2=74
Channel Event. t= 103 (96047) Note Off ch=5 par1=60 par2=64
Channel Event. t= 2 (96049) Note Off ch=5 par1=63 par2=64
Channel Event. t= 13 (96062) Note Off ch=5 par1=75 par2=64
Channel Event. t= 5 (96067) Note Off ch=5 par1=67 par2=64
Channel Event. t= 97 (96164) Note On ch=5 par1=77 par2=75
Channel Event. t= 8 (96172) Note On ch=5 par1=75 par2=86
Channel Event. t= 75 (96247) Note Off ch=5 par1=77 par2=64
Channel Event. t= 165 (96412) Note On ch=5 par1=69 par2=79
Channel Event. t= 7 (96419) Note On ch=5 par1=61 par2=79
Channel Event. t= 5 (96424) Note On ch=5 par1=64 par2=82
Channel Event. t= 90 (96514) Note Off ch=5 par1=61 par2=64
Channel Event. t= 28 (96542) Note Off ch=5 par1=64 par2=64
Channel Event. t= 7 (96549) Note Off ch=5 par1=69 par2=64
Channel Event. t= 80 (96629) Note Off ch=5 par1=75 par2=64
Channel Event. t= 48 (96677) Note On ch=5 par1=75 par2=88
Channel Event. t= 105 (96782) Note Off ch=5 par1=75 par2=64
Channel Event. t= 102 (96884) Note On ch=5 par1=69 par2=82
Channel Event. t= 5 (96889) Note On ch=5 par1=61 par2=87
Channel Event. t= 5 (96894) Note On ch=5 par1=64 par2=79
Channel Event. t= 0 (96894) Note On ch=5 par1=75 par2=91
Channel Event. t= 85 (96979) Note Off ch=5 par1=61 par2=64
Channel Event. t= 28 (97007) Note Off ch=5 par1=64 par2=64
Channel Event. t= 5 (97012) Note Off ch=5 par1=69 par2=64
Channel Event. t= 15 (97027) Note Off ch=5 par1=75 par2=64
Channel Event. t= 117 (97144) Note On ch=5 par1=75 par2=105
Channel Event. t= 215 (97359) Note On ch=5 par1=69 par2=81
Channel Event. t= 3 (97362) Note On ch=5 par1=61 par2=90
Channel Event. t= 5 (97367) Note On ch=5 par1=64 par2=82
Channel Event. t= 100 (97467) Note Off ch=5 par1=61 par2=64
Channel Event. t= 25 (97492) Note Off ch=5 par1=64 par2=64
Channel Event. t= 20 (97512) Note Off ch=5 par1=69 par2=64
Channel Event. t= 0 (97512) Note Off ch=5 par1=75 par2=64
Channel Event. t= 80 (97592) Note On ch=5 par1=89 par2=85
Channel Event. t= 35 (97627) Note On ch=5 par1=87 par2=93
Channel Event. t= 92 (97719) Note Off ch=5 par1=89 par2=64
Channel Event. t= 143 (97862) Note On ch=5 par1=69 par2=86
Channel Event. t= 2 (97864) Note On ch=5 par1=65 par2=72
Channel Event. t= 8 (97872) Note On ch=5 par1=62 par2=74
Channel Event. t= 95 (97967) Note Off ch=5 par1=62 par2=64
Channel Event. t= 2 (97969) Note Off ch=5 par1=69 par2=64
Channel Event. t= 5 (97974) Note Off ch=5 par1=65 par2=64
Channel Event. t= 120 (98094) Note Off ch=5 par1=87 par2=64
Channel Event. t= 28 (98122) Note On ch=5 par1=89 par2=83
Channel Event. t= 80 (98202) Note Off ch=5 par1=89 par2=64
Channel Event. t= 47 (98249) Note On ch=5 par1=88 par2=72
Channel Event. t= 78 (98327) Note On ch=5 par1=69 par2=77
Channel Event. t= 2 (98329) Note Off ch=5 par1=88 par2=64
Channel Event. t= 0 (98329) Note On ch=5 par1=65 par2=62
Channel Event. t= 5 (98334) Note On ch=5 par1=62 par2=72
Channel Event. t= 28 (98362) Note On ch=5 par1=86 par2=76
Channel Event. t= 80 (98442) Note Off ch=5 par1=62 par2=64
Channel Event. t= 0 (98442) Note Off ch=5 par1=69 par2=64
Channel Event. t= 2 (98444) Note Off ch=5 par1=65 par2=64
Channel Event. t= 58 (98502) Note On ch=5 par1=85 par2=88
Channel Event. t= 15 (98517) Note Off ch=5 par1=86 par2=64
Channel Event. t= 82 (98599) Note Off ch=5 par1=85 par2=64
Channel Event. t= 10 (98609) Note On ch=5 par1=84 par2=63
Channel Event. t= 118 (98727) Note On ch=5 par1=83 par2=77
Channel Event. t= 12 (98739) Note Off ch=5 par1=84 par2=64
Channel Event. t= 48 (98787) Note On ch=5 par1=69 par2=76
Channel Event. t= 2 (98789) Note On ch=5 par1=65 par2=82
Channel Event. t= 5 (98794) Note On ch=5 par1=62 par2=81
Channel Event. t= 45 (98839) Note Off ch=5 par1=83 par2=64
Channel Event. t= 0 (98839) Note On ch=5 par1=82 par2=54
Channel Event. t= 48 (98887) Note Off ch=5 par1=65 par2=64
Channel Event. t= 5 (98892) Note Off ch=5 par1=62 par2=64
Channel Event. t= 17 (98909) Note Off ch=5 par1=69 par2=64
Channel Event. t= 55 (98964) Note Off ch=5 par1=82 par2=64
Channel Event. t= 0 (98964) Note On ch=5 par1=81 par2=73
Channel Event. t= 143 (99107) Note On ch=5 par1=80 par2=96
Channel Event. t= 35 (99142) Note Off ch=5 par1=81 par2=64
Channel Event. t= 45 (99187) Note Off ch=5 par1=80 par2=64
Channel Event. t= 27 (99214) Note On ch=5 par1=79 par2=84
Channel Event. t= 78 (99292) Note On ch=5 par1=73 par2=98
Channel Event. t= 0 (99292) Note On ch=5 par1=66 par2=82
Channel Event. t= 5 (99297) Note On ch=5 par1=63 par2=74
Channel Event. t= 30 (99327) Note On ch=5 par1=78 par2=79
Channel Event. t= 5 (99332) Note Off ch=5 par1=79 par2=64
Channel Event. t= 75 (99407) Note Off ch=5 par1=66 par2=64
Channel Event. t= 5 (99412) Note Off ch=5 par1=73 par2=64
Channel Event. t= 2 (99414) Note Off ch=5 par1=63 par2=64
Channel Event. t= 10 (99424) Note Off ch=5 par1=78 par2=64
Channel Event. t= 8 (99432) Note On ch=5 par1=77 par2=80
Channel Event. t= 140 (99572) Note On ch=5 par1=75 par2=105
Channel Event. t= 15 (99587) Note Off ch=5 par1=77 par2=64
Channel Event. t= 175 (99762) Note On ch=5 par1=73 par2=93
Channel Event. t= 2 (99764) Note On ch=5 par1=66 par2=83
Channel Event. t= 3 (99767) Note On ch=5 par1=63 par2=75
Channel Event. t= 92 (99859) Note Off ch=5 par1=66 par2=64
Channel Event. t= 5 (99864) Note Off ch=5 par1=73 par2=64
Channel Event. t= 10 (99874) Note Off ch=5 par1=63 par2=64
Channel Event. t= 120 (99994) Note Off ch=5 par1=75 par2=64
Channel Event. t= 63 (100057) Note On ch=5 par1=75 par2=102
Channel Event. t= 177 (100234) Note On ch=5 par1=73 par2=85
Channel Event. t= 5 (100239) Note On ch=5 par1=66 par2=80
Channel Event. t= 0 (100239) Note On ch=5 par1=63 par2=74
Channel Event. t= 98 (100337) Note Off ch=5 par1=73 par2=64
Channel Event. t= 5 (100342) Note Off ch=5 par1=66 par2=64
Channel Event. t= 15 (100357) Note Off ch=5 par1=63 par2=64
Channel Event. t= 102 (100459) Note Off ch=5 par1=75 par2=64
Channel Event. t= 40 (100499) Note On ch=5 par1=71 par2=75
Channel Event. t= 133 (100632) Note On ch=5 par1=73 par2=53
Channel Event. t= 7 (100639) Note Off ch=5 par1=71 par2=64
Channel Event. t= 88 (100727) Note On ch=5 par1=71 par2=34
Channel Event. t= 12 (100739) Note Off ch=5 par1=73 par2=64
Channel Event. t= 10 (100749) Note On ch=5 par1=68 par2=27
Channel Event. t= 5 (100754) Note On ch=5 par1=64 par2=35
Channel Event. t= 68 (100822) Note Off ch=5 par1=68 par2=64
Channel Event. t= 10 (100832) Note Off ch=5 par1=64 par2=64
Channel Event. t= 40 (100872) Note On ch=5 par1=73 par2=53
Channel Event. t= 5 (100877) Note Off ch=5 par1=71 par2=64
Channel Event. t= 100 (100977) Note On ch=5 par1=71 par2=15
Channel Event. t= 2 (100979) Note Off ch=5 par1=73 par2=64
Channel Event. t= 135 (101114) Note On ch=5 par1=73 par2=27
Channel Event. t= 8 (101122) Note Off ch=5 par1=71 par2=64
Channel Event. t= 92 (101214) Note On ch=5 par1=68 par2=16
Channel Event. t= 0 (101214) Note On ch=5 par1=71 par2=12
Channel Event. t= 5 (101219) Note Off ch=5 par1=73 par2=64
Channel Event. t= 18 (101237) Note On ch=5 par1=64 par2=24
Channel Event. t= 70 (101307) Note Off ch=5 par1=68 par2=64
Channel Event. t= 17 (101324) Note Off ch=5 par1=64 par2=64
Channel Event. t= 18 (101342) Note On ch=5 par1=73 par2=31
Channel Event. t= 12 (101354) Note Off ch=5 par1=71 par2=64
Channel Event. t= 113 (101467) Note Off ch=5 par1=73 par2=64
Channel Event. t= 0 (101467) Note On ch=5 par1=71 par2=19
Channel Event. t= 220 (101687) Note On ch=5 par1=68 par2=24
Channel Event. t= 20 (101707) Note On ch=5 par1=64 par2=32
Channel Event. t= 70 (101777) Note Off ch=5 par1=68 par2=64
Channel Event. t= 22 (101799) Note Off ch=5 par1=64 par2=64
Channel Event. t= 153 (101952) Note On ch=5 par1=83 par2=41
Channel Event. t= 47 (101999) Note Off ch=5 par1=71 par2=64
Channel Event. t= 170 (102169) Note On ch=5 par1=67 par2=27
Channel Event. t= 3 (102172) Note On ch=5 par1=64 par2=35
Channel Event. t= 102 (102274) Note Off ch=5 par1=64 par2=64
Channel Event. t= 5 (102279) Note Off ch=5 par1=67 par2=64
Channel Event. t= 150 (102429) Note On ch=5 par1=79 par2=31
Channel Event. t= 28 (102457) Note Off ch=5 par1=83 par2=64
Channel Event. t= 182 (102639) Note On ch=5 par1=76 par2=41
Channel Event. t= 10 (102649) Note On ch=5 par1=64 par2=30
Channel Event. t= 8 (102657) Note Off ch=5 par1=79 par2=64
Channel Event. t= 2 (102659) Note On ch=5 par1=67 par2=14
Channel Event. t= 90 (102749) Note Off ch=5 par1=67 par2=64
Channel Event. t= 3 (102752) Note Off ch=5 par1=64 par2=64
Channel Event. t= 150 (102902) Note On ch=5 par1=71 par2=48
Channel Event. t= 70 (102972) Note Off ch=5 par1=76 par2=64
Channel Event. t= 140 (103112) Note On ch=5 par1=64 par2=31
Channel Event. t= 2 (103114) Note On ch=5 par1=67 par2=21
Channel Event. t= 95 (103209) Note Off ch=5 par1=67 par2=64
Channel Event. t= 8 (103217) Note Off ch=5 par1=64 par2=64
Channel Event. t= 120 (103337) Note Off ch=5 par1=71 par2=64
Channel Event. t= 57 (103394) Note On ch=5 par1=71 par2=30
Channel Event. t= 123 (103517) Note On ch=5 par1=73 par2=39
Channel Event. t= 22 (103539) Note Off ch=5 par1=71 par2=64
Channel Event. t= 68 (103607) Note On ch=5 par1=68 par2=32
Channel Event. t= 5 (103612) Note On ch=5 par1=64 par2=39
Channel Event. t= 17 (103629) Note Off ch=5 par1=73 par2=64
Channel Event. t= 5 (103634) Note On ch=5 par1=71 par2=21
Channel Event. t= 50 (103684) Note Off ch=5 par1=68 par2=64
Channel Event. t= 23 (103707) Note Off ch=5 par1=64 par2=64
Channel Event. t= 17 (103724) Note On ch=5 par1=73 par2=46
Channel Event. t= 8 (103732) Note Off ch=5 par1=71 par2=64
Channel Event. t= 107 (103839) Note Off ch=5 par1=73 par2=64
Channel Event. t= 3 (103842) Note On ch=5 par1=71 par2=33
Channel Event. t= 107 (103949) Note On ch=5 par1=73 par2=39
Channel Event. t= 5 (103954) Note Off ch=5 par1=71 par2=64
Channel Event. t= 113 (104067) Note Off ch=5 par1=73 par2=64
Channel Event. t= 5 (104072) Note On ch=5 par1=68 par2=38
Channel Event. t= 2 (104074) Note On ch=5 par1=64 par2=46
Channel Event. t= 3 (104077) Note On ch=5 par1=71 par2=26
Channel Event. t= 77 (104154) Note Off ch=5 par1=68 par2=64
Channel Event. t= 18 (104172) Note On ch=5 par1=73 par2=42
Channel Event. t= 5 (104177) Note Off ch=5 par1=64 par2=64
Channel Event. t= 10 (104187) Note Off ch=5 par1=71 par2=64
Channel Event. t= 115 (104302) Note Off ch=5 par1=73 par2=64
Channel Event. t= 7 (104309) Note On ch=5 par1=71 par2=41
Channel Event. t= 233 (104542) Note On ch=5 par1=68 par2=38
Channel Event. t= 5 (104547) Note On ch=5 par1=64 par2=40
Channel Event. t= 82 (104629) Note Off ch=5 par1=68 par2=64
Channel Event. t= 10 (104639) Note Off ch=5 par1=64 par2=64
Channel Event. t= 160 (104799) Note On ch=5 par1=83 par2=65
Channel Event. t= 18 (104817) Note Off ch=5 par1=71 par2=64
Channel Event. t= 225 (105042) Note On ch=5 par1=67 par2=39
Channel Event. t= 2 (105044) Note On ch=5 par1=64 par2=48
Channel Event. t= 105 (105149) Note Off ch=5 par1=64 par2=64
Channel Event. t= 3 (105152) Note Off ch=5 par1=67 par2=64
Channel Event. t= 130 (105282) Note On ch=5 par1=79 par2=43
Channel Event. t= 15 (105297) Note Off ch=5 par1=83 par2=64
Channel Event. t= 195 (105492) Note Off ch=5 par1=79 par2=64
Channel Event. t= 25 (105517) Note On ch=5 par1=76 par2=28
Channel Event. t= 2 (105519) Note On ch=5 par1=67 par2=36
Channel Event. t= 13 (105532) Note On ch=5 par1=64 par2=41
Channel Event. t= 87 (105619) Note Off ch=5 par1=67 par2=64
Channel Event. t= 3 (105622) Note Off ch=5 par1=64 par2=64
Channel Event. t= 140 (105762) Note On ch=5 par1=71 par2=36
Channel Event. t= 37 (105799) Note Off ch=5 par1=76 par2=64
Channel Event. t= 193 (105992) Note On ch=5 par1=67 par2=38
Channel Event. t= 12 (106004) Note On ch=5 par1=64 par2=43
Channel Event. t= 65 (106069) Note Off ch=5 par1=67 par2=64
Channel Event. t= 18 (106087) Note Off ch=5 par1=64 par2=64
Channel Event. t= 82 (106169) Note Off ch=5 par1=71 par2=64
Channel Event. t= 78 (106247) Note On ch=5 par1=67 par2=40
Channel Event. t= 22 (106269) Note On ch=5 par1=64 par2=36
Channel Event. t= 3 (106272) Note On ch=5 par1=71 par2=23
Channel Event. t= 5 (106277) Note On ch=5 par1=73 par2=22
Channel Event. t= 200 (106477) Note On ch=5 par1=70 par2=33
Channel Event. t= 5 (106482) Note On ch=5 par1=72 par2=21
Channel Event. t= 45 (106527) Note On ch=5 par1=83 par2=11
Channel Event. t= 7 (106534) Note On ch=5 par1=79 par2=6
Channel Event. t= 88 (106622) Note Off ch=5 par1=67 par2=64
Channel Event. t= 30 (106652) Note Off ch=5 par1=64 par2=64
Channel Event. t= 7 (106659) Note Off ch=5 par1=71 par2=64
Channel Event. t= 30 (106689) Note Off ch=5 par1=73 par2=64
Channel Event. t= 15 (106704) Note On ch=5 par1=67 par2=40
Channel Event. t= 10 (106714) Note On ch=5 par1=64 par2=40
Channel Event. t= 38 (106752) Controller ch=5 par1=7 (Main Volume) par2=80
Channel Event. t= 0 (106752) Note On ch=5 par1=75 par2=40
Channel Event. t= 5 (106757) Note On ch=5 par1=71 par2=40
Channel Event. t= 10 (106767) Note Off ch=5 par1=70 par2=64
Channel Event. t= 15 (106782) Note Off ch=5 par1=72 par2=64
Channel Event. t= 7 (106789) Note Off ch=5 par1=83 par2=64
Channel Event. t= 3 (106792) Note Off ch=5 par1=79 par2=64
Channel Event. t= 147 (106939) Note On ch=5 par1=70 par2=41
Channel Event. t= 0 (106939) Note On ch=5 par1=72 par2=41
Channel Event. t= 48 (106987) Note On ch=5 par1=79 par2=41
Channel Event. t= 2 (106989) Note On ch=5 par1=83 par2=41
Channel Event. t= 18 (107007) Note Off ch=5 par1=67 par2=64
Channel Event. t= 42 (107049) Note Off ch=5 par1=64 par2=64
Channel Event. t= 63 (107112) Controller ch=5 par1=7 (Main Volume) par2=81
Channel Event. t= 75 (107187) Note On ch=5 par1=64 par2=43
Channel Event. t= 2 (107189) Note On ch=5 par1=67 par2=43
Channel Event. t= 5 (107194) Note On ch=5 par1=76 par2=43
Channel Event. t= 13 (107207) Note Off ch=5 par1=75 par2=64
Channel Event. t= 2 (107209) Note Off ch=5 par1=70 par2=64
Channel Event. t= 5 (107214) Note Off ch=5 par1=71 par2=64
Channel Event. t= 5 (107219) Note Off ch=5 par1=79 par2=64
Channel Event. t= 3 (107222) Note Off ch=5 par1=72 par2=64
Channel Event. t= 0 (107222) Note Off ch=5 par1=83 par2=64
Channel Event. t= 0 (107222) Note On ch=5 par1=72 par2=43
Channel Event. t= 205 (107427) Note On ch=5 par1=83 par2=44
Channel Event. t= 5 (107432) Note On ch=5 par1=70 par2=44
Channel Event. t= 7 (107439) Note On ch=5 par1=79 par2=45
Channel Event. t= 33 (107472) Controller ch=5 par1=7 (Main Volume) par2=82
Channel Event. t= 52 (107524) Note Off ch=5 par1=67 par2=64
Channel Event. t= 25 (107549) Note Off ch=5 par1=64 par2=64
Channel Event. t= 133 (107682) Note On ch=5 par1=64 par2=46
Channel Event. t= 2 (107684) Note On ch=5 par1=67 par2=46
Channel Event. t= 0 (107684) Note On ch=5 par1=75 par2=46
Channel Event. t= 5 (107689) Note Off ch=5 par1=79 par2=64
Channel Event. t= 3 (107692) Note Off ch=5 par1=83 par2=64
Channel Event. t= 5 (107697) Note Off ch=5 par1=70 par2=64
Channel Event. t= 17 (107714) Note On ch=5 par1=78 par2=47
Channel Event. t= 3 (107717) Note Off ch=5 par1=72 par2=64
Channel Event. t= 12 (107729) Note Off ch=5 par1=76 par2=64
Channel Event. t= 103 (107832) Controller ch=5 par1=7 (Main Volume) par2=83
Channel Event. t= 90 (107922) Note On ch=5 par1=72 par2=48
Channel Event. t= 2 (107924) Note On ch=5 par1=70 par2=48
Channel Event. t= 15 (107939) Note On ch=5 par1=83 par2=48
Channel Event. t= 5 (107944) Note On ch=5 par1=79 par2=48
Channel Event. t= 50 (107994) Note Off ch=5 par1=67 par2=64
Channel Event. t= 28 (108022) Note Off ch=5 par1=64 par2=64
Channel Event. t= 122 (108144) Note Off ch=5 par1=78 par2=64
Channel Event. t= 10 (108154) Note On ch=5 par1=67 par2=50
Channel Event. t= 3 (108157) Note On ch=5 par1=64 par2=50
Channel Event. t= 2 (108159) Note Off ch=5 par1=75 par2=64
Channel Event. t= 8 (108167) Note Off ch=5 par1=83 par2=64
Channel Event. t= 5 (108172) Note Off ch=5 par1=70 par2=64
Channel Event. t= 0 (108172) Note On ch=5 par1=76 par2=50
Channel Event. t= 5 (108177) Note Off ch=5 par1=72 par2=64
Channel Event. t= 15 (108192) Controller ch=5 par1=7 (Main Volume) par2=84
Channel Event. t= 205 (108397) Note On ch=5 par1=70 par2=51
Channel Event. t= 5 (108402) Note On ch=5 par1=72 par2=52
Channel Event. t= 17 (108419) Note On ch=5 par1=83 par2=52
Channel Event. t= 20 (108439) Note Off ch=5 par1=76 par2=64
Channel Event. t= 40 (108479) Note Off ch=5 par1=67 par2=64
Channel Event. t= 25 (108504) Note Off ch=5 par1=64 par2=64
Channel Event. t= 48 (108552) Controller ch=5 par1=7 (Main Volume) par2=85
Channel Event. t= 70 (108622) Note On ch=5 par1=64 par2=53
Channel Event. t= 5 (108627) Note On ch=5 par1=67 par2=53
Channel Event. t= 27 (108654) Note Off ch=5 par1=70 par2=64
Channel Event. t= 8 (108662) Note Off ch=5 par1=72 par2=64
Channel Event. t= 5 (108667) Note On ch=5 par1=72 par2=53
Channel Event. t= 7 (108674) Note On ch=5 par1=75 par2=54
Channel Event. t= 15 (108689) Note Off ch=5 par1=83 par2=64
Channel Event. t= 13 (108702) Note Off ch=5 par1=79 par2=64
Channel Event. t= 167 (108869) Note On ch=5 par1=70 par2=55
Channel Event. t= 30 (108899) Note On ch=5 par1=83 par2=55
Channel Event. t= 13 (108912) Controller ch=5 par1=7 (Main Volume) par2=86
Channel Event. t= 0 (108912) Note On ch=5 par1=79 par2=55
Channel Event. t= 77 (108989) Note Off ch=5 par1=67 par2=64
Channel Event. t= 15 (109004) Note Off ch=5 par1=64 par2=64
Channel Event. t= 40 (109044) Note Off ch=5 par1=75 par2=64
Channel Event. t= 68 (109112) Note On ch=5 par1=67 par2=57
Channel Event. t= 2 (109114) Note On ch=5 par1=64 par2=57
Channel Event. t= 10 (109124) Note On ch=5 par1=78 par2=57
Channel Event. t= 5 (109129) Note On ch=5 par1=75 par2=57
Channel Event. t= 15 (109144) Note Off ch=5 par1=70 par2=64
Channel Event. t= 10 (109154) Note Off ch=5 par1=83 par2=64
Channel Event. t= 0 (109154) Note Off ch=5 par1=79 par2=64
Channel Event. t= 15 (109169) Note Off ch=5 par1=72 par2=64
Channel Event. t= 103 (109272) Controller ch=5 par1=7 (Main Volume) par2=87
Channel Event. t= 95 (109367) Note On ch=5 par1=72 par2=59
Channel Event. t= 2 (109369) Note On ch=5 par1=70 par2=59
Channel Event. t= 3 (109372) Note On ch=5 par1=83 par2=59
Channel Event. t= 2 (109374) Note On ch=5 par1=79 par2=59
Channel Event. t= 103 (109477) Note Off ch=5 par1=67 par2=64
Channel Event. t= 17 (109494) Note Off ch=5 par1=64 par2=64
Channel Event. t= 40 (109534) Note Off ch=5 par1=78 par2=64
Channel Event. t= 60 (109594) Note On ch=5 par1=67 par2=60
Channel Event. t= 3 (109597) Note On ch=5 par1=64 par2=60
Channel Event. t= 12 (109609) Note Off ch=5 par1=70 par2=64
Channel Event. t= 3 (109612) Note Off ch=5 par1=75 par2=64
Channel Event. t= 0 (109612) Note On ch=5 par1=76 par2=60
Channel Event. t= 2 (109614) Note Off ch=5 par1=72 par2=64
Channel Event. t= 10 (109624) Note Off ch=5 par1=83 par2=64
Channel Event. t= 8 (109632) Controller ch=5 par1=7 (Main Volume) par2=88
Channel Event. t= 197 (109829) Note On ch=5 par1=72 par2=62
Channel Event. t= 3 (109832) Note On ch=5 par1=70 par2=62
Channel Event. t= 10 (109842) Note On ch=5 par1=83 par2=62
Channel Event. t= 105 (109947) Note Off ch=5 par1=67 par2=64
Channel Event. t= 15 (109962) Note Off ch=5 par1=64 par2=64
Channel Event. t= 30 (109992) Controller ch=5 par1=7 (Main Volume) par2=89
Channel Event. t= 67 (110059) Note On ch=5 par1=67 par2=64
Channel Event. t= 8 (110067) Note Off ch=5 par1=70 par2=64
Channel Event. t= 0 (110067) Note On ch=5 par1=64 par2=64
Channel Event. t= 12 (110079) Note Off ch=5 par1=72 par2=64
Channel Event. t= 10 (110089) Note On ch=5 par1=78 par2=64
Channel Event. t= 8 (110097) Note On ch=5 par1=75 par2=64
Channel Event. t= 2 (110099) Note Off ch=5 par1=79 par2=64
Channel Event. t= 0 (110099) Note Off ch=5 par1=83 par2=64
Channel Event. t= 5 (110104) Note Off ch=5 par1=76 par2=64
Channel Event. t= 203 (110307) Note On ch=5 par1=70 par2=65
Channel Event. t= 2 (110309) Note On ch=5 par1=72 par2=65
Channel Event. t= 23 (110332) Note On ch=5 par1=83 par2=66
Channel Event. t= 5 (110337) Note On ch=5 par1=79 par2=66
Channel Event. t= 15 (110352) Controller ch=5 par1=7 (Main Volume) par2=90
Channel Event. t= 82 (110434) Note Off ch=5 par1=64 par2=64
Channel Event. t= 3 (110437) Note Off ch=5 par1=67 par2=64
Channel Event. t= 105 (110542) Note On ch=5 par1=67 par2=67
Channel Event. t= 12 (110554) Note On ch=5 par1=64 par2=67
Channel Event. t= 3 (110557) Note Off ch=5 par1=83 par2=64
Channel Event. t= 0 (110557) Note Off ch=5 par1=79 par2=64
Channel Event. t= 10 (110567) Note On ch=5 par1=76 par2=67
Channel Event. t= 7 (110574) Note Off ch=5 par1=70 par2=64
Channel Event. t= 5 (110579) Note Off ch=5 par1=78 par2=64
Channel Event. t= 0 (110579) Note Off ch=5 par1=75 par2=64
Channel Event. t= 5 (110584) Note Off ch=5 par1=72 par2=64
Channel Event. t= 5 (110589) Note On ch=5 par1=73 par2=67
Channel Event. t= 123 (110712) Controller ch=5 par1=7 (Main Volume) par2=91
Channel Event. t= 92 (110804) Note On ch=5 par1=83 par2=69
Channel Event. t= 5 (110809) Note On ch=5 par1=72 par2=69
Channel Event. t= 8 (110817) Note On ch=5 par1=79 par2=69
Channel Event. t= 2 (110819) Note On ch=5 par1=70 par2=69
Channel Event. t= 105 (110924) Note Off ch=5 par1=67 par2=64
Channel Event. t= 10 (110934) Note Off ch=5 par1=64 par2=64
Channel Event. t= 80 (111014) Note Off ch=5 par1=79 par2=64
Channel Event. t= 5 (111019) Note Off ch=5 par1=83 par2=64
Channel Event. t= 0 (111019) Note On ch=5 par1=78 par2=71
Channel Event. t= 10 (111029) Note On ch=5 par1=67 par2=71
Channel Event. t= 10 (111039) Note On ch=5 par1=64 par2=71
Channel Event. t= 10 (111049) Note Off ch=5 par1=70 par2=64
Channel Event. t= 5 (111054) Note On ch=5 par1=75 par2=71
Channel Event. t= 3 (111057) Note Off ch=5 par1=72 par2=64
Channel Event. t= 15 (111072) Note Off ch=5 par1=73 par2=64
Channel Event. t= 0 (111072) Controller ch=5 par1=7 (Main Volume) par2=92
Channel Event. t= 10 (111082) Note Off ch=5 par1=76 par2=64
Channel Event. t= 192 (111274) Note On ch=5 par1=72 par2=72
Channel Event. t= 3 (111277) Note On ch=5 par1=83 par2=72
Channel Event. t= 2 (111279) Note On ch=5 par1=70 par2=72
Channel Event. t= 8 (111287) Note On ch=5 par1=79 par2=73
Channel Event. t= 105 (111392) Note Off ch=5 par1=67 par2=64
Channel Event. t= 2 (111394) Note Off ch=5 par1=64 par2=64
Channel Event. t= 5 (111399) Note Off ch=5 par1=78 par2=64
Channel Event. t= 33 (111432) Controller ch=5 par1=7 (Main Volume) par2=93
Channel Event. t= 82 (111514) Note Off ch=5 par1=83 par2=64
Channel Event. t= 0 (111514) Note On ch=5 par1=67 par2=74
Channel Event. t= 10 (111524) Note On ch=5 par1=64 par2=74
Channel Event. t= 15 (111539) Note On ch=5 par1=76 par2=74
Channel Event. t= 10 (111549) Note Off ch=5 par1=70 par2=64
Channel Event. t= 10 (111559) Note Off ch=5 par1=72 par2=64
Channel Event. t= 3 (111562) Note Off ch=5 par1=75 par2=64
Channel Event. t= 192 (111754) Note On ch=5 par1=83 par2=76
Channel Event. t= 10 (111764) Note On ch=5 par1=72 par2=76
Channel Event. t= 3 (111767) Note On ch=5 par1=70 par2=76
Channel Event. t= 25 (111792) Controller ch=5 par1=7 (Main Volume) par2=94
Channel Event. t= 42 (111834) Note Off ch=5 par1=76 par2=64
Channel Event. t= 55 (111889) Note Off ch=5 par1=67 par2=64
Channel Event. t= 5 (111894) Note Off ch=5 par1=64 par2=64
Channel Event. t= 108 (112002) Note On ch=5 par1=67 par2=78
Channel Event. t= 7 (112009) Note On ch=5 par1=64 par2=78
Channel Event. t= 8 (112017) Note On ch=5 par1=76 par2=78
Channel Event. t= 17 (112034) Note Off ch=5 par1=70 par2=64
Channel Event. t= 3 (112037) Note Off ch=5 par1=83 par2=64
Channel Event. t= 12 (112049) Note Off ch=5 par1=72 par2=64
Channel Event. t= 103 (112152) Controller ch=5 par1=7 (Main Volume) par2=95
Channel Event. t= 87 (112239) Note On ch=5 par1=72 par2=79
Channel Event. t= 13 (112252) Note On ch=5 par1=70 par2=80
Channel Event. t= 0 (112252) Note On ch=5 par1=81 par2=80
Channel Event. t= 102 (112354) Note Off ch=5 par1=67 par2=64
Channel Event. t= 13 (112367) Note Off ch=5 par1=64 par2=64
Channel Event. t= 42 (112409) Note Off ch=5 par1=79 par2=64
Channel Event. t= 28 (112437) Note Off ch=5 par1=76 par2=64
Channel Event. t= 35 (112472) Note On ch=5 par1=79 par2=81
Channel Event. t= 5 (112477) Note On ch=5 par1=67 par2=81
Channel Event. t= 2 (112479) Note On ch=5 par1=76 par2=81
Channel Event. t= 5 (112484) Note Off ch=5 par1=81 par2=64
Channel Event. t= 5 (112489) Note On ch=5 par1=64 par2=81
Channel Event. t= 8 (112497) Note Off ch=5 par1=70 par2=64
Channel Event. t= 12 (112509) Note Off ch=5 par1=72 par2=64
Channel Event. t= 3 (112512) Controller ch=5 par1=7 (Main Volume) par2=96
Channel Event. t= 187 (112699) Note On ch=5 par1=72 par2=83
Channel Event. t= 8 (112707) Note On ch=5 par1=70 par2=83
Channel Event. t= 15 (112722) Note On ch=5 par1=82 par2=83
Channel Event. t= 80 (112802) Note Off ch=5 par1=76 par2=64
Channel Event. t= 25 (112827) Note Off ch=5 par1=67 par2=64
Channel Event. t= 15 (112842) Note Off ch=5 par1=64 par2=64
Channel Event. t= 30 (112872) Controller ch=5 par1=7 (Main Volume) par2=97
Channel Event. t= 65 (112937) Note On ch=5 par1=67 par2=85
Channel Event. t= 7 (112944) Note Off ch=5 par1=70 par2=64
Channel Event. t= 3 (112947) Note On ch=5 par1=64 par2=85
Channel Event. t= 12 (112959) Note Off ch=5 par1=72 par2=64
Channel Event. t= 10 (112969) Note On ch=5 par1=76 par2=85
Channel Event. t= 23 (112992) Note Off ch=5 par1=82 par2=64
Channel Event. t= 170 (113162) Note On ch=5 par1=72 par2=86
Channel Event. t= 2 (113164) Note On ch=5 par1=70 par2=86
Channel Event. t= 25 (113189) Note On ch=5 par1=83 par2=86
Channel Event. t= 43 (113232) Controller ch=5 par1=7 (Main Volume) par2=98
Channel Event. t= 27 (113259) Note Off ch=5 par1=76 par2=64
Channel Event. t= 20 (113279) Note Off ch=5 par1=67 par2=64
Channel Event. t= 75 (113354) Note Off ch=5 par1=70 par2=64
Channel Event. t= 23 (113377) Note Off ch=5 par1=72 par2=64
Channel Event. t= 37 (113414) Note On ch=5 par1=67 par2=88
Channel Event. t= 0 (113414) Note On ch=5 par1=71 par2=88
Channel Event. t= 13 (113427) Note Off ch=5 par1=64 par2=64
Channel Event. t= 2 (113429) Note On ch=5 par1=76 par2=88
Channel Event. t= 85 (113514) Note Off ch=5 par1=83 par2=64
Channel Event. t= 78 (113592) Controller ch=5 par1=7 (Main Volume) par2=99
Channel Event. t= 60 (113652) Note On ch=5 par1=73 par2=90
Channel Event. t= 20 (113672) Note On ch=5 par1=84 par2=90
Channel Event. t= 0 (113672) Note On ch=5 par1=80 par2=90
Channel Event. t= 107 (113779) Note Off ch=5 par1=76 par2=64
Channel Event. t= 5 (113784) Note Off ch=5 par1=79 par2=64
Channel Event. t= 13 (113797) Note Off ch=5 par1=67 par2=64
Channel Event. t= 2 (113799) Note Off ch=5 par1=71 par2=64
Channel Event. t= 85 (113884) Note On ch=5 par1=79 par2=91
Channel Event. t= 8 (113892) Note On ch=5 par1=71 par2=92
Channel Event. t= 2 (113894) Note On ch=5 par1=67 par2=92
Channel Event. t= 3 (113897) Note On ch=5 par1=76 par2=92
Channel Event. t= 25 (113922) Note Off ch=5 par1=80 par2=64
Channel Event. t= 10 (113932) Note Off ch=5 par1=84 par2=64
Channel Event. t= 2 (113934) Note Off ch=5 par1=73 par2=64
Channel Event. t= 18 (113952) Controller ch=5 par1=7 (Main Volume) par2=100
Channel Event. t= 185 (114137) Note On ch=5 par1=73 par2=93
Channel Event. t= 12 (114149) Note On ch=5 par1=85 par2=93
Channel Event. t= 3 (114152) Note On ch=5 par1=82 par2=93
Channel Event. t= 97 (114249) Note Off ch=5 par1=71 par2=64
Channel Event. t= 15 (114264) Note Off ch=5 par1=79 par2=64
Channel Event. t= 0 (114264) Note Off ch=5 par1=76 par2=64
Channel Event. t= 8 (114272) Note Off ch=5 par1=67 par2=64
Channel Event. t= 40 (114312) Controller ch=5 par1=7 (Main Volume) par2=101
Channel Event. t= 57 (114369) Note On ch=5 par1=79 par2=95
Channel Event. t= 8 (114377) Note On ch=5 par1=76 par2=95
Channel Event. t= 2 (114379) Note On ch=5 par1=67 par2=95
Channel Event. t= 3 (114382) Note On ch=5 par1=71 par2=95
Channel Event. t= 22 (114404) Note Off ch=5 par1=73 par2=64
Channel Event. t= 10 (114414) Note Off ch=5 par1=82 par2=64
Channel Event. t= 28 (114442) Note Off ch=5 par1=85 par2=64
Channel Event. t= 167 (114609) Note On ch=5 par1=73 par2=97
Channel Event. t= 25 (114634) Note On ch=5 par1=86 par2=97
Channel Event. t= 0 (114634) Note On ch=5 par1=83 par2=97
Channel Event. t= 23 (114657) Note Off ch=5 par1=67 par2=64
Channel Event. t= 15 (114672) Controller ch=5 par1=7 (Main Volume) par2=102
Channel Event. t= 42 (114714) Note Off ch=5 par1=76 par2=64
Channel Event. t= 13 (114727) Note Off ch=5 par1=71 par2=64
Channel Event. t= 7 (114734) Note Off ch=5 par1=79 par2=64
Channel Event. t= 105 (114839) Note Off ch=5 par1=83 par2=64
Channel Event. t= 8 (114847) Note Off ch=5 par1=73 par2=64
Channel Event. t= 12 (114859) Note On ch=5 par1=71 par2=99
Channel Event. t= 5 (114864) Note On ch=5 par1=73 par2=99
Channel Event. t= 0 (114864) Note On ch=5 par1=79 par2=99
Channel Event. t= 33 (114897) Note On ch=5 par1=83 par2=99
Channel Event. t= 10 (114907) Note Off ch=5 par1=86 par2=64
Channel Event. t= 125 (115032) Controller ch=5 par1=7 (Main Volume) par2=103
Channel Event. t= 85 (115117) Note On ch=5 par1=76 par2=100
Channel Event. t= 5 (115122) Note On ch=5 par1=87 par2=100
Channel Event. t= 12 (115134) Note On ch=5 par1=84 par2=101
Channel Event. t= 25 (115159) Note Off ch=5 par1=83 par2=64
Channel Event. t= 45 (115204) Note Off ch=5 par1=79 par2=64
Channel Event. t= 70 (115274) Note Off ch=5 par1=73 par2=64
Channel Event. t= 18 (115292) Note Off ch=5 par1=71 par2=64
Channel Event. t= 55 (115347) Note On ch=5 par1=71 par2=102
Channel Event. t= 5 (115352) Note On ch=5 par1=73 par2=102
Channel Event. t= 17 (115369) Note On ch=5 par1=79 par2=102
Channel Event. t= 0 (115369) Note On ch=5 par1=83 par2=102
Channel Event. t= 23 (115392) Controller ch=5 par1=7 (Main Volume) par2=104
Channel Event. t= 12 (115404) Note Off ch=5 par1=84 par2=64
Channel Event. t= 28 (115432) Note Off ch=5 par1=87 par2=64
Channel Event. t= 5 (115437) Note Off ch=5 par1=76 par2=64
Channel Event. t= 165 (115602) Note On ch=5 par1=76 par2=104
Channel Event. t= 7 (115609) Note On ch=5 par1=88 par2=104
Channel Event. t= 5 (115614) Note On ch=5 par1=85 par2=104
Channel Event. t= 43 (115657) Note Off ch=5 par1=79 par2=64
Channel Event. t= 0 (115657) Note Off ch=5 par1=83 par2=64
Channel Event. t= 35 (115692) Note Off ch=5 par1=73 par2=64
Channel Event. t= 52 (115744) Note Off ch=5 par1=71 par2=64
Channel Event. t= 8 (115752) Controller ch=5 par1=7 (Main Volume) par2=105
Channel Event. t= 72 (115824) Note Off ch=5 par1=88 par2=64
Channel Event. t= 3 (115827) Note Off ch=5 par1=85 par2=64
Channel Event. t= 12 (115839) Note On ch=5 par1=73 par2=106
Channel Event. t= 0 (115839) Note On ch=5 par1=83 par2=106
Channel Event. t= 3 (115842) Note On ch=5 par1=71 par2=106
Channel Event. t= 2 (115844) Note On ch=5 par1=79 par2=106
Channel Event. t= 38 (115882) Note Off ch=5 par1=76 par2=64
Channel Event. t= 187 (116069) Note On ch=5 par1=76 par2=107
Channel Event. t= 5 (116074) Note Off ch=5 par1=83 par2=64
Channel Event. t= 10 (116084) Note On ch=5 par1=90 par2=108
Channel Event. t= 10 (116094) Note On ch=5 par1=87 par2=108
Channel Event. t= 18 (116112) Controller ch=5 par1=7 (Main Volume) par2=106
Channel Event. t= 10 (116122) Note Off ch=5 par1=79 par2=64
Channel Event. t= 27 (116149) Note Off ch=5 par1=87 par2=64
Channel Event. t= 73 (116222) Note Off ch=5 par1=90 par2=64
Channel Event. t= 32 (116254) Note Off ch=5 par1=73 par2=64
Channel Event. t= 33 (116287) Note Off ch=5 par1=76 par2=64
Channel Event. t= 40 (116327) Note On ch=5 par1=76 par2=115
Channel Event. t= 0 (116327) Note On ch=5 par1=91 par2=115
Channel Event. t= 2 (116329) Note On ch=5 par1=72 par2=115
Channel Event. t= 0 (116329) Note On ch=5 par1=79 par2=115
Channel Event. t= 5 (116334) Note On ch=5 par1=73 par2=115
Channel Event. t= 0 (116334) Note On ch=5 par1=78 par2=115
Channel Event. t= 8 (116342) Note On ch=5 par1=84 par2=115
Channel Event. t= 0 (116342) Note On ch=5 par1=88 par2=115
Channel Event. t= 7 (116349) Note Off ch=5 par1=71 par2=64
Channel Event. t= 3 (116352) Note On ch=5 par1=70 par2=115
Channel Event. t= 50 (116402) Note Off ch=5 par1=78 par2=64
Channel Event. t= 57 (116459) Note On ch=5 par1=78 par2=115
Channel Event. t= 13 (116472) Controller ch=5 par1=7 (Main Volume) par2=107
Channel Event. t= 52 (116524) Note Off ch=5 par1=78 par2=64
Channel Event. t= 55 (116579) Note On ch=5 par1=78 par2=115
Channel Event. t= 70 (116649) Note Off ch=5 par1=78 par2=64
Channel Event. t= 55 (116704) Note On ch=5 par1=78 par2=115
Channel Event. t= 65 (116769) Note Off ch=5 par1=78 par2=64
Channel Event. t= 63 (116832) Controller ch=5 par1=7 (Main Volume) par2=108
Channel Event. t= 12 (116844) Note On ch=5 par1=78 par2=116
Channel Event. t= 68 (116912) Note Off ch=5 par1=78 par2=64
Channel Event. t= 55 (116967) Note On ch=5 par1=78 par2=116
Channel Event. t= 57 (117024) Note Off ch=5 par1=78 par2=64
Channel Event. t= 60 (117084) Note On ch=5 par1=78 par2=116
Channel Event. t= 63 (117147) Note Off ch=5 par1=78 par2=64
Channel Event. t= 45 (117192) Controller ch=5 par1=7 (Main Volume) par2=109
Channel Event. t= 12 (117204) Note On ch=5 par1=78 par2=116
Channel Event. t= 70 (117274) Note Off ch=5 par1=78 par2=64
Channel Event. t= 63 (117337) Note On ch=5 par1=78 par2=117
Channel Event. t= 77 (117414) Note Off ch=5 par1=78 par2=64
Channel Event. t= 55 (117469) Note On ch=5 par1=78 par2=117
Channel Event. t= 5 (117474) Note Off ch=5 par1=73 par2=64
Channel Event. t= 23 (117497) Note Off ch=5 par1=76 par2=64
Channel Event. t= 10 (117507) Note Off ch=5 par1=70 par2=64
Channel Event. t= 17 (117524) Note Off ch=5 par1=72 par2=64
Channel Event. t= 20 (117544) Note Off ch=5 par1=78 par2=64
Channel Event. t= 8 (117552) Controller ch=5 par1=7 (Main Volume) par2=110
Channel Event. t= 60 (117612) Note On ch=5 par1=78 par2=117
Channel Event. t= 72 (117684) Note Off ch=5 par1=78 par2=64
Channel Event. t= 45 (117729) Note On ch=5 par1=78 par2=117
Channel Event. t= 60 (117789) Note Off ch=5 par1=91 par2=64
Channel Event. t= 3 (117792) Note On ch=5 par1=61 par2=117
Channel Event. t= 0 (117792) Note On ch=5 par1=64 par2=117
Channel Event. t= 0 (117792) Note On ch=5 par1=58 par2=117
Channel Event. t= 0 (117792) Note On ch=5 par1=82 par2=117
Channel Event. t= 0 (117792) Note On ch=5 par1=85 par2=117
Channel Event. t= 0 (117792) Note On ch=5 par1=76 par2=117
Channel Event. t= 0 (117792) Note On ch=5 par1=73 par2=117
Channel Event. t= 0 (117792) Note On ch=5 par1=70 par2=117
Channel Event. t= 7 (117799) Note Off ch=5 par1=84 par2=64
Channel Event. t= 0 (117799) Note Off ch=5 par1=88 par2=64
Channel Event. t= 3 (117802) Note Off ch=5 par1=78 par2=64
Channel Event. t= 22 (117824) Note Off ch=5 par1=79 par2=64
Channel Event. t= 88 (117912) Controller ch=5 par1=7 (Main Volume) par2=111
Channel Event. t= 357 (118269) Controller ch=5 par1=7 (Main Volume) par2=112
Channel Event. t= 5 (118274) Note Off ch=5 par1=61 par2=64
Channel Event. t= 0 (118274) Note Off ch=5 par1=64 par2=64
Channel Event. t= 0 (118274) Note Off ch=5 par1=58 par2=64
Channel Event. t= 50 (118324) Note Off ch=5 par1=70 par2=64
Channel Event. t= 28 (118352) Note Off ch=5 par1=76 par2=64
Channel Event. t= 5 (118357) Note Off ch=5 par1=82 par2=64
Channel Event. t= 7 (118364) Note Off ch=5 par1=73 par2=64
Channel Event. t= 28 (118392) Note Off ch=5 par1=85 par2=64
Channel Event. t= 337 (118729) Note On ch=5 par1=87 par2=119
Channel Event. t= 3 (118732) Note On ch=5 par1=72 par2=119
Channel Event. t= 0 (118732) Note On ch=5 par1=75 par2=119
Channel Event. t= 20 (118752) Note On ch=5 par1=60 par2=119
Channel Event. t= 0 (118752) Note On ch=5 par1=63 par2=119
Channel Event. t= 0 (118752) Note On ch=5 par1=66 par2=119
Channel Event. t= 190 (118942) Note Off ch=5 par1=75 par2=64
Channel Event. t= 60 (119002) Note Off ch=5 par1=87 par2=64
Channel Event. t= 5 (119007) Note Off ch=5 par1=72 par2=64
Channel Event. t= 177 (119184) Note Off ch=5 par1=60 par2=64
Channel Event. t= 0 (119184) Note Off ch=5 par1=63 par2=64
Channel Event. t= 8 (119192) Note Off ch=5 par1=66 par2=64
Channel Event. t= 40 (119232) Note On ch=5 par1=72 par2=120
Channel Event. t= 0 (119232) Note On ch=5 par1=75 par2=120
Channel Event. t= 0 (119232) Note On ch=5 par1=78 par2=120
Channel Event. t= 0 (119232) Note On ch=5 par1=74 par2=120
Channel Event. t= 12 (119244) Note On ch=5 par1=93 par2=121
Channel Event. t= 5 (119249) Note On ch=5 par1=81 par2=121
Channel Event. t= 15 (119264) Note On ch=5 par1=80 par2=121
Channel Event. t= 68 (119332) Note Off ch=5 par1=80 par2=64
Channel Event. t= 50 (119382) Note On ch=5 par1=80 par2=121
Channel Event. t= 70 (119452) Note Off ch=5 par1=80 par2=64
Channel Event. t= 42 (119494) Note On ch=5 par1=80 par2=121
Channel Event. t= 70 (119564) Note Off ch=5 par1=80 par2=64
Channel Event. t= 43 (119607) Note On ch=5 par1=80 par2=121
Channel Event. t= 72 (119679) Note Off ch=5 par1=80 par2=64
Channel Event. t= 53 (119732) Note On ch=5 par1=80 par2=122
Channel Event. t= 72 (119804) Note Off ch=5 par1=80 par2=64
Channel Event. t= 40 (119844) Note On ch=5 par1=80 par2=122
Channel Event. t= 75 (119919) Note Off ch=5 par1=80 par2=64
Channel Event. t= 43 (119962) Note On ch=5 par1=80 par2=122
Channel Event. t= 77 (120039) Note Off ch=5 par1=80 par2=64
Channel Event. t= 43 (120082) Note On ch=5 par1=80 par2=122
Channel Event. t= 80 (120162) Note Off ch=5 par1=80 par2=64
Channel Event. t= 40 (120202) Note On ch=5 par1=80 par2=123
Channel Event. t= 85 (120287) Note Off ch=5 par1=80 par2=64
Channel Event. t= 45 (120332) Note On ch=5 par1=80 par2=123
Channel Event. t= 80 (120412) Note Off ch=5 par1=80 par2=64
Channel Event. t= 55 (120467) Note On ch=5 par1=80 par2=123
Channel Event. t= 72 (120539) Note Off ch=5 par1=80 par2=64
Channel Event. t= 65 (120604) Note On ch=5 par1=80 par2=123
Channel Event. t= 63 (120667) Note Off ch=5 par1=80 par2=64
Channel Event. t= 5 (120672) Note Off ch=5 par1=81 par2=64
Channel Event. t= 0 (120672) Note Off ch=5 par1=93 par2=64
Channel Event. t= 0 (120672) Note Off ch=5 par1=74 par2=64
Channel Event. t= 0 (120672) Note Off ch=5 par1=78 par2=64
Channel Event. t= 0 (120672) Note Off ch=5 par1=75 par2=64
Channel Event. t= 0 (120672) Note Off ch=5 par1=72 par2=64
Channel Event. t= 0 (120672) Note On ch=5 par1=66 par2=123
Channel Event. t= 0 (120672) Note On ch=5 par1=87 par2=123
Channel Event. t= 10 (120682) Note On ch=5 par1=63 par2=124
Channel Event. t= 2 (120684) Note On ch=5 par1=60 par2=124
Channel Event. t= 468 (121152) Note Off ch=5 par1=87 par2=64
Channel Event. t= 0 (121152) Note Off ch=5 par1=66 par2=64
Channel Event. t= 10 (121162) Note Off ch=5 par1=63 par2=64
Channel Event. t= 2 (121164) Note Off ch=5 par1=60 par2=64
Channel Event. t= 2088 (123252) Controller ch=5 par1=7 (Main Volume) par2=70
Channel Event. t= 307 (123559) Note On ch=5 par1=86 par2=45
Channel Event. t= 230 (123789) Note Off ch=5 par1=86 par2=64
Channel Event. t= 30 (123819) Note On ch=5 par1=84 par2=19
Channel Event. t= 213 (124032) Note On ch=5 par1=79 par2=61
Channel Event. t= 5 (124037) Note On ch=5 par1=82 par2=48
Channel Event. t= 2 (124039) Note Off ch=5 par1=84 par2=64
Channel Event. t= 203 (124242) Note Off ch=5 par1=79 par2=64
Channel Event. t= 10 (124252) Note Off ch=5 par1=82 par2=64
Channel Event. t= 20 (124272) Note On ch=5 par1=81 par2=50
Channel Event. t= 5 (124277) Note On ch=5 par1=84 par2=36
Channel Event. t= 235 (124512) Note On ch=5 par1=82 par2=66
Channel Event. t= 10 (124522) Note Off ch=5 par1=81 par2=64
Channel Event. t= 2 (124524) Note Off ch=5 par1=84 par2=64
Channel Event. t= 13 (124537) Note On ch=5 par1=86 par2=43
Channel Event. t= 415 (124952) Note Off ch=5 par1=86 par2=64
Channel Event. t= 40 (124992) Note On ch=5 par1=81 par2=61
Channel Event. t= 12 (125004) Note Off ch=5 par1=82 par2=64
Channel Event. t= 8 (125012) Note On ch=5 par1=85 par2=45
Channel Event. t= 2 (125014) Note On ch=5 par1=88 par2=56
Channel Event. t= 478 (125492) Note Off ch=5 par1=85 par2=64
Channel Event. t= 2 (125494) Note On ch=5 par1=91 par2=73
Channel Event. t= 8 (125502) Note On ch=5 par1=84 par2=59
Channel Event. t= 2 (125504) Note Off ch=5 par1=88 par2=64
Channel Event. t= 13 (125517) Note Off ch=5 par1=81 par2=64
Channel Event. t= 452 (125969) Note On ch=5 par1=88 par2=48
Channel Event. t= 3 (125972) Note Off ch=5 par1=84 par2=64
Channel Event. t= 5 (125977) Note On ch=5 par1=85 par2=57
Channel Event. t= 10 (125987) Note Off ch=5 par1=91 par2=64
Channel Event. t= 312 (126299) Note Off ch=5 par1=88 par2=64
Channel Event. t= 23 (126322) Note Off ch=5 par1=85 par2=64
Channel Event. t= 110 (126432) Note On ch=5 par1=82 par2=61
Channel Event. t= 22 (126454) Note On ch=5 par1=86 par2=74
Channel Event. t= 213 (126667) Note Off ch=5 par1=82 par2=64
Channel Event. t= 5 (126672) Note On ch=5 par1=81 par2=59
Channel Event. t= 15 (126687) Note On ch=5 par1=84 par2=60
Channel Event. t= 10 (126697) Note Off ch=5 par1=86 par2=64
Channel Event. t= 215 (126912) Note On ch=5 par1=79 par2=63
Channel Event. t= 15 (126927) Note On ch=5 par1=82 par2=63
Channel Event. t= 15 (126942) Note Off ch=5 par1=81 par2=64
Channel Event. t= 0 (126942) Note Off ch=5 par1=84 par2=64
Channel Event. t= 202 (127144) Note Off ch=5 par1=79 par2=64
Channel Event. t= 8 (127152) Note On ch=5 par1=81 par2=57
Channel Event. t= 30 (127182) Note On ch=5 par1=84 par2=64
Channel Event. t= 15 (127197) Note Off ch=5 par1=82 par2=64
Channel Event. t= 190 (127387) Note Off ch=5 par1=81 par2=64
Channel Event. t= 5 (127392) Note On ch=5 par1=82 par2=64
Channel Event. t= 30 (127422) Note Off ch=5 par1=84 par2=64
Channel Event. t= 5 (127427) Note On ch=5 par1=86 par2=67
Channel Event. t= 377 (127804) Note Off ch=5 par1=86 par2=64
Channel Event. t= 68 (127872) Note On ch=5 par1=81 par2=60
Channel Event. t= 7 (127879) Note Off ch=5 par1=82 par2=64
Channel Event. t= 20 (127899) Note On ch=5 par1=88 par2=61
Channel Event. t= 8 (127907) Note On ch=5 par1=85 par2=51
Channel Event. t= 360 (128267) Note Off ch=5 par1=85 par2=64
Channel Event. t= 50 (128317) Note Off ch=5 par1=81 par2=64
Channel Event. t= 5 (128322) Note Off ch=5 par1=88 par2=64
Channel Event. t= 30 (128352) Note On ch=5 par1=81 par2=63
Channel Event. t= 10 (128362) Note On ch=5 par1=91 par2=71
Channel Event. t= 30 (128392) Note On ch=5 par1=84 par2=55
Channel Event. t= 195 (128587) Note Off ch=5 par1=91 par2=64
Channel Event. t= 75 (128662) Note Off ch=5 par1=84 par2=64
Channel Event. t= 95 (128757) Note On ch=5 par1=76 par2=66
Channel Event. t= 10 (128767) Note Off ch=5 par1=81 par2=64
Channel Event. t= 62 (128829) Note On ch=5 par1=88 par2=51
Channel Event. t= 3 (128832) Note On ch=5 par1=81 par2=63
Channel Event. t= 57 (128889) Note Off ch=5 par1=76 par2=64
Channel Event. t= 183 (129072) Note On ch=5 par1=85 par2=68
Channel Event. t= 32 (129104) Note Off ch=5 par1=88 par2=64
Channel Event. t= 208 (129312) Note On ch=5 par1=82 par2=75
Channel Event. t= 0 (129312) Note On ch=5 par1=77 par2=58
Channel Event. t= 20 (129332) Note Off ch=5 par1=81 par2=64
Channel Event. t= 2 (129334) Note On ch=5 par1=86 par2=63
Channel Event. t= 10 (129344) Note Off ch=5 par1=85 par2=64
Channel Event. t= 1433 (130777) Note Off ch=5 par1=82 par2=64
Channel Event. t= 10 (130787) Note Off ch=5 par1=77 par2=64
Channel Event. t= 35 (130822) Note Off ch=5 par1=86 par2=64
Channel Event. t= 407 (131229) Note On ch=5 par1=84 par2=47
Channel Event. t= 3 (131232) Note On ch=5 par1=75 par2=66
Channel Event. t= 15 (131247) Note On ch=5 par1=79 par2=39
Channel Event. t= 412 (131659) Note Off ch=5 par1=75 par2=64
Channel Event. t= 43 (131702) Note Off ch=5 par1=84 par2=64
Channel Event. t= 0 (131702) Note On ch=5 par1=83 par2=55
Channel Event. t= 10 (131712) Note On ch=5 par1=75 par2=60
Channel Event. t= 2 (131714) Note Off ch=5 par1=79 par2=64
Channel Event. t= 5 (131719) Note On ch=5 par1=78 par2=34
Channel Event. t= 473 (132192) Note On ch=5 par1=77 par2=69
Channel Event. t= 15 (132207) Note On ch=5 par1=81 par2=56
Channel Event. t= 27 (132234) Note Off ch=5 par1=78 par2=64
Channel Event. t= 5 (132239) Note Off ch=5 par1=83 par2=64
Channel Event. t= 0 (132239) Note Off ch=5 par1=75 par2=64
Channel Event. t= 1393 (133632) Note On ch=5 par1=74 par2=60
Channel Event. t= 37 (133669) Note On ch=5 par1=82 par2=61
Channel Event. t= 55 (133724) Note Off ch=5 par1=81 par2=64
Channel Event. t= 3243 (136967) Note Off ch=5 par1=82 par2=64
Channel Event. t= 20 (136987) Note Off ch=5 par1=77 par2=64
Channel Event. t= 5 (136992) Note On ch=5 par1=55 par2=66
Channel Event. t= 0 (136992) Note On ch=5 par1=58 par2=76
Channel Event. t= 12 (137004) Note Off ch=5 par1=74 par2=64
Channel Event. t= 228 (137232) Note On ch=5 par1=53 par2=51
Channel Event. t= 0 (137232) Note On ch=5 par1=57 par2=29
Channel Event. t= 40 (137272) Note Off ch=5 par1=58 par2=64
Channel Event. t= 110 (137382) Note Off ch=5 par1=55 par2=64
Channel Event. t= 27 (137409) Note Off ch=5 par1=53 par2=64
Channel Event. t= 60 (137469) Note Off ch=5 par1=57 par2=64
Channel Event. t= 3 (137472) Note On ch=5 par1=58 par2=38
Channel Event. t= 0 (137472) Note On ch=5 par1=55 par2=55
Channel Event. t= 235 (137707) Note Off ch=5 par1=58 par2=64
Channel Event. t= 5 (137712) Note Off ch=5 par1=55 par2=64
Channel Event. t= 0 (137712) Note On ch=5 par1=57 par2=57
Channel Event. t= 0 (137712) Note On ch=5 par1=54 par2=73
Channel Event. t= 207 (137919) Note Off ch=5 par1=54 par2=64
Channel Event. t= 33 (137952) Note On ch=5 par1=58 par2=63
Channel Event. t= 0 (137952) Note On ch=5 par1=55 par2=67
Channel Event. t= 15 (137967) Note Off ch=5 par1=57 par2=64
Channel Event. t= 200 (138167) Note Off ch=5 par1=55 par2=64
Channel Event. t= 2 (138169) Note Off ch=5 par1=58 par2=64
Channel Event. t= 263 (138432) Note On ch=5 par1=58 par2=76
Channel Event. t= 0 (138432) Note On ch=5 par1=55 par2=63
Channel Event. t= 202 (138634) Note Off ch=5 par1=55 par2=64
Channel Event. t= 58 (138692) Note Off ch=5 par1=58 par2=64
Channel Event. t= 220 (138912) Note On ch=5 par1=58 par2=77
Channel Event. t= 0 (138912) Note On ch=5 par1=62 par2=71
Channel Event. t= 470 (139382) Note Off ch=5 par1=58 par2=64
Channel Event. t= 7 (139389) Note Off ch=5 par1=62 par2=64
Channel Event. t= 3 (139392) Note On ch=5 par1=61 par2=81
Channel Event. t= 0 (139392) Note On ch=5 par1=57 par2=64
Channel Event. t= 480 (139872) Note On ch=5 par1=58 par2=73
Channel Event. t= 0 (139872) Note On ch=5 par1=62 par2=61
Channel Event. t= 22 (139894) Note Off ch=5 par1=61 par2=64
Channel Event. t= 10 (139904) Note Off ch=5 par1=57 par2=64
Channel Event. t= 375 (140279) Note Off ch=5 par1=58 par2=64
Channel Event. t= 45 (140324) Note Off ch=5 par1=62 par2=64
Channel Event. t= 28 (140352) Note On ch=5 par1=58 par2=61
Channel Event. t= 0 (140352) Note On ch=5 par1=55 par2=70
Channel Event. t= 415 (140767) Note Off ch=5 par1=55 par2=64
Channel Event. t= 57 (140824) Note Off ch=5 par1=58 par2=64
Channel Event. t= 8 (140832) Note On ch=5 par1=53 par2=77
Channel Event. t= 0 (140832) Note On ch=5 par1=60 par2=66
Channel Event. t= 1387 (142219) Note On ch=5 par1=88 par2=66
Channel Event. t= 35 (142254) Note On ch=5 par1=89 par2=63
Channel Event. t= 28 (142282) Note Off ch=5 par1=88 par2=64
Channel Event. t= 442 (142724) Note Off ch=5 par1=89 par2=64
Channel Event. t= 0 (142724) Note On ch=5 par1=77 par2=61
Channel Event. t= 510 (143234) Note Off ch=5 par1=60 par2=64
Channel Event. t= 18 (143252) Note Off ch=5 par1=53 par2=64
Channel Event. t= 592 (143844) Note Off ch=5 par1=77 par2=64
Channel Event. t= 1788 (145632) Note On ch=5 par1=53 par2=66
Channel Event. t= 480 (146112) Note On ch=5 par1=57 par2=50
Channel Event. t= 10 (146122) Note Off ch=5 par1=53 par2=64
Channel Event. t= 42 (146164) Note Off ch=5 par1=57 par2=64
Channel Event. t= 4268 (150432) Note On ch=5 par1=58 par2=72
Channel Event. t= 0 (150432) Note On ch=5 par1=55 par2=72
Channel Event. t= 235 (150667) Note Off ch=5 par1=58 par2=64
Channel Event. t= 5 (150672) Note On ch=5 par1=54 par2=49
Channel Event. t= 0 (150672) Note On ch=5 par1=57 par2=54
Channel Event. t= 32 (150704) Note Off ch=5 par1=55 par2=64
Channel Event. t= 208 (150912) Note On ch=5 par1=58 par2=53
Channel Event. t= 0 (150912) Note On ch=5 par1=55 par2=57
Channel Event. t= 30 (150942) Note Off ch=5 par1=54 par2=64
Channel Event. t= 12 (150954) Note Off ch=5 par1=57 par2=64
Channel Event. t= 195 (151149) Note Off ch=5 par1=58 par2=64
Channel Event. t= 3 (151152) Note On ch=5 par1=54 par2=58
Channel Event. t= 0 (151152) Note On ch=5 par1=57 par2=36
Channel Event. t= 15 (151167) Note Off ch=5 par1=55 par2=64
Channel Event. t= 225 (151392) Note On ch=5 par1=58 par2=43
Channel Event. t= 0 (151392) Note On ch=5 par1=55 par2=58
Channel Event. t= 12 (151404) Note Off ch=5 par1=54 par2=64
Channel Event. t= 15 (151419) Note Off ch=5 par1=57 par2=64
Channel Event. t= 160 (151579) Note Off ch=5 par1=55 par2=64
Channel Event. t= 5 (151584) Note Off ch=5 par1=58 par2=64
Channel Event. t= 288 (151872) Note On ch=5 par1=58 par2=44
Channel Event. t= 0 (151872) Note On ch=5 par1=55 par2=58
Channel Event. t= 152 (152024) Note Off ch=5 par1=55 par2=64
Channel Event. t= 25 (152049) Note Off ch=5 par1=58 par2=64
Channel Event. t= 303 (152352) Note On ch=5 par1=58 par2=56
Channel Event. t= 0 (152352) Note On ch=5 par1=62 par2=48
Channel Event. t= 457 (152809) Note Off ch=5 par1=58 par2=64
Channel Event. t= 13 (152822) Note Off ch=5 par1=62 par2=64
Channel Event. t= 10 (152832) Note On ch=5 par1=57 par2=48
Channel Event. t= 0 (152832) Note On ch=5 par1=61 par2=65
Channel Event. t= 470 (153302) Note Off ch=5 par1=61 par2=64
Channel Event. t= 10 (153312) Note On ch=5 par1=58 par2=63
Channel Event. t= 0 (153312) Note On ch=5 par1=62 par2=44
Channel Event. t= 95 (153407) Note Off ch=5 par1=57 par2=64
Channel Event. t= 297 (153704) Note Off ch=5 par1=58 par2=64
Channel Event. t= 28 (153732) Note Off ch=5 par1=62 par2=64
Channel Event. t= 60 (153792) Note On ch=5 par1=58 par2=59
Channel Event. t= 0 (153792) Note On ch=5 par1=55 par2=60
Channel Event. t= 350 (154142) Note Off ch=5 par1=55 par2=64
Channel Event. t= 130 (154272) Note On ch=5 par1=53 par2=65
Channel Event. t= 0 (154272) Note On ch=5 par1=60 par2=64
Channel Event. t= 55 (154327) Note Off ch=5 par1=58 par2=64
Channel Event. t= 1342 (155669) Note On ch=5 par1=88 par2=74
Channel Event. t= 20 (155689) Note On ch=5 par1=89 par2=83
Channel Event. t= 68 (155757) Note Off ch=5 par1=88 par2=64
Channel Event. t= 35 (155792) Note Off ch=5 par1=89 par2=64
Channel Event. t= 305 (156097) Note Off ch=5 par1=60 par2=64
Channel Event. t= 27 (156124) Note Off ch=5 par1=53 par2=64
Channel Event. t= 20 (156144) Note On ch=5 par1=77 par2=76
Channel Event. t= 145 (156289) Note Off ch=5 par1=77 par2=64
Channel Event. t= 230 (156519) Note On ch=5 par1=72 par2=74
Channel Event. t= 65 (156584) Note Off ch=5 par1=72 par2=64
Channel Event. t= 60 (156644) Note On ch=5 par1=84 par2=86
Channel Event. t= 78 (156722) Note Off ch=5 par1=84 par2=64
Channel Event. t= 430 (157152) Note On ch=5 par1=77 par2=69
Channel Event. t= 1437 (158589) Note On ch=5 par1=88 par2=65
Channel Event. t= 25 (158614) Note On ch=5 par1=89 par2=71
Channel Event. t= 18 (158632) Note Off ch=5 par1=88 par2=64
Channel Event. t= 5 (158637) Note Off ch=5 par1=77 par2=64
Channel Event. t= 437 (159074) Note On ch=5 par1=87 par2=79
Channel Event. t= 28 (159102) Note Off ch=5 par1=89 par2=64
Channel Event. t= 412 (159514) Note On ch=5 par1=88 par2=59
Channel Event. t= 8 (159522) Note Off ch=5 par1=87 par2=64
Channel Event. t= 32 (159554) Note On ch=5 par1=89 par2=61
Channel Event. t= 18 (159572) Note Off ch=5 par1=88 par2=64
Channel Event. t= 427 (159999) Note On ch=5 par1=77 par2=55
Channel Event. t= 10 (160009) Note Off ch=5 par1=89 par2=64
Channel Event. t= 2130 (162139) Note Off ch=5 par1=77 par2=64
Channel Event. t= 1733 (163872) Note On ch=5 par1=58 par2=65
Channel Event. t= 0 (163872) Note On ch=5 par1=55 par2=69
Channel Event. t= 232 (164104) Note Off ch=5 par1=55 par2=64
Channel Event. t= 0 (164104) Note Off ch=5 par1=58 par2=64
Channel Event. t= 8 (164112) Note On ch=5 par1=54 par2=70
Channel Event. t= 0 (164112) Note On ch=5 par1=57 par2=63
Channel Event. t= 240 (164352) Note On ch=5 par1=58 par2=47
Channel Event. t= 0 (164352) Note On ch=5 par1=55 par2=63
Channel Event. t= 17 (164369) Note Off ch=5 par1=54 par2=64
Channel Event. t= 20 (164389) Note Off ch=5 par1=57 par2=64
Channel Event. t= 198 (164587) Note Off ch=5 par1=58 par2=64
Channel Event. t= 5 (164592) Note On ch=5 par1=54 par2=58
Channel Event. t= 0 (164592) Note On ch=5 par1=57 par2=53
Channel Event. t= 17 (164609) Note Off ch=5 par1=55 par2=64
Channel Event. t= 223 (164832) Note On ch=5 par1=55 par2=58
Channel Event. t= 0 (164832) Note On ch=5 par1=58 par2=61
Channel Event. t= 22 (164854) Note Off ch=5 par1=54 par2=64
Channel Event. t= 30 (164884) Note Off ch=5 par1=57 par2=64
Channel Event. t= 145 (165029) Note Off ch=5 par1=58 par2=64
Channel Event. t= 15 (165044) Note Off ch=5 par1=55 par2=64
Channel Event. t= 268 (165312) Note On ch=5 par1=58 par2=61
Channel Event. t= 0 (165312) Note On ch=5 par1=55 par2=58
Channel Event. t= 177 (165489) Note Off ch=5 par1=55 par2=64
Channel Event. t= 13 (165502) Note Off ch=5 par1=58 par2=64
Channel Event. t= 290 (165792) Note On ch=5 par1=58 par2=71
Channel Event. t= 0 (165792) Note On ch=5 par1=62 par2=63
Channel Event. t= 480 (166272) Note On ch=5 par1=57 par2=68
Channel Event. t= 0 (166272) Note On ch=5 par1=61 par2=71
Channel Event. t= 7 (166279) Note Off ch=5 par1=62 par2=64
Channel Event. t= 10 (166289) Note Off ch=5 par1=58 par2=64
Channel Event. t= 428 (166717) Note Off ch=5 par1=61 par2=64
Channel Event. t= 27 (166744) Note Off ch=5 par1=57 par2=64
Channel Event. t= 8 (166752) Note On ch=5 par1=58 par2=76
Channel Event. t= 0 (166752) Note On ch=5 par1=62 par2=65
Channel Event. t= 372 (167124) Note Off ch=5 par1=58 par2=64
Channel Event. t= 20 (167144) Note Off ch=5 par1=62 par2=64
Channel Event. t= 88 (167232) Note On ch=5 par1=58 par2=71
Channel Event. t= 0 (167232) Note On ch=5 par1=55 par2=62
Channel Event. t= 380 (167612) Note Off ch=5 par1=58 par2=64
Channel Event. t= 75 (167687) Note Off ch=5 par1=55 par2=64
Channel Event. t= 25 (167712) Note On ch=5 par1=58 par2=77
Channel Event. t= 0 (167712) Note On ch=5 par1=62 par2=55
Channel Event. t= 445 (168157) Note Off ch=5 par1=62 par2=64
Channel Event. t= 5 (168162) Note Off ch=5 par1=58 par2=64
Channel Event. t= 30 (168192) Note On ch=5 par1=57 par2=54
Channel Event. t= 0 (168192) Note On ch=5 par1=61 par2=63
Channel Event. t= 480 (168672) Note On ch=5 par1=58 par2=51
Channel Event. t= 0 (168672) Note On ch=5 par1=62 par2=41
Channel Event. t= 2 (168674) Note Off ch=5 par1=61 par2=64
Channel Event. t= 8 (168682) Note Off ch=5 par1=57 par2=64
Channel Event. t= 857 (169539) Note Off ch=5 par1=62 par2=64
Channel Event. t= 8 (169547) Note Off ch=5 par1=58 par2=64
Channel Event. t= 85 (169632) Note On ch=5 par1=58 par2=54
Channel Event. t= 0 (169632) Note On ch=5 par1=62 par2=46
Channel Event. t= 2400 (172032) Note Off ch=5 par1=62 par2=64
Channel Event. t= 0 (172032) Note Off ch=5 par1=58 par2=64
Channel Event. t= 0 (172032) 
Meta Event. Type: 0x2f (47dec), End of Track (0 bytes): 
track #34
track size: 2679
Channel Event. t= 0 (0) 
Meta Event. Type: 0x3 (3dec), Sequence/Track Name (20 bytes): Harp                
Channel Event. t= 0 (0) 
Meta Event. Type: 0x21 (33dec), MIDI Port (1 bytes): 0
Channel Event. t= 0 (0) 
Meta Event. Type: 0x20 (32dec), MIDI Channel Prefix (1 bytes): 6
Channel Event. t= 0 (0) Controller ch=6 par1=10 (Pan) par2=64
Channel Event. t= 0 (0) Controller ch=6 par1=91 (Effects 2 Depth (formerly Tremolo Depth)) par2=127
Channel Event. t= 0 (0) Program Change ch=6 par1=57 par2=-101
Channel Event. t= 13992 (13992) Controller ch=6 par1=10 (Pan) par2=65
Channel Event. t= 2440 (16432) Controller ch=6 par1=7 (Main Volume) par2=70
Channel Event. t= 95 (16527) Note On ch=6 par1=83 par2=61
Channel Event. t= 0 (16527) Controller ch=6 par1=10 (Pan) par2=1
Channel Event. t= 60 (16587) Note On ch=6 par1=84 par2=66
Channel Event. t= 5 (16592) Controller ch=6 par1=10 (Pan) par2=15
Channel Event. t= 12 (16604) Note Off ch=6 par1=83 par2=64
Channel Event. t= 23 (16627) Note On ch=6 par1=86 par2=66
Channel Event. t= 5 (16632) Controller ch=6 par1=10 (Pan) par2=30
Channel Event. t= 2 (16634) Note Off ch=6 par1=84 par2=64
Channel Event. t= 28 (16662) Note On ch=6 par1=88 par2=71
Channel Event. t= 2 (16664) Note Off ch=6 par1=86 par2=64
Channel Event. t= 28 (16692) Controller ch=6 par1=10 (Pan) par2=45
Channel Event. t= 5 (16697) Note On ch=6 par1=89 par2=77
Channel Event. t= 2 (16699) Note Off ch=6 par1=88 par2=64
Channel Event. t= 30 (16729) Note On ch=6 par1=91 par2=83
Channel Event. t= 5 (16734) Note Off ch=6 par1=89 par2=64
Channel Event. t= 18 (16752) Controller ch=6 par1=10 (Pan) par2=60
Channel Event. t= 10 (16762) Note On ch=6 par1=93 par2=77
Channel Event. t= 2 (16764) Note Off ch=6 par1=91 par2=64
Channel Event. t= 30 (16794) Note On ch=6 par1=95 par2=86
Channel Event. t= 5 (16799) Note Off ch=6 par1=93 par2=64
Channel Event. t= 13 (16812) Controller ch=6 par1=10 (Pan) par2=75
Channel Event. t= 15 (16827) Note On ch=6 par1=96 par2=85
Channel Event. t= 2 (16829) Note Off ch=6 par1=95 par2=64
Channel Event. t= 33 (16862) Note On ch=6 par1=98 par2=74
Channel Event. t= 2 (16864) Note Off ch=6 par1=96 par2=64
Channel Event. t= 8 (16872) Controller ch=6 par1=10 (Pan) par2=90
Channel Event. t= 25 (16897) Note On ch=6 par1=100 par2=80
Channel Event. t= 2 (16899) Note Off ch=6 par1=98 par2=64
Channel Event. t= 30 (16929) Note On ch=6 par1=101 par2=76
Channel Event. t= 3 (16932) Controller ch=6 par1=10 (Pan) par2=105
Channel Event. t= 7 (16939) Note Off ch=6 par1=100 par2=64
Channel Event. t= 23 (16962) Note On ch=6 par1=103 par2=78
Channel Event. t= 22 (16984) Note Off ch=6 par1=101 par2=64
Channel Event. t= 8 (16992) Note On ch=6 par1=105 par2=78
Channel Event. t= 0 (16992) Controller ch=6 par1=10 (Pan) par2=120
Channel Event. t= 30 (17022) Note On ch=6 par1=107 par2=88
Channel Event. t= 5 (17027) Note Off ch=6 par1=103 par2=64
Channel Event. t= 20 (17047) Note Off ch=6 par1=105 par2=64
Channel Event. t= 12 (17059) Note On ch=6 par1=108 par2=78
Channel Event. t= 18 (17077) Note Off ch=6 par1=107 par2=64
Channel Event. t= 22 (17099) Note Off ch=6 par1=108 par2=64
Channel Event. t= 278 (17377) Note On ch=6 par1=79 par2=69
Channel Event. t= 5 (17382) Controller ch=6 par1=10 (Pan) par2=105
Channel Event. t= 20 (17402) Note On ch=6 par1=81 par2=75
Channel Event. t= 40 (17442) Note Off ch=6 par1=79 par2=64
Channel Event. t= 0 (17442) Controller ch=6 par1=10 (Pan) par2=90
Channel Event. t= 15 (17457) Note On ch=6 par1=83 par2=59
Channel Event. t= 45 (17502) Note Off ch=6 par1=81 par2=64
Channel Event. t= 0 (17502) Controller ch=6 par1=10 (Pan) par2=75
Channel Event. t= 15 (17517) Note On ch=6 par1=84 par2=39
Channel Event. t= 12 (17529) Note Off ch=6 par1=83 par2=64
Channel Event. t= 13 (17542) Note On ch=6 par1=86 par2=86
Channel Event. t= 20 (17562) Note Off ch=6 par1=84 par2=64
Channel Event. t= 0 (17562) Controller ch=6 par1=10 (Pan) par2=60
Channel Event. t= 15 (17577) Note On ch=6 par1=88 par2=69
Channel Event. t= 5 (17582) Note Off ch=6 par1=86 par2=64
Channel Event. t= 32 (17614) Note On ch=6 par1=89 par2=75
Channel Event. t= 5 (17619) Note Off ch=6 par1=88 par2=64
Channel Event. t= 3 (17622) Controller ch=6 par1=10 (Pan) par2=45
Channel Event. t= 27 (17649) Note On ch=6 par1=91 par2=82
Channel Event. t= 3 (17652) Note Off ch=6 par1=89 par2=64
Channel Event. t= 27 (17679) Note On ch=6 par1=93 par2=86
Channel Event. t= 3 (17682) Controller ch=6 par1=10 (Pan) par2=30
Channel Event. t= 2 (17684) Note Off ch=6 par1=91 par2=64
Channel Event. t= 28 (17712) Note On ch=6 par1=95 par2=83
Channel Event. t= 2 (17714) Note Off ch=6 par1=93 par2=64
Channel Event. t= 28 (17742) Controller ch=6 par1=10 (Pan) par2=15
Channel Event. t= 5 (17747) Note Off ch=6 par1=95 par2=64
Channel Event. t= 0 (17747) Note On ch=6 par1=96 par2=85
Channel Event. t= 30 (17777) Note Off ch=6 par1=96 par2=64
Channel Event. t= 2 (17779) Note On ch=6 par1=98 par2=81
Channel Event. t= 23 (17802) Controller ch=6 par1=10 (Pan) par2=1
Channel Event. t= 10 (17812) Note Off ch=6 par1=98 par2=64
Channel Event. t= 0 (17812) Note On ch=6 par1=100 par2=83
Channel Event. t= 32 (17844) Note Off ch=6 par1=100 par2=64
Channel Event. t= 0 (17844) Note On ch=6 par1=101 par2=85
Channel Event. t= 35 (17879) Note Off ch=6 par1=101 par2=64
Channel Event. t= 0 (17879) Note On ch=6 par1=103 par2=78
Channel Event. t= 30 (17909) Note On ch=6 par1=105 par2=83
Channel Event. t= 5 (17914) Note Off ch=6 par1=103 par2=64
Channel Event. t= 25 (17939) Note On ch=6 par1=107 par2=83
Channel Event. t= 15 (17954) Note Off ch=6 par1=105 par2=64
Channel Event. t= 20 (17974) Note On ch=6 par1=108 par2=79
Channel Event. t= 28 (18002) Note Off ch=6 par1=107 par2=64
Channel Event. t= 35 (18037) Note Off ch=6 par1=108 par2=64
Channel Event. t= 292 (18329) Note On ch=6 par1=79 par2=68
Channel Event. t= 20 (18349) Note On ch=6 par1=81 par2=79
Channel Event. t= 23 (18372) Controller ch=6 par1=10 (Pan) par2=15
Channel Event. t= 35 (18407) Note Off ch=6 par1=79 par2=64
Channel Event. t= 7 (18414) Note On ch=6 par1=83 par2=60
Channel Event. t= 18 (18432) Controller ch=6 par1=10 (Pan) par2=30
Channel Event. t= 40 (18472) Note Off ch=6 par1=81 par2=64
Channel Event. t= 12 (18484) Note On ch=6 par1=84 par2=36
Channel Event. t= 8 (18492) Controller ch=6 par1=10 (Pan) par2=45
Channel Event. t= 2 (18494) Note Off ch=6 par1=83 par2=64
Channel Event. t= 28 (18522) Note On ch=6 par1=86 par2=69
Channel Event. t= 12 (18534) Note Off ch=6 par1=84 par2=64
Channel Event. t= 18 (18552) Controller ch=6 par1=10 (Pan) par2=45
Channel Event. t= 7 (18559) Note On ch=6 par1=88 par2=67
Channel Event. t= 3 (18562) Note Off ch=6 par1=86 par2=64
Channel Event. t= 40 (18602) Note Off ch=6 par1=88 par2=64
Channel Event. t= 0 (18602) Note On ch=6 par1=89 par2=58
Channel Event. t= 10 (18612) Controller ch=6 par1=10 (Pan) par2=75
Channel Event. t= 25 (18637) Note On ch=6 par1=91 par2=77
Channel Event. t= 10 (18647) Note Off ch=6 par1=89 par2=64
Channel Event. t= 22 (18669) Note On ch=6 par1=93 par2=78
Channel Event. t= 3 (18672) Controller ch=6 par1=10 (Pan) par2=90
Channel Event. t= 2 (18674) Note Off ch=6 par1=91 par2=64
Channel Event. t= 33 (18707) Note Off ch=6 par1=93 par2=64
Channel Event. t= 0 (18707) Note On ch=6 par1=95 par2=77
Channel Event. t= 25 (18732) Controller ch=6 par1=10 (Pan) par2=105
Channel Event. t= 5 (18737) Note On ch=6 par1=96 par2=82
Channel Event. t= 5 (18742) Note Off ch=6 par1=95 par2=64
Channel Event. t= 27 (18769) Note On ch=6 par1=98 par2=77
Channel Event. t= 3 (18772) Note Off ch=6 par1=96 par2=64
Channel Event. t= 20 (18792) Controller ch=6 par1=10 (Pan) par2=120
Channel Event. t= 10 (18802) Note On ch=6 par1=100 par2=76
Channel Event. t= 5 (18807) Note Off ch=6 par1=98 par2=64
Channel Event. t= 22 (18829) Note On ch=6 par1=101 par2=83
Channel Event. t= 8 (18837) Note Off ch=6 par1=100 par2=64
Channel Event. t= 22 (18859) Note On ch=6 par1=103 par2=86
Channel Event. t= 8 (18867) Note Off ch=6 par1=101 par2=64
Channel Event. t= 20 (18887) Note On ch=6 par1=105 par2=87
Channel Event. t= 10 (18897) Note Off ch=6 par1=103 par2=64
Channel Event. t= 20 (18917) Note On ch=6 par1=107 par2=87
Channel Event. t= 32 (18949) Note Off ch=6 par1=105 par2=64
Channel Event. t= 5 (18954) Note On ch=6 par1=108 par2=77
Channel Event. t= 30 (18984) Note Off ch=6 par1=107 par2=64
Channel Event. t= 10 (18994) Note Off ch=6 par1=108 par2=64
Channel Event. t= 300 (19294) Note On ch=6 par1=79 par2=44
Channel Event. t= 18 (19312) Note On ch=6 par1=81 par2=75
Channel Event. t= 20 (19332) Controller ch=6 par1=10 (Pan) par2=105
Channel Event. t= 20 (19352) Note Off ch=6 par1=79 par2=64
Channel Event. t= 12 (19364) Note On ch=6 par1=83 par2=43
Channel Event. t= 28 (19392) Controller ch=6 par1=10 (Pan) par2=90
Channel Event. t= 25 (19417) Note Off ch=6 par1=81 par2=64
Channel Event. t= 2 (19419) Note On ch=6 par1=84 par2=46
Channel Event. t= 8 (19427) Note Off ch=6 par1=83 par2=64
Channel Event. t= 25 (19452) Note On ch=6 par1=86 par2=77
Channel Event. t= 0 (19452) Controller ch=6 par1=10 (Pan) par2=75
Channel Event. t= 10 (19462) Note Off ch=6 par1=84 par2=64
Channel Event. t= 27 (19489) Note Off ch=6 par1=86 par2=64
Channel Event. t= 0 (19489) Note On ch=6 par1=88 par2=69
Channel Event. t= 23 (19512) Controller ch=6 par1=10 (Pan) par2=60
Channel Event. t= 15 (19527) Note Off ch=6 par1=88 par2=64
Channel Event. t= 0 (19527) Note On ch=6 par1=89 par2=73
Channel Event. t= 35 (19562) Note On ch=6 par1=91 par2=78
Channel Event. t= 2 (19564) Note Off ch=6 par1=89 par2=64
Channel Event. t= 8 (19572) Controller ch=6 par1=10 (Pan) par2=45
Channel Event. t= 22 (19594) Note On ch=6 par1=93 par2=79
Channel Event. t= 5 (19599) Note Off ch=6 par1=91 par2=64
Channel Event. t= 28 (19627) Note On ch=6 par1=95 par2=83
Channel Event. t= 5 (19632) Note Off ch=6 par1=93 par2=64
Channel Event. t= 0 (19632) Controller ch=6 par1=10 (Pan) par2=30
Channel Event. t= 30 (19662) Note On ch=6 par1=96 par2=82
Channel Event. t= 5 (19667) Note Off ch=6 par1=95 par2=64
Channel Event. t= 25 (19692) Controller ch=6 par1=10 (Pan) par2=15
Channel Event. t= 7 (19699) Note On ch=6 par1=98 par2=74
Channel Event. t= 3 (19702) Note Off ch=6 par1=96 par2=64
Channel Event. t= 32 (19734) Note Off ch=6 par1=98 par2=64
Channel Event. t= 0 (19734) Note On ch=6 par1=100 par2=74
Channel Event. t= 18 (19752) Controller ch=6 par1=10 (Pan) par2=1
Channel Event. t= 22 (19774) Note On ch=6 par1=101 par2=69
Channel Event. t= 3 (19777) Note Off ch=6 par1=100 par2=64
Channel Event. t= 32 (19809) Note On ch=6 par1=103 par2=84
Channel Event. t= 3 (19812) Note Off ch=6 par1=101 par2=64
Channel Event. t= 32 (19844) Note On ch=6 par1=105 par2=80
Channel Event. t= 18 (19862) Note Off ch=6 par1=103 par2=64
Channel Event. t= 15 (19877) Note On ch=6 par1=107 par2=83
Channel Event. t= 20 (19897) Note Off ch=6 par1=105 par2=64
Channel Event. t= 20 (19917) Note On ch=6 par1=108 par2=76
Channel Event. t= 5 (19922) Note Off ch=6 par1=107 par2=64
Channel Event. t= 30 (19952) Note Off ch=6 par1=108 par2=64
Channel Event. t= 330 (20282) Note On ch=6 par1=79 par2=46
Channel Event. t= 10 (20292) Controller ch=6 par1=10 (Pan) par2=15
Channel Event. t= 20 (20312) Note On ch=6 par1=81 par2=69
Channel Event. t= 40 (20352) Controller ch=6 par1=10 (Pan) par2=30
Channel Event. t= 15 (20367) Note Off ch=6 par1=79 par2=64
Channel Event. t= 10 (20377) Note On ch=6 par1=83 par2=61
Channel Event. t= 35 (20412) Controller ch=6 par1=10 (Pan) par2=45
Channel Event. t= 20 (20432) Note Off ch=6 par1=81 par2=64
Channel Event. t= 10 (20442) Note On ch=6 par1=84 par2=45
Channel Event. t= 10 (20452) Note Off ch=6 par1=83 par2=64
Channel Event. t= 20 (20472) Controller ch=6 par1=10 (Pan) par2=60
Channel Event. t= 5 (20477) Note On ch=6 par1=86 par2=70
Channel Event. t= 7 (20484) Note Off ch=6 par1=84 par2=64
Channel Event. t= 28 (20512) Note On ch=6 par1=88 par2=74
Channel Event. t= 2 (20514) Note Off ch=6 par1=86 par2=64
Channel Event. t= 18 (20532) Controller ch=6 par1=10 (Pan) par2=75
Channel Event. t= 20 (20552) Note On ch=6 par1=89 par2=66
Channel Event. t= 7 (20559) Note Off ch=6 par1=88 par2=64
Channel Event. t= 28 (20587) Note On ch=6 par1=91 par2=76
Channel Event. t= 5 (20592) Controller ch=6 par1=10 (Pan) par2=90
Channel Event. t= 15 (20607) Note Off ch=6 par1=89 par2=64
Channel Event. t= 20 (20627) Note On ch=6 par1=93 par2=74
Channel Event. t= 15 (20642) Note Off ch=6 par1=91 par2=64
Channel Event. t= 10 (20652) Controller ch=6 par1=10 (Pan) par2=105
Channel Event. t= 7 (20659) Note On ch=6 par1=95 par2=86
Channel Event. t= 10 (20669) Note Off ch=6 par1=93 par2=64
Channel Event. t= 23 (20692) Note On ch=6 par1=96 par2=82
Channel Event. t= 10 (20702) Note Off ch=6 par1=95 par2=64
Channel Event. t= 10 (20712) Controller ch=6 par1=10 (Pan) par2=115
Channel Event. t= 15 (20727) Note On ch=6 par1=98 par2=85
Channel Event. t= 2 (20729) Note Off ch=6 par1=96 par2=64
Channel Event. t= 28 (20757) Note On ch=6 par1=100 par2=79
Channel Event. t= 10 (20767) Note Off ch=6 par1=98 par2=64
Channel Event. t= 20 (20787) Note On ch=6 par1=101 par2=90
Channel Event. t= 12 (20799) Note Off ch=6 par1=100 par2=64
Channel Event. t= 18 (20817) Note On ch=6 par1=103 par2=93
Channel Event. t= 12 (20829) Note Off ch=6 par1=101 par2=64
Channel Event. t= 15 (20844) Note On ch=6 par1=105 par2=92
Channel Event. t= 15 (20859) Note Off ch=6 par1=103 par2=64
Channel Event. t= 13 (20872) Note On ch=6 par1=107 par2=86
Channel Event. t= 27 (20899) Note Off ch=6 par1=105 par2=64
Channel Event. t= 18 (20917) Note On ch=6 par1=108 par2=58
Channel Event. t= 70 (20987) Note Off ch=6 par1=107 par2=64
Channel Event. t= 27 (21014) Note Off ch=6 par1=108 par2=64
Channel Event. t= 15418 (36432) Controller ch=6 par1=10 (Pan) par2=120
Channel Event. t= 10 (36442) Note On ch=6 par1=79 par2=57
Channel Event. t= 50 (36492) Controller ch=6 par1=10 (Pan) par2=105
Channel Event. t= 37 (36529) Note On ch=6 par1=81 par2=41
Channel Event. t= 23 (36552) Controller ch=6 par1=10 (Pan) par2=90
Channel Event. t= 25 (36577) Note Off ch=6 par1=79 par2=64
Channel Event. t= 0 (36577) Note On ch=6 par1=83 par2=68
Channel Event. t= 35 (36612) Controller ch=6 par1=10 (Pan) par2=75
Channel Event. t= 12 (36624) Note On ch=6 par1=84 par2=85
Channel Event. t= 3 (36627) Note Off ch=6 par1=81 par2=64
Channel Event. t= 15 (36642) Note Off ch=6 par1=83 par2=64
Channel Event. t= 15 (36657) Note On ch=6 par1=86 par2=79
Channel Event. t= 15 (36672) Controller ch=6 par1=10 (Pan) par2=60
Channel Event. t= 10 (36682) Note Off ch=6 par1=84 par2=64
Channel Event. t= 5 (36687) Note On ch=6 par1=88 par2=84
Channel Event. t= 30 (36717) Note On ch=6 par1=89 par2=77
Channel Event. t= 15 (36732) Controller ch=6 par1=10 (Pan) par2=45
Channel Event. t= 5 (36737) Note Off ch=6 par1=86 par2=64
Channel Event. t= 7 (36744) Note On ch=6 par1=91 par2=90
Channel Event. t= 8 (36752) Note Off ch=6 par1=88 par2=64
Channel Event. t= 25 (36777) Note On ch=6 par1=93 par2=81
Channel Event. t= 15 (36792) Controller ch=6 par1=10 (Pan) par2=30
Channel Event. t= 2 (36794) Note Off ch=6 par1=89 par2=64
Channel Event. t= 18 (36812) Note On ch=6 par1=95 par2=81
Channel Event. t= 22 (36834) Note Off ch=6 par1=91 par2=64
Channel Event. t= 3 (36837) Note On ch=6 par1=96 par2=92
Channel Event. t= 15 (36852) Controller ch=6 par1=10 (Pan) par2=15
Channel Event. t= 12 (36864) Note Off ch=6 par1=93 par2=64
Channel Event. t= 3 (36867) Note On ch=6 par1=98 par2=89
Channel Event. t= 12 (36879) Note Off ch=6 par1=95 par2=64
Channel Event. t= 20 (36899) Note On ch=6 par1=100 par2=81
Channel Event. t= 13 (36912) Controller ch=6 par1=10 (Pan) par2=1
Channel Event. t= 5 (36917) Note Off ch=6 par1=96 par2=64
Channel Event. t= 10 (36927) Note On ch=6 par1=101 par2=92
Channel Event. t= 27 (36954) Note Off ch=6 par1=98 par2=64
Channel Event. t= 3 (36957) Note On ch=6 par1=103 par2=91
Channel Event. t= 17 (36974) Note Off ch=6 par1=100 par2=64
Channel Event. t= 13 (36987) Note On ch=6 par1=105 par2=90
Channel Event. t= 25 (37012) Note Off ch=6 par1=101 par2=64
Channel Event. t= 2 (37014) Note On ch=6 par1=107 par2=91
Channel Event. t= 25 (37039) Note Off ch=6 par1=103 par2=64
Channel Event. t= 13 (37052) Note On ch=6 par1=108 par2=92
Channel Event. t= 15 (37067) Note Off ch=6 par1=105 par2=64
Channel Event. t= 30 (37097) Note Off ch=6 par1=107 par2=64
Channel Event. t= 42 (37139) Note Off ch=6 par1=108 par2=64
Channel Event. t= 243 (37382) Note On ch=6 par1=79 par2=34
Channel Event. t= 10 (37392) Controller ch=6 par1=10 (Pan) par2=15
Channel Event. t= 27 (37419) Note On ch=6 par1=81 par2=54
Channel Event. t= 33 (37452) Controller ch=6 par1=10 (Pan) par2=30
Channel Event. t= 27 (37479) Note Off ch=6 par1=79 par2=64
Channel Event. t= 5 (37484) Note On ch=6 par1=83 par2=75
Channel Event. t= 28 (37512) Controller ch=6 par1=10 (Pan) par2=45
Channel Event. t= 15 (37527) Note Off ch=6 par1=81 par2=64
Channel Event. t= 0 (37527) Note On ch=6 par1=84 par2=87
Channel Event. t= 20 (37547) Note Off ch=6 par1=83 par2=64
Channel Event. t= 12 (37559) Note On ch=6 par1=86 par2=82
Channel Event. t= 13 (37572) Note Off ch=6 par1=84 par2=64
Channel Event. t= 0 (37572) Controller ch=6 par1=10 (Pan) par2=60
Channel Event. t= 12 (37584) Note On ch=6 par1=88 par2=97
Channel Event. t= 5 (37589) Note Off ch=6 par1=86 par2=64
Channel Event. t= 23 (37612) Note On ch=6 par1=89 par2=94
Channel Event. t= 2 (37614) Note Off ch=6 par1=88 par2=64
Channel Event. t= 18 (37632) Controller ch=6 par1=10 (Pan) par2=75
Channel Event. t= 5 (37637) Note On ch=6 par1=91 par2=102
Channel Event. t= 2 (37639) Note Off ch=6 par1=89 par2=64
Channel Event. t= 23 (37662) Note On ch=6 par1=93 par2=93
Channel Event. t= 5 (37667) Note Off ch=6 par1=91 par2=64
Channel Event. t= 17 (37684) Note On ch=6 par1=95 par2=104
Channel Event. t= 8 (37692) Note Off ch=6 par1=93 par2=64
Channel Event. t= 0 (37692) Controller ch=6 par1=10 (Pan) par2=90
Channel Event. t= 17 (37709) Note On ch=6 par1=96 par2=102
Channel Event. t= 10 (37719) Note Off ch=6 par1=95 par2=64
Channel Event. t= 13 (37732) Note On ch=6 par1=98 par2=102
Channel Event. t= 7 (37739) Note Off ch=6 par1=96 par2=64
Channel Event. t= 13 (37752) Controller ch=6 par1=10 (Pan) par2=105
Channel Event. t= 2 (37754) Note On ch=6 par1=100 par2=99
Channel Event. t= 10 (37764) Note Off ch=6 par1=98 par2=64
Channel Event. t= 13 (37777) Note On ch=6 par1=101 par2=106
Channel Event. t= 7 (37784) Note Off ch=6 par1=100 par2=64
Channel Event. t= 18 (37802) Note On ch=6 par1=103 par2=103
Channel Event. t= 5 (37807) Note Off ch=6 par1=101 par2=64
Channel Event. t= 5 (37812) Controller ch=6 par1=10 (Pan) par2=120
Channel Event. t= 10 (37822) Note On ch=6 par1=105 par2=100
Channel Event. t= 12 (37834) Note Off ch=6 par1=103 par2=64
Channel Event. t= 10 (37844) Note On ch=6 par1=107 par2=98
Channel Event. t= 28 (37872) Note On ch=6 par1=108 par2=93
Channel Event. t= 2 (37874) Note Off ch=6 par1=105 par2=64
Channel Event. t= 45 (37919) Note Off ch=6 par1=107 par2=64
Channel Event. t= 140 (38059) Note Off ch=6 par1=108 par2=64
Channel Event. t= 24533 (62592) Controller ch=6 par1=10 (Pan) par2=1
Channel Event. t= 2 (62594) Note On ch=6 par1=79 par2=73
Channel Event. t= 35 (62629) Note On ch=6 par1=81 par2=63
Channel Event. t= 23 (62652) Controller ch=6 par1=10 (Pan) par2=15
Channel Event. t= 32 (62684) Note Off ch=6 par1=79 par2=64
Channel Event. t= 0 (62684) Note On ch=6 par1=83 par2=70
Channel Event. t= 28 (62712) Controller ch=6 par1=10 (Pan) par2=30
Channel Event. t= 27 (62739) Note Off ch=6 par1=81 par2=64
Channel Event. t= 3 (62742) Note On ch=6 par1=84 par2=77
Channel Event. t= 30 (62772) Controller ch=6 par1=10 (Pan) par2=45
Channel Event. t= 10 (62782) Note Off ch=6 par1=83 par2=64
Channel Event. t= 0 (62782) Note On ch=6 par1=86 par2=83
Channel Event. t= 40 (62822) Note On ch=6 par1=88 par2=77
Channel Event. t= 2 (62824) Note Off ch=6 par1=84 par2=64
Channel Event. t= 8 (62832) Controller ch=6 par1=10 (Pan) par2=60
Channel Event. t= 27 (62859) Note On ch=6 par1=89 par2=77
Channel Event. t= 3 (62862) Note Off ch=6 par1=86 par2=64
Channel Event. t= 17 (62879) Note Off ch=6 par1=88 par2=64
Channel Event. t= 13 (62892) Controller ch=6 par1=10 (Pan) par2=75
Channel Event. t= 2 (62894) Note On ch=6 par1=91 par2=81
Channel Event. t= 23 (62917) Note Off ch=6 par1=89 par2=64
Channel Event. t= 10 (62927) Note On ch=6 par1=93 par2=82
Channel Event. t= 25 (62952) Controller ch=6 par1=10 (Pan) par2=90
Channel Event. t= 7 (62959) Note Off ch=6 par1=91 par2=64
Channel Event. t= 0 (62959) Note On ch=6 par1=95 par2=87
Channel Event. t= 25 (62984) Note Off ch=6 par1=93 par2=64
Channel Event. t= 8 (62992) Note On ch=6 par1=96 par2=90
Channel Event. t= 20 (63012) Controller ch=6 par1=10 (Pan) par2=105
Channel Event. t= 2 (63014) Note Off ch=6 par1=95 par2=64
Channel Event. t= 13 (63027) Note On ch=6 par1=98 par2=86
Channel Event. t= 30 (63057) Note Off ch=6 par1=96 par2=64
Channel Event. t= 2 (63059) Note On ch=6 par1=100 par2=82
Channel Event. t= 13 (63072) Controller ch=6 par1=10 (Pan) par2=120
Channel Event. t= 20 (63092) Note Off ch=6 par1=98 par2=64
Channel Event. t= 2 (63094) Note On ch=6 par1=101 par2=88
Channel Event. t= 30 (63124) Note On ch=6 par1=103 par2=89
Channel Event. t= 8 (63132) Note Off ch=6 par1=100 par2=64
Channel Event. t= 22 (63154) Note On ch=6 par1=105 par2=90
Channel Event. t= 23 (63177) Note Off ch=6 par1=101 par2=64
Channel Event. t= 10 (63187) Note On ch=6 par1=107 par2=88
Channel Event. t= 10 (63197) Note Off ch=6 par1=103 par2=64
Channel Event. t= 32 (63229) Note Off ch=6 par1=105 par2=64
Channel Event. t= 23 (63252) Note Off ch=6 par1=107 par2=64
Channel Event. t= 255 (63507) Note On ch=6 par1=79 par2=69
Channel Event. t= 30 (63537) Note On ch=6 par1=81 par2=71
Channel Event. t= 15 (63552) Controller ch=6 par1=10 (Pan) par2=105
Channel Event. t= 35 (63587) Note Off ch=6 par1=79 par2=64
Channel Event. t= 12 (63599) Note On ch=6 par1=83 par2=69
Channel Event. t= 13 (63612) Controller ch=6 par1=10 (Pan) par2=90
Channel Event. t= 35 (63647) Note Off ch=6 par1=81 par2=64
Channel Event. t= 2 (63649) Note On ch=6 par1=84 par2=77
Channel Event. t= 23 (63672) Controller ch=6 par1=10 (Pan) par2=75
Channel Event. t= 20 (63692) Note On ch=6 par1=86 par2=78
Channel Event. t= 5 (63697) Note Off ch=6 par1=83 par2=64
Channel Event. t= 32 (63729) Note Off ch=6 par1=84 par2=64
Channel Event. t= 3 (63732) Note On ch=6 par1=88 par2=69
Channel Event. t= 0 (63732) Controller ch=6 par1=10 (Pan) par2=60
Channel Event. t= 25 (63757) Note Off ch=6 par1=86 par2=64
Channel Event. t= 7 (63764) Note On ch=6 par1=89 par2=80
Channel Event. t= 10 (63774) Note Off ch=6 par1=88 par2=64
Channel Event. t= 18 (63792) Controller ch=6 par1=10 (Pan) par2=45
Channel Event. t= 7 (63799) Note On ch=6 par1=91 par2=74
Channel Event. t= 13 (63812) Note Off ch=6 par1=89 par2=64
Channel Event. t= 22 (63834) Note On ch=6 par1=93 par2=81
Channel Event. t= 10 (63844) Note Off ch=6 par1=91 par2=64
Channel Event. t= 8 (63852) Controller ch=6 par1=10 (Pan) par2=30
Channel Event. t= 15 (63867) Note On ch=6 par1=95 par2=79
Channel Event. t= 7 (63874) Note Off ch=6 par1=93 par2=64
Channel Event. t= 25 (63899) Note On ch=6 par1=96 par2=88
Channel Event. t= 8 (63907) Note Off ch=6 par1=95 par2=64
Channel Event. t= 5 (63912) Controller ch=6 par1=10 (Pan) par2=15
Channel Event. t= 22 (63934) Note On ch=6 par1=98 par2=83
Channel Event. t= 5 (63939) Note Off ch=6 par1=96 par2=64
Channel Event. t= 25 (63964) Note On ch=6 par1=100 par2=88
Channel Event. t= 3 (63967) Note Off ch=6 par1=98 par2=64
Channel Event. t= 5 (63972) Controller ch=6 par1=10 (Pan) par2=1
Channel Event. t= 25 (63997) Note On ch=6 par1=101 par2=89
Channel Event. t= 2 (63999) Note Off ch=6 par1=100 par2=64
Channel Event. t= 30 (64029) Note On ch=6 par1=103 par2=88
Channel Event. t= 15 (64044) Note Off ch=6 par1=101 par2=64
Channel Event. t= 15 (64059) Note On ch=6 par1=105 par2=89
Channel Event. t= 20 (64079) Note Off ch=6 par1=103 par2=64
Channel Event. t= 8 (64087) Note On ch=6 par1=107 par2=88
Channel Event. t= 37 (64124) Note On ch=6 par1=108 par2=80
Channel Event. t= 5 (64129) Note Off ch=6 par1=105 par2=64
Channel Event. t= 33 (64162) Note Off ch=6 par1=107 par2=64
Channel Event. t= 45 (64207) Note Off ch=6 par1=108 par2=64
Channel Event. t= 277 (64484) Note On ch=6 par1=79 par2=52
Channel Event. t= 10 (64494) Note On ch=6 par1=81 par2=82
Channel Event. t= 18 (64512) Controller ch=6 par1=10 (Pan) par2=15
Channel Event. t= 30 (64542) Note On ch=6 par1=83 par2=72
Channel Event. t= 2 (64544) Note Off ch=6 par1=79 par2=64
Channel Event. t= 28 (64572) Controller ch=6 par1=10 (Pan) par2=30
Channel Event. t= 20 (64592) Note Off ch=6 par1=81 par2=64
Channel Event. t= 2 (64594) Note On ch=6 par1=84 par2=74
Channel Event. t= 15 (64609) Note Off ch=6 par1=83 par2=64
Channel Event. t= 20 (64629) Note On ch=6 par1=86 par2=75
Channel Event. t= 3 (64632) Controller ch=6 par1=10 (Pan) par2=45
Channel Event. t= 2 (64634) Note Off ch=6 par1=84 par2=64
Channel Event. t= 28 (64662) Note On ch=6 par1=88 par2=82
Channel Event. t= 5 (64667) Note Off ch=6 par1=86 par2=64
Channel Event. t= 25 (64692) Controller ch=6 par1=10 (Pan) par2=60
Channel Event. t= 10 (64702) Note On ch=6 par1=89 par2=69
Channel Event. t= 10 (64712) Note Off ch=6 par1=88 par2=64
Channel Event. t= 22 (64734) Note On ch=6 par1=91 par2=85
Channel Event. t= 5 (64739) Note Off ch=6 par1=89 par2=64
Channel Event. t= 13 (64752) Controller ch=6 par1=10 (Pan) par2=75
Channel Event. t= 20 (64772) Note On ch=6 par1=93 par2=72
Channel Event. t= 12 (64784) Note Off ch=6 par1=91 par2=64
Channel Event. t= 20 (64804) Note On ch=6 par1=95 par2=81
Channel Event. t= 8 (64812) Note Off ch=6 par1=93 par2=64
Channel Event. t= 0 (64812) Controller ch=6 par1=10 (Pan) par2=90
Channel Event. t= 32 (64844) Note Off ch=6 par1=95 par2=64
Channel Event. t= 0 (64844) Note On ch=6 par1=96 par2=77
Channel Event. t= 28 (64872) Controller ch=6 par1=10 (Pan) par2=105
Channel Event. t= 5 (64877) Note Off ch=6 par1=96 par2=64
Channel Event. t= 2 (64879) Note On ch=6 par1=98 par2=85
Channel Event. t= 33 (64912) Note Off ch=6 par1=98 par2=64
Channel Event. t= 5 (64917) Note On ch=6 par1=100 par2=76
Channel Event. t= 15 (64932) Controller ch=6 par1=10 (Pan) par2=120
Channel Event. t= 17 (64949) Note Off ch=6 par1=100 par2=64
Channel Event. t= 0 (64949) Note On ch=6 par1=101 par2=86
Channel Event. t= 33 (64982) Note Off ch=6 par1=101 par2=64
Channel Event. t= 0 (64982) Note On ch=6 par1=103 par2=89
Channel Event. t= 27 (65009) Note On ch=6 par1=105 par2=89
Channel Event. t= 5 (65014) Note Off ch=6 par1=103 par2=64
Channel Event. t= 20 (65034) Note On ch=6 par1=107 par2=92
Channel Event. t= 10 (65044) Note Off ch=6 par1=105 par2=64
Channel Event. t= 23 (65067) Note On ch=6 par1=108 par2=88
Channel Event. t= 17 (65084) Note Off ch=6 par1=107 par2=64
Channel Event. t= 38 (65122) Note Off ch=6 par1=108 par2=64
Channel Event. t= 320 (65442) Note On ch=6 par1=79 par2=68
Channel Event. t= 30 (65472) Controller ch=6 par1=10 (Pan) par2=105
Channel Event. t= 7 (65479) Note On ch=6 par1=81 par2=64
Channel Event. t= 50 (65529) Note On ch=6 par1=83 par2=64
Channel Event. t= 3 (65532) Controller ch=6 par1=10 (Pan) par2=90
Channel Event. t= 7 (65539) Note Off ch=6 par1=79 par2=64
Channel Event. t= 38 (65577) Note Off ch=6 par1=81 par2=64
Channel Event. t= 0 (65577) Note On ch=6 par1=84 par2=61
Channel Event. t= 5 (65582) Note Off ch=6 par1=83 par2=64
Channel Event. t= 10 (65592) Controller ch=6 par1=10 (Pan) par2=75
Channel Event. t= 15 (65607) Note On ch=6 par1=86 par2=86
Channel Event. t= 5 (65612) Note Off ch=6 par1=84 par2=64
Channel Event. t= 30 (65642) Note On ch=6 par1=88 par2=75
Channel Event. t= 5 (65647) Note Off ch=6 par1=86 par2=64
Channel Event. t= 5 (65652) Controller ch=6 par1=10 (Pan) par2=60
Channel Event. t= 25 (65677) Note On ch=6 par1=89 par2=83
Channel Event. t= 7 (65684) Note Off ch=6 par1=88 par2=64
Channel Event. t= 25 (65709) Note On ch=6 par1=91 par2=81
Channel Event. t= 3 (65712) Controller ch=6 par1=10 (Pan) par2=45
Channel Event. t= 7 (65719) Note Off ch=6 par1=89 par2=64
Channel Event. t= 25 (65744) Note On ch=6 par1=93 par2=82
Channel Event. t= 8 (65752) Note Off ch=6 par1=91 par2=64
Channel Event. t= 20 (65772) Controller ch=6 par1=10 (Pan) par2=30
Channel Event. t= 5 (65777) Note On ch=6 par1=95 par2=85
Channel Event. t= 2 (65779) Note Off ch=6 par1=93 par2=64
Channel Event. t= 30 (65809) Note Off ch=6 par1=95 par2=64
Channel Event. t= 0 (65809) Note On ch=6 par1=96 par2=92
Channel Event. t= 23 (65832) Controller ch=6 par1=10 (Pan) par2=15
Channel Event. t= 7 (65839) Note Off ch=6 par1=96 par2=64
Channel Event. t= 0 (65839) Note On ch=6 par1=98 par2=88
Channel Event. t= 30 (65869) Note On ch=6 par1=100 par2=85
Channel Event. t= 3 (65872) Note Off ch=6 par1=98 par2=64
Channel Event. t= 20 (65892) Controller ch=6 par1=10 (Pan) par2=1
Channel Event. t= 7 (65899) Note On ch=6 par1=101 par2=88
Channel Event. t= 3 (65902) Note Off ch=6 par1=100 par2=64
Channel Event. t= 27 (65929) Note On ch=6 par1=103 par2=86
Channel Event. t= 3 (65932) Note Off ch=6 par1=101 par2=64
Channel Event. t= 22 (65954) Note On ch=6 par1=105 par2=91
Channel Event. t= 8 (65962) Note Off ch=6 par1=103 par2=64
Channel Event. t= 17 (65979) Note On ch=6 par1=107 par2=92
Channel Event. t= 13 (65992) Note Off ch=6 par1=105 par2=64
Channel Event. t= 17 (66009) Note On ch=6 par1=108 par2=88
Channel Event. t= 35 (66044) Note Off ch=6 par1=107 par2=64
Channel Event. t= 58 (66102) Note Off ch=6 par1=108 par2=64
Channel Event. t= 315 (66417) Note On ch=6 par1=79 par2=66
Channel Event. t= 15 (66432) Controller ch=6 par1=10 (Pan) par2=15
Channel Event. t= 20 (66452) Note On ch=6 par1=81 par2=66
Channel Event. t= 40 (66492) Controller ch=6 par1=10 (Pan) par2=30
Channel Event. t= 5 (66497) Note Off ch=6 par1=79 par2=64
Channel Event. t= 12 (66509) Note On ch=6 par1=83 par2=75
Channel Event. t= 43 (66552) Controller ch=6 par1=10 (Pan) par2=45
Channel Event. t= 7 (66559) Note Off ch=6 par1=81 par2=64
Channel Event. t= 8 (66567) Note On ch=6 par1=84 par2=69
Channel Event. t= 7 (66574) Note Off ch=6 par1=83 par2=64
Channel Event. t= 28 (66602) Note Off ch=6 par1=84 par2=64
Channel Event. t= 0 (66602) Note On ch=6 par1=86 par2=86
Channel Event. t= 10 (66612) Controller ch=6 par1=10 (Pan) par2=60
Channel Event. t= 25 (66637) Note Off ch=6 par1=86 par2=64
Channel Event. t= 0 (66637) Note On ch=6 par1=88 par2=76
Channel Event. t= 30 (66667) Note On ch=6 par1=89 par2=87
Channel Event. t= 2 (66669) Note Off ch=6 par1=88 par2=64
Channel Event. t= 3 (66672) Controller ch=6 par1=10 (Pan) par2=75
Channel Event. t= 27 (66699) Note Off ch=6 par1=89 par2=64
Channel Event. t= 0 (66699) Note On ch=6 par1=91 par2=87
Channel Event. t= 33 (66732) Note Off ch=6 par1=91 par2=64
Channel Event. t= 0 (66732) Note On ch=6 par1=93 par2=88
Channel Event. t= 0 (66732) Controller ch=6 par1=10 (Pan) par2=90
Channel Event. t= 27 (66759) Note On ch=6 par1=95 par2=89
Channel Event. t= 5 (66764) Note Off ch=6 par1=93 par2=64
Channel Event. t= 25 (66789) Note On ch=6 par1=96 par2=90
Channel Event. t= 3 (66792) Note Off ch=6 par1=95 par2=64
Channel Event. t= 0 (66792) Controller ch=6 par1=10 (Pan) par2=105
Channel Event. t= 25 (66817) Note On ch=6 par1=98 par2=89
Channel Event. t= 5 (66822) Note Off ch=6 par1=96 par2=64
Channel Event. t= 22 (66844) Note On ch=6 par1=100 par2=86
Channel Event. t= 5 (66849) Note Off ch=6 par1=98 par2=64
Channel Event. t= 3 (66852) Controller ch=6 par1=10 (Pan) par2=120
Channel Event. t= 17 (66869) Note On ch=6 par1=101 par2=89
Channel Event. t= 10 (66879) Note Off ch=6 par1=100 par2=64
Channel Event. t= 18 (66897) Note On ch=6 par1=103 par2=91
Channel Event. t= 7 (66904) Note Off ch=6 par1=101 par2=64
Channel Event. t= 15 (66919) Note On ch=6 par1=105 par2=90
Channel Event. t= 10 (66929) Note Off ch=6 par1=103 par2=64
Channel Event. t= 13 (66942) Note On ch=6 par1=107 par2=92
Channel Event. t= 10 (66952) Note Off ch=6 par1=105 par2=64
Channel Event. t= 17 (66969) Note On ch=6 par1=108 par2=88
Channel Event. t= 10 (66979) Note Off ch=6 par1=107 par2=64
Channel Event. t= 83 (67062) Note Off ch=6 par1=108 par2=64
Channel Event. t= 340 (67402) Note On ch=6 par1=79 par2=75
Channel Event. t= 40 (67442) Note On ch=6 par1=81 par2=48
Channel Event. t= 10 (67452) Controller ch=6 par1=10 (Pan) par2=105
Channel Event. t= 30 (67482) Note Off ch=6 par1=79 par2=64
Channel Event. t= 20 (67502) Note On ch=6 par1=83 par2=74
Channel Event. t= 10 (67512) Controller ch=6 par1=10 (Pan) par2=90
Channel Event. t= 37 (67549) Note Off ch=6 par1=81 par2=64
Channel Event. t= 5 (67554) Note On ch=6 par1=84 par2=72
Channel Event. t= 18 (67572) Controller ch=6 par1=10 (Pan) par2=75
Channel Event. t= 12 (67584) Note Off ch=6 par1=83 par2=64
Channel Event. t= 13 (67597) Note On ch=6 par1=86 par2=69
Channel Event. t= 20 (67617) Note Off ch=6 par1=84 par2=64
Channel Event. t= 10 (67627) Note On ch=6 par1=88 par2=88
Channel Event. t= 5 (67632) Controller ch=6 par1=10 (Pan) par2=60
Channel Event. t= 15 (67647) Note Off ch=6 par1=86 par2=64
Channel Event. t= 15 (67662) Note On ch=6 par1=89 par2=71
Channel Event. t= 27 (67689) Note Off ch=6 par1=88 par2=64
Channel Event. t= 3 (67692) Controller ch=6 par1=10 (Pan) par2=45
Channel Event. t= 2 (67694) Note On ch=6 par1=91 par2=88
Channel Event. t= 8 (67702) Note Off ch=6 par1=89 par2=64
Channel Event. t= 27 (67729) Note On ch=6 par1=93 par2=74
Channel Event. t= 8 (67737) Note Off ch=6 par1=91 par2=64
Channel Event. t= 15 (67752) Controller ch=6 par1=10 (Pan) par2=30
Channel Event. t= 5 (67757) Note On ch=6 par1=95 par2=92
Channel Event. t= 10 (67767) Note Off ch=6 par1=93 par2=64
Channel Event. t= 20 (67787) Note On ch=6 par1=96 par2=90
Channel Event. t= 5 (67792) Note Off ch=6 par1=95 par2=64
Channel Event. t= 20 (67812) Controller ch=6 par1=10 (Pan) par2=15
Channel Event. t= 7 (67819) Note Off ch=6 par1=96 par2=64
Channel Event. t= 0 (67819) Note On ch=6 par1=98 par2=92
Channel Event. t= 28 (67847) Note On ch=6 par1=100 par2=86
Channel Event. t= 2 (67849) Note Off ch=6 par1=98 par2=64
Channel Event. t= 23 (67872) Controller ch=6 par1=10 (Pan) par2=1
Channel Event. t= 5 (67877) Note On ch=6 par1=101 par2=94
Channel Event. t= 2 (67879) Note Off ch=6 par1=100 par2=64
Channel Event. t= 23 (67902) Note On ch=6 par1=103 par2=94
Channel Event. t= 7 (67909) Note Off ch=6 par1=101 par2=64
Channel Event. t= 18 (67927) Note On ch=6 par1=105 par2=95
Channel Event. t= 17 (67944) Note Off ch=6 par1=103 par2=64
Channel Event. t= 8 (67952) Note On ch=6 par1=107 par2=91
Channel Event. t= 30 (67982) Note On ch=6 par1=108 par2=86
Channel Event. t= 5 (67987) Note Off ch=6 par1=105 par2=64
Channel Event. t= 25 (68012) Note Off ch=6 par1=107 par2=64
Channel Event. t= 15 (68027) Note Off ch=6 par1=108 par2=64
Channel Event. t= 310 (68337) Note On ch=6 par1=79 par2=53
Channel Event. t= 15 (68352) Controller ch=6 par1=10 (Pan) par2=15
Channel Event. t= 10 (68362) Note On ch=6 par1=81 par2=79
Channel Event. t= 35 (68397) Note Off ch=6 par1=79 par2=64
Channel Event. t= 15 (68412) Note On ch=6 par1=83 par2=70
Channel Event. t= 0 (68412) Controller ch=6 par1=10 (Pan) par2=30
Channel Event. t= 45 (68457) Note Off ch=6 par1=81 par2=64
Channel Event. t= 5 (68462) Note On ch=6 par1=84 par2=59
Channel Event. t= 10 (68472) Controller ch=6 par1=10 (Pan) par2=45
Channel Event. t= 5 (68477) Note Off ch=6 par1=83 par2=64
Channel Event. t= 12 (68489) Note On ch=6 par1=86 par2=87
Channel Event. t= 10 (68499) Note Off ch=6 par1=84 par2=64
Channel Event. t= 20 (68519) Note On ch=6 par1=88 par2=86
Channel Event. t= 3 (68522) Note Off ch=6 par1=86 par2=64
Channel Event. t= 10 (68532) Controller ch=6 par1=10 (Pan) par2=60
Channel Event. t= 20 (68552) Note Off ch=6 par1=88 par2=64
Channel Event. t= 0 (68552) Note On ch=6 par1=89 par2=86
Channel Event. t= 27 (68579) Note On ch=6 par1=91 par2=88
Channel Event. t= 5 (68584) Note Off ch=6 par1=89 par2=64
Channel Event. t= 8 (68592) Controller ch=6 par1=10 (Pan) par2=75
Channel Event. t= 15 (68607) Note On ch=6 par1=93 par2=86
Channel Event. t= 7 (68614) Note Off ch=6 par1=91 par2=64
Channel Event. t= 20 (68634) Note On ch=6 par1=95 par2=91
Channel Event. t= 8 (68642) Note Off ch=6 par1=93 par2=64
Channel Event. t= 10 (68652) Controller ch=6 par1=10 (Pan) par2=90
Channel Event. t= 7 (68659) Note On ch=6 par1=96 par2=92
Channel Event. t= 8 (68667) Note Off ch=6 par1=95 par2=64
Channel Event. t= 17 (68684) Note On ch=6 par1=98 par2=91
Channel Event. t= 8 (68692) Note Off ch=6 par1=96 par2=64
Channel Event. t= 15 (68707) Note On ch=6 par1=100 par2=90
Channel Event. t= 5 (68712) Controller ch=6 par1=10 (Pan) par2=105
Channel Event. t= 2 (68714) Note Off ch=6 par1=98 par2=64
Channel Event. t= 15 (68729) Note On ch=6 par1=101 par2=95
Channel Event. t= 8 (68737) Note Off ch=6 par1=100 par2=64
Channel Event. t= 15 (68752) Note On ch=6 par1=103 par2=94
Channel Event. t= 7 (68759) Note Off ch=6 par1=101 par2=64
Channel Event. t= 13 (68772) Note On ch=6 par1=105 par2=94
Channel Event. t= 0 (68772) Controller ch=6 par1=10 (Pan) par2=120
Channel Event. t= 10 (68782) Note Off ch=6 par1=103 par2=64
Channel Event. t= 12 (68794) Note On ch=6 par1=107 par2=94
Channel Event. t= 8 (68802) Note Off ch=6 par1=105 par2=64
Channel Event. t= 17 (68819) Note On ch=6 par1=108 par2=89
Channel Event. t= 28 (68847) Note Off ch=6 par1=107 par2=64
Channel Event. t= 185 (69032) Note Off ch=6 par1=108 par2=64
Channel Event. t= 101920 (170952) Controller ch=6 par1=7 (Main Volume) par2=40
Channel Event. t= 355 (171307) Note On ch=6 par1=79 par2=68
Channel Event. t= 35 (171342) Note On ch=6 par1=81 par2=45
Channel Event. t= 42 (171384) Note Off ch=6 par1=79 par2=64
Channel Event. t= 0 (171384) Note On ch=6 par1=83 par2=73
Channel Event. t= 35 (171419) Note On ch=6 par1=84 par2=79
Channel Event. t= 5 (171424) Note Off ch=6 par1=81 par2=64
Channel Event. t= 23 (171447) Note On ch=6 par1=86 par2=76
Channel Event. t= 2 (171449) Note Off ch=6 par1=83 par2=64
Channel Event. t= 20 (171469) Note On ch=6 par1=88 par2=82
Channel Event. t= 18 (171487) Note Off ch=6 par1=84 par2=64
Channel Event. t= 7 (171494) Note On ch=6 par1=89 par2=85
Channel Event. t= 20 (171514) Note Off ch=6 par1=86 par2=64
Channel Event. t= 3 (171517) Note On ch=6 par1=91 par2=93
Channel Event. t= 10 (171527) Note Off ch=6 par1=88 par2=64
Channel Event. t= 10 (171537) Note Off ch=6 par1=89 par2=64
Channel Event. t= 2 (171539) Note On ch=6 par1=93 par2=90
Channel Event. t= 18 (171557) Note Off ch=6 par1=91 par2=64
Channel Event. t= 5 (171562) Note On ch=6 par1=95 par2=95
Channel Event. t= 12 (171574) Note Off ch=6 par1=93 par2=64
Channel Event. t= 10 (171584) Note On ch=6 par1=96 par2=96
Channel Event. t= 10 (171594) Note Off ch=6 par1=95 par2=64
Channel Event. t= 10 (171604) Note On ch=6 par1=98 par2=103
Channel Event. t= 10 (171614) Note Off ch=6 par1=96 par2=64
Channel Event. t= 13 (171627) Note On ch=6 par1=100 par2=97
Channel Event. t= 5 (171632) Note Off ch=6 par1=98 par2=64
Channel Event. t= 12 (171644) Note On ch=6 par1=101 par2=97
Channel Event. t= 5 (171649) Note Off ch=6 par1=100 par2=64
Channel Event. t= 13 (171662) Note On ch=6 par1=103 par2=106
Channel Event. t= 7 (171669) Note Off ch=6 par1=101 par2=64
Channel Event. t= 13 (171682) Note On ch=6 par1=105 par2=104
Channel Event. t= 2 (171684) Note Off ch=6 par1=103 par2=64
Channel Event. t= 15 (171699) Note On ch=6 par1=107 par2=103
Channel Event. t= 8 (171707) Note Off ch=6 par1=105 par2=64
Channel Event. t= 10 (171717) Note On ch=6 par1=108 par2=102
Channel Event. t= 10 (171727) Note Off ch=6 par1=107 par2=64
Channel Event. t= 30 (171757) Note Off ch=6 par1=108 par2=64
Channel Event. t= 0 (171757) 
Meta Event. Type: 0x2f (47dec), End of Track (0 bytes): 
track #35
track size: 921
Channel Event. t= 0 (0) 
Meta Event. Type: 0x3 (3dec), Sequence/Track Name (20 bytes): Flute               
Channel Event. t= 0 (0) 
Meta Event. Type: 0x21 (33dec), MIDI Port (1 bytes): 0
Channel Event. t= 0 (0) 
Meta Event. Type: 0x20 (32dec), MIDI Channel Prefix (1 bytes): 1
Channel Event. t= 0 (0) Controller ch=1 par1=10 (Pan) par2=64
Channel Event. t= 0 (0) Controller ch=1 par1=91 (Effects 2 Depth (formerly Tremolo Depth)) par2=127
Channel Event. t= 0 (0) Program Change ch=1 par1=72 par2=-101
Channel Event. t= 13872 (13872) Controller ch=1 par1=10 (Pan) par2=120
Channel Event. t= 66000 (79872) Controller ch=1 par1=7 (Main Volume) par2=70
Channel Event. t= 120 (79992) Controller ch=1 par1=7 (Main Volume) par2=71
Channel Event. t= 60 (80052) Controller ch=1 par1=10 (Pan) par2=120
Channel Event. t= 60 (80112) Controller ch=1 par1=7 (Main Volume) par2=72
Channel Event. t= 60 (80172) Controller ch=1 par1=7 (Main Volume) par2=73
Channel Event. t= 67 (80239) Note On ch=1 par1=60 par2=73
Channel Event. t= 53 (80292) Controller ch=1 par1=7 (Main Volume) par2=74
Channel Event. t= 5 (80297) Note On ch=1 par1=63 par2=86
Channel Event. t= 35 (80332) Note On ch=1 par1=66 par2=92
Channel Event. t= 20 (80352) Controller ch=1 par1=7 (Main Volume) par2=75
Channel Event. t= 12 (80364) Note Off ch=1 par1=60 par2=64
Channel Event. t= 53 (80417) Note Off ch=1 par1=63 par2=64
Channel Event. t= 7 (80424) Note Off ch=1 par1=66 par2=64
Channel Event. t= 48 (80472) Controller ch=1 par1=7 (Main Volume) par2=76
Channel Event. t= 120 (80592) Controller ch=1 par1=7 (Main Volume) par2=77
Channel Event. t= 0 (80592) Controller ch=1 par1=10 (Pan) par2=75
Channel Event. t= 60 (80652) Controller ch=1 par1=7 (Main Volume) par2=78
Channel Event. t= 77 (80729) Note On ch=1 par1=67 par2=69
Channel Event. t= 43 (80772) Controller ch=1 par1=7 (Main Volume) par2=79
Channel Event. t= 0 (80772) Note On ch=1 par1=70 par2=94
Channel Event. t= 40 (80812) Note On ch=1 par1=73 par2=95
Channel Event. t= 17 (80829) Note Off ch=1 par1=67 par2=64
Channel Event. t= 3 (80832) Controller ch=1 par1=7 (Main Volume) par2=80
Channel Event. t= 27 (80859) Note Off ch=1 par1=70 par2=64
Channel Event. t= 53 (80912) Note Off ch=1 par1=73 par2=64
Channel Event. t= 40 (80952) Controller ch=1 par1=7 (Main Volume) par2=81
Channel Event. t= 60 (81012) Controller ch=1 par1=10 (Pan) par2=45
Channel Event. t= 60 (81072) Controller ch=1 par1=7 (Main Volume) par2=82
Channel Event. t= 60 (81132) Controller ch=1 par1=7 (Main Volume) par2=83
Channel Event. t= 77 (81209) Note On ch=1 par1=73 par2=84
Channel Event. t= 28 (81237) Note On ch=1 par1=76 par2=96
Channel Event. t= 15 (81252) Controller ch=1 par1=7 (Main Volume) par2=84
Channel Event. t= 40 (81292) Note On ch=1 par1=79 par2=79
Channel Event. t= 20 (81312) Controller ch=1 par1=7 (Main Volume) par2=85
Channel Event. t= 7 (81319) Note Off ch=1 par1=73 par2=64
Channel Event. t= 13 (81332) Note Off ch=1 par1=76 par2=64
Channel Event. t= 50 (81382) Note Off ch=1 par1=79 par2=64
Channel Event. t= 50 (81432) Controller ch=1 par1=7 (Main Volume) par2=86
Channel Event. t= 120 (81552) Controller ch=1 par1=7 (Main Volume) par2=87
Channel Event. t= 0 (81552) Controller ch=1 par1=10 (Pan) par2=10
Channel Event. t= 60 (81612) Controller ch=1 par1=7 (Main Volume) par2=88
Channel Event. t= 92 (81704) Note On ch=1 par1=79 par2=86
Channel Event. t= 28 (81732) Controller ch=1 par1=7 (Main Volume) par2=89
Channel Event. t= 10 (81742) Note On ch=1 par1=82 par2=35
Channel Event. t= 7 (81749) Note On ch=1 par1=85 par2=94
Channel Event. t= 43 (81792) Controller ch=1 par1=7 (Main Volume) par2=90
Channel Event. t= 5 (81797) Note Off ch=1 par1=79 par2=64
Channel Event. t= 2 (81799) Note Off ch=1 par1=82 par2=64
Channel Event. t= 40 (81839) Note Off ch=1 par1=85 par2=64
Channel Event. t= 73 (81912) Controller ch=1 par1=7 (Main Volume) par2=91
Channel Event. t= 120 (82032) Controller ch=1 par1=7 (Main Volume) par2=92
Channel Event. t= 60 (82092) Controller ch=1 par1=7 (Main Volume) par2=93
Channel Event. t= 120 (82212) Controller ch=1 par1=7 (Main Volume) par2=94
Channel Event. t= 60 (82272) Controller ch=1 par1=7 (Main Volume) par2=95
Channel Event. t= 120 (82392) Controller ch=1 par1=7 (Main Volume) par2=96
Channel Event. t= 120 (82512) Controller ch=1 par1=7 (Main Volume) par2=97
Channel Event. t= 60 (82572) Controller ch=1 par1=7 (Main Volume) par2=98
Channel Event. t= 120 (82692) Controller ch=1 par1=7 (Main Volume) par2=99
Channel Event. t= 60 (82752) Controller ch=1 par1=7 (Main Volume) par2=100
Channel Event. t= 120 (82872) Controller ch=1 par1=7 (Main Volume) par2=101
Channel Event. t= 120 (82992) Controller ch=1 par1=7 (Main Volume) par2=102
Channel Event. t= 60 (83052) Controller ch=1 par1=7 (Main Volume) par2=103
Channel Event. t= 120 (83172) Controller ch=1 par1=7 (Main Volume) par2=104
Channel Event. t= 60 (83232) Controller ch=1 par1=7 (Main Volume) par2=105
Channel Event. t= 120 (83352) Controller ch=1 par1=7 (Main Volume) par2=106
Channel Event. t= 120 (83472) Controller ch=1 par1=7 (Main Volume) par2=107
Channel Event. t= 60 (83532) Controller ch=1 par1=7 (Main Volume) par2=108
Channel Event. t= 120 (83652) Controller ch=1 par1=7 (Main Volume) par2=109
Channel Event. t= 57 (83709) Controller ch=1 par1=7 (Main Volume) par2=110
Channel Event. t= 7653 (91362) Controller ch=1 par1=10 (Pan) par2=20
Channel Event. t= 90 (91452) Controller ch=1 par1=7 (Main Volume) par2=102
Channel Event. t= 370 (91822) Note On ch=1 par1=77 par2=74
Channel Event. t= 27 (91849) Note On ch=1 par1=75 par2=84
Channel Event. t= 75 (91924) Note Off ch=1 par1=77 par2=64
Channel Event. t= 83 (92007) Note Off ch=1 par1=75 par2=64
Channel Event. t= 330 (92337) Note On ch=1 par1=74 par2=80
Channel Event. t= 105 (92442) Note On ch=1 par1=73 par2=76
Channel Event. t= 17 (92459) Note Off ch=1 par1=74 par2=64
Channel Event. t= 113 (92572) Note On ch=1 par1=72 par2=56
Channel Event. t= 17 (92589) Note Off ch=1 par1=73 par2=64
Channel Event. t= 80 (92669) Note Off ch=1 par1=72 par2=64
Channel Event. t= 8 (92677) Note On ch=1 par1=71 par2=66
Channel Event. t= 110 (92787) Note Off ch=1 par1=71 par2=64
Channel Event. t= 10 (92797) Note On ch=1 par1=70 par2=71
Channel Event. t= 112 (92909) Note Off ch=1 par1=70 par2=64
Channel Event. t= 10 (92919) Note On ch=1 par1=74 par2=64
Channel Event. t= 115 (93034) Note On ch=1 par1=70 par2=60
Channel Event. t= 23 (93057) Note Off ch=1 par1=74 par2=64
Channel Event. t= 130 (93187) Note On ch=1 par1=65 par2=59
Channel Event. t= 20 (93207) Note Off ch=1 par1=70 par2=64
Channel Event. t= 100 (93307) Note Off ch=1 par1=65 par2=64
Channel Event. t= 5 (93312) Note On ch=1 par1=66 par2=90
Channel Event. t= 105 (93417) Note On ch=1 par1=65 par2=66
Channel Event. t= 20 (93437) Note Off ch=1 par1=66 par2=64
Channel Event. t= 105 (93542) Note On ch=1 par1=64 par2=84
Channel Event. t= 20 (93562) Note Off ch=1 par1=65 par2=64
Channel Event. t= 105 (93667) Note On ch=1 par1=63 par2=83
Channel Event. t= 52 (93719) Note Off ch=1 par1=64 par2=64
Channel Event. t= 58 (93777) Note Off ch=1 par1=63 par2=64
Channel Event. t= 35 (93812) Note On ch=1 par1=63 par2=108
Channel Event. t= 405 (94217) Note Off ch=1 par1=63 par2=64
Channel Event. t= 80 (94297) Note On ch=1 par1=63 par2=102
Channel Event. t= 362 (94659) Note Off ch=1 par1=63 par2=64
Channel Event. t= 33 (94692) Controller ch=1 par1=10 (Pan) par2=0
Channel Event. t= 47 (94739) Note On ch=1 par1=77 par2=73
Channel Event. t= 3 (94742) Note On ch=1 par1=75 par2=93
Channel Event. t= 167 (94909) Note Off ch=1 par1=77 par2=64
Channel Event. t= 343 (95252) Note On ch=1 par1=87 par2=89
Channel Event. t= 27 (95279) Note Off ch=1 par1=75 par2=64
Channel Event. t= 453 (95732) Note On ch=1 par1=75 par2=86
Channel Event. t= 25 (95757) Note Off ch=1 par1=87 par2=64
Channel Event. t= 305 (96062) Note Off ch=1 par1=75 par2=64
Channel Event. t= 102 (96164) Note On ch=1 par1=77 par2=75
Channel Event. t= 8 (96172) Note On ch=1 par1=75 par2=86
Channel Event. t= 75 (96247) Note Off ch=1 par1=77 par2=64
Channel Event. t= 382 (96629) Note Off ch=1 par1=75 par2=64
Channel Event. t= 48 (96677) Note On ch=1 par1=75 par2=88
Channel Event. t= 105 (96782) Note Off ch=1 par1=75 par2=64
Channel Event. t= 112 (96894) Note On ch=1 par1=75 par2=91
Channel Event. t= 133 (97027) Note Off ch=1 par1=75 par2=64
Channel Event. t= 117 (97144) Note On ch=1 par1=75 par2=105
Channel Event. t= 368 (97512) Note Off ch=1 par1=75 par2=64
Channel Event. t= 60 (97572) Controller ch=1 par1=10 (Pan) par2=0
Channel Event. t= 20 (97592) Note On ch=1 par1=89 par2=85
Channel Event. t= 35 (97627) Note On ch=1 par1=87 par2=93
Channel Event. t= 92 (97719) Note Off ch=1 par1=89 par2=64
Channel Event. t= 375 (98094) Note Off ch=1 par1=87 par2=64
Channel Event. t= 28 (98122) Note On ch=1 par1=89 par2=83
Channel Event. t= 80 (98202) Note Off ch=1 par1=89 par2=64
Channel Event. t= 47 (98249) Note On ch=1 par1=88 par2=72
Channel Event. t= 80 (98329) Note Off ch=1 par1=88 par2=64
Channel Event. t= 33 (98362) Note On ch=1 par1=86 par2=76
Channel Event. t= 140 (98502) Note On ch=1 par1=85 par2=88
Channel Event. t= 15 (98517) Note Off ch=1 par1=86 par2=64
Channel Event. t= 82 (98599) Note Off ch=1 par1=85 par2=64
Channel Event. t= 10 (98609) Note On ch=1 par1=84 par2=63
Channel Event. t= 118 (98727) Note On ch=1 par1=83 par2=77
Channel Event. t= 12 (98739) Note Off ch=1 par1=84 par2=64
Channel Event. t= 100 (98839) Note Off ch=1 par1=83 par2=64
Channel Event. t= 0 (98839) Note On ch=1 par1=82 par2=54
Channel Event. t= 125 (98964) Note Off ch=1 par1=82 par2=64
Channel Event. t= 0 (98964) Note On ch=1 par1=81 par2=73
Channel Event. t= 143 (99107) Note On ch=1 par1=80 par2=96
Channel Event. t= 35 (99142) Note Off ch=1 par1=81 par2=64
Channel Event. t= 45 (99187) Note Off ch=1 par1=80 par2=64
Channel Event. t= 27 (99214) Note On ch=1 par1=79 par2=84
Channel Event. t= 113 (99327) Note On ch=1 par1=78 par2=79
Channel Event. t= 5 (99332) Note Off ch=1 par1=79 par2=64
Channel Event. t= 92 (99424) Note Off ch=1 par1=78 par2=64
Channel Event. t= 8 (99432) Note On ch=1 par1=77 par2=80
Channel Event. t= 140 (99572) Note On ch=1 par1=75 par2=105
Channel Event. t= 15 (99587) Note Off ch=1 par1=77 par2=64
Channel Event. t= 407 (99994) Note Off ch=1 par1=75 par2=64
Channel Event. t= 63 (100057) Note On ch=1 par1=75 par2=102
Channel Event. t= 335 (100392) Controller ch=1 par1=7 (Main Volume) par2=90
Channel Event. t= 67 (100459) Note Off ch=1 par1=75 par2=64
Channel Event. t= 40 (100499) Note On ch=1 par1=71 par2=75
Channel Event. t= 133 (100632) Note On ch=1 par1=73 par2=53
Channel Event. t= 7 (100639) Note Off ch=1 par1=71 par2=64
Channel Event. t= 88 (100727) Note On ch=1 par1=71 par2=34
Channel Event. t= 12 (100739) Note Off ch=1 par1=73 par2=64
Channel Event. t= 133 (100872) Note On ch=1 par1=73 par2=53
Channel Event. t= 5 (100877) Note Off ch=1 par1=71 par2=64
Channel Event. t= 100 (100977) Note On ch=1 par1=71 par2=35
Channel Event. t= 2 (100979) Note Off ch=1 par1=73 par2=64
Channel Event. t= 135 (101114) Note On ch=1 par1=73 par2=47
Channel Event. t= 8 (101122) Note Off ch=1 par1=71 par2=64
Channel Event. t= 92 (101214) Note On ch=1 par1=71 par2=32
Channel Event. t= 5 (101219) Note Off ch=1 par1=73 par2=64
Channel Event. t= 123 (101342) Note On ch=1 par1=73 par2=51
Channel Event. t= 12 (101354) Note Off ch=1 par1=71 par2=64
Channel Event. t= 113 (101467) Note Off ch=1 par1=73 par2=64
Channel Event. t= 0 (101467) Note On ch=1 par1=71 par2=39
Channel Event. t= 485 (101952) Note On ch=1 par1=83 par2=61
Channel Event. t= 47 (101999) Note Off ch=1 par1=71 par2=64
Channel Event. t= 430 (102429) Note On ch=1 par1=79 par2=51
Channel Event. t= 28 (102457) Note Off ch=1 par1=83 par2=64
Channel Event. t= 182 (102639) Note On ch=1 par1=76 par2=61
Channel Event. t= 18 (102657) Note Off ch=1 par1=79 par2=64
Channel Event. t= 245 (102902) Note On ch=1 par1=71 par2=68
Channel Event. t= 70 (102972) Note Off ch=1 par1=76 par2=64
Channel Event. t= 365 (103337) Note Off ch=1 par1=71 par2=64
Channel Event. t= 57 (103394) Note On ch=1 par1=71 par2=50
Channel Event. t= 123 (103517) Note On ch=1 par1=73 par2=59
Channel Event. t= 22 (103539) Note Off ch=1 par1=71 par2=64
Channel Event. t= 90 (103629) Note Off ch=1 par1=73 par2=64
Channel Event. t= 5 (103634) Note On ch=1 par1=71 par2=41
Channel Event. t= 90 (103724) Note On ch=1 par1=73 par2=66
Channel Event. t= 8 (103732) Note Off ch=1 par1=71 par2=64
Channel Event. t= 107 (103839) Note Off ch=1 par1=73 par2=64
Channel Event. t= 3 (103842) Note On ch=1 par1=71 par2=53
Channel Event. t= 107 (103949) Note On ch=1 par1=73 par2=59
Channel Event. t= 5 (103954) Note Off ch=1 par1=71 par2=64
Channel Event. t= 113 (104067) Note Off ch=1 par1=73 par2=64
Channel Event. t= 10 (104077) Note On ch=1 par1=71 par2=46
Channel Event. t= 95 (104172) Note On ch=1 par1=73 par2=62
Channel Event. t= 15 (104187) Note Off ch=1 par1=71 par2=64
Channel Event. t= 115 (104302) Note Off ch=1 par1=73 par2=64
Channel Event. t= 7 (104309) Note On ch=1 par1=71 par2=61
Channel Event. t= 490 (104799) Note On ch=1 par1=83 par2=85
Channel Event. t= 18 (104817) Note Off ch=1 par1=71 par2=64
Channel Event. t= 465 (105282) Note On ch=1 par1=79 par2=63
Channel Event. t= 15 (105297) Note Off ch=1 par1=83 par2=64
Channel Event. t= 195 (105492) Note Off ch=1 par1=79 par2=64
Channel Event. t= 25 (105517) Note On ch=1 par1=76 par2=48
Channel Event. t= 245 (105762) Note On ch=1 par1=71 par2=56
Channel Event. t= 37 (105799) Note Off ch=1 par1=76 par2=64
Channel Event. t= 370 (106169) Note Off ch=1 par1=71 par2=64
Channel Event. t= 0 (106169) 
Meta Event. Type: 0x2f (47dec), End of Track (0 bytes): 
track #36
track size: 305
Channel Event. t= 0 (0) 
Meta Event. Type: 0x3 (3dec), Sequence/Track Name (20 bytes): Rhythm              
Channel Event. t= 0 (0) 
Meta Event. Type: 0x21 (33dec), MIDI Port (1 bytes): 0
Channel Event. t= 0 (0) 
Meta Event. Type: 0x20 (32dec), MIDI Channel Prefix (1 bytes): 9
Channel Event. t= 0 (0) Controller ch=9 par1=10 (Pan) par2=64
Channel Event. t= 0 (0) Controller ch=9 par1=91 (Effects 2 Depth (formerly Tremolo Depth)) par2=127
Channel Event. t= 0 (0) Program Change ch=9 par1=0 par2=-98
Channel Event. t= 0 (0) Controller ch=9 par1=7 (Main Volume) par2=116
Channel Event. t= 180 (180) Controller ch=9 par1=7 (Main Volume) par2=115
Channel Event. t= 120 (300) Controller ch=9 par1=7 (Main Volume) par2=114
Channel Event. t= 120 (420) Controller ch=9 par1=7 (Main Volume) par2=113
Channel Event. t= 120 (540) Controller ch=9 par1=7 (Main Volume) par2=112
Channel Event. t= 120 (660) Controller ch=9 par1=7 (Main Volume) par2=111
Channel Event. t= 120 (780) Controller ch=9 par1=7 (Main Volume) par2=110
Channel Event. t= 120 (900) Controller ch=9 par1=7 (Main Volume) par2=109
Channel Event. t= 120 (1020) Controller ch=9 par1=7 (Main Volume) par2=108
Channel Event. t= 120 (1140) Controller ch=9 par1=7 (Main Volume) par2=107
Channel Event. t= 120 (1260) Controller ch=9 par1=7 (Main Volume) par2=106
Channel Event. t= 120 (1380) Controller ch=9 par1=7 (Main Volume) par2=105
Channel Event. t= 120 (1500) Controller ch=9 par1=7 (Main Volume) par2=104
Channel Event. t= 120 (1620) Controller ch=9 par1=7 (Main Volume) par2=103
Channel Event. t= 120 (1740) Controller ch=9 par1=7 (Main Volume) par2=102
Channel Event. t= 120 (1860) Controller ch=9 par1=7 (Main Volume) par2=101
Channel Event. t= 20 (1880) Note On ch=9 par1=62 par2=122
Channel Event. t= 100 (1980) Controller ch=9 par1=7 (Main Volume) par2=100
Channel Event. t= 80 (2060) Note Off ch=9 par1=62 par2=64
Channel Event. t= 40 (2100) Controller ch=9 par1=7 (Main Volume) par2=99
Channel Event. t= 120 (2220) Controller ch=9 par1=7 (Main Volume) par2=98
Channel Event. t= 120 (2340) Controller ch=9 par1=7 (Main Volume) par2=97
Channel Event. t= 15 (2355) Note On ch=9 par1=62 par2=115
Channel Event. t= 105 (2460) Controller ch=9 par1=7 (Main Volume) par2=96
Channel Event. t= 50 (2510) Note Off ch=9 par1=62 par2=64
Channel Event. t= 70 (2580) Controller ch=9 par1=7 (Main Volume) par2=95
Channel Event. t= 120 (2700) Controller ch=9 par1=7 (Main Volume) par2=94
Channel Event. t= 120 (2820) Controller ch=9 par1=7 (Main Volume) par2=93
Channel Event. t= 35 (2855) Note On ch=9 par1=62 par2=115
Channel Event. t= 85 (2940) Controller ch=9 par1=7 (Main Volume) par2=92
Channel Event. t= 35 (2975) Note Off ch=9 par1=62 par2=64
Channel Event. t= 145 (3120) Controller ch=9 par1=7 (Main Volume) par2=91
Channel Event. t= 120 (3240) Controller ch=9 par1=7 (Main Volume) par2=90
Channel Event. t= 92 (3332) Note On ch=9 par1=62 par2=117
Channel Event. t= 28 (3360) Controller ch=9 par1=7 (Main Volume) par2=89
Channel Event. t= 82 (3442) Note Off ch=9 par1=62 par2=64
Channel Event. t= 38 (3480) Controller ch=9 par1=7 (Main Volume) par2=88
Channel Event. t= 120 (3600) Controller ch=9 par1=7 (Main Volume) par2=87
Channel Event. t= 120 (3720) Controller ch=9 par1=7 (Main Volume) par2=86
Channel Event. t= 85 (3805) Note On ch=9 par1=62 par2=118
Channel Event. t= 35 (3840) Controller ch=9 par1=7 (Main Volume) par2=85
Channel Event. t= 80 (3920) Note Off ch=9 par1=62 par2=64
Channel Event. t= 40 (3960) Controller ch=9 par1=7 (Main Volume) par2=84
Channel Event. t= 120 (4080) Controller ch=9 par1=7 (Main Volume) par2=83
Channel Event. t= 120 (4200) Controller ch=9 par1=7 (Main Volume) par2=82
Channel Event. t= 100 (4300) Note On ch=9 par1=62 par2=119
Channel Event. t= 20 (4320) Controller ch=9 par1=7 (Main Volume) par2=81
Channel Event. t= 85 (4405) Note Off ch=9 par1=62 par2=64
Channel Event. t= 35 (4440) Controller ch=9 par1=7 (Main Volume) par2=80
Channel Event. t= 120 (4560) Controller ch=9 par1=7 (Main Volume) par2=79
Channel Event. t= 120 (4680) Controller ch=9 par1=7 (Main Volume) par2=78
Channel Event. t= 102 (4782) Note On ch=9 par1=62 par2=118
Channel Event. t= 18 (4800) Controller ch=9 par1=7 (Main Volume) par2=77
Channel Event. t= 82 (4882) Note Off ch=9 par1=62 par2=64
Channel Event. t= 38 (4920) Controller ch=9 par1=7 (Main Volume) par2=76
Channel Event. t= 120 (5040) Controller ch=9 par1=7 (Main Volume) par2=75
Channel Event. t= 120 (5160) Controller ch=9 par1=7 (Main Volume) par2=74
Channel Event. t= 112 (5272) Note On ch=9 par1=62 par2=118
Channel Event. t= 8 (5280) Controller ch=9 par1=7 (Main Volume) par2=73
Channel Event. t= 95 (5375) Note Off ch=9 par1=62 par2=64
Channel Event. t= 25 (5400) Controller ch=9 par1=7 (Main Volume) par2=72
Channel Event. t= 120 (5520) Controller ch=9 par1=7 (Main Volume) par2=71
Channel Event. t= 120 (5640) Controller ch=9 par1=7 (Main Volume) par2=70
Channel Event. t= 0 (5640) 
Meta Event. Type: 0x2f (47dec), End of Track (0 bytes): 
track #37
track size: 322
Channel Event. t= 0 (0) 
Meta Event. Type: 0x3 (3dec), Sequence/Track Name (20 bytes): Oboe                
Channel Event. t= 0 (0) 
Meta Event. Type: 0x21 (33dec), MIDI Port (1 bytes): 0
Channel Event. t= 0 (0) 
Meta Event. Type: 0x20 (32dec), MIDI Channel Prefix (1 bytes): 2
Channel Event. t= 0 (0) Controller ch=2 par1=10 (Pan) par2=64
Channel Event. t= 0 (0) Controller ch=2 par1=91 (Effects 2 Depth (formerly Tremolo Depth)) par2=127
Channel Event. t= 0 (0) Program Change ch=2 par1=84 par2=-101
Channel Event. t= 13872 (13872) Controller ch=2 par1=10 (Pan) par2=30
Channel Event. t= 109500 (123372) Controller ch=2 par1=7 (Main Volume) par2=80
Channel Event. t= 167 (123539) Note On ch=2 par1=78 par2=80
Channel Event. t= 48 (123587) Note On ch=2 par1=77 par2=58
Channel Event. t= 62 (123649) Note Off ch=2 par1=78 par2=64
Channel Event. t= 1348 (124997) Note Off ch=2 par1=77 par2=64
Channel Event. t= 30 (125027) Note On ch=2 par1=77 par2=69
Channel Event. t= 57 (125084) Note On ch=2 par1=76 par2=70
Channel Event. t= 58 (125142) Note Off ch=2 par1=77 par2=64
Channel Event. t= 172 (125314) Note On ch=2 par1=75 par2=96
Channel Event. t= 18 (125332) Note Off ch=2 par1=76 par2=64
Channel Event. t= 217 (125549) Note On ch=2 par1=74 par2=72
Channel Event. t= 3 (125552) Note Off ch=2 par1=75 par2=64
Channel Event. t= 217 (125769) Note On ch=2 par1=75 par2=77
Channel Event. t= 25 (125794) Note Off ch=2 par1=74 par2=64
Channel Event. t= 148 (125942) Note On ch=2 par1=76 par2=84
Channel Event. t= 20 (125962) Note Off ch=2 par1=75 par2=64
Channel Event. t= 45 (126007) Note On ch=2 par1=81 par2=66
Channel Event. t= 32 (126039) Note Off ch=2 par1=76 par2=64
Channel Event. t= 203 (126242) Note On ch=2 par1=79 par2=74
Channel Event. t= 40 (126282) Note Off ch=2 par1=81 par2=64
Channel Event. t= 95 (126377) Note Off ch=2 par1=79 par2=64
Channel Event. t= 95 (126472) Note On ch=2 par1=78 par2=97
Channel Event. t= 22 (126494) Note On ch=2 par1=77 par2=72
Channel Event. t= 80 (126574) Note Off ch=2 par1=78 par2=64
Channel Event. t= 1240 (127814) Note Off ch=2 par1=77 par2=64
Channel Event. t= 45 (127859) Note On ch=2 par1=77 par2=94
Channel Event. t= 28 (127887) Note On ch=2 par1=76 par2=69
Channel Event. t= 117 (128004) Note Off ch=2 par1=77 par2=64
Channel Event. t= 128 (128132) Note On ch=2 par1=75 par2=65
Channel Event. t= 17 (128149) Note Off ch=2 par1=76 par2=64
Channel Event. t= 225 (128374) Note On ch=2 par1=74 par2=63
Channel Event. t= 8 (128382) Note Off ch=2 par1=75 par2=64
Channel Event. t= 222 (128604) Note On ch=2 par1=75 par2=68
Channel Event. t= 53 (128657) Note Off ch=2 par1=74 par2=64
Channel Event. t= 175 (128832) Note On ch=2 par1=76 par2=64
Channel Event. t= 67 (128899) Note Off ch=2 par1=75 par2=64
Channel Event. t= 413 (129312) Note Off ch=2 par1=76 par2=64
Channel Event. t= 14820 (144132) Note On ch=2 par1=60 par2=72
Channel Event. t= 120 (144252) Note Off ch=2 par1=60 par2=64
Channel Event. t= 107 (144359) Note On ch=2 par1=65 par2=52
Channel Event. t= 120 (144479) Note Off ch=2 par1=65 par2=64
Channel Event. t= 103 (144582) Note On ch=2 par1=69 par2=74
Channel Event. t= 362 (144944) Note Off ch=2 par1=69 par2=64
Channel Event. t= 15 (144959) Note On ch=2 par1=65 par2=66
Channel Event. t= 120 (145079) Note Off ch=2 par1=65 par2=64
Channel Event. t= 3 (145082) Note On ch=2 par1=60 par2=73
Channel Event. t= 120 (145202) Note Off ch=2 par1=60 par2=64
Channel Event. t= 127 (145329) Note On ch=2 par1=57 par2=77
Channel Event. t= 120 (145449) Note Off ch=2 par1=57 par2=64
Channel Event. t= 123 (145572) Note On ch=2 par1=53 par2=97
Channel Event. t= 392 (145964) Note Off ch=2 par1=53 par2=64
Channel Event. t= 83 (146047) Note On ch=2 par1=53 par2=87
Channel Event. t= 102 (146149) Note Off ch=2 par1=53 par2=64
Channel Event. t= 140 (146289) Note On ch=2 par1=57 par2=78
Channel Event. t= 98 (146387) Note Off ch=2 par1=57 par2=64
Channel Event. t= 150 (146537) Note On ch=2 par1=62 par2=82
Channel Event. t= 102 (146639) Note Off ch=2 par1=62 par2=64
Channel Event. t= 130 (146769) Note On ch=2 par1=65 par2=74
Channel Event. t= 80 (146849) Note Off ch=2 par1=65 par2=64
Channel Event. t= 175 (147024) Note On ch=2 par1=63 par2=88
Channel Event. t= 1583 (148607) Note Off ch=2 par1=63 par2=64
Channel Event. t= 0 (148607) 
Meta Event. Type: 0x2f (47dec), End of Track (0 bytes): 
track #38
track size: 620
Channel Event. t= 0 (0) 
Meta Event. Type: 0x3 (3dec), Sequence/Track Name (20 bytes): French Horn         
Channel Event. t= 0 (0) 
Meta Event. Type: 0x21 (33dec), MIDI Port (1 bytes): 0
Channel Event. t= 0 (0) 
Meta Event. Type: 0x20 (32dec), MIDI Channel Prefix (1 bytes): 3
Channel Event. t= 0 (0) Controller ch=3 par1=10 (Pan) par2=64
Channel Event. t= 0 (0) Controller ch=3 par1=91 (Effects 2 Depth (formerly Tremolo Depth)) par2=127
Channel Event. t= 0 (0) Program Change ch=3 par1=92 par2=-101
Channel Event. t= 13872 (13872) Controller ch=3 par1=10 (Pan) par2=75
Channel Event. t= 109620 (123492) Controller ch=3 par1=7 (Main Volume) par2=70
Channel Event. t= 195 (123687) Note On ch=3 par1=65 par2=64
Channel Event. t= 1330 (125017) Note On ch=3 par1=64 par2=38
Channel Event. t= 50 (125067) Note Off ch=3 par1=65 par2=64
Channel Event. t= 1397 (126464) Note On ch=3 par1=65 par2=50
Channel Event. t= 68 (126532) Note Off ch=3 par1=64 par2=64
Channel Event. t= 1360 (127892) Note On ch=3 par1=64 par2=49
Channel Event. t= 87 (127979) Note Off ch=3 par1=65 par2=64
Channel Event. t= 1395 (129374) Note Off ch=3 par1=64 par2=64
Channel Event. t= 178 (129552) Note On ch=3 par1=53 par2=80
Channel Event. t= 222 (129774) Note Off ch=3 par1=53 par2=64
Channel Event. t= 8 (129782) Note On ch=3 par1=55 par2=62
Channel Event. t= 245 (130027) Note On ch=3 par1=57 par2=54
Channel Event. t= 7 (130034) Note Off ch=3 par1=55 par2=64
Channel Event. t= 225 (130259) Note On ch=3 par1=58 par2=61
Channel Event. t= 13 (130272) Note Off ch=3 par1=57 par2=64
Channel Event. t= 225 (130497) Note Off ch=3 par1=58 par2=64
Channel Event. t= 7 (130504) Note On ch=3 par1=60 par2=53
Channel Event. t= 235 (130739) Note On ch=3 par1=62 par2=63
Channel Event. t= 8 (130747) Note Off ch=3 par1=60 par2=64
Channel Event. t= 217 (130964) Note On ch=3 par1=63 par2=59
Channel Event. t= 235 (131199) Note Off ch=3 par1=63 par2=64
Channel Event. t= 3 (131202) Note On ch=3 par1=65 par2=70
Channel Event. t= 245 (131447) Note On ch=3 par1=67 par2=58
Channel Event. t= 10 (131457) Note Off ch=3 par1=65 par2=64
Channel Event. t= 240 (131697) Note On ch=3 par1=63 par2=65
Channel Event. t= 5 (131702) Note On ch=3 par1=68 par2=68
Channel Event. t= 47 (131749) Note Off ch=3 par1=67 par2=64
Channel Event. t= 10 (131759) Note Off ch=3 par1=62 par2=64
Channel Event. t= 198 (131957) Note Off ch=3 par1=68 par2=64
Channel Event. t= 0 (131957) Note On ch=3 par1=69 par2=57
Channel Event. t= 282 (132239) Note Off ch=3 par1=69 par2=64
Channel Event. t= 0 (132239) Note On ch=3 par1=69 par2=75
Channel Event. t= 20 (132259) Note On ch=3 par1=64 par2=77
Channel Event. t= 10 (132269) Note Off ch=3 par1=63 par2=64
Channel Event. t= 193 (132462) Note On ch=3 par1=63 par2=57
Channel Event. t= 42 (132504) Note Off ch=3 par1=64 par2=64
Channel Event. t= 188 (132692) Note On ch=3 par1=62 par2=65
Channel Event. t= 12 (132704) Note Off ch=3 par1=63 par2=64
Channel Event. t= 228 (132932) Note On ch=3 par1=61 par2=65
Channel Event. t= 2 (132934) Note Off ch=3 par1=62 par2=64
Channel Event. t= 233 (133167) Note Off ch=3 par1=61 par2=64
Channel Event. t= 5 (133172) Note On ch=3 par1=60 par2=67
Channel Event. t= 457 (133629) Note On ch=3 par1=58 par2=52
Channel Event. t= 3 (133632) Note On ch=3 par1=70 par2=65
Channel Event. t= 35 (133667) Note Off ch=3 par1=69 par2=64
Channel Event. t= 25 (133692) Note Off ch=3 par1=60 par2=64
Channel Event. t= 1120 (134812) Note Off ch=3 par1=58 par2=64
Channel Event. t= 37 (134849) Note Off ch=3 par1=70 par2=64
Channel Event. t= 3595 (138444) Note On ch=3 par1=50 par2=72
Channel Event. t= 480 (138924) Note On ch=3 par1=55 par2=49
Channel Event. t= 18 (138942) Note Off ch=3 par1=50 par2=64
Channel Event. t= 487 (139429) Note On ch=3 par1=51 par2=65
Channel Event. t= 43 (139472) Note Off ch=3 par1=55 par2=64
Channel Event. t= 412 (139884) Note On ch=3 par1=55 par2=58
Channel Event. t= 25 (139909) Note Off ch=3 par1=51 par2=64
Channel Event. t= 455 (140364) Note On ch=3 par1=50 par2=59
Channel Event. t= 5 (140369) Note Off ch=3 par1=55 par2=64
Channel Event. t= 600 (140969) Note Off ch=3 par1=50 par2=64
Channel Event. t= 1753 (142722) Note On ch=3 par1=53 par2=58
Channel Event. t= 1895 (144617) Note On ch=3 par1=57 par2=56
Channel Event. t= 15 (144632) Note Off ch=3 par1=53 par2=64
Channel Event. t= 1922 (146554) Note On ch=3 par1=62 par2=55
Channel Event. t= 63 (146617) Note Off ch=3 par1=57 par2=64
Channel Event. t= 1887 (148504) Note On ch=3 par1=55 par2=56
Channel Event. t= 30 (148534) Note Off ch=3 par1=62 par2=64
Channel Event. t= 1890 (150424) Note Off ch=3 par1=55 par2=64
Channel Event. t= 0 (150424) Note On ch=3 par1=50 par2=69
Channel Event. t= 258 (150682) Note On ch=3 par1=51 par2=74
Channel Event. t= 22 (150704) Note Off ch=3 par1=50 par2=64
Channel Event. t= 218 (150922) Note On ch=3 par1=50 par2=72
Channel Event. t= 12 (150934) Note Off ch=3 par1=51 par2=64
Channel Event. t= 218 (151152) Note On ch=3 par1=51 par2=73
Channel Event. t= 45 (151197) Note Off ch=3 par1=50 par2=64
Channel Event. t= 210 (151407) Note On ch=3 par1=50 par2=74
Channel Event. t= 20 (151427) Note Off ch=3 par1=51 par2=64
Channel Event. t= 377 (151804) Note Off ch=3 par1=50 par2=64
Channel Event. t= 60 (151864) Note On ch=3 par1=50 par2=77
Channel Event. t= 510 (152374) Note On ch=3 par1=55 par2=75
Channel Event. t= 25 (152399) Note Off ch=3 par1=50 par2=64
Channel Event. t= 450 (152849) Note On ch=3 par1=51 par2=74
Channel Event. t= 50 (152899) Note Off ch=3 par1=55 par2=64
Channel Event. t= 425 (153324) Note On ch=3 par1=55 par2=66
Channel Event. t= 25 (153349) Note Off ch=3 par1=51 par2=64
Channel Event. t= 448 (153797) Note On ch=3 par1=50 par2=74
Channel Event. t= 22 (153819) Note Off ch=3 par1=55 par2=64
Channel Event. t= 503 (154322) Note On ch=3 par1=48 par2=78
Channel Event. t= 35 (154357) Note Off ch=3 par1=50 par2=64
Channel Event. t= 1797 (156154) Note On ch=3 par1=56 par2=55
Channel Event. t= 8 (156162) Note On ch=3 par1=53 par2=39
Channel Event. t= 45 (156207) Note Off ch=3 par1=48 par2=64
Channel Event. t= 652 (156859) Note Off ch=3 par1=53 par2=64
Channel Event. t= 1258 (158117) Note On ch=3 par1=53 par2=58
Channel Event. t= 87 (158204) Note Off ch=3 par1=56 par2=64
Channel Event. t= 3735 (161939) Note On ch=3 par1=55 par2=47
Channel Event. t= 73 (162012) Note Off ch=3 par1=53 par2=64
Channel Event. t= 1855 (163867) Note On ch=3 par1=50 par2=52
Channel Event. t= 55 (163922) Note Off ch=3 par1=55 par2=64
Channel Event. t= 197 (164119) Note On ch=3 par1=51 par2=65
Channel Event. t= 43 (164162) Note Off ch=3 par1=50 par2=64
Channel Event. t= 200 (164362) Note On ch=3 par1=50 par2=56
Channel Event. t= 15 (164377) Note Off ch=3 par1=51 par2=64
Channel Event. t= 205 (164582) Note On ch=3 par1=51 par2=69
Channel Event. t= 52 (164634) Note Off ch=3 par1=50 par2=64
Channel Event. t= 205 (164839) Note On ch=3 par1=50 par2=69
Channel Event. t= 25 (164864) Note Off ch=3 par1=51 par2=64
Channel Event. t= 310 (165174) Note Off ch=3 par1=50 par2=64
Channel Event. t= 103 (165277) Note On ch=3 par1=50 par2=70
Channel Event. t= 515 (165792) Note On ch=3 par1=55 par2=63
Channel Event. t= 10 (165802) Note Off ch=3 par1=50 par2=64
Channel Event. t= 475 (166277) Note On ch=3 par1=51 par2=60
Channel Event. t= 40 (166317) Note Off ch=3 par1=55 par2=64
Channel Event. t= 425 (166742) Note On ch=3 par1=55 par2=60
Channel Event. t= 22 (166764) Note Off ch=3 par1=51 par2=64
Channel Event. t= 463 (167227) Note On ch=3 par1=50 par2=61
Channel Event. t= 25 (167252) Note Off ch=3 par1=55 par2=64
Channel Event. t= 452 (167704) Note On ch=3 par1=55 par2=52
Channel Event. t= 38 (167742) Note Off ch=3 par1=50 par2=64
Channel Event. t= 450 (168192) Note On ch=3 par1=51 par2=61
Channel Event. t= 62 (168254) Note Off ch=3 par1=55 par2=64
Channel Event. t= 420 (168674) Note On ch=3 par1=50 par2=46
Channel Event. t= 33 (168707) Note Off ch=3 par1=51 par2=64
Channel Event. t= 930 (169637) Note On ch=3 par1=55 par2=42
Channel Event. t= 82 (169719) Note Off ch=3 par1=50 par2=64
Channel Event. t= 2313 (172032) Note Off ch=3 par1=55 par2=64
Channel Event. t= 0 (172032) 
Meta Event. Type: 0x2f (47dec), End of Track (0 bytes): 
track #39
track size: 454
Channel Event. t= 0 (0) 
Meta Event. Type: 0x3 (3dec), Sequence/Track Name (20 bytes): Strings             
Channel Event. t= 0 (0) 
Meta Event. Type: 0x21 (33dec), MIDI Port (1 bytes): 0
Channel Event. t= 0 (0) 
Meta Event. Type: 0x20 (32dec), MIDI Channel Prefix (1 bytes): 7
Channel Event. t= 0 (0) Controller ch=7 par1=10 (Pan) par2=64
Channel Event. t= 0 (0) Controller ch=7 par1=91 (Effects 2 Depth (formerly Tremolo Depth)) par2=127
Channel Event. t= 0 (0) Program Change ch=7 par1=48 par2=-101
Channel Event. t= 13872 (13872) Controller ch=7 par1=10 (Pan) par2=45
Channel Event. t= 121200 (135072) Note On ch=7 par1=43 par2=66
Channel Event. t= 0 (135072) Note On ch=7 par1=55 par2=63
Channel Event. t= 0 (135072) Note On ch=7 par1=50 par2=55
Channel Event. t= 0 (135072) Note On ch=7 par1=46 par2=70
Channel Event. t= 1840 (136912) Note Off ch=7 par1=43 par2=64
Channel Event. t= 80 (136992) Note On ch=7 par1=43 par2=83
Channel Event. t= 0 (136992) Note On ch=7 par1=31 par2=89
Channel Event. t= 80 (137072) Note Off ch=7 par1=55 par2=64
Channel Event. t= 0 (137072) Note Off ch=7 par1=46 par2=64
Channel Event. t= 7 (137079) Note Off ch=7 par1=50 par2=64
Channel Event. t= 3630 (140709) Note Off ch=7 par1=43 par2=64
Channel Event. t= 123 (140832) Note On ch=7 par1=41 par2=55
Channel Event. t= 0 (140832) Note On ch=7 par1=36 par2=83
Channel Event. t= 0 (140832) Note On ch=7 par1=44 par2=71
Channel Event. t= 35 (140867) Note Off ch=7 par1=31 par2=64
Channel Event. t= 1885 (142752) Note Off ch=7 par1=41 par2=64
Channel Event. t= 0 (142752) Note Off ch=7 par1=36 par2=64
Channel Event. t= 0 (142752) Note Off ch=7 par1=44 par2=64
Channel Event. t= 0 (142752) Note On ch=7 par1=43 par2=74
Channel Event. t= 0 (142752) Note On ch=7 par1=53 par2=72
Channel Event. t= 0 (142752) Note On ch=7 par1=48 par2=37
Channel Event. t= 0 (142752) Note On ch=7 par1=45 par2=72
Channel Event. t= 1867 (144619) Note Off ch=7 par1=48 par2=64
Channel Event. t= 3 (144622) Note Off ch=7 par1=45 par2=64
Channel Event. t= 12 (144634) Note Off ch=7 par1=43 par2=64
Channel Event. t= 38 (144672) Note Off ch=7 par1=53 par2=64
Channel Event. t= 0 (144672) Note On ch=7 par1=48 par2=73
Channel Event. t= 0 (144672) Note On ch=7 par1=43 par2=74
Channel Event. t= 0 (144672) Note On ch=7 par1=45 par2=67
Channel Event. t= 1880 (146552) Note Off ch=7 par1=48 par2=64
Channel Event. t= 32 (146584) Note Off ch=7 par1=43 par2=64
Channel Event. t= 0 (146584) Note Off ch=7 par1=45 par2=64
Channel Event. t= 8 (146592) Note On ch=7 par1=43 par2=58
Channel Event. t= 0 (146592) Note On ch=7 par1=48 par2=60
Channel Event. t= 0 (146592) Note On ch=7 par1=45 par2=85
Channel Event. t= 0 (146592) Note On ch=7 par1=53 par2=83
Channel Event. t= 1887 (148479) Note Off ch=7 par1=48 par2=64
Channel Event. t= 25 (148504) Note Off ch=7 par1=43 par2=64
Channel Event. t= 8 (148512) Note On ch=7 par1=47 par2=65
Channel Event. t= 0 (148512) Note On ch=7 par1=43 par2=65
Channel Event. t= 0 (148512) Note On ch=7 par1=50 par2=68
Channel Event. t= 0 (148512) Note On ch=7 par1=55 par2=69
Channel Event. t= 70 (148582) Note Off ch=7 par1=45 par2=64
Channel Event. t= 10 (148592) Note Off ch=7 par1=47 par2=64
Channel Event. t= 40 (148632) Note Off ch=7 par1=53 par2=64
Channel Event. t= 120 (148752) Note On ch=7 par1=46 par2=67
Channel Event. t= 1385 (150137) Note Off ch=7 par1=46 par2=64
Channel Event. t= 80 (150217) Note Off ch=7 par1=43 par2=64
Channel Event. t= 155 (150372) Note Off ch=7 par1=50 par2=64
Channel Event. t= 10 (150382) Note Off ch=7 par1=55 par2=64
Channel Event. t= 50 (150432) Note On ch=7 par1=43 par2=66
Channel Event. t= 0 (150432) Note On ch=7 par1=31 par2=83
Channel Event. t= 2045 (152477) Note Off ch=7 par1=43 par2=64
Channel Event. t= 7 (152484) Note Off ch=7 par1=31 par2=64
Channel Event. t= 3708 (156192) Note On ch=7 par1=36 par2=55
Channel Event. t= 0 (156192) Note On ch=7 par1=41 par2=50
Channel Event. t= 0 (156192) Note On ch=7 par1=44 par2=63
Channel Event. t= 1582 (157774) Note Off ch=7 par1=41 par2=64
Channel Event. t= 3 (157777) Note Off ch=7 par1=44 par2=64
Channel Event. t= 307 (158084) Note Off ch=7 par1=36 par2=64
Channel Event. t= 28 (158112) Note On ch=7 par1=48 par2=66
Channel Event. t= 0 (158112) Note On ch=7 par1=43 par2=66
Channel Event. t= 0 (158112) Note On ch=7 par1=45 par2=57
Channel Event. t= 0 (158112) Note On ch=7 par1=53 par2=73
Channel Event. t= 3625 (161737) Note Off ch=7 par1=48 par2=64
Channel Event. t= 82 (161819) Note Off ch=7 par1=43 par2=64
Channel Event. t= 133 (161952) Note On ch=7 par1=43 par2=48
Channel Event. t= 0 (161952) Note On ch=7 par1=46 par2=61
Channel Event. t= 0 (161952) Note On ch=7 par1=50 par2=58
Channel Event. t= 0 (161952) Note On ch=7 par1=55 par2=58
Channel Event. t= 45 (161997) Note Off ch=7 par1=53 par2=64
Channel Event. t= 7 (162004) Note Off ch=7 par1=45 par2=64
Channel Event. t= 1625 (163629) Note Off ch=7 par1=46 par2=64
Channel Event. t= 48 (163677) Note Off ch=7 par1=43 par2=64
Channel Event. t= 195 (163872) Note On ch=7 par1=31 par2=68
Channel Event. t= 0 (163872) Note On ch=7 par1=43 par2=66
Channel Event. t= 72 (163944) Note Off ch=7 par1=55 par2=64
Channel Event. t= 13 (163957) Note Off ch=7 par1=50 par2=64
Channel Event. t= 3712 (167669) Note Off ch=7 par1=43 par2=64
Channel Event. t= 43 (167712) Note On ch=7 par1=43 par2=68
Channel Event. t= 70 (167782) Note Off ch=7 par1=31 par2=64
Channel Event. t= 410 (168192) Note On ch=7 par1=39 par2=72
Channel Event. t= 65 (168257) Note Off ch=7 par1=43 par2=64
Channel Event. t= 415 (168672) Note On ch=7 par1=38 par2=64
Channel Event. t= 62 (168734) Note Off ch=7 par1=39 par2=64
Channel Event. t= 898 (169632) Note On ch=7 par1=50 par2=46
Channel Event. t= 0 (169632) Note On ch=7 par1=46 par2=40
Channel Event. t= 0 (169632) Note On ch=7 par1=31 par2=49
Channel Event. t= 0 (169632) Note On ch=7 par1=43 par2=38
Channel Event. t= 92 (169724) Note Off ch=7 par1=38 par2=64
Channel Event. t= 2308 (172032) Note Off ch=7 par1=50 par2=64
Channel Event. t= 0 (172032) Note Off ch=7 par1=46 par2=64
Channel Event. t= 0 (172032) Note Off ch=7 par1=31 par2=64
Channel Event. t= 0 (172032) Note Off ch=7 par1=43 par2=64
Channel Event. t= 0 (172032) 
Meta Event. Type: 0x2f (47dec), End of Track (0 bytes): 
track #40
track size: 33
Channel Event. t= 0 (0) 
Meta Event. Type: 0x3 (3dec), Sequence/Track Name (20 bytes):                     
Channel Event. t= 0 (0) 
Meta Event. Type: 0x21 (33dec), MIDI Port (1 bytes): 0
Channel Event. t= 0 (0) 
Meta Event. Type: 0x2f (47dec), End of Track (0 bytes): 
track #41
track size: 33
Channel Event. t= 0 (0) 
Meta Event. Type: 0x3 (3dec), Sequence/Track Name (20 bytes):      PART FIVE      
Channel Event. t= 0 (0) 
Meta Event. Type: 0x21 (33dec), MIDI Port (1 bytes): 0
Channel Event. t= 0 (0) 
Meta Event. Type: 0x2f (47dec), End of Track (0 bytes): 
track #42
track size: 33
Channel Event. t= 0 (0) 
Meta Event. Type: 0x3 (3dec), Sequence/Track Name (20 bytes): THE CAPTURED WOLF   
Channel Event. t= 0 (0) 
Meta Event. Type: 0x21 (33dec), MIDI Port (1 bytes): 0
Channel Event. t= 0 (0) 
Meta Event. Type: 0x2f (47dec), End of Track (0 bytes): 
track #43
track size: 33
Channel Event. t= 0 (0) 
Meta Event. Type: 0x3 (3dec), Sequence/Track Name (20 bytes):                     
Channel Event. t= 0 (0) 
Meta Event. Type: 0x21 (33dec), MIDI Port (1 bytes): 0
Channel Event. t= 0 (0) 
Meta Event. Type: 0x2f (47dec), End of Track (0 bytes): 
track #44
track size: 1336
Channel Event. t= 0 (0) 
Meta Event. Type: 0x3 (3dec), Sequence/Track Name (20 bytes): Flute               
Channel Event. t= 0 (0) 
Meta Event. Type: 0x21 (33dec), MIDI Port (1 bytes): 0
Channel Event. t= 0 (0) 
Meta Event. Type: 0x20 (32dec), MIDI Channel Prefix (1 bytes): 1
Channel Event. t= 0 (0) Controller ch=1 par1=10 (Pan) par2=64
Channel Event. t= 0 (0) Controller ch=1 par1=91 (Effects 2 Depth (formerly Tremolo Depth)) par2=127
Channel Event. t= 0 (0) Program Change ch=1 par1=72 par2=-91
Channel Event. t= 13922 (13922) Controller ch=1 par1=10 (Pan) par2=120
Channel Event. t= 30 (13952) Note On ch=1 par1=79 par2=88
Channel Event. t= 480 (14432) Note On ch=1 par1=84 par2=95
Channel Event. t= 40 (14472) Note Off ch=1 par1=79 par2=64
Channel Event. t= 320 (14792) Note On ch=1 par1=88 par2=85
Channel Event. t= 40 (14832) Note Off ch=1 par1=84 par2=64
Channel Event. t= 65 (14897) Note Off ch=1 par1=88 par2=64
Channel Event. t= 15 (14912) Note On ch=1 par1=91 par2=87
Channel Event. t= 77 (14989) Note Off ch=1 par1=91 par2=64
Channel Event. t= 163 (15152) Note On ch=1 par1=93 par2=78
Channel Event. t= 65 (15217) Note Off ch=1 par1=93 par2=64
Channel Event. t= 175 (15392) Note On ch=1 par1=91 par2=94
Channel Event. t= 360 (15752) Note On ch=1 par1=88 par2=78
Channel Event. t= 30 (15782) Note Off ch=1 par1=91 par2=64
Channel Event. t= 77 (15859) Note Off ch=1 par1=88 par2=64
Channel Event. t= 13 (15872) Note On ch=1 par1=91 par2=85
Channel Event. t= 77 (15949) Note Off ch=1 par1=91 par2=64
Channel Event. t= 163 (16112) Note On ch=1 par1=93 par2=84
Channel Event. t= 70 (16182) Note Off ch=1 par1=93 par2=64
Channel Event. t= 170 (16352) Note On ch=1 par1=95 par2=90
Channel Event. t= 360 (16712) Note On ch=1 par1=96 par2=81
Channel Event. t= 32 (16744) Note Off ch=1 par1=95 par2=64
Channel Event. t= 70 (16814) Note Off ch=1 par1=96 par2=64
Channel Event. t= 18 (16832) Note On ch=1 par1=91 par2=68
Channel Event. t= 75 (16907) Note Off ch=1 par1=91 par2=64
Channel Event. t= 165 (17072) Note On ch=1 par1=88 par2=72
Channel Event. t= 72 (17144) Note Off ch=1 par1=88 par2=64
Channel Event. t= 168 (17312) Note On ch=1 par1=84 par2=83
Channel Event. t= 70 (17382) Note Off ch=1 par1=84 par2=64
Channel Event. t= 170 (17552) Note On ch=1 par1=86 par2=87
Channel Event. t= 65 (17617) Note Off ch=1 par1=86 par2=64
Channel Event. t= 175 (17792) Note On ch=1 par1=87 par2=96
Channel Event. t= 217 (18009) Note Off ch=1 par1=87 par2=64
Channel Event. t= 23 (18032) Note On ch=1 par1=84 par2=76
Channel Event. t= 47 (18079) Note Off ch=1 par1=84 par2=64
Channel Event. t= 193 (18272) Note On ch=1 par1=86 par2=95
Channel Event. t= 240 (18512) Note On ch=1 par1=83 par2=69
Channel Event. t= 27 (18539) Note Off ch=1 par1=86 par2=64
Channel Event. t= 8 (18547) Note Off ch=1 par1=83 par2=64
Channel Event. t= 205 (18752) Note On ch=1 par1=85 par2=97
Channel Event. t= 240 (18992) Note On ch=1 par1=82 par2=79
Channel Event. t= 17 (19009) Note Off ch=1 par1=85 par2=64
Channel Event. t= 18 (19027) Note Off ch=1 par1=82 par2=64
Channel Event. t= 205 (19232) Note On ch=1 par1=84 par2=88
Channel Event. t= 240 (19472) Note On ch=1 par1=81 par2=66
Channel Event. t= 10 (19482) Note Off ch=1 par1=84 par2=64
Channel Event. t= 37 (19519) Note Off ch=1 par1=81 par2=64
Channel Event. t= 193 (19712) Note On ch=1 par1=83 par2=87
Channel Event. t= 240 (19952) Note On ch=1 par1=80 par2=73
Channel Event. t= 22 (19974) Note Off ch=1 par1=83 par2=64
Channel Event. t= 40 (20014) Note Off ch=1 par1=80 par2=64
Channel Event. t= 178 (20192) Note On ch=1 par1=82 par2=86
Channel Event. t= 240 (20432) Note On ch=1 par1=79 par2=69
Channel Event. t= 27 (20459) Note Off ch=1 par1=82 par2=64
Channel Event. t= 20 (20479) Note Off ch=1 par1=79 par2=64
Channel Event. t= 193 (20672) Note On ch=1 par1=81 par2=82
Channel Event. t= 240 (20912) Note On ch=1 par1=78 par2=65
Channel Event. t= 17 (20929) Note Off ch=1 par1=81 par2=64
Channel Event. t= 23 (20952) Note Off ch=1 par1=78 par2=64
Channel Event. t= 200 (21152) Note On ch=1 par1=80 par2=86
Channel Event. t= 240 (21392) Note On ch=1 par1=77 par2=76
Channel Event. t= 15 (21407) Note Off ch=1 par1=80 par2=64
Channel Event. t= 17 (21424) Note Off ch=1 par1=77 par2=64
Channel Event. t= 208 (21632) Note On ch=1 par1=70 par2=96
Channel Event. t= 240 (21872) Note On ch=1 par1=75 par2=87
Channel Event. t= 50 (21922) Note Off ch=1 par1=70 par2=64
Channel Event. t= 182 (22104) Note Off ch=1 par1=75 par2=64
Channel Event. t= 8 (22112) Note On ch=1 par1=79 par2=95
Channel Event. t= 360 (22472) Note On ch=1 par1=82 par2=74
Channel Event. t= 30 (22502) Note Off ch=1 par1=79 par2=64
Channel Event. t= 2 (22504) Note Off ch=1 par1=82 par2=64
Channel Event. t= 88 (22592) Note On ch=1 par1=82 par2=80
Channel Event. t= 85 (22677) Note Off ch=1 par1=82 par2=64
Channel Event. t= 155 (22832) Note On ch=1 par1=84 par2=80
Channel Event. t= 42 (22874) Note Off ch=1 par1=84 par2=64
Channel Event. t= 198 (23072) Note On ch=1 par1=82 par2=96
Channel Event. t= 360 (23432) Note On ch=1 par1=79 par2=72
Channel Event. t= 17 (23449) Note Off ch=1 par1=82 par2=64
Channel Event. t= 103 (23552) Note Off ch=1 par1=79 par2=64
Channel Event. t= 0 (23552) Note On ch=1 par1=82 par2=89
Channel Event. t= 75 (23627) Note Off ch=1 par1=82 par2=64
Channel Event. t= 165 (23792) Note On ch=1 par1=84 par2=89
Channel Event. t= 77 (23869) Note Off ch=1 par1=84 par2=64
Channel Event. t= 163 (24032) Note On ch=1 par1=86 par2=91
Channel Event. t= 345 (24377) Note Off ch=1 par1=86 par2=64
Channel Event. t= 15 (24392) Note On ch=1 par1=87 par2=85
Channel Event. t= 35 (24427) Note Off ch=1 par1=87 par2=64
Channel Event. t= 85 (24512) Note On ch=1 par1=88 par2=96
Channel Event. t= 240 (24752) Note On ch=1 par1=89 par2=91
Channel Event. t= 27 (24779) Note Off ch=1 par1=88 par2=64
Channel Event. t= 213 (24992) Note On ch=1 par1=90 par2=93
Channel Event. t= 17 (25009) Note Off ch=1 par1=89 par2=64
Channel Event. t= 223 (25232) Note Off ch=1 par1=90 par2=64
Channel Event. t= 0 (25232) Note On ch=1 par1=91 par2=77
Channel Event. t= 240 (25472) Note On ch=1 par1=92 par2=96
Channel Event. t= 27 (25499) Note Off ch=1 par1=91 par2=64
Channel Event. t= 198 (25697) Note Off ch=1 par1=92 par2=64
Channel Event. t= 255 (25952) Note On ch=1 par1=80 par2=100
Channel Event. t= 360 (26312) Note On ch=1 par1=84 par2=74
Channel Event. t= 25 (26337) Note Off ch=1 par1=80 par2=64
Channel Event. t= 77 (26414) Note Off ch=1 par1=84 par2=64
Channel Event. t= 18 (26432) Note On ch=1 par1=87 par2=98
Channel Event. t= 70 (26502) Note Off ch=1 par1=87 par2=64
Channel Event. t= 170 (26672) Note On ch=1 par1=89 par2=80
Channel Event. t= 62 (26734) Note Off ch=1 par1=89 par2=64
Channel Event. t= 178 (26912) Note On ch=1 par1=87 par2=97
Channel Event. t= 360 (27272) Note On ch=1 par1=84 par2=78
Channel Event. t= 10 (27282) Note Off ch=1 par1=87 par2=64
Channel Event. t= 110 (27392) Note On ch=1 par1=87 par2=89
Channel Event. t= 12 (27404) Note Off ch=1 par1=84 par2=64
Channel Event. t= 58 (27462) Note Off ch=1 par1=87 par2=64
Channel Event. t= 170 (27632) Note On ch=1 par1=89 par2=82
Channel Event. t= 90 (27722) Note Off ch=1 par1=89 par2=64
Channel Event. t= 150 (27872) Note On ch=1 par1=91 par2=92
Channel Event. t= 360 (28232) Note On ch=1 par1=92 par2=84
Channel Event. t= 15 (28247) Note Off ch=1 par1=91 par2=64
Channel Event. t= 37 (28284) Note Off ch=1 par1=92 par2=64
Channel Event. t= 68 (28352) Note On ch=1 par1=87 par2=99
Channel Event. t= 77 (28429) Note Off ch=1 par1=87 par2=64
Channel Event. t= 163 (28592) Note On ch=1 par1=84 par2=83
Channel Event. t= 52 (28644) Note Off ch=1 par1=84 par2=64
Channel Event. t= 188 (28832) Note On ch=1 par1=80 par2=93
Channel Event. t= 240 (29072) Note On ch=1 par1=82 par2=91
Channel Event. t= 32 (29104) Note Off ch=1 par1=80 par2=64
Channel Event. t= 25 (29129) Note Off ch=1 par1=82 par2=64
Channel Event. t= 183 (29312) Note On ch=1 par1=83 par2=91
Channel Event. t= 240 (29552) Note On ch=1 par1=80 par2=74
Channel Event. t= 10 (29562) Note Off ch=1 par1=83 par2=64
Channel Event. t= 47 (29609) Note Off ch=1 par1=80 par2=64
Channel Event. t= 183 (29792) Note On ch=1 par1=82 par2=94
Channel Event. t= 240 (30032) Note On ch=1 par1=79 par2=69
Channel Event. t= 7 (30039) Note Off ch=1 par1=82 par2=64
Channel Event. t= 58 (30097) Note Off ch=1 par1=79 par2=64
Channel Event. t= 175 (30272) Note On ch=1 par1=81 par2=80
Channel Event. t= 240 (30512) Note On ch=1 par1=78 par2=73
Channel Event. t= 27 (30539) Note Off ch=1 par1=81 par2=64
Channel Event. t= 8 (30547) Note Off ch=1 par1=78 par2=64
Channel Event. t= 205 (30752) Note On ch=1 par1=80 par2=76
Channel Event. t= 250 (31002) Note Off ch=1 par1=80 par2=64
Channel Event. t= 230 (31232) Note On ch=1 par1=79 par2=74
Channel Event. t= 240 (31472) Note On ch=1 par1=76 par2=61
Channel Event. t= 15 (31487) Note Off ch=1 par1=79 par2=64
Channel Event. t= 30 (31517) Note Off ch=1 par1=76 par2=64
Channel Event. t= 195 (31712) Note On ch=1 par1=78 par2=81
Channel Event. t= 240 (31952) Note On ch=1 par1=75 par2=71
Channel Event. t= 25 (31977) Note Off ch=1 par1=78 par2=64
Channel Event. t= 10 (31987) Note Off ch=1 par1=75 par2=64
Channel Event. t= 205 (32192) Note On ch=1 par1=77 par2=78
Channel Event. t= 240 (32432) Note On ch=1 par1=74 par2=58
Channel Event. t= 22 (32454) Note Off ch=1 par1=77 par2=64
Channel Event. t= 15 (32469) Note Off ch=1 par1=74 par2=64
Channel Event. t= 203 (32672) Note On ch=1 par1=76 par2=71
Channel Event. t= 240 (32912) Note On ch=1 par1=73 par2=63
Channel Event. t= 17 (32929) Note Off ch=1 par1=76 par2=64
Channel Event. t= 18 (32947) Note Off ch=1 par1=73 par2=64
Channel Event. t= 205 (33152) Note On ch=1 par1=78 par2=87
Channel Event. t= 305 (33457) Note Off ch=1 par1=78 par2=64
Channel Event. t= 535 (33992) Note On ch=1 par1=78 par2=84
Channel Event. t= 45 (34037) Note Off ch=1 par1=78 par2=64
Channel Event. t= 75 (34112) Note On ch=1 par1=78 par2=87
Channel Event. t= 110 (34222) Note Off ch=1 par1=78 par2=64
Channel Event. t= 130 (34352) Note On ch=1 par1=78 par2=87
Channel Event. t= 62 (34414) Note Off ch=1 par1=78 par2=64
Channel Event. t= 178 (34592) Note On ch=1 par1=78 par2=89
Channel Event. t= 90 (34682) Note Off ch=1 par1=78 par2=64
Channel Event. t= 150 (34832) Note On ch=1 par1=78 par2=96
Channel Event. t= 77 (34909) Note Off ch=1 par1=78 par2=64
Channel Event. t= 643 (35552) Note On ch=1 par1=78 par2=104
Channel Event. t= 50 (35602) Note Off ch=1 par1=78 par2=64
Channel Event. t= 70 (35672) Note On ch=1 par1=78 par2=85
Channel Event. t= 55 (35727) Note Off ch=1 par1=78 par2=64
Channel Event. t= 65 (35792) Note On ch=1 par1=78 par2=80
Channel Event. t= 50 (35842) Note Off ch=1 par1=78 par2=64
Channel Event. t= 70 (35912) Note On ch=1 par1=78 par2=81
Channel Event. t= 57 (35969) Note Off ch=1 par1=78 par2=64
Channel Event. t= 63 (36032) Note On ch=1 par1=78 par2=98
Channel Event. t= 87 (36119) Note Off ch=1 par1=78 par2=64
Channel Event. t= 873 (36992) Note On ch=1 par1=90 par2=96
Channel Event. t= 92 (37084) Note Off ch=1 par1=90 par2=64
Channel Event. t= 148 (37232) Note On ch=1 par1=90 par2=83
Channel Event. t= 82 (37314) Note Off ch=1 par1=90 par2=64
Channel Event. t= 155 (37469) Note On ch=1 par1=91 par2=91
Channel Event. t= 3 (37472) Note On ch=1 par1=90 par2=92
Channel Event. t= 72 (37544) Note Off ch=1 par1=90 par2=64
Channel Event. t= 15 (37559) Note Off ch=1 par1=91 par2=64
Channel Event. t= 393 (37952) Note On ch=1 par1=90 par2=97
Channel Event. t= 60 (38012) Note Off ch=1 par1=90 par2=64
Channel Event. t= 180 (38192) Note On ch=1 par1=90 par2=80
Channel Event. t= 65 (38257) Note Off ch=1 par1=90 par2=64
Channel Event. t= 172 (38429) Note On ch=1 par1=91 par2=89
Channel Event. t= 3 (38432) Note On ch=1 par1=90 par2=101
Channel Event. t= 65 (38497) Note Off ch=1 par1=91 par2=64
Channel Event. t= 2 (38499) Note Off ch=1 par1=90 par2=64
Channel Event. t= 413 (38912) Note On ch=1 par1=90 par2=88
Channel Event. t= 50 (38962) Note Off ch=1 par1=90 par2=64
Channel Event. t= 190 (39152) Note On ch=1 par1=90 par2=83
Channel Event. t= 52 (39204) Note Off ch=1 par1=90 par2=64
Channel Event. t= 185 (39389) Note On ch=1 par1=91 par2=81
Channel Event. t= 3 (39392) Note On ch=1 par1=90 par2=98
Channel Event. t= 67 (39459) Note Off ch=1 par1=90 par2=64
Channel Event. t= 3 (39462) Note Off ch=1 par1=91 par2=64
Channel Event. t= 410 (39872) Note On ch=1 par1=90 par2=92
Channel Event. t= 57 (39929) Note Off ch=1 par1=90 par2=64
Channel Event. t= 183 (40112) Note On ch=1 par1=90 par2=93
Channel Event. t= 60 (40172) Note Off ch=1 par1=90 par2=64
Channel Event. t= 177 (40349) Note On ch=1 par1=91 par2=80
Channel Event. t= 3 (40352) Note On ch=1 par1=90 par2=102
Channel Event. t= 65 (40417) Note Off ch=1 par1=91 par2=64
Channel Event. t= 5 (40422) Note Off ch=1 par1=90 par2=64
Channel Event. t= 410 (40832) Note On ch=1 par1=91 par2=92
Channel Event. t= 120 (40952) Note Off ch=1 par1=91 par2=64
Channel Event. t= 1800 (42752) Note On ch=1 par1=91 par2=42
Channel Event. t= 82 (42834) Note Off ch=1 par1=91 par2=64
Channel Event. t= 7598 (50432) Note On ch=1 par1=79 par2=85
Channel Event. t= 480 (50912) Note On ch=1 par1=84 par2=89
Channel Event. t= 22 (50934) Note Off ch=1 par1=79 par2=64
Channel Event. t= 338 (51272) Note On ch=1 par1=88 par2=82
Channel Event. t= 25 (51297) Note Off ch=1 par1=84 par2=64
Channel Event. t= 70 (51367) Note Off ch=1 par1=88 par2=64
Channel Event. t= 25 (51392) Note On ch=1 par1=91 par2=87
Channel Event. t= 67 (51459) Note Off ch=1 par1=91 par2=64
Channel Event. t= 173 (51632) Note On ch=1 par1=93 par2=75
Channel Event. t= 47 (51679) Note Off ch=1 par1=93 par2=64
Channel Event. t= 193 (51872) Note On ch=1 par1=91 par2=95
Channel Event. t= 360 (52232) Note On ch=1 par1=88 par2=74
Channel Event. t= 27 (52259) Note Off ch=1 par1=91 par2=64
Channel Event. t= 85 (52344) Note Off ch=1 par1=88 par2=64
Channel Event. t= 8 (52352) Note On ch=1 par1=91 par2=86
Channel Event. t= 87 (52439) Note Off ch=1 par1=91 par2=64
Channel Event. t= 153 (52592) Note On ch=1 par1=93 par2=86
Channel Event. t= 65 (52657) Note Off ch=1 par1=93 par2=64
Channel Event. t= 175 (52832) Note On ch=1 par1=95 par2=88
Channel Event. t= 360 (53192) Note Off ch=1 par1=95 par2=64
Channel Event. t= 0 (53192) Note On ch=1 par1=96 par2=79
Channel Event. t= 115 (53307) Note Off ch=1 par1=96 par2=64
Channel Event. t= 5 (53312) Note On ch=1 par1=91 par2=82
Channel Event. t= 75 (53387) Note Off ch=1 par1=91 par2=64
Channel Event. t= 165 (53552) Note On ch=1 par1=88 par2=90
Channel Event. t= 40 (53592) Note Off ch=1 par1=88 par2=64
Channel Event. t= 200 (53792) Note On ch=1 par1=84 par2=87
Channel Event. t= 60 (53852) Note Off ch=1 par1=84 par2=64
Channel Event. t= 180 (54032) Note On ch=1 par1=86 par2=88
Channel Event. t= 60 (54092) Note Off ch=1 par1=86 par2=64
Channel Event. t= 180 (54272) Note On ch=1 par1=87 par2=88
Channel Event. t= 240 (54512) Note On ch=1 par1=84 par2=76
Channel Event. t= 62 (54574) Note Off ch=1 par1=87 par2=64
Channel Event. t= 18 (54592) Note Off ch=1 par1=84 par2=64
Channel Event. t= 160 (54752) Note On ch=1 par1=86 par2=86
Channel Event. t= 240 (54992) Note On ch=1 par1=83 par2=73
Channel Event. t= 15 (55007) Note Off ch=1 par1=86 par2=64
Channel Event. t= 25 (55032) Note Off ch=1 par1=83 par2=64
Channel Event. t= 200 (55232) Note On ch=1 par1=85 par2=90
Channel Event. t= 240 (55472) Note On ch=1 par1=82 par2=80
Channel Event. t= 37 (55509) Note Off ch=1 par1=85 par2=64
Channel Event. t= 30 (55539) Note Off ch=1 par1=82 par2=64
Channel Event. t= 173 (55712) Note On ch=1 par1=84 par2=88
Channel Event. t= 240 (55952) Note On ch=1 par1=81 par2=68
Channel Event. t= 10 (55962) Note Off ch=1 par1=84 par2=64
Channel Event. t= 27 (55989) Note Off ch=1 par1=81 par2=64
Channel Event. t= 203 (56192) Note On ch=1 par1=83 par2=83
Channel Event. t= 240 (56432) Note On ch=1 par1=80 par2=77
Channel Event. t= 15 (56447) Note Off ch=1 par1=83 par2=64
Channel Event. t= 40 (56487) Note Off ch=1 par1=80 par2=64
Channel Event. t= 185 (56672) Note On ch=1 par1=82 par2=89
Channel Event. t= 240 (56912) Note On ch=1 par1=79 par2=72
Channel Event. t= 25 (56937) Note Off ch=1 par1=82 par2=64
Channel Event. t= 37 (56974) Note Off ch=1 par1=79 par2=64
Channel Event. t= 178 (57152) Note On ch=1 par1=81 par2=83
Channel Event. t= 240 (57392) Note On ch=1 par1=78 par2=80
Channel Event. t= 20 (57412) Note Off ch=1 par1=81 par2=64
Channel Event. t= 32 (57444) Note Off ch=1 par1=78 par2=64
Channel Event. t= 188 (57632) Note On ch=1 par1=80 par2=87
Channel Event. t= 240 (57872) Note On ch=1 par1=77 par2=79
Channel Event. t= 27 (57899) Note Off ch=1 par1=80 par2=64
Channel Event. t= 18 (57917) Note Off ch=1 par1=77 par2=64
Channel Event. t= 195 (58112) Note On ch=1 par1=79 par2=76
Channel Event. t= 240 (58352) Note On ch=1 par1=72 par2=66
Channel Event. t= 25 (58377) Note Off ch=1 par1=79 par2=64
Channel Event. t= 70 (58447) Note Off ch=1 par1=72 par2=64
Channel Event. t= 25 (58472) Note On ch=1 par1=74 par2=75
Channel Event. t= 95 (58567) Note Off ch=1 par1=74 par2=64
Channel Event. t= 25 (58592) Note On ch=1 par1=75 par2=75
Channel Event. t= 95 (58687) Note Off ch=1 par1=75 par2=64
Channel Event. t= 505 (59192) Note On ch=1 par1=79 par2=70
Channel Event. t= 120 (59312) Note On ch=1 par1=72 par2=53
Channel Event. t= 12 (59324) Note Off ch=1 par1=79 par2=64
Channel Event. t= 95 (59419) Note Off ch=1 par1=72 par2=64
Channel Event. t= 13 (59432) Note On ch=1 par1=74 par2=56
Channel Event. t= 120 (59552) Note On ch=1 par1=75 par2=79
Channel Event. t= 2 (59554) Note Off ch=1 par1=74 par2=64
Channel Event. t= 80 (59634) Note Off ch=1 par1=75 par2=64
Channel Event. t= 0 (59634) 
Meta Event. Type: 0x2f (47dec), End of Track (0 bytes): 
track #45
track size: 1252
Channel Event. t= 0 (0) 
Meta Event. Type: 0x3 (3dec), Sequence/Track Name (20 bytes): French Horn         
Channel Event. t= 0 (0) 
Meta Event. Type: 0x21 (33dec), MIDI Port (1 bytes): 0
Channel Event. t= 0 (0) 
Meta Event. Type: 0x20 (32dec), MIDI Channel Prefix (1 bytes): 3
Channel Event. t= 0 (0) Controller ch=3 par1=10 (Pan) par2=64
Channel Event. t= 0 (0) Controller ch=3 par1=91 (Effects 2 Depth (formerly Tremolo Depth)) par2=127
Channel Event. t= 0 (0) Program Change ch=3 par1=92 par2=-91
Channel Event. t= 13592 (13592) Controller ch=3 par1=10 (Pan) par2=75
Channel Event. t= 360 (13952) Note On ch=3 par1=60 par2=39
Channel Event. t= 1915 (15867) Note Off ch=3 par1=60 par2=64
Channel Event. t= 5 (15872) Note On ch=3 par1=60 par2=83
Channel Event. t= 1807 (17679) Note Off ch=3 par1=60 par2=64
Channel Event. t= 593 (18272) Note On ch=3 par1=62 par2=90
Channel Event. t= 67 (18339) Note Off ch=3 par1=62 par2=64
Channel Event. t= 53 (18392) Note On ch=3 par1=62 par2=74
Channel Event. t= 100 (18492) Note Off ch=3 par1=62 par2=64
Channel Event. t= 20 (18512) Note On ch=3 par1=66 par2=73
Channel Event. t= 120 (18632) Note On ch=3 par1=62 par2=51
Channel Event. t= 2 (18634) Note Off ch=3 par1=66 par2=64
Channel Event. t= 65 (18699) Note Off ch=3 par1=62 par2=64
Channel Event. t= 533 (19232) Note On ch=3 par1=60 par2=86
Channel Event. t= 67 (19299) Note Off ch=3 par1=60 par2=64
Channel Event. t= 53 (19352) Note On ch=3 par1=60 par2=77
Channel Event. t= 95 (19447) Note Off ch=3 par1=60 par2=64
Channel Event. t= 25 (19472) Note On ch=3 par1=64 par2=79
Channel Event. t= 120 (19592) Note On ch=3 par1=60 par2=77
Channel Event. t= 10 (19602) Note Off ch=3 par1=64 par2=64
Channel Event. t= 55 (19657) Note Off ch=3 par1=60 par2=64
Channel Event. t= 535 (20192) Note On ch=3 par1=58 par2=83
Channel Event. t= 45 (20237) Note Off ch=3 par1=58 par2=64
Channel Event. t= 75 (20312) Note On ch=3 par1=58 par2=76
Channel Event. t= 82 (20394) Note Off ch=3 par1=58 par2=64
Channel Event. t= 38 (20432) Note On ch=3 par1=62 par2=67
Channel Event. t= 120 (20552) Note On ch=3 par1=58 par2=81
Channel Event. t= 5 (20557) Note Off ch=3 par1=62 par2=64
Channel Event. t= 70 (20627) Note Off ch=3 par1=58 par2=64
Channel Event. t= 525 (21152) Note On ch=3 par1=56 par2=82
Channel Event. t= 47 (21199) Note Off ch=3 par1=56 par2=64
Channel Event. t= 73 (21272) Note On ch=3 par1=56 par2=79
Channel Event. t= 67 (21339) Note Off ch=3 par1=56 par2=64
Channel Event. t= 53 (21392) Note On ch=3 par1=60 par2=70
Channel Event. t= 87 (21479) Note Off ch=3 par1=60 par2=64
Channel Event. t= 33 (21512) Note On ch=3 par1=56 par2=63
Channel Event. t= 40 (21552) Note Off ch=3 par1=56 par2=64
Channel Event. t= 80 (21632) Note On ch=3 par1=51 par2=94
Channel Event. t= 1870 (23502) Note Off ch=3 par1=51 par2=64
Channel Event. t= 50 (23552) Note On ch=3 par1=51 par2=58
Channel Event. t= 0 (23552) Note On ch=3 par1=63 par2=81
Channel Event. t= 1902 (25454) Note Off ch=3 par1=63 par2=64
Channel Event. t= 23 (25477) Note Off ch=3 par1=51 par2=64
Channel Event. t= 235 (25712) Note On ch=3 par1=60 par2=77
Channel Event. t= 120 (25832) Note On ch=3 par1=56 par2=71
Channel Event. t= 2 (25834) Note Off ch=3 par1=60 par2=64
Channel Event. t= 58 (25892) Note Off ch=3 par1=56 par2=64
Channel Event. t= 300 (26192) Note On ch=3 par1=60 par2=58
Channel Event. t= 120 (26312) Note On ch=3 par1=56 par2=67
Channel Event. t= 2 (26314) Note Off ch=3 par1=60 par2=64
Channel Event. t= 58 (26372) Note Off ch=3 par1=56 par2=64
Channel Event. t= 300 (26672) Note On ch=3 par1=60 par2=61
Channel Event. t= 120 (26792) Note On ch=3 par1=56 par2=65
Channel Event. t= 5 (26797) Note Off ch=3 par1=60 par2=64
Channel Event. t= 62 (26859) Note Off ch=3 par1=56 par2=64
Channel Event. t= 293 (27152) Note On ch=3 par1=60 par2=66
Channel Event. t= 120 (27272) Note On ch=3 par1=56 par2=69
Channel Event. t= 25 (27297) Note Off ch=3 par1=60 par2=64
Channel Event. t= 47 (27344) Note Off ch=3 par1=56 par2=64
Channel Event. t= 288 (27632) Note On ch=3 par1=60 par2=66
Channel Event. t= 120 (27752) Note On ch=3 par1=56 par2=72
Channel Event. t= 22 (27774) Note Off ch=3 par1=60 par2=64
Channel Event. t= 50 (27824) Note Off ch=3 par1=56 par2=64
Channel Event. t= 288 (28112) Note On ch=3 par1=60 par2=74
Channel Event. t= 120 (28232) Note On ch=3 par1=56 par2=77
Channel Event. t= 25 (28257) Note Off ch=3 par1=60 par2=64
Channel Event. t= 52 (28309) Note Off ch=3 par1=56 par2=64
Channel Event. t= 283 (28592) Note On ch=3 par1=60 par2=74
Channel Event. t= 120 (28712) Note On ch=3 par1=56 par2=75
Channel Event. t= 7 (28719) Note Off ch=3 par1=60 par2=64
Channel Event. t= 65 (28784) Note Off ch=3 par1=56 par2=64
Channel Event. t= 288 (29072) Note On ch=3 par1=60 par2=75
Channel Event. t= 117 (29189) Note Off ch=3 par1=60 par2=64
Channel Event. t= 3 (29192) Note On ch=3 par1=56 par2=80
Channel Event. t= 82 (29274) Note Off ch=3 par1=56 par2=64
Channel Event. t= 518 (29792) Note On ch=3 par1=58 par2=87
Channel Event. t= 57 (29849) Note Off ch=3 par1=58 par2=64
Channel Event. t= 63 (29912) Note On ch=3 par1=58 par2=77
Channel Event. t= 110 (30022) Note Off ch=3 par1=58 par2=64
Channel Event. t= 10 (30032) Note On ch=3 par1=62 par2=78
Channel Event. t= 120 (30152) Note On ch=3 par1=58 par2=81
Channel Event. t= 20 (30172) Note Off ch=3 par1=62 par2=64
Channel Event. t= 42 (30214) Note Off ch=3 par1=58 par2=64
Channel Event. t= 538 (30752) Note On ch=3 par1=56 par2=87
Channel Event. t= 62 (30814) Note Off ch=3 par1=56 par2=64
Channel Event. t= 58 (30872) Note On ch=3 par1=56 par2=68
Channel Event. t= 87 (30959) Note Off ch=3 par1=56 par2=64
Channel Event. t= 33 (30992) Note On ch=3 par1=60 par2=77
Channel Event. t= 120 (31112) Note On ch=3 par1=56 par2=81
Channel Event. t= 45 (31157) Note Off ch=3 par1=60 par2=64
Channel Event. t= 50 (31207) Note Off ch=3 par1=56 par2=64
Channel Event. t= 505 (31712) Note On ch=3 par1=54 par2=88
Channel Event. t= 62 (31774) Note Off ch=3 par1=54 par2=64
Channel Event. t= 58 (31832) Note On ch=3 par1=54 par2=76
Channel Event. t= 95 (31927) Note Off ch=3 par1=54 par2=64
Channel Event. t= 25 (31952) Note On ch=3 par1=58 par2=79
Channel Event. t= 120 (32072) Note On ch=3 par1=54 par2=80
Channel Event. t= 12 (32084) Note Off ch=3 par1=58 par2=64
Channel Event. t= 75 (32159) Note Off ch=3 par1=54 par2=64
Channel Event. t= 513 (32672) Note On ch=3 par1=52 par2=83
Channel Event. t= 60 (32732) Note Off ch=3 par1=52 par2=64
Channel Event. t= 60 (32792) Note On ch=3 par1=52 par2=72
Channel Event. t= 110 (32902) Note Off ch=3 par1=52 par2=64
Channel Event. t= 10 (32912) Note On ch=3 par1=56 par2=82
Channel Event. t= 120 (33032) Note Off ch=3 par1=56 par2=64
Channel Event. t= 0 (33032) Note On ch=3 par1=52 par2=73
Channel Event. t= 70 (33102) Note Off ch=3 par1=52 par2=64
Channel Event. t= 50 (33152) Note On ch=3 par1=47 par2=69
Channel Event. t= 460 (33612) Note Off ch=3 par1=47 par2=64
Channel Event. t= 20 (33632) Note On ch=3 par1=51 par2=89
Channel Event. t= 480 (34112) Note On ch=3 par1=47 par2=63
Channel Event. t= 35 (34147) Note Off ch=3 par1=51 par2=64
Channel Event. t= 445 (34592) Note Off ch=3 par1=47 par2=64
Channel Event. t= 0 (34592) Note On ch=3 par1=51 par2=60
Channel Event. t= 480 (35072) Note Off ch=3 par1=51 par2=64
Channel Event. t= 0 (35072) Note On ch=3 par1=47 par2=64
Channel Event. t= 240 (35312) Note Off ch=3 par1=47 par2=64
Channel Event. t= 0 (35312) Note On ch=3 par1=51 par2=59
Channel Event. t= 240 (35552) Note Off ch=3 par1=51 par2=64
Channel Event. t= 0 (35552) Note On ch=3 par1=51 par2=72
Channel Event. t= 480 (36032) Note Off ch=3 par1=51 par2=64
Channel Event. t= 0 (36032) Note On ch=3 par1=54 par2=68
Channel Event. t= 240 (36272) Note Off ch=3 par1=54 par2=64
Channel Event. t= 0 (36272) Note On ch=3 par1=59 par2=59
Channel Event. t= 240 (36512) Note Off ch=3 par1=59 par2=64
Channel Event. t= 0 (36512) Note On ch=3 par1=59 par2=73
Channel Event. t= 480 (36992) Note Off ch=3 par1=59 par2=64
Channel Event. t= 0 (36992) Note On ch=3 par1=59 par2=75
Channel Event. t= 2 (36994) Note Off ch=3 par1=59 par2=64
Channel Event. t= 13438 (50432) Note On ch=3 par1=60 par2=76
Channel Event. t= 1882 (52314) Note Off ch=3 par1=60 par2=64
Channel Event. t= 38 (52352) Note On ch=3 par1=60 par2=78
Channel Event. t= 1915 (54267) Note Off ch=3 par1=60 par2=64
Channel Event. t= 485 (54752) Note On ch=3 par1=62 par2=89
Channel Event. t= 60 (54812) Note Off ch=3 par1=62 par2=64
Channel Event. t= 60 (54872) Note On ch=3 par1=62 par2=77
Channel Event. t= 97 (54969) Note Off ch=3 par1=62 par2=64
Channel Event. t= 23 (54992) Note On ch=3 par1=66 par2=74
Channel Event. t= 120 (55112) Note On ch=3 par1=62 par2=67
Channel Event. t= 2 (55114) Note Off ch=3 par1=66 par2=64
Channel Event. t= 93 (55207) Note Off ch=3 par1=62 par2=64
Channel Event. t= 505 (55712) Note On ch=3 par1=60 par2=87
Channel Event. t= 80 (55792) Note Off ch=3 par1=60 par2=64
Channel Event. t= 40 (55832) Note On ch=3 par1=60 par2=82
Channel Event. t= 120 (55952) Note On ch=3 par1=64 par2=91
Channel Event. t= 5 (55957) Note Off ch=3 par1=60 par2=64
Channel Event. t= 112 (56069) Note Off ch=3 par1=64 par2=64
Channel Event. t= 3 (56072) Note On ch=3 par1=60 par2=88
Channel Event. t= 75 (56147) Note Off ch=3 par1=60 par2=64
Channel Event. t= 525 (56672) Note On ch=3 par1=58 par2=90
Channel Event. t= 52 (56724) Note Off ch=3 par1=58 par2=64
Channel Event. t= 68 (56792) Note On ch=3 par1=58 par2=80
Channel Event. t= 40 (56832) Note Off ch=3 par1=58 par2=64
Channel Event. t= 80 (56912) Note On ch=3 par1=62 par2=89
Channel Event. t= 120 (57032) Note On ch=3 par1=58 par2=87
Channel Event. t= 40 (57072) Note Off ch=3 par1=62 par2=64
Channel Event. t= 77 (57149) Note Off ch=3 par1=58 par2=64
Channel Event. t= 483 (57632) Note On ch=3 par1=56 par2=90
Channel Event. t= 57 (57689) Note Off ch=3 par1=56 par2=64
Channel Event. t= 63 (57752) Note On ch=3 par1=56 par2=77
Channel Event. t= 92 (57844) Note Off ch=3 par1=56 par2=64
Channel Event. t= 28 (57872) Note On ch=3 par1=60 par2=83
Channel Event. t= 120 (57992) Note On ch=3 par1=56 par2=84
Channel Event. t= 15 (58007) Note Off ch=3 par1=60 par2=64
Channel Event. t= 60 (58067) Note Off ch=3 par1=56 par2=64
Channel Event. t= 45 (58112) Note On ch=3 par1=51 par2=100
Channel Event. t= 410 (58522) Note Off ch=3 par1=51 par2=64
Channel Event. t= 70 (58592) Note On ch=3 par1=51 par2=85
Channel Event. t= 120 (58712) Note On ch=3 par1=55 par2=72
Channel Event. t= 7 (58719) Note Off ch=3 par1=51 par2=64
Channel Event. t= 100 (58819) Note Off ch=3 par1=55 par2=64
Channel Event. t= 13 (58832) Note On ch=3 par1=58 par2=75
Channel Event. t= 120 (58952) Note On ch=3 par1=55 par2=75
Channel Event. t= 15 (58967) Note Off ch=3 par1=58 par2=64
Channel Event. t= 87 (59054) Note Off ch=3 par1=55 par2=64
Channel Event. t= 498 (59552) Note On ch=3 par1=51 par2=88
Channel Event. t= 120 (59672) Note On ch=3 par1=55 par2=74
Channel Event. t= 30 (59702) Note Off ch=3 par1=51 par2=64
Channel Event. t= 90 (59792) Note On ch=3 par1=58 par2=88
Channel Event. t= 17 (59809) Note Off ch=3 par1=55 par2=64
Channel Event. t= 103 (59912) Note On ch=3 par1=63 par2=91
Channel Event. t= 25 (59937) Note Off ch=3 par1=58 par2=64
Channel Event. t= 95 (60032) Note Off ch=3 par1=63 par2=64
Channel Event. t= 73260 (133292) Controller ch=3 par1=7 (Main Volume) par2=80
Channel Event. t= 180 (133472) Note On ch=3 par1=48 par2=75
Channel Event. t= 480 (133952) Note Off ch=3 par1=48 par2=64
Channel Event. t= 0 (133952) Note On ch=3 par1=49 par2=87
Channel Event. t= 297 (134249) Note Off ch=3 par1=49 par2=64
Channel Event. t= 183 (134432) Note On ch=3 par1=51 par2=95
Channel Event. t= 327 (134759) Note Off ch=3 par1=51 par2=64
Channel Event. t= 153 (134912) Note On ch=3 par1=52 par2=105
Channel Event. t= 337 (135249) Note Off ch=3 par1=52 par2=64
Channel Event. t= 143 (135392) Note On ch=3 par1=48 par2=100
Channel Event. t= 480 (135872) Note On ch=3 par1=49 par2=99
Channel Event. t= 32 (135904) Note Off ch=3 par1=48 par2=64
Channel Event. t= 343 (136247) Note Off ch=3 par1=49 par2=64
Channel Event. t= 105 (136352) Note On ch=3 par1=51 par2=97
Channel Event. t= 327 (136679) Note Off ch=3 par1=51 par2=64
Channel Event. t= 153 (136832) Note On ch=3 par1=52 par2=107
Channel Event. t= 362 (137194) Note Off ch=3 par1=52 par2=64
Channel Event. t= 118 (137312) Note On ch=3 par1=48 par2=98
Channel Event. t= 480 (137792) Note On ch=3 par1=49 par2=98
Channel Event. t= 45 (137837) Note Off ch=3 par1=48 par2=64
Channel Event. t= 195 (138032) Note On ch=3 par1=51 par2=92
Channel Event. t= 22 (138054) Note Off ch=3 par1=49 par2=64
Channel Event. t= 213 (138267) Note Off ch=3 par1=51 par2=64
Channel Event. t= 5 (138272) Note On ch=3 par1=53 par2=80
Channel Event. t= 240 (138512) Note On ch=3 par1=56 par2=92
Channel Event. t= 65 (138577) Note Off ch=3 par1=53 par2=64
Channel Event. t= 165 (138742) Note Off ch=3 par1=56 par2=64
Channel Event. t= 10 (138752) Note On ch=3 par1=60 par2=91
Channel Event. t= 452 (139204) Note Off ch=3 par1=60 par2=64
Channel Event. t= 28 (139232) Note On ch=3 par1=59 par2=95
Channel Event. t= 240 (139472) Note On ch=3 par1=60 par2=89
Channel Event. t= 10 (139482) Note Off ch=3 par1=59 par2=64
Channel Event. t= 230 (139712) Note On ch=3 par1=61 par2=70
Channel Event. t= 27 (139739) Note Off ch=3 par1=60 par2=64
Channel Event. t= 288 (140027) Note Off ch=3 par1=61 par2=64
Channel Event. t= 165 (140192) Note On ch=3 par1=65 par2=91
Channel Event. t= 397 (140589) Note Off ch=3 par1=65 par2=64
Channel Event. t= 83 (140672) Note On ch=3 par1=64 par2=102
Channel Event. t= 960 (141632) Note Off ch=3 par1=64 par2=64
Channel Event. t= 0 (141632) Note On ch=3 par1=61 par2=101
Channel Event. t= 342 (141974) Note Off ch=3 par1=61 par2=64
Channel Event. t= 138 (142112) Note On ch=3 par1=65 par2=94
Channel Event. t= 360 (142472) Note Off ch=3 par1=65 par2=64
Channel Event. t= 120 (142592) Note On ch=3 par1=64 par2=95
Channel Event. t= 172 (142764) Note Off ch=3 par1=64 par2=64
Channel Event. t= 45 (142809) Note On ch=3 par1=65 par2=91
Channel Event. t= 23 (142832) Note On ch=3 par1=64 par2=68
Channel Event. t= 65 (142897) Note Off ch=3 par1=65 par2=64
Channel Event. t= 110 (143007) Note Off ch=3 par1=64 par2=64
Channel Event. t= 65 (143072) Note On ch=3 par1=60 par2=93
Channel Event. t= 207 (143279) Note Off ch=3 par1=60 par2=64
Channel Event. t= 33 (143312) Note On ch=3 par1=55 par2=89
Channel Event. t= 215 (143527) Note Off ch=3 par1=55 par2=64
Channel Event. t= 25 (143552) Note On ch=3 par1=56 par2=100
Channel Event. t= 302 (143854) Note Off ch=3 par1=56 par2=64
Channel Event. t= 178 (144032) Note On ch=3 par1=61 par2=105
Channel Event. t= 345 (144377) Note Off ch=3 par1=61 par2=64
Channel Event. t= 135 (144512) Note On ch=3 par1=60 par2=97
Channel Event. t= 150 (144662) Note Off ch=3 par1=60 par2=64
Channel Event. t= 47 (144709) Note On ch=3 par1=61 par2=99
Channel Event. t= 43 (144752) Note On ch=3 par1=60 par2=76
Channel Event. t= 40 (144792) Note Off ch=3 par1=61 par2=64
Channel Event. t= 135 (144927) Note Off ch=3 par1=60 par2=64
Channel Event. t= 65 (144992) Note On ch=3 par1=55 par2=89
Channel Event. t= 195 (145187) Note Off ch=3 par1=55 par2=64
Channel Event. t= 45 (145232) Note On ch=3 par1=52 par2=88
Channel Event. t= 240 (145472) Note On ch=3 par1=53 par2=102
Channel Event. t= 7 (145479) Note Off ch=3 par1=52 par2=64
Channel Event. t= 285 (145764) Note Off ch=3 par1=53 par2=64
Channel Event. t= 188 (145952) Note On ch=3 par1=56 par2=104
Channel Event. t= 367 (146319) Note Off ch=3 par1=56 par2=64
Channel Event. t= 113 (146432) Note On ch=3 par1=55 par2=102
Channel Event. t= 405 (146837) Note Off ch=3 par1=55 par2=64
Channel Event. t= 75 (146912) Note On ch=3 par1=51 par2=104
Channel Event. t= 222 (147134) Note Off ch=3 par1=51 par2=64
Channel Event. t= 18 (147152) Note On ch=3 par1=52 par2=89
Channel Event. t= 240 (147392) Note On ch=3 par1=53 par2=100
Channel Event. t= 42 (147434) Note Off ch=3 par1=52 par2=64
Channel Event. t= 318 (147752) Note Off ch=3 par1=53 par2=64
Channel Event. t= 120 (147872) Note On ch=3 par1=56 par2=108
Channel Event. t= 350 (148222) Note Off ch=3 par1=56 par2=64
Channel Event. t= 130 (148352) Note On ch=3 par1=55 par2=102
Channel Event. t= 450 (148802) Note Off ch=3 par1=55 par2=64
Channel Event. t= 30 (148832) Note On ch=3 par1=51 par2=103
Channel Event. t= 222 (149054) Note Off ch=3 par1=51 par2=64
Channel Event. t= 18 (149072) Note On ch=3 par1=52 par2=89
Channel Event. t= 240 (149312) Note On ch=3 par1=53 par2=100
Channel Event. t= 5 (149317) Note Off ch=3 par1=52 par2=64
Channel Event. t= 327 (149644) Note Off ch=3 par1=53 par2=64
Channel Event. t= 148 (149792) Note On ch=3 par1=56 par2=97
Channel Event. t= 480 (150272) Note On ch=3 par1=55 par2=92
Channel Event. t= 60 (150332) Note Off ch=3 par1=56 par2=64
Channel Event. t= 1140 (151472) Note Off ch=3 par1=55 par2=64
Channel Event. t= 0 (151472) 
Meta Event. Type: 0x2f (47dec), End of Track (0 bytes): 
track #46
track size: 7958
Channel Event. t= 0 (0) 
Meta Event. Type: 0x3 (3dec), Sequence/Track Name (20 bytes): Strings             
Channel Event. t= 0 (0) 
Meta Event. Type: 0x21 (33dec), MIDI Port (1 bytes): 0
Channel Event. t= 0 (0) 
Meta Event. Type: 0x20 (32dec), MIDI Channel Prefix (1 bytes): 5
Channel Event. t= 0 (0) Controller ch=5 par1=10 (Pan) par2=64
Channel Event. t= 0 (0) Controller ch=5 par1=91 (Effects 2 Depth (formerly Tremolo Depth)) par2=127
Channel Event. t= 0 (0) Program Change ch=5 par1=48 par2=-91
Channel Event. t= 13592 (13592) Controller ch=5 par1=10 (Pan) par2=40
Channel Event. t= 360 (13952) Note On ch=5 par1=64 par2=58
Channel Event. t= 0 (13952) Note On ch=5 par1=72 par2=61
Channel Event. t= 120 (14072) Note On ch=5 par1=76 par2=61
Channel Event. t= 7 (14079) Note Off ch=5 par1=72 par2=64
Channel Event. t= 113 (14192) Note Off ch=5 par1=76 par2=64
Channel Event. t= 0 (14192) Note On ch=5 par1=67 par2=36
Channel Event. t= 0 (14192) Note On ch=5 par1=72 par2=53
Channel Event. t= 27 (14219) Note Off ch=5 par1=64 par2=64
Channel Event. t= 93 (14312) Note On ch=5 par1=76 par2=42
Channel Event. t= 10 (14322) Note Off ch=5 par1=72 par2=64
Channel Event. t= 107 (14429) Note Off ch=5 par1=76 par2=64
Channel Event. t= 3 (14432) Note On ch=5 par1=64 par2=64
Channel Event. t= 0 (14432) Note On ch=5 par1=72 par2=50
Channel Event. t= 32 (14464) Note Off ch=5 par1=67 par2=64
Channel Event. t= 88 (14552) Note On ch=5 par1=76 par2=53
Channel Event. t= 12 (14564) Note Off ch=5 par1=72 par2=64
Channel Event. t= 108 (14672) Note On ch=5 par1=67 par2=52
Channel Event. t= 0 (14672) Note On ch=5 par1=79 par2=66
Channel Event. t= 10 (14682) Note Off ch=5 par1=76 par2=64
Channel Event. t= 40 (14722) Note Off ch=5 par1=64 par2=64
Channel Event. t= 70 (14792) Note On ch=5 par1=76 par2=60
Channel Event. t= 17 (14809) Note Off ch=5 par1=79 par2=64
Channel Event. t= 103 (14912) Note On ch=5 par1=64 par2=77
Channel Event. t= 0 (14912) Note On ch=5 par1=72 par2=66
Channel Event. t= 7 (14919) Note Off ch=5 par1=76 par2=64
Channel Event. t= 18 (14937) Note Off ch=5 par1=67 par2=64
Channel Event. t= 95 (15032) Note On ch=5 par1=76 par2=65
Channel Event. t= 20 (15052) Note Off ch=5 par1=72 par2=64
Channel Event. t= 100 (15152) Note On ch=5 par1=67 par2=63
Channel Event. t= 0 (15152) Note On ch=5 par1=79 par2=66
Channel Event. t= 12 (15164) Note Off ch=5 par1=76 par2=64
Channel Event. t= 28 (15192) Note Off ch=5 par1=64 par2=64
Channel Event. t= 80 (15272) Note On ch=5 par1=76 par2=68
Channel Event. t= 15 (15287) Note Off ch=5 par1=79 par2=64
Channel Event. t= 105 (15392) Note On ch=5 par1=64 par2=71
Channel Event. t= 0 (15392) Note On ch=5 par1=72 par2=64
Channel Event. t= 7 (15399) Note Off ch=5 par1=76 par2=64
Channel Event. t= 23 (15422) Note Off ch=5 par1=67 par2=64
Channel Event. t= 90 (15512) Note On ch=5 par1=76 par2=63
Channel Event. t= 17 (15529) Note Off ch=5 par1=72 par2=64
Channel Event. t= 103 (15632) Note On ch=5 par1=67 par2=53
Channel Event. t= 0 (15632) Note On ch=5 par1=79 par2=63
Channel Event. t= 25 (15657) Note Off ch=5 par1=76 par2=64
Channel Event. t= 12 (15669) Note Off ch=5 par1=64 par2=64
Channel Event. t= 83 (15752) Note On ch=5 par1=76 par2=59
Channel Event. t= 40 (15792) Note Off ch=5 par1=79 par2=64
Channel Event. t= 52 (15844) Note Off ch=5 par1=76 par2=64
Channel Event. t= 28 (15872) Note On ch=5 par1=64 par2=65
Channel Event. t= 0 (15872) Note On ch=5 par1=72 par2=78
Channel Event. t= 22 (15894) Note Off ch=5 par1=67 par2=64
Channel Event. t= 98 (15992) Note On ch=5 par1=76 par2=66
Channel Event. t= 17 (16009) Note Off ch=5 par1=72 par2=64
Channel Event. t= 103 (16112) Note On ch=5 par1=67 par2=52
Channel Event. t= 0 (16112) Note On ch=5 par1=79 par2=61
Channel Event. t= 17 (16129) Note Off ch=5 par1=76 par2=64
Channel Event. t= 23 (16152) Note Off ch=5 par1=64 par2=64
Channel Event. t= 80 (16232) Note On ch=5 par1=76 par2=56
Channel Event. t= 35 (16267) Note Off ch=5 par1=79 par2=64
Channel Event. t= 85 (16352) Note On ch=5 par1=64 par2=69
Channel Event. t= 0 (16352) Note On ch=5 par1=72 par2=69
Channel Event. t= 20 (16372) Note Off ch=5 par1=76 par2=64
Channel Event. t= 12 (16384) Note Off ch=5 par1=67 par2=64
Channel Event. t= 88 (16472) Note On ch=5 par1=76 par2=58
Channel Event. t= 20 (16492) Note Off ch=5 par1=72 par2=64
Channel Event. t= 100 (16592) Note On ch=5 par1=67 par2=55
Channel Event. t= 0 (16592) Note On ch=5 par1=79 par2=62
Channel Event. t= 20 (16612) Note Off ch=5 par1=76 par2=64
Channel Event. t= 10 (16622) Note Off ch=5 par1=64 par2=64
Channel Event. t= 90 (16712) Note On ch=5 par1=76 par2=53
Channel Event. t= 30 (16742) Note Off ch=5 par1=79 par2=64
Channel Event. t= 90 (16832) Note On ch=5 par1=64 par2=65
Channel Event. t= 0 (16832) Note On ch=5 par1=72 par2=66
Channel Event. t= 2 (16834) Note Off ch=5 par1=76 par2=64
Channel Event. t= 18 (16852) Note Off ch=5 par1=67 par2=64
Channel Event. t= 100 (16952) Note On ch=5 par1=76 par2=61
Channel Event. t= 20 (16972) Note Off ch=5 par1=72 par2=64
Channel Event. t= 100 (17072) Note On ch=5 par1=67 par2=61
Channel Event. t= 0 (17072) Note On ch=5 par1=79 par2=59
Channel Event. t= 10 (17082) Note Off ch=5 par1=76 par2=64
Channel Event. t= 27 (17109) Note Off ch=5 par1=64 par2=64
Channel Event. t= 83 (17192) Note On ch=5 par1=76 par2=58
Channel Event. t= 17 (17209) Note Off ch=5 par1=79 par2=64
Channel Event. t= 103 (17312) Note On ch=5 par1=64 par2=68
Channel Event. t= 0 (17312) Note On ch=5 par1=72 par2=67
Channel Event. t= 15 (17327) Note Off ch=5 par1=76 par2=64
Channel Event. t= 10 (17337) Note Off ch=5 par1=67 par2=64
Channel Event. t= 95 (17432) Note Off ch=5 par1=72 par2=64
Channel Event. t= 0 (17432) Note On ch=5 par1=79 par2=53
Channel Event. t= 67 (17499) Note Off ch=5 par1=79 par2=64
Channel Event. t= 53 (17552) Note On ch=5 par1=67 par2=67
Channel Event. t= 0 (17552) Note On ch=5 par1=79 par2=51
Channel Event. t= 40 (17592) Note Off ch=5 par1=64 par2=64
Channel Event. t= 80 (17672) Note On ch=5 par1=76 par2=61
Channel Event. t= 12 (17684) Note Off ch=5 par1=79 par2=64
Channel Event. t= 50 (17734) Note Off ch=5 par1=67 par2=64
Channel Event. t= 58 (17792) Note On ch=5 par1=63 par2=68
Channel Event. t= 0 (17792) Note On ch=5 par1=68 par2=38
Channel Event. t= 0 (17792) Note On ch=5 par1=80 par2=76
Channel Event. t= 27 (17819) Note Off ch=5 par1=76 par2=64
Channel Event. t= 50 (17869) Note Off ch=5 par1=63 par2=64
Channel Event. t= 43 (17912) Note On ch=5 par1=63 par2=79
Channel Event. t= 107 (18019) Note Off ch=5 par1=63 par2=64
Channel Event. t= 13 (18032) Note On ch=5 par1=67 par2=68
Channel Event. t= 120 (18152) Note On ch=5 par1=63 par2=80
Channel Event. t= 30 (18182) Note Off ch=5 par1=67 par2=64
Channel Event. t= 57 (18239) Note Off ch=5 par1=63 par2=64
Channel Event. t= 418 (18657) Note Off ch=5 par1=68 par2=64
Channel Event. t= 7 (18664) Note Off ch=5 par1=80 par2=64
Channel Event. t= 88 (18752) Note On ch=5 par1=61 par2=97
Channel Event. t= 0 (18752) Note On ch=5 par1=68 par2=58
Channel Event. t= 0 (18752) Note On ch=5 par1=80 par2=58
Channel Event. t= 80 (18832) Note Off ch=5 par1=61 par2=64
Channel Event. t= 40 (18872) Note On ch=5 par1=61 par2=88
Channel Event. t= 102 (18974) Note Off ch=5 par1=61 par2=64
Channel Event. t= 18 (18992) Note On ch=5 par1=65 par2=74
Channel Event. t= 120 (19112) Note On ch=5 par1=61 par2=73
Channel Event. t= 32 (19144) Note Off ch=5 par1=65 par2=64
Channel Event. t= 70 (19214) Note Off ch=5 par1=61 par2=64
Channel Event. t= 463 (19677) Note Off ch=5 par1=68 par2=64
Channel Event. t= 35 (19712) Note On ch=5 par1=59 par2=93
Channel Event. t= 0 (19712) Note On ch=5 par1=68 par2=75
Channel Event. t= 55 (19767) Note Off ch=5 par1=80 par2=64
Channel Event. t= 20 (19787) Note Off ch=5 par1=59 par2=64
Channel Event. t= 45 (19832) Note On ch=5 par1=59 par2=75
Channel Event. t= 107 (19939) Note Off ch=5 par1=59 par2=64
Channel Event. t= 13 (19952) Note On ch=5 par1=63 par2=77
Channel Event. t= 120 (20072) Note On ch=5 par1=59 par2=82
Channel Event. t= 25 (20097) Note Off ch=5 par1=63 par2=64
Channel Event. t= 87 (20184) Note Off ch=5 par1=59 par2=64
Channel Event. t= 440 (20624) Note Off ch=5 par1=68 par2=64
Channel Event. t= 48 (20672) Note On ch=5 par1=57 par2=91
Channel Event. t= 0 (20672) Note On ch=5 par1=68 par2=69
Channel Event. t= 85 (20757) Note Off ch=5 par1=57 par2=64
Channel Event. t= 35 (20792) Note On ch=5 par1=57 par2=73
Channel Event. t= 107 (20899) Note Off ch=5 par1=57 par2=64
Channel Event. t= 13 (20912) Note On ch=5 par1=61 par2=81
Channel Event. t= 120 (21032) Note On ch=5 par1=57 par2=74
Channel Event. t= 2 (21034) Note Off ch=5 par1=61 par2=64
Channel Event. t= 108 (21142) Note Off ch=5 par1=57 par2=64
Channel Event. t= 490 (21632) Note On ch=5 par1=63 par2=58
Channel Event. t= 32 (21664) Note Off ch=5 par1=68 par2=64
Channel Event. t= 80 (21744) Note Off ch=5 par1=63 par2=64
Channel Event. t= 8 (21752) Note On ch=5 par1=67 par2=53
Channel Event. t= 120 (21872) Note Off ch=5 par1=67 par2=64
Channel Event. t= 0 (21872) Note On ch=5 par1=58 par2=86
Channel Event. t= 0 (21872) Note On ch=5 par1=63 par2=58
Channel Event. t= 120 (21992) Note On ch=5 par1=67 par2=53
Channel Event. t= 15 (22007) Note Off ch=5 par1=63 par2=64
Channel Event. t= 105 (22112) Note Off ch=5 par1=67 par2=64
Channel Event. t= 0 (22112) Note On ch=5 par1=55 par2=84
Channel Event. t= 0 (22112) Note On ch=5 par1=63 par2=58
Channel Event. t= 20 (22132) Note Off ch=5 par1=58 par2=64
Channel Event. t= 100 (22232) Note Off ch=5 par1=63 par2=64
Channel Event. t= 0 (22232) Note On ch=5 par1=67 par2=56
Channel Event. t= 120 (22352) Note Off ch=5 par1=67 par2=64
Channel Event. t= 0 (22352) Note On ch=5 par1=58 par2=72
Channel Event. t= 0 (22352) Note On ch=5 par1=70 par2=57
Channel Event. t= 22 (22374) Note Off ch=5 par1=55 par2=64
Channel Event. t= 98 (22472) Note Off ch=5 par1=70 par2=64
Channel Event. t= 0 (22472) Note On ch=5 par1=67 par2=54
Channel Event. t= 120 (22592) Note Off ch=5 par1=67 par2=64
Channel Event. t= 0 (22592) Note On ch=5 par1=55 par2=75
Channel Event. t= 0 (22592) Note On ch=5 par1=63 par2=55
Channel Event. t= 12 (22604) Note Off ch=5 par1=58 par2=64
Channel Event. t= 108 (22712) Note On ch=5 par1=67 par2=52
Channel Event. t= 7 (22719) Note Off ch=5 par1=63 par2=64
Channel Event. t= 113 (22832) Note On ch=5 par1=58 par2=68
Channel Event. t= 0 (22832) Note On ch=5 par1=70 par2=56
Channel Event. t= 12 (22844) Note Off ch=5 par1=67 par2=64
Channel Event. t= 3 (22847) Note Off ch=5 par1=55 par2=64
Channel Event. t= 102 (22949) Note Off ch=5 par1=70 par2=64
Channel Event. t= 3 (22952) Note On ch=5 par1=67 par2=44
Channel Event. t= 120 (23072) Note On ch=5 par1=55 par2=69
Channel Event. t= 0 (23072) Note On ch=5 par1=63 par2=60
Channel Event. t= 10 (23082) Note Off ch=5 par1=58 par2=64
Channel Event. t= 7 (23089) Note Off ch=5 par1=67 par2=64
Channel Event. t= 103 (23192) Note On ch=5 par1=67 par2=49
Channel Event. t= 5 (23197) Note Off ch=5 par1=63 par2=64
Channel Event. t= 115 (23312) Note On ch=5 par1=58 par2=70
Channel Event. t= 0 (23312) Note On ch=5 par1=70 par2=66
Channel Event. t= 27 (23339) Note Off ch=5 par1=67 par2=64
Channel Event. t= 13 (23352) Note Off ch=5 par1=55 par2=64
Channel Event. t= 80 (23432) Note Off ch=5 par1=70 par2=64
Channel Event. t= 0 (23432) Note On ch=5 par1=67 par2=49
Channel Event. t= 62 (23494) Note Off ch=5 par1=67 par2=64
Channel Event. t= 13 (23507) Note Off ch=5 par1=58 par2=64
Channel Event. t= 45 (23552) Note On ch=5 par1=58 par2=65
Channel Event. t= 0 (23552) Note On ch=5 par1=70 par2=75
Channel Event. t= 102 (23654) Note Off ch=5 par1=70 par2=64
Channel Event. t= 18 (23672) Note On ch=5 par1=55 par2=73
Channel Event. t= 0 (23672) Note On ch=5 par1=67 par2=52
Channel Event. t= 7 (23679) Note Off ch=5 par1=58 par2=64
Channel Event. t= 113 (23792) Note On ch=5 par1=58 par2=68
Channel Event. t= 0 (23792) Note On ch=5 par1=70 par2=61
Channel Event. t= 17 (23809) Note Off ch=5 par1=67 par2=64
Channel Event. t= 8 (23817) Note Off ch=5 par1=55 par2=64
Channel Event. t= 90 (23907) Note Off ch=5 par1=58 par2=64
Channel Event. t= 0 (23907) Note Off ch=5 par1=70 par2=64
Channel Event. t= 5 (23912) Note On ch=5 par1=55 par2=72
Channel Event. t= 0 (23912) Note On ch=5 par1=67 par2=48
Channel Event. t= 120 (24032) Note On ch=5 par1=58 par2=64
Channel Event. t= 0 (24032) Note On ch=5 par1=70 par2=71
Channel Event. t= 12 (24044) Note Off ch=5 par1=67 par2=64
Channel Event. t= 13 (24057) Note Off ch=5 par1=55 par2=64
Channel Event. t= 95 (24152) Note Off ch=5 par1=58 par2=64
Channel Event. t= 0 (24152) Note On ch=5 par1=55 par2=72
Channel Event. t= 72 (24224) Note Off ch=5 par1=70 par2=64
Channel Event. t= 48 (24272) Note On ch=5 par1=58 par2=66
Channel Event. t= 22 (24294) Note Off ch=5 par1=55 par2=64
Channel Event. t= 98 (24392) Note On ch=5 par1=55 par2=72
Channel Event. t= 0 (24392) Note On ch=5 par1=86 par2=66
Channel Event. t= 2 (24394) Note Off ch=5 par1=58 par2=64
Channel Event. t= 118 (24512) Note On ch=5 par1=58 par2=60
Channel Event. t= 0 (24512) Note On ch=5 par1=84 par2=69
Channel Event. t= 32 (24544) Note Off ch=5 par1=55 par2=64
Channel Event. t= 13 (24557) Note Off ch=5 par1=86 par2=64
Channel Event. t= 75 (24632) Note Off ch=5 par1=58 par2=64
Channel Event. t= 0 (24632) Note On ch=5 par1=55 par2=72
Channel Event. t= 120 (24752) Note On ch=5 par1=58 par2=69
Channel Event. t= 0 (24752) Note On ch=5 par1=83 par2=62
Channel Event. t= 35 (24787) Note Off ch=5 par1=55 par2=64
Channel Event. t= 2 (24789) Note Off ch=5 par1=84 par2=64
Channel Event. t= 70 (24859) Note Off ch=5 par1=58 par2=64
Channel Event. t= 13 (24872) Note On ch=5 par1=55 par2=68
Channel Event. t= 120 (24992) Note On ch=5 par1=58 par2=68
Channel Event. t= 0 (24992) Note On ch=5 par1=82 par2=53
Channel Event. t= 25 (25017) Note Off ch=5 par1=83 par2=64
Channel Event. t= 15 (25032) Note Off ch=5 par1=55 par2=64
Channel Event. t= 72 (25104) Note Off ch=5 par1=58 par2=64
Channel Event. t= 8 (25112) Note On ch=5 par1=55 par2=74
Channel Event. t= 115 (25227) Note Off ch=5 par1=82 par2=64
Channel Event. t= 5 (25232) Note On ch=5 par1=58 par2=72
Channel Event. t= 0 (25232) Note On ch=5 par1=81 par2=56
Channel Event. t= 40 (25272) Note Off ch=5 par1=55 par2=64
Channel Event. t= 80 (25352) Note On ch=5 par1=55 par2=73
Channel Event. t= 37 (25389) Note Off ch=5 par1=58 par2=64
Channel Event. t= 53 (25442) Note Off ch=5 par1=55 par2=64
Channel Event. t= 30 (25472) Note On ch=5 par1=56 par2=81
Channel Event. t= 0 (25472) Note On ch=5 par1=80 par2=69
Channel Event. t= 22 (25494) Note Off ch=5 par1=81 par2=64
Channel Event. t= 85 (25579) Note Off ch=5 par1=56 par2=64
Channel Event. t= 13 (25592) Note On ch=5 par1=60 par2=69
Channel Event. t= 120 (25712) Note Off ch=5 par1=60 par2=64
Channel Event. t= 0 (25712) Note On ch=5 par1=63 par2=83
Channel Event. t= 120 (25832) Note On ch=5 par1=60 par2=75
Channel Event. t= 17 (25849) Note Off ch=5 par1=80 par2=64
Channel Event. t= 0 (25849) Note Off ch=5 par1=63 par2=64
Channel Event. t= 65 (25914) Note Off ch=5 par1=60 par2=64
Channel Event. t= 38 (25952) Note On ch=5 par1=56 par2=90
Channel Event. t= 120 (26072) Note On ch=5 par1=60 par2=68
Channel Event. t= 37 (26109) Note Off ch=5 par1=56 par2=64
Channel Event. t= 83 (26192) Note On ch=5 par1=63 par2=79
Channel Event. t= 25 (26217) Note Off ch=5 par1=60 par2=64
Channel Event. t= 95 (26312) Note On ch=5 par1=60 par2=65
Channel Event. t= 42 (26354) Note Off ch=5 par1=63 par2=64
Channel Event. t= 40 (26394) Note Off ch=5 par1=60 par2=64
Channel Event. t= 38 (26432) Note On ch=5 par1=56 par2=96
Channel Event. t= 0 (26432) Note On ch=5 par1=75 par2=71
Channel Event. t= 107 (26539) Note Off ch=5 par1=75 par2=64
Channel Event. t= 13 (26552) Note On ch=5 par1=60 par2=69
Channel Event. t= 0 (26552) Note On ch=5 par1=80 par2=68
Channel Event. t= 32 (26584) Note Off ch=5 par1=56 par2=64
Channel Event. t= 83 (26667) Note Off ch=5 par1=80 par2=64
Channel Event. t= 5 (26672) Note On ch=5 par1=63 par2=83
Channel Event. t= 0 (26672) Note On ch=5 par1=84 par2=61
Channel Event. t= 35 (26707) Note Off ch=5 par1=60 par2=64
Channel Event. t= 85 (26792) Note Off ch=5 par1=84 par2=64
Channel Event. t= 0 (26792) Note On ch=5 par1=60 par2=68
Channel Event. t= 0 (26792) Note On ch=5 par1=80 par2=53
Channel Event. t= 2 (26794) Note Off ch=5 par1=63 par2=64
Channel Event. t= 45 (26839) Note Off ch=5 par1=60 par2=64
Channel Event. t= 73 (26912) Note On ch=5 par1=56 par2=95
Channel Event. t= 0 (26912) Note On ch=5 par1=75 par2=60
Channel Event. t= 5 (26917) Note Off ch=5 par1=80 par2=64
Channel Event. t= 115 (27032) Note On ch=5 par1=60 par2=74
Channel Event. t= 0 (27032) Note On ch=5 par1=80 par2=63
Channel Event. t= 12 (27044) Note Off ch=5 par1=75 par2=64
Channel Event. t= 28 (27072) Note Off ch=5 par1=56 par2=64
Channel Event. t= 75 (27147) Note Off ch=5 par1=80 par2=64
Channel Event. t= 5 (27152) Note On ch=5 par1=63 par2=81
Channel Event. t= 0 (27152) Note On ch=5 par1=84 par2=52
Channel Event. t= 30 (27182) Note Off ch=5 par1=60 par2=64
Channel Event. t= 90 (27272) Note On ch=5 par1=60 par2=59
Channel Event. t= 0 (27272) Note On ch=5 par1=80 par2=58
Channel Event. t= 5 (27277) Note Off ch=5 par1=63 par2=64
Channel Event. t= 7 (27284) Note Off ch=5 par1=84 par2=64
Channel Event. t= 45 (27329) Note Off ch=5 par1=60 par2=64
Channel Event. t= 63 (27392) Note On ch=5 par1=56 par2=97
Channel Event. t= 0 (27392) Note On ch=5 par1=75 par2=62
Channel Event. t= 15 (27407) Note Off ch=5 par1=80 par2=64
Channel Event. t= 105 (27512) Note On ch=5 par1=60 par2=72
Channel Event. t= 0 (27512) Note On ch=5 par1=80 par2=61
Channel Event. t= 20 (27532) Note Off ch=5 par1=75 par2=64
Channel Event. t= 12 (27544) Note Off ch=5 par1=56 par2=64
Channel Event. t= 88 (27632) Note On ch=5 par1=63 par2=78
Channel Event. t= 0 (27632) Note On ch=5 par1=84 par2=42
Channel Event. t= 2 (27634) Note Off ch=5 par1=80 par2=64
Channel Event. t= 35 (27669) Note Off ch=5 par1=60 par2=64
Channel Event. t= 83 (27752) Note On ch=5 par1=60 par2=60
Channel Event. t= 0 (27752) Note On ch=5 par1=80 par2=53
Channel Event. t= 2 (27754) Note Off ch=5 par1=63 par2=64
Channel Event. t= 5 (27759) Note Off ch=5 par1=84 par2=64
Channel Event. t= 58 (27817) Note Off ch=5 par1=60 par2=64
Channel Event. t= 55 (27872) Note On ch=5 par1=56 par2=94
Channel Event. t= 0 (27872) Note On ch=5 par1=75 par2=60
Channel Event. t= 5 (27877) Note Off ch=5 par1=80 par2=64
Channel Event. t= 115 (27992) Note On ch=5 par1=60 par2=69
Channel Event. t= 0 (27992) Note On ch=5 par1=80 par2=64
Channel Event. t= 10 (28002) Note Off ch=5 par1=75 par2=64
Channel Event. t= 35 (28037) Note Off ch=5 par1=56 par2=64
Channel Event. t= 72 (28109) Note Off ch=5 par1=80 par2=64
Channel Event. t= 3 (28112) Note On ch=5 par1=63 par2=81
Channel Event. t= 0 (28112) Note On ch=5 par1=84 par2=53
Channel Event. t= 35 (28147) Note Off ch=5 par1=60 par2=64
Channel Event. t= 85 (28232) Note On ch=5 par1=60 par2=58
Channel Event. t= 0 (28232) Note On ch=5 par1=80 par2=51
Channel Event. t= 10 (28242) Note Off ch=5 par1=63 par2=64
Channel Event. t= 7 (28249) Note Off ch=5 par1=84 par2=64
Channel Event. t= 55 (28304) Note Off ch=5 par1=60 par2=64
Channel Event. t= 48 (28352) Note On ch=5 par1=56 par2=93
Channel Event. t= 0 (28352) Note On ch=5 par1=72 par2=67
Channel Event. t= 7 (28359) Note Off ch=5 par1=80 par2=64
Channel Event. t= 110 (28469) Note Off ch=5 par1=72 par2=64
Channel Event. t= 3 (28472) Note On ch=5 par1=60 par2=73
Channel Event. t= 0 (28472) Note On ch=5 par1=75 par2=53
Channel Event. t= 37 (28509) Note Off ch=5 par1=56 par2=64
Channel Event. t= 83 (28592) Note On ch=5 par1=63 par2=84
Channel Event. t= 0 (28592) Note On ch=5 par1=80 par2=60
Channel Event. t= 10 (28602) Note Off ch=5 par1=75 par2=64
Channel Event. t= 22 (28624) Note Off ch=5 par1=60 par2=64
Channel Event. t= 88 (28712) Note On ch=5 par1=60 par2=73
Channel Event. t= 0 (28712) Note On ch=5 par1=75 par2=50
Channel Event. t= 2 (28714) Note Off ch=5 par1=63 par2=64
Channel Event. t= 10 (28724) Note Off ch=5 par1=80 par2=64
Channel Event. t= 60 (28784) Note Off ch=5 par1=60 par2=64
Channel Event. t= 48 (28832) Note On ch=5 par1=56 par2=94
Channel Event. t= 0 (28832) Note On ch=5 par1=72 par2=55
Channel Event. t= 15 (28847) Note Off ch=5 par1=75 par2=64
Channel Event. t= 105 (28952) Note On ch=5 par1=60 par2=79
Channel Event. t= 0 (28952) Note On ch=5 par1=75 par2=59
Channel Event. t= 5 (28957) Note Off ch=5 par1=72 par2=64
Channel Event. t= 22 (28979) Note Off ch=5 par1=56 par2=64
Channel Event. t= 93 (29072) Note On ch=5 par1=63 par2=83
Channel Event. t= 0 (29072) Note On ch=5 par1=80 par2=52
Channel Event. t= 2 (29074) Note Off ch=5 par1=75 par2=64
Channel Event. t= 10 (29084) Note Off ch=5 par1=60 par2=64
Channel Event. t= 108 (29192) Note On ch=5 par1=60 par2=77
Channel Event. t= 0 (29192) Note On ch=5 par1=75 par2=49
Channel Event. t= 15 (29207) Note Off ch=5 par1=80 par2=64
Channel Event. t= 17 (29224) Note Off ch=5 par1=63 par2=64
Channel Event. t= 45 (29269) Note Off ch=5 par1=60 par2=64
Channel Event. t= 43 (29312) Note On ch=5 par1=59 par2=83
Channel Event. t= 0 (29312) Note On ch=5 par1=71 par2=46
Channel Event. t= 25 (29337) Note Off ch=5 par1=75 par2=64
Channel Event. t= 50 (29387) Note Off ch=5 par1=59 par2=64
Channel Event. t= 45 (29432) Note On ch=5 par1=59 par2=72
Channel Event. t= 105 (29537) Note Off ch=5 par1=59 par2=64
Channel Event. t= 15 (29552) Note On ch=5 par1=63 par2=75
Channel Event. t= 120 (29672) Note On ch=5 par1=59 par2=74
Channel Event. t= 10 (29682) Note Off ch=5 par1=63 par2=64
Channel Event. t= 97 (29779) Note Off ch=5 par1=59 par2=64
Channel Event. t= 20 (29799) Note Off ch=5 par1=71 par2=64
Channel Event. t= 473 (30272) Note On ch=5 par1=57 par2=95
Channel Event. t= 72 (30344) Note Off ch=5 par1=57 par2=64
Channel Event. t= 48 (30392) Note On ch=5 par1=57 par2=73
Channel Event. t= 120 (30512) Note On ch=5 par1=61 par2=85
Channel Event. t= 5 (30517) Note Off ch=5 par1=57 par2=64
Channel Event. t= 115 (30632) Note On ch=5 par1=57 par2=71
Channel Event. t= 20 (30652) Note Off ch=5 par1=61 par2=64
Channel Event. t= 82 (30734) Note Off ch=5 par1=57 par2=64
Channel Event. t= 498 (31232) Note On ch=5 par1=55 par2=94
Channel Event. t= 75 (31307) Note Off ch=5 par1=55 par2=64
Channel Event. t= 45 (31352) Note On ch=5 par1=55 par2=83
Channel Event. t= 120 (31472) Note On ch=5 par1=59 par2=81
Channel Event. t= 5 (31477) Note Off ch=5 par1=55 par2=64
Channel Event. t= 115 (31592) Note On ch=5 par1=55 par2=78
Channel Event. t= 25 (31617) Note Off ch=5 par1=59 par2=64
Channel Event. t= 90 (31707) Note Off ch=5 par1=55 par2=64
Channel Event. t= 485 (32192) Note On ch=5 par1=53 par2=90
Channel Event. t= 72 (32264) Note Off ch=5 par1=53 par2=64
Channel Event. t= 48 (32312) Note On ch=5 par1=53 par2=69
Channel Event. t= 115 (32427) Note Off ch=5 par1=53 par2=64
Channel Event. t= 5 (32432) Note On ch=5 par1=57 par2=69
Channel Event. t= 120 (32552) Note On ch=5 par1=53 par2=83
Channel Event. t= 7 (32559) Note Off ch=5 par1=57 par2=64
Channel Event. t= 70 (32629) Note Off ch=5 par1=53 par2=64
Channel Event. t= 523 (33152) Note On ch=5 par1=59 par2=83
Channel Event. t= 0 (33152) Note On ch=5 par1=66 par2=80
Channel Event. t= 120 (33272) Note On ch=5 par1=63 par2=79
Channel Event. t= 30 (33302) Note Off ch=5 par1=59 par2=64
Channel Event. t= 85 (33387) Note Off ch=5 par1=63 par2=64
Channel Event. t= 5 (33392) Note On ch=5 par1=71 par2=67
Channel Event. t= 20 (33412) Note Off ch=5 par1=66 par2=64
Channel Event. t= 100 (33512) Note On ch=5 par1=63 par2=70
Channel Event. t= 120 (33632) Note On ch=5 par1=59 par2=74
Channel Event. t= 0 (33632) Note On ch=5 par1=75 par2=83
Channel Event. t= 17 (33649) Note Off ch=5 par1=71 par2=64
Channel Event. t= 15 (33664) Note Off ch=5 par1=63 par2=64
Channel Event. t= 88 (33752) Note On ch=5 par1=63 par2=55
Channel Event. t= 42 (33794) Note Off ch=5 par1=59 par2=64
Channel Event. t= 78 (33872) Note On ch=5 par1=66 par2=74
Channel Event. t= 10 (33882) Note Off ch=5 par1=63 par2=64
Channel Event. t= 110 (33992) Note On ch=5 par1=63 par2=68
Channel Event. t= 0 (33992) Note On ch=5 par1=77 par2=81
Channel Event. t= 40 (34032) Note Off ch=5 par1=66 par2=64
Channel Event. t= 17 (34049) Note Off ch=5 par1=75 par2=64
Channel Event. t= 8 (34057) Note Off ch=5 par1=77 par2=64
Channel Event. t= 55 (34112) Note On ch=5 par1=59 par2=72
Channel Event. t= 0 (34112) Note On ch=5 par1=77 par2=82
Channel Event. t= 20 (34132) Note Off ch=5 par1=63 par2=64
Channel Event. t= 72 (34204) Note Off ch=5 par1=77 par2=64
Channel Event. t= 28 (34232) Note On ch=5 par1=63 par2=53
Channel Event. t= 25 (34257) Note Off ch=5 par1=59 par2=64
Channel Event. t= 95 (34352) Note On ch=5 par1=66 par2=66
Channel Event. t= 0 (34352) Note On ch=5 par1=77 par2=74
Channel Event. t= 20 (34372) Note Off ch=5 par1=63 par2=64
Channel Event. t= 52 (34424) Note Off ch=5 par1=77 par2=64
Channel Event. t= 48 (34472) Note On ch=5 par1=63 par2=61
Channel Event. t= 37 (34509) Note Off ch=5 par1=66 par2=64
Channel Event. t= 83 (34592) Note On ch=5 par1=59 par2=70
Channel Event. t= 0 (34592) Note On ch=5 par1=77 par2=77
Channel Event. t= 17 (34609) Note Off ch=5 par1=63 par2=64
Channel Event. t= 80 (34689) Note Off ch=5 par1=77 par2=64
Channel Event. t= 23 (34712) Note On ch=5 par1=63 par2=79
Channel Event. t= 40 (34752) Note Off ch=5 par1=59 par2=64
Channel Event. t= 80 (34832) Note On ch=5 par1=66 par2=74
Channel Event. t= 0 (34832) Note On ch=5 par1=77 par2=77
Channel Event. t= 10 (34842) Note Off ch=5 par1=63 par2=64
Channel Event. t= 90 (34932) Note Off ch=5 par1=77 par2=64
Channel Event. t= 20 (34952) Note On ch=5 par1=63 par2=71
Channel Event. t= 52 (35004) Note Off ch=5 par1=66 par2=64
Channel Event. t= 68 (35072) Note On ch=5 par1=59 par2=75
Channel Event. t= 0 (35072) Note On ch=5 par1=78 par2=102
Channel Event. t= 7 (35079) Note Off ch=5 par1=63 par2=64
Channel Event. t= 40 (35119) Note Off ch=5 par1=78 par2=64
Channel Event. t= 73 (35192) Note On ch=5 par1=63 par2=72
Channel Event. t= 0 (35192) Note On ch=5 par1=78 par2=82
Channel Event. t= 35 (35227) Note Off ch=5 par1=59 par2=64
Channel Event. t= 7 (35234) Note Off ch=5 par1=78 par2=64
Channel Event. t= 78 (35312) Note On ch=5 par1=66 par2=75
Channel Event. t= 0 (35312) Note On ch=5 par1=78 par2=76
Channel Event. t= 17 (35329) Note Off ch=5 par1=63 par2=64
Channel Event. t= 38 (35367) Note Off ch=5 par1=78 par2=64
Channel Event. t= 65 (35432) Note On ch=5 par1=63 par2=73
Channel Event. t= 0 (35432) Note On ch=5 par1=78 par2=71
Channel Event. t= 22 (35454) Note Off ch=5 par1=66 par2=64
Channel Event. t= 18 (35472) Note Off ch=5 par1=78 par2=64
Channel Event. t= 25 (35497) Note Off ch=5 par1=63 par2=64
Channel Event. t= 55 (35552) Note On ch=5 par1=63 par2=88
Channel Event. t= 0 (35552) Note On ch=5 par1=78 par2=104
Channel Event. t= 62 (35614) Note Off ch=5 par1=78 par2=64
Channel Event. t= 58 (35672) Note On ch=5 par1=66 par2=78
Channel Event. t= 0 (35672) Note On ch=5 par1=78 par2=87
Channel Event. t= 45 (35717) Note Off ch=5 par1=78 par2=64
Channel Event. t= 2 (35719) Note Off ch=5 par1=63 par2=64
Channel Event. t= 73 (35792) Note On ch=5 par1=71 par2=79
Channel Event. t= 0 (35792) Note On ch=5 par1=78 par2=69
Channel Event. t= 17 (35809) Note Off ch=5 par1=66 par2=64
Channel Event. t= 28 (35837) Note Off ch=5 par1=78 par2=64
Channel Event. t= 75 (35912) Note On ch=5 par1=66 par2=78
Channel Event. t= 0 (35912) Note On ch=5 par1=78 par2=70
Channel Event. t= 25 (35937) Note Off ch=5 par1=71 par2=64
Channel Event. t= 12 (35949) Note Off ch=5 par1=78 par2=64
Channel Event. t= 35 (35984) Note Off ch=5 par1=66 par2=64
Channel Event. t= 48 (36032) Note On ch=5 par1=66 par2=92
Channel Event. t= 0 (36032) Note On ch=5 par1=78 par2=99
Channel Event. t= 57 (36089) Note Off ch=5 par1=78 par2=64
Channel Event. t= 63 (36152) Note On ch=5 par1=71 par2=80
Channel Event. t= 0 (36152) Note On ch=5 par1=78 par2=85
Channel Event. t= 40 (36192) Note Off ch=5 par1=66 par2=64
Channel Event. t= 2 (36194) Note Off ch=5 par1=78 par2=64
Channel Event. t= 78 (36272) Note On ch=5 par1=75 par2=89
Channel Event. t= 0 (36272) Note On ch=5 par1=78 par2=71
Channel Event. t= 25 (36297) Note Off ch=5 par1=71 par2=64
Channel Event. t= 12 (36309) Note Off ch=5 par1=78 par2=64
Channel Event. t= 83 (36392) Note On ch=5 par1=71 par2=81
Channel Event. t= 0 (36392) Note On ch=5 par1=78 par2=74
Channel Event. t= 10 (36402) Note Off ch=5 par1=75 par2=64
Channel Event. t= 45 (36447) Note Off ch=5 par1=78 par2=64
Channel Event. t= 7 (36454) Note Off ch=5 par1=71 par2=64
Channel Event. t= 58 (36512) Note On ch=5 par1=71 par2=82
Channel Event. t= 0 (36512) Note On ch=5 par1=78 par2=94
Channel Event. t= 77 (36589) Note Off ch=5 par1=78 par2=64
Channel Event. t= 43 (36632) Note On ch=5 par1=75 par2=76
Channel Event. t= 57 (36689) Note Off ch=5 par1=71 par2=64
Channel Event. t= 63 (36752) Note On ch=5 par1=78 par2=37
Channel Event. t= 0 (36752) Note On ch=5 par1=79 par2=56
Channel Event. t= 25 (36777) Note Off ch=5 par1=75 par2=64
Channel Event. t= 37 (36814) Note Off ch=5 par1=78 par2=64
Channel Event. t= 23 (36837) Note Off ch=5 par1=79 par2=64
Channel Event. t= 35 (36872) Note On ch=5 par1=75 par2=71
Channel Event. t= 105 (36977) Note Off ch=5 par1=75 par2=64
Channel Event. t= 15 (36992) Note On ch=5 par1=71 par2=87
Channel Event. t= 120 (37112) Note On ch=5 par1=74 par2=82
Channel Event. t= 40 (37152) Note Off ch=5 par1=71 par2=64
Channel Event. t= 80 (37232) Note Off ch=5 par1=74 par2=64
Channel Event. t= 0 (37232) Note On ch=5 par1=78 par2=79
Channel Event. t= 120 (37352) Note On ch=5 par1=74 par2=62
Channel Event. t= 40 (37392) Note Off ch=5 par1=78 par2=64
Channel Event. t= 80 (37472) Note On ch=5 par1=71 par2=63
Channel Event. t= 10 (37482) Note Off ch=5 par1=74 par2=64
Channel Event. t= 110 (37592) Note On ch=5 par1=74 par2=56
Channel Event. t= 22 (37614) Note Off ch=5 par1=71 par2=64
Channel Event. t= 98 (37712) Note On ch=5 par1=78 par2=61
Channel Event. t= 20 (37732) Note Off ch=5 par1=74 par2=64
Channel Event. t= 100 (37832) Note On ch=5 par1=74 par2=53
Channel Event. t= 42 (37874) Note Off ch=5 par1=78 par2=64
Channel Event. t= 78 (37952) Note On ch=5 par1=71 par2=57
Channel Event. t= 12 (37964) Note Off ch=5 par1=74 par2=64
Channel Event. t= 108 (38072) Note On ch=5 par1=74 par2=44
Channel Event. t= 20 (38092) Note Off ch=5 par1=71 par2=64
Channel Event. t= 100 (38192) Note On ch=5 par1=78 par2=61
Channel Event. t= 7 (38199) Note Off ch=5 par1=74 par2=64
Channel Event. t= 113 (38312) Note On ch=5 par1=74 par2=47
Channel Event. t= 17 (38329) Note Off ch=5 par1=78 par2=64
Channel Event. t= 100 (38429) Note Off ch=5 par1=74 par2=64
Channel Event. t= 3 (38432) Note On ch=5 par1=71 par2=56
Channel Event. t= 120 (38552) Note On ch=5 par1=74 par2=37
Channel Event. t= 10 (38562) Note Off ch=5 par1=71 par2=64
Channel Event. t= 95 (38657) Note Off ch=5 par1=74 par2=64
Channel Event. t= 15 (38672) Note On ch=5 par1=78 par2=42
Channel Event. t= 120 (38792) Note On ch=5 par1=74 par2=35
Channel Event. t= 25 (38817) Note Off ch=5 par1=78 par2=64
Channel Event. t= 95 (38912) Note On ch=5 par1=71 par2=52
Channel Event. t= 2 (38914) Note Off ch=5 par1=74 par2=64
Channel Event. t= 115 (39029) Note Off ch=5 par1=71 par2=64
Channel Event. t= 3 (39032) Note On ch=5 par1=74 par2=39
Channel Event. t= 117 (39149) Note Off ch=5 par1=74 par2=64
Channel Event. t= 3 (39152) Note On ch=5 par1=78 par2=49
Channel Event. t= 120 (39272) Note On ch=5 par1=74 par2=41
Channel Event. t= 12 (39284) Note Off ch=5 par1=78 par2=64
Channel Event. t= 100 (39384) Note Off ch=5 par1=74 par2=64
Channel Event. t= 8 (39392) Note On ch=5 par1=71 par2=53
Channel Event. t= 120 (39512) Note On ch=5 par1=74 par2=44
Channel Event. t= 2 (39514) Note Off ch=5 par1=71 par2=64
Channel Event. t= 105 (39619) Note Off ch=5 par1=74 par2=64
Channel Event. t= 13 (39632) Note On ch=5 par1=78 par2=64
Channel Event. t= 120 (39752) Note On ch=5 par1=74 par2=56
Channel Event. t= 22 (39774) Note Off ch=5 par1=78 par2=64
Channel Event. t= 98 (39872) Note Off ch=5 par1=74 par2=64
Channel Event. t= 0 (39872) Note On ch=5 par1=70 par2=86
Channel Event. t= 107 (39979) Note Off ch=5 par1=70 par2=64
Channel Event. t= 13 (39992) Note On ch=5 par1=74 par2=53
Channel Event. t= 120 (40112) Note On ch=5 par1=78 par2=58
Channel Event. t= 12 (40124) Note Off ch=5 par1=74 par2=64
Channel Event. t= 85 (40209) Note Off ch=5 par1=78 par2=64
Channel Event. t= 23 (40232) Note On ch=5 par1=74 par2=53
Channel Event. t= 120 (40352) Note Off ch=5 par1=74 par2=64
Channel Event. t= 0 (40352) Note On ch=5 par1=68 par2=85
Channel Event. t= 120 (40472) Note On ch=5 par1=72 par2=63
Channel Event. t= 2 (40474) Note Off ch=5 par1=68 par2=64
Channel Event. t= 103 (40577) Note Off ch=5 par1=72 par2=64
Channel Event. t= 15 (40592) Note On ch=5 par1=75 par2=60
Channel Event. t= 120 (40712) Note On ch=5 par1=72 par2=40
Channel Event. t= 72 (40784) Note Off ch=5 par1=75 par2=64
Channel Event. t= 48 (40832) Note On ch=5 par1=67 par2=64
Channel Event. t= 25 (40857) Note Off ch=5 par1=72 par2=64
Channel Event. t= 95 (40952) Note On ch=5 par1=70 par2=78
Channel Event. t= 120 (41072) Note On ch=5 par1=74 par2=71
Channel Event. t= 17 (41089) Note Off ch=5 par1=70 par2=64
Channel Event. t= 103 (41192) Note Off ch=5 par1=67 par2=64
Channel Event. t= 0 (41192) Note On ch=5 par1=79 par2=69
Channel Event. t= 32 (41224) Note Off ch=5 par1=74 par2=64
Channel Event. t= 33 (41257) Note Off ch=5 par1=79 par2=64
Channel Event. t= 55 (41312) Note On ch=5 par1=67 par2=66
Channel Event. t= 120 (41432) Note On ch=5 par1=70 par2=63
Channel Event. t= 10 (41442) Note Off ch=5 par1=67 par2=64
Channel Event. t= 110 (41552) Note On ch=5 par1=74 par2=61
Channel Event. t= 10 (41562) Note Off ch=5 par1=70 par2=64
Channel Event. t= 110 (41672) Note On ch=5 par1=70 par2=60
Channel Event. t= 10 (41682) Note Off ch=5 par1=74 par2=64
Channel Event. t= 72 (41754) Note Off ch=5 par1=70 par2=64
Channel Event. t= 38 (41792) Note On ch=5 par1=70 par2=59
Channel Event. t= 120 (41912) Note On ch=5 par1=74 par2=54
Channel Event. t= 27 (41939) Note Off ch=5 par1=70 par2=64
Channel Event. t= 93 (42032) Note On ch=5 par1=79 par2=53
Channel Event. t= 22 (42054) Note Off ch=5 par1=74 par2=64
Channel Event. t= 75 (42129) Note Off ch=5 par1=79 par2=64
Channel Event. t= 23 (42152) Note On ch=5 par1=74 par2=49
Channel Event. t= 117 (42269) Note Off ch=5 par1=74 par2=64
Channel Event. t= 3 (42272) Note On ch=5 par1=74 par2=52
Channel Event. t= 120 (42392) Note Off ch=5 par1=74 par2=64
Channel Event. t= 0 (42392) Note On ch=5 par1=79 par2=47
Channel Event. t= 105 (42497) Note Off ch=5 par1=79 par2=64
Channel Event. t= 15 (42512) Note On ch=5 par1=82 par2=45
Channel Event. t= 120 (42632) Note On ch=5 par1=86 par2=39
Channel Event. t= 32 (42664) Note Off ch=5 par1=82 par2=64
Channel Event. t= 88 (42752) Note On ch=5 par1=50 par2=30
Channel Event. t= 0 (42752) Note On ch=5 par1=46 par2=30
Channel Event. t= 0 (42752) Note On ch=5 par1=91 par2=30
Channel Event. t= 0 (42752) Note On ch=5 par1=79 par2=30
Channel Event. t= 2 (42754) Note Off ch=5 par1=86 par2=64
Channel Event. t= 478 (43232) Note Off ch=5 par1=91 par2=64
Channel Event. t= 0 (43232) Note Off ch=5 par1=79 par2=64
Channel Event. t= 432 (43664) Note Off ch=5 par1=50 par2=64
Channel Event. t= 48 (43712) Note Off ch=5 par1=46 par2=64
Channel Event. t= 0 (43712) Note On ch=5 par1=50 par2=80
Channel Event. t= 0 (43712) Note On ch=5 par1=55 par2=63
Channel Event. t= 0 (43712) Note On ch=5 par1=58 par2=62
Channel Event. t= 120 (43832) Note On ch=5 par1=51 par2=72
Channel Event. t= 0 (43832) Note On ch=5 par1=54 par2=64
Channel Event. t= 0 (43832) Note On ch=5 par1=57 par2=55
Channel Event. t= 12 (43844) Note Off ch=5 par1=50 par2=64
Channel Event. t= 23 (43867) Note Off ch=5 par1=58 par2=64
Channel Event. t= 17 (43884) Note Off ch=5 par1=55 par2=64
Channel Event. t= 65 (43949) Note Off ch=5 par1=51 par2=64
Channel Event. t= 3 (43952) Note Off ch=5 par1=54 par2=64
Channel Event. t= 0 (43952) Note On ch=5 par1=50 par2=60
Channel Event. t= 0 (43952) Note On ch=5 par1=55 par2=63
Channel Event. t= 0 (43952) Note On ch=5 par1=58 par2=29
Channel Event. t= 2 (43954) Note Off ch=5 par1=57 par2=64
Channel Event. t= 100 (44054) Note Off ch=5 par1=58 par2=64
Channel Event. t= 10 (44064) Note Off ch=5 par1=55 par2=64
Channel Event. t= 8 (44072) Note On ch=5 par1=51 par2=66
Channel Event. t= 0 (44072) Note On ch=5 par1=57 par2=53
Channel Event. t= 0 (44072) Note On ch=5 par1=54 par2=57
Channel Event. t= 15 (44087) Note Off ch=5 par1=50 par2=64
Channel Event. t= 105 (44192) Note On ch=5 par1=50 par2=82
Channel Event. t= 0 (44192) Note On ch=5 par1=58 par2=73
Channel Event. t= 0 (44192) Note On ch=5 par1=55 par2=66
Channel Event. t= 15 (44207) Note Off ch=5 par1=54 par2=64
Channel Event. t= 10 (44217) Note Off ch=5 par1=57 par2=64
Channel Event. t= 17 (44234) Note Off ch=5 par1=51 par2=64
Channel Event. t= 73 (44307) Note Off ch=5 par1=58 par2=64
Channel Event. t= 2 (44309) Note Off ch=5 par1=50 par2=64
Channel Event. t= 18 (44327) Note Off ch=5 par1=55 par2=64
Channel Event. t= 105 (44432) Note On ch=5 par1=52 par2=63
Channel Event. t= 0 (44432) Note On ch=5 par1=50 par2=49
Channel Event. t= 0 (44432) Note On ch=5 par1=55 par2=62
Channel Event. t= 0 (44432) Note On ch=5 par1=58 par2=67
Channel Event. t= 85 (44517) Note Off ch=5 par1=52 par2=64
Channel Event. t= 47 (44564) Note Off ch=5 par1=58 par2=64
Channel Event. t= 13 (44577) Note Off ch=5 par1=55 par2=64
Channel Event. t= 17 (44594) Note Off ch=5 par1=50 par2=64
Channel Event. t= 78 (44672) Note On ch=5 par1=55 par2=84
Channel Event. t= 0 (44672) Note On ch=5 par1=62 par2=73
Channel Event. t= 0 (44672) Note On ch=5 par1=58 par2=73
Channel Event. t= 215 (44887) Note Off ch=5 par1=62 par2=64
Channel Event. t= 25 (44912) Note Off ch=5 par1=55 par2=64
Channel Event. t= 0 (44912) Note On ch=5 par1=51 par2=77
Channel Event. t= 0 (44912) Note On ch=5 par1=57 par2=55
Channel Event. t= 0 (44912) Note On ch=5 par1=61 par2=68
Channel Event. t= 25 (44937) Note Off ch=5 par1=58 par2=64
Channel Event. t= 182 (45119) Note Off ch=5 par1=61 par2=64
Channel Event. t= 20 (45139) Note Off ch=5 par1=57 par2=64
Channel Event. t= 13 (45152) Note Off ch=5 par1=51 par2=64
Channel Event. t= 0 (45152) Note On ch=5 par1=55 par2=74
Channel Event. t= 0 (45152) Note On ch=5 par1=62 par2=74
Channel Event. t= 0 (45152) Note On ch=5 par1=58 par2=77
Channel Event. t= 172 (45324) Note Off ch=5 par1=58 par2=64
Channel Event. t= 68 (45392) Note Off ch=5 par1=55 par2=64
Channel Event. t= 0 (45392) Note On ch=5 par1=51 par2=85
Channel Event. t= 0 (45392) Note On ch=5 par1=55 par2=67
Channel Event. t= 0 (45392) Note On ch=5 par1=58 par2=73
Channel Event. t= 2 (45394) Note Off ch=5 par1=62 par2=64
Channel Event. t= 198 (45592) Note Off ch=5 par1=55 par2=64
Channel Event. t= 15 (45607) Note Off ch=5 par1=58 par2=64
Channel Event. t= 25 (45632) Note Off ch=5 par1=51 par2=64
Channel Event. t= 0 (45632) Note On ch=5 par1=56 par2=65
Channel Event. t= 0 (45632) Note On ch=5 par1=64 par2=92
Channel Event. t= 0 (45632) Note On ch=5 par1=67 par2=65
Channel Event. t= 0 (45632) Note On ch=5 par1=76 par2=66
Channel Event. t= 0 (45632) Controller ch=5 par1=7 (Main Volume) par2=102
Channel Event. t= 240 (45872) Note Off ch=5 par1=76 par2=64
Channel Event. t= 0 (45872) Note Off ch=5 par1=67 par2=64
Channel Event. t= 0 (45872) Note Off ch=5 par1=64 par2=64
Channel Event. t= 0 (45872) Note Off ch=5 par1=56 par2=64
Channel Event. t= 240 (46112) Note On ch=5 par1=57 par2=53
Channel Event. t= 0 (46112) Note On ch=5 par1=65 par2=82
Channel Event. t= 0 (46112) Note On ch=5 par1=72 par2=70
Channel Event. t= 0 (46112) Note On ch=5 par1=77 par2=72
Channel Event. t= 240 (46352) Note Off ch=5 par1=77 par2=64
Channel Event. t= 0 (46352) Note Off ch=5 par1=72 par2=64
Channel Event. t= 0 (46352) Note Off ch=5 par1=65 par2=64
Channel Event. t= 0 (46352) Note Off ch=5 par1=57 par2=64
Channel Event. t= 360 (46712) Controller ch=5 par1=7 (Main Volume) par2=70
Channel Event. t= 840 (47552) Note On ch=5 par1=57 par2=92
Channel Event. t= 0 (47552) Note On ch=5 par1=62 par2=65
Channel Event. t= 0 (47552) Note On ch=5 par1=65 par2=61
Channel Event. t= 107 (47659) Note Off ch=5 par1=65 par2=64
Channel Event. t= 13 (47672) Note Off ch=5 par1=62 par2=64
Channel Event. t= 0 (47672) Note On ch=5 par1=58 par2=75
Channel Event. t= 0 (47672) Note On ch=5 par1=61 par2=63
Channel Event. t= 0 (47672) Note On ch=5 par1=64 par2=47
Channel Event. t= 5 (47677) Note Off ch=5 par1=57 par2=64
Channel Event. t= 100 (47777) Note Off ch=5 par1=61 par2=64
Channel Event. t= 15 (47792) Note On ch=5 par1=57 par2=54
Channel Event. t= 0 (47792) Note On ch=5 par1=65 par2=47
Channel Event. t= 0 (47792) Note On ch=5 par1=62 par2=49
Channel Event. t= 2 (47794) Note Off ch=5 par1=58 par2=64
Channel Event. t= 15 (47809) Note Off ch=5 par1=64 par2=64
Channel Event. t= 103 (47912) Note On ch=5 par1=58 par2=79
Channel Event. t= 0 (47912) Note On ch=5 par1=64 par2=55
Channel Event. t= 0 (47912) Note On ch=5 par1=61 par2=59
Channel Event. t= 5 (47917) Note Off ch=5 par1=65 par2=64
Channel Event. t= 5 (47922) Note Off ch=5 par1=62 par2=64
Channel Event. t= 15 (47937) Note Off ch=5 par1=57 par2=64
Channel Event. t= 95 (48032) Note Off ch=5 par1=61 par2=64
Channel Event. t= 0 (48032) Note On ch=5 par1=57 par2=76
Channel Event. t= 0 (48032) Note On ch=5 par1=65 par2=53
Channel Event. t= 0 (48032) Note On ch=5 par1=62 par2=68
Channel Event. t= 17 (48049) Note Off ch=5 par1=64 par2=64
Channel Event. t= 13 (48062) Note Off ch=5 par1=58 par2=64
Channel Event. t= 100 (48162) Note Off ch=5 par1=65 par2=64
Channel Event. t= 5 (48167) Note Off ch=5 par1=62 par2=64
Channel Event. t= 5 (48172) Note Off ch=5 par1=57 par2=64
Channel Event. t= 100 (48272) Note On ch=5 par1=57 par2=74
Channel Event. t= 0 (48272) Note On ch=5 par1=62 par2=59
Channel Event. t= 0 (48272) Note On ch=5 par1=65 par2=56
Channel Event. t= 72 (48344) Note Off ch=5 par1=62 par2=64
Channel Event. t= 25 (48369) Note Off ch=5 par1=57 par2=64
Channel Event. t= 18 (48387) Note Off ch=5 par1=65 par2=64
Channel Event. t= 125 (48512) Note On ch=5 par1=62 par2=81
Channel Event. t= 0 (48512) Note On ch=5 par1=69 par2=55
Channel Event. t= 0 (48512) Note On ch=5 par1=65 par2=69
Channel Event. t= 235 (48747) Note Off ch=5 par1=65 par2=64
Channel Event. t= 5 (48752) Note On ch=5 par1=58 par2=76
Channel Event. t= 0 (48752) Note On ch=5 par1=68 par2=67
Channel Event. t= 0 (48752) Note On ch=5 par1=64 par2=61
Channel Event. t= 2 (48754) Note Off ch=5 par1=69 par2=64
Channel Event. t= 15 (48769) Note Off ch=5 par1=62 par2=64
Channel Event. t= 180 (48949) Note Off ch=5 par1=58 par2=64
Channel Event. t= 35 (48984) Note Off ch=5 par1=68 par2=64
Channel Event. t= 8 (48992) Note On ch=5 par1=62 par2=81
Channel Event. t= 0 (48992) Note On ch=5 par1=65 par2=63
Channel Event. t= 0 (48992) Note On ch=5 par1=69 par2=45
Channel Event. t= 32 (49024) Note Off ch=5 par1=64 par2=64
Channel Event. t= 130 (49154) Note Off ch=5 par1=65 par2=64
Channel Event. t= 35 (49189) Note Off ch=5 par1=69 par2=64
Channel Event. t= 40 (49229) Note Off ch=5 par1=62 par2=64
Channel Event. t= 3 (49232) Note On ch=5 par1=57 par2=78
Channel Event. t= 0 (49232) Note On ch=5 par1=62 par2=60
Channel Event. t= 0 (49232) Note On ch=5 par1=65 par2=60
Channel Event. t= 210 (49442) Note Off ch=5 par1=65 par2=64
Channel Event. t= 0 (49442) Note Off ch=5 par1=62 par2=64
Channel Event. t= 10 (49452) Note Off ch=5 par1=57 par2=64
Channel Event. t= 20 (49472) Note On ch=5 par1=54 par2=90
Channel Event. t= 0 (49472) Note On ch=5 par1=63 par2=94
Channel Event. t= 240 (49712) Note Off ch=5 par1=63 par2=64
Channel Event. t= 0 (49712) Note Off ch=5 par1=54 par2=64
Channel Event. t= 60 (49772) Controller ch=5 par1=7 (Main Volume) par2=102
Channel Event. t= 180 (49952) Note On ch=5 par1=52 par2=84
Channel Event. t= 0 (49952) Note On ch=5 par1=60 par2=86
Channel Event. t= 0 (49952) Note On ch=5 par1=72 par2=58
Channel Event. t= 0 (49952) Note On ch=5 par1=67 par2=60
Channel Event. t= 240 (50192) Note Off ch=5 par1=60 par2=64
Channel Event. t= 0 (50192) Note Off ch=5 par1=52 par2=64
Channel Event. t= 20 (50212) Note Off ch=5 par1=72 par2=64
Channel Event. t= 10 (50222) Note Off ch=5 par1=67 par2=64
Channel Event. t= 180 (50402) Controller ch=5 par1=7 (Main Volume) par2=80
Channel Event. t= 30 (50432) Note On ch=5 par1=64 par2=65
Channel Event. t= 0 (50432) Note On ch=5 par1=72 par2=58
Channel Event. t= 120 (50552) Note Off ch=5 par1=72 par2=64
Channel Event. t= 0 (50552) Note On ch=5 par1=76 par2=48
Channel Event. t= 107 (50659) Note Off ch=5 par1=76 par2=64
Channel Event. t= 13 (50672) Note On ch=5 par1=67 par2=55
Channel Event. t= 0 (50672) Note On ch=5 par1=72 par2=32
Channel Event. t= 30 (50702) Note Off ch=5 par1=64 par2=64
Channel Event. t= 90 (50792) Note On ch=5 par1=76 par2=41
Channel Event. t= 10 (50802) Note Off ch=5 par1=72 par2=64
Channel Event. t= 107 (50909) Note Off ch=5 par1=76 par2=64
Channel Event. t= 3 (50912) Note On ch=5 par1=64 par2=56
Channel Event. t= 0 (50912) Note On ch=5 par1=72 par2=46
Channel Event. t= 20 (50932) Note Off ch=5 par1=67 par2=64
Channel Event. t= 100 (51032) Note On ch=5 par1=76 par2=57
Channel Event. t= 10 (51042) Note Off ch=5 par1=72 par2=64
Channel Event. t= 110 (51152) Note On ch=5 par1=67 par2=63
Channel Event. t= 0 (51152) Note On ch=5 par1=79 par2=55
Channel Event. t= 7 (51159) Note Off ch=5 par1=76 par2=64
Channel Event. t= 23 (51182) Note Off ch=5 par1=64 par2=64
Channel Event. t= 90 (51272) Note On ch=5 par1=76 par2=36
Channel Event. t= 15 (51287) Note Off ch=5 par1=79 par2=64
Channel Event. t= 105 (51392) Note On ch=5 par1=64 par2=66
Channel Event. t= 0 (51392) Note On ch=5 par1=72 par2=66
Channel Event. t= 2 (51394) Note Off ch=5 par1=76 par2=64
Channel Event. t= 10 (51404) Note Off ch=5 par1=67 par2=64
Channel Event. t= 108 (51512) Note On ch=5 par1=76 par2=59
Channel Event. t= 22 (51534) Note Off ch=5 par1=72 par2=64
Channel Event. t= 98 (51632) Note On ch=5 par1=67 par2=63
Channel Event. t= 0 (51632) Note On ch=5 par1=79 par2=53
Channel Event. t= 20 (51652) Note Off ch=5 par1=76 par2=64
Channel Event. t= 5 (51657) Note Off ch=5 par1=64 par2=64
Channel Event. t= 95 (51752) Note On ch=5 par1=76 par2=51
Channel Event. t= 20 (51772) Note Off ch=5 par1=79 par2=64
Channel Event. t= 100 (51872) Note On ch=5 par1=64 par2=62
Channel Event. t= 0 (51872) Note On ch=5 par1=72 par2=69
Channel Event. t= 12 (51884) Note Off ch=5 par1=76 par2=64
Channel Event. t= 30 (51914) Note Off ch=5 par1=67 par2=64
Channel Event. t= 78 (51992) Note On ch=5 par1=76 par2=61
Channel Event. t= 7 (51999) Note Off ch=5 par1=72 par2=64
Channel Event. t= 113 (52112) Note On ch=5 par1=67 par2=61
Channel Event. t= 0 (52112) Note On ch=5 par1=79 par2=49
Channel Event. t= 15 (52127) Note Off ch=5 par1=64 par2=64
Channel Event. t= 0 (52127) Note Off ch=5 par1=76 par2=64
Channel Event. t= 105 (52232) Note On ch=5 par1=76 par2=51
Channel Event. t= 10 (52242) Note Off ch=5 par1=79 par2=64
Channel Event. t= 110 (52352) Note On ch=5 par1=64 par2=72
Channel Event. t= 0 (52352) Note On ch=5 par1=72 par2=67
Channel Event. t= 2 (52354) Note Off ch=5 par1=76 par2=64
Channel Event. t= 15 (52369) Note Off ch=5 par1=67 par2=64
Channel Event. t= 103 (52472) Note On ch=5 par1=76 par2=60
Channel Event. t= 17 (52489) Note Off ch=5 par1=72 par2=64
Channel Event. t= 103 (52592) Note On ch=5 par1=67 par2=58
Channel Event. t= 0 (52592) Note On ch=5 par1=79 par2=54
Channel Event. t= 2 (52594) Note Off ch=5 par1=76 par2=64
Channel Event. t= 10 (52604) Note Off ch=5 par1=64 par2=64
Channel Event. t= 108 (52712) Note On ch=5 par1=76 par2=56
Channel Event. t= 30 (52742) Note Off ch=5 par1=79 par2=64
Channel Event. t= 90 (52832) Note On ch=5 par1=64 par2=76
Channel Event. t= 0 (52832) Note On ch=5 par1=72 par2=74
Channel Event. t= 7 (52839) Note Off ch=5 par1=76 par2=64
Channel Event. t= 23 (52862) Note Off ch=5 par1=67 par2=64
Channel Event. t= 90 (52952) Note On ch=5 par1=76 par2=60
Channel Event. t= 12 (52964) Note Off ch=5 par1=72 par2=64
Channel Event. t= 108 (53072) Note On ch=5 par1=67 par2=64
Channel Event. t= 0 (53072) Note On ch=5 par1=79 par2=64
Channel Event. t= 7 (53079) Note Off ch=5 par1=76 par2=64
Channel Event. t= 20 (53099) Note Off ch=5 par1=64 par2=64
Channel Event. t= 93 (53192) Note On ch=5 par1=76 par2=57
Channel Event. t= 15 (53207) Note Off ch=5 par1=79 par2=64
Channel Event. t= 105 (53312) Note On ch=5 par1=64 par2=78
Channel Event. t= 0 (53312) Note On ch=5 par1=72 par2=70
Channel Event. t= 12 (53324) Note Off ch=5 par1=76 par2=64
Channel Event. t= 13 (53337) Note Off ch=5 par1=67 par2=64
Channel Event. t= 95 (53432) Note On ch=5 par1=76 par2=55
Channel Event. t= 10 (53442) Note Off ch=5 par1=72 par2=64
Channel Event. t= 110 (53552) Note On ch=5 par1=67 par2=66
Channel Event. t= 0 (53552) Note On ch=5 par1=79 par2=55
Channel Event. t= 15 (53567) Note Off ch=5 par1=76 par2=64
Channel Event. t= 5 (53572) Note Off ch=5 par1=64 par2=64
Channel Event. t= 100 (53672) Note On ch=5 par1=76 par2=55
Channel Event. t= 15 (53687) Note Off ch=5 par1=79 par2=64
Channel Event. t= 105 (53792) Note On ch=5 par1=64 par2=77
Channel Event. t= 0 (53792) Note On ch=5 par1=72 par2=67
Channel Event. t= 7 (53799) Note Off ch=5 par1=76 par2=64
Channel Event. t= 25 (53824) Note Off ch=5 par1=67 par2=64
Channel Event. t= 88 (53912) Note On ch=5 par1=76 par2=67
Channel Event. t= 20 (53932) Note Off ch=5 par1=72 par2=64
Channel Event. t= 100 (54032) Note On ch=5 par1=67 par2=67
Channel Event. t= 0 (54032) Note On ch=5 par1=79 par2=79
Channel Event. t= 10 (54042) Note Off ch=5 par1=76 par2=64
Channel Event. t= 7 (54049) Note Off ch=5 par1=64 par2=64
Channel Event. t= 103 (54152) Note On ch=5 par1=76 par2=54
Channel Event. t= 67 (54219) Note Off ch=5 par1=67 par2=64
Channel Event. t= 30 (54249) Note Off ch=5 par1=79 par2=64
Channel Event. t= 23 (54272) Note On ch=5 par1=63 par2=92
Channel Event. t= 0 (54272) Note On ch=5 par1=68 par2=73
Channel Event. t= 0 (54272) Note On ch=5 par1=80 par2=80
Channel Event. t= 22 (54294) Note Off ch=5 par1=76 par2=64
Channel Event. t= 53 (54347) Note Off ch=5 par1=63 par2=64
Channel Event. t= 45 (54392) Note On ch=5 par1=63 par2=85
Channel Event. t= 117 (54509) Note Off ch=5 par1=63 par2=64
Channel Event. t= 3 (54512) Note On ch=5 par1=67 par2=73
Channel Event. t= 120 (54632) Note On ch=5 par1=63 par2=84
Channel Event. t= 52 (54684) Note Off ch=5 par1=67 par2=64
Channel Event. t= 85 (54769) Note Off ch=5 par1=63 par2=64
Channel Event. t= 415 (55184) Note Off ch=5 par1=68 par2=64
Channel Event. t= 5 (55189) Note Off ch=5 par1=80 par2=64
Channel Event. t= 43 (55232) Note On ch=5 par1=61 par2=94
Channel Event. t= 0 (55232) Note On ch=5 par1=80 par2=83
Channel Event. t= 0 (55232) Note On ch=5 par1=68 par2=74
Channel Event. t= 80 (55312) Note Off ch=5 par1=61 par2=64
Channel Event. t= 40 (55352) Note On ch=5 par1=61 par2=83
Channel Event. t= 120 (55472) Note Off ch=5 par1=61 par2=64
Channel Event. t= 0 (55472) Note On ch=5 par1=65 par2=73
Channel Event. t= 120 (55592) Note On ch=5 par1=61 par2=78
Channel Event. t= 32 (55624) Note Off ch=5 par1=65 par2=64
Channel Event. t= 83 (55707) Note Off ch=5 par1=61 par2=64
Channel Event. t= 425 (56132) Note Off ch=5 par1=68 par2=64
Channel Event. t= 60 (56192) Note On ch=5 par1=59 par2=97
Channel Event. t= 0 (56192) Note On ch=5 par1=68 par2=85
Channel Event. t= 12 (56204) Note Off ch=5 par1=80 par2=64
Channel Event. t= 63 (56267) Note Off ch=5 par1=59 par2=64
Channel Event. t= 45 (56312) Note On ch=5 par1=59 par2=80
Channel Event. t= 120 (56432) Note On ch=5 par1=63 par2=84
Channel Event. t= 7 (56439) Note Off ch=5 par1=59 par2=64
Channel Event. t= 113 (56552) Note On ch=5 par1=59 par2=70
Channel Event. t= 15 (56567) Note Off ch=5 par1=63 par2=64
Channel Event. t= 122 (56689) Note Off ch=5 par1=59 par2=64
Channel Event. t= 418 (57107) Note Off ch=5 par1=68 par2=64
Channel Event. t= 45 (57152) Note On ch=5 par1=57 par2=95
Channel Event. t= 0 (57152) Note On ch=5 par1=68 par2=54
Channel Event. t= 80 (57232) Note Off ch=5 par1=57 par2=64
Channel Event. t= 40 (57272) Note On ch=5 par1=57 par2=81
Channel Event. t= 117 (57389) Note Off ch=5 par1=57 par2=64
Channel Event. t= 3 (57392) Note On ch=5 par1=61 par2=77
Channel Event. t= 115 (57507) Note Off ch=5 par1=61 par2=64
Channel Event. t= 5 (57512) Note On ch=5 par1=57 par2=83
Channel Event. t= 150 (57662) Note Off ch=5 par1=57 par2=64
Channel Event. t= 417 (58079) Note Off ch=5 par1=68 par2=64
Channel Event. t= 33 (58112) Note On ch=5 par1=63 par2=91
Channel Event. t= 120 (58232) Note Off ch=5 par1=63 par2=64
Channel Event. t= 0 (58232) Note On ch=5 par1=67 par2=72
Channel Event. t= 120 (58352) Note On ch=5 par1=70 par2=81
Channel Event. t= 2 (58354) Note Off ch=5 par1=67 par2=64
Channel Event. t= 118 (58472) Note On ch=5 par1=67 par2=77
Channel Event. t= 22 (58494) Note Off ch=5 par1=70 par2=64
Channel Event. t= 98 (58592) Note On ch=5 par1=70 par2=46
Channel Event. t= 25 (58617) Note Off ch=5 par1=67 par2=64
Channel Event. t= 265 (58882) Note Off ch=5 par1=70 par2=64
Channel Event. t= 190 (59072) Note On ch=5 par1=63 par2=93
Channel Event. t= 120 (59192) Note On ch=5 par1=67 par2=75
Channel Event. t= 2 (59194) Note Off ch=5 par1=63 par2=64
Channel Event. t= 118 (59312) Note On ch=5 par1=70 par2=80
Channel Event. t= 2 (59314) Note Off ch=5 par1=67 par2=64
Channel Event. t= 118 (59432) Note On ch=5 par1=67 par2=69
Channel Event. t= 10 (59442) Note Off ch=5 par1=70 par2=64
Channel Event. t= 107 (59549) Note Off ch=5 par1=67 par2=64
Channel Event. t= 3 (59552) Note On ch=5 par1=70 par2=52
Channel Event. t= 257 (59809) Note Off ch=5 par1=70 par2=64
Channel Event. t= 223 (60032) Note On ch=5 par1=67 par2=58
Channel Event. t= 115 (60147) Note Off ch=5 par1=67 par2=64
Channel Event. t= 5 (60152) Note On ch=5 par1=70 par2=46
Channel Event. t= 102 (60254) Note Off ch=5 par1=70 par2=64
Channel Event. t= 18 (60272) Note On ch=5 par1=75 par2=51
Channel Event. t= 97 (60369) Note Off ch=5 par1=75 par2=64
Channel Event. t= 23 (60392) Note On ch=5 par1=79 par2=68
Channel Event. t= 120 (60512) Note Off ch=5 par1=79 par2=64
Channel Event. t= 0 (60512) Note On ch=5 par1=82 par2=71
Channel Event. t= 117 (60629) Note Off ch=5 par1=82 par2=64
Channel Event. t= 543 (61172) Controller ch=5 par1=7 (Main Volume) par2=102
Channel Event. t= 300 (61472) Note On ch=5 par1=91 par2=81
Channel Event. t= 0 (61472) Note On ch=5 par1=83 par2=79
Channel Event. t= 0 (61472) Note On ch=5 par1=59 par2=61
Channel Event. t= 0 (61472) Note On ch=5 par1=66 par2=76
Channel Event. t= 52 (61524) Note On ch=5 par1=74 par2=85
Channel Event. t= 165 (61689) Note Off ch=5 par1=59 par2=64
Channel Event. t= 3 (61692) Note Off ch=5 par1=66 par2=64
Channel Event. t= 185 (61877) Note Off ch=5 par1=83 par2=64
Channel Event. t= 0 (61877) Note Off ch=5 par1=91 par2=64
Channel Event. t= 7 (61884) Note Off ch=5 par1=74 par2=64
Channel Event. t= 68 (61952) Note On ch=5 par1=96 par2=77
Channel Event. t= 0 (61952) Note On ch=5 par1=88 par2=78
Channel Event. t= 0 (61952) Note On ch=5 par1=72 par2=72
Channel Event. t= 0 (61952) Note On ch=5 par1=79 par2=64
Channel Event. t= 360 (62312) Note Off ch=5 par1=79 par2=64
Channel Event. t= 0 (62312) Note Off ch=5 par1=72 par2=64
Channel Event. t= 120 (62432) Note Off ch=5 par1=88 par2=64
Channel Event. t= 0 (62432) Note Off ch=5 par1=96 par2=64
Channel Event. t= 442 (62874) Note On ch=5 par1=79 par2=82
Channel Event. t= 5 (62879) Note On ch=5 par1=74 par2=88
Channel Event. t= 33 (62912) Note On ch=5 par1=91 par2=85
Channel Event. t= 0 (62912) Note On ch=5 par1=59 par2=67
Channel Event. t= 0 (62912) Note On ch=5 par1=66 par2=80
Channel Event. t= 192 (63104) Note Off ch=5 par1=66 par2=64
Channel Event. t= 73 (63177) Note Off ch=5 par1=59 par2=64
Channel Event. t= 25 (63202) Note Off ch=5 par1=91 par2=64
Channel Event. t= 52 (63254) Note Off ch=5 par1=79 par2=64
Channel Event. t= 28 (63282) Note Off ch=5 par1=74 par2=64
Channel Event. t= 110 (63392) Note On ch=5 par1=88 par2=77
Channel Event. t= 0 (63392) Note On ch=5 par1=96 par2=90
Channel Event. t= 0 (63392) Note On ch=5 par1=60 par2=70
Channel Event. t= 0 (63392) Note On ch=5 par1=67 par2=66
Channel Event. t= 5 (63397) Note On ch=5 par1=79 par2=91
Channel Event. t= 260 (63657) Note Off ch=5 par1=60 par2=64
Channel Event. t= 22 (63679) Note Off ch=5 par1=67 par2=64
Channel Event. t= 60 (63739) Note Off ch=5 par1=88 par2=64
Channel Event. t= 3 (63742) Note Off ch=5 par1=96 par2=64
Channel Event. t= 52 (63794) Note Off ch=5 par1=79 par2=64
Channel Event. t= 558 (64352) Note On ch=5 par1=91 par2=84
Channel Event. t= 0 (64352) Note On ch=5 par1=83 par2=75
Channel Event. t= 0 (64352) Note On ch=5 par1=59 par2=72
Channel Event. t= 0 (64352) Note On ch=5 par1=66 par2=81
Channel Event. t= 5 (64357) Note On ch=5 par1=79 par2=74
Channel Event. t= 252 (64609) Note Off ch=5 par1=83 par2=64
Channel Event. t= 13 (64622) Note Off ch=5 par1=91 par2=64
Channel Event. t= 45 (64667) Note Off ch=5 par1=79 par2=64
Channel Event. t= 20 (64687) Note Off ch=5 par1=59 par2=64
Channel Event. t= 60 (64747) Note Off ch=5 par1=66 par2=64
Channel Event. t= 85 (64832) Note On ch=5 par1=83 par2=79
Channel Event. t= 0 (64832) Note On ch=5 par1=91 par2=91
Channel Event. t= 0 (64832) Note On ch=5 par1=59 par2=75
Channel Event. t= 0 (64832) Note On ch=5 par1=66 par2=84
Channel Event. t= 30 (64862) Note On ch=5 par1=79 par2=85
Channel Event. t= 220 (65082) Note Off ch=5 par1=91 par2=64
Channel Event. t= 50 (65132) Note Off ch=5 par1=83 par2=64
Channel Event. t= 5 (65137) Note Off ch=5 par1=66 par2=64
Channel Event. t= 10 (65147) Note Off ch=5 par1=79 par2=64
Channel Event. t= 5 (65152) Note Off ch=5 par1=59 par2=64
Channel Event. t= 160 (65312) Note On ch=5 par1=79 par2=82
Channel Event. t= 0 (65312) Note On ch=5 par1=55 par2=97
Channel Event. t= 82 (65394) Note On ch=5 par1=67 par2=91
Channel Event. t= 38 (65432) Note Off ch=5 par1=79 par2=64
Channel Event. t= 35 (65467) Note Off ch=5 par1=55 par2=64
Channel Event. t= 47 (65514) Note Off ch=5 par1=67 par2=64
Channel Event. t= 38 (65552) Note On ch=5 par1=79 par2=59
Channel Event. t= 0 (65552) Note On ch=5 par1=55 par2=85
Channel Event. t= 52 (65604) Note On ch=5 par1=67 par2=91
Channel Event. t= 110 (65714) Note Off ch=5 par1=79 par2=64
Channel Event. t= 10 (65724) Note Off ch=5 par1=55 par2=64
Channel Event. t= 30 (65754) Note Off ch=5 par1=67 par2=64
Channel Event. t= 38 (65792) Note On ch=5 par1=79 par2=83
Channel Event. t= 0 (65792) Note On ch=5 par1=55 par2=92
Channel Event. t= 27 (65819) Note On ch=5 par1=67 par2=90
Channel Event. t= 198 (66017) Note Off ch=5 par1=79 par2=64
Channel Event. t= 12 (66029) Note Off ch=5 par1=55 par2=64
Channel Event. t= 3 (66032) Note On ch=5 par1=80 par2=89
Channel Event. t= 0 (66032) Note On ch=5 par1=56 par2=86
Channel Event. t= 2 (66034) Note On ch=5 par1=68 par2=96
Channel Event. t= 28 (66062) Note Off ch=5 par1=67 par2=64
Channel Event. t= 210 (66272) Note On ch=5 par1=71 par2=90
Channel Event. t= 0 (66272) Note On ch=5 par1=47 par2=89
Channel Event. t= 12 (66284) Note Off ch=5 par1=56 par2=64
Channel Event. t= 8 (66292) Note Off ch=5 par1=80 par2=64
Channel Event. t= 2 (66294) Note On ch=5 par1=59 par2=99
Channel Event. t= 13 (66307) Note Off ch=5 par1=68 par2=64
Channel Event. t= 360 (66667) Note Off ch=5 par1=59 par2=64
Channel Event. t= 47 (66714) Note Off ch=5 par1=71 par2=64
Channel Event. t= 3 (66717) Note Off ch=5 par1=47 par2=64
Channel Event. t= 35 (66752) Note On ch=5 par1=55 par2=90
Channel Event. t= 240 (66992) Note On ch=5 par1=53 par2=85
Channel Event. t= 40 (67032) Note Off ch=5 par1=55 par2=64
Channel Event. t= 195 (67227) Note Off ch=5 par1=53 par2=64
Channel Event. t= 5 (67232) Note On ch=5 par1=52 par2=91
Channel Event. t= 240 (67472) Note On ch=5 par1=50 par2=87
Channel Event. t= 30 (67502) Note Off ch=5 par1=52 par2=64
Channel Event. t= 55 (67557) Note Off ch=5 par1=50 par2=64
Channel Event. t= 155 (67712) Note On ch=5 par1=83 par2=82
Channel Event. t= 0 (67712) Note On ch=5 par1=91 par2=92
Channel Event. t= 0 (67712) Note On ch=5 par1=66 par2=102
Channel Event. t= 0 (67712) Note On ch=5 par1=59 par2=86
Channel Event. t= 10 (67722) Note On ch=5 par1=79 par2=91
Channel Event. t= 5 (67727) Note On ch=5 par1=74 par2=95
Channel Event. t= 302 (68029) Note Off ch=5 par1=79 par2=64
Channel Event. t= 25 (68054) Note Off ch=5 par1=91 par2=64
Channel Event. t= 5 (68059) Note Off ch=5 par1=74 par2=64
Channel Event. t= 5 (68064) Note Off ch=5 par1=66 par2=64
Channel Event. t= 20 (68084) Note Off ch=5 par1=83 par2=64
Channel Event. t= 3 (68087) Note Off ch=5 par1=59 par2=64
Channel Event. t= 102 (68189) Note On ch=5 par1=67 par2=96
Channel Event. t= 3 (68192) Note On ch=5 par1=79 par2=81
Channel Event. t= 0 (68192) Note On ch=5 par1=55 par2=80
Channel Event. t= 162 (68354) Note Off ch=5 par1=55 par2=64
Channel Event. t= 5 (68359) Note Off ch=5 par1=67 par2=64
Channel Event. t= 33 (68392) Note Off ch=5 par1=79 par2=64
Channel Event. t= 35 (68427) Note On ch=5 par1=67 par2=96
Channel Event. t= 5 (68432) Note On ch=5 par1=79 par2=84
Channel Event. t= 0 (68432) Note On ch=5 par1=55 par2=93
Channel Event. t= 162 (68594) Note Off ch=5 par1=55 par2=64
Channel Event. t= 3 (68597) Note Off ch=5 par1=67 par2=64
Channel Event. t= 37 (68634) Note Off ch=5 par1=79 par2=64
Channel Event. t= 38 (68672) Note On ch=5 par1=79 par2=90
Channel Event. t= 0 (68672) Note On ch=5 par1=67 par2=95
Channel Event. t= 0 (68672) Note On ch=5 par1=55 par2=93
Channel Event. t= 230 (68902) Note Off ch=5 par1=79 par2=64
Channel Event. t= 5 (68907) Note On ch=5 par1=68 par2=96
Channel Event. t= 5 (68912) Note On ch=5 par1=80 par2=91
Channel Event. t= 0 (68912) Note On ch=5 par1=56 par2=92
Channel Event. t= 7 (68919) Note Off ch=5 par1=67 par2=64
Channel Event. t= 5 (68924) Note Off ch=5 par1=55 par2=64
Channel Event. t= 228 (69152) Note On ch=5 par1=71 par2=92
Channel Event. t= 0 (69152) Note On ch=5 par1=47 par2=93
Channel Event. t= 7 (69159) Note Off ch=5 par1=56 par2=64
Channel Event. t= 0 (69159) Note On ch=5 par1=59 par2=99
Channel Event. t= 5 (69164) Note Off ch=5 par1=68 par2=64
Channel Event. t= 15 (69179) Note Off ch=5 par1=80 par2=64
Channel Event. t= 320 (69499) Note Off ch=5 par1=71 par2=64
Channel Event. t= 15 (69514) Note Off ch=5 par1=59 par2=64
Channel Event. t= 8 (69522) Note Off ch=5 par1=47 par2=64
Channel Event. t= 110 (69632) Note On ch=5 par1=55 par2=89
Channel Event. t= 240 (69872) Note On ch=5 par1=53 par2=90
Channel Event. t= 45 (69917) Note Off ch=5 par1=55 par2=64
Channel Event. t= 190 (70107) Note Off ch=5 par1=53 par2=64
Channel Event. t= 5 (70112) Note On ch=5 par1=52 par2=93
Channel Event. t= 240 (70352) Note On ch=5 par1=50 par2=92
Channel Event. t= 27 (70379) Note Off ch=5 par1=52 par2=64
Channel Event. t= 195 (70574) Note Off ch=5 par1=50 par2=64
Channel Event. t= 18 (70592) Note On ch=5 par1=52 par2=92
Channel Event. t= 480 (71072) Note On ch=5 par1=54 par2=83
Channel Event. t= 42 (71114) Note Off ch=5 par1=52 par2=64
Channel Event. t= 438 (71552) Note On ch=5 par1=55 par2=80
Channel Event. t= 15 (71567) Note Off ch=5 par1=54 par2=64
Channel Event. t= 225 (71792) Note On ch=5 par1=51 par2=85
Channel Event. t= 20 (71812) Note Off ch=5 par1=55 par2=64
Channel Event. t= 220 (72032) Note On ch=5 par1=52 par2=93
Channel Event. t= 30 (72062) Note Off ch=5 par1=51 par2=64
Channel Event. t= 450 (72512) Note On ch=5 par1=74 par2=98
Channel Event. t= 0 (72512) Note On ch=5 par1=79 par2=93
Channel Event. t= 0 (72512) Note On ch=5 par1=71 par2=91
Channel Event. t= 0 (72512) Note On ch=5 par1=59 par2=90
Channel Event. t= 0 (72512) Note On ch=5 par1=55 par2=95
Channel Event. t= 40 (72552) Note Off ch=5 par1=52 par2=64
Channel Event. t= 920 (73472) Note Off ch=5 par1=55 par2=64
Channel Event. t= 0 (73472) Note On ch=5 par1=65 par2=92
Channel Event. t= 20 (73492) Note Off ch=5 par1=59 par2=64
Channel Event. t= 60 (73552) Note Off ch=5 par1=71 par2=64
Channel Event. t= 0 (73552) Note On ch=5 par1=71 par2=94
Channel Event. t= 367 (73919) Note Off ch=5 par1=65 par2=64
Channel Event. t= 33 (73952) Note Off ch=5 par1=74 par2=64
Channel Event. t= 0 (73952) Note On ch=5 par1=80 par2=97
Channel Event. t= 0 (73952) Note On ch=5 par1=75 par2=101
Channel Event. t= 65 (74017) Note Off ch=5 par1=79 par2=64
Channel Event. t= 105 (74122) Note Off ch=5 par1=71 par2=64
Channel Event. t= 80 (74202) Note Off ch=5 par1=75 par2=64
Channel Event. t= 7 (74209) Note Off ch=5 par1=80 par2=64
Channel Event. t= 223 (74432) Note On ch=5 par1=51 par2=98
Channel Event. t= 480 (74912) Note On ch=5 par1=53 par2=87
Channel Event. t= 25 (74937) Note Off ch=5 par1=51 par2=64
Channel Event. t= 425 (75362) Note On ch=5 par1=54 par2=89
Channel Event. t= 72 (75434) Note Off ch=5 par1=53 par2=64
Channel Event. t= 160 (75594) Note On ch=5 par1=50 par2=88
Channel Event. t= 13 (75607) Note Off ch=5 par1=54 par2=64
Channel Event. t= 235 (75842) Note On ch=5 par1=51 par2=93
Channel Event. t= 40 (75882) Note Off ch=5 par1=50 par2=64
Channel Event. t= 345 (76227) Note Off ch=5 par1=51 par2=64
Channel Event. t= 87 (76314) Note On ch=5 par1=66 par2=102
Channel Event. t= 3 (76317) Note On ch=5 par1=70 par2=102
Channel Event. t= 0 (76317) Note On ch=5 par1=73 par2=107
Channel Event. t= 30 (76347) Note On ch=5 par1=54 par2=83
Channel Event. t= 5 (76352) Note On ch=5 par1=78 par2=109
Channel Event. t= 5 (76357) Note On ch=5 par1=58 par2=68
Channel Event. t= 5 (76362) Note On ch=5 par1=56 par2=65
Channel Event. t= 37 (76399) Note Off ch=5 par1=56 par2=64
Channel Event. t= 880 (77279) Note On ch=5 par1=64 par2=91
Channel Event. t= 5 (77284) Note Off ch=5 par1=58 par2=64
Channel Event. t= 43 (77327) Note Off ch=5 par1=54 par2=64
Channel Event. t= 350 (77677) Note Off ch=5 par1=70 par2=64
Channel Event. t= 70 (77747) Note Off ch=5 par1=66 par2=64
Channel Event. t= 12 (77759) Note On ch=5 par1=70 par2=99
Channel Event. t= 5 (77764) Note Off ch=5 par1=73 par2=64
Channel Event. t= 10 (77774) Note Off ch=5 par1=64 par2=64
Channel Event. t= 18 (77792) Note On ch=5 par1=74 par2=96
Channel Event. t= 0 (77792) Note On ch=5 par1=79 par2=87
Channel Event. t= 45 (77837) Note Off ch=5 par1=78 par2=64
Channel Event. t= 292 (78129) Note Off ch=5 par1=74 par2=64
Channel Event. t= 8 (78137) Note Off ch=5 par1=79 par2=64
Channel Event. t= 10 (78147) Note Off ch=5 par1=70 par2=64
Channel Event. t= 95 (78242) Note On ch=5 par1=50 par2=105
Channel Event. t= 480 (78722) Note On ch=5 par1=52 par2=95
Channel Event. t= 32 (78754) Note Off ch=5 par1=50 par2=64
Channel Event. t= 443 (79197) Note On ch=5 par1=53 par2=77
Channel Event. t= 10 (79207) Note Off ch=5 par1=52 par2=64
Channel Event. t= 220 (79427) Note On ch=5 par1=49 par2=91
Channel Event. t= 30 (79457) Note Off ch=5 par1=53 par2=64
Channel Event. t= 215 (79672) Note On ch=5 par1=50 par2=93
Channel Event. t= 30 (79702) Note Off ch=5 par1=49 par2=64
Channel Event. t= 437 (80139) Note Off ch=5 par1=50 par2=64
Channel Event. t= 1965 (82104) Note On ch=5 par1=53 par2=97
Channel Event. t= 0 (82104) Note On ch=5 par1=50 par2=102
Channel Event. t= 1870 (83974) Note Off ch=5 par1=50 par2=64
Channel Event. t= 3 (83977) Note Off ch=5 par1=53 par2=64
Channel Event. t= 40 (84017) Note On ch=5 par1=53 par2=91
Channel Event. t= 2 (84019) Note On ch=5 par1=50 par2=92
Channel Event. t= 13 (84032) Note On ch=5 par1=65 par2=85
Channel Event. t= 0 (84032) Note On ch=5 par1=62 par2=86
Channel Event. t= 37 (84069) Note On ch=5 par1=57 par2=69
Channel Event. t= 203 (84272) Note On ch=5 par1=64 par2=89
Channel Event. t= 0 (84272) Note On ch=5 par1=61 par2=71
Channel Event. t= 0 (84272) Note On ch=5 par1=58 par2=69
Channel Event. t= 12 (84284) Note Off ch=5 par1=57 par2=64
Channel Event. t= 28 (84312) Note Off ch=5 par1=65 par2=64
Channel Event. t= 7 (84319) Note Off ch=5 par1=62 par2=64
Channel Event. t= 180 (84499) Note On ch=5 par1=57 par2=87
Channel Event. t= 5 (84504) Note Off ch=5 par1=61 par2=64
Channel Event. t= 8 (84512) Note On ch=5 par1=65 par2=64
Channel Event. t= 0 (84512) Note On ch=5 par1=62 par2=75
Channel Event. t= 25 (84537) Note Off ch=5 par1=58 par2=64
Channel Event. t= 25 (84562) Note Off ch=5 par1=64 par2=64
Channel Event. t= 185 (84747) Note On ch=5 par1=58 par2=77
Channel Event. t= 5 (84752) Note On ch=5 par1=64 par2=83
Channel Event. t= 0 (84752) Note On ch=5 par1=61 par2=75
Channel Event. t= 42 (84794) Note Off ch=5 par1=62 par2=64
Channel Event. t= 10 (84804) Note Off ch=5 par1=57 par2=64
Channel Event. t= 8 (84812) Note Off ch=5 par1=65 par2=64
Channel Event. t= 180 (84992) Note On ch=5 par1=62 par2=80
Channel Event. t= 0 (84992) Note On ch=5 par1=65 par2=77
Channel Event. t= 2 (84994) Note On ch=5 par1=57 par2=84
Channel Event. t= 3 (84997) Note Off ch=5 par1=61 par2=64
Channel Event. t= 40 (85037) Note Off ch=5 par1=58 par2=64
Channel Event. t= 7 (85044) Note Off ch=5 par1=64 par2=64
Channel Event. t= 203 (85247) Note Off ch=5 par1=62 par2=64
Channel Event. t= 40 (85287) Note Off ch=5 par1=65 par2=64
Channel Event. t= 95 (85382) Note Off ch=5 par1=57 par2=64
Channel Event. t= 90 (85472) Note On ch=5 par1=65 par2=89
Channel Event. t= 0 (85472) Note On ch=5 par1=62 par2=93
Channel Event. t= 17 (85489) Note On ch=5 par1=57 par2=103
Channel Event. t= 308 (85797) Note Off ch=5 par1=65 par2=64
Channel Event. t= 57 (85854) Note Off ch=5 par1=62 par2=64
Channel Event. t= 20 (85874) Note Off ch=5 par1=50 par2=64
Channel Event. t= 5 (85879) Note Off ch=5 par1=53 par2=64
Channel Event. t= 70 (85949) Note Off ch=5 par1=57 par2=64
Channel Event. t= 3 (85952) Note On ch=5 par1=69 par2=89
Channel Event. t= 0 (85952) Note On ch=5 par1=65 par2=89
Channel Event. t= 2 (85954) Note On ch=5 par1=53 par2=99
Channel Event. t= 3 (85957) Note On ch=5 par1=50 par2=99
Channel Event. t= 15 (85972) Note On ch=5 par1=62 par2=100
Channel Event. t= 460 (86432) Note On ch=5 par1=64 par2=83
Channel Event. t= 0 (86432) Note On ch=5 par1=68 par2=84
Channel Event. t= 15 (86447) Note Off ch=5 par1=69 par2=64
Channel Event. t= 10 (86457) Note On ch=5 par1=58 par2=97
Channel Event. t= 55 (86512) Note Off ch=5 par1=62 par2=64
Channel Event. t= 25 (86537) Note Off ch=5 par1=65 par2=64
Channel Event. t= 332 (86869) Note Off ch=5 par1=68 par2=64
Channel Event. t= 43 (86912) Note On ch=5 par1=69 par2=83
Channel Event. t= 0 (86912) Note On ch=5 par1=65 par2=83
Channel Event. t= 5 (86917) Note Off ch=5 par1=58 par2=64
Channel Event. t= 27 (86944) Note On ch=5 par1=62 par2=104
Channel Event. t= 8 (86952) Note Off ch=5 par1=64 par2=64
Channel Event. t= 365 (87317) Note Off ch=5 par1=65 par2=64
Channel Event. t= 40 (87357) Note Off ch=5 par1=69 par2=64
Channel Event. t= 35 (87392) Note On ch=5 par1=65 par2=90
Channel Event. t= 7 (87399) Note On ch=5 par1=57 par2=103
Channel Event. t= 15 (87414) Note Off ch=5 par1=62 par2=64
Channel Event. t= 355 (87769) Note Off ch=5 par1=53 par2=64
Channel Event. t= 0 (87769) Note Off ch=5 par1=50 par2=64
Channel Event. t= 60 (87829) Note Off ch=5 par1=57 par2=64
Channel Event. t= 15 (87844) Note On ch=5 par1=53 par2=85
Channel Event. t= 0 (87844) Note On ch=5 par1=50 par2=86
Channel Event. t= 28 (87872) Note On ch=5 par1=62 par2=90
Channel Event. t= 0 (87872) Note On ch=5 par1=67 par2=102
Channel Event. t= 0 (87872) Note On ch=5 par1=59 par2=104
Channel Event. t= 5 (87877) Note Off ch=5 par1=65 par2=64
Channel Event. t= 1877 (89754) Note Off ch=5 par1=62 par2=64
Channel Event. t= 0 (89754) Note Off ch=5 par1=67 par2=64
Channel Event. t= 25 (89779) Note On ch=5 par1=43 par2=92
Channel Event. t= 18 (89797) Note Off ch=5 par1=50 par2=64
Channel Event. t= 2 (89799) Note Off ch=5 par1=53 par2=64
Channel Event. t= 8 (89807) Note On ch=5 par1=60 par2=95
Channel Event. t= 17 (89824) Note On ch=5 par1=48 par2=95
Channel Event. t= 35 (89859) Note Off ch=5 par1=59 par2=64
Channel Event. t= 1388 (91247) Note On ch=5 par1=38 par2=78
Channel Event. t= 22 (91269) Note Off ch=5 par1=43 par2=64
Channel Event. t= 463 (91732) Note Off ch=5 par1=60 par2=64
Channel Event. t= 35 (91767) Note Off ch=5 par1=38 par2=64
Channel Event. t= 7 (91774) Note On ch=5 par1=60 par2=100
Channel Event. t= 568 (92342) Note Off ch=5 par1=60 par2=64
Channel Event. t= 12 (92354) Note Off ch=5 par1=48 par2=64
Channel Event. t= 1740 (94094) Controller ch=5 par1=7 (Main Volume) par2=80
Channel Event. t= 1920 (96014) Note On ch=5 par1=56 par2=70
Channel Event. t= 0 (96014) Note On ch=5 par1=53 par2=67
Channel Event. t= 3 (96017) Note On ch=5 par1=61 par2=73
Channel Event. t= 360 (96377) Note Off ch=5 par1=53 par2=64
Channel Event. t= 10 (96387) Note Off ch=5 par1=56 par2=64
Channel Event. t= 5 (96392) Note Off ch=5 par1=61 par2=64
Channel Event. t= 562 (96954) Note On ch=5 par1=64 par2=57
Channel Event. t= 5 (96959) Note On ch=5 par1=60 par2=57
Channel Event. t= 0 (96959) Note On ch=5 par1=55 par2=52
Channel Event. t= 398 (97357) Note Off ch=5 par1=60 par2=64
Channel Event. t= 0 (97357) Note Off ch=5 par1=64 par2=64
Channel Event. t= 5 (97362) Note Off ch=5 par1=55 par2=64
Channel Event. t= 552 (97914) Note On ch=5 par1=61 par2=65
Channel Event. t= 5 (97919) Note On ch=5 par1=53 par2=50
Channel Event. t= 3 (97922) Note On ch=5 par1=56 par2=54
Channel Event. t= 347 (98269) Note Off ch=5 par1=53 par2=64
Channel Event. t= 15 (98284) Note Off ch=5 par1=56 par2=64
Channel Event. t= 15 (98299) Note Off ch=5 par1=61 par2=64
Channel Event. t= 580 (98879) Note On ch=5 par1=64 par2=58
Channel Event. t= 8 (98887) Note On ch=5 par1=60 par2=56
Channel Event. t= 0 (98887) Note On ch=5 par1=55 par2=53
Channel Event. t= 380 (99267) Note Off ch=5 par1=55 par2=64
Channel Event. t= 2 (99269) Note Off ch=5 par1=60 par2=64
Channel Event. t= 5 (99274) Note Off ch=5 par1=64 par2=64
Channel Event. t= 570 (99844) Note On ch=5 par1=53 par2=56
Channel Event. t= 5 (99849) Note On ch=5 par1=61 par2=66
Channel Event. t= 3 (99852) Note On ch=5 par1=56 par2=63
Channel Event. t= 332 (100184) Note Off ch=5 par1=53 par2=64
Channel Event. t= 15 (100199) Note Off ch=5 par1=56 par2=64
Channel Event. t= 20 (100219) Note Off ch=5 par1=61 par2=64
Channel Event. t= 565 (100784) Note On ch=5 par1=55 par2=51
Channel Event. t= 3 (100787) Note On ch=5 par1=64 par2=50
Channel Event. t= 2 (100789) Note On ch=5 par1=60 par2=56
Channel Event. t= 420 (101209) Note Off ch=5 par1=64 par2=64
Channel Event. t= 3 (101212) Note Off ch=5 par1=60 par2=64
Channel Event. t= 17 (101229) Note Off ch=5 par1=55 par2=64
Channel Event. t= 540 (101769) Note On ch=5 par1=56 par2=55
Channel Event. t= 0 (101769) Note On ch=5 par1=53 par2=55
Channel Event. t= 5 (101774) Note On ch=5 par1=49 par2=56
Channel Event. t= 400 (102174) Note Off ch=5 par1=49 par2=64
Channel Event. t= 3 (102177) Note Off ch=5 par1=53 par2=64
Channel Event. t= 12 (102189) Note Off ch=5 par1=56 par2=64
Channel Event. t= 503 (102692) Note On ch=5 par1=72 par2=99
Channel Event. t= 42 (102734) Note On ch=5 par1=48 par2=54
Channel Event. t= 5 (102739) Note On ch=5 par1=52 par2=63
Channel Event. t= 0 (102739) Note On ch=5 par1=55 par2=57
Channel Event. t= 13 (102752) Note On ch=5 par1=60 par2=93
Channel Event. t= 275 (103027) Note Off ch=5 par1=55 par2=64
Channel Event. t= 7 (103034) Note Off ch=5 par1=52 par2=64
Channel Event. t= 15 (103049) Note Off ch=5 par1=48 par2=64
Channel Event. t= 183 (103232) Note Off ch=5 par1=72 par2=64
Channel Event. t= 0 (103232) Note On ch=5 par1=73 par2=103
Channel Event. t= 0 (103232) Note On ch=5 par1=61 par2=100
Channel Event. t= 45 (103277) Note Off ch=5 par1=60 par2=64
Channel Event. t= 237 (103514) Note Off ch=5 par1=73 par2=64
Channel Event. t= 65 (103579) Note Off ch=5 par1=61 par2=64
Channel Event. t= 108 (103687) Note On ch=5 par1=53 par2=61
Channel Event. t= 5 (103692) Note On ch=5 par1=49 par2=69
Channel Event. t= 2 (103694) Note On ch=5 par1=44 par2=53
Channel Event. t= 18 (103712) Note On ch=5 par1=75 par2=101
Channel Event. t= 0 (103712) Note On ch=5 par1=63 par2=99
Channel Event. t= 260 (103972) Note Off ch=5 par1=75 par2=64
Channel Event. t= 47 (104019) Note Off ch=5 par1=63 par2=64
Channel Event. t= 33 (104052) Note Off ch=5 par1=44 par2=64
Channel Event. t= 35 (104087) Note Off ch=5 par1=49 par2=64
Channel Event. t= 25 (104112) Note Off ch=5 par1=53 par2=64
Channel Event. t= 80 (104192) Note On ch=5 par1=76 par2=110
Channel Event. t= 0 (104192) Note On ch=5 par1=64 par2=96
Channel Event. t= 252 (104444) Note Off ch=5 par1=76 par2=64
Channel Event. t= 50 (104494) Note Off ch=5 par1=64 par2=64
Channel Event. t= 150 (104644) Note On ch=5 par1=55 par2=53
Channel Event. t= 5 (104649) Note On ch=5 par1=48 par2=56
Channel Event. t= 3 (104652) Note On ch=5 par1=52 par2=61
Channel Event. t= 20 (104672) Note On ch=5 par1=72 par2=91
Channel Event. t= 0 (104672) Note On ch=5 par1=60 par2=97
Channel Event. t= 327 (104999) Note Off ch=5 par1=52 par2=64
Channel Event. t= 13 (105012) Note Off ch=5 par1=48 par2=64
Channel Event. t= 12 (105024) Note Off ch=5 par1=55 par2=64
Channel Event. t= 128 (105152) Note On ch=5 par1=73 par2=85
Channel Event. t= 0 (105152) Note On ch=5 par1=61 par2=100
Channel Event. t= 47 (105199) Note Off ch=5 par1=72 par2=64
Channel Event. t= 0 (105199) Note Off ch=5 par1=60 par2=64
Channel Event. t= 228 (105427) Note Off ch=5 par1=73 par2=64
Channel Event. t= 95 (105522) Note Off ch=5 par1=61 par2=64
Channel Event. t= 85 (105607) Note On ch=5 par1=53 par2=66
Channel Event. t= 5 (105612) Note On ch=5 par1=49 par2=73
Channel Event. t= 2 (105614) Note On ch=5 par1=44 par2=61
Channel Event. t= 18 (105632) Note On ch=5 par1=75 par2=110
Channel Event. t= 0 (105632) Note On ch=5 par1=63 par2=101
Channel Event. t= 247 (105879) Note Off ch=5 par1=44 par2=64
Channel Event. t= 38 (105917) Note Off ch=5 par1=75 par2=64
Channel Event. t= 5 (105922) Note Off ch=5 par1=49 par2=64
Channel Event. t= 2 (105924) Note Off ch=5 par1=63 par2=64
Channel Event. t= 23 (105947) Note Off ch=5 par1=53 par2=64
Channel Event. t= 165 (106112) Note On ch=5 par1=76 par2=98
Channel Event. t= 0 (106112) Note On ch=5 par1=64 par2=102
Channel Event. t= 270 (106382) Note Off ch=5 par1=76 par2=64
Channel Event. t= 57 (106439) Note Off ch=5 par1=64 par2=64
Channel Event. t= 115 (106554) Note On ch=5 par1=55 par2=61
Channel Event. t= 5 (106559) Note On ch=5 par1=48 par2=59
Channel Event. t= 5 (106564) Note On ch=5 par1=52 par2=63
Channel Event. t= 28 (106592) Note On ch=5 par1=72 par2=90
Channel Event. t= 0 (106592) Note On ch=5 par1=60 par2=99
Channel Event. t= 252 (106844) Note Off ch=5 par1=48 par2=64
Channel Event. t= 20 (106864) Note Off ch=5 par1=52 par2=64
Channel Event. t= 33 (106897) Note Off ch=5 par1=55 par2=64
Channel Event. t= 175 (107072) Note On ch=5 par1=73 par2=92
Channel Event. t= 0 (107072) Note On ch=5 par1=61 par2=99
Channel Event. t= 17 (107089) Note Off ch=5 par1=72 par2=64
Channel Event. t= 25 (107114) Note Off ch=5 par1=60 par2=64
Channel Event. t= 198 (107312) Note On ch=5 par1=76 par2=66
Channel Event. t= 0 (107312) Note On ch=5 par1=64 par2=86
Channel Event. t= 7 (107319) Note Off ch=5 par1=61 par2=64
Channel Event. t= 5 (107324) Note Off ch=5 par1=73 par2=64
Channel Event. t= 188 (107512) Note On ch=5 par1=61 par2=69
Channel Event. t= 2 (107514) Note On ch=5 par1=53 par2=53
Channel Event. t= 3 (107517) Note On ch=5 par1=56 par2=64
Channel Event. t= 35 (107552) Note On ch=5 par1=77 par2=86
Channel Event. t= 0 (107552) Note On ch=5 par1=65 par2=94
Channel Event. t= 40 (107592) Note Off ch=5 par1=76 par2=64
Channel Event. t= 17 (107609) Note Off ch=5 par1=64 par2=64
Channel Event. t= 183 (107792) Note On ch=5 par1=80 par2=87
Channel Event. t= 0 (107792) Note On ch=5 par1=68 par2=94
Channel Event. t= 22 (107814) Note Off ch=5 par1=77 par2=64
Channel Event. t= 13 (107827) Note Off ch=5 par1=65 par2=64
Channel Event. t= 30 (107857) Note Off ch=5 par1=53 par2=64
Channel Event. t= 12 (107869) Note Off ch=5 par1=56 par2=64
Channel Event. t= 18 (107887) Note Off ch=5 par1=61 par2=64
Channel Event. t= 132 (108019) Note Off ch=5 par1=68 par2=64
Channel Event. t= 13 (108032) Note On ch=5 par1=84 par2=79
Channel Event. t= 0 (108032) Note On ch=5 par1=72 par2=95
Channel Event. t= 10 (108042) Note Off ch=5 par1=80 par2=64
Channel Event. t= 380 (108422) Note Off ch=5 par1=84 par2=64
Channel Event. t= 52 (108474) Note Off ch=5 par1=72 par2=64
Channel Event. t= 18 (108492) Note On ch=5 par1=55 par2=58
Channel Event. t= 2 (108494) Note On ch=5 par1=64 par2=61
Channel Event. t= 3 (108497) Note On ch=5 par1=60 par2=58
Channel Event. t= 15 (108512) Note On ch=5 par1=83 par2=98
Channel Event. t= 0 (108512) Note On ch=5 par1=71 par2=99
Channel Event. t= 240 (108752) Note On ch=5 par1=84 par2=86
Channel Event. t= 0 (108752) Note On ch=5 par1=72 par2=93
Channel Event. t= 32 (108784) Note Off ch=5 par1=83 par2=64
Channel Event. t= 3 (108787) Note Off ch=5 par1=71 par2=64
Channel Event. t= 70 (108857) Note Off ch=5 par1=60 par2=64
Channel Event. t= 5 (108862) Note Off ch=5 par1=64 par2=64
Channel Event. t= 10 (108872) Note Off ch=5 par1=55 par2=64
Channel Event. t= 120 (108992) Note On ch=5 par1=85 par2=99
Channel Event. t= 0 (108992) Note On ch=5 par1=73 par2=103
Channel Event. t= 55 (109047) Note Off ch=5 par1=72 par2=64
Channel Event. t= 27 (109074) Note Off ch=5 par1=84 par2=64
Channel Event. t= 185 (109259) Note Off ch=5 par1=85 par2=64
Channel Event. t= 65 (109324) Note Off ch=5 par1=73 par2=64
Channel Event. t= 120 (109444) Note On ch=5 par1=61 par2=71
Channel Event. t= 8 (109452) Note On ch=5 par1=56 par2=66
Channel Event. t= 0 (109452) Note On ch=5 par1=53 par2=58
Channel Event. t= 20 (109472) Note On ch=5 par1=89 par2=95
Channel Event. t= 0 (109472) Note On ch=5 par1=77 par2=97
Channel Event. t= 210 (109682) Note Off ch=5 par1=89 par2=64
Channel Event. t= 100 (109782) Note Off ch=5 par1=53 par2=64
Channel Event. t= 2 (109784) Note Off ch=5 par1=77 par2=64
Channel Event. t= 10 (109794) Note Off ch=5 par1=56 par2=64
Channel Event. t= 18 (109812) Note Off ch=5 par1=61 par2=64
Channel Event. t= 140 (109952) Note On ch=5 par1=88 par2=105
Channel Event. t= 0 (109952) Note On ch=5 par1=76 par2=103
Channel Event. t= 465 (110417) Note On ch=5 par1=55 par2=58
Channel Event. t= 0 (110417) Note On ch=5 par1=64 par2=58
Channel Event. t= 2 (110419) Note On ch=5 par1=60 par2=60
Channel Event. t= 343 (110762) Note Off ch=5 par1=88 par2=64
Channel Event. t= 10 (110772) Note Off ch=5 par1=60 par2=64
Channel Event. t= 7 (110779) Note Off ch=5 par1=64 par2=64
Channel Event. t= 5 (110784) Note Off ch=5 par1=55 par2=64
Channel Event. t= 70 (110854) Note Off ch=5 par1=76 par2=64
Channel Event. t= 58 (110912) Note On ch=5 par1=85 par2=93
Channel Event. t= 0 (110912) Note On ch=5 par1=73 par2=107
Channel Event. t= 280 (111192) Note Off ch=5 par1=85 par2=64
Channel Event. t= 62 (111254) Note Off ch=5 par1=73 par2=64
Channel Event. t= 113 (111367) Note On ch=5 par1=53 par2=66
Channel Event. t= 0 (111367) Note On ch=5 par1=61 par2=76
Channel Event. t= 2 (111369) Note On ch=5 par1=56 par2=72
Channel Event. t= 23 (111392) Note On ch=5 par1=89 par2=96
Channel Event. t= 0 (111392) Note On ch=5 par1=77 par2=102
Channel Event. t= 320 (111712) Note Off ch=5 par1=89 par2=64
Channel Event. t= 0 (111712) Note Off ch=5 par1=53 par2=64
Channel Event. t= 7 (111719) Note Off ch=5 par1=56 par2=64
Channel Event. t= 25 (111744) Note Off ch=5 par1=61 par2=64
Channel Event. t= 45 (111789) Note Off ch=5 par1=77 par2=64
Channel Event. t= 83 (111872) Note On ch=5 par1=88 par2=94
Channel Event. t= 0 (111872) Note On ch=5 par1=76 par2=102
Channel Event. t= 182 (112054) Note Off ch=5 par1=76 par2=64
Channel Event. t= 25 (112079) Note Off ch=5 par1=88 par2=64
Channel Event. t= 5 (112084) Note On ch=5 par1=77 par2=91
Channel Event. t= 28 (112112) Note On ch=5 par1=89 par2=90
Channel Event. t= 0 (112112) Note On ch=5 par1=76 par2=77
Channel Event. t= 60 (112172) Note On ch=5 par1=88 par2=81
Channel Event. t= 52 (112224) Note Off ch=5 par1=77 par2=64
Channel Event. t= 5 (112229) Note Off ch=5 par1=89 par2=64
Channel Event. t= 93 (112322) Note On ch=5 par1=64 par2=56
Channel Event. t= 0 (112322) Note On ch=5 par1=55 par2=57
Channel Event. t= 5 (112327) Note On ch=5 par1=60 par2=63
Channel Event. t= 25 (112352) Note On ch=5 par1=84 par2=88
Channel Event. t= 0 (112352) Note On ch=5 par1=72 par2=81
Channel Event. t= 25 (112377) Note Off ch=5 par1=76 par2=64
Channel Event. t= 7 (112384) Note Off ch=5 par1=88 par2=64
Channel Event. t= 183 (112567) Note Off ch=5 par1=84 par2=64
Channel Event. t= 5 (112572) Note Off ch=5 par1=72 par2=64
Channel Event. t= 20 (112592) Note On ch=5 par1=79 par2=74
Channel Event. t= 0 (112592) Note On ch=5 par1=67 par2=89
Channel Event. t= 52 (112644) Note Off ch=5 par1=60 par2=64
Channel Event. t= 8 (112652) Note Off ch=5 par1=64 par2=64
Channel Event. t= 10 (112662) Note Off ch=5 par1=55 par2=64
Channel Event. t= 170 (112832) Note Off ch=5 par1=79 par2=64
Channel Event. t= 0 (112832) Note On ch=5 par1=80 par2=64
Channel Event. t= 0 (112832) Note On ch=5 par1=68 par2=90
Channel Event. t= 12 (112844) Note Off ch=5 par1=67 par2=64
Channel Event. t= 228 (113072) Note Off ch=5 par1=80 par2=64
Channel Event. t= 62 (113134) Note Off ch=5 par1=68 par2=64
Channel Event. t= 138 (113272) Note On ch=5 par1=61 par2=71
Channel Event. t= 0 (113272) Note On ch=5 par1=53 par2=61
Channel Event. t= 5 (113277) Note On ch=5 par1=56 par2=59
Channel Event. t= 35 (113312) Note On ch=5 par1=85 par2=97
Channel Event. t= 0 (113312) Note On ch=5 par1=73 par2=102
Channel Event. t= 342 (113654) Note Off ch=5 par1=61 par2=64
Channel Event. t= 5 (113659) Note Off ch=5 par1=56 par2=64
Channel Event. t= 5 (113664) Note Off ch=5 par1=53 par2=64
Channel Event. t= 10 (113674) Note Off ch=5 par1=85 par2=64
Channel Event. t= 5 (113679) Note Off ch=5 par1=73 par2=64
Channel Event. t= 113 (113792) Note On ch=5 par1=84 par2=98
Channel Event. t= 0 (113792) Note On ch=5 par1=72 par2=98
Channel Event. t= 180 (113972) Note On ch=5 par1=85 par2=81
Channel Event. t= 22 (113994) Note Off ch=5 par1=72 par2=64
Channel Event. t= 0 (113994) Note On ch=5 par1=73 par2=94
Channel Event. t= 10 (114004) Note Off ch=5 par1=84 par2=64
Channel Event. t= 28 (114032) Note On ch=5 par1=72 par2=61
Channel Event. t= 60 (114092) Note On ch=5 par1=84 par2=74
Channel Event. t= 7 (114099) Note Off ch=5 par1=85 par2=64
Channel Event. t= 30 (114129) Note Off ch=5 par1=73 par2=64
Channel Event. t= 115 (114244) Note On ch=5 par1=55 par2=54
Channel Event. t= 0 (114244) Note On ch=5 par1=60 par2=58
Channel Event. t= 8 (114252) Note On ch=5 par1=52 par2=61
Channel Event. t= 17 (114269) Note Off ch=5 par1=84 par2=64
Channel Event. t= 3 (114272) Note Off ch=5 par1=72 par2=64
Channel Event. t= 0 (114272) Note On ch=5 par1=79 par2=87
Channel Event. t= 0 (114272) Note On ch=5 par1=67 par2=85
Channel Event. t= 207 (114479) Note Off ch=5 par1=67 par2=64
Channel Event. t= 23 (114502) Note Off ch=5 par1=79 par2=64
Channel Event. t= 10 (114512) Note On ch=5 par1=76 par2=86
Channel Event. t= 0 (114512) Note On ch=5 par1=64 par2=93
Channel Event. t= 127 (114639) Note Off ch=5 par1=52 par2=64
Channel Event. t= 13 (114652) Note Off ch=5 par1=55 par2=64
Channel Event. t= 37 (114689) Note Off ch=5 par1=60 par2=64
Channel Event. t= 15 (114704) Note Off ch=5 par1=76 par2=64
Channel Event. t= 25 (114729) Note Off ch=5 par1=64 par2=64
Channel Event. t= 23 (114752) Note On ch=5 par1=77 par2=94
Channel Event. t= 0 (114752) Note On ch=5 par1=65 par2=103
Channel Event. t= 302 (115054) Note Off ch=5 par1=77 par2=64
Channel Event. t= 55 (115109) Note Off ch=5 par1=65 par2=64
Channel Event. t= 88 (115197) Note On ch=5 par1=56 par2=66
Channel Event. t= 0 (115197) Note On ch=5 par1=61 par2=74
Channel Event. t= 0 (115197) Note On ch=5 par1=53 par2=59
Channel Event. t= 35 (115232) Note On ch=5 par1=80 par2=96
Channel Event. t= 0 (115232) Note On ch=5 par1=68 par2=103
Channel Event. t= 310 (115542) Note Off ch=5 par1=56 par2=64
Channel Event. t= 5 (115547) Note Off ch=5 par1=61 par2=64
Channel Event. t= 2 (115549) Note Off ch=5 par1=53 par2=64
Channel Event. t= 33 (115582) Note Off ch=5 par1=80 par2=64
Channel Event. t= 30 (115612) Note Off ch=5 par1=68 par2=64
Channel Event. t= 100 (115712) Note On ch=5 par1=79 par2=90
Channel Event. t= 0 (115712) Note On ch=5 par1=67 par2=94
Channel Event. t= 377 (116089) Note Off ch=5 par1=79 par2=64
Channel Event. t= 63 (116152) Note On ch=5 par1=60 par2=63
Channel Event. t= 2 (116154) Note Off ch=5 par1=67 par2=64
Channel Event. t= 0 (116154) Note On ch=5 par1=55 par2=64
Channel Event. t= 5 (116159) Note On ch=5 par1=52 par2=63
Channel Event. t= 33 (116192) Note On ch=5 par1=75 par2=103
Channel Event. t= 0 (116192) Note On ch=5 par1=63 par2=99
Channel Event. t= 120 (116312) Note On ch=5 par1=64 par2=89
Channel Event. t= 110 (116422) Note Off ch=5 par1=63 par2=64
Channel Event. t= 5 (116427) Note Off ch=5 par1=75 par2=64
Channel Event. t= 5 (116432) Note On ch=5 par1=76 par2=82
Channel Event. t= 72 (116504) Note Off ch=5 par1=52 par2=64
Channel Event. t= 15 (116519) Note Off ch=5 par1=55 par2=64
Channel Event. t= 33 (116552) Note Off ch=5 par1=60 par2=64
Channel Event. t= 25 (116577) Note Off ch=5 par1=64 par2=64
Channel Event. t= 95 (116672) Note On ch=5 par1=77 par2=94
Channel Event. t= 0 (116672) Note On ch=5 par1=65 par2=98
Channel Event. t= 15 (116687) Note Off ch=5 par1=76 par2=64
Channel Event. t= 270 (116957) Note Off ch=5 par1=77 par2=64
Channel Event. t= 32 (116989) Note Off ch=5 par1=65 par2=64
Channel Event. t= 150 (117139) Note On ch=5 par1=61 par2=72
Channel Event. t= 0 (117139) Note On ch=5 par1=56 par2=63
Channel Event. t= 3 (117142) Note On ch=5 par1=53 par2=59
Channel Event. t= 10 (117152) Note On ch=5 par1=80 par2=95
Channel Event. t= 0 (117152) Note On ch=5 par1=68 par2=95
Channel Event. t= 317 (117469) Note Off ch=5 par1=80 par2=64
Channel Event. t= 38 (117507) Note Off ch=5 par1=68 par2=64
Channel Event. t= 62 (117569) Note Off ch=5 par1=56 par2=64
Channel Event. t= 5 (117574) Note Off ch=5 par1=53 par2=64
Channel Event. t= 5 (117579) Note Off ch=5 par1=61 par2=64
Channel Event. t= 53 (117632) Note On ch=5 par1=79 par2=104
Channel Event. t= 0 (117632) Note On ch=5 par1=67 par2=105
Channel Event. t= 395 (118027) Note Off ch=5 par1=79 par2=64
Channel Event. t= 47 (118074) Note Off ch=5 par1=67 par2=64
Channel Event. t= 25 (118099) Note On ch=5 par1=60 par2=59
Channel Event. t= 8 (118107) Note On ch=5 par1=55 par2=56
Channel Event. t= 0 (118107) Note On ch=5 par1=52 par2=53
Channel Event. t= 5 (118112) Note On ch=5 par1=75 par2=83
Channel Event. t= 0 (118112) Note On ch=5 par1=63 par2=101
Channel Event. t= 222 (118334) Note Off ch=5 par1=63 par2=64
Channel Event. t= 18 (118352) Note On ch=5 par1=76 par2=75
Channel Event. t= 0 (118352) Note On ch=5 par1=64 par2=79
Channel Event. t= 12 (118364) Note Off ch=5 par1=75 par2=64
Channel Event. t= 128 (118492) Note Off ch=5 par1=52 par2=64
Channel Event. t= 10 (118502) Note Off ch=5 par1=55 par2=64
Channel Event. t= 32 (118534) Note Off ch=5 par1=60 par2=64
Channel Event. t= 25 (118559) Note Off ch=5 par1=76 par2=64
Channel Event. t= 33 (118592) Note On ch=5 par1=77 par2=92
Channel Event. t= 0 (118592) Note On ch=5 par1=65 par2=98
Channel Event. t= 40 (118632) Note Off ch=5 par1=64 par2=64
Channel Event. t= 247 (118879) Note Off ch=5 par1=65 par2=64
Channel Event. t= 15 (118894) Note Off ch=5 par1=77 par2=64
Channel Event. t= 153 (119047) Note On ch=5 par1=53 par2=65
Channel Event. t= 2 (119049) Note On ch=5 par1=61 par2=71
Channel Event. t= 3 (119052) Note On ch=5 par1=56 par2=63
Channel Event. t= 20 (119072) Note On ch=5 par1=80 par2=89
Channel Event. t= 0 (119072) Note On ch=5 par1=68 par2=98
Channel Event. t= 257 (119329) Note Off ch=5 par1=80 par2=64
Channel Event. t= 35 (119364) Note Off ch=5 par1=68 par2=64
Channel Event. t= 45 (119409) Note Off ch=5 par1=53 par2=64
Channel Event. t= 23 (119432) Note Off ch=5 par1=56 par2=64
Channel Event. t= 2 (119434) Note Off ch=5 par1=61 par2=64
Channel Event. t= 118 (119552) Note On ch=5 par1=79 par2=110
Channel Event. t= 0 (119552) Note On ch=5 par1=67 par2=99
Channel Event. t= 457 (120009) Note On ch=5 par1=62 par2=66
Channel Event. t= 3 (120012) Note On ch=5 par1=55 par2=64
Channel Event. t= 7 (120019) Note On ch=5 par1=59 par2=69
Channel Event. t= 363 (120382) Note Off ch=5 par1=59 par2=64
Channel Event. t= 2 (120384) Note Off ch=5 par1=55 par2=64
Channel Event. t= 20 (120404) Note Off ch=5 par1=67 par2=64
Channel Event. t= 3 (120407) Note Off ch=5 par1=62 par2=64
Channel Event. t= 22 (120429) Note Off ch=5 par1=79 par2=64
Channel Event. t= 83 (120512) Note On ch=5 par1=72 par2=99
Channel Event. t= 0 (120512) Note On ch=5 par1=60 par2=102
Channel Event. t= 2000 (122512) Note Off ch=5 par1=60 par2=64
Channel Event. t= 35 (122547) Note Off ch=5 par1=72 par2=64
Channel Event. t= 8045 (130592) Note On ch=5 par1=85 par2=81
Channel Event. t= 0 (130592) Note On ch=5 par1=77 par2=60
Channel Event. t= 0 (130592) Note On ch=5 par1=80 par2=70
Channel Event. t= 0 (130592) Note On ch=5 par1=73 par2=63
Channel Event. t= 0 (130592) Note On ch=5 par1=65 par2=40
Channel Event. t= 0 (130592) Note On ch=5 par1=68 par2=53
Channel Event. t= 250 (130842) Note Off ch=5 par1=68 par2=64
Channel Event. t= 2 (130844) Note Off ch=5 par1=65 par2=64
Channel Event. t= 18 (130862) Note Off ch=5 par1=73 par2=64
Channel Event. t= 112 (130974) Note Off ch=5 par1=77 par2=64
Channel Event. t= 13 (130987) Note Off ch=5 par1=80 par2=64
Channel Event. t= 15 (131002) Note Off ch=5 par1=85 par2=64
Channel Event. t= 550 (131552) Note On ch=5 par1=88 par2=72
Channel Event. t= 0 (131552) Note On ch=5 par1=79 par2=56
Channel Event. t= 0 (131552) Note On ch=5 par1=84 par2=66
Channel Event. t= 0 (131552) Note On ch=5 par1=67 par2=50
Channel Event. t= 0 (131552) Note On ch=5 par1=76 par2=61
Channel Event. t= 0 (131552) Note On ch=5 par1=72 par2=56
Channel Event. t= 317 (131869) Note Off ch=5 par1=76 par2=64
Channel Event. t= 5 (131874) Note Off ch=5 par1=72 par2=64
Channel Event. t= 15 (131889) Note Off ch=5 par1=67 par2=64
Channel Event. t= 75 (131964) Note Off ch=5 par1=84 par2=64
Channel Event. t= 8 (131972) Note Off ch=5 par1=79 par2=64
Channel Event. t= 0 (131972) Note Off ch=5 par1=88 par2=64
Channel Event. t= 540 (132512) Note On ch=5 par1=85 par2=70
Channel Event. t= 0 (132512) Note On ch=5 par1=80 par2=64
Channel Event. t= 0 (132512) Note On ch=5 par1=77 par2=52
Channel Event. t= 0 (132512) Note On ch=5 par1=73 par2=73
Channel Event. t= 0 (132512) Note On ch=5 par1=65 par2=56
Channel Event. t= 0 (132512) Note On ch=5 par1=68 par2=63
Channel Event. t= 320 (132832) Note Off ch=5 par1=68 par2=64
Channel Event. t= 10 (132842) Note Off ch=5 par1=65 par2=64
Channel Event. t= 22 (132864) Note Off ch=5 par1=73 par2=64
Channel Event. t= 83 (132947) Note Off ch=5 par1=77 par2=64
Channel Event. t= 7 (132954) Note Off ch=5 par1=80 par2=64
Channel Event. t= 5 (132959) Note Off ch=5 par1=85 par2=64
Channel Event. t= 513 (133472) Note On ch=5 par1=88 par2=62
Channel Event. t= 0 (133472) Note On ch=5 par1=84 par2=63
Channel Event. t= 0 (133472) Note On ch=5 par1=79 par2=49
Channel Event. t= 0 (133472) Note On ch=5 par1=76 par2=61
Channel Event. t= 0 (133472) Note On ch=5 par1=67 par2=45
Channel Event. t= 0 (133472) Note On ch=5 par1=72 par2=59
Channel Event. t= 342 (133814) Note Off ch=5 par1=67 par2=64
Channel Event. t= 5 (133819) Note Off ch=5 par1=72 par2=64
Channel Event. t= 5 (133824) Note Off ch=5 par1=76 par2=64
Channel Event. t= 110 (133934) Note Off ch=5 par1=84 par2=64
Channel Event. t= 5 (133939) Note Off ch=5 par1=88 par2=64
Channel Event. t= 5 (133944) Note Off ch=5 par1=79 par2=64
Channel Event. t= 488 (134432) Note On ch=5 par1=85 par2=75
Channel Event. t= 0 (134432) Note On ch=5 par1=80 par2=65
Channel Event. t= 0 (134432) Note On ch=5 par1=77 par2=55
Channel Event. t= 0 (134432) Note On ch=5 par1=73 par2=75
Channel Event. t= 0 (134432) Note On ch=5 par1=68 par2=67
Channel Event. t= 0 (134432) Note On ch=5 par1=65 par2=53
Channel Event. t= 337 (134769) Note Off ch=5 par1=68 par2=64
Channel Event. t= 3 (134772) Note Off ch=5 par1=65 par2=64
Channel Event. t= 10 (134782) Note Off ch=5 par1=73 par2=64
Channel Event. t= 125 (134907) Note Off ch=5 par1=80 par2=64
Channel Event. t= 2 (134909) Note Off ch=5 par1=85 par2=64
Channel Event. t= 0 (134909) Note Off ch=5 par1=77 par2=64
Channel Event. t= 483 (135392) Note On ch=5 par1=79 par2=53
Channel Event. t= 0 (135392) Note On ch=5 par1=88 par2=63
Channel Event. t= 0 (135392) Note On ch=5 par1=84 par2=61
Channel Event. t= 0 (135392) Note On ch=5 par1=76 par2=63
Channel Event. t= 0 (135392) Note On ch=5 par1=72 par2=63
Channel Event. t= 0 (135392) Note On ch=5 par1=67 par2=55
Channel Event. t= 362 (135754) Note Off ch=5 par1=72 par2=64
Channel Event. t= 0 (135754) Note Off ch=5 par1=76 par2=64
Channel Event. t= 5 (135759) Note Off ch=5 par1=67 par2=64
Channel Event. t= 35 (135794) Note Off ch=5 par1=84 par2=64
Channel Event. t= 25 (135819) Note Off ch=5 par1=79 par2=64
Channel Event. t= 5 (135824) Note Off ch=5 par1=88 par2=64
Channel Event. t= 528 (136352) Note On ch=5 par1=85 par2=79
Channel Event. t= 0 (136352) Note On ch=5 par1=80 par2=68
Channel Event. t= 0 (136352) Note On ch=5 par1=77 par2=54
Channel Event. t= 0 (136352) Note On ch=5 par1=68 par2=75
Channel Event. t= 0 (136352) Note On ch=5 par1=73 par2=77
Channel Event. t= 0 (136352) Note On ch=5 par1=65 par2=67
Channel Event. t= 362 (136714) Note Off ch=5 par1=65 par2=64
Channel Event. t= 10 (136724) Note Off ch=5 par1=68 par2=64
Channel Event. t= 3 (136727) Note Off ch=5 par1=73 par2=64
Channel Event. t= 55 (136782) Note Off ch=5 par1=77 par2=64
Channel Event. t= 0 (136782) Note Off ch=5 par1=80 par2=64
Channel Event. t= 7 (136789) Note Off ch=5 par1=85 par2=64
Channel Event. t= 523 (137312) Note On ch=5 par1=79 par2=49
Channel Event. t= 0 (137312) Note On ch=5 par1=84 par2=58
Channel Event. t= 0 (137312) Note On ch=5 par1=88 par2=61
Channel Event. t= 0 (137312) Note On ch=5 par1=76 par2=75
Channel Event. t= 0 (137312) Note On ch=5 par1=67 par2=65
Channel Event. t= 0 (137312) Note On ch=5 par1=72 par2=75
Channel Event. t= 420 (137732) Note Off ch=5 par1=84 par2=64
Channel Event. t= 2 (137734) Note Off ch=5 par1=72 par2=64
Channel Event. t= 3 (137737) Note Off ch=5 par1=67 par2=64
Channel Event. t= 5 (137742) Note Off ch=5 par1=79 par2=64
Channel Event. t= 0 (137742) Note Off ch=5 par1=88 par2=64
Channel Event. t= 5 (137747) Note Off ch=5 par1=76 par2=64
Channel Event. t= 525 (138272) Note On ch=5 par1=85 par2=70
Channel Event. t= 0 (138272) Note On ch=5 par1=80 par2=60
Channel Event. t= 0 (138272) Note On ch=5 par1=77 par2=51
Channel Event. t= 0 (138272) Note On ch=5 par1=73 par2=86
Channel Event. t= 0 (138272) Note On ch=5 par1=68 par2=79
Channel Event. t= 0 (138272) Note On ch=5 par1=65 par2=73
Channel Event. t= 380 (138652) Note Off ch=5 par1=68 par2=64
Channel Event. t= 2 (138654) Note Off ch=5 par1=65 par2=64
Channel Event. t= 13 (138667) Note Off ch=5 par1=73 par2=64
Channel Event. t= 7 (138674) Note Off ch=5 par1=77 par2=64
Channel Event. t= 5 (138679) Note Off ch=5 par1=80 par2=64
Channel Event. t= 3 (138682) Note Off ch=5 par1=85 par2=64
Channel Event. t= 550 (139232) Note On ch=5 par1=79 par2=55
Channel Event. t= 0 (139232) Note On ch=5 par1=88 par2=70
Channel Event. t= 0 (139232) Note On ch=5 par1=84 par2=66
Channel Event. t= 0 (139232) Note On ch=5 par1=67 par2=69
Channel Event. t= 0 (139232) Note On ch=5 par1=76 par2=74
Channel Event. t= 0 (139232) Note On ch=5 par1=72 par2=74
Channel Event. t= 377 (139609) Note Off ch=5 par1=76 par2=64
Channel Event. t= 5 (139614) Note Off ch=5 par1=72 par2=64
Channel Event. t= 8 (139622) Note Off ch=5 par1=67 par2=64
Channel Event. t= 40 (139662) Note Off ch=5 par1=84 par2=64
Channel Event. t= 7 (139669) Note Off ch=5 par1=88 par2=64
Channel Event. t= 10 (139679) Note Off ch=5 par1=79 par2=64
Channel Event. t= 513 (140192) Note On ch=5 par1=85 par2=79
Channel Event. t= 0 (140192) Note On ch=5 par1=77 par2=63
Channel Event. t= 0 (140192) Note On ch=5 par1=80 par2=72
Channel Event. t= 0 (140192) Note On ch=5 par1=73 par2=82
Channel Event. t= 0 (140192) Note On ch=5 par1=68 par2=78
Channel Event. t= 0 (140192) Note On ch=5 par1=65 par2=67
Channel Event. t= 327 (140519) Note Off ch=5 par1=68 par2=64
Channel Event. t= 8 (140527) Note Off ch=5 par1=73 par2=64
Channel Event. t= 7 (140534) Note Off ch=5 par1=65 par2=64
Channel Event. t= 73 (140607) Note Off ch=5 par1=80 par2=64
Channel Event. t= 0 (140607) Note Off ch=5 par1=77 par2=64
Channel Event. t= 5 (140612) Note Off ch=5 par1=85 par2=64
Channel Event. t= 540 (141152) Note On ch=5 par1=84 par2=72
Channel Event. t= 0 (141152) Note On ch=5 par1=88 par2=69
Channel Event. t= 0 (141152) Note On ch=5 par1=79 par2=57
Channel Event. t= 0 (141152) Note On ch=5 par1=72 par2=77
Channel Event. t= 0 (141152) Note On ch=5 par1=76 par2=80
Channel Event. t= 0 (141152) Note On ch=5 par1=67 par2=71
Channel Event. t= 377 (141529) Note Off ch=5 par1=76 par2=64
Channel Event. t= 8 (141537) Note Off ch=5 par1=72 par2=64
Channel Event. t= 2 (141539) Note Off ch=5 par1=67 par2=64
Channel Event. t= 45 (141584) Note Off ch=5 par1=88 par2=64
Channel Event. t= 3 (141587) Note Off ch=5 par1=84 par2=64
Channel Event. t= 7 (141594) Note Off ch=5 par1=79 par2=64
Channel Event. t= 518 (142112) Note On ch=5 par1=80 par2=72
Channel Event. t= 0 (142112) Note On ch=5 par1=85 par2=80
Channel Event. t= 0 (142112) Note On ch=5 par1=77 par2=58
Channel Event. t= 0 (142112) Note On ch=5 par1=68 par2=81
Channel Event. t= 0 (142112) Note On ch=5 par1=73 par2=87
Channel Event. t= 0 (142112) Note On ch=5 par1=65 par2=70
Channel Event. t= 372 (142484) Note Off ch=5 par1=68 par2=64
Channel Event. t= 5 (142489) Note Off ch=5 par1=73 par2=64
Channel Event. t= 3 (142492) Note Off ch=5 par1=65 par2=64
Channel Event. t= 62 (142554) Note Off ch=5 par1=77 par2=64
Channel Event. t= 0 (142554) Note Off ch=5 par1=85 par2=64
Channel Event. t= 3 (142557) Note Off ch=5 par1=80 par2=64
Channel Event. t= 515 (143072) Note On ch=5 par1=79 par2=53
Channel Event. t= 0 (143072) Note On ch=5 par1=84 par2=67
Channel Event. t= 0 (143072) Note On ch=5 par1=88 par2=66
Channel Event. t= 0 (143072) Note On ch=5 par1=72 par2=79
Channel Event. t= 0 (143072) Note On ch=5 par1=76 par2=80
Channel Event. t= 0 (143072) Note On ch=5 par1=67 par2=70
Channel Event. t= 380 (143452) Note Off ch=5 par1=72 par2=64
Channel Event. t= 2 (143454) Note Off ch=5 par1=76 par2=64
Channel Event. t= 0 (143454) Note Off ch=5 par1=67 par2=64
Channel Event. t= 78 (143532) Note Off ch=5 par1=88 par2=64
Channel Event. t= 0 (143532) Note Off ch=5 par1=84 par2=64
Channel Event. t= 5 (143537) Note Off ch=5 par1=79 par2=64
Channel Event. t= 495 (144032) Note On ch=5 par1=85 par2=79
Channel Event. t= 0 (144032) Note On ch=5 par1=80 par2=75
Channel Event. t= 0 (144032) Note On ch=5 par1=77 par2=62
Channel Event. t= 0 (144032) Note On ch=5 par1=73 par2=88
Channel Event. t= 0 (144032) Note On ch=5 par1=68 par2=80
Channel Event. t= 0 (144032) Note On ch=5 par1=65 par2=73
Channel Event. t= 382 (144414) Note Off ch=5 par1=65 par2=64
Channel Event. t= 0 (144414) Note Off ch=5 par1=68 par2=64
Channel Event. t= 5 (144419) Note Off ch=5 par1=73 par2=64
Channel Event. t= 83 (144502) Note Off ch=5 par1=80 par2=64
Channel Event. t= 2 (144504) Note Off ch=5 par1=85 par2=64
Channel Event. t= 0 (144504) Note Off ch=5 par1=77 par2=64
Channel Event. t= 488 (144992) Note On ch=5 par1=79 par2=56
Channel Event. t= 0 (144992) Note On ch=5 par1=84 par2=71
Channel Event. t= 0 (144992) Note On ch=5 par1=88 par2=72
Channel Event. t= 0 (144992) Note On ch=5 par1=72 par2=81
Channel Event. t= 0 (144992) Note On ch=5 par1=76 par2=81
Channel Event. t= 0 (144992) Note On ch=5 par1=67 par2=72
Channel Event. t= 425 (145417) Note Off ch=5 par1=76 par2=64
Channel Event. t= 2 (145419) Note Off ch=5 par1=72 par2=64
Channel Event. t= 0 (145419) Note Off ch=5 par1=67 par2=64
Channel Event. t= 45 (145464) Note Off ch=5 par1=84 par2=64
Channel Event. t= 15 (145479) Note Off ch=5 par1=79 par2=64
Channel Event. t= 5 (145484) Note Off ch=5 par1=88 par2=64
Channel Event. t= 468 (145952) Note On ch=5 par1=85 par2=82
Channel Event. t= 0 (145952) Note On ch=5 par1=80 par2=73
Channel Event. t= 0 (145952) Note On ch=5 par1=77 par2=63
Channel Event. t= 0 (145952) Note On ch=5 par1=68 par2=81
Channel Event. t= 0 (145952) Note On ch=5 par1=73 par2=88
Channel Event. t= 0 (145952) Note On ch=5 par1=65 par2=74
Channel Event. t= 377 (146329) Note Off ch=5 par1=65 par2=64
Channel Event. t= 5 (146334) Note Off ch=5 par1=68 par2=64
Channel Event. t= 3 (146337) Note Off ch=5 par1=73 par2=64
Channel Event. t= 102 (146439) Note Off ch=5 par1=77 par2=64
Channel Event. t= 3 (146442) Note Off ch=5 par1=80 par2=64
Channel Event. t= 0 (146442) Note Off ch=5 par1=85 par2=64
Channel Event. t= 470 (146912) Note On ch=5 par1=88 par2=73
Channel Event. t= 0 (146912) Note On ch=5 par1=84 par2=69
Channel Event. t= 0 (146912) Note On ch=5 par1=79 par2=58
Channel Event. t= 0 (146912) Note On ch=5 par1=72 par2=74
Channel Event. t= 0 (146912) Note On ch=5 par1=76 par2=75
Channel Event. t= 0 (146912) Note On ch=5 par1=67 par2=65
Channel Event. t= 422 (147334) Note Off ch=5 par1=72 par2=64
Channel Event. t= 3 (147337) Note Off ch=5 par1=67 par2=64
Channel Event. t= 5 (147342) Note Off ch=5 par1=76 par2=64
Channel Event. t= 27 (147369) Note Off ch=5 par1=84 par2=64
Channel Event. t= 5 (147374) Note Off ch=5 par1=88 par2=64
Channel Event. t= 10 (147384) Note Off ch=5 par1=79 par2=64
Channel Event. t= 488 (147872) Note On ch=5 par1=85 par2=80
Channel Event. t= 0 (147872) Note On ch=5 par1=80 par2=73
Channel Event. t= 0 (147872) Note On ch=5 par1=77 par2=58
Channel Event. t= 0 (147872) Note On ch=5 par1=73 par2=86
Channel Event. t= 0 (147872) Note On ch=5 par1=68 par2=81
Channel Event. t= 0 (147872) Note On ch=5 par1=65 par2=71
Channel Event. t= 402 (148274) Note Off ch=5 par1=68 par2=64
Channel Event. t= 3 (148277) Note Off ch=5 par1=73 par2=64
Channel Event. t= 0 (148277) Note Off ch=5 par1=65 par2=64
Channel Event. t= 30 (148307) Note Off ch=5 par1=77 par2=64
Channel Event. t= 12 (148319) Note Off ch=5 par1=80 par2=64
Channel Event. t= 0 (148319) Note Off ch=5 par1=85 par2=64
Channel Event. t= 513 (148832) Note On ch=5 par1=88 par2=71
Channel Event. t= 0 (148832) Note On ch=5 par1=79 par2=61
Channel Event. t= 0 (148832) Note On ch=5 par1=84 par2=71
Channel Event. t= 0 (148832) Note On ch=5 par1=76 par2=81
Channel Event. t= 0 (148832) Note On ch=5 par1=72 par2=81
Channel Event. t= 0 (148832) Note On ch=5 par1=67 par2=72
Channel Event. t= 392 (149224) Note Off ch=5 par1=76 par2=64
Channel Event. t= 8 (149232) Note Off ch=5 par1=72 par2=64
Channel Event. t= 0 (149232) Note Off ch=5 par1=67 par2=64
Channel Event. t= 65 (149297) Note Off ch=5 par1=88 par2=64
Channel Event. t= 5 (149302) Note Off ch=5 par1=84 par2=64
Channel Event. t= 2 (149304) Note Off ch=5 par1=79 par2=64
Channel Event. t= 488 (149792) Note On ch=5 par1=80 par2=80
Channel Event. t= 0 (149792) Note On ch=5 par1=85 par2=86
Channel Event. t= 0 (149792) Note On ch=5 par1=77 par2=64
Channel Event. t= 0 (149792) Note On ch=5 par1=73 par2=87
Channel Event. t= 0 (149792) Note On ch=5 par1=65 par2=69
Channel Event. t= 0 (149792) Note On ch=5 par1=68 par2=81
Channel Event. t= 402 (150194) Note Off ch=5 par1=68 par2=64
Channel Event. t= 0 (150194) Note Off ch=5 par1=73 par2=64
Channel Event. t= 3 (150197) Note Off ch=5 par1=65 par2=64
Channel Event. t= 2 (150199) Note Off ch=5 par1=85 par2=64
Channel Event. t= 3 (150202) Note Off ch=5 par1=77 par2=64
Channel Event. t= 7 (150209) Note Off ch=5 par1=80 par2=64
Channel Event. t= 363 (150572) Controller ch=5 par1=7 (Main Volume) par2=102
Channel Event. t= 180 (150752) Note On ch=5 par1=79 par2=71
Channel Event. t= 0 (150752) Note On ch=5 par1=84 par2=77
Channel Event. t= 0 (150752) Note On ch=5 par1=88 par2=82
Channel Event. t= 0 (150752) Note On ch=5 par1=76 par2=81
Channel Event. t= 0 (150752) Note On ch=5 par1=67 par2=74
Channel Event. t= 0 (150752) Note On ch=5 par1=72 par2=80
Channel Event. t= 195 (150947) Note Off ch=5 par1=76 par2=64
Channel Event. t= 22 (150969) Note Off ch=5 par1=72 par2=64
Channel Event. t= 3 (150972) Note Off ch=5 par1=67 par2=64
Channel Event. t= 140 (151112) Note Off ch=5 par1=84 par2=64
Channel Event. t= 120 (151232) Note Off ch=5 par1=79 par2=64
Channel Event. t= 0 (151232) Note Off ch=5 par1=88 par2=64
Channel Event. t= 0 (151232) Note On ch=5 par1=84 par2=66
Channel Event. t= 0 (151232) Note On ch=5 par1=96 par2=61
Channel Event. t= 0 (151232) Note On ch=5 par1=60 par2=99
Channel Event. t= 0 (151232) Note On ch=5 par1=72 par2=88
Channel Event. t= 487 (151719) Note Off ch=5 par1=60 par2=64
Channel Event. t= 15 (151734) Note Off ch=5 par1=72 par2=64
Channel Event. t= 233 (151967) Note Off ch=5 par1=84 par2=64
Channel Event. t= 7 (151974) Note Off ch=5 par1=96 par2=64
Channel Event. t= 1658 (153632) Note On ch=5 par1=83 par2=89
Channel Event. t= 0 (153632) Note On ch=5 par1=77 par2=82
Channel Event. t= 0 (153632) Note On ch=5 par1=65 par2=91
Channel Event. t= 0 (153632) Note On ch=5 par1=71 par2=90
Channel Event. t= 322 (153954) Note Off ch=5 par1=77 par2=64
Channel Event. t= 3 (153957) Note Off ch=5 par1=83 par2=64
Channel Event. t= 50 (154007) Note Off ch=5 par1=65 par2=64
Channel Event. t= 7 (154014) Note Off ch=5 par1=71 par2=64
Channel Event. t= 98 (154112) Note On ch=5 par1=83 par2=87
Channel Event. t= 0 (154112) Note On ch=5 par1=77 par2=80
Channel Event. t= 0 (154112) Note On ch=5 par1=71 par2=90
Channel Event. t= 0 (154112) Note On ch=5 par1=65 par2=88
Channel Event. t= 320 (154432) Note Off ch=5 par1=77 par2=64
Channel Event. t= 15 (154447) Note Off ch=5 par1=83 par2=64
Channel Event. t= 27 (154474) Note Off ch=5 par1=65 par2=64
Channel Event. t= 8 (154482) Note Off ch=5 par1=71 par2=64
Channel Event. t= 110 (154592) Note On ch=5 par1=83 par2=100
Channel Event. t= 0 (154592) Note On ch=5 par1=77 par2=91
Channel Event. t= 0 (154592) Note On ch=5 par1=71 par2=91
Channel Event. t= 0 (154592) Note On ch=5 par1=65 par2=92
Channel Event. t= 312 (154904) Note Off ch=5 par1=77 par2=64
Channel Event. t= 50 (154954) Note Off ch=5 par1=83 par2=64
Channel Event. t= 118 (155072) Note Off ch=5 par1=71 par2=64
Channel Event. t= 0 (155072) Note Off ch=5 par1=65 par2=64
Channel Event. t= 0 (155072) Note On ch=5 par1=84 par2=103
Channel Event. t= 0 (155072) Note On ch=5 par1=76 par2=96
Channel Event. t= 0 (155072) Note On ch=5 par1=72 par2=92
Channel Event. t= 0 (155072) Note On ch=5 par1=60 par2=79
Channel Event. t= 0 (155072) Note On ch=5 par1=64 par2=92
Channel Event. t= 482 (155554) Note Off ch=5 par1=76 par2=64
Channel Event. t= 13 (155567) Note Off ch=5 par1=84 par2=64
Channel Event. t= 15 (155582) Note Off ch=5 par1=60 par2=64
Channel Event. t= 7 (155589) Note Off ch=5 par1=64 par2=64
Channel Event. t= 10 (155599) Note Off ch=5 par1=72 par2=64
Channel Event. t= 3793 (159392) Note On ch=5 par1=95 par2=100
Channel Event. t= 0 (159392) Note On ch=5 par1=83 par2=91
Channel Event. t= 0 (159392) Note On ch=5 par1=89 par2=96
Channel Event. t= 0 (159392) Note On ch=5 par1=71 par2=83
Channel Event. t= 0 (159392) Note On ch=5 par1=65 par2=81
Channel Event. t= 362 (159754) Note Off ch=5 par1=83 par2=64
Channel Event. t= 23 (159777) Note Off ch=5 par1=95 par2=64
Channel Event. t= 10 (159787) Note Off ch=5 par1=89 par2=64
Channel Event. t= 32 (159819) Note Off ch=5 par1=65 par2=64
Channel Event. t= 13 (159832) Note Off ch=5 par1=71 par2=64
Channel Event. t= 40 (159872) Note On ch=5 par1=95 par2=99
Channel Event. t= 0 (159872) Note On ch=5 par1=83 par2=94
Channel Event. t= 0 (159872) Note On ch=5 par1=89 par2=92
Channel Event. t= 0 (159872) Note On ch=5 par1=65 par2=80
Channel Event. t= 0 (159872) Note On ch=5 par1=71 par2=76
Channel Event. t= 345 (160217) Note Off ch=5 par1=65 par2=64
Channel Event. t= 0 (160217) Note Off ch=5 par1=83 par2=64
Channel Event. t= 12 (160229) Note Off ch=5 par1=95 par2=64
Channel Event. t= 8 (160237) Note Off ch=5 par1=71 par2=64
Channel Event. t= 32 (160269) Note Off ch=5 par1=89 par2=64
Channel Event. t= 83 (160352) Note On ch=5 par1=95 par2=98
Channel Event. t= 0 (160352) Note On ch=5 par1=89 par2=85
Channel Event. t= 0 (160352) Note On ch=5 par1=83 par2=94
Channel Event. t= 0 (160352) Note On ch=5 par1=71 par2=88
Channel Event. t= 0 (160352) Note On ch=5 par1=65 par2=92
Channel Event. t= 280 (160632) Note Off ch=5 par1=83 par2=64
Channel Event. t= 10 (160642) Note Off ch=5 par1=95 par2=64
Channel Event. t= 2 (160644) Note Off ch=5 par1=89 par2=64
Channel Event. t= 120 (160764) Note Off ch=5 par1=71 par2=64
Channel Event. t= 10 (160774) Note Off ch=5 par1=65 par2=64
Channel Event. t= 58 (160832) Note On ch=5 par1=96 par2=95
Channel Event. t= 0 (160832) Note On ch=5 par1=88 par2=98
Channel Event. t= 0 (160832) Note On ch=5 par1=84 par2=89
Channel Event. t= 0 (160832) Note On ch=5 par1=64 par2=99
Channel Event. t= 0 (160832) Note On ch=5 par1=72 par2=100
Channel Event. t= 1920 (162752) Note Off ch=5 par1=72 par2=64
Channel Event. t= 0 (162752) Note Off ch=5 par1=64 par2=64
Channel Event. t= 0 (162752) Note Off ch=5 par1=84 par2=64
Channel Event. t= 0 (162752) Note Off ch=5 par1=88 par2=64
Channel Event. t= 0 (162752) Note Off ch=5 par1=96 par2=64
Channel Event. t= 0 (162752) 
Meta Event. Type: 0x2f (47dec), End of Track (0 bytes): 
track #47
track size: 2250
Channel Event. t= 0 (0) 
Meta Event. Type: 0x3 (3dec), Sequence/Track Name (20 bytes): Strings             
Channel Event. t= 0 (0) 
Meta Event. Type: 0x21 (33dec), MIDI Port (1 bytes): 0
Channel Event. t= 0 (0) 
Meta Event. Type: 0x20 (32dec), MIDI Channel Prefix (1 bytes): 7
Channel Event. t= 0 (0) Controller ch=7 par1=10 (Pan) par2=64
Channel Event. t= 0 (0) Controller ch=7 par1=91 (Effects 2 Depth (formerly Tremolo Depth)) par2=127
Channel Event. t= 0 (0) Program Change ch=7 par1=48 par2=-91
Channel Event. t= 12032 (12032) Controller ch=7 par1=10 (Pan) par2=90
Channel Event. t= 30690 (42722) Controller ch=7 par1=7 (Main Volume) par2=102
Channel Event. t= 30 (42752) Note On ch=7 par1=31 par2=78
Channel Event. t= 0 (42752) Note On ch=7 par1=43 par2=79
Channel Event. t= 2650 (45402) Note Off ch=7 par1=31 par2=64
Channel Event. t= 27 (45429) Note Off ch=7 par1=43 par2=64
Channel Event. t= 228 (45657) Note On ch=7 par1=43 par2=66
Channel Event. t= 7 (45664) Note On ch=7 par1=47 par2=82
Channel Event. t= 3 (45667) Note On ch=7 par1=55 par2=77
Channel Event. t= 260 (45927) Note Off ch=7 par1=55 par2=64
Channel Event. t= 12 (45939) Note Off ch=7 par1=47 par2=64
Channel Event. t= 20 (45959) Note Off ch=7 par1=43 par2=64
Channel Event. t= 163 (46122) Note On ch=7 par1=45 par2=75
Channel Event. t= 0 (46122) Note On ch=7 par1=41 par2=73
Channel Event. t= 0 (46122) Note On ch=7 par1=53 par2=82
Channel Event. t= 275 (46397) Note Off ch=7 par1=53 par2=64
Channel Event. t= 27 (46424) Note Off ch=7 par1=45 par2=64
Channel Event. t= 10 (46434) Note Off ch=7 par1=41 par2=64
Channel Event. t= 158 (46592) Note On ch=7 par1=38 par2=74
Channel Event. t= 0 (46592) Note On ch=7 par1=50 par2=74
Channel Event. t= 2812 (49404) Note Off ch=7 par1=38 par2=64
Channel Event. t= 13 (49417) Note Off ch=7 par1=50 par2=64
Channel Event. t= 70 (49487) Note On ch=7 par1=50 par2=79
Channel Event. t= 0 (49487) Note On ch=7 par1=38 par2=79
Channel Event. t= 2 (49489) Note On ch=7 par1=43 par2=83
Channel Event. t= 280 (49769) Note Off ch=7 par1=38 par2=64
Channel Event. t= 0 (49769) Note Off ch=7 par1=50 par2=64
Channel Event. t= 15 (49784) Note Off ch=7 par1=43 par2=64
Channel Event. t= 173 (49957) Note On ch=7 par1=36 par2=84
Channel Event. t= 2 (49959) Note On ch=7 par1=48 par2=84
Channel Event. t= 0 (49959) Note On ch=7 par1=43 par2=81
Channel Event. t= 250 (50209) Note Off ch=7 par1=36 par2=64
Channel Event. t= 3 (50212) Note Off ch=7 par1=48 par2=64
Channel Event. t= 0 (50212) Note Off ch=7 par1=43 par2=64
Channel Event. t= 235 (50447) Note On ch=7 par1=60 par2=72
Channel Event. t= 730 (51177) Note Off ch=7 par1=60 par2=64
Channel Event. t= 10295 (61472) Note On ch=7 par1=43 par2=75
Channel Event. t= 0 (61472) Note On ch=7 par1=51 par2=85
Channel Event. t= 0 (61472) Note On ch=7 par1=55 par2=75
Channel Event. t= 227 (61699) Note Off ch=7 par1=55 par2=64
Channel Event. t= 28 (61727) Note Off ch=7 par1=51 par2=64
Channel Event. t= 30 (61757) Note Off ch=7 par1=43 par2=64
Channel Event. t= 195 (61952) Note On ch=7 par1=36 par2=67
Channel Event. t= 0 (61952) Note On ch=7 par1=48 par2=76
Channel Event. t= 0 (61952) Note On ch=7 par1=40 par2=72
Channel Event. t= 377 (62329) Note Off ch=7 par1=40 par2=64
Channel Event. t= 18 (62347) Note Off ch=7 par1=36 par2=64
Channel Event. t= 10 (62357) Note Off ch=7 par1=48 par2=64
Channel Event. t= 555 (62912) Note On ch=7 par1=43 par2=69
Channel Event. t= 0 (62912) Note On ch=7 par1=51 par2=80
Channel Event. t= 0 (62912) Note On ch=7 par1=55 par2=77
Channel Event. t= 425 (63337) Note Off ch=7 par1=55 par2=64
Channel Event. t= 5 (63342) Note Off ch=7 par1=51 par2=64
Channel Event. t= 27 (63369) Note Off ch=7 par1=43 par2=64
Channel Event. t= 23 (63392) Note On ch=7 par1=40 par2=44
Channel Event. t= 0 (63392) Note On ch=7 par1=36 par2=58
Channel Event. t= 0 (63392) Note On ch=7 par1=48 par2=63
Channel Event. t= 422 (63814) Note Off ch=7 par1=36 par2=64
Channel Event. t= 3 (63817) Note Off ch=7 par1=40 par2=64
Channel Event. t= 77 (63894) Note Off ch=7 par1=48 par2=64
Channel Event. t= 458 (64352) Note On ch=7 par1=51 par2=84
Channel Event. t= 0 (64352) Note On ch=7 par1=43 par2=69
Channel Event. t= 0 (64352) Note On ch=7 par1=55 par2=74
Channel Event. t= 250 (64602) Note Off ch=7 par1=51 par2=64
Channel Event. t= 12 (64614) Note Off ch=7 par1=55 par2=64
Channel Event. t= 8 (64622) Note Off ch=7 par1=43 par2=64
Channel Event. t= 210 (64832) Note On ch=7 par1=55 par2=73
Channel Event. t= 0 (64832) Note On ch=7 par1=51 par2=86
Channel Event. t= 0 (64832) Note On ch=7 par1=43 par2=73
Channel Event. t= 335 (65167) Note Off ch=7 par1=43 par2=64
Channel Event. t= 15 (65182) Note Off ch=7 par1=55 par2=64
Channel Event. t= 7 (65189) Note Off ch=7 par1=51 par2=64
Channel Event. t= 123 (65312) Note On ch=7 par1=43 par2=82
Channel Event. t= 140 (65452) Note Off ch=7 par1=43 par2=64
Channel Event. t= 100 (65552) Note On ch=7 par1=43 par2=74
Channel Event. t= 130 (65682) Note Off ch=7 par1=43 par2=64
Channel Event. t= 110 (65792) Note On ch=7 par1=43 par2=62
Channel Event. t= 240 (66032) Note On ch=7 par1=44 par2=78
Channel Event. t= 12 (66044) Note Off ch=7 par1=43 par2=64
Channel Event. t= 220 (66264) Note Off ch=7 par1=44 par2=64
Channel Event. t= 8 (66272) Note On ch=7 par1=35 par2=88
Channel Event. t= 450 (66722) Note Off ch=7 par1=35 par2=64
Channel Event. t= 30 (66752) Note On ch=7 par1=43 par2=88
Channel Event. t= 240 (66992) Note On ch=7 par1=41 par2=78
Channel Event. t= 25 (67017) Note Off ch=7 par1=43 par2=64
Channel Event. t= 205 (67222) Note Off ch=7 par1=41 par2=64
Channel Event. t= 10 (67232) Note On ch=7 par1=40 par2=77
Channel Event. t= 225 (67457) Note Off ch=7 par1=40 par2=64
Channel Event. t= 15 (67472) Note On ch=7 par1=38 par2=88
Channel Event. t= 97 (67569) Note Off ch=7 par1=38 par2=64
Channel Event. t= 143 (67712) Note On ch=7 par1=43 par2=84
Channel Event. t= 0 (67712) Note On ch=7 par1=51 par2=91
Channel Event. t= 0 (67712) Note On ch=7 par1=55 par2=80
Channel Event. t= 320 (68032) Note Off ch=7 par1=55 par2=64
Channel Event. t= 17 (68049) Note Off ch=7 par1=51 par2=64
Channel Event. t= 23 (68072) Note Off ch=7 par1=43 par2=64
Channel Event. t= 120 (68192) Note On ch=7 par1=43 par2=95
Channel Event. t= 145 (68337) Note Off ch=7 par1=43 par2=64
Channel Event. t= 95 (68432) Note On ch=7 par1=43 par2=82
Channel Event. t= 147 (68579) Note Off ch=7 par1=43 par2=64
Channel Event. t= 93 (68672) Note On ch=7 par1=43 par2=79
Channel Event. t= 240 (68912) Note On ch=7 par1=44 par2=85
Channel Event. t= 2 (68914) Note Off ch=7 par1=43 par2=64
Channel Event. t= 238 (69152) Note On ch=7 par1=35 par2=94
Channel Event. t= 42 (69194) Note Off ch=7 par1=44 par2=64
Channel Event. t= 318 (69512) Note Off ch=7 par1=35 par2=64
Channel Event. t= 120 (69632) Note On ch=7 par1=43 par2=91
Channel Event. t= 240 (69872) Note On ch=7 par1=41 par2=74
Channel Event. t= 122 (69994) Note Off ch=7 par1=43 par2=64
Channel Event. t= 118 (70112) Note On ch=7 par1=40 par2=82
Channel Event. t= 55 (70167) Note Off ch=7 par1=41 par2=64
Channel Event. t= 185 (70352) Note On ch=7 par1=38 par2=78
Channel Event. t= 35 (70387) Note Off ch=7 par1=40 par2=64
Channel Event. t= 205 (70592) Note Off ch=7 par1=38 par2=64
Channel Event. t= 0 (70592) Note On ch=7 par1=40 par2=89
Channel Event. t= 480 (71072) Note Off ch=7 par1=40 par2=64
Channel Event. t= 0 (71072) Note On ch=7 par1=42 par2=93
Channel Event. t= 462 (71534) Note Off ch=7 par1=42 par2=64
Channel Event. t= 18 (71552) Note On ch=7 par1=43 par2=82
Channel Event. t= 240 (71792) Note On ch=7 par1=39 par2=86
Channel Event. t= 27 (71819) Note Off ch=7 par1=43 par2=64
Channel Event. t= 198 (72017) Note Off ch=7 par1=39 par2=64
Channel Event. t= 15 (72032) Note On ch=7 par1=40 par2=91
Channel Event. t= 217 (72249) Note Off ch=7 par1=40 par2=64
Channel Event. t= 263 (72512) Note On ch=7 par1=41 par2=97
Channel Event. t= 0 (72512) Note On ch=7 par1=53 par2=73
Channel Event. t= 0 (72512) Note On ch=7 par1=55 par2=72
Channel Event. t= 757 (73269) Note Off ch=7 par1=55 par2=64
Channel Event. t= 135 (73404) Note Off ch=7 par1=53 par2=64
Channel Event. t= 68 (73472) Note On ch=7 par1=53 par2=103
Channel Event. t= 42 (73514) Note Off ch=7 par1=41 par2=64
Channel Event. t= 498 (74012) Note Off ch=7 par1=53 par2=64
Channel Event. t= 420 (74432) Note On ch=7 par1=39 par2=94
Channel Event. t= 445 (74877) Note Off ch=7 par1=39 par2=64
Channel Event. t= 35 (74912) Note On ch=7 par1=41 par2=85
Channel Event. t= 480 (75392) Note On ch=7 par1=42 par2=90
Channel Event. t= 145 (75537) Note Off ch=7 par1=41 par2=64
Channel Event. t= 95 (75632) Note Off ch=7 par1=42 par2=64
Channel Event. t= 0 (75632) Note On ch=7 par1=38 par2=99
Channel Event. t= 230 (75862) Note Off ch=7 par1=38 par2=64
Channel Event. t= 10 (75872) Note On ch=7 par1=39 par2=94
Channel Event. t= 247 (76119) Note Off ch=7 par1=39 par2=64
Channel Event. t= 233 (76352) Note On ch=7 par1=42 par2=105
Channel Event. t= 0 (76352) Note On ch=7 par1=52 par2=102
Channel Event. t= 927 (77279) Note Off ch=7 par1=52 par2=64
Channel Event. t= 33 (77312) Note On ch=7 par1=52 par2=95
Channel Event. t= 50 (77362) Note Off ch=7 par1=42 par2=64
Channel Event. t= 492 (77854) Note Off ch=7 par1=52 par2=64
Channel Event. t= 418 (78272) Note On ch=7 par1=38 par2=99
Channel Event. t= 480 (78752) Note On ch=7 par1=40 par2=90
Channel Event. t= 2 (78754) Note Off ch=7 par1=38 par2=64
Channel Event. t= 478 (79232) Note On ch=7 par1=41 par2=86
Channel Event. t= 22 (79254) Note Off ch=7 par1=40 par2=64
Channel Event. t= 218 (79472) Note On ch=7 par1=37 par2=85
Channel Event. t= 52 (79524) Note Off ch=7 par1=41 par2=64
Channel Event. t= 188 (79712) Note On ch=7 par1=38 par2=92
Channel Event. t= 17 (79729) Note Off ch=7 par1=37 par2=64
Channel Event. t= 395 (80124) Note Off ch=7 par1=38 par2=64
Channel Event. t= 548 (80672) Note On ch=7 par1=36 par2=89
Channel Event. t= 0 (80672) Note On ch=7 par1=48 par2=89
Channel Event. t= 322 (80994) Note Off ch=7 par1=48 par2=64
Channel Event. t= 30 (81024) Note Off ch=7 par1=36 par2=64
Channel Event. t= 128 (81152) Note On ch=7 par1=48 par2=86
Channel Event. t= 0 (81152) Note On ch=7 par1=36 par2=87
Channel Event. t= 352 (81504) Note Off ch=7 par1=48 par2=64
Channel Event. t= 15 (81519) Note Off ch=7 par1=36 par2=64
Channel Event. t= 113 (81632) Note On ch=7 par1=36 par2=86
Channel Event. t= 0 (81632) Note On ch=7 par1=48 par2=85
Channel Event. t= 330 (81962) Note Off ch=7 par1=48 par2=64
Channel Event. t= 2 (81964) Note Off ch=7 par1=36 par2=64
Channel Event. t= 148 (82112) Note On ch=7 par1=36 par2=78
Channel Event. t= 0 (82112) Note On ch=7 par1=41 par2=86
Channel Event. t= 3790 (85902) Note Off ch=7 par1=41 par2=64
Channel Event. t= 12 (85914) Note Off ch=7 par1=36 par2=64
Channel Event. t= 38 (85952) Note On ch=7 par1=36 par2=76
Channel Event. t= 0 (85952) Note On ch=7 par1=41 par2=88
Channel Event. t= 1832 (87784) Note Off ch=7 par1=41 par2=64
Channel Event. t= 8 (87792) Note Off ch=7 par1=36 par2=64
Channel Event. t= 80 (87872) Note On ch=7 par1=36 par2=63
Channel Event. t= 0 (87872) Note On ch=7 par1=41 par2=66
Channel Event. t= 1920 (89792) Note On ch=7 par1=31 par2=74
Channel Event. t= 2 (89794) Note Off ch=7 par1=36 par2=64
Channel Event. t= 10 (89804) Note Off ch=7 par1=41 par2=64
Channel Event. t= 943 (90747) Note Off ch=7 par1=31 par2=64
Channel Event. t= 5 (90752) Note On ch=7 par1=26 par2=76
Channel Event. t= 960 (91712) Note On ch=7 par1=36 par2=66
Channel Event. t= 45 (91757) Note Off ch=7 par1=26 par2=64
Channel Event. t= 1840 (93597) Note Off ch=7 par1=36 par2=64
Channel Event. t= 515 (94112) Note On ch=7 par1=36 par2=65
Channel Event. t= 287 (94399) Note Off ch=7 par1=36 par2=64
Channel Event. t= 193 (94592) Note On ch=7 par1=36 par2=60
Channel Event. t= 232 (94824) Note Off ch=7 par1=36 par2=64
Channel Event. t= 248 (95072) Note On ch=7 par1=36 par2=64
Channel Event. t= 320 (95392) Note Off ch=7 par1=36 par2=64
Channel Event. t= 160 (95552) Note On ch=7 par1=37 par2=66
Channel Event. t= 427 (95979) Note Off ch=7 par1=37 par2=64
Channel Event. t= 533 (96512) Note On ch=7 par1=31 par2=66
Channel Event. t= 437 (96949) Note Off ch=7 par1=31 par2=64
Channel Event. t= 523 (97472) Note On ch=7 par1=37 par2=72
Channel Event. t= 467 (97939) Note Off ch=7 par1=37 par2=64
Channel Event. t= 493 (98432) Note On ch=7 par1=31 par2=75
Channel Event. t= 502 (98934) Note Off ch=7 par1=31 par2=64
Channel Event. t= 458 (99392) Note On ch=7 par1=37 par2=72
Channel Event. t= 582 (99974) Note Off ch=7 par1=37 par2=64
Channel Event. t= 378 (100352) Note On ch=7 par1=31 par2=74
Channel Event. t= 505 (100857) Note Off ch=7 par1=31 par2=64
Channel Event. t= 455 (101312) Note On ch=7 par1=37 par2=82
Channel Event. t= 480 (101792) Note Off ch=7 par1=37 par2=64
Channel Event. t= 480 (102272) Note On ch=7 par1=31 par2=82
Channel Event. t= 530 (102802) Note Off ch=7 par1=31 par2=64
Channel Event. t= 430 (103232) Note On ch=7 par1=37 par2=79
Channel Event. t= 480 (103712) Note Off ch=7 par1=37 par2=64
Channel Event. t= 480 (104192) Note On ch=7 par1=31 par2=76
Channel Event. t= 480 (104672) Note Off ch=7 par1=31 par2=64
Channel Event. t= 480 (105152) Note On ch=7 par1=37 par2=79
Channel Event. t= 555 (105707) Note Off ch=7 par1=37 par2=64
Channel Event. t= 405 (106112) Note On ch=7 par1=31 par2=80
Channel Event. t= 550 (106662) Note Off ch=7 par1=31 par2=64
Channel Event. t= 410 (107072) Note On ch=7 par1=37 par2=85
Channel Event. t= 547 (107619) Note Off ch=7 par1=37 par2=64
Channel Event. t= 413 (108032) Note On ch=7 par1=31 par2=81
Channel Event. t= 530 (108562) Note Off ch=7 par1=31 par2=64
Channel Event. t= 430 (108992) Note On ch=7 par1=37 par2=85
Channel Event. t= 647 (109639) Note Off ch=7 par1=37 par2=64
Channel Event. t= 313 (109952) Note On ch=7 par1=31 par2=83
Channel Event. t= 480 (110432) Note Off ch=7 par1=31 par2=64
Channel Event. t= 480 (110912) Note On ch=7 par1=37 par2=84
Channel Event. t= 602 (111514) Note Off ch=7 par1=37 par2=64
Channel Event. t= 358 (111872) Note On ch=7 par1=31 par2=83
Channel Event. t= 480 (112352) Note Off ch=7 par1=31 par2=64
Channel Event. t= 480 (112832) Note On ch=7 par1=37 par2=88
Channel Event. t= 580 (113412) Note Off ch=7 par1=37 par2=64
Channel Event. t= 380 (113792) Note On ch=7 par1=31 par2=86
Channel Event. t= 480 (114272) Note Off ch=7 par1=31 par2=64
Channel Event. t= 480 (114752) Note On ch=7 par1=37 par2=92
Channel Event. t= 530 (115282) Note Off ch=7 par1=37 par2=64
Channel Event. t= 430 (115712) Note On ch=7 par1=31 par2=83
Channel Event. t= 552 (116264) Note Off ch=7 par1=31 par2=64
Channel Event. t= 408 (116672) Note On ch=7 par1=37 par2=83
Channel Event. t= 565 (117237) Note Off ch=7 par1=37 par2=64
Channel Event. t= 395 (117632) Note On ch=7 par1=31 par2=82
Channel Event. t= 532 (118164) Note Off ch=7 par1=31 par2=64
Channel Event. t= 428 (118592) Note On ch=7 par1=37 par2=86
Channel Event. t= 537 (119129) Note Off ch=7 par1=37 par2=64
Channel Event. t= 423 (119552) Note On ch=7 par1=31 par2=80
Channel Event. t= 482 (120034) Note Off ch=7 par1=31 par2=64
Channel Event. t= 958 (120992) Note On ch=7 par1=40 par2=94
Channel Event. t= 0 (120992) Note On ch=7 par1=28 par2=91
Channel Event. t= 1440 (122432) Note On ch=7 par1=60 par2=99
Channel Event. t= 0 (122432) Note On ch=7 par1=48 par2=99
Channel Event. t= 240 (122672) Controller ch=7 par1=7 (Main Volume) par2=102
Channel Event. t= 120 (122792) Note Off ch=7 par1=40 par2=64
Channel Event. t= 0 (122792) Note On ch=7 par1=40 par2=73
Channel Event. t= 0 (122792) Note On ch=7 par1=52 par2=69
Channel Event. t= 27 (122819) Note Off ch=7 par1=60 par2=64
Channel Event. t= 5 (122824) Note Off ch=7 par1=48 par2=64
Channel Event. t= 53 (122877) Note Off ch=7 par1=52 par2=64
Channel Event. t= 5 (122882) Note Off ch=7 par1=40 par2=64
Channel Event. t= 30 (122912) Note Off ch=7 par1=28 par2=64
Channel Event. t= 0 (122912) Note On ch=7 par1=40 par2=89
Channel Event. t= 0 (122912) Note On ch=7 par1=52 par2=96
Channel Event. t= 190 (123102) Note Off ch=7 par1=40 par2=64
Channel Event. t= 2 (123104) Note Off ch=7 par1=52 par2=64
Channel Event. t= 48 (123152) Note On ch=7 par1=48 par2=80
Channel Event. t= 0 (123152) Note On ch=7 par1=60 par2=82
Channel Event. t= 57 (123209) Note Off ch=7 par1=60 par2=64
Channel Event. t= 0 (123209) Note Off ch=7 par1=48 par2=64
Channel Event. t= 43 (123252) Note On ch=7 par1=60 par2=84
Channel Event. t= 5 (123257) Note On ch=7 par1=48 par2=85
Channel Event. t= 40 (123297) Note Off ch=7 par1=48 par2=64
Channel Event. t= 2 (123299) Note Off ch=7 par1=60 par2=64
Channel Event. t= 33 (123332) Note On ch=7 par1=48 par2=81
Channel Event. t= 0 (123332) Note On ch=7 par1=60 par2=80
Channel Event. t= 60 (123392) Note Off ch=7 par1=60 par2=64
Channel Event. t= 0 (123392) Note Off ch=7 par1=48 par2=64
Channel Event. t= 0 (123392) Note On ch=7 par1=48 par2=104
Channel Event. t= 0 (123392) Note On ch=7 par1=60 par2=87
Channel Event. t= 2 (123394) Note Off ch=7 par1=60 par2=64
Channel Event. t= 0 (123394) Note Off ch=7 par1=48 par2=64
Channel Event. t= 238 (123632) Note On ch=7 par1=40 par2=94
Channel Event. t= 0 (123632) Note On ch=7 par1=52 par2=91
Channel Event. t= 240 (123872) Note Off ch=7 par1=52 par2=64
Channel Event. t= 0 (123872) Note Off ch=7 par1=40 par2=64
Channel Event. t= 0 (123872) Note On ch=7 par1=60 par2=95
Channel Event. t= 0 (123872) Note On ch=7 par1=48 par2=93
Channel Event. t= 240 (124112) Note Off ch=7 par1=48 par2=64
Channel Event. t= 0 (124112) Note Off ch=7 par1=60 par2=64
Channel Event. t= 0 (124112) Note On ch=7 par1=40 par2=90
Channel Event. t= 0 (124112) Note On ch=7 par1=52 par2=86
Channel Event. t= 240 (124352) Note Off ch=7 par1=52 par2=64
Channel Event. t= 0 (124352) Note Off ch=7 par1=40 par2=64
Channel Event. t= 0 (124352) Note On ch=7 par1=48 par2=105
Channel Event. t= 0 (124352) Note On ch=7 par1=60 par2=106
Channel Event. t= 340 (124692) Note Off ch=7 par1=60 par2=64
Channel Event. t= 7 (124699) Note Off ch=7 par1=48 par2=64
Channel Event. t= 13 (124712) Note On ch=7 par1=52 par2=95
Channel Event. t= 0 (124712) Note On ch=7 par1=40 par2=94
Channel Event. t= 67 (124779) Note Off ch=7 par1=52 par2=64
Channel Event. t= 3 (124782) Note Off ch=7 par1=40 par2=64
Channel Event. t= 50 (124832) Note On ch=7 par1=52 par2=103
Channel Event. t= 0 (124832) Note On ch=7 par1=40 par2=99
Channel Event. t= 185 (125017) Note Off ch=7 par1=52 par2=64
Channel Event. t= 25 (125042) Note Off ch=7 par1=40 par2=64
Channel Event. t= 30 (125072) Note On ch=7 par1=48 par2=91
Channel Event. t= 0 (125072) Note On ch=7 par1=60 par2=96
Channel Event. t= 52 (125124) Note Off ch=7 par1=60 par2=64
Channel Event. t= 0 (125124) Note Off ch=7 par1=48 par2=64
Channel Event. t= 38 (125162) Note On ch=7 par1=60 par2=85
Channel Event. t= 7 (125169) Note On ch=7 par1=48 par2=78
Channel Event. t= 38 (125207) Note Off ch=7 par1=60 par2=64
Channel Event. t= 12 (125219) Note Off ch=7 par1=48 par2=64
Channel Event. t= 33 (125252) Note On ch=7 par1=60 par2=79
Channel Event. t= 0 (125252) Note On ch=7 par1=48 par2=79
Channel Event. t= 60 (125312) Note Off ch=7 par1=48 par2=64
Channel Event. t= 0 (125312) Note Off ch=7 par1=60 par2=64
Channel Event. t= 0 (125312) Note On ch=7 par1=48 par2=97
Channel Event. t= 0 (125312) Note On ch=7 par1=60 par2=89
Channel Event. t= 2 (125314) Note Off ch=7 par1=60 par2=64
Channel Event. t= 0 (125314) Note Off ch=7 par1=48 par2=64
Channel Event. t= 238 (125552) Note On ch=7 par1=40 par2=96
Channel Event. t= 0 (125552) Note On ch=7 par1=52 par2=96
Channel Event. t= 240 (125792) Note Off ch=7 par1=52 par2=64
Channel Event. t= 0 (125792) Note Off ch=7 par1=40 par2=64
Channel Event. t= 0 (125792) Note On ch=7 par1=60 par2=99
Channel Event. t= 0 (125792) Note On ch=7 par1=48 par2=97
Channel Event. t= 240 (126032) Note Off ch=7 par1=48 par2=64
Channel Event. t= 0 (126032) Note Off ch=7 par1=60 par2=64
Channel Event. t= 0 (126032) Note On ch=7 par1=40 par2=94
Channel Event. t= 0 (126032) Note On ch=7 par1=52 par2=89
Channel Event. t= 240 (126272) Note Off ch=7 par1=52 par2=64
Channel Event. t= 0 (126272) Note Off ch=7 par1=40 par2=64
Channel Event. t= 0 (126272) Note On ch=7 par1=48 par2=99
Channel Event. t= 0 (126272) Note On ch=7 par1=36 par2=110
Channel Event. t= 1920 (128192) Note Off ch=7 par1=36 par2=64
Channel Event. t= 10 (128202) Note Off ch=7 par1=48 par2=64
Channel Event. t= 110 (128312) Controller ch=7 par1=7 (Main Volume) par2=80
Channel Event. t= 360 (128672) Note On ch=7 par1=48 par2=54
Channel Event. t= 0 (128672) Note On ch=7 par1=36 par2=69
Channel Event. t= 205 (128877) Note Off ch=7 par1=48 par2=64
Channel Event. t= 30 (128907) Note Off ch=7 par1=36 par2=64
Channel Event. t= 245 (129152) Note On ch=7 par1=48 par2=54
Channel Event. t= 0 (129152) Note On ch=7 par1=36 par2=65
Channel Event. t= 205 (129357) Note Off ch=7 par1=48 par2=64
Channel Event. t= 47 (129404) Note Off ch=7 par1=36 par2=64
Channel Event. t= 228 (129632) Note On ch=7 par1=48 par2=67
Channel Event. t= 0 (129632) Note On ch=7 par1=36 par2=67
Channel Event. t= 127 (129759) Note Off ch=7 par1=48 par2=64
Channel Event. t= 63 (129822) Note Off ch=7 par1=36 par2=64
Channel Event. t= 290 (130112) Note On ch=7 par1=37 par2=81
Channel Event. t= 0 (130112) Note On ch=7 par1=25 par2=85
Channel Event. t= 545 (130657) Note Off ch=7 par1=25 par2=64
Channel Event. t= 37 (130694) Note Off ch=7 par1=37 par2=64
Channel Event. t= 378 (131072) Note On ch=7 par1=31 par2=78
Channel Event. t= 470 (131542) Note Off ch=7 par1=31 par2=64
Channel Event. t= 490 (132032) Note On ch=7 par1=37 par2=86
Channel Event. t= 540 (132572) Note Off ch=7 par1=37 par2=64
Channel Event. t= 420 (132992) Note On ch=7 par1=31 par2=78
Channel Event. t= 572 (133564) Note Off ch=7 par1=31 par2=64
Channel Event. t= 388 (133952) Note On ch=7 par1=37 par2=85
Channel Event. t= 547 (134499) Note Off ch=7 par1=37 par2=64
Channel Event. t= 413 (134912) Note On ch=7 par1=31 par2=78
Channel Event. t= 525 (135437) Note Off ch=7 par1=31 par2=64
Channel Event. t= 435 (135872) Note On ch=7 par1=37 par2=82
Channel Event. t= 525 (136397) Note Off ch=7 par1=37 par2=64
Channel Event. t= 435 (136832) Note On ch=7 par1=31 par2=74
Channel Event. t= 572 (137404) Note Off ch=7 par1=31 par2=64
Channel Event. t= 388 (137792) Note On ch=7 par1=37 par2=83
Channel Event. t= 560 (138352) Note Off ch=7 par1=37 par2=64
Channel Event. t= 400 (138752) Note On ch=7 par1=31 par2=73
Channel Event. t= 505 (139257) Note Off ch=7 par1=31 par2=64
Channel Event. t= 455 (139712) Note On ch=7 par1=37 par2=84
Channel Event. t= 475 (140187) Note Off ch=7 par1=37 par2=64
Channel Event. t= 485 (140672) Note On ch=7 par1=31 par2=80
Channel Event. t= 532 (141204) Note Off ch=7 par1=31 par2=64
Channel Event. t= 428 (141632) Note On ch=7 par1=37 par2=82
Channel Event. t= 537 (142169) Note Off ch=7 par1=37 par2=64
Channel Event. t= 423 (142592) Note On ch=7 par1=31 par2=83
Channel Event. t= 572 (143164) Note Off ch=7 par1=31 par2=64
Channel Event. t= 388 (143552) Note On ch=7 par1=37 par2=80
Channel Event. t= 530 (144082) Note Off ch=7 par1=37 par2=64
Channel Event. t= 430 (144512) Note On ch=7 par1=31 par2=75
Channel Event. t= 587 (145099) Note Off ch=7 par1=31 par2=64
Channel Event. t= 373 (145472) Note On ch=7 par1=37 par2=82
Channel Event. t= 520 (145992) Note Off ch=7 par1=37 par2=64
Channel Event. t= 440 (146432) Note On ch=7 par1=31 par2=74
Channel Event. t= 542 (146974) Note Off ch=7 par1=31 par2=64
Channel Event. t= 418 (147392) Note On ch=7 par1=37 par2=76
Channel Event. t= 630 (148022) Note Off ch=7 par1=37 par2=64
Channel Event. t= 330 (148352) Note On ch=7 par1=31 par2=79
Channel Event. t= 552 (148904) Note Off ch=7 par1=31 par2=64
Channel Event. t= 408 (149312) Note On ch=7 par1=37 par2=81
Channel Event. t= 580 (149892) Note Off ch=7 par1=37 par2=64
Channel Event. t= 380 (150272) Note On ch=7 par1=31 par2=79
Channel Event. t= 617 (150889) Note Off ch=7 par1=31 par2=64
Channel Event. t= 343 (151232) Note On ch=7 par1=48 par2=103
Channel Event. t= 0 (151232) Note On ch=7 par1=36 par2=83
Channel Event. t= 480 (151712) Note Off ch=7 par1=48 par2=64
Channel Event. t= 0 (151712) Note On ch=7 par1=31 par2=79
Channel Event. t= 0 (151712) Note On ch=7 par1=43 par2=74
Channel Event. t= 7 (151719) Note Off ch=7 par1=36 par2=64
Channel Event. t= 1413 (153132) Note Off ch=7 par1=43 par2=64
Channel Event. t= 5 (153137) Note Off ch=7 par1=31 par2=64
Channel Event. t= 15 (153152) Note On ch=7 par1=43 par2=78
Channel Event. t= 0 (153152) Note On ch=7 par1=31 par2=77
Channel Event. t= 1860 (155012) Note Off ch=7 par1=31 par2=64
Channel Event. t= 0 (155012) Note Off ch=7 par1=43 par2=64
Channel Event. t= 60 (155072) Note On ch=7 par1=60 par2=102
Channel Event. t= 0 (155072) Note On ch=7 par1=48 par2=96
Channel Event. t= 0 (155072) Controller ch=7 par1=7 (Main Volume) par2=102
Channel Event. t= 222 (155294) Note Off ch=7 par1=60 par2=64
Channel Event. t= 3 (155297) Note Off ch=7 par1=48 par2=64
Channel Event. t= 135 (155432) Note On ch=7 par1=40 par2=88
Channel Event. t= 0 (155432) Note On ch=7 par1=52 par2=88
Channel Event. t= 70 (155502) Note Off ch=7 par1=52 par2=64
Channel Event. t= 7 (155509) Note Off ch=7 par1=40 par2=64
Channel Event. t= 43 (155552) Note On ch=7 par1=52 par2=96
Channel Event. t= 0 (155552) Note On ch=7 par1=40 par2=94
Channel Event. t= 120 (155672) Note Off ch=7 par1=40 par2=64
Channel Event. t= 2 (155674) Note Off ch=7 par1=52 par2=64
Channel Event. t= 118 (155792) Note On ch=7 par1=48 par2=86
Channel Event. t= 0 (155792) Note On ch=7 par1=60 par2=94
Channel Event. t= 50 (155842) Note Off ch=7 par1=60 par2=64
Channel Event. t= 5 (155847) Note Off ch=7 par1=48 par2=64
Channel Event. t= 35 (155882) Note On ch=7 par1=60 par2=99
Channel Event. t= 10 (155892) Note On ch=7 par1=48 par2=84
Channel Event. t= 37 (155929) Note Off ch=7 par1=60 par2=64
Channel Event. t= 8 (155937) Note Off ch=7 par1=48 par2=64
Channel Event. t= 35 (155972) Note On ch=7 par1=48 par2=89
Channel Event. t= 0 (155972) Note On ch=7 par1=60 par2=91
Channel Event. t= 60 (156032) Note Off ch=7 par1=60 par2=64
Channel Event. t= 0 (156032) Note Off ch=7 par1=48 par2=64
Channel Event. t= 0 (156032) Note On ch=7 par1=48 par2=97
Channel Event. t= 0 (156032) Note On ch=7 par1=60 par2=98
Channel Event. t= 2 (156034) Note Off ch=7 par1=60 par2=64
Channel Event. t= 0 (156034) Note Off ch=7 par1=48 par2=64
Channel Event. t= 238 (156272) Note On ch=7 par1=40 par2=93
Channel Event. t= 0 (156272) Note On ch=7 par1=52 par2=91
Channel Event. t= 240 (156512) Note Off ch=7 par1=52 par2=64
Channel Event. t= 0 (156512) Note Off ch=7 par1=40 par2=64
Channel Event. t= 0 (156512) Note On ch=7 par1=60 par2=102
Channel Event. t= 0 (156512) Note On ch=7 par1=48 par2=97
Channel Event. t= 180 (156692) Note Off ch=7 par1=48 par2=64
Channel Event. t= 0 (156692) Note Off ch=7 par1=60 par2=64
Channel Event. t= 60 (156752) Note On ch=7 par1=48 par2=93
Channel Event. t= 0 (156752) Note On ch=7 par1=60 par2=98
Channel Event. t= 180 (156932) Note Off ch=7 par1=60 par2=64
Channel Event. t= 0 (156932) Note Off ch=7 par1=48 par2=64
Channel Event. t= 60 (156992) Note On ch=7 par1=60 par2=100
Channel Event. t= 0 (156992) Note On ch=7 par1=48 par2=97
Channel Event. t= 85 (157077) Note Off ch=7 par1=48 par2=64
Channel Event. t= 0 (157077) Note Off ch=7 par1=60 par2=64
Channel Event. t= 35 (157112) Note On ch=7 par1=60 par2=89
Channel Event. t= 0 (157112) Note On ch=7 par1=48 par2=89
Channel Event. t= 70 (157182) Note Off ch=7 par1=60 par2=64
Channel Event. t= 2 (157184) Note Off ch=7 par1=48 par2=64
Channel Event. t= 48 (157232) Note On ch=7 par1=60 par2=98
Channel Event. t= 0 (157232) Note On ch=7 par1=48 par2=90
Channel Event. t= 67 (157299) Note Off ch=7 par1=60 par2=64
Channel Event. t= 5 (157304) Note Off ch=7 par1=48 par2=64
Channel Event. t= 48 (157352) Note On ch=7 par1=60 par2=88
Channel Event. t= 0 (157352) Note On ch=7 par1=48 par2=87
Channel Event. t= 112 (157464) Note Off ch=7 par1=60 par2=64
Channel Event. t= 8 (157472) Note On ch=7 par1=40 par2=95
Channel Event. t= 0 (157472) Note On ch=7 par1=52 par2=97
Channel Event. t= 15 (157487) Note Off ch=7 par1=48 par2=64
Channel Event. t= 465 (157952) Note Off ch=7 par1=40 par2=64
Channel Event. t= 0 (157952) Note Off ch=7 par1=52 par2=64
Channel Event. t= 0 (157952) Note On ch=7 par1=60 par2=102
Channel Event. t= 0 (157952) Note On ch=7 par1=48 par2=99
Channel Event. t= 480 (158432) Note Off ch=7 par1=48 par2=64
Channel Event. t= 0 (158432) Note Off ch=7 par1=60 par2=64
Channel Event. t= 0 (158432) Note On ch=7 par1=40 par2=98
Channel Event. t= 0 (158432) Note On ch=7 par1=52 par2=97
Channel Event. t= 480 (158912) Note Off ch=7 par1=52 par2=64
Channel Event. t= 0 (158912) Note Off ch=7 par1=40 par2=64
Channel Event. t= 0 (158912) Note On ch=7 par1=43 par2=85
Channel Event. t= 0 (158912) Note On ch=7 par1=31 par2=88
Channel Event. t= 480 (159392) Note On ch=7 par1=59 par2=79
Channel Event. t= 0 (159392) Note On ch=7 par1=55 par2=71
Channel Event. t= 480 (159872) Note Off ch=7 par1=55 par2=64
Channel Event. t= 0 (159872) Note Off ch=7 par1=59 par2=64
Channel Event. t= 0 (159872) Note On ch=7 par1=55 par2=83
Channel Event. t= 0 (159872) Note On ch=7 par1=59 par2=80
Channel Event. t= 2 (159874) Note Off ch=7 par1=59 par2=64
Channel Event. t= 0 (159874) Note Off ch=7 par1=55 par2=64
Channel Event. t= 478 (160352) Note On ch=7 par1=59 par2=93
Channel Event. t= 0 (160352) Note On ch=7 par1=55 par2=91
Channel Event. t= 480 (160832) Note Off ch=7 par1=55 par2=64
Channel Event. t= 0 (160832) Note Off ch=7 par1=59 par2=64
Channel Event. t= 0 (160832) Note On ch=7 par1=48 par2=104
Channel Event. t= 0 (160832) Note On ch=7 par1=36 par2=106
Channel Event. t= 50 (160882) Note Off ch=7 par1=31 par2=64
Channel Event. t= 10 (160892) Note Off ch=7 par1=43 par2=64
Channel Event. t= 1860 (162752) Note Off ch=7 par1=48 par2=64
Channel Event. t= 0 (162752) Note Off ch=7 par1=36 par2=64
Channel Event. t= 0 (162752) 
Meta Event. Type: 0x2f (47dec), End of Track (0 bytes): 
track #48
track size: 33
Channel Event. t= 0 (0) 
Meta Event. Type: 0x3 (3dec), Sequence/Track Name (20 bytes):                     
Channel Event. t= 0 (0) 
Meta Event. Type: 0x21 (33dec), MIDI Port (1 bytes): 0
Channel Event. t= 0 (0) 
Meta Event. Type: 0x2f (47dec), End of Track (0 bytes): 
track #49
track size: 33
Channel Event. t= 0 (0) 
Meta Event. Type: 0x3 (3dec), Sequence/Track Name (20 bytes):      PART SIX       
Channel Event. t= 0 (0) 
Meta Event. Type: 0x21 (33dec), MIDI Port (1 bytes): 0
Channel Event. t= 0 (0) 
Meta Event. Type: 0x2f (47dec), End of Track (0 bytes): 
track #50
track size: 33
Channel Event. t= 0 (0) 
Meta Event. Type: 0x3 (3dec), Sequence/Track Name (20 bytes): THE PARADE HOME     
Channel Event. t= 0 (0) 
Meta Event. Type: 0x21 (33dec), MIDI Port (1 bytes): 0
Channel Event. t= 0 (0) 
Meta Event. Type: 0x2f (47dec), End of Track (0 bytes): 
track #51
track size: 33
Channel Event. t= 0 (0) 
Meta Event. Type: 0x3 (3dec), Sequence/Track Name (20 bytes):                     
Channel Event. t= 0 (0) 
Meta Event. Type: 0x21 (33dec), MIDI Port (1 bytes): 0
Channel Event. t= 0 (0) 
Meta Event. Type: 0x2f (47dec), End of Track (0 bytes): 
track #52
track size: 12920
Channel Event. t= 0 (0) 
Meta Event. Type: 0x3 (3dec), Sequence/Track Name (20 bytes): Strings             
Channel Event. t= 0 (0) 
Meta Event. Type: 0x21 (33dec), MIDI Port (1 bytes): 0
Channel Event. t= 0 (0) 
Meta Event. Type: 0x20 (32dec), MIDI Channel Prefix (1 bytes): 5
Channel Event. t= 0 (0) Controller ch=5 par1=10 (Pan) par2=64
Channel Event. t= 0 (0) Controller ch=5 par1=91 (Effects 2 Depth (formerly Tremolo Depth)) par2=127
Channel Event. t= 0 (0) Program Change ch=5 par1=48 par2=-81
Channel Event. t= 4252 (4252) Controller ch=5 par1=10 (Pan) par2=60
Channel Event. t= 1350 (5602) Controller ch=5 par1=7 (Main Volume) par2=70
Channel Event. t= 30 (5632) Note On ch=5 par1=43 par2=44
Channel Event. t= 0 (5632) Note On ch=5 par1=36 par2=40
Channel Event. t= 155 (5787) Note Off ch=5 par1=43 par2=64
Channel Event. t= 12 (5799) Note Off ch=5 par1=36 par2=64
Channel Event. t= 223 (6022) Note On ch=5 par1=60 par2=51
Channel Event. t= 30 (6052) Note On ch=5 par1=64 par2=67
Channel Event. t= 30 (6082) Note On ch=5 par1=67 par2=54
Channel Event. t= 30 (6112) Note On ch=5 par1=52 par2=60
Channel Event. t= 0 (6112) Note On ch=5 par1=43 par2=46
Channel Event. t= 0 (6112) Note On ch=5 par1=72 par2=59
Channel Event. t= 25 (6137) Note Off ch=5 par1=60 par2=64
Channel Event. t= 30 (6167) Note Off ch=5 par1=64 par2=64
Channel Event. t= 17 (6184) Note Off ch=5 par1=67 par2=64
Channel Event. t= 3 (6187) Note Off ch=5 par1=72 par2=64
Channel Event. t= 92 (6279) Note Off ch=5 par1=43 par2=64
Channel Event. t= 33 (6312) Note Off ch=5 par1=52 par2=64
Channel Event. t= 190 (6502) Note On ch=5 par1=71 par2=64
Channel Event. t= 30 (6532) Note On ch=5 par1=75 par2=64
Channel Event. t= 30 (6562) Note On ch=5 par1=78 par2=52
Channel Event. t= 20 (6582) Note Off ch=5 par1=71 par2=64
Channel Event. t= 10 (6592) Note On ch=5 par1=47 par2=45
Channel Event. t= 0 (6592) Note On ch=5 par1=39 par2=62
Channel Event. t= 0 (6592) Note On ch=5 par1=83 par2=78
Channel Event. t= 15 (6607) Note Off ch=5 par1=78 par2=64
Channel Event. t= 5 (6612) Note Off ch=5 par1=75 par2=64
Channel Event. t= 75 (6687) Note Off ch=5 par1=83 par2=64
Channel Event. t= 115 (6802) Note Off ch=5 par1=39 par2=64
Channel Event. t= 15 (6817) Note Off ch=5 par1=47 par2=64
Channel Event. t= 165 (6982) Note On ch=5 par1=66 par2=80
Channel Event. t= 30 (7012) Note On ch=5 par1=71 par2=59
Channel Event. t= 30 (7042) Note On ch=5 par1=75 par2=71
Channel Event. t= 30 (7072) Note On ch=5 par1=55 par2=42
Channel Event. t= 0 (7072) Note On ch=5 par1=63 par2=44
Channel Event. t= 0 (7072) Note On ch=5 par1=78 par2=80
Channel Event. t= 40 (7112) Note Off ch=5 par1=71 par2=64
Channel Event. t= 22 (7134) Note Off ch=5 par1=66 par2=64
Channel Event. t= 3 (7137) Note Off ch=5 par1=75 par2=64
Channel Event. t= 37 (7174) Note Off ch=5 par1=78 par2=64
Channel Event. t= 95 (7269) Note Off ch=5 par1=55 par2=64
Channel Event. t= 5 (7274) Note Off ch=5 par1=63 par2=64
Channel Event. t= 193 (7467) Note On ch=5 par1=79 par2=64
Channel Event. t= 32 (7499) Note On ch=5 par1=84 par2=56
Channel Event. t= 25 (7524) Note On ch=5 par1=88 par2=41
Channel Event. t= 23 (7547) Note Off ch=5 par1=79 par2=64
Channel Event. t= 5 (7552) Note On ch=5 par1=55 par2=41
Channel Event. t= 0 (7552) Note On ch=5 par1=48 par2=27
Channel Event. t= 0 (7552) Note On ch=5 par1=91 par2=76
Channel Event. t= 17 (7569) Note Off ch=5 par1=84 par2=64
Channel Event. t= 18 (7587) Note Off ch=5 par1=88 par2=64
Channel Event. t= 32 (7619) Note Off ch=5 par1=91 par2=64
Channel Event. t= 125 (7744) Note Off ch=5 par1=48 par2=64
Channel Event. t= 10 (7754) Note Off ch=5 par1=55 par2=64
Channel Event. t= 213 (7967) Note On ch=5 par1=72 par2=58
Channel Event. t= 32 (7999) Note On ch=5 par1=76 par2=63
Channel Event. t= 30 (8029) Note On ch=5 par1=79 par2=73
Channel Event. t= 3 (8032) Note On ch=5 par1=64 par2=40
Channel Event. t= 0 (8032) Note On ch=5 par1=55 par2=38
Channel Event. t= 0 (8032) Note On ch=5 par1=84 par2=64
Channel Event. t= 45 (8077) Note Off ch=5 par1=72 par2=64
Channel Event. t= 27 (8104) Note Off ch=5 par1=76 par2=64
Channel Event. t= 8 (8112) Note Off ch=5 par1=84 par2=64
Channel Event. t= 25 (8137) Note Off ch=5 par1=79 par2=64
Channel Event. t= 65 (8202) Note Off ch=5 par1=55 par2=64
Channel Event. t= 12 (8214) Note Off ch=5 par1=64 par2=64
Channel Event. t= 178 (8392) Note On ch=5 par1=71 par2=61
Channel Event. t= 30 (8422) Note On ch=5 par1=75 par2=74
Channel Event. t= 30 (8452) Note On ch=5 par1=66 par2=64
Channel Event. t= 27 (8479) Note Off ch=5 par1=71 par2=64
Channel Event. t= 3 (8482) Note On ch=5 par1=78 par2=75
Channel Event. t= 30 (8512) Note Off ch=5 par1=75 par2=64
Channel Event. t= 0 (8512) Note On ch=5 par1=59 par2=32
Channel Event. t= 0 (8512) Note On ch=5 par1=51 par2=46
Channel Event. t= 0 (8512) Note On ch=5 par1=83 par2=70
Channel Event. t= 55 (8567) Note Off ch=5 par1=78 par2=64
Channel Event. t= 15 (8582) Note Off ch=5 par1=66 par2=64
Channel Event. t= 7 (8589) Note Off ch=5 par1=83 par2=64
Channel Event. t= 118 (8707) Note Off ch=5 par1=51 par2=64
Channel Event. t= 15 (8722) Note Off ch=5 par1=59 par2=64
Channel Event. t= 150 (8872) Note On ch=5 par1=66 par2=64
Channel Event. t= 30 (8902) Note On ch=5 par1=71 par2=64
Channel Event. t= 50 (8952) Note Off ch=5 par1=66 par2=64
Channel Event. t= 10 (8962) Note On ch=5 par1=75 par2=64
Channel Event. t= 20 (8982) Note Off ch=5 par1=71 par2=64
Channel Event. t= 10 (8992) Note On ch=5 par1=55 par2=34
Channel Event. t= 0 (8992) Note On ch=5 par1=63 par2=52
Channel Event. t= 27 (9019) Note On ch=5 par1=78 par2=64
Channel Event. t= 23 (9042) Note Off ch=5 par1=75 par2=64
Channel Event. t= 57 (9099) Note Off ch=5 par1=78 par2=64
Channel Event. t= 73 (9172) Note Off ch=5 par1=55 par2=64
Channel Event. t= 0 (9172) Note Off ch=5 par1=63 par2=64
Channel Event. t= 270 (9442) Note On ch=5 par1=67 par2=54
Channel Event. t= 30 (9472) Note On ch=5 par1=55 par2=27
Channel Event. t= 0 (9472) Note On ch=5 par1=48 par2=41
Channel Event. t= 0 (9472) Note On ch=5 par1=72 par2=61
Channel Event. t= 30 (9502) Note On ch=5 par1=76 par2=68
Channel Event. t= 0 (9502) Note On ch=5 par1=79 par2=75
Channel Event. t= 40 (9542) Note Off ch=5 par1=67 par2=64
Channel Event. t= 45 (9587) Note Off ch=5 par1=72 par2=64
Channel Event. t= 15 (9602) Note Off ch=5 par1=76 par2=64
Channel Event. t= 0 (9602) Note Off ch=5 par1=79 par2=64
Channel Event. t= 85 (9687) Note Off ch=5 par1=55 par2=64
Channel Event. t= 20 (9707) Note Off ch=5 par1=48 par2=64
Channel Event. t= 215 (9922) Note On ch=5 par1=64 par2=30
Channel Event. t= 30 (9952) Note On ch=5 par1=67 par2=54
Channel Event. t= 0 (9952) Note On ch=5 par1=60 par2=33
Channel Event. t= 0 (9952) Note On ch=5 par1=52 par2=38
Channel Event. t= 30 (9982) Note On ch=5 par1=72 par2=46
Channel Event. t= 10 (9992) Note Off ch=5 par1=64 par2=64
Channel Event. t= 55 (10047) Note Off ch=5 par1=67 par2=64
Channel Event. t= 2 (10049) Note Off ch=5 par1=72 par2=64
Channel Event. t= 88 (10137) Note Off ch=5 par1=60 par2=64
Channel Event. t= 17 (10154) Note Off ch=5 par1=52 par2=64
Channel Event. t= 218 (10372) Note On ch=5 par1=71 par2=56
Channel Event. t= 30 (10402) Note On ch=5 par1=75 par2=71
Channel Event. t= 30 (10432) Note On ch=5 par1=39 par2=30
Channel Event. t= 0 (10432) Note On ch=5 par1=47 par2=41
Channel Event. t= 0 (10432) Note On ch=5 par1=78 par2=77
Channel Event. t= 30 (10462) Note Off ch=5 par1=71 par2=64
Channel Event. t= 0 (10462) Note On ch=5 par1=83 par2=78
Channel Event. t= 30 (10492) Note Off ch=5 par1=75 par2=64
Channel Event. t= 22 (10514) Note Off ch=5 par1=78 par2=64
Channel Event. t= 33 (10547) Note Off ch=5 par1=83 par2=64
Channel Event. t= 112 (10659) Note Off ch=5 par1=47 par2=64
Channel Event. t= 3 (10662) Note Off ch=5 par1=39 par2=64
Channel Event. t= 190 (10852) Note On ch=5 par1=66 par2=51
Channel Event. t= 30 (10882) Note On ch=5 par1=71 par2=62
Channel Event. t= 30 (10912) Note On ch=5 par1=75 par2=64
Channel Event. t= 0 (10912) Note On ch=5 par1=51 par2=54
Channel Event. t= 0 (10912) Note On ch=5 par1=43 par2=36
Channel Event. t= 30 (10942) Note On ch=5 par1=78 par2=68
Channel Event. t= 12 (10954) Note Off ch=5 par1=66 par2=64
Channel Event. t= 33 (10987) Note Off ch=5 par1=71 par2=64
Channel Event. t= 2 (10989) Note Off ch=5 par1=75 par2=64
Channel Event. t= 30 (11019) Note Off ch=5 par1=78 par2=64
Channel Event. t= 65 (11084) Note Off ch=5 par1=43 par2=64
Channel Event. t= 3 (11087) Note Off ch=5 par1=51 par2=64
Channel Event. t= 245 (11332) Note On ch=5 par1=79 par2=48
Channel Event. t= 30 (11362) Note On ch=5 par1=84 par2=71
Channel Event. t= 30 (11392) Note On ch=5 par1=36 par2=33
Channel Event. t= 0 (11392) Note On ch=5 par1=43 par2=44
Channel Event. t= 0 (11392) Note On ch=5 par1=88 par2=61
Channel Event. t= 30 (11422) Note On ch=5 par1=91 par2=71
Channel Event. t= 10 (11432) Note Off ch=5 par1=79 par2=64
Channel Event. t= 30 (11462) Note Off ch=5 par1=84 par2=64
Channel Event. t= 7 (11469) Note Off ch=5 par1=88 par2=64
Channel Event. t= 3 (11472) Note Off ch=5 par1=91 par2=64
Channel Event. t= 122 (11594) Note Off ch=5 par1=36 par2=64
Channel Event. t= 10 (11604) Note Off ch=5 par1=43 par2=64
Channel Event. t= 178 (11782) Note On ch=5 par1=72 par2=45
Channel Event. t= 60 (11842) Note On ch=5 par1=79 par2=61
Channel Event. t= 0 (11842) Note On ch=5 par1=76 par2=61
Channel Event. t= 30 (11872) Note On ch=5 par1=84 par2=72
Channel Event. t= 0 (11872) Note On ch=5 par1=52 par2=33
Channel Event. t= 0 (11872) Note On ch=5 par1=43 par2=32
Channel Event. t= 20 (11892) Note Off ch=5 par1=72 par2=64
Channel Event. t= 35 (11927) Note Off ch=5 par1=84 par2=64
Channel Event. t= 5 (11932) Note Off ch=5 par1=79 par2=64
Channel Event. t= 12 (11944) Note Off ch=5 par1=76 par2=64
Channel Event. t= 108 (12052) Note Off ch=5 par1=52 par2=64
Channel Event. t= 7 (12059) Note Off ch=5 par1=43 par2=64
Channel Event. t= 203 (12262) Note On ch=5 par1=71 par2=55
Channel Event. t= 30 (12292) Note On ch=5 par1=75 par2=73
Channel Event. t= 30 (12322) Note On ch=5 par1=78 par2=77
Channel Event. t= 0 (12322) Note On ch=5 par1=83 par2=80
Channel Event. t= 30 (12352) Note On ch=5 par1=47 par2=38
Channel Event. t= 0 (12352) Note On ch=5 par1=39 par2=51
Channel Event. t= 7 (12359) Note Off ch=5 par1=71 par2=64
Channel Event. t= 35 (12394) Note Off ch=5 par1=75 par2=64
Channel Event. t= 13 (12407) Note Off ch=5 par1=83 par2=64
Channel Event. t= 12 (12419) Note Off ch=5 par1=78 par2=64
Channel Event. t= 183 (12602) Note Off ch=5 par1=47 par2=64
Channel Event. t= 0 (12602) Note Off ch=5 par1=39 par2=64
Channel Event. t= 140 (12742) Note On ch=5 par1=66 par2=51
Channel Event. t= 60 (12802) Note On ch=5 par1=71 par2=61
Channel Event. t= 30 (12832) Note On ch=5 par1=78 par2=71
Channel Event. t= 0 (12832) Note On ch=5 par1=75 par2=70
Channel Event. t= 0 (12832) Note On ch=5 par1=43 par2=26
Channel Event. t= 0 (12832) Note On ch=5 par1=51 par2=46
Channel Event. t= 22 (12854) Note Off ch=5 par1=66 par2=64
Channel Event. t= 35 (12889) Note Off ch=5 par1=78 par2=64
Channel Event. t= 5 (12894) Note Off ch=5 par1=71 par2=64
Channel Event. t= 8 (12902) Note Off ch=5 par1=75 par2=64
Channel Event. t= 82 (12984) Note Off ch=5 par1=43 par2=64
Channel Event. t= 13 (12997) Note Off ch=5 par1=51 par2=64
Channel Event. t= 315 (13312) Note On ch=5 par1=36 par2=39
Channel Event. t= 0 (13312) Note On ch=5 par1=43 par2=43
Channel Event. t= 242 (13554) Note Off ch=5 par1=36 par2=64
Channel Event. t= 15 (13569) Note Off ch=5 par1=43 par2=64
Channel Event. t= 73 (13642) Note On ch=5 par1=64 par2=70
Channel Event. t= 60 (13702) Note On ch=5 par1=67 par2=68
Channel Event. t= 60 (13762) Note On ch=5 par1=72 par2=76
Channel Event. t= 17 (13779) Note Off ch=5 par1=64 par2=64
Channel Event. t= 13 (13792) Note On ch=5 par1=52 par2=40
Channel Event. t= 0 (13792) Note On ch=5 par1=43 par2=37
Channel Event. t= 20 (13812) Note On ch=5 par1=76 par2=67
Channel Event. t= 25 (13837) Note Off ch=5 par1=67 par2=64
Channel Event. t= 45 (13882) Note Off ch=5 par1=72 par2=64
Channel Event. t= 27 (13909) Note Off ch=5 par1=76 par2=64
Channel Event. t= 58 (13967) Note Off ch=5 par1=52 par2=64
Channel Event. t= 7 (13974) Note Off ch=5 par1=43 par2=64
Channel Event. t= 298 (14272) Note On ch=5 par1=47 par2=44
Channel Event. t= 0 (14272) Note On ch=5 par1=39 par2=59
Channel Event. t= 282 (14554) Note Off ch=5 par1=39 par2=64
Channel Event. t= 28 (14582) Note Off ch=5 par1=47 par2=64
Channel Event. t= 170 (14752) Note On ch=5 par1=51 par2=50
Channel Event. t= 0 (14752) Note On ch=5 par1=43 par2=39
Channel Event. t= 160 (14912) Note Off ch=5 par1=43 par2=64
Channel Event. t= 22 (14934) Note Off ch=5 par1=51 par2=64
Channel Event. t= 298 (15232) Note On ch=5 par1=48 par2=39
Channel Event. t= 0 (15232) Note On ch=5 par1=55 par2=43
Channel Event. t= 232 (15464) Note Off ch=5 par1=48 par2=64
Channel Event. t= 23 (15487) Note Off ch=5 par1=55 par2=64
Channel Event. t= 165 (15652) Note On ch=5 par1=67 par2=45
Channel Event. t= 30 (15682) Note On ch=5 par1=72 par2=72
Channel Event. t= 30 (15712) Note On ch=5 par1=76 par2=61
Channel Event. t= 0 (15712) Note On ch=5 par1=55 par2=32
Channel Event. t= 0 (15712) Note On ch=5 par1=64 par2=37
Channel Event. t= 27 (15739) Note Off ch=5 par1=67 par2=64
Channel Event. t= 10 (15749) Note On ch=5 par1=79 par2=76
Channel Event. t= 15 (15764) Note Off ch=5 par1=72 par2=64
Channel Event. t= 10 (15774) Note Off ch=5 par1=76 par2=64
Channel Event. t= 35 (15809) Note Off ch=5 par1=79 par2=64
Channel Event. t= 70 (15879) Note Off ch=5 par1=55 par2=64
Channel Event. t= 18 (15897) Note Off ch=5 par1=64 par2=64
Channel Event. t= 295 (16192) Note On ch=5 par1=51 par2=47
Channel Event. t= 0 (16192) Note On ch=5 par1=59 par2=42
Channel Event. t= 247 (16439) Note Off ch=5 par1=59 par2=64
Channel Event. t= 15 (16454) Note Off ch=5 par1=51 par2=64
Channel Event. t= 218 (16672) Note On ch=5 par1=55 par2=34
Channel Event. t= 0 (16672) Note On ch=5 par1=63 par2=49
Channel Event. t= 145 (16817) Note Off ch=5 par1=63 par2=64
Channel Event. t= 27 (16844) Note Off ch=5 par1=55 par2=64
Channel Event. t= 278 (17122) Controller ch=5 par1=7 (Main Volume) par2=80
Channel Event. t= 0 (17122) Note On ch=5 par1=67 par2=66
Channel Event. t= 0 (17122) Note On ch=5 par1=64 par2=56
Channel Event. t= 30 (17152) Note On ch=5 par1=60 par2=80
Channel Event. t= 0 (17152) Note On ch=5 par1=36 par2=33
Channel Event. t= 0 (17152) Note On ch=5 par1=43 par2=34
Channel Event. t= 0 (17152) Note On ch=5 par1=52 par2=70
Channel Event. t= 255 (17407) Note Off ch=5 par1=43 par2=64
Channel Event. t= 2 (17409) Note Off ch=5 par1=36 par2=64
Channel Event. t= 148 (17557) Note Off ch=5 par1=52 par2=64
Channel Event. t= 75 (17632) Note On ch=5 par1=55 par2=49
Channel Event. t= 0 (17632) Note On ch=5 par1=52 par2=56
Channel Event. t= 302 (17934) Note Off ch=5 par1=67 par2=64
Channel Event. t= 78 (18012) Note Off ch=5 par1=64 par2=64
Channel Event. t= 25 (18037) Note Off ch=5 par1=55 par2=64
Channel Event. t= 15 (18052) Note On ch=5 par1=69 par2=74
Channel Event. t= 0 (18052) Note On ch=5 par1=72 par2=80
Channel Event. t= 10 (18062) Note Off ch=5 par1=52 par2=64
Channel Event. t= 50 (18112) Note On ch=5 par1=67 par2=77
Channel Event. t= 0 (18112) Note On ch=5 par1=40 par2=41
Channel Event. t= 0 (18112) Note On ch=5 par1=47 par2=42
Channel Event. t= 0 (18112) Note On ch=5 par1=55 par2=44
Channel Event. t= 0 (18112) Note On ch=5 par1=57 par2=61
Channel Event. t= 32 (18144) Note Off ch=5 par1=60 par2=64
Channel Event. t= 208 (18352) Note Off ch=5 par1=40 par2=64
Channel Event. t= 35 (18387) Note Off ch=5 par1=47 par2=64
Channel Event. t= 177 (18564) Note Off ch=5 par1=57 par2=64
Channel Event. t= 5 (18569) Note Off ch=5 par1=55 par2=64
Channel Event. t= 23 (18592) Note On ch=5 par1=52 par2=46
Channel Event. t= 0 (18592) Note On ch=5 par1=57 par2=45
Channel Event. t= 117 (18709) Note Off ch=5 par1=72 par2=64
Channel Event. t= 25 (18734) Note Off ch=5 par1=69 par2=64
Channel Event. t= 68 (18802) Note On ch=5 par1=72 par2=64
Channel Event. t= 0 (18802) Note On ch=5 par1=76 par2=79
Channel Event. t= 30 (18832) Note On ch=5 par1=69 par2=76
Channel Event. t= 65 (18897) Note Off ch=5 par1=67 par2=64
Channel Event. t= 70 (18967) Note Off ch=5 par1=72 par2=64
Channel Event. t= 10 (18977) Note Off ch=5 par1=52 par2=64
Channel Event. t= 47 (19024) Note Off ch=5 par1=57 par2=64
Channel Event. t= 18 (19042) Note On ch=5 par1=79 par2=82
Channel Event. t= 12 (19054) Note Off ch=5 par1=69 par2=64
Channel Event. t= 18 (19072) Note On ch=5 par1=72 par2=80
Channel Event. t= 0 (19072) Note On ch=5 par1=43 par2=44
Channel Event. t= 0 (19072) Note On ch=5 par1=36 par2=36
Channel Event. t= 0 (19072) Note On ch=5 par1=52 par2=42
Channel Event. t= 285 (19357) Note Off ch=5 par1=43 par2=64
Channel Event. t= 7 (19364) Note Off ch=5 par1=36 par2=64
Channel Event. t= 58 (19422) Note Off ch=5 par1=52 par2=64
Channel Event. t= 35 (19457) Note Off ch=5 par1=76 par2=64
Channel Event. t= 17 (19474) Note Off ch=5 par1=79 par2=64
Channel Event. t= 48 (19522) Note On ch=5 par1=81 par2=79
Channel Event. t= 0 (19522) Note On ch=5 par1=79 par2=69
Channel Event. t= 30 (19552) Note On ch=5 par1=76 par2=66
Channel Event. t= 0 (19552) Note On ch=5 par1=52 par2=50
Channel Event. t= 0 (19552) Note On ch=5 par1=57 par2=55
Channel Event. t= 2 (19554) Note Off ch=5 par1=72 par2=64
Channel Event. t= 290 (19844) Note Off ch=5 par1=52 par2=64
Channel Event. t= 80 (19924) Note Off ch=5 par1=57 par2=64
Channel Event. t= 33 (19957) Note Off ch=5 par1=79 par2=64
Channel Event. t= 7 (19964) Note Off ch=5 par1=81 par2=64
Channel Event. t= 38 (20002) Note Off ch=5 par1=76 par2=64
Channel Event. t= 0 (20002) Note On ch=5 par1=76 par2=92
Channel Event. t= 0 (20002) Note On ch=5 par1=79 par2=94
Channel Event. t= 30 (20032) Note On ch=5 par1=72 par2=87
Channel Event. t= 0 (20032) Note On ch=5 par1=40 par2=47
Channel Event. t= 0 (20032) Note On ch=5 par1=47 par2=46
Channel Event. t= 0 (20032) Note On ch=5 par1=55 par2=67
Channel Event. t= 200 (20232) Note Off ch=5 par1=40 par2=64
Channel Event. t= 17 (20249) Note Off ch=5 par1=47 par2=64
Channel Event. t= 163 (20412) Note Off ch=5 par1=55 par2=64
Channel Event. t= 100 (20512) Note On ch=5 par1=52 par2=49
Channel Event. t= 0 (20512) Note On ch=5 par1=57 par2=49
Channel Event. t= 202 (20714) Note Off ch=5 par1=72 par2=64
Channel Event. t= 10 (20724) Note Off ch=5 par1=76 par2=64
Channel Event. t= 10 (20734) Note Off ch=5 par1=79 par2=64
Channel Event. t= 18 (20752) Note On ch=5 par1=69 par2=76
Channel Event. t= 30 (20782) Note On ch=5 par1=76 par2=53
Channel Event. t= 0 (20782) Note On ch=5 par1=72 par2=58
Channel Event. t= 125 (20907) Note Off ch=5 par1=52 par2=64
Channel Event. t= 22 (20929) Note Off ch=5 par1=57 par2=64
Channel Event. t= 10 (20939) Note Off ch=5 par1=76 par2=64
Channel Event. t= 0 (20939) Note Off ch=5 par1=72 par2=64
Channel Event. t= 53 (20992) Note On ch=5 par1=72 par2=69
Channel Event. t= 0 (20992) Note On ch=5 par1=36 par2=40
Channel Event. t= 0 (20992) Note On ch=5 par1=43 par2=41
Channel Event. t= 0 (20992) Note On ch=5 par1=52 par2=58
Channel Event. t= 0 (20992) Note On ch=5 par1=76 par2=62
Channel Event. t= 0 (20992) Note On ch=5 par1=79 par2=66
Channel Event. t= 5 (20997) Note Off ch=5 par1=69 par2=64
Channel Event. t= 212 (21209) Note Off ch=5 par1=36 par2=64
Channel Event. t= 10 (21219) Note Off ch=5 par1=43 par2=64
Channel Event. t= 160 (21379) Note Off ch=5 par1=76 par2=64
Channel Event. t= 13 (21392) Note Off ch=5 par1=52 par2=64
Channel Event. t= 15 (21407) Note Off ch=5 par1=79 par2=64
Channel Event. t= 35 (21442) Note On ch=5 par1=81 par2=66
Channel Event. t= 0 (21442) Note On ch=5 par1=79 par2=63
Channel Event. t= 30 (21472) Note On ch=5 par1=76 par2=60
Channel Event. t= 0 (21472) Note On ch=5 par1=52 par2=48
Channel Event. t= 0 (21472) Note On ch=5 par1=55 par2=52
Channel Event. t= 5 (21477) Note Off ch=5 par1=72 par2=64
Channel Event. t= 425 (21902) Note Off ch=5 par1=52 par2=64
Channel Event. t= 5 (21907) Note Off ch=5 par1=81 par2=64
Channel Event. t= 0 (21907) Note Off ch=5 par1=79 par2=64
Channel Event. t= 22 (21929) Note Off ch=5 par1=55 par2=64
Channel Event. t= 23 (21952) Note On ch=5 par1=75 par2=99
Channel Event. t= 0 (21952) Note On ch=5 par1=40 par2=35
Channel Event. t= 0 (21952) Note On ch=5 par1=47 par2=40
Channel Event. t= 0 (21952) Note On ch=5 par1=51 par2=54
Channel Event. t= 0 (21952) Note On ch=5 par1=54 par2=61
Channel Event. t= 0 (21952) Note On ch=5 par1=83 par2=96
Channel Event. t= 0 (21952) Note On ch=5 par1=78 par2=98
Channel Event. t= 45 (21997) Note Off ch=5 par1=76 par2=64
Channel Event. t= 160 (22157) Note Off ch=5 par1=40 par2=64
Channel Event. t= 20 (22177) Note Off ch=5 par1=47 par2=64
Channel Event. t= 175 (22352) Note Off ch=5 par1=51 par2=64
Channel Event. t= 32 (22384) Note Off ch=5 par1=54 par2=64
Channel Event. t= 48 (22432) Note On ch=5 par1=51 par2=40
Channel Event. t= 0 (22432) Note On ch=5 par1=54 par2=49
Channel Event. t= 152 (22584) Note Off ch=5 par1=78 par2=64
Channel Event. t= 35 (22619) Note Off ch=5 par1=83 par2=64
Channel Event. t= 33 (22652) Note Off ch=5 par1=75 par2=64
Channel Event. t= 20 (22672) Note On ch=5 par1=76 par2=80
Channel Event. t= 0 (22672) Note On ch=5 par1=79 par2=65
Channel Event. t= 0 (22672) Note On ch=5 par1=84 par2=68
Channel Event. t= 177 (22849) Note Off ch=5 par1=79 par2=64
Channel Event. t= 13 (22862) Note Off ch=5 par1=51 par2=64
Channel Event. t= 12 (22874) Note Off ch=5 par1=54 par2=64
Channel Event. t= 38 (22912) Note Off ch=5 par1=76 par2=64
Channel Event. t= 0 (22912) Note On ch=5 par1=72 par2=82
Channel Event. t= 0 (22912) Note On ch=5 par1=36 par2=37
Channel Event. t= 0 (22912) Note On ch=5 par1=43 par2=39
Channel Event. t= 0 (22912) Note On ch=5 par1=52 par2=72
Channel Event. t= 0 (22912) Note On ch=5 par1=79 par2=59
Channel Event. t= 0 (22912) Note On ch=5 par1=76 par2=70
Channel Event. t= 2 (22914) Note Off ch=5 par1=76 par2=64
Channel Event. t= 23 (22937) Note Off ch=5 par1=84 par2=64
Channel Event. t= 202 (23139) Note Off ch=5 par1=36 par2=64
Channel Event. t= 13 (23152) Note Off ch=5 par1=43 par2=64
Channel Event. t= 180 (23332) Note Off ch=5 par1=52 par2=64
Channel Event. t= 0 (23332) Note Off ch=5 par1=79 par2=64
Channel Event. t= 60 (23392) Note Off ch=5 par1=72 par2=64
Channel Event. t= 0 (23392) Note On ch=5 par1=69 par2=74
Channel Event. t= 0 (23392) Note On ch=5 par1=52 par2=51
Channel Event. t= 0 (23392) Note On ch=5 par1=55 par2=63
Channel Event. t= 0 (23392) Note On ch=5 par1=76 par2=50
Channel Event. t= 0 (23392) Note On ch=5 par1=72 par2=84
Channel Event. t= 402 (23794) Note Off ch=5 par1=55 par2=64
Channel Event. t= 10 (23804) Note Off ch=5 par1=72 par2=64
Channel Event. t= 13 (23817) Note Off ch=5 par1=52 par2=64
Channel Event. t= 25 (23842) Note On ch=5 par1=72 par2=87
Channel Event. t= 30 (23872) Note Off ch=5 par1=69 par2=64
Channel Event. t= 0 (23872) Note On ch=5 par1=67 par2=74
Channel Event. t= 0 (23872) Note On ch=5 par1=40 par2=42
Channel Event. t= 0 (23872) Note On ch=5 par1=47 par2=48
Channel Event. t= 0 (23872) Note On ch=5 par1=57 par2=66
Channel Event. t= 0 (23872) Note On ch=5 par1=55 par2=50
Channel Event. t= 0 (23872) Note On ch=5 par1=69 par2=74
Channel Event. t= 7 (23879) Note Off ch=5 par1=76 par2=64
Channel Event. t= 250 (24129) Note Off ch=5 par1=47 par2=64
Channel Event. t= 25 (24154) Note Off ch=5 par1=40 par2=64
Channel Event. t= 103 (24257) Note Off ch=5 par1=69 par2=64
Channel Event. t= 37 (24294) Note Off ch=5 par1=57 par2=64
Channel Event. t= 15 (24309) Note Off ch=5 par1=55 par2=64
Channel Event. t= 13 (24322) Note On ch=5 par1=71 par2=75
Channel Event. t= 0 (24322) Note On ch=5 par1=74 par2=75
Channel Event. t= 30 (24352) Note On ch=5 par1=65 par2=83
Channel Event. t= 0 (24352) Note On ch=5 par1=52 par2=56
Channel Event. t= 0 (24352) Note On ch=5 par1=57 par2=58
Channel Event. t= 32 (24384) Note Off ch=5 par1=67 par2=64
Channel Event. t= 3 (24387) Note Off ch=5 par1=72 par2=64
Channel Event. t= 297 (24684) Note Off ch=5 par1=71 par2=64
Channel Event. t= 23 (24707) Note Off ch=5 par1=74 par2=64
Channel Event. t= 60 (24767) Note Off ch=5 par1=52 par2=64
Channel Event. t= 32 (24799) Note Off ch=5 par1=57 par2=64
Channel Event. t= 3 (24802) Note On ch=5 par1=75 par2=101
Channel Event. t= 0 (24802) Note On ch=5 par1=72 par2=95
Channel Event. t= 20 (24822) Note Off ch=5 par1=65 par2=64
Channel Event. t= 10 (24832) Note On ch=5 par1=63 par2=94
Channel Event. t= 0 (24832) Note On ch=5 par1=39 par2=51
Channel Event. t= 0 (24832) Note On ch=5 par1=32 par2=53
Channel Event. t= 260 (25092) Note Off ch=5 par1=32 par2=64
Channel Event. t= 22 (25114) Note Off ch=5 par1=39 par2=64
Channel Event. t= 198 (25312) Note On ch=5 par1=48 par2=53
Channel Event. t= 0 (25312) Note On ch=5 par1=56 par2=72
Channel Event. t= 340 (25652) Note Off ch=5 par1=72 par2=64
Channel Event. t= 7 (25659) Note Off ch=5 par1=48 par2=64
Channel Event. t= 23 (25682) Note Off ch=5 par1=75 par2=64
Channel Event. t= 0 (25682) Note Off ch=5 par1=56 par2=64
Channel Event. t= 75 (25757) Note Off ch=5 par1=63 par2=64
Channel Event. t= 5 (25762) Note On ch=5 par1=72 par2=71
Channel Event. t= 0 (25762) Note On ch=5 par1=75 par2=61
Channel Event. t= 30 (25792) Note On ch=5 par1=70 par2=83
Channel Event. t= 0 (25792) Note On ch=5 par1=36 par2=47
Channel Event. t= 0 (25792) Note On ch=5 par1=43 par2=38
Channel Event. t= 307 (26099) Note Off ch=5 par1=43 par2=64
Channel Event. t= 10 (26109) Note Off ch=5 par1=36 par2=64
Channel Event. t= 103 (26212) Note Off ch=5 par1=75 par2=64
Channel Event. t= 0 (26212) Note On ch=5 par1=83 par2=63
Channel Event. t= 20 (26232) Note Off ch=5 par1=72 par2=64
Channel Event. t= 10 (26242) Note On ch=5 par1=79 par2=53
Channel Event. t= 30 (26272) Note Off ch=5 par1=70 par2=64
Channel Event. t= 0 (26272) Note On ch=5 par1=74 par2=73
Channel Event. t= 0 (26272) Note On ch=5 par1=59 par2=55
Channel Event. t= 0 (26272) Note On ch=5 par1=56 par2=51
Channel Event. t= 297 (26569) Note Off ch=5 par1=83 par2=64
Channel Event. t= 73 (26642) Note Off ch=5 par1=79 par2=64
Channel Event. t= 50 (26692) Note On ch=5 par1=75 par2=95
Channel Event. t= 0 (26692) Note On ch=5 par1=72 par2=90
Channel Event. t= 32 (26724) Note Off ch=5 par1=59 par2=64
Channel Event. t= 18 (26742) Note Off ch=5 par1=56 par2=64
Channel Event. t= 10 (26752) Note Off ch=5 par1=74 par2=64
Channel Event. t= 0 (26752) Note On ch=5 par1=63 par2=100
Channel Event. t= 0 (26752) Note On ch=5 par1=39 par2=58
Channel Event. t= 0 (26752) Note On ch=5 par1=32 par2=49
Channel Event. t= 480 (27232) Note On ch=5 par1=48 par2=37
Channel Event. t= 0 (27232) Note On ch=5 par1=56 par2=59
Channel Event. t= 135 (27367) Note Off ch=5 par1=32 par2=64
Channel Event. t= 32 (27399) Note Off ch=5 par1=39 par2=64
Channel Event. t= 228 (27627) Note Off ch=5 par1=72 par2=64
Channel Event. t= 7 (27634) Note Off ch=5 par1=75 par2=64
Channel Event. t= 45 (27679) Note Off ch=5 par1=48 par2=64
Channel Event. t= 3 (27682) Note On ch=5 par1=75 par2=80
Channel Event. t= 30 (27712) Note On ch=5 par1=70 par2=57
Channel Event. t= 0 (27712) Note On ch=5 par1=43 par2=45
Channel Event. t= 0 (27712) Note On ch=5 par1=36 par2=41
Channel Event. t= 0 (27712) Note On ch=5 par1=72 par2=56
Channel Event. t= 5 (27717) Note Off ch=5 par1=56 par2=64
Channel Event. t= 27 (27744) Note Off ch=5 par1=63 par2=64
Channel Event. t= 385 (28129) Note Off ch=5 par1=75 par2=64
Channel Event. t= 8 (28137) Note Off ch=5 par1=72 par2=64
Channel Event. t= 25 (28162) Note On ch=5 par1=83 par2=56
Channel Event. t= 0 (28162) Note On ch=5 par1=79 par2=53
Channel Event. t= 20 (28182) Note Off ch=5 par1=70 par2=64
Channel Event. t= 10 (28192) Note On ch=5 par1=74 par2=77
Channel Event. t= 0 (28192) Note On ch=5 par1=53 par2=54
Channel Event. t= 0 (28192) Note On ch=5 par1=59 par2=54
Channel Event. t= 30 (28222) Note Off ch=5 par1=36 par2=64
Channel Event. t= 55 (28277) Note Off ch=5 par1=43 par2=64
Channel Event. t= 317 (28594) Note Off ch=5 par1=83 par2=64
Channel Event. t= 13 (28607) Note Off ch=5 par1=53 par2=64
Channel Event. t= 22 (28629) Note Off ch=5 par1=59 par2=64
Channel Event. t= 13 (28642) Note On ch=5 par1=75 par2=67
Channel Event. t= 0 (28642) Note On ch=5 par1=72 par2=47
Channel Event. t= 30 (28672) Note On ch=5 par1=70 par2=82
Channel Event. t= 0 (28672) Note On ch=5 par1=46 par2=58
Channel Event. t= 0 (28672) Note On ch=5 par1=39 par2=52
Channel Event. t= 22 (28694) Note Off ch=5 par1=79 par2=64
Channel Event. t= 18 (28712) Note Off ch=5 par1=74 par2=64
Channel Event. t= 440 (29152) Note On ch=5 par1=60 par2=53
Channel Event. t= 0 (29152) Note On ch=5 par1=51 par2=62
Channel Event. t= 117 (29269) Note Off ch=5 par1=46 par2=64
Channel Event. t= 15 (29284) Note Off ch=5 par1=39 par2=64
Channel Event. t= 150 (29434) Note Off ch=5 par1=72 par2=64
Channel Event. t= 123 (29557) Note Off ch=5 par1=60 par2=64
Channel Event. t= 2 (29559) Note Off ch=5 par1=51 par2=64
Channel Event. t= 43 (29602) Note Off ch=5 par1=70 par2=64
Channel Event. t= 0 (29602) Note On ch=5 par1=67 par2=63
Channel Event. t= 0 (29602) Note On ch=5 par1=70 par2=74
Channel Event. t= 30 (29632) Note On ch=5 par1=65 par2=85
Channel Event. t= 0 (29632) Note On ch=5 par1=36 par2=17
Channel Event. t= 0 (29632) Note On ch=5 par1=43 par2=48
Channel Event. t= 7 (29639) Note Off ch=5 par1=75 par2=64
Channel Event. t= 473 (30112) Note On ch=5 par1=50 par2=43
Channel Event. t= 0 (30112) Note On ch=5 par1=58 par2=67
Channel Event. t= 55 (30167) Note Off ch=5 par1=36 par2=64
Channel Event. t= 20 (30187) Note Off ch=5 par1=43 par2=64
Channel Event. t= 285 (30472) Note Off ch=5 par1=70 par2=64
Channel Event. t= 20 (30492) Note Off ch=5 par1=67 par2=64
Channel Event. t= 42 (30534) Note Off ch=5 par1=50 par2=64
Channel Event. t= 15 (30549) Note Off ch=5 par1=58 par2=64
Channel Event. t= 13 (30562) Note On ch=5 par1=70 par2=53
Channel Event. t= 0 (30562) Note On ch=5 par1=67 par2=60
Channel Event. t= 30 (30592) Note On ch=5 par1=63 par2=98
Channel Event. t= 0 (30592) Note On ch=5 par1=46 par2=54
Channel Event. t= 0 (30592) Note On ch=5 par1=39 par2=64
Channel Event. t= 2 (30594) Note Off ch=5 par1=65 par2=64
Channel Event. t= 478 (31072) Note On ch=5 par1=55 par2=53
Channel Event. t= 0 (31072) Note On ch=5 par1=58 par2=63
Channel Event. t= 122 (31194) Note Off ch=5 par1=46 par2=64
Channel Event. t= 33 (31227) Note Off ch=5 par1=39 par2=64
Channel Event. t= 315 (31542) Note Off ch=5 par1=55 par2=64
Channel Event. t= 5 (31547) Note Off ch=5 par1=58 par2=64
Channel Event. t= 5 (31552) Note On ch=5 par1=36 par2=49
Channel Event. t= 0 (31552) Note On ch=5 par1=43 par2=42
Channel Event. t= 257 (31809) Note Off ch=5 par1=67 par2=64
Channel Event. t= 20 (31829) Note Off ch=5 par1=70 par2=64
Channel Event. t= 143 (31972) Note On ch=5 par1=57 par2=98
Channel Event. t= 102 (32074) Note Off ch=5 par1=63 par2=64
Channel Event. t= 30 (32104) Note Off ch=5 par1=36 par2=64
Channel Event. t= 33 (32137) Note Off ch=5 par1=43 par2=64
Channel Event. t= 315 (32452) Controller ch=5 par1=7 (Main Volume) par2=95
Channel Event. t= 30 (32482) Note On ch=5 par1=58 par2=100
Channel Event. t= 20 (32502) Note Off ch=5 par1=57 par2=64
Channel Event. t= 10 (32512) Note On ch=5 par1=55 par2=93
Channel Event. t= 0 (32512) Note On ch=5 par1=39 par2=63
Channel Event. t= 0 (32512) Note On ch=5 par1=46 par2=56
Channel Event. t= 480 (32992) Note On ch=5 par1=48 par2=41
Channel Event. t= 0 (32992) Note On ch=5 par1=51 par2=70
Channel Event. t= 67 (33059) Note Off ch=5 par1=39 par2=64
Channel Event. t= 63 (33122) Note Off ch=5 par1=46 par2=64
Channel Event. t= 255 (33377) Note Off ch=5 par1=48 par2=64
Channel Event. t= 2 (33379) Note Off ch=5 par1=51 par2=64
Channel Event. t= 45 (33424) Note Off ch=5 par1=55 par2=64
Channel Event. t= 18 (33442) Note On ch=5 par1=63 par2=93
Channel Event. t= 0 (33442) Note On ch=5 par1=60 par2=76
Channel Event. t= 10 (33452) Note Off ch=5 par1=58 par2=64
Channel Event. t= 20 (33472) Note On ch=5 par1=58 par2=96
Channel Event. t= 0 (33472) Note On ch=5 par1=50 par2=38
Channel Event. t= 0 (33472) Note On ch=5 par1=43 par2=50
Channel Event. t= 480 (33952) Note On ch=5 par1=53 par2=56
Channel Event. t= 95 (34047) Note Off ch=5 par1=43 par2=64
Channel Event. t= 47 (34094) Note Off ch=5 par1=50 par2=64
Channel Event. t= 25 (34119) Note Off ch=5 par1=63 par2=64
Channel Event. t= 43 (34162) Note On ch=5 par1=63 par2=75
Channel Event. t= 0 (34162) Note On ch=5 par1=67 par2=81
Channel Event. t= 50 (34212) Note Off ch=5 par1=60 par2=64
Channel Event. t= 15 (34227) Note Off ch=5 par1=58 par2=64
Channel Event. t= 62 (34289) Note Off ch=5 par1=63 par2=64
Channel Event. t= 53 (34342) Note Off ch=5 par1=67 par2=64
Channel Event. t= 25 (34367) Note Off ch=5 par1=53 par2=64
Channel Event. t= 35 (34402) Note On ch=5 par1=70 par2=95
Channel Event. t= 30 (34432) Note On ch=5 par1=63 par2=93
Channel Event. t= 0 (34432) Note On ch=5 par1=46 par2=46
Channel Event. t= 0 (34432) Note On ch=5 par1=39 par2=38
Channel Event. t= 0 (34432) Note On ch=5 par1=65 par2=47
Channel Event. t= 0 (34432) Note On ch=5 par1=67 par2=46
Channel Event. t= 210 (34642) Note Off ch=5 par1=65 par2=64
Channel Event. t= 170 (34812) Note Off ch=5 par1=70 par2=64
Channel Event. t= 35 (34847) Note Off ch=5 par1=67 par2=64
Channel Event. t= 5 (34852) Note On ch=5 par1=70 par2=77
Channel Event. t= 0 (34852) Note On ch=5 par1=72 par2=88
Channel Event. t= 60 (34912) Note On ch=5 par1=67 par2=80
Channel Event. t= 0 (34912) Note On ch=5 par1=55 par2=61
Channel Event. t= 0 (34912) Note On ch=5 par1=60 par2=70
Channel Event. t= 37 (34949) Note Off ch=5 par1=63 par2=64
Channel Event. t= 55 (35004) Note Off ch=5 par1=39 par2=64
Channel Event. t= 43 (35047) Note Off ch=5 par1=46 par2=64
Channel Event. t= 192 (35239) Note Off ch=5 par1=70 par2=64
Channel Event. t= 80 (35319) Note Off ch=5 par1=55 par2=64
Channel Event. t= 0 (35319) Note Off ch=5 par1=60 par2=64
Channel Event. t= 15 (35334) Note Off ch=5 par1=72 par2=64
Channel Event. t= 28 (35362) Note Off ch=5 par1=67 par2=64
Channel Event. t= 0 (35362) Note On ch=5 par1=67 par2=91
Channel Event. t= 0 (35362) Note On ch=5 par1=70 par2=100
Channel Event. t= 30 (35392) Note On ch=5 par1=63 par2=99
Channel Event. t= 0 (35392) Note On ch=5 par1=50 par2=29
Channel Event. t= 0 (35392) Note On ch=5 par1=43 par2=48
Channel Event. t= 0 (35392) Note On ch=5 par1=58 par2=65
Channel Event. t= 367 (35759) Note Off ch=5 par1=58 par2=64
Channel Event. t= 113 (35872) Note On ch=5 par1=55 par2=52
Channel Event. t= 0 (35872) Note On ch=5 par1=58 par2=54
Channel Event. t= 110 (35982) Note Off ch=5 par1=43 par2=64
Channel Event. t= 45 (36027) Note Off ch=5 par1=63 par2=64
Channel Event. t= 7 (36034) Note Off ch=5 par1=70 par2=64
Channel Event. t= 5 (36039) Note Off ch=5 par1=50 par2=64
Channel Event. t= 18 (36057) Note Off ch=5 par1=67 par2=64
Channel Event. t= 55 (36112) Note On ch=5 par1=60 par2=61
Channel Event. t= 0 (36112) Note On ch=5 par1=67 par2=60
Channel Event. t= 0 (36112) Note On ch=5 par1=63 par2=72
Channel Event. t= 152 (36264) Note Off ch=5 par1=55 par2=64
Channel Event. t= 25 (36289) Note Off ch=5 par1=58 par2=64
Channel Event. t= 13 (36302) Note Off ch=5 par1=63 par2=64
Channel Event. t= 35 (36337) Note Off ch=5 par1=67 par2=64
Channel Event. t= 15 (36352) Note On ch=5 par1=63 par2=73
Channel Event. t= 0 (36352) Note On ch=5 par1=46 par2=49
Channel Event. t= 0 (36352) Note On ch=5 par1=39 par2=44
Channel Event. t= 0 (36352) Note On ch=5 par1=55 par2=63
Channel Event. t= 0 (36352) Note On ch=5 par1=67 par2=48
Channel Event. t= 0 (36352) Note On ch=5 par1=70 par2=90
Channel Event. t= 27 (36379) Note Off ch=5 par1=60 par2=64
Channel Event. t= 360 (36739) Note Off ch=5 par1=55 par2=64
Channel Event. t= 38 (36777) Note Off ch=5 par1=67 par2=64
Channel Event. t= 0 (36777) Note Off ch=5 par1=70 par2=64
Channel Event. t= 52 (36829) Note Off ch=5 par1=63 par2=64
Channel Event. t= 3 (36832) Note On ch=5 par1=67 par2=72
Channel Event. t= 0 (36832) Note On ch=5 par1=58 par2=62
Channel Event. t= 0 (36832) Note On ch=5 par1=55 par2=35
Channel Event. t= 0 (36832) Note On ch=5 par1=70 par2=67
Channel Event. t= 0 (36832) Note On ch=5 par1=72 par2=75
Channel Event. t= 170 (37002) Note Off ch=5 par1=46 par2=64
Channel Event. t= 2 (37004) Note Off ch=5 par1=39 par2=64
Channel Event. t= 288 (37292) Note Off ch=5 par1=72 par2=64
Channel Event. t= 2 (37294) Note Off ch=5 par1=58 par2=64
Channel Event. t= 5 (37299) Note Off ch=5 par1=70 par2=64
Channel Event. t= 3 (37302) Note Off ch=5 par1=55 par2=64
Channel Event. t= 10 (37312) Note On ch=5 par1=66 par2=97
Channel Event. t= 0 (37312) Note On ch=5 par1=42 par2=63
Channel Event. t= 0 (37312) Note On ch=5 par1=50 par2=44
Channel Event. t= 0 (37312) Note On ch=5 par1=54 par2=41
Channel Event. t= 0 (37312) Note On ch=5 par1=57 par2=63
Channel Event. t= 0 (37312) Note On ch=5 par1=74 par2=92
Channel Event. t= 0 (37312) Note On ch=5 par1=69 par2=85
Channel Event. t= 60 (37372) Note Off ch=5 par1=67 par2=64
Channel Event. t= 362 (37734) Note Off ch=5 par1=54 par2=64
Channel Event. t= 8 (37742) Note Off ch=5 par1=57 par2=64
Channel Event. t= 50 (37792) Note On ch=5 par1=57 par2=61
Channel Event. t= 0 (37792) Note On ch=5 par1=54 par2=56
Channel Event. t= 107 (37899) Note Off ch=5 par1=42 par2=64
Channel Event. t= 25 (37924) Note Off ch=5 par1=50 par2=64
Channel Event. t= 55 (37979) Note Off ch=5 par1=74 par2=64
Channel Event. t= 23 (38002) Note On ch=5 par1=70 par2=75
Channel Event. t= 10 (38012) Note Off ch=5 par1=66 par2=64
Channel Event. t= 15 (38027) Note Off ch=5 par1=69 par2=64
Channel Event. t= 5 (38032) Note On ch=5 par1=67 par2=74
Channel Event. t= 0 (38032) Note On ch=5 par1=75 par2=78
Channel Event. t= 155 (38187) Note Off ch=5 par1=70 par2=64
Channel Event. t= 42 (38229) Note Off ch=5 par1=54 par2=64
Channel Event. t= 33 (38262) Note Off ch=5 par1=57 par2=64
Channel Event. t= 10 (38272) Note Off ch=5 par1=67 par2=64
Channel Event. t= 0 (38272) Note On ch=5 par1=63 par2=83
Channel Event. t= 0 (38272) Note On ch=5 par1=39 par2=50
Channel Event. t= 0 (38272) Note On ch=5 par1=46 par2=55
Channel Event. t= 0 (38272) Note On ch=5 par1=55 par2=64
Channel Event. t= 0 (38272) Note On ch=5 par1=70 par2=65
Channel Event. t= 0 (38272) Note On ch=5 par1=67 par2=69
Channel Event. t= 2 (38274) Note Off ch=5 par1=67 par2=64
Channel Event. t= 10 (38284) Note Off ch=5 par1=75 par2=64
Channel Event. t= 330 (38614) Note Off ch=5 par1=70 par2=64
Channel Event. t= 53 (38667) Note Off ch=5 par1=55 par2=64
Channel Event. t= 42 (38709) Note Off ch=5 par1=63 par2=64
Channel Event. t= 13 (38722) Note On ch=5 par1=63 par2=78
Channel Event. t= 30 (38752) Note On ch=5 par1=60 par2=86
Channel Event. t= 0 (38752) Note On ch=5 par1=58 par2=68
Channel Event. t= 0 (38752) Note On ch=5 par1=55 par2=49
Channel Event. t= 30 (38782) Note Off ch=5 par1=39 par2=64
Channel Event. t= 2 (38784) Note Off ch=5 par1=46 par2=64
Channel Event. t= 370 (39154) Note Off ch=5 par1=58 par2=64
Channel Event. t= 8 (39162) Note Off ch=5 par1=55 par2=64
Channel Event. t= 2 (39164) Note Off ch=5 par1=63 par2=64
Channel Event. t= 68 (39232) Note Off ch=5 par1=60 par2=64
Channel Event. t= 0 (39232) Note On ch=5 par1=58 par2=89
Channel Event. t= 0 (39232) Note On ch=5 par1=50 par2=23
Channel Event. t= 0 (39232) Note On ch=5 par1=55 par2=63
Channel Event. t= 0 (39232) Note On ch=5 par1=63 par2=80
Channel Event. t= 0 (39232) Note On ch=5 par1=60 par2=82
Channel Event. t= 120 (39352) Note On ch=5 par1=43 par2=38
Channel Event. t= 245 (39597) Note Off ch=5 par1=60 par2=64
Channel Event. t= 115 (39712) Note On ch=5 par1=56 par2=88
Channel Event. t= 0 (39712) Note On ch=5 par1=53 par2=71
Channel Event. t= 0 (39712) Note On ch=5 par1=61 par2=75
Channel Event. t= 30 (39742) Note On ch=5 par1=65 par2=71
Channel Event. t= 12 (39754) Note Off ch=5 par1=50 par2=64
Channel Event. t= 8 (39762) Note Off ch=5 par1=55 par2=64
Channel Event. t= 27 (39789) Note Off ch=5 par1=58 par2=64
Channel Event. t= 15 (39804) Note Off ch=5 par1=63 par2=64
Channel Event. t= 90 (39894) Note Off ch=5 par1=43 par2=64
Channel Event. t= 220 (40114) Note Off ch=5 par1=61 par2=64
Channel Event. t= 48 (40162) Note Off ch=5 par1=65 par2=64
Channel Event. t= 12 (40174) Note Off ch=5 par1=53 par2=64
Channel Event. t= 13 (40187) Note Off ch=5 par1=56 par2=64
Channel Event. t= 5 (40192) Note On ch=5 par1=54 par2=98
Channel Event. t= 0 (40192) Note On ch=5 par1=38 par2=60
Channel Event. t= 0 (40192) Note On ch=5 par1=47 par2=46
Channel Event. t= 0 (40192) Note On ch=5 par1=50 par2=79
Channel Event. t= 0 (40192) Note On ch=5 par1=66 par2=98
Channel Event. t= 30 (40222) Note On ch=5 par1=62 par2=93
Channel Event. t= 457 (40679) Note Off ch=5 par1=38 par2=64
Channel Event. t= 13 (40692) Note Off ch=5 par1=47 par2=64
Channel Event. t= 350 (41042) Note Off ch=5 par1=54 par2=64
Channel Event. t= 32 (41074) Note Off ch=5 par1=62 par2=64
Channel Event. t= 5 (41079) Note Off ch=5 par1=66 par2=64
Channel Event. t= 43 (41122) Note On ch=5 par1=66 par2=75
Channel Event. t= 30 (41152) Note On ch=5 par1=54 par2=100
Channel Event. t= 0 (41152) Note On ch=5 par1=38 par2=55
Channel Event. t= 0 (41152) Note On ch=5 par1=47 par2=44
Channel Event. t= 0 (41152) Note On ch=5 par1=62 par2=56
Channel Event. t= 340 (41492) Note Off ch=5 par1=66 par2=64
Channel Event. t= 110 (41602) Note On ch=5 par1=66 par2=61
Channel Event. t= 0 (41602) Note On ch=5 par1=74 par2=62
Channel Event. t= 10 (41612) Note Off ch=5 par1=62 par2=64
Channel Event. t= 20 (41632) Note On ch=5 par1=62 par2=88
Channel Event. t= 27 (41659) Note Off ch=5 par1=54 par2=64
Channel Event. t= 23 (41682) Note Off ch=5 par1=38 par2=64
Channel Event. t= 0 (41682) Note Off ch=5 par1=47 par2=64
Channel Event. t= 302 (41984) Note Off ch=5 par1=74 par2=64
Channel Event. t= 5 (41989) Note Off ch=5 par1=66 par2=64
Channel Event. t= 63 (42052) Note Off ch=5 par1=62 par2=64
Channel Event. t= 0 (42052) Note On ch=5 par1=66 par2=89
Channel Event. t= 0 (42052) Note On ch=5 par1=62 par2=94
Channel Event. t= 2 (42054) Note Off ch=5 par1=50 par2=64
Channel Event. t= 58 (42112) Note On ch=5 par1=54 par2=95
Channel Event. t= 0 (42112) Note On ch=5 par1=48 par2=50
Channel Event. t= 0 (42112) Note On ch=5 par1=38 par2=53
Channel Event. t= 0 (42112) Note On ch=5 par1=50 par2=69
Channel Event. t= 525 (42637) Note Off ch=5 par1=48 par2=64
Channel Event. t= 7 (42644) Note Off ch=5 par1=38 par2=64
Channel Event. t= 328 (42972) Note Off ch=5 par1=62 par2=64
Channel Event. t= 17 (42989) Note Off ch=5 par1=66 par2=64
Channel Event. t= 33 (43022) Note Off ch=5 par1=54 par2=64
Channel Event. t= 20 (43042) Note On ch=5 par1=66 par2=72
Channel Event. t= 0 (43042) Note On ch=5 par1=62 par2=61
Channel Event. t= 30 (43072) Note On ch=5 par1=54 par2=93
Channel Event. t= 0 (43072) Note On ch=5 par1=48 par2=46
Channel Event. t= 0 (43072) Note On ch=5 par1=38 par2=49
Channel Event. t= 330 (43402) Note Off ch=5 par1=66 par2=64
Channel Event. t= 90 (43492) Note On ch=5 par1=66 par2=71
Channel Event. t= 0 (43492) Note On ch=5 par1=74 par2=62
Channel Event. t= 20 (43512) Note Off ch=5 par1=62 par2=64
Channel Event. t= 0 (43512) Note Off ch=5 par1=48 par2=64
Channel Event. t= 40 (43552) Note On ch=5 par1=62 par2=81
Channel Event. t= 42 (43594) Note Off ch=5 par1=38 par2=64
Channel Event. t= 5 (43599) Note Off ch=5 par1=54 par2=64
Channel Event. t= 248 (43847) Note Off ch=5 par1=74 par2=64
Channel Event. t= 87 (43934) Note Off ch=5 par1=66 par2=64
Channel Event. t= 38 (43972) Note Off ch=5 par1=62 par2=64
Channel Event. t= 0 (43972) Note On ch=5 par1=67 par2=83
Channel Event. t= 0 (43972) Note On ch=5 par1=62 par2=81
Channel Event. t= 60 (44032) Note On ch=5 par1=59 par2=91
Channel Event. t= 0 (44032) Note On ch=5 par1=31 par2=62
Channel Event. t= 0 (44032) Note On ch=5 par1=43 par2=61
Channel Event. t= 0 (44032) Note On ch=5 par1=55 par2=56
Channel Event. t= 77 (44109) Note Off ch=5 par1=50 par2=64
Channel Event. t= 350 (44459) Note Off ch=5 par1=55 par2=64
Channel Event. t= 53 (44512) Note On ch=5 par1=38 par2=74
Channel Event. t= 0 (44512) Note On ch=5 par1=50 par2=89
Channel Event. t= 20 (44532) Note Off ch=5 par1=43 par2=64
Channel Event. t= 17 (44549) Note Off ch=5 par1=31 par2=64
Channel Event. t= 443 (44992) Note On ch=5 par1=43 par2=47
Channel Event. t= 0 (44992) Note On ch=5 par1=55 par2=82
Channel Event. t= 45 (45037) Note Off ch=5 par1=38 par2=64
Channel Event. t= 30 (45067) Note Off ch=5 par1=50 par2=64
Channel Event. t= 405 (45472) Note On ch=5 par1=45 par2=46
Channel Event. t= 0 (45472) Note On ch=5 par1=57 par2=74
Channel Event. t= 22 (45494) Note Off ch=5 par1=43 par2=64
Channel Event. t= 10 (45504) Note Off ch=5 par1=55 par2=64
Channel Event. t= 448 (45952) Note On ch=5 par1=43 par2=56
Channel Event. t= 0 (45952) Note On ch=5 par1=55 par2=92
Channel Event. t= 37 (45989) Note Off ch=5 par1=45 par2=64
Channel Event. t= 13 (46002) Note Off ch=5 par1=57 par2=64
Channel Event. t= 430 (46432) Note On ch=5 par1=41 par2=36
Channel Event. t= 0 (46432) Note On ch=5 par1=53 par2=56
Channel Event. t= 67 (46499) Note Off ch=5 par1=55 par2=64
Channel Event. t= 15 (46514) Note Off ch=5 par1=43 par2=64
Channel Event. t= 398 (46912) Note On ch=5 par1=40 par2=45
Channel Event. t= 0 (46912) Note On ch=5 par1=52 par2=43
Channel Event. t= 45 (46957) Note Off ch=5 par1=41 par2=64
Channel Event. t= 30 (46987) Note Off ch=5 par1=53 par2=64
Channel Event. t= 405 (47392) Note On ch=5 par1=38 par2=21
Channel Event. t= 0 (47392) Note On ch=5 par1=50 par2=49
Channel Event. t= 25 (47417) Note Off ch=5 par1=40 par2=64
Channel Event. t= 27 (47444) Note Off ch=5 par1=52 par2=64
Channel Event. t= 125 (47569) Note Off ch=5 par1=59 par2=64
Channel Event. t= 213 (47782) Note Off ch=5 par1=62 par2=64
Channel Event. t= 42 (47824) Note Off ch=5 par1=50 par2=64
Channel Event. t= 5 (47829) Note Off ch=5 par1=67 par2=64
Channel Event. t= 13 (47842) Controller ch=5 par1=7 (Main Volume) par2=70
Channel Event. t= 22 (47864) Note Off ch=5 par1=38 par2=64
Channel Event. t= 8 (47872) Note On ch=5 par1=36 par2=15
Channel Event. t= 0 (47872) Note On ch=5 par1=43 par2=41
Channel Event. t= 0 (47872) Note On ch=5 par1=48 par2=26
Channel Event. t= 335 (48207) Note Off ch=5 par1=48 par2=64
Channel Event. t= 115 (48322) Note On ch=5 par1=67 par2=58
Channel Event. t= 0 (48322) Note On ch=5 par1=91 par2=63
Channel Event. t= 2 (48324) Note Off ch=5 par1=36 par2=64
Channel Event. t= 28 (48352) Note Off ch=5 par1=43 par2=64
Channel Event. t= 0 (48352) Note On ch=5 par1=72 par2=58
Channel Event. t= 0 (48352) Note On ch=5 par1=64 par2=45
Channel Event. t= 0 (48352) Note On ch=5 par1=55 par2=45
Channel Event. t= 0 (48352) Note On ch=5 par1=84 par2=41
Channel Event. t= 30 (48382) Note On ch=5 par1=76 par2=69
Channel Event. t= 20 (48402) Note Off ch=5 par1=84 par2=64
Channel Event. t= 10 (48412) Note On ch=5 par1=79 par2=74
Channel Event. t= 10 (48422) Note Off ch=5 par1=91 par2=64
Channel Event. t= 70 (48492) Note Off ch=5 par1=72 par2=64
Channel Event. t= 12 (48504) Note Off ch=5 par1=67 par2=64
Channel Event. t= 20 (48524) Note Off ch=5 par1=76 par2=64
Channel Event. t= 30 (48554) Note Off ch=5 par1=79 par2=64
Channel Event. t= 215 (48769) Note Off ch=5 par1=64 par2=64
Channel Event. t= 23 (48792) Note Off ch=5 par1=55 par2=64
Channel Event. t= 10 (48802) Note On ch=5 par1=83 par2=57
Channel Event. t= 0 (48802) Note On ch=5 par1=91 par2=53
Channel Event. t= 30 (48832) Note On ch=5 par1=39 par2=57
Channel Event. t= 0 (48832) Note On ch=5 par1=47 par2=37
Channel Event. t= 420 (49252) Note On ch=5 par1=67 par2=55
Channel Event. t= 60 (49312) Note On ch=5 par1=71 par2=70
Channel Event. t= 0 (49312) Note On ch=5 par1=63 par2=22
Channel Event. t= 0 (49312) Note On ch=5 par1=54 par2=36
Channel Event. t= 30 (49342) Note On ch=5 par1=75 par2=68
Channel Event. t= 5 (49347) Note Off ch=5 par1=39 par2=64
Channel Event. t= 25 (49372) Note On ch=5 par1=79 par2=69
Channel Event. t= 2 (49374) Note Off ch=5 par1=47 par2=64
Channel Event. t= 15 (49389) Note Off ch=5 par1=67 par2=64
Channel Event. t= 35 (49424) Note Off ch=5 par1=71 par2=64
Channel Event. t= 13 (49437) Note Off ch=5 par1=75 par2=64
Channel Event. t= 17 (49454) Note Off ch=5 par1=79 par2=64
Channel Event. t= 278 (49732) Note Off ch=5 par1=83 par2=64
Channel Event. t= 5 (49737) Note Off ch=5 par1=91 par2=64
Channel Event. t= 50 (49787) Note Off ch=5 par1=54 par2=64
Channel Event. t= 5 (49792) Note On ch=5 par1=43 par2=50
Channel Event. t= 0 (49792) Note On ch=5 par1=36 par2=39
Channel Event. t= 2 (49794) Note Off ch=5 par1=63 par2=64
Channel Event. t= 418 (50212) Note On ch=5 par1=67 par2=41
Channel Event. t= 30 (50242) Note On ch=5 par1=72 par2=66
Channel Event. t= 0 (50242) Note On ch=5 par1=91 par2=46
Channel Event. t= 0 (50242) Note On ch=5 par1=84 par2=47
Channel Event. t= 22 (50264) Note Off ch=5 par1=43 par2=64
Channel Event. t= 5 (50269) Note Off ch=5 par1=36 par2=64
Channel Event. t= 3 (50272) Note On ch=5 par1=79 par2=77
Channel Event. t= 0 (50272) Note On ch=5 par1=76 par2=69
Channel Event. t= 0 (50272) Note On ch=5 par1=55 par2=41
Channel Event. t= 0 (50272) Note On ch=5 par1=64 par2=40
Channel Event. t= 17 (50289) Note Off ch=5 par1=72 par2=64
Channel Event. t= 3 (50292) Note Off ch=5 par1=67 par2=64
Channel Event. t= 15 (50307) Note Off ch=5 par1=84 par2=64
Channel Event. t= 0 (50307) Note Off ch=5 par1=76 par2=64
Channel Event. t= 7 (50314) Note Off ch=5 par1=79 par2=64
Channel Event. t= 13 (50327) Note Off ch=5 par1=91 par2=64
Channel Event. t= 365 (50692) Note On ch=5 par1=83 par2=48
Channel Event. t= 0 (50692) Note On ch=5 par1=91 par2=53
Channel Event. t= 60 (50752) Note Off ch=5 par1=64 par2=64
Channel Event. t= 0 (50752) Note On ch=5 par1=39 par2=54
Channel Event. t= 0 (50752) Note On ch=5 par1=47 par2=40
Channel Event. t= 32 (50784) Note Off ch=5 par1=55 par2=64
Channel Event. t= 418 (51202) Note On ch=5 par1=67 par2=50
Channel Event. t= 30 (51232) Note On ch=5 par1=71 par2=69
Channel Event. t= 0 (51232) Note On ch=5 par1=54 par2=34
Channel Event. t= 0 (51232) Note On ch=5 par1=63 par2=37
Channel Event. t= 27 (51259) Note Off ch=5 par1=39 par2=64
Channel Event. t= 3 (51262) Note On ch=5 par1=75 par2=76
Channel Event. t= 12 (51274) Note Off ch=5 par1=47 par2=64
Channel Event. t= 18 (51292) Note On ch=5 par1=79 par2=63
Channel Event. t= 7 (51299) Note Off ch=5 par1=67 par2=64
Channel Event. t= 35 (51334) Note Off ch=5 par1=71 par2=64
Channel Event. t= 43 (51377) Note Off ch=5 par1=75 par2=64
Channel Event. t= 10 (51387) Note Off ch=5 par1=79 par2=64
Channel Event. t= 275 (51662) Note Off ch=5 par1=91 par2=64
Channel Event. t= 5 (51667) Note Off ch=5 par1=83 par2=64
Channel Event. t= 45 (51712) Note Off ch=5 par1=63 par2=64
Channel Event. t= 0 (51712) Note On ch=5 par1=43 par2=50
Channel Event. t= 0 (51712) Note On ch=5 par1=36 par2=43
Channel Event. t= 47 (51759) Note Off ch=5 par1=54 par2=64
Channel Event. t= 373 (52132) Note On ch=5 par1=67 par2=58
Channel Event. t= 30 (52162) Note On ch=5 par1=91 par2=55
Channel Event. t= 0 (52162) Note On ch=5 par1=84 par2=54
Channel Event. t= 30 (52192) Note On ch=5 par1=72 par2=68
Channel Event. t= 0 (52192) Note On ch=5 par1=55 par2=33
Channel Event. t= 0 (52192) Note On ch=5 par1=64 par2=34
Channel Event. t= 30 (52222) Note On ch=5 par1=76 par2=68
Channel Event. t= 17 (52239) Note Off ch=5 par1=84 par2=64
Channel Event. t= 0 (52239) Note Off ch=5 par1=67 par2=64
Channel Event. t= 10 (52249) Note Off ch=5 par1=91 par2=64
Channel Event. t= 3 (52252) Note On ch=5 par1=79 par2=66
Channel Event. t= 20 (52272) Note Off ch=5 par1=43 par2=64
Channel Event. t= 0 (52272) Note Off ch=5 par1=36 par2=64
Channel Event. t= 40 (52312) Note Off ch=5 par1=72 par2=64
Channel Event. t= 20 (52332) Note Off ch=5 par1=76 par2=64
Channel Event. t= 27 (52359) Note Off ch=5 par1=79 par2=64
Channel Event. t= 283 (52642) Note On ch=5 par1=83 par2=58
Channel Event. t= 0 (52642) Note On ch=5 par1=91 par2=68
Channel Event. t= 25 (52667) Note Off ch=5 par1=55 par2=64
Channel Event. t= 5 (52672) Note Off ch=5 par1=64 par2=64
Channel Event. t= 0 (52672) Note On ch=5 par1=47 par2=52
Channel Event. t= 0 (52672) Note On ch=5 par1=39 par2=61
Channel Event. t= 420 (53092) Note On ch=5 par1=67 par2=56
Channel Event. t= 30 (53122) Note On ch=5 par1=71 par2=69
Channel Event. t= 30 (53152) Note On ch=5 par1=75 par2=72
Channel Event. t= 0 (53152) Note On ch=5 par1=54 par2=45
Channel Event. t= 0 (53152) Note On ch=5 par1=59 par2=50
Channel Event. t= 50 (53202) Note Off ch=5 par1=67 par2=64
Channel Event. t= 5 (53207) Note Off ch=5 par1=39 par2=64
Channel Event. t= 5 (53212) Note On ch=5 par1=79 par2=64
Channel Event. t= 12 (53224) Note Off ch=5 par1=47 par2=64
Channel Event. t= 15 (53239) Note Off ch=5 par1=71 par2=64
Channel Event. t= 38 (53277) Note Off ch=5 par1=75 par2=64
Channel Event. t= 32 (53309) Note Off ch=5 par1=79 par2=64
Channel Event. t= 285 (53594) Note Off ch=5 par1=54 par2=64
Channel Event. t= 0 (53594) Note Off ch=5 par1=59 par2=64
Channel Event. t= 3 (53597) Note Off ch=5 par1=91 par2=64
Channel Event. t= 5 (53602) Note Off ch=5 par1=83 par2=64
Channel Event. t= 30 (53632) Note On ch=5 par1=43 par2=53
Channel Event. t= 0 (53632) Note On ch=5 par1=36 par2=52
Channel Event. t= 480 (54112) Note On ch=5 par1=91 par2=64
Channel Event. t= 0 (54112) Note On ch=5 par1=84 par2=64
Channel Event. t= 47 (54159) Note Off ch=5 par1=43 par2=64
Channel Event. t= 20 (54179) Note Off ch=5 par1=36 par2=64
Channel Event. t= 53 (54232) Note Off ch=5 par1=91 par2=64
Channel Event. t= 0 (54232) Note Off ch=5 par1=84 par2=64
Channel Event. t= 360 (54592) Note On ch=5 par1=39 par2=61
Channel Event. t= 0 (54592) Note On ch=5 par1=47 par2=53
Channel Event. t= 480 (55072) Note On ch=5 par1=91 par2=66
Channel Event. t= 15 (55087) Note On ch=5 par1=83 par2=45
Channel Event. t= 2 (55089) Note Off ch=5 par1=39 par2=64
Channel Event. t= 3 (55092) Note Off ch=5 par1=47 par2=64
Channel Event. t= 95 (55187) Note Off ch=5 par1=91 par2=64
Channel Event. t= 7 (55194) Note Off ch=5 par1=83 par2=64
Channel Event. t= 358 (55552) Note On ch=5 par1=36 par2=44
Channel Event. t= 0 (55552) Note On ch=5 par1=48 par2=53
Channel Event. t= 502 (56054) Note On ch=5 par1=79 par2=48
Channel Event. t= 0 (56054) Note On ch=5 par1=84 par2=46
Channel Event. t= 3 (56057) Note On ch=5 par1=88 par2=55
Channel Event. t= 92 (56149) Note Off ch=5 par1=48 par2=64
Channel Event. t= 25 (56174) Note Off ch=5 par1=36 par2=64
Channel Event. t= 25 (56199) Note Off ch=5 par1=88 par2=64
Channel Event. t= 8 (56207) Note Off ch=5 par1=84 par2=64
Channel Event. t= 2 (56209) Note Off ch=5 par1=79 par2=64
Channel Event. t= 303 (56512) Note On ch=5 par1=42 par2=61
Channel Event. t= 485 (56997) Note On ch=5 par1=83 par2=69
Channel Event. t= 0 (56997) Note On ch=5 par1=87 par2=75
Channel Event. t= 10 (57007) Note On ch=5 par1=78 par2=61
Channel Event. t= 115 (57122) Note Off ch=5 par1=42 par2=64
Channel Event. t= 52 (57174) Note Off ch=5 par1=78 par2=64
Channel Event. t= 3 (57177) Note Off ch=5 par1=83 par2=64
Channel Event. t= 15 (57192) Note Off ch=5 par1=87 par2=64
Channel Event. t= 280 (57472) Note On ch=5 par1=48 par2=40
Channel Event. t= 0 (57472) Note On ch=5 par1=36 par2=38
Channel Event. t= 490 (57962) Note On ch=5 par1=84 par2=62
Channel Event. t= 2 (57964) Note On ch=5 par1=88 par2=59
Channel Event. t= 3 (57967) Note On ch=5 par1=79 par2=56
Channel Event. t= 82 (58049) Note Off ch=5 par1=48 par2=64
Channel Event. t= 23 (58072) Note Off ch=5 par1=36 par2=64
Channel Event. t= 65 (58137) Note Off ch=5 par1=84 par2=64
Channel Event. t= 0 (58137) Note Off ch=5 par1=88 par2=64
Channel Event. t= 2 (58139) Note Off ch=5 par1=79 par2=64
Channel Event. t= 293 (58432) Note On ch=5 par1=42 par2=66
Channel Event. t= 472 (58904) Note On ch=5 par1=87 par2=75
Channel Event. t= 5 (58909) Note On ch=5 par1=83 par2=71
Channel Event. t= 0 (58909) Note On ch=5 par1=78 par2=68
Channel Event. t= 75 (58984) Note Off ch=5 par1=42 par2=64
Channel Event. t= 83 (59067) Note Off ch=5 par1=78 par2=64
Channel Event. t= 10 (59077) Note Off ch=5 par1=83 par2=64
Channel Event. t= 2 (59079) Note Off ch=5 par1=87 par2=64
Channel Event. t= 313 (59392) Note On ch=5 par1=36 par2=26
Channel Event. t= 0 (59392) Note On ch=5 par1=48 par2=40
Channel Event. t= 475 (59867) Note On ch=5 par1=84 par2=71
Channel Event. t= 2 (59869) Note On ch=5 par1=79 par2=63
Channel Event. t= 0 (59869) Note On ch=5 par1=88 par2=73
Channel Event. t= 100 (59969) Note Off ch=5 par1=36 par2=64
Channel Event. t= 8 (59977) Note Off ch=5 par1=48 par2=64
Channel Event. t= 72 (60049) Note Off ch=5 par1=88 par2=64
Channel Event. t= 3 (60052) Note Off ch=5 par1=84 par2=64
Channel Event. t= 10 (60062) Note Off ch=5 par1=79 par2=64
Channel Event. t= 290 (60352) Note On ch=5 par1=42 par2=52
Channel Event. t= 447 (60799) Note On ch=5 par1=87 par2=76
Channel Event. t= 3 (60802) Note On ch=5 par1=78 par2=68
Channel Event. t= 2 (60804) Note On ch=5 par1=83 par2=70
Channel Event. t= 85 (60889) Note Off ch=5 par1=42 par2=64
Channel Event. t= 113 (61002) Note Off ch=5 par1=78 par2=64
Channel Event. t= 5 (61007) Note Off ch=5 par1=87 par2=64
Channel Event. t= 0 (61007) Note Off ch=5 par1=83 par2=64
Channel Event. t= 305 (61312) Note On ch=5 par1=48 par2=37
Channel Event. t= 0 (61312) Note On ch=5 par1=36 par2=46
Channel Event. t= 447 (61759) Note On ch=5 par1=79 par2=54
Channel Event. t= 0 (61759) Note On ch=5 par1=84 par2=61
Channel Event. t= 5 (61764) Note On ch=5 par1=88 par2=61
Channel Event. t= 128 (61892) Note Off ch=5 par1=48 par2=64
Channel Event. t= 27 (61919) Note Off ch=5 par1=36 par2=64
Channel Event. t= 40 (61959) Note Off ch=5 par1=88 par2=64
Channel Event. t= 5 (61964) Note Off ch=5 par1=84 par2=64
Channel Event. t= 3 (61967) Note Off ch=5 par1=79 par2=64
Channel Event. t= 305 (62272) Note On ch=5 par1=42 par2=59
Channel Event. t= 462 (62734) Note On ch=5 par1=87 par2=76
Channel Event. t= 3 (62737) Note On ch=5 par1=83 par2=67
Channel Event. t= 0 (62737) Note On ch=5 par1=78 par2=68
Channel Event. t= 97 (62834) Note Off ch=5 par1=42 par2=64
Channel Event. t= 55 (62889) Note Off ch=5 par1=78 par2=64
Channel Event. t= 8 (62897) Note Off ch=5 par1=83 par2=64
Channel Event. t= 5 (62902) Note Off ch=5 par1=87 par2=64
Channel Event. t= 330 (63232) Note On ch=5 par1=48 par2=42
Channel Event. t= 0 (63232) Note On ch=5 par1=36 par2=55
Channel Event. t= 457 (63689) Note On ch=5 par1=79 par2=56
Channel Event. t= 3 (63692) Note On ch=5 par1=88 par2=61
Channel Event. t= 2 (63694) Note On ch=5 par1=84 par2=62
Channel Event. t= 153 (63847) Note Off ch=5 par1=48 par2=64
Channel Event. t= 32 (63879) Note Off ch=5 par1=36 par2=64
Channel Event. t= 0 (63879) Note Off ch=5 par1=84 par2=64
Channel Event. t= 5 (63884) Note Off ch=5 par1=88 par2=64
Channel Event. t= 5 (63889) Note Off ch=5 par1=79 par2=64
Channel Event. t= 303 (64192) Note On ch=5 par1=42 par2=50
Channel Event. t= 460 (64652) Note On ch=5 par1=87 par2=74
Channel Event. t= 2 (64654) Note On ch=5 par1=78 par2=66
Channel Event. t= 3 (64657) Note On ch=5 par1=83 par2=68
Channel Event. t= 85 (64742) Note Off ch=5 par1=42 par2=64
Channel Event. t= 52 (64794) Note Off ch=5 par1=78 par2=64
Channel Event. t= 23 (64817) Note Off ch=5 par1=87 par2=64
Channel Event. t= 0 (64817) Note Off ch=5 par1=83 par2=64
Channel Event. t= 335 (65152) Note On ch=5 par1=36 par2=50
Channel Event. t= 0 (65152) Note On ch=5 par1=48 par2=40
Channel Event. t= 455 (65607) Note On ch=5 par1=88 par2=73
Channel Event. t= 155 (65762) Note Off ch=5 par1=48 par2=64
Channel Event. t= 15 (65777) Note Off ch=5 par1=36 par2=64
Channel Event. t= 5 (65782) Note Off ch=5 par1=88 par2=64
Channel Event. t= 330 (66112) Note On ch=5 par1=42 par2=56
Channel Event. t= 440 (66552) Note On ch=5 par1=87 par2=68
Channel Event. t= 100 (66652) Note Off ch=5 par1=42 par2=64
Channel Event. t= 90 (66742) Note Off ch=5 par1=87 par2=64
Channel Event. t= 330 (67072) Note On ch=5 par1=48 par2=43
Channel Event. t= 0 (67072) Note On ch=5 par1=36 par2=53
Channel Event. t= 455 (67527) Note On ch=5 par1=88 par2=78
Channel Event. t= 127 (67654) Note Off ch=5 par1=48 par2=64
Channel Event. t= 30 (67684) Note Off ch=5 par1=36 par2=64
Channel Event. t= 35 (67719) Note Off ch=5 par1=88 par2=64
Channel Event. t= 313 (68032) Note On ch=5 par1=42 par2=56
Channel Event. t= 475 (68507) Note On ch=5 par1=87 par2=80
Channel Event. t= 70 (68577) Note Off ch=5 par1=42 par2=64
Channel Event. t= 80 (68657) Note Off ch=5 par1=87 par2=64
Channel Event. t= 335 (68992) Note On ch=5 par1=48 par2=32
Channel Event. t= 0 (68992) Note On ch=5 par1=36 par2=52
Channel Event. t= 462 (69454) Note On ch=5 par1=88 par2=82
Channel Event. t= 95 (69549) Note Off ch=5 par1=48 par2=64
Channel Event. t= 38 (69587) Note Off ch=5 par1=36 par2=64
Channel Event. t= 52 (69639) Note Off ch=5 par1=88 par2=64
Channel Event. t= 313 (69952) Note On ch=5 par1=42 par2=58
Channel Event. t= 447 (70399) Note On ch=5 par1=87 par2=80
Channel Event. t= 3 (70402) Note On ch=5 par1=90 par2=77
Channel Event. t= 77 (70479) Note Off ch=5 par1=42 par2=64
Channel Event. t= 90 (70569) Note Off ch=5 par1=90 par2=64
Channel Event. t= 8 (70577) Note Off ch=5 par1=87 par2=64
Channel Event. t= 335 (70912) Note On ch=5 par1=48 par2=48
Channel Event. t= 0 (70912) Note On ch=5 par1=36 par2=47
Channel Event. t= 120 (71032) Controller ch=5 par1=10 (Pan) par2=30
Channel Event. t= 335 (71367) Note On ch=5 par1=88 par2=75
Channel Event. t= 115 (71482) Note Off ch=5 par1=48 par2=64
Channel Event. t= 12 (71494) Note Off ch=5 par1=36 par2=64
Channel Event. t= 68 (71562) Note Off ch=5 par1=88 par2=64
Channel Event. t= 310 (71872) Note On ch=5 par1=42 par2=65
Channel Event. t= 487 (72359) Note On ch=5 par1=90 par2=84
Channel Event. t= 3 (72362) Note On ch=5 par1=87 par2=83
Channel Event. t= 162 (72524) Note Off ch=5 par1=87 par2=64
Channel Event. t= 10 (72534) Note Off ch=5 par1=90 par2=64
Channel Event. t= 133 (72667) Note Off ch=5 par1=42 par2=64
Channel Event. t= 45 (72712) Controller ch=5 par1=7 (Main Volume) par2=80
Channel Event. t= 120 (72832) Note On ch=5 par1=47 par2=62
Channel Event. t= 0 (72832) Note On ch=5 par1=35 par2=69
Channel Event. t= 0 (72832) Note On ch=5 par1=71 par2=64
Channel Event. t= 0 (72832) Note On ch=5 par1=83 par2=64
Channel Event. t= 0 (72832) Note On ch=5 par1=59 par2=73
Channel Event. t= 350 (73182) Note Off ch=5 par1=47 par2=64
Channel Event. t= 2 (73184) Note Off ch=5 par1=35 par2=64
Channel Event. t= 128 (73312) Note On ch=5 par1=48 par2=26
Channel Event. t= 0 (73312) Note On ch=5 par1=36 par2=51
Channel Event. t= 320 (73632) Note Off ch=5 par1=48 par2=64
Channel Event. t= 60 (73692) Note Off ch=5 par1=36 par2=64
Channel Event. t= 100 (73792) Note On ch=5 par1=49 par2=61
Channel Event. t= 0 (73792) Note On ch=5 par1=37 par2=75
Channel Event. t= 312 (74104) Note Off ch=5 par1=37 par2=64
Channel Event. t= 18 (74122) Note Off ch=5 par1=49 par2=64
Channel Event. t= 150 (74272) Note On ch=5 par1=38 par2=64
Channel Event. t= 0 (74272) Note On ch=5 par1=50 par2=63
Channel Event. t= 187 (74459) Note Off ch=5 par1=50 par2=64
Channel Event. t= 60 (74519) Note Off ch=5 par1=38 par2=64
Channel Event. t= 213 (74732) Note Off ch=5 par1=59 par2=64
Channel Event. t= 10 (74742) Note On ch=5 par1=47 par2=89
Channel Event. t= 7 (74749) Note On ch=5 par1=28 par2=74
Channel Event. t= 3 (74752) Note Off ch=5 par1=71 par2=64
Channel Event. t= 0 (74752) Note Off ch=5 par1=83 par2=64
Channel Event. t= 10 (74762) Note On ch=5 par1=40 par2=55
Channel Event. t= 235 (74997) Note Off ch=5 par1=28 par2=64
Channel Event. t= 17 (75014) Note Off ch=5 par1=40 par2=64
Channel Event. t= 38 (75052) Note Off ch=5 par1=47 par2=64
Channel Event. t= 0 (75052) Note On ch=5 par1=48 par2=66
Channel Event. t= 60 (75112) Note Off ch=5 par1=48 par2=64
Channel Event. t= 0 (75112) Note On ch=5 par1=47 par2=76
Channel Event. t= 60 (75172) Note Off ch=5 par1=47 par2=64
Channel Event. t= 0 (75172) Note On ch=5 par1=48 par2=71
Channel Event. t= 37 (75209) Note On ch=5 par1=42 par2=50
Channel Event. t= 0 (75209) Note On ch=5 par1=30 par2=74
Channel Event. t= 23 (75232) Note Off ch=5 par1=48 par2=64
Channel Event. t= 0 (75232) Note On ch=5 par1=47 par2=74
Channel Event. t= 60 (75292) Note Off ch=5 par1=47 par2=64
Channel Event. t= 0 (75292) Note On ch=5 par1=48 par2=66
Channel Event. t= 60 (75352) Note Off ch=5 par1=48 par2=64
Channel Event. t= 0 (75352) Note On ch=5 par1=47 par2=72
Channel Event. t= 60 (75412) Note Off ch=5 par1=47 par2=64
Channel Event. t= 0 (75412) Note On ch=5 par1=48 par2=68
Channel Event. t= 60 (75472) Note Off ch=5 par1=48 par2=64
Channel Event. t= 0 (75472) Note On ch=5 par1=47 par2=70
Channel Event. t= 60 (75532) Note Off ch=5 par1=47 par2=64
Channel Event. t= 0 (75532) Note On ch=5 par1=48 par2=68
Channel Event. t= 47 (75579) Note Off ch=5 par1=30 par2=64
Channel Event. t= 10 (75589) Note Off ch=5 par1=42 par2=64
Channel Event. t= 3 (75592) Note Off ch=5 par1=48 par2=64
Channel Event. t= 0 (75592) Note On ch=5 par1=47 par2=72
Channel Event. t= 60 (75652) Note Off ch=5 par1=47 par2=64
Channel Event. t= 0 (75652) Note On ch=5 par1=48 par2=69
Channel Event. t= 60 (75712) Note Off ch=5 par1=48 par2=64
Channel Event. t= 0 (75712) Note On ch=5 par1=47 par2=69
Channel Event. t= 7 (75719) Note On ch=5 par1=43 par2=45
Channel Event. t= 10 (75729) Note On ch=5 par1=31 par2=55
Channel Event. t= 43 (75772) Note Off ch=5 par1=47 par2=64
Channel Event. t= 0 (75772) Note On ch=5 par1=48 par2=73
Channel Event. t= 60 (75832) Note Off ch=5 par1=48 par2=64
Channel Event. t= 0 (75832) Note On ch=5 par1=47 par2=67
Channel Event. t= 60 (75892) Note Off ch=5 par1=47 par2=64
Channel Event. t= 0 (75892) Note On ch=5 par1=48 par2=68
Channel Event. t= 60 (75952) Note On ch=5 par1=47 par2=70
Channel Event. t= 20 (75972) Note Off ch=5 par1=48 par2=64
Channel Event. t= 40 (76012) Note Off ch=5 par1=47 par2=64
Channel Event. t= 0 (76012) Note On ch=5 par1=48 par2=71
Channel Event. t= 7 (76019) Note Off ch=5 par1=43 par2=64
Channel Event. t= 5 (76024) Note Off ch=5 par1=31 par2=64
Channel Event. t= 48 (76072) Note Off ch=5 par1=48 par2=64
Channel Event. t= 0 (76072) Note On ch=5 par1=47 par2=64
Channel Event. t= 60 (76132) Note On ch=5 par1=48 par2=70
Channel Event. t= 20 (76152) Note Off ch=5 par1=47 par2=64
Channel Event. t= 40 (76192) Note On ch=5 par1=47 par2=66
Channel Event. t= 2 (76194) Note On ch=5 par1=42 par2=33
Channel Event. t= 0 (76194) Note On ch=5 par1=30 par2=61
Channel Event. t= 18 (76212) Note Off ch=5 par1=48 par2=64
Channel Event. t= 40 (76252) Note On ch=5 par1=48 par2=67
Channel Event. t= 20 (76272) Note Off ch=5 par1=47 par2=64
Channel Event. t= 40 (76312) Note Off ch=5 par1=48 par2=64
Channel Event. t= 0 (76312) Note On ch=5 par1=47 par2=70
Channel Event. t= 175 (76487) Note Off ch=5 par1=42 par2=64
Channel Event. t= 77 (76564) Note Off ch=5 par1=30 par2=64
Channel Event. t= 48 (76612) Note Off ch=5 par1=47 par2=64
Channel Event. t= 57 (76669) Note On ch=5 par1=40 par2=51
Channel Event. t= 0 (76669) Note On ch=5 par1=28 par2=75
Channel Event. t= 3 (76672) Note On ch=5 par1=47 par2=98
Channel Event. t= 187 (76859) Note Off ch=5 par1=47 par2=64
Channel Event. t= 53 (76912) Note On ch=5 par1=47 par2=74
Channel Event. t= 60 (76972) Note Off ch=5 par1=47 par2=64
Channel Event. t= 0 (76972) Note On ch=5 par1=48 par2=74
Channel Event. t= 30 (77002) Note Off ch=5 par1=28 par2=64
Channel Event. t= 2 (77004) Note Off ch=5 par1=40 par2=64
Channel Event. t= 28 (77032) Note Off ch=5 par1=48 par2=64
Channel Event. t= 0 (77032) Note On ch=5 par1=47 par2=68
Channel Event. t= 60 (77092) Note Off ch=5 par1=47 par2=64
Channel Event. t= 0 (77092) Note On ch=5 par1=48 par2=71
Channel Event. t= 37 (77129) Note On ch=5 par1=30 par2=65
Channel Event. t= 23 (77152) Note Off ch=5 par1=48 par2=64
Channel Event. t= 0 (77152) Note On ch=5 par1=47 par2=68
Channel Event. t= 2 (77154) Note On ch=5 par1=42 par2=29
Channel Event. t= 58 (77212) Note Off ch=5 par1=47 par2=64
Channel Event. t= 0 (77212) Note On ch=5 par1=48 par2=73
Channel Event. t= 60 (77272) Note Off ch=5 par1=48 par2=64
Channel Event. t= 0 (77272) Note On ch=5 par1=47 par2=62
Channel Event. t= 60 (77332) Note Off ch=5 par1=47 par2=64
Channel Event. t= 0 (77332) Note On ch=5 par1=48 par2=75
Channel Event. t= 60 (77392) Note On ch=5 par1=47 par2=66
Channel Event. t= 10 (77402) Note Off ch=5 par1=48 par2=64
Channel Event. t= 50 (77452) Note Off ch=5 par1=47 par2=64
Channel Event. t= 0 (77452) Note On ch=5 par1=48 par2=72
Channel Event. t= 60 (77512) Note On ch=5 par1=47 par2=67
Channel Event. t= 12 (77524) Note Off ch=5 par1=48 par2=64
Channel Event. t= 5 (77529) Note Off ch=5 par1=42 par2=64
Channel Event. t= 8 (77537) Note Off ch=5 par1=30 par2=64
Channel Event. t= 35 (77572) Note Off ch=5 par1=47 par2=64
Channel Event. t= 0 (77572) Note On ch=5 par1=48 par2=75
Channel Event. t= 35 (77607) Note On ch=5 par1=43 par2=65
Channel Event. t= 7 (77614) Note On ch=5 par1=31 par2=61
Channel Event. t= 18 (77632) Note Off ch=5 par1=48 par2=64
Channel Event. t= 0 (77632) Note On ch=5 par1=47 par2=69
Channel Event. t= 60 (77692) Note Off ch=5 par1=47 par2=64
Channel Event. t= 0 (77692) Note On ch=5 par1=48 par2=70
Channel Event. t= 60 (77752) Note Off ch=5 par1=48 par2=64
Channel Event. t= 0 (77752) Note On ch=5 par1=47 par2=62
Channel Event. t= 60 (77812) Note On ch=5 par1=48 par2=73
Channel Event. t= 2 (77814) Note Off ch=5 par1=47 par2=64
Channel Event. t= 58 (77872) Note On ch=5 par1=47 par2=63
Channel Event. t= 2 (77874) Note Off ch=5 par1=48 par2=64
Channel Event. t= 58 (77932) Note Off ch=5 par1=47 par2=64
Channel Event. t= 0 (77932) Note On ch=5 par1=48 par2=69
Channel Event. t= 22 (77954) Note Off ch=5 par1=43 par2=64
Channel Event. t= 38 (77992) Note Off ch=5 par1=48 par2=64
Channel Event. t= 0 (77992) Note On ch=5 par1=47 par2=68
Channel Event. t= 60 (78052) Note Off ch=5 par1=47 par2=64
Channel Event. t= 0 (78052) Note On ch=5 par1=48 par2=74
Channel Event. t= 40 (78092) Note On ch=5 par1=30 par2=77
Channel Event. t= 12 (78104) Note On ch=5 par1=42 par2=59
Channel Event. t= 8 (78112) Note Off ch=5 par1=48 par2=64
Channel Event. t= 0 (78112) Note On ch=5 par1=47 par2=64
Channel Event. t= 20 (78132) Note Off ch=5 par1=31 par2=64
Channel Event. t= 40 (78172) Note On ch=5 par1=48 par2=69
Channel Event. t= 20 (78192) Note Off ch=5 par1=47 par2=64
Channel Event. t= 40 (78232) Note On ch=5 par1=47 par2=81
Channel Event. t= 20 (78252) Note Off ch=5 par1=48 par2=64
Channel Event. t= 280 (78532) Note Off ch=5 par1=47 par2=64
Channel Event. t= 30 (78562) Note Off ch=5 par1=42 par2=64
Channel Event. t= 12 (78574) Note On ch=5 par1=28 par2=75
Channel Event. t= 3 (78577) Note Off ch=5 par1=30 par2=64
Channel Event. t= 0 (78577) Note On ch=5 par1=40 par2=67
Channel Event. t= 5 (78582) Note On ch=5 par1=47 par2=97
Channel Event. t= 10 (78592) Note Off ch=5 par1=47 par2=64
Channel Event. t= 0 (78592) Note On ch=5 par1=47 par2=62
Channel Event. t= 2 (78594) Note Off ch=5 par1=47 par2=64
Channel Event. t= 178 (78772) Note On ch=5 par1=48 par2=69
Channel Event. t= 60 (78832) Note On ch=5 par1=47 par2=63
Channel Event. t= 20 (78852) Note Off ch=5 par1=48 par2=64
Channel Event. t= 40 (78892) Note On ch=5 par1=48 par2=63
Channel Event. t= 20 (78912) Note Off ch=5 par1=47 par2=64
Channel Event. t= 40 (78952) Note Off ch=5 par1=48 par2=64
Channel Event. t= 0 (78952) Note On ch=5 par1=47 par2=66
Channel Event. t= 60 (79012) Note On ch=5 par1=48 par2=66
Channel Event. t= 2 (79014) Note Off ch=5 par1=28 par2=64
Channel Event. t= 13 (79027) Note Off ch=5 par1=47 par2=64
Channel Event. t= 22 (79049) Note On ch=5 par1=30 par2=61
Channel Event. t= 13 (79062) Note On ch=5 par1=42 par2=65
Channel Event. t= 7 (79069) Note Off ch=5 par1=40 par2=64
Channel Event. t= 3 (79072) Note Off ch=5 par1=48 par2=64
Channel Event. t= 0 (79072) Note On ch=5 par1=47 par2=64
Channel Event. t= 60 (79132) Note Off ch=5 par1=47 par2=64
Channel Event. t= 0 (79132) Note On ch=5 par1=48 par2=64
Channel Event. t= 60 (79192) Note On ch=5 par1=47 par2=71
Channel Event. t= 20 (79212) Note Off ch=5 par1=48 par2=64
Channel Event. t= 40 (79252) Note Off ch=5 par1=47 par2=64
Channel Event. t= 0 (79252) Note On ch=5 par1=48 par2=65
Channel Event. t= 60 (79312) Note Off ch=5 par1=48 par2=64
Channel Event. t= 0 (79312) Note On ch=5 par1=47 par2=74
Channel Event. t= 60 (79372) Note Off ch=5 par1=47 par2=64
Channel Event. t= 0 (79372) Note On ch=5 par1=48 par2=63
Channel Event. t= 60 (79432) Note Off ch=5 par1=48 par2=64
Channel Event. t= 0 (79432) Note On ch=5 par1=47 par2=69
Channel Event. t= 50 (79482) Note Off ch=5 par1=42 par2=64
Channel Event. t= 10 (79492) Note Off ch=5 par1=47 par2=64
Channel Event. t= 0 (79492) Note On ch=5 par1=48 par2=68
Channel Event. t= 2 (79494) Note Off ch=5 par1=30 par2=64
Channel Event. t= 18 (79512) Note On ch=5 par1=31 par2=60
Channel Event. t= 5 (79517) Note On ch=5 par1=43 par2=54
Channel Event. t= 35 (79552) Note Off ch=5 par1=48 par2=64
Channel Event. t= 0 (79552) Note On ch=5 par1=47 par2=64
Channel Event. t= 60 (79612) Note On ch=5 par1=48 par2=65
Channel Event. t= 5 (79617) Note Off ch=5 par1=47 par2=64
Channel Event. t= 55 (79672) Note On ch=5 par1=47 par2=67
Channel Event. t= 10 (79682) Note Off ch=5 par1=48 par2=64
Channel Event. t= 50 (79732) Note Off ch=5 par1=47 par2=64
Channel Event. t= 0 (79732) Note On ch=5 par1=48 par2=77
Channel Event. t= 60 (79792) Note On ch=5 par1=47 par2=69
Channel Event. t= 2 (79794) Note Off ch=5 par1=48 par2=64
Channel Event. t= 58 (79852) Note Off ch=5 par1=47 par2=64
Channel Event. t= 0 (79852) Note On ch=5 par1=48 par2=78
Channel Event. t= 60 (79912) Note On ch=5 par1=47 par2=71
Channel Event. t= 15 (79927) Note Off ch=5 par1=48 par2=64
Channel Event. t= 45 (79972) Note Off ch=5 par1=47 par2=64
Channel Event. t= 0 (79972) Note On ch=5 par1=48 par2=74
Channel Event. t= 20 (79992) Note On ch=5 par1=40 par2=62
Channel Event. t= 2 (79994) Note Off ch=5 par1=31 par2=64
Channel Event. t= 8 (80002) Note On ch=5 par1=28 par2=67
Channel Event. t= 20 (80022) Note Off ch=5 par1=43 par2=64
Channel Event. t= 10 (80032) Note On ch=5 par1=47 par2=66
Channel Event. t= 17 (80049) Note Off ch=5 par1=48 par2=64
Channel Event. t= 43 (80092) Note On ch=5 par1=48 par2=74
Channel Event. t= 20 (80112) Note Off ch=5 par1=47 par2=64
Channel Event. t= 40 (80152) Note On ch=5 par1=47 par2=92
Channel Event. t= 20 (80172) Note Off ch=5 par1=48 par2=64
Channel Event. t= 280 (80452) Note Off ch=5 par1=47 par2=64
Channel Event. t= 32 (80484) Note On ch=5 par1=42 par2=70
Channel Event. t= 3 (80487) Note On ch=5 par1=30 par2=63
Channel Event. t= 7 (80494) Note Off ch=5 par1=28 par2=64
Channel Event. t= 3 (80497) Note Off ch=5 par1=40 par2=64
Channel Event. t= 15 (80512) Note On ch=5 par1=52 par2=94
Channel Event. t= 210 (80722) Note Off ch=5 par1=52 par2=64
Channel Event. t= 30 (80752) Note On ch=5 par1=54 par2=69
Channel Event. t= 60 (80812) Note On ch=5 par1=52 par2=91
Channel Event. t= 17 (80829) Note Off ch=5 par1=54 par2=64
Channel Event. t= 43 (80872) Note On ch=5 par1=54 par2=72
Channel Event. t= 10 (80882) Note Off ch=5 par1=52 par2=64
Channel Event. t= 50 (80932) Note On ch=5 par1=52 par2=88
Channel Event. t= 12 (80944) Note Off ch=5 par1=54 par2=64
Channel Event. t= 20 (80964) Note On ch=5 par1=40 par2=58
Channel Event. t= 25 (80989) Note On ch=5 par1=28 par2=68
Channel Event. t= 3 (80992) Note Off ch=5 par1=30 par2=64
Channel Event. t= 0 (80992) Note On ch=5 par1=54 par2=74
Channel Event. t= 15 (81007) Note Off ch=5 par1=42 par2=64
Channel Event. t= 7 (81014) Note Off ch=5 par1=52 par2=64
Channel Event. t= 38 (81052) Note Off ch=5 par1=54 par2=64
Channel Event. t= 0 (81052) Note On ch=5 par1=52 par2=78
Channel Event. t= 60 (81112) Note Off ch=5 par1=52 par2=64
Channel Event. t= 0 (81112) Note On ch=5 par1=54 par2=71
Channel Event. t= 60 (81172) Note Off ch=5 par1=54 par2=64
Channel Event. t= 0 (81172) Note On ch=5 par1=52 par2=74
Channel Event. t= 60 (81232) Note On ch=5 par1=54 par2=70
Channel Event. t= 10 (81242) Note Off ch=5 par1=52 par2=64
Channel Event. t= 50 (81292) Note Off ch=5 par1=54 par2=64
Channel Event. t= 0 (81292) Note On ch=5 par1=52 par2=62
Channel Event. t= 60 (81352) Note On ch=5 par1=54 par2=65
Channel Event. t= 12 (81364) Note Off ch=5 par1=52 par2=64
Channel Event. t= 48 (81412) Note Off ch=5 par1=54 par2=64
Channel Event. t= 0 (81412) Note On ch=5 par1=52 par2=82
Channel Event. t= 32 (81444) Note On ch=5 par1=30 par2=68
Channel Event. t= 3 (81447) Note On ch=5 par1=42 par2=71
Channel Event. t= 15 (81462) Note Off ch=5 par1=28 par2=64
Channel Event. t= 10 (81472) Note Off ch=5 par1=52 par2=64
Channel Event. t= 0 (81472) Note On ch=5 par1=54 par2=74
Channel Event. t= 10 (81482) Note Off ch=5 par1=40 par2=64
Channel Event. t= 50 (81532) Note On ch=5 par1=52 par2=67
Channel Event. t= 20 (81552) Note Off ch=5 par1=54 par2=64
Channel Event. t= 40 (81592) Note Off ch=5 par1=52 par2=64
Channel Event. t= 0 (81592) Note On ch=5 par1=54 par2=71
Channel Event. t= 60 (81652) Note On ch=5 par1=52 par2=72
Channel Event. t= 20 (81672) Note Off ch=5 par1=54 par2=64
Channel Event. t= 40 (81712) Note On ch=5 par1=54 par2=74
Channel Event. t= 20 (81732) Note Off ch=5 par1=52 par2=64
Channel Event. t= 40 (81772) Note On ch=5 par1=52 par2=74
Channel Event. t= 20 (81792) Note Off ch=5 par1=54 par2=64
Channel Event. t= 40 (81832) Note On ch=5 par1=54 par2=70
Channel Event. t= 20 (81852) Note Off ch=5 par1=52 par2=64
Channel Event. t= 40 (81892) Note On ch=5 par1=52 par2=72
Channel Event. t= 10 (81902) Note Off ch=5 par1=30 par2=64
Channel Event. t= 10 (81912) Note Off ch=5 par1=54 par2=64
Channel Event. t= 12 (81924) Note On ch=5 par1=38 par2=82
Channel Event. t= 10 (81934) Note Off ch=5 par1=42 par2=64
Channel Event. t= 18 (81952) Note On ch=5 par1=54 par2=69
Channel Event. t= 20 (81972) Note Off ch=5 par1=52 par2=64
Channel Event. t= 40 (82012) Note On ch=5 par1=52 par2=69
Channel Event. t= 20 (82032) Note Off ch=5 par1=54 par2=64
Channel Event. t= 40 (82072) Note Off ch=5 par1=52 par2=64
Channel Event. t= 0 (82072) Note On ch=5 par1=54 par2=71
Channel Event. t= 60 (82132) Note On ch=5 par1=52 par2=73
Channel Event. t= 20 (82152) Note Off ch=5 par1=54 par2=64
Channel Event. t= 252 (82404) Note On ch=5 par1=40 par2=74
Channel Event. t= 50 (82454) Note Off ch=5 par1=38 par2=64
Channel Event. t= 0 (82454) Note On ch=5 par1=47 par2=87
Channel Event. t= 0 (82454) Note On ch=5 par1=45 par2=83
Channel Event. t= 38 (82492) Note Off ch=5 par1=52 par2=64
Channel Event. t= 47 (82539) Note Off ch=5 par1=45 par2=64
Channel Event. t= 133 (82672) Note On ch=5 par1=48 par2=77
Channel Event. t= 22 (82694) Note Off ch=5 par1=47 par2=64
Channel Event. t= 38 (82732) Note Off ch=5 par1=48 par2=64
Channel Event. t= 0 (82732) Note On ch=5 par1=47 par2=71
Channel Event. t= 60 (82792) Note On ch=5 par1=48 par2=71
Channel Event. t= 20 (82812) Note Off ch=5 par1=47 par2=64
Channel Event. t= 40 (82852) Note On ch=5 par1=47 par2=77
Channel Event. t= 15 (82867) Note Off ch=5 par1=48 par2=64
Channel Event. t= 20 (82887) Note On ch=5 par1=42 par2=75
Channel Event. t= 25 (82912) Note On ch=5 par1=48 par2=68
Channel Event. t= 5 (82917) Note Off ch=5 par1=40 par2=64
Channel Event. t= 17 (82934) Note Off ch=5 par1=47 par2=64
Channel Event. t= 38 (82972) Note On ch=5 par1=47 par2=70
Channel Event. t= 5 (82977) Note Off ch=5 par1=48 par2=64
Channel Event. t= 55 (83032) Note On ch=5 par1=48 par2=72
Channel Event. t= 22 (83054) Note Off ch=5 par1=47 par2=64
Channel Event. t= 38 (83092) Note Off ch=5 par1=48 par2=64
Channel Event. t= 0 (83092) Note On ch=5 par1=47 par2=70
Channel Event. t= 60 (83152) Note On ch=5 par1=48 par2=68
Channel Event. t= 22 (83174) Note Off ch=5 par1=47 par2=64
Channel Event. t= 38 (83212) Note Off ch=5 par1=48 par2=64
Channel Event. t= 0 (83212) Note On ch=5 par1=47 par2=69
Channel Event. t= 60 (83272) Note Off ch=5 par1=47 par2=64
Channel Event. t= 0 (83272) Note On ch=5 par1=48 par2=73
Channel Event. t= 60 (83332) Note Off ch=5 par1=48 par2=64
Channel Event. t= 0 (83332) Note On ch=5 par1=47 par2=74
Channel Event. t= 27 (83359) Note Off ch=5 par1=42 par2=64
Channel Event. t= 0 (83359) Note On ch=5 par1=43 par2=55
Channel Event. t= 33 (83392) Note Off ch=5 par1=47 par2=64
Channel Event. t= 0 (83392) Note On ch=5 par1=48 par2=73
Channel Event. t= 60 (83452) Note On ch=5 par1=47 par2=69
Channel Event. t= 20 (83472) Note Off ch=5 par1=48 par2=64
Channel Event. t= 40 (83512) Note Off ch=5 par1=47 par2=64
Channel Event. t= 0 (83512) Note On ch=5 par1=48 par2=76
Channel Event. t= 60 (83572) Note On ch=5 par1=47 par2=71
Channel Event. t= 15 (83587) Note Off ch=5 par1=48 par2=64
Channel Event. t= 45 (83632) Note On ch=5 par1=48 par2=71
Channel Event. t= 20 (83652) Note Off ch=5 par1=47 par2=64
Channel Event. t= 40 (83692) Note Off ch=5 par1=48 par2=64
Channel Event. t= 0 (83692) Note On ch=5 par1=47 par2=74
Channel Event. t= 60 (83752) Note On ch=5 par1=48 par2=74
Channel Event. t= 20 (83772) Note Off ch=5 par1=47 par2=64
Channel Event. t= 40 (83812) Note On ch=5 par1=47 par2=72
Channel Event. t= 20 (83832) Note Off ch=5 par1=48 par2=64
Channel Event. t= 7 (83839) Note On ch=5 par1=42 par2=68
Channel Event. t= 33 (83872) Note On ch=5 par1=48 par2=70
Channel Event. t= 5 (83877) Note Off ch=5 par1=43 par2=64
Channel Event. t= 15 (83892) Note Off ch=5 par1=47 par2=64
Channel Event. t= 40 (83932) Note On ch=5 par1=47 par2=70
Channel Event. t= 20 (83952) Note Off ch=5 par1=48 par2=64
Channel Event. t= 40 (83992) Note On ch=5 par1=48 par2=69
Channel Event. t= 20 (84012) Note Off ch=5 par1=47 par2=64
Channel Event. t= 40 (84052) Note On ch=5 par1=47 par2=70
Channel Event. t= 20 (84072) Note Off ch=5 par1=48 par2=64
Channel Event. t= 252 (84324) Note Off ch=5 par1=47 par2=64
Channel Event. t= 13 (84337) Note On ch=5 par1=40 par2=70
Channel Event. t= 25 (84362) Note On ch=5 par1=47 par2=97
Channel Event. t= 17 (84379) Note Off ch=5 par1=42 par2=64
Channel Event. t= 133 (84512) Note Off ch=5 par1=47 par2=64
Channel Event. t= 5 (84517) Note On ch=5 par1=48 par2=65
Channel Event. t= 80 (84597) Note Off ch=5 par1=48 par2=64
Channel Event. t= 0 (84597) Note On ch=5 par1=47 par2=60
Channel Event. t= 80 (84677) Note On ch=5 par1=48 par2=66
Channel Event. t= 7 (84684) Note Off ch=5 par1=47 par2=64
Channel Event. t= 58 (84742) Note On ch=5 par1=47 par2=66
Channel Event. t= 2 (84744) Note Off ch=5 par1=48 par2=64
Channel Event. t= 73 (84817) Note On ch=5 par1=42 par2=66
Channel Event. t= 12 (84829) Note Off ch=5 par1=47 par2=64
Channel Event. t= 3 (84832) Note On ch=5 par1=48 par2=61
Channel Event. t= 42 (84874) Note Off ch=5 par1=40 par2=64
Channel Event. t= 8 (84882) Note On ch=5 par1=47 par2=64
Channel Event. t= 10 (84892) Note Off ch=5 par1=48 par2=64
Channel Event. t= 67 (84959) Note On ch=5 par1=48 par2=62
Channel Event. t= 8 (84967) Note Off ch=5 par1=47 par2=64
Channel Event. t= 47 (85014) Note Off ch=5 par1=48 par2=64
Channel Event. t= 5 (85019) Note On ch=5 par1=47 par2=66
Channel Event. t= 60 (85079) Note On ch=5 par1=48 par2=66
Channel Event. t= 10 (85089) Note Off ch=5 par1=47 par2=64
Channel Event. t= 48 (85137) Note Off ch=5 par1=48 par2=64
Channel Event. t= 10 (85147) Note On ch=5 par1=47 par2=59
Channel Event. t= 52 (85199) Note On ch=5 par1=48 par2=65
Channel Event. t= 10 (85209) Note Off ch=5 par1=47 par2=64
Channel Event. t= 50 (85259) Note Off ch=5 par1=48 par2=64
Channel Event. t= 10 (85269) Note On ch=5 par1=47 par2=62
Channel Event. t= 20 (85289) Note On ch=5 par1=43 par2=58
Channel Event. t= 18 (85307) Note Off ch=5 par1=42 par2=64
Channel Event. t= 7 (85314) Note On ch=5 par1=48 par2=67
Channel Event. t= 3 (85317) Note Off ch=5 par1=47 par2=64
Channel Event. t= 52 (85369) Note Off ch=5 par1=48 par2=64
Channel Event. t= 8 (85377) Note On ch=5 par1=47 par2=66
Channel Event. t= 52 (85429) Note On ch=5 par1=48 par2=69
Channel Event. t= 13 (85442) Note Off ch=5 par1=47 par2=64
Channel Event. t= 50 (85492) Note On ch=5 par1=47 par2=62
Channel Event. t= 2 (85494) Note Off ch=5 par1=48 par2=64
Channel Event. t= 58 (85552) Note Off ch=5 par1=47 par2=64
Channel Event. t= 0 (85552) Note On ch=5 par1=48 par2=69
Channel Event. t= 60 (85612) Note Off ch=5 par1=48 par2=64
Channel Event. t= 0 (85612) Note On ch=5 par1=47 par2=63
Channel Event. t= 60 (85672) Note On ch=5 par1=48 par2=64
Channel Event. t= 2 (85674) Note Off ch=5 par1=47 par2=64
Channel Event. t= 58 (85732) Note On ch=5 par1=47 par2=65
Channel Event. t= 20 (85752) Note Off ch=5 par1=48 par2=64
Channel Event. t= 32 (85784) Note On ch=5 par1=42 par2=68
Channel Event. t= 8 (85792) Note Off ch=5 par1=47 par2=64
Channel Event. t= 0 (85792) Note On ch=5 par1=48 par2=61
Channel Event. t= 37 (85829) Note Off ch=5 par1=43 par2=64
Channel Event. t= 23 (85852) Note Off ch=5 par1=48 par2=64
Channel Event. t= 0 (85852) Note On ch=5 par1=47 par2=88
Channel Event. t= 397 (86249) Note Off ch=5 par1=47 par2=64
Channel Event. t= 5 (86254) Note On ch=5 par1=40 par2=70
Channel Event. t= 18 (86272) Note On ch=5 par1=47 par2=109
Channel Event. t= 20 (86292) Note Off ch=5 par1=42 par2=64
Channel Event. t= 280 (86572) Note Off ch=5 par1=47 par2=64
Channel Event. t= 0 (86572) Note On ch=5 par1=48 par2=59
Channel Event. t= 60 (86632) Note Off ch=5 par1=48 par2=64
Channel Event. t= 0 (86632) Note On ch=5 par1=47 par2=68
Channel Event. t= 60 (86692) Note On ch=5 par1=48 par2=61
Channel Event. t= 25 (86717) Note Off ch=5 par1=47 par2=64
Channel Event. t= 25 (86742) Note On ch=5 par1=42 par2=67
Channel Event. t= 10 (86752) Note Off ch=5 par1=48 par2=64
Channel Event. t= 22 (86774) Note On ch=5 par1=47 par2=61
Channel Event. t= 8 (86782) Note Off ch=5 par1=40 par2=64
Channel Event. t= 30 (86812) Note On ch=5 par1=48 par2=64
Channel Event. t= 22 (86834) Note Off ch=5 par1=47 par2=64
Channel Event. t= 38 (86872) Note Off ch=5 par1=48 par2=64
Channel Event. t= 0 (86872) Note On ch=5 par1=47 par2=63
Channel Event. t= 60 (86932) Note Off ch=5 par1=47 par2=64
Channel Event. t= 0 (86932) Note On ch=5 par1=48 par2=63
Channel Event. t= 60 (86992) Note Off ch=5 par1=48 par2=64
Channel Event. t= 0 (86992) Note On ch=5 par1=47 par2=68
Channel Event. t= 60 (87052) Note Off ch=5 par1=47 par2=64
Channel Event. t= 0 (87052) Note On ch=5 par1=48 par2=67
Channel Event. t= 60 (87112) Note On ch=5 par1=47 par2=69
Channel Event. t= 7 (87119) Note Off ch=5 par1=48 par2=64
Channel Event. t= 53 (87172) Note Off ch=5 par1=47 par2=64
Channel Event. t= 0 (87172) Note On ch=5 par1=48 par2=63
Channel Event. t= 32 (87204) Note On ch=5 par1=43 par2=55
Channel Event. t= 20 (87224) Note Off ch=5 par1=42 par2=64
Channel Event. t= 8 (87232) Note On ch=5 par1=47 par2=65
Channel Event. t= 7 (87239) Note Off ch=5 par1=48 par2=64
Channel Event. t= 53 (87292) Note On ch=5 par1=48 par2=61
Channel Event. t= 20 (87312) Note Off ch=5 par1=47 par2=64
Channel Event. t= 40 (87352) Note Off ch=5 par1=48 par2=64
Channel Event. t= 0 (87352) Note On ch=5 par1=47 par2=64
Channel Event. t= 60 (87412) Note On ch=5 par1=48 par2=64
Channel Event. t= 20 (87432) Note Off ch=5 par1=47 par2=64
Channel Event. t= 40 (87472) Note On ch=5 par1=47 par2=63
Channel Event. t= 20 (87492) Note Off ch=5 par1=48 par2=64
Channel Event. t= 40 (87532) Note On ch=5 par1=48 par2=61
Channel Event. t= 20 (87552) Note Off ch=5 par1=47 par2=64
Channel Event. t= 40 (87592) Note Off ch=5 par1=48 par2=64
Channel Event. t= 0 (87592) Note On ch=5 par1=47 par2=61
Channel Event. t= 60 (87652) Note On ch=5 par1=48 par2=64
Channel Event. t= 20 (87672) Note Off ch=5 par1=47 par2=64
Channel Event. t= 35 (87707) Note On ch=5 par1=42 par2=65
Channel Event. t= 5 (87712) Note On ch=5 par1=47 par2=65
Channel Event. t= 20 (87732) Note Off ch=5 par1=48 par2=64
Channel Event. t= 10 (87742) Note Off ch=5 par1=43 par2=64
Channel Event. t= 30 (87772) Note On ch=5 par1=48 par2=64
Channel Event. t= 20 (87792) Note Off ch=5 par1=47 par2=64
Channel Event. t= 40 (87832) Note Off ch=5 par1=48 par2=64
Channel Event. t= 0 (87832) Note On ch=5 par1=47 par2=89
Channel Event. t= 327 (88159) Note On ch=5 par1=35 par2=61
Channel Event. t= 3 (88162) Note Off ch=5 par1=42 par2=64
Channel Event. t= 32 (88194) Note Off ch=5 par1=47 par2=64
Channel Event. t= 443 (88637) Note On ch=5 par1=42 par2=71
Channel Event. t= 30 (88667) Note Off ch=5 par1=35 par2=64
Channel Event. t= 460 (89127) Note On ch=5 par1=47 par2=66
Channel Event. t= 12 (89139) Note Off ch=5 par1=42 par2=64
Channel Event. t= 470 (89609) Note On ch=5 par1=35 par2=75
Channel Event. t= 13 (89622) Note Off ch=5 par1=47 par2=64
Channel Event. t= 467 (90089) Note On ch=5 par1=36 par2=75
Channel Event. t= 25 (90114) Note Off ch=5 par1=35 par2=64
Channel Event. t= 370 (90484) Note On ch=5 par1=48 par2=57
Channel Event. t= 45 (90529) Note On ch=5 par1=52 par2=79
Channel Event. t= 23 (90552) Note On ch=5 par1=55 par2=71
Channel Event. t= 27 (90579) Note On ch=5 par1=60 par2=82
Channel Event. t= 15 (90594) Note Off ch=5 par1=48 par2=64
Channel Event. t= 68 (90662) Note Off ch=5 par1=52 par2=64
Channel Event. t= 25 (90687) Note Off ch=5 par1=55 par2=64
Channel Event. t= 20 (90707) Note Off ch=5 par1=60 par2=64
Channel Event. t= 357 (91064) Note On ch=5 par1=42 par2=68
Channel Event. t= 15 (91079) Note Off ch=5 par1=36 par2=64
Channel Event. t= 390 (91469) Note On ch=5 par1=51 par2=66
Channel Event. t= 25 (91494) Note On ch=5 par1=54 par2=84
Channel Event. t= 23 (91517) Note On ch=5 par1=59 par2=80
Channel Event. t= 20 (91537) Note On ch=5 par1=63 par2=87
Channel Event. t= 10 (91547) Note Off ch=5 par1=51 par2=64
Channel Event. t= 37 (91584) Note Off ch=5 par1=54 par2=64
Channel Event. t= 18 (91602) Note Off ch=5 par1=59 par2=64
Channel Event. t= 127 (91729) Note Off ch=5 par1=63 par2=64
Channel Event. t= 268 (91997) Note On ch=5 par1=48 par2=69
Channel Event. t= 2 (91999) Note Off ch=5 par1=42 par2=64
Channel Event. t= 383 (92382) Note Off ch=5 par1=48 par2=64
Channel Event. t= 0 (92382) Note On ch=5 par1=48 par2=57
Channel Event. t= 45 (92427) Note On ch=5 par1=52 par2=74
Channel Event. t= 22 (92449) Note On ch=5 par1=55 par2=74
Channel Event. t= 23 (92472) Note Off ch=5 par1=48 par2=64
Channel Event. t= 2 (92474) Note On ch=5 par1=60 par2=81
Channel Event. t= 43 (92517) Note Off ch=5 par1=52 par2=64
Channel Event. t= 22 (92539) Note Off ch=5 par1=55 par2=64
Channel Event. t= 150 (92689) Note Off ch=5 par1=60 par2=64
Channel Event. t= 285 (92974) Note On ch=5 par1=42 par2=67
Channel Event. t= 400 (93374) Note On ch=5 par1=51 par2=55
Channel Event. t= 40 (93414) Note On ch=5 par1=54 par2=75
Channel Event. t= 30 (93444) Note On ch=5 par1=59 par2=74
Channel Event. t= 15 (93459) Note Off ch=5 par1=51 par2=64
Channel Event. t= 8 (93467) Note On ch=5 par1=63 par2=88
Channel Event. t= 40 (93507) Note Off ch=5 par1=54 par2=64
Channel Event. t= 25 (93532) Note Off ch=5 par1=59 par2=64
Channel Event. t= 30 (93562) Note Off ch=5 par1=63 par2=64
Channel Event. t= 385 (93947) Note On ch=5 par1=36 par2=68
Channel Event. t= 37 (93984) Note Off ch=5 par1=42 par2=64
Channel Event. t= 365 (94349) Note On ch=5 par1=48 par2=53
Channel Event. t= 38 (94387) Note On ch=5 par1=52 par2=73
Channel Event. t= 12 (94399) Note On ch=5 par1=55 par2=76
Channel Event. t= 30 (94429) Note On ch=5 par1=60 par2=83
Channel Event. t= 3 (94432) Note Off ch=5 par1=48 par2=64
Channel Event. t= 57 (94489) Note Off ch=5 par1=52 par2=64
Channel Event. t= 20 (94509) Note Off ch=5 par1=55 par2=64
Channel Event. t= 110 (94619) Note Off ch=5 par1=60 par2=64
Channel Event. t= 263 (94882) Note On ch=5 par1=42 par2=74
Channel Event. t= 60 (94942) Note Off ch=5 par1=36 par2=64
Channel Event. t= 360 (95302) Note On ch=5 par1=51 par2=55
Channel Event. t= 37 (95339) Note On ch=5 par1=54 par2=72
Channel Event. t= 20 (95359) Note On ch=5 par1=59 par2=77
Channel Event. t= 20 (95379) Note On ch=5 par1=63 par2=82
Channel Event. t= 13 (95392) Note Off ch=5 par1=51 par2=64
Channel Event. t= 50 (95442) Note Off ch=5 par1=54 par2=64
Channel Event. t= 35 (95477) Note Off ch=5 par1=59 par2=64
Channel Event. t= 25 (95502) Note Off ch=5 par1=63 par2=64
Channel Event. t= 337 (95839) Note On ch=5 par1=48 par2=64
Channel Event. t= 28 (95867) Note Off ch=5 par1=42 par2=64
Channel Event. t= 400 (96267) Note Off ch=5 par1=48 par2=64
Channel Event. t= 0 (96267) Note On ch=5 par1=48 par2=50
Channel Event. t= 32 (96299) Note On ch=5 par1=52 par2=71
Channel Event. t= 10 (96309) Note On ch=5 par1=55 par2=74
Channel Event. t= 18 (96327) Note On ch=5 par1=60 par2=79
Channel Event. t= 37 (96364) Note Off ch=5 par1=48 par2=64
Channel Event. t= 60 (96424) Note Off ch=5 par1=52 par2=64
Channel Event. t= 15 (96439) Note Off ch=5 par1=55 par2=64
Channel Event. t= 28 (96467) Note Off ch=5 par1=60 par2=64
Channel Event. t= 342 (96809) Note On ch=5 par1=42 par2=70
Channel Event. t= 438 (97247) Note On ch=5 par1=51 par2=61
Channel Event. t= 20 (97267) Note On ch=5 par1=54 par2=81
Channel Event. t= 20 (97287) Note On ch=5 par1=59 par2=81
Channel Event. t= 17 (97304) Note On ch=5 par1=63 par2=84
Channel Event. t= 25 (97329) Note Off ch=5 par1=51 par2=64
Channel Event. t= 53 (97382) Note Off ch=5 par1=54 par2=64
Channel Event. t= 22 (97404) Note Off ch=5 par1=59 par2=64
Channel Event. t= 35 (97439) Note Off ch=5 par1=63 par2=64
Channel Event. t= 338 (97777) Note On ch=5 par1=36 par2=83
Channel Event. t= 32 (97809) Note Off ch=5 par1=42 par2=64
Channel Event. t= 425 (98234) Note On ch=5 par1=48 par2=63
Channel Event. t= 30 (98264) Note On ch=5 par1=52 par2=75
Channel Event. t= 13 (98277) Note On ch=5 par1=55 par2=69
Channel Event. t= 17 (98294) Note On ch=5 par1=60 par2=74
Channel Event. t= 33 (98327) Note Off ch=5 par1=48 par2=64
Channel Event. t= 47 (98374) Note Off ch=5 par1=52 par2=64
Channel Event. t= 28 (98402) Note Off ch=5 par1=55 par2=64
Channel Event. t= 25 (98427) Note Off ch=5 par1=60 par2=64
Channel Event. t= 300 (98727) Note On ch=5 par1=42 par2=84
Channel Event. t= 62 (98789) Note Off ch=5 par1=36 par2=64
Channel Event. t= 398 (99187) Note On ch=5 par1=51 par2=63
Channel Event. t= 25 (99212) Note On ch=5 par1=54 par2=83
Channel Event. t= 15 (99227) Note On ch=5 par1=59 par2=80
Channel Event. t= 10 (99237) Note On ch=5 par1=63 par2=87
Channel Event. t= 30 (99267) Note Off ch=5 par1=51 par2=64
Channel Event. t= 40 (99307) Note Off ch=5 par1=54 par2=64
Channel Event. t= 22 (99329) Note Off ch=5 par1=59 par2=64
Channel Event. t= 48 (99377) Note Off ch=5 par1=63 par2=64
Channel Event. t= 330 (99707) Note On ch=5 par1=48 par2=72
Channel Event. t= 27 (99734) Note Off ch=5 par1=42 par2=64
Channel Event. t= 400 (100134) Note Off ch=5 par1=48 par2=64
Channel Event. t= 0 (100134) Note On ch=5 par1=48 par2=58
Channel Event. t= 28 (100162) Note On ch=5 par1=52 par2=78
Channel Event. t= 12 (100174) Note On ch=5 par1=55 par2=76
Channel Event. t= 18 (100192) Note On ch=5 par1=60 par2=83
Channel Event. t= 30 (100222) Note Off ch=5 par1=48 par2=64
Channel Event. t= 35 (100257) Note Off ch=5 par1=52 par2=64
Channel Event. t= 17 (100274) Note Off ch=5 par1=55 par2=64
Channel Event. t= 38 (100312) Note Off ch=5 par1=60 par2=64
Channel Event. t= 342 (100654) Note On ch=5 par1=42 par2=79
Channel Event. t= 450 (101104) Note On ch=5 par1=51 par2=68
Channel Event. t= 18 (101122) Note On ch=5 par1=54 par2=75
Channel Event. t= 17 (101139) Note On ch=5 par1=59 par2=77
Channel Event. t= 20 (101159) Note On ch=5 par1=63 par2=86
Channel Event. t= 25 (101184) Note Off ch=5 par1=51 par2=64
Channel Event. t= 33 (101217) Note Off ch=5 par1=54 par2=64
Channel Event. t= 30 (101247) Note Off ch=5 par1=59 par2=64
Channel Event. t= 55 (101302) Note Off ch=5 par1=63 par2=64
Channel Event. t= 312 (101614) Note On ch=5 par1=36 par2=68
Channel Event. t= 45 (101659) Note Off ch=5 par1=42 par2=64
Channel Event. t= 368 (102027) Note On ch=5 par1=48 par2=61
Channel Event. t= 27 (102054) Note On ch=5 par1=52 par2=78
Channel Event. t= 10 (102064) Note On ch=5 par1=55 par2=81
Channel Event. t= 18 (102082) Note On ch=5 par1=60 par2=89
Channel Event. t= 27 (102109) Note Off ch=5 par1=48 par2=64
Channel Event. t= 40 (102149) Note Off ch=5 par1=52 par2=64
Channel Event. t= 15 (102164) Note Off ch=5 par1=55 par2=64
Channel Event. t= 48 (102212) Note Off ch=5 par1=60 par2=64
Channel Event. t= 350 (102562) Note On ch=5 par1=42 par2=78
Channel Event. t= 72 (102634) Note Off ch=5 par1=36 par2=64
Channel Event. t= 350 (102984) Note On ch=5 par1=51 par2=65
Channel Event. t= 30 (103014) Note On ch=5 par1=54 par2=76
Channel Event. t= 15 (103029) Note On ch=5 par1=59 par2=79
Channel Event. t= 25 (103054) Note On ch=5 par1=63 par2=85
Channel Event. t= 25 (103079) Note Off ch=5 par1=51 par2=64
Channel Event. t= 40 (103119) Note Off ch=5 par1=54 par2=64
Channel Event. t= 25 (103144) Note Off ch=5 par1=59 par2=64
Channel Event. t= 78 (103222) Note Off ch=5 par1=63 par2=64
Channel Event. t= 300 (103522) Note On ch=5 par1=48 par2=76
Channel Event. t= 35 (103557) Note Off ch=5 par1=42 par2=64
Channel Event. t= 370 (103927) Note Off ch=5 par1=48 par2=64
Channel Event. t= 0 (103927) Note On ch=5 par1=48 par2=61
Channel Event. t= 27 (103954) Note On ch=5 par1=52 par2=77
Channel Event. t= 10 (103964) Note On ch=5 par1=55 par2=78
Channel Event. t= 20 (103984) Note On ch=5 par1=60 par2=89
Channel Event. t= 23 (104007) Note Off ch=5 par1=48 par2=64
Channel Event. t= 22 (104029) Note Off ch=5 par1=52 par2=64
Channel Event. t= 25 (104054) Note Off ch=5 par1=55 par2=64
Channel Event. t= 63 (104117) Note Off ch=5 par1=60 par2=64
Channel Event. t= 365 (104482) Note On ch=5 par1=42 par2=72
Channel Event. t= 457 (104939) Note On ch=5 par1=51 par2=60
Channel Event. t= 25 (104964) Note On ch=5 par1=54 par2=74
Channel Event. t= 20 (104984) Note On ch=5 par1=59 par2=78
Channel Event. t= 15 (104999) Note On ch=5 par1=63 par2=85
Channel Event. t= 23 (105022) Note Off ch=5 par1=51 par2=64
Channel Event. t= 37 (105059) Note Off ch=5 par1=54 par2=64
Channel Event. t= 30 (105089) Note Off ch=5 par1=59 par2=64
Channel Event. t= 65 (105154) Note Off ch=5 par1=63 par2=64
Channel Event. t= 320 (105474) Note On ch=5 par1=36 par2=72
Channel Event. t= 33 (105507) Note Off ch=5 par1=42 par2=64
Channel Event. t= 390 (105897) Note On ch=5 par1=48 par2=57
Channel Event. t= 30 (105927) Note On ch=5 par1=52 par2=76
Channel Event. t= 7 (105934) Note On ch=5 par1=55 par2=73
Channel Event. t= 20 (105954) Note On ch=5 par1=60 par2=85
Channel Event. t= 53 (106007) Note Off ch=5 par1=48 par2=64
Channel Event. t= 55 (106062) Note Off ch=5 par1=52 par2=64
Channel Event. t= 17 (106079) Note Off ch=5 par1=55 par2=64
Channel Event. t= 45 (106124) Note Off ch=5 par1=60 par2=64
Channel Event. t= 288 (106412) Note On ch=5 par1=42 par2=63
Channel Event. t= 77 (106489) Note Off ch=5 par1=36 par2=64
Channel Event. t= 345 (106834) Note On ch=5 par1=58 par2=67
Channel Event. t= 23 (106857) Note On ch=5 par1=61 par2=81
Channel Event. t= 22 (106879) Note On ch=5 par1=64 par2=70
Channel Event. t= 18 (106897) Note On ch=5 par1=70 par2=81
Channel Event. t= 27 (106924) Note Off ch=5 par1=58 par2=64
Channel Event. t= 43 (106967) Note Off ch=5 par1=61 par2=64
Channel Event. t= 25 (106992) Note Off ch=5 par1=64 par2=64
Channel Event. t= 20 (107012) Note Off ch=5 par1=70 par2=64
Channel Event. t= 332 (107344) Note On ch=5 par1=59 par2=82
Channel Event. t= 40 (107384) Note On ch=5 par1=35 par2=66
Channel Event. t= 33 (107417) Note Off ch=5 par1=42 par2=64
Channel Event. t= 2860 (110277) Note Off ch=5 par1=59 par2=64
Channel Event. t= 10 (110287) Note Off ch=5 par1=35 par2=64
Channel Event. t= 952 (111239) Note On ch=5 par1=43 par2=32
Channel Event. t= 8 (111247) Note On ch=5 par1=36 par2=26
Channel Event. t= 192 (111439) Note Off ch=5 par1=43 par2=64
Channel Event. t= 13 (111452) Note Off ch=5 par1=36 par2=64
Channel Event. t= 260 (111712) Note On ch=5 par1=76 par2=38
Channel Event. t= 0 (111712) Note On ch=5 par1=67 par2=40
Channel Event. t= 117 (111829) Note Off ch=5 par1=67 par2=64
Channel Event. t= 40 (111869) Note Off ch=5 par1=76 par2=64
Channel Event. t= 313 (112182) Note On ch=5 par1=43 par2=24
Channel Event. t= 5 (112187) Note On ch=5 par1=36 par2=19
Channel Event. t= 192 (112379) Note Off ch=5 par1=43 par2=64
Channel Event. t= 3 (112382) Note Off ch=5 par1=36 par2=64
Channel Event. t= 290 (112672) Note On ch=5 par1=79 par2=33
Channel Event. t= 0 (112672) Note On ch=5 par1=88 par2=45
Channel Event. t= 137 (112809) Note Off ch=5 par1=79 par2=64
Channel Event. t= 3 (112812) Note Off ch=5 par1=88 par2=64
Channel Event. t= 337 (113149) Note On ch=5 par1=43 par2=26
Channel Event. t= 3 (113152) Note On ch=5 par1=36 par2=34
Channel Event. t= 207 (113359) Note Off ch=5 par1=43 par2=64
Channel Event. t= 5 (113364) Note Off ch=5 par1=36 par2=64
Channel Event. t= 268 (113632) Note On ch=5 par1=79 par2=31
Channel Event. t= 0 (113632) Note On ch=5 par1=88 par2=23
Channel Event. t= 135 (113767) Note Off ch=5 par1=79 par2=64
Channel Event. t= 42 (113809) Note Off ch=5 par1=88 par2=64
Channel Event. t= 295 (114104) Note On ch=5 par1=43 par2=30
Channel Event. t= 5 (114109) Note On ch=5 par1=36 par2=30
Channel Event. t= 203 (114312) Note Off ch=5 par1=43 par2=64
Channel Event. t= 5 (114317) Note Off ch=5 par1=36 par2=64
Channel Event. t= 275 (114592) Note On ch=5 par1=88 par2=39
Channel Event. t= 0 (114592) Note On ch=5 par1=79 par2=34
Channel Event. t= 170 (114762) Note Off ch=5 par1=79 par2=64
Channel Event. t= 42 (114804) Note Off ch=5 par1=88 par2=64
Channel Event. t= 253 (115057) Note On ch=5 par1=43 par2=32
Channel Event. t= 2 (115059) Note On ch=5 par1=36 par2=35
Channel Event. t= 203 (115262) Note Off ch=5 par1=43 par2=64
Channel Event. t= 7 (115269) Note Off ch=5 par1=36 par2=64
Channel Event. t= 283 (115552) Note On ch=5 par1=79 par2=64
Channel Event. t= 0 (115552) Note On ch=5 par1=88 par2=64
Channel Event. t= 120 (115672) Note Off ch=5 par1=88 par2=64
Channel Event. t= 0 (115672) Note Off ch=5 par1=79 par2=64
Channel Event. t= 345 (116017) Note On ch=5 par1=43 par2=29
Channel Event. t= 2 (116019) Note On ch=5 par1=36 par2=28
Channel Event. t= 213 (116232) Note Off ch=5 par1=43 par2=64
Channel Event. t= 2 (116234) Note Off ch=5 par1=36 par2=64
Channel Event. t= 278 (116512) Note On ch=5 par1=79 par2=64
Channel Event. t= 0 (116512) Note On ch=5 par1=88 par2=64
Channel Event. t= 120 (116632) Note Off ch=5 par1=88 par2=64
Channel Event. t= 0 (116632) Note Off ch=5 par1=79 par2=64
Channel Event. t= 350 (116982) Note On ch=5 par1=43 par2=42
Channel Event. t= 0 (116982) Note On ch=5 par1=36 par2=29
Channel Event. t= 237 (117219) Note Off ch=5 par1=43 par2=64
Channel Event. t= 3 (117222) Note Off ch=5 par1=36 par2=64
Channel Event. t= 250 (117472) Note On ch=5 par1=72 par2=24
Channel Event. t= 0 (117472) Note On ch=5 par1=81 par2=40
Channel Event. t= 172 (117644) Note Off ch=5 par1=72 par2=64
Channel Event. t= 30 (117674) Note Off ch=5 par1=81 par2=64
Channel Event. t= 300 (117974) Note On ch=5 par1=48 par2=37
Channel Event. t= 0 (117974) Note On ch=5 par1=41 par2=36
Channel Event. t= 195 (118169) Note Off ch=5 par1=41 par2=64
Channel Event. t= 15 (118184) Note Off ch=5 par1=48 par2=64
Channel Event. t= 248 (118432) Note On ch=5 par1=81 par2=27
Channel Event. t= 10 (118442) Note On ch=5 par1=72 par2=16
Channel Event. t= 185 (118627) Note Off ch=5 par1=72 par2=64
Channel Event. t= 15 (118642) Note Off ch=5 par1=81 par2=64
Channel Event. t= 285 (118927) Note On ch=5 par1=42 par2=38
Channel Event. t= 7 (118934) Note On ch=5 par1=48 par2=22
Channel Event. t= 188 (119122) Note Off ch=5 par1=42 par2=64
Channel Event. t= 27 (119149) Note Off ch=5 par1=48 par2=64
Channel Event. t= 250 (119399) Note On ch=5 par1=81 par2=80
Channel Event. t= 8 (119407) Note On ch=5 par1=72 par2=66
Channel Event. t= 100 (119507) Note Off ch=5 par1=72 par2=64
Channel Event. t= 20 (119527) Note Off ch=5 par1=81 par2=64
Channel Event. t= 330 (119857) Note On ch=5 par1=42 par2=49
Channel Event. t= 15 (119872) Note On ch=5 par1=48 par2=23
Channel Event. t= 210 (120082) Note Off ch=5 par1=48 par2=64
Channel Event. t= 10 (120092) Note Off ch=5 par1=42 par2=64
Channel Event. t= 260 (120352) Note On ch=5 par1=72 par2=41
Channel Event. t= 0 (120352) Note On ch=5 par1=81 par2=27
Channel Event. t= 185 (120537) Note Off ch=5 par1=81 par2=64
Channel Event. t= 35 (120572) Note Off ch=5 par1=72 par2=64
Channel Event. t= 740 (121312) Note On ch=5 par1=36 par2=59
Channel Event. t= 0 (121312) Note On ch=5 par1=67 par2=42
Channel Event. t= 0 (121312) Note On ch=5 par1=76 par2=56
Channel Event. t= 140 (121452) Note Off ch=5 par1=76 par2=64
Channel Event. t= 25 (121477) Note Off ch=5 par1=67 par2=64
Channel Event. t= 315 (121792) Note On ch=5 par1=64 par2=58
Channel Event. t= 0 (121792) Note On ch=5 par1=72 par2=61
Channel Event. t= 165 (121957) Note Off ch=5 par1=64 par2=64
Channel Event. t= 32 (121989) Note Off ch=5 par1=72 par2=64
Channel Event. t= 345 (122334) Note Off ch=5 par1=36 par2=64
Channel Event. t= 178 (122512) Note On ch=5 par1=36 par2=69
Channel Event. t= 195 (122707) Note Off ch=5 par1=36 par2=64
Channel Event. t= 45 (122752) Note On ch=5 par1=43 par2=71
Channel Event. t= 150 (122902) Note Off ch=5 par1=43 par2=64
Channel Event. t= 90 (122992) Note On ch=5 par1=43 par2=64
Channel Event. t= 97 (123089) Note Off ch=5 par1=43 par2=64
Channel Event. t= 143 (123232) Note On ch=5 par1=36 par2=79
Channel Event. t= 837 (124069) Note Off ch=5 par1=36 par2=64
Channel Event. t= 3 (124072) Note On ch=5 par1=39 par2=79
Channel Event. t= 120 (124192) Note On ch=5 par1=40 par2=74
Channel Event. t= 60 (124252) Note Off ch=5 par1=39 par2=64
Channel Event. t= 242 (124494) Note Off ch=5 par1=40 par2=64
Channel Event. t= 58 (124552) Note On ch=5 par1=44 par2=73
Channel Event. t= 120 (124672) Note On ch=5 par1=45 par2=71
Channel Event. t= 2 (124674) Note Off ch=5 par1=44 par2=64
Channel Event. t= 290 (124964) Note Off ch=5 par1=45 par2=64
Channel Event. t= 68 (125032) Note On ch=5 par1=41 par2=63
Channel Event. t= 120 (125152) Note On ch=5 par1=50 par2=69
Channel Event. t= 50 (125202) Note Off ch=5 par1=41 par2=64
Channel Event. t= 190 (125392) Note Off ch=5 par1=50 par2=64
Channel Event. t= 120 (125512) Note On ch=5 par1=50 par2=71
Channel Event. t= 100 (125612) Note Off ch=5 par1=50 par2=64
Channel Event. t= 20 (125632) Note On ch=5 par1=50 par2=86
Channel Event. t= 160 (125792) Note On ch=5 par1=51 par2=78
Channel Event. t= 10 (125802) Note Off ch=5 par1=50 par2=64
Channel Event. t= 120 (125922) Note Off ch=5 par1=51 par2=64
Channel Event. t= 30 (125952) Note On ch=5 par1=52 par2=82
Channel Event. t= 85 (126037) Note Off ch=5 par1=52 par2=64
Channel Event. t= 75 (126112) Note On ch=5 par1=52 par2=79
Channel Event. t= 155 (126267) Note Off ch=5 par1=52 par2=64
Channel Event. t= 5 (126272) Note On ch=5 par1=53 par2=77
Channel Event. t= 160 (126432) Note On ch=5 par1=54 par2=77
Channel Event. t= 20 (126452) Note Off ch=5 par1=53 par2=64
Channel Event. t= 140 (126592) Note On ch=5 par1=55 par2=91
Channel Event. t= 15 (126607) Note Off ch=5 par1=54 par2=64
Channel Event. t= 1425 (128032) Note On ch=5 par1=56 par2=80
Channel Event. t= 15 (128047) Note Off ch=5 par1=55 par2=64
Channel Event. t= 142 (128189) Note Off ch=5 par1=56 par2=64
Channel Event. t= 3 (128192) Note On ch=5 par1=57 par2=65
Channel Event. t= 160 (128352) Note On ch=5 par1=58 par2=75
Channel Event. t= 7 (128359) Note Off ch=5 par1=57 par2=64
Channel Event. t= 153 (128512) Note On ch=5 par1=59 par2=90
Channel Event. t= 30 (128542) Note Off ch=5 par1=58 par2=64
Channel Event. t= 920 (129462) Note Off ch=5 par1=59 par2=64
Channel Event. t= 10 (129472) Note On ch=5 par1=60 par2=71
Channel Event. t= 415 (129887) Note Off ch=5 par1=60 par2=64
Channel Event. t= 522 (130409) Note On ch=5 par1=55 par2=27
Channel Event. t= 8 (130417) Note On ch=5 par1=52 par2=19
Channel Event. t= 5 (130422) Note On ch=5 par1=48 par2=49
Channel Event. t= 1902 (132324) Note Off ch=5 par1=48 par2=64
Channel Event. t= 113 (132437) Note Off ch=5 par1=52 par2=64
Channel Event. t= 7 (132444) Note Off ch=5 par1=55 par2=64
Channel Event. t= 1588 (134032) Controller ch=5 par1=7 (Main Volume) par2=102
Channel Event. t= 220 (134252) Note On ch=5 par1=43 par2=48
Channel Event. t= 5 (134257) Note On ch=5 par1=36 par2=36
Channel Event. t= 20 (134277) Note On ch=5 par1=52 par2=66
Channel Event. t= 337 (134614) Note Off ch=5 par1=36 par2=64
Channel Event. t= 3 (134617) Note Off ch=5 par1=43 par2=64
Channel Event. t= 30 (134647) Note Off ch=5 par1=52 par2=64
Channel Event. t= 70 (134717) Note On ch=5 par1=55 par2=63
Channel Event. t= 7 (134724) Note On ch=5 par1=52 par2=52
Channel Event. t= 413 (135137) Note Off ch=5 par1=55 par2=64
Channel Event. t= 27 (135164) Note Off ch=5 par1=52 par2=64
Channel Event. t= 33 (135197) Note On ch=5 par1=55 par2=50
Channel Event. t= 0 (135197) Note On ch=5 par1=57 par2=74
Channel Event. t= 15 (135212) Note On ch=5 par1=47 par2=66
Channel Event. t= 7 (135219) Note On ch=5 par1=40 par2=65
Channel Event. t= 428 (135647) Note Off ch=5 par1=57 par2=64
Channel Event. t= 2 (135649) Note Off ch=5 par1=55 par2=64
Channel Event. t= 3 (135652) Note Off ch=5 par1=40 par2=64
Channel Event. t= 12 (135664) Note Off ch=5 par1=47 par2=64
Channel Event. t= 33 (135697) Note On ch=5 par1=57 par2=69
Channel Event. t= 2 (135699) Note On ch=5 par1=52 par2=62
Channel Event. t= 433 (136132) Note Off ch=5 par1=52 par2=64
Channel Event. t= 17 (136149) Note Off ch=5 par1=57 par2=64
Channel Event. t= 33 (136182) Note On ch=5 par1=52 par2=80
Channel Event. t= 5 (136187) Note On ch=5 par1=43 par2=60
Channel Event. t= 2 (136189) Note On ch=5 par1=36 par2=52
Channel Event. t= 428 (136617) Note Off ch=5 par1=52 par2=64
Channel Event. t= 32 (136649) Note Off ch=5 par1=36 par2=64
Channel Event. t= 13 (136662) Note On ch=5 par1=57 par2=76
Channel Event. t= 2 (136664) Note On ch=5 par1=52 par2=82
Channel Event. t= 5 (136669) Note Off ch=5 par1=43 par2=64
Channel Event. t= 453 (137122) Note Off ch=5 par1=57 par2=64
Channel Event. t= 0 (137122) Note Off ch=5 par1=52 par2=64
Channel Event. t= 5 (137127) Note On ch=5 par1=47 par2=63
Channel Event. t= 7 (137134) Note On ch=5 par1=40 par2=63
Channel Event. t= 3 (137137) Note On ch=5 par1=55 par2=92
Channel Event. t= 432 (137569) Note Off ch=5 par1=47 par2=64
Channel Event. t= 3 (137572) Note Off ch=5 par1=40 par2=64
Channel Event. t= 30 (137602) Note On ch=5 par1=57 par2=79
Channel Event. t= 2 (137604) Note Off ch=5 par1=55 par2=64
Channel Event. t= 0 (137604) Note On ch=5 par1=52 par2=77
Channel Event. t= 433 (138037) Note Off ch=5 par1=52 par2=64
Channel Event. t= 30 (138067) Note Off ch=5 par1=57 par2=64
Channel Event. t= 25 (138092) Note On ch=5 par1=52 par2=86
Channel Event. t= 7 (138099) Note On ch=5 par1=36 par2=58
Channel Event. t= 3 (138102) Note On ch=5 par1=43 par2=64
Channel Event. t= 405 (138507) Note Off ch=5 par1=52 par2=64
Channel Event. t= 55 (138562) Note Off ch=5 par1=43 par2=64
Channel Event. t= 2 (138564) Note On ch=5 par1=52 par2=76
Channel Event. t= 3 (138567) Note Off ch=5 par1=36 par2=64
Channel Event. t= 2 (138569) Note On ch=5 par1=55 par2=76
Channel Event. t= 420 (138989) Note Off ch=5 par1=55 par2=64
Channel Event. t= 30 (139019) Note Off ch=5 par1=52 par2=64
Channel Event. t= 18 (139037) Note On ch=5 par1=51 par2=80
Channel Event. t= 0 (139037) Note On ch=5 par1=54 par2=84
Channel Event. t= 12 (139049) Note On ch=5 par1=47 par2=67
Channel Event. t= 5 (139054) Note On ch=5 par1=40 par2=63
Channel Event. t= 425 (139479) Note Off ch=5 par1=51 par2=64
Channel Event. t= 3 (139482) Note Off ch=5 par1=54 par2=64
Channel Event. t= 42 (139524) Note On ch=5 par1=51 par2=79
Channel Event. t= 5 (139529) Note On ch=5 par1=54 par2=80
Channel Event. t= 20 (139549) Note Off ch=5 par1=40 par2=64
Channel Event. t= 13 (139562) Note Off ch=5 par1=47 par2=64
Channel Event. t= 402 (139964) Note Off ch=5 par1=51 par2=64
Channel Event. t= 13 (139977) Note Off ch=5 par1=54 par2=64
Channel Event. t= 22 (139999) Note On ch=5 par1=52 par2=91
Channel Event. t= 25 (140024) Note On ch=5 par1=43 par2=67
Channel Event. t= 0 (140024) Note On ch=5 par1=36 par2=63
Channel Event. t= 403 (140427) Note Off ch=5 par1=52 par2=64
Channel Event. t= 47 (140474) Note On ch=5 par1=55 par2=79
Channel Event. t= 3 (140477) Note On ch=5 par1=52 par2=77
Channel Event. t= 67 (140544) Note Off ch=5 par1=36 par2=64
Channel Event. t= 3 (140547) Note Off ch=5 par1=43 par2=64
Channel Event. t= 357 (140904) Note Off ch=5 par1=55 par2=64
Channel Event. t= 13 (140917) Note Off ch=5 par1=52 par2=64
Channel Event. t= 40 (140957) Note On ch=5 par1=57 par2=78
Channel Event. t= 2 (140959) Note On ch=5 par1=55 par2=58
Channel Event. t= 10 (140969) Note On ch=5 par1=47 par2=45
Channel Event. t= 8 (140977) Note On ch=5 par1=40 par2=47
Channel Event. t= 417 (141394) Note Off ch=5 par1=57 par2=64
Channel Event. t= 5 (141399) Note Off ch=5 par1=55 par2=64
Channel Event. t= 45 (141444) Note On ch=5 par1=57 par2=86
Channel Event. t= 8 (141452) Note On ch=5 par1=52 par2=72
Channel Event. t= 25 (141477) Note Off ch=5 par1=47 par2=64
Channel Event. t= 42 (141519) Note Off ch=5 par1=40 par2=64
Channel Event. t= 415 (141934) Note On ch=5 par1=32 par2=75
Channel Event. t= 3 (141937) Note On ch=5 par1=39 par2=78
Channel Event. t= 17 (141954) Note Off ch=5 par1=52 par2=64
Channel Event. t= 10 (141964) Note Off ch=5 par1=57 par2=64
Channel Event. t= 448 (142412) Note On ch=5 par1=56 par2=85
Channel Event. t= 5 (142417) Note On ch=5 par1=48 par2=69
Channel Event. t= 182 (142599) Note Off ch=5 par1=32 par2=64
Channel Event. t= 23 (142622) Note Off ch=5 par1=39 par2=64
Channel Event. t= 270 (142892) Note Off ch=5 par1=48 par2=64
Channel Event. t= 0 (142892) Note On ch=5 par1=43 par2=48
Channel Event. t= 0 (142892) Note On ch=5 par1=36 par2=51
Channel Event. t= 10 (142902) Note Off ch=5 par1=56 par2=64
Channel Event. t= 442 (143344) Note On ch=5 par1=59 par2=74
Channel Event. t= 3 (143347) Note On ch=5 par1=55 par2=69
Channel Event. t= 107 (143454) Note Off ch=5 par1=36 par2=64
Channel Event. t= 75 (143529) Note Off ch=5 par1=43 par2=64
Channel Event. t= 280 (143809) Note Off ch=5 par1=59 par2=64
Channel Event. t= 5 (143814) Note Off ch=5 par1=55 par2=64
Channel Event. t= 48 (143862) Note On ch=5 par1=32 par2=67
Channel Event. t= 5 (143867) Note On ch=5 par1=39 par2=73
Channel Event. t= 452 (144319) Note On ch=5 par1=56 par2=82
Channel Event. t= 5 (144324) Note On ch=5 par1=48 par2=71
Channel Event. t= 153 (144477) Note Off ch=5 par1=32 par2=64
Channel Event. t= 30 (144507) Note Off ch=5 par1=39 par2=64
Channel Event. t= 265 (144772) Note Off ch=5 par1=48 par2=64
Channel Event. t= 5 (144777) Note Off ch=5 par1=56 par2=64
Channel Event. t= 37 (144814) Note On ch=5 par1=36 par2=52
Channel Event. t= 0 (144814) Note On ch=5 par1=43 par2=50
Channel Event. t= 468 (145282) Note On ch=5 par1=59 par2=78
Channel Event. t= 5 (145287) Note On ch=5 par1=53 par2=79
Channel Event. t= 22 (145309) Note Off ch=5 par1=36 par2=64
Channel Event. t= 25 (145334) Note Off ch=5 par1=43 par2=64
Channel Event. t= 398 (145732) Note Off ch=5 par1=59 par2=64
Channel Event. t= 10 (145742) Note Off ch=5 par1=53 par2=64
Channel Event. t= 40 (145782) Note On ch=5 par1=46 par2=74
Channel Event. t= 2 (145784) Note On ch=5 par1=39 par2=75
Channel Event. t= 468 (146252) Note On ch=5 par1=60 par2=80
Channel Event. t= 0 (146252) Note On ch=5 par1=51 par2=84
Channel Event. t= 200 (146452) Note Off ch=5 par1=46 par2=64
Channel Event. t= 60 (146512) Note Off ch=5 par1=39 par2=64
Channel Event. t= 190 (146702) Note Off ch=5 par1=51 par2=64
Channel Event. t= 10 (146712) Note Off ch=5 par1=60 par2=64
Channel Event. t= 35 (146747) Note On ch=5 par1=36 par2=50
Channel Event. t= 10 (146757) Note On ch=5 par1=43 par2=43
Channel Event. t= 452 (147209) Note On ch=5 par1=58 par2=80
Channel Event. t= 3 (147212) Note On ch=5 par1=50 par2=65
Channel Event. t= 82 (147294) Note Off ch=5 par1=36 par2=64
Channel Event. t= 10 (147304) Note Off ch=5 par1=43 par2=64
Channel Event. t= 355 (147659) Note Off ch=5 par1=58 par2=64
Channel Event. t= 5 (147664) Note Off ch=5 par1=50 par2=64
Channel Event. t= 38 (147702) Note On ch=5 par1=46 par2=63
Channel Event. t= 5 (147707) Note On ch=5 par1=39 par2=71
Channel Event. t= 450 (148157) Note On ch=5 par1=58 par2=73
Channel Event. t= 7 (148164) Note On ch=5 par1=55 par2=76
Channel Event. t= 193 (148357) Note Off ch=5 par1=46 par2=64
Channel Event. t= 22 (148379) Note Off ch=5 par1=39 par2=64
Channel Event. t= 283 (148662) Note Off ch=5 par1=58 par2=64
Channel Event. t= 0 (148662) Note Off ch=5 par1=55 par2=64
Channel Event. t= 7 (148669) Note On ch=5 par1=36 par2=50
Channel Event. t= 15 (148684) Note On ch=5 par1=43 par2=48
Channel Event. t= 448 (149132) Note Off ch=5 par1=36 par2=64
Channel Event. t= 2 (149134) Note Off ch=5 par1=43 par2=64
Channel Event. t= 485 (149619) Note On ch=5 par1=46 par2=52
Channel Event. t= 3 (149622) Note On ch=5 par1=39 par2=59
Channel Event. t= 442 (150064) Note On ch=5 par1=51 par2=53
Channel Event. t= 5 (150069) Note On ch=5 par1=60 par2=46
Channel Event. t= 125 (150194) Note Off ch=5 par1=39 par2=64
Channel Event. t= 10 (150204) Note Off ch=5 par1=46 par2=64
Channel Event. t= 245 (150449) Note Off ch=5 par1=51 par2=64
Channel Event. t= 15 (150464) Note Off ch=5 par1=60 par2=64
Channel Event. t= 105 (150569) Note On ch=5 par1=43 par2=49
Channel Event. t= 10 (150579) Note On ch=5 par1=50 par2=44
Channel Event. t= 443 (151022) Note Off ch=5 par1=50 par2=64
Channel Event. t= 2 (151024) Note Off ch=5 par1=43 par2=64
Channel Event. t= 13 (151037) Note On ch=5 par1=58 par2=58
Channel Event. t= 15 (151052) Note On ch=5 par1=53 par2=43
Channel Event. t= 327 (151379) Note Off ch=5 par1=58 par2=64
Channel Event. t= 13 (151392) Note Off ch=5 par1=53 par2=64
Channel Event. t= 115 (151507) Note On ch=5 par1=55 par2=74
Channel Event. t= 40 (151547) Note On ch=5 par1=39 par2=54
Channel Event. t= 2 (151549) Note On ch=5 par1=46 par2=63
Channel Event. t= 398 (151947) Note Off ch=5 par1=55 par2=64
Channel Event. t= 60 (152007) Note On ch=5 par1=60 par2=54
Channel Event. t= 2 (152009) Note On ch=5 par1=55 par2=35
Channel Event. t= 120 (152129) Note Off ch=5 par1=39 par2=64
Channel Event. t= 15 (152144) Note Off ch=5 par1=46 par2=64
Channel Event. t= 270 (152414) Note Off ch=5 par1=60 par2=64
Channel Event. t= 3 (152417) Note Off ch=5 par1=55 par2=64
Channel Event. t= 67 (152484) Note On ch=5 par1=58 par2=76
Channel Event. t= 33 (152517) Note On ch=5 par1=50 par2=41
Channel Event. t= 2 (152519) Note On ch=5 par1=43 par2=45
Channel Event. t= 390 (152909) Note Off ch=5 par1=58 par2=64
Channel Event. t= 60 (152969) Note On ch=5 par1=55 par2=66
Channel Event. t= 5 (152974) Note On ch=5 par1=58 par2=65
Channel Event. t= 55 (153029) Note Off ch=5 par1=43 par2=64
Channel Event. t= 48 (153077) Note Off ch=5 par1=50 par2=64
Channel Event. t= 295 (153372) Note Off ch=5 par1=58 par2=64
Channel Event. t= 12 (153384) Note Off ch=5 par1=55 par2=64
Channel Event. t= 65 (153449) Note On ch=5 par1=55 par2=61
Channel Event. t= 25 (153474) Note On ch=5 par1=46 par2=68
Channel Event. t= 0 (153474) Note On ch=5 par1=39 par2=63
Channel Event. t= 375 (153849) Note Off ch=5 par1=55 par2=64
Channel Event. t= 68 (153917) Note On ch=5 par1=55 par2=55
Channel Event. t= 27 (153944) Note On ch=5 par1=58 par2=61
Channel Event. t= 138 (154082) Note Off ch=5 par1=39 par2=64
Channel Event. t= 2 (154084) Note Off ch=5 par1=46 par2=64
Channel Event. t= 288 (154372) Note Off ch=5 par1=55 par2=64
Channel Event. t= 17 (154389) Note Off ch=5 par1=58 par2=64
Channel Event. t= 28 (154417) Note On ch=5 par1=57 par2=66
Channel Event. t= 2 (154419) Note On ch=5 par1=42 par2=59
Channel Event. t= 8 (154427) Note On ch=5 par1=50 par2=40
Channel Event. t= 12 (154439) Note On ch=5 par1=54 par2=20
Channel Event. t= 390 (154829) Note Off ch=5 par1=54 par2=64
Channel Event. t= 8 (154837) Note Off ch=5 par1=57 par2=64
Channel Event. t= 60 (154897) Note On ch=5 par1=54 par2=58
Channel Event. t= 0 (154897) Note On ch=5 par1=57 par2=55
Channel Event. t= 67 (154964) Note Off ch=5 par1=42 par2=64
Channel Event. t= 90 (155054) Note Off ch=5 par1=50 par2=64
Channel Event. t= 258 (155312) Note Off ch=5 par1=54 par2=64
Channel Event. t= 32 (155344) Note Off ch=5 par1=57 par2=64
Channel Event. t= 25 (155369) Note On ch=5 par1=55 par2=74
Channel Event. t= 33 (155402) Note On ch=5 par1=39 par2=65
Channel Event. t= 7 (155409) Note On ch=5 par1=46 par2=68
Channel Event. t= 390 (155799) Note Off ch=5 par1=55 par2=64
Channel Event. t= 50 (155849) Note On ch=5 par1=55 par2=59
Channel Event. t= 5 (155854) Note On ch=5 par1=58 par2=73
Channel Event. t= 158 (156012) Note Off ch=5 par1=39 par2=64
Channel Event. t= 5 (156017) Note Off ch=5 par1=46 par2=64
Channel Event. t= 265 (156282) Note Off ch=5 par1=55 par2=64
Channel Event. t= 5 (156287) Note Off ch=5 par1=58 par2=64
Channel Event. t= 42 (156329) Note On ch=5 par1=55 par2=74
Channel Event. t= 3 (156332) Note On ch=5 par1=43 par2=51
Channel Event. t= 0 (156332) Note On ch=5 par1=50 par2=44
Channel Event. t= 412 (156744) Note Off ch=5 par1=55 par2=64
Channel Event. t= 60 (156804) Note Off ch=5 par1=50 par2=64
Channel Event. t= 5 (156809) Note On ch=5 par1=60 par2=80
Channel Event. t= 3 (156812) Note On ch=5 par1=53 par2=76
Channel Event. t= 40 (156852) Note Off ch=5 par1=43 par2=64
Channel Event. t= 370 (157222) Note Off ch=5 par1=53 par2=64
Channel Event. t= 15 (157237) Note Off ch=5 par1=60 par2=64
Channel Event. t= 52 (157289) Note On ch=5 par1=47 par2=68
Channel Event. t= 0 (157289) Note On ch=5 par1=38 par2=67
Channel Event. t= 10 (157299) Note On ch=5 par1=54 par2=78
Channel Event. t= 3 (157302) Note On ch=5 par1=62 par2=82
Channel Event. t= 532 (157834) Note Off ch=5 par1=47 par2=64
Channel Event. t= 3 (157837) Note Off ch=5 par1=38 par2=64
Channel Event. t= 395 (158232) Note On ch=5 par1=47 par2=35
Channel Event. t= 17 (158249) Note On ch=5 par1=38 par2=36
Channel Event. t= 483 (158732) Note Off ch=5 par1=38 par2=64
Channel Event. t= 0 (158732) Note Off ch=5 par1=47 par2=64
Channel Event. t= 427 (159159) Note Off ch=5 par1=54 par2=64
Channel Event. t= 3 (159162) Note Off ch=5 par1=62 par2=64
Channel Event. t= 35 (159197) Note On ch=5 par1=38 par2=63
Channel Event. t= 5 (159202) Note On ch=5 par1=54 par2=80
Channel Event. t= 2 (159204) Note On ch=5 par1=48 par2=58
Channel Event. t= 0 (159204) Note On ch=5 par1=62 par2=81
Channel Event. t= 600 (159804) Note Off ch=5 par1=48 par2=64
Channel Event. t= 8 (159812) Note Off ch=5 par1=38 par2=64
Channel Event. t= 372 (160184) Note On ch=5 par1=48 par2=34
Channel Event. t= 3 (160187) Note On ch=5 par1=38 par2=34
Channel Event. t= 522 (160709) Note Off ch=5 par1=38 par2=64
Channel Event. t= 18 (160727) Note Off ch=5 par1=48 par2=64
Channel Event. t= 370 (161097) Note Off ch=5 par1=54 par2=64
Channel Event. t= 2 (161099) Note On ch=5 par1=55 par2=72
Channel Event. t= 5 (161104) Note On ch=5 par1=43 par2=61
Channel Event. t= 70 (161174) Note Off ch=5 par1=62 par2=64
Channel Event. t= 265 (161439) Note Off ch=5 par1=55 par2=64
Channel Event. t= 123 (161562) Note On ch=5 par1=50 par2=92
Channel Event. t= 32 (161594) Note On ch=5 par1=38 par2=74
Channel Event. t= 35 (161629) Note Off ch=5 par1=43 par2=64
Channel Event. t= 395 (162024) Note On ch=5 par1=55 par2=81
Channel Event. t= 53 (162077) Note On ch=5 par1=43 par2=61
Channel Event. t= 15 (162092) Note Off ch=5 par1=50 par2=64
Channel Event. t= 25 (162117) Note Off ch=5 par1=38 par2=64
Channel Event. t= 412 (162529) Note On ch=5 par1=57 par2=72
Channel Event. t= 30 (162559) Note Off ch=5 par1=55 par2=64
Channel Event. t= 3 (162562) Note On ch=5 par1=45 par2=51
Channel Event. t= 30 (162592) Note Off ch=5 par1=43 par2=64
Channel Event. t= 405 (162997) Note On ch=5 par1=55 par2=86
Channel Event. t= 45 (163042) Note On ch=5 par1=43 par2=49
Channel Event. t= 15 (163057) Note Off ch=5 par1=57 par2=64
Channel Event. t= 45 (163102) Note Off ch=5 par1=45 par2=64
Channel Event. t= 397 (163499) Note On ch=5 par1=53 par2=58
Channel Event. t= 25 (163524) Note Off ch=5 par1=55 par2=64
Channel Event. t= 48 (163572) Note Off ch=5 par1=43 par2=64
Channel Event. t= 47 (163619) Note On ch=5 par1=41 par2=5
Channel Event. t= 365 (163984) Note Off ch=5 par1=41 par2=64
Channel Event. t= 0 (163984) Note On ch=5 par1=40 par2=37
Channel Event. t= 18 (164002) Note On ch=5 par1=52 par2=51
Channel Event. t= 47 (164049) Note Off ch=5 par1=53 par2=64
Channel Event. t= 408 (164457) Note On ch=5 par1=50 par2=48
Channel Event. t= 5 (164462) Note Off ch=5 par1=40 par2=64
Channel Event. t= 2 (164464) Note On ch=5 par1=38 par2=50
Channel Event. t= 53 (164517) Note Off ch=5 par1=52 par2=64
Channel Event. t= 317 (164834) Note Off ch=5 par1=50 par2=64
Channel Event. t= 38 (164872) Controller ch=5 par1=7 (Main Volume) par2=70
Channel Event. t= 37 (164909) Note Off ch=5 par1=38 par2=64
Channel Event. t= 73 (164982) Note On ch=5 par1=37 par2=58
Channel Event. t= 2 (164984) Note On ch=5 par1=49 par2=36
Channel Event. t= 425 (165409) Note On ch=5 par1=56 par2=51
Channel Event. t= 43 (165452) Note On ch=5 par1=62 par2=48
Channel Event. t= 12 (165464) Note Off ch=5 par1=37 par2=64
Channel Event. t= 20 (165484) Note Off ch=5 par1=49 par2=64
Channel Event. t= 10 (165494) Note On ch=5 par1=65 par2=40
Channel Event. t= 8 (165502) Note On ch=5 par1=68 par2=50
Channel Event. t= 17 (165519) Note Off ch=5 par1=56 par2=64
Channel Event. t= 65 (165584) Note Off ch=5 par1=62 par2=64
Channel Event. t= 10 (165594) Note Off ch=5 par1=65 par2=64
Channel Event. t= 10 (165604) Note Off ch=5 par1=68 par2=64
Channel Event. t= 338 (165942) Note On ch=5 par1=44 par2=55
Channel Event. t= 402 (166344) Note On ch=5 par1=57 par2=30
Channel Event. t= 45 (166389) Note On ch=5 par1=60 par2=47
Channel Event. t= 20 (166409) Note On ch=5 par1=64 par2=51
Channel Event. t= 10 (166419) Note On ch=5 par1=69 par2=61
Channel Event. t= 40 (166459) Note Off ch=5 par1=57 par2=64
Channel Event. t= 10 (166469) Note Off ch=5 par1=44 par2=64
Channel Event. t= 28 (166497) Note Off ch=5 par1=60 par2=64
Channel Event. t= 27 (166524) Note Off ch=5 par1=64 par2=64
Channel Event. t= 18 (166542) Note Off ch=5 par1=69 par2=64
Channel Event. t= 350 (166892) Note On ch=5 par1=37 par2=43
Channel Event. t= 2 (166894) Note On ch=5 par1=49 par2=38
Channel Event. t= 383 (167277) Note On ch=5 par1=56 par2=59
Channel Event. t= 37 (167314) Note On ch=5 par1=61 par2=61
Channel Event. t= 38 (167352) Note On ch=5 par1=65 par2=44
Channel Event. t= 2 (167354) Note On ch=5 par1=68 par2=62
Channel Event. t= 50 (167404) Note Off ch=5 par1=56 par2=64
Channel Event. t= 13 (167417) Note Off ch=5 par1=37 par2=64
Channel Event. t= 2 (167419) Note Off ch=5 par1=49 par2=64
Channel Event. t= 3 (167422) Note Off ch=5 par1=61 par2=64
Channel Event. t= 35 (167457) Note Off ch=5 par1=65 par2=64
Channel Event. t= 12 (167469) Note Off ch=5 par1=68 par2=64
Channel Event. t= 398 (167867) Note On ch=5 par1=44 par2=34
Channel Event. t= 372 (168239) Note On ch=5 par1=56 par2=44
Channel Event. t= 70 (168309) Note On ch=5 par1=60 par2=33
Channel Event. t= 18 (168327) Note On ch=5 par1=64 par2=52
Channel Event. t= 12 (168339) Note On ch=5 par1=68 par2=63
Channel Event. t= 48 (168387) Note Off ch=5 par1=44 par2=64
Channel Event. t= 5 (168392) Note Off ch=5 par1=56 par2=64
Channel Event. t= 30 (168422) Note Off ch=5 par1=60 par2=64
Channel Event. t= 20 (168442) Note Off ch=5 par1=64 par2=64
Channel Event. t= 17 (168459) Note Off ch=5 par1=68 par2=64
Channel Event. t= 340 (168799) Note On ch=5 par1=37 par2=44
Channel Event. t= 8 (168807) Note On ch=5 par1=49 par2=42
Channel Event. t= 385 (169192) Note On ch=5 par1=56 par2=51
Channel Event. t= 35 (169227) Note On ch=5 par1=61 par2=64
Channel Event. t= 35 (169262) Note On ch=5 par1=65 par2=49
Channel Event. t= 15 (169277) Note On ch=5 par1=68 par2=65
Channel Event. t= 27 (169304) Note Off ch=5 par1=56 par2=64
Channel Event. t= 5 (169309) Note Off ch=5 par1=37 par2=64
Channel Event. t= 5 (169314) Note Off ch=5 par1=49 par2=64
Channel Event. t= 25 (169339) Note Off ch=5 par1=61 par2=64
Channel Event. t= 38 (169377) Note Off ch=5 par1=65 par2=64
Channel Event. t= 15 (169392) Note Off ch=5 par1=68 par2=64
Channel Event. t= 395 (169787) Note On ch=5 par1=44 par2=42
Channel Event. t= 355 (170142) Note On ch=5 par1=56 par2=51
Channel Event. t= 57 (170199) Note On ch=5 par1=60 par2=47
Channel Event. t= 43 (170242) Note On ch=5 par1=68 par2=58
Channel Event. t= 2 (170244) Note On ch=5 par1=64 par2=37
Channel Event. t= 30 (170274) Note Off ch=5 par1=56 par2=64
Channel Event. t= 20 (170294) Note Off ch=5 par1=44 par2=64
Channel Event. t= 23 (170317) Note Off ch=5 par1=60 par2=64
Channel Event. t= 27 (170344) Note Off ch=5 par1=64 par2=64
Channel Event. t= 13 (170357) Note Off ch=5 par1=68 par2=64
Channel Event. t= 362 (170719) Note On ch=5 par1=49 par2=60
Channel Event. t= 3 (170722) Note On ch=5 par1=37 par2=57
Channel Event. t= 362 (171084) Note On ch=5 par1=56 par2=59
Channel Event. t= 35 (171119) Note On ch=5 par1=61 par2=73
Channel Event. t= 43 (171162) Note On ch=5 par1=65 par2=61
Channel Event. t= 5 (171167) Note Off ch=5 par1=56 par2=64
Channel Event. t= 17 (171184) Note On ch=5 par1=68 par2=75
Channel Event. t= 35 (171219) Note Off ch=5 par1=61 par2=64
Channel Event. t= 38 (171257) Note Off ch=5 par1=37 par2=64
Channel Event. t= 0 (171257) Note Off ch=5 par1=49 par2=64
Channel Event. t= 2 (171259) Note Off ch=5 par1=65 par2=64
Channel Event. t= 28 (171287) Note Off ch=5 par1=68 par2=64
Channel Event. t= 415 (171702) Note On ch=5 par1=44 par2=56
Channel Event. t= 342 (172044) Note On ch=5 par1=56 par2=55
Channel Event. t= 63 (172107) Note On ch=5 par1=60 par2=52
Channel Event. t= 27 (172134) Note Off ch=5 par1=56 par2=64
Channel Event. t= 13 (172147) Note On ch=5 par1=64 par2=63
Channel Event. t= 20 (172167) Note On ch=5 par1=68 par2=79
Channel Event. t= 35 (172202) Note Off ch=5 par1=60 par2=64
Channel Event. t= 50 (172252) Note Off ch=5 par1=64 par2=64
Channel Event. t= 7 (172259) Note Off ch=5 par1=44 par2=64
Channel Event. t= 13 (172272) Note Off ch=5 par1=68 par2=64
Channel Event. t= 400 (172672) Note On ch=5 par1=49 par2=63
Channel Event. t= 250 (172922) Note Off ch=5 par1=49 par2=64
Channel Event. t= 230 (173152) Note On ch=5 par1=61 par2=75
Channel Event. t= 0 (173152) Note On ch=5 par1=53 par2=58
Channel Event. t= 255 (173407) Note Off ch=5 par1=53 par2=64
Channel Event. t= 12 (173419) Note Off ch=5 par1=61 par2=64
Channel Event. t= 213 (173632) Note On ch=5 par1=43 par2=47
Channel Event. t= 250 (173882) Note Off ch=5 par1=43 par2=64
Channel Event. t= 230 (174112) Note On ch=5 par1=55 par2=38
Channel Event. t= 0 (174112) Note On ch=5 par1=64 par2=48
Channel Event. t= 240 (174352) Note Off ch=5 par1=64 par2=64
Channel Event. t= 2 (174354) Note Off ch=5 par1=55 par2=64
Channel Event. t= 238 (174592) Note On ch=5 par1=49 par2=47
Channel Event. t= 252 (174844) Note Off ch=5 par1=49 par2=64
Channel Event. t= 228 (175072) Note On ch=5 par1=61 par2=67
Channel Event. t= 0 (175072) Note On ch=5 par1=53 par2=45
Channel Event. t= 240 (175312) Note Off ch=5 par1=53 par2=64
Channel Event. t= 35 (175347) Note Off ch=5 par1=61 par2=64
Channel Event. t= 205 (175552) Note On ch=5 par1=43 par2=37
Channel Event. t= 207 (175759) Note Off ch=5 par1=43 par2=64
Channel Event. t= 273 (176032) Note On ch=5 par1=55 par2=45
Channel Event. t= 0 (176032) Note On ch=5 par1=64 par2=58
Channel Event. t= 240 (176272) Note Off ch=5 par1=64 par2=64
Channel Event. t= 2 (176274) Note Off ch=5 par1=55 par2=64
Channel Event. t= 238 (176512) Note On ch=5 par1=49 par2=46
Channel Event. t= 230 (176742) Note Off ch=5 par1=49 par2=64
Channel Event. t= 250 (176992) Note On ch=5 par1=61 par2=58
Channel Event. t= 0 (176992) Note On ch=5 par1=53 par2=44
Channel Event. t= 225 (177217) Note Off ch=5 par1=53 par2=64
Channel Event. t= 25 (177242) Note Off ch=5 par1=61 par2=64
Channel Event. t= 230 (177472) Note On ch=5 par1=43 par2=51
Channel Event. t= 247 (177719) Note Off ch=5 par1=43 par2=64
Channel Event. t= 233 (177952) Note On ch=5 par1=55 par2=46
Channel Event. t= 0 (177952) Note On ch=5 par1=64 par2=55
Channel Event. t= 220 (178172) Note Off ch=5 par1=64 par2=64
Channel Event. t= 2 (178174) Note Off ch=5 par1=55 par2=64
Channel Event. t= 258 (178432) Note On ch=5 par1=49 par2=53
Channel Event. t= 262 (178694) Note Off ch=5 par1=49 par2=64
Channel Event. t= 218 (178912) Note On ch=5 par1=61 par2=63
Channel Event. t= 0 (178912) Note On ch=5 par1=53 par2=48
Channel Event. t= 230 (179142) Note Off ch=5 par1=53 par2=64
Channel Event. t= 40 (179182) Note Off ch=5 par1=61 par2=64
Channel Event. t= 210 (179392) Note On ch=5 par1=43 par2=45
Channel Event. t= 260 (179652) Note Off ch=5 par1=43 par2=64
Channel Event. t= 220 (179872) Note On ch=5 par1=55 par2=46
Channel Event. t= 0 (179872) Note On ch=5 par1=64 par2=52
Channel Event. t= 250 (180122) Note Off ch=5 par1=64 par2=64
Channel Event. t= 22 (180144) Note Off ch=5 par1=55 par2=64
Channel Event. t= 208 (180352) Note On ch=5 par1=49 par2=56
Channel Event. t= 235 (180587) Note Off ch=5 par1=49 par2=64
Channel Event. t= 245 (180832) Note On ch=5 par1=61 par2=59
Channel Event. t= 0 (180832) Note On ch=5 par1=53 par2=40
Channel Event. t= 232 (181064) Note Off ch=5 par1=53 par2=64
Channel Event. t= 30 (181094) Note Off ch=5 par1=61 par2=64
Channel Event. t= 218 (181312) Note On ch=5 par1=43 par2=50
Channel Event. t= 257 (181569) Note Off ch=5 par1=43 par2=64
Channel Event. t= 223 (181792) Note On ch=5 par1=55 par2=51
Channel Event. t= 0 (181792) Note On ch=5 par1=64 par2=56
Channel Event. t= 232 (182024) Note Off ch=5 par1=64 par2=64
Channel Event. t= 10 (182034) Note Off ch=5 par1=55 par2=64
Channel Event. t= 238 (182272) Note On ch=5 par1=49 par2=52
Channel Event. t= 232 (182504) Note Off ch=5 par1=49 par2=64
Channel Event. t= 248 (182752) Note On ch=5 par1=61 par2=68
Channel Event. t= 0 (182752) Note On ch=5 par1=53 par2=53
Channel Event. t= 220 (182972) Note Off ch=5 par1=53 par2=64
Channel Event. t= 52 (183024) Note Off ch=5 par1=61 par2=64
Channel Event. t= 208 (183232) Note On ch=5 par1=43 par2=56
Channel Event. t= 277 (183509) Note Off ch=5 par1=43 par2=64
Channel Event. t= 203 (183712) Note On ch=5 par1=55 par2=64
Channel Event. t= 0 (183712) Note On ch=5 par1=64 par2=64
Channel Event. t= 212 (183924) Note Off ch=5 par1=55 par2=64
Channel Event. t= 15 (183939) Note Off ch=5 par1=64 par2=64
Channel Event. t= 250 (184189) Note On ch=5 par1=43 par2=45
Channel Event. t= 8 (184197) Note On ch=5 par1=36 par2=42
Channel Event. t= 387 (184584) Note Off ch=5 par1=36 par2=64
Channel Event. t= 0 (184584) Note Off ch=5 par1=43 par2=64
Channel Event. t= 38 (184622) Note On ch=5 par1=57 par2=61
Channel Event. t= 42 (184664) Note On ch=5 par1=60 par2=74
Channel Event. t= 13 (184677) Note On ch=5 par1=64 par2=68
Channel Event. t= 37 (184714) Note On ch=5 par1=67 par2=59
Channel Event. t= 10 (184724) Note Off ch=5 par1=57 par2=64
Channel Event. t= 50 (184774) Note Off ch=5 par1=60 par2=64
Channel Event. t= 18 (184792) Note Off ch=5 par1=64 par2=64
Channel Event. t= 22 (184814) Note Off ch=5 par1=67 par2=64
Channel Event. t= 338 (185152) Note On ch=5 par1=43 par2=48
Channel Event. t= 0 (185152) Note On ch=5 par1=51 par2=55
Channel Event. t= 352 (185504) Note Off ch=5 par1=51 par2=64
Channel Event. t= 20 (185524) Note Off ch=5 par1=43 par2=64
Channel Event. t= 8 (185532) Note On ch=5 par1=55 par2=49
Channel Event. t= 42 (185574) Note On ch=5 par1=59 par2=69
Channel Event. t= 18 (185592) Note On ch=5 par1=62 par2=69
Channel Event. t= 35 (185627) Note On ch=5 par1=67 par2=63
Channel Event. t= 37 (185664) Note Off ch=5 par1=55 par2=64
Channel Event. t= 38 (185702) Note Off ch=5 par1=59 par2=64
Channel Event. t= 22 (185724) Note Off ch=5 par1=62 par2=64
Channel Event. t= 25 (185749) Note Off ch=5 par1=67 par2=64
Channel Event. t= 370 (186119) Note On ch=5 par1=36 par2=52
Channel Event. t= 0 (186119) Note On ch=5 par1=43 par2=53
Channel Event. t= 263 (186382) Note Off ch=5 par1=36 par2=64
Channel Event. t= 10 (186392) Note Off ch=5 par1=43 par2=64
Channel Event. t= 97 (186489) Note On ch=5 par1=55 par2=47
Channel Event. t= 40 (186529) Note On ch=5 par1=60 par2=62
Channel Event. t= 23 (186552) Note On ch=5 par1=64 par2=61
Channel Event. t= 25 (186577) Note On ch=5 par1=67 par2=71
Channel Event. t= 65 (186642) Note Off ch=5 par1=55 par2=64
Channel Event. t= 25 (186667) Note Off ch=5 par1=60 par2=64
Channel Event. t= 17 (186684) Note Off ch=5 par1=64 par2=64
Channel Event. t= 25 (186709) Note Off ch=5 par1=67 par2=64
Channel Event. t= 363 (187072) Note On ch=5 par1=51 par2=45
Channel Event. t= 0 (187072) Note On ch=5 par1=43 par2=50
Channel Event. t= 262 (187334) Note Off ch=5 par1=51 par2=64
Channel Event. t= 18 (187352) Note Off ch=5 par1=43 par2=64
Channel Event. t= 105 (187457) Note On ch=5 par1=55 par2=52
Channel Event. t= 37 (187494) Note On ch=5 par1=59 par2=72
Channel Event. t= 28 (187522) Note On ch=5 par1=63 par2=77
Channel Event. t= 25 (187547) Note On ch=5 par1=67 par2=69
Channel Event. t= 20 (187567) Note Off ch=5 par1=55 par2=64
Channel Event. t= 40 (187607) Note Off ch=5 par1=59 par2=64
Channel Event. t= 27 (187634) Note Off ch=5 par1=63 par2=64
Channel Event. t= 30 (187664) Note Off ch=5 par1=67 par2=64
Channel Event. t= 368 (188032) Note On ch=5 par1=48 par2=61
Channel Event. t= 475 (188507) Note Off ch=5 par1=48 par2=64
Channel Event. t= 5 (188512) Note On ch=5 par1=72 par2=63
Channel Event. t= 192 (188704) Note Off ch=5 par1=72 par2=64
Channel Event. t= 288 (188992) Note On ch=5 par1=55 par2=61
Channel Event. t= 480 (189472) Note On ch=5 par1=75 par2=79
Channel Event. t= 45 (189517) Note Off ch=5 par1=55 par2=64
Channel Event. t= 127 (189644) Note Off ch=5 par1=75 par2=64
Channel Event. t= 308 (189952) Note On ch=5 par1=60 par2=75
Channel Event. t= 137 (190089) Note Off ch=5 par1=60 par2=64
Channel Event. t= 343 (190432) Note On ch=5 par1=67 par2=62
Channel Event. t= 135 (190567) Note Off ch=5 par1=67 par2=64
Channel Event. t= 345 (190912) Note On ch=5 par1=67 par2=67
Channel Event. t= 480 (191392) Note On ch=5 par1=71 par2=71
Channel Event. t= 20 (191412) Note Off ch=5 par1=67 par2=64
Channel Event. t= 115 (191527) Note Off ch=5 par1=71 par2=64
Channel Event. t= 345 (191872) Note On ch=5 par1=76 par2=69
Channel Event. t= 465 (192337) Note Off ch=5 par1=76 par2=64
Channel Event. t= 15 (192352) Note On ch=5 par1=79 par2=33
Channel Event. t= 62 (192414) Note Off ch=5 par1=79 par2=64
Channel Event. t= 418 (192832) Note On ch=5 par1=76 par2=52
Channel Event. t= 470 (193302) Note Off ch=5 par1=76 par2=64
Channel Event. t= 10 (193312) Note On ch=5 par1=79 par2=36
Channel Event. t= 70 (193382) Note Off ch=5 par1=79 par2=64
Channel Event. t= 410 (193792) Note On ch=5 par1=76 par2=53
Channel Event. t= 232 (194024) Note Off ch=5 par1=76 par2=64
Channel Event. t= 248 (194272) Note On ch=5 par1=79 par2=44
Channel Event. t= 157 (194429) Note Off ch=5 par1=79 par2=64
Channel Event. t= 323 (194752) Note On ch=5 par1=76 par2=25
Channel Event. t= 337 (195089) Note Off ch=5 par1=76 par2=64
Channel Event. t= 143 (195232) Note On ch=5 par1=79 par2=40
Channel Event. t= 157 (195389) Note Off ch=5 par1=79 par2=64
Channel Event. t= 323 (195712) Note On ch=5 par1=76 par2=27
Channel Event. t= 382 (196094) Note Off ch=5 par1=76 par2=64
Channel Event. t= 98 (196192) Note On ch=5 par1=79 par2=52
Channel Event. t= 160 (196352) Note Off ch=5 par1=79 par2=64
Channel Event. t= 320 (196672) Note On ch=5 par1=76 par2=45
Channel Event. t= 337 (197009) Note Off ch=5 par1=76 par2=64
Channel Event. t= 143 (197152) Note On ch=5 par1=79 par2=56
Channel Event. t= 175 (197327) Note Off ch=5 par1=79 par2=64
Channel Event. t= 185 (197512) Controller ch=5 par1=10 (Pan) par2=60
Channel Event. t= 105 (197617) Note On ch=5 par1=76 par2=46
Channel Event. t= 212 (197829) Note Off ch=5 par1=76 par2=64
Channel Event. t= 743 (198572) Note On ch=5 par1=76 par2=48
Channel Event. t= 237 (198809) Note Off ch=5 par1=76 par2=64
Channel Event. t= 655 (199464) Note On ch=5 par1=78 par2=41
Channel Event. t= 45 (199509) Note On ch=5 par1=77 par2=47
Channel Event. t= 43 (199552) Note Off ch=5 par1=78 par2=64
Channel Event. t= 0 (199552) Note On ch=5 par1=86 par2=42
Channel Event. t= 0 (199552) Note On ch=5 par1=65 par2=35
Channel Event. t= 0 (199552) Note On ch=5 par1=82 par2=47
Channel Event. t= 235 (199787) Note Off ch=5 par1=82 par2=64
Channel Event. t= 5 (199792) Note Off ch=5 par1=86 par2=64
Channel Event. t= 0 (199792) Note On ch=5 par1=84 par2=44
Channel Event. t= 0 (199792) Note On ch=5 par1=81 par2=32
Channel Event. t= 237 (200029) Note Off ch=5 par1=84 par2=64
Channel Event. t= 3 (200032) Note On ch=5 par1=82 par2=46
Channel Event. t= 0 (200032) Note On ch=5 par1=79 par2=36
Channel Event. t= 42 (200074) Note Off ch=5 par1=81 par2=64
Channel Event. t= 198 (200272) Note Off ch=5 par1=82 par2=64
Channel Event. t= 0 (200272) Note On ch=5 par1=84 par2=67
Channel Event. t= 0 (200272) Note On ch=5 par1=81 par2=35
Channel Event. t= 27 (200299) Note Off ch=5 par1=79 par2=64
Channel Event. t= 213 (200512) Note Off ch=5 par1=84 par2=64
Channel Event. t= 0 (200512) Note On ch=5 par1=86 par2=52
Channel Event. t= 0 (200512) Note On ch=5 par1=82 par2=48
Channel Event. t= 15 (200527) Note Off ch=5 par1=81 par2=64
Channel Event. t= 322 (200849) Note Off ch=5 par1=77 par2=64
Channel Event. t= 30 (200879) Note Off ch=5 par1=82 par2=64
Channel Event. t= 95 (200974) Note On ch=5 par1=77 par2=61
Channel Event. t= 10 (200984) Note Off ch=5 par1=86 par2=64
Channel Event. t= 8 (200992) Note On ch=5 par1=85 par2=46
Channel Event. t= 0 (200992) Note On ch=5 par1=88 par2=54
Channel Event. t= 0 (200992) Note On ch=5 par1=76 par2=48
Channel Event. t= 0 (200992) Note On ch=5 par1=81 par2=46
Channel Event. t= 55 (201047) Note Off ch=5 par1=65 par2=64
Channel Event. t= 50 (201097) Note Off ch=5 par1=77 par2=64
Channel Event. t= 135 (201232) Note On ch=5 par1=75 par2=61
Channel Event. t= 15 (201247) Note Off ch=5 par1=76 par2=64
Channel Event. t= 197 (201444) Note Off ch=5 par1=85 par2=64
Channel Event. t= 13 (201457) Note Off ch=5 par1=88 par2=64
Channel Event. t= 2 (201459) Note Off ch=5 par1=75 par2=64
Channel Event. t= 13 (201472) Note On ch=5 par1=93 par2=61
Channel Event. t= 0 (201472) Note On ch=5 par1=74 par2=55
Channel Event. t= 0 (201472) Note On ch=5 par1=84 par2=67
Channel Event. t= 20 (201492) Note Off ch=5 par1=81 par2=64
Channel Event. t= 220 (201712) Note On ch=5 par1=75 par2=48
Channel Event. t= 15 (201727) Note Off ch=5 par1=74 par2=64
Channel Event. t= 185 (201912) Note On ch=5 par1=76 par2=53
Channel Event. t= 40 (201952) Note On ch=5 par1=85 par2=51
Channel Event. t= 0 (201952) Note On ch=5 par1=88 par2=48
Channel Event. t= 0 (201952) Note On ch=5 par1=81 par2=41
Channel Event. t= 5 (201957) Note Off ch=5 par1=75 par2=64
Channel Event. t= 20 (201977) Note Off ch=5 par1=93 par2=64
Channel Event. t= 32 (202009) Note Off ch=5 par1=76 par2=64
Channel Event. t= 8 (202017) Note Off ch=5 par1=84 par2=64
Channel Event. t= 175 (202192) Note On ch=5 par1=79 par2=49
Channel Event. t= 115 (202307) Note Off ch=5 par1=88 par2=64
Channel Event. t= 5 (202312) Note Off ch=5 par1=81 par2=64
Channel Event. t= 10 (202322) Note Off ch=5 par1=85 par2=64
Channel Event. t= 7 (202329) Note On ch=5 par1=78 par2=65
Channel Event. t= 45 (202374) Note On ch=5 par1=77 par2=53
Channel Event. t= 55 (202429) Note Off ch=5 par1=78 par2=64
Channel Event. t= 3 (202432) Note Off ch=5 par1=79 par2=64
Channel Event. t= 0 (202432) Note On ch=5 par1=86 par2=65
Channel Event. t= 0 (202432) Note On ch=5 par1=65 par2=42
Channel Event. t= 0 (202432) Note On ch=5 par1=82 par2=67
Channel Event. t= 240 (202672) Note Off ch=5 par1=82 par2=64
Channel Event. t= 0 (202672) Note On ch=5 par1=84 par2=49
Channel Event. t= 0 (202672) Note On ch=5 par1=81 par2=47
Channel Event. t= 70 (202742) Note Off ch=5 par1=86 par2=64
Channel Event. t= 170 (202912) Note On ch=5 par1=82 par2=55
Channel Event. t= 0 (202912) Note On ch=5 par1=79 par2=53
Channel Event. t= 10 (202922) Note Off ch=5 par1=81 par2=64
Channel Event. t= 15 (202937) Note Off ch=5 par1=84 par2=64
Channel Event. t= 215 (203152) Note On ch=5 par1=84 par2=54
Channel Event. t= 0 (203152) Note On ch=5 par1=81 par2=40
Channel Event. t= 22 (203174) Note Off ch=5 par1=82 par2=64
Channel Event. t= 18 (203192) Note Off ch=5 par1=79 par2=64
Channel Event. t= 200 (203392) Note On ch=5 par1=86 par2=54
Channel Event. t= 0 (203392) Note On ch=5 par1=82 par2=51
Channel Event. t= 32 (203424) Note Off ch=5 par1=84 par2=64
Channel Event. t= 23 (203447) Note Off ch=5 par1=81 par2=64
Channel Event. t= 260 (203707) Note Off ch=5 par1=86 par2=64
Channel Event. t= 27 (203734) Note Off ch=5 par1=77 par2=64
Channel Event. t= 63 (203797) Note Off ch=5 par1=82 par2=64
Channel Event. t= 20 (203817) Note On ch=5 par1=77 par2=56
Channel Event. t= 27 (203844) Note On ch=5 par1=76 par2=52
Channel Event. t= 28 (203872) Note On ch=5 par1=88 par2=56
Channel Event. t= 0 (203872) Note On ch=5 par1=85 par2=57
Channel Event. t= 0 (203872) Note On ch=5 par1=81 par2=59
Channel Event. t= 55 (203927) Note Off ch=5 par1=65 par2=64
Channel Event. t= 2 (203929) Note Off ch=5 par1=77 par2=64
Channel Event. t= 183 (204112) Note On ch=5 par1=75 par2=56
Channel Event. t= 7 (204119) Note Off ch=5 par1=76 par2=64
Channel Event. t= 233 (204352) Note On ch=5 par1=84 par2=53
Channel Event. t= 0 (204352) Note On ch=5 par1=93 par2=56
Channel Event. t= 0 (204352) Note On ch=5 par1=74 par2=51
Channel Event. t= 32 (204384) Note Off ch=5 par1=85 par2=64
Channel Event. t= 3 (204387) Note Off ch=5 par1=75 par2=64
Channel Event. t= 2 (204389) Note Off ch=5 par1=88 par2=64
Channel Event. t= 193 (204582) Note Off ch=5 par1=81 par2=64
Channel Event. t= 10 (204592) Note On ch=5 par1=75 par2=41
Channel Event. t= 30 (204622) Note Off ch=5 par1=74 par2=64
Channel Event. t= 180 (204802) Note Off ch=5 par1=84 par2=64
Channel Event. t= 0 (204802) Note Off ch=5 par1=93 par2=64
Channel Event. t= 30 (204832) Note On ch=5 par1=88 par2=59
Channel Event. t= 0 (204832) Note On ch=5 par1=76 par2=39
Channel Event. t= 37 (204869) Note Off ch=5 par1=75 par2=64
Channel Event. t= 60 (204929) Note Off ch=5 par1=76 par2=64
Channel Event. t= 143 (205072) Note On ch=5 par1=85 par2=58
Channel Event. t= 67 (205139) Note Off ch=5 par1=88 par2=64
Channel Event. t= 150 (205289) Note Off ch=5 par1=85 par2=64
Channel Event. t= 23 (205312) Controller ch=5 par1=7 (Main Volume) par2=70
Channel Event. t= 0 (205312) Note On ch=5 par1=70 par2=70
Channel Event. t= 0 (205312) Note On ch=5 par1=77 par2=70
Channel Event. t= 0 (205312) Note On ch=5 par1=86 par2=70
Channel Event. t= 240 (205552) Controller ch=5 par1=7 (Main Volume) par2=71
Channel Event. t= 0 (205552) Note On ch=5 par1=53 par2=71
Channel Event. t= 240 (205792) Controller ch=5 par1=7 (Main Volume) par2=72
Channel Event. t= 0 (205792) Note On ch=5 par1=55 par2=72
Channel Event. t= 40 (205832) Note Off ch=5 par1=53 par2=64
Channel Event. t= 200 (206032) Controller ch=5 par1=7 (Main Volume) par2=73
Channel Event. t= 0 (206032) Note On ch=5 par1=57 par2=73
Channel Event. t= 2 (206034) Note Off ch=5 par1=55 par2=64
Channel Event. t= 230 (206264) Note Off ch=5 par1=57 par2=64
Channel Event. t= 8 (206272) Controller ch=5 par1=7 (Main Volume) par2=74
Channel Event. t= 0 (206272) Note On ch=5 par1=58 par2=74
Channel Event. t= 27 (206299) Note Off ch=5 par1=70 par2=64
Channel Event. t= 15 (206314) Note Off ch=5 par1=77 par2=64
Channel Event. t= 10 (206324) Note Off ch=5 par1=86 par2=64
Channel Event. t= 160 (206484) Note Off ch=5 par1=58 par2=64
Channel Event. t= 28 (206512) Controller ch=5 par1=7 (Main Volume) par2=75
Channel Event. t= 0 (206512) Note On ch=5 par1=59 par2=75
Channel Event. t= 240 (206752) Note Off ch=5 par1=59 par2=64
Channel Event. t= 0 (206752) Controller ch=5 par1=7 (Main Volume) par2=76
Channel Event. t= 0 (206752) Note On ch=5 par1=60 par2=76
Channel Event. t= 0 (206752) Note On ch=5 par1=55 par2=76
Channel Event. t= 0 (206752) Note On ch=5 par1=52 par2=76
Channel Event. t= 0 (206752) Note On ch=5 par1=58 par2=76
Channel Event. t= 77 (206829) Note Off ch=5 par1=52 par2=64
Channel Event. t= 10 (206839) Note Off ch=5 par1=58 par2=64
Channel Event. t= 15 (206854) Note Off ch=5 par1=55 par2=64
Channel Event. t= 15 (206869) Note Off ch=5 par1=60 par2=64
Channel Event. t= 43 (206912) Note On ch=5 par1=60 par2=76
Channel Event. t= 0 (206912) Note On ch=5 par1=55 par2=76
Channel Event. t= 0 (206912) Note On ch=5 par1=52 par2=76
Channel Event. t= 0 (206912) Note On ch=5 par1=58 par2=76
Channel Event. t= 62 (206974) Note Off ch=5 par1=58 par2=64
Channel Event. t= 0 (206974) Note Off ch=5 par1=52 par2=64
Channel Event. t= 18 (206992) Note Off ch=5 par1=55 par2=64
Channel Event. t= 0 (206992) Controller ch=5 par1=7 (Main Volume) par2=77
Channel Event. t= 27 (207019) Note Off ch=5 par1=60 par2=64
Channel Event. t= 53 (207072) Note On ch=5 par1=60 par2=77
Channel Event. t= 0 (207072) Note On ch=5 par1=55 par2=77
Channel Event. t= 0 (207072) Note On ch=5 par1=52 par2=77
Channel Event. t= 0 (207072) Note On ch=5 par1=58 par2=77
Channel Event. t= 67 (207139) Note Off ch=5 par1=58 par2=64
Channel Event. t= 10 (207149) Note Off ch=5 par1=52 par2=64
Channel Event. t= 50 (207199) Note Off ch=5 par1=55 par2=64
Channel Event. t= 13 (207212) Note Off ch=5 par1=60 par2=64
Channel Event. t= 20 (207232) Controller ch=5 par1=7 (Main Volume) par2=78
Channel Event. t= 0 (207232) Note On ch=5 par1=61 par2=78
Channel Event. t= 0 (207232) Note On ch=5 par1=56 par2=78
Channel Event. t= 0 (207232) Note On ch=5 par1=51 par2=78
Channel Event. t= 0 (207232) Note On ch=5 par1=58 par2=78
Channel Event. t= 65 (207297) Note Off ch=5 par1=56 par2=64
Channel Event. t= 7 (207304) Note Off ch=5 par1=61 par2=64
Channel Event. t= 0 (207304) Note Off ch=5 par1=51 par2=64
Channel Event. t= 23 (207327) Note Off ch=5 par1=58 par2=64
Channel Event. t= 65 (207392) Note On ch=5 par1=61 par2=78
Channel Event. t= 0 (207392) Note On ch=5 par1=56 par2=78
Channel Event. t= 0 (207392) Note On ch=5 par1=51 par2=78
Channel Event. t= 0 (207392) Note On ch=5 par1=58 par2=78
Channel Event. t= 52 (207444) Note Off ch=5 par1=51 par2=64
Channel Event. t= 8 (207452) Note Off ch=5 par1=56 par2=64
Channel Event. t= 7 (207459) Note Off ch=5 par1=58 par2=64
Channel Event. t= 13 (207472) Controller ch=5 par1=7 (Main Volume) par2=79
Channel Event. t= 7 (207479) Note Off ch=5 par1=61 par2=64
Channel Event. t= 73 (207552) Note On ch=5 par1=61 par2=79
Channel Event. t= 0 (207552) Note On ch=5 par1=56 par2=79
Channel Event. t= 0 (207552) Note On ch=5 par1=51 par2=79
Channel Event. t= 0 (207552) Note On ch=5 par1=58 par2=79
Channel Event. t= 97 (207649) Note Off ch=5 par1=51 par2=64
Channel Event. t= 5 (207654) Note Off ch=5 par1=58 par2=64
Channel Event. t= 10 (207664) Note Off ch=5 par1=56 par2=64
Channel Event. t= 30 (207694) Note Off ch=5 par1=61 par2=64
Channel Event. t= 18 (207712) Controller ch=5 par1=7 (Main Volume) par2=80
Channel Event. t= 0 (207712) Note On ch=5 par1=62 par2=80
Channel Event. t= 0 (207712) Note On ch=5 par1=57 par2=80
Channel Event. t= 0 (207712) Note On ch=5 par1=52 par2=80
Channel Event. t= 0 (207712) Note On ch=5 par1=60 par2=80
Channel Event. t= 80 (207792) Note Off ch=5 par1=57 par2=64
Channel Event. t= 2 (207794) Note Off ch=5 par1=52 par2=64
Channel Event. t= 25 (207819) Note Off ch=5 par1=60 par2=64
Channel Event. t= 8 (207827) Note Off ch=5 par1=62 par2=64
Channel Event. t= 45 (207872) Note On ch=5 par1=62 par2=80
Channel Event. t= 0 (207872) Note On ch=5 par1=57 par2=80
Channel Event. t= 0 (207872) Note On ch=5 par1=52 par2=80
Channel Event. t= 0 (207872) Note On ch=5 par1=60 par2=80
Channel Event. t= 60 (207932) Note Off ch=5 par1=52 par2=64
Channel Event. t= 12 (207944) Note Off ch=5 par1=60 par2=64
Channel Event. t= 8 (207952) Controller ch=5 par1=7 (Main Volume) par2=81
Channel Event. t= 2 (207954) Note Off ch=5 par1=57 par2=64
Channel Event. t= 20 (207974) Note Off ch=5 par1=62 par2=64
Channel Event. t= 58 (208032) Note On ch=5 par1=62 par2=81
Channel Event. t= 0 (208032) Note On ch=5 par1=57 par2=81
Channel Event. t= 0 (208032) Note On ch=5 par1=52 par2=81
Channel Event. t= 0 (208032) Note On ch=5 par1=60 par2=81
Channel Event. t= 80 (208112) Note Off ch=5 par1=60 par2=64
Channel Event. t= 40 (208152) Note Off ch=5 par1=52 par2=64
Channel Event. t= 17 (208169) Note Off ch=5 par1=57 par2=64
Channel Event. t= 5 (208174) Note Off ch=5 par1=62 par2=64
Channel Event. t= 18 (208192) Controller ch=5 par1=7 (Main Volume) par2=82
Channel Event. t= 0 (208192) Note On ch=5 par1=63 par2=82
Channel Event. t= 0 (208192) Note On ch=5 par1=58 par2=82
Channel Event. t= 0 (208192) Note On ch=5 par1=51 par2=82
Channel Event. t= 0 (208192) Note On ch=5 par1=60 par2=82
Channel Event. t= 62 (208254) Note Off ch=5 par1=58 par2=64
Channel Event. t= 18 (208272) Note Off ch=5 par1=51 par2=64
Channel Event. t= 17 (208289) Note Off ch=5 par1=63 par2=64
Channel Event. t= 0 (208289) Note Off ch=5 par1=60 par2=64
Channel Event. t= 63 (208352) Note On ch=5 par1=63 par2=82
Channel Event. t= 0 (208352) Note On ch=5 par1=58 par2=82
Channel Event. t= 0 (208352) Note On ch=5 par1=51 par2=82
Channel Event. t= 0 (208352) Note On ch=5 par1=60 par2=82
Channel Event. t= 62 (208414) Note Off ch=5 par1=58 par2=64
Channel Event. t= 10 (208424) Note Off ch=5 par1=51 par2=64
Channel Event. t= 3 (208427) Note Off ch=5 par1=60 par2=64
Channel Event. t= 5 (208432) Controller ch=5 par1=7 (Main Volume) par2=83
Channel Event. t= 22 (208454) Note Off ch=5 par1=63 par2=64
Channel Event. t= 58 (208512) Note On ch=5 par1=63 par2=83
Channel Event. t= 0 (208512) Note On ch=5 par1=58 par2=83
Channel Event. t= 0 (208512) Note On ch=5 par1=51 par2=83
Channel Event. t= 0 (208512) Note On ch=5 par1=60 par2=83
Channel Event. t= 90 (208602) Note Off ch=5 par1=60 par2=64
Channel Event. t= 2 (208604) Note Off ch=5 par1=51 par2=64
Channel Event. t= 15 (208619) Note Off ch=5 par1=63 par2=64
Channel Event. t= 5 (208624) Note Off ch=5 par1=58 par2=64
Channel Event. t= 48 (208672) Controller ch=5 par1=7 (Main Volume) par2=84
Channel Event. t= 0 (208672) Note On ch=5 par1=64 par2=84
Channel Event. t= 0 (208672) Note On ch=5 par1=59 par2=84
Channel Event. t= 0 (208672) Note On ch=5 par1=52 par2=84
Channel Event. t= 0 (208672) Note On ch=5 par1=62 par2=84
Channel Event. t= 82 (208754) Note Off ch=5 par1=59 par2=64
Channel Event. t= 8 (208762) Note Off ch=5 par1=52 par2=64
Channel Event. t= 2 (208764) Note Off ch=5 par1=64 par2=64
Channel Event. t= 10 (208774) Note Off ch=5 par1=62 par2=64
Channel Event. t= 58 (208832) Note On ch=5 par1=64 par2=84
Channel Event. t= 0 (208832) Note On ch=5 par1=59 par2=84
Channel Event. t= 0 (208832) Note On ch=5 par1=52 par2=84
Channel Event. t= 0 (208832) Note On ch=5 par1=62 par2=84
Channel Event. t= 20 (208852) Controller ch=5 par1=7 (Main Volume) par2=85
Channel Event. t= 45 (208897) Note Off ch=5 par1=52 par2=64
Channel Event. t= 10 (208907) Note Off ch=5 par1=62 par2=64
Channel Event. t= 27 (208934) Note Off ch=5 par1=59 par2=64
Channel Event. t= 0 (208934) Note Off ch=5 par1=64 par2=64
Channel Event. t= 58 (208992) Note On ch=5 par1=64 par2=85
Channel Event. t= 0 (208992) Note On ch=5 par1=59 par2=85
Channel Event. t= 0 (208992) Note On ch=5 par1=52 par2=85
Channel Event. t= 0 (208992) Note On ch=5 par1=62 par2=85
Channel Event. t= 70 (209062) Note Off ch=5 par1=62 par2=64
Channel Event. t= 30 (209092) Controller ch=5 par1=7 (Main Volume) par2=86
Channel Event. t= 7 (209099) Note Off ch=5 par1=52 par2=64
Channel Event. t= 13 (209112) Note Off ch=5 par1=59 par2=64
Channel Event. t= 0 (209112) Note Off ch=5 par1=64 par2=64
Channel Event. t= 40 (209152) Note On ch=5 par1=65 par2=86
Channel Event. t= 0 (209152) Note On ch=5 par1=60 par2=86
Channel Event. t= 0 (209152) Note On ch=5 par1=51 par2=86
Channel Event. t= 0 (209152) Note On ch=5 par1=62 par2=86
Channel Event. t= 85 (209237) Note Off ch=5 par1=51 par2=64
Channel Event. t= 12 (209249) Note Off ch=5 par1=60 par2=64
Channel Event. t= 13 (209262) Note Off ch=5 par1=62 par2=64
Channel Event. t= 2 (209264) Note Off ch=5 par1=65 par2=64
Channel Event. t= 48 (209312) Note On ch=5 par1=65 par2=86
Channel Event. t= 0 (209312) Note On ch=5 par1=60 par2=86
Channel Event. t= 0 (209312) Note On ch=5 par1=51 par2=86
Channel Event. t= 0 (209312) Note On ch=5 par1=62 par2=86
Channel Event. t= 20 (209332) Controller ch=5 par1=7 (Main Volume) par2=87
Channel Event. t= 50 (209382) Note Off ch=5 par1=62 par2=64
Channel Event. t= 5 (209387) Note Off ch=5 par1=51 par2=64
Channel Event. t= 2 (209389) Note Off ch=5 par1=60 par2=64
Channel Event. t= 28 (209417) Note Off ch=5 par1=65 par2=64
Channel Event. t= 55 (209472) Note On ch=5 par1=65 par2=87
Channel Event. t= 0 (209472) Note On ch=5 par1=60 par2=87
Channel Event. t= 0 (209472) Note On ch=5 par1=51 par2=87
Channel Event. t= 0 (209472) Note On ch=5 par1=62 par2=87
Channel Event. t= 100 (209572) Controller ch=5 par1=7 (Main Volume) par2=88
Channel Event. t= 5 (209577) Note Off ch=5 par1=51 par2=64
Channel Event. t= 15 (209592) Note Off ch=5 par1=65 par2=64
Channel Event. t= 2 (209594) Note Off ch=5 par1=60 par2=64
Channel Event. t= 5 (209599) Note Off ch=5 par1=62 par2=64
Channel Event. t= 33 (209632) Note On ch=5 par1=66 par2=88
Channel Event. t= 0 (209632) Note On ch=5 par1=61 par2=88
Channel Event. t= 0 (209632) Note On ch=5 par1=49 par2=88
Channel Event. t= 0 (209632) Note On ch=5 par1=64 par2=88
Channel Event. t= 100 (209732) Note Off ch=5 par1=61 par2=64
Channel Event. t= 5 (209737) Note Off ch=5 par1=64 par2=64
Channel Event. t= 5 (209742) Note Off ch=5 par1=66 par2=64
Channel Event. t= 2 (209744) Note Off ch=5 par1=49 par2=64
Channel Event. t= 48 (209792) Note On ch=5 par1=66 par2=88
Channel Event. t= 0 (209792) Note On ch=5 par1=61 par2=88
Channel Event. t= 0 (209792) Note On ch=5 par1=49 par2=88
Channel Event. t= 0 (209792) Note On ch=5 par1=64 par2=88
Channel Event. t= 20 (209812) Controller ch=5 par1=7 (Main Volume) par2=89
Channel Event. t= 55 (209867) Note Off ch=5 par1=49 par2=64
Channel Event. t= 5 (209872) Note Off ch=5 par1=64 par2=64
Channel Event. t= 5 (209877) Note Off ch=5 par1=66 par2=64
Channel Event. t= 17 (209894) Note Off ch=5 par1=61 par2=64
Channel Event. t= 58 (209952) Note On ch=5 par1=66 par2=89
Channel Event. t= 0 (209952) Note On ch=5 par1=61 par2=89
Channel Event. t= 0 (209952) Note On ch=5 par1=49 par2=89
Channel Event. t= 0 (209952) Note On ch=5 par1=64 par2=89
Channel Event. t= 100 (210052) Controller ch=5 par1=7 (Main Volume) par2=90
Channel Event. t= 7 (210059) Note Off ch=5 par1=64 par2=64
Channel Event. t= 13 (210072) Note Off ch=5 par1=49 par2=64
Channel Event. t= 0 (210072) Note Off ch=5 par1=61 par2=64
Channel Event. t= 0 (210072) Note Off ch=5 par1=66 par2=64
Channel Event. t= 40 (210112) Note On ch=5 par1=67 par2=90
Channel Event. t= 0 (210112) Note On ch=5 par1=62 par2=90
Channel Event. t= 0 (210112) Note On ch=5 par1=47 par2=90
Channel Event. t= 0 (210112) Note On ch=5 par1=64 par2=90
Channel Event. t= 82 (210194) Note Off ch=5 par1=64 par2=64
Channel Event. t= 10 (210204) Note Off ch=5 par1=62 par2=64
Channel Event. t= 5 (210209) Note Off ch=5 par1=67 par2=64
Channel Event. t= 10 (210219) Note Off ch=5 par1=47 par2=64
Channel Event. t= 53 (210272) Note On ch=5 par1=67 par2=91
Channel Event. t= 0 (210272) Note On ch=5 par1=62 par2=91
Channel Event. t= 0 (210272) Note On ch=5 par1=47 par2=91
Channel Event. t= 0 (210272) Note On ch=5 par1=64 par2=91
Channel Event. t= 20 (210292) Controller ch=5 par1=7 (Main Volume) par2=91
Channel Event. t= 57 (210349) Note Off ch=5 par1=62 par2=64
Channel Event. t= 8 (210357) Note Off ch=5 par1=47 par2=64
Channel Event. t= 10 (210367) Note Off ch=5 par1=67 par2=64
Channel Event. t= 7 (210374) Note Off ch=5 par1=64 par2=64
Channel Event. t= 18 (210392) Note On ch=5 par1=62 par2=91
Channel Event. t= 40 (210432) Note On ch=5 par1=67 par2=91
Channel Event. t= 0 (210432) Note On ch=5 par1=47 par2=91
Channel Event. t= 0 (210432) Note On ch=5 par1=64 par2=91
Channel Event. t= 42 (210474) Note Off ch=5 par1=62 par2=64
Channel Event. t= 40 (210514) Note Off ch=5 par1=47 par2=64
Channel Event. t= 18 (210532) Note Off ch=5 par1=64 par2=64
Channel Event. t= 0 (210532) Controller ch=5 par1=7 (Main Volume) par2=92
Channel Event. t= 20 (210552) Note Off ch=5 par1=67 par2=64
Channel Event. t= 40 (210592) Note On ch=5 par1=68 par2=92
Channel Event. t= 0 (210592) Note On ch=5 par1=51 par2=92
Channel Event. t= 0 (210592) Note On ch=5 par1=46 par2=92
Channel Event. t= 0 (210592) Note On ch=5 par1=66 par2=92
Channel Event. t= 102 (210694) Note Off ch=5 par1=68 par2=64
Channel Event. t= 3 (210697) Note Off ch=5 par1=66 par2=64
Channel Event. t= 5 (210702) Note Off ch=5 par1=51 par2=64
Channel Event. t= 0 (210702) Note Off ch=5 par1=46 par2=64
Channel Event. t= 50 (210752) Note On ch=5 par1=68 par2=93
Channel Event. t= 0 (210752) Note On ch=5 par1=51 par2=93
Channel Event. t= 0 (210752) Note On ch=5 par1=46 par2=93
Channel Event. t= 0 (210752) Note On ch=5 par1=66 par2=93
Channel Event. t= 20 (210772) Controller ch=5 par1=7 (Main Volume) par2=93
Channel Event. t= 35 (210807) Note Off ch=5 par1=46 par2=64
Channel Event. t= 7 (210814) Note Off ch=5 par1=51 par2=64
Channel Event. t= 20 (210834) Note Off ch=5 par1=68 par2=64
Channel Event. t= 8 (210842) Note Off ch=5 par1=66 par2=64
Channel Event. t= 70 (210912) Note On ch=5 par1=68 par2=93
Channel Event. t= 0 (210912) Note On ch=5 par1=51 par2=93
Channel Event. t= 0 (210912) Note On ch=5 par1=46 par2=93
Channel Event. t= 0 (210912) Note On ch=5 par1=66 par2=93
Channel Event. t= 95 (211007) Note Off ch=5 par1=66 par2=64
Channel Event. t= 5 (211012) Controller ch=5 par1=7 (Main Volume) par2=94
Channel Event. t= 2 (211014) Note Off ch=5 par1=46 par2=64
Channel Event. t= 18 (211032) Note Off ch=5 par1=68 par2=64
Channel Event. t= 20 (211052) Note Off ch=5 par1=51 par2=64
Channel Event. t= 20 (211072) Note On ch=5 par1=69 par2=94
Channel Event. t= 0 (211072) Note On ch=5 par1=52 par2=94
Channel Event. t= 0 (211072) Note On ch=5 par1=45 par2=94
Channel Event. t= 0 (211072) Note On ch=5 par1=66 par2=94
Channel Event. t= 95 (211167) Note Off ch=5 par1=52 par2=64
Channel Event. t= 2 (211169) Note Off ch=5 par1=69 par2=64
Channel Event. t= 3 (211172) Note Off ch=5 par1=45 par2=64
Channel Event. t= 12 (211184) Note Off ch=5 par1=66 par2=64
Channel Event. t= 48 (211232) Note On ch=5 par1=69 par2=95
Channel Event. t= 0 (211232) Note On ch=5 par1=52 par2=95
Channel Event. t= 0 (211232) Note On ch=5 par1=45 par2=95
Channel Event. t= 0 (211232) Note On ch=5 par1=66 par2=95
Channel Event. t= 20 (211252) Controller ch=5 par1=7 (Main Volume) par2=95
Channel Event. t= 62 (211314) Note Off ch=5 par1=45 par2=64
Channel Event. t= 15 (211329) Note Off ch=5 par1=52 par2=64
Channel Event. t= 3 (211332) Note Off ch=5 par1=66 par2=64
Channel Event. t= 2 (211334) Note Off ch=5 par1=69 par2=64
Channel Event. t= 58 (211392) Note On ch=5 par1=69 par2=95
Channel Event. t= 0 (211392) Note On ch=5 par1=52 par2=95
Channel Event. t= 0 (211392) Note On ch=5 par1=45 par2=95
Channel Event. t= 0 (211392) Note On ch=5 par1=66 par2=95
Channel Event. t= 77 (211469) Note Off ch=5 par1=45 par2=64
Channel Event. t= 23 (211492) Controller ch=5 par1=7 (Main Volume) par2=96
Channel Event. t= 5 (211497) Note Off ch=5 par1=69 par2=64
Channel Event. t= 15 (211512) Note Off ch=5 par1=66 par2=64
Channel Event. t= 15 (211527) Note Off ch=5 par1=52 par2=64
Channel Event. t= 25 (211552) Note On ch=5 par1=68 par2=96
Channel Event. t= 0 (211552) Note On ch=5 par1=51 par2=96
Channel Event. t= 0 (211552) Note On ch=5 par1=46 par2=96
Channel Event. t= 0 (211552) Note On ch=5 par1=66 par2=96
Channel Event. t= 92 (211644) Note Off ch=5 par1=46 par2=64
Channel Event. t= 8 (211652) Note Off ch=5 par1=66 par2=64
Channel Event. t= 10 (211662) Note Off ch=5 par1=51 par2=64
Channel Event. t= 7 (211669) Note Off ch=5 par1=68 par2=64
Channel Event. t= 43 (211712) Note On ch=5 par1=68 par2=97
Channel Event. t= 0 (211712) Note On ch=5 par1=51 par2=97
Channel Event. t= 0 (211712) Note On ch=5 par1=46 par2=97
Channel Event. t= 0 (211712) Note On ch=5 par1=66 par2=97
Channel Event. t= 20 (211732) Controller ch=5 par1=7 (Main Volume) par2=97
Channel Event. t= 50 (211782) Note Off ch=5 par1=46 par2=64
Channel Event. t= 10 (211792) Note Off ch=5 par1=68 par2=64
Channel Event. t= 0 (211792) Note Off ch=5 par1=66 par2=64
Channel Event. t= 5 (211797) Note Off ch=5 par1=51 par2=64
Channel Event. t= 75 (211872) Note On ch=5 par1=68 par2=97
Channel Event. t= 0 (211872) Note On ch=5 par1=51 par2=97
Channel Event. t= 0 (211872) Note On ch=5 par1=46 par2=97
Channel Event. t= 0 (211872) Note On ch=5 par1=66 par2=97
Channel Event. t= 100 (211972) Controller ch=5 par1=7 (Main Volume) par2=98
Channel Event. t= 10 (211982) Note Off ch=5 par1=46 par2=64
Channel Event. t= 10 (211992) Note Off ch=5 par1=68 par2=64
Channel Event. t= 0 (211992) Note Off ch=5 par1=66 par2=64
Channel Event. t= 10 (212002) Note Off ch=5 par1=51 par2=64
Channel Event. t= 30 (212032) Note On ch=5 par1=69 par2=98
Channel Event. t= 0 (212032) Note On ch=5 par1=52 par2=98
Channel Event. t= 0 (212032) Note On ch=5 par1=45 par2=98
Channel Event. t= 0 (212032) Note On ch=5 par1=66 par2=98
Channel Event. t= 87 (212119) Note Off ch=5 par1=45 par2=64
Channel Event. t= 13 (212132) Note Off ch=5 par1=52 par2=64
Channel Event. t= 2 (212134) Note Off ch=5 par1=69 par2=64
Channel Event. t= 3 (212137) Note Off ch=5 par1=66 par2=64
Channel Event. t= 15 (212152) Controller ch=5 par1=7 (Main Volume) par2=99
Channel Event. t= 40 (212192) Note On ch=5 par1=69 par2=99
Channel Event. t= 0 (212192) Note On ch=5 par1=52 par2=99
Channel Event. t= 0 (212192) Note On ch=5 par1=45 par2=99
Channel Event. t= 0 (212192) Note On ch=5 par1=66 par2=99
Channel Event. t= 70 (212262) Note Off ch=5 par1=45 par2=64
Channel Event. t= 22 (212284) Note Off ch=5 par1=52 par2=64
Channel Event. t= 3 (212287) Note Off ch=5 par1=69 par2=64
Channel Event. t= 7 (212294) Note Off ch=5 par1=66 par2=64
Channel Event. t= 58 (212352) Note On ch=5 par1=69 par2=99
Channel Event. t= 0 (212352) Note On ch=5 par1=52 par2=99
Channel Event. t= 0 (212352) Note On ch=5 par1=45 par2=99
Channel Event. t= 0 (212352) Note On ch=5 par1=66 par2=99
Channel Event. t= 40 (212392) Controller ch=5 par1=7 (Main Volume) par2=100
Channel Event. t= 35 (212427) Note Off ch=5 par1=45 par2=64
Channel Event. t= 45 (212472) Note Off ch=5 par1=66 par2=64
Channel Event. t= 5 (212477) Note Off ch=5 par1=69 par2=64
Channel Event. t= 20 (212497) Note Off ch=5 par1=52 par2=64
Channel Event. t= 15 (212512) Note On ch=5 par1=70 par2=100
Channel Event. t= 0 (212512) Note On ch=5 par1=53 par2=100
Channel Event. t= 0 (212512) Note On ch=5 par1=49 par2=100
Channel Event. t= 0 (212512) Note On ch=5 par1=37 par2=100
Channel Event. t= 0 (212512) Note On ch=5 par1=68 par2=100
Channel Event. t= 75 (212587) Note Off ch=5 par1=37 par2=64
Channel Event. t= 12 (212599) Note Off ch=5 par1=49 par2=64
Channel Event. t= 25 (212624) Note Off ch=5 par1=53 par2=64
Channel Event. t= 5 (212629) Note Off ch=5 par1=68 par2=64
Channel Event. t= 3 (212632) Note Off ch=5 par1=70 par2=64
Channel Event. t= 0 (212632) Controller ch=5 par1=7 (Main Volume) par2=101
Channel Event. t= 40 (212672) Note On ch=5 par1=53 par2=101
Channel Event. t= 0 (212672) Note On ch=5 par1=49 par2=101
Channel Event. t= 0 (212672) Note On ch=5 par1=37 par2=101
Channel Event. t= 0 (212672) Note On ch=5 par1=68 par2=101
Channel Event. t= 57 (212729) Note Off ch=5 par1=37 par2=64
Channel Event. t= 15 (212744) Note Off ch=5 par1=49 par2=64
Channel Event. t= 18 (212762) Note Off ch=5 par1=68 par2=64
Channel Event. t= 15 (212777) Note Off ch=5 par1=53 par2=64
Channel Event. t= 55 (212832) Note On ch=5 par1=82 par2=101
Channel Event. t= 0 (212832) Note On ch=5 par1=53 par2=101
Channel Event. t= 0 (212832) Note On ch=5 par1=37 par2=101
Channel Event. t= 0 (212832) Note On ch=5 par1=49 par2=101
Channel Event. t= 0 (212832) Note On ch=5 par1=68 par2=101
Channel Event. t= 40 (212872) Controller ch=5 par1=7 (Main Volume) par2=102
Channel Event. t= 60 (212932) Note Off ch=5 par1=68 par2=64
Channel Event. t= 12 (212944) Note Off ch=5 par1=82 par2=64
Channel Event. t= 15 (212959) Note Off ch=5 par1=53 par2=64
Channel Event. t= 15 (212974) Note Off ch=5 par1=37 par2=64
Channel Event. t= 5 (212979) Note Off ch=5 par1=49 par2=64
Channel Event. t= 13 (212992) Note On ch=5 par1=71 par2=102
Channel Event. t= 0 (212992) Note On ch=5 par1=54 par2=102
Channel Event. t= 0 (212992) Note On ch=5 par1=44 par2=102
Channel Event. t= 0 (212992) Note On ch=5 par1=68 par2=102
Channel Event. t= 97 (213089) Note Off ch=5 par1=44 par2=64
Channel Event. t= 13 (213102) Note Off ch=5 par1=54 par2=64
Channel Event. t= 7 (213109) Note Off ch=5 par1=68 par2=64
Channel Event. t= 3 (213112) Note Off ch=5 par1=71 par2=64
Channel Event. t= 0 (213112) Controller ch=5 par1=7 (Main Volume) par2=103
Channel Event. t= 40 (213152) Note On ch=5 par1=54 par2=103
Channel Event. t= 0 (213152) Note On ch=5 par1=44 par2=103
Channel Event. t= 0 (213152) Note On ch=5 par1=68 par2=103
Channel Event. t= 70 (213222) Note Off ch=5 par1=44 par2=64
Channel Event. t= 5 (213227) Note Off ch=5 par1=54 par2=64
Channel Event. t= 10 (213237) Note Off ch=5 par1=68 par2=64
Channel Event. t= 75 (213312) Note On ch=5 par1=83 par2=103
Channel Event. t= 0 (213312) Note On ch=5 par1=54 par2=103
Channel Event. t= 0 (213312) Note On ch=5 par1=44 par2=103
Channel Event. t= 0 (213312) Note On ch=5 par1=68 par2=103
Channel Event. t= 40 (213352) Controller ch=5 par1=7 (Main Volume) par2=104
Channel Event. t= 50 (213402) Note Off ch=5 par1=68 par2=64
Channel Event. t= 5 (213407) Note Off ch=5 par1=44 par2=64
Channel Event. t= 10 (213417) Note Off ch=5 par1=54 par2=64
Channel Event. t= 22 (213439) Note Off ch=5 par1=83 par2=64
Channel Event. t= 33 (213472) Note On ch=5 par1=81 par2=104
Channel Event. t= 0 (213472) Note On ch=5 par1=53 par2=104
Channel Event. t= 0 (213472) Note On ch=5 par1=50 par2=104
Channel Event. t= 0 (213472) Note On ch=5 par1=38 par2=104
Channel Event. t= 0 (213472) Note On ch=5 par1=68 par2=104
Channel Event. t= 77 (213549) Note Off ch=5 par1=38 par2=64
Channel Event. t= 25 (213574) Note Off ch=5 par1=50 par2=64
Channel Event. t= 5 (213579) Note Off ch=5 par1=53 par2=64
Channel Event. t= 8 (213587) Note Off ch=5 par1=81 par2=64
Channel Event. t= 2 (213589) Note Off ch=5 par1=68 par2=64
Channel Event. t= 3 (213592) Controller ch=5 par1=7 (Main Volume) par2=105
Channel Event. t= 40 (213632) Note On ch=5 par1=81 par2=105
Channel Event. t= 0 (213632) Note On ch=5 par1=53 par2=105
Channel Event. t= 0 (213632) Note On ch=5 par1=38 par2=105
Channel Event. t= 0 (213632) Note On ch=5 par1=50 par2=105
Channel Event. t= 0 (213632) Note On ch=5 par1=68 par2=105
Channel Event. t= 65 (213697) Note Off ch=5 par1=53 par2=64
Channel Event. t= 12 (213709) Note Off ch=5 par1=68 par2=64
Channel Event. t= 3 (213712) Note Off ch=5 par1=38 par2=64
Channel Event. t= 5 (213717) Note Off ch=5 par1=50 par2=64
Channel Event. t= 5 (213722) Note Off ch=5 par1=81 par2=64
Channel Event. t= 70 (213792) Note On ch=5 par1=81 par2=105
Channel Event. t= 0 (213792) Note On ch=5 par1=53 par2=105
Channel Event. t= 0 (213792) Note On ch=5 par1=50 par2=105
Channel Event. t= 0 (213792) Note On ch=5 par1=38 par2=105
Channel Event. t= 0 (213792) Note On ch=5 par1=68 par2=105
Channel Event. t= 40 (213832) Controller ch=5 par1=7 (Main Volume) par2=106
Channel Event. t= 47 (213879) Note Off ch=5 par1=68 par2=64
Channel Event. t= 5 (213884) Note Off ch=5 par1=53 par2=64
Channel Event. t= 3 (213887) Note Off ch=5 par1=38 par2=64
Channel Event. t= 25 (213912) Note Off ch=5 par1=50 par2=64
Channel Event. t= 17 (213929) Note Off ch=5 par1=81 par2=64
Channel Event. t= 23 (213952) Note On ch=5 par1=83 par2=106
Channel Event. t= 0 (213952) Note On ch=5 par1=55 par2=106
Channel Event. t= 0 (213952) Note On ch=5 par1=43 par2=106
Channel Event. t= 0 (213952) Note On ch=5 par1=68 par2=106
Channel Event. t= 100 (214052) Note Off ch=5 par1=43 par2=64
Channel Event. t= 0 (214052) Note Off ch=5 par1=83 par2=64
Channel Event. t= 10 (214062) Note Off ch=5 par1=55 par2=64
Channel Event. t= 7 (214069) Note Off ch=5 par1=68 par2=64
Channel Event. t= 3 (214072) Controller ch=5 par1=7 (Main Volume) par2=107
Channel Event. t= 40 (214112) Note On ch=5 par1=83 par2=107
Channel Event. t= 0 (214112) Note On ch=5 par1=55 par2=107
Channel Event. t= 0 (214112) Note On ch=5 par1=43 par2=107
Channel Event. t= 0 (214112) Note On ch=5 par1=68 par2=107
Channel Event. t= 72 (214184) Note Off ch=5 par1=43 par2=64
Channel Event. t= 10 (214194) Note Off ch=5 par1=55 par2=64
Channel Event. t= 5 (214199) Note Off ch=5 par1=83 par2=64
Channel Event. t= 0 (214199) Note Off ch=5 par1=68 par2=64
Channel Event. t= 73 (214272) Note On ch=5 par1=83 par2=107
Channel Event. t= 0 (214272) Note On ch=5 par1=55 par2=107
Channel Event. t= 0 (214272) Note On ch=5 par1=43 par2=107
Channel Event. t= 0 (214272) Note On ch=5 par1=68 par2=107
Channel Event. t= 40 (214312) Controller ch=5 par1=7 (Main Volume) par2=108
Channel Event. t= 40 (214352) Note Off ch=5 par1=43 par2=64
Channel Event. t= 10 (214362) Note Off ch=5 par1=55 par2=64
Channel Event. t= 22 (214384) Note Off ch=5 par1=68 par2=64
Channel Event. t= 48 (214432) Note On ch=5 par1=72 par2=108
Channel Event. t= 0 (214432) Note On ch=5 par1=55 par2=108
Channel Event. t= 0 (214432) Note On ch=5 par1=52 par2=108
Channel Event. t= 0 (214432) Note On ch=5 par1=48 par2=108
Channel Event. t= 0 (214432) Note On ch=5 par1=36 par2=108
Channel Event. t= 0 (214432) Note On ch=5 par1=67 par2=108
Channel Event. t= 5 (214437) Note Off ch=5 par1=83 par2=64
Channel Event. t= 100 (214537) Note Off ch=5 par1=52 par2=64
Channel Event. t= 10 (214547) Note Off ch=5 par1=55 par2=64
Channel Event. t= 2 (214549) Note Off ch=5 par1=67 par2=64
Channel Event. t= 3 (214552) Controller ch=5 par1=7 (Main Volume) par2=109
Channel Event. t= 40 (214592) Note On ch=5 par1=84 par2=109
Channel Event. t= 0 (214592) Note On ch=5 par1=52 par2=109
Channel Event. t= 0 (214592) Note On ch=5 par1=55 par2=109
Channel Event. t= 0 (214592) Note On ch=5 par1=76 par2=109
Channel Event. t= 0 (214592) Note On ch=5 par1=67 par2=109
Channel Event. t= 52 (214644) Note Off ch=5 par1=72 par2=64
Channel Event. t= 18 (214662) Note Off ch=5 par1=67 par2=64
Channel Event. t= 15 (214677) Note Off ch=5 par1=52 par2=64
Channel Event. t= 2 (214679) Note Off ch=5 par1=55 par2=64
Channel Event. t= 3 (214682) Note Off ch=5 par1=84 par2=64
Channel Event. t= 0 (214682) Note Off ch=5 par1=76 par2=64
Channel Event. t= 70 (214752) Note On ch=5 par1=84 par2=109
Channel Event. t= 0 (214752) Note On ch=5 par1=52 par2=109
Channel Event. t= 0 (214752) Note On ch=5 par1=55 par2=109
Channel Event. t= 0 (214752) Note On ch=5 par1=76 par2=109
Channel Event. t= 0 (214752) Note On ch=5 par1=67 par2=109
Channel Event. t= 40 (214792) Controller ch=5 par1=7 (Main Volume) par2=110
Channel Event. t= 45 (214837) Note Off ch=5 par1=67 par2=64
Channel Event. t= 2 (214839) Note Off ch=5 par1=76 par2=64
Channel Event. t= 3 (214842) Note Off ch=5 par1=52 par2=64
Channel Event. t= 2 (214844) Note Off ch=5 par1=55 par2=64
Channel Event. t= 15 (214859) Note Off ch=5 par1=84 par2=64
Channel Event. t= 53 (214912) Note Off ch=5 par1=48 par2=64
Channel Event. t= 0 (214912) Note Off ch=5 par1=36 par2=64
Channel Event. t= 0 (214912) Note On ch=5 par1=84 par2=110
Channel Event. t= 0 (214912) Note On ch=5 par1=52 par2=110
Channel Event. t= 0 (214912) Note On ch=5 par1=55 par2=110
Channel Event. t= 0 (214912) Note On ch=5 par1=67 par2=110
Channel Event. t= 0 (214912) Note On ch=5 par1=76 par2=110
Channel Event. t= 120 (215032) Note Off ch=5 par1=76 par2=64
Channel Event. t= 0 (215032) Note Off ch=5 par1=67 par2=64
Channel Event. t= 0 (215032) Note Off ch=5 par1=84 par2=64
Channel Event. t= 0 (215032) Controller ch=5 par1=7 (Main Volume) par2=111
Channel Event. t= 17 (215049) Note Off ch=5 par1=55 par2=64
Channel Event. t= 8 (215057) Note Off ch=5 par1=52 par2=64
Channel Event. t= 175 (215232) Note On ch=5 par1=84 par2=112
Channel Event. t= 0 (215232) Note On ch=5 par1=55 par2=112
Channel Event. t= 0 (215232) Note On ch=5 par1=52 par2=112
Channel Event. t= 0 (215232) Note On ch=5 par1=76 par2=112
Channel Event. t= 0 (215232) Note On ch=5 par1=67 par2=112
Channel Event. t= 40 (215272) Controller ch=5 par1=7 (Main Volume) par2=112
Channel Event. t= 32 (215304) Note Off ch=5 par1=67 par2=64
Channel Event. t= 5 (215309) Note Off ch=5 par1=55 par2=64
Channel Event. t= 5 (215314) Note Off ch=5 par1=76 par2=64
Channel Event. t= 10 (215324) Note Off ch=5 par1=84 par2=64
Channel Event. t= 8 (215332) Note Off ch=5 par1=52 par2=64
Channel Event. t= 60 (215392) Note On ch=5 par1=84 par2=112
Channel Event. t= 0 (215392) Note On ch=5 par1=51 par2=112
Channel Event. t= 0 (215392) Note On ch=5 par1=54 par2=112
Channel Event. t= 0 (215392) Note On ch=5 par1=68 par2=112
Channel Event. t= 0 (215392) Note On ch=5 par1=77 par2=112
Channel Event. t= 60 (215452) Controller ch=5 par1=7 (Main Volume) par2=113
Channel Event. t= 60 (215512) Note Off ch=5 par1=77 par2=64
Channel Event. t= 0 (215512) Note Off ch=5 par1=68 par2=64
Channel Event. t= 0 (215512) Note Off ch=5 par1=84 par2=64
Channel Event. t= 25 (215537) Note Off ch=5 par1=51 par2=64
Channel Event. t= 10 (215547) Note Off ch=5 par1=54 par2=64
Channel Event. t= 145 (215692) Controller ch=5 par1=7 (Main Volume) par2=114
Channel Event. t= 20 (215712) Note On ch=5 par1=84 par2=114
Channel Event. t= 0 (215712) Note On ch=5 par1=51 par2=114
Channel Event. t= 0 (215712) Note On ch=5 par1=54 par2=114
Channel Event. t= 0 (215712) Note On ch=5 par1=68 par2=114
Channel Event. t= 0 (215712) Note On ch=5 par1=77 par2=114
Channel Event. t= 75 (215787) Note Off ch=5 par1=68 par2=64
Channel Event. t= 5 (215792) Note Off ch=5 par1=51 par2=64
Channel Event. t= 10 (215802) Note Off ch=5 par1=77 par2=64
Channel Event. t= 5 (215807) Note Off ch=5 par1=54 par2=64
Channel Event. t= 5 (215812) Note Off ch=5 par1=84 par2=64
Channel Event. t= 60 (215872) Note On ch=5 par1=84 par2=114
Channel Event. t= 0 (215872) Note On ch=5 par1=54 par2=114
Channel Event. t= 0 (215872) Note On ch=5 par1=51 par2=114
Channel Event. t= 0 (215872) Note On ch=5 par1=77 par2=114
Channel Event. t= 0 (215872) Note On ch=5 par1=68 par2=114
Channel Event. t= 60 (215932) Controller ch=5 par1=7 (Main Volume) par2=115
Channel Event. t= 20 (215952) Note Off ch=5 par1=68 par2=64
Channel Event. t= 10 (215962) Note Off ch=5 par1=51 par2=64
Channel Event. t= 5 (215967) Note Off ch=5 par1=77 par2=64
Channel Event. t= 2 (215969) Note Off ch=5 par1=54 par2=64
Channel Event. t= 3 (215972) Note Off ch=5 par1=84 par2=64
Channel Event. t= 60 (216032) Note On ch=5 par1=84 par2=115
Channel Event. t= 0 (216032) Note On ch=5 par1=51 par2=115
Channel Event. t= 0 (216032) Note On ch=5 par1=54 par2=115
Channel Event. t= 0 (216032) Note On ch=5 par1=68 par2=115
Channel Event. t= 0 (216032) Note On ch=5 par1=77 par2=115
Channel Event. t= 75 (216107) Note Off ch=5 par1=51 par2=64
Channel Event. t= 2 (216109) Note Off ch=5 par1=68 par2=64
Channel Event. t= 8 (216117) Note Off ch=5 par1=54 par2=64
Channel Event. t= 0 (216117) Note Off ch=5 par1=77 par2=64
Channel Event. t= 2 (216119) Note Off ch=5 par1=84 par2=64
Channel Event. t= 53 (216172) Controller ch=5 par1=7 (Main Volume) par2=116
Channel Event. t= 20 (216192) Note On ch=5 par1=84 par2=116
Channel Event. t= 0 (216192) Note On ch=5 par1=51 par2=116
Channel Event. t= 0 (216192) Note On ch=5 par1=54 par2=116
Channel Event. t= 0 (216192) Note On ch=5 par1=68 par2=116
Channel Event. t= 0 (216192) Note On ch=5 par1=77 par2=116
Channel Event. t= 82 (216274) Note Off ch=5 par1=51 par2=64
Channel Event. t= 10 (216284) Note Off ch=5 par1=77 par2=64
Channel Event. t= 5 (216289) Note Off ch=5 par1=68 par2=64
Channel Event. t= 3 (216292) Note Off ch=5 par1=84 par2=64
Channel Event. t= 0 (216292) Note Off ch=5 par1=54 par2=64
Channel Event. t= 60 (216352) Note On ch=5 par1=84 par2=116
Channel Event. t= 0 (216352) Note On ch=5 par1=51 par2=116
Channel Event. t= 0 (216352) Note On ch=5 par1=54 par2=116
Channel Event. t= 0 (216352) Note On ch=5 par1=68 par2=116
Channel Event. t= 0 (216352) Note On ch=5 par1=77 par2=116
Channel Event. t= 60 (216412) Controller ch=5 par1=7 (Main Volume) par2=117
Channel Event. t= 60 (216472) Note Off ch=5 par1=77 par2=64
Channel Event. t= 0 (216472) Note Off ch=5 par1=68 par2=64
Channel Event. t= 0 (216472) Note Off ch=5 par1=84 par2=64
Channel Event. t= 10 (216482) Note Off ch=5 par1=51 par2=64
Channel Event. t= 10 (216492) Note Off ch=5 par1=54 par2=64
Channel Event. t= 160 (216652) Controller ch=5 par1=7 (Main Volume) par2=118
Channel Event. t= 20 (216672) Note On ch=5 par1=84 par2=118
Channel Event. t= 0 (216672) Note On ch=5 par1=51 par2=118
Channel Event. t= 0 (216672) Note On ch=5 par1=54 par2=118
Channel Event. t= 0 (216672) Note On ch=5 par1=79 par2=118
Channel Event. t= 0 (216672) Note On ch=5 par1=70 par2=118
Channel Event. t= 90 (216762) Note Off ch=5 par1=51 par2=64
Channel Event. t= 0 (216762) Note Off ch=5 par1=84 par2=64
Channel Event. t= 15 (216777) Note Off ch=5 par1=54 par2=64
Channel Event. t= 15 (216792) Note Off ch=5 par1=79 par2=64
Channel Event. t= 0 (216792) Note Off ch=5 par1=70 par2=64
Channel Event. t= 40 (216832) Note On ch=5 par1=84 par2=118
Channel Event. t= 0 (216832) Note On ch=5 par1=76 par2=118
Channel Event. t= 0 (216832) Note On ch=5 par1=52 par2=118
Channel Event. t= 0 (216832) Note On ch=5 par1=55 par2=118
Channel Event. t= 60 (216892) Controller ch=5 par1=7 (Main Volume) par2=119
Channel Event. t= 107 (216999) Note Off ch=5 par1=55 par2=64
Channel Event. t= 3 (217002) Note Off ch=5 par1=52 par2=64
Channel Event. t= 130 (217132) Controller ch=5 par1=7 (Main Volume) par2=120
Channel Event. t= 20 (217152) Note On ch=5 par1=48 par2=120
Channel Event. t= 0 (217152) Note On ch=5 par1=24 par2=120
Channel Event. t= 0 (217152) Note On ch=5 par1=36 par2=120
Channel Event. t= 0 (217152) Note On ch=5 par1=72 par2=120
Channel Event. t= 77 (217229) Note Off ch=5 par1=24 par2=64
Channel Event. t= 3 (217232) Note Off ch=5 par1=36 par2=64
Channel Event. t= 2 (217234) Note Off ch=5 par1=48 par2=64
Channel Event. t= 78 (217312) Note On ch=5 par1=48 par2=120
Channel Event. t= 0 (217312) Note On ch=5 par1=24 par2=120
Channel Event. t= 0 (217312) Note On ch=5 par1=36 par2=120
Channel Event. t= 0 (217312) Note On ch=5 par1=60 par2=120
Channel Event. t= 60 (217372) Controller ch=5 par1=7 (Main Volume) par2=121
Channel Event. t= 240 (217612) Controller ch=5 par1=7 (Main Volume) par2=122
Channel Event. t= 180 (217792) Note Off ch=5 par1=60 par2=64
Channel Event. t= 0 (217792) Note Off ch=5 par1=36 par2=64
Channel Event. t= 0 (217792) Note Off ch=5 par1=24 par2=64
Channel Event. t= 0 (217792) Note Off ch=5 par1=76 par2=64
Channel Event. t= 0 (217792) Note Off ch=5 par1=84 par2=64
Channel Event. t= 0 (217792) Note Off ch=5 par1=48 par2=65
Channel Event. t= 5 (217797) Note Off ch=5 par1=72 par2=64
Channel Event. t= 55 (217852) Controller ch=5 par1=7 (Main Volume) par2=123
Channel Event. t= 240 (218092) Controller ch=5 par1=7 (Main Volume) par2=124
Channel Event. t= 240 (218332) Controller ch=5 par1=7 (Main Volume) par2=125
Channel Event. t= 240 (218572) Controller ch=5 par1=7 (Main Volume) par2=126
Channel Event. t= 177 (218749) Controller ch=5 par1=7 (Main Volume) par2=127
Channel Event. t= 0 (218749) 
Meta Event. Type: 0x2f (47dec), End of Track (0 bytes): 
track #53
track size: 3501
Channel Event. t= 0 (0) 
Meta Event. Type: 0x3 (3dec), Sequence/Track Name (20 bytes): Strings             
Channel Event. t= 0 (0) 
Meta Event. Type: 0x21 (33dec), MIDI Port (1 bytes): 0
Channel Event. t= 0 (0) 
Meta Event. Type: 0x20 (32dec), MIDI Channel Prefix (1 bytes): 7
Channel Event. t= 0 (0) Controller ch=7 par1=10 (Pan) par2=64
Channel Event. t= 0 (0) Controller ch=7 par1=91 (Effects 2 Depth (formerly Tremolo Depth)) par2=127
Channel Event. t= 0 (0) Program Change ch=7 par1=48 par2=-77
Channel Event. t= 7288 (7288) Controller ch=7 par1=10 (Pan) par2=90
Channel Event. t= 1328 (8616) Controller ch=7 par1=7 (Main Volume) par2=80
Channel Event. t= 592 (9208) Note On ch=7 par1=59 par2=102
Channel Event. t= 8 (9216) Note On ch=7 par1=52 par2=93
Channel Event. t= 0 (9216) Note On ch=7 par1=55 par2=92
Channel Event. t= 1855 (11071) Note Off ch=7 par1=52 par2=64
Channel Event. t= 25 (11096) Note Off ch=7 par1=55 par2=64
Channel Event. t= 77 (11173) Note On ch=7 par1=67 par2=89
Channel Event. t= 3 (11176) Note On ch=7 par1=64 par2=95
Channel Event. t= 20 (11196) Note Off ch=7 par1=59 par2=64
Channel Event. t= 160 (11356) Note Off ch=7 par1=64 par2=64
Channel Event. t= 52 (11408) Note On ch=7 par1=63 par2=85
Channel Event. t= 3 (11411) Note On ch=7 par1=66 par2=83
Channel Event. t= 2 (11413) Note Off ch=7 par1=67 par2=64
Channel Event. t= 178 (11591) Note Off ch=7 par1=66 par2=64
Channel Event. t= 27 (11618) Note On ch=7 par1=64 par2=82
Channel Event. t= 10 (11628) Note On ch=7 par1=67 par2=77
Channel Event. t= 5 (11633) Note Off ch=7 par1=63 par2=64
Channel Event. t= 165 (11798) Note Off ch=7 par1=64 par2=64
Channel Event. t= 10 (11808) Note Off ch=7 par1=67 par2=64
Channel Event. t= 28 (11836) Note On ch=7 par1=66 par2=77
Channel Event. t= 15 (11851) Note On ch=7 par1=63 par2=91
Channel Event. t= 215 (12066) Note Off ch=7 par1=66 par2=64
Channel Event. t= 15 (12081) Note On ch=7 par1=64 par2=91
Channel Event. t= 2 (12083) Note On ch=7 par1=67 par2=84
Channel Event. t= 8 (12091) Note Off ch=7 par1=63 par2=64
Channel Event. t= 367 (12458) Note Off ch=7 par1=64 par2=64
Channel Event. t= 5 (12463) Note Off ch=7 par1=67 par2=64
Channel Event. t= 80 (12543) Note On ch=7 par1=67 par2=94
Channel Event. t= 3 (12546) Note On ch=7 par1=64 par2=93
Channel Event. t= 450 (12996) Note Off ch=7 par1=67 par2=64
Channel Event. t= 12 (13008) Note Off ch=7 par1=64 par2=64
Channel Event. t= 25 (13033) Note On ch=7 par1=67 par2=95
Channel Event. t= 3 (13036) Note On ch=7 par1=71 par2=99
Channel Event. t= 440 (13476) Note Off ch=7 par1=67 par2=64
Channel Event. t= 47 (13523) Note On ch=7 par1=69 par2=81
Channel Event. t= 8 (13531) Note On ch=7 par1=66 par2=97
Channel Event. t= 10 (13541) Note Off ch=7 par1=71 par2=64
Channel Event. t= 455 (13996) Note On ch=7 par1=67 par2=86
Channel Event. t= 2 (13998) Note On ch=7 par1=71 par2=88
Channel Event. t= 33 (14031) Note Off ch=7 par1=66 par2=64
Channel Event. t= 22 (14053) Note Off ch=7 par1=69 par2=64
Channel Event. t= 405 (14458) Note Off ch=7 par1=67 par2=64
Channel Event. t= 18 (14476) Note Off ch=7 par1=71 par2=64
Channel Event. t= 20 (14496) Note On ch=7 par1=67 par2=102
Channel Event. t= 7 (14503) Note On ch=7 par1=64 par2=90
Channel Event. t= 418 (14921) Note Off ch=7 par1=64 par2=64
Channel Event. t= 47 (14968) Note On ch=7 par1=69 par2=94
Channel Event. t= 0 (14968) Note On ch=7 par1=62 par2=103
Channel Event. t= 28 (14996) Note Off ch=7 par1=67 par2=64
Channel Event. t= 1900 (16896) Note On ch=7 par1=52 par2=98
Channel Event. t= 0 (16896) Note On ch=7 par1=55 par2=104
Channel Event. t= 12 (16908) Note On ch=7 par1=59 par2=97
Channel Event. t= 38 (16946) Note Off ch=7 par1=69 par2=64
Channel Event. t= 2 (16948) Note Off ch=7 par1=62 par2=64
Channel Event. t= 1708 (18656) Note Off ch=7 par1=52 par2=64
Channel Event. t= 10 (18666) Note Off ch=7 par1=55 par2=64
Channel Event. t= 20 (18686) Note Off ch=7 par1=59 par2=64
Channel Event. t= 130 (18816) Note On ch=7 par1=59 par2=102
Channel Event. t= 50 (18866) Note On ch=7 par1=71 par2=68
Channel Event. t= 5 (18871) Note On ch=7 par1=67 par2=63
Channel Event. t= 185 (19056) Note On ch=7 par1=60 par2=88
Channel Event. t= 17 (19073) Note Off ch=7 par1=71 par2=64
Channel Event. t= 5 (19078) Note On ch=7 par1=66 par2=63
Channel Event. t= 3 (19081) Note On ch=7 par1=70 par2=93
Channel Event. t= 7 (19088) Note Off ch=7 par1=59 par2=64
Channel Event. t= 43 (19131) Note Off ch=7 par1=67 par2=64
Channel Event. t= 150 (19281) Note On ch=7 par1=71 par2=76
Channel Event. t= 0 (19281) Note On ch=7 par1=67 par2=73
Channel Event. t= 7 (19288) Note Off ch=7 par1=66 par2=64
Channel Event. t= 8 (19296) Note On ch=7 par1=59 par2=94
Channel Event. t= 17 (19313) Note Off ch=7 par1=70 par2=64
Channel Event. t= 18 (19331) Note Off ch=7 par1=60 par2=64
Channel Event. t= 185 (19516) Note On ch=7 par1=66 par2=74
Channel Event. t= 7 (19523) Note On ch=7 par1=70 par2=89
Channel Event. t= 13 (19536) Note Off ch=7 par1=59 par2=64
Channel Event. t= 0 (19536) Note On ch=7 par1=60 par2=90
Channel Event. t= 15 (19551) Note Off ch=7 par1=71 par2=64
Channel Event. t= 25 (19576) Note Off ch=7 par1=67 par2=64
Channel Event. t= 175 (19751) Note On ch=7 par1=67 par2=79
Channel Event. t= 7 (19758) Note On ch=7 par1=71 par2=69
Channel Event. t= 18 (19776) Note On ch=7 par1=59 par2=96
Channel Event. t= 2 (19778) Note Off ch=7 par1=66 par2=64
Channel Event. t= 20 (19798) Note Off ch=7 par1=60 par2=64
Channel Event. t= 13 (19811) Note Off ch=7 par1=70 par2=64
Channel Event. t= 327 (20138) Note Off ch=7 par1=59 par2=64
Channel Event. t= 13 (20151) Note Off ch=7 par1=71 par2=64
Channel Event. t= 2 (20153) Note Off ch=7 par1=67 par2=64
Channel Event. t= 78 (20231) Note On ch=7 par1=67 par2=99
Channel Event. t= 0 (20231) Note On ch=7 par1=71 par2=93
Channel Event. t= 25 (20256) Note On ch=7 par1=59 par2=104
Channel Event. t= 642 (20898) Note Off ch=7 par1=59 par2=64
Channel Event. t= 23 (20921) Note Off ch=7 par1=67 par2=64
Channel Event. t= 32 (20953) Note On ch=7 par1=70 par2=99
Channel Event. t= 23 (20976) Note On ch=7 par1=60 par2=105
Channel Event. t= 5 (20981) Note Off ch=7 par1=71 par2=64
Channel Event. t= 5 (20986) Note On ch=7 par1=66 par2=13
Channel Event. t= 200 (21186) Note Off ch=7 par1=66 par2=64
Channel Event. t= 5 (21191) Note On ch=7 par1=67 par2=66
Channel Event. t= 25 (21216) Note On ch=7 par1=71 par2=73
Channel Event. t= 0 (21216) Note On ch=7 par1=59 par2=95
Channel Event. t= 27 (21243) Note Off ch=7 par1=70 par2=64
Channel Event. t= 23 (21266) Note Off ch=7 par1=60 par2=64
Channel Event. t= 182 (21448) Note On ch=7 par1=66 par2=84
Channel Event. t= 3 (21451) Note On ch=7 par1=70 par2=90
Channel Event. t= 5 (21456) Note On ch=7 par1=60 par2=82
Channel Event. t= 2 (21458) Note Off ch=7 par1=71 par2=64
Channel Event. t= 20 (21478) Note Off ch=7 par1=59 par2=64
Channel Event. t= 3 (21481) Note Off ch=7 par1=67 par2=64
Channel Event. t= 195 (21676) Note On ch=7 par1=67 par2=79
Channel Event. t= 5 (21681) Note On ch=7 par1=71 par2=78
Channel Event. t= 5 (21686) Note Off ch=7 par1=66 par2=64
Channel Event. t= 10 (21696) Note On ch=7 par1=59 par2=95
Channel Event. t= 22 (21718) Note Off ch=7 par1=70 par2=64
Channel Event. t= 35 (21753) Note Off ch=7 par1=60 par2=64
Channel Event. t= 313 (22066) Note Off ch=7 par1=59 par2=64
Channel Event. t= 32 (22098) Note Off ch=7 par1=71 par2=64
Channel Event. t= 5 (22103) Note Off ch=7 par1=67 par2=64
Channel Event. t= 50 (22153) Note On ch=7 par1=67 par2=86
Channel Event. t= 0 (22153) Note On ch=7 par1=71 par2=81
Channel Event. t= 23 (22176) Note On ch=7 par1=59 par2=105
Channel Event. t= 480 (22656) Note Off ch=7 par1=71 par2=64
Channel Event. t= 0 (22656) Note Off ch=7 par1=67 par2=64
Channel Event. t= 240 (22896) Note On ch=7 par1=60 par2=88
Channel Event. t= 27 (22923) Note Off ch=7 par1=59 par2=64
Channel Event. t= 200 (23123) Note Off ch=7 par1=60 par2=64
Channel Event. t= 13 (23136) Note On ch=7 par1=59 par2=100
Channel Event. t= 467 (23603) Note Off ch=7 par1=59 par2=64
Channel Event. t= 493 (24096) Note On ch=7 par1=71 par2=94
Channel Event. t= 480 (24576) Note On ch=7 par1=72 par2=88
Channel Event. t= 37 (24613) Note Off ch=7 par1=71 par2=64
Channel Event. t= 200 (24813) Note Off ch=7 par1=72 par2=64
Channel Event. t= 243 (25056) Note On ch=7 par1=74 par2=89
Channel Event. t= 157 (25213) Note Off ch=7 par1=74 par2=64
Channel Event. t= 323 (25536) Note On ch=7 par1=75 par2=104
Channel Event. t= 357 (25893) Note Off ch=7 par1=75 par2=64
Channel Event. t= 123 (26016) Note On ch=7 par1=71 par2=76
Channel Event. t= 480 (26496) Note On ch=7 par1=72 par2=97
Channel Event. t= 27 (26523) Note Off ch=7 par1=71 par2=64
Channel Event. t= 238 (26761) Note Off ch=7 par1=72 par2=64
Channel Event. t= 215 (26976) Note On ch=7 par1=74 par2=69
Channel Event. t= 165 (27141) Note Off ch=7 par1=74 par2=64
Channel Event. t= 315 (27456) Note On ch=7 par1=75 par2=105
Channel Event. t= 347 (27803) Note Off ch=7 par1=75 par2=64
Channel Event. t= 133 (27936) Note On ch=7 par1=71 par2=86
Channel Event. t= 480 (28416) Note On ch=7 par1=72 par2=102
Channel Event. t= 42 (28458) Note Off ch=7 par1=71 par2=64
Channel Event. t= 198 (28656) Note On ch=7 par1=75 par2=71
Channel Event. t= 25 (28681) Note Off ch=7 par1=72 par2=64
Channel Event. t= 197 (28878) Note Off ch=7 par1=75 par2=64
Channel Event. t= 18 (28896) Note On ch=7 par1=76 par2=69
Channel Event. t= 240 (29136) Note On ch=7 par1=79 par2=82
Channel Event. t= 35 (29171) Note Off ch=7 par1=76 par2=64
Channel Event. t= 157 (29328) Note Off ch=7 par1=79 par2=64
Channel Event. t= 48 (29376) Note On ch=7 par1=83 par2=98
Channel Event. t= 440 (29816) Note Off ch=7 par1=83 par2=64
Channel Event. t= 40 (29856) Note On ch=7 par1=82 par2=97
Channel Event. t= 235 (30091) Note Off ch=7 par1=82 par2=64
Channel Event. t= 5 (30096) Note On ch=7 par1=83 par2=74
Channel Event. t= 240 (30336) Note On ch=7 par1=84 par2=92
Channel Event. t= 17 (30353) Note Off ch=7 par1=83 par2=64
Channel Event. t= 195 (30548) Note Off ch=7 par1=84 par2=64
Channel Event. t= 268 (30816) Note On ch=7 par1=88 par2=73
Channel Event. t= 142 (30958) Note Off ch=7 par1=88 par2=64
Channel Event. t= 338 (31296) Note On ch=7 par1=87 par2=99
Channel Event. t= 780 (32076) Note Off ch=7 par1=87 par2=64
Channel Event. t= 180 (32256) Note On ch=7 par1=84 par2=58
Channel Event. t= 260 (32516) Note Off ch=7 par1=84 par2=64
Channel Event. t= 220 (32736) Note On ch=7 par1=88 par2=75
Channel Event. t= 210 (32946) Note Off ch=7 par1=88 par2=64
Channel Event. t= 270 (33216) Note On ch=7 par1=87 par2=102
Channel Event. t= 215 (33431) Note Off ch=7 par1=87 par2=64
Channel Event. t= 25 (33456) Note On ch=7 par1=87 par2=77
Channel Event. t= 0 (33456) Note On ch=7 par1=88 par2=79
Channel Event. t= 92 (33548) Note Off ch=7 par1=88 par2=64
Channel Event. t= 118 (33666) Note Off ch=7 par1=87 par2=64
Channel Event. t= 30 (33696) Note On ch=7 par1=83 par2=83
Channel Event. t= 202 (33898) Note Off ch=7 par1=83 par2=64
Channel Event. t= 38 (33936) Note On ch=7 par1=78 par2=90
Channel Event. t= 150 (34086) Note Off ch=7 par1=78 par2=64
Channel Event. t= 90 (34176) Note On ch=7 par1=79 par2=83
Channel Event. t= 247 (34423) Note Off ch=7 par1=79 par2=64
Channel Event. t= 233 (34656) Note On ch=7 par1=84 par2=91
Channel Event. t= 182 (34838) Note Off ch=7 par1=84 par2=64
Channel Event. t= 298 (35136) Note On ch=7 par1=83 par2=109
Channel Event. t= 180 (35316) Note Off ch=7 par1=83 par2=64
Channel Event. t= 60 (35376) Note On ch=7 par1=83 par2=70
Channel Event. t= 0 (35376) Note On ch=7 par1=84 par2=78
Channel Event. t= 97 (35473) Note Off ch=7 par1=84 par2=64
Channel Event. t= 48 (35521) Note Off ch=7 par1=83 par2=64
Channel Event. t= 95 (35616) Note On ch=7 par1=77 par2=46
Channel Event. t= 72 (35688) Note Off ch=7 par1=77 par2=64
Channel Event. t= 168 (35856) Note On ch=7 par1=75 par2=85
Channel Event. t= 240 (36096) Note On ch=7 par1=76 par2=80
Channel Event. t= 57 (36153) Note Off ch=7 par1=75 par2=64
Channel Event. t= 195 (36348) Note Off ch=7 par1=76 par2=64
Channel Event. t= 228 (36576) Note On ch=7 par1=79 par2=77
Channel Event. t= 207 (36783) Note Off ch=7 par1=79 par2=64
Channel Event. t= 273 (37056) Note On ch=7 par1=78 par2=101
Channel Event. t= 387 (37443) Note Off ch=7 par1=78 par2=64
Channel Event. t= 93 (37536) Note On ch=7 par1=74 par2=81
Channel Event. t= 240 (37776) Note On ch=7 par1=75 par2=75
Channel Event. t= 22 (37798) Note Off ch=7 par1=74 par2=64
Channel Event. t= 218 (38016) Note On ch=7 par1=76 par2=80
Channel Event. t= 2 (38018) Note Off ch=7 par1=75 par2=64
Channel Event. t= 260 (38278) Note Off ch=7 par1=76 par2=64
Channel Event. t= 218 (38496) Note On ch=7 par1=79 par2=79
Channel Event. t= 222 (38718) Note Off ch=7 par1=79 par2=64
Channel Event. t= 258 (38976) Note On ch=7 par1=78 par2=98
Channel Event. t= 417 (39393) Note Off ch=7 par1=78 par2=64
Channel Event. t= 63 (39456) Note On ch=7 par1=74 par2=89
Channel Event. t= 240 (39696) Note On ch=7 par1=75 par2=71
Channel Event. t= 20 (39716) Note Off ch=7 par1=74 par2=64
Channel Event. t= 220 (39936) Note On ch=7 par1=76 par2=80
Channel Event. t= 15 (39951) Note Off ch=7 par1=75 par2=64
Channel Event. t= 255 (40206) Note Off ch=7 par1=76 par2=64
Channel Event. t= 210 (40416) Note On ch=7 par1=79 par2=90
Channel Event. t= 220 (40636) Note Off ch=7 par1=79 par2=64
Channel Event. t= 260 (40896) Note On ch=7 par1=78 par2=99
Channel Event. t= 930 (41826) Note Off ch=7 par1=78 par2=64
Channel Event. t= 30 (41856) Note On ch=7 par1=71 par2=78
Channel Event. t= 960 (42816) Note On ch=7 par1=83 par2=91
Channel Event. t= 42 (42858) Note Off ch=7 par1=71 par2=64
Channel Event. t= 2238 (45096) Note Off ch=7 par1=83 par2=64
Channel Event. t= 120 (45216) Note On ch=7 par1=83 par2=32
Channel Event. t= 480 (45696) Note On ch=7 par1=84 par2=47
Channel Event. t= 55 (45751) Note Off ch=7 par1=83 par2=64
Channel Event. t= 1865 (47616) Note Off ch=7 par1=84 par2=64
Channel Event. t= 1440 (49056) Note On ch=7 par1=55 par2=79
Channel Event. t= 105 (49161) Note Off ch=7 par1=55 par2=64
Channel Event. t= 135 (49296) Note On ch=7 par1=60 par2=76
Channel Event. t= 85 (49381) Note Off ch=7 par1=60 par2=64
Channel Event. t= 155 (49536) Note On ch=7 par1=64 par2=94
Channel Event. t= 412 (49948) Note Off ch=7 par1=64 par2=64
Channel Event. t= 68 (50016) Note On ch=7 par1=60 par2=68
Channel Event. t= 85 (50101) Note Off ch=7 par1=60 par2=64
Channel Event. t= 155 (50256) Note On ch=7 par1=55 par2=53
Channel Event. t= 75 (50331) Note Off ch=7 par1=55 par2=64
Channel Event. t= 165 (50496) Note On ch=7 par1=54 par2=94
Channel Event. t= 390 (50886) Note Off ch=7 par1=54 par2=64
Channel Event. t= 90 (50976) Note On ch=7 par1=55 par2=68
Channel Event. t= 105 (51081) Note Off ch=7 par1=55 par2=64
Channel Event. t= 135 (51216) Note On ch=7 par1=60 par2=69
Channel Event. t= 85 (51301) Note Off ch=7 par1=60 par2=64
Channel Event. t= 155 (51456) Note On ch=7 par1=64 par2=69
Channel Event. t= 110 (51566) Note Off ch=7 par1=64 par2=64
Channel Event. t= 130 (51696) Note On ch=7 par1=67 par2=73
Channel Event. t= 80 (51776) Note Off ch=7 par1=67 par2=64
Channel Event. t= 160 (51936) Note On ch=7 par1=65 par2=99
Channel Event. t= 607 (52543) Note Off ch=7 par1=65 par2=64
Channel Event. t= 113 (52656) Note On ch=7 par1=64 par2=86
Channel Event. t= 240 (52896) Note On ch=7 par1=60 par2=74
Channel Event. t= 30 (52926) Note Off ch=7 par1=64 par2=64
Channel Event. t= 210 (53136) Note On ch=7 par1=62 par2=70
Channel Event. t= 50 (53186) Note Off ch=7 par1=60 par2=64
Channel Event. t= 107 (53293) Note Off ch=7 par1=62 par2=64
Channel Event. t= 83 (53376) Note On ch=7 par1=64 par2=81
Channel Event. t= 240 (53616) Note On ch=7 par1=62 par2=71
Channel Event. t= 77 (53693) Note Off ch=7 par1=64 par2=64
Channel Event. t= 60 (53753) Note Off ch=7 par1=62 par2=64
Channel Event. t= 103 (53856) Note On ch=7 par1=59 par2=88
Channel Event. t= 240 (54096) Note On ch=7 par1=60 par2=69
Channel Event. t= 32 (54128) Note Off ch=7 par1=59 par2=64
Channel Event. t= 78 (54206) Note Off ch=7 par1=60 par2=64
Channel Event. t= 130 (54336) Note On ch=7 par1=62 par2=90
Channel Event. t= 240 (54576) Note On ch=7 par1=60 par2=74
Channel Event. t= 32 (54608) Note Off ch=7 par1=62 par2=64
Channel Event. t= 98 (54706) Note Off ch=7 par1=60 par2=64
Channel Event. t= 110 (54816) Note On ch=7 par1=57 par2=77
Channel Event. t= 185 (55001) Note Off ch=7 par1=57 par2=64
Channel Event. t= 55 (55056) Note On ch=7 par1=59 par2=69
Channel Event. t= 95 (55151) Note Off ch=7 par1=59 par2=64
Channel Event. t= 145 (55296) Note On ch=7 par1=60 par2=94
Channel Event. t= 1260 (56556) Note Off ch=7 par1=60 par2=64
Channel Event. t= 180 (56736) Note On ch=7 par1=55 par2=70
Channel Event. t= 75 (56811) Note Off ch=7 par1=55 par2=64
Channel Event. t= 165 (56976) Note On ch=7 par1=60 par2=69
Channel Event. t= 125 (57101) Note Off ch=7 par1=60 par2=64
Channel Event. t= 115 (57216) Note On ch=7 par1=64 par2=90
Channel Event. t= 320 (57536) Note Off ch=7 par1=64 par2=64
Channel Event. t= 107 (57643) Note On ch=7 par1=76 par2=58
Channel Event. t= 5 (57648) Note On ch=7 par1=67 par2=41
Channel Event. t= 48 (57696) Note On ch=7 par1=60 par2=68
Channel Event. t= 110 (57806) Note Off ch=7 par1=67 par2=64
Channel Event. t= 5 (57811) Note Off ch=7 par1=76 par2=64
Channel Event. t= 10 (57821) Note Off ch=7 par1=60 par2=64
Channel Event. t= 115 (57936) Note On ch=7 par1=55 par2=68
Channel Event. t= 92 (58028) Note Off ch=7 par1=55 par2=64
Channel Event. t= 148 (58176) Note On ch=7 par1=54 par2=85
Channel Event. t= 325 (58501) Note Off ch=7 par1=54 par2=64
Channel Event. t= 97 (58598) Note On ch=7 par1=67 par2=42
Channel Event. t= 0 (58598) Note On ch=7 par1=76 par2=53
Channel Event. t= 58 (58656) Note On ch=7 par1=55 par2=75
Channel Event. t= 105 (58761) Note Off ch=7 par1=55 par2=64
Channel Event. t= 5 (58766) Note Off ch=7 par1=67 par2=64
Channel Event. t= 47 (58813) Note Off ch=7 par1=76 par2=64
Channel Event. t= 83 (58896) Note On ch=7 par1=60 par2=75
Channel Event. t= 125 (59021) Note Off ch=7 par1=60 par2=64
Channel Event. t= 115 (59136) Note On ch=7 par1=64 par2=81
Channel Event. t= 165 (59301) Note Off ch=7 par1=64 par2=64
Channel Event. t= 75 (59376) Note On ch=7 par1=67 par2=74
Channel Event. t= 70 (59446) Note Off ch=7 par1=67 par2=64
Channel Event. t= 112 (59558) Note On ch=7 par1=81 par2=57
Channel Event. t= 5 (59563) Note On ch=7 par1=72 par2=50
Channel Event. t= 53 (59616) Note On ch=7 par1=65 par2=94
Channel Event. t= 140 (59756) Note Off ch=7 par1=81 par2=64
Channel Event. t= 2 (59758) Note Off ch=7 par1=72 par2=64
Channel Event. t= 473 (60231) Note Off ch=7 par1=65 par2=64
Channel Event. t= 105 (60336) Note On ch=7 par1=64 par2=86
Channel Event. t= 155 (60491) Note On ch=7 par1=81 par2=61
Channel Event. t= 5 (60496) Note On ch=7 par1=72 par2=60
Channel Event. t= 80 (60576) Note On ch=7 par1=67 par2=74
Channel Event. t= 7 (60583) Note Off ch=7 par1=64 par2=64
Channel Event. t= 123 (60706) Note Off ch=7 par1=72 par2=64
Channel Event. t= 15 (60721) Note Off ch=7 par1=81 par2=64
Channel Event. t= 95 (60816) Note On ch=7 par1=65 par2=75
Channel Event. t= 40 (60856) Note Off ch=7 par1=67 par2=64
Channel Event. t= 200 (61056) Note On ch=7 par1=64 par2=71
Channel Event. t= 35 (61091) Note Off ch=7 par1=65 par2=64
Channel Event. t= 95 (61186) Note Off ch=7 par1=64 par2=64
Channel Event. t= 110 (61296) Note On ch=7 par1=62 par2=90
Channel Event. t= 155 (61451) Note On ch=7 par1=81 par2=58
Channel Event. t= 5 (61456) Note On ch=7 par1=72 par2=52
Channel Event. t= 80 (61536) Note On ch=7 par1=65 par2=77
Channel Event. t= 15 (61551) Note Off ch=7 par1=62 par2=64
Channel Event. t= 65 (61616) Note Off ch=7 par1=81 par2=64
Channel Event. t= 0 (61616) Note Off ch=7 par1=72 par2=64
Channel Event. t= 160 (61776) Note On ch=7 par1=64 par2=67
Channel Event. t= 42 (61818) Note Off ch=7 par1=65 par2=64
Channel Event. t= 198 (62016) Note On ch=7 par1=62 par2=78
Channel Event. t= 37 (62053) Note Off ch=7 par1=64 par2=64
Channel Event. t= 108 (62161) Note Off ch=7 par1=62 par2=64
Channel Event. t= 95 (62256) Note On ch=7 par1=60 par2=85
Channel Event. t= 132 (62388) Note On ch=7 par1=81 par2=54
Channel Event. t= 15 (62403) Note On ch=7 par1=72 par2=44
Channel Event. t= 93 (62496) Note On ch=7 par1=64 par2=80
Channel Event. t= 20 (62516) Note Off ch=7 par1=60 par2=64
Channel Event. t= 70 (62586) Note Off ch=7 par1=81 par2=64
Channel Event. t= 45 (62631) Note Off ch=7 par1=72 par2=64
Channel Event. t= 105 (62736) Note On ch=7 par1=62 par2=87
Channel Event. t= 25 (62761) Note Off ch=7 par1=64 par2=64
Channel Event. t= 222 (62983) Note Off ch=7 par1=62 par2=64
Channel Event. t= 450 (63433) Note On ch=7 par1=79 par2=40
Channel Event. t= 18 (63451) Note On ch=7 par1=71 par2=49
Channel Event. t= 122 (63573) Note Off ch=7 par1=79 par2=64
Channel Event. t= 28 (63601) Note Off ch=7 par1=71 par2=64
Channel Event. t= 335 (63936) Note On ch=7 par1=72 par2=52
Channel Event. t= 30 (63966) Note On ch=7 par1=64 par2=31
Channel Event. t= 150 (64116) Note Off ch=7 par1=64 par2=64
Channel Event. t= 12 (64128) Note Off ch=7 par1=72 par2=64
Channel Event. t= 2448 (66576) Controller ch=7 par1=7 (Main Volume) par2=102
Channel Event. t= 212 (66788) Note On ch=7 par1=60 par2=53
Channel Event. t= 5 (66793) Note On ch=7 par1=57 par2=49
Channel Event. t= 23 (66816) Note On ch=7 par1=55 par2=63
Channel Event. t= 855 (67671) Note Off ch=7 par1=60 par2=64
Channel Event. t= 47 (67718) Note Off ch=7 par1=57 par2=64
Channel Event. t= 10 (67728) Note On ch=7 par1=60 par2=66
Channel Event. t= 8 (67736) Note On ch=7 par1=64 par2=75
Channel Event. t= 40 (67776) Note On ch=7 par1=57 par2=67
Channel Event. t= 25 (67801) Note Off ch=7 par1=55 par2=64
Channel Event. t= 780 (68581) Note Off ch=7 par1=60 par2=64
Channel Event. t= 75 (68656) Note Off ch=7 par1=64 par2=64
Channel Event. t= 52 (68708) Note On ch=7 par1=64 par2=104
Channel Event. t= 0 (68708) Note On ch=7 par1=67 par2=102
Channel Event. t= 28 (68736) Note On ch=7 par1=60 par2=100
Channel Event. t= 2 (68738) Note Off ch=7 par1=57 par2=64
Channel Event. t= 753 (69491) Note Off ch=7 par1=64 par2=64
Channel Event. t= 40 (69531) Note Off ch=7 par1=67 par2=64
Channel Event. t= 137 (69668) Note On ch=7 par1=72 par2=102
Channel Event. t= 5 (69673) Note On ch=7 par1=69 par2=99
Channel Event. t= 23 (69696) Note On ch=7 par1=67 par2=100
Channel Event. t= 47 (69743) Note Off ch=7 par1=60 par2=64
Channel Event. t= 555 (70298) Note Off ch=7 par1=72 par2=64
Channel Event. t= 70 (70368) Note Off ch=7 par1=69 par2=64
Channel Event. t= 20 (70388) Note On ch=7 par1=76 par2=98
Channel Event. t= 0 (70388) Note On ch=7 par1=72 par2=93
Channel Event. t= 28 (70416) Note On ch=7 par1=69 par2=91
Channel Event. t= 97 (70513) Note Off ch=7 par1=67 par2=64
Channel Event. t= 78 (70591) Note Off ch=7 par1=72 par2=64
Channel Event. t= 2 (70593) Note Off ch=7 par1=76 par2=64
Channel Event. t= 23 (70616) Note On ch=7 par1=79 par2=95
Channel Event. t= 0 (70616) Note On ch=7 par1=76 par2=67
Channel Event. t= 40 (70656) Note On ch=7 par1=72 par2=94
Channel Event. t= 10 (70666) Note Off ch=7 par1=69 par2=64
Channel Event. t= 392 (71058) Note Off ch=7 par1=79 par2=64
Channel Event. t= 3 (71061) Note Off ch=7 par1=76 par2=64
Channel Event. t= 40 (71101) Note On ch=7 par1=77 par2=82
Channel Event. t= 7 (71108) Note On ch=7 par1=81 par2=53
Channel Event. t= 25 (71133) Note Off ch=7 par1=72 par2=64
Channel Event. t= 3 (71136) Note On ch=7 par1=76 par2=100
Channel Event. t= 420 (71556) Note Off ch=7 par1=81 par2=64
Channel Event. t= 25 (71581) Note Off ch=7 par1=77 par2=64
Channel Event. t= 32 (71613) Note Off ch=7 par1=76 par2=64
Channel Event. t= 0 (71613) Note On ch=7 par1=79 par2=104
Channel Event. t= 0 (71613) Note On ch=7 par1=76 par2=106
Channel Event. t= 3 (71616) Note On ch=7 par1=72 par2=106
Channel Event. t= 657 (72273) Note Off ch=7 par1=79 par2=64
Channel Event. t= 5 (72278) Note Off ch=7 par1=76 par2=64
Channel Event. t= 55 (72333) Note Off ch=7 par1=72 par2=64
Channel Event. t= 0 (72333) Note On ch=7 par1=72 par2=86
Channel Event. t= 3 (72336) Note On ch=7 par1=76 par2=91
Channel Event. t= 0 (72336) Note On ch=7 par1=69 par2=72
Channel Event. t= 180 (72516) Note Off ch=7 par1=76 par2=64
Channel Event. t= 5 (72521) Note Off ch=7 par1=72 par2=64
Channel Event. t= 22 (72543) Note On ch=7 par1=79 par2=92
Channel Event. t= 0 (72543) Note On ch=7 par1=76 par2=87
Channel Event. t= 33 (72576) Note On ch=7 par1=72 par2=88
Channel Event. t= 15 (72591) Note Off ch=7 par1=69 par2=64
Channel Event. t= 382 (72973) Note Off ch=7 par1=79 par2=64
Channel Event. t= 28 (73001) Note Off ch=7 par1=76 par2=64
Channel Event. t= 25 (73026) Note On ch=7 par1=79 par2=80
Channel Event. t= 2 (73028) Note On ch=7 par1=81 par2=89
Channel Event. t= 28 (73056) Note On ch=7 par1=76 par2=84
Channel Event. t= 25 (73081) Note Off ch=7 par1=72 par2=64
Channel Event. t= 395 (73476) Note Off ch=7 par1=81 par2=64
Channel Event. t= 10 (73486) Note Off ch=7 par1=79 par2=64
Channel Event. t= 25 (73511) Note On ch=7 par1=83 par2=100
Channel Event. t= 5 (73516) Note On ch=7 par1=78 par2=108
Channel Event. t= 20 (73536) Note On ch=7 par1=75 par2=105
Channel Event. t= 47 (73583) Note Off ch=7 par1=76 par2=64
Channel Event. t= 603 (74186) Note Off ch=7 par1=78 par2=64
Channel Event. t= 7 (74193) Note Off ch=7 par1=83 par2=64
Channel Event. t= 33 (74226) Note On ch=7 par1=84 par2=90
Channel Event. t= 0 (74226) Note On ch=7 par1=79 par2=88
Channel Event. t= 30 (74256) Note On ch=7 par1=76 par2=85
Channel Event. t= 20 (74276) Note Off ch=7 par1=75 par2=64
Channel Event. t= 130 (74406) Note Off ch=7 par1=79 par2=64
Channel Event. t= 35 (74441) Note Off ch=7 par1=84 par2=64
Channel Event. t= 7 (74448) Note On ch=7 par1=79 par2=92
Channel Event. t= 5 (74453) Note Off ch=7 par1=76 par2=64
Channel Event. t= 0 (74453) Note On ch=7 par1=76 par2=87
Channel Event. t= 43 (74496) Note On ch=7 par1=72 par2=98
Channel Event. t= 360 (74856) Note Off ch=7 par1=76 par2=64
Channel Event. t= 62 (74918) Note Off ch=7 par1=79 par2=64
Channel Event. t= 23 (74941) Note On ch=7 par1=76 par2=103
Channel Event. t= 12 (74953) Note Off ch=7 par1=72 par2=64
Channel Event. t= 0 (74953) Note On ch=7 par1=72 par2=91
Channel Event. t= 23 (74976) Note On ch=7 par1=69 par2=96
Channel Event. t= 372 (75348) Note Off ch=7 par1=72 par2=64
Channel Event. t= 33 (75381) Note Off ch=7 par1=76 par2=64
Channel Event. t= 15 (75396) Note On ch=7 par1=72 par2=91
Channel Event. t= 5 (75401) Note Off ch=7 par1=69 par2=64
Channel Event. t= 0 (75401) Note On ch=7 par1=69 par2=90
Channel Event. t= 55 (75456) Note On ch=7 par1=67 par2=92
Channel Event. t= 407 (75863) Note Off ch=7 par1=72 par2=64
Channel Event. t= 10 (75873) Note Off ch=7 par1=69 par2=64
Channel Event. t= 13 (75886) Note On ch=7 par1=71 par2=94
Channel Event. t= 5 (75891) Note On ch=7 par1=74 par2=90
Channel Event. t= 45 (75936) Note On ch=7 par1=65 par2=90
Channel Event. t= 35 (75971) Note Off ch=7 par1=67 par2=64
Channel Event. t= 250 (76221) Note Off ch=7 par1=71 par2=64
Channel Event. t= 112 (76333) Note Off ch=7 par1=74 par2=64
Channel Event. t= 13 (76346) Note On ch=7 par1=72 par2=90
Channel Event. t= 0 (76346) Note On ch=7 par1=75 par2=102
Channel Event. t= 70 (76416) Note On ch=7 par1=63 par2=105
Channel Event. t= 30 (76446) Note Off ch=7 par1=65 par2=64
Channel Event. t= 800 (77246) Note Off ch=7 par1=72 par2=64
Channel Event. t= 12 (77258) Note Off ch=7 par1=75 par2=64
Channel Event. t= 80 (77338) Note On ch=7 par1=72 par2=86
Channel Event. t= 3 (77341) Note On ch=7 par1=75 par2=89
Channel Event. t= 35 (77376) Note On ch=7 par1=70 par2=78
Channel Event. t= 60 (77436) Note Off ch=7 par1=63 par2=64
Channel Event. t= 352 (77788) Note Off ch=7 par1=75 par2=64
Channel Event. t= 13 (77801) Note Off ch=7 par1=72 par2=64
Channel Event. t= 10 (77811) Note On ch=7 par1=83 par2=89
Channel Event. t= 5 (77816) Note On ch=7 par1=79 par2=80
Channel Event. t= 40 (77856) Note On ch=7 par1=74 par2=77
Channel Event. t= 35 (77891) Note Off ch=7 par1=70 par2=64
Channel Event. t= 347 (78238) Note Off ch=7 par1=83 par2=64
Channel Event. t= 48 (78286) Note Off ch=7 par1=79 par2=64
Channel Event. t= 12 (78298) Note On ch=7 par1=75 par2=109
Channel Event. t= 5 (78303) Note On ch=7 par1=72 par2=104
Channel Event. t= 33 (78336) Note On ch=7 par1=63 par2=104
Channel Event. t= 50 (78386) Note Off ch=7 par1=74 par2=64
Channel Event. t= 805 (79191) Note Off ch=7 par1=72 par2=64
Channel Event. t= 2 (79193) Note Off ch=7 par1=75 par2=64
Channel Event. t= 43 (79236) Note On ch=7 par1=75 par2=92
Channel Event. t= 5 (79241) Note On ch=7 par1=72 par2=80
Channel Event. t= 55 (79296) Note On ch=7 par1=70 par2=65
Channel Event. t= 87 (79383) Note Off ch=7 par1=63 par2=64
Channel Event. t= 285 (79668) Note Off ch=7 par1=72 par2=64
Channel Event. t= 15 (79683) Note Off ch=7 par1=75 par2=64
Channel Event. t= 43 (79726) Note On ch=7 par1=79 par2=81
Channel Event. t= 0 (79726) Note On ch=7 par1=83 par2=85
Channel Event. t= 50 (79776) Note On ch=7 par1=74 par2=73
Channel Event. t= 35 (79811) Note Off ch=7 par1=70 par2=64
Channel Event. t= 375 (80186) Note Off ch=7 par1=83 par2=64
Channel Event. t= 47 (80233) Note Off ch=7 par1=79 par2=64
Channel Event. t= 0 (80233) Note On ch=7 par1=75 par2=105
Channel Event. t= 3 (80236) Note On ch=7 par1=72 par2=98
Channel Event. t= 20 (80256) Note On ch=7 par1=70 par2=108
Channel Event. t= 47 (80303) Note Off ch=7 par1=74 par2=64
Channel Event. t= 673 (80976) Note Off ch=7 par1=75 par2=64
Channel Event. t= 75 (81051) Note Off ch=7 par1=72 par2=64
Channel Event. t= 45 (81096) Note Off ch=7 par1=70 par2=64
Channel Event. t= 85 (81181) Note On ch=7 par1=70 par2=100
Channel Event. t= 2 (81183) Note On ch=7 par1=67 par2=92
Channel Event. t= 33 (81216) Note On ch=7 par1=65 par2=65
Channel Event. t= 887 (82103) Note Off ch=7 par1=67 par2=64
Channel Event. t= 3 (82106) Note Off ch=7 par1=70 par2=64
Channel Event. t= 45 (82151) Note On ch=7 par1=67 par2=91
Channel Event. t= 2 (82153) Note On ch=7 par1=70 par2=104
Channel Event. t= 23 (82176) Note On ch=7 par1=63 par2=107
Channel Event. t= 97 (82273) Note Off ch=7 par1=65 par2=64
Channel Event. t= 1190 (83463) Note Off ch=7 par1=67 par2=64
Channel Event. t= 30 (83493) Note Off ch=7 par1=70 par2=64
Channel Event. t= 115 (83608) Note On ch=7 par1=69 par2=75
Channel Event. t= 53 (83661) Note Off ch=7 par1=63 par2=64
Channel Event. t= 415 (84076) Note On ch=7 par1=70 par2=89
Channel Event. t= 20 (84096) Note On ch=7 par1=63 par2=82
Channel Event. t= 0 (84096) Note On ch=7 par1=67 par2=91
Channel Event. t= 40 (84136) Note Off ch=7 par1=69 par2=64
Channel Event. t= 900 (85036) Note On ch=7 par1=72 par2=82
Channel Event. t= 0 (85036) Note On ch=7 par1=75 par2=96
Channel Event. t= 15 (85051) Note Off ch=7 par1=70 par2=64
Channel Event. t= 5 (85056) Note On ch=7 par1=70 par2=97
Channel Event. t= 40 (85096) Note Off ch=7 par1=63 par2=64
Channel Event. t= 30 (85126) Note Off ch=7 par1=67 par2=64
Channel Event. t= 562 (85688) Note Off ch=7 par1=75 par2=64
Channel Event. t= 60 (85748) Note Off ch=7 par1=70 par2=64
Channel Event. t= 13 (85761) Note On ch=7 par1=75 par2=80
Channel Event. t= 2 (85763) Note On ch=7 par1=79 par2=82
Channel Event. t= 3 (85766) Note Off ch=7 par1=72 par2=64
Channel Event. t= 10 (85776) Note On ch=7 par1=72 par2=88
Channel Event. t= 90 (85866) Note Off ch=7 par1=75 par2=64
Channel Event. t= 67 (85933) Note Off ch=7 par1=79 par2=64
Channel Event. t= 58 (85991) Note On ch=7 par1=82 par2=98
Channel Event. t= 2 (85993) Note On ch=7 par1=79 par2=74
Channel Event. t= 23 (86016) Note On ch=7 par1=75 par2=107
Channel Event. t= 82 (86098) Note Off ch=7 par1=72 par2=64
Channel Event. t= 313 (86411) Note Off ch=7 par1=82 par2=64
Channel Event. t= 15 (86426) Note Off ch=7 par1=79 par2=64
Channel Event. t= 20 (86446) Note On ch=7 par1=81 par2=78
Channel Event. t= 2 (86448) Note On ch=7 par1=84 par2=87
Channel Event. t= 25 (86473) Note Off ch=7 par1=75 par2=64
Channel Event. t= 23 (86496) Note On ch=7 par1=79 par2=83
Channel Event. t= 422 (86918) Note Off ch=7 par1=81 par2=64
Channel Event. t= 10 (86928) Note Off ch=7 par1=79 par2=64
Channel Event. t= 0 (86928) Note On ch=7 par1=79 par2=77
Channel Event. t= 5 (86933) Note On ch=7 par1=82 par2=95
Channel Event. t= 35 (86968) Note Off ch=7 par1=84 par2=64
Channel Event. t= 8 (86976) Note On ch=7 par1=75 par2=104
Channel Event. t= 652 (87628) Note Off ch=7 par1=79 par2=64
Channel Event. t= 3 (87631) Note Off ch=7 par1=82 par2=64
Channel Event. t= 45 (87676) Note Off ch=7 par1=75 par2=64
Channel Event. t= 0 (87676) Note On ch=7 par1=75 par2=88
Channel Event. t= 2 (87678) Note On ch=7 par1=79 par2=83
Channel Event. t= 18 (87696) Note On ch=7 par1=72 par2=63
Channel Event. t= 140 (87836) Note Off ch=7 par1=75 par2=64
Channel Event. t= 57 (87893) Note Off ch=7 par1=79 par2=64
Channel Event. t= 30 (87923) Note On ch=7 par1=79 par2=67
Channel Event. t= 3 (87926) Note On ch=7 par1=82 par2=88
Channel Event. t= 10 (87936) Note On ch=7 par1=75 par2=82
Channel Event. t= 47 (87983) Note Off ch=7 par1=72 par2=64
Channel Event. t= 378 (88361) Note Off ch=7 par1=79 par2=64
Channel Event. t= 12 (88373) Note Off ch=7 par1=82 par2=64
Channel Event. t= 38 (88411) Note On ch=7 par1=84 par2=92
Channel Event. t= 5 (88416) Note On ch=7 par1=82 par2=96
Channel Event. t= 0 (88416) Note On ch=7 par1=79 par2=84
Channel Event. t= 27 (88443) Note Off ch=7 par1=75 par2=64
Channel Event. t= 415 (88858) Note Off ch=7 par1=82 par2=64
Channel Event. t= 3 (88861) Note Off ch=7 par1=84 par2=64
Channel Event. t= 35 (88896) Note On ch=7 par1=86 par2=106
Channel Event. t= 0 (88896) Note On ch=7 par1=78 par2=101
Channel Event. t= 5 (88901) Note On ch=7 par1=81 par2=98
Channel Event. t= 52 (88953) Note Off ch=7 par1=79 par2=64
Channel Event. t= 580 (89533) Note Off ch=7 par1=78 par2=64
Channel Event. t= 70 (89603) Note Off ch=7 par1=86 par2=64
Channel Event. t= 13 (89616) Note On ch=7 par1=79 par2=83
Channel Event. t= 15 (89631) Note On ch=7 par1=82 par2=86
Channel Event. t= 7 (89638) Note On ch=7 par1=87 par2=84
Channel Event. t= 10 (89648) Note Off ch=7 par1=81 par2=64
Channel Event. t= 158 (89806) Note Off ch=7 par1=82 par2=64
Channel Event. t= 50 (89856) Note On ch=7 par1=75 par2=96
Channel Event. t= 5 (89861) Note Off ch=7 par1=87 par2=64
Channel Event. t= 7 (89868) Note On ch=7 par1=82 par2=83
Channel Event. t= 5 (89873) Note Off ch=7 par1=79 par2=64
Channel Event. t= 0 (89873) Note On ch=7 par1=79 par2=78
Channel Event. t= 330 (90203) Note Off ch=7 par1=82 par2=64
Channel Event. t= 123 (90326) Note Off ch=7 par1=75 par2=64
Channel Event. t= 0 (90326) Note On ch=7 par1=75 par2=92
Channel Event. t= 10 (90336) Note On ch=7 par1=72 par2=87
Channel Event. t= 430 (90766) Note Off ch=7 par1=75 par2=64
Channel Event. t= 40 (90806) Note On ch=7 par1=75 par2=96
Channel Event. t= 5 (90811) Note Off ch=7 par1=72 par2=64
Channel Event. t= 0 (90811) Note On ch=7 par1=72 par2=89
Channel Event. t= 5 (90816) Note On ch=7 par1=70 par2=90
Channel Event. t= 17 (90833) Note Off ch=7 par1=79 par2=64
Channel Event. t= 310 (91143) Note Off ch=7 par1=72 par2=64
Channel Event. t= 118 (91261) Note On ch=7 par1=73 par2=78
Channel Event. t= 2 (91263) Note On ch=7 par1=77 par2=83
Channel Event. t= 33 (91296) Note On ch=7 par1=68 par2=88
Channel Event. t= 12 (91308) Note Off ch=7 par1=75 par2=64
Channel Event. t= 23 (91331) Note Off ch=7 par1=70 par2=64
Channel Event. t= 340 (91671) Note Off ch=7 par1=77 par2=64
Channel Event. t= 12 (91683) Note Off ch=7 par1=73 par2=64
Channel Event. t= 45 (91728) Note On ch=7 par1=78 par2=104
Channel Event. t= 3 (91731) Note On ch=7 par1=74 par2=104
Channel Event. t= 45 (91776) Note On ch=7 par1=66 par2=104
Channel Event. t= 52 (91828) Note Off ch=7 par1=68 par2=64
Channel Event. t= 788 (92616) Note Off ch=7 par1=74 par2=64
Channel Event. t= 17 (92633) Note Off ch=7 par1=66 par2=64
Channel Event. t= 3 (92636) Note Off ch=7 par1=78 par2=64
Channel Event. t= 47 (92683) Note On ch=7 par1=78 par2=83
Channel Event. t= 3 (92686) Note On ch=7 par1=74 par2=69
Channel Event. t= 50 (92736) Note On ch=7 par1=66 par2=92
Channel Event. t= 377 (93113) Note Off ch=7 par1=78 par2=64
Channel Event. t= 48 (93161) Note On ch=7 par1=78 par2=83
Channel Event. t= 10 (93171) Note Off ch=7 par1=74 par2=64
Channel Event. t= 0 (93171) Note On ch=7 par1=86 par2=85
Channel Event. t= 45 (93216) Note On ch=7 par1=74 par2=75
Channel Event. t= 20 (93236) Note Off ch=7 par1=66 par2=64
Channel Event. t= 360 (93596) Note Off ch=7 par1=78 par2=64
Channel Event. t= 15 (93611) Note Off ch=7 par1=86 par2=64
Channel Event. t= 25 (93636) Note On ch=7 par1=78 par2=99
Channel Event. t= 7 (93643) Note Off ch=7 par1=74 par2=64
Channel Event. t= 0 (93643) Note On ch=7 par1=74 par2=91
Channel Event. t= 53 (93696) Note On ch=7 par1=66 par2=98
Channel Event. t= 805 (94501) Note Off ch=7 par1=66 par2=64
Channel Event. t= 27 (94528) Note Off ch=7 par1=74 par2=64
Channel Event. t= 18 (94546) Note Off ch=7 par1=78 par2=64
Channel Event. t= 40 (94586) Note On ch=7 par1=78 par2=88
Channel Event. t= 2 (94588) Note On ch=7 par1=74 par2=81
Channel Event. t= 68 (94656) Note On ch=7 par1=66 par2=89
Channel Event. t= 320 (94976) Note Off ch=7 par1=78 par2=64
Channel Event. t= 100 (95076) Note On ch=7 par1=86 par2=89
Channel Event. t= 2 (95078) Note On ch=7 par1=78 par2=86
Channel Event. t= 3 (95081) Note Off ch=7 par1=74 par2=64
Channel Event. t= 55 (95136) Note On ch=7 par1=74 par2=78
Channel Event. t= 50 (95186) Note Off ch=7 par1=66 par2=64
Channel Event. t= 107 (95293) Note Off ch=7 par1=86 par2=64
Channel Event. t= 263 (95556) Note On ch=7 par1=71 par2=78
Channel Event. t= 2 (95558) Note On ch=7 par1=79 par2=92
Channel Event. t= 3 (95561) Note Off ch=7 par1=78 par2=64
Channel Event. t= 55 (95616) Note On ch=7 par1=67 par2=93
Channel Event. t= 45 (95661) Note Off ch=7 par1=74 par2=64
Channel Event. t= 812 (96473) Note Off ch=7 par1=71 par2=64
Channel Event. t= 18 (96491) Note On ch=7 par1=59 par2=85
Channel Event. t= 2 (96493) Note Off ch=7 par1=79 par2=64
Channel Event. t= 3 (96496) Note Off ch=7 par1=67 par2=64
Channel Event. t= 0 (96496) Note On ch=7 par1=67 par2=77
Channel Event. t= 895 (97391) Note Off ch=7 par1=59 par2=64
Channel Event. t= 32 (97423) Note Off ch=7 par1=67 par2=64
Channel Event. t= 65 (97488) Note On ch=7 par1=59 par2=70
Channel Event. t= 5 (97493) Note On ch=7 par1=67 par2=61
Channel Event. t= 1878 (99371) Note Off ch=7 par1=59 par2=64
Channel Event. t= 7 (99378) Note Off ch=7 par1=67 par2=64
Channel Event. t= 543 (99921) Note On ch=7 par1=93 par2=55
Channel Event. t= 5 (99926) Note On ch=7 par1=89 par2=49
Channel Event. t= 10 (99936) Note On ch=7 par1=80 par2=40
Channel Event. t= 0 (99936) Note On ch=7 par1=85 par2=49
Channel Event. t= 25 (99961) Note Off ch=7 par1=93 par2=64
Channel Event. t= 20 (99981) Note Off ch=7 par1=89 par2=64
Channel Event. t= 12 (99993) Note Off ch=7 par1=80 par2=64
Channel Event. t= 28 (100021) Note Off ch=7 par1=85 par2=64
Channel Event. t= 395 (100416) Note On ch=7 par1=79 par2=28
Channel Event. t= 0 (100416) Note On ch=7 par1=84 par2=30
Channel Event. t= 0 (100416) Note On ch=7 par1=88 par2=48
Channel Event. t= 0 (100416) Note On ch=7 par1=92 par2=63
Channel Event. t= 840 (101256) Note Off ch=7 par1=92 par2=64
Channel Event. t= 0 (101256) Note Off ch=7 par1=88 par2=64
Channel Event. t= 0 (101256) Note Off ch=7 par1=84 par2=64
Channel Event. t= 0 (101256) Note Off ch=7 par1=79 par2=64
Channel Event. t= 537 (101793) Note On ch=7 par1=92 par2=50
Channel Event. t= 8 (101801) Note On ch=7 par1=89 par2=38
Channel Event. t= 55 (101856) Note On ch=7 par1=85 par2=57
Channel Event. t= 0 (101856) Note On ch=7 par1=80 par2=49
Channel Event. t= 20 (101876) Note Off ch=7 par1=92 par2=64
Channel Event. t= 7 (101883) Note Off ch=7 par1=89 par2=64
Channel Event. t= 55 (101938) Note Off ch=7 par1=80 par2=64
Channel Event. t= 3 (101941) Note Off ch=7 par1=85 par2=64
Channel Event. t= 395 (102336) Note On ch=7 par1=84 par2=48
Channel Event. t= 0 (102336) Note On ch=7 par1=79 par2=46
Channel Event. t= 0 (102336) Note On ch=7 par1=92 par2=43
Channel Event. t= 0 (102336) Note On ch=7 par1=88 par2=43
Channel Event. t= 960 (103296) Note Off ch=7 par1=88 par2=64
Channel Event. t= 0 (103296) Note Off ch=7 par1=92 par2=64
Channel Event. t= 10 (103306) Note Off ch=7 par1=84 par2=64
Channel Event. t= 25 (103331) Note Off ch=7 par1=79 par2=64
Channel Event. t= 445 (103776) Note On ch=7 par1=73 par2=40
Channel Event. t= 0 (103776) Note On ch=7 par1=77 par2=37
Channel Event. t= 0 (103776) Note On ch=7 par1=80 par2=51
Channel Event. t= 260 (104036) Note Off ch=7 par1=73 par2=64
Channel Event. t= 20 (104056) Note Off ch=7 par1=77 par2=64
Channel Event. t= 0 (104056) Note Off ch=7 par1=80 par2=64
Channel Event. t= 680 (104736) Note On ch=7 par1=72 par2=50
Channel Event. t= 0 (104736) Note On ch=7 par1=80 par2=46
Channel Event. t= 0 (104736) Note On ch=7 par1=76 par2=42
Channel Event. t= 217 (104953) Note Off ch=7 par1=76 par2=64
Channel Event. t= 35 (104988) Note Off ch=7 par1=80 par2=64
Channel Event. t= 30 (105018) Note Off ch=7 par1=72 par2=64
Channel Event. t= 678 (105696) Note On ch=7 par1=73 par2=59
Channel Event. t= 0 (105696) Note On ch=7 par1=77 par2=42
Channel Event. t= 0 (105696) Note On ch=7 par1=80 par2=61
Channel Event. t= 130 (105826) Note Off ch=7 par1=77 par2=64
Channel Event. t= 32 (105858) Note Off ch=7 par1=80 par2=64
Channel Event. t= 100 (105958) Note Off ch=7 par1=73 par2=64
Channel Event. t= 698 (106656) Note On ch=7 par1=72 par2=58
Channel Event. t= 172 (106828) Note Off ch=7 par1=72 par2=64
Channel Event. t= 35 (106863) Note On ch=7 par1=84 par2=79
Channel Event. t= 140 (107003) Note Off ch=7 par1=84 par2=64
Channel Event. t= 613 (107616) Note On ch=7 par1=85 par2=56
Channel Event. t= 0 (107616) Note On ch=7 par1=80 par2=46
Channel Event. t= 0 (107616) Note On ch=7 par1=77 par2=31
Channel Event. t= 47 (107663) Note Off ch=7 par1=85 par2=64
Channel Event. t= 18 (107681) Note Off ch=7 par1=77 par2=64
Channel Event. t= 7 (107688) Note Off ch=7 par1=80 par2=64
Channel Event. t= 10248 (117936) Note On ch=7 par1=67 par2=22
Channel Event. t= 480 (118416) Note On ch=7 par1=60 par2=70
Channel Event. t= 82 (118498) Note Off ch=7 par1=60 par2=64
Channel Event. t= 8 (118506) Note Off ch=7 par1=67 par2=64
Channel Event. t= 612 (119118) Note On ch=7 par1=91 par2=61
Channel Event. t= 8 (119126) Note On ch=7 par1=88 par2=46
Channel Event. t= 10 (119136) Note On ch=7 par1=84 par2=57
Channel Event. t= 0 (119136) Note On ch=7 par1=79 par2=65
Channel Event. t= 37 (119173) Note Off ch=7 par1=84 par2=64
Channel Event. t= 28 (119201) Note Off ch=7 par1=79 par2=64
Channel Event. t= 247 (119448) Note Off ch=7 par1=91 par2=64
Channel Event. t= 65 (119513) Note Off ch=7 par1=88 par2=64
Channel Event. t= 100 (119613) Note On ch=7 par1=87 par2=79
Channel Event. t= 3 (119616) Note On ch=7 par1=91 par2=65
Channel Event. t= 0 (119616) Note On ch=7 par1=83 par2=67
Channel Event. t= 0 (119616) Note On ch=7 par1=78 par2=67
Channel Event. t= 785 (120401) Note Off ch=7 par1=78 par2=64
Channel Event. t= 2 (120403) Note Off ch=7 par1=83 par2=64
Channel Event. t= 35 (120438) Note Off ch=7 par1=87 par2=64
Channel Event. t= 13 (120451) Note Off ch=7 par1=91 par2=64
Channel Event. t= 570 (121021) Note On ch=7 par1=91 par2=54
Channel Event. t= 5 (121026) Note On ch=7 par1=88 par2=46
Channel Event. t= 30 (121056) Note On ch=7 par1=84 par2=42
Channel Event. t= 0 (121056) Note On ch=7 par1=79 par2=50
Channel Event. t= 50 (121106) Note Off ch=7 par1=88 par2=64
Channel Event. t= 10 (121116) Note Off ch=7 par1=91 par2=64
Channel Event. t= 2 (121118) Note Off ch=7 par1=79 par2=64
Channel Event. t= 8 (121126) Note Off ch=7 par1=84 par2=64
Channel Event. t= 360 (121486) Note On ch=7 par1=91 par2=66
Channel Event. t= 5 (121491) Note On ch=7 par1=87 par2=72
Channel Event. t= 45 (121536) Note On ch=7 par1=78 par2=62
Channel Event. t= 0 (121536) Note On ch=7 par1=83 par2=56
Channel Event. t= 787 (122323) Note Off ch=7 par1=78 par2=64
Channel Event. t= 3 (122326) Note Off ch=7 par1=83 par2=64
Channel Event. t= 40 (122366) Note Off ch=7 par1=91 par2=64
Channel Event. t= 5 (122371) Note Off ch=7 par1=87 par2=64
Channel Event. t= 575 (122946) Note On ch=7 par1=91 par2=47
Channel Event. t= 0 (122946) Note On ch=7 par1=88 par2=44
Channel Event. t= 30 (122976) Note On ch=7 par1=84 par2=41
Channel Event. t= 0 (122976) Note On ch=7 par1=79 par2=53
Channel Event. t= 210 (123186) Note Off ch=7 par1=84 par2=64
Channel Event. t= 10 (123196) Note Off ch=7 par1=79 par2=64
Channel Event. t= 67 (123263) Note Off ch=7 par1=88 par2=64
Channel Event. t= 3 (123266) Note Off ch=7 par1=91 par2=64
Channel Event. t= 607 (123873) Note On ch=7 par1=91 par2=53
Channel Event. t= 0 (123873) Note On ch=7 par1=87 par2=67
Channel Event. t= 63 (123936) Note On ch=7 par1=79 par2=46
Channel Event. t= 0 (123936) Note On ch=7 par1=83 par2=36
Channel Event. t= 215 (124151) Note Off ch=7 par1=79 par2=64
Channel Event. t= 12 (124163) Note Off ch=7 par1=83 par2=64
Channel Event. t= 3 (124166) Note Off ch=7 par1=87 par2=64
Channel Event. t= 2 (124168) Note Off ch=7 par1=91 par2=64
Channel Event. t= 638 (124806) Note On ch=7 par1=91 par2=49
Channel Event. t= 5 (124811) Note On ch=7 par1=88 par2=51
Channel Event. t= 85 (124896) Note On ch=7 par1=84 par2=32
Channel Event. t= 0 (124896) Note On ch=7 par1=79 par2=48
Channel Event. t= 155 (125051) Note Off ch=7 par1=88 par2=64
Channel Event. t= 2 (125053) Note Off ch=7 par1=84 par2=64
Channel Event. t= 5 (125058) Note Off ch=7 par1=91 par2=64
Channel Event. t= 3 (125061) Note Off ch=7 par1=79 par2=64
Channel Event. t= 745 (125806) Note On ch=7 par1=87 par2=55
Channel Event. t= 37 (125843) Note On ch=7 par1=91 par2=29
Channel Event. t= 5 (125848) Note On ch=7 par1=93 par2=24
Channel Event. t= 8 (125856) Note On ch=7 par1=79 par2=46
Channel Event. t= 0 (125856) Note On ch=7 par1=83 par2=43
Channel Event. t= 192 (126048) Note Off ch=7 par1=93 par2=64
Channel Event. t= 23 (126071) Note Off ch=7 par1=79 par2=64
Channel Event. t= 7 (126078) Note Off ch=7 par1=83 par2=64
Channel Event. t= 98 (126176) Note Off ch=7 par1=87 par2=64
Channel Event. t= 17 (126193) Note Off ch=7 par1=91 par2=64
Channel Event. t= 568 (126761) Note On ch=7 par1=91 par2=58
Channel Event. t= 5 (126766) Note On ch=7 par1=88 par2=52
Channel Event. t= 50 (126816) Note On ch=7 par1=83 par2=53
Channel Event. t= 177 (126993) Note Off ch=7 par1=88 par2=64
Channel Event. t= 10 (127003) Note Off ch=7 par1=91 par2=64
Channel Event. t= 103 (127106) Note Off ch=7 par1=83 par2=64
Channel Event. t= 625 (127731) Note On ch=7 par1=91 par2=31
Channel Event. t= 7 (127738) Note On ch=7 par1=88 par2=20
Channel Event. t= 38 (127776) Note On ch=7 par1=83 par2=36
Channel Event. t= 237 (128013) Note Off ch=7 par1=88 par2=64
Channel Event. t= 8 (128021) Note Off ch=7 par1=91 par2=64
Channel Event. t= 65 (128086) Note Off ch=7 par1=83 par2=64
Channel Event. t= 595 (128681) Note On ch=7 par1=91 par2=25
Channel Event. t= 20 (128701) Note On ch=7 par1=88 par2=21
Channel Event. t= 35 (128736) Note On ch=7 par1=83 par2=33
Channel Event. t= 152 (128888) Note Off ch=7 par1=88 par2=64
Channel Event. t= 18 (128906) Note Off ch=7 par1=91 par2=64
Channel Event. t= 110 (129016) Note Off ch=7 par1=83 par2=64
Channel Event. t= 645 (129661) Note On ch=7 par1=91 par2=25
Channel Event. t= 22 (129683) Note On ch=7 par1=88 par2=20
Channel Event. t= 13 (129696) Note On ch=7 par1=83 par2=41
Channel Event. t= 220 (129916) Note Off ch=7 par1=88 par2=64
Channel Event. t= 12 (129928) Note Off ch=7 par1=91 par2=64
Channel Event. t= 40 (129968) Note Off ch=7 par1=83 par2=64
Channel Event. t= 688 (130656) Note On ch=7 par1=83 par2=36
Channel Event. t= 155 (130811) Note Off ch=7 par1=83 par2=64
Channel Event. t= 805 (131616) Note On ch=7 par1=83 par2=35
Channel Event. t= 172 (131788) Note Off ch=7 par1=83 par2=64
Channel Event. t= 0 (131788) 
Meta Event. Type: 0x2f (47dec), End of Track (0 bytes): 
track #54
track size: 3339
Channel Event. t= 0 (0) 
Meta Event. Type: 0x3 (3dec), Sequence/Track Name (20 bytes): Flute               
Channel Event. t= 0 (0) 
Meta Event. Type: 0x21 (33dec), MIDI Port (1 bytes): 0
Channel Event. t= 0 (0) 
Meta Event. Type: 0x20 (32dec), MIDI Channel Prefix (1 bytes): 1
Channel Event. t= 0 (0) Controller ch=1 par1=10 (Pan) par2=64
Channel Event. t= 0 (0) Controller ch=1 par1=91 (Effects 2 Depth (formerly Tremolo Depth)) par2=127
Channel Event. t= 0 (0) Program Change ch=1 par1=72 par2=-81
Channel Event. t= 5602 (5602) Controller ch=1 par1=7 (Main Volume) par2=90
Channel Event. t= 420 (6022) Note On ch=1 par1=60 par2=51
Channel Event. t= 30 (6052) Note On ch=1 par1=64 par2=67
Channel Event. t= 30 (6082) Note On ch=1 par1=67 par2=54
Channel Event. t= 30 (6112) Note On ch=1 par1=72 par2=59
Channel Event. t= 25 (6137) Note Off ch=1 par1=60 par2=64
Channel Event. t= 30 (6167) Note Off ch=1 par1=64 par2=64
Channel Event. t= 17 (6184) Note Off ch=1 par1=67 par2=64
Channel Event. t= 3 (6187) Note Off ch=1 par1=72 par2=64
Channel Event. t= 315 (6502) Note On ch=1 par1=71 par2=64
Channel Event. t= 30 (6532) Note On ch=1 par1=75 par2=64
Channel Event. t= 30 (6562) Note On ch=1 par1=78 par2=52
Channel Event. t= 20 (6582) Note Off ch=1 par1=71 par2=64
Channel Event. t= 10 (6592) Note On ch=1 par1=83 par2=78
Channel Event. t= 15 (6607) Note Off ch=1 par1=78 par2=64
Channel Event. t= 5 (6612) Note Off ch=1 par1=75 par2=64
Channel Event. t= 75 (6687) Note Off ch=1 par1=83 par2=64
Channel Event. t= 295 (6982) Note On ch=1 par1=66 par2=80
Channel Event. t= 30 (7012) Note On ch=1 par1=71 par2=59
Channel Event. t= 30 (7042) Note On ch=1 par1=75 par2=71
Channel Event. t= 30 (7072) Note On ch=1 par1=78 par2=80
Channel Event. t= 40 (7112) Note Off ch=1 par1=71 par2=64
Channel Event. t= 22 (7134) Note Off ch=1 par1=66 par2=64
Channel Event. t= 3 (7137) Note Off ch=1 par1=75 par2=64
Channel Event. t= 37 (7174) Note Off ch=1 par1=78 par2=64
Channel Event. t= 293 (7467) Note On ch=1 par1=79 par2=64
Channel Event. t= 32 (7499) Note On ch=1 par1=84 par2=56
Channel Event. t= 25 (7524) Note On ch=1 par1=88 par2=41
Channel Event. t= 23 (7547) Note Off ch=1 par1=79 par2=64
Channel Event. t= 5 (7552) Note On ch=1 par1=91 par2=76
Channel Event. t= 17 (7569) Note Off ch=1 par1=84 par2=64
Channel Event. t= 18 (7587) Note Off ch=1 par1=88 par2=64
Channel Event. t= 32 (7619) Note Off ch=1 par1=91 par2=64
Channel Event. t= 348 (7967) Note On ch=1 par1=72 par2=58
Channel Event. t= 32 (7999) Note On ch=1 par1=76 par2=63
Channel Event. t= 30 (8029) Note On ch=1 par1=79 par2=73
Channel Event. t= 3 (8032) Note On ch=1 par1=84 par2=64
Channel Event. t= 45 (8077) Note Off ch=1 par1=72 par2=64
Channel Event. t= 27 (8104) Note Off ch=1 par1=76 par2=64
Channel Event. t= 8 (8112) Note Off ch=1 par1=84 par2=64
Channel Event. t= 25 (8137) Note Off ch=1 par1=79 par2=64
Channel Event. t= 255 (8392) Note On ch=1 par1=71 par2=61
Channel Event. t= 30 (8422) Note On ch=1 par1=75 par2=74
Channel Event. t= 57 (8479) Note Off ch=1 par1=71 par2=64
Channel Event. t= 3 (8482) Note On ch=1 par1=78 par2=75
Channel Event. t= 30 (8512) Note Off ch=1 par1=75 par2=64
Channel Event. t= 0 (8512) Note On ch=1 par1=83 par2=70
Channel Event. t= 55 (8567) Note Off ch=1 par1=78 par2=64
Channel Event. t= 22 (8589) Note Off ch=1 par1=83 par2=64
Channel Event. t= 283 (8872) Note On ch=1 par1=66 par2=64
Channel Event. t= 30 (8902) Note On ch=1 par1=71 par2=64
Channel Event. t= 50 (8952) Note Off ch=1 par1=66 par2=64
Channel Event. t= 10 (8962) Note On ch=1 par1=75 par2=64
Channel Event. t= 20 (8982) Note Off ch=1 par1=71 par2=64
Channel Event. t= 37 (9019) Note On ch=1 par1=78 par2=64
Channel Event. t= 23 (9042) Note Off ch=1 par1=75 par2=64
Channel Event. t= 57 (9099) Note Off ch=1 par1=78 par2=64
Channel Event. t= 343 (9442) Note On ch=1 par1=67 par2=54
Channel Event. t= 30 (9472) Note On ch=1 par1=72 par2=61
Channel Event. t= 30 (9502) Note On ch=1 par1=79 par2=75
Channel Event. t= 0 (9502) Note On ch=1 par1=76 par2=68
Channel Event. t= 40 (9542) Note Off ch=1 par1=67 par2=64
Channel Event. t= 45 (9587) Note Off ch=1 par1=72 par2=64
Channel Event. t= 15 (9602) Note Off ch=1 par1=79 par2=64
Channel Event. t= 0 (9602) Note Off ch=1 par1=76 par2=64
Channel Event. t= 320 (9922) Note On ch=1 par1=64 par2=30
Channel Event. t= 30 (9952) Note On ch=1 par1=67 par2=54
Channel Event. t= 30 (9982) Note On ch=1 par1=72 par2=46
Channel Event. t= 10 (9992) Note Off ch=1 par1=64 par2=64
Channel Event. t= 55 (10047) Note Off ch=1 par1=67 par2=64
Channel Event. t= 2 (10049) Note Off ch=1 par1=72 par2=64
Channel Event. t= 323 (10372) Note On ch=1 par1=71 par2=56
Channel Event. t= 30 (10402) Note On ch=1 par1=75 par2=71
Channel Event. t= 30 (10432) Note On ch=1 par1=78 par2=77
Channel Event. t= 30 (10462) Note Off ch=1 par1=71 par2=64
Channel Event. t= 0 (10462) Note On ch=1 par1=83 par2=78
Channel Event. t= 30 (10492) Note Off ch=1 par1=75 par2=64
Channel Event. t= 22 (10514) Note Off ch=1 par1=78 par2=64
Channel Event. t= 33 (10547) Note Off ch=1 par1=83 par2=64
Channel Event. t= 305 (10852) Note On ch=1 par1=66 par2=51
Channel Event. t= 30 (10882) Note On ch=1 par1=71 par2=62
Channel Event. t= 30 (10912) Note On ch=1 par1=75 par2=64
Channel Event. t= 30 (10942) Note On ch=1 par1=78 par2=68
Channel Event. t= 12 (10954) Note Off ch=1 par1=66 par2=64
Channel Event. t= 33 (10987) Note Off ch=1 par1=71 par2=64
Channel Event. t= 2 (10989) Note Off ch=1 par1=75 par2=64
Channel Event. t= 30 (11019) Note Off ch=1 par1=78 par2=64
Channel Event. t= 313 (11332) Note On ch=1 par1=79 par2=48
Channel Event. t= 30 (11362) Note On ch=1 par1=84 par2=71
Channel Event. t= 30 (11392) Note On ch=1 par1=88 par2=61
Channel Event. t= 30 (11422) Note On ch=1 par1=91 par2=71
Channel Event. t= 10 (11432) Note Off ch=1 par1=79 par2=64
Channel Event. t= 30 (11462) Note Off ch=1 par1=84 par2=64
Channel Event. t= 7 (11469) Note Off ch=1 par1=88 par2=64
Channel Event. t= 3 (11472) Note Off ch=1 par1=91 par2=64
Channel Event. t= 310 (11782) Note On ch=1 par1=72 par2=45
Channel Event. t= 60 (11842) Note On ch=1 par1=76 par2=61
Channel Event. t= 0 (11842) Note On ch=1 par1=79 par2=61
Channel Event. t= 30 (11872) Note On ch=1 par1=84 par2=72
Channel Event. t= 20 (11892) Note Off ch=1 par1=72 par2=64
Channel Event. t= 35 (11927) Note Off ch=1 par1=84 par2=64
Channel Event. t= 5 (11932) Note Off ch=1 par1=79 par2=64
Channel Event. t= 12 (11944) Note Off ch=1 par1=76 par2=64
Channel Event. t= 318 (12262) Note On ch=1 par1=71 par2=55
Channel Event. t= 30 (12292) Note On ch=1 par1=75 par2=73
Channel Event. t= 30 (12322) Note On ch=1 par1=83 par2=80
Channel Event. t= 0 (12322) Note On ch=1 par1=78 par2=77
Channel Event. t= 37 (12359) Note Off ch=1 par1=71 par2=64
Channel Event. t= 35 (12394) Note Off ch=1 par1=75 par2=64
Channel Event. t= 13 (12407) Note Off ch=1 par1=83 par2=64
Channel Event. t= 12 (12419) Note Off ch=1 par1=78 par2=64
Channel Event. t= 323 (12742) Note On ch=1 par1=66 par2=51
Channel Event. t= 60 (12802) Note On ch=1 par1=71 par2=61
Channel Event. t= 30 (12832) Note On ch=1 par1=75 par2=70
Channel Event. t= 0 (12832) Note On ch=1 par1=78 par2=71
Channel Event. t= 22 (12854) Note Off ch=1 par1=66 par2=64
Channel Event. t= 35 (12889) Note Off ch=1 par1=78 par2=64
Channel Event. t= 5 (12894) Note Off ch=1 par1=71 par2=64
Channel Event. t= 8 (12902) Note Off ch=1 par1=75 par2=64
Channel Event. t= 710 (13612) Note On ch=1 par1=64 par2=70
Channel Event. t= 60 (13672) Note On ch=1 par1=67 par2=68
Channel Event. t= 60 (13732) Note On ch=1 par1=72 par2=76
Channel Event. t= 17 (13749) Note Off ch=1 par1=64 par2=64
Channel Event. t= 43 (13792) Note On ch=1 par1=76 par2=67
Channel Event. t= 15 (13807) Note Off ch=1 par1=67 par2=64
Channel Event. t= 45 (13852) Note Off ch=1 par1=72 par2=64
Channel Event. t= 37 (13889) Note Off ch=1 par1=76 par2=64
Channel Event. t= 1763 (15652) Note On ch=1 par1=67 par2=45
Channel Event. t= 30 (15682) Note On ch=1 par1=72 par2=72
Channel Event. t= 30 (15712) Note On ch=1 par1=76 par2=61
Channel Event. t= 27 (15739) Note Off ch=1 par1=67 par2=64
Channel Event. t= 10 (15749) Note On ch=1 par1=79 par2=76
Channel Event. t= 15 (15764) Note Off ch=1 par1=72 par2=64
Channel Event. t= 10 (15774) Note Off ch=1 par1=76 par2=64
Channel Event. t= 35 (15809) Note Off ch=1 par1=79 par2=64
Channel Event. t= 32513 (48322) Note On ch=1 par1=67 par2=58
Channel Event. t= 30 (48352) Note On ch=1 par1=72 par2=58
Channel Event. t= 30 (48382) Note On ch=1 par1=76 par2=69
Channel Event. t= 30 (48412) Note On ch=1 par1=79 par2=74
Channel Event. t= 80 (48492) Note Off ch=1 par1=72 par2=64
Channel Event. t= 12 (48504) Note Off ch=1 par1=67 par2=64
Channel Event. t= 20 (48524) Note Off ch=1 par1=76 par2=64
Channel Event. t= 30 (48554) Note Off ch=1 par1=79 par2=64
Channel Event. t= 698 (49252) Note On ch=1 par1=67 par2=55
Channel Event. t= 60 (49312) Note On ch=1 par1=71 par2=70
Channel Event. t= 30 (49342) Note On ch=1 par1=75 par2=68
Channel Event. t= 30 (49372) Note On ch=1 par1=79 par2=69
Channel Event. t= 17 (49389) Note Off ch=1 par1=67 par2=64
Channel Event. t= 35 (49424) Note Off ch=1 par1=71 par2=64
Channel Event. t= 13 (49437) Note Off ch=1 par1=75 par2=64
Channel Event. t= 17 (49454) Note Off ch=1 par1=79 par2=64
Channel Event. t= 758 (50212) Note On ch=1 par1=67 par2=41
Channel Event. t= 30 (50242) Note On ch=1 par1=72 par2=66
Channel Event. t= 30 (50272) Note On ch=1 par1=79 par2=77
Channel Event. t= 0 (50272) Note On ch=1 par1=76 par2=69
Channel Event. t= 17 (50289) Note Off ch=1 par1=72 par2=64
Channel Event. t= 3 (50292) Note Off ch=1 par1=67 par2=64
Channel Event. t= 15 (50307) Note Off ch=1 par1=76 par2=64
Channel Event. t= 7 (50314) Note Off ch=1 par1=79 par2=64
Channel Event. t= 888 (51202) Note On ch=1 par1=67 par2=50
Channel Event. t= 30 (51232) Note On ch=1 par1=71 par2=69
Channel Event. t= 30 (51262) Note On ch=1 par1=75 par2=76
Channel Event. t= 30 (51292) Note On ch=1 par1=79 par2=63
Channel Event. t= 7 (51299) Note Off ch=1 par1=67 par2=64
Channel Event. t= 35 (51334) Note Off ch=1 par1=71 par2=64
Channel Event. t= 43 (51377) Note Off ch=1 par1=75 par2=64
Channel Event. t= 10 (51387) Note Off ch=1 par1=79 par2=64
Channel Event. t= 745 (52132) Note On ch=1 par1=67 par2=58
Channel Event. t= 60 (52192) Note On ch=1 par1=72 par2=68
Channel Event. t= 30 (52222) Note On ch=1 par1=76 par2=68
Channel Event. t= 17 (52239) Note Off ch=1 par1=67 par2=64
Channel Event. t= 13 (52252) Note On ch=1 par1=79 par2=66
Channel Event. t= 60 (52312) Note Off ch=1 par1=72 par2=64
Channel Event. t= 20 (52332) Note Off ch=1 par1=76 par2=64
Channel Event. t= 27 (52359) Note Off ch=1 par1=79 par2=64
Channel Event. t= 733 (53092) Note On ch=1 par1=67 par2=56
Channel Event. t= 30 (53122) Note On ch=1 par1=71 par2=69
Channel Event. t= 30 (53152) Note On ch=1 par1=75 par2=72
Channel Event. t= 50 (53202) Note Off ch=1 par1=67 par2=64
Channel Event. t= 10 (53212) Note On ch=1 par1=79 par2=64
Channel Event. t= 27 (53239) Note Off ch=1 par1=71 par2=64
Channel Event. t= 38 (53277) Note Off ch=1 par1=75 par2=64
Channel Event. t= 32 (53309) Note Off ch=1 par1=79 par2=64
Channel Event. t= 713 (54022) Note On ch=1 par1=67 par2=52
Channel Event. t= 30 (54052) Note On ch=1 par1=72 par2=66
Channel Event. t= 30 (54082) Note On ch=1 par1=76 par2=53
Channel Event. t= 30 (54112) Note On ch=1 par1=79 par2=64
Channel Event. t= 15 (54127) Note Off ch=1 par1=67 par2=64
Channel Event. t= 27 (54154) Note Off ch=1 par1=72 par2=64
Channel Event. t= 5 (54159) Note Off ch=1 par1=76 par2=64
Channel Event. t= 30 (54189) Note Off ch=1 par1=79 par2=64
Channel Event. t= 823 (55012) Note On ch=1 par1=71 par2=75
Channel Event. t= 0 (55012) Note On ch=1 par1=67 par2=55
Channel Event. t= 30 (55042) Note On ch=1 par1=75 par2=83
Channel Event. t= 30 (55072) Note On ch=1 par1=79 par2=63
Channel Event. t= 30 (55102) Note Off ch=1 par1=67 par2=64
Channel Event. t= 7 (55109) Note Off ch=1 par1=71 par2=64
Channel Event. t= 38 (55147) Note Off ch=1 par1=75 par2=64
Channel Event. t= 37 (55184) Note Off ch=1 par1=79 par2=64
Channel Event. t= 788 (55972) Note On ch=1 par1=79 par2=53
Channel Event. t= 30 (56002) Note On ch=1 par1=84 par2=68
Channel Event. t= 30 (56032) Note On ch=1 par1=88 par2=54
Channel Event. t= 30 (56062) Note On ch=1 par1=91 par2=65
Channel Event. t= 10 (56072) Note Off ch=1 par1=79 par2=64
Channel Event. t= 27 (56099) Note Off ch=1 par1=84 par2=64
Channel Event. t= 18 (56117) Note Off ch=1 par1=88 par2=64
Channel Event. t= 25 (56142) Note Off ch=1 par1=91 par2=64
Channel Event. t= 790 (56932) Note On ch=1 par1=79 par2=61
Channel Event. t= 60 (56992) Note On ch=1 par1=87 par2=85
Channel Event. t= 0 (56992) Note On ch=1 par1=83 par2=63
Channel Event. t= 37 (57029) Note Off ch=1 par1=79 par2=64
Channel Event. t= 40 (57069) Note Off ch=1 par1=87 par2=64
Channel Event. t= 5 (57074) Note Off ch=1 par1=83 par2=64
Channel Event. t= 788 (57862) Note On ch=1 par1=79 par2=52
Channel Event. t= 30 (57892) Note On ch=1 par1=84 par2=73
Channel Event. t= 60 (57952) Note On ch=1 par1=88 par2=63
Channel Event. t= 12 (57964) Note Off ch=1 par1=79 par2=64
Channel Event. t= 30 (57994) Note Off ch=1 par1=84 par2=64
Channel Event. t= 25 (58019) Note Off ch=1 par1=88 par2=64
Channel Event. t= 833 (58852) Note On ch=1 par1=79 par2=69
Channel Event. t= 30 (58882) Note On ch=1 par1=83 par2=74
Channel Event. t= 30 (58912) Note On ch=1 par1=87 par2=80
Channel Event. t= 30 (58942) Note Off ch=1 par1=79 par2=64
Channel Event. t= 20 (58962) Note Off ch=1 par1=83 par2=64
Channel Event. t= 22 (58984) Note Off ch=1 par1=87 par2=64
Channel Event. t= 798 (59782) Note On ch=1 par1=79 par2=60
Channel Event. t= 30 (59812) Note On ch=1 par1=84 par2=71
Channel Event. t= 60 (59872) Note On ch=1 par1=88 par2=68
Channel Event. t= 7 (59879) Note Off ch=1 par1=79 par2=64
Channel Event. t= 28 (59907) Note Off ch=1 par1=84 par2=64
Channel Event. t= 27 (59934) Note Off ch=1 par1=88 par2=64
Channel Event. t= 838 (60772) Note On ch=1 par1=79 par2=63
Channel Event. t= 30 (60802) Note On ch=1 par1=83 par2=73
Channel Event. t= 30 (60832) Note On ch=1 par1=87 par2=80
Channel Event. t= 27 (60859) Note Off ch=1 par1=79 par2=64
Channel Event. t= 33 (60892) Note Off ch=1 par1=83 par2=64
Channel Event. t= 15 (60907) Note Off ch=1 par1=87 par2=64
Channel Event. t= 825 (61732) Note On ch=1 par1=79 par2=57
Channel Event. t= 30 (61762) Note On ch=1 par1=84 par2=70
Channel Event. t= 30 (61792) Note On ch=1 par1=88 par2=68
Channel Event. t= 42 (61834) Note Off ch=1 par1=79 par2=64
Channel Event. t= 25 (61859) Note Off ch=1 par1=84 par2=64
Channel Event. t= 13 (61872) Note Off ch=1 par1=88 par2=64
Channel Event. t= 820 (62692) Note On ch=1 par1=79 par2=54
Channel Event. t= 30 (62722) Note On ch=1 par1=83 par2=64
Channel Event. t= 30 (62752) Note On ch=1 par1=87 par2=73
Channel Event. t= 35 (62787) Note Off ch=1 par1=79 par2=64
Channel Event. t= 20 (62807) Note Off ch=1 par1=83 par2=64
Channel Event. t= 15 (62822) Note Off ch=1 par1=87 par2=64
Channel Event. t= 830 (63652) Note On ch=1 par1=79 par2=55
Channel Event. t= 30 (63682) Note On ch=1 par1=84 par2=75
Channel Event. t= 30 (63712) Note On ch=1 par1=88 par2=60
Channel Event. t= 42 (63754) Note Off ch=1 par1=79 par2=64
Channel Event. t= 23 (63777) Note Off ch=1 par1=88 par2=64
Channel Event. t= 7 (63784) Note Off ch=1 par1=84 par2=64
Channel Event. t= 798 (64582) Note On ch=1 par1=79 par2=58
Channel Event. t= 30 (64612) Note On ch=1 par1=83 par2=63
Channel Event. t= 30 (64642) Note On ch=1 par1=87 par2=73
Channel Event. t= 32 (64674) Note Off ch=1 par1=79 par2=64
Channel Event. t= 23 (64697) Note Off ch=1 par1=83 par2=64
Channel Event. t= 10 (64707) Note Off ch=1 par1=87 par2=64
Channel Event. t= 445 (65152) Note On ch=1 par1=79 par2=79
Channel Event. t= 250 (65402) Note Off ch=1 par1=79 par2=64
Channel Event. t= 140 (65542) Note On ch=1 par1=79 par2=60
Channel Event. t= 30 (65572) Note On ch=1 par1=84 par2=72
Channel Event. t= 30 (65602) Note On ch=1 par1=88 par2=65
Channel Event. t= 42 (65644) Note Off ch=1 par1=79 par2=64
Channel Event. t= 38 (65682) Note Off ch=1 par1=84 par2=64
Channel Event. t= 10 (65692) Note Off ch=1 par1=88 par2=64
Channel Event. t= 420 (66112) Note On ch=1 par1=75 par2=80
Channel Event. t= 390 (66502) Note On ch=1 par1=79 par2=55
Channel Event. t= 30 (66532) Note On ch=1 par1=83 par2=69
Channel Event. t= 30 (66562) Note On ch=1 par1=87 par2=75
Channel Event. t= 12 (66574) Note Off ch=1 par1=75 par2=64
Channel Event. t= 28 (66602) Note Off ch=1 par1=79 par2=64
Channel Event. t= 32 (66634) Note Off ch=1 par1=83 par2=64
Channel Event. t= 23 (66657) Note Off ch=1 par1=87 par2=64
Channel Event. t= 415 (67072) Note On ch=1 par1=76 par2=79
Channel Event. t= 390 (67462) Note On ch=1 par1=79 par2=57
Channel Event. t= 60 (67522) Note On ch=1 par1=84 par2=74
Channel Event. t= 30 (67552) Note On ch=1 par1=88 par2=69
Channel Event. t= 5 (67557) Note Off ch=1 par1=79 par2=64
Channel Event. t= 52 (67609) Note Off ch=1 par1=84 par2=64
Channel Event. t= 5 (67614) Note Off ch=1 par1=88 par2=64
Channel Event. t= 18 (67632) Note Off ch=1 par1=76 par2=64
Channel Event. t= 400 (68032) Note On ch=1 par1=75 par2=78
Channel Event. t= 390 (68422) Note On ch=1 par1=79 par2=61
Channel Event. t= 60 (68482) Note On ch=1 par1=87 par2=73
Channel Event. t= 0 (68482) Note On ch=1 par1=83 par2=70
Channel Event. t= 42 (68524) Note Off ch=1 par1=79 par2=64
Channel Event. t= 10 (68534) Note Off ch=1 par1=75 par2=64
Channel Event. t= 48 (68582) Note Off ch=1 par1=87 par2=64
Channel Event. t= 5 (68587) Note Off ch=1 par1=83 par2=64
Channel Event. t= 405 (68992) Note On ch=1 par1=76 par2=74
Channel Event. t= 390 (69382) Note On ch=1 par1=79 par2=50
Channel Event. t= 30 (69412) Note On ch=1 par1=84 par2=79
Channel Event. t= 30 (69442) Note On ch=1 par1=88 par2=71
Channel Event. t= 45 (69487) Note Off ch=1 par1=79 par2=64
Channel Event. t= 25 (69512) Note Off ch=1 par1=76 par2=64
Channel Event. t= 15 (69527) Note Off ch=1 par1=84 par2=64
Channel Event. t= 7 (69534) Note Off ch=1 par1=88 par2=64
Channel Event. t= 418 (69952) Note On ch=1 par1=75 par2=82
Channel Event. t= 420 (70372) Note On ch=1 par1=79 par2=69
Channel Event. t= 30 (70402) Note On ch=1 par1=87 par2=74
Channel Event. t= 0 (70402) Note On ch=1 par1=83 par2=77
Channel Event. t= 67 (70469) Note Off ch=1 par1=79 par2=64
Channel Event. t= 23 (70492) Note Off ch=1 par1=87 par2=64
Channel Event. t= 5 (70497) Note Off ch=1 par1=83 par2=64
Channel Event. t= 50 (70547) Note Off ch=1 par1=75 par2=64
Channel Event. t= 365 (70912) Note On ch=1 par1=76 par2=77
Channel Event. t= 420 (71332) Note On ch=1 par1=79 par2=54
Channel Event. t= 30 (71362) Note On ch=1 par1=84 par2=73
Channel Event. t= 30 (71392) Note On ch=1 par1=88 par2=69
Channel Event. t= 35 (71427) Note Off ch=1 par1=79 par2=64
Channel Event. t= 17 (71444) Note Off ch=1 par1=84 par2=64
Channel Event. t= 0 (71444) Note Off ch=1 par1=88 par2=64
Channel Event. t= 5 (71449) Note Off ch=1 par1=76 par2=64
Channel Event. t= 423 (71872) Note On ch=1 par1=75 par2=87
Channel Event. t= 420 (72292) Note On ch=1 par1=79 par2=51
Channel Event. t= 30 (72322) Note On ch=1 par1=83 par2=78
Channel Event. t= 30 (72352) Note On ch=1 par1=87 par2=76
Channel Event. t= 42 (72394) Note Off ch=1 par1=79 par2=64
Channel Event. t= 3 (72397) Note Off ch=1 par1=83 par2=64
Channel Event. t= 27 (72424) Note Off ch=1 par1=87 par2=64
Channel Event. t= 23 (72447) Note Off ch=1 par1=75 par2=64
Channel Event. t= 17185 (89632) Note On ch=1 par1=83 par2=87
Channel Event. t= 480 (90112) Note On ch=1 par1=84 par2=77
Channel Event. t= 55 (90167) Note Off ch=1 par1=83 par2=64
Channel Event. t= 217 (90384) Note Off ch=1 par1=84 par2=64
Channel Event. t= 208 (90592) Note On ch=1 par1=86 par2=74
Channel Event. t= 125 (90717) Note Off ch=1 par1=86 par2=64
Channel Event. t= 355 (91072) Note On ch=1 par1=87 par2=108
Channel Event. t= 375 (91447) Note Off ch=1 par1=87 par2=64
Channel Event. t= 105 (91552) Note On ch=1 par1=83 par2=77
Channel Event. t= 480 (92032) Note On ch=1 par1=84 par2=86
Channel Event. t= 75 (92107) Note Off ch=1 par1=83 par2=64
Channel Event. t= 120 (92227) Note Off ch=1 par1=84 par2=64
Channel Event. t= 285 (92512) Note On ch=1 par1=86 par2=80
Channel Event. t= 142 (92654) Note Off ch=1 par1=86 par2=64
Channel Event. t= 338 (92992) Note On ch=1 par1=87 par2=101
Channel Event. t= 355 (93347) Note Off ch=1 par1=87 par2=64
Channel Event. t= 125 (93472) Note On ch=1 par1=83 par2=80
Channel Event. t= 425 (93897) Note Off ch=1 par1=83 par2=64
Channel Event. t= 55 (93952) Note On ch=1 par1=84 par2=103
Channel Event. t= 240 (94192) Note On ch=1 par1=87 par2=82
Channel Event. t= 2 (94194) Note Off ch=1 par1=84 par2=64
Channel Event. t= 220 (94414) Note Off ch=1 par1=87 par2=64
Channel Event. t= 18 (94432) Note On ch=1 par1=88 par2=87
Channel Event. t= 240 (94672) Note On ch=1 par1=91 par2=71
Channel Event. t= 30 (94702) Note Off ch=1 par1=88 par2=64
Channel Event. t= 210 (94912) Note Off ch=1 par1=91 par2=64
Channel Event. t= 0 (94912) Note On ch=1 par1=95 par2=94
Channel Event. t= 440 (95352) Note Off ch=1 par1=95 par2=64
Channel Event. t= 40 (95392) Note On ch=1 par1=94 par2=93
Channel Event. t= 240 (95632) Note On ch=1 par1=95 par2=80
Channel Event. t= 7 (95639) Note Off ch=1 par1=94 par2=64
Channel Event. t= 218 (95857) Note Off ch=1 par1=95 par2=64
Channel Event. t= 15 (95872) Note On ch=1 par1=96 par2=97
Channel Event. t= 172 (96044) Note Off ch=1 par1=96 par2=64
Channel Event. t= 68 (96112) Note On ch=1 par1=97 par2=54
Channel Event. t= 52 (96164) Note Off ch=1 par1=97 par2=64
Channel Event. t= 188 (96352) Note On ch=1 par1=100 par2=98
Channel Event. t= 155 (96507) Note Off ch=1 par1=100 par2=64
Channel Event. t= 325 (96832) Note On ch=1 par1=99 par2=100
Channel Event. t= 760 (97592) Note Off ch=1 par1=99 par2=64
Channel Event. t= 200 (97792) Note On ch=1 par1=96 par2=94
Channel Event. t= 272 (98064) Note Off ch=1 par1=96 par2=64
Channel Event. t= 208 (98272) Note On ch=1 par1=100 par2=82
Channel Event. t= 300 (98572) Note Off ch=1 par1=100 par2=64
Channel Event. t= 180 (98752) Note On ch=1 par1=99 par2=94
Channel Event. t= 170 (98922) Note Off ch=1 par1=99 par2=64
Channel Event. t= 70 (98992) Note On ch=1 par1=100 par2=84
Channel Event. t= 0 (98992) Note On ch=1 par1=99 par2=85
Channel Event. t= 107 (99099) Note Off ch=1 par1=100 par2=64
Channel Event. t= 125 (99224) Note Off ch=1 par1=99 par2=64
Channel Event. t= 8 (99232) Note On ch=1 par1=95 par2=87
Channel Event. t= 222 (99454) Note Off ch=1 par1=95 par2=64
Channel Event. t= 18 (99472) Note On ch=1 par1=90 par2=85
Channel Event. t= 220 (99692) Note Off ch=1 par1=90 par2=64
Channel Event. t= 20 (99712) Note On ch=1 par1=91 par2=93
Channel Event. t= 217 (99929) Note Off ch=1 par1=91 par2=64
Channel Event. t= 263 (100192) Note On ch=1 par1=96 par2=95
Channel Event. t= 285 (100477) Note Off ch=1 par1=96 par2=64
Channel Event. t= 195 (100672) Note On ch=1 par1=95 par2=94
Channel Event. t= 200 (100872) Note Off ch=1 par1=95 par2=64
Channel Event. t= 40 (100912) Note On ch=1 par1=96 par2=89
Channel Event. t= 0 (100912) Note On ch=1 par1=95 par2=74
Channel Event. t= 192 (101104) Note Off ch=1 par1=96 par2=64
Channel Event. t= 48 (101152) Note On ch=1 par1=90 par2=69
Channel Event. t= 30 (101182) Note Off ch=1 par1=95 par2=64
Channel Event. t= 200 (101382) Note Off ch=1 par1=90 par2=64
Channel Event. t= 10 (101392) Note On ch=1 par1=87 par2=85
Channel Event. t= 240 (101632) Note On ch=1 par1=88 par2=90
Channel Event. t= 180 (101812) Note Off ch=1 par1=87 par2=64
Channel Event. t= 50 (101862) Note Off ch=1 par1=88 par2=64
Channel Event. t= 250 (102112) Note On ch=1 par1=91 par2=85
Channel Event. t= 167 (102279) Note Off ch=1 par1=91 par2=64
Channel Event. t= 313 (102592) Note On ch=1 par1=90 par2=104
Channel Event. t= 440 (103032) Note Off ch=1 par1=90 par2=64
Channel Event. t= 40 (103072) Note On ch=1 par1=86 par2=78
Channel Event. t= 230 (103302) Note Off ch=1 par1=86 par2=64
Channel Event. t= 10 (103312) Note On ch=1 par1=87 par2=70
Channel Event. t= 240 (103552) Note On ch=1 par1=88 par2=70
Channel Event. t= 2 (103554) Note Off ch=1 par1=87 par2=64
Channel Event. t= 198 (103752) Note Off ch=1 par1=88 par2=64
Channel Event. t= 280 (104032) Note On ch=1 par1=91 par2=66
Channel Event. t= 172 (104204) Note Off ch=1 par1=91 par2=64
Channel Event. t= 308 (104512) Note On ch=1 par1=90 par2=101
Channel Event. t= 435 (104947) Note Off ch=1 par1=90 par2=64
Channel Event. t= 45 (104992) Note On ch=1 par1=86 par2=92
Channel Event. t= 240 (105232) Note On ch=1 par1=87 par2=80
Channel Event. t= 17 (105249) Note Off ch=1 par1=86 par2=64
Channel Event. t= 223 (105472) Note On ch=1 par1=88 par2=82
Channel Event. t= 17 (105489) Note Off ch=1 par1=87 par2=64
Channel Event. t= 193 (105682) Note Off ch=1 par1=88 par2=64
Channel Event. t= 270 (105952) Note On ch=1 par1=91 par2=86
Channel Event. t= 222 (106174) Note Off ch=1 par1=91 par2=64
Channel Event. t= 258 (106432) Note On ch=1 par1=90 par2=92
Channel Event. t= 717 (107149) Note Off ch=1 par1=90 par2=64
Channel Event. t= 243 (107392) Note On ch=1 par1=83 par2=87
Channel Event. t= 960 (108352) Note Off ch=1 par1=83 par2=64
Channel Event. t= 0 (108352) Note On ch=1 par1=95 par2=79
Channel Event. t= 2300 (110652) Note Off ch=1 par1=95 par2=64
Channel Event. t= 100 (110752) Note On ch=1 par1=95 par2=55
Channel Event. t= 480 (111232) Note On ch=1 par1=96 par2=50
Channel Event. t= 30 (111262) Note Off ch=1 par1=95 par2=64
Channel Event. t= 1890 (113152) Note Off ch=1 par1=96 par2=64
Channel Event. t= 59520 (172672) Controller ch=1 par1=10 (Pan) par2=1
Channel Event. t= 0 (172672) Note On ch=1 par1=73 par2=87
Channel Event. t= 60 (172732) Controller ch=1 par1=10 (Pan) par2=2
Channel Event. t= 20 (172752) Note On ch=1 par1=77 par2=54
Channel Event. t= 30 (172782) Note Off ch=1 par1=73 par2=64
Channel Event. t= 10 (172792) Controller ch=1 par1=10 (Pan) par2=4
Channel Event. t= 40 (172832) Note On ch=1 par1=80 par2=68
Channel Event. t= 20 (172852) Controller ch=1 par1=10 (Pan) par2=6
Channel Event. t= 5 (172857) Note Off ch=1 par1=77 par2=64
Channel Event. t= 55 (172912) Controller ch=1 par1=10 (Pan) par2=8
Channel Event. t= 0 (172912) Note On ch=1 par1=85 par2=56
Channel Event. t= 20 (172932) Note Off ch=1 par1=80 par2=64
Channel Event. t= 40 (172972) Controller ch=1 par1=10 (Pan) par2=10
Channel Event. t= 20 (172992) Note Off ch=1 par1=85 par2=64
Channel Event. t= 40 (173032) Controller ch=1 par1=10 (Pan) par2=12
Channel Event. t= 60 (173092) Controller ch=1 par1=10 (Pan) par2=14
Channel Event. t= 60 (173152) Controller ch=1 par1=10 (Pan) par2=15
Channel Event. t= 0 (173152) Note On ch=1 par1=75 par2=77
Channel Event. t= 57 (173209) Note Off ch=1 par1=75 par2=64
Channel Event. t= 3 (173212) Controller ch=1 par1=10 (Pan) par2=17
Channel Event. t= 60 (173272) Controller ch=1 par1=10 (Pan) par2=19
Channel Event. t= 60 (173332) Controller ch=1 par1=10 (Pan) par2=21
Channel Event. t= 60 (173392) Controller ch=1 par1=10 (Pan) par2=23
Channel Event. t= 0 (173392) Note On ch=1 par1=87 par2=66
Channel Event. t= 35 (173427) Note Off ch=1 par1=87 par2=64
Channel Event. t= 25 (173452) Controller ch=1 par1=10 (Pan) par2=25
Channel Event. t= 60 (173512) Controller ch=1 par1=10 (Pan) par2=27
Channel Event. t= 60 (173572) Controller ch=1 par1=10 (Pan) par2=28
Channel Event. t= 60 (173632) Controller ch=1 par1=10 (Pan) par2=30
Channel Event. t= 0 (173632) Note On ch=1 par1=76 par2=97
Channel Event. t= 60 (173692) Controller ch=1 par1=10 (Pan) par2=32
Channel Event. t= 17 (173709) Note Off ch=1 par1=76 par2=64
Channel Event. t= 3 (173712) Note On ch=1 par1=79 par2=51
Channel Event. t= 40 (173752) Controller ch=1 par1=10 (Pan) par2=34
Channel Event. t= 40 (173792) Note On ch=1 par1=84 par2=53
Channel Event. t= 15 (173807) Note Off ch=1 par1=79 par2=64
Channel Event. t= 5 (173812) Controller ch=1 par1=10 (Pan) par2=36
Channel Event. t= 25 (173837) Note Off ch=1 par1=84 par2=64
Channel Event. t= 35 (173872) Controller ch=1 par1=10 (Pan) par2=38
Channel Event. t= 0 (173872) Note On ch=1 par1=88 par2=71
Channel Event. t= 60 (173932) Controller ch=1 par1=10 (Pan) par2=40
Channel Event. t= 32 (173964) Note Off ch=1 par1=88 par2=64
Channel Event. t= 28 (173992) Controller ch=1 par1=10 (Pan) par2=41
Channel Event. t= 60 (174052) Controller ch=1 par1=10 (Pan) par2=43
Channel Event. t= 60 (174112) Controller ch=1 par1=10 (Pan) par2=45
Channel Event. t= 0 (174112) Note On ch=1 par1=72 par2=81
Channel Event. t= 60 (174172) Controller ch=1 par1=10 (Pan) par2=47
Channel Event. t= 5 (174177) Note Off ch=1 par1=72 par2=64
Channel Event. t= 55 (174232) Controller ch=1 par1=10 (Pan) par2=49
Channel Event. t= 60 (174292) Controller ch=1 par1=10 (Pan) par2=51
Channel Event. t= 60 (174352) Controller ch=1 par1=10 (Pan) par2=53
Channel Event. t= 0 (174352) Note On ch=1 par1=84 par2=87
Channel Event. t= 60 (174412) Controller ch=1 par1=10 (Pan) par2=54
Channel Event. t= 5 (174417) Note Off ch=1 par1=84 par2=64
Channel Event. t= 55 (174472) Controller ch=1 par1=10 (Pan) par2=56
Channel Event. t= 60 (174532) Controller ch=1 par1=10 (Pan) par2=58
Channel Event. t= 60 (174592) Controller ch=1 par1=10 (Pan) par2=60
Channel Event. t= 0 (174592) Note On ch=1 par1=73 par2=102
Channel Event. t= 60 (174652) Controller ch=1 par1=10 (Pan) par2=62
Channel Event. t= 17 (174669) Note Off ch=1 par1=73 par2=64
Channel Event. t= 3 (174672) Note On ch=1 par1=77 par2=71
Channel Event. t= 40 (174712) Controller ch=1 par1=10 (Pan) par2=64
Channel Event. t= 40 (174752) Note On ch=1 par1=80 par2=74
Channel Event. t= 12 (174764) Note Off ch=1 par1=77 par2=64
Channel Event. t= 8 (174772) Controller ch=1 par1=10 (Pan) par2=66
Channel Event. t= 57 (174829) Note Off ch=1 par1=80 par2=64
Channel Event. t= 3 (174832) Controller ch=1 par1=10 (Pan) par2=67
Channel Event. t= 0 (174832) Note On ch=1 par1=85 par2=78
Channel Event. t= 60 (174892) Controller ch=1 par1=10 (Pan) par2=69
Channel Event. t= 15 (174907) Note Off ch=1 par1=85 par2=64
Channel Event. t= 45 (174952) Controller ch=1 par1=10 (Pan) par2=71
Channel Event. t= 60 (175012) Controller ch=1 par1=10 (Pan) par2=73
Channel Event. t= 60 (175072) Controller ch=1 par1=10 (Pan) par2=75
Channel Event. t= 0 (175072) Note On ch=1 par1=77 par2=89
Channel Event. t= 60 (175132) Controller ch=1 par1=10 (Pan) par2=77
Channel Event. t= 30 (175162) Note Off ch=1 par1=77 par2=64
Channel Event. t= 30 (175192) Controller ch=1 par1=10 (Pan) par2=79
Channel Event. t= 60 (175252) Controller ch=1 par1=10 (Pan) par2=81
Channel Event. t= 60 (175312) Controller ch=1 par1=10 (Pan) par2=82
Channel Event. t= 0 (175312) Note On ch=1 par1=80 par2=91
Channel Event. t= 52 (175364) Note Off ch=1 par1=80 par2=64
Channel Event. t= 8 (175372) Controller ch=1 par1=10 (Pan) par2=84
Channel Event. t= 60 (175432) Controller ch=1 par1=10 (Pan) par2=86
Channel Event. t= 60 (175492) Controller ch=1 par1=10 (Pan) par2=88
Channel Event. t= 60 (175552) Controller ch=1 par1=10 (Pan) par2=90
Channel Event. t= 0 (175552) Note On ch=1 par1=84 par2=74
Channel Event. t= 60 (175612) Controller ch=1 par1=10 (Pan) par2=92
Channel Event. t= 20 (175632) Note On ch=1 par1=79 par2=67
Channel Event. t= 22 (175654) Note Off ch=1 par1=84 par2=64
Channel Event. t= 18 (175672) Controller ch=1 par1=10 (Pan) par2=94
Channel Event. t= 40 (175712) Note On ch=1 par1=76 par2=74
Channel Event. t= 15 (175727) Note Off ch=1 par1=79 par2=64
Channel Event. t= 5 (175732) Controller ch=1 par1=10 (Pan) par2=95
Channel Event. t= 60 (175792) Note Off ch=1 par1=76 par2=64
Channel Event. t= 0 (175792) Controller ch=1 par1=10 (Pan) par2=97
Channel Event. t= 0 (175792) Note On ch=1 par1=72 par2=97
Channel Event. t= 60 (175852) Controller ch=1 par1=10 (Pan) par2=99
Channel Event. t= 5 (175857) Note Off ch=1 par1=72 par2=64
Channel Event. t= 55 (175912) Controller ch=1 par1=10 (Pan) par2=101
Channel Event. t= 60 (175972) Controller ch=1 par1=10 (Pan) par2=103
Channel Event. t= 60 (176032) Controller ch=1 par1=10 (Pan) par2=105
Channel Event. t= 0 (176032) Note On ch=1 par1=83 par2=78
Channel Event. t= 60 (176092) Controller ch=1 par1=10 (Pan) par2=107
Channel Event. t= 7 (176099) Note Off ch=1 par1=83 par2=64
Channel Event. t= 53 (176152) Controller ch=1 par1=10 (Pan) par2=108
Channel Event. t= 60 (176212) Controller ch=1 par1=10 (Pan) par2=110
Channel Event. t= 60 (176272) Controller ch=1 par1=10 (Pan) par2=112
Channel Event. t= 0 (176272) Note On ch=1 par1=84 par2=74
Channel Event. t= 52 (176324) Note Off ch=1 par1=84 par2=64
Channel Event. t= 8 (176332) Controller ch=1 par1=10 (Pan) par2=114
Channel Event. t= 60 (176392) Controller ch=1 par1=10 (Pan) par2=116
Channel Event. t= 60 (176452) Controller ch=1 par1=10 (Pan) par2=118
Channel Event. t= 57 (176509) Controller ch=1 par1=10 (Pan) par2=120
Channel Event. t= 3 (176512) Controller ch=1 par1=10 (Pan) par2=119
Channel Event. t= 0 (176512) Note On ch=1 par1=85 par2=83
Channel Event. t= 60 (176572) Controller ch=1 par1=10 (Pan) par2=118
Channel Event. t= 20 (176592) Note On ch=1 par1=80 par2=87
Channel Event. t= 15 (176607) Note Off ch=1 par1=85 par2=64
Channel Event. t= 25 (176632) Controller ch=1 par1=10 (Pan) par2=116
Channel Event. t= 40 (176672) Note On ch=1 par1=77 par2=72
Channel Event. t= 20 (176692) Controller ch=1 par1=10 (Pan) par2=114
Channel Event. t= 2 (176694) Note Off ch=1 par1=80 par2=64
Channel Event. t= 58 (176752) Controller ch=1 par1=10 (Pan) par2=112
Channel Event. t= 0 (176752) Note On ch=1 par1=73 par2=91
Channel Event. t= 5 (176757) Note Off ch=1 par1=77 par2=64
Channel Event. t= 55 (176812) Controller ch=1 par1=10 (Pan) par2=110
Channel Event. t= 10 (176822) Note Off ch=1 par1=73 par2=64
Channel Event. t= 50 (176872) Controller ch=1 par1=10 (Pan) par2=108
Channel Event. t= 60 (176932) Controller ch=1 par1=10 (Pan) par2=106
Channel Event. t= 60 (176992) Controller ch=1 par1=10 (Pan) par2=105
Channel Event. t= 0 (176992) Note On ch=1 par1=89 par2=89
Channel Event. t= 60 (177052) Controller ch=1 par1=10 (Pan) par2=103
Channel Event. t= 10 (177062) Note Off ch=1 par1=89 par2=64
Channel Event. t= 50 (177112) Controller ch=1 par1=10 (Pan) par2=101
Channel Event. t= 60 (177172) Controller ch=1 par1=10 (Pan) par2=99
Channel Event. t= 60 (177232) Controller ch=1 par1=10 (Pan) par2=97
Channel Event. t= 0 (177232) Note On ch=1 par1=77 par2=86
Channel Event. t= 57 (177289) Note Off ch=1 par1=77 par2=64
Channel Event. t= 3 (177292) Controller ch=1 par1=10 (Pan) par2=95
Channel Event. t= 60 (177352) Controller ch=1 par1=10 (Pan) par2=93
Channel Event. t= 60 (177412) Controller ch=1 par1=10 (Pan) par2=92
Channel Event. t= 60 (177472) Controller ch=1 par1=10 (Pan) par2=90
Channel Event. t= 0 (177472) Note On ch=1 par1=88 par2=99
Channel Event. t= 60 (177532) Controller ch=1 par1=10 (Pan) par2=88
Channel Event. t= 60 (177592) Note Off ch=1 par1=88 par2=64
Channel Event. t= 0 (177592) Controller ch=1 par1=10 (Pan) par2=86
Channel Event. t= 0 (177592) Note On ch=1 par1=89 par2=64
Channel Event. t= 60 (177652) Controller ch=1 par1=10 (Pan) par2=84
Channel Event. t= 0 (177652) Note On ch=1 par1=88 par2=64
Channel Event. t= 20 (177672) Note Off ch=1 par1=89 par2=64
Channel Event. t= 40 (177712) Controller ch=1 par1=10 (Pan) par2=82
Channel Event. t= 0 (177712) Note On ch=1 par1=89 par2=64
Channel Event. t= 20 (177732) Note Off ch=1 par1=88 par2=64
Channel Event. t= 40 (177772) Controller ch=1 par1=10 (Pan) par2=80
Channel Event. t= 20 (177792) Note Off ch=1 par1=89 par2=64
Channel Event. t= 0 (177792) Note On ch=1 par1=88 par2=13
Channel Event. t= 40 (177832) Controller ch=1 par1=10 (Pan) par2=79
Channel Event. t= 0 (177832) Note On ch=1 par1=89 par2=64
Channel Event. t= 20 (177852) Note Off ch=1 par1=88 par2=64
Channel Event. t= 40 (177892) Controller ch=1 par1=10 (Pan) par2=77
Channel Event. t= 0 (177892) Note On ch=1 par1=88 par2=64
Channel Event. t= 20 (177912) Note Off ch=1 par1=89 par2=64
Channel Event. t= 40 (177952) Controller ch=1 par1=10 (Pan) par2=75
Channel Event. t= 0 (177952) Note On ch=1 par1=83 par2=89
Channel Event. t= 20 (177972) Note Off ch=1 par1=88 par2=64
Channel Event. t= 40 (178012) Controller ch=1 par1=10 (Pan) par2=73
Channel Event. t= 32 (178044) Note Off ch=1 par1=83 par2=64
Channel Event. t= 28 (178072) Controller ch=1 par1=10 (Pan) par2=71
Channel Event. t= 60 (178132) Controller ch=1 par1=10 (Pan) par2=69
Channel Event. t= 60 (178192) Controller ch=1 par1=10 (Pan) par2=67
Channel Event. t= 0 (178192) Note On ch=1 par1=84 par2=82
Channel Event. t= 40 (178232) Note Off ch=1 par1=84 par2=64
Channel Event. t= 20 (178252) Controller ch=1 par1=10 (Pan) par2=66
Channel Event. t= 60 (178312) Controller ch=1 par1=10 (Pan) par2=64
Channel Event. t= 60 (178372) Controller ch=1 par1=10 (Pan) par2=62
Channel Event. t= 60 (178432) Controller ch=1 par1=10 (Pan) par2=60
Channel Event. t= 0 (178432) Note On ch=1 par1=85 par2=78
Channel Event. t= 60 (178492) Controller ch=1 par1=10 (Pan) par2=58
Channel Event. t= 20 (178512) Note On ch=1 par1=80 par2=84
Channel Event. t= 17 (178529) Note Off ch=1 par1=85 par2=64
Channel Event. t= 23 (178552) Controller ch=1 par1=10 (Pan) par2=56
Channel Event. t= 40 (178592) Note On ch=1 par1=77 par2=66
Channel Event. t= 20 (178612) Note Off ch=1 par1=80 par2=64
Channel Event. t= 0 (178612) Controller ch=1 par1=10 (Pan) par2=54
Channel Event. t= 55 (178667) Note Off ch=1 par1=77 par2=64
Channel Event. t= 5 (178672) Controller ch=1 par1=10 (Pan) par2=53
Channel Event. t= 0 (178672) Note On ch=1 par1=73 par2=69
Channel Event. t= 60 (178732) Controller ch=1 par1=10 (Pan) par2=51
Channel Event. t= 32 (178764) Note Off ch=1 par1=73 par2=64
Channel Event. t= 28 (178792) Controller ch=1 par1=10 (Pan) par2=49
Channel Event. t= 60 (178852) Controller ch=1 par1=10 (Pan) par2=47
Channel Event. t= 60 (178912) Controller ch=1 par1=10 (Pan) par2=45
Channel Event. t= 0 (178912) Note On ch=1 par1=89 par2=86
Channel Event. t= 60 (178972) Controller ch=1 par1=10 (Pan) par2=43
Channel Event. t= 10 (178982) Note Off ch=1 par1=89 par2=64
Channel Event. t= 50 (179032) Controller ch=1 par1=10 (Pan) par2=41
Channel Event. t= 60 (179092) Controller ch=1 par1=10 (Pan) par2=39
Channel Event. t= 60 (179152) Controller ch=1 par1=10 (Pan) par2=38
Channel Event. t= 0 (179152) Note On ch=1 par1=77 par2=82
Channel Event. t= 60 (179212) Controller ch=1 par1=10 (Pan) par2=36
Channel Event. t= 7 (179219) Note Off ch=1 par1=77 par2=64
Channel Event. t= 53 (179272) Controller ch=1 par1=10 (Pan) par2=34
Channel Event. t= 60 (179332) Controller ch=1 par1=10 (Pan) par2=32
Channel Event. t= 60 (179392) Controller ch=1 par1=10 (Pan) par2=30
Channel Event. t= 0 (179392) Note On ch=1 par1=88 par2=93
Channel Event. t= 60 (179452) Controller ch=1 par1=10 (Pan) par2=28
Channel Event. t= 47 (179499) Note Off ch=1 par1=88 par2=64
Channel Event. t= 13 (179512) Controller ch=1 par1=10 (Pan) par2=26
Channel Event. t= 60 (179572) Controller ch=1 par1=10 (Pan) par2=25
Channel Event. t= 37 (179609) Note On ch=1 par1=89 par2=80
Channel Event. t= 23 (179632) Controller ch=1 par1=10 (Pan) par2=23
Channel Event. t= 0 (179632) Note On ch=1 par1=88 par2=81
Channel Event. t= 60 (179692) Controller ch=1 par1=10 (Pan) par2=21
Channel Event. t= 7 (179699) Note Off ch=1 par1=89 par2=64
Channel Event. t= 53 (179752) Controller ch=1 par1=10 (Pan) par2=19
Channel Event. t= 17 (179769) Note Off ch=1 par1=88 par2=64
Channel Event. t= 43 (179812) Controller ch=1 par1=10 (Pan) par2=17
Channel Event. t= 60 (179872) Controller ch=1 par1=10 (Pan) par2=15
Channel Event. t= 0 (179872) Note On ch=1 par1=84 par2=86
Channel Event. t= 60 (179932) Controller ch=1 par1=10 (Pan) par2=13
Channel Event. t= 40 (179972) Note Off ch=1 par1=84 par2=64
Channel Event. t= 20 (179992) Controller ch=1 par1=10 (Pan) par2=12
Channel Event. t= 60 (180052) Controller ch=1 par1=10 (Pan) par2=10
Channel Event. t= 60 (180112) Controller ch=1 par1=10 (Pan) par2=8
Channel Event. t= 0 (180112) Note On ch=1 par1=79 par2=79
Channel Event. t= 60 (180172) Controller ch=1 par1=10 (Pan) par2=6
Channel Event. t= 52 (180224) Note Off ch=1 par1=79 par2=64
Channel Event. t= 8 (180232) Controller ch=1 par1=10 (Pan) par2=4
Channel Event. t= 60 (180292) Controller ch=1 par1=10 (Pan) par2=2
Channel Event. t= 57 (180349) Controller ch=1 par1=10 (Pan) par2=1
Channel Event. t= 3 (180352) Controller ch=1 par1=10 (Pan) par2=1
Channel Event. t= 0 (180352) Note On ch=1 par1=80 par2=92
Channel Event. t= 60 (180412) Controller ch=1 par1=10 (Pan) par2=2
Channel Event. t= 20 (180432) Note Off ch=1 par1=80 par2=64
Channel Event. t= 0 (180432) Note On ch=1 par1=77 par2=80
Channel Event. t= 40 (180472) Controller ch=1 par1=10 (Pan) par2=3
Channel Event. t= 25 (180497) Note Off ch=1 par1=77 par2=64
Channel Event. t= 15 (180512) Note On ch=1 par1=73 par2=71
Channel Event. t= 20 (180532) Controller ch=1 par1=10 (Pan) par2=4
Channel Event. t= 55 (180587) Note Off ch=1 par1=73 par2=64
Channel Event. t= 5 (180592) Controller ch=1 par1=10 (Pan) par2=5
Channel Event. t= 0 (180592) Note On ch=1 par1=68 par2=84
Channel Event. t= 60 (180652) Controller ch=1 par1=10 (Pan) par2=7
Channel Event. t= 32 (180684) Note Off ch=1 par1=68 par2=64
Channel Event. t= 28 (180712) Controller ch=1 par1=10 (Pan) par2=8
Channel Event. t= 60 (180772) Controller ch=1 par1=10 (Pan) par2=9
Channel Event. t= 60 (180832) Controller ch=1 par1=10 (Pan) par2=10
Channel Event. t= 0 (180832) Note On ch=1 par1=85 par2=70
Channel Event. t= 60 (180892) Controller ch=1 par1=10 (Pan) par2=12
Channel Event. t= 32 (180924) Note Off ch=1 par1=85 par2=64
Channel Event. t= 28 (180952) Controller ch=1 par1=10 (Pan) par2=13
Channel Event. t= 60 (181012) Controller ch=1 par1=10 (Pan) par2=14
Channel Event. t= 60 (181072) Controller ch=1 par1=10 (Pan) par2=15
Channel Event. t= 0 (181072) Note On ch=1 par1=73 par2=97
Channel Event. t= 60 (181132) Controller ch=1 par1=10 (Pan) par2=17
Channel Event. t= 7 (181139) Note Off ch=1 par1=73 par2=64
Channel Event. t= 53 (181192) Controller ch=1 par1=10 (Pan) par2=18
Channel Event. t= 60 (181252) Controller ch=1 par1=10 (Pan) par2=19
Channel Event. t= 60 (181312) Controller ch=1 par1=10 (Pan) par2=20
Channel Event. t= 0 (181312) Note On ch=1 par1=84 par2=93
Channel Event. t= 60 (181372) Controller ch=1 par1=10 (Pan) par2=22
Channel Event. t= 25 (181397) Note Off ch=1 par1=84 par2=64
Channel Event. t= 35 (181432) Controller ch=1 par1=10 (Pan) par2=23
Channel Event. t= 60 (181492) Controller ch=1 par1=10 (Pan) par2=24
Channel Event. t= 57 (181549) Note On ch=1 par1=85 par2=78
Channel Event. t= 3 (181552) Controller ch=1 par1=10 (Pan) par2=25
Channel Event. t= 0 (181552) Note On ch=1 par1=84 par2=92
Channel Event. t= 60 (181612) Controller ch=1 par1=10 (Pan) par2=27
Channel Event. t= 2 (181614) Note Off ch=1 par1=85 par2=64
Channel Event. t= 35 (181649) Note Off ch=1 par1=84 par2=64
Channel Event. t= 23 (181672) Controller ch=1 par1=10 (Pan) par2=28
Channel Event. t= 60 (181732) Controller ch=1 par1=10 (Pan) par2=29
Channel Event. t= 60 (181792) Controller ch=1 par1=10 (Pan) par2=30
Channel Event. t= 0 (181792) Note On ch=1 par1=79 par2=85
Channel Event. t= 60 (181852) Controller ch=1 par1=10 (Pan) par2=32
Channel Event. t= 50 (181902) Note Off ch=1 par1=79 par2=64
Channel Event. t= 10 (181912) Controller ch=1 par1=10 (Pan) par2=33
Channel Event. t= 60 (181972) Controller ch=1 par1=10 (Pan) par2=34
Channel Event. t= 60 (182032) Controller ch=1 par1=10 (Pan) par2=35
Channel Event. t= 0 (182032) Note On ch=1 par1=76 par2=85
Channel Event. t= 60 (182092) Controller ch=1 par1=10 (Pan) par2=36
Channel Event. t= 52 (182144) Note Off ch=1 par1=76 par2=64
Channel Event. t= 8 (182152) Controller ch=1 par1=10 (Pan) par2=38
Channel Event. t= 60 (182212) Controller ch=1 par1=10 (Pan) par2=39
Channel Event. t= 60 (182272) Controller ch=1 par1=10 (Pan) par2=40
Channel Event. t= 0 (182272) Note On ch=1 par1=77 par2=82
Channel Event. t= 60 (182332) Controller ch=1 par1=10 (Pan) par2=41
Channel Event. t= 20 (182352) Note On ch=1 par1=73 par2=75
Channel Event. t= 40 (182392) Controller ch=1 par1=10 (Pan) par2=43
Channel Event. t= 40 (182432) Note On ch=1 par1=71 par2=68
Channel Event. t= 20 (182452) Controller ch=1 par1=10 (Pan) par2=44
Channel Event. t= 17 (182469) Note Off ch=1 par1=73 par2=64
Channel Event. t= 0 (182469) Note Off ch=1 par1=77 par2=64
Channel Event. t= 43 (182512) Controller ch=1 par1=10 (Pan) par2=45
Channel Event. t= 0 (182512) Note On ch=1 par1=65 par2=90
Channel Event. t= 2 (182514) Note Off ch=1 par1=71 par2=64
Channel Event. t= 58 (182572) Note Off ch=1 par1=65 par2=64
Channel Event. t= 0 (182572) Controller ch=1 par1=10 (Pan) par2=46
Channel Event. t= 60 (182632) Controller ch=1 par1=10 (Pan) par2=48
Channel Event. t= 60 (182692) Controller ch=1 par1=10 (Pan) par2=49
Channel Event. t= 60 (182752) Controller ch=1 par1=10 (Pan) par2=50
Channel Event. t= 0 (182752) Note On ch=1 par1=80 par2=87
Channel Event. t= 60 (182812) Controller ch=1 par1=10 (Pan) par2=51
Channel Event. t= 22 (182834) Note Off ch=1 par1=80 par2=64
Channel Event. t= 38 (182872) Controller ch=1 par1=10 (Pan) par2=53
Channel Event. t= 60 (182932) Controller ch=1 par1=10 (Pan) par2=54
Channel Event. t= 60 (182992) Controller ch=1 par1=10 (Pan) par2=55
Channel Event. t= 0 (182992) Note On ch=1 par1=68 par2=94
Channel Event. t= 60 (183052) Controller ch=1 par1=10 (Pan) par2=56
Channel Event. t= 17 (183069) Note Off ch=1 par1=68 par2=64
Channel Event. t= 43 (183112) Controller ch=1 par1=10 (Pan) par2=58
Channel Event. t= 60 (183172) Controller ch=1 par1=10 (Pan) par2=59
Channel Event. t= 60 (183232) Controller ch=1 par1=10 (Pan) par2=60
Channel Event. t= 0 (183232) Note On ch=1 par1=67 par2=100
Channel Event. t= 60 (183292) Controller ch=1 par1=10 (Pan) par2=61
Channel Event. t= 60 (183352) Controller ch=1 par1=10 (Pan) par2=63
Channel Event. t= 60 (183412) Controller ch=1 par1=10 (Pan) par2=64
Channel Event. t= 60 (183472) Controller ch=1 par1=10 (Pan) par2=65
Channel Event. t= 60 (183532) Controller ch=1 par1=10 (Pan) par2=66
Channel Event. t= 60 (183592) Controller ch=1 par1=10 (Pan) par2=67
Channel Event. t= 60 (183652) Controller ch=1 par1=10 (Pan) par2=69
Channel Event. t= 60 (183712) Controller ch=1 par1=10 (Pan) par2=70
Channel Event. t= 60 (183772) Controller ch=1 par1=10 (Pan) par2=71
Channel Event. t= 60 (183832) Controller ch=1 par1=10 (Pan) par2=72
Channel Event. t= 60 (183892) Controller ch=1 par1=10 (Pan) par2=74
Channel Event. t= 60 (183952) Controller ch=1 par1=10 (Pan) par2=75
Channel Event. t= 60 (184012) Controller ch=1 par1=10 (Pan) par2=76
Channel Event. t= 60 (184072) Controller ch=1 par1=10 (Pan) par2=77
Channel Event. t= 60 (184132) Controller ch=1 par1=10 (Pan) par2=79
Channel Event. t= 57 (184189) Note On ch=1 par1=60 par2=77
Channel Event. t= 3 (184192) Note Off ch=1 par1=67 par2=64
Channel Event. t= 0 (184192) Controller ch=1 par1=10 (Pan) par2=80
Channel Event. t= 60 (184252) Controller ch=1 par1=10 (Pan) par2=81
Channel Event. t= 60 (184312) Controller ch=1 par1=10 (Pan) par2=82
Channel Event. t= 60 (184372) Controller ch=1 par1=10 (Pan) par2=84
Channel Event. t= 57 (184429) Note Off ch=1 par1=60 par2=64
Channel Event. t= 3 (184432) Controller ch=1 par1=10 (Pan) par2=85
Channel Event. t= 60 (184492) Controller ch=1 par1=10 (Pan) par2=86
Channel Event. t= 60 (184552) Controller ch=1 par1=10 (Pan) par2=87
Channel Event. t= 60 (184612) Controller ch=1 par1=10 (Pan) par2=89
Channel Event. t= 60 (184672) Controller ch=1 par1=10 (Pan) par2=90
Channel Event. t= 60 (184732) Controller ch=1 par1=10 (Pan) par2=91
Channel Event. t= 60 (184792) Controller ch=1 par1=10 (Pan) par2=92
Channel Event. t= 60 (184852) Controller ch=1 par1=10 (Pan) par2=94
Channel Event. t= 60 (184912) Controller ch=1 par1=10 (Pan) par2=95
Channel Event. t= 60 (184972) Controller ch=1 par1=10 (Pan) par2=96
Channel Event. t= 60 (185032) Controller ch=1 par1=10 (Pan) par2=97
Channel Event. t= 60 (185092) Controller ch=1 par1=10 (Pan) par2=98
Channel Event. t= 60 (185152) Controller ch=1 par1=10 (Pan) par2=100
Channel Event. t= 60 (185212) Controller ch=1 par1=10 (Pan) par2=101
Channel Event. t= 60 (185272) Controller ch=1 par1=10 (Pan) par2=102
Channel Event. t= 60 (185332) Controller ch=1 par1=10 (Pan) par2=103
Channel Event. t= 60 (185392) Controller ch=1 par1=10 (Pan) par2=105
Channel Event. t= 60 (185452) Controller ch=1 par1=10 (Pan) par2=106
Channel Event. t= 60 (185512) Controller ch=1 par1=10 (Pan) par2=107
Channel Event. t= 60 (185572) Controller ch=1 par1=10 (Pan) par2=108
Channel Event. t= 60 (185632) Controller ch=1 par1=10 (Pan) par2=110
Channel Event. t= 60 (185692) Controller ch=1 par1=10 (Pan) par2=111
Channel Event. t= 60 (185752) Controller ch=1 par1=10 (Pan) par2=112
Channel Event. t= 60 (185812) Controller ch=1 par1=10 (Pan) par2=113
Channel Event. t= 60 (185872) Controller ch=1 par1=10 (Pan) par2=115
Channel Event. t= 60 (185932) Controller ch=1 par1=10 (Pan) par2=116
Channel Event. t= 60 (185992) Controller ch=1 par1=10 (Pan) par2=117
Channel Event. t= 60 (186052) Controller ch=1 par1=10 (Pan) par2=118
Channel Event. t= 57 (186109) Controller ch=1 par1=10 (Pan) par2=120
Channel Event. t= 0 (186109) 
Meta Event. Type: 0x2f (47dec), End of Track (0 bytes): 
track #55
track size: 258
Channel Event. t= 0 (0) 
Meta Event. Type: 0x3 (3dec), Sequence/Track Name (20 bytes): Bassoon             
Channel Event. t= 0 (0) 
Meta Event. Type: 0x21 (33dec), MIDI Port (1 bytes): 0
Channel Event. t= 0 (0) 
Meta Event. Type: 0x20 (32dec), MIDI Channel Prefix (1 bytes): 4
Channel Event. t= 0 (0) Controller ch=4 par1=10 (Pan) par2=64
Channel Event. t= 0 (0) Controller ch=4 par1=91 (Effects 2 Depth (formerly Tremolo Depth)) par2=127
Channel Event. t= 0 (0) Program Change ch=4 par1=86 par2=-74
Channel Event. t= 7584 (7584) Controller ch=4 par1=7 (Main Volume) par2=70
Channel Event. t= 282 (7866) Note On ch=4 par1=36 par2=69
Channel Event. t= 178 (8044) Note On ch=4 par1=43 par2=71
Channel Event. t= 17 (8061) Note Off ch=4 par1=36 par2=64
Channel Event. t= 133 (8194) Note Off ch=4 par1=43 par2=64
Channel Event. t= 145 (8339) Note On ch=4 par1=43 par2=64
Channel Event. t= 97 (8436) Note Off ch=4 par1=43 par2=64
Channel Event. t= 73 (8509) Note On ch=4 par1=36 par2=79
Channel Event. t= 790 (9299) Note On ch=4 par1=39 par2=79
Channel Event. t= 47 (9346) Note Off ch=4 par1=36 par2=64
Channel Event. t= 133 (9479) Note Off ch=4 par1=39 par2=64
Channel Event. t= 2 (9481) Note On ch=4 par1=40 par2=74
Channel Event. t= 300 (9781) Note On ch=4 par1=44 par2=73
Channel Event. t= 3 (9784) Note Off ch=4 par1=40 par2=64
Channel Event. t= 120 (9904) Note Off ch=4 par1=44 par2=64
Channel Event. t= 40 (9944) Note On ch=4 par1=45 par2=71
Channel Event. t= 292 (10236) Note Off ch=4 par1=45 par2=64
Channel Event. t= 13 (10249) Note On ch=4 par1=41 par2=63
Channel Event. t= 170 (10419) Note Off ch=4 par1=41 par2=64
Channel Event. t= 0 (10419) Note On ch=4 par1=50 par2=69
Channel Event. t= 245 (10664) Note Off ch=4 par1=50 par2=64
Channel Event. t= 67 (10731) Note On ch=4 par1=50 par2=71
Channel Event. t= 100 (10831) Note Off ch=4 par1=50 par2=64
Channel Event. t= 80 (10911) Note On ch=4 par1=50 par2=86
Channel Event. t= 143 (11054) Note On ch=4 par1=51 par2=78
Channel Event. t= 27 (11081) Note Off ch=4 par1=50 par2=64
Channel Event. t= 103 (11184) Note Off ch=4 par1=51 par2=64
Channel Event. t= 20 (11204) Note On ch=4 par1=52 par2=82
Channel Event. t= 85 (11289) Note Off ch=4 par1=52 par2=64
Channel Event. t= 77 (11366) Note On ch=4 par1=52 par2=79
Channel Event. t= 155 (11521) Note Off ch=4 par1=52 par2=64
Channel Event. t= 10 (11531) Note On ch=4 par1=53 par2=77
Channel Event. t= 175 (11706) Note On ch=4 par1=54 par2=77
Channel Event. t= 5 (11711) Note Off ch=4 par1=53 par2=64
Channel Event. t= 170 (11881) Note Off ch=4 par1=54 par2=64
Channel Event. t= 8 (11889) Note On ch=4 par1=55 par2=91
Channel Event. t= 1432 (13321) Note On ch=4 par1=56 par2=80
Channel Event. t= 23 (13344) Note Off ch=4 par1=55 par2=64
Channel Event. t= 115 (13459) Note On ch=4 par1=57 par2=65
Channel Event. t= 20 (13479) Note Off ch=4 par1=56 par2=64
Channel Event. t= 135 (13614) Note On ch=4 par1=58 par2=75
Channel Event. t= 12 (13626) Note Off ch=4 par1=57 par2=64
Channel Event. t= 170 (13796) Note On ch=4 par1=59 par2=90
Channel Event. t= 8 (13804) Note Off ch=4 par1=58 par2=64
Channel Event. t= 932 (14736) Note On ch=4 par1=60 par2=71
Channel Event. t= 10 (14746) Note Off ch=4 par1=59 par2=64
Channel Event. t= 405 (15151) Note Off ch=4 par1=60 par2=64
Channel Event. t= 0 (15151) 
Meta Event. Type: 0x2f (47dec), End of Track (0 bytes): 
track #56
track size: 270
Channel Event. t= 0 (0) 
Meta Event. Type: 0x3 (3dec), Sequence/Track Name (20 bytes): Oboe                
Channel Event. t= 0 (0) 
Meta Event. Type: 0x21 (33dec), MIDI Port (1 bytes): 0
Channel Event. t= 0 (0) 
Meta Event. Type: 0x20 (32dec), MIDI Channel Prefix (1 bytes): 2
Channel Event. t= 0 (0) Controller ch=2 par1=10 (Pan) par2=64
Channel Event. t= 0 (0) Controller ch=2 par1=91 (Effects 2 Depth (formerly Tremolo Depth)) par2=127
Channel Event. t= 0 (0) Program Change ch=2 par1=84 par2=-79
Channel Event. t= 15106 (15106) Note On ch=2 par1=64 par2=39
Channel Event. t= 468 (15574) Note Off ch=2 par1=64 par2=64
Channel Event. t= 515 (16089) Note On ch=2 par1=63 par2=45
Channel Event. t= 512 (16601) Note Off ch=2 par1=63 par2=64
Channel Event. t= 423 (17024) Note On ch=2 par1=64 par2=43
Channel Event. t= 537 (17561) Note Off ch=2 par1=64 par2=64
Channel Event. t= 383 (17944) Note On ch=2 par1=63 par2=43
Channel Event. t= 557 (18501) Note Off ch=2 par1=63 par2=64
Channel Event. t= 435 (18936) Note On ch=2 par1=64 par2=43
Channel Event. t= 560 (19496) Note Off ch=2 par1=64 par2=64
Channel Event. t= 390 (19886) Note On ch=2 par1=63 par2=59
Channel Event. t= 530 (20416) Note Off ch=2 par1=63 par2=64
Channel Event. t= 418 (20834) Note On ch=2 par1=64 par2=49
Channel Event. t= 587 (21421) Note Off ch=2 par1=64 par2=64
Channel Event. t= 368 (21789) Note On ch=2 par1=63 par2=49
Channel Event. t= 530 (22319) Note Off ch=2 par1=63 par2=64
Channel Event. t= 465 (22784) Note On ch=2 par1=76 par2=45
Channel Event. t= 517 (23301) Note Off ch=2 par1=76 par2=64
Channel Event. t= 385 (23686) Note On ch=2 par1=75 par2=43
Channel Event. t= 568 (24254) Note Off ch=2 par1=75 par2=64
Channel Event. t= 442 (24696) Note On ch=2 par1=76 par2=55
Channel Event. t= 488 (25184) Note Off ch=2 par1=76 par2=64
Channel Event. t= 452 (25636) Note On ch=2 par1=75 par2=51
Channel Event. t= 523 (26159) Note Off ch=2 par1=75 par2=64
Channel Event. t= 427 (26586) Note On ch=2 par1=76 par2=56
Channel Event. t= 475 (27061) Note Off ch=2 par1=76 par2=64
Channel Event. t= 490 (27551) Note On ch=2 par1=75 par2=43
Channel Event. t= 545 (28096) Note Off ch=2 par1=75 par2=64
Channel Event. t= 4253 (32349) Note On ch=2 par1=76 par2=58
Channel Event. t= 430 (32779) Note Off ch=2 par1=76 par2=64
Channel Event. t= 532 (33311) Note On ch=2 par1=75 par2=51
Channel Event. t= 435 (33746) Note Off ch=2 par1=75 par2=64
Channel Event. t= 540 (34286) Note On ch=2 par1=76 par2=52
Channel Event. t= 410 (34696) Note Off ch=2 par1=76 par2=64
Channel Event. t= 538 (35234) Note On ch=2 par1=75 par2=61
Channel Event. t= 460 (35694) Note Off ch=2 par1=75 par2=64
Channel Event. t= 507 (36201) Note On ch=2 par1=76 par2=53
Channel Event. t= 453 (36654) Note Off ch=2 par1=76 par2=64
Channel Event. t= 472 (37126) Note On ch=2 par1=75 par2=54
Channel Event. t= 513 (37639) Note Off ch=2 par1=75 par2=64
Channel Event. t= 500 (38139) Note On ch=2 par1=76 par2=51
Channel Event. t= 472 (38611) Note Off ch=2 par1=76 par2=64
Channel Event. t= 488 (39099) Note On ch=2 par1=75 par2=60
Channel Event. t= 530 (39629) Note Off ch=2 par1=75 par2=64
Channel Event. t= 0 (39629) 
Meta Event. Type: 0x2f (47dec), End of Track (0 bytes): 
track #57
track size: 492
Channel Event. t= 0 (0) 
Meta Event. Type: 0x3 (3dec), Sequence/Track Name (20 bytes): French Horn         
Channel Event. t= 0 (0) 
Meta Event. Type: 0x21 (33dec), MIDI Port (1 bytes): 0
Channel Event. t= 0 (0) 
Meta Event. Type: 0x20 (32dec), MIDI Channel Prefix (1 bytes): 3
Channel Event. t= 0 (0) Controller ch=3 par1=10 (Pan) par2=64
Channel Event. t= 0 (0) Controller ch=3 par1=91 (Effects 2 Depth (formerly Tremolo Depth)) par2=127
Channel Event. t= 0 (0) Program Change ch=3 par1=92 par2=-78
Channel Event. t= 5710 (5710) Controller ch=3 par1=7 (Main Volume) par2=70
Channel Event. t= 210 (5920) Note On ch=3 par1=59 par2=88
Channel Event. t= 480 (6400) Note On ch=3 par1=60 par2=77
Channel Event. t= 45 (6445) Note Off ch=3 par1=59 par2=64
Channel Event. t= 275 (6720) Note Off ch=3 par1=60 par2=64
Channel Event. t= 160 (6880) Note On ch=3 par1=62 par2=88
Channel Event. t= 272 (7152) Note Off ch=3 par1=62 par2=64
Channel Event. t= 208 (7360) Note On ch=3 par1=63 par2=93
Channel Event. t= 390 (7750) Note Off ch=3 par1=63 par2=64
Channel Event. t= 90 (7840) Note On ch=3 par1=59 par2=75
Channel Event. t= 480 (8320) Note On ch=3 par1=60 par2=53
Channel Event. t= 32 (8352) Note Off ch=3 par1=59 par2=64
Channel Event. t= 238 (8590) Note Off ch=3 par1=60 par2=64
Channel Event. t= 210 (8800) Note On ch=3 par1=62 par2=68
Channel Event. t= 232 (9032) Note Off ch=3 par1=62 par2=64
Channel Event. t= 248 (9280) Note On ch=3 par1=63 par2=86
Channel Event. t= 370 (9650) Note Off ch=3 par1=63 par2=64
Channel Event. t= 110 (9760) Note On ch=3 par1=59 par2=75
Channel Event. t= 480 (10240) Note On ch=3 par1=60 par2=98
Channel Event. t= 25 (10265) Note Off ch=3 par1=59 par2=64
Channel Event. t= 215 (10480) Note On ch=3 par1=63 par2=72
Channel Event. t= 5 (10485) Note Off ch=3 par1=60 par2=64
Channel Event. t= 225 (10710) Note Off ch=3 par1=63 par2=64
Channel Event. t= 10 (10720) Note On ch=3 par1=64 par2=43
Channel Event. t= 240 (10960) Note On ch=3 par1=67 par2=57
Channel Event. t= 7 (10967) Note Off ch=3 par1=64 par2=64
Channel Event. t= 230 (11197) Note Off ch=3 par1=67 par2=64
Channel Event. t= 3 (11200) Note On ch=3 par1=71 par2=93
Channel Event. t= 410 (11610) Note Off ch=3 par1=71 par2=64
Channel Event. t= 70 (11680) Note On ch=3 par1=70 par2=96
Channel Event. t= 220 (11900) Note Off ch=3 par1=70 par2=64
Channel Event. t= 20 (11920) Note On ch=3 par1=71 par2=78
Channel Event. t= 240 (12160) Note On ch=3 par1=72 par2=76
Channel Event. t= 40 (12200) Note Off ch=3 par1=71 par2=64
Channel Event. t= 175 (12375) Note Off ch=3 par1=72 par2=64
Channel Event. t= 265 (12640) Note On ch=3 par1=76 par2=74
Channel Event. t= 242 (12882) Note Off ch=3 par1=76 par2=64
Channel Event. t= 238 (13120) Note On ch=3 par1=75 par2=91
Channel Event. t= 960 (14080) Note Off ch=3 par1=75 par2=64
Channel Event. t= 0 (14080) Note On ch=3 par1=72 par2=69
Channel Event. t= 317 (14397) Note Off ch=3 par1=72 par2=64
Channel Event. t= 163 (14560) Note On ch=3 par1=76 par2=70
Channel Event. t= 367 (14927) Note Off ch=3 par1=76 par2=64
Channel Event. t= 113 (15040) Note On ch=3 par1=75 par2=85
Channel Event. t= 200 (15240) Note Off ch=3 par1=75 par2=64
Channel Event. t= 0 (15240) Note On ch=3 par1=76 par2=69
Channel Event. t= 40 (15280) Note On ch=3 par1=75 par2=83
Channel Event. t= 57 (15337) Note Off ch=3 par1=76 par2=64
Channel Event. t= 173 (15510) Note Off ch=3 par1=75 par2=64
Channel Event. t= 10 (15520) Note On ch=3 par1=71 par2=82
Channel Event. t= 225 (15745) Note Off ch=3 par1=71 par2=64
Channel Event. t= 15 (15760) Note On ch=3 par1=66 par2=84
Channel Event. t= 202 (15962) Note Off ch=3 par1=66 par2=64
Channel Event. t= 38 (16000) Note On ch=3 par1=67 par2=81
Channel Event. t= 300 (16300) Note Off ch=3 par1=67 par2=64
Channel Event. t= 180 (16480) Note On ch=3 par1=72 par2=67
Channel Event. t= 330 (16810) Note Off ch=3 par1=72 par2=64
Channel Event. t= 150 (16960) Note On ch=3 par1=71 par2=78
Channel Event. t= 202 (17162) Note On ch=3 par1=72 par2=77
Channel Event. t= 3 (17165) Note Off ch=3 par1=71 par2=64
Channel Event. t= 35 (17200) Note On ch=3 par1=71 par2=67
Channel Event. t= 77 (17277) Note Off ch=3 par1=72 par2=64
Channel Event. t= 155 (17432) Note Off ch=3 par1=71 par2=64
Channel Event. t= 8 (17440) Note On ch=3 par1=66 par2=70
Channel Event. t= 240 (17680) Note On ch=3 par1=63 par2=71
Channel Event. t= 10 (17690) Note Off ch=3 par1=66 par2=64
Channel Event. t= 230 (17920) Note On ch=3 par1=64 par2=87
Channel Event. t= 22 (17942) Note Off ch=3 par1=63 par2=64
Channel Event. t= 245 (18187) Note Off ch=3 par1=64 par2=64
Channel Event. t= 213 (18400) Note On ch=3 par1=67 par2=69
Channel Event. t= 345 (18745) Note Off ch=3 par1=67 par2=64
Channel Event. t= 135 (18880) Note On ch=3 par1=66 par2=81
Channel Event. t= 407 (19287) Note Off ch=3 par1=66 par2=64
Channel Event. t= 73 (19360) Note On ch=3 par1=62 par2=63
Channel Event. t= 240 (19600) Note On ch=3 par1=63 par2=59
Channel Event. t= 20 (19620) Note Off ch=3 par1=62 par2=64
Channel Event. t= 220 (19840) Note On ch=3 par1=64 par2=52
Channel Event. t= 22 (19862) Note Off ch=3 par1=63 par2=64
Channel Event. t= 278 (20140) Note Off ch=3 par1=64 par2=64
Channel Event. t= 180 (20320) Note On ch=3 par1=67 par2=48
Channel Event. t= 265 (20585) Note Off ch=3 par1=67 par2=64
Channel Event. t= 215 (20800) Note On ch=3 par1=66 par2=79
Channel Event. t= 420 (21220) Note Off ch=3 par1=66 par2=64
Channel Event. t= 60 (21280) Note On ch=3 par1=62 par2=76
Channel Event. t= 240 (21520) Note On ch=3 par1=63 par2=64
Channel Event. t= 15 (21535) Note Off ch=3 par1=62 par2=64
Channel Event. t= 225 (21760) Note On ch=3 par1=64 par2=60
Channel Event. t= 5 (21765) Note Off ch=3 par1=63 par2=64
Channel Event. t= 305 (22070) Note Off ch=3 par1=64 par2=64
Channel Event. t= 170 (22240) Note On ch=3 par1=67 par2=67
Channel Event. t= 242 (22482) Note Off ch=3 par1=67 par2=64
Channel Event. t= 238 (22720) Note On ch=3 par1=66 par2=82
Channel Event. t= 902 (23622) Note Off ch=3 par1=66 par2=64
Channel Event. t= 58 (23680) Note On ch=3 par1=59 par2=73
Channel Event. t= 1900 (25580) Note Off ch=3 par1=59 par2=64
Channel Event. t= 0 (25580) 
Meta Event. Type: 0x2f (47dec), End of Track (0 bytes): 
track #58
track size: 33
Channel Event. t= 0 (0) 
Meta Event. Type: 0x3 (3dec), Sequence/Track Name (20 bytes):                     
Channel Event. t= 0 (0) 
Meta Event. Type: 0x21 (33dec), MIDI Port (1 bytes): 0
Channel Event. t= 0 (0) 
Meta Event. Type: 0x2f (47dec), End of Track (0 bytes): 
track #59
track size: 33
Channel Event. t= 0 (0) 
Meta Event. Type: 0x3 (3dec), Sequence/Track Name (20 bytes): ~~~~~~~~~~~~~~~~~~~~
Channel Event. t= 0 (0) 
Meta Event. Type: 0x21 (33dec), MIDI Port (1 bytes): 0
Channel Event. t= 0 (0) 
Meta Event. Type: 0x2f (47dec), End of Track (0 bytes): 
track #60
track size: 33
Channel Event. t= 0 (0) 
Meta Event. Type: 0x3 (3dec), Sequence/Track Name (20 bytes): PETER AND THE WOLF  
Channel Event. t= 0 (0) 
Meta Event. Type: 0x21 (33dec), MIDI Port (1 bytes): 0
Channel Event. t= 0 (0) 
Meta Event. Type: 0x2f (47dec), End of Track (0 bytes): 
track #61
track size: 33
Channel Event. t= 0 (0) 
Meta Event. Type: 0x3 (3dec), Sequence/Track Name (20 bytes): by: Serge Prokofiev 
Channel Event. t= 0 (0) 
Meta Event. Type: 0x21 (33dec), MIDI Port (1 bytes): 0
Channel Event. t= 0 (0) 
Meta Event. Type: 0x2f (47dec), End of Track (0 bytes): 
track #62
track size: 60
Channel Event. t= 0 (0) 
Meta Event. Type: 0x3 (3dec), Sequence/Track Name (47 bytes): -----------------------------------------------
Channel Event. t= 0 (0) 
Meta Event. Type: 0x21 (33dec), MIDI Port (1 bytes): 0
Channel Event. t= 0 (0) 
Meta Event. Type: 0x2f (47dec), End of Track (0 bytes): 
track #63
track size: 34
Channel Event. t= 0 (0) 
Meta Event. Type: 0x3 (3dec), Sequence/Track Name (21 bytes): Vanessa-Mae Midi Hall
Channel Event. t= 0 (0) 
Meta Event. Type: 0x21 (33dec), MIDI Port (1 bytes): 0
Channel Event. t= 0 (0) 
Meta Event. Type: 0x2f (47dec), End of Track (0 bytes): 
track #64
track size: 47
Channel Event. t= 0 (0) 
Meta Event. Type: 0x3 (3dec), Sequence/Track Name (34 bytes): http://members.xoom.com/vanessamae
Channel Event. t= 0 (0) 
Meta Event. Type: 0x21 (33dec), MIDI Port (1 bytes): 0
Channel Event. t= 0 (0) 
Meta Event. Type: 0x2f (47dec), End of Track (0 bytes): 
track #65
track size: 32
Channel Event. t= 0 (0) 
Meta Event. Type: 0x3 (3dec), Sequence/Track Name (19 bytes): vmaysan@hotmail.com
Channel Event. t= 0 (0) 
Meta Event. Type: 0x21 (33dec), MIDI Port (1 bytes): 0
Channel Event. t= 0 (0) 
Meta Event. Type: 0x2f (47dec), End of Track (0 bytes): 
track #66
track size: 59
Channel Event. t= 0 (0) 
Meta Event. Type: 0x3 (3dec), Sequence/Track Name (46 bytes): ----------------------------------------------
Channel Event. t= 0 (0) 
Meta Event. Type: 0x21 (33dec), MIDI Port (1 bytes): 0
Channel Event. t= 0 (0) 
End of file

ABSTRACT: 
---------
SMF: ../midi/pwolf.mid
Format type: 1
Time division: 0 (ticks_per_beat)
Number of tracks: 66
ticks_per_beat: 480
Time Signature: 4 / 4
Number of bars: 512.000000
